<svg fill="none" viewBox="0 0 32 32" xmlns="http://www.w3.org/2000/svg"><path d="m10.992 25.443 2.5085-6.943h5.0938l2.2373 6.8566c0.555 1.3443-0.4129 2.8309-1.8433 2.8309h-6.1196c-1.3915 0-2.3577-1.413-1.8767-2.7445z" fill="url(#l)"/><path d="m10.992 25.443 2.5085-6.943h5.0938l2.2373 6.8566c0.555 1.3443-0.4129 2.8309-1.8433 2.8309h-6.1196c-1.3915 0-2.3577-1.413-1.8767-2.7445z" fill="url(#i)"/><path d="m10.992 25.443 2.5085-6.943h5.0938l2.2373 6.8566c0.555 1.3443-0.4129 2.8309-1.8433 2.8309h-6.1196c-1.3915 0-2.3577-1.413-1.8767-2.7445z" fill="url(#h)"/><path d="m10.992 25.443 2.5085-6.943h5.0938l2.2373 6.8566c0.555 1.3443-0.4129 2.8309-1.8433 2.8309h-6.1196c-1.3915 0-2.3577-1.413-1.8767-2.7445z" fill="url(#g)"/><path d="M4 16C4 13.7292 4.63072 11.6058 5.72653 9.79528L9.5 8L12.7584 4.44294C13.7896 4.15433 14.8768 4 16 4C17.626 4 19.1764 4.32338 20.5905 4.90934L23.5 10.5L27.9552 14.9562C27.9849 15.3002 28 15.6483 28 16V18C28 19.1046 27.1046 20 26 20H6C4.89543 20 4 19.1046 4 18V16Z" fill="url(#f)"/><path d="M4 16C4 13.7292 4.63072 11.6058 5.72653 9.79528L9.5 8L12.7584 4.44294C13.7896 4.15433 14.8768 4 16 4C17.626 4 19.1764 4.32338 20.5905 4.90934L23.5 10.5L27.9552 14.9562C27.9849 15.3002 28 15.6483 28 16V18C28 19.1046 27.1046 20 26 20H6C4.89543 20 4 19.1046 4 18V16Z" fill="url(#e)"/><path d="M4 16C4 13.7292 4.63072 11.6058 5.72653 9.79528L9.5 8L12.7584 4.44294C13.7896 4.15433 14.8768 4 16 4C17.626 4 19.1764 4.32338 20.5905 4.90934L23.5 10.5L27.9552 14.9562C27.9849 15.3002 28 15.6483 28 16V18C28 19.1046 27.1046 20 26 20H6C4.89543 20 4 19.1046 4 18V16Z" fill="url(#d)"/><path d="M4 16C4 13.7292 4.63072 11.6058 5.72653 9.79528L9.5 8L12.7584 4.44294C13.7896 4.15433 14.8768 4 16 4C17.626 4 19.1764 4.32338 20.5905 4.90934L23.5 10.5L27.9552 14.9562C27.9849 15.3002 28 15.6483 28 16V18C28 19.1046 27.1046 20 26 20H6C4.89543 20 4 19.1046 4 18V16Z" fill="url(#c)"/><path d="M4 16C4 13.7292 4.63072 11.6058 5.72653 9.79528L9.5 8L12.7584 4.44294C13.7896 4.15433 14.8768 4 16 4C17.626 4 19.1764 4.32338 20.5905 4.90934L23.5 10.5L27.9552 14.9562C27.9849 15.3002 28 15.6483 28 16V18C28 19.1046 27.1046 20 26 20H6C4.89543 20 4 19.1046 4 18V16Z" fill="url(#b)"/><path d="m12.789 4.4343c0.0529 0.29027 0.0807 0.58952 0.0807 0.8957 0 2.74-2.23 4.96-4.97 4.97-0.77717 0-1.5152-0.1828-2.1729-0.50567 1.5658-2.5865 4.0809-4.5342 7.0622-5.36z" fill="#FFBCBD"/><path d="m12.789 4.4343c0.0529 0.29027 0.0807 0.58952 0.0807 0.8957 0 2.74-2.23 4.96-4.97 4.97-0.77717 0-1.5152-0.1828-2.1729-0.50567 1.5658-2.5865 4.0809-4.5342 7.0622-5.36z" fill="url(#a)"/><path d="m20.573 4.902c-0.722 1.0613-1.1425 2.343-1.1425 3.7281 0 3.66 2.97 6.63 6.63 6.63 0.659 0 1.2965-0.0969 1.8974-0.2767-0.3831-4.5668-3.3237-8.4062-7.3849-10.081z" fill="#FFE1E9"/><path d="m20.573 4.902c-0.722 1.0613-1.1425 2.343-1.1425 3.7281 0 3.66 2.97 6.63 6.63 6.63 0.659 0 1.2965-0.0969 1.8974-0.2767-0.3831-4.5668-3.3237-8.4062-7.3849-10.081z" fill="url(#k)"/><path d="m14.94 17.04c1.5132 0 2.74-1.2268 2.74-2.74 0-1.5133-1.2268-2.74-2.74-2.74-1.5133 0-2.74 1.2267-2.74 2.74 0 1.5132 1.2267 2.74 2.74 2.74z" fill="url(#j)"/><defs><linearGradient id="l" x1="15.928" x2="15.928" y1="17.902" y2="28.188" gradientUnits="userSpaceOnUse"><stop stop-color="#F4869C" offset="0"/><stop stop-color="#FA89A2" offset=".27203"/><stop stop-color="#FFAAAD" offset=".4261"/><stop stop-color="#FFBDAF" offset=".70855"/><stop stop-color="#FFB6C3" offset=".88187"/><stop stop-color="#FF92C0" offset="1"/></linearGradient><linearGradient id="i" x1="10.866" x2="12.188" y1="24.493" y2="24.969" gradientUnits="userSpaceOnUse"><stop stop-color="#DB937A" offset="0"/><stop stop-color="#E39A81" stop-opacity="0" offset="1"/></linearGradient><linearGradient id="h" x1="21.562" x2="19.25" y1="22.188" y2="23.344" gradientUnits="userSpaceOnUse"><stop stop-color="#D26982" offset=".38919"/><stop stop-color="#DC7388" stop-opacity="0" offset="1"/></linearGradient><radialGradient id="g" cx="0" cy="0" r="1" gradientTransform="translate(18.062 24.812) rotate(87.207) scale(2.5656 4.6911)" gradientUnits="userSpaceOnUse"><stop stop-color="#FFD2BA" offset="0"/><stop stop-color="#FFD6C1" stop-opacity="0" offset="1"/></radialGradient><radialGradient id="f" cx="0" cy="0" r="1" gradientTransform="translate(16 13.625) rotate(90) scale(15.375 15.647)" gradientUnits="userSpaceOnUse"><stop stop-color="#FF465A" offset=".54667"/><stop stop-color="#AF1816" offset="1"/></radialGradient><radialGradient id="e" cx="0" cy="0" r="1" gradientTransform="translate(19.438 12) rotate(111.92) scale(5.5244 5.8911)" gradientUnits="userSpaceOnUse"><stop stop-color="#FF6783" offset="0"/><stop stop-color="#FF6783" stop-opacity="0" offset="1"/></radialGradient><radialGradient id="d" cx="0" cy="0" r="1" gradientTransform="translate(18.25 8.625) rotate(81.336) scale(13.276 34.643)" gradientUnits="userSpaceOnUse"><stop stop-color="#FB3E7B" stop-opacity="0" offset=".59512"/><stop stop-color="#CF2FAA" offset=".95803"/></radialGradient><radialGradient id="c" cx="0" cy="0" r="1" gradientTransform="translate(8.8125 15.5) rotate(36.193) scale(6.3504 6.797)" gradientUnits="userSpaceOnUse"><stop stop-color="#FF5152" offset="0"/><stop stop-color="#FE5152" stop-opacity="0" offset=".54424"/></radialGradient><radialGradient id="b" cx="0" cy="0" r="1" gradientTransform="translate(9.4375 7.1875) rotate(65.854) scale(7.9451 7.7589)" gradientUnits="userSpaceOnUse"><stop stop-color="#FF3942" offset="0"/><stop stop-color="#FF3A43" stop-opacity="0" offset=".75594"/></radialGradient><radialGradient id="a" cx="0" cy="0" r="1" gradientTransform="translate(11.188 9.0625) rotate(144.6) scale(9.278 5.0965)" gradientUnits="userSpaceOnUse"><stop stop-color="#FFBDC0" offset=".13574"/><stop stop-color="#E8A7A1" offset=".56204"/><stop stop-color="#BB867E" offset=".79533"/></radialGradient><radialGradient id="k" cx="0" cy="0" r="1" gradientTransform="translate(20.062 12.562) rotate(41.561) scale(10.551 8.2996)" gradientUnits="userSpaceOnUse"><stop stop-color="#FFE0EA" offset=".049669"/><stop stop-color="#FFE0DE" offset=".63568"/><stop stop-color="#FFBFBB" offset=".88804"/><stop stop-color="#F5BCAE" offset="1"/></radialGradient><radialGradient id="j" cx="0" cy="0" r="1" gradientTransform="translate(16.938 14.3) rotate(159.14) scale(6.3539)" gradientUnits="userSpaceOnUse"><stop stop-color="#FFCDEB" offset="0"/><stop stop-color="#FFB8D9" offset=".72775"/></radialGradient></defs></svg>
