<svg fill="none" viewBox="0 0 32 32" xmlns="http://www.w3.org/2000/svg"><path d="M26 8H25V17.0001H26V8Z" fill="#008461"/><g filter="url(#av)"><path d="m25.562 15c1.3489 0 2.4381 1.088 2.4381 2.4356v5.8194c0 1.5173-1.2291 2.745-2.7479 2.745h-21.254c-1.0992 0-1.9985-0.8983-1.9985-1.9963v-5.9737c0-1.5301 1.5-3.03 3-3.03h20.562z" fill="url(#ai)"/><path d="m25.562 15c1.3489 0 2.4381 1.088 2.4381 2.4356v5.8194c0 1.5173-1.2291 2.745-2.7479 2.745h-21.254c-1.0992 0-1.9985-0.8983-1.9985-1.9963v-5.9737c0-1.5301 1.5-3.03 3-3.03h20.562z" fill="url(#x)"/><path d="m25.562 15c1.3489 0 2.4381 1.088 2.4381 2.4356v5.8194c0 1.5173-1.2291 2.745-2.7479 2.745h-21.254c-1.0992 0-1.9985-0.8983-1.9985-1.9963v-5.9737c0-1.5301 1.5-3.03 3-3.03h20.562z" fill="url(#m)"/><path d="m25.562 15c1.3489 0 2.4381 1.088 2.4381 2.4356v5.8194c0 1.5173-1.2291 2.745-2.7479 2.745h-21.254c-1.0992 0-1.9985-0.8983-1.9985-1.9963v-5.9737c0-1.5301 1.5-3.03 3-3.03h20.562z" fill="url(#g)"/><path d="m25.562 15c1.3489 0 2.4381 1.088 2.4381 2.4356v5.8194c0 1.5173-1.2291 2.745-2.7479 2.745h-21.254c-1.0992 0-1.9985-0.8983-1.9985-1.9963v-5.9737c0-1.5301 1.5-3.03 3-3.03h20.562z" fill="url(#f)"/></g><path d="m28 19h-26v-0.97c0-1.5301 1.5-3.03 3-3.03h20.562c1.3489 0 2.4381 1.088 2.4381 2.4356v1.5644z" clip-rule="evenodd" fill="url(#e)" fill-rule="evenodd"/><g filter="url(#ar)"><path d="m5.25 20.885c0-0.2762 0.22386-0.5 0.5-0.5h2.2885c2.4861 0 4.5 2.0138 4.5 4.5 0 0.2761-0.2239 0.5-0.5 0.5-0.6635 0-1.0229-0.2239-1.0229-0.5 0-1.9339-1.5661-3.3073-3.5-3.3073h-1.5c-0.64062 0-0.76562-0.4166-0.76562-0.6927z" clip-rule="evenodd" fill="#153B3B" fill-rule="evenodd"/></g><g filter="url(#aq)"><path d="m24.5 29.01c3.0376 0 5.5-2.4624 5.5-5.5 0-3.0375-2.4624-5.5-5.5-5.5s-5.5 2.4625-5.5 5.5c0 3.0376 2.4624 5.5 5.5 5.5z" fill="url(#d)"/><path d="m24.5 29.01c3.0376 0 5.5-2.4624 5.5-5.5 0-3.0375-2.4624-5.5-5.5-5.5s-5.5 2.4625-5.5 5.5c0 3.0376 2.4624 5.5 5.5 5.5z" fill="url(#c)"/><path d="m24.5 29.01c3.0376 0 5.5-2.4624 5.5-5.5 0-3.0375-2.4624-5.5-5.5-5.5s-5.5 2.4625-5.5 5.5c0 3.0376 2.4624 5.5 5.5 5.5z" fill="url(#b)"/></g><g filter="url(#ap)"><path d="m24.5 25.526c1.1132 0 2.0156-0.9025 2.0156-2.0157s-0.9024-2.0156-2.0156-2.0156-2.0156 0.9024-2.0156 2.0156 0.9024 2.0157 2.0156 2.0157z" fill="#C8BBD6"/></g><g filter="url(#ao)"><path d="m27.656 16.467h-3.1975c-3.8671 0-8.0837 3.5268-8.0837 7.392 0 0.2761 0.4426 0.1079 0.7188 0.1079 0.2761 0 0.5-0.2239 0.5-0.5 0-3.3149 3.2968-6.4829 6.8649-5.9204l3.1975 0.4531v-1.5326z" fill="#153B3B"/></g><g filter="url(#an)"><path d="m5.52 20.51c0-0.2761 0.22386-0.5 0.5-0.5h2.49c2.4862 0 4.5 2.0139 4.5 4.5 0 0.2762-0.2238 0.5-0.5 0.5-0.2761 0-0.5-0.2238-0.5-0.5 0-1.9338-1.5661-3.5-3.5-3.5h-2.49c-0.27614 0-0.5-0.2238-0.5-0.5z" clip-rule="evenodd" fill="#268E6B" fill-rule="evenodd"/></g><path d="m5.52 20.51c0-0.2761 0.22386-0.5 0.5-0.5h2.49c2.4862 0 4.5 2.0139 4.5 4.5 0 0.2762-0.2238 0.5-0.5 0.5-0.2761 0-0.5-0.2238-0.5-0.5 0-1.9338-1.5661-3.5-3.5-3.5h-2.49c-0.27614 0-0.5-0.2238-0.5-0.5z" clip-rule="evenodd" fill="url(#a)" fill-rule="evenodd"/><g filter="url(#am)"><path d="m23.99 17c-3.3129 0-5.99 2.6851-5.99 5.9999 0 0.2761-0.2239 0.5-0.5 0.5s-0.5-0.2239-0.5-0.5c0-3.8651 3.1229-6.9999 6.99-6.9999h5.52c0.2761 0 0.5 0.2239 0.5 0.5 0 0.2762-0.2239 0.5-0.5 0.5h-5.52z" clip-rule="evenodd" fill="#268E6B" fill-rule="evenodd"/></g><path d="m23.99 17c-3.3129 0-5.99 2.6851-5.99 5.9999 0 0.2761-0.2239 0.5-0.5 0.5s-0.5-0.2239-0.5-0.5c0-3.8651 3.1229-6.9999 6.99-6.9999h5.52c0.2761 0 0.5 0.2239 0.5 0.5 0 0.2762-0.2239 0.5-0.5 0.5h-5.52z" clip-rule="evenodd" fill="url(#ah)" fill-rule="evenodd"/><g filter="url(#al)"><path d="m7.52 29.01c1.933 0 3.5-1.567 3.5-3.5s-1.567-3.5-3.5-3.5-3.5 1.567-3.5 3.5 1.567 3.5 3.5 3.5z" fill="url(#ag)"/><path d="m7.52 29.01c1.933 0 3.5-1.567 3.5-3.5s-1.567-3.5-3.5-3.5-3.5 1.567-3.5 3.5 1.567 3.5 3.5 3.5z" fill="url(#af)"/></g><path d="M15.68 8L11 15H25V8H15.68Z" fill="url(#ae)"/><path d="M15.68 8L11 15H25V8H15.68Z" fill="url(#ad)"/><path d="M15.68 8L11 15H25V8H15.68Z" fill="url(#ac)"/><path d="m18 8h-1v7h1v-7z" fill="#008461"/><path d="M3.50739 21H2V20H3.50739C3.78325 20 4 20.22 4 20.5C4 20.77 3.78325 21 3.50739 21Z" fill="url(#ab)"/><path d="M3.50739 21H2V20H3.50739C3.78325 20 4 20.22 4 20.5C4 20.77 3.78325 21 3.50739 21Z" fill="url(#aa)"/><path d="m3.5074 19h-1.5074v-1h1.5074c0.27586 0 0.49261 0.22 0.49261 0.5s-0.21675 0.5-0.49261 0.5z" fill="url(#z)"/><path d="m3.5074 19h-1.5074v-1h1.5074c0.27586 0 0.49261 0.22 0.49261 0.5s-0.21675 0.5-0.49261 0.5z" fill="url(#y)"/><path d="M3.50739 23H2V22H3.50739C3.78325 22 4 22.22 4 22.5C4 22.77 3.78325 23 3.50739 23Z" fill="url(#w)"/><path d="M3.50739 23H2V22H3.50739C3.78325 22 4 22.22 4 22.5C4 22.77 3.78325 23 3.50739 23Z" fill="url(#v)"/><path d="m14 7c0-0.55228 0.4477-1 1-1h10c0.5523 0 1 0.44772 1 1v1h-11c-0.5523 0-1-0.44772-1-1z" fill="url(#u)"/><path d="m14 7c0-0.55228 0.4477-1 1-1h10c0.5523 0 1 0.44772 1 1v1h-11c-0.5523 0-1-0.44772-1-1z" fill="url(#t)"/><path d="m14 7c0-0.55228 0.4477-1 1-1h10c0.5523 0 1 0.44772 1 1v1h-11c-0.5523 0-1-0.44772-1-1z" fill="url(#s)"/><path d="m14 7c0-0.55228 0.4477-1 1-1h10c0.5523 0 1 0.44772 1 1v1h-11c-0.5523 0-1-0.44772-1-1z" fill="url(#r)"/><g filter="url(#ak)"><path d="m7.52 26.784c0.7033 0 1.2734-0.5702 1.2734-1.2735s-0.57014-1.2734-1.2734-1.2734-1.2734 0.5701-1.2734 1.2734 0.57014 1.2735 1.2734 1.2735z" fill="#CCBED9"/></g><g filter="url(#aj)"><circle cx="7.7036" cy="25.234" r="2.3906" stroke="url(#q)" stroke-width=".75"/></g><g filter="url(#au)"><circle cx="24.906" cy="23.156" r="3.6877" stroke="url(#p)"/></g><rect x="9.0474" y="12.078" width="1.0469" height="4.9219" rx=".52344" fill="url(#o)"/><rect x="9.0474" y="12.078" width="1.0469" height="4.9219" rx=".52344" fill="url(#n)"/><rect x="9.0474" y="12.078" width="1.0469" height="4.9219" rx=".52344" fill="url(#l)"/><rect x="9.0474" y="12.078" width="1.0469" height="4.9219" rx=".52344" fill="url(#k)"/><path d="m9.0474 14.11v-0.9844h1.0468v0.9844h-1.0468z" clip-rule="evenodd" fill="url(#j)" fill-rule="evenodd"/><g filter="url(#at)"><path d="m6.0617 20.385h2.8075c1.09 0.0372 3.353 0.8391 3.6848 3.7486" stroke="url(#i)" stroke-linecap="round" stroke-width=".25"/></g><g filter="url(#as)"><path d="m17.469 22.656c0.0312-1.0625 0.5687-3.5312 2.4687-4.9062s3.5-1.2813 4.5781-1.2813h4.9844" stroke="url(#h)" stroke-linecap="round" stroke-width=".25"/></g><defs><filter id="av" x="2" y="15" width="27" height="11" color-interpolation-filters="sRGB" filterUnits="userSpaceOnUse"><feFlood flood-opacity="0" result="BackgroundImageFix"/><feBlend in="SourceGraphic" in2="BackgroundImageFix" result="shape"/><feColorMatrix in="SourceAlpha" result="hardAlpha" values="0 0 0 0 0 0 0 0 0 0 0 0 0 0 0 0 0 0 127 0"/><feOffset dx="1"/><feGaussianBlur stdDeviation="0.5"/><feComposite in2="hardAlpha" k2="-1" k3="1" operator="arithmetic"/><feColorMatrix values="0 0 0 0 0.211765 0 0 0 0 0.521569 0 0 0 0 0.305882 0 0 0 1 0"/><feBlend in2="shape" result="effect1_innerShadow_18_10906"/></filter><filter id="ar" x="4.5" y="19.635" width="8.7884" height="6.5" color-interpolation-filters="sRGB" filterUnits="userSpaceOnUse"><feFlood flood-opacity="0" result="BackgroundImageFix"/><feBlend in="SourceGraphic" in2="BackgroundImageFix" result="shape"/><feGaussianBlur result="effect1_foregroundBlur_18_10906" stdDeviation="0.375"/></filter><filter id="aq" x="19" y="18.01" width="11" height="11.15" color-interpolation-filters="sRGB" filterUnits="userSpaceOnUse"><feFlood flood-opacity="0" result="BackgroundImageFix"/><feBlend in="SourceGraphic" in2="BackgroundImageFix" result="shape"/><feColorMatrix in="SourceAlpha" result="hardAlpha" values="0 0 0 0 0 0 0 0 0 0 0 0 0 0 0 0 0 0 127 0"/><feOffset/><feGaussianBlur stdDeviation="0.5"/><feComposite in2="hardAlpha" k2="-1" k3="1" operator="arithmetic"/><feColorMatrix values="0 0 0 0 0.145098 0 0 0 0 0.0823529 0 0 0 0 0.215686 0 0 0 1 0"/><feBlend in2="shape" result="effect1_innerShadow_18_10906"/><feColorMatrix in="SourceAlpha" result="hardAlpha" values="0 0 0 0 0 0 0 0 0 0 0 0 0 0 0 0 0 0 127 0"/><feOffset dy="0.15"/><feGaussianBlur stdDeviation="0.125"/><feComposite in2="hardAlpha" k2="-1" k3="1" operator="arithmetic"/><feColorMatrix values="0 0 0 0 0.207843 0 0 0 0 0.0313726 0 0 0 0 0.235294 0 0 0 1 0"/><feBlend in2="effect1_innerShadow_18_10906" result="effect2_innerShadow_18_10906"/></filter><filter id="ap" x="22.434" y="21.444" width="4.1312" height="4.1312" color-interpolation-filters="sRGB" filterUnits="userSpaceOnUse"><feFlood flood-opacity="0" result="BackgroundImageFix"/><feBlend in="SourceGraphic" in2="BackgroundImageFix" result="shape"/><feColorMatrix in="SourceAlpha" result="hardAlpha" values="0 0 0 0 0 0 0 0 0 0 0 0 0 0 0 0 0 0 127 0"/><feOffset dx="0.05" dy="-0.05"/><feGaussianBlur stdDeviation="0.05"/><feComposite in2="hardAlpha" k2="-1" k3="1" operator="arithmetic"/><feColorMatrix values="0 0 0 0 0.478431 0 0 0 0 0.364706 0 0 0 0 0.584314 0 0 0 1 0"/><feBlend in2="shape" result="effect1_innerShadow_18_10906"/><feColorMatrix in="SourceAlpha" result="hardAlpha" values="0 0 0 0 0 0 0 0 0 0 0 0 0 0 0 0 0 0 127 0"/><feOffset dx="-0.05" dy="0.05"/><feGaussianBlur stdDeviation="0.05"/><feComposite in2="hardAlpha" k2="-1" k3="1" operator="arithmetic"/><feColorMatrix values="0 0 0 0 0.807843 0 0 0 0 0.764706 0 0 0 0 0.858824 0 0 0 1 0"/><feBlend in2="effect1_innerShadow_18_10906" result="effect2_innerShadow_18_10906"/></filter><filter id="ao" x="15.625" y="15.717" width="12.781" height="9.0506" color-interpolation-filters="sRGB" filterUnits="userSpaceOnUse"><feFlood flood-opacity="0" result="BackgroundImageFix"/><feBlend in="SourceGraphic" in2="BackgroundImageFix" result="shape"/><feGaussianBlur result="effect1_foregroundBlur_18_10906" stdDeviation="0.375"/></filter><filter id="an" x="5.52" y="19.76" width="7.49" height="5.25" color-interpolation-filters="sRGB" filterUnits="userSpaceOnUse"><feFlood flood-opacity="0" result="BackgroundImageFix"/><feBlend in="SourceGraphic" in2="BackgroundImageFix" result="shape"/><feColorMatrix in="SourceAlpha" result="hardAlpha" values="0 0 0 0 0 0 0 0 0 0 0 0 0 0 0 0 0 0 127 0"/><feOffset dy="-0.25"/><feGaussianBlur stdDeviation="0.25"/><feComposite in2="hardAlpha" k2="-1" k3="1" operator="arithmetic"/><feColorMatrix values="0 0 0 0 0.0705882 0 0 0 0 0.239216 0 0 0 0 0.290196 0 0 0 1 0"/><feBlend in2="shape" result="effect1_innerShadow_18_10906"/></filter><filter id="am" x="17" y="15.75" width="13.01" height="7.7499" color-interpolation-filters="sRGB" filterUnits="userSpaceOnUse"><feFlood flood-opacity="0" result="BackgroundImageFix"/><feBlend in="SourceGraphic" in2="BackgroundImageFix" result="shape"/><feColorMatrix in="SourceAlpha" result="hardAlpha" values="0 0 0 0 0 0 0 0 0 0 0 0 0 0 0 0 0 0 127 0"/><feOffset dy="-0.25"/><feGaussianBlur stdDeviation="0.25"/><feComposite in2="hardAlpha" k2="-1" k3="1" operator="arithmetic"/><feColorMatrix values="0 0 0 0 0.0705882 0 0 0 0 0.239216 0 0 0 0 0.290196 0 0 0 1 0"/><feBlend in2="shape" result="effect1_innerShadow_18_10906"/></filter><filter id="al" x="4.02" y="22.01" width="7" height="7.15" color-interpolation-filters="sRGB" filterUnits="userSpaceOnUse"><feFlood flood-opacity="0" result="BackgroundImageFix"/><feBlend in="SourceGraphic" in2="BackgroundImageFix" result="shape"/><feColorMatrix in="SourceAlpha" result="hardAlpha" values="0 0 0 0 0 0 0 0 0 0 0 0 0 0 0 0 0 0 127 0"/><feOffset/><feGaussianBlur stdDeviation="0.5"/><feComposite in2="hardAlpha" k2="-1" k3="1" operator="arithmetic"/><feColorMatrix values="0 0 0 0 0.145098 0 0 0 0 0.0823529 0 0 0 0 0.215686 0 0 0 1 0"/><feBlend in2="shape" result="effect1_innerShadow_18_10906"/><feColorMatrix in="SourceAlpha" result="hardAlpha" values="0 0 0 0 0 0 0 0 0 0 0 0 0 0 0 0 0 0 127 0"/><feOffset dy="0.15"/><feGaussianBlur stdDeviation="0.125"/><feComposite in2="hardAlpha" k2="-1" k3="1" operator="arithmetic"/><feColorMatrix values="0 0 0 0 0.207843 0 0 0 0 0.0313726 0 0 0 0 0.235294 0 0 0 1 0"/><feBlend in2="effect1_innerShadow_18_10906" result="effect2_innerShadow_18_10906"/></filter><filter id="ak" x="6.1966" y="24.187" width="2.6469" height="2.6469" color-interpolation-filters="sRGB" filterUnits="userSpaceOnUse"><feFlood flood-opacity="0" result="BackgroundImageFix"/><feBlend in="SourceGraphic" in2="BackgroundImageFix" result="shape"/><feColorMatrix in="SourceAlpha" result="hardAlpha" values="0 0 0 0 0 0 0 0 0 0 0 0 0 0 0 0 0 0 127 0"/><feOffset dx="0.05" dy="-0.05"/><feGaussianBlur stdDeviation="0.05"/><feComposite in2="hardAlpha" k2="-1" k3="1" operator="arithmetic"/><feColorMatrix values="0 0 0 0 0.478431 0 0 0 0 0.364706 0 0 0 0 0.584314 0 0 0 1 0"/><feBlend in2="shape" result="effect1_innerShadow_18_10906"/><feColorMatrix in="SourceAlpha" result="hardAlpha" values="0 0 0 0 0 0 0 0 0 0 0 0 0 0 0 0 0 0 127 0"/><feOffset dx="-0.05" dy="0.05"/><feGaussianBlur stdDeviation="0.05"/><feComposite in2="hardAlpha" k2="-1" k3="1" operator="arithmetic"/><feColorMatrix values="0 0 0 0 0.807843 0 0 0 0 0.764706 0 0 0 0 0.858824 0 0 0 1 0"/><feBlend in2="effect1_innerShadow_18_10906" result="effect2_innerShadow_18_10906"/></filter><filter id="aj" x="4.188" y="21.719" width="7.0312" height="7.0312" color-interpolation-filters="sRGB" filterUnits="userSpaceOnUse"><feFlood flood-opacity="0" result="BackgroundImageFix"/><feBlend in="SourceGraphic" in2="BackgroundImageFix" result="shape"/><feGaussianBlur result="effect1_foregroundBlur_18_10906" stdDeviation="0.375"/></filter><filter id="au" x="19.969" y="18.219" width="9.8755" height="9.8755" color-interpolation-filters="sRGB" filterUnits="userSpaceOnUse"><feFlood flood-opacity="0" result="BackgroundImageFix"/><feBlend in="SourceGraphic" in2="BackgroundImageFix" result="shape"/><feGaussianBlur result="effect1_foregroundBlur_18_10906" stdDeviation="0.375"/></filter><filter id="at" x="5.6867" y="20.01" width="7.2423" height="4.4987" color-interpolation-filters="sRGB" filterUnits="userSpaceOnUse"><feFlood flood-opacity="0" result="BackgroundImageFix"/><feBlend in="SourceGraphic" in2="BackgroundImageFix" result="shape"/><feGaussianBlur result="effect1_foregroundBlur_18_10906" stdDeviation="0.125"/></filter><filter id="as" x="17.094" y="16.092" width="12.781" height="6.9389" color-interpolation-filters="sRGB" filterUnits="userSpaceOnUse"><feFlood flood-opacity="0" result="BackgroundImageFix"/><feBlend in="SourceGraphic" in2="BackgroundImageFix" result="shape"/><feGaussianBlur result="effect1_foregroundBlur_18_10906" stdDeviation="0.125"/></filter><linearGradient id="ai" x1="24.875" x2="2.625" y1="17.004" y2="17.004" gradientUnits="userSpaceOnUse"><stop stop-color="#37BC6E" offset="0"/><stop stop-color="#47D086" offset="1"/></linearGradient><linearGradient id="x" x1="15.828" x2="15.828" y1="26.618" y2="23.923" gradientUnits="userSpaceOnUse"><stop stop-color="#293A5E" offset="0"/><stop stop-color="#293A5E" stop-opacity="0" offset="1"/></linearGradient><radialGradient id="m" cx="0" cy="0" r="1" gradientTransform="translate(20.903 23.608) rotate(108.61) scale(4.6447 2.7823)" gradientUnits="userSpaceOnUse"><stop stop-color="#293A5E" offset=".63462"/><stop stop-color="#293A5E" stop-opacity="0" offset="1"/></radialGradient><linearGradient id="g" x1="15" x2="15" y1="26" y2="25.594" gradientUnits="userSpaceOnUse"><stop stop-color="#464274" offset="0"/><stop stop-color="#464274" stop-opacity="0" offset="1"/></linearGradient><linearGradient id="f" x1="15" x2="15" y1="15" y2="17.475" gradientUnits="userSpaceOnUse"><stop stop-color="#45F18A" offset=".16148"/><stop stop-color="#45F18A" stop-opacity="0" offset="1"/></linearGradient><linearGradient id="e" x1="9.6875" x2="9.6875" y1="19" y2="17.429" gradientUnits="userSpaceOnUse"><stop stop-color="#36C570" offset="0"/><stop stop-color="#36C570" stop-opacity="0" offset="1"/></linearGradient><linearGradient id="d" x1="21.964" x2="30.225" y1="22.127" y2="22.127" gradientUnits="userSpaceOnUse"><stop stop-color="#34214F" offset=".23904"/><stop stop-color="#241337" offset="1"/></linearGradient><radialGradient id="c" cx="0" cy="0" r="1" gradientTransform="translate(24.5 23.018) rotate(-65.537) scale(3.001 3.1344)" gradientUnits="userSpaceOnUse"><stop stop-color="#2D114D" offset=".52313"/><stop stop-color="#2B1249" stop-opacity="0" offset="1"/></radialGradient><radialGradient id="b" cx="0" cy="0" r="1" gradientTransform="translate(26 23.891) rotate(33.486) scale(1.2178 1.3684)" gradientUnits="userSpaceOnUse"><stop stop-color="#392A49" offset="0"/><stop stop-color="#392A49" stop-opacity="0" offset="1"/></radialGradient><linearGradient id="a" x1="12.375" x2="12.375" y1="25.375" y2="24.531" gradientUnits="userSpaceOnUse"><stop stop-color="#272859" offset="0"/><stop stop-color="#272859" stop-opacity="0" offset="1"/></linearGradient><linearGradient id="ah" x1="28.907" x2="28.907" y1="24.047" y2="22.782" gradientUnits="userSpaceOnUse"><stop stop-color="#272859" offset="0"/><stop stop-color="#272859" stop-opacity="0" offset="1"/></linearGradient><linearGradient id="ag" x1="5.9061" x2="11.163" y1="24.63" y2="24.63" gradientUnits="userSpaceOnUse"><stop stop-color="#34214F" offset=".23904"/><stop stop-color="#241337" offset="1"/></linearGradient><radialGradient id="af" cx="0" cy="0" r="1" gradientTransform="translate(7.52 25.197) rotate(-65.537) scale(1.9097 1.9946)" gradientUnits="userSpaceOnUse"><stop stop-color="#2D114D" offset=".52313"/><stop stop-color="#2B1249" stop-opacity="0" offset="1"/></radialGradient><linearGradient id="ae" x1="19.269" x2="19.269" y1="5.7205" y2="12.691" gradientUnits="userSpaceOnUse"><stop stop-color="#2A80D7" offset="0"/><stop stop-color="#46FAFA" offset="1"/></linearGradient><linearGradient id="ad" x1="25.909" x2="23.84" y1="12.466" y2="12.466" gradientUnits="userSpaceOnUse"><stop stop-color="#37C3DA" offset="0"/><stop stop-color="#37C3DA" stop-opacity="0" offset="1"/></linearGradient><linearGradient id="ac" x1="18" x2="18" y1="7.2425" y2="11.234" gradientUnits="userSpaceOnUse"><stop stop-color="#2066C3" offset="0"/><stop stop-color="#2066C3" stop-opacity="0" offset="1"/></linearGradient><linearGradient id="ab" x1="3.2649" x2="4.1117" y1="20.5" y2="20.488" gradientUnits="userSpaceOnUse"><stop stop-color="#290941" offset="0"/><stop stop-color="#1A0726" offset="1"/></linearGradient><radialGradient id="aa" cx="0" cy="0" r="1" gradientTransform="translate(4 20.736) rotate(204.79) scale(.39198 .38172)" gradientUnits="userSpaceOnUse"><stop stop-color="#352938" offset="0"/><stop stop-color="#352938" stop-opacity="0" offset="1"/></radialGradient><linearGradient id="z" x1="3.2649" x2="4.1117" y1="18.5" y2="18.488" gradientUnits="userSpaceOnUse"><stop stop-color="#290941" offset="0"/><stop stop-color="#1A0726" offset="1"/></linearGradient><radialGradient id="y" cx="0" cy="0" r="1" gradientTransform="translate(4 18.736) rotate(204.79) scale(.39198 .38172)" gradientUnits="userSpaceOnUse"><stop stop-color="#352938" offset="0"/><stop stop-color="#352938" stop-opacity="0" offset="1"/></radialGradient><linearGradient id="w" x1="3.2649" x2="4.1117" y1="22.5" y2="22.488" gradientUnits="userSpaceOnUse"><stop stop-color="#290941" offset="0"/><stop stop-color="#1A0726" offset="1"/></linearGradient><radialGradient id="v" cx="0" cy="0" r="1" gradientTransform="translate(4 22.736) rotate(204.79) scale(.39198 .38172)" gradientUnits="userSpaceOnUse"><stop stop-color="#352938" offset="0"/><stop stop-color="#352938" stop-opacity="0" offset="1"/></radialGradient><linearGradient id="u" x1="18.124" x2="18.124" y1="6.4048" y2="7.8338" gradientUnits="userSpaceOnUse"><stop stop-color="#4FEA8C" offset="0"/><stop stop-color="#00D263" offset="1"/><stop stop-color="#19965F" offset="1"/></linearGradient><linearGradient id="t" x1="21.062" x2="21.062" y1="8.4687" y2="7.5" gradientUnits="userSpaceOnUse"><stop stop-color="#1A9461" offset="0"/><stop stop-color="#1A9461" stop-opacity="0" offset="1"/></linearGradient><radialGradient id="s" cx="0" cy="0" r="1" gradientTransform="translate(23.692 11.113) rotate(207.81) scale(10.958 6.4462)" gradientUnits="userSpaceOnUse"><stop stop-color="#419F64" stop-opacity="0" offset=".89529"/><stop stop-color="#419F64" offset="1"/></radialGradient><linearGradient id="r" x1="20" x2="20" y1="6" y2="6.0781" gradientUnits="userSpaceOnUse"><stop stop-color="#4BD780" offset="0"/><stop stop-color="#4BD780" stop-opacity="0" offset="1"/></linearGradient><linearGradient id="q" x1="9.4885" x2="5.883" y1="22.844" y2="27.1" gradientUnits="userSpaceOnUse"><stop stop-color="#615B6B" offset=".083012"/><stop stop-color="#615B6B" stop-opacity="0" offset=".39077"/><stop stop-color="#615B6B" stop-opacity="0" offset=".69239"/><stop stop-color="#615B6B" offset=".93498"/></linearGradient><linearGradient id="p" x1="27.66" x2="22.098" y1="19.469" y2="26.034" gradientUnits="userSpaceOnUse"><stop stop-color="#615B6B" offset=".083012"/><stop stop-color="#615B6B" stop-opacity="0" offset=".39077"/><stop stop-color="#615B6B" stop-opacity="0" offset=".69239"/><stop stop-color="#615B6B" offset=".93498"/></linearGradient><linearGradient id="o" x1="9.0474" x2="9.75" y1="14.969" y2="14.969" gradientUnits="userSpaceOnUse"><stop stop-color="#B4A5B9" offset="0"/><stop stop-color="#D6CDE0" offset="1"/></linearGradient><radialGradient id="n" cx="0" cy="0" r="1" gradientTransform="translate(10.203 12.188) rotate(-22.543) scale(.89664 .73135)" gradientUnits="userSpaceOnUse"><stop stop-color="#F0EDF3" offset="0"/><stop stop-color="#F0EDF3" stop-opacity="0" offset="1"/></radialGradient><linearGradient id="l" x1="9.6562" x2="9.6562" y1="17.109" y2="16.422" gradientUnits="userSpaceOnUse"><stop stop-color="#744498" offset="0"/><stop stop-color="#744498" stop-opacity="0" offset="1"/></linearGradient><linearGradient id="k" x1="9.0474" x2="9.2812" y1="14.375" y2="14.375" gradientUnits="userSpaceOnUse"><stop stop-color="#8C7D88" offset="0"/><stop stop-color="#8C7D88" stop-opacity="0" offset="1"/></linearGradient><linearGradient id="j" x1="10.094" x2="9.0474" y1="13.888" y2="13.888" gradientUnits="userSpaceOnUse"><stop stop-color="#30144D" offset="0"/><stop stop-color="#44335C" offset="1"/></linearGradient><linearGradient id="i" x1="6.7955" x2="13.347" y1="20.146" y2="21.916" gradientUnits="userSpaceOnUse"><stop stop-color="#3E8F75" offset="0"/><stop stop-color="#3E8F75" stop-opacity="0" offset="1"/></linearGradient><linearGradient id="h" x1="18.772" x2="30.3" y1="16.015" y2="19.337" gradientUnits="userSpaceOnUse"><stop stop-color="#3E8F75" offset="0"/><stop stop-color="#3E8F75" stop-opacity="0" offset="1"/></linearGradient></defs></svg>
