<?xml version="1.0" encoding="UTF-8"?>
<!-- Generated by Pixelmator Pro 3.6.17 -->
<svg width="500" height="500" viewBox="0 0 500 500" xmlns="http://www.w3.org/2000/svg">
    <path id="Dots-copy-copy" fill="#ffffff" fill-rule="evenodd" stroke="none" d="M 289.585693 463.196594 C 289.585693 483.757782 272.948273 500.40625 252.381332 500.40625 C 231.849258 500.40625 215.211838 483.757782 215.211838 463.196594 C 215.211838 442.674652 231.849258 426 252.381332 426 C 272.948273 426 289.585693 442.674652 289.585693 463.196594 Z M 155.421097 463.196594 C 155.421097 483.757782 138.783676 500.40625 118.216751 500.40625 C 97.684654 500.40625 81.047256 483.757782 81.047256 463.196594 C 81.047256 442.674652 97.684654 426 118.216751 426 C 138.783676 426 155.421097 442.674652 155.421097 463.196594 Z M 423.750244 463.196594 C 423.750244 483.757782 407.112854 500.40625 386.545898 500.40625 C 366.013824 500.40625 349.376434 483.757782 349.376434 463.196594 C 349.376434 442.674652 366.013824 426 386.545898 426 C 407.112854 426 423.750244 442.674652 423.750244 463.196594 Z"/>
    <path id="Shape-copy-copy" fill="#ffffff" fill-rule="evenodd" stroke="none" d="M 158.20845 359.501495 L 50.433144 386.445313 L 73.46611 294.313477 C 50.654922 264.264038 37.355469 228.148376 37.355469 189.299347 C 37.355469 84.752167 133.671448 0 252.483231 0 C 371.295013 0 467.610992 84.752167 467.610992 189.299347 C 467.610992 293.846466 371.295013 378.598694 252.483231 378.598694 C 218.668915 378.598694 186.676712 371.733826 158.20845 359.501495 L 158.20845 359.501495 Z M 191.454071 173.585266 L 189.056503 173.585266 C 183.639542 173.585266 179.248245 177.976593 179.248245 183.393524 L 179.248245 269.400116 C 179.248245 274.817047 183.639542 279.208374 189.056503 279.208374 L 315.909973 279.208374 C 321.326904 279.208374 325.718201 274.817047 325.718201 269.400116 L 325.718201 183.393524 C 325.718201 177.976593 321.326904 173.585266 315.909973 173.585266 L 313.51236 173.585266 L 313.51236 149.210724 C 313.51236 115.587189 286.207977 88.274323 252.454651 88.274323 C 218.758453 88.274323 191.454071 115.587189 191.454071 149.210724 L 191.454071 173.585266 Z M 289.100708 173.585266 L 215.865738 173.585266 L 215.865738 149.214966 C 215.865738 129.040863 232.248367 112.648895 252.466064 112.648895 C 272.718079 112.648895 289.100708 129.040863 289.100708 149.214966 C 289.100708 162.690125 289.100708 170.813538 289.100708 173.585266 Z"/>
</svg>
