<?xml version="1.0" encoding="UTF-8" standalone="no"?>
<!-- Generated by Pixelmator Pro 3.7 -->

<svg
   width="40"
   height="40"
   viewBox="0 0 40 40"
   version="1.1"
   id="svg1"
   xmlns="http://www.w3.org/2000/svg"
   xmlns:svg="http://www.w3.org/2000/svg">
  <defs
     id="defs1" />
  <path
     id="path1"
     fill="#ffffff"
     stroke="none"
     d="m 12.82375,37.5 c 1.264144,0 2.288917,-1.024775 2.288917,-2.288918 0,-1.264142 -1.024773,-2.288961 -2.288917,-2.288961 -1.26415,0 -2.288921,1.024819 -2.288921,2.288961 0,1.264143 1.024771,2.288918 2.288921,2.288918 z"
     style="stroke-width:0.210187" />
  <path
     id="path2"
     fill="#ffffff"
     stroke="none"
     d="m 20.29531,37.5 c 1.264141,0 2.288915,-1.024775 2.288915,-2.288918 0,-1.264142 -1.024774,-2.288961 -2.288915,-2.288961 -1.264142,0 -2.288917,1.024819 -2.288917,2.288961 0,1.264143 1.024775,2.288918 2.288917,2.288918 z"
     style="stroke-width:0.210187" />
  <path
     id="path3"
     fill="#ffffff"
     stroke="none"
     d="m 27.774521,37.5 c 1.264141,0 2.28896,-1.024775 2.28896,-2.288918 0,-1.264142 -1.024819,-2.288961 -2.28896,-2.288961 -1.264142,0 -2.288915,1.024819 -2.288915,2.288961 0,1.264143 1.024773,2.288918 2.288915,2.288918 z"
     style="stroke-width:0.210187" />
  <path
     id="path4"
     fill="#ffffff"
     stroke="none"
     d="m 19.996725,2.5 c 7.509844,0 13.626423,6.1089309 13.626423,13.618722 0,7.509843 -6.108889,13.618814 -13.618733,13.618814 -2.771219,0 -5.343384,-0.826796 -7.494545,-2.250685 l -5.2361993,1.67655 1.6994752,-5.060177 C 7.342583,21.86022 6.378,19.096646 6.378,16.118722 6.378009,8.6089309 12.486935,2.5000097 19.996725,2.5 Z m -0.0078,6.4074684 c -2.158806,0 -3.919502,1.7607416 -3.919502,3.9194996 v 1.829645 h -0.122507 c -0.681316,0 -1.232477,0.551158 -1.232519,1.23247 v 4.945321 c 0,0.681313 0.551203,1.232521 1.232519,1.232521 h 8.076331 c 0.681315,0 1.232514,-0.551208 1.232514,-1.232521 v -4.945321 c 0,-0.681312 -0.551199,-1.23247 -1.232514,-1.23247 h -0.114758 v -1.829645 c 0,-2.158758 -1.760745,-3.9194996 -3.919506,-3.9194996 z m 0.0078,1.6076046 c 1.270798,0 2.311903,1.041151 2.311903,2.311895 v 1.829645 h -4.623754 v -1.829645 c 0,-1.278432 1.041152,-2.311895 2.311896,-2.311895 z"
     style="stroke-width:0.210187" />
</svg>
