<svg fill="none" viewBox="0 0 32 32" xmlns="http://www.w3.org/2000/svg"><g filter="url(#h)"><path d="m15.821 11.106c-0.1704 0.6618-0.7491 1.1555-1.4331 1.4975-1.9389 0.6709-3.4705 1.3162-4.7378 1.9427-1.1219 0.5546-1.1111 2.3073 0.01447 2.8545 1.3151 0.6393 2.9662 1.2525 4.8 1.9794 0.4931 0.1955 1.1899 0.7477 1.3633 1.4265 0.5345 2.0917 1.2617 4.306 2.0625 6.3502 0.6216 1.5868 2.1584 1.5856 2.7831 0 0.8109-2.0584 1.4269-4.2818 2.1222-6.3972 0.1664-0.6532 0.6591-1.1697 1.2944-1.3947 1.717-0.6083 3.3721-1.2947 4.7212-1.8889 1.2599-0.5549 1.2859-2.3565 0.0418-2.9459-1.3286-0.6294-2.9812-1.3582-4.7713-2.0087-0.63-0.2289-1.1147-0.7121-1.3387-1.3979-0.7545-2.311-1.2326-4.2702-2.0342-6.3049-0.6247-1.5856-2.2646-1.5368-2.8893 0.0488-0.7986 2.0272-1.3561 4.0449-1.9986 6.2386z" fill="url(#e)"/></g><path d="m15.821 11.106c-0.1704 0.6618-0.7491 1.1555-1.4331 1.4975-1.9389 0.6709-3.4705 1.3162-4.7378 1.9427-1.1219 0.5546-1.1111 2.3073 0.01447 2.8545 1.3151 0.6393 2.9662 1.2525 4.8 1.9794 0.4931 0.1955 1.1899 0.7477 1.3633 1.4265 0.5345 2.0917 1.2617 4.306 2.0625 6.3502 0.6216 1.5868 2.1584 1.5856 2.7831 0 0.8109-2.0584 1.4269-4.2818 2.1222-6.3972 0.1664-0.6532 0.6591-1.1697 1.2944-1.3947 1.717-0.6083 3.3721-1.2947 4.7212-1.8889 1.2599-0.5549 1.2859-2.3565 0.0418-2.9459-1.3286-0.6294-2.9812-1.3582-4.7713-2.0087-0.63-0.2289-1.1147-0.7121-1.3387-1.3979-0.7545-2.311-1.2326-4.2702-2.0342-6.3049-0.6247-1.5856-2.2646-1.5368-2.8893 0.0488-0.7986 2.0272-1.3561 4.0449-1.9986 6.2386z" fill="url(#d)"/><g filter="url(#g)"><path d="m7.768 5.8163c-0.05485 0.21301-0.24108 0.37191-0.46123 0.48198-0.62407 0.21592-1.117 0.42364-1.5249 0.62528-0.3611 0.1785-0.35761 0.74261 0.00466 0.91872 0.42327 0.20578 0.95471 0.40314 1.5449 0.63711 0.15869 0.06291 0.38296 0.24064 0.43879 0.45911 0.17203 0.67323 0.40609 1.3859 0.66382 2.0439 0.20008 0.5107 0.69471 0.5103 0.89576 0 0.26099-0.6625 0.45927-1.3782 0.68306-2.059 0.0536-0.21022 0.2121-0.37645 0.4166-0.44889 0.5526-0.19576 1.0853-0.41669 1.5196-0.60795 0.4055-0.1786 0.4138-0.75845 0.0134-0.94815-0.4276-0.20258-0.9595-0.43717-1.5357-0.64652-0.2028-0.07369-0.3588-0.22919-0.43083-0.44992-0.24286-0.7438-0.39674-1.3744-0.65474-2.0293-0.20106-0.51035-0.72886-0.49464-0.92992 0.01571-0.25704 0.65246-0.43649 1.3019-0.64329 2.0079z" fill="url(#c)"/></g><path d="m7.768 5.8163c-0.05485 0.21301-0.24108 0.37191-0.46123 0.48198-0.62407 0.21592-1.117 0.42364-1.5249 0.62528-0.3611 0.1785-0.35761 0.74261 0.00466 0.91872 0.42327 0.20578 0.95471 0.40314 1.5449 0.63711 0.15869 0.06291 0.38296 0.24064 0.43879 0.45911 0.17203 0.67323 0.40609 1.3859 0.66382 2.0439 0.20008 0.5107 0.69471 0.5103 0.89576 0 0.26099-0.6625 0.45927-1.3782 0.68306-2.059 0.0536-0.21022 0.2121-0.37645 0.4166-0.44889 0.5526-0.19576 1.0853-0.41669 1.5196-0.60795 0.4055-0.1786 0.4138-0.75845 0.0134-0.94815-0.4276-0.20258-0.9595-0.43717-1.5357-0.64652-0.2028-0.07369-0.3588-0.22919-0.43083-0.44992-0.24286-0.7438-0.39674-1.3744-0.65474-2.0293-0.20106-0.51035-0.72886-0.49464-0.92992 0.01571-0.25704 0.65246-0.43649 1.3019-0.64329 2.0079z" fill="url(#b)"/><g filter="url(#f)"><path d="m5.226 20.066c-0.07649 0.297-0.33618 0.5186-0.64316 0.6721-0.87025 0.3011-1.5576 0.5907-2.1264 0.8719-0.50353 0.2489-0.49867 1.0355 0.00649 1.2811 0.59024 0.287 1.3313 0.5622 2.1543 0.8884 0.22129 0.0877 0.53402 0.3356 0.61187 0.6402 0.2399 0.9388 0.56629 1.9327 0.92568 2.8501 0.279 0.7122 0.96874 0.7117 1.2491 0 0.36393-0.9238 0.64042-1.9217 0.95248-2.8712 0.07468-0.2931 0.29578-0.5249 0.58092-0.6259 0.77062-0.273 1.5135-0.5811 2.119-0.8478 0.5654-0.249 0.5771-1.0576 0.0187-1.3221-0.5962-0.2825-1.338-0.6096-2.1414-0.9016-0.28279-0.1027-0.50033-0.3196-0.60083-0.6274-0.33866-1.0372-0.55324-1.9165-0.91301-2.8297-0.28037-0.7117-1.0164-0.6898-1.2967 0.0219-0.35843 0.9098-0.60867 1.8154-0.89703 2.8z" fill="url(#a)"/></g><defs><filter id="h" x="8.4147" y="3.4035" width="21.607" height="25.193" color-interpolation-filters="sRGB" filterUnits="userSpaceOnUse"><feFlood flood-opacity="0" result="BackgroundImageFix"/><feBlend in="SourceGraphic" in2="BackgroundImageFix" result="shape"/><feColorMatrix in="SourceAlpha" result="hardAlpha" values="0 0 0 0 0 0 0 0 0 0 0 0 0 0 0 0 0 0 127 0"/><feOffset dx="0.25" dy="-0.25"/><feGaussianBlur stdDeviation="0.25"/><feComposite in2="hardAlpha" k2="-1" k3="1" operator="arithmetic"/><feColorMatrix values="0 0 0 0 0.937255 0 0 0 0 0.482353 0 0 0 0 0.329412 0 0 0 1 0"/><feBlend in2="shape" result="effect1_innerShadow_18_454"/><feColorMatrix in="SourceAlpha" result="hardAlpha" values="0 0 0 0 0 0 0 0 0 0 0 0 0 0 0 0 0 0 127 0"/><feOffset dx="0.25" dy="0.25"/><feGaussianBlur stdDeviation="0.5"/><feComposite in2="hardAlpha" k2="-1" k3="1" operator="arithmetic"/><feColorMatrix values="0 0 0 0 0.737255 0 0 0 0 0.615686 0 0 0 0 0.415686 0 0 0 1 0"/><feBlend in2="effect1_innerShadow_18_454" result="effect2_innerShadow_18_454"/><feColorMatrix in="SourceAlpha" result="hardAlpha" values="0 0 0 0 0 0 0 0 0 0 0 0 0 0 0 0 0 0 127 0"/><feOffset dx="-0.4" dy="0.25"/><feGaussianBlur stdDeviation="0.2"/><feComposite in2="hardAlpha" k2="-1" k3="1" operator="arithmetic"/><feColorMatrix values="0 0 0 0 1 0 0 0 0 0.901961 0 0 0 0 0.458824 0 0 0 1 0"/><feBlend in2="effect2_innerShadow_18_454" result="effect3_innerShadow_18_454"/></filter><filter id="g" x="5.4129" y="3.4177" width="6.9451" height="8.0476" color-interpolation-filters="sRGB" filterUnits="userSpaceOnUse"><feFlood flood-opacity="0" result="BackgroundImageFix"/><feBlend in="SourceGraphic" in2="BackgroundImageFix" result="shape"/><feColorMatrix in="SourceAlpha" result="hardAlpha" values="0 0 0 0 0 0 0 0 0 0 0 0 0 0 0 0 0 0 127 0"/><feOffset dx="0.1" dy="0.1"/><feGaussianBlur stdDeviation="0.1"/><feComposite in2="hardAlpha" k2="-1" k3="1" operator="arithmetic"/><feColorMatrix values="0 0 0 0 0.803922 0 0 0 0 0.6 0 0 0 0 0.262745 0 0 0 1 0"/><feBlend in2="shape" result="effect1_innerShadow_18_454"/><feColorMatrix in="SourceAlpha" result="hardAlpha" values="0 0 0 0 0 0 0 0 0 0 0 0 0 0 0 0 0 0 127 0"/><feOffset dx="-0.1" dy="0.1"/><feGaussianBlur stdDeviation="0.1"/><feComposite in2="hardAlpha" k2="-1" k3="1" operator="arithmetic"/><feColorMatrix values="0 0 0 0 1 0 0 0 0 0.882353 0 0 0 0 0.423529 0 0 0 1 0"/><feBlend in2="effect1_innerShadow_18_454" result="effect2_innerShadow_18_454"/></filter><filter id="f" x="2.0814" y="16.571" width="9.5558" height="11.233" color-interpolation-filters="sRGB" filterUnits="userSpaceOnUse"><feFlood flood-opacity="0" result="BackgroundImageFix"/><feBlend in="SourceGraphic" in2="BackgroundImageFix" result="shape"/><feColorMatrix in="SourceAlpha" result="hardAlpha" values="0 0 0 0 0 0 0 0 0 0 0 0 0 0 0 0 0 0 127 0"/><feOffset dx="0.15" dy="-0.15"/><feGaussianBlur stdDeviation="0.15"/><feComposite in2="hardAlpha" k2="-1" k3="1" operator="arithmetic"/><feColorMatrix values="0 0 0 0 1 0 0 0 0 0.458824 0 0 0 0 0.462745 0 0 0 1 0"/><feBlend in2="shape" result="effect1_innerShadow_18_454"/></filter><linearGradient id="e" x1="26.129" x2="15.052" y1="11.271" y2="22.931" gradientUnits="userSpaceOnUse"><stop stop-color="#FFCF5A" offset="0"/><stop stop-color="#FEA254" offset="1"/></linearGradient><linearGradient id="d" x1="14.754" x2="20.792" y1="29.29" y2="16.554" gradientUnits="userSpaceOnUse"><stop stop-color="#FF886D" offset="0"/><stop stop-color="#FF886D" stop-opacity="0" offset="1"/></linearGradient><linearGradient id="c" x1="11.086" x2="7.5206" y1="5.8695" y2="9.6224" gradientUnits="userSpaceOnUse"><stop stop-color="#FFDA72" offset="0"/><stop stop-color="#F7A967" offset="1"/></linearGradient><linearGradient id="b" x1="8.8855" x2="8.8855" y1="11.98" y2="7.8553" gradientUnits="userSpaceOnUse"><stop stop-color="#FDA071" offset="0"/><stop stop-color="#FDA071" stop-opacity="0" offset="1"/></linearGradient><radialGradient id="a" cx="0" cy="0" r="1" gradientTransform="translate(10.014 18.567) rotate(127.22) scale(7.076 6.8907)" gradientUnits="userSpaceOnUse"><stop stop-color="#FFBC64" offset=".3646"/><stop stop-color="#FF8F6B" offset="1"/></radialGradient></defs></svg>
