<svg fill="none" viewBox="0 0 32 32" xmlns="http://www.w3.org/2000/svg"><g filter="url(#b)"><path d="m28.43 14.965-9.7183-11.616c-1.5106-1.7994-4.2901-1.7994-5.8007 0l-9.7182 11.616c-3.2125 3.8386-0.46325 9.6565 4.562 9.6565 2.3264 0 4.4412-1.3595 5.408-3.4587l0.6445-1.4095v3.1688c0 2.0993-1.6919 3.7987-3.7967 3.8387h-0.0805c-0.8963 0-1.6315 0.7297-1.6315 1.6194s0.73518 1.6194 1.6315 1.6194h11.773c0.8963 0 1.6315-0.7297 1.6315-1.6194s-0.7352-1.6194-1.6315-1.6194h-0.0805c-2.1048-0.04-3.7967-1.7394-3.7967-3.8387v-3.1688l0.6445 1.4095c0.9568 2.1092 3.0716 3.4587 5.408 3.4587 5.0152 0 7.7645-5.8179 4.552-9.6565z" fill="url(#a)"/></g><defs><filter id="b" x=".81201" y="1.25" width="29.75" height="29.5" color-interpolation-filters="sRGB" filterUnits="userSpaceOnUse"><feFlood flood-opacity="0" result="BackgroundImageFix"/><feBlend in="SourceGraphic" in2="BackgroundImageFix" result="shape"/><feColorMatrix in="SourceAlpha" result="hardAlpha" values="0 0 0 0 0 0 0 0 0 0 0 0 0 0 0 0 0 0 127 0"/><feOffset dx="-1"/><feGaussianBlur stdDeviation="0.5"/><feComposite in2="hardAlpha" k2="-1" k3="1" operator="arithmetic"/><feColorMatrix values="0 0 0 0 0.427451 0 0 0 0 0.372549 0 0 0 0 0.482353 0 0 0 1 0"/><feBlend in2="shape" result="effect1_innerShadow_18_4023"/><feColorMatrix in="SourceAlpha" result="hardAlpha" values="0 0 0 0 0 0 0 0 0 0 0 0 0 0 0 0 0 0 127 0"/><feOffset dx="0.75" dy="-0.75"/><feGaussianBlur stdDeviation="0.625"/><feComposite in2="hardAlpha" k2="-1" k3="1" operator="arithmetic"/><feColorMatrix values="0 0 0 0 0.172549 0 0 0 0 0.109804 0 0 0 0 0.227451 0 0 0 1 0"/><feBlend in2="effect1_innerShadow_18_4023" result="effect2_innerShadow_18_4023"/><feColorMatrix in="SourceAlpha" result="hardAlpha" values="0 0 0 0 0 0 0 0 0 0 0 0 0 0 0 0 0 0 127 0"/><feOffset dx="0.75" dy="0.75"/><feGaussianBlur stdDeviation="0.625"/><feComposite in2="hardAlpha" k2="-1" k3="1" operator="arithmetic"/><feColorMatrix values="0 0 0 0 0.196078 0 0 0 0 0.192157 0 0 0 0 0.2 0 0 0 1 0"/><feBlend in2="effect2_innerShadow_18_4023" result="effect3_innerShadow_18_4023"/></filter><linearGradient id="a" x1="24.129" x2="11.266" y1="11.078" y2="29.196" gradientUnits="userSpaceOnUse"><stop stop-color="#534165" offset="0"/><stop stop-color="#3F3946" offset="1"/></linearGradient></defs></svg>
