<svg fill="none" viewBox="0 0 32 32" xmlns="http://www.w3.org/2000/svg"><path d="m19.88 29.353-3.6379-9.9641 5.9219-3.4531 4.0391 11.094c0.2237 0.6143-0.3909 1.2007-0.9941 0.9485l-1.8388-0.769c-0.4918-0.2056-1.0585 0.0106-1.2882 0.4916l-0.8207 1.7183c-0.2863 0.5996-1.1534 0.5581-1.3813-0.0661z" fill="url(#u)"/><path d="m19.88 29.353-3.6379-9.9641 5.9219-3.4531 4.0391 11.094c0.2237 0.6143-0.3909 1.2007-0.9941 0.9485l-1.8388-0.769c-0.4918-0.2056-1.0585 0.0106-1.2882 0.4916l-0.8207 1.7183c-0.2863 0.5996-1.1534 0.5581-1.3813-0.0661z" fill="url(#j)"/><path d="m19.88 29.353-3.6379-9.9641 5.9219-3.4531 4.0391 11.094c0.2237 0.6143-0.3909 1.2007-0.9941 0.9485l-1.8388-0.769c-0.4918-0.2056-1.0585 0.0106-1.2882 0.4916l-0.8207 1.7183c-0.2863 0.5996-1.1534 0.5581-1.3813-0.0661z" fill="url(#h)"/><path d="m19.88 29.353-3.6379-9.9641 5.9219-3.4531 4.0391 11.094c0.2237 0.6143-0.3909 1.2007-0.9941 0.9485l-1.8388-0.769c-0.4918-0.2056-1.0585 0.0106-1.2882 0.4916l-0.8207 1.7183c-0.2863 0.5996-1.1534 0.5581-1.3813-0.0661z" fill="url(#g)"/><path d="m12.213 29.353 3.6379-9.9641-5.9219-3.4531-4.0391 11.094c-0.22365 0.6143 0.39096 1.2007 0.9941 0.9485l1.8389-0.769c0.49178-0.2056 1.0584 0.0106 1.2882 0.4916l0.8206 1.7183c0.2864 0.5996 1.1534 0.5581 1.3813-0.0661z" fill="url(#f)"/><path d="m12.213 29.353 3.6379-9.9641-5.9219-3.4531-4.0391 11.094c-0.22365 0.6143 0.39096 1.2007 0.9941 0.9485l1.8389-0.769c0.49178-0.2056 1.0584 0.0106 1.2882 0.4916l0.8206 1.7183c0.2864 0.5996 1.1534 0.5581 1.3813-0.0661z" fill="url(#e)"/><path d="m12.213 29.353 3.6379-9.9641-5.9219-3.4531-4.0391 11.094c-0.22365 0.6143 0.39096 1.2007 0.9941 0.9485l1.8389-0.769c0.49178-0.2056 1.0584 0.0106 1.2882 0.4916l0.8206 1.7183c0.2864 0.5996 1.1534 0.5581 1.3813-0.0661z" fill="url(#d)"/><path d="m12.213 29.353 3.6379-9.9641-5.9219-3.4531-4.0391 11.094c-0.22365 0.6143 0.39096 1.2007 0.9941 0.9485l1.8389-0.769c0.49178-0.2056 1.0584 0.0106 1.2882 0.4916l0.8206 1.7183c0.2864 0.5996 1.1534 0.5581 1.3813-0.0661z" fill="url(#c)"/><path d="m13.422 9.7236 0.8297-0.39444-5.3203-2.6125c-1.184-0.6134-3.0338-1.177-4.8042-0.29181-0.35649 0.17826-0.65717 0.39119-0.90632 0.62844-0.52709 0.46307-1.2166 1.3718-1.2166 2.9673v6.7645c-0.04163 0.5412 0.17908 1.9317 1.0182 2.709 1.1135 1.2109 3.1843 1.7302 5.4703 0.7271 1.2049-0.5286 2.7395-1.3045 3.7417-1.8112 0.4037-0.204 0.7212-0.3646 0.8957-0.4476l1.1215-0.5331-0.8297-0.4074v-7.2982z" fill="url(#b)"/><path d="m13.422 9.7236 0.8297-0.39444-5.3203-2.6125c-1.184-0.6134-3.0338-1.177-4.8042-0.29181-0.35649 0.17826-0.65717 0.39119-0.90632 0.62844-0.52709 0.46307-1.2166 1.3718-1.2166 2.9673v6.7645c-0.04163 0.5412 0.17908 1.9317 1.0182 2.709 1.1135 1.2109 3.1843 1.7302 5.4703 0.7271 1.2049-0.5286 2.7395-1.3045 3.7417-1.8112 0.4037-0.204 0.7212-0.3646 0.8957-0.4476l1.1215-0.5331-0.8297-0.4074v-7.2982z" fill="url(#a)"/><path d="m18.517 9.7236-0.8297-0.39444 5.3203-2.6125c1.184-0.6134 3.0338-1.177 4.8041-0.29181 0.3565 0.17826 0.6572 0.39119 0.9064 0.62844 0.5271 0.46307 1.2165 1.3718 1.2165 2.9673v6.7645c0.0417 0.5412-0.179 1.9317-1.0182 2.709-1.1135 1.2109-3.1843 1.7302-5.4702 0.7271-1.2049-0.5286-2.7396-1.3045-3.7418-1.8112-0.4036-0.204-0.7212-0.3646-0.8957-0.4476l-1.1214-0.5331 0.8297-0.4074v-7.2982z" fill="url(#t)"/><path d="m8.6616 15.352 4.2116 2.0681c-0.6571 0.3123-2.932 1.5101-4.6209 2.2512-2.1112 0.9263-3.91 0.3985-4.8148-0.614s-0.91123-3.0612 0.95868-3.9962c1.5166-0.7583 3.1452-0.2908 4.2655 0.2909z" fill="#C4C4C4" fill-opacity=".55"/><path d="m23.278 15.352-4.2116 2.0681c0.657 0.3123 2.9319 1.5101 4.6209 2.2512 2.1112 0.9263 3.91 0.3985 4.8148-0.614s0.9113-3.0612-0.9586-3.9962c-1.5167-0.7583-3.1453-0.2908-4.2655 0.2909z" fill="#C40E49"/><path d="m23.278 15.352-4.2116 2.0681c0.657 0.3123 2.9319 1.5101 4.6209 2.2512 2.1112 0.9263 3.91 0.3985 4.8148-0.614s0.9113-3.0612-0.9586-3.9962c-1.5167-0.7583-3.1453-0.2908-4.2655 0.2909z" fill="url(#s)"/><path d="m8.6616 15.352 4.2116 2.0681c-0.6571 0.3123-2.932 1.5101-4.6209 2.2512-2.1112 0.9263-3.91 0.3985-4.8148-0.614s-0.91123-3.0612 0.95868-3.9962c1.5166-0.7583 3.1452-0.2908 4.2655 0.2909z" fill="#CC0B30"/><path d="m8.6616 15.352 4.2116 2.0681c-0.6571 0.3123-2.932 1.5101-4.6209 2.2512-2.1112 0.9263-3.91 0.3985-4.8148-0.614s-0.91123-3.0612 0.95868-3.9962c1.5166-0.7583 3.1452-0.2908 4.2655 0.2909z" fill="url(#r)"/><g filter="url(#w)"><path d="m18.938 17.691-0.5608-0.2666 0.5573-0.2736 4.2087-2.0667c1.152-0.5974 2.8912-1.1131 4.5348-0.2913 2.0658 1.0329 2.0703 3.3207 1.0482 4.4644-1.005 1.1247-2.9491 1.6585-5.1591 0.6888-1.1972-0.5253-2.7045-1.2874-3.7063-1.794-0.412-0.2083-0.7386-0.3734-0.9228-0.461z" stroke="url(#q)" stroke-width=".6"/></g><g filter="url(#v)"><path d="m13.002 17.691 0.5607-0.2666-0.5573-0.2736-4.2086-2.0667c-1.152-0.5974-2.8913-1.1131-4.5348-0.2913-2.0658 1.0329-2.0702 3.3207-1.0482 4.4644 1.005 1.1247 2.9491 1.6585 5.1591 0.6888 1.1973-0.5253 2.7046-1.2874 3.7064-1.794 0.412-0.2083 0.7385-0.3734 0.9228-0.461z" stroke="url(#p)" stroke-width=".6"/></g><path d="m18.938 17.691-0.5608-0.2666 0.5573-0.2736 4.2087-2.0667c1.152-0.5974 2.8912-1.1131 4.5348-0.2913 2.0658 1.0329 2.0703 3.3207 1.0482 4.4644-1.005 1.1247-2.9491 1.6585-5.1591 0.6888-1.1972-0.5253-2.7045-1.2874-3.7063-1.794-0.412-0.2083-0.7386-0.3734-0.9228-0.461z" stroke="url(#o)" stroke-width=".6"/><rect x="12.604" y="7.1122" width="6.9152" height="12.99" rx="1.85" fill="url(#n)"/><rect x="12.604" y="7.1122" width="6.9152" height="12.99" rx="1.85" fill="url(#m)"/><rect x="12.604" y="7.1122" width="6.9152" height="12.99" rx="1.85" fill="url(#l)"/><rect x="12.604" y="7.1122" width="6.9152" height="12.99" rx="1.85" fill="url(#k)"/><rect x="12.604" y="7.1122" width="6.9152" height="12.99" rx="1.85" fill="url(#i)"/><defs><filter id="w" x="17.688" y="14.066" width="12.006" height="6.785" color-interpolation-filters="sRGB" filterUnits="userSpaceOnUse"><feFlood flood-opacity="0" result="BackgroundImageFix"/><feBlend in="SourceGraphic" in2="BackgroundImageFix" result="shape"/><feColorMatrix in="SourceAlpha" result="hardAlpha" values="0 0 0 0 0 0 0 0 0 0 0 0 0 0 0 0 0 0 127 0"/><feOffset dy="0.1"/><feGaussianBlur stdDeviation="0.1"/><feComposite in2="hardAlpha" k2="-1" k3="1" operator="arithmetic"/><feColorMatrix values="0 0 0 0 0.811765 0 0 0 0 0.254902 0 0 0 0 0.388235 0 0 0 1 0"/><feBlend in2="shape" result="effect1_innerShadow_18_1233"/></filter><filter id="v" x="2.2462" y="14.066" width="12.006" height="6.785" color-interpolation-filters="sRGB" filterUnits="userSpaceOnUse"><feFlood flood-opacity="0" result="BackgroundImageFix"/><feBlend in="SourceGraphic" in2="BackgroundImageFix" result="shape"/><feColorMatrix in="SourceAlpha" result="hardAlpha" values="0 0 0 0 0 0 0 0 0 0 0 0 0 0 0 0 0 0 127 0"/><feOffset dy="0.1"/><feGaussianBlur stdDeviation="0.1"/><feComposite in2="hardAlpha" k2="-1" k3="1" operator="arithmetic"/><feColorMatrix values="0 0 0 0 0.843137 0 0 0 0 0.25098 0 0 0 0 0.341176 0 0 0 1 0"/><feBlend in2="shape" result="effect1_innerShadow_18_1233"/></filter><linearGradient id="u" x1="18.304" x2="21.679" y1="19.702" y2="28.014" gradientUnits="userSpaceOnUse"><stop stop-color="#BA2950" offset="0"/><stop stop-color="#DB1532" offset="1"/></linearGradient><linearGradient id="j" x1="22.289" x2="20.351" y1="18.264" y2="21.577" gradientUnits="userSpaceOnUse"><stop stop-color="#980129" offset=".28347"/><stop stop-color="#980129" stop-opacity="0" offset="1"/></linearGradient><linearGradient id="h" x1="17.378" x2="17.805" y1="22.623" y2="22.478" gradientUnits="userSpaceOnUse"><stop stop-color="#A80435" offset="0"/><stop stop-color="#A80435" stop-opacity="0" offset="1"/></linearGradient><linearGradient id="g" x1="24.993" x2="24.617" y1="23.461" y2="23.598" gradientUnits="userSpaceOnUse"><stop stop-color="#E04E6F" offset="0"/><stop stop-color="#E04E6F" stop-opacity="0" offset="1"/></linearGradient><linearGradient id="f" x1="13.789" x2="10.414" y1="19.702" y2="28.014" gradientUnits="userSpaceOnUse"><stop stop-color="#BA2950" offset="0"/><stop stop-color="#DB1532" offset="1"/></linearGradient><radialGradient id="e" cx="0" cy="0" r="1" gradientTransform="translate(14.664 17.514) rotate(129.15) scale(6.0447 6.9151)" gradientUnits="userSpaceOnUse"><stop stop-color="#980129" offset=".28965"/><stop stop-color="#980129" stop-opacity="0" offset="1"/></radialGradient><linearGradient id="d" x1="7.6365" x2="8.1659" y1="21.97" y2="22.165" gradientUnits="userSpaceOnUse"><stop stop-color="#AA3244" offset="0"/><stop stop-color="#AA3244" stop-opacity="0" offset="1"/></linearGradient><linearGradient id="c" x1="14.244" x2="13.864" y1="24.184" y2="24.034" gradientUnits="userSpaceOnUse"><stop stop-color="#D24162" offset=".17568"/><stop stop-color="#D24162" stop-opacity="0" offset="1"/></linearGradient><linearGradient id="b" x1="12.914" x2="2" y1="13.889" y2="13.889" gradientUnits="userSpaceOnUse"><stop stop-color="#C92D60" offset="0"/><stop stop-color="#CD2E4E" offset=".49673"/><stop stop-color="#A1383E" offset="1"/></linearGradient><radialGradient id="a" cx="0" cy="0" r="1" gradientTransform="translate(10.476 17.514) rotate(-90) scale(9.9375 3.2317)" gradientUnits="userSpaceOnUse"><stop stop-color="#DB3665" offset="0"/><stop stop-color="#DB3665" stop-opacity="0" offset="1"/></radialGradient><linearGradient id="t" x1="20.476" x2="29.94" y1="14.014" y2="14.014" gradientUnits="userSpaceOnUse"><stop stop-color="#A52548" offset=".092462"/><stop stop-color="#EC4953" offset="1"/></linearGradient><radialGradient id="s" cx="0" cy="0" r="1" gradientTransform="translate(27.625 12.077) rotate(79.089) scale(8.669 11.826)" gradientUnits="userSpaceOnUse"><stop stop-color="#932128" offset=".65654"/><stop stop-color="#932128" stop-opacity="0" offset="1"/></radialGradient><radialGradient id="r" cx="0" cy="0" r="1" gradientTransform="translate(4.3147 12.077) rotate(100.91) scale(8.669 11.826)" gradientUnits="userSpaceOnUse"><stop stop-color="#97242A" offset=".65654"/><stop stop-color="#932128" stop-opacity="0" offset="1"/></radialGradient><linearGradient id="q" x1="19.067" x2="29.813" y1="17.752" y2="17.752" gradientUnits="userSpaceOnUse"><stop stop-color="#BB1865" offset="0"/><stop stop-color="#DD1836" offset="1"/></linearGradient><linearGradient id="p" x1="12.873" x2="2.1268" y1="17.752" y2="17.752" gradientUnits="userSpaceOnUse"><stop stop-color="#C31867" offset="0"/><stop stop-color="#C81745" offset="1"/></linearGradient><radialGradient id="o" cx="0" cy="0" r="1" gradientTransform="translate(24.601 19.171) rotate(-50.69) scale(5.8207 6.6084)" gradientUnits="userSpaceOnUse"><stop stop-color="#EC4C5C" stop-opacity="0" offset=".82775"/><stop stop-color="#EC4C5C" offset="1"/></radialGradient><linearGradient id="n" x1="16.062" x2="16.062" y1="7.1122" y2="20.103" gradientUnits="userSpaceOnUse"><stop stop-color="#C83065" offset="0"/><stop stop-color="#DF1E30" offset="1"/></linearGradient><linearGradient id="m" x1="11.733" x2="14.388" y1="12.703" y2="12.889" gradientUnits="userSpaceOnUse"><stop stop-color="#A2304B" offset="0"/><stop stop-color="#A2304B" stop-opacity="0" offset="1"/></linearGradient><radialGradient id="l" cx="0" cy="0" r="1" gradientTransform="translate(20.119 17.549) rotate(180) scale(4.6127 .65229)" gradientUnits="userSpaceOnUse"><stop stop-color="#F75053" offset="0"/><stop stop-color="#F75053" stop-opacity="0" offset="1"/></radialGradient><linearGradient id="k" x1="19.677" x2="18.675" y1="12.75" y2="12.75" gradientUnits="userSpaceOnUse"><stop stop-color="#C11451" offset="0"/><stop stop-color="#C11451" stop-opacity="0" offset="1"/></linearGradient><linearGradient id="i" x1="16.718" x2="16.718" y1="20.577" y2="18.667" gradientUnits="userSpaceOnUse"><stop stop-color="#D12951" offset="0"/><stop stop-color="#D12951" stop-opacity="0" offset="1"/></linearGradient></defs></svg>
