<svg fill="none" viewBox="0 0 32 32" xmlns="http://www.w3.org/2000/svg"><path d="m6.92 15.995v-2.42" stroke="#433B6B" stroke-linecap="round" stroke-linejoin="round" stroke-miterlimit="10"/><path d="m5 14.605 5.16 4.51" stroke="#433B6B" stroke-linecap="round" stroke-linejoin="round" stroke-miterlimit="10"/><path d="m25.95 15.995v-2.42" stroke="#433B6B" stroke-linecap="round" stroke-linejoin="round" stroke-miterlimit="10"/><path d="m27.87 14.605-5.17 4.51" stroke="#433B6B" stroke-linecap="round" stroke-linejoin="round" stroke-miterlimit="10"/><path d="m24.7 17.545h2.24" stroke="#433B6B" stroke-linecap="round" stroke-linejoin="round" stroke-miterlimit="10"/><path d="m5.87 17.535h2.24" stroke="#433B6B" stroke-linecap="round" stroke-linejoin="round" stroke-miterlimit="10"/><path d="m26.66 23.235c0 5.63-4.57 6.8-10.2 6.8s-10.2-1.17-10.2-6.8 4.57-10.2 10.2-10.2 10.2 4.57 10.2 10.2z" fill="url(#q)"/><path d="m17.95 25.015c-0.27 0-0.49-0.22-0.49-0.49v-1.02c0-0.27 0.22-0.49 0.49-0.49s0.49 0.22 0.49 0.49v1.02c0 0.27-0.22 0.49-0.49 0.49z" fill="url(#i)"/><path d="m19.96 25.025c-0.27 0-0.49-0.22-0.49-0.49v-1.03c0-0.27 0.22-0.49 0.49-0.49s0.49 0.22 0.49 0.49v1.03c0 0.26-0.22 0.49-0.49 0.49z" fill="url(#h)"/><path d="m21.95 25.025c-0.27 0-0.49-0.22-0.49-0.49v-1.03c0-0.27 0.22-0.49 0.49-0.49s0.49 0.22 0.49 0.49v1.03c0.01 0.26-0.22 0.49-0.49 0.49z" fill="url(#g)"/><path d="m21.81 24.035h-3.73c-0.36 0-0.65-0.29-0.65-0.65v-5.35h5.03v5.35c0 0.36-0.29 0.65-0.65 0.65z" fill="url(#f)"/><path d="m23.58 15.695c0 3.93-3.19 4.39-7.12 4.39s-7.12-0.46-7.12-4.39 3.19-0.64 7.12-0.64 7.12-3.29 7.12 0.64z" fill="url(#e)"/><path d="m23.54 12.155c0 3.91-3.21 3.85-7.13 3.85s-7.04 0.07-7.04-3.85c0-3.92 3.17-7.08 7.08-7.08s7.09 3.17 7.09 7.08z" fill="url(#d)"/><path d="m16.49 5.0449-5.53 2.37-0.78-1.81c-0.43998-1.03 0.03-2.22 1.06-2.66l1.81-0.78c1.03-0.44 2.21 0.03 2.65 1.06l0.79 1.82z" fill="url(#c)"/><path d="m15.91 5.2949-4.37 1.88c-0.32 0.13-0.69-0.01-0.83-0.33l-0.53-1.24 5.53-2.37 0.53 1.24c0.13 0.31-0.01 0.68-0.33 0.82z" fill="url(#b)"/><path d="m17.03 5.6149-6.05 2.59c-0.36 0.16-0.78-0.01-0.94-0.37-0.14999-0.36 0.02-0.79 0.38-0.94l6.04-2.59c0.36-0.16 0.78 0.01 0.94 0.38 0.16 0.35-0.01 0.77-0.37 0.93z" fill="url(#a)"/><path d="m14.96 9.8449c-0.23 0-0.41-0.17-0.41-0.38v-0.71c0-0.21 0.19-0.38 0.41-0.38s0.41 0.17 0.41 0.38v0.71c0 0.21-0.18 0.38-0.41 0.38z" fill="#433B6B"/><path d="m17.96 9.8449c-0.23 0-0.41-0.17-0.41-0.38v-0.71c0-0.21 0.19-0.38 0.41-0.38s0.41 0.17 0.41 0.38v0.71c0 0.21-0.18 0.38-0.41 0.38z" fill="#433B6B"/><path d="m20.61 11.135-4.06-0.42c-0.45 0-0.81 0.36-0.81 0.81s0.36 0.81 0.81 0.81l4.06-0.42c0.22 0 0.4-0.18 0.4-0.4s-0.18-0.38-0.4-0.38z" fill="url(#p)"/><path d="m26.48 4.7048h-0.2l0.14-0.14c0.2-0.21 0.2-0.54 0-0.75-0.21-0.21-0.54-0.21-0.75 0l-0.14 0.14v-0.2c0-0.29-0.24-0.53-0.53-0.53s-0.53 0.24-0.53 0.53v0.2l-0.14-0.14c-0.2-0.21-0.54-0.21-0.75 0s-0.21 0.54 0 0.75l0.14 0.14h-0.2c-0.28 0-0.52 0.24-0.52 0.53s0.24 0.53 0.53 0.53h0.2l-0.14 0.14c-0.21 0.21-0.21 0.54 0 0.75 0.2 0.21 0.54 0.21 0.75 0l0.14-0.14v0.2c0 0.29 0.24 0.53 0.53 0.53s0.53-0.24 0.53-0.53v-0.21l0.14 0.14c0.2 0.21 0.54 0.21 0.75 0 0.2-0.21 0.2-0.54 0-0.75l-0.14-0.14h0.2c0.29 0 0.53-0.24 0.53-0.53-0.01-0.28-0.25-0.52-0.54-0.52z" fill="url(#o)"/><path d="m5.48 9.7049h-0.2l0.14-0.14c0.2-0.21 0.2-0.54 0-0.75-0.21-0.21-0.54-0.21-0.75 0l-0.14 0.15v-0.2c0-0.29-0.24-0.53-0.53-0.53s-0.53 0.24-0.53 0.53v0.2l-0.14-0.15c-0.2-0.21-0.54-0.21-0.75 0s-0.21 0.54 0 0.75l0.15 0.14h-0.2c-0.29 0-0.53 0.24-0.53 0.53004 0 0.29 0.24 0.53 0.53 0.53h0.2l-0.14 0.14c-0.21 0.21-0.21 0.54 0 0.75 0.2 0.21 0.54 0.21 0.75 0l0.14-0.15v0.2c0 0.29 0.24 0.53 0.53 0.53s0.53-0.24 0.53-0.53v-0.2l0.14 0.14c0.2 0.21 0.54 0.21 0.75 0 0.2-0.21 0.2-0.54 0-0.75l-0.15-0.13h0.2c0.29 0 0.53-0.24 0.53-0.53 0-0.29004-0.24-0.53004-0.53-0.53004z" fill="url(#n)"/><path d="m27.72 9.9349h-0.11l0.08-0.08c0.11-0.11 0.11-0.29 0-0.4s-0.29-0.11-0.4 0l-0.08 0.08v-0.11c0-0.15-0.13-0.28-0.28-0.28s-0.28 0.13-0.28 0.28v0.11l-0.08-0.08c-0.11-0.11-0.29-0.11-0.4 0s-0.11 0.29 0 0.4l0.08 0.08h-0.11c-0.15 0-0.28 0.13-0.28 0.28s0.13 0.28 0.28 0.28h0.11l-0.08 0.08c-0.11 0.11-0.11 0.29 0 0.4s0.29 0.11 0.4 0l0.08-0.08v0.11c0 0.15 0.13 0.28 0.28 0.28s0.28-0.13 0.28-0.28v-0.11l0.08 0.08c0.11 0.11 0.29 0.11 0.4 0s0.11-0.29 0-0.4l-0.08-0.08h0.11c0.15 0 0.28-0.13 0.28-0.28 0-0.16-0.12-0.28-0.28-0.28z" fill="url(#m)"/><path d="m6.7899 4.9548h-0.1l0.08-0.08c0.11-0.11 0.11-0.29 0-0.4s-0.29-0.11-0.4 0l-0.08 0.08v-0.11c0-0.15-0.13-0.28-0.28-0.28s-0.28 0.13-0.28 0.28v0.11l-0.08-0.08c-0.11-0.11-0.29-0.11-0.4 0s-0.11 0.29 0 0.4l0.08 0.08h-0.11c-0.15 0-0.28 0.13-0.28 0.28s0.13 0.28 0.28 0.28h0.11l-0.08 0.08c-0.11 0.11-0.11 0.29 0 0.4s0.29 0.11 0.4 0l0.08-0.08v0.11c0 0.15 0.13 0.28001 0.28 0.28001s0.28-0.13001 0.28-0.28001v-0.11l0.08 0.08c0.11 0.11 0.29 0.11 0.4 0s0.11-0.29 0-0.4l-0.08-0.08h0.11c0.15 0 0.28-0.13 0.28-0.28s-0.13-0.28-0.29-0.28z" fill="url(#l)"/><path d="m4.66 19.935h-0.11l0.08-0.08c0.11-0.11 0.11-0.29 0-0.4s-0.29-0.11-0.4 0l-0.08 0.08v-0.11c0-0.15-0.13-0.28-0.28-0.28s-0.28 0.13-0.28 0.28v0.11l-0.08-0.08c-0.11-0.11-0.29-0.11-0.4 0s-0.11 0.29 0 0.4l0.08 0.08h-0.11c-0.15 0-0.28 0.13-0.28 0.28s0.13 0.28 0.28 0.28h0.11l-0.08 0.08c-0.11 0.11-0.11 0.29 0 0.4s0.29 0.11 0.4 0l0.08-0.08v0.11c0 0.15 0.13 0.28 0.28 0.28s0.28-0.13 0.28-0.28v-0.11l0.08 0.08c0.11 0.11 0.29 0.11 0.4 0s0.11-0.29 0-0.4l-0.08-0.07h0.11c0.15 0 0.28-0.13 0.28-0.28 0-0.16-0.13-0.29-0.28-0.29z" fill="url(#k)"/><path d="m28.79 22.955h-0.11l0.08-0.08c0.11-0.11 0.11-0.29 0-0.4s-0.29-0.11-0.4 0l-0.08 0.08v-0.11c0-0.15-0.13-0.28-0.28-0.28s-0.28 0.13-0.28 0.28v0.11l-0.08-0.08c-0.11-0.11-0.29-0.11-0.4 0s-0.11 0.29 0 0.4l0.08 0.08h-0.11c-0.15 0-0.28 0.13-0.28 0.28s0.13 0.28 0.28 0.28h0.11l-0.08 0.08c-0.11 0.11-0.11 0.29 0 0.4s0.29 0.11 0.4 0l0.08-0.08v0.11c0 0.15 0.13 0.28 0.28 0.28s0.28-0.13 0.28-0.28v-0.11l0.08 0.08c0.11 0.11 0.29 0.11 0.4 0s0.11-0.29 0-0.4l-0.08-0.08h0.11c0.15 0 0.28-0.13 0.28-0.28s-0.12-0.28-0.28-0.28z" fill="url(#j)"/><defs><radialGradient id="q" cx="0" cy="0" r="1" gradientTransform="translate(21.297 20.223) scale(18.575)" gradientUnits="userSpaceOnUse"><stop stop-color="#F1F2F2" offset="0"/><stop stop-color="#BCBEC0" offset="1"/></radialGradient><linearGradient id="i" x1="18.446" x2="17.759" y1="25.376" y2="23.485" gradientUnits="userSpaceOnUse"><stop stop-color="#1B75BB" offset=".4804"/><stop stop-color="#2B3990" offset=".9888"/></linearGradient><linearGradient id="h" x1="20.458" x2="19.766" y1="25.383" y2="23.482" gradientUnits="userSpaceOnUse"><stop stop-color="#1B75BB" offset=".4804"/><stop stop-color="#2B3990" offset=".9888"/></linearGradient><linearGradient id="g" x1="22.452" x2="21.76" y1="25.383" y2="23.482" gradientUnits="userSpaceOnUse"><stop stop-color="#1B75BB" offset=".4804"/><stop stop-color="#2B3990" offset=".9888"/></linearGradient><linearGradient id="f" x1="20.95" x2="19.487" y1="26.306" y2="18.195" gradientUnits="userSpaceOnUse"><stop stop-color="#1B75BB" offset=".4804"/><stop stop-color="#2B3990" offset=".9888"/></linearGradient><linearGradient id="e" x1="28.669" x2="4.0205" y1="19.916" y2="12.916" gradientUnits="userSpaceOnUse"><stop stop-color="#1B75BB" offset=".4804"/><stop stop-color="#2B3990" offset=".9888"/></linearGradient><radialGradient id="d" cx="0" cy="0" r="1" gradientTransform="translate(18.297 7.9389) scale(10.705)" gradientUnits="userSpaceOnUse"><stop stop-color="#F1F2F2" offset="0"/><stop stop-color="#BCBEC0" offset="1"/></radialGradient><linearGradient id="c" x1="10.169" x2="15.695" y1="5.5807" y2="3.2095" gradientUnits="userSpaceOnUse"><stop stop-color="#513468" offset=".0055866"/><stop stop-color="#1C1C1C" offset="1"/></linearGradient><linearGradient id="b" x1="17.098" x2="8.9954" y1="3.9382" y2="6.8808" gradientUnits="userSpaceOnUse"><stop stop-color="#1B75BB" offset=".4804"/><stop stop-color="#2B3990" offset=".9888"/></linearGradient><linearGradient id="a" x1="10.042" x2="17.4" y1="7.8305" y2="4.6737" gradientUnits="userSpaceOnUse"><stop stop-color="#513468" offset=".0055866"/><stop stop-color="#1C1C1C" offset="1"/></linearGradient><linearGradient id="p" x1="15.739" x2="21.008" y1="11.534" y2="11.534" gradientUnits="userSpaceOnUse"><stop stop-color="#FF2C00" offset="0"/><stop stop-color="#FF8C00" offset="1"/></linearGradient><radialGradient id="o" cx="0" cy="0" r="1" gradientTransform="translate(25.3 3.9242) scale(11.944)" gradientUnits="userSpaceOnUse"><stop stop-color="#F1F2F2" offset="0"/><stop stop-color="#BCBEC0" offset="1"/></radialGradient><radialGradient id="n" cx="0" cy="0" r="1" gradientTransform="translate(4.3003 8.9242) scale(11.944)" gradientUnits="userSpaceOnUse"><stop stop-color="#F1F2F2" offset="0"/><stop stop-color="#BCBEC0" offset="1"/></radialGradient><radialGradient id="m" cx="0" cy="0" r="1" gradientTransform="translate(27.093 9.5142) scale(6.3748)" gradientUnits="userSpaceOnUse"><stop stop-color="#F1F2F2" offset="0"/><stop stop-color="#BCBEC0" offset="1"/></radialGradient><radialGradient id="l" cx="0" cy="0" r="1" gradientTransform="translate(6.1646 4.5351) scale(6.3748)" gradientUnits="userSpaceOnUse"><stop stop-color="#F1F2F2" offset="0"/><stop stop-color="#BCBEC0" offset="1"/></radialGradient><radialGradient id="k" cx="0" cy="0" r="1" gradientTransform="translate(4.0266 19.52) scale(6.3748)" gradientUnits="userSpaceOnUse"><stop stop-color="#F1F2F2" offset="0"/><stop stop-color="#BCBEC0" offset="1"/></radialGradient><radialGradient id="j" cx="0" cy="0" r="1" gradientTransform="translate(28.162 22.535) scale(6.3748)" gradientUnits="userSpaceOnUse"><stop stop-color="#F1F2F2" offset="0"/><stop stop-color="#BCBEC0" offset="1"/></radialGradient></defs></svg>
