<svg width="359" height="28" viewBox="0 0 359 28" fill="none" xmlns="http://www.w3.org/2000/svg">
<g clip-path="url(#clip0_103_1010)">
<path d="M213.25 27.5C214.217 27.5 215 26.7165 215 25.75C215 24.7835 214.217 24 213.25 24C212.284 24 211.5 24.7835 211.5 25.75C211.5 26.7165 212.284 27.5 213.25 27.5Z" fill="white"/>
<path d="M219.213 27.5C220.18 27.5 220.963 26.7165 220.963 25.75C220.963 24.7835 220.18 24 219.213 24C218.247 24 217.463 24.7835 217.463 25.75C217.463 26.7165 218.247 27.5 219.213 27.5Z" fill="white"/>
<path d="M225.17 27.5C226.137 27.5 226.92 26.7165 226.92 25.75C226.92 24.7835 226.137 24 225.17 24C224.204 24 223.42 24.7835 223.42 25.75C223.42 26.7165 224.204 27.5 225.17 27.5Z" fill="white"/>
<path d="M8.75859 5.39545H0V0.214348H23.8588V5.39545H15.1002V27.6877H8.76469V5.39545H8.75859Z" fill="white"/>
<path d="M52.3684 0.214348V27.6815H46.0329V16.4191H33.5939V27.6815H27.2584V0.214348H33.5939V11.0481H46.0329V0.214348H52.3684Z" fill="white"/>
<path d="M75.69 27.6877L70.4105 20.0324H64.5816V27.6877H58.2461V0.214348H70.0992C72.5223 0.214348 74.628 0.618547 76.4164 1.43307C78.2047 2.24147 79.578 3.39283 80.5424 4.88714C81.5067 6.38145 81.9889 8.14523 81.9889 10.1846C81.9889 12.224 81.5006 13.9878 80.524 15.4637C79.5475 16.9396 78.1559 18.0726 76.3614 18.8565L82.5016 27.6877H75.6961H75.69ZM74.0909 6.63255C73.1021 5.80577 71.6556 5.39545 69.7513 5.39545H64.5877V14.9676H69.7513C71.6556 14.9676 73.1021 14.5512 74.0909 13.7122C75.0797 12.8731 75.5802 11.6973 75.5802 10.1785C75.5802 8.65967 75.0858 7.45319 74.0909 6.62642V6.63255Z" fill="white"/>
<path d="M108.192 22.5862V27.6877H86.9939V0.214348H107.685V5.31583H93.2928V11.2808H106.006V16.2231H93.2928V22.5801H108.192V22.5862Z" fill="white"/>
<path d="M134.437 22.5862V27.6877H113.239V0.214348H133.93V5.31583H119.538V11.2808H132.252V16.2231H119.538V22.5801H134.437V22.5862Z" fill="white"/>
<path d="M164.393 27.6877L164.356 11.2073L156.3 24.7848H153.443L145.423 11.5626V27.6938H139.478V0.214348H144.721L154.969 17.2826L165.058 0.214348H170.258L170.338 27.6815H164.393V27.6877Z" fill="white"/>
<path d="M194.862 21.8023H182.148L179.725 27.6877H173.231L185.432 0.214348H191.688L203.932 27.6815H197.285L194.862 21.7962V21.8023ZM192.866 16.9764L188.526 6.46107L184.187 16.9764H192.866Z" fill="white"/>
<path d="M219.003 0C225.067 0 230 4.93423 230 11C230 17.0658 225.067 22 219.003 22C216.765 22 214.688 21.3317 212.951 20.1816L208.724 21.5361L210.096 17.4492C208.779 15.6375 208 13.4053 208 11C208 4.93423 212.933 0 218.997 0H219.003ZM219.205 5C217.484 5.00015 216.08 6.4088 216.08 8.13574V9.59961H215.982C215.439 9.59975 215 10.0401 215 10.585V14.542C215 15.0868 215.439 15.5272 215.982 15.5273H222.422C222.965 15.5273 223.404 15.0868 223.404 14.542V10.585C223.404 10.0401 222.965 9.59961 222.422 9.59961H222.33V8.13574C222.33 6.40871 220.926 5 219.205 5ZM219.205 6.28613C220.218 6.28613 221.049 7.11912 221.049 8.13574V9.59961H217.362V8.13574C217.362 7.11309 218.192 6.28628 219.205 6.28613Z" fill="white"/>
</g>
<path d="M273.409 0.372333L264.223 27.6216H261.185L253.201 4.38225L245.182 27.6216H242.186L233 0.372333H235.959L243.821 23.8061L251.962 0.372333H254.647L262.667 23.9276L270.644 0.372333H273.409Z" fill="white"/>
<path d="M281.836 26.048C279.643 24.8389 277.929 23.1864 276.696 21.0842C275.463 18.982 274.849 16.6186 274.849 14C274.849 11.3814 275.463 9.01796 276.696 6.91579C277.929 4.81362 279.643 3.16104 281.836 1.95199C284.029 0.742939 286.472 0.141451 289.175 0.141451C291.879 0.141451 294.309 0.736864 296.472 1.93377C298.641 3.13067 300.348 4.78324 301.594 6.89756C302.839 9.01189 303.465 11.3814 303.465 14C303.465 16.6186 302.839 18.9881 301.594 21.1024C300.348 23.2167 298.641 24.8754 296.472 26.0662C294.303 27.2631 291.873 27.8585 289.175 27.8585C286.478 27.8585 284.029 27.257 281.836 26.048ZM295.02 23.8304C296.758 22.8583 298.119 21.5095 299.109 19.784C300.093 18.0585 300.591 16.1325 300.591 14C300.591 11.8674 300.099 9.94754 299.109 8.21598C298.125 6.4905 296.758 5.1417 295.02 4.1696C293.282 3.1975 291.332 2.71145 289.181 2.71145C287.031 2.71145 285.074 3.1975 283.324 4.1696C281.575 5.1417 280.195 6.4905 279.199 8.21598C278.203 9.94146 277.698 11.8674 277.698 14C277.698 16.1325 278.197 18.0585 279.199 19.784C280.195 21.5095 281.575 22.8583 283.324 23.8304C285.074 24.8025 287.031 25.2885 289.181 25.2885C291.332 25.2885 293.282 24.8025 295.02 23.8304Z" fill="white"/>
<path d="M327.367 27.6277L321.139 18.8666C320.44 18.9456 319.711 18.982 318.958 18.982H311.637V27.6277H308.757V0.372333H318.958C322.433 0.372333 325.161 1.2047 327.136 2.86335C329.11 4.522 330.095 6.80644 330.095 9.71667C330.095 11.8431 329.554 13.6415 328.478 15.1058C327.403 16.57 325.866 17.6332 323.867 18.2772L330.526 27.6216H327.373L327.367 27.6277ZM325.07 14.7412C326.498 13.5504 327.209 11.8735 327.209 9.71667C327.209 7.55982 326.492 5.81611 325.07 4.63743C323.642 3.45876 321.577 2.86335 318.879 2.86335H311.637V16.5275H318.879C321.577 16.5275 323.642 15.9321 325.07 14.7351V14.7412Z" fill="white"/>
<path d="M344.184 14.8202L338.619 20.4645V27.6277H335.739V0.372333H338.619V16.8373L354.622 0.372333H357.933L346.134 12.712L358.747 27.6216H355.321L344.184 14.8141V14.8202Z" fill="white"/>
<defs>
<clipPath id="clip0_103_1010">
<rect width="230" height="28" fill="white"/>
</clipPath>
</defs>
</svg>
