<svg fill="none" viewBox="0 0 32 32" xmlns="http://www.w3.org/2000/svg"><path d="m17.025 29.79h-2.13c-0.23 0-0.43-0.16-0.49-0.38l-1.91-8.02h3l1.89 7.95c0.06 0.22-0.12 0.45-0.36 0.45z" fill="url(#ai)"/><path d="m17.025 29.79h-2.13c-0.23 0-0.43-0.16-0.49-0.38l-1.91-8.02h3l1.89 7.95c0.06 0.22-0.12 0.45-0.36 0.45z" fill="url(#x)"/><path d="m17.025 29.79h-2.13c-0.23 0-0.43-0.16-0.49-0.38l-1.91-8.02h3l1.89 7.95c0.06 0.22-0.12 0.45-0.36 0.45z" fill="url(#m)"/><path d="m17.025 29.79h-2.13c-0.23 0-0.43-0.16-0.49-0.38l-1.91-8.02h3l1.89 7.95c0.06 0.22-0.12 0.45-0.36 0.45z" fill="url(#g)"/><path d="m17.025 29.79h-2.13c-0.23 0-0.43-0.16-0.49-0.38l-1.91-8.02h3l1.89 7.95c0.06 0.22-0.12 0.45-0.36 0.45z" fill="url(#f)"/><path d="m17.025 29.79h-2.13c-0.23 0-0.43-0.16-0.49-0.38l-1.91-8.02h3l1.89 7.95c0.06 0.22-0.12 0.45-0.36 0.45z" fill="url(#e)"/><path d="m18.645 29.79h2.13c0.23 0 0.43-0.16 0.49-0.38l1.91-8.02h-3l-1.89 7.95c-0.06 0.22 0.12 0.45 0.36 0.45z" fill="url(#d)"/><path d="m18.645 29.79h2.13c0.23 0 0.43-0.16 0.49-0.38l1.91-8.02h-3l-1.89 7.95c-0.06 0.22 0.12 0.45 0.36 0.45z" fill="url(#c)"/><path d="m18.645 29.79h2.13c0.23 0 0.43-0.16 0.49-0.38l1.91-8.02h-3l-1.89 7.95c-0.06 0.22 0.12 0.45 0.36 0.45z" fill="url(#b)"/><path d="m18.645 29.79h2.13c0.23 0 0.43-0.16 0.49-0.38l1.91-8.02h-3l-1.89 7.95c-0.06 0.22 0.12 0.45 0.36 0.45z" fill="url(#a)"/><path d="m18.645 29.79h2.13c0.23 0 0.43-0.16 0.49-0.38l1.91-8.02h-3l-1.89 7.95c-0.06 0.22 0.12 0.45 0.36 0.45z" fill="url(#ah)"/><path d="m18.645 29.79h2.13c0.23 0 0.43-0.16 0.49-0.38l1.91-8.02h-3l-1.89 7.95c-0.06 0.22 0.12 0.45 0.36 0.45z" fill="url(#ag)"/><path d="m23.065 2.79c-0.57-0.01-1.13 0.06-1.66 0.18-0.67 0.15-0.98 0.93-0.6 1.5 0 0.01 0.01 0.01 0.01 0.02 0.23 0.35 0.65 0.52 1.06 0.43 0.36-0.09 0.74-0.13 1.12-0.13 2.84 0 5.14 2.38 4.99 5.25-0.13 2.55-2.19 4.62-4.75 4.74-0.82 0.04-1.59-0.12-2.28-0.43-0.08 0.16-0.21 0.29-0.35 0.4 0.01 0.51-0.01 1.07-0.17 1.55 0.79 0.32 1.66 0.49 2.56 0.49 3.9 0 7.05-3.19 7-7.1-0.05-3.78-3.15-6.86-6.93-6.9z" fill="url(#af)"/><path d="m23.065 2.79c-0.57-0.01-1.13 0.06-1.66 0.18-0.67 0.15-0.98 0.93-0.6 1.5 0 0.01 0.01 0.01 0.01 0.02 0.23 0.35 0.65 0.52 1.06 0.43 0.36-0.09 0.74-0.13 1.12-0.13 2.84 0 5.14 2.38 4.99 5.25-0.13 2.55-2.19 4.62-4.75 4.74-0.82 0.04-1.59-0.12-2.28-0.43-0.08 0.16-0.21 0.29-0.35 0.4 0.01 0.51-0.01 1.07-0.17 1.55 0.79 0.32 1.66 0.49 2.56 0.49 3.9 0 7.05-3.19 7-7.1-0.05-3.78-3.15-6.86-6.93-6.9z" fill="url(#ae)"/><path d="m23.065 2.79c-0.57-0.01-1.13 0.06-1.66 0.18-0.67 0.15-0.98 0.93-0.6 1.5 0 0.01 0.01 0.01 0.01 0.02 0.23 0.35 0.65 0.52 1.06 0.43 0.36-0.09 0.74-0.13 1.12-0.13 2.84 0 5.14 2.38 4.99 5.25-0.13 2.55-2.19 4.62-4.75 4.74-0.82 0.04-1.59-0.12-2.28-0.43-0.08 0.16-0.21 0.29-0.35 0.4 0.01 0.51-0.01 1.07-0.17 1.55 0.79 0.32 1.66 0.49 2.56 0.49 3.9 0 7.05-3.19 7-7.1-0.05-3.78-3.15-6.86-6.93-6.9z" fill="url(#ad)"/><path d="m23.065 2.79c-0.57-0.01-1.13 0.06-1.66 0.18-0.67 0.15-0.98 0.93-0.6 1.5 0 0.01 0.01 0.01 0.01 0.02 0.23 0.35 0.65 0.52 1.06 0.43 0.36-0.09 0.74-0.13 1.12-0.13 2.84 0 5.14 2.38 4.99 5.25-0.13 2.55-2.19 4.62-4.75 4.74-0.82 0.04-1.59-0.12-2.28-0.43-0.08 0.16-0.21 0.29-0.35 0.4 0.01 0.51-0.01 1.07-0.17 1.55 0.79 0.32 1.66 0.49 2.56 0.49 3.9 0 7.05-3.19 7-7.1-0.05-3.78-3.15-6.86-6.93-6.9z" fill="url(#ac)"/><path d="m21.495 10.79c-0.98 0-1.96 0.22-2.84 0.65l-4.77 2.32c-0.41 0.2-0.88-0.1-0.88-0.55v-1.33c0-1.25-0.47-2.39-1.24-3.26l-4.05-4.51c-0.25-0.28-0.72-0.11-0.72 0.27v2.1129c0 0.34946-0.24476 0.64594-0.56883 0.77672-1.5947 0.64355-2.8106 2.3429-3.1512 4.0903-0.05 0.25-0.27 0.43-0.52 0.43-0.42 0-0.76 0.34-0.76 0.76v0.22c0 2.0169 1.4856 3.687 3.4221 3.9759 0.32774 0.0489 0.59794 0.3128 0.59794 0.6441v0.99c0 2.1034 1.468 3.8609 3.443 4.3039 0.30118 0.0675 0.53697 0.3214 0.53697 0.6301v6.106c0 0.2 0.17004 0.37 0.38004 0.37h2.25c0.21 0 0.38-0.17 0.38-0.38v-6.02c0-0.3313 0.2686-0.6 0.6-0.6h6.76c0.23 0 0.45 0.09 0.61 0.25l2.41 2.41c0.21 0.21 0.27 0.52 0.15 0.79l-1.3 3.03c-0.12 0.24 0.06 0.52 0.33 0.52h2.18c0.15 0 0.29-0.09 0.34-0.23l2.52-5.89c0.26-0.58 0.39-1.21 0.39-1.84v-4.54c0-3.59-2.91-6.5-6.5-6.5z" fill="url(#ab)"/><path d="m21.495 10.79c-0.98 0-1.96 0.22-2.84 0.65l-4.77 2.32c-0.41 0.2-0.88-0.1-0.88-0.55v-1.33c0-1.25-0.47-2.39-1.24-3.26l-4.05-4.51c-0.25-0.28-0.72-0.11-0.72 0.27v2.1129c0 0.34946-0.24476 0.64594-0.56883 0.77672-1.5947 0.64355-2.8106 2.3429-3.1512 4.0903-0.05 0.25-0.27 0.43-0.52 0.43-0.42 0-0.76 0.34-0.76 0.76v0.22c0 2.0169 1.4856 3.687 3.4221 3.9759 0.32774 0.0489 0.59794 0.3128 0.59794 0.6441v0.99c0 2.1034 1.468 3.8609 3.443 4.3039 0.30118 0.0675 0.53697 0.3214 0.53697 0.6301v6.106c0 0.2 0.17004 0.37 0.38004 0.37h2.25c0.21 0 0.38-0.17 0.38-0.38v-6.02c0-0.3313 0.2686-0.6 0.6-0.6h6.76c0.23 0 0.45 0.09 0.61 0.25l2.41 2.41c0.21 0.21 0.27 0.52 0.15 0.79l-1.3 3.03c-0.12 0.24 0.06 0.52 0.33 0.52h2.18c0.15 0 0.29-0.09 0.34-0.23l2.52-5.89c0.26-0.58 0.39-1.21 0.39-1.84v-4.54c0-3.59-2.91-6.5-6.5-6.5z" fill="url(#aa)"/><path d="m21.495 10.79c-0.98 0-1.96 0.22-2.84 0.65l-4.77 2.32c-0.41 0.2-0.88-0.1-0.88-0.55v-1.33c0-1.25-0.47-2.39-1.24-3.26l-4.05-4.51c-0.25-0.28-0.72-0.11-0.72 0.27v2.1129c0 0.34946-0.24476 0.64594-0.56883 0.77672-1.5947 0.64355-2.8106 2.3429-3.1512 4.0903-0.05 0.25-0.27 0.43-0.52 0.43-0.42 0-0.76 0.34-0.76 0.76v0.22c0 2.0169 1.4856 3.687 3.4221 3.9759 0.32774 0.0489 0.59794 0.3128 0.59794 0.6441v0.99c0 2.1034 1.468 3.8609 3.443 4.3039 0.30118 0.0675 0.53697 0.3214 0.53697 0.6301v6.106c0 0.2 0.17004 0.37 0.38004 0.37h2.25c0.21 0 0.38-0.17 0.38-0.38v-6.02c0-0.3313 0.2686-0.6 0.6-0.6h6.76c0.23 0 0.45 0.09 0.61 0.25l2.41 2.41c0.21 0.21 0.27 0.52 0.15 0.79l-1.3 3.03c-0.12 0.24 0.06 0.52 0.33 0.52h2.18c0.15 0 0.29-0.09 0.34-0.23l2.52-5.89c0.26-0.58 0.39-1.21 0.39-1.84v-4.54c0-3.59-2.91-6.5-6.5-6.5z" fill="url(#z)"/><path d="m21.495 10.79c-0.98 0-1.96 0.22-2.84 0.65l-4.77 2.32c-0.41 0.2-0.88-0.1-0.88-0.55v-1.33c0-1.25-0.47-2.39-1.24-3.26l-4.05-4.51c-0.25-0.28-0.72-0.11-0.72 0.27v2.1129c0 0.34946-0.24476 0.64594-0.56883 0.77672-1.5947 0.64355-2.8106 2.3429-3.1512 4.0903-0.05 0.25-0.27 0.43-0.52 0.43-0.42 0-0.76 0.34-0.76 0.76v0.22c0 2.0169 1.4856 3.687 3.4221 3.9759 0.32774 0.0489 0.59794 0.3128 0.59794 0.6441v0.99c0 2.1034 1.468 3.8609 3.443 4.3039 0.30118 0.0675 0.53697 0.3214 0.53697 0.6301v6.106c0 0.2 0.17004 0.37 0.38004 0.37h2.25c0.21 0 0.38-0.17 0.38-0.38v-6.02c0-0.3313 0.2686-0.6 0.6-0.6h6.76c0.23 0 0.45 0.09 0.61 0.25l2.41 2.41c0.21 0.21 0.27 0.52 0.15 0.79l-1.3 3.03c-0.12 0.24 0.06 0.52 0.33 0.52h2.18c0.15 0 0.29-0.09 0.34-0.23l2.52-5.89c0.26-0.58 0.39-1.21 0.39-1.84v-4.54c0-3.59-2.91-6.5-6.5-6.5z" fill="url(#y)"/><path d="m13.005 11.88v1.33c-0.5218 0.2846-1.9073 1.824-4.2444 3.0081-0.79106 0.4008-1.2969 0.5719-2.7456 0.5719-2.22 0-4.02-1.8-4.02-4.02v-0.22c0-0.42 0.34-0.76 0.76-0.76 0.25 0 0.47-0.18 0.52-0.43 0.38-1.95 1.85-3.84 3.72-4.27v-2.71c0-0.38 0.47-0.55 0.72-0.27l4.05 4.51c0.77 0.87 1.24 2.01 1.24 3.26z" fill="url(#w)"/><path d="m3.6654 12.25c0.14-0.19 0.01-0.46-0.23-0.46h-0.68c-0.42 0-0.76 0.34-0.76 0.76v0.22c0 0.36 0.04857 0.7092 0.13779 1.0397 0.04134 0.1531 0.23719 0.1822 0.33181 0.055l1.2004-1.6147z" fill="url(#v)"/><path d="m3.6654 12.25c0.14-0.19 0.01-0.46-0.23-0.46h-0.68c-0.42 0-0.76 0.34-0.76 0.76v0.22c0 0.36 0.04857 0.7092 0.13779 1.0397 0.04134 0.1531 0.23719 0.1822 0.33181 0.055l1.2004-1.6147z" fill="url(#u)"/><path d="m3.6654 12.25c0.14-0.19 0.01-0.46-0.23-0.46h-0.68c-0.42 0-0.76 0.34-0.76 0.76v0.22c0 0.36 0.04857 0.7092 0.13779 1.0397 0.04134 0.1531 0.23719 0.1822 0.33181 0.055l1.2004-1.6147z" fill="url(#t)"/><path d="m3.6654 12.25c0.14-0.19 0.01-0.46-0.23-0.46h-0.68c-0.42 0-0.76 0.34-0.76 0.76v0.22c0 0.36 0.04857 0.7092 0.13779 1.0397 0.04134 0.1531 0.23719 0.1822 0.33181 0.055l1.2004-1.6147z" fill="url(#s)"/><g filter="url(#ar)"><path d="m12.183 22.14v6.7344" stroke="url(#r)" stroke-linecap="round" stroke-width=".3"/></g><g filter="url(#aq)"><path d="m15.379 23.672 1.2418 4.9886" stroke="url(#q)" stroke-width=".2"/></g><g filter="url(#ap)"><path d="m20.559 23.859-1.1875 5.0938" stroke="url(#p)" stroke-opacity=".5" stroke-width=".2"/></g><g filter="url(#ao)"><path d="m20.948 12.374c1.0156-0.1094 2.2788 0.0418 3.5625 0.7812 1.4375 0.8282 1.9531 2.2813 1.9531 3.4219v5.9688" stroke="url(#o)" stroke-linecap="round"/></g><g filter="url(#an)"><path d="m26.308 22.421v1.1875l-2.0313 4.9063" stroke="url(#n)" stroke-linecap="round" stroke-width=".5"/></g><g filter="url(#am)"><path d="m10.144 10.385-2.5234-5.8391 4.0073 5.0563c0.4202 0.53017 0.6489 1.1869 0.6489 1.8634v2.846c0 0.5436-0.4407 0.9843-0.9844 0.9843-0.5436 0-0.9843-0.4407-0.9843-0.9843v-3.1332c0-0.2729-0.0559-0.5429-0.1641-0.7934z" fill="url(#l)"/></g><g filter="url(#al)"><rect x="5.8123" y="10.78" width=".96875" height="2.0156" rx=".48438" fill="#47387B"/></g><rect x="6.0154" y="10.78" width=".96875" height="2.0156" rx=".48438" fill="url(#k)"/><rect x="6.0154" y="10.78" width=".96875" height="2.0156" rx=".48438" fill="url(#j)"/><g filter="url(#ak)"><path d="m21.964 3.6399c1.1042-0.19792 3.9688 0 5.5938 1.625 2.3619 2.3619 1.8437 6.5313 0 8.625" stroke="url(#i)" stroke-linecap="round" stroke-width=".3"/></g><g filter="url(#aj)"><path d="m10.812 19.85v-5.4375l9.5625 1.0625-9.5625 4.375z" fill="url(#h)"/></g><defs><filter id="ar" x="11.033" y="20.99" width="2.3" height="9.0344" color-interpolation-filters="sRGB" filterUnits="userSpaceOnUse"><feFlood flood-opacity="0" result="BackgroundImageFix"/><feBlend in="SourceGraphic" in2="BackgroundImageFix" result="shape"/><feGaussianBlur result="effect1_foregroundBlur_28327_2172" stdDeviation="0.5"/></filter><filter id="aq" x="14.582" y="22.948" width="2.8358" height="6.4369" color-interpolation-filters="sRGB" filterUnits="userSpaceOnUse"><feFlood flood-opacity="0" result="BackgroundImageFix"/><feBlend in="SourceGraphic" in2="BackgroundImageFix" result="shape"/><feGaussianBlur result="effect1_foregroundBlur_28327_2172" stdDeviation="0.35"/></filter><filter id="ap" x="18.574" y="23.136" width="2.7823" height="6.5392" color-interpolation-filters="sRGB" filterUnits="userSpaceOnUse"><feFlood flood-opacity="0" result="BackgroundImageFix"/><feBlend in="SourceGraphic" in2="BackgroundImageFix" result="shape"/><feGaussianBlur result="effect1_foregroundBlur_28327_2172" stdDeviation="0.35"/></filter><filter id="ao" x="17.448" y="8.8424" width="12.516" height="17.204" color-interpolation-filters="sRGB" filterUnits="userSpaceOnUse"><feFlood flood-opacity="0" result="BackgroundImageFix"/><feBlend in="SourceGraphic" in2="BackgroundImageFix" result="shape"/><feGaussianBlur result="effect1_foregroundBlur_28327_2172" stdDeviation="1.5"/></filter><filter id="an" x="22.027" y="20.171" width="6.5313" height="10.594" color-interpolation-filters="sRGB" filterUnits="userSpaceOnUse"><feFlood flood-opacity="0" result="BackgroundImageFix"/><feBlend in="SourceGraphic" in2="BackgroundImageFix" result="shape"/><feGaussianBlur result="effect1_foregroundBlur_28327_2172" stdDeviation="1"/></filter><filter id="am" x="6.6204" y="3.5461" width="6.6562" height="12.75" color-interpolation-filters="sRGB" filterUnits="userSpaceOnUse"><feFlood flood-opacity="0" result="BackgroundImageFix"/><feBlend in="SourceGraphic" in2="BackgroundImageFix" result="shape"/><feGaussianBlur result="effect1_foregroundBlur_28327_2172" stdDeviation="0.5"/></filter><filter id="al" x="5.3123" y="10.28" width="1.9688" height="3.0156" color-interpolation-filters="sRGB" filterUnits="userSpaceOnUse"><feFlood flood-opacity="0" result="BackgroundImageFix"/><feBlend in="SourceGraphic" in2="BackgroundImageFix" result="shape"/><feGaussianBlur result="effect1_foregroundBlur_28327_2172" stdDeviation="0.25"/></filter><filter id="ak" x="21.214" y="2.8269" width="8.6768" height="11.813" color-interpolation-filters="sRGB" filterUnits="userSpaceOnUse"><feFlood flood-opacity="0" result="BackgroundImageFix"/><feBlend in="SourceGraphic" in2="BackgroundImageFix" result="shape"/><feGaussianBlur result="effect1_foregroundBlur_28327_2172" stdDeviation="0.3"/></filter><filter id="aj" x="8.3125" y="11.912" width="14.562" height="10.438" color-interpolation-filters="sRGB" filterUnits="userSpaceOnUse"><feFlood flood-opacity="0" result="BackgroundImageFix"/><feBlend in="SourceGraphic" in2="BackgroundImageFix" result="shape"/><feGaussianBlur result="effect1_foregroundBlur_28327_2172" stdDeviation="1.25"/></filter><linearGradient id="ai" x1="15.188" x2="13.594" y1="32.725" y2="25.756" gradientUnits="userSpaceOnUse"><stop stop-color="#665895" offset="0"/><stop stop-color="#573787" offset="1"/></linearGradient><linearGradient id="x" x1="12.495" x2="13.994" y1="24.488" y2="24.274" gradientUnits="userSpaceOnUse"><stop stop-color="#200D3C" offset="0"/><stop stop-color="#200D3C" stop-opacity="0" offset="1"/></linearGradient><linearGradient id="m" x1="17" x2="15.176" y1="23.288" y2="23.936" gradientUnits="userSpaceOnUse"><stop stop-color="#200D3C" offset="0"/><stop stop-color="#200D3C" stop-opacity="0" offset="1"/></linearGradient><linearGradient id="g" x1="12" x2="15.593" y1="20.85" y2="27.118" gradientUnits="userSpaceOnUse"><stop stop-color="#200D3C" offset="0"/><stop stop-color="#200D3C" stop-opacity="0" offset="1"/></linearGradient><linearGradient id="f" x1="15.469" x2="15.558" y1="30.756" y2="27.853" gradientUnits="userSpaceOnUse"><stop stop-color="#4F2A7F" offset="0"/><stop stop-color="#592C87" offset="1e-4"/><stop stop-color="#592C87" stop-opacity="0" offset=".63978"/></linearGradient><linearGradient id="e" x1="13.219" x2="14.75" y1="18.444" y2="27.662" gradientUnits="userSpaceOnUse"><stop stop-color="#4E4360" offset="0"/><stop stop-color="#3A2953" stop-opacity="0" offset="1"/></linearGradient><linearGradient id="d" x1="20.966" x2="19.372" y1="32.725" y2="25.756" gradientUnits="userSpaceOnUse"><stop stop-color="#665895" offset="0"/><stop stop-color="#573787" offset="1"/></linearGradient><linearGradient id="c" x1="18.062" x2="19.788" y1="23.944" y2="24.267" gradientUnits="userSpaceOnUse"><stop stop-color="#200D3C" offset="0"/><stop stop-color="#200D3C" stop-opacity="0" offset="1"/></linearGradient><linearGradient id="b" x1="24.094" x2="20.935" y1="23.975" y2="23.975" gradientUnits="userSpaceOnUse"><stop stop-color="#200D3C" offset="0"/><stop stop-color="#200D3C" stop-opacity="0" offset="1"/></linearGradient><linearGradient id="a" x1="23.175" x2="21.377" y1="20.819" y2="27.278" gradientUnits="userSpaceOnUse"><stop stop-color="#200D3C" offset="0"/><stop stop-color="#200D3C" stop-opacity="0" offset="1"/></linearGradient><linearGradient id="ah" x1="21.247" x2="21.336" y1="30.756" y2="27.853" gradientUnits="userSpaceOnUse"><stop stop-color="#4F2A7F" offset="0"/><stop stop-color="#592C87" offset="1e-4"/><stop stop-color="#592C87" stop-opacity="0" offset=".63978"/></linearGradient><linearGradient id="ag" x1="22.469" x2="20.725" y1="21.39" y2="28.881" gradientUnits="userSpaceOnUse"><stop stop-color="#3A2953" offset="0"/><stop stop-color="#3A2953" stop-opacity="0" offset="1"/></linearGradient><radialGradient id="af" cx="0" cy="0" r="1" gradientTransform="translate(28.5 1.85) rotate(109.34) scale(11.326)" gradientUnits="userSpaceOnUse"><stop stop-color="#655D99" offset="0"/><stop stop-color="#5C4483" offset="1"/></radialGradient><radialGradient id="ae" cx="0" cy="0" r="1" gradientTransform="translate(20.435 4.3275) rotate(5.7144) scale(3.7662 2.5718)" gradientUnits="userSpaceOnUse"><stop stop-color="#473881" offset="0"/><stop stop-color="#473881" stop-opacity="0" offset="1"/></radialGradient><radialGradient id="ad" cx="0" cy="0" r="1" gradientTransform="translate(24.683 11.265) rotate(-30.964) scale(5.831 10.327)" gradientUnits="userSpaceOnUse"><stop stop-color="#473881" offset="0"/><stop stop-color="#473881" stop-opacity="0" offset="1"/></radialGradient><radialGradient id="ac" cx="0" cy="0" r="1" gradientTransform="translate(26.245 8.5775) rotate(-20.366) scale(4.4 8.7601)" gradientUnits="userSpaceOnUse"><stop stop-color="#473881" offset="0"/><stop stop-color="#473881" stop-opacity="0" offset=".59178"/></radialGradient><linearGradient id="ab" x1="14.995" x2="14.995" y1="10.728" y2="28.85" gradientUnits="userSpaceOnUse"><stop stop-color="#665895" offset="0"/><stop stop-color="#573787" offset="1"/></linearGradient><radialGradient id="aa" cx="0" cy="0" r="1" gradientTransform="translate(17.288 11.199) rotate(65.799) scale(3.9272 9.1918)" gradientUnits="userSpaceOnUse"><stop stop-color="#473881" offset="0"/><stop stop-color="#473881" stop-opacity="0" offset=".8"/></radialGradient><radialGradient id="z" cx="0" cy="0" r="1" gradientTransform="translate(18.173 24.4) rotate(-88.466) scale(4.5094 6.7437)" gradientUnits="userSpaceOnUse"><stop stop-color="#4F2A7F" offset="0"/><stop stop-color="#4F2A7F" stop-opacity="0" offset="1"/></radialGradient><radialGradient id="y" cx="0" cy="0" r="1" gradientTransform="translate(9.0572 22.871) rotate(-49.399) scale(2.5975 2.9052)" gradientUnits="userSpaceOnUse"><stop stop-color="#4F2A7F" offset="0"/><stop stop-color="#4F2A7F" stop-opacity="0" offset=".80486"/></radialGradient><linearGradient id="w" x1="6.5579" x2="4.5266" y1="14.952" y2="17.765" gradientUnits="userSpaceOnUse"><stop stop-color="#53378B" stop-opacity="0" offset="0"/><stop stop-color="#53378B" offset=".84895"/></linearGradient><radialGradient id="v" cx="0" cy="0" r="1" gradientTransform="translate(3.2922 12.234) rotate(140.72) scale(1.1708 .81091)" gradientUnits="userSpaceOnUse"><stop stop-color="#6B5E60" offset=".021567"/><stop stop-color="#433338" offset=".99098"/></radialGradient><linearGradient id="u" x1="3.9929" x2="3.9929" y1="14.575" y2="12.575" gradientUnits="userSpaceOnUse"><stop stop-color="#432541" offset="0"/><stop stop-color="#552D52" stop-opacity="0" offset="1"/></linearGradient><linearGradient id="t" x1="3.723" x2="2.4687" y1="14.16" y2="13.288" gradientUnits="userSpaceOnUse"><stop offset="0"/><stop stop-opacity="0" offset="1"/></linearGradient><linearGradient id="s" x1="2.5468" x2="2.5468" y1="14.538" y2="12.491" gradientUnits="userSpaceOnUse"><stop offset="0"/><stop stop-opacity="0" offset=".62595"/></linearGradient><linearGradient id="r" x1="12.823" x2="13.617" y1="24.344" y2="31.129" gradientUnits="userSpaceOnUse"><stop stop-color="#9784C0" offset="0"/><stop stop-color="#8776AC" stop-opacity="0" offset="1"/></linearGradient><linearGradient id="q" x1="16.174" x2="16.659" y1="25.305" y2="29.482" gradientUnits="userSpaceOnUse"><stop stop-color="#9784C0" offset="0"/><stop stop-color="#8776AC" stop-opacity="0" offset="1"/></linearGradient><linearGradient id="p" x1="20.132" x2="20.659" y1="25.526" y2="29.783" gradientUnits="userSpaceOnUse"><stop stop-color="#9784C0" offset="0"/><stop stop-color="#8776AC" stop-opacity="0" offset="1"/></linearGradient><linearGradient id="o" x1="24.479" x2="24.94" y1="15.682" y2="24.317" gradientUnits="userSpaceOnUse"><stop stop-color="#9784C0" offset="0"/><stop stop-color="#8776AC" stop-opacity="0" offset="1"/></linearGradient><linearGradient id="n" x1="25.577" x2="26.022" y1="24.416" y2="29.549" gradientUnits="userSpaceOnUse"><stop stop-color="#9784C0" offset="0"/><stop stop-color="#8776AC" stop-opacity="0" offset="1"/></linearGradient><linearGradient id="l" x1="9.9485" x2="9.9485" y1="4.5461" y2="15.725" gradientUnits="userSpaceOnUse"><stop stop-color="#9087B1" offset="0"/><stop stop-color="#9087B1" stop-opacity="0" offset="1"/></linearGradient><linearGradient id="k" x1="6.8479" x2="6.3047" y1="11.788" y2="11.788" gradientUnits="userSpaceOnUse"><stop stop-color="#5B4C50" offset=".22396"/><stop stop-color="#342132" offset="1"/></linearGradient><linearGradient id="j" x1="7.1355" x2="7.1355" y1="13.149" y2="11.448" gradientUnits="userSpaceOnUse"><stop stop-color="#401E3E" offset="0"/><stop stop-color="#552D52" stop-opacity="0" offset="1"/></linearGradient><linearGradient id="i" x1="26.558" x2="26.92" y1="6.9524" y2="15.69" gradientUnits="userSpaceOnUse"><stop stop-color="#8776AC" offset="0"/><stop stop-color="#8776AC" stop-opacity="0" offset="1"/></linearGradient><linearGradient id="h" x1="7.8125" x2="19.688" y1="20.024" y2="20.024" gradientUnits="userSpaceOnUse"><stop stop-color="#9087B1" stop-opacity=".5" offset="0"/><stop stop-color="#9087B1" stop-opacity="0" offset="1"/></linearGradient></defs></svg>
