<?xml version="1.0" encoding="UTF-8"?>
<!-- Generated by Pixelmator Pro 3.7 -->
<svg width="263" height="20" viewBox="0 0 263 20" xmlns="http://www.w3.org/2000/svg">
    <path id="Path" fill="#ffffff" stroke="none" d="M 156.936691 18.67111 C 156.936691 19.405037 156.340958 20 155.60611 20 C 154.871262 20 154.275528 19.405037 154.275528 18.67111 C 154.275528 17.937187 154.871262 17.342222 155.60611 17.342222 C 156.340958 17.342222 156.936691 17.937187 156.936691 18.67111 Z"/>
    <path id="path1" fill="#ffffff" stroke="none" d="M 161.284409 18.67111 C 161.284409 19.405037 160.688705 20 159.953842 20 C 159.218979 20 158.623276 19.405037 158.623276 18.67111 C 158.623276 17.937187 159.218979 17.342222 159.953842 17.342222 C 160.688705 17.342222 161.284409 17.937187 161.284409 18.67111 Z"/>
    <path id="path2" fill="#ffffff" stroke="none" d="M 165.627701 18.67111 C 165.627701 19.405037 165.031967 20 164.297134 20 C 163.562271 20 162.966537 19.405037 162.966537 18.67111 C 162.966537 17.937187 163.562271 17.342222 164.297134 17.342222 C 165.031967 17.342222 165.627701 17.937187 165.627701 18.67111 Z"/>
    <path id="path3" fill="#ffffff" stroke="none" d="M 6.385871 3.595556 L -0 3.595556 L -0 -0.164444 L 17.39538 -0.164444 L 17.39538 3.595556 L 11.009509 3.595556 L 11.009509 19.773335 L 6.390321 19.773335 L 6.390321 3.595556 Z"/>
    <path id="path4" fill="#ffffff" stroke="none" d="M 38.181728 -0.164444 L 38.181728 19.768888 L 33.562538 19.768888 L 33.562538 11.595555 L 24.493265 11.595555 L 24.493265 19.768888 L 19.874077 19.768888 L 19.874077 -0.164444 L 24.493265 -0.164444 L 24.493265 7.697778 L 33.562538 7.697778 L 33.562538 -0.164444 L 38.181728 -0.164444 Z"/>
    <path id="path5" fill="#ffffff" stroke="none" d="M 55.185501 19.773335 L 51.336178 14.217779 L 47.086346 14.217779 L 47.086346 19.773335 L 42.467159 19.773335 L 42.467159 -0.164444 L 51.109222 -0.164444 C 52.875904 -0.164444 54.411182 0.128889 55.715057 0.719999 C 57.018936 1.306665 58.020206 2.142221 58.72332 3.226667 C 59.426426 4.311111 59.777988 5.591112 59.777988 7.071111 C 59.777988 8.551111 59.421978 9.831112 58.709965 10.902223 C 57.997955 11.973333 56.983334 12.795556 55.675007 13.364445 L 60.151794 19.773335 L 55.189949 19.773335 Z M 54.019577 4.493334 C 53.29866 3.893333 52.243996 3.595556 50.855568 3.595556 L 47.090794 3.595556 L 47.090794 10.542222 L 50.855568 10.542222 C 52.243996 10.542222 53.29866 10.240001 54.019577 9.631111 C 54.74049 9.022222 55.1054 8.168888 55.1054 7.066667 C 55.1054 5.964444 54.744938 5.088889 54.019577 4.488888 Z"/>
    <path id="path6" fill="#ffffff" stroke="none" d="M 78.882195 16.071112 L 78.882195 19.773335 L 63.427055 19.773335 L 63.427055 -0.164444 L 78.51284 -0.164444 L 78.51284 3.537777 L 68.019547 3.537777 L 68.019547 7.866667 L 77.289063 7.866667 L 77.289063 11.453334 L 68.019547 11.453334 L 68.019547 16.066668 L 78.882195 16.066668 Z"/>
    <path id="path7" fill="#ffffff" stroke="none" d="M 98.017563 16.071112 L 98.017563 19.773335 L 82.562416 19.773335 L 82.562416 -0.164444 L 97.648201 -0.164444 L 97.648201 3.537777 L 87.154907 3.537777 L 87.154907 7.866667 L 96.424431 7.866667 L 96.424431 11.453334 L 87.154907 11.453334 L 87.154907 16.066668 L 98.017563 16.066668 Z"/>
    <path id="path8" fill="#ffffff" stroke="none" d="M 119.858574 19.773335 L 119.831879 7.813334 L 113.957764 17.666666 L 111.875122 17.666666 L 106.02771 8.071111 L 106.02771 19.777779 L 101.693336 19.777779 L 101.693336 -0.164444 L 105.515953 -0.164444 L 112.987648 12.222222 L 120.343636 -0.164444 L 124.135117 -0.164444 L 124.192955 19.768888 L 119.858574 19.768888 Z"/>
    <path id="path9" fill="#ffffff" stroke="none" d="M 142.07341 15.502222 L 132.803879 15.502222 L 131.037186 19.773335 L 126.302307 19.773335 L 135.198013 -0.164444 L 139.759354 -0.164444 L 148.686218 19.768888 L 143.840088 19.768888 L 142.07341 15.497778 Z M 140.618225 12 L 137.454208 4.36889 L 134.290192 12 L 140.618225 12 Z"/>
    <g id="Group">
        <path id="path10" fill="#ffffff" stroke="none" d="M 200.49855 -0.164444 L 193.770035 19.768888 L 191.544983 19.768888 L 185.697586 2.768888 L 179.823471 19.768888 L 177.629578 19.768888 L 170.901047 -0.164444 L 173.068237 -0.164444 L 178.826645 16.977777 L 184.789764 -0.164444 L 186.756714 -0.164444 L 192.630814 17.066668 L 198.47377 -0.164444 L 200.49855 -0.164444 Z"/>
        <path id="path11" fill="#ffffff" stroke="none" d="M 206.670837 18.617777 C 205.064346 17.733334 203.809418 16.524445 202.906052 14.986668 C 202.002686 13.448889 201.553238 11.72 201.553238 9.804444 C 201.553238 7.888889 202.002686 6.16 202.906052 4.622223 C 203.809418 3.084444 205.064346 1.875557 206.670837 0.991112 C 208.277313 0.106667 210.066238 -0.333334 212.046524 -0.333334 C 214.026825 -0.333334 215.806854 0.102222 217.391083 0.977777 C 218.979752 1.853333 220.23024 3.062222 221.142502 4.608889 C 222.054764 6.155556 222.513123 7.888889 222.513123 9.804444 C 222.513123 11.72 222.054764 13.453333 221.142502 15 C 220.23024 16.546667 218.979752 17.76 217.391083 18.631111 C 215.802399 19.506666 214.022369 19.942223 212.046524 19.942223 C 210.070694 19.942223 208.277313 19.502222 206.670837 18.617777 Z M 216.327515 16.995556 C 217.600235 16.284445 218.597061 15.297777 219.322418 14.035557 C 220.043335 12.773333 220.408249 11.364445 220.408249 9.804444 C 220.408249 8.244444 220.047791 6.84 219.322418 5.573334 C 218.601517 4.311111 217.600235 3.324444 216.327515 2.613335 C 215.054794 1.902222 213.626312 1.546667 212.05098 1.546667 C 210.475647 1.546667 209.042725 1.902222 207.761093 2.613335 C 206.479477 3.324444 205.469299 4.311111 204.739487 5.573334 C 204.009674 6.835555 203.64032 8.244444 203.64032 9.804444 C 203.64032 11.364445 204.005219 12.773333 204.739487 14.035557 C 205.469299 15.297777 206.479477 16.284445 207.761093 16.995556 C 209.042725 17.706667 210.475647 18.062222 212.05098 18.062222 C 213.626312 18.062222 215.054794 17.706667 216.327515 16.995556 Z"/>
        <path id="path12" fill="#ffffff" stroke="none" d="M 240.01976 19.773335 L 235.45842 13.364445 C 234.946671 13.422222 234.412659 13.448889 233.860855 13.448889 L 228.498474 13.448889 L 228.498474 19.773335 L 226.38916 19.773335 L 226.38916 -0.164444 L 233.860855 -0.164444 C 236.406296 -0.164444 238.404373 0.444445 239.850647 1.657778 C 241.296936 2.871111 242.017838 4.542223 242.017838 6.671111 C 242.017838 8.226666 241.621811 9.542222 240.834137 10.613333 C 240.046463 11.684444 238.920593 12.462223 237.456497 12.933333 L 242.333801 19.768888 L 240.024216 19.768888 Z M 238.337631 10.346667 C 239.383392 9.475555 239.904053 8.248889 239.904053 6.671111 C 239.904053 5.093333 239.378937 3.817778 238.337631 2.955557 C 237.291855 2.093332 235.778839 1.657778 233.803009 1.657778 L 228.498474 1.657778 L 228.498474 11.653333 L 233.803009 11.653333 C 235.778839 11.653333 237.291855 11.217777 238.337631 10.342222 Z"/>
        <path id="path13" fill="#ffffff" stroke="none" d="M 252.337585 10.404445 L 248.261322 14.533334 L 248.261322 19.773335 L 246.151993 19.773335 L 246.151993 -0.164444 L 248.261322 -0.164444 L 248.261322 11.88 L 259.982819 -0.164444 L 262.408142 -0.164444 L 253.766068 8.862223 L 263.004456 19.768888 L 260.494598 19.768888 L 252.337585 10.4 Z"/>
    </g>
    <g id="g1">
        <path id="path14" fill="#ffffff" stroke="none" d="M 159.775848 4.333333 C 159.032669 4.333333 158.4319 4.937778 158.4319 5.675556 L 158.4319 6.737778 L 161.119766 6.737778 L 161.119766 5.675556 C 161.119766 4.933332 160.514557 4.333333 159.775848 4.333333 Z"/>
        <path id="path15" fill="#ffffff" stroke="none" d="M 159.775848 -0.32 C 155.410309 -0.32 151.859131 3.226667 151.859131 7.586666 C 151.859131 9.315556 152.419846 10.92 153.367722 12.222222 L 152.379807 15.16 L 155.42366 14.186666 C 156.674133 15.013332 158.169357 15.493334 159.780289 15.493334 C 164.145813 15.493334 167.696991 11.946667 167.696991 7.586666 C 167.696991 3.226667 164.141373 -0.32 159.775848 -0.32 Z M 162.841949 10.324444 C 162.841949 10.72 162.52153 11.04 162.125488 11.04 L 157.430634 11.04 C 157.034592 11.04 156.714188 10.72 156.714188 10.324444 L 156.714188 7.453334 C 156.714188 7.057777 157.034592 6.737778 157.430634 6.737778 L 157.501846 6.737778 L 157.501846 5.675556 C 157.501846 4.422222 158.525375 3.400002 159.780289 3.400002 C 161.035202 3.400002 162.058731 4.422222 162.058731 5.675556 L 162.058731 6.737778 L 162.129929 6.737778 C 162.525986 6.737778 162.84639 7.057777 162.84639 7.453334 L 162.84639 10.324444 Z"/>
    </g>
</svg>
