<svg fill="none" viewBox="0 0 32 32" xmlns="http://www.w3.org/2000/svg"><g filter="url(#m)"><path d="m13.051 3.3308c1.5312-1.7236 3.6131-1.4493 4.9453 0l0.8124 0.94061c0.2813 0.30605 0.6884 0.46476 1.1026 0.42988l1.4444-0.42988c1.9687-0.42204 3.7578 1.0467 3.7578 3.328v0.85937c0.0417 0.46913 0.4515 0.78714 0.8747 0.99382l1.305 0.54525c1.8876 0.92194 2.3593 3.1093 0.9843 4.9453l-0.3906 0.5156c-0.3504 0.4737-0.2784 1.0954 0.0703 1.5703l0.3906 0.5469c1.4219 1.75 0.6202 4.1509-1.3882 4.9897l-1.1234 0.4692c-0.4231 0.1767-0.5889 0.4801-0.668 0.9317l-0.0782 1.4688c-0.2734 2.0156-2.0636 2.926-3.5 2.7226l-1.7109-0.457c-0.4109-0.0582-0.9219 0.0781-1.1953 0.5078l-0.6172 0.8438c-1.5313 1.7265-3.598 1.4394-4.6406 0.4296l-1.1386-1.3789c-0.2981-0.2887-0.6739-0.5351-1.1238-0.3654l-1.722 0.4709c-1.4217 0.2013-3.0957-0.8916-3.3637-2.3022l-0.19884-2.0415c-0.08071-0.425-0.36092-0.7851-0.75294-0.9678l-1.208-0.4151c-1.8165-0.8465-2.425-2.8958-1.3819-4.6071l0.68085-0.9416c0.27347-0.4487 0.26047-1.0156-0.03329-1.4513l-0.50781-0.7187c-1.4375-2.0469-0.44361-4.3347 1.6865-5.0206l0.4698-0.15128c0.51853-0.16696 1.0194-0.59758 1.0625-1.1406l0.10461-1.3182c0.16981-2.1397 2.1223-3.3676 4.176-2.7432l0.6646 0.20205c0.6407 0.25 1.1426 0.0371 1.4922-0.34375l0.7188-0.91696z" fill="url(#k)"/><path d="m13.051 3.3308c1.5312-1.7236 3.6131-1.4493 4.9453 0l0.8124 0.94061c0.2813 0.30605 0.6884 0.46476 1.1026 0.42988l1.4444-0.42988c1.9687-0.42204 3.7578 1.0467 3.7578 3.328v0.85937c0.0417 0.46913 0.4515 0.78714 0.8747 0.99382l1.305 0.54525c1.8876 0.92194 2.3593 3.1093 0.9843 4.9453l-0.3906 0.5156c-0.3504 0.4737-0.2784 1.0954 0.0703 1.5703l0.3906 0.5469c1.4219 1.75 0.6202 4.1509-1.3882 4.9897l-1.1234 0.4692c-0.4231 0.1767-0.5889 0.4801-0.668 0.9317l-0.0782 1.4688c-0.2734 2.0156-2.0636 2.926-3.5 2.7226l-1.7109-0.457c-0.4109-0.0582-0.9219 0.0781-1.1953 0.5078l-0.6172 0.8438c-1.5313 1.7265-3.598 1.4394-4.6406 0.4296l-1.1386-1.3789c-0.2981-0.2887-0.6739-0.5351-1.1238-0.3654l-1.722 0.4709c-1.4217 0.2013-3.0957-0.8916-3.3637-2.3022l-0.19884-2.0415c-0.08071-0.425-0.36092-0.7851-0.75294-0.9678l-1.208-0.4151c-1.8165-0.8465-2.425-2.8958-1.3819-4.6071l0.68085-0.9416c0.27347-0.4487 0.26047-1.0156-0.03329-1.4513l-0.50781-0.7187c-1.4375-2.0469-0.44361-4.3347 1.6865-5.0206l0.4698-0.15128c0.51853-0.16696 1.0194-0.59758 1.0625-1.1406l0.10461-1.3182c0.16981-2.1397 2.1223-3.3676 4.176-2.7432l0.6646 0.20205c0.6407 0.25 1.1426 0.0371 1.4922-0.34375l0.7188-0.91696z" fill="url(#i)"/><path d="m13.051 3.3308c1.5312-1.7236 3.6131-1.4493 4.9453 0l0.8124 0.94061c0.2813 0.30605 0.6884 0.46476 1.1026 0.42988l1.4444-0.42988c1.9687-0.42204 3.7578 1.0467 3.7578 3.328v0.85937c0.0417 0.46913 0.4515 0.78714 0.8747 0.99382l1.305 0.54525c1.8876 0.92194 2.3593 3.1093 0.9843 4.9453l-0.3906 0.5156c-0.3504 0.4737-0.2784 1.0954 0.0703 1.5703l0.3906 0.5469c1.4219 1.75 0.6202 4.1509-1.3882 4.9897l-1.1234 0.4692c-0.4231 0.1767-0.5889 0.4801-0.668 0.9317l-0.0782 1.4688c-0.2734 2.0156-2.0636 2.926-3.5 2.7226l-1.7109-0.457c-0.4109-0.0582-0.9219 0.0781-1.1953 0.5078l-0.6172 0.8438c-1.5313 1.7265-3.598 1.4394-4.6406 0.4296l-1.1386-1.3789c-0.2981-0.2887-0.6739-0.5351-1.1238-0.3654l-1.722 0.4709c-1.4217 0.2013-3.0957-0.8916-3.3637-2.3022l-0.19884-2.0415c-0.08071-0.425-0.36092-0.7851-0.75294-0.9678l-1.208-0.4151c-1.8165-0.8465-2.425-2.8958-1.3819-4.6071l0.68085-0.9416c0.27347-0.4487 0.26047-1.0156-0.03329-1.4513l-0.50781-0.7187c-1.4375-2.0469-0.44361-4.3347 1.6865-5.0206l0.4698-0.15128c0.51853-0.16696 1.0194-0.59758 1.0625-1.1406l0.10461-1.3182c0.16981-2.1397 2.1223-3.3676 4.176-2.7432l0.6646 0.20205c0.6407 0.25 1.1426 0.0371 1.4922-0.34375l0.7188-0.91696z" fill="url(#h)"/><path d="m13.051 3.3308c1.5312-1.7236 3.6131-1.4493 4.9453 0l0.8124 0.94061c0.2813 0.30605 0.6884 0.46476 1.1026 0.42988l1.4444-0.42988c1.9687-0.42204 3.7578 1.0467 3.7578 3.328v0.85937c0.0417 0.46913 0.4515 0.78714 0.8747 0.99382l1.305 0.54525c1.8876 0.92194 2.3593 3.1093 0.9843 4.9453l-0.3906 0.5156c-0.3504 0.4737-0.2784 1.0954 0.0703 1.5703l0.3906 0.5469c1.4219 1.75 0.6202 4.1509-1.3882 4.9897l-1.1234 0.4692c-0.4231 0.1767-0.5889 0.4801-0.668 0.9317l-0.0782 1.4688c-0.2734 2.0156-2.0636 2.926-3.5 2.7226l-1.7109-0.457c-0.4109-0.0582-0.9219 0.0781-1.1953 0.5078l-0.6172 0.8438c-1.5313 1.7265-3.598 1.4394-4.6406 0.4296l-1.1386-1.3789c-0.2981-0.2887-0.6739-0.5351-1.1238-0.3654l-1.722 0.4709c-1.4217 0.2013-3.0957-0.8916-3.3637-2.3022l-0.19884-2.0415c-0.08071-0.425-0.36092-0.7851-0.75294-0.9678l-1.208-0.4151c-1.8165-0.8465-2.425-2.8958-1.3819-4.6071l0.68085-0.9416c0.27347-0.4487 0.26047-1.0156-0.03329-1.4513l-0.50781-0.7187c-1.4375-2.0469-0.44361-4.3347 1.6865-5.0206l0.4698-0.15128c0.51853-0.16696 1.0194-0.59758 1.0625-1.1406l0.10461-1.3182c0.16981-2.1397 2.1223-3.3676 4.176-2.7432l0.6646 0.20205c0.6407 0.25 1.1426 0.0371 1.4922-0.34375l0.7188-0.91696z" fill="url(#g)"/><path d="m13.051 3.3308c1.5312-1.7236 3.6131-1.4493 4.9453 0l0.8124 0.94061c0.2813 0.30605 0.6884 0.46476 1.1026 0.42988l1.4444-0.42988c1.9687-0.42204 3.7578 1.0467 3.7578 3.328v0.85937c0.0417 0.46913 0.4515 0.78714 0.8747 0.99382l1.305 0.54525c1.8876 0.92194 2.3593 3.1093 0.9843 4.9453l-0.3906 0.5156c-0.3504 0.4737-0.2784 1.0954 0.0703 1.5703l0.3906 0.5469c1.4219 1.75 0.6202 4.1509-1.3882 4.9897l-1.1234 0.4692c-0.4231 0.1767-0.5889 0.4801-0.668 0.9317l-0.0782 1.4688c-0.2734 2.0156-2.0636 2.926-3.5 2.7226l-1.7109-0.457c-0.4109-0.0582-0.9219 0.0781-1.1953 0.5078l-0.6172 0.8438c-1.5313 1.7265-3.598 1.4394-4.6406 0.4296l-1.1386-1.3789c-0.2981-0.2887-0.6739-0.5351-1.1238-0.3654l-1.722 0.4709c-1.4217 0.2013-3.0957-0.8916-3.3637-2.3022l-0.19884-2.0415c-0.08071-0.425-0.36092-0.7851-0.75294-0.9678l-1.208-0.4151c-1.8165-0.8465-2.425-2.8958-1.3819-4.6071l0.68085-0.9416c0.27347-0.4487 0.26047-1.0156-0.03329-1.4513l-0.50781-0.7187c-1.4375-2.0469-0.44361-4.3347 1.6865-5.0206l0.4698-0.15128c0.51853-0.16696 1.0194-0.59758 1.0625-1.1406l0.10461-1.3182c0.16981-2.1397 2.1223-3.3676 4.176-2.7432l0.6646 0.20205c0.6407 0.25 1.1426 0.0371 1.4922-0.34375l0.7188-0.91696z" fill="url(#f)"/><path d="m13.051 3.3308c1.5312-1.7236 3.6131-1.4493 4.9453 0l0.8124 0.94061c0.2813 0.30605 0.6884 0.46476 1.1026 0.42988l1.4444-0.42988c1.9687-0.42204 3.7578 1.0467 3.7578 3.328v0.85937c0.0417 0.46913 0.4515 0.78714 0.8747 0.99382l1.305 0.54525c1.8876 0.92194 2.3593 3.1093 0.9843 4.9453l-0.3906 0.5156c-0.3504 0.4737-0.2784 1.0954 0.0703 1.5703l0.3906 0.5469c1.4219 1.75 0.6202 4.1509-1.3882 4.9897l-1.1234 0.4692c-0.4231 0.1767-0.5889 0.4801-0.668 0.9317l-0.0782 1.4688c-0.2734 2.0156-2.0636 2.926-3.5 2.7226l-1.7109-0.457c-0.4109-0.0582-0.9219 0.0781-1.1953 0.5078l-0.6172 0.8438c-1.5313 1.7265-3.598 1.4394-4.6406 0.4296l-1.1386-1.3789c-0.2981-0.2887-0.6739-0.5351-1.1238-0.3654l-1.722 0.4709c-1.4217 0.2013-3.0957-0.8916-3.3637-2.3022l-0.19884-2.0415c-0.08071-0.425-0.36092-0.7851-0.75294-0.9678l-1.208-0.4151c-1.8165-0.8465-2.425-2.8958-1.3819-4.6071l0.68085-0.9416c0.27347-0.4487 0.26047-1.0156-0.03329-1.4513l-0.50781-0.7187c-1.4375-2.0469-0.44361-4.3347 1.6865-5.0206l0.4698-0.15128c0.51853-0.16696 1.0194-0.59758 1.0625-1.1406l0.10461-1.3182c0.16981-2.1397 2.1223-3.3676 4.176-2.7432l0.6646 0.20205c0.6407 0.25 1.1426 0.0371 1.4922-0.34375l0.7188-0.91696z" fill="url(#e)"/><path d="m13.051 3.3308c1.5312-1.7236 3.6131-1.4493 4.9453 0l0.8124 0.94061c0.2813 0.30605 0.6884 0.46476 1.1026 0.42988l1.4444-0.42988c1.9687-0.42204 3.7578 1.0467 3.7578 3.328v0.85937c0.0417 0.46913 0.4515 0.78714 0.8747 0.99382l1.305 0.54525c1.8876 0.92194 2.3593 3.1093 0.9843 4.9453l-0.3906 0.5156c-0.3504 0.4737-0.2784 1.0954 0.0703 1.5703l0.3906 0.5469c1.4219 1.75 0.6202 4.1509-1.3882 4.9897l-1.1234 0.4692c-0.4231 0.1767-0.5889 0.4801-0.668 0.9317l-0.0782 1.4688c-0.2734 2.0156-2.0636 2.926-3.5 2.7226l-1.7109-0.457c-0.4109-0.0582-0.9219 0.0781-1.1953 0.5078l-0.6172 0.8438c-1.5313 1.7265-3.598 1.4394-4.6406 0.4296l-1.1386-1.3789c-0.2981-0.2887-0.6739-0.5351-1.1238-0.3654l-1.722 0.4709c-1.4217 0.2013-3.0957-0.8916-3.3637-2.3022l-0.19884-2.0415c-0.08071-0.425-0.36092-0.7851-0.75294-0.9678l-1.208-0.4151c-1.8165-0.8465-2.425-2.8958-1.3819-4.6071l0.68085-0.9416c0.27347-0.4487 0.26047-1.0156-0.03329-1.4513l-0.50781-0.7187c-1.4375-2.0469-0.44361-4.3347 1.6865-5.0206l0.4698-0.15128c0.51853-0.16696 1.0194-0.59758 1.0625-1.1406l0.10461-1.3182c0.16981-2.1397 2.1223-3.3676 4.176-2.7432l0.6646 0.20205c0.6407 0.25 1.1426 0.0371 1.4922-0.34375l0.7188-0.91696z" fill="url(#d)"/><path d="m13.051 3.3308c1.5312-1.7236 3.6131-1.4493 4.9453 0l0.8124 0.94061c0.2813 0.30605 0.6884 0.46476 1.1026 0.42988l1.4444-0.42988c1.9687-0.42204 3.7578 1.0467 3.7578 3.328v0.85937c0.0417 0.46913 0.4515 0.78714 0.8747 0.99382l1.305 0.54525c1.8876 0.92194 2.3593 3.1093 0.9843 4.9453l-0.3906 0.5156c-0.3504 0.4737-0.2784 1.0954 0.0703 1.5703l0.3906 0.5469c1.4219 1.75 0.6202 4.1509-1.3882 4.9897l-1.1234 0.4692c-0.4231 0.1767-0.5889 0.4801-0.668 0.9317l-0.0782 1.4688c-0.2734 2.0156-2.0636 2.926-3.5 2.7226l-1.7109-0.457c-0.4109-0.0582-0.9219 0.0781-1.1953 0.5078l-0.6172 0.8438c-1.5313 1.7265-3.598 1.4394-4.6406 0.4296l-1.1386-1.3789c-0.2981-0.2887-0.6739-0.5351-1.1238-0.3654l-1.722 0.4709c-1.4217 0.2013-3.0957-0.8916-3.3637-2.3022l-0.19884-2.0415c-0.08071-0.425-0.36092-0.7851-0.75294-0.9678l-1.208-0.4151c-1.8165-0.8465-2.425-2.8958-1.3819-4.6071l0.68085-0.9416c0.27347-0.4487 0.26047-1.0156-0.03329-1.4513l-0.50781-0.7187c-1.4375-2.0469-0.44361-4.3347 1.6865-5.0206l0.4698-0.15128c0.51853-0.16696 1.0194-0.59758 1.0625-1.1406l0.10461-1.3182c0.16981-2.1397 2.1223-3.3676 4.176-2.7432l0.6646 0.20205c0.6407 0.25 1.1426 0.0371 1.4922-0.34375l0.7188-0.91696z" fill="url(#c)"/><path d="m13.051 3.3308c1.5312-1.7236 3.6131-1.4493 4.9453 0l0.8124 0.94061c0.2813 0.30605 0.6884 0.46476 1.1026 0.42988l1.4444-0.42988c1.9687-0.42204 3.7578 1.0467 3.7578 3.328v0.85937c0.0417 0.46913 0.4515 0.78714 0.8747 0.99382l1.305 0.54525c1.8876 0.92194 2.3593 3.1093 0.9843 4.9453l-0.3906 0.5156c-0.3504 0.4737-0.2784 1.0954 0.0703 1.5703l0.3906 0.5469c1.4219 1.75 0.6202 4.1509-1.3882 4.9897l-1.1234 0.4692c-0.4231 0.1767-0.5889 0.4801-0.668 0.9317l-0.0782 1.4688c-0.2734 2.0156-2.0636 2.926-3.5 2.7226l-1.7109-0.457c-0.4109-0.0582-0.9219 0.0781-1.1953 0.5078l-0.6172 0.8438c-1.5313 1.7265-3.598 1.4394-4.6406 0.4296l-1.1386-1.3789c-0.2981-0.2887-0.6739-0.5351-1.1238-0.3654l-1.722 0.4709c-1.4217 0.2013-3.0957-0.8916-3.3637-2.3022l-0.19884-2.0415c-0.08071-0.425-0.36092-0.7851-0.75294-0.9678l-1.208-0.4151c-1.8165-0.8465-2.425-2.8958-1.3819-4.6071l0.68085-0.9416c0.27347-0.4487 0.26047-1.0156-0.03329-1.4513l-0.50781-0.7187c-1.4375-2.0469-0.44361-4.3347 1.6865-5.0206l0.4698-0.15128c0.51853-0.16696 1.0194-0.59758 1.0625-1.1406l0.10461-1.3182c0.16981-2.1397 2.1223-3.3676 4.176-2.7432l0.6646 0.20205c0.6407 0.25 1.1426 0.0371 1.4922-0.34375l0.7188-0.91696z" fill="url(#b)"/><path d="m13.051 3.3308c1.5312-1.7236 3.6131-1.4493 4.9453 0l0.8124 0.94061c0.2813 0.30605 0.6884 0.46476 1.1026 0.42988l1.4444-0.42988c1.9687-0.42204 3.7578 1.0467 3.7578 3.328v0.85937c0.0417 0.46913 0.4515 0.78714 0.8747 0.99382l1.305 0.54525c1.8876 0.92194 2.3593 3.1093 0.9843 4.9453l-0.3906 0.5156c-0.3504 0.4737-0.2784 1.0954 0.0703 1.5703l0.3906 0.5469c1.4219 1.75 0.6202 4.1509-1.3882 4.9897l-1.1234 0.4692c-0.4231 0.1767-0.5889 0.4801-0.668 0.9317l-0.0782 1.4688c-0.2734 2.0156-2.0636 2.926-3.5 2.7226l-1.7109-0.457c-0.4109-0.0582-0.9219 0.0781-1.1953 0.5078l-0.6172 0.8438c-1.5313 1.7265-3.598 1.4394-4.6406 0.4296l-1.1386-1.3789c-0.2981-0.2887-0.6739-0.5351-1.1238-0.3654l-1.722 0.4709c-1.4217 0.2013-3.0957-0.8916-3.3637-2.3022l-0.19884-2.0415c-0.08071-0.425-0.36092-0.7851-0.75294-0.9678l-1.208-0.4151c-1.8165-0.8465-2.425-2.8958-1.3819-4.6071l0.68085-0.9416c0.27347-0.4487 0.26047-1.0156-0.03329-1.4513l-0.50781-0.7187c-1.4375-2.0469-0.44361-4.3347 1.6865-5.0206l0.4698-0.15128c0.51853-0.16696 1.0194-0.59758 1.0625-1.1406l0.10461-1.3182c0.16981-2.1397 2.1223-3.3676 4.176-2.7432l0.6646 0.20205c0.6407 0.25 1.1426 0.0371 1.4922-0.34375l0.7188-0.91696z" fill="url(#a)"/></g><g filter="url(#l)"><path d="m15.534 26.934c5.9332 0 10.743-4.8098 10.743-10.743 0-5.9332-4.8097-10.743-10.743-10.743-5.9332 0-10.743 4.8098-10.743 10.743 0 5.9331 4.8098 10.743 10.743 10.743z" fill="url(#j)"/></g><defs><filter id="m" x="2" y="1.9388" width="27.269" height="28.355" color-interpolation-filters="sRGB" filterUnits="userSpaceOnUse"><feFlood flood-opacity="0" result="BackgroundImageFix"/><feBlend in="SourceGraphic" in2="BackgroundImageFix" result="shape"/><feColorMatrix in="SourceAlpha" result="hardAlpha" values="0 0 0 0 0 0 0 0 0 0 0 0 0 0 0 0 0 0 127 0"/><feOffset dx="0.2" dy="-0.2"/><feGaussianBlur stdDeviation="0.375"/><feComposite in2="hardAlpha" k2="-1" k3="1" operator="arithmetic"/><feColorMatrix values="0 0 0 0 0.839216 0 0 0 0 0.45098 0 0 0 0 0.211765 0 0 0 1 0"/><feBlend in2="shape" result="effect1_innerShadow_18_14692"/></filter><filter id="l" x="4.1914" y="5.448" width="22.086" height="22.086" color-interpolation-filters="sRGB" filterUnits="userSpaceOnUse"><feFlood flood-opacity="0" result="BackgroundImageFix"/><feColorMatrix in="SourceAlpha" result="hardAlpha" values="0 0 0 0 0 0 0 0 0 0 0 0 0 0 0 0 0 0 127 0"/><feOffset dx="-0.3" dy="0.3"/><feGaussianBlur stdDeviation="0.15"/><feComposite in2="hardAlpha" operator="out"/><feColorMatrix values="0 0 0 0 0.921569 0 0 0 0 0.47451 0 0 0 0 0.133333 0 0 0 1 0"/><feBlend in2="BackgroundImageFix" result="effect1_dropShadow_18_14692"/><feBlend in="SourceGraphic" in2="effect1_dropShadow_18_14692" result="shape"/></filter><linearGradient id="k" x1="23.878" x2="8.5281" y1="6.8668" y2="26.451" gradientUnits="userSpaceOnUse"><stop stop-color="#FC8B23" offset="0"/><stop stop-color="#E67639" offset="1"/></linearGradient><radialGradient id="i" cx="0" cy="0" r="1" gradientTransform="translate(18.119 3.4372) rotate(138.16) scale(3.7786 3.3339)" gradientUnits="userSpaceOnUse"><stop stop-color="#FFA13A" offset=".30016"/><stop stop-color="#FFA13A" stop-opacity="0" offset="1"/></radialGradient><radialGradient id="h" cx="0" cy="0" r="1" gradientTransform="translate(8.2876 2.2444) rotate(67.81) scale(6.0072 5.3002)" gradientUnits="userSpaceOnUse"><stop stop-color="#FF942A" offset=".30016"/><stop stop-color="#FF942A" stop-opacity="0" offset="1"/></radialGradient><radialGradient id="g" cx="0" cy="0" r="1" gradientTransform="translate(24.421 7.8486) rotate(195.26) scale(2.3951 3.3164)" gradientUnits="userSpaceOnUse"><stop stop-color="#FFA13D" offset=".30016"/><stop stop-color="#FFA13D" stop-opacity="0" offset="1"/></radialGradient><radialGradient id="f" cx="0" cy="0" r="1" gradientTransform="translate(29.252 11.336) rotate(154.2) scale(4.2467 3.1365)" gradientUnits="userSpaceOnUse"><stop stop-color="#FFA13D" offset=".30016"/><stop stop-color="#FFA13D" stop-opacity="0" offset="1"/></radialGradient><radialGradient id="e" cx="0" cy="0" r="1" gradientTransform="translate(30.177 18.52) rotate(186.62) scale(4.7371 2.6695)" gradientUnits="userSpaceOnUse"><stop stop-color="#FFA13D" offset=".30016"/><stop stop-color="#FFA13D" stop-opacity="0" offset="1"/></radialGradient><radialGradient id="d" cx="0" cy="0" r="1" gradientTransform="translate(25.933 24.024) rotate(-43.964) scale(4.2969 4.1396)" gradientUnits="userSpaceOnUse"><stop stop-color="#E0762A" offset="0"/><stop stop-color="#E0762A" stop-opacity="0" offset="1"/></radialGradient><radialGradient id="c" cx="0" cy="0" r="1" gradientTransform="translate(6.0189 23.016) rotate(232.25) scale(3.2942 3.1736)" gradientUnits="userSpaceOnUse"><stop stop-color="#E0762A" offset="0"/><stop stop-color="#E0762A" stop-opacity="0" offset="1"/></radialGradient><radialGradient id="b" cx="0" cy="0" r="1" gradientTransform="translate(1.5235 11.882) rotate(25.278) scale(3.3453 4.0432)" gradientUnits="userSpaceOnUse"><stop stop-color="#F0851D" offset="0"/><stop stop-color="#F0851D" stop-opacity="0" offset="1"/></radialGradient><radialGradient id="a" cx="0" cy="0" r="1" gradientTransform="translate(21.492 28.795) rotate(217.51) scale(3.9002 3.6795)" gradientUnits="userSpaceOnUse"><stop stop-color="#E3745B" offset=".33659"/><stop stop-color="#E3745B" stop-opacity="0" offset="1"/></radialGradient><radialGradient id="j" cx="0" cy="0" r="1" gradientTransform="translate(21.631 9.9671) rotate(117.74) scale(19.17 23.673)" gradientUnits="userSpaceOnUse"><stop stop-color="#FFD13D" offset=".17178"/><stop stop-color="#DCA21C" offset="1"/><stop stop-color="#D89A29" offset="1"/></radialGradient></defs></svg>
