<svg fill="none" viewBox="0 0 32 32" xmlns="http://www.w3.org/2000/svg"><path d="m14.5 30c6.3513 0 11.5-5.1487 11.5-11.5s-5.1487-11.5-11.5-11.5c-6.3513 0-11.5 5.1487-11.5 11.5s5.1487 11.5 11.5 11.5z" fill="url(#p)"/><path d="m14.5 30c6.3513 0 11.5-5.1487 11.5-11.5s-5.1487-11.5-11.5-11.5c-6.3513 0-11.5 5.1487-11.5 11.5s5.1487 11.5 11.5 11.5z" fill="url(#i)"/><path d="m14.5 30c6.3513 0 11.5-5.1487 11.5-11.5s-5.1487-11.5-11.5-11.5c-6.3513 0-11.5 5.1487-11.5 11.5s5.1487 11.5 11.5 11.5z" fill="url(#h)"/><path d="m14.5 30c6.3513 0 11.5-5.1487 11.5-11.5s-5.1487-11.5-11.5-11.5c-6.3513 0-11.5 5.1487-11.5 11.5s5.1487 11.5 11.5 11.5z" fill="url(#g)"/><path d="m14.5 30c6.3513 0 11.5-5.1487 11.5-11.5s-5.1487-11.5-11.5-11.5c-6.3513 0-11.5 5.1487-11.5 11.5s5.1487 11.5 11.5 11.5z" fill="url(#f)"/><g filter="url(#r)"><path d="m14.484 29.562c6.1528 0 11.141-4.8969 11.141-10.938s-4.9878-10.938-11.141-10.938c-6.1528 0-11.141 4.8969-11.141 10.938s4.9878 10.938 11.141 10.938z" fill="url(#e)"/><path d="m14.484 29.562c6.1528 0 11.141-4.8969 11.141-10.938s-4.9878-10.938-11.141-10.938c-6.1528 0-11.141 4.8969-11.141 10.938s4.9878 10.938 11.141 10.938z" fill="url(#d)"/><path d="m14.484 29.562c6.1528 0 11.141-4.8969 11.141-10.938s-4.9878-10.938-11.141-10.938c-6.1528 0-11.141 4.8969-11.141 10.938s4.9878 10.938 11.141 10.938z" fill="url(#c)"/><path d="m14.484 29.562c6.1528 0 11.141-4.8969 11.141-10.938s-4.9878-10.938-11.141-10.938c-6.1528 0-11.141 4.8969-11.141 10.938s4.9878 10.938 11.141 10.938z" fill="url(#b)"/></g><path d="m23.05 9.97c2.2 0 3.98 1.79 3.98 3.98s-1.79 3.98-3.98 3.98-3.98-1.79-3.98-3.98 1.78-3.98 3.98-3.98zm0-2c-3.3 0-5.98 2.68-5.98 5.98s2.68 5.98 5.98 5.98 5.98-2.68 5.98-5.98-2.68-5.98-5.98-5.98z" fill="#BFBAC9"/><path d="m23.05 9.97c2.2 0 3.98 1.79 3.98 3.98s-1.79 3.98-3.98 3.98-3.98-1.79-3.98-3.98 1.78-3.98 3.98-3.98zm0-2c-3.3 0-5.98 2.68-5.98 5.98s2.68 5.98 5.98 5.98 5.98-2.68 5.98-5.98-2.68-5.98-5.98-5.98z" fill="url(#a)"/><path d="m23.05 9.97c2.2 0 3.98 1.79 3.98 3.98s-1.79 3.98-3.98 3.98-3.98-1.79-3.98-3.98 1.78-3.98 3.98-3.98zm0-2c-3.3 0-5.98 2.68-5.98 5.98s2.68 5.98 5.98 5.98 5.98-2.68 5.98-5.98-2.68-5.98-5.98-5.98z" fill="url(#o)"/><path d="m21.4 12.38c-1.72-1.92-4.21-3.13-6.98-3.13s-5.27 1.21-6.99 3.13h-2.39v5.25c0 5.17 4.21 9.38 9.38 9.38s9.38-4.21 9.38-9.38v-5.25h-2.4z" fill="url(#n)"/><path d="m14.41 21.76c5.1804 0 9.38-4.1996 9.38-9.38 0-5.1804-4.1996-9.38-9.38-9.38-5.1804 0-9.38 4.1996-9.38 9.38 0 5.1804 4.1996 9.38 9.38 9.38z" fill="#C5BCD4"/><path d="m14.41 20.67c4.5784 0 8.29-3.7116 8.29-8.29 0-4.5785-3.7116-8.29-8.29-8.29-4.5784 0-8.29 3.7116-8.29 8.29 0 4.5784 3.7116 8.29 8.29 8.29z" fill="#835358"/><path d="m14.41 20.67c4.5784 0 8.29-3.7116 8.29-8.29 0-4.5785-3.7116-8.29-8.29-8.29-4.5784 0-8.29 3.7116-8.29 8.29 0 4.5784 3.7116 8.29 8.29 8.29z" fill="url(#m)"/><path d="m14.41 20.67c4.5784 0 8.29-3.7116 8.29-8.29 0-4.5785-3.7116-8.29-8.29-8.29-4.5784 0-8.29 3.7116-8.29 8.29 0 4.5784 3.7116 8.29 8.29 8.29z" fill="url(#l)"/><path d="m14.41 20.67c4.5784 0 8.29-3.7116 8.29-8.29 0-4.5785-3.7116-8.29-8.29-8.29-4.5784 0-8.29 3.7116-8.29 8.29 0 4.5784 3.7116 8.29 8.29 8.29z" fill="url(#k)"/><g filter="url(#q)"><path d="m14.41 6.16c4.22 0 7.71 3.17 8.23 7.25 0.04-0.34 0.07-0.69 0.07-1.04 0-4.57-3.72-8.29-8.29-8.29s-8.29 3.72-8.29 8.29c0 0.35 0.02 0.7 0.07 1.04 0.5-4.08 3.99-7.25 8.21-7.25z" fill="url(#j)"/></g><defs><filter id="r" x="2.8438" y="7.1875" width="23.281" height="22.875" color-interpolation-filters="sRGB" filterUnits="userSpaceOnUse"><feFlood flood-opacity="0" result="BackgroundImageFix"/><feBlend in="SourceGraphic" in2="BackgroundImageFix" result="shape"/><feGaussianBlur result="effect1_foregroundBlur_18_30459" stdDeviation="0.25"/></filter><filter id="q" x="2.13" y="4.08" width="24.58" height="17.33" color-interpolation-filters="sRGB" filterUnits="userSpaceOnUse"><feFlood flood-opacity="0" result="BackgroundImageFix"/><feColorMatrix in="SourceAlpha" result="hardAlpha" values="0 0 0 0 0 0 0 0 0 0 0 0 0 0 0 0 0 0 127 0"/><feOffset dy="4"/><feGaussianBlur stdDeviation="2"/><feComposite in2="hardAlpha" operator="out"/><feColorMatrix values="0 0 0 0 0 0 0 0 0 0 0 0 0 0 0 0 0 0 0.25 0"/><feBlend in2="BackgroundImageFix" result="effect1_dropShadow_18_30459"/><feBlend in="SourceGraphic" in2="effect1_dropShadow_18_30459" result="shape"/></filter><linearGradient id="p" x1="10.75" x2="21.125" y1="9.125" y2="30.875" gradientUnits="userSpaceOnUse"><stop stop-color="#99989F" offset="0"/><stop stop-color="#A99BBE" offset=".45301"/><stop stop-color="#C7BBDA" offset=".87724"/></linearGradient><radialGradient id="i" cx="0" cy="0" r="1" gradientTransform="translate(13.938 18.5) rotate(91.245) scale(11.503 12.129)" gradientUnits="userSpaceOnUse"><stop stop-color="#9C8BB4" offset=".7206"/><stop stop-color="#9D8FB2" stop-opacity="0" offset=".81826"/></radialGradient><radialGradient id="h" cx="0" cy="0" r="1" gradientTransform="translate(24.375 13.562) rotate(90) scale(8.0625)" gradientUnits="userSpaceOnUse"><stop stop-color="#9D98A8" offset=".50388"/><stop stop-color="#9F9AAA" stop-opacity="0" offset="1"/></radialGradient><radialGradient id="g" cx="0" cy="0" r="1" gradientTransform="translate(25.125 12.812) rotate(55.035) scale(10.906 6.1273)" gradientUnits="userSpaceOnUse"><stop stop-color="#D1D0D7" offset=".25301"/><stop stop-color="#D3D2D9" stop-opacity="0" offset="1"/></radialGradient><linearGradient id="f" x1="15.375" x2="15.375" y1="30.5" y2="17.625" gradientUnits="userSpaceOnUse"><stop stop-color="#AD95C8" offset="0"/><stop stop-color="#AD95C8" stop-opacity="0" offset="1"/></linearGradient><linearGradient id="e" x1="10.852" x2="20.604" y1="9.7086" y2="30.534" gradientUnits="userSpaceOnUse"><stop stop-color="#99989F" offset="0"/><stop stop-color="#A99BBE" offset=".45301"/><stop stop-color="#C7BBDA" offset=".87724"/></linearGradient><radialGradient id="d" cx="0" cy="0" r="1" gradientTransform="translate(14.125 18.625) rotate(92.831) scale(11.389 12.232)" gradientUnits="userSpaceOnUse"><stop stop-color="#9C8BB4" offset=".7206"/><stop stop-color="#9D8FB2" stop-opacity="0" offset=".81826"/></radialGradient><radialGradient id="c" cx="0" cy="0" r="1" gradientTransform="translate(13.625 18.125) rotate(64.428) scale(11.294 10.254)" gradientUnits="userSpaceOnUse"><stop stop-color="#BCB2CD" stop-opacity="0" offset=".91429"/><stop stop-color="#BEB2CF" offset=".98852"/></radialGradient><radialGradient id="b" cx="0" cy="0" r="1" gradientTransform="translate(24.051 13.929) rotate(90) scale(7.6681 7.8106)" gradientUnits="userSpaceOnUse"><stop stop-color="#9D98A8" offset=".50388"/><stop stop-color="#9F9AAA" stop-opacity="0" offset="1"/></radialGradient><radialGradient id="a" cx="0" cy="0" r="1" gradientTransform="translate(23.05 13.95) rotate(90) scale(5.98)" gradientUnits="userSpaceOnUse"><stop stop-color="#958DA3" offset=".67819"/><stop stop-color="#AF9DC6" offset=".79277"/><stop stop-color="#B4A3CA" stop-opacity="0" offset="1"/></radialGradient><radialGradient id="o" cx="0" cy="0" r="1" gradientTransform="translate(23.625 17.188) rotate(88.078) scale(9.3177 7.0669)" gradientUnits="userSpaceOnUse"><stop stop-color="#D9D6E0" stop-opacity="0" offset=".80582"/><stop stop-color="#D8D6E0" offset=".9072"/><stop stop-color="#D8D6E0" stop-opacity="0" offset="1"/></radialGradient><linearGradient id="n" x1="5.04" x2="23.8" y1="20.25" y2="20.25" gradientUnits="userSpaceOnUse"><stop stop-color="#A6A1B0" offset="0"/><stop stop-color="#B1A1C6" offset=".25773"/><stop stop-color="#B19BCB" offset=".64419"/><stop stop-color="#B5AEC1" offset="1"/></linearGradient><radialGradient id="m" cx="0" cy="0" r="1" gradientTransform="translate(14.41 12.875) rotate(90) scale(12.75)" gradientUnits="userSpaceOnUse"><stop stop-color="#835358" offset=".37712"/><stop stop-color="#744C4D" offset=".62255"/></radialGradient><radialGradient id="l" cx="0" cy="0" r="1" gradientTransform="translate(14.41 12.875) rotate(90) scale(21.25 20.035)" gradientUnits="userSpaceOnUse"><stop stop-color="#502728" stop-opacity="0" offset=".37059"/><stop stop-color="#552C2B" offset=".40526"/></radialGradient><radialGradient id="k" cx="0" cy="0" r="1" gradientTransform="translate(14.41 14.875) rotate(90) scale(15 14.348)" gradientUnits="userSpaceOnUse"><stop stop-color="#502728" stop-opacity="0" offset=".55"/><stop stop-color="#552C2B" offset=".59583"/></radialGradient><linearGradient id="j" x1="6.13" x2="22.71" y1="10.438" y2="10.438" gradientUnits="userSpaceOnUse"><stop stop-color="#A298A8" offset="0"/><stop stop-color="#9F8FAE" offset=".48975"/><stop stop-color="#8C8191" offset="1"/></linearGradient></defs></svg>
