<svg fill="none" viewBox="0 0 32 32" xmlns="http://www.w3.org/2000/svg"><g filter="url(#h)"><path d="m15.346 6.1334c0 1.5052-0.8231 2.8181-2.0438 3.5133-0.2054 0.11703-0.3465 0.328-0.3465 0.56443v12.34c0.0014 0.0023 0.0028 0.0047 0.0042 0.0071 0.0997 2.2528 1.9576 4.0486 4.235 4.0486 2.3412 0 4.2391-1.8979 4.2391-4.2392 0-1.0055-0.35-1.9292-0.935-2.6559-0.0422-0.0649-0.0913-0.1233-0.1409-0.1823-0.1725-0.2051-0.3519-0.4185-0.274-0.9398 0.1621-1.128-0.2809-1.762-0.4889-2.0596-9e-3 -0.0129-0.0175-0.0251-0.0255-0.0367-0.0031-0.0044-0.0061-0.0088-0.0091-0.0131-0.033-0.0481-0.0693-0.0952-0.1055-0.1421-0.1695-0.2197-0.3349-0.434-0.1289-0.7173 0.1682-0.2311 0.5821-0.2656 0.8987-0.1587 2.655 1.1667 4.5091 3.8196 4.5091 6.9055 0 4.1638-3.3754 7.5392-7.5391 7.5392-4.0974 0-7.4314-3.2686-7.5366-7.3406h-0.00256v-12.355c0-0.23643-0.14105-0.4474-0.34655-0.56442-1.2206-0.69517-2.0437-2.0081-2.0437-3.5133 0-2.2314 1.8088-4.0403 4.0402-4.0403 2.2314 0 4.0403 1.8089 4.0403 4.0403zm-4.0403 1.9853c1.0965 0 1.9854-0.88885 1.9854-1.9853s-0.8889-1.9853-1.9854-1.9853c-1.0964 0-1.9853 0.88886-1.9853 1.9853s0.88892 1.9853 1.9853 1.9853z" clip-rule="evenodd" fill="#FFC52D" fill-rule="evenodd"/></g><g filter="url(#g)" stroke-width=".75"><circle cx="11.658" cy="5.8686" r="2.9409" stroke="url(#d)"/><circle cx="11.658" cy="5.8686" r="2.9409" stroke="url(#c)"/></g><g filter="url(#f)"><path d="m11.873 10.029v11.261c-0.1076 2.1996 0.832 6.599 5.4513 6.599" stroke="url(#b)"/></g><g filter="url(#e)"><path d="m21.198 17.094c0.8129 0.5379 2.1232 2.2235 2.4388 4.6623 0.3946 3.0484-0.9325 4.8416-2.1518 5.7562" stroke="url(#a)" stroke-linecap="round"/></g><defs><filter id="h" x="7.2658" y="1.5931" width="18.219" height="28.314" color-interpolation-filters="sRGB" filterUnits="userSpaceOnUse"><feFlood flood-opacity="0" result="BackgroundImageFix"/><feBlend in="SourceGraphic" in2="BackgroundImageFix" result="shape"/><feColorMatrix in="SourceAlpha" result="hardAlpha" values="0 0 0 0 0 0 0 0 0 0 0 0 0 0 0 0 0 0 127 0"/><feOffset dx="0.75" dy="-0.5"/><feGaussianBlur stdDeviation="0.5"/><feComposite in2="hardAlpha" k2="-1" k3="1" operator="arithmetic"/><feColorMatrix values="0 0 0 0 1 0 0 0 0 0.65098 0 0 0 0 0.223529 0 0 0 1 0"/><feBlend in2="shape" result="effect1_innerShadow_18_24711"/><feColorMatrix in="SourceAlpha" result="hardAlpha" values="0 0 0 0 0 0 0 0 0 0 0 0 0 0 0 0 0 0 127 0"/><feOffset dx="0.25" dy="-0.15"/><feGaussianBlur stdDeviation="0.25"/><feComposite in2="hardAlpha" k2="-1" k3="1" operator="arithmetic"/><feColorMatrix values="0 0 0 0 0.933333 0 0 0 0 0.541176 0 0 0 0 0.392157 0 0 0 1 0"/><feBlend in2="effect1_innerShadow_18_24711" result="effect2_innerShadow_18_24711"/></filter><filter id="g" x="7.5918" y="1.8028" width="8.1317" height="8.1317" color-interpolation-filters="sRGB" filterUnits="userSpaceOnUse"><feFlood flood-opacity="0" result="BackgroundImageFix"/><feBlend in="SourceGraphic" in2="BackgroundImageFix" result="shape"/><feGaussianBlur result="effect1_foregroundBlur_18_24711" stdDeviation="0.375"/></filter><filter id="f" x="10.365" y="9.0288" width="7.9592" height="20.36" color-interpolation-filters="sRGB" filterUnits="userSpaceOnUse"><feFlood flood-opacity="0" result="BackgroundImageFix"/><feBlend in="SourceGraphic" in2="BackgroundImageFix" result="shape"/><feGaussianBlur result="effect1_foregroundBlur_18_24711" stdDeviation="0.5"/></filter><filter id="e" x="19.697" y="15.594" width="5.5098" height="13.419" color-interpolation-filters="sRGB" filterUnits="userSpaceOnUse"><feFlood flood-opacity="0" result="BackgroundImageFix"/><feBlend in="SourceGraphic" in2="BackgroundImageFix" result="shape"/><feGaussianBlur result="effect1_foregroundBlur_18_24711" stdDeviation="0.5"/></filter><linearGradient id="d" x1="14.4" x2="11.922" y1="4.2164" y2="6.6616" gradientUnits="userSpaceOnUse"><stop stop-color="#FFE461" offset="0"/><stop stop-color="#FFE461" stop-opacity="0" offset="1"/></linearGradient><linearGradient id="c" x1="9.4341" x2="10.94" y1="8.128" y2="7.0163" gradientUnits="userSpaceOnUse"><stop stop-color="#FFE461" offset="0"/><stop stop-color="#FFE461" stop-opacity="0" offset="1"/></linearGradient><linearGradient id="b" x1="10.797" x2="4.7107" y1="12.754" y2="24.895" gradientUnits="userSpaceOnUse"><stop stop-color="#FFE461" offset=".49252"/><stop stop-color="#FFE461" stop-opacity="0" offset="1"/></linearGradient><linearGradient id="a" x1="20.373" x2="16.574" y1="16.7" y2="20.733" gradientUnits="userSpaceOnUse"><stop stop-color="#FFE461" offset="0"/><stop stop-color="#FFE461" stop-opacity="0" offset="1"/></linearGradient></defs></svg>
