<?xml version="1.0" encoding="UTF-8"?>
<svg width="3300px" height="2200px" viewBox="0 0 3300 2200" version="1.1" xmlns="http://www.w3.org/2000/svg" xmlns:xlink="http://www.w3.org/1999/xlink">
    <title>threema.bubble</title>
    <g id="Ready-for-export" stroke="none" stroke-width="1" fill="none" fill-rule="evenodd">
        <g id="threema.bubble">
            <g id="Notes">
                <rect id="artboard" fill="#FFFFFF" fill-rule="nonzero" x="0" y="0" width="3300" height="2200"></rect>
                <line x1="263" y1="292" x2="3036" y2="292" id="Path" stroke="#000000" stroke-width="0.5"></line>
                <text id="Weight/Scale-Variations" fill="#000000" fill-rule="nonzero" font-family="Helvetica-Bold, Helvetica" font-size="13" font-weight="bold">
                    <tspan x="263" y="322">Weight/Scale Variations</tspan>
                </text>
                <text id="Ultralight" fill="#000000" fill-rule="nonzero" font-family="Helvetica" font-size="13" font-weight="normal">
                    <tspan x="533.711" y="322">Ultralight</tspan>
                </text>
                <text id="Thin" fill="#000000" fill-rule="nonzero" font-family="Helvetica" font-size="13" font-weight="normal">
                    <tspan x="843.422" y="322">Thin</tspan>
                </text>
                <text id="Light" fill="#000000" fill-rule="nonzero" font-family="Helvetica" font-size="13" font-weight="normal">
                    <tspan x="1138.63" y="322">Light</tspan>
                </text>
                <text id="Regular" fill="#000000" fill-rule="nonzero" font-family="Helvetica" font-size="13" font-weight="normal">
                    <tspan x="1426.84" y="322">Regular</tspan>
                </text>
                <text id="Medium" fill="#000000" fill-rule="nonzero" font-family="Helvetica" font-size="13" font-weight="normal">
                    <tspan x="1723.06" y="322">Medium</tspan>
                </text>
                <text id="Semibold" fill="#000000" fill-rule="nonzero" font-family="Helvetica" font-size="13" font-weight="normal">
                    <tspan x="2015.77" y="322">Semibold</tspan>
                </text>
                <text id="Bold" fill="#000000" fill-rule="nonzero" font-family="Helvetica" font-size="13" font-weight="normal">
                    <tspan x="2326.48" y="322">Bold</tspan>
                </text>
                <text id="Heavy" fill="#000000" fill-rule="nonzero" font-family="Helvetica" font-size="13" font-weight="normal">
                    <tspan x="2618.19" y="322">Heavy</tspan>
                </text>
                <text id="Black" fill="#000000" fill-rule="nonzero" font-family="Helvetica" font-size="13" font-weight="normal">
                    <tspan x="2917.4" y="322">Black</tspan>
                </text>
                <line x1="263" y1="1903" x2="3036" y2="1903" id="Path" stroke="#000000" stroke-width="0.5"></line>
                <g id="Group" transform="translate(264.367190, 1918.068400)" fill="#000000" fill-rule="nonzero">
                    <path d="M7.88086,15.761678 C12.18751,15.761678 15.77151,12.18746 15.77151,7.88082 C15.77151,3.5742 12.17771,0 7.87109,0 C3.57422,0 -8.8817842e-16,3.5742 -8.8817842e-16,7.88082 C-8.8817842e-16,12.18746 3.58398,15.761678 7.88086,15.761678 Z M7.88086,14.277303 C4.33593,14.277303 1.5039,11.43551 1.5039,7.88082 C1.5039,4.3261 4.32617,1.4843 7.87109,1.4843 C11.42581,1.4843 14.26761,4.3261 14.2773352,7.88082 C14.28711,11.43551 11.43551,14.277303 7.88086,14.277303 Z M5.02929,8.61324 L7.13867,8.61324 L7.13867,10.73238 C7.13867,11.17183 7.43164,11.47457 7.86133,11.47457 C8.31054,11.47457 8.60351,11.17183 8.60351,10.73238 L8.60351,8.61324 L10.73241,8.61324 C11.17191,8.61324 11.47461,8.32027 11.47461,7.89058 C11.47461,7.45113 11.17191,7.1484 10.73241,7.1484 L8.60351,7.1484 L8.60351,5.03902 C8.60351,4.5898 8.31054,4.2871 7.86133,4.2871 C7.43164,4.2871 7.13867,4.5898 7.13867,5.03902 L7.13867,7.1484 L5.02929,7.1484 C4.58008,7.1484 4.27734,7.45113 4.27734,7.89058 C4.27734,8.32027 4.58008,8.61324 5.02929,8.61324 Z" id="Shape"></path>
                </g>
                <g id="Group" transform="translate(283.254050, 1915.988300)" fill="#000000" fill-rule="nonzero">
                    <path d="M9.96095,19.92186 C15.41015,19.92186 19.92185,15.40037 19.92185,9.96092 C19.92185,4.5117 15.40035,0 9.95115,0 C4.51172,0 8.8817842e-16,4.5117 8.8817842e-16,9.96092 C8.8817842e-16,15.40037 4.52148,19.92186 9.96095,19.92186 Z M9.96095,18.2617 C5.35156,18.2617 1.66992,14.57029 1.66992,9.96092 C1.66992,5.3515 5.34179,1.6601 9.95115,1.6601 C14.56055,1.6601 18.25195,5.3515 18.261769,9.96092 C18.27145,14.57029 14.57035,18.2617 9.96095,18.2617 Z M6.24023,10.78123 L9.13085,10.78123 L9.13085,13.69139 C9.13085,14.17967 9.46285,14.5117 9.94145,14.5117 C10.42965,14.5117 10.77145,14.17967 10.77145,13.69139 L10.77145,10.78123 L13.68165,10.78123 C14.16995,10.78123 14.50195,10.4492 14.50195,9.97068 C14.50195,9.4824 14.16995,9.14061 13.68165,9.14061 L10.77145,9.14061 L10.77145,6.25 C10.77145,5.7422 10.42965,5.4101 9.94145,5.4101 C9.46285,5.4101 9.13085,5.7519 9.13085,6.25 L9.13085,9.14061 L6.24023,9.14061 C5.73242,9.14061 5.40039,9.4824 5.40039,9.97068 C5.40039,10.4492 5.74218,10.78123 6.24023,10.78123 Z" id="Shape"></path>
                </g>
                <g id="Group" transform="translate(307.179860, 1913.224600)" fill="#000000" fill-rule="nonzero">
                    <path d="M12.71484,25.43946 C19.67774,25.43946 25.43944,19.6777438 25.43944,12.72462 C25.43944,5.7617 19.66794,0 12.70504,0 C5.75195,0 0,5.7617 0,12.72462 C0,19.6777438 5.76172,25.43946 12.71484,25.43946 Z M12.71484,23.62306 C6.67969,23.62306 1.82617,18.75978 1.82617,12.72462 C1.82617,6.6797 6.66992,1.8262 12.70504,1.8262 C18.75004,1.8262 23.60354,6.6797 23.6132548,12.72462 C23.62304,18.75978 18.75974,23.62306 12.71484,23.62306 Z M7.80274,13.63282 L11.80664,13.63282 L11.80664,17.64649 C11.80664,18.1836 12.17774,18.5547 12.69534,18.5547 C13.23244,18.5547 13.60354,18.1836 13.60354,17.64649 L13.60354,13.63282 L17.62694,13.63282 C18.15434,13.63282 18.53514,13.26173 18.53514,12.74415 C18.53514,12.20704 18.16404,11.82618 17.62694,11.82618 L13.60354,11.82618 L13.60354,7.8223 C13.60354,7.2656 13.23244,6.8945 12.69534,6.8945 C12.17774,6.8945 11.80664,7.2754 11.80664,7.8223 L11.80664,11.82618 L7.80274,11.82618 C7.24609,11.82618 6.875,12.20704 6.875,12.74415 C6.875,13.26173 7.25586,13.63282 7.80274,13.63282 Z" id="Shape"></path>
                </g>
                <text id="Design-Variations" fill="#000000" fill-rule="nonzero" font-family="Helvetica-Bold, Helvetica" font-size="13" font-weight="bold">
                    <tspan x="263" y="1953">Design Variations</tspan>
                </text>
                <text id="Symbols-are-supported-in-up-to-nine-weights-and-three-scales." fill="#000000" fill-rule="nonzero" font-family="Helvetica" font-size="13" font-weight="normal">
                    <tspan x="263" y="1971">Symbols are supported in up to nine weights and three scales.</tspan>
                </text>
                <text id="For-optimal-layout-with-text-and-other-symbols,-vertically-align" fill="#000000" fill-rule="nonzero" font-family="Helvetica" font-size="13" font-weight="normal">
                    <tspan x="263" y="1989">For optimal layout with text and other symbols, vertically align</tspan>
                </text>
                <text id="symbols-with-the-adjacent-text." fill="#000000" fill-rule="nonzero" font-family="Helvetica" font-size="13" font-weight="normal">
                    <tspan x="263" y="2007">symbols with the adjacent text.</tspan>
                </text>
                <line x1="776" y1="1919" x2="776" y2="1933" id="Path" stroke="#00AEEF" stroke-width="0.5"></line>
                <g id="Group" transform="translate(778.490230, 1918.712900)" fill="#000000" fill-rule="nonzero">
                    <path d="M0.82032,14.414053 C1.33789,14.414053 1.5918,14.2187406 1.77735,13.681631 L3.03711,10.2246 L8.79887,10.2246 L10.05857,13.681631 C10.24417,14.2187406 10.49807,14.414053 11.00587,14.414053 C11.52347,14.414053 11.85547,14.101553 11.85547,13.613272 C11.85547,13.447256 11.82617,13.300772 11.74807,13.08593 L7.16797,0.8984 C6.94336,0.293 6.54297,0 5.91797,0 C5.3125,0 4.90235,0.293 4.6875,0.8887 L0.10743,13.09569 C0.0293,13.310538 -4.4408921e-16,13.457022 -4.4408921e-16,13.623038 C-4.4408921e-16,14.111319 0.3125,14.414053 0.82032,14.414053 Z M3.51563,8.74999 L5.88868,2.1777 L5.9375,2.1777 L8.31057,8.74999 L3.51563,8.74999 Z" id="Shape"></path>
                </g>
                <line x1="792.836" y1="1919" x2="792.836" y2="1933" id="Path" stroke="#00AEEF" stroke-width="0.5"></line>
                <text id="Margins" fill="#000000" fill-rule="nonzero" font-family="Helvetica-Bold, Helvetica" font-size="13" font-weight="bold">
                    <tspan x="776" y="1953">Margins</tspan>
                </text>
                <text id="Leading-and-trailing-margins-on-the-left-and-right-side-of-each-symbol" fill="#000000" fill-rule="nonzero" font-family="Helvetica" font-size="13" font-weight="normal">
                    <tspan x="776" y="1971">Leading and trailing margins on the left and right side of each symbol</tspan>
                </text>
                <text id="can-be-adjusted-by-modifying-the-x-location-of-the-margin-guidelines." fill="#000000" fill-rule="nonzero" font-family="Helvetica" font-size="13" font-weight="normal">
                    <tspan x="776" y="1989">can be adjusted by modifying the x-location of the margin guidelines.</tspan>
                </text>
                <text id="Modifications-are-automatically-applied-proportionally-to-all" fill="#000000" fill-rule="nonzero" font-family="Helvetica" font-size="13" font-weight="normal">
                    <tspan x="776" y="2007">Modifications are automatically applied proportionally to all</tspan>
                </text>
                <text id="scales-and-weights." fill="#000000" fill-rule="nonzero" font-family="Helvetica" font-size="13" font-weight="normal">
                    <tspan x="776" y="2025">scales and weights.</tspan>
                </text>
                <g id="Group" transform="translate(1291.248126, 1914.517396)" fill="#000000" fill-rule="nonzero">
                    <path d="M0.593673634,20.347834 L2.29289363,22.056824 C3.15226363,22.925964 4.13859363,22.867374 5.06632363,21.841984 L15.2420736,10.631044 C15.5057736,10.718934 15.7791736,10.699404 16.0916736,10.640804 L17.1561736,10.445494 L17.8202736,11.119324 L17.7811736,11.675964 C17.7420736,12.174014 17.8690736,12.554874 18.3573736,13.033384 L19.1190736,13.775574 C19.5975736,14.254084 20.2127736,14.283384 20.6815736,13.814634 L23.5916736,10.894714 C24.0604736,10.425964 24.0409736,9.83026404 23.5623736,9.35174404 L22.7909736,8.59002404 C22.3123736,8.11150404 21.9413736,7.95530404 21.4627736,7.99430404 L20.8866736,8.04310404 L20.2420736,7.40840404 L20.4862736,6.28530404 C20.6131736,5.71890404 20.4569736,5.27950404 19.8709736,4.69350404 L17.6737736,2.50600404 C14.3338736,-0.814295964 9.90027363,-0.736195964 7.00968363,2.15450404 C6.58976363,2.56460404 6.56046363,3.14080404 6.79484363,3.53140404 C7.02921363,3.89280404 7.48820363,4.12710404 8.13277363,3.96110404 C9.59757363,3.61930404 11.1209736,3.56070404 12.5467736,4.49820404 L11.9608736,5.95330404 C11.7655736,6.43180404 11.7362736,6.83220404 11.8631736,7.19350404 L0.798753634,17.584166 C-0.187576366,18.5021352 -0.265706366,19.478698 0.593673634,20.347834 Z M8.50387363,2.52560404 C10.9354736,0.748204036 14.2264736,1.05100404 16.4530736,3.27750404 L18.8846736,5.68960404 C19.1190736,5.92400404 19.1580736,6.10960404 19.0897736,6.45140404 L18.7674736,7.93570404 L20.2713736,9.42010404 L21.2577736,9.36151404 C21.5116736,9.35174404 21.5897736,9.37127404 21.7850736,9.56658404 L22.3612736,10.142764 L19.9198736,12.584164 L19.3436736,12.007994 C19.1483736,11.812684 19.1190736,11.734554 19.1288736,11.470884 L19.1971736,10.494324 L17.7030736,9.00994404 L16.1795736,9.26385404 C15.8573736,9.33221404 15.7108736,9.30291404 15.4666736,9.06854404 L13.4647736,7.06660404 C13.2108736,6.83220404 13.1815736,6.66620404 13.3377736,6.29510404 L14.2166736,4.20530404 C12.6541736,2.75020404 10.6229736,2.12520404 8.59167363,2.72090404 C8.43547363,2.75990404 8.37687363,2.63300404 8.50387363,2.52560404 Z M3.02531363,20.787304 L1.85343363,19.625184 C1.38468363,19.166198 1.49210363,18.824401 1.89249363,18.4630728 L12.7030736,8.28730404 L14.1678736,9.77166404 L4.17765363,20.757994 C3.82609363,21.158384 3.49406363,21.256044 3.02531363,20.787304 Z" id="Shape"></path>
                </g>
                <text id="Exporting" fill="#000000" fill-rule="nonzero" font-family="Helvetica-Bold, Helvetica" font-size="13" font-weight="bold">
                    <tspan x="1289" y="1953">Exporting</tspan>
                </text>
                <text id="Symbols-should-be-outlined-when-exporting-to-ensure-the" fill="#000000" fill-rule="nonzero" font-family="Helvetica" font-size="13" font-weight="normal">
                    <tspan x="1289" y="1971">Symbols should be outlined when exporting to ensure the</tspan>
                </text>
                <text id="design-is-preserved-when-submitting-to-Xcode." fill="#000000" fill-rule="nonzero" font-family="Helvetica" font-size="13" font-weight="normal">
                    <tspan x="1289" y="1989">design is preserved when submitting to Xcode.</tspan>
                </text>
                <text id="template-version" fill="#000000" fill-rule="nonzero" font-family="Helvetica" font-size="13" font-weight="normal">
                    <tspan x="2952" y="1933">Template v.2.0</tspan>
                </text>
                <text id="Requires-Xcode-12-or-greater" fill="#000000" fill-rule="nonzero" font-family="Helvetica" font-size="13" font-weight="normal">
                    <tspan x="2865" y="1951">Requires Xcode 12 or greater</tspan>
                </text>
                <text id="Generated-from-bubble.right.fill" fill="#000000" fill-rule="nonzero" font-family="Helvetica" font-size="13" font-weight="normal">
                    <tspan x="2857" y="1969">Generated from bubble.right.fill</tspan>
                </text>
                <text id="Typeset-at-100-points" fill="#000000" fill-rule="nonzero" font-family="Helvetica" font-size="13" font-weight="normal">
                    <tspan x="2912" y="1987">Typeset at 100 points</tspan>
                </text>
                <text id="Small" fill="#000000" fill-rule="nonzero" font-family="Helvetica" font-size="13" font-weight="normal">
                    <tspan x="263" y="726">Small</tspan>
                </text>
                <text id="Medium" fill="#000000" fill-rule="nonzero" font-family="Helvetica" font-size="13" font-weight="normal">
                    <tspan x="263" y="1156">Medium</tspan>
                </text>
                <text id="Large" fill="#000000" fill-rule="nonzero" font-family="Helvetica" font-size="13" font-weight="normal">
                    <tspan x="263" y="1586">Large</tspan>
                </text>
            </g>
            <g id="Guides" transform="translate(263.000000, 625.041000)">
                <g id="H-reference" transform="translate(76.976562, 0.500000)" fill="#27AAE1" fill-rule="nonzero">
                    <path d="M-1.22124533e-15,70.459 L2.685548,70.459 L12.011738,45.9961 L44.775438,45.9961 L54.150438,70.459 L56.787138,70.459 L29.638638,0 L27.148438,0 L-1.22124533e-15,70.459 Z M28.369138,3.3203 L28.466838,3.3203 L43.896438,43.75 L12.890638,43.75 L28.369138,3.3203 Z" id="Shape"></path>
                </g>
                <line x1="0" y1="70.959" x2="2773" y2="70.959" id="Baseline-S" stroke="#27AAE1" stroke-width="0.5"></line>
                <line x1="0" y1="0.5" x2="2773" y2="0.5" id="Capline-S" stroke="#27AAE1" stroke-width="0.5"></line>
                <g id="H-reference" transform="translate(76.976562, 430.500000)" fill="#27AAE1" fill-rule="nonzero">
                    <path d="M-1.22124533e-15,70.459 L2.685548,70.459 L12.011738,45.9961 L44.775438,45.9961 L54.150438,70.459 L56.787138,70.459 L29.638638,0 L27.148438,0 L-1.22124533e-15,70.459 Z M28.369138,3.3203 L28.466838,3.3203 L43.896438,43.75 L12.890638,43.75 L28.369138,3.3203 Z" id="Shape"></path>
                </g>
                <line x1="0" y1="500.959" x2="2773" y2="500.959" id="Baseline-M" stroke="#27AAE1" stroke-width="0.5"></line>
                <line x1="0" y1="430.499" x2="2773" y2="430.499" id="Capline-M" stroke="#27AAE1" stroke-width="0.5"></line>
                <g id="H-reference" transform="translate(76.976562, 860.500000)" fill="#27AAE1" fill-rule="nonzero">
                    <path d="M-1.22124533e-15,70.459 L2.685548,70.459 L12.011738,45.9961 L44.775438,45.9961 L54.150438,70.459 L56.787138,70.459 L29.638638,0 L27.148438,0 L-1.22124533e-15,70.459 Z M28.369138,3.3203 L28.466838,3.3203 L43.896438,43.75 L12.890638,43.75 L28.369138,3.3203 Z" id="Shape"></path>
                </g>
                <line x1="0" y1="930.959" x2="2773" y2="930.959" id="Baseline-L" stroke="#27AAE1" stroke-width="0.5"></line>
                <line x1="0" y1="860.499" x2="2773" y2="860.499" id="Capline-L" stroke="#27AAE1" stroke-width="0.5"></line>
                <line x1="1120.58" y1="405.749" x2="1120.58" y2="525.079" id="left-margin" stroke="#00AEEF" stroke-width="0.5"></line>
                <line x1="1253.1" y1="405.749" x2="1253.1" y2="525.079" id="right-margin" stroke="#00AEEF" stroke-width="0.5"></line>
            </g>
            <g id="Symbols" transform="translate(1381.074500, 621.732400)" fill="#000000" fill-rule="nonzero">
                <g id="Semibold-L" transform="translate(592.690000, 836.513700)">
                    <path d="M99.8535,132.5195 C104.7365,132.5195 107.7145,129.1016 107.7145,123.6328 L107.7145,108.2031 L110.4975,108.2031 C127.9295,108.2031 139.0135,97.363275 139.0135,79.1504 L139.0135,29.1016 C139.0135,10.8887 128.3205,0 109.9605,0 L29.1015,0 C10.6933,0 0,10.9375 0,29.1016 L0,79.1504 C0,97.314447 10.6933,108.2031 29.1015,108.2031 L67.9199,108.2031 L89.5995,127.2461 C93.7495,130.8594 96.3865,132.5195 99.8535,132.5195 Z M96.8265,118.7012 L76.6601,99.16992 C74.0234,96.5332 72.2656,95.8496 68.6035,95.8496 L29.5898,95.8496 C18.164,95.8496 12.3535,89.84374 12.3535,78.6133 L12.3535,29.6387 C12.3535,18.3594 18.164,12.3535 29.5898,12.3535 L109.4235,12.3535 C120.8985,12.3535 126.7085,18.3594 126.7085,29.6387 L126.7085,78.6133 C126.7085,89.84374 120.8985,95.8496 109.4235,95.8496 L101.7085,95.8496 C98.3885,95.8496 96.8265,97.216791 96.8265,100.78124 L96.8265,118.7012 Z" id="Shape"></path>
                    <path d="M50.3330838,74.2741157 C50.3330838,78.3311938 52.1581161,80.1974591 55.9297775,80.1974591 L82.2503427,80.1974591 C86.0220871,80.1974591 87.8065041,78.3311938 87.8065041,74.2741157 L87.8065041,53.8668324 C87.8065041,50.2560114 86.3059792,48.3897378 83.3048464,48.1057378 L83.3048464,42.1012741 C83.3048464,32.6076323 77.5864728,26.2379902 69.0697939,26.2379902 C60.5936473,26.2379902 54.8347415,32.6076323 54.8347415,42.1012741 L54.8347415,48.1057378 C51.8336917,48.3897378 50.3330838,50.2560114 50.3330838,53.8668324 L50.3330838,74.2741157 Z M60.8775394,47.9840117 L60.8775394,41.6550003 C60.8775394,35.8939057 64.122032,32.1207278 69.0697939,32.1207278 C74.0581712,32.1207278 77.3025808,35.8939057 77.3025808,41.6550003 L77.3025808,47.9840117 L60.8775394,47.9840117 Z" id="Shape"></path>
                </g>
                <g id="Regular-L" transform="translate(0.000000, 838.759800)">
                    <path d="M100.4395,128.4668 C104.1505,128.4668 106.3475,125.7812 106.3475,121.6308 L106.3475,104.83397 L110.0095,104.83397 C127.6855,104.83397 137.5485,94.824206 137.5485,77.3437 L137.5485,27.539 C137.5485,10.0586 127.6855,0 110.0095,0 L27.539,0 C9.8144,0 3.55271368e-15,10.1074 3.55271368e-15,27.539 L3.55271368e-15,77.3437 C3.55271368e-15,94.72655 9.8144,104.83397 27.539,104.83397 L70.7031,104.83397 L92.7245,124.2187 C95.8985,127.0508 97.7535,128.4668 100.4395,128.4668 Z M98.2425,118.6523 L77.7343,98.87694 C75.5371,96.67968 73.9746,96.191394 70.8496,96.191394 L27.5878,96.191394 C15.0878,96.191394 8.6425,89.45311 8.6425,77.2461 L8.6425,27.5879 C8.6425,15.3808 15.0878,8.6426 27.5878,8.6426 L109.9605,8.6426 C122.5585,8.6426 128.9065,15.3808 128.9065,27.5879 L128.9065,77.2461 C128.9065,89.45311 122.5585,96.191394 109.9605,96.191394 L102.3435,96.191394 C99.3655,96.191394 98.2425,97.31444 98.2425,100.29296 L98.2425,118.6523 Z" id="Shape"></path>
                    <path d="M49.756997,72.5135538 C49.756997,76.5419977 51.5066953,78.4137791 55.2095122,78.4137791 L82.3096689,78.4137791 C86.0124859,78.4137791 87.8028516,76.5419977 87.8028516,72.5135538 L87.8028516,51.3542714 C87.8028516,47.5293568 86.1752388,45.6982346 82.8792625,45.5354812 L82.8792625,38.9842588 C82.8792625,29.5438917 77.1825762,23.2775087 68.7595906,23.2775087 C60.3366049,23.2775087 54.6398352,29.5438917 54.6398352,38.9842588 L54.6398352,45.5354812 C51.343859,45.6982346 49.756997,47.5293568 49.756997,51.3542714 L49.756997,72.5135538 Z M59.5227569,45.4948137 L59.5227569,38.536666 C59.5227569,32.1888646 63.2256572,27.9976923 68.7595906,27.9976923 C74.293524,27.9976923 78.0370916,32.1888646 78.0370916,38.536666 L78.0370916,45.4948137 L59.5227569,45.4948137 Z" id="Shape"></path>
                </g>
                <g id="Semibold-M" transform="translate(607.896700, 419.599600)">
                    <path d="M77.0996,104.541 C81.4453,104.541 84.082,101.5137 84.082,96.6797 L84.082,85.253938 L85.791,85.253938 C99.5608,85.253938 108.5938,76.5137 108.5938,61.8653 L108.5938,23.4375 C108.5938,8.7891 99.9508,0 85.1562,0 L23.4375,0 C8.6426,0 0,8.8379 0,23.4375 L0,61.8653 C0,76.46488 8.6426,85.253938 23.4375,85.253938 L51.3183,85.253938 L67.9687,99.9024 C71.6797,103.1739 74.0234,104.541 77.0996,104.541 Z M74.3652,92.08988 L58.9843,76.95316 C56.7383,74.6582 55.2246,74.1211 52.0996,74.1211 L23.9746,74.1211 C15.3808,74.1211 11.1816,69.7266 11.1816,61.2793 L11.1816,23.9746 C11.1816,15.5274 15.3808,11.1817 23.9746,11.1817 L84.6191,11.1817 C93.2618,11.1817 97.4118,15.5274 97.4118,23.9746 L97.4118,61.2793 C97.4118,69.7266 93.2618,74.1211 84.6191,74.1211 L78.6133,74.1211 C75.7812,74.1211 74.3652,75.24417 74.3652,78.36917 L74.3652,92.08988 Z" id="Shape"></path>
                    <path d="M39.9456274,58.1129973 C39.9456274,61.2431075 41.3284391,62.7065119 44.2566483,62.7065119 L64.5508803,62.7065119 C67.4791727,62.7065119 68.9025476,61.2431075 68.9025476,58.1129973 L68.9025476,42.5438668 C68.9025476,39.8609865 67.7637811,38.3974989 65.6083539,38.1129435 L65.6083539,33.7227304 C65.6083539,26.2430341 61.0532879,21.243083 54.4240875,21.243083 C47.7542407,21.243083 43.2399044,26.2430341 43.2399044,33.7227304 L43.2399044,38.1129435 C41.0437475,38.3974989 39.9456274,39.8609865 39.9456274,42.5438668 L39.9456274,58.1129973 Z M48.486293,37.9910625 L48.486293,33.3569209 C48.486293,29.1292158 50.8044725,26.3243713 54.4240875,26.3243713 C58.0030561,26.3243713 60.361882,29.0885888 60.361882,33.3569209 L60.361882,37.9910625 L48.486293,37.9910625 Z" id="Shape"></path>
                </g>
                <g id="Regular-M" transform="translate(14.956700, 421.650400)">
                    <path d="M77.5879,101.0254 C81.0058,101.0254 82.9101,98.584 82.9101,94.8242 L82.9101,82.128919 L85.2539,82.128919 C99.8048,82.128919 107.6168,74.12111 107.6168,59.7656 L107.6168,22.3633 C107.6168,8.0078 99.8048,0 85.2539,0 L22.3633,0 C7.8125,0 0,8.0567 0,22.3633 L0,59.7656 C0,74.07228 7.8125,82.128919 22.3633,82.128919 L53.7109,82.128919 L70.5566,97.1192 C73.5351,99.7559 75.1953,101.0254 77.5879,101.0254 Z M75.5859,92.08986 L59.9609,76.56251 C58.1054,74.65822 56.7383,74.26759 54.0039,74.26759 L22.3633,74.26759 C12.5488,74.26759 7.8613,69.2383 7.8613,59.7168 L7.8613,22.3633 C7.8613,12.8418 12.5488,7.8613 22.3633,7.8613 L85.2539,7.8613 C95.1168,7.8613 99.7558,12.8418 99.7558,22.3633 L99.7558,59.7168 C99.7558,69.2383 95.1168,74.26759 85.2539,74.26759 L79.248,74.26759 C76.6113,74.26759 75.5859,75.29298 75.5859,77.9297 L75.5859,92.08986 Z" id="Shape"></path>
                    <path d="M39.6355323,57.4620165 C39.6355323,60.5134785 40.9782339,61.9375108 43.7855418,61.9375108 L64.8609745,61.9375108 C67.6682825,61.9375108 69.0109008,60.5134785 69.0109008,57.4620165 L69.0109008,41.2688781 C69.0109008,38.4208969 67.8310165,36.9968646 65.4305853,36.83413 L65.4305853,32.0331664 C65.4305853,24.546873 60.9551076,19.5424286 54.3232582,19.5424286 C47.6914087,19.5424286 43.2159311,24.546873 43.2159311,32.0331664 L43.2159311,36.83413 C40.8154998,36.9968646 39.6355323,38.4208969 39.6355323,41.2688781 L39.6355323,57.4620165 Z M47.447266,36.7934672 L47.447266,31.5856253 C47.447266,26.8253246 50.2139946,23.6517908 54.3232582,23.6517908 C58.4325218,23.6517908 61.199167,26.8253246 61.199167,31.5856253 L61.199167,36.7934672 L47.447266,36.7934672 Z" id="Shape"></path>
                </g>
                <g id="Semibold-S" transform="translate(619.391120, -0.000000)">
                    <path d="M60.25388,82.56838 C63.96488,82.56838 66.11328,80.07815 66.11328,76.02541 L66.11328,67.18752 L67.18748,67.18752 C78.41798,67.18752 85.59568,60.2051 85.59568,48.3399 L85.59568,18.8965 C85.59568,6.9824 78.75978,0 66.74808,0 L18.89648,0 C6.88478,0 1.77635684e-15,6.9824 1.77635684e-15,18.8965 L1.77635684e-15,48.3399 C1.77635684e-15,60.2051 6.88478,67.18752 18.89648,67.18752 L39.69728,67.18752 L52.63668,78.66213 C55.76168,81.39651 57.71488,82.56838 60.25388,82.56838 Z M57.95898,72.16799 L46.09378,60.2539 C44.23828,58.3496 43.01758,57.9102 40.38088,57.9102 L19.28708,57.9102 C12.45118,57.9102 9.32618,54.5899 9.32618,47.9004 L9.32618,19.2871 C9.32618,12.5977 12.45118,9.3262 19.28708,9.3262 L66.30858,9.3262 C73.19338,9.3262 76.31838,12.5977 76.31838,19.2871 L76.31838,47.9004 C76.31838,54.5899 73.19338,57.9102 66.30858,57.9102 L61.57228,57.9102 C59.13088,57.9102 57.95898,58.8867 57.95898,61.5235 L57.95898,72.16799 Z" id="Shape"></path>
                    <path d="M31.586864,46.4010264 C31.586864,48.8403566 32.6845086,49.9787163 34.9205962,49.9787163 L50.8980986,49.9787163 C53.1341862,49.9787163 54.2318308,48.8403566 54.2318308,46.4010264 L54.2318308,34.3263545 C54.2318308,32.2529613 53.378061,31.1146017 51.7518684,30.8706437 L51.7518684,27.577627 C51.7518684,21.6012389 48.1741781,17.6170634 42.8890314,17.6170634 C37.6445167,17.6170634 34.0668264,21.6012389 34.0668264,27.577627 L34.0668264,30.8706437 C32.3999186,31.1146017 31.586864,32.2529613 31.586864,34.3263545 L31.586864,46.4010264 Z M38.4169394,30.7893798 L38.4169394,27.21169 C38.4169394,23.9593053 40.165111,21.804565 42.8890314,21.804565 C45.6535838,21.804565 47.4423873,23.9593053 47.4423873,27.21169 L47.4423873,30.7893798 L38.4169394,30.7893798 Z" id="Shape"></path>
                </g>
                <g id="Regular-S" transform="translate(26.221120, 1.367200)">
                    <path d="M60.59568,80.27345 C63.67188,80.27345 65.33208,78.12501 65.33208,74.75587 L65.33208,65.03907 L66.79688,65.03907 C78.80858,65.03907 85.10738,58.5449 85.10738,46.7285 L85.10738,18.3106 C85.10738,6.4942 78.80858,0 66.79688,0 L18.31058,0 C6.29888,0 1.77635684e-15,6.4942 1.77635684e-15,18.3106 L1.77635684e-15,46.7285 C1.77635684e-15,58.5449 6.29888,65.03907 18.31058,65.03907 L41.21098,65.03907 L54.29688,76.75782 C56.98238,79.1504 58.44728,80.27345 60.59568,80.27345 Z M58.78908,72.265634 L46.77738,60.0098 C45.21488,58.3496 43.99418,58.0078 41.65038,58.0078 L18.31058,58.0078 C10.44918,58.0078 7.03128,54.2481 7.03128,46.7285 L7.03128,18.3106 C7.03128,10.8399 10.44918,7.0801 18.31058,7.0801 L66.79688,7.0801 C74.65818,7.0801 78.07618,10.8399 78.07618,18.3106 L78.07618,46.7285 C78.07618,54.2481 74.65818,58.0078 66.79688,58.0078 L62.06058,58.0078 C59.66798,58.0078 58.78908,58.8867 58.78908,61.2793 L58.78908,72.265634 Z" id="Shape"></path>
                    <path d="M30.6894716,45.2043593 C30.6894716,47.4998959 31.6956605,48.5872076 33.8690186,48.5872076 L50.249777,48.5872076 C52.3829107,48.5872076 53.4294064,47.4998959 53.4294064,45.2043593 L53.4294064,32.7601131 C53.4294064,30.6659061 52.543891,29.5785944 50.7730249,29.4174318 L50.7730249,25.8735034 C50.7730249,19.9131252 47.2715173,15.9261233 42.0392856,15.9261233 C36.8473608,15.9261233 33.3055463,19.9131252 33.3055463,25.8735034 L33.3055463,29.4174318 C31.5749047,29.5785944 30.6894716,30.6659061 30.6894716,32.7601131 L30.6894716,45.2043593 Z M36.9681167,29.3771824 L36.9681167,25.4707617 C36.9681167,21.846252 38.9804944,19.4701342 42.0392856,19.4701342 C45.0980767,19.4701342 47.1507614,21.846252 47.1507614,25.4707617 L47.1507614,29.3771824 L36.9681167,29.3771824 Z" id="Shape"></path>
                </g>
            </g>
        </g>
    </g>
</svg>