<?xml version="1.0" encoding="UTF-8"?>
<!-- Generated by Pixelmator Pro 3.6.17 -->
<svg width="500" height="500" viewBox="0 0 500 500" xmlns="http://www.w3.org/2000/svg">
    <g id="Neutral">
        <clipPath id="clipPath1">
            <path d="M 99.999996 -0 L 399.999985 -0 C 455.228512 -0 500 44.771488 500 100.000015 L 500 400.000004 C 500 455.228471 455.228512 500 399.999985 500 L 99.999996 500 C 44.771529 500 -0 455.228471 -0 400.000004 L -0 100.000015 C -0 44.771488 44.771529 -0 99.999996 -0 Z"/>
        </clipPath>
        <path id="Path-copy" fill="#004a7f" stroke="none" clip-path="url(#clipPath1)" d="M 0 0 L 500 0 L 500 500 L 0 500 Z"/>
        <path id="Shape-copy" fill="#ffffff" fill-rule="evenodd" stroke="none" d="M 179.601242 336.325287 L 99.121094 356.445313 L 116.320732 287.64679 C 99.286705 265.207642 89.355469 238.238647 89.355469 209.228516 C 89.355469 131.158936 161.278473 67.871094 250 67.871094 C 338.721527 67.871094 410.644531 131.158936 410.644531 209.228516 C 410.644531 287.298035 338.721527 350.585938 250 350.585938 C 224.749496 350.585938 200.859634 345.459656 179.601242 336.325287 L 179.601242 336.325287 Z M 204.427078 197.494171 L 202.636719 197.494171 C 198.59166 197.494171 195.3125 200.773346 195.3125 204.81839 L 195.3125 269.042969 C 195.3125 273.088013 198.59166 276.367188 202.636719 276.367188 L 297.363281 276.367188 C 301.408325 276.367188 304.6875 273.088013 304.6875 269.042969 L 304.6875 204.81839 C 304.6875 200.773346 301.408325 197.494171 297.363281 197.494171 L 295.572906 197.494171 L 295.572906 179.292725 C 295.572906 154.184692 275.183624 133.789063 249.978653 133.789063 C 224.81636 133.789063 204.427078 154.184692 204.427078 179.292725 L 204.427078 197.494171 Z M 277.34375 197.494171 L 222.65625 197.494171 L 222.65625 179.295898 C 222.65625 164.231079 234.889816 151.99054 249.987183 151.99054 C 265.110168 151.99054 277.34375 164.231079 277.34375 179.295898 C 277.34375 189.358337 277.34375 195.424408 277.34375 197.494171 Z"/>
        <path id="Dots-copy" fill="#0096ff" fill-rule="evenodd" stroke="none" d="M 277.319946 414.057709 C 277.319946 429.169861 265.091675 441.40625 249.975281 441.40625 C 234.884506 441.40625 222.65625 429.169861 222.65625 414.057709 C 222.65625 398.974365 234.884506 386.71875 249.975281 386.71875 C 265.091675 386.71875 277.319946 398.974365 277.319946 414.057709 Z M 178.710938 414.057709 C 178.710938 429.169861 166.482681 441.40625 151.366287 441.40625 C 136.275497 441.40625 124.047256 429.169861 124.047256 414.057709 C 124.047256 398.974365 136.275497 386.71875 151.366287 386.71875 C 166.482681 386.71875 178.710938 398.974365 178.710938 414.057709 Z M 375.928925 414.057709 C 375.928925 429.169861 363.700684 441.40625 348.584259 441.40625 C 333.4935 441.40625 321.265259 429.169861 321.265259 414.057709 C 321.265259 398.974365 333.4935 386.71875 348.584259 386.71875 C 363.700684 386.71875 375.928925 398.974365 375.928925 414.057709 Z"/>
    </g>
</svg>
