<svg fill="none" viewBox="0 0 32 32" xmlns="http://www.w3.org/2000/svg"><path d="m19.702 3.2589c-9.8543 1.8625-12.194 10.612-12.108 13.905l1.8671-0.0587c0.1724-3.1904 1.3683-5.7595 2.9706-7.6607l0.0055-0.00655c0.4931-0.58509 0.8344-0.99011 1.3325-0.22344l5.918 9.0938 1.6715-0.8936-6.05-9.3179c-0.4926-0.76506-0.3246-0.96428 0.2766-1.3606 0.8147-0.49815 1.638-0.87583 2.4194-1.1337 0.6942-0.22375 0.8621 0.12782 0.9347 0.30198 1.7597 4.2265 3.8259 5.8727 5.0042 6.356 1.8295 0.6925 3.1928 0.9269 5.6226 0.1006 0.2342-0.08 0.3163-0.3451 0.1294-0.6471 0 0-1.6391-2.5675-3.2355-5.4212 0 0-1.822-3.8073-6.7587-3.0341z" fill="url(#i)"/><g filter="url(#m)"><path d="m8.4381 17.743s0-10.208 10.1-13.232" stroke="url(#h)" stroke-width=".5"/></g><g filter="url(#l)"><path d="m21.231 18.638c0.0754 0.1157 0.2303 0.1483 0.346 0.073 0.1157-0.0754 0.1483-0.2303 0.0729-0.346l-0.4189 0.273zm-6.4247-10.774c-0.0754-0.11567-0.2303-0.14833-0.3459-0.07295-0.1157 0.07538-0.1484 0.23027-0.073 0.34595l0.4189-0.273zm6.8436 10.501-6.8436-10.501-0.4189 0.273 6.8436 10.501 0.4189-0.273z" fill="url(#g)"/></g><g filter="url(#k)"><path d="m14.597 5.2811c1.4224-0.85043 3.1165-1.5189 5.1265-1.899 2.429-0.37989 4.0834 0.36616 5.1313 1.2017 0.5255 0.41899 0.8999 0.86175 1.1427 1.1994 0.1214 0.16874 0.2096 0.31097 0.2673 0.41043 0.0288 0.04971 0.0499 0.08871 0.0637 0.11496 0.0069 0.01312 0.012 0.02306 0.0152 0.02954l0.0035 0.00711 7e-4 0.00186 0.0039 0.00695c0.7992 1.4287 1.6089 2.7854 2.2187 3.7849 0.305 0.4997 0.56 0.9103 0.7388 1.1959 0.0895 0.1428 0.1598 0.2544 0.2079 0.3304l0.0549 0.0866 0.0184 0.029c0.0809 0.1309 0.0943 0.2387 0.0773 0.312-0.0162 0.0699-0.0629 0.1234-0.1411 0.1502-1.2045 0.4096-2.1367 0.5536-2.9902 0.5127s-1.637-0.2672-2.5463-0.6113c-1.1379-0.4674-3.1837-2.0822-4.9347-6.2877-0.0374-0.08977-0.1104-0.25566-0.2859-0.35969-0.1794-0.10634-0.4363-0.13127-0.8034-0.01295-0.196 0.06471-0.3946 0.13683-0.595 0.21639-0.6078 0.24134-1.2318 0.55105-1.8504 0.92932l-0.0036 0.00234c-5e-4 3.2e-4 -1e-3 6.4e-4 -0.0014 9.5e-4l-0.9188-1.352z" fill="url(#f)"/></g><path d="m8.5 30c3.5899 0 6.5-2.9101 6.5-6.5s-2.9101-6.5-6.5-6.5c-3.5898 0-6.5 2.9101-6.5 6.5s2.9102 6.5 6.5 6.5z" fill="url(#e)"/><path d="m8.5 30c3.5899 0 6.5-2.9101 6.5-6.5s-2.9101-6.5-6.5-6.5c-3.5898 0-6.5 2.9101-6.5 6.5s2.9102 6.5 6.5 6.5z" fill="url(#d)"/><path d="m23.53 30c3.5899 0 6.5-2.9101 6.5-6.5s-2.9101-6.5-6.5-6.5c-3.5898 0-6.5 2.9101-6.5 6.5s2.9102 6.5 6.5 6.5z" fill="url(#c)"/><path d="m23.53 30c3.5899 0 6.5-2.9101 6.5-6.5s-2.9101-6.5-6.5-6.5c-3.5898 0-6.5 2.9101-6.5 6.5s2.9102 6.5 6.5 6.5z" fill="url(#b)"/><g filter="url(#j)"><path d="m24.52 5.0145c-1.5384-1.4363-2.664-0.90253-3.0964-0.53188s-1.5161 2.5125 1.213 5.1983c2.7291 2.6858 5.9689 1.9818 5.9689 1.9818s-2.5471-5.2119-4.0855-6.6482z" fill="url(#a)" fill-opacity=".2"/></g><defs><filter id="m" x="7.5881" y="3.6715" width="11.621" height="14.672" color-interpolation-filters="sRGB" filterUnits="userSpaceOnUse"><feFlood flood-opacity="0" result="BackgroundImageFix"/><feBlend in="SourceGraphic" in2="BackgroundImageFix" result="shape"/><feGaussianBlur result="effect1_foregroundBlur_18_32153" stdDeviation="0.3"/></filter><filter id="l" x="13.847" y="7.25" width="8.3436" height="12.002" color-interpolation-filters="sRGB" filterUnits="userSpaceOnUse"><feFlood flood-opacity="0" result="BackgroundImageFix"/><feBlend in="SourceGraphic" in2="BackgroundImageFix" result="shape"/><feGaussianBlur result="effect1_foregroundBlur_18_32153" stdDeviation="0.25"/></filter><filter id="k" x="14.397" y="3.0803" width="15.477" height="9.8821" color-interpolation-filters="sRGB" filterUnits="userSpaceOnUse"><feFlood flood-opacity="0" result="BackgroundImageFix"/><feBlend in="SourceGraphic" in2="BackgroundImageFix" result="shape"/><feGaussianBlur result="effect1_foregroundBlur_18_32153" stdDeviation="0.1"/></filter><filter id="j" x="20.144" y="3.3709" width="9.1615" height="9.075" color-interpolation-filters="sRGB" filterUnits="userSpaceOnUse"><feFlood flood-opacity="0" result="BackgroundImageFix"/><feBlend in="SourceGraphic" in2="BackgroundImageFix" result="shape"/><feGaussianBlur result="effect1_foregroundBlur_18_32153" stdDeviation="0.35"/></filter><radialGradient id="i" cx="0" cy="0" r="1" gradientTransform="translate(26.137 5.7454) rotate(149.04) scale(21.936 32.388)" gradientUnits="userSpaceOnUse"><stop stop-color="#86BC09" offset="0"/><stop stop-color="#79B024" offset="1"/></radialGradient><linearGradient id="h" x1="18.538" x2="8.4381" y1="4.1869" y2="17.149" gradientUnits="userSpaceOnUse"><stop stop-color="#A7D050" stop-opacity="0" offset="0"/><stop stop-color="#A7D050" stop-opacity=".75" offset=".52604"/></linearGradient><linearGradient id="g" x1="14.597" x2="21.076" y1="8" y2="17.905" gradientUnits="userSpaceOnUse"><stop stop-color="#A7D050" stop-opacity="0" offset="0"/><stop stop-color="#A7D050" stop-opacity=".6" offset=".27604"/></linearGradient><radialGradient id="f" cx="0" cy="0" r="1" gradientTransform="translate(30.722 2.7672) rotate(118.5) scale(9.8547 14.55)" gradientUnits="userSpaceOnUse"><stop stop-color="#B8FF2C" offset=".49185"/><stop stop-color="#A7DC3E" stop-opacity="0" offset="1"/></radialGradient><radialGradient id="e" cx="0" cy="0" r="1" gradientTransform="translate(10.27 21.538) rotate(134.7) scale(9.0944)" gradientUnits="userSpaceOnUse"><stop stop-color="#FF7495" offset="0"/><stop stop-color="#FF1D61" offset=".50521"/><stop stop-color="#CF1D75" offset="1"/></radialGradient><radialGradient id="d" cx="0" cy="0" r="1" gradientTransform="translate(1.5841 20.46) rotate(34.38) scale(10.851)" gradientUnits="userSpaceOnUse"><stop stop-color="#902429" offset="0"/><stop stop-color="#D11146" stop-opacity="0" offset="1"/></radialGradient><radialGradient id="c" cx="0" cy="0" r="1" gradientTransform="translate(25.301 21.538) rotate(134.7) scale(9.0944)" gradientUnits="userSpaceOnUse"><stop stop-color="#FF7495" offset="0"/><stop stop-color="#FF1D61" offset=".50521"/><stop stop-color="#CF1D75" offset="1"/></radialGradient><radialGradient id="b" cx="0" cy="0" r="1" gradientTransform="translate(16.614 20.46) rotate(34.38) scale(10.851)" gradientUnits="userSpaceOnUse"><stop stop-color="#902429" offset="0"/><stop stop-color="#D11146" stop-opacity="0" offset="1"/></radialGradient><linearGradient id="a" x1="25.937" x2="22.102" y1="5.429" y2="9.5337" gradientUnits="userSpaceOnUse"><stop stop-color="#BDF45B" offset="0"/><stop stop-color="#BDF45B" stop-opacity="0" offset=".83333"/></linearGradient></defs></svg>
