<?xml version="1.0" encoding="UTF-8"?>
<svg width="3300px" height="2200px" viewBox="0 0 3300 2200" version="1.1" xmlns="http://www.w3.org/2000/svg" xmlns:xlink="http://www.w3.org/1999/xlink">
    <title>threema.phone</title>
    <g id="Export" stroke="none" stroke-width="1" fill="none" fill-rule="evenodd">
        <g id="threema.phone">
            <g id="Notes">
                <rect id="artboard" fill="#FFFFFF" fill-rule="nonzero" x="0" y="0" width="3300" height="2200"></rect>
                <line x1="263" y1="292" x2="3036" y2="292" id="Path" stroke="#000000" stroke-width="0.5"></line>
                <text id="Weight/Scale-Variations" fill="#000000" fill-rule="nonzero" font-family="Helvetica-Bold, Helvetica" font-size="13" font-weight="bold">
                    <tspan x="263" y="322">Weight/Scale Variations</tspan>
                </text>
                <text id="Ultralight" fill="#000000" fill-rule="nonzero" font-family="Helvetica" font-size="13" font-weight="normal">
                    <tspan x="533.711" y="322">Ultralight</tspan>
                </text>
                <text id="Thin" fill="#000000" fill-rule="nonzero" font-family="Helvetica" font-size="13" font-weight="normal">
                    <tspan x="843.422" y="322">Thin</tspan>
                </text>
                <text id="Light" fill="#000000" fill-rule="nonzero" font-family="Helvetica" font-size="13" font-weight="normal">
                    <tspan x="1138.63" y="322">Light</tspan>
                </text>
                <text id="Regular" fill="#000000" fill-rule="nonzero" font-family="Helvetica" font-size="13" font-weight="normal">
                    <tspan x="1426.84" y="322">Regular</tspan>
                </text>
                <text id="Medium" fill="#000000" fill-rule="nonzero" font-family="Helvetica" font-size="13" font-weight="normal">
                    <tspan x="1723.06" y="322">Medium</tspan>
                </text>
                <text id="Semibold" fill="#000000" fill-rule="nonzero" font-family="Helvetica" font-size="13" font-weight="normal">
                    <tspan x="2015.77" y="322">Semibold</tspan>
                </text>
                <text id="Bold" fill="#000000" fill-rule="nonzero" font-family="Helvetica" font-size="13" font-weight="normal">
                    <tspan x="2326.48" y="322">Bold</tspan>
                </text>
                <text id="Heavy" fill="#000000" fill-rule="nonzero" font-family="Helvetica" font-size="13" font-weight="normal">
                    <tspan x="2618.19" y="322">Heavy</tspan>
                </text>
                <text id="Black" fill="#000000" fill-rule="nonzero" font-family="Helvetica" font-size="13" font-weight="normal">
                    <tspan x="2917.4" y="322">Black</tspan>
                </text>
                <line x1="263" y1="1903" x2="3036" y2="1903" id="Path" stroke="#000000" stroke-width="0.5"></line>
                <g id="Group" transform="translate(264.367190, 1918.068400)" fill="#000000" fill-rule="nonzero">
                    <path d="M7.88086,15.761678 C12.18751,15.761678 15.77151,12.18746 15.77151,7.88082 C15.77151,3.5742 12.17771,0 7.87109,0 C3.57422,0 -8.8817842e-16,3.5742 -8.8817842e-16,7.88082 C-8.8817842e-16,12.18746 3.58398,15.761678 7.88086,15.761678 Z M7.88086,14.277303 C4.33593,14.277303 1.5039,11.43551 1.5039,7.88082 C1.5039,4.3261 4.32617,1.4843 7.87109,1.4843 C11.42581,1.4843 14.26761,4.3261 14.2773352,7.88082 C14.28711,11.43551 11.43551,14.277303 7.88086,14.277303 Z M5.02929,8.61324 L7.13867,8.61324 L7.13867,10.73238 C7.13867,11.17183 7.43164,11.47457 7.86133,11.47457 C8.31054,11.47457 8.60351,11.17183 8.60351,10.73238 L8.60351,8.61324 L10.73241,8.61324 C11.17191,8.61324 11.47461,8.32027 11.47461,7.89058 C11.47461,7.45113 11.17191,7.1484 10.73241,7.1484 L8.60351,7.1484 L8.60351,5.03902 C8.60351,4.5898 8.31054,4.2871 7.86133,4.2871 C7.43164,4.2871 7.13867,4.5898 7.13867,5.03902 L7.13867,7.1484 L5.02929,7.1484 C4.58008,7.1484 4.27734,7.45113 4.27734,7.89058 C4.27734,8.32027 4.58008,8.61324 5.02929,8.61324 Z" id="Shape"></path>
                </g>
                <g id="Group" transform="translate(283.254050, 1915.988300)" fill="#000000" fill-rule="nonzero">
                    <path d="M9.96095,19.92186 C15.41015,19.92186 19.92185,15.40037 19.92185,9.96092 C19.92185,4.5117 15.40035,0 9.95115,0 C4.51172,0 8.8817842e-16,4.5117 8.8817842e-16,9.96092 C8.8817842e-16,15.40037 4.52148,19.92186 9.96095,19.92186 Z M9.96095,18.2617 C5.35156,18.2617 1.66992,14.57029 1.66992,9.96092 C1.66992,5.3515 5.34179,1.6601 9.95115,1.6601 C14.56055,1.6601 18.25195,5.3515 18.261769,9.96092 C18.27145,14.57029 14.57035,18.2617 9.96095,18.2617 Z M6.24023,10.78123 L9.13085,10.78123 L9.13085,13.69139 C9.13085,14.17967 9.46285,14.5117 9.94145,14.5117 C10.42965,14.5117 10.77145,14.17967 10.77145,13.69139 L10.77145,10.78123 L13.68165,10.78123 C14.16995,10.78123 14.50195,10.4492 14.50195,9.97068 C14.50195,9.4824 14.16995,9.14061 13.68165,9.14061 L10.77145,9.14061 L10.77145,6.25 C10.77145,5.7422 10.42965,5.4101 9.94145,5.4101 C9.46285,5.4101 9.13085,5.7519 9.13085,6.25 L9.13085,9.14061 L6.24023,9.14061 C5.73242,9.14061 5.40039,9.4824 5.40039,9.97068 C5.40039,10.4492 5.74218,10.78123 6.24023,10.78123 Z" id="Shape"></path>
                </g>
                <g id="Group" transform="translate(307.179860, 1913.224600)" fill="#000000" fill-rule="nonzero">
                    <path d="M12.71484,25.43946 C19.67774,25.43946 25.43944,19.6777438 25.43944,12.72462 C25.43944,5.7617 19.66794,0 12.70504,0 C5.75195,0 0,5.7617 0,12.72462 C0,19.6777438 5.76172,25.43946 12.71484,25.43946 Z M12.71484,23.62306 C6.67969,23.62306 1.82617,18.75978 1.82617,12.72462 C1.82617,6.6797 6.66992,1.8262 12.70504,1.8262 C18.75004,1.8262 23.60354,6.6797 23.6132548,12.72462 C23.62304,18.75978 18.75974,23.62306 12.71484,23.62306 Z M7.80274,13.63282 L11.80664,13.63282 L11.80664,17.64649 C11.80664,18.1836 12.17774,18.5547 12.69534,18.5547 C13.23244,18.5547 13.60354,18.1836 13.60354,17.64649 L13.60354,13.63282 L17.62694,13.63282 C18.15434,13.63282 18.53514,13.26173 18.53514,12.74415 C18.53514,12.20704 18.16404,11.82618 17.62694,11.82618 L13.60354,11.82618 L13.60354,7.8223 C13.60354,7.2656 13.23244,6.8945 12.69534,6.8945 C12.17774,6.8945 11.80664,7.2754 11.80664,7.8223 L11.80664,11.82618 L7.80274,11.82618 C7.24609,11.82618 6.875,12.20704 6.875,12.74415 C6.875,13.26173 7.25586,13.63282 7.80274,13.63282 Z" id="Shape"></path>
                </g>
                <text id="Design-Variations" fill="#000000" fill-rule="nonzero" font-family="Helvetica-Bold, Helvetica" font-size="13" font-weight="bold">
                    <tspan x="263" y="1953">Design Variations</tspan>
                </text>
                <text id="Symbols-are-supported-in-up-to-nine-weights-and-three-scales." fill="#000000" fill-rule="nonzero" font-family="Helvetica" font-size="13" font-weight="normal">
                    <tspan x="263" y="1971">Symbols are supported in up to nine weights and three scales.</tspan>
                </text>
                <text id="For-optimal-layout-with-text-and-other-symbols,-vertically-align" fill="#000000" fill-rule="nonzero" font-family="Helvetica" font-size="13" font-weight="normal">
                    <tspan x="263" y="1989">For optimal layout with text and other symbols, vertically align</tspan>
                </text>
                <text id="symbols-with-the-adjacent-text." fill="#000000" fill-rule="nonzero" font-family="Helvetica" font-size="13" font-weight="normal">
                    <tspan x="263" y="2007">symbols with the adjacent text.</tspan>
                </text>
                <line x1="776" y1="1919" x2="776" y2="1933" id="Path" stroke="#00AEEF" stroke-width="0.5"></line>
                <g id="Group" transform="translate(778.490230, 1918.712900)" fill="#000000" fill-rule="nonzero">
                    <path d="M0.82032,14.414053 C1.33789,14.414053 1.5918,14.2187406 1.77735,13.681631 L3.03711,10.2246 L8.79887,10.2246 L10.05857,13.681631 C10.24417,14.2187406 10.49807,14.414053 11.00587,14.414053 C11.52347,14.414053 11.85547,14.101553 11.85547,13.613272 C11.85547,13.447256 11.82617,13.300772 11.74807,13.08593 L7.16797,0.8984 C6.94336,0.293 6.54297,0 5.91797,0 C5.3125,0 4.90235,0.293 4.6875,0.8887 L0.10743,13.09569 C0.0293,13.310538 -4.4408921e-16,13.457022 -4.4408921e-16,13.623038 C-4.4408921e-16,14.111319 0.3125,14.414053 0.82032,14.414053 Z M3.51563,8.74999 L5.88868,2.1777 L5.9375,2.1777 L8.31057,8.74999 L3.51563,8.74999 Z" id="Shape"></path>
                </g>
                <line x1="792.836" y1="1919" x2="792.836" y2="1933" id="Path" stroke="#00AEEF" stroke-width="0.5"></line>
                <text id="Margins" fill="#000000" fill-rule="nonzero" font-family="Helvetica-Bold, Helvetica" font-size="13" font-weight="bold">
                    <tspan x="776" y="1953">Margins</tspan>
                </text>
                <text id="Leading-and-trailing-margins-on-the-left-and-right-side-of-each-symbol" fill="#000000" fill-rule="nonzero" font-family="Helvetica" font-size="13" font-weight="normal">
                    <tspan x="776" y="1971">Leading and trailing margins on the left and right side of each symbol</tspan>
                </text>
                <text id="can-be-adjusted-by-modifying-the-x-location-of-the-margin-guidelines." fill="#000000" fill-rule="nonzero" font-family="Helvetica" font-size="13" font-weight="normal">
                    <tspan x="776" y="1989">can be adjusted by modifying the x-location of the margin guidelines.</tspan>
                </text>
                <text id="Modifications-are-automatically-applied-proportionally-to-all" fill="#000000" fill-rule="nonzero" font-family="Helvetica" font-size="13" font-weight="normal">
                    <tspan x="776" y="2007">Modifications are automatically applied proportionally to all</tspan>
                </text>
                <text id="scales-and-weights." fill="#000000" fill-rule="nonzero" font-family="Helvetica" font-size="13" font-weight="normal">
                    <tspan x="776" y="2025">scales and weights.</tspan>
                </text>
                <g id="Group" transform="translate(1291.248126, 1914.517396)" fill="#000000" fill-rule="nonzero">
                    <path d="M0.593673634,20.347834 L2.29289363,22.056824 C3.15226363,22.925964 4.13859363,22.867374 5.06632363,21.841984 L15.2420736,10.631044 C15.5057736,10.718934 15.7791736,10.699404 16.0916736,10.640804 L17.1561736,10.445494 L17.8202736,11.119324 L17.7811736,11.675964 C17.7420736,12.174014 17.8690736,12.554874 18.3573736,13.033384 L19.1190736,13.775574 C19.5975736,14.254084 20.2127736,14.283384 20.6815736,13.814634 L23.5916736,10.894714 C24.0604736,10.425964 24.0409736,9.83026404 23.5623736,9.35174404 L22.7909736,8.59002404 C22.3123736,8.11150404 21.9413736,7.95530404 21.4627736,7.99430404 L20.8866736,8.04310404 L20.2420736,7.40840404 L20.4862736,6.28530404 C20.6131736,5.71890404 20.4569736,5.27950404 19.8709736,4.69350404 L17.6737736,2.50600404 C14.3338736,-0.814295964 9.90027363,-0.736195964 7.00968363,2.15450404 C6.58976363,2.56460404 6.56046363,3.14080404 6.79484363,3.53140404 C7.02921363,3.89280404 7.48820363,4.12710404 8.13277363,3.96110404 C9.59757363,3.61930404 11.1209736,3.56070404 12.5467736,4.49820404 L11.9608736,5.95330404 C11.7655736,6.43180404 11.7362736,6.83220404 11.8631736,7.19350404 L0.798753634,17.584166 C-0.187576366,18.5021352 -0.265706366,19.478698 0.593673634,20.347834 Z M8.50387363,2.52560404 C10.9354736,0.748204036 14.2264736,1.05100404 16.4530736,3.27750404 L18.8846736,5.68960404 C19.1190736,5.92400404 19.1580736,6.10960404 19.0897736,6.45140404 L18.7674736,7.93570404 L20.2713736,9.42010404 L21.2577736,9.36151404 C21.5116736,9.35174404 21.5897736,9.37127404 21.7850736,9.56658404 L22.3612736,10.142764 L19.9198736,12.584164 L19.3436736,12.007994 C19.1483736,11.812684 19.1190736,11.734554 19.1288736,11.470884 L19.1971736,10.494324 L17.7030736,9.00994404 L16.1795736,9.26385404 C15.8573736,9.33221404 15.7108736,9.30291404 15.4666736,9.06854404 L13.4647736,7.06660404 C13.2108736,6.83220404 13.1815736,6.66620404 13.3377736,6.29510404 L14.2166736,4.20530404 C12.6541736,2.75020404 10.6229736,2.12520404 8.59167363,2.72090404 C8.43547363,2.75990404 8.37687363,2.63300404 8.50387363,2.52560404 Z M3.02531363,20.787304 L1.85343363,19.625184 C1.38468363,19.166198 1.49210363,18.824401 1.89249363,18.4630728 L12.7030736,8.28730404 L14.1678736,9.77166404 L4.17765363,20.757994 C3.82609363,21.158384 3.49406363,21.256044 3.02531363,20.787304 Z" id="Shape"></path>
                </g>
                <text id="Exporting" fill="#000000" fill-rule="nonzero" font-family="Helvetica-Bold, Helvetica" font-size="13" font-weight="bold">
                    <tspan x="1289" y="1953">Exporting</tspan>
                </text>
                <text id="Symbols-should-be-outlined-when-exporting-to-ensure-the" fill="#000000" fill-rule="nonzero" font-family="Helvetica" font-size="13" font-weight="normal">
                    <tspan x="1289" y="1971">Symbols should be outlined when exporting to ensure the</tspan>
                </text>
                <text id="design-is-preserved-when-submitting-to-Xcode." fill="#000000" fill-rule="nonzero" font-family="Helvetica" font-size="13" font-weight="normal">
                    <tspan x="1289" y="1989">design is preserved when submitting to Xcode.</tspan>
                </text>
                <text id="template-version" fill="#000000" fill-rule="nonzero" font-family="Helvetica" font-size="13" font-weight="normal">
                    <tspan x="2952" y="1933">Template v.2.0</tspan>
                </text>
                <text id="Requires-Xcode-12-or-greater" fill="#000000" fill-rule="nonzero" font-family="Helvetica" font-size="13" font-weight="normal">
                    <tspan x="2865" y="1951">Requires Xcode 12 or greater</tspan>
                </text>
                <text id="Generated-from-phone.fill" fill="#000000" fill-rule="nonzero" font-family="Helvetica" font-size="13" font-weight="normal">
                    <tspan x="2889" y="1969">Generated from phone.fill</tspan>
                </text>
                <text id="Typeset-at-100-points" fill="#000000" fill-rule="nonzero" font-family="Helvetica" font-size="13" font-weight="normal">
                    <tspan x="2912" y="1987">Typeset at 100 points</tspan>
                </text>
                <text id="Small" fill="#000000" fill-rule="nonzero" font-family="Helvetica" font-size="13" font-weight="normal">
                    <tspan x="263" y="726">Small</tspan>
                </text>
                <text id="Medium" fill="#000000" fill-rule="nonzero" font-family="Helvetica" font-size="13" font-weight="normal">
                    <tspan x="263" y="1156">Medium</tspan>
                </text>
                <text id="Large" fill="#000000" fill-rule="nonzero" font-family="Helvetica" font-size="13" font-weight="normal">
                    <tspan x="263" y="1586">Large</tspan>
                </text>
            </g>
            <g id="Guides" transform="translate(263.000000, 625.041000)">
                <g id="H-reference" transform="translate(76.976562, 0.500000)" fill="#27AAE1" fill-rule="nonzero">
                    <path d="M-1.22124533e-15,70.459 L2.685548,70.459 L12.011738,45.9961 L44.775438,45.9961 L54.150438,70.459 L56.787138,70.459 L29.638638,0 L27.148438,0 L-1.22124533e-15,70.459 Z M28.369138,3.3203 L28.466838,3.3203 L43.896438,43.75 L12.890638,43.75 L28.369138,3.3203 Z" id="Shape"></path>
                </g>
                <line x1="0" y1="70.959" x2="2773" y2="70.959" id="Baseline-S" stroke="#27AAE1" stroke-width="0.5"></line>
                <line x1="0" y1="0.5" x2="2773" y2="0.5" id="Capline-S" stroke="#27AAE1" stroke-width="0.5"></line>
                <g id="H-reference" transform="translate(76.976562, 430.500000)" fill="#27AAE1" fill-rule="nonzero">
                    <path d="M-1.22124533e-15,70.459 L2.685548,70.459 L12.011738,45.9961 L44.775438,45.9961 L54.150438,70.459 L56.787138,70.459 L29.638638,0 L27.148438,0 L-1.22124533e-15,70.459 Z M28.369138,3.3203 L28.466838,3.3203 L43.896438,43.75 L12.890638,43.75 L28.369138,3.3203 Z" id="Shape"></path>
                </g>
                <line x1="0" y1="500.959" x2="2773" y2="500.959" id="Baseline-M" stroke="#27AAE1" stroke-width="0.5"></line>
                <line x1="0" y1="430.499" x2="2773" y2="430.499" id="Capline-M" stroke="#27AAE1" stroke-width="0.5"></line>
                <g id="H-reference" transform="translate(76.976562, 860.500000)" fill="#27AAE1" fill-rule="nonzero">
                    <path d="M-1.22124533e-15,70.459 L2.685548,70.459 L12.011738,45.9961 L44.775438,45.9961 L54.150438,70.459 L56.787138,70.459 L29.638638,0 L27.148438,0 L-1.22124533e-15,70.459 Z M28.369138,3.3203 L28.466838,3.3203 L43.896438,43.75 L12.890638,43.75 L28.369138,3.3203 Z" id="Shape"></path>
                </g>
                <line x1="0" y1="930.959" x2="2773" y2="930.959" id="Baseline-L" stroke="#27AAE1" stroke-width="0.5"></line>
                <line x1="0" y1="860.499" x2="2773" y2="860.499" id="Capline-L" stroke="#27AAE1" stroke-width="0.5"></line>
                <line x1="1127.86" y1="405.749" x2="1127.86" y2="525.079" id="left-margin" stroke="#00AEEF" stroke-width="0.5"></line>
                <line x1="1245.83" y1="405.749" x2="1245.83" y2="525.079" id="right-margin" stroke="#00AEEF" stroke-width="0.5"></line>
            </g>
            <g id="Symbols" transform="translate(1389.373100, 622.020000)" fill="#000000" fill-rule="nonzero">
                <g id="Semibold-L" transform="translate(591.490000, 836.760000)">
                    <path d="M92.9199,124.5149 C103.6129,124.5149 111.1819,121.2923 118.0669,113.968 C118.4569,113.5286 118.8969,113.0403 119.2869,112.6009 C122.9489,108.4993 124.8049,104.10477 124.8049,100.10086 C124.8049,95.46219 122.4609,91.36062 117.0899,87.64969 L98.1929,74.5638 C92.3829,70.5598 85.6929,70.1692 80.3223,75.5403 L75.7813,80.0325 C74.1211,81.7415 72.4121,81.9368 70.2637,80.4231 C66.9922,78.2259 60.6446,72.7571 56.0059,68.1673 C51.2696,63.4798 47.0703,58.6946 44.5801,54.7395 C43.1153,52.5911 43.2617,50.8821 44.9707,49.222 L49.4629,44.6809 C54.834,39.3098 54.4922,32.5716 50.4395,26.8098 L36.9629,7.5227 C33.4473,2.4446 29.1016,0.052 24.4629,0.00223713935 C20.4102,-0.0456 16.1621,1.761 12.0606,5.3255 C11.6211,5.7649 11.1328,6.1555 10.7422,6.4973 C3.2715,13.4798 0,20.9505 0,32.1809 C0,50.8333 10.791,72.513 31.6407,93.16727 C52.3926,113.7239 73.7305,124.5149 92.9199,124.5149 Z M92.8219,114.4563 C76.8067,114.6516 57.1289,103.56766 39.209,85.843 C21.2403,68.0696 9.961,47.7571 10.1563,31.6927 C10.2539,24.9544 12.6465,18.9973 17.4317,14.7493 C17.8711,14.3587 18.2617,14.0169 18.7012,13.6751 C20.6055,12.0149 22.6074,11.136 24.4141,11.136 C26.3184,11.136 27.9297,11.9661 29.2481,13.9192 L41.0157,31.3997 C42.5781,33.7923 42.6758,36.4778 40.2344,38.8704 L35.4492,43.5579 C30.7617,48.0989 31.1035,53.3723 33.9356,57.5716 C37.0606,62.1126 43.3106,69.2903 49.1699,75.1009 C55.4688,81.302 63.1348,88.08914 67.4317,91.06766 C71.6309,93.89969 76.9043,94.24148 81.4453,89.55398 L86.1329,84.7688 C88.5259,82.3274 91.2109,82.4251 93.6039,83.9876 L110.6929,95.36453 C112.6949,96.682891 113.4769,98.34305 113.4769,100.19852 C113.4769,102.00516 112.6469,104.00711 110.9379,105.96023 C110.5959,106.39969 110.2539,106.79031 109.9119,107.2298 C105.6149,112.0149 99.6089,114.4075 92.8219,114.4563 Z" id="Shape"></path>
                    <path d="M90.9750131,43.1435571 C90.9750131,46.7874144 92.6310609,48.4635971 96.0534944,48.4635971 L119.93697,48.4635971 C123.359479,48.4635971 124.978672,46.7874144 124.978672,43.1435571 L124.978672,24.8147935 C124.978672,21.5717413 123.617085,19.8955511 120.893835,19.6404771 L120.893835,14.2475791 C120.893835,5.72088232 115.70494,-2.27373675e-13 107.976843,-2.27373675e-13 C100.285524,-2.27373675e-13 95.0598506,5.72088232 95.0598506,14.2475791 L95.0598506,19.6404771 C92.3366758,19.8955511 90.9750131,21.5717413 90.9750131,24.8147935 L90.9750131,43.1435571 Z M100.54313,19.531149 L100.54313,13.8467591 C100.54313,8.67244267 103.487207,5.28356989 107.976843,5.28356989 C112.503333,5.28356989 115.447334,8.67244267 115.447334,13.8467591 L115.447334,19.531149 L100.54313,19.531149 Z" id="Shape"></path>
                </g>
                <g id="Regular-L" transform="translate(0.000000, 838.419822)">
                    <path d="M90.0879,120.950778 C100.4879,120.950778 107.8129,118.069978 114.2089,111.087478 C114.5999,110.599278 114.9899,110.159778 115.3809,109.720378 C119.1899,105.618778 120.9469,101.468378 120.9469,97.562128 C120.9469,93.314088 118.5549,89.359008 113.4279,85.843378 L95.1659,73.196878 C89.7949,69.485978 83.4473,68.948878 78.0762,74.319978 L73.3887,78.909778 C71.9727,80.325778 70.5567,80.521078 68.9453,79.593378 C65.7715,77.640278 58.8379,71.829678 53.711,66.702778 C48.1934,61.233978 43.8477,56.253578 41.3574,51.956678 C40.4297,50.345378 40.5762,48.978178 41.9922,47.562178 L46.6309,42.874678 C51.9531,37.454678 51.416,31.155878 47.7539,25.784778 L35.1074,7.52307804 C31.5918,2.39607804 27.6367,0.101178039 23.3887,0.00357803903 C19.4824,-0.094121961 15.2832,1.81017804 11.2305,5.56997804 C10.7422,5.96057804 10.3028,6.35117804 9.8633,6.74177804 C2.9297,13.089478 0,20.413678 0,30.716378 C0,48.489878 11.3281,70.023078 31.1524,89.798458 C50.8301,109.476178 72.3145,120.950778 90.0879,120.950778 Z M90.1369,112.601178 C74.0723,112.845378 53.8086,100.589478 37.3047,84.183178 C20.752,67.679278 8.1055,46.780878 8.3496,30.716378 C8.4473,23.685178 10.8887,17.630478 15.918,13.040678 C16.2598,12.747678 16.6016,12.503578 16.9434,12.161778 C19.0918,10.208578 21.3379,9.23207804 23.291,9.23207804 C25.2442,9.23207804 26.9043,10.062178 28.2227,12.015278 L40.4297,30.276978 C41.8946,32.474278 42.1387,34.964478 39.7461,37.308178 L34.4239,42.581678 C30.4688,46.536778 30.6641,51.566078 33.4473,55.521078 C36.7188,60.110978 42.6758,66.995678 48.0469,72.366778 C53.4668,77.786778 60.8399,84.232078 65.4297,87.454708 C69.3848,90.286738 74.4141,90.482058 78.3692,86.526978 L83.6426,81.204678 C85.9859,78.812178 88.4769,79.007478 90.6739,80.472278 L108.9359,92.728148 C110.8889,94.046508 111.7189,95.706662 111.7189,97.659788 C111.7189,99.612908 110.6929,101.859008 108.7399,104.056268 C108.4469,104.398068 108.2029,104.691038 107.9099,105.032838 C103.3199,110.110978 97.1679,112.503578 90.1369,112.601178 Z" id="Shape"></path>
                    <path d="M86.9269,44.1268222 C86.9269,47.73722 88.4950258,49.41476 91.8135882,49.41476 L116.101464,49.41476 C119.420027,49.41476 121.0246,47.73722 121.0246,44.1268222 L121.0246,25.1633144 C121.0246,21.7353249 119.56589,20.0942248 116.611949,19.9483609 L116.611949,14.0769823 C116.611949,5.61627602 111.506429,0.000178039028 103.957526,0.000178039028 C96.4086241,0.000178039028 91.3030287,5.61627602 91.3030287,14.0769823 L91.3030287,19.9483609 C88.3490877,20.0942248 86.9269,21.7353249 86.9269,25.1633144 L86.9269,44.1268222 Z M95.679232,19.9119136 L95.679232,13.6758378 C95.679232,7.98677052 98.9978691,4.2305312 103.957526,4.2305312 C108.917184,4.2305312 112.272268,7.98677052 112.272268,13.6758378 L112.272268,19.9119136 L95.679232,19.9119136 Z" id="Shape"></path>
                </g>
                <g id="Semibold-M" transform="translate(604.577400, 419.847838)">
                    <path d="M73.3398,98.2923616 C81.9336,98.2923616 87.8418,95.7044616 93.3105,89.8450516 C93.6525,89.4544316 94.0425,89.0638016 94.3845,88.6731816 C97.1675,85.4993516 98.6325,81.9837216 98.6325,78.8587216 C98.6325,75.0989616 96.7285,71.7298616 92.3825,68.7024616 L77.539,58.3997616 C72.8027,55.0794616 67.3828,54.8841616 63.2812,59.0344616 L59.7656,62.5501616 C58.3496,63.9661616 56.9824,64.0637616 55.2246,62.7942616 C52.5879,60.8899616 47.8515,56.7883616 44.58,53.5169616 C41.3574,50.2942616 37.9883,46.4856616 36.084,43.6048616 C34.8144,41.8469616 34.8633,40.4798616 36.2793,39.0637616 L39.7949,35.5481616 C43.9453,31.4466616 43.75,26.0266616 40.4297,21.2903616 L29.7363,6.05596161 C26.9043,2.00326161 23.291,0.0501616057 19.5312,0.00126160573 C16.3086,-0.0475383943 12.9883,1.31966161 9.7656,4.05406161 C9.375,4.39586161 8.9843,4.73766161 8.6914,5.03056161 C2.6367,10.6458616 0,16.4563616 0,25.6360616 C0,40.4309616 8.1054,57.4231616 24.7558,73.8782616 C41.3574,90.2356816 57.959,98.2923616 73.3398,98.2923616 Z M73.291,89.6009116 C60.8398,89.7473916 45.7031,81.4954416 31.3965,67.3841616 C17.0898,53.2239616 8.6914,37.5501616 8.8379,25.1477616 C8.8867,19.9719616 10.7422,15.4309616 14.3554,12.3059616 C14.7461,12.0130616 15.0879,11.7200616 15.4785,11.3782616 C16.7968,10.3040616 18.2129,9.71806161 19.4824,9.71806161 C20.8984,9.71806161 22.1679,10.3040616 23.1445,11.7688616 L32.1289,25.0989616 C33.3496,26.9544616 33.3496,29.0051616 31.5429,30.7630616 L27.9297,34.2786616 C23.9746,38.0872616 24.3164,42.3841616 26.6113,45.7532616 C29.1015,49.3665616 34.1308,55.0794616 38.623,59.5227616 C43.6035,64.4055616 49.7558,69.8743616 53.0761,72.2180616 C56.4453,74.5130216 60.7422,74.8548216 64.5507,70.8997616 L68.0664,67.3352616 C69.8242,65.4798616 71.9238,65.5286616 73.7304,66.7493616 L86.6699,75.2942716 C88.1836,76.2708316 88.7207,77.5403616 88.7207,78.9075516 C88.7207,80.2259116 88.1347,81.6419316 87.0117,82.9602816 C86.7187,83.3509116 86.4257,83.6927086 86.1328,84.0833335 C82.959,87.6966116 78.4179,89.5520816 73.291,89.6009116 Z" id="Shape"></path>
                    <path d="M71.7495,34.2694937 C71.7495,37.178655 73.0347015,38.5387602 75.7562135,38.5387602 L94.6179115,38.5387602 C97.3395009,38.5387602 98.6624023,37.178655 98.6624023,34.2694937 L98.6624023,19.7993606 C98.6624023,17.3058602 97.6040193,15.9456775 95.6007399,15.6812083 L95.6007399,11.6008926 C95.6007399,4.64917491 91.3672079,0.00216160573 85.2059511,0.00216160573 C79.0069171,0.00216160573 74.8112398,4.64917491 74.8112398,11.6008926 L74.8112398,15.6812083 C72.7701057,15.9456775 71.7495,17.3058602 71.7495,19.7993606 L71.7495,34.2694937 Z M79.6872951,15.5679307 L79.6872951,11.260905 C79.6872951,7.33162617 81.8418384,4.72477071 85.2059511,4.72477071 C88.5322866,4.72477071 90.7246072,7.29386696 90.7246072,11.260905 L90.7246072,15.5679307 L79.6872951,15.5679307 Z" id="Shape"></path>
                </g>
                <g id="Regular-M" transform="translate(12.717400, 421.117476)">
                    <path d="M70.9961,95.5090239 C79.541,95.5090239 85.1562,93.2141239 90.0875,87.6476839 C90.4785,87.2570539 90.8695,86.8176039 91.2105,86.4269739 C94.1405,83.1554929 95.5075,79.9328339 95.5075,76.8566639 C95.5075,73.3410439 93.4575,70.0695239 89.1115,67.0422239 L74.9023,57.1789239 C70.5078,54.1516239 65.3808,53.8098239 61.2793,57.8625239 L57.5195,61.6223239 C56.3965,62.7453239 55.4199,62.7941239 54.3457,62.1105239 C51.709,60.4504239 46.3867,55.8117239 42.7734,52.1984239 C38.9648,48.4387239 35.3027,44.2395239 33.3496,41.1633239 C32.7148,40.0402239 32.7636,39.1125239 33.8867,37.9895239 L37.5976,34.2297239 C41.6992,30.1281239 41.3574,24.9523239 38.33,20.6066239 L28.4668,6.39772394 C25.4394,2.05202394 22.1679,0.0500239436 18.6523,0.00122394358 C15.5761,-0.0476760564 12.3535,1.36842394 9.082,4.29802394 C8.6425,4.68872394 8.2519,5.03052394 7.8613,5.37232394 C2.2949,10.3527239 0,15.9680239 0,24.4152239 C0,38.3801239 8.5937,55.3723239 24.3652,71.1437239 C40.039,86.8176039 57.08,95.5090239 70.9961,95.5090239 Z M71.0449,87.9894739 C58.5937,88.2336139 42.6269,78.6633039 29.9804,66.0656239 C17.2363,53.3703239 7.2265,36.8664239 7.4707,24.4152239 C7.5683,19.0441239 9.4726,14.4055239 13.2812,11.0852239 C13.623,10.7922239 13.8672,10.5480239 14.209,10.3039239 C15.6738,9.03442394 17.2363,8.35082394 18.6523,8.35082394 C20.0683,8.35082394 21.3379,8.88792394 22.2656,10.3527239 L31.7383,24.5617239 C32.7636,26.0754239 32.8613,27.7844239 31.3476,29.2980239 L27.0507,33.5949239 C23.6816,36.9641239 23.9257,41.0656239 26.3672,44.3371239 C29.1504,48.0969239 33.9843,53.5656239 37.7441,57.2766239 C41.455,61.0363239 47.3633,66.3098239 51.1718,69.1418239 C54.4433,71.5832239 58.5449,71.8273239 61.914,68.4582239 L66.2109,64.1613239 C67.7246,62.6477239 69.3847,62.7453239 70.9472,63.7219239 L85.1562,73.1945539 C86.6211,74.1711139 87.1582,75.3918239 87.1582,76.8566639 C87.1582,78.2726839 86.4746,79.8351839 85.205,81.3000239 C84.9121,81.6418239 84.7168,81.8859619 84.4238,82.2277579 C81.1035,86.0363539 76.4648,87.8918239 71.0449,87.9894739 Z" id="Shape"></path>
                    <path d="M68.4095,35.1809368 C68.4095,38.0118112 69.6551389,39.3329014 72.2595089,39.3329014 L91.8114163,39.3329014 C94.4157863,39.3329014 95.6613479,38.0118112 95.6613479,35.1809368 L95.6613479,20.1583867 C95.6613479,17.5162837 94.5667565,16.1951935 92.3398504,16.0442228 L92.3398504,11.5903169 C92.3398504,4.64520124 88.1879013,0.00252394358 82.0354626,0.00252394358 C75.8830239,0.00252394358 71.7310748,4.64520124 71.7310748,11.5903169 L71.7310748,16.0442228 C69.5041687,16.1951935 68.4095,17.5162837 68.4095,20.1583867 L68.4095,35.1809368 Z M75.6565301,16.0064995 L75.6565301,11.1751281 C75.6565301,6.75894553 78.2232542,3.81482379 82.0354626,3.81482379 C85.847671,3.81482379 88.4143178,6.75894553 88.4143178,11.1751281 L88.4143178,16.0064995 L75.6565301,16.0064995 Z" id="Shape"></path>
                </g>
                <g id="Semibold-S" transform="translate(614.805960, -0.000000)">
                    <path d="M58.05664,77.88625 C64.99024,77.88625 69.62894,75.83547 73.92574,71.14797 C74.21874,70.855 74.51174,70.5132 74.80474,70.17141 C77.00194,67.63234 78.17384,64.84914 78.17384,62.4077 C78.17384,59.3316 76.61134,56.5972 72.94924,54.0581 L61.32814,45.9527 C57.47074,43.3159 53.12504,43.1695 49.95114,46.3921 L47.11914,49.2241 C45.99614,50.3472 45.01954,50.396 43.70114,49.4195 C41.55274,47.857 37.89064,44.5366 35.49804,42.1441 C33.20314,39.8491 30.41994,36.7241 28.90624,34.5757 C27.92974,33.3062 27.97854,32.2808 29.10154,31.2066 L31.93364,28.3745 C35.15624,25.2007 35.00974,20.8062 32.32424,16.9976 L23.92574,5.0347 C21.53324,1.6655 18.60354,0.0054 15.52734,0.0054 C13.03714,-0.0434 10.40044,1.0308 7.86134,3.1792 C7.51954,3.4722 7.17774,3.7652 6.88474,4.0093 C2.09964,8.4527 0,12.9448 0,20.3667 C0,32.0366 6.29884,45.5132 19.53124,58.648 C32.71484,71.68508 45.94724,77.88625 58.05664,77.88625 Z M58.00784,70.56203 C48.24214,70.70852 36.23044,64.16555 25.14644,53.1792 C14.01364,42.1929 7.27544,29.7417 7.42184,19.9761 C7.47074,15.9722 8.93554,12.5054 11.71874,10.1128 C12.06054,9.8687 12.35354,9.6245 12.64644,9.3804 C13.57424,8.648 14.59964,8.2085 15.57614,8.2085 C16.65044,8.2085 17.62694,8.648 18.35934,9.771 L25.34184,20.2202 C26.26954,21.5874 26.22074,23.0523 25.00004,24.273 L22.07034,27.1538 C18.79884,30.2788 19.14064,33.7456 21.09374,36.5288 C23.19334,39.4585 27.19724,43.9995 30.51754,47.2222 C34.13084,50.7866 39.06254,55.23 41.79684,57.232 C44.53124,59.1851 48.04684,59.478 51.17184,56.2554 L54.05274,53.3257 C55.22464,52.0562 56.73824,52.0562 58.05664,52.9351 L68.26174,59.6734 C69.38474,60.4058 69.77544,61.3823 69.77544,62.4077 C69.77544,63.3843 69.38474,64.40969 68.65234,65.33742 C68.40824,65.63039 68.16404,65.97219 67.87114,66.26516 C65.52734,69.04836 62.01174,70.5132 58.00784,70.56203 Z" id="Shape"></path>
                    <path d="M57.72094,26.2062947 C57.72094,28.4271774 58.7202881,29.4635944 60.7561291,29.4635944 L75.3028103,29.4635944 C77.3386513,29.4635944 78.3379993,28.4271774 78.3379993,26.2062947 L78.3379993,15.2129366 C78.3379993,13.3252205 77.5606865,12.2888035 76.0801231,12.0666925 L76.0801231,9.06857281 C76.0801231,3.62738364 72.822823,0 68.0109731,0 C63.2361163,0 59.9788162,3.62738364 59.9788162,9.06857281 L59.9788162,12.0666925 C58.4611838,12.2888035 57.72094,13.3252205 57.72094,15.2129366 L57.72094,26.2062947 Z M63.9393669,11.992706 L63.9393669,8.73540629 C63.9393669,5.77427989 65.5309858,3.81250142 68.0109731,3.81250142 C70.5279536,3.81250142 72.1565657,5.77427989 72.1565657,8.73540629 L72.1565657,11.992706 L63.9393669,11.992706 Z" id="Shape"></path>
                </g>
                <g id="Regular-S" transform="translate(22.385960, 0.736276)">
                    <path d="M56.54294,76.2222442 C63.57424,76.2222442 67.91994,74.3667742 71.82614,69.9234142 C72.16794,69.5327842 72.46094,69.1421642 72.80274,68.8003642 C75.09764,66.1636442 76.17184,63.6245842 76.17184,61.1832242 C76.17184,58.2535242 74.46294,55.5191242 70.75194,52.9800242 L59.57034,45.1675242 C55.95704,42.6773242 51.75784,42.4820242 48.58394,45.6070242 L45.55664,48.6343242 C44.67774,49.5132242 43.99414,49.5132242 43.26174,49.0249242 C41.06444,47.6089242 36.96294,43.8980242 34.37504,41.3101242 C31.78714,38.7222242 28.61324,35.2066242 27.14844,32.9605242 C26.66014,32.1792242 26.66014,31.5445242 27.53904,30.6656242 L30.61524,27.5894242 C33.74024,24.4644242 33.54494,20.2164242 31.00584,16.6031242 L23.24214,5.47032422 C20.65434,1.75932422 17.91994,0.0503242173 14.99024,0.00152421734 C12.59764,-0.0472757827 10.05864,1.07572422 7.42184,3.37072422 C7.03124,3.71252422 6.68944,4.05422422 6.29884,4.39602422 C1.85544,8.25352422 0,12.6480242 0,19.6304242 C0,30.6656242 6.64064,44.2886242 19.28714,56.9351242 C31.88474,69.5327842 45.50784,76.2222442 56.54294,76.2222442 Z M56.59184,69.5816142 C46.82614,69.7769242 34.13084,62.2085242 24.31644,52.3941242 C14.40434,42.5796242 6.39644,29.3472242 6.64064,19.5816242 C6.73824,15.4312242 8.20314,11.9156242 11.13284,9.42532422 C11.42574,9.18122422 11.66994,8.98592422 11.96294,8.74172422 C12.93944,7.96052422 14.06254,7.47222422 15.03904,7.47222422 C16.11324,7.47222422 17.08984,7.86282422 17.77344,8.93712422 L25.19534,20.1187242 C25.92774,21.1929242 25.92774,22.3160242 24.95114,23.2437242 L21.43554,26.7593242 C18.60354,29.6402242 18.84764,33.0582242 20.99614,35.7925242 C23.38864,38.9175242 27.29494,43.2632242 29.93164,45.8023242 C32.51954,48.3902242 37.30474,52.7847242 40.42974,55.2261242 C43.16404,57.3257242 46.58204,57.6187242 49.41404,54.7378242 L52.92974,51.2222242 C53.90624,50.2945242 55.02934,50.2945242 56.10354,51.0269242 L67.23634,58.4488242 C68.35934,59.1324242 68.70114,60.0601242 68.70114,61.1343242 C68.70114,62.1597242 68.26174,63.2827842 67.43164,64.2593442 C67.23634,64.5523142 67.04104,64.7964542 66.79684,65.0406042 C64.30664,68.0191142 60.74214,69.4839542 56.59184,69.5816142 Z" id="Shape"></path>
                    <path d="M55.18094,27.0297883 C55.18094,29.1487451 56.1097297,30.1524174 58.1159065,30.1524174 L73.2366065,30.1524174 C75.2056529,30.1524174 76.1716491,29.1487451 76.1716491,27.0297883 L76.1716491,15.5427917 C76.1716491,13.6096776 75.3542502,12.6060053 73.7196046,12.4572398 L73.7196046,9.18592123 C73.7196046,3.68403369 70.4874437,0.00372421734 65.6576913,0.00372421734 C60.8651454,0.00372421734 57.5957781,3.68403369 57.5957781,9.18592123 L57.5957781,12.4572398 C55.9982628,12.6060053 55.18094,13.6096776 55.18094,15.5427917 L55.18094,27.0297883 Z M60.9766123,12.4200864 L60.9766123,8.81415973 C60.9766123,5.46845846 62.8341918,3.27511887 65.6576913,3.27511887 C68.4811909,3.27511887 70.3759767,5.46845846 70.3759767,8.81415973 L70.3759767,12.4200864 L60.9766123,12.4200864 Z" id="Shape"></path>
                </g>
            </g>
        </g>
    </g>
</svg>