<?xml version="1.0" encoding="UTF-8"?>
<!-- Generated by Pixelmator Pro 3.7 -->
<svg width="296" height="20" viewBox="0 0 296 20" xmlns="http://www.w3.org/2000/svg">
    <g id="Group">
        <path id="Path" fill="#ffffff" stroke="none" d="M 156.737778 18.67111 C 156.737778 19.405037 156.142807 20 155.40889 20 C 154.674973 20 154.080002 19.405037 154.080002 18.67111 C 154.080002 17.937187 154.674973 17.342222 155.40889 17.342222 C 156.142807 17.342222 156.737778 17.937187 156.737778 18.67111 Z"/>
        <path id="path1" fill="#ffffff" stroke="none" d="M 161.080002 18.67111 C 161.080002 19.405037 160.485046 20 159.751114 20 C 159.017181 20 158.422226 19.405037 158.422226 18.67111 C 158.422226 17.937187 159.017181 17.342222 159.751114 17.342222 C 160.485046 17.342222 161.080002 17.937187 161.080002 18.67111 Z"/>
        <path id="path2" fill="#ffffff" stroke="none" d="M 165.417786 18.67111 C 165.417786 19.405037 164.822815 20 164.088898 20 C 163.354965 20 162.759995 19.405037 162.759995 18.67111 C 162.759995 17.937187 163.354965 17.342222 164.088898 17.342222 C 164.822815 17.342222 165.417786 17.937187 165.417786 18.67111 Z"/>
    </g>
    <path id="path3" fill="#ffffff" stroke="none" d="M 6.377778 3.595556 L 0 3.595556 L 0 -0.164444 L 17.373333 -0.164444 L 17.373333 3.595556 L 10.995556 3.595556 L 10.995556 19.773335 L 6.382222 19.773335 L 6.382222 3.595556 Z"/>
    <path id="path4" fill="#ffffff" stroke="none" d="M 38.133335 -0.164444 L 38.133335 19.768888 L 33.52 19.768888 L 33.52 11.595555 L 24.462223 11.595555 L 24.462223 19.768888 L 19.848888 19.768888 L 19.848888 -0.164444 L 24.462223 -0.164444 L 24.462223 7.697778 L 33.52 7.697778 L 33.52 -0.164444 L 38.133335 -0.164444 Z"/>
    <path id="path5" fill="#ffffff" stroke="none" d="M 55.115555 19.773335 L 51.271111 14.217779 L 47.026665 14.217779 L 47.026665 19.773335 L 42.413334 19.773335 L 42.413334 -0.164444 L 51.044445 -0.164444 C 52.808887 -0.164444 54.34222 0.128889 55.644444 0.719999 C 56.946671 1.306665 57.946671 2.142221 58.648891 3.226667 C 59.351109 4.311111 59.702225 5.591112 59.702225 7.071111 C 59.702225 8.551111 59.346664 9.831112 58.635551 10.902223 C 57.924446 11.973333 56.911114 12.795556 55.604446 13.364445 L 60.075554 19.773335 L 55.119999 19.773335 Z M 53.951111 4.493334 C 53.23111 3.893333 52.17778 3.595556 50.791111 3.595556 L 47.031113 3.595556 L 47.031113 10.542222 L 50.791111 10.542222 C 52.17778 10.542222 53.23111 10.240001 53.951111 9.631111 C 54.671112 9.022222 55.035557 8.168888 55.035557 7.066667 C 55.035557 5.964444 54.675552 5.088889 53.951111 4.488888 Z"/>
    <path id="path6" fill="#ffffff" stroke="none" d="M 78.782219 16.071112 L 78.782219 19.773335 L 63.346664 19.773335 L 63.346664 -0.164444 L 78.41333 -0.164444 L 78.41333 3.537777 L 67.933334 3.537777 L 67.933334 7.866667 L 77.191109 7.866667 L 77.191109 11.453334 L 67.933334 11.453334 L 67.933334 16.066668 L 78.782219 16.066668 Z"/>
    <path id="path7" fill="#ffffff" stroke="none" d="M 97.893333 16.071112 L 97.893333 19.773335 L 82.457779 19.773335 L 82.457779 -0.164444 L 97.524445 -0.164444 L 97.524445 3.537777 L 87.044449 3.537777 L 87.044449 7.866667 L 96.302216 7.866667 L 96.302216 11.453334 L 87.044449 11.453334 L 87.044449 16.066668 L 97.893333 16.066668 Z"/>
    <path id="path8" fill="#ffffff" stroke="none" d="M 119.706665 19.773335 L 119.68 7.813334 L 113.813324 17.666666 L 111.73333 17.666666 L 105.893333 8.071111 L 105.893333 19.777779 L 101.564445 19.777779 L 101.564445 -0.164444 L 105.382225 -0.164444 L 112.844444 12.222222 L 120.191109 -0.164444 L 123.977783 -0.164444 L 124.035553 19.768888 L 119.706665 19.768888 Z"/>
    <path id="path9" fill="#ffffff" stroke="none" d="M 141.893341 15.502222 L 132.635559 15.502222 L 130.871109 19.773335 L 126.142227 19.773335 L 135.026672 -0.164444 L 139.582214 -0.164444 L 148.497772 19.768888 L 143.657776 19.768888 L 141.893341 15.497778 Z M 140.440002 12 L 137.279999 4.36889 L 134.119995 12 L 140.440002 12 Z"/>
    <g id="g1">
        <path id="path10" fill="#ffffff" stroke="none" d="M 159.573334 -0.32 C 155.213333 -0.32 151.666672 3.226667 151.666672 7.586666 C 151.666672 9.315556 152.226669 10.92 153.17334 12.222222 L 152.186676 15.16 L 155.226669 14.186666 C 156.475555 15.013332 157.968887 15.493334 159.577774 15.493334 C 163.937775 15.493334 167.484436 11.946667 167.484436 7.586666 C 167.484436 3.226667 163.933334 -0.32 159.573334 -0.32 Z M 162.635559 10.324444 C 162.635559 10.72 162.315552 11.04 161.919998 11.04 L 157.23111 11.04 C 156.835556 11.04 156.515564 10.72 156.515564 10.324444 L 156.515564 7.453334 C 156.515564 7.057777 156.835556 6.737778 157.23111 6.737778 L 157.302216 6.737778 L 157.302216 5.675556 C 157.302216 4.422222 158.324448 3.400002 159.577774 3.400002 C 160.831116 3.400002 161.853333 4.422222 161.853333 5.675556 L 161.853333 6.737778 L 161.924438 6.737778 C 162.320007 6.737778 162.639999 7.057777 162.639999 7.453334 L 162.639999 10.324444 Z"/>
        <path id="path11" fill="#ffffff" stroke="none" d="M 159.573334 4.333333 C 158.831116 4.333333 158.23111 4.937778 158.23111 5.675556 L 158.23111 6.737778 L 160.915558 6.737778 L 160.915558 5.675556 C 160.915558 4.933332 160.311111 4.333333 159.573334 4.333333 Z"/>
    </g>
    <g id="g2">
        <path id="path12" fill="#ffffff" stroke="none" d="M 177.111115 18.648888 C 175.506668 17.764444 174.253342 16.555555 173.35112 15.017778 C 172.448898 13.48 172 11.751111 172 9.835555 C 172 7.92 172.448898 6.191112 173.35112 4.653334 C 174.253342 3.115557 175.506668 1.906668 177.111115 1.022223 C 178.715546 0.137779 180.502228 -0.302223 182.479996 -0.302223 C 184.457779 -0.302223 186.23555 0.133333 187.81778 1.008888 C 189.404449 1.884443 190.653336 3.093332 191.564438 4.639999 C 192.475555 6.186666 192.933334 7.92 192.933334 9.835555 C 192.933334 11.751111 192.475555 13.484445 191.564438 15.031111 C 190.653336 16.577778 189.404449 17.791111 187.81778 18.662224 C 186.23111 19.533333 184.453323 19.973333 182.479996 19.973333 C 180.506668 19.973333 178.715546 19.533333 177.111115 18.648888 Z M 186.751114 17.026667 C 188.022217 16.315556 189.017776 15.32889 189.742233 14.066668 C 190.462219 12.804444 190.82666 11.395555 190.82666 9.835555 C 190.82666 8.275556 190.46666 6.871111 189.742233 5.604445 C 189.022217 4.342222 188.022217 3.355555 186.751114 2.644445 C 185.479996 1.933332 184.053329 1.577778 182.479996 1.577778 C 180.906677 1.577778 179.475555 1.933332 178.195557 2.644445 C 176.915558 3.355555 175.906677 4.342222 175.17778 5.604445 C 174.448898 6.866667 174.080002 8.275556 174.080002 9.835555 C 174.080002 11.395555 174.444443 12.799999 175.17778 14.066668 C 175.911102 15.333334 176.915558 16.315556 178.195557 17.026667 C 179.475555 17.737778 180.906677 18.093332 182.479996 18.093332 C 184.053329 18.093332 185.479996 17.737778 186.751114 17.026667 Z"/>
        <path id="path13" fill="#ffffff" stroke="none" d="M 213.17778 -0.133333 L 213.17778 19.799999 L 211.440002 19.799999 L 198.626663 3.622223 L 198.626663 19.799999 L 196.520004 19.799999 L 196.520004 -0.133333 L 198.257767 -0.133333 L 211.102234 16.044443 L 211.102234 -0.133333 L 213.18222 -0.133333 Z"/>
        <path id="path14" fill="#ffffff" stroke="none" d="M 231.688889 1.688889 C 233.133331 2.902222 233.853333 4.573334 233.853333 6.702222 C 233.853333 8.831112 233.133331 10.493334 231.688889 11.702222 C 230.244446 12.906668 228.253342 13.51111 225.706665 13.51111 L 220.35112 13.51111 L 220.35112 19.804445 L 218.244446 19.804445 L 218.244446 -0.133333 L 225.706665 -0.133333 C 228.248886 -0.133333 230.244446 0.475555 231.688889 1.688889 Z M 230.182205 10.36 C 231.226669 9.497778 231.746658 8.275556 231.746658 6.702222 C 231.746658 5.128889 231.222229 3.848888 230.182205 2.986668 C 229.137772 2.124443 227.626648 1.688889 225.653336 1.688889 L 220.355545 1.688889 L 220.355545 11.657778 L 225.653336 11.657778 C 227.626648 11.657778 229.137772 11.226666 230.182205 10.36 Z"/>
        <path id="path15" fill="#ffffff" stroke="none" d="M 251.168884 19.799999 L 246.613342 13.391111 C 246.102219 13.448889 245.568909 13.475555 245.017761 13.475555 L 239.662216 13.475555 L 239.662216 19.795555 L 237.555557 19.795555 L 237.555557 -0.133333 L 245.017761 -0.133333 C 247.559998 -0.133333 249.555557 0.475555 251 1.688889 C 252.444443 2.902222 253.164444 4.573334 253.164444 6.702222 C 253.164444 8.257778 252.768875 9.573334 251.982239 10.644444 C 251.195557 11.715556 250.071106 12.493334 248.608887 12.964445 L 253.480011 19.799999 L 251.17334 19.799999 Z M 249.488876 10.373333 C 250.53334 9.502222 251.053329 8.275556 251.053329 6.697778 C 251.053329 5.12 250.528885 3.844444 249.488876 2.982222 C 248.444443 2.120001 246.933319 1.684444 244.959991 1.684444 L 239.662216 1.684444 L 239.662216 11.68 L 244.959991 11.68 C 246.933319 11.68 248.444443 11.244444 249.488876 10.368889 Z"/>
        <path id="path16" fill="#ffffff" stroke="none" d="M 271.391113 17.977777 L 271.391113 19.799999 L 257.293335 19.799999 L 257.293335 -0.133333 L 270.964447 -0.133333 L 270.964447 1.688889 L 259.400024 1.688889 L 259.400024 8.782223 L 269.71109 8.782223 L 269.71109 10.577778 L 259.400024 10.577778 L 259.400024 17.982222 L 271.391113 17.982222 Z"/>
        <path id="path17" fill="#ffffff" stroke="none" d="M 296.195557 -0.133333 L 296.195557 19.799999 L 294.17334 19.799999 L 294.17334 3.853333 L 286.342224 17.266666 L 285.34668 17.266666 L 277.515533 3.937778 L 277.515533 19.799999 L 275.493317 19.799999 L 275.493317 -0.133333 L 277.23111 -0.133333 L 285.888885 14.648889 L 294.457794 -0.133333 L 296.195557 -0.133333 Z"/>
    </g>
</svg>
