<svg fill="none" viewBox="0 0 32 32" xmlns="http://www.w3.org/2000/svg"><g filter="url(#t)"><path d="m3.5781 11.031c-0.69036 0-1.25 0.5597-1.25 1.25v16.391c0 0.6903 0.55964 1.25 1.25 1.25h11.004c0.3184 0.5709 0.9283 0.957 1.6284 0.957s1.3101-0.3861 1.6285-0.957h11.004c0.6903 0 1.25-0.5597 1.25-1.25v-16.391c0-0.6903-0.5597-1.25-1.25-1.25h-25.266z" fill="#3E6ACA"/></g><g filter="url(#s)"><path d="m3.5781 10.062c-0.69036 0-1.25 0.5596-1.25 1.25v16.391c0 0.6904 0.55964 1.25 1.25 1.25h11.004c0.3184 0.5709 0.9283 0.9571 1.6284 0.9571s1.3101-0.3862 1.6285-0.9571h11.004c0.6903 0 1.25-0.5596 1.25-1.25v-16.391c0-0.6904-0.5597-1.25-1.25-1.25h-25.266z" fill="url(#m)"/></g><g filter="url(#r)"><path d="m4.8104 9.0938-1.5656 1.9416c-0.1383 0.1715-0.2135 0.3833-0.2135 0.6015v14.294c0 0.6723 0.55963 1.2173 1.25 1.2173h23.438c0.6903 0 1.25-0.545 1.25-1.2173v-14.294c0-0.2182-0.0752-0.43-0.2136-0.6015l-1.5656-1.9416-1.8415 14.646h-18.696l-1.8415-14.646z" fill="#3F9BEA"/></g><path d="m14.773 25.703h2.875v1.5782c0 0.7939-0.6436 1.4375-1.4375 1.4375s-1.4375-0.6436-1.4375-1.4376v-1.5781z" fill="url(#i)"/><path d="m14.773 25.703h2.875v1.5782c0 0.7939-0.6436 1.4375-1.4375 1.4375s-1.4375-0.6436-1.4375-1.4376v-1.5781z" fill="url(#h)"/><g filter="url(#q)"><path d="m3.4244 10.455 1.5656-1.9938 1.8415 15.039h9.3481v3.5h-11.719c-0.69036 0-1.25-0.5596-1.25-1.25v-14.678c0-0.224 0.07518-0.4415 0.21351-0.6176z" fill="url(#g)"/></g><g filter="url(#p)"><path d="m28.935 10.455-1.5656-1.9938-1.8415 15.039h-9.3481v3.5h11.719c0.6904 0 1.25-0.5596 1.25-1.25v-14.678c0-0.224-0.0751-0.4415-0.2135-0.6176z" fill="url(#f)"/><path d="m28.935 10.455-1.5656-1.9938-1.8415 15.039h-9.3481v3.5h11.719c0.6904 0 1.25-0.5596 1.25-1.25v-14.678c0-0.224-0.0751-0.4415-0.2135-0.6176z" fill="url(#e)"/></g><path d="m28.935 10.455-1.5656-1.9938-1.8415 15.039h-9.3481v3.5h11.719c0.6904 0 1.25-0.5596 1.25-1.25v-14.678c0-0.224-0.0751-0.4415-0.2135-0.6176z" fill="url(#d)"/><g filter="url(#o)"><path d="m4.8047 9.0312c0-0.55228 0.44771-1 1-1h7.875c1.3807 0 2.5 1.1193 2.5 2.5v16.461c0-1.1003-1.1328-1.9922-2.4453-1.9922h-7.6797c-0.69036 0-1.25-0.5596-1.25-1.25v-14.719z" fill="url(#c)"/><path d="m4.8047 9.0312c0-0.55228 0.44771-1 1-1h7.875c1.3807 0 2.5 1.1193 2.5 2.5v16.461c0-1.1003-1.1328-1.9922-2.4453-1.9922h-7.6797c-0.69036 0-1.25-0.5596-1.25-1.25v-14.719z" fill="url(#b)"/><path d="m4.8047 9.0312c0-0.55228 0.44771-1 1-1h7.875c1.3807 0 2.5 1.1193 2.5 2.5v16.461c0-1.1003-1.1328-1.9922-2.4453-1.9922h-7.6797c-0.69036 0-1.25-0.5596-1.25-1.25v-14.719z" fill="url(#a)"/></g><g filter="url(#n)"><path d="m27.555 9.0312c0-0.55228-0.4477-1-1-1h-7.875c-1.3807 0-2.5 1.1193-2.5 2.5v16.461c0-1.1003 1.1328-1.9922 2.4453-1.9922h7.6797c0.6903 0 1.25-0.5596 1.25-1.25v-14.719z" fill="url(#l)"/><path d="m27.555 9.0312c0-0.55228-0.4477-1-1-1h-7.875c-1.3807 0-2.5 1.1193-2.5 2.5v16.461c0-1.1003 1.1328-1.9922 2.4453-1.9922h7.6797c0.6903 0 1.25-0.5596 1.25-1.25v-14.719z" fill="url(#k)"/><path d="m27.555 9.0312c0-0.55228-0.4477-1-1-1h-7.875c-1.3807 0-2.5 1.1193-2.5 2.5v16.461c0-1.1003 1.1328-1.9922 2.4453-1.9922h7.6797c0.6903 0 1.25-0.5596 1.25-1.25v-14.719z" fill="url(#j)"/></g><defs><filter id="t" x="2.3281" y="10.881" width="27.916" height="19.998" color-interpolation-filters="sRGB" filterUnits="userSpaceOnUse"><feFlood flood-opacity="0" result="BackgroundImageFix"/><feBlend in="SourceGraphic" in2="BackgroundImageFix" result="shape"/><feColorMatrix in="SourceAlpha" result="hardAlpha" values="0 0 0 0 0 0 0 0 0 0 0 0 0 0 0 0 0 0 127 0"/><feOffset dx="0.15" dy="-0.15"/><feGaussianBlur stdDeviation="0.25"/><feComposite in2="hardAlpha" k2="-1" k3="1" operator="arithmetic"/><feColorMatrix values="0 0 0 0 0.305882 0 0 0 0 0.541176 0 0 0 0 0.780392 0 0 0 1 0"/><feBlend in2="shape" result="effect1_innerShadow_18_20736"/></filter><filter id="s" x="2.2281" y="9.9625" width="27.966" height="19.948" color-interpolation-filters="sRGB" filterUnits="userSpaceOnUse"><feFlood flood-opacity="0" result="BackgroundImageFix"/><feBlend in="SourceGraphic" in2="BackgroundImageFix" result="shape"/><feColorMatrix in="SourceAlpha" result="hardAlpha" values="0 0 0 0 0 0 0 0 0 0 0 0 0 0 0 0 0 0 127 0"/><feOffset dx="-0.1"/><feGaussianBlur stdDeviation="0.15"/><feComposite in2="hardAlpha" k2="-1" k3="1" operator="arithmetic"/><feColorMatrix values="0 0 0 0 0.45098 0 0 0 0 0.941176 0 0 0 0 1 0 0 0 1 0"/><feBlend in2="shape" result="effect1_innerShadow_18_20736"/><feColorMatrix in="SourceAlpha" result="hardAlpha" values="0 0 0 0 0 0 0 0 0 0 0 0 0 0 0 0 0 0 127 0"/><feOffset dx="0.1" dy="-0.1"/><feGaussianBlur stdDeviation="0.15"/><feComposite in2="hardAlpha" k2="-1" k3="1" operator="arithmetic"/><feColorMatrix values="0 0 0 0 0.286275 0 0 0 0 0.666667 0 0 0 0 0.901961 0 0 0 1 0"/><feBlend in2="effect1_innerShadow_18_20736" result="effect2_innerShadow_18_20736"/></filter><filter id="r" x="2.5312" y="8.5938" width="26.938" height="19.055" color-interpolation-filters="sRGB" filterUnits="userSpaceOnUse"><feFlood flood-opacity="0" result="BackgroundImageFix"/><feBlend in="SourceGraphic" in2="BackgroundImageFix" result="shape"/><feGaussianBlur result="effect1_foregroundBlur_18_20736" stdDeviation="0.25"/></filter><filter id="q" x="3.2109" y="8.4609" width="13.069" height="18.639" color-interpolation-filters="sRGB" filterUnits="userSpaceOnUse"><feFlood flood-opacity="0" result="BackgroundImageFix"/><feBlend in="SourceGraphic" in2="BackgroundImageFix" result="shape"/><feColorMatrix in="SourceAlpha" result="hardAlpha" values="0 0 0 0 0 0 0 0 0 0 0 0 0 0 0 0 0 0 127 0"/><feOffset dx="0.1" dy="0.1"/><feGaussianBlur stdDeviation="0.15"/><feComposite in2="hardAlpha" k2="-1" k3="1" operator="arithmetic"/><feColorMatrix values="0 0 0 0 0.694118 0 0 0 0 0.705882 0 0 0 0 0.733333 0 0 0 1 0"/><feBlend in2="shape" result="effect1_innerShadow_18_20736"/></filter><filter id="p" x="16.18" y="8.4609" width="13.069" height="18.639" color-interpolation-filters="sRGB" filterUnits="userSpaceOnUse"><feFlood flood-opacity="0" result="BackgroundImageFix"/><feBlend in="SourceGraphic" in2="BackgroundImageFix" result="shape"/><feColorMatrix in="SourceAlpha" result="hardAlpha" values="0 0 0 0 0 0 0 0 0 0 0 0 0 0 0 0 0 0 127 0"/><feOffset dx="0.1" dy="0.1"/><feGaussianBlur stdDeviation="0.15"/><feComposite in2="hardAlpha" k2="-1" k3="1" operator="arithmetic"/><feColorMatrix values="0 0 0 0 0.831373 0 0 0 0 0.835294 0 0 0 0 0.854902 0 0 0 1 0"/><feBlend in2="shape" result="effect1_innerShadow_18_20736"/></filter><filter id="o" x="4.8047" y="8.0312" width="11.475" height="19.011" color-interpolation-filters="sRGB" filterUnits="userSpaceOnUse"><feFlood flood-opacity="0" result="BackgroundImageFix"/><feBlend in="SourceGraphic" in2="BackgroundImageFix" result="shape"/><feColorMatrix in="SourceAlpha" result="hardAlpha" values="0 0 0 0 0 0 0 0 0 0 0 0 0 0 0 0 0 0 127 0"/><feOffset dy="0.05"/><feGaussianBlur stdDeviation="0.15"/><feComposite in2="hardAlpha" k2="-1" k3="1" operator="arithmetic"/><feColorMatrix values="0 0 0 0 0.827451 0 0 0 0 0.819608 0 0 0 0 0.854902 0 0 0 1 0"/><feBlend in2="shape" result="effect1_innerShadow_18_20736"/><feColorMatrix in="SourceAlpha" result="hardAlpha" values="0 0 0 0 0 0 0 0 0 0 0 0 0 0 0 0 0 0 127 0"/><feOffset dx="0.1"/><feGaussianBlur stdDeviation="0.15"/><feComposite in2="hardAlpha" k2="-1" k3="1" operator="arithmetic"/><feColorMatrix values="0 0 0 0 0.980392 0 0 0 0 0.976471 0 0 0 0 1 0 0 0 1 0"/><feBlend in2="effect1_innerShadow_18_20736" result="effect2_innerShadow_18_20736"/></filter><filter id="n" x="16.08" y="8.0312" width="11.475" height="19.011" color-interpolation-filters="sRGB" filterUnits="userSpaceOnUse"><feFlood flood-opacity="0" result="BackgroundImageFix"/><feBlend in="SourceGraphic" in2="BackgroundImageFix" result="shape"/><feColorMatrix in="SourceAlpha" result="hardAlpha" values="0 0 0 0 0 0 0 0 0 0 0 0 0 0 0 0 0 0 127 0"/><feOffset dx="-0.1"/><feGaussianBlur stdDeviation="0.15"/><feComposite in2="hardAlpha" k2="-1" k3="1" operator="arithmetic"/><feColorMatrix values="0 0 0 0 0.980392 0 0 0 0 0.976471 0 0 0 0 1 0 0 0 1 0"/><feBlend in2="shape" result="effect1_innerShadow_18_20736"/><feColorMatrix in="SourceAlpha" result="hardAlpha" values="0 0 0 0 0 0 0 0 0 0 0 0 0 0 0 0 0 0 127 0"/><feOffset dy="0.05"/><feGaussianBlur stdDeviation="0.15"/><feComposite in2="hardAlpha" k2="-1" k3="1" operator="arithmetic"/><feColorMatrix values="0 0 0 0 0.827451 0 0 0 0 0.819608 0 0 0 0 0.854902 0 0 0 1 0"/><feBlend in2="effect1_innerShadow_18_20736" result="effect2_innerShadow_18_20736"/></filter><linearGradient id="m" x1="16.211" x2="16.211" y1="14.438" y2="29.91" gradientUnits="userSpaceOnUse"><stop stop-color="#5DD8FB" offset="0"/><stop stop-color="#41AEF2" offset="1"/></linearGradient><radialGradient id="i" cx="0" cy="0" r="1" gradientTransform="translate(15.375 28.531) rotate(-26.565) scale(2.2361 3.1375)" gradientUnits="userSpaceOnUse"><stop stop-color="#306AB3" offset=".23194"/><stop stop-color="#1A4CA8" offset="1"/></radialGradient><linearGradient id="h" x1="16.211" x2="16.211" y1="26.781" y2="27.531" gradientUnits="userSpaceOnUse"><stop stop-color="#1748A6" offset="0"/><stop stop-color="#1748A6" stop-opacity="0" offset="1"/></linearGradient><linearGradient id="g" x1="12.516" x2="5.2656" y1="28.656" y2="21.938" gradientUnits="userSpaceOnUse"><stop stop-color="#B3A9CF" offset=".74986"/><stop stop-color="#B6BAC5" offset=".93166"/></linearGradient><linearGradient id="f" x1="19.844" x2="27.094" y1="28.656" y2="21.938" gradientUnits="userSpaceOnUse"><stop stop-color="#BBB3D9" offset=".71707"/><stop stop-color="#DCDDE8" offset=".91251"/></linearGradient><linearGradient id="e" x1="27.976" x2="27.976" y1="8.8864" y2="13.327" gradientUnits="userSpaceOnUse"><stop stop-color="#D8DAE2" offset="0"/><stop stop-color="#D8DAE2" stop-opacity="0" offset="1"/></linearGradient><linearGradient id="d" x1="16.18" x2="17.797" y1="27" y2="25.094" gradientUnits="userSpaceOnUse"><stop stop-color="#A699C9" offset="0"/><stop stop-color="#A699C9" stop-opacity="0" offset="1"/></linearGradient><linearGradient id="c" x1="4.8047" x2="15.328" y1="17.512" y2="17.512" gradientUnits="userSpaceOnUse"><stop stop-color="#F3F1FA" offset="0"/><stop stop-color="#F0EBF9" offset="1"/></linearGradient><linearGradient id="b" x1="16.18" x2="13.453" y1="25.688" y2="25.688" gradientUnits="userSpaceOnUse"><stop stop-color="#D5CCE8" offset="0"/><stop stop-color="#F2EBFF" stop-opacity="0" offset="1"/></linearGradient><linearGradient id="a" x1="16.234" x2="16.016" y1="25.906" y2="25.906" gradientUnits="userSpaceOnUse"><stop stop-color="#BFB3D1" offset=".17857"/><stop stop-color="#BFB3D1" stop-opacity="0" offset="1"/></linearGradient><linearGradient id="l" x1="16.18" x2="26.703" y1="17.512" y2="17.512" gradientUnits="userSpaceOnUse"><stop stop-color="#F3F1FA" offset="0"/><stop stop-color="#F0EBF9" offset="1"/></linearGradient><linearGradient id="k" x1="16.18" x2="18.984" y1="25.688" y2="25.688" gradientUnits="userSpaceOnUse"><stop stop-color="#D5CCE8" offset="0"/><stop stop-color="#F2EBFF" stop-opacity="0" offset="1"/></linearGradient><linearGradient id="j" x1="16.152" x2="16.359" y1="25.906" y2="25.906" gradientUnits="userSpaceOnUse"><stop stop-color="#BFB3D1" offset="0"/><stop stop-color="#BFB3D1" stop-opacity="0" offset="1"/></linearGradient></defs></svg>
