<svg width="403" height="28" viewBox="0 0 403 28" fill="none" xmlns="http://www.w3.org/2000/svg">
<g clip-path="url(#clip0_103_1330)">
<path d="M213.25 27.5C214.217 27.5 215 26.7165 215 25.75C215 24.7835 214.217 24 213.25 24C212.284 24 211.5 24.7835 211.5 25.75C211.5 26.7165 212.284 27.5 213.25 27.5Z" fill="#0E9061"/>
<path d="M219.213 27.5C220.18 27.5 220.963 26.7165 220.963 25.75C220.963 24.7835 220.18 24 219.213 24C218.247 24 217.463 24.7835 217.463 25.75C217.463 26.7165 218.247 27.5 219.213 27.5Z" fill="#0E9061"/>
<path d="M225.17 27.5C226.137 27.5 226.92 26.7165 226.92 25.75C226.92 24.7835 226.137 24 225.17 24C224.204 24 223.42 24.7835 223.42 25.75C223.42 26.7165 224.204 27.5 225.17 27.5Z" fill="#0E9061"/>
<path d="M8.75859 5.39545H0V0.214348H23.8588V5.39545H15.1002V27.6877H8.76469V5.39545H8.75859Z" fill="black"/>
<path d="M52.3685 0.214348V27.6815H46.0331V16.4191H33.594V27.6815H27.2585V0.214348H33.594V11.0481H46.0331V0.214348H52.3685Z" fill="black"/>
<path d="M75.69 27.6877L70.4105 20.0324H64.5816V27.6877H58.2461V0.214348H70.0992C72.5223 0.214348 74.628 0.618547 76.4164 1.43307C78.2047 2.24147 79.578 3.39283 80.5424 4.88714C81.5067 6.38145 81.9889 8.14523 81.9889 10.1846C81.9889 12.224 81.5006 13.9878 80.524 15.4637C79.5475 16.9396 78.1559 18.0726 76.3614 18.8565L82.5016 27.6877H75.6961H75.69ZM74.0909 6.63255C73.1021 5.80577 71.6556 5.39545 69.7513 5.39545H64.5877V14.9676H69.7513C71.6556 14.9676 73.1021 14.5512 74.0909 13.7122C75.0797 12.8731 75.5802 11.6973 75.5802 10.1785C75.5802 8.65967 75.0858 7.45319 74.0909 6.62642V6.63255Z" fill="black"/>
<path d="M108.192 22.5862V27.6877H86.9939V0.214348H107.685V5.31583H93.2928V11.2808H106.006V16.2231H93.2928V22.5801H108.192V22.5862Z" fill="black"/>
<path d="M134.437 22.5862V27.6877H113.239V0.214348H133.93V5.31583H119.538V11.2808H132.252V16.2231H119.538V22.5801H134.437V22.5862Z" fill="black"/>
<path d="M164.393 27.6877L164.356 11.2073L156.3 24.7848H153.443L145.423 11.5626V27.6938H139.478V0.214348H144.721L154.969 17.2826L165.058 0.214348H170.258L170.338 27.6815H164.393V27.6877Z" fill="black"/>
<path d="M194.862 21.8023H182.148L179.725 27.6877H173.231L185.432 0.214348H191.688L203.932 27.6815H197.285L194.862 21.7962V21.8023ZM192.866 16.9764L188.526 6.46107L184.187 16.9764H192.866Z" fill="black"/>
<path d="M219.003 0C225.067 0 230 4.93423 230 11C230 17.0658 225.067 22 219.003 22C216.765 22 214.688 21.3317 212.951 20.1816L208.724 21.5361L210.096 17.4492C208.779 15.6375 208 13.4053 208 11C208 4.93423 212.933 0 218.997 0H219.003ZM219.205 5C217.484 5.00015 216.08 6.4088 216.08 8.13574V9.59961H215.982C215.439 9.59975 215 10.0401 215 10.585V14.542C215 15.0868 215.439 15.5272 215.982 15.5273H222.422C222.965 15.5273 223.404 15.0868 223.404 14.542V10.585C223.404 10.0401 222.965 9.59961 222.422 9.59961H222.33V8.13574C222.33 6.40871 220.926 5 219.205 5ZM219.205 6.28613C220.218 6.28613 221.049 7.11912 221.049 8.13574V9.59961H217.362V8.13574C217.362 7.11309 218.192 6.28628 219.205 6.28613Z" fill="black"/>
</g>
<path d="M235 27.8V0.199997H245.33C247.67 0.199997 249.681 0.58114 251.363 1.34343C253.045 2.07943 254.333 3.15714 255.227 4.57657C256.147 5.96971 256.607 7.66514 256.607 9.66286C256.607 11.608 256.147 13.2903 255.227 14.7097C254.333 16.1029 253.045 17.1806 251.363 17.9429C249.681 18.7051 247.67 19.0863 245.33 19.0863H236.617L237.918 17.7063V27.8H235ZM237.918 17.9429L236.617 16.5234H245.251C248.011 16.5234 250.101 15.932 251.521 14.7491C252.966 13.54 253.689 11.8446 253.689 9.66286C253.689 7.45486 252.966 5.74628 251.521 4.53714C250.101 3.328 248.011 2.72343 245.251 2.72343H236.617L237.918 1.34343V17.9429Z" fill="black"/>
<path d="M263.704 27.8V0.199997H274.035C276.374 0.199997 278.385 0.58114 280.067 1.34343C281.749 2.07943 283.037 3.15714 283.931 4.57657C284.851 5.96971 285.311 7.66514 285.311 9.66286C285.311 11.608 284.851 13.2903 283.931 14.7097C283.037 16.1029 281.749 17.1806 280.067 17.9429C278.385 18.6789 276.374 19.0469 274.035 19.0469H265.321L266.622 17.7063V27.8H263.704ZM282.551 27.8L275.454 17.7851H278.608L285.745 27.8H282.551ZM266.622 17.9429L265.321 16.5629H273.956C276.716 16.5629 278.805 15.9583 280.225 14.7491C281.671 13.54 282.393 11.8446 282.393 9.66286C282.393 7.45486 281.671 5.74628 280.225 4.53714C278.805 3.328 276.716 2.72343 273.956 2.72343H265.321L266.622 1.34343V17.9429Z" fill="black"/>
<path d="M292.986 27.8V0.199997H295.904V27.8H292.986Z" fill="black"/>
<path d="M313.211 27.8L300.988 0.199997H304.142L315.577 26.1834H313.842L325.355 0.199997H328.312L316.089 27.8H313.211Z" fill="black"/>
<path d="M327.843 27.8L340.46 0.199997H343.339L355.956 27.8H352.88L341.288 1.89543H342.471L330.879 27.8H327.843ZM332.811 20.4269L333.679 18.0611H349.726L350.594 20.4269H332.811Z" fill="black"/>
<path d="M365.286 27.8V2.72343H355.587V0.199997H377.903V2.72343H368.204V27.8H365.286Z" fill="black"/>
<path d="M385.955 12.5411H400.544V15.0251H385.955V12.5411ZM386.271 25.2766H402.87V27.8H383.353V0.199997H402.279V2.72343H386.271V25.2766Z" fill="black"/>
<defs>
<clipPath id="clip0_103_1330">
<rect width="230" height="28" fill="white"/>
</clipPath>
</defs>
</svg>
