<svg fill="none" viewBox="0 0 32 32" xmlns="http://www.w3.org/2000/svg"><path d="m6.5156 22.424c3.029 0 5.4844-2.4169 5.4844-5.3984s-2.4554-5.3984-5.4844-5.3984-5.4844 2.4169-5.4844 5.3984 2.4555 5.3984 5.4844 5.3984z" fill="url(#z)"/><path d="m6.5156 22.424c3.029 0 5.4844-2.4169 5.4844-5.3984s-2.4554-5.3984-5.4844-5.3984-5.4844 2.4169-5.4844 5.3984 2.4555 5.3984 5.4844 5.3984z" fill="url(#o)"/><path d="m6.5156 22.424c3.029 0 5.4844-2.4169 5.4844-5.3984s-2.4554-5.3984-5.4844-5.3984-5.4844 2.4169-5.4844 5.3984 2.4555 5.3984 5.4844 5.3984z" fill="url(#h)" fill-opacity=".5"/><path d="m25.433 22.424c3.029 0 5.4845-2.4169 5.4845-5.3984s-2.4555-5.3984-5.4845-5.3984c-3.0289 0-5.4844 2.4169-5.4844 5.3984s2.4555 5.3984 5.4844 5.3984z" fill="url(#g)"/><g filter="url(#an)"><path d="m26.837 12.398c0.9793 0.1475 2.874 1.4375 3.2931 3.5098 0.4844 1.7813-0.1719 4.0625-1.6719 4.9532" stroke="url(#f)" stroke-linecap="round" stroke-opacity=".8" stroke-width=".5"/></g><path d="m16 29.372c7.9663 0 11.947-5.349 11.947-11.947s-3.9808-11.947-11.947-11.947c-7.9664 0-11.947 5.3489-11.947 11.947s3.9808 11.947 11.947 11.947z" fill="url(#e)"/><path d="m16 29.372c7.9663 0 11.947-5.349 11.947-11.947s-3.9808-11.947-11.947-11.947c-7.9664 0-11.947 5.3489-11.947 11.947s3.9808 11.947 11.947 11.947z" fill="url(#d)"/><path d="m16 29.372c7.9663 0 11.947-5.349 11.947-11.947s-3.9808-11.947-11.947-11.947c-7.9664 0-11.947 5.3489-11.947 11.947s3.9808 11.947 11.947 11.947z" fill="url(#c)"/><path d="m16 29.372c7.9663 0 11.947-5.349 11.947-11.947s-3.9808-11.947-11.947-11.947c-7.9664 0-11.947 5.3489-11.947 11.947s3.9808 11.947 11.947 11.947z" fill="url(#b)"/><g filter="url(#ai)"><ellipse transform="rotate(-23.4 23.418 12.94)" cx="23.418" cy="12.94" rx="1.8488" ry="4.3331" fill="#C58E7D"/></g><g filter="url(#ah)"><ellipse transform="rotate(-90 15.773 6.9707)" cx="15.773" cy="6.9707" rx=".38603" ry="3.0636" fill="#C58E7D"/></g><g filter="url(#ag)"><path d="m11.877 9.1484c-2.6285 0-4.7594 2.1309-4.7594 4.7594 0 1.1609 0.41564 2.2248 1.1062 3.0508 0.10629 0.1272 0.15237 0.295 0.12153 0.4579-0.08576 0.4527-0.13063 0.9199-0.13063 1.3975 0 4.122 3.3416 7.4636 7.4636 7.4636 4.1221 0 7.4636-3.3416 7.4636-7.4636 0-0.4776-0.0449-0.9448-0.1306-1.3975-0.0309-0.1629 0.0152-0.3307 0.1215-0.4579 0.6906-0.826 1.1062-1.8899 1.1062-3.0508 0-2.6285-2.1308-4.7594-4.7593-4.7594h-7.6027z" fill="#561E25"/></g><path d="m12.156 8.9006c-2.6578 0-4.8124 2.1547-4.8124 4.8125 0 1.175 0.42104 2.2515 1.1205 3.0871 0.10637 0.1271 0.15245 0.295 0.12154 0.4578-0.08707 0.4587-0.13264 0.9321-0.13264 1.4161 0 4.168 3.3789 7.5468 7.5469 7.5468s7.5469-3.3788 7.5469-7.5468c0-0.484-0.0456-0.9574-0.1327-1.4161-0.0309-0.1628 0.0152-0.3307 0.1216-0.4578 0.6994-0.8356 1.1204-1.9121 1.1204-3.0871 0-2.6578-2.1546-4.8125-4.8124-4.8125h-7.6876z" fill="url(#a)"/><path d="m12.156 8.9006c-2.6578 0-4.8124 2.1547-4.8124 4.8125 0 1.175 0.42104 2.2515 1.1205 3.0871 0.10637 0.1271 0.15245 0.295 0.12154 0.4578-0.08707 0.4587-0.13264 0.9321-0.13264 1.4161 0 4.168 3.3789 7.5468 7.5469 7.5468s7.5469-3.3788 7.5469-7.5468c0-0.484-0.0456-0.9574-0.1327-1.4161-0.0309-0.1628 0.0152-0.3307 0.1216-0.4578 0.6994-0.8356 1.1204-1.9121 1.1204-3.0871 0-2.6578-2.1546-4.8125-4.8124-4.8125h-7.6876z" fill="url(#y)"/><path d="m12.156 8.9006c-2.6578 0-4.8124 2.1547-4.8124 4.8125 0 1.175 0.42104 2.2515 1.1205 3.0871 0.10637 0.1271 0.15245 0.295 0.12154 0.4578-0.08707 0.4587-0.13264 0.9321-0.13264 1.4161 0 4.168 3.3789 7.5468 7.5469 7.5468s7.5469-3.3788 7.5469-7.5468c0-0.484-0.0456-0.9574-0.1327-1.4161-0.0309-0.1628 0.0152-0.3307 0.1216-0.4578 0.6994-0.8356 1.1204-1.9121 1.1204-3.0871 0-2.6578-2.1546-4.8125-4.8124-4.8125h-7.6876z" fill="url(#x)"/><g filter="url(#af)"><path d="m5.7101 10.825c-1.5927 3.9294-1.4114 9.6818 0.33078 12.13" stroke="url(#w)" stroke-linecap="round" stroke-opacity=".4" stroke-width=".8"/></g><g filter="url(#ae)"><path d="m26.92 12.955c0.83 3.2797 0.7501 7.5625-0.7499 10" stroke="url(#v)" stroke-linecap="round" stroke-opacity=".5" stroke-width=".4"/></g><g filter="url(#ad)"><path d="m21.42 9.5156c1.2966 0.50938 3.6898 2.4951 2.4951 5.8849" stroke="url(#u)" stroke-linecap="round" stroke-width=".4"/></g><g filter="url(#ac)"><path d="m23.013 17.26c0.5 2.9375-0.5937 5.125-1.5937 6.0313" stroke="url(#t)" stroke-linecap="round" stroke-width=".1"/></g><path d="m12.006 20.406c0 2.2957 1.6483 4.0055 3.9938 4.0055 2.5229 0 3.9938-1.7818 3.9938-4.0055h-7.9876z" fill="url(#s)"/><g filter="url(#ab)"><rect x="11.681" y="13.541" width="1.625" height="3.25" rx=".8125" fill="#BB6F89" fill-opacity=".6"/></g><g filter="url(#aa)"><rect x="17.857" y="13.541" width="1.625" height="3.25" rx=".8125" fill="#BB6F89" fill-opacity=".6"/></g><rect x="12.249" y="13.386" width="1.508" height="3.016" rx=".754" fill="url(#r)"/><rect x="12.249" y="13.386" width="1.508" height="3.016" rx=".754" fill="url(#q)"/><rect x="18.243" y="13.386" width="1.508" height="3.016" rx=".754" fill="url(#p)"/><rect x="18.243" y="13.386" width="1.508" height="3.016" rx=".754" fill="url(#n)"/><g filter="url(#am)"><rect x="13.102" y="16.791" width="5.3438" height="2.4177" rx="1.1161" fill="#BB6F89"/></g><rect x="13.555" y="16.387" width="4.8906" height="2.2321" rx="1.1161" fill="url(#m)"/><rect x="13.555" y="16.387" width="4.8906" height="2.2321" rx="1.1161" fill="url(#l)"/><circle cx="14.549" cy="17.904" r=".51172" fill="url(#k)"/><circle cx="17.346" cy="17.904" r=".51172" fill="url(#j)"/><g filter="url(#al)"><path d="m17.243 17.002c0.3438-0.0703 0.8203 0.1875 0.875 0.7109" stroke="url(#i)" stroke-width=".05"/></g><g filter="url(#ak)"><circle cx="19.199" cy="14.014" r=".28371" fill="#795D72"/></g><g filter="url(#aj)"><circle cx="13.271" cy="14.158" r=".28371" fill="#795D72"/></g><defs><filter id="an" x="26.187" y="11.748" width="4.7504" height="9.7629" color-interpolation-filters="sRGB" filterUnits="userSpaceOnUse"><feFlood flood-opacity="0" result="BackgroundImageFix"/><feBlend in="SourceGraphic" in2="BackgroundImageFix" result="shape"/><feGaussianBlur result="effect1_foregroundBlur_28327_1406" stdDeviation="0.2"/></filter><filter id="ai" x="17.501" y="5.395" width="11.833" height="15.089" color-interpolation-filters="sRGB" filterUnits="userSpaceOnUse"><feFlood flood-opacity="0" result="BackgroundImageFix"/><feBlend in="SourceGraphic" in2="BackgroundImageFix" result="shape"/><feGaussianBlur result="effect1_foregroundBlur_28327_1406" stdDeviation="1.75"/></filter><filter id="ah" x="9.2098" y="3.0847" width="13.127" height="7.772" color-interpolation-filters="sRGB" filterUnits="userSpaceOnUse"><feFlood flood-opacity="0" result="BackgroundImageFix"/><feBlend in="SourceGraphic" in2="BackgroundImageFix" result="shape"/><feGaussianBlur result="effect1_foregroundBlur_28327_1406" stdDeviation="1.75"/></filter><filter id="ag" x="5.1179" y="7.1484" width="21.122" height="21.129" color-interpolation-filters="sRGB" filterUnits="userSpaceOnUse"><feFlood flood-opacity="0" result="BackgroundImageFix"/><feBlend in="SourceGraphic" in2="BackgroundImageFix" result="shape"/><feGaussianBlur result="effect1_foregroundBlur_28327_1406" stdDeviation="1"/></filter><filter id="af" x="3.8175" y="10.025" width="3.0234" height="13.73" color-interpolation-filters="sRGB" filterUnits="userSpaceOnUse"><feFlood flood-opacity="0" result="BackgroundImageFix"/><feBlend in="SourceGraphic" in2="BackgroundImageFix" result="shape"/><feGaussianBlur result="effect1_foregroundBlur_28327_1406" stdDeviation="0.2"/></filter><filter id="ae" x="25.57" y="12.355" width="2.4768" height="11.2" color-interpolation-filters="sRGB" filterUnits="userSpaceOnUse"><feFlood flood-opacity="0" result="BackgroundImageFix"/><feBlend in="SourceGraphic" in2="BackgroundImageFix" result="shape"/><feGaussianBlur result="effect1_foregroundBlur_28327_1406" stdDeviation="0.2"/></filter><filter id="ad" x="20.82" y="8.9157" width="4.0197" height="7.0849" color-interpolation-filters="sRGB" filterUnits="userSpaceOnUse"><feFlood flood-opacity="0" result="BackgroundImageFix"/><feBlend in="SourceGraphic" in2="BackgroundImageFix" result="shape"/><feGaussianBlur result="effect1_foregroundBlur_28327_1406" stdDeviation="0.2"/></filter><filter id="ac" x="20.97" y="16.81" width="2.6188" height="6.9314" color-interpolation-filters="sRGB" filterUnits="userSpaceOnUse"><feFlood flood-opacity="0" result="BackgroundImageFix"/><feBlend in="SourceGraphic" in2="BackgroundImageFix" result="shape"/><feGaussianBlur result="effect1_foregroundBlur_28327_1406" stdDeviation="0.2"/></filter><filter id="ab" x="10.681" y="12.541" width="3.625" height="5.25" color-interpolation-filters="sRGB" filterUnits="userSpaceOnUse"><feFlood flood-opacity="0" result="BackgroundImageFix"/><feBlend in="SourceGraphic" in2="BackgroundImageFix" result="shape"/><feGaussianBlur result="effect1_foregroundBlur_28327_1406" stdDeviation="0.5"/></filter><filter id="aa" x="16.857" y="12.541" width="3.625" height="5.25" color-interpolation-filters="sRGB" filterUnits="userSpaceOnUse"><feFlood flood-opacity="0" result="BackgroundImageFix"/><feBlend in="SourceGraphic" in2="BackgroundImageFix" result="shape"/><feGaussianBlur result="effect1_foregroundBlur_28327_1406" stdDeviation="0.5"/></filter><filter id="am" x="12.102" y="15.791" width="7.3438" height="4.4177" color-interpolation-filters="sRGB" filterUnits="userSpaceOnUse"><feFlood flood-opacity="0" result="BackgroundImageFix"/><feBlend in="SourceGraphic" in2="BackgroundImageFix" result="shape"/><feGaussianBlur result="effect1_foregroundBlur_28327_1406" stdDeviation="0.5"/></filter><filter id="al" x="17.038" y="16.766" width="1.3048" height="1.1498" color-interpolation-filters="sRGB" filterUnits="userSpaceOnUse"><feFlood flood-opacity="0" result="BackgroundImageFix"/><feBlend in="SourceGraphic" in2="BackgroundImageFix" result="shape"/><feGaussianBlur result="effect1_foregroundBlur_28327_1406" stdDeviation="0.1"/></filter><filter id="ak" x="17.915" y="12.73" width="2.5674" height="2.5674" color-interpolation-filters="sRGB" filterUnits="userSpaceOnUse"><feFlood flood-opacity="0" result="BackgroundImageFix"/><feBlend in="SourceGraphic" in2="BackgroundImageFix" result="shape"/><feGaussianBlur result="effect1_foregroundBlur_28327_1406" stdDeviation="0.5"/></filter><filter id="aj" x="11.987" y="12.874" width="2.5674" height="2.5674" color-interpolation-filters="sRGB" filterUnits="userSpaceOnUse"><feFlood flood-opacity="0" result="BackgroundImageFix"/><feBlend in="SourceGraphic" in2="BackgroundImageFix" result="shape"/><feGaussianBlur result="effect1_foregroundBlur_28327_1406" stdDeviation="0.5"/></filter><linearGradient id="z" x1="6.5156" x2="6.5156" y1="13.205" y2="24.143" gradientUnits="userSpaceOnUse"><stop stop-color="#A67874" offset="0"/><stop stop-color="#8F5872" offset="1"/></linearGradient><linearGradient id="o" x1="6.5156" x2="6.5156" y1="16.455" y2="24.643" gradientUnits="userSpaceOnUse"><stop stop-color="#B56595" stop-opacity="0" offset="0"/><stop stop-color="#CA6FA6" offset="1"/></linearGradient><radialGradient id="h" cx="0" cy="0" r="1" gradientTransform="translate(10.385 23.08) rotate(224.68) scale(15.822 18.885)" gradientUnits="userSpaceOnUse"><stop stop-color="#F39585" stop-opacity="0" offset=".63193"/><stop stop-color="#F39585" offset="1"/></radialGradient><linearGradient id="g" x1="25.433" x2="25.433" y1="14.393" y2="24.643" gradientUnits="userSpaceOnUse"><stop stop-color="#FAB8A9" offset=".09375"/><stop stop-color="#B56595" offset="1"/></linearGradient><radialGradient id="f" cx="0" cy="0" r="1" gradientTransform="translate(29.021 20.549) rotate(228.94) scale(8.3724 17.637)" gradientUnits="userSpaceOnUse"><stop stop-color="#FFDACC" stop-opacity="0" offset="0"/><stop stop-color="#FFDACC" offset=".44792"/><stop stop-color="#FFDACC" stop-opacity="0" offset="1"/></radialGradient><radialGradient id="e" cx="0" cy="0" r="1" gradientTransform="translate(24.26 10.955) rotate(120.7) scale(21.42 37.96)" gradientUnits="userSpaceOnUse"><stop stop-color="#A06857" offset="0"/><stop stop-color="#5B3838" offset="1"/></radialGradient><linearGradient id="d" x1="16" x2="16" y1="17.425" y2="34.282" gradientUnits="userSpaceOnUse"><stop stop-color="#682B5B" stop-opacity="0" offset="0"/><stop stop-color="#682B5B" offset="1"/></linearGradient><radialGradient id="c" cx="0" cy="0" r="1" gradientTransform="translate(16.001 14.439) rotate(90) scale(20.672 18.461)" gradientUnits="userSpaceOnUse"><stop stop-color="#FF7AF2" stop-opacity="0" offset=".68847"/><stop stop-color="#FFBCE6" offset="1"/></radialGradient><radialGradient id="b" cx="0" cy="0" r="1" gradientTransform="translate(23.492 9.7972) rotate(123.75) scale(19.048)" gradientUnits="userSpaceOnUse"><stop stop-color="#A9705E" offset="0"/><stop stop-color="#A9705E" stop-opacity="0" offset="1"/></radialGradient><linearGradient id="a" x1="16" x2="16" y1="8.9006" y2="26.948" gradientUnits="userSpaceOnUse"><stop stop-color="#FFC8BC" offset="0"/><stop stop-color="#FAB8A9" offset=".188"/><stop stop-color="#AC628E" offset=".89542"/></linearGradient><radialGradient id="y" cx="0" cy="0" r="1" gradientTransform="translate(25.305 12.322) rotate(159.38) scale(20.234 27.146)" gradientUnits="userSpaceOnUse"><stop stop-color="#A55F89" stop-opacity="0" offset=".81771"/><stop stop-color="#A55F89" offset="1"/></radialGradient><radialGradient id="x" cx="0" cy="0" r="1" gradientTransform="translate(16.001 15.396) rotate(90.003) scale(12.704 10.846)" gradientUnits="userSpaceOnUse"><stop stop-color="#EF5CF2" stop-opacity="0" offset=".81262"/><stop stop-color="#FF63C4" offset="1"/></radialGradient><linearGradient id="w" x1="6.6465" x2="4.1837" y1="23.584" y2="10.914" gradientUnits="userSpaceOnUse"><stop stop-color="#7C6160" stop-opacity="0" offset="0"/><stop stop-color="#7C6160" offset=".50264"/><stop stop-color="#7C6160" stop-opacity="0" offset="1"/></linearGradient><linearGradient id="v" x1="24.978" x2="28.269" y1="22.955" y2="15.014" gradientUnits="userSpaceOnUse"><stop stop-color="#BE8B89" stop-opacity="0" offset="0"/><stop stop-color="#BE8B89" stop-opacity=".6" offset=".29567"/><stop stop-color="#BE8B89" stop-opacity="0" offset=".80833"/></linearGradient><linearGradient id="u" x1="24.528" x2="20.916" y1="14.832" y2="9.4138" gradientUnits="userSpaceOnUse"><stop stop-color="#FFDACC" stop-opacity="0" offset="0"/><stop stop-color="#FFDACC" offset=".55729"/><stop stop-color="#FFDACC" stop-opacity="0" offset="1"/></linearGradient><linearGradient id="t" x1="22.767" x2="22.087" y1="22.709" y2="18.635" gradientUnits="userSpaceOnUse"><stop stop-color="#FFDACC" stop-opacity="0" offset=".025512"/><stop stop-color="#FFDACC" offset="1"/></linearGradient><radialGradient id="s" cx="0" cy="0" r="1" gradientTransform="translate(16.653 25.203) rotate(-90) scale(9.0709 17.67)" gradientUnits="userSpaceOnUse"><stop stop-color="#EF0084" offset="0"/><stop stop-color="#89029C" offset=".54762"/></radialGradient><linearGradient id="r" x1="15.851" x2="11.506" y1="14.479" y2="14.479" gradientUnits="userSpaceOnUse"><stop stop-color="#432A3D" offset="0"/><stop stop-color="#684E61" offset=".56771"/><stop stop-color="#43253D" offset=".76562"/></linearGradient><linearGradient id="q" x1="13.344" x2="13.344" y1="14.319" y2="16.675" gradientUnits="userSpaceOnUse"><stop stop-color="#43253D" stop-opacity="0" offset=".32653"/><stop stop-color="#43253D" offset="1"/></linearGradient><linearGradient id="p" x1="21.845" x2="17.499" y1="14.479" y2="14.479" gradientUnits="userSpaceOnUse"><stop stop-color="#432A3D" offset="0"/><stop stop-color="#684E61" offset=".56771"/><stop stop-color="#43253D" offset=".76562"/></linearGradient><linearGradient id="n" x1="19.337" x2="19.337" y1="14.319" y2="16.675" gradientUnits="userSpaceOnUse"><stop stop-color="#43253D" stop-opacity="0" offset=".32653"/><stop stop-color="#43253D" offset="1"/></linearGradient><linearGradient id="m" x1="16" x2="16" y1="16.387" y2="18.526" gradientUnits="userSpaceOnUse"><stop stop-color="#E9A4A2" offset="0"/><stop stop-color="#DC89A8" offset="1"/></linearGradient><linearGradient id="l" x1="15.493" x2="14.753" y1="21.322" y2="17.707" gradientUnits="userSpaceOnUse"><stop stop-color="#C971B6" offset=".070039"/><stop stop-color="#DC90CC" stop-opacity="0" offset="1"/></linearGradient><radialGradient id="k" cx="0" cy="0" r="1" gradientTransform="translate(14.904 17.544) rotate(133.17) scale(1.9031 1.1442)" gradientUnits="userSpaceOnUse"><stop stop-color="#3E2739" offset="0"/><stop stop-color="#684E61" offset="1"/></radialGradient><radialGradient id="j" cx="0" cy="0" r="1" gradientTransform="translate(17.608 17.544) rotate(129.41) scale(1.2192 1.9077)" gradientUnits="userSpaceOnUse"><stop stop-color="#3C2737" offset="0"/><stop stop-color="#684E61" offset="1"/></radialGradient><linearGradient id="i" x1="17.68" x2="17.68" y1="16.991" y2="17.713" gradientUnits="userSpaceOnUse"><stop stop-color="#FFDACC" stop-opacity="0" offset="0"/><stop stop-color="#FFEBE3" offset=".34896"/></linearGradient></defs></svg>
