<svg width="500" height="500" viewBox="0 0 500 500" fill="none" xmlns="http://www.w3.org/2000/svg">
<g clip-path="url(#clip0_170_172)">
<path d="M500 0H0V500H500V0Z" fill="white"/>
<path d="M137.817 379.65V399.561C137.817 399.561 138.316 405.036 144.288 405.534C150.261 406.032 163.701 405.036 163.701 405.036C163.701 405.036 169.146 405.86 196.554 378.155C224.775 349.626 137.823 379.65 137.823 379.65H137.817Z" fill="#151513"/>
<path d="M360.356 379.65V399.561C360.356 399.561 359.858 405.036 353.885 405.534C347.912 406.032 334.472 405.036 334.472 405.036C334.472 405.036 328.227 404.306 301.619 378.155C273.001 350.024 360.35 379.65 360.35 379.65H360.356Z" fill="#151513"/>
<path d="M371.922 102.61H128.671C117.881 102.61 109.134 111.357 109.134 122.147V364.602C109.134 375.392 117.881 384.14 128.671 384.14H371.922C382.712 384.14 391.459 375.392 391.459 364.602V122.147C391.459 111.357 382.712 102.61 371.922 102.61Z" fill="#374151"/>
<path d="M351.56 141.732H148.049C146.106 141.732 144.531 143.307 144.531 145.249V344.775C144.531 346.717 146.106 348.292 148.049 348.292H351.56C353.502 348.292 355.077 346.717 355.077 344.775V145.249C355.077 143.307 353.502 141.732 351.56 141.732Z" fill="#374151" stroke="#151513" stroke-width="10" stroke-miterlimit="10" stroke-linejoin="round"/>
<path d="M142.444 165.047H139.822C137.058 165.047 134.816 167.289 134.816 170.053V224.407C134.816 227.171 137.058 229.413 139.822 229.413H142.444C145.208 229.413 147.45 227.171 147.45 224.407V170.053C147.45 167.289 145.208 165.047 142.444 165.047Z" fill="#151513"/>
<path d="M336.56 175.504H333.938C331.174 175.504 328.932 177.746 328.932 180.51V310.131C328.932 312.895 331.174 315.136 333.938 315.136H336.56C339.324 315.136 341.566 312.895 341.566 310.131V180.51C341.566 177.746 339.324 175.504 336.56 175.504Z" fill="#E5E7EB"/>
<path d="M142.444 265.095H139.822C137.058 265.095 134.816 267.336 134.816 270.101V324.454C134.816 327.219 137.058 329.46 139.822 329.46H142.444C145.208 329.46 147.45 327.219 147.45 324.454V270.101C147.45 267.336 145.208 265.095 142.444 265.095Z" fill="#151513"/>
<path d="M246.127 312.088C284.007 312.088 314.715 281.38 314.715 243.5C314.715 205.619 284.007 174.911 246.127 174.911C208.247 174.911 177.539 205.619 177.539 243.5C177.539 281.38 208.247 312.088 246.127 312.088Z" fill="#E5E7EB"/>
<path d="M246.127 291.02C272.372 291.02 293.648 269.744 293.648 243.5C293.648 217.255 272.372 195.979 246.127 195.979C219.882 195.979 198.606 217.255 198.606 243.5C198.606 269.744 219.882 291.02 246.127 291.02Z" fill="#D1D5DB"/>
<path d="M246.127 264.063C257.484 264.063 266.69 254.857 266.69 243.5C266.69 232.142 257.484 222.936 246.127 222.936C234.77 222.936 225.563 232.142 225.563 243.5C225.563 254.857 234.77 264.063 246.127 264.063Z" fill="#F3F4F6"/>
<path d="M240.053 181.631L245.528 192.58C245.753 193.084 246.459 193.108 246.72 192.622L252.171 181.619C252.408 181.174 252.088 180.641 251.584 180.641L240.658 180.694C240.178 180.694 239.858 181.192 240.053 181.631Z" fill="#1D1D1B"/>
<path d="M244.627 284.977V270.214C244.627 269.386 245.298 268.714 246.127 268.714C246.955 268.714 247.627 269.385 247.627 270.214V284.977C247.626 285.805 246.955 286.477 246.127 286.477C245.298 286.476 244.627 285.805 244.627 284.977ZM231.388 265.863C231.803 265.146 232.72 264.9 233.437 265.314C234.154 265.729 234.4 266.646 233.986 267.363L226.601 280.151C226.187 280.868 225.27 281.114 224.552 280.7C223.835 280.286 223.59 279.369 224.004 278.651L231.388 265.863ZM258.817 265.314C259.534 264.901 260.452 265.146 260.866 265.863L268.245 278.651C268.659 279.369 268.412 280.286 267.695 280.7C266.977 281.114 266.06 280.868 265.646 280.15L258.268 267.363C257.854 266.646 258.1 265.729 258.817 265.314ZM222.097 255.475C222.815 255.061 223.732 255.306 224.146 256.023C224.56 256.741 224.315 257.658 223.597 258.072L210.809 265.457C210.092 265.871 209.175 265.625 208.76 264.908C208.346 264.191 208.592 263.273 209.309 262.858L222.097 255.475ZM268.102 256.023C268.516 255.306 269.434 255.06 270.151 255.475L282.939 262.858C283.656 263.273 283.902 264.191 283.488 264.908C283.074 265.626 282.155 265.871 281.438 265.457L268.651 258.072C267.934 257.658 267.688 256.741 268.102 256.023ZM219.247 241.833C220.075 241.833 220.746 242.505 220.747 243.333C220.747 244.161 220.075 244.833 219.247 244.833H204.484C203.656 244.833 202.984 244.161 202.984 243.333C202.984 242.505 203.656 241.833 204.484 241.833H219.247ZM287.77 241.833C288.598 241.833 289.27 242.505 289.27 243.333C289.27 244.161 288.598 244.833 287.77 244.833H273.002C272.173 244.833 271.502 244.161 271.502 243.333C271.502 242.505 272.173 241.833 273.002 241.833H287.77ZM208.76 221.766C209.174 221.048 210.092 220.802 210.809 221.216L223.596 228.594C224.314 229.008 224.56 229.925 224.146 230.643C223.732 231.36 222.815 231.606 222.097 231.192L209.31 223.814C208.593 223.4 208.347 222.483 208.76 221.766ZM281.439 221.216C282.157 220.802 283.074 221.048 283.488 221.766C283.902 222.483 283.656 223.4 282.938 223.814L270.151 231.192C269.433 231.606 268.516 231.36 268.102 230.643C267.688 229.925 267.934 229.008 268.651 228.594L281.439 221.216ZM224.552 205.973C225.27 205.558 226.187 205.804 226.601 206.521L233.986 219.31C234.4 220.027 234.154 220.944 233.437 221.358C232.72 221.773 231.803 221.527 231.388 220.81L224.004 208.021C223.589 207.304 223.835 206.387 224.552 205.973ZM265.646 206.522C266.06 205.805 266.977 205.559 267.695 205.973C268.412 206.387 268.659 207.304 268.245 208.021L260.866 220.809C260.452 221.526 259.535 221.772 258.817 221.358C258.1 220.944 257.854 220.027 258.268 219.31L265.646 206.522ZM244.627 216.453V201.69C244.627 200.862 245.298 200.191 246.127 200.19C246.955 200.19 247.627 200.862 247.627 201.69V216.453C247.627 217.282 246.955 217.953 246.127 217.953C245.298 217.953 244.627 217.281 244.627 216.453Z" fill="#1D1D1B"/>
</g>
<defs>
<clipPath id="clip0_170_172">
<rect width="500" height="500" fill="white"/>
</clipPath>
</defs>
</svg>
