<svg fill="none" viewBox="0 0 32 32" xmlns="http://www.w3.org/2000/svg"><g filter="url(#at)"><path d="m21.062 11.631c0-0.3314 0.2686-0.6001 0.6-0.6001h4.6984c0.3314 0 0.6 0.2687 0.6 0.6001v1.0875h-5.8984v-1.0875z" fill="url(#ai)"/><path d="m21.062 11.631c0-0.3314 0.2686-0.6001 0.6-0.6001h4.6984c0.3314 0 0.6 0.2687 0.6 0.6001v1.0875h-5.8984v-1.0875z" fill="url(#x)"/></g><g filter="url(#ar)"><path d="m5.0781 11.581c0-0.3037 0.24625-0.55 0.55001-0.55h2.8688c0.30375 0 0.55 0.2463 0.55 0.5501v1.1375h-3.9688v-1.1376z" fill="url(#m)"/><path d="m5.0781 11.581c0-0.3037 0.24625-0.55 0.55001-0.55h2.8688c0.30375 0 0.55 0.2463 0.55 0.5501v1.1375h-3.9688v-1.1376z" fill="url(#g)"/></g><path d="m2.0312 28.141c0 0.9748 0.79026 1.765 1.7651 1.765h24.407c0.9748 0 1.7651-0.7902 1.7651-1.765 0-0.0349-0.0283-0.0631-0.0631-0.0631h-27.811c-0.03482 0-0.06304 0.0282-0.06304 0.0631z" fill="url(#f)"/><path d="m2.0312 28.141c0 0.9748 0.79026 1.765 1.7651 1.765h24.407c0.9748 0 1.7651-0.7902 1.7651-1.765 0-0.0349-0.0283-0.0631-0.0631-0.0631h-27.811c-0.03482 0-0.06304 0.0282-0.06304 0.0631z" fill="url(#e)"/><path d="m2.0312 28.141c0 0.9748 0.79026 1.765 1.7651 1.765h24.407c0.9748 0 1.7651-0.7902 1.7651-1.765 0-0.0349-0.0283-0.0631-0.0631-0.0631h-27.811c-0.03482 0-0.06304 0.0282-0.06304 0.0631z" fill="url(#d)"/><path d="m2.0312 28.141c0 0.9748 0.79026 1.765 1.7651 1.765h24.407c0.9748 0 1.7651-0.7902 1.7651-1.765 0-0.0349-0.0283-0.0631-0.0631-0.0631h-27.811c-0.03482 0-0.06304 0.0282-0.06304 0.0631z" fill="url(#c)"/><path d="m2.0312 28.141c0 0.9748 0.79026 1.765 1.7651 1.765h24.407c0.9748 0 1.7651-0.7902 1.7651-1.765 0-0.0349-0.0283-0.0631-0.0631-0.0631h-27.811c-0.03482 0-0.06304 0.0282-0.06304 0.0631z" fill="url(#b)"/><path d="m2.0312 16.188c0-0.1381 0.11193-0.25 0.25-0.25h27.438c0.138 0 0.25 0.1119 0.25 0.25v11.641c0 0.1381-0.112 0.25-0.25 0.25h-27.438c-0.13807 0-0.25-0.1119-0.25-0.25v-11.641z" fill="url(#a)"/><path d="m2.0312 16.188c0-0.1381 0.11193-0.25 0.25-0.25h27.438c0.138 0 0.25 0.1119 0.25 0.25v11.641c0 0.1381-0.112 0.25-0.25 0.25h-27.438c-0.13807 0-0.25-0.1119-0.25-0.25v-11.641z" fill="url(#ah)"/><path d="m2.0312 16.188c0-0.1381 0.11193-0.25 0.25-0.25h27.438c0.138 0 0.25 0.1119 0.25 0.25v11.641c0 0.1381-0.112 0.25-0.25 0.25h-27.438c-0.13807 0-0.25-0.1119-0.25-0.25v-11.641z" fill="url(#ag)"/><path d="m2.0312 16.188c0-0.1381 0.11193-0.25 0.25-0.25h27.438c0.138 0 0.25 0.1119 0.25 0.25v11.641c0 0.1381-0.112 0.25-0.25 0.25h-27.438c-0.13807 0-0.25-0.1119-0.25-0.25v-11.641z" fill="url(#af)"/><path d="m2.0312 16.188c0-0.1381 0.11193-0.25 0.25-0.25h27.438c0.138 0 0.25 0.1119 0.25 0.25v11.641c0 0.1381-0.112 0.25-0.25 0.25h-27.438c-0.13807 0-0.25-0.1119-0.25-0.25v-11.641z" fill="url(#ae)"/><path d="m2.0312 16.188c0-0.1381 0.11193-0.25 0.25-0.25h27.438c0.138 0 0.25 0.1119 0.25 0.25v11.641c0 0.1381-0.112 0.25-0.25 0.25h-27.438c-0.13807 0-0.25-0.1119-0.25-0.25v-11.641z" fill="url(#ad)"/><path d="m2.0312 16.188c0-0.1381 0.11193-0.25 0.25-0.25h27.438c0.138 0 0.25 0.1119 0.25 0.25v11.641c0 0.1381-0.112 0.25-0.25 0.25h-27.438c-0.13807 0-0.25-0.1119-0.25-0.25v-11.641z" fill="url(#ac)"/><g filter="url(#aq)"><rect x="29.016" y="16.258" width=".46875" height="11.5" fill="#8D8D92"/></g><g filter="url(#ap)"><path d="m9.2823 15.725c-0.20146 0.3019-0.3909 0.6366-0.5661 1.0079l-0.01092-4e-4c-0.17987 0.3877-0.5726 0.6566-1.0281 0.6566-0.45544 0-0.84811-0.2688-1.028-0.6563l-0.0032 1e-4c-0.1752-0.3713-0.36464-0.706-0.56609-1.0079h3.2025z" fill="#4E474A"/></g><g filter="url(#ao)"><path d="m2.0312 14.023c0-1.1045 0.89543-2 2-2h23.938c1.1045 0 2 0.8955 2 2v1.6641c0 0.1381-0.112 0.25-0.25 0.25h-27.438c-0.13807 0-0.25-0.1119-0.25-0.25v-1.6641z" fill="#DAD4E6"/><path d="m2.0312 14.023c0-1.1045 0.89543-2 2-2h23.938c1.1045 0 2 0.8955 2 2v1.6641c0 0.1381-0.112 0.25-0.25 0.25h-27.438c-0.13807 0-0.25-0.1119-0.25-0.25v-1.6641z" fill="url(#ab)"/><path d="m2.0312 14.023c0-1.1045 0.89543-2 2-2h23.938c1.1045 0 2 0.8955 2 2v1.6641c0 0.1381-0.112 0.25-0.25 0.25h-27.438c-0.13807 0-0.25-0.1119-0.25-0.25v-1.6641z" fill="url(#aa)"/><path d="m2.0312 14.023c0-1.1045 0.89543-2 2-2h23.938c1.1045 0 2 0.8955 2 2v1.6641c0 0.1381-0.112 0.25-0.25 0.25h-27.438c-0.13807 0-0.25-0.1119-0.25-0.25v-1.6641z" fill="url(#z)"/><path d="m2.0312 14.023c0-1.1045 0.89543-2 2-2h23.938c1.1045 0 2 0.8955 2 2v1.6641c0 0.1381-0.112 0.25-0.25 0.25h-27.438c-0.13807 0-0.25-0.1119-0.25-0.25v-1.6641z" fill="url(#y)"/><path d="m2.0312 14.023c0-1.1045 0.89543-2 2-2h23.938c1.1045 0 2 0.8955 2 2v1.6641c0 0.1381-0.112 0.25-0.25 0.25h-27.438c-0.13807 0-0.25-0.1119-0.25-0.25v-1.6641z" fill="url(#w)"/></g><g filter="url(#an)"><circle cx="16" cy="21.977" r="7.0156" fill="url(#v)"/></g><g filter="url(#am)" stroke-width=".3"><circle cx="16" cy="21.977" r="4.9688" stroke="url(#u)"/><circle cx="16" cy="21.977" r="4.9688" stroke="url(#t)"/></g><circle cx="16" cy="21.977" r="4.9688" fill="url(#s)"/><circle cx="16" cy="21.977" r="4.9688" fill="url(#r)"/><g filter="url(#al)"><circle cx="16" cy="21.977" r="4.3516" fill="url(#q)"/><circle cx="16" cy="21.977" r="4.3516" fill="url(#p)"/></g><circle cx="16" cy="21.977" r="2.4531" fill="url(#o)"/><circle cx="16" cy="21.977" r="2.4531" fill="url(#n)"/><circle cx="16" cy="21.977" r="2.4531" fill="url(#l)"/><ellipse transform="rotate(-34.974 18.036 19.984)" cx="18.036" cy="19.984" rx=".83651" ry="1.0423" fill="url(#k)"/><g filter="url(#ak)"><path d="m6.125 15.781c-0.7285-1.0915-1.6593-1.5969-2.5957-2.0015-0.42938-0.161-0.5756-0.3008-0.5756-0.7864 0-0.1029-0.02571-0.3432 0-0.438 0.33383-0.2499 0.78781-0.2573 1.2369-0.2573l8.2532-0.2746c0.082 0.1015 0 0.0884 0 0.2746 0 0.4629-0.2915 0.6124-0.6894 0.7882l-2e-4 0.0023c-0.9688 0.408-1.8035 1.4391-2.5511 2.6927h-3.0781z" fill="#A99A99"/></g><g filter="url(#aj)"><path d="m8.1016 7.0078c0.45554 0 0.84827 0.26888 1.0281 0.65658l0.01092-3.3e-4c0.82032 1.7383 1.9532 2.6757 3.168 3.1875l1e-4 0.0023c0.398 0.1757 0.6757 0.5738 0.6757 1.0367 0 0.463-0.2777 0.8611-0.6757 1.0368l-1e-4 0.0023c-1.2148 0.5117-2.3477 1.4492-3.168 3.1875-0.13805 0.2925-0.46093 0.6562-1.0391 0.6562-0.45544 0-0.84811-0.2687-1.028-0.6563l-0.00321 1e-4c-0.80874-1.7138-1.9212-2.6492-3.1166-3.1656-0.42939-0.1611-0.73499-0.5753-0.73499-1.061 0-0.4856 0.3056-0.8999 0.73499-1.061 1.1954-0.5164 2.3078-1.4518 3.1166-3.1655l0.00321 1e-4c0.17993-0.38758 0.5726-0.65635 1.028-0.65635z" fill="url(#j)"/><path d="m8.1016 7.0078c0.45554 0 0.84827 0.26888 1.0281 0.65658l0.01092-3.3e-4c0.82032 1.7383 1.9532 2.6757 3.168 3.1875l1e-4 0.0023c0.398 0.1757 0.6757 0.5738 0.6757 1.0367 0 0.463-0.2777 0.8611-0.6757 1.0368l-1e-4 0.0023c-1.2148 0.5117-2.3477 1.4492-3.168 3.1875-0.13805 0.2925-0.46093 0.6562-1.0391 0.6562-0.45544 0-0.84811-0.2687-1.028-0.6563l-0.00321 1e-4c-0.80874-1.7138-1.9212-2.6492-3.1166-3.1656-0.42939-0.1611-0.73499-0.5753-0.73499-1.061 0-0.4856 0.3056-0.8999 0.73499-1.061 1.1954-0.5164 2.3078-1.4518 3.1166-3.1655l0.00321 1e-4c0.17993-0.38758 0.5726-0.65635 1.028-0.65635z" fill="url(#i)"/></g><g filter="url(#as)"><path d="m8.1016 8.3438c0.3309 0 0.61618 0.19531 0.74684 0.47694l0.00794-2.4e-4c0.59587 1.2626 1.4188 1.9436 2.3013 2.3154l1e-4 0.0016c0.289 0.1277 0.4907 0.4168 0.4907 0.7531s-0.2017 0.6255-0.4907 0.7531l-1e-4 0.0017c-0.8825 0.3717-1.7054 1.0527-2.3013 2.3154l-0.00794-2e-4c-0.13066 0.2816-0.41594 0.4769-0.74684 0.4769-0.33083 0-0.61607-0.1952-0.74677-0.4768l-0.00233 1e-4c-0.58747-1.2449-1.3955-1.9244-2.2639-2.2995-0.3119-0.117-0.53389-0.4179-0.53389-0.7707s0.22199-0.6537 0.53389-0.7707c0.86834-0.3751 1.6764-1.0546 2.2639-2.2994l0.00233 7e-5c0.1307-0.28154 0.41594-0.47677 0.74677-0.47677z" fill="url(#h)"/></g><defs><filter id="at" x="21.062" y="11.031" width="5.8984" height="1.8375" color-interpolation-filters="sRGB" filterUnits="userSpaceOnUse"><feFlood flood-opacity="0" result="BackgroundImageFix"/><feBlend in="SourceGraphic" in2="BackgroundImageFix" result="shape"/><feColorMatrix in="SourceAlpha" result="hardAlpha" values="0 0 0 0 0 0 0 0 0 0 0 0 0 0 0 0 0 0 127 0"/><feOffset dy="0.15"/><feGaussianBlur stdDeviation="0.2"/><feComposite in2="hardAlpha" k2="-1" k3="1" operator="arithmetic"/><feColorMatrix values="0 0 0 0 0.701961 0 0 0 0 0.709804 0 0 0 0 0.713726 0 0 0 1 0"/><feBlend in2="shape" result="effect1_innerShadow_18_20289"/></filter><filter id="ar" x="5.0781" y="11.031" width="3.9688" height="1.8375" color-interpolation-filters="sRGB" filterUnits="userSpaceOnUse"><feFlood flood-opacity="0" result="BackgroundImageFix"/><feBlend in="SourceGraphic" in2="BackgroundImageFix" result="shape"/><feColorMatrix in="SourceAlpha" result="hardAlpha" values="0 0 0 0 0 0 0 0 0 0 0 0 0 0 0 0 0 0 127 0"/><feOffset dy="0.15"/><feGaussianBlur stdDeviation="0.2"/><feComposite in2="hardAlpha" k2="-1" k3="1" operator="arithmetic"/><feColorMatrix values="0 0 0 0 0.701961 0 0 0 0 0.709804 0 0 0 0 0.713726 0 0 0 1 0"/><feBlend in2="shape" result="effect1_innerShadow_18_20289"/></filter><filter id="aq" x="28.366" y="15.608" width="1.7688" height="12.8" color-interpolation-filters="sRGB" filterUnits="userSpaceOnUse"><feFlood flood-opacity="0" result="BackgroundImageFix"/><feBlend in="SourceGraphic" in2="BackgroundImageFix" result="shape"/><feGaussianBlur result="effect1_foregroundBlur_18_20289" stdDeviation="0.325"/></filter><filter id="ap" x="5.4298" y="15.075" width="4.5025" height="2.9641" color-interpolation-filters="sRGB" filterUnits="userSpaceOnUse"><feFlood flood-opacity="0" result="BackgroundImageFix"/><feBlend in="SourceGraphic" in2="BackgroundImageFix" result="shape"/><feGaussianBlur result="effect1_foregroundBlur_18_20289" stdDeviation="0.325"/></filter><filter id="ao" x="2.0312" y="12.023" width="27.938" height="4.0141" color-interpolation-filters="sRGB" filterUnits="userSpaceOnUse"><feFlood flood-opacity="0" result="BackgroundImageFix"/><feBlend in="SourceGraphic" in2="BackgroundImageFix" result="shape"/><feColorMatrix in="SourceAlpha" result="hardAlpha" values="0 0 0 0 0 0 0 0 0 0 0 0 0 0 0 0 0 0 127 0"/><feOffset dy="0.1"/><feGaussianBlur stdDeviation="0.15"/><feComposite in2="hardAlpha" k2="-1" k3="1" operator="arithmetic"/><feColorMatrix values="0 0 0 0 0.796078 0 0 0 0 0.8 0 0 0 0 0.803922 0 0 0 1 0"/><feBlend in2="shape" result="effect1_innerShadow_18_20289"/></filter><filter id="an" x="8.8344" y="14.811" width="14.331" height="14.331" color-interpolation-filters="sRGB" filterUnits="userSpaceOnUse"><feFlood flood-opacity="0" result="BackgroundImageFix"/><feBlend in="SourceGraphic" in2="BackgroundImageFix" result="shape"/><feColorMatrix in="SourceAlpha" result="hardAlpha" values="0 0 0 0 0 0 0 0 0 0 0 0 0 0 0 0 0 0 127 0"/><feOffset dy="-0.15"/><feGaussianBlur stdDeviation="0.075"/><feComposite in2="hardAlpha" k2="-1" k3="1" operator="arithmetic"/><feColorMatrix values="0 0 0 0 0.545098 0 0 0 0 0.529412 0 0 0 0 0.580392 0 0 0 1 0"/><feBlend in2="shape" result="effect1_innerShadow_18_20289"/><feColorMatrix in="SourceAlpha" result="hardAlpha" values="0 0 0 0 0 0 0 0 0 0 0 0 0 0 0 0 0 0 127 0"/><feOffset dx="0.15"/><feGaussianBlur stdDeviation="0.075"/><feComposite in2="hardAlpha" k2="-1" k3="1" operator="arithmetic"/><feColorMatrix values="0 0 0 0 0.564706 0 0 0 0 0.54902 0 0 0 0 0.6 0 0 0 1 0"/><feBlend in2="effect1_innerShadow_18_20289" result="effect2_innerShadow_18_20289"/><feColorMatrix in="SourceAlpha" result="hardAlpha" values="0 0 0 0 0 0 0 0 0 0 0 0 0 0 0 0 0 0 127 0"/><feOffset dy="0.15"/><feGaussianBlur stdDeviation="0.075"/><feComposite in2="hardAlpha" k2="-1" k3="1" operator="arithmetic"/><feColorMatrix values="0 0 0 0 0.619608 0 0 0 0 0.623529 0 0 0 0 0.631373 0 0 0 1 0"/><feBlend in2="effect2_innerShadow_18_20289" result="effect3_innerShadow_18_20289"/><feColorMatrix in="SourceAlpha" result="hardAlpha" values="0 0 0 0 0 0 0 0 0 0 0 0 0 0 0 0 0 0 127 0"/><feOffset dx="-0.15" dy="0.1"/><feGaussianBlur stdDeviation="0.125"/><feComposite in2="hardAlpha" k2="-1" k3="1" operator="arithmetic"/><feColorMatrix values="0 0 0 0 0.803922 0 0 0 0 0.803922 0 0 0 0 0.823529 0 0 0 1 0"/><feBlend in2="effect3_innerShadow_18_20289" result="effect4_innerShadow_18_20289"/></filter><filter id="am" x="10.481" y="16.458" width="11.038" height="11.038" color-interpolation-filters="sRGB" filterUnits="userSpaceOnUse"><feFlood flood-opacity="0" result="BackgroundImageFix"/><feBlend in="SourceGraphic" in2="BackgroundImageFix" result="shape"/><feGaussianBlur result="effect1_foregroundBlur_18_20289" stdDeviation="0.2"/></filter><filter id="al" x="10.898" y="16.875" width="10.203" height="10.203" color-interpolation-filters="sRGB" filterUnits="userSpaceOnUse"><feFlood flood-opacity="0" result="BackgroundImageFix"/><feBlend in="SourceGraphic" in2="BackgroundImageFix" result="shape"/><feGaussianBlur result="effect1_foregroundBlur_18_20289" stdDeviation="0.375"/></filter><filter id="ak" x="2.1923" y="11.273" width="11.038" height="5.2578" color-interpolation-filters="sRGB" filterUnits="userSpaceOnUse"><feFlood flood-opacity="0" result="BackgroundImageFix"/><feBlend in="SourceGraphic" in2="BackgroundImageFix" result="shape"/><feGaussianBlur result="effect1_foregroundBlur_18_20289" stdDeviation="0.375"/></filter><filter id="aj" x="3.2188" y="6.7578" width="10.016" height="10.016" color-interpolation-filters="sRGB" filterUnits="userSpaceOnUse"><feFlood flood-opacity="0" result="BackgroundImageFix"/><feBlend in="SourceGraphic" in2="BackgroundImageFix" result="shape"/><feColorMatrix in="SourceAlpha" result="hardAlpha" values="0 0 0 0 0 0 0 0 0 0 0 0 0 0 0 0 0 0 127 0"/><feOffset dx="0.25" dy="-0.25"/><feGaussianBlur stdDeviation="0.375"/><feComposite in2="hardAlpha" k2="-1" k3="1" operator="arithmetic"/><feColorMatrix values="0 0 0 0 0.823529 0 0 0 0 0.666667 0 0 0 0 0.254902 0 0 0 1 0"/><feBlend in2="shape" result="effect1_innerShadow_18_20289"/></filter><filter id="as" x="3.0547" y="6.8438" width="10.094" height="10.094" color-interpolation-filters="sRGB" filterUnits="userSpaceOnUse"><feFlood flood-opacity="0" result="BackgroundImageFix"/><feBlend in="SourceGraphic" in2="BackgroundImageFix" result="shape"/><feGaussianBlur result="effect1_foregroundBlur_18_20289" stdDeviation="0.75"/></filter><linearGradient id="ai" x1="21.406" x2="27.438" y1="11.875" y2="11.875" gradientUnits="userSpaceOnUse"><stop stop-color="#949597" offset=".19691"/><stop stop-color="#C1C2C4" offset=".62447"/></linearGradient><radialGradient id="x" cx="0" cy="0" r="1" gradientTransform="translate(25.438 11.469) rotate(90) scale(.21875 1.6875)" gradientUnits="userSpaceOnUse"><stop stop-color="#CFD0D2" offset="0"/><stop stop-color="#CFD0D2" stop-opacity="0" offset="1"/></radialGradient><linearGradient id="m" x1="5.3094" x2="9.3675" y1="11.875" y2="11.875" gradientUnits="userSpaceOnUse"><stop stop-color="#949597" offset=".19691"/><stop stop-color="#C1C2C4" offset=".62447"/></linearGradient><radialGradient id="g" cx="0" cy="0" r="1" gradientTransform="translate(8.0218 11.469) rotate(90) scale(.21875 1.1354)" gradientUnits="userSpaceOnUse"><stop stop-color="#CFD0D2" offset="0"/><stop stop-color="#CFD0D2" stop-opacity="0" offset="1"/></radialGradient><linearGradient id="f" x1="16" x2="16" y1="28.078" y2="29.906" gradientUnits="userSpaceOnUse"><stop stop-color="#CFC6DE" offset="0"/><stop stop-color="#C3B4D7" offset="1"/></linearGradient><linearGradient id="e" x1="17.375" x2="17.375" y1="29.906" y2="28.5" gradientUnits="userSpaceOnUse"><stop stop-color="#AC91C9" offset="0"/><stop stop-color="#C2B3D6" stop-opacity="0" offset="1"/></linearGradient><linearGradient id="d" x1="16" x2="16" y1="28.078" y2="28.594" gradientUnits="userSpaceOnUse"><stop stop-color="#CFCBD7" offset="0"/><stop stop-color="#CFCBD7" stop-opacity="0" offset="1"/></linearGradient><radialGradient id="c" cx="0" cy="0" r="1" gradientTransform="translate(29.281 27.688) rotate(90) scale(1.9375 1.2553)" gradientUnits="userSpaceOnUse"><stop stop-color="#F7F4FE" offset=".24193"/><stop stop-color="#C8BCDB" stop-opacity="0" offset="1"/></radialGradient><radialGradient id="b" cx="0" cy="0" r="1" gradientTransform="translate(14.25 25.312) rotate(90) scale(4.5938 6.4831)" gradientUnits="userSpaceOnUse"><stop stop-color="#9884AF" offset=".64516"/><stop stop-color="#9884AF" stop-opacity="0" offset="1"/></radialGradient><linearGradient id="a" x1="20.281" x2="29.281" y1="22.008" y2="22.008" gradientUnits="userSpaceOnUse"><stop stop-color="#66636F" offset="0"/><stop stop-color="#6B6873" offset="1"/></linearGradient><linearGradient id="ah" x1="2.0312" x2="4.7188" y1="23.688" y2="23.719" gradientUnits="userSpaceOnUse"><stop stop-color="#5E5C64" offset=".3421"/><stop stop-color="#5E5C64" stop-opacity="0" offset="1"/></linearGradient><linearGradient id="ag" x1="1.6875" x2="2.8438" y1="22.188" y2="22.188" gradientUnits="userSpaceOnUse"><stop stop-color="#8F8F91" offset="0"/><stop stop-color="#6D6C71" stop-opacity="0" offset="1"/></linearGradient><linearGradient id="af" x1="16" x2="16" y1="15.938" y2="16.688" gradientUnits="userSpaceOnUse"><stop stop-color="#706F76" offset="0"/><stop stop-color="#706F76" stop-opacity="0" offset="1"/></linearGradient><linearGradient id="ae" x1="16" x2="16" y1="15.938" y2="16.266" gradientUnits="userSpaceOnUse"><stop stop-color="#5F5E65" offset="0"/><stop stop-color="#5F5E65" stop-opacity="0" offset="1"/></linearGradient><linearGradient id="ad" x1="19.312" x2="19.312" y1="28.078" y2="27.469" gradientUnits="userSpaceOnUse"><stop stop-color="#5C536A" offset="0"/><stop stop-color="#5C536A" stop-opacity="0" offset="1"/></linearGradient><radialGradient id="ac" cx="0" cy="0" r="1" gradientTransform="translate(13.625 23.906) rotate(53.678) scale(8.4941 8.4617)" gradientUnits="userSpaceOnUse"><stop stop-color="#4B4357" offset=".59701"/><stop stop-color="#524C5D" stop-opacity="0" offset="1"/></radialGradient><linearGradient id="ab" x1="16" x2="16" y1="12.023" y2="13.656" gradientUnits="userSpaceOnUse"><stop stop-color="#D8D8DC" offset="0"/><stop stop-color="#D8D8DC" stop-opacity="0" offset="1"/></linearGradient><linearGradient id="aa" x1="2.0312" x2="3.5938" y1="15.344" y2="15.344" gradientUnits="userSpaceOnUse"><stop stop-color="#C6C3CC" offset=".22"/><stop stop-color="#C6C3CC" stop-opacity="0" offset="1"/></linearGradient><linearGradient id="z" x1="29.969" x2="27.406" y1="15.594" y2="15.594" gradientUnits="userSpaceOnUse"><stop stop-color="#F9F7FE" offset=".15"/><stop stop-color="#D3CDDD" stop-opacity="0" offset="1"/></linearGradient><radialGradient id="y" cx="0" cy="0" r="1" gradientTransform="translate(29.969 12.781) rotate(135.46) scale(1.7098 2.076)" gradientUnits="userSpaceOnUse"><stop stop-color="#F9F7FE" offset=".15"/><stop stop-color="#F9F7FE" stop-opacity="0" offset="1"/></radialGradient><linearGradient id="w" x1="17.625" x2="17.625" y1="15.938" y2="15.594" gradientUnits="userSpaceOnUse"><stop stop-color="#B6ADC6" offset="0"/><stop stop-color="#B6ADC6" stop-opacity="0" offset="1"/></linearGradient><radialGradient id="v" cx="0" cy="0" r="1" gradientTransform="translate(21.344 18.688) rotate(143.87) scale(11.182)" gradientUnits="userSpaceOnUse"><stop stop-color="#A6A2AE" offset="0"/><stop stop-color="#A6A2AF" offset="1"/></radialGradient><linearGradient id="u" x1="19.281" x2="16" y1="16.781" y2="26.945" gradientUnits="userSpaceOnUse"><stop stop-color="#6A6375" offset="0"/><stop stop-color="#6A6375" stop-opacity="0" offset="1"/></linearGradient><linearGradient id="t" x1="12.844" x2="14.656" y1="25.812" y2="23.344" gradientUnits="userSpaceOnUse"><stop stop-color="#B7B6BD" offset=".36304"/><stop stop-color="#B7B6BD" stop-opacity="0" offset="1"/></linearGradient><radialGradient id="s" cx="0" cy="0" r="1" gradientTransform="translate(18.719 20.656) rotate(143.91) scale(6.4194 5.9978)" gradientUnits="userSpaceOnUse"><stop stop-color="#67616D" offset=".068318"/><stop stop-color="#4D3E5C" offset="1"/></radialGradient><linearGradient id="r" x1="19.438" x2="12.5" y1="17.008" y2="25.875" gradientUnits="userSpaceOnUse"><stop stop-color="#2C2634" offset="0"/><stop stop-color="#40344C" offset=".59877"/></linearGradient><radialGradient id="q" cx="0" cy="0" r="1" gradientTransform="translate(18.381 20.82) rotate(143.91) scale(5.622 5.2528)" gradientUnits="userSpaceOnUse"><stop stop-color="#67616D" offset=".068318"/><stop stop-color="#4D3E5C" offset="1"/></radialGradient><radialGradient id="p" cx="0" cy="0" r="1" gradientTransform="translate(18.375 20.156) rotate(147.4) scale(7.3078 7.0708)" gradientUnits="userSpaceOnUse"><stop stop-color="#554863" stop-opacity="0" offset=".77983"/><stop stop-color="#554863" offset=".98543"/></radialGradient><linearGradient id="o" x1="17.281" x2="14.062" y1="24.25" y2="19.969" gradientUnits="userSpaceOnUse"><stop stop-color="#463755" offset="0"/><stop stop-color="#473F51" offset="1"/></linearGradient><radialGradient id="n" cx="0" cy="0" r="1" gradientTransform="translate(14.375 23.812) rotate(-48.614) scale(4.2068 2.8848)" gradientUnits="userSpaceOnUse"><stop stop-color="#544E5C" offset="0"/><stop stop-color="#544E5C" stop-opacity="0" offset="1"/></radialGradient><radialGradient id="l" cx="0" cy="0" r="1" gradientTransform="translate(18.453 19.906) rotate(146.09) scale(2.2405)" gradientUnits="userSpaceOnUse"><stop stop-color="#544E5C" offset="0"/><stop stop-color="#544E5C" stop-opacity="0" offset="1"/></radialGradient><linearGradient id="k" x1="18.475" x2="17.74" y1="19.357" y2="21.054" gradientUnits="userSpaceOnUse"><stop stop-color="#F3F2F4" offset=".051179"/><stop stop-color="#F3F2F4" stop-opacity="0" offset="1"/></linearGradient><radialGradient id="j" cx="0" cy="0" r="1" gradientTransform="translate(11.188 8.8125) rotate(140.71) scale(3.5532 6.218)" gradientUnits="userSpaceOnUse"><stop stop-color="#FFFF9C" offset="0"/><stop stop-color="#EAC73C" offset="1"/></radialGradient><radialGradient id="i" cx="0" cy="0" r="1" gradientTransform="translate(10.469 8.9375) rotate(136.74) scale(1.4591 2.6499)" gradientUnits="userSpaceOnUse"><stop stop-color="#FFFCA0" offset=".17248"/><stop stop-color="#FFFCA0" stop-opacity="0" offset="1"/></radialGradient><radialGradient id="h" cx="0" cy="0" r="1" gradientTransform="translate(8.1016 11.891) rotate(90) scale(6.0469)" gradientUnits="userSpaceOnUse"><stop stop-color="#FFEDD9" offset=".12662"/><stop stop-color="#FFEDD9" stop-opacity="0" offset="1"/></radialGradient></defs></svg>
