<svg fill="none" preserveAspectRatio="xMinYMin meet" viewBox="0 0 240 30" xmlns="http://www.w3.org/2000/svg" xmlns:xlink="http://www.w3.org/1999/xlink"><clipPath id="a"><path d="m0 .440643h240v29.1187h-240z"/></clipPath><g clip-path="url(#a)"><g fill="#000"><path d="m222.702 29.5593c1.052 0 1.904-.8525 1.904-1.9043 0-1.0517-.852-1.9043-1.904-1.9043s-1.904.8526-1.904 1.9043c0 1.0518.852 1.9043 1.904 1.9043z"/><path d="m228.924 29.5593c1.052 0 1.905-.8525 1.905-1.9043 0-1.0517-.853-1.9043-1.905-1.9043-1.051 0-1.904.8526-1.904 1.9043 0 1.0518.853 1.9043 1.904 1.9043z"/><path d="m235.141 29.5593c1.051 0 1.904-.8525 1.904-1.9043 0-1.0517-.853-1.9043-1.904-1.9043-1.052 0-1.905.8526-1.905 1.9043 0 1.0518.853 1.9043 1.905 1.9043z"/><path d="m9.1394 6.05165h-9.1394v-5.388106h24.8961v5.388106h-9.1394v23.18285h-6.61093v-23.18285z"/><path d="m54.6453.663544v28.564556h-6.6109v-11.7124h-12.9799v11.7124h-6.6109v-28.564556h6.6109v11.266656h12.9799v-11.266656z"/><path d="m78.9809 29.2345-5.5091-7.9611h-6.0823v7.9611h-6.6109v-28.570956h12.3684c2.5285 0 4.7257.420346 6.5918 1.267416 1.8661.8407 3.2991 2.03805 4.3054 3.59207s1.5095 3.38826 1.5095 5.50907c0 2.1209-.5096 3.9551-1.5286 5.4901-1.019 1.5349-2.4711 2.7131-4.3436 3.5283l6.4071 9.184h-7.1013zm-1.6686-21.89633c-1.0318-.8598-2.5412-1.28652-4.5283-1.28652h-5.3881v9.95465h5.3881c1.9871 0 3.4965-.4331 4.5283-1.3057 1.0317-.8725 1.554-2.0953 1.554-3.6748 0-1.57952-.5159-2.83419-1.554-3.694z"/><path d="m112.896 23.9292v5.3053h-22.1198v-28.570956h21.5908v5.305306h-15.018v6.20335h13.266v5.1397h-13.266v6.6109h15.547z"/><path d="m140.282 23.9292v5.3053h-22.119v-28.570956h21.59v5.305306h-15.018v6.20335h13.267v5.1397h-13.267v6.6109h15.547z"/><path d="m171.541 29.2345-.039-17.1387-8.407 14.1199h-2.98l-8.369-13.7505v16.7757h-6.203v-28.577356h5.471l10.693 17.750156 10.528-17.750156h5.426l.083 28.564656h-6.203z"/><path d="m203.334 23.114h-13.266l-2.529 6.1205h-6.776l12.731-28.570956h6.528l12.776 28.564556h-6.935l-2.529-6.1205zm-2.082-5.0187-4.529-10.93546-4.528 10.93546z"/><path clip-rule="evenodd" d="m228.67.440643c-6.248 0-11.331 5.082397-11.331 11.330357 0 2.4775.803 4.7766 2.159 6.6427l-1.413 4.2099 4.356-1.3948c1.79 1.1846 3.929 1.8725 6.235 1.8725 6.248 0 11.33-5.0824 11.33-11.3303 0-6.24796-5.082-11.330357-11.33-11.330357z" fill-rule="evenodd"/></g><path d="m232.032 10.5545h-.101v-1.52219c0-1.79604-1.465-3.26089-3.261-3.26089s-3.261 1.46485-3.261 3.26089v1.52219h-.102c-.567 0-1.026.4585-1.026 1.0254v4.1143c0 .5668.459 1.0254 1.026 1.0254h6.719c.567 0 1.026-.4586 1.026-1.0254v-4.1143c0-.5669-.459-1.0254-1.026-1.0254zm-5.286-1.52219c0-1.06361.866-1.92341 1.924-1.92341 1.057 0 1.923.86617 1.923 1.92341v1.52219h-3.847z" fill="#fff"/></g></svg>