<svg fill="none" viewBox="0 0 32 32" xmlns="http://www.w3.org/2000/svg"><path d="m15.953 30.01h-1.19c-0.41 0-0.75-0.33-0.75-0.75s0.34-0.75 0.75-0.75h0.75v-9.51c0-0.41 0.34-0.75 0.75-0.75s0.75 0.34 0.75 0.76v9.95c0 0.58-0.48 1.05-1.06 1.05z" fill="#E06593"/><path d="m15.953 30.01h-1.19c-0.41 0-0.75-0.33-0.75-0.75s0.34-0.75 0.75-0.75h0.75v-9.51c0-0.41 0.34-0.75 0.75-0.75s0.75 0.34 0.75 0.76v9.95c0 0.58-0.48 1.05-1.06 1.05z" fill="url(#ad)"/><path d="m15.953 30.01h-1.19c-0.41 0-0.75-0.33-0.75-0.75s0.34-0.75 0.75-0.75h0.75v-9.51c0-0.41 0.34-0.75 0.75-0.75s0.75 0.34 0.75 0.76v9.95c0 0.58-0.48 1.05-1.06 1.05z" fill="url(#s)"/><path d="m15.953 30.01h-1.19c-0.41 0-0.75-0.33-0.75-0.75s0.34-0.75 0.75-0.75h0.75v-9.51c0-0.41 0.34-0.75 0.75-0.75s0.75 0.34 0.75 0.76v9.95c0 0.58-0.48 1.05-1.06 1.05z" fill="url(#h)"/><g filter="url(#ak)"><path d="m16.45 29.031v-10.156" stroke="url(#g)" stroke-linecap="round" stroke-width=".3"/></g><path d="m11.263 24.5c-0.41 0-0.75-0.34-0.75-0.75v-0.37c0-0.76 0.62-1.38 1.38-1.38h8.44c0.1 0 0.15-0.06 0.17-0.11s0.04-0.12-0.02-0.2l-3.92-5.02 1.18-0.92 3.92 5.02c0.4 0.51 0.47 1.19 0.19 1.77-0.28 0.59-0.9 0.96-1.56 0.96h-8.28v0.24c0 0.43-0.34 0.76-0.75 0.76z" fill="url(#f)"/><path d="m11.263 24.5c-0.41 0-0.75-0.34-0.75-0.75v-0.37c0-0.76 0.62-1.38 1.38-1.38h8.44c0.1 0 0.15-0.06 0.17-0.11s0.04-0.12-0.02-0.2l-3.92-5.02 1.18-0.92 3.92 5.02c0.4 0.51 0.47 1.19 0.19 1.77-0.28 0.59-0.9 0.96-1.56 0.96h-8.28v0.24c0 0.43-0.34 0.76-0.75 0.76z" fill="url(#e)"/><path d="m11.263 24.5c-0.41 0-0.75-0.34-0.75-0.75v-0.37c0-0.76 0.62-1.38 1.38-1.38h8.44c0.1 0 0.15-0.06 0.17-0.11s0.04-0.12-0.02-0.2l-3.92-5.02 1.18-0.92 3.92 5.02c0.4 0.51 0.47 1.19 0.19 1.77-0.28 0.59-0.9 0.96-1.56 0.96h-8.28v0.24c0 0.43-0.34 0.76-0.75 0.76z" fill="url(#d)"/><path d="m16.413 8h-0.14c-1.47 0-3.11 0.74-3.99 1.71l-2.99 2.98c-0.29 0.29-0.77 0.29-1.06 0s-0.29-0.77 0-1.06l4.98-4.98c0.51-0.51 0.8-1.21 0.8-1.93 0-1.5-1.22-2.72-2.72-2.72h-3.09c-1.21 0-2.19 0.98-2.19 2.19v1.15c0 0.28 0.32 0.45 0.55 0.3l0.6-0.39c0.24-0.16 0.53-0.25 0.82-0.25h2.78l-4.16 4.35c-1.02 1.06-1.59 2.47-1.59 3.94 0 3.16 2.55 5.71 5.71 5.71h15.13c0.66 0 1.19-0.56 1.13-1.23-0.43-5.41-5.06-9.7-10.57-9.77z" fill="url(#c)"/><path d="m16.413 8h-0.14c-1.47 0-3.11 0.74-3.99 1.71l-2.99 2.98c-0.29 0.29-0.77 0.29-1.06 0s-0.29-0.77 0-1.06l4.98-4.98c0.51-0.51 0.8-1.21 0.8-1.93 0-1.5-1.22-2.72-2.72-2.72h-3.09c-1.21 0-2.19 0.98-2.19 2.19v1.15c0 0.28 0.32 0.45 0.55 0.3l0.6-0.39c0.24-0.16 0.53-0.25 0.82-0.25h2.78l-4.16 4.35c-1.02 1.06-1.59 2.47-1.59 3.94 0 3.16 2.55 5.71 5.71 5.71h15.13c0.66 0 1.19-0.56 1.13-1.23-0.43-5.41-5.06-9.7-10.57-9.77z" fill="url(#b)"/><path d="m16.413 8h-0.14c-1.47 0-3.11 0.74-3.99 1.71l-2.99 2.98c-0.29 0.29-0.77 0.29-1.06 0s-0.29-0.77 0-1.06l4.98-4.98c0.51-0.51 0.8-1.21 0.8-1.93 0-1.5-1.22-2.72-2.72-2.72h-3.09c-1.21 0-2.19 0.98-2.19 2.19v1.15c0 0.28 0.32 0.45 0.55 0.3l0.6-0.39c0.24-0.16 0.53-0.25 0.82-0.25h2.78l-4.16 4.35c-1.02 1.06-1.59 2.47-1.59 3.94 0 3.16 2.55 5.71 5.71 5.71h15.13c0.66 0 1.19-0.56 1.13-1.23-0.43-5.41-5.06-9.7-10.57-9.77z" fill="url(#a)"/><path d="m16.413 8h-0.14c-1.47 0-3.11 0.74-3.99 1.71l-2.99 2.98c-0.29 0.29-0.77 0.29-1.06 0s-0.29-0.77 0-1.06l4.98-4.98c0.51-0.51 0.8-1.21 0.8-1.93 0-1.5-1.22-2.72-2.72-2.72h-3.09c-1.21 0-2.19 0.98-2.19 2.19v1.15c0 0.28 0.32 0.45 0.55 0.3l0.6-0.39c0.24-0.16 0.53-0.25 0.82-0.25h2.78l-4.16 4.35c-1.02 1.06-1.59 2.47-1.59 3.94 0 3.16 2.55 5.71 5.71 5.71h15.13c0.66 0 1.19-0.56 1.13-1.23-0.43-5.41-5.06-9.7-10.57-9.77z" fill="url(#ac)"/><path d="m16.413 8h-0.14c-1.47 0-3.11 0.74-3.99 1.71l-2.99 2.98c-0.29 0.29-0.77 0.29-1.06 0s-0.29-0.77 0-1.06l4.98-4.98c0.51-0.51 0.8-1.21 0.8-1.93 0-1.5-1.22-2.72-2.72-2.72h-3.09c-1.21 0-2.19 0.98-2.19 2.19v1.15c0 0.28 0.32 0.45 0.55 0.3l0.6-0.39c0.24-0.16 0.53-0.25 0.82-0.25h2.78l-4.16 4.35c-1.02 1.06-1.59 2.47-1.59 3.94 0 3.16 2.55 5.71 5.71 5.71h15.13c0.66 0 1.19-0.56 1.13-1.23-0.43-5.41-5.06-9.7-10.57-9.77z" fill="url(#ab)"/><path d="m16.413 8h-0.14c-1.47 0-3.11 0.74-3.99 1.71l-2.99 2.98c-0.29 0.29-0.77 0.29-1.06 0s-0.29-0.77 0-1.06l4.98-4.98c0.51-0.51 0.8-1.21 0.8-1.93 0-1.5-1.22-2.72-2.72-2.72h-3.09c-1.21 0-2.19 0.98-2.19 2.19v1.15c0 0.28 0.32 0.45 0.55 0.3l0.6-0.39c0.24-0.16 0.53-0.25 0.82-0.25h2.78l-4.16 4.35c-1.02 1.06-1.59 2.47-1.59 3.94 0 3.16 2.55 5.71 5.71 5.71h15.13c0.66 0 1.19-0.56 1.13-1.23-0.43-5.41-5.06-9.7-10.57-9.77z" fill="url(#aa)"/><g filter="url(#aj)"><path d="m24.03 16.9c-0.3308-4.0964-3.4346-7.3098-7.4044-7.3098-2.1016 0-3.8043 1.7966-3.8043 4.0142s1.7027 4.0142 3.8043 4.0142c0.0779 0 6.772-0.0102 6.772-0.0102 0.3697 0.0102 0.6616-0.3183 0.6324-0.7084z" fill="url(#z)"/><path d="m24.03 16.9c-0.3308-4.0964-3.4346-7.3098-7.4044-7.3098-2.1016 0-3.8043 1.7966-3.8043 4.0142s1.7027 4.0142 3.8043 4.0142c0.0779 0 6.772-0.0102 6.772-0.0102 0.3697 0.0102 0.6616-0.3183 0.6324-0.7084z" fill="url(#y)" fill-opacity=".5"/></g><path d="m24.773 16.71c-0.34-3.99-3.53-7.12-7.61-7.12-2.16 0-3.91 1.75-3.91 3.91s1.75 3.91 3.91 3.91c0.08 0 6.96-0.01 6.96-0.01 0.38 0.01 0.68-0.31 0.65-0.69z" fill="url(#x)"/><path d="m24.773 16.71c-0.34-3.99-3.53-7.12-7.61-7.12-2.16 0-3.91 1.75-3.91 3.91s1.75 3.91 3.91 3.91c0.08 0 6.96-0.01 6.96-0.01 0.38 0.01 0.68-0.31 0.65-0.69z" fill="url(#w)"/><path d="m24.773 16.71c-0.34-3.99-3.53-7.12-7.61-7.12-2.16 0-3.91 1.75-3.91 3.91s1.75 3.91 3.91 3.91c0.08 0 6.96-0.01 6.96-0.01 0.38 0.01 0.68-0.31 0.65-0.69z" fill="url(#v)"/><path d="m24.773 16.71c-0.34-3.99-3.53-7.12-7.61-7.12-2.16 0-3.91 1.75-3.91 3.91s1.75 3.91 3.91 3.91c0.08 0 6.96-0.01 6.96-0.01 0.38 0.01 0.68-0.31 0.65-0.69z" fill="url(#u)"/><path d="m8.2027 2c-1.21 0-2.19 0.98-2.19 2.19v1.15c0 0.28 0.32 0.45 0.55 0.3l0.6-0.39c0.24-0.16 0.53-0.25 0.82-0.25h2.03v-3h-1.81z" fill="url(#t)"/><path d="m8.2027 2c-1.21 0-2.19 0.98-2.19 2.19v1.15c0 0.28 0.32 0.45 0.55 0.3l0.6-0.39c0.24-0.16 0.53-0.25 0.82-0.25h2.03v-3h-1.81z" fill="url(#r)"/><g filter="url(#ai)"><path d="m6.3706 4.1435-0.09233 1.2003 0.22621-0.86294c0.11528-0.43977 0.51269-0.74643 0.96732-0.74643h1.8221v-1.4375h-0.92919c-1.0451 0-1.914 0.80461-1.9941 1.8466z" fill="url(#q)"/></g><path d="m11.483 4c0.2761 0 0.5-0.22386 0.5-0.5s-0.2239-0.5-0.5-0.5c-0.2762 0-0.5 0.22386-0.5 0.5s0.2238 0.5 0.5 0.5z" fill="url(#p)"/><path d="m11.483 4c0.2761 0 0.5-0.22386 0.5-0.5s-0.2239-0.5-0.5-0.5c-0.2762 0-0.5 0.22386-0.5 0.5s0.2238 0.5 0.5 0.5z" fill="url(#o)"/><path d="m11.483 4c0.2761 0 0.5-0.22386 0.5-0.5s-0.2239-0.5-0.5-0.5c-0.2762 0-0.5 0.22386-0.5 0.5s0.2238 0.5 0.5 0.5z" fill="url(#n)"/><path d="m10.013 2h-1v3h1v-3z" fill="url(#m)"/><g filter="url(#ah)"><path d="m11.31 5.2656-4.1875 4.3594c-0.73437 0.7344-1.2031 1.875-1.2031 3.1719" stroke="url(#l)" stroke-linecap="round" stroke-width=".25"/></g><g filter="url(#ag)"><path d="m7.0517 11.836c-0.17188 0.7266 0.04846 1.611 0.64846 2.0235 0.86802 0.5967 1.9569 0.286 2.5625-0.2032 0.325-0.2624 2.0677-1.9739 2.9219-2.8593" stroke="url(#k)" stroke-linecap="round" stroke-opacity=".75"/></g><g filter="url(#af)"><path d="m19.919 19.469 1.3573 1.6766c0.153 0.189 0.2365 0.4248 0.2365 0.668v0c0 0.5863-0.4753 1.0616-1.0617 1.0616h-4.6258" stroke="url(#j)" stroke-linecap="round" stroke-width=".3"/></g><g filter="url(#ae)"><path d="m20.075 22.875h-7.7656c-0.5178 0-0.9375 0.4197-0.9375 0.9375v0" stroke="url(#i)" stroke-linecap="round" stroke-width=".2"/></g><defs><filter id="ak" x="15.7" y="18.125" width="1.5" height="11.656" color-interpolation-filters="sRGB" filterUnits="userSpaceOnUse"><feFlood flood-opacity="0" result="BackgroundImageFix"/><feBlend in="SourceGraphic" in2="BackgroundImageFix" result="shape"/><feGaussianBlur result="effect1_foregroundBlur_28327_5165" stdDeviation="0.3"/></filter><filter id="aj" x="11.821" y="8.59" width="13.211" height="10.028" color-interpolation-filters="sRGB" filterUnits="userSpaceOnUse"><feFlood flood-opacity="0" result="BackgroundImageFix"/><feBlend in="SourceGraphic" in2="BackgroundImageFix" result="shape"/><feGaussianBlur result="effect1_foregroundBlur_28327_5165" stdDeviation="0.5"/></filter><filter id="ai" x="5.5283" y="1.5469" width="4.5156" height="4.5469" color-interpolation-filters="sRGB" filterUnits="userSpaceOnUse"><feFlood flood-opacity="0" result="BackgroundImageFix"/><feBlend in="SourceGraphic" in2="BackgroundImageFix" result="shape"/><feGaussianBlur result="effect1_foregroundBlur_28327_5165" stdDeviation="0.375"/></filter><filter id="ah" x="5.294" y="4.6406" width="6.6406" height="8.7812" color-interpolation-filters="sRGB" filterUnits="userSpaceOnUse"><feFlood flood-opacity="0" result="BackgroundImageFix"/><feBlend in="SourceGraphic" in2="BackgroundImageFix" result="shape"/><feGaussianBlur result="effect1_foregroundBlur_28327_5165" stdDeviation="0.25"/></filter><filter id="ag" x="5.496" y="9.2969" width="9.1886" height="6.391" color-interpolation-filters="sRGB" filterUnits="userSpaceOnUse"><feFlood flood-opacity="0" result="BackgroundImageFix"/><feBlend in="SourceGraphic" in2="BackgroundImageFix" result="shape"/><feGaussianBlur result="effect1_foregroundBlur_28327_5165" stdDeviation="0.5"/></filter><filter id="af" x="15.175" y="18.819" width="6.9876" height="4.7063" color-interpolation-filters="sRGB" filterUnits="userSpaceOnUse"><feFlood flood-opacity="0" result="BackgroundImageFix"/><feBlend in="SourceGraphic" in2="BackgroundImageFix" result="shape"/><feGaussianBlur result="effect1_foregroundBlur_28327_5165" stdDeviation="0.25"/></filter><filter id="ae" x="10.772" y="22.275" width="9.9031" height="2.0375" color-interpolation-filters="sRGB" filterUnits="userSpaceOnUse"><feFlood flood-opacity="0" result="BackgroundImageFix"/><feBlend in="SourceGraphic" in2="BackgroundImageFix" result="shape"/><feGaussianBlur result="effect1_foregroundBlur_28327_5165" stdDeviation="0.25"/></filter><linearGradient id="ad" x1="15.888" x2="15.888" y1="18.688" y2="26.219" gradientUnits="userSpaceOnUse"><stop stop-color="#A72574" offset="0"/><stop stop-color="#A72574" stop-opacity="0" offset="1"/></linearGradient><linearGradient id="s" x1="15.794" x2="15.794" y1="30.125" y2="29.586" gradientUnits="userSpaceOnUse"><stop stop-color="#D952A0" offset="0"/><stop stop-color="#D952A0" stop-opacity="0" offset="1"/></linearGradient><radialGradient id="h" cx="0" cy="0" r="1" gradientTransform="translate(14.435 29.047) scale(1.8828 .59375)" gradientUnits="userSpaceOnUse"><stop stop-color="#F581A8" offset="0"/><stop stop-color="#F581A8" stop-opacity="0" offset="1"/></radialGradient><linearGradient id="g" x1="16.45" x2="19.514" y1="18.531" y2="19.518" gradientUnits="userSpaceOnUse"><stop stop-color="#FF91A9" stop-opacity="0" offset="0"/><stop stop-color="#FF91A9" offset="1"/></linearGradient><linearGradient id="f" x1="12.794" x2="21.325" y1="23.219" y2="19.5" gradientUnits="userSpaceOnUse"><stop stop-color="#EA64BA" offset="0"/><stop stop-color="#E66793" offset="1"/></linearGradient><radialGradient id="e" cx="0" cy="0" r="1" gradientTransform="translate(18.966 19.047) rotate(50.356) scale(2.1306 2.8025)" gradientUnits="userSpaceOnUse"><stop stop-color="#D04B86" offset="0"/><stop stop-color="#D04B86" stop-opacity="0" offset="1"/></radialGradient><linearGradient id="d" x1="14.95" x2="14.95" y1="24.969" y2="24.344" gradientUnits="userSpaceOnUse"><stop stop-color="#E155C5" offset="0"/><stop stop-color="#E155C5" stop-opacity="0" offset="1"/></linearGradient><linearGradient id="c" x1="20.763" x2="9.0752" y1="22.875" y2="8.8125" gradientUnits="userSpaceOnUse"><stop stop-color="#ED5EC4" offset="0"/><stop stop-color="#EF6A8E" offset="1"/></linearGradient><linearGradient id="b" x1="16" x2="16" y1="19.75" y2="15.25" gradientUnits="userSpaceOnUse"><stop stop-color="#D947AA" offset="0"/><stop stop-color="#D947AA" stop-opacity="0" offset="1"/></linearGradient><radialGradient id="a" cx="0" cy="0" r="1" gradientTransform="translate(25.138 12.625) rotate(144.78) scale(3.9016 9.8633)" gradientUnits="userSpaceOnUse"><stop stop-color="#FF94D3" offset="0"/><stop stop-color="#FF94D3" stop-opacity="0" offset="1"/></radialGradient><radialGradient id="ac" cx="0" cy="0" r="1" gradientTransform="translate(13.669 2.9219) rotate(141.34) scale(3.0015 3.8384)" gradientUnits="userSpaceOnUse"><stop stop-color="#FF9BB0" offset="0"/><stop stop-color="#FF9BB0" stop-opacity="0" offset="1"/></radialGradient><radialGradient id="ab" cx="0" cy="0" r="1" gradientTransform="translate(9.8252 2.9844) scale(1.4844 2.1094)" gradientUnits="userSpaceOnUse"><stop stop-color="#FF9BB0" offset="0"/><stop stop-color="#FF9BB0" stop-opacity="0" offset="1"/></radialGradient><radialGradient id="aa" cx="0" cy="0" r="1" gradientTransform="translate(11.575 9.2188) rotate(135.44) scale(8.6402 1.9)" gradientUnits="userSpaceOnUse"><stop stop-color="#D15C74" offset="0"/><stop stop-color="#D15C74" stop-opacity="0" offset="1"/></radialGradient><linearGradient id="z" x1="15.606" x2="19.481" y1="9.9375" y2="17.156" gradientUnits="userSpaceOnUse"><stop stop-color="#E16081" offset="0"/><stop stop-color="#D445A2" offset="1"/></linearGradient><linearGradient id="y" x1="11.669" x2="18.427" y1="13.604" y2="13.604" gradientUnits="userSpaceOnUse"><stop stop-color="#BB3C69" offset="0"/><stop stop-color="#E25688" stop-opacity="0" offset="1"/></linearGradient><linearGradient id="x" x1="23.513" x2="11.075" y1="16" y2="10.688" gradientUnits="userSpaceOnUse"><stop stop-color="#FFA9B9" offset="0"/><stop stop-color="#FF9EB7" offset="1"/></linearGradient><radialGradient id="w" cx="0" cy="0" r="1" gradientTransform="translate(22.388 9.59) rotate(140.18) scale(10.497 12.139)" gradientUnits="userSpaceOnUse"><stop stop-color="#E874A0" stop-opacity="0" offset=".51276"/><stop stop-color="#E874A0" offset="1"/></radialGradient><radialGradient id="v" cx="0" cy="0" r="1" gradientTransform="translate(22.388 9.59) rotate(135.76) scale(18.058 13.094)" gradientUnits="userSpaceOnUse"><stop stop-color="#CC4C8F" stop-opacity="0" offset=".44798"/><stop stop-color="#CC4C8F" offset="1"/></radialGradient><radialGradient id="u" cx="0" cy="0" r="1" gradientTransform="translate(24.775 15.688) rotate(124.58) scale(2.8845 7.4812)" gradientUnits="userSpaceOnUse"><stop stop-color="#FFC9C5" offset="0"/><stop stop-color="#FFC9C5" stop-opacity="0" offset="1"/></radialGradient><linearGradient id="t" x1="8.0127" x2="8.0127" y1="1.5781" y2="3.1719" gradientUnits="userSpaceOnUse"><stop stop-color="#8E8E8F" offset="0"/><stop stop-color="#6E6576" offset="1"/></linearGradient><radialGradient id="r" cx="0" cy="0" r="1" gradientTransform="translate(7.7549 5.3828) rotate(252.68) scale(.89203 2.0014)" gradientUnits="userSpaceOnUse"><stop stop-color="#634A65" offset=".15371"/><stop stop-color="#634A65" stop-opacity="0" offset="1"/></radialGradient><linearGradient id="q" x1="6.3721" x2="12.31" y1="3.2656" y2="3.2656" gradientUnits="userSpaceOnUse"><stop stop-color="#9A999B" offset="0"/><stop stop-color="#9A999B" stop-opacity="0" offset="1"/></linearGradient><radialGradient id="p" cx="0" cy="0" r="1" gradientTransform="translate(11.631 3.3391) rotate(125.84) scale(.69386 .61861)" gradientUnits="userSpaceOnUse"><stop stop-color="#433437" offset=".0055866"/><stop stop-color="#3B2838" offset="1"/></radialGradient><radialGradient id="o" cx="0" cy="0" r="1" gradientTransform="translate(11.67 3.375) rotate(137.64) scale(.35946 .31624)" gradientUnits="userSpaceOnUse"><stop stop-color="#5C5051" offset="0"/><stop stop-color="#5C5051" stop-opacity="0" offset="1"/></radialGradient><linearGradient id="n" x1="11.384" x2="11.041" y1="3.1073" y2="2.8885" gradientUnits="userSpaceOnUse"><stop stop-color="#5C5051" stop-opacity="0" offset="0"/><stop stop-color="#5C5051" offset="1"/></linearGradient><linearGradient id="m" x1="9.5127" x2="9.5127" y1="2.3438" y2="5" gradientUnits="userSpaceOnUse"><stop stop-color="#fff" offset="0"/><stop stop-color="#D3B9D9" offset="1"/></linearGradient><linearGradient id="l" x1="4.8564" x2="11.888" y1="11.078" y2="3.9844" gradientUnits="userSpaceOnUse"><stop stop-color="#FF91A9" stop-opacity="0" offset="0"/><stop stop-color="#FF91A9" offset=".53437"/><stop stop-color="#FF91A9" stop-opacity="0" offset="1"/></linearGradient><linearGradient id="k" x1="13.763" x2="9.4944" y1="13.562" y2="16.53" gradientUnits="userSpaceOnUse"><stop stop-color="#FF91A9" stop-opacity="0" offset="0"/><stop stop-color="#FF91A9" offset="1"/></linearGradient><linearGradient id="j" x1="18.794" x2="21.966" y1="20.328" y2="21.526" gradientUnits="userSpaceOnUse"><stop stop-color="#FF9FB4" stop-opacity="0" offset="0"/><stop stop-color="#FF9FB4" offset="1"/></linearGradient><linearGradient id="i" x1=".5127" x2="5.6084" y1="23.688" y2="29.672" gradientUnits="userSpaceOnUse"><stop stop-color="#FF9FB4" stop-opacity="0" offset="0"/><stop stop-color="#FF9FB4" offset="1"/></linearGradient></defs></svg>
