<svg fill="none" viewBox="0 0 32 32" xmlns="http://www.w3.org/2000/svg"><g filter="url(#s)"><path d="m29.562 2h-4.17c-5.3 0-10.42 1.88-14.46 5.3-4.26 3.61-6.72 8.92-6.72 14.51v3.25s0.17-0.3 0.49-0.81c-0.09 0.38-0.13 0.59-0.13 0.59v0.22h3.92c2.08 0 4.08-0.47 5.89-1.34 0.21-0.1 0.21-0.4 0-0.5l-2.17-1.01c-0.13-0.04-0.09-0.21 0.04-0.21h4.53c0.21 0 0.41-0.08 0.57-0.21 1.33-1.14 2.45-2.54 3.27-4.15 0.3-0.6 0.87-1.67 1.18-2.25 0.13-0.24 0.12-0.53-0.02-0.77l-1.36-2.24c-0.1-0.17 0.02-0.38 0.21-0.38h2.66c0.26 0 0.51-0.14 0.64-0.36 1.78-2.96 3.84-5.95 6.08-8.45 0.13-0.14 0.2-0.33 0.2-0.52 0.01-0.37-0.29-0.67-0.65-0.67z" fill="url(#o)"/><path d="m29.562 2h-4.17c-5.3 0-10.42 1.88-14.46 5.3-4.26 3.61-6.72 8.92-6.72 14.51v3.25s0.17-0.3 0.49-0.81c-0.09 0.38-0.13 0.59-0.13 0.59v0.22h3.92c2.08 0 4.08-0.47 5.89-1.34 0.21-0.1 0.21-0.4 0-0.5l-2.17-1.01c-0.13-0.04-0.09-0.21 0.04-0.21h4.53c0.21 0 0.41-0.08 0.57-0.21 1.33-1.14 2.45-2.54 3.27-4.15 0.3-0.6 0.87-1.67 1.18-2.25 0.13-0.24 0.12-0.53-0.02-0.77l-1.36-2.24c-0.1-0.17 0.02-0.38 0.21-0.38h2.66c0.26 0 0.51-0.14 0.64-0.36 1.78-2.96 3.84-5.95 6.08-8.45 0.13-0.14 0.2-0.33 0.2-0.52 0.01-0.37-0.29-0.67-0.65-0.67z" fill="url(#i)"/><path d="m29.562 2h-4.17c-5.3 0-10.42 1.88-14.46 5.3-4.26 3.61-6.72 8.92-6.72 14.51v3.25s0.17-0.3 0.49-0.81c-0.09 0.38-0.13 0.59-0.13 0.59v0.22h3.92c2.08 0 4.08-0.47 5.89-1.34 0.21-0.1 0.21-0.4 0-0.5l-2.17-1.01c-0.13-0.04-0.09-0.21 0.04-0.21h4.53c0.21 0 0.41-0.08 0.57-0.21 1.33-1.14 2.45-2.54 3.27-4.15 0.3-0.6 0.87-1.67 1.18-2.25 0.13-0.24 0.12-0.53-0.02-0.77l-1.36-2.24c-0.1-0.17 0.02-0.38 0.21-0.38h2.66c0.26 0 0.51-0.14 0.64-0.36 1.78-2.96 3.84-5.95 6.08-8.45 0.13-0.14 0.2-0.33 0.2-0.52 0.01-0.37-0.29-0.67-0.65-0.67z" fill="url(#h)"/><path d="m29.562 2h-4.17c-5.3 0-10.42 1.88-14.46 5.3-4.26 3.61-6.72 8.92-6.72 14.51v3.25s0.17-0.3 0.49-0.81c-0.09 0.38-0.13 0.59-0.13 0.59v0.22h3.92c2.08 0 4.08-0.47 5.89-1.34 0.21-0.1 0.21-0.4 0-0.5l-2.17-1.01c-0.13-0.04-0.09-0.21 0.04-0.21h4.53c0.21 0 0.41-0.08 0.57-0.21 1.33-1.14 2.45-2.54 3.27-4.15 0.3-0.6 0.87-1.67 1.18-2.25 0.13-0.24 0.12-0.53-0.02-0.77l-1.36-2.24c-0.1-0.17 0.02-0.38 0.21-0.38h2.66c0.26 0 0.51-0.14 0.64-0.36 1.78-2.96 3.84-5.95 6.08-8.45 0.13-0.14 0.2-0.33 0.2-0.52 0.01-0.37-0.29-0.67-0.65-0.67z" fill="url(#g)"/><path d="m29.562 2h-4.17c-5.3 0-10.42 1.88-14.46 5.3-4.26 3.61-6.72 8.92-6.72 14.51v3.25s0.17-0.3 0.49-0.81c-0.09 0.38-0.13 0.59-0.13 0.59v0.22h3.92c2.08 0 4.08-0.47 5.89-1.34 0.21-0.1 0.21-0.4 0-0.5l-2.17-1.01c-0.13-0.04-0.09-0.21 0.04-0.21h4.53c0.21 0 0.41-0.08 0.57-0.21 1.33-1.14 2.45-2.54 3.27-4.15 0.3-0.6 0.87-1.67 1.18-2.25 0.13-0.24 0.12-0.53-0.02-0.77l-1.36-2.24c-0.1-0.17 0.02-0.38 0.21-0.38h2.66c0.26 0 0.51-0.14 0.64-0.36 1.78-2.96 3.84-5.95 6.08-8.45 0.13-0.14 0.2-0.33 0.2-0.52 0.01-0.37-0.29-0.67-0.65-0.67z" fill="url(#f)"/></g><path d="m29.562 2h-4.17c-5.3 0-10.42 1.88-14.46 5.3-4.26 3.61-6.72 8.92-6.72 14.51v3.25s0.17-0.3 0.49-0.81c-0.09 0.38-0.13 0.59-0.13 0.59v0.22h3.92c2.08 0 4.08-0.47 5.89-1.34 0.21-0.1 0.21-0.4 0-0.5l-2.17-1.01c-0.13-0.04-0.09-0.21 0.04-0.21h4.53c0.21 0 0.41-0.08 0.57-0.21 1.33-1.14 2.45-2.54 3.27-4.15 0.3-0.6 0.87-1.67 1.18-2.25 0.13-0.24 0.12-0.53-0.02-0.77l-1.36-2.24c-0.1-0.17 0.02-0.38 0.21-0.38h2.66c0.26 0 0.51-0.14 0.64-0.36 1.78-2.96 3.84-5.95 6.08-8.45 0.13-0.14 0.2-0.33 0.2-0.52 0.01-0.37-0.29-0.67-0.65-0.67z" fill="url(#e)"/><path d="m29.562 2h-4.17c-5.3 0-10.42 1.88-14.46 5.3-4.26 3.61-6.72 8.92-6.72 14.51v3.25s0.17-0.3 0.49-0.81c-0.09 0.38-0.13 0.59-0.13 0.59v0.22h3.92c2.08 0 4.08-0.47 5.89-1.34 0.21-0.1 0.21-0.4 0-0.5l-2.17-1.01c-0.13-0.04-0.09-0.21 0.04-0.21h4.53c0.21 0 0.41-0.08 0.57-0.21 1.33-1.14 2.45-2.54 3.27-4.15 0.3-0.6 0.87-1.67 1.18-2.25 0.13-0.24 0.12-0.53-0.02-0.77l-1.36-2.24c-0.1-0.17 0.02-0.38 0.21-0.38h2.66c0.26 0 0.51-0.14 0.64-0.36 1.78-2.96 3.84-5.95 6.08-8.45 0.13-0.14 0.2-0.33 0.2-0.52 0.01-0.37-0.29-0.67-0.65-0.67z" fill="url(#d)"/><path d="m26.982 7h-7.79v-4.12c-1.77 0.51-3.48 1.24-5.08 2.18v6.94h9.19c0.26 0 0.51-0.14 0.64-0.36 0.94-1.57 1.96-3.14 3.04-4.64z" fill="url(#c)"/><path d="m26.982 7h-7.79v-4.12c-1.77 0.51-3.48 1.24-5.08 2.18v6.94h9.19c0.26 0 0.51-0.14 0.64-0.36 0.94-1.57 1.96-3.14 3.04-4.64z" fill="url(#b)"/><path d="m26.982 7h-7.79v-4.12c-1.77 0.51-3.48 1.24-5.08 2.18v6.94h9.19c0.26 0 0.51-0.14 0.64-0.36 0.94-1.57 1.96-3.14 3.04-4.64z" fill="url(#a)"/><g filter="url(#r)"><path d="m4.5715 24.991c2.0108-4.4082 4.7796-8.395 8.235-11.841 3.5101-3.51 7.5501-6.3 12.04-8.32 0.2699-0.12 0.38-0.42 0.25-0.69-0.12-0.24-0.41-0.34-0.65-0.23-4.6 2.07-8.7401 4.94-12.34 8.53-3.2365 3.2366-5.5245 6.5762-7.5351 10.638l0.13001 1.1718c-0.09 0.38-0.13001 0.59-0.13001 0.59v0.1512z" fill="#995E44"/></g><g filter="url(#q)"><path d="m25.472 4.14c-0.12-0.24-0.41-0.34-0.65-0.23-4.6 2.07-8.74 4.94-12.34 8.53-3.82 3.82-6.82 8.27-8.92 13.22-0.51 1.21-0.96 2.43-1.35 3.67-0.09 0.3 0.08 0.61 0.38 0.66 0.26 0.05 0.5-0.11 0.57-0.35 0.38-1.21 0.82-2.41 1.32-3.59 2.04-4.83 4.97-9.18 8.7-12.9 3.51-3.51 7.55-6.3 12.04-8.32 0.27-0.12 0.38-0.42 0.25-0.69v0z" fill="url(#n)"/><path d="m25.472 4.14c-0.12-0.24-0.41-0.34-0.65-0.23-4.6 2.07-8.74 4.94-12.34 8.53-3.82 3.82-6.82 8.27-8.92 13.22-0.51 1.21-0.96 2.43-1.35 3.67-0.09 0.3 0.08 0.61 0.38 0.66 0.26 0.05 0.5-0.11 0.57-0.35 0.38-1.21 0.82-2.41 1.32-3.59 2.04-4.83 4.97-9.18 8.7-12.9 3.51-3.51 7.55-6.3 12.04-8.32 0.27-0.12 0.38-0.42 0.25-0.69v0z" fill="url(#m)"/></g><path d="m25.472 4.14c-0.12-0.24-0.41-0.34-0.65-0.23-4.6 2.07-8.74 4.94-12.34 8.53-3.82 3.82-6.82 8.27-8.92 13.22-0.51 1.21-0.96 2.43-1.35 3.67-0.09 0.3 0.08 0.61 0.38 0.66 0.26 0.05 0.5-0.11 0.57-0.35 0.38-1.21 0.82-2.41 1.32-3.59 2.04-4.83 4.97-9.18 8.7-12.9 3.51-3.51 7.55-6.3 12.04-8.32 0.27-0.12 0.38-0.42 0.25-0.69v0z" fill="url(#l)"/><path d="m25.472 4.14c-0.12-0.24-0.41-0.34-0.65-0.23-4.6 2.07-8.74 4.94-12.34 8.53-3.82 3.82-6.82 8.27-8.92 13.22-0.51 1.21-0.96 2.43-1.35 3.67-0.09 0.3 0.08 0.61 0.38 0.66 0.26 0.05 0.5-0.11 0.57-0.35 0.38-1.21 0.82-2.41 1.32-3.59 2.04-4.83 4.97-9.18 8.7-12.9 3.51-3.51 7.55-6.3 12.04-8.32 0.27-0.12 0.38-0.42 0.25-0.69v0z" fill="url(#k)"/><g filter="url(#p)"><path d="m2.6875 29.5c1.5417-4.9583 5.5938-14.906 17.125-22.281" stroke="url(#j)" stroke-linecap="round" stroke-width=".25"/></g><defs><filter id="s" x="4.2116" y="1.75" width="26.25" height="23.81" color-interpolation-filters="sRGB" filterUnits="userSpaceOnUse"><feFlood flood-opacity="0" result="BackgroundImageFix"/><feBlend in="SourceGraphic" in2="BackgroundImageFix" result="shape"/><feColorMatrix in="SourceAlpha" result="hardAlpha" values="0 0 0 0 0 0 0 0 0 0 0 0 0 0 0 0 0 0 127 0"/><feOffset dx="0.25" dy="0.5"/><feGaussianBlur stdDeviation="0.5"/><feComposite in2="hardAlpha" k2="-1" k3="1" operator="arithmetic"/><feColorMatrix values="0 0 0 0 0.690196 0 0 0 0 0.466667 0 0 0 0 0.286275 0 0 0 1 0"/><feBlend in2="shape" result="effect1_innerShadow_28327_5144"/><feColorMatrix in="SourceAlpha" result="hardAlpha" values="0 0 0 0 0 0 0 0 0 0 0 0 0 0 0 0 0 0 127 0"/><feOffset dy="-0.25"/><feGaussianBlur stdDeviation="0.5"/><feComposite in2="hardAlpha" k2="-1" k3="1" operator="arithmetic"/><feColorMatrix values="0 0 0 0 0.816667 0 0 0 0 0.455972 0 0 0 0 0.501059 0 0 0 1 0"/><feBlend in2="effect1_innerShadow_28327_5144" result="effect2_innerShadow_28327_5144"/></filter><filter id="r" x="4.0715" y="3.3655" width="21.58" height="22.126" color-interpolation-filters="sRGB" filterUnits="userSpaceOnUse"><feFlood flood-opacity="0" result="BackgroundImageFix"/><feBlend in="SourceGraphic" in2="BackgroundImageFix" result="shape"/><feGaussianBlur result="effect1_foregroundBlur_28327_5144" stdDeviation="0.25"/></filter><filter id="q" x="2.1875" y="3.8655" width="23.339" height="26.384" color-interpolation-filters="sRGB" filterUnits="userSpaceOnUse"><feFlood flood-opacity="0" result="BackgroundImageFix"/><feBlend in="SourceGraphic" in2="BackgroundImageFix" result="shape"/><feColorMatrix in="SourceAlpha" result="hardAlpha" values="0 0 0 0 0 0 0 0 0 0 0 0 0 0 0 0 0 0 127 0"/><feOffset dy="0.25"/><feGaussianBlur stdDeviation="0.375"/><feComposite in2="hardAlpha" k2="-1" k3="1" operator="arithmetic"/><feColorMatrix values="0 0 0 0 0.682353 0 0 0 0 0.443137 0 0 0 0 0.270588 0 0 0 1 0"/><feBlend in2="shape" result="effect1_innerShadow_28327_5144"/></filter><filter id="p" x="2.0624" y="6.5938" width="18.375" height="23.531" color-interpolation-filters="sRGB" filterUnits="userSpaceOnUse"><feFlood flood-opacity="0" result="BackgroundImageFix"/><feBlend in="SourceGraphic" in2="BackgroundImageFix" result="shape"/><feGaussianBlur result="effect1_foregroundBlur_28327_5144" stdDeviation="0.25"/></filter><linearGradient id="o" x1="1.4375" x2="26.427" y1="27.875" y2="1.202" gradientUnits="userSpaceOnUse"><stop stop-color="#CE9270" offset="0"/><stop stop-color="#D78C55" offset="1"/></linearGradient><radialGradient id="i" cx="0" cy="0" r="1" gradientTransform="translate(17.212 25.06) rotate(241.61) scale(12.145 61.474)" gradientUnits="userSpaceOnUse"><stop stop-color="#E6A180" offset="0"/><stop stop-color="#E6A180" stop-opacity="0" offset="1"/></radialGradient><radialGradient id="h" cx="0" cy="0" r="1" gradientTransform="translate(14.156 22.469) rotate(188.49) scale(4.2339 .9812)" gradientUnits="userSpaceOnUse"><stop stop-color="#F2C48E" offset="0"/><stop stop-color="#F2C48E" stop-opacity="0" offset="1"/></radialGradient><radialGradient id="g" cx="0" cy="0" r="1" gradientTransform="translate(23.312 14.438) rotate(237.12) scale(6.1023 3.4784)" gradientUnits="userSpaceOnUse"><stop stop-color="#F2C48E" offset="0"/><stop stop-color="#F2C48E" stop-opacity="0" offset="1"/></radialGradient><radialGradient id="f" cx="0" cy="0" r="1" gradientTransform="translate(21.688 22.312) rotate(216.62) scale(17.288 31.698)" gradientUnits="userSpaceOnUse"><stop stop-color="#C68A61" stop-opacity="0" offset=".68543"/><stop stop-color="#C68A61" offset="1"/></radialGradient><linearGradient id="e" x1="27.125" x2="17.688" y1=".1875" y2="7.875" gradientUnits="userSpaceOnUse"><stop stop-color="#CE8646" offset="0"/><stop stop-color="#CE8646" stop-opacity="0" offset="1"/></linearGradient><radialGradient id="d" cx="0" cy="0" r="1" gradientTransform="translate(30.212 2.2188) rotate(147.3) scale(2.7768 1.3418)" gradientUnits="userSpaceOnUse"><stop stop-color="#EFA86F" offset="0"/><stop stop-color="#E39C62" stop-opacity="0" offset="1"/></radialGradient><linearGradient id="c" x1="14.562" x2="23.562" y1="12" y2="6.625" gradientUnits="userSpaceOnUse"><stop stop-color="#9F6562" offset="0"/><stop stop-color="#BC755B" offset="1"/></linearGradient><radialGradient id="b" cx="0" cy="0" r="1" gradientTransform="translate(23.281 12.688) rotate(207.33) scale(5.2412 2.1287)" gradientUnits="userSpaceOnUse"><stop stop-color="#934E4C" offset="0"/><stop stop-color="#934E4C" stop-opacity="0" offset="1"/></radialGradient><linearGradient id="a" x1="13.562" x2="17.125" y1="13.75" y2="10.812" gradientUnits="userSpaceOnUse"><stop stop-color="#9C6361" offset="0"/><stop stop-color="#9C6361" stop-opacity="0" offset="1"/></linearGradient><linearGradient id="n" x1="20.438" x2="2.1875" y1="8.75" y2="32.5" gradientUnits="userSpaceOnUse"><stop stop-color="#D38750" offset=".0055866"/><stop stop-color="#EEA374" offset="1"/></linearGradient><linearGradient id="m" x1="38.688" x2="6.9375" y1="-5.3125" y2="20.625" gradientUnits="userSpaceOnUse"><stop stop-color="#D77D2C" offset="0"/><stop stop-color="#D77D2C" stop-opacity="0" offset="1"/></linearGradient><radialGradient id="l" cx="0" cy="0" r="1" gradientTransform="translate(25.526 4.1719) rotate(156.11) scale(.84883 .63041)" gradientUnits="userSpaceOnUse"><stop stop-color="#F3A963" offset="0"/><stop stop-color="#F3A963" stop-opacity="0" offset="1"/></radialGradient><radialGradient id="k" cx="0" cy="0" r="1" gradientTransform="translate(20.906 8.375) rotate(235.98) scale(1.5081 7.5792)" gradientUnits="userSpaceOnUse"><stop stop-color="#BB3CCF" offset="0"/><stop stop-color="#BB3CCF" stop-opacity="0" offset="1"/></radialGradient><linearGradient id="j" x1="4.75" x2="19.062" y1="28.438" y2="8.8125" gradientUnits="userSpaceOnUse"><stop stop-color="#FAAD7C" offset="0"/><stop stop-color="#FAAD7C" stop-opacity="0" offset="1"/></linearGradient></defs></svg>
