<svg fill="none" viewBox="0 0 32 32" xmlns="http://www.w3.org/2000/svg"><path d="m20.598 29.98h-9.19c-2.1 0-3.71-1.89-3.36-3.96l2.44-14.66h11.03l2.44 14.65c0.34 2.08-1.26 3.97-3.36 3.97z" fill="#D6F9FF"/><path d="m20.598 29.98h-9.19c-2.1 0-3.71-1.89-3.36-3.96l2.44-14.66h11.03l2.44 14.65c0.34 2.08-1.26 3.97-3.36 3.97z" fill="url(#t)"/><path d="m20.598 29.98h-9.19c-2.1 0-3.71-1.89-3.36-3.96l2.44-14.66h11.03l2.44 14.65c0.34 2.08-1.26 3.97-3.36 3.97z" fill="url(#i)"/><path d="m20.598 29.98h-9.19c-2.1 0-3.71-1.89-3.36-3.96l2.44-14.66h11.03l2.44 14.65c0.34 2.08-1.26 3.97-3.36 3.97z" fill="url(#h)"/><path d="m21.528 7.58h-11.04v3.77h11.04v-3.77z" fill="url(#g)"/><path d="m21.528 7.58h-11.04v3.77h11.04v-3.77z" fill="url(#f)"/><path d="m21.528 7.58h-11.04v3.77h11.04v-3.77z" fill="url(#e)"/><path d="m19.508 2h-7.02c-2.31 0-4.03 2.12-3.56 4.38 0.15 0.7 0.76 1.2 1.48 1.2h11.19c0.71 0 1.33-0.5 1.48-1.2 0.47-2.26-1.26-4.38-3.57-4.38z" fill="url(#d)"/><path d="m19.508 2h-7.02c-2.31 0-4.03 2.12-3.56 4.38 0.15 0.7 0.76 1.2 1.48 1.2h11.19c0.71 0 1.33-0.5 1.48-1.2 0.47-2.26-1.26-4.38-3.57-4.38z" fill="url(#c)"/><path d="m19.508 2h-7.02c-2.31 0-4.03 2.12-3.56 4.38 0.15 0.7 0.76 1.2 1.48 1.2h11.19c0.71 0 1.33-0.5 1.48-1.2 0.47-2.26-1.26-4.38-3.57-4.38z" fill="url(#b)"/><path d="m19.508 2h-7.02c-2.31 0-4.03 2.12-3.56 4.38 0.15 0.7 0.76 1.2 1.48 1.2h11.19c0.71 0 1.33-0.5 1.48-1.2 0.47-2.26-1.26-4.38-3.57-4.38z" fill="url(#a)"/><path d="m19.508 2h-7.02c-2.31 0-4.03 2.12-3.56 4.38 0.15 0.7 0.76 1.2 1.48 1.2h11.19c0.71 0 1.33-0.5 1.48-1.2 0.47-2.26-1.26-4.38-3.57-4.38z" fill="url(#s)"/><path d="m19.508 2h-7.02c-2.31 0-4.03 2.12-3.56 4.38 0.15 0.7 0.76 1.2 1.48 1.2h11.19c0.71 0 1.33-0.5 1.48-1.2 0.47-2.26-1.26-4.38-3.57-4.38z" fill="url(#r)"/><path d="m19.708 17.86h-7.41c-0.38 0-0.71 0.28-0.77 0.65l-1.09 6.54c-0.24 1.45 0.88 2.77 2.35 2.77h6.43c1.47 0 2.59-1.32 2.35-2.77l-1.09-6.54c-0.07-0.37-0.39-0.65-0.77-0.65z" fill="url(#q)"/><path d="m19.708 17.86h-7.41c-0.38 0-0.71 0.28-0.77 0.65l-1.09 6.54c-0.24 1.45 0.88 2.77 2.35 2.77h6.43c1.47 0 2.59-1.32 2.35-2.77l-1.09-6.54c-0.07-0.37-0.39-0.65-0.77-0.65z" fill="url(#p)"/><path d="m12.988 4.08c0.2982 0 0.54-0.24177 0.54-0.54s-0.2418-0.54-0.54-0.54c-0.2983 0-0.54 0.24177-0.54 0.54s0.2417 0.54 0.54 0.54z" fill="url(#o)"/><path d="m16.568 3.54c0 0.29823-0.2418 0.54-0.54 0.54s-0.54-0.24177-0.54-0.54 0.2418-0.54 0.54-0.54 0.54 0.24177 0.54 0.54z" fill="url(#n)"/><path d="m19.068 4.08c0.2982 0 0.54-0.24177 0.54-0.54s-0.2418-0.54-0.54-0.54-0.54 0.24177-0.54 0.54 0.2418 0.54 0.54 0.54z" fill="url(#m)"/><path d="m15.118 5.46c0 0.29824-0.2417 0.54-0.54 0.54-0.2982 0-0.54-0.24176-0.54-0.54 0-0.29823 0.2418-0.54 0.54-0.54 0.2983 0 0.54 0.24177 0.54 0.54z" fill="url(#l)"/><path d="m18.008 5.46c0 0.29824-0.2418 0.54-0.54 0.54-0.2983 0-0.54-0.24176-0.54-0.54 0-0.29823 0.2417-0.54 0.54-0.54 0.2982 0 0.54 0.24177 0.54 0.54z" fill="url(#k)"/><path d="m17.728 14.064c-0.0897-0.5659 0.2963-1.0973 0.8621-1.187s1.0972 0.2963 1.1869 0.8621l2.0843 13.147c0.0897 0.5658-0.2962 1.0972-0.862 1.1869-0.5659 0.0897-1.0973-0.2963-1.187-0.8621l-2.0843-13.147z" fill="url(#j)"/><defs><radialGradient id="t" cx="0" cy="0" r="1" gradientTransform="translate(10.875 17.875) rotate(93.366) scale(21.287 6.1271)" gradientUnits="userSpaceOnUse"><stop stop-color="#B9E5FC" offset="0"/><stop stop-color="#CBEBFF" stop-opacity="0" offset="1"/></radialGradient><linearGradient id="i" x1="23.438" x2="20.938" y1="18.812" y2="19.25" gradientUnits="userSpaceOnUse"><stop stop-color="#BCE2FD" offset=".26744"/><stop stop-color="#C6E4FA" stop-opacity="0" offset=".6601"/></linearGradient><linearGradient id="h" x1="8.9375" x2="11.312" y1="18.188" y2="18.625" gradientUnits="userSpaceOnUse"><stop stop-color="#C1D9F0" offset=".32936"/><stop stop-color="#C6E4FA" stop-opacity="0" offset=".70312"/></linearGradient><linearGradient id="g" x1="10.488" x2="21.528" y1="11.35" y2="11.35" gradientUnits="userSpaceOnUse"><stop stop-color="#949BA0" offset="0"/><stop stop-color="#A1ADB5" offset=".086013"/><stop stop-color="#92A3AF" offset=".37474"/><stop stop-color="#C0CDD6" offset=".70309"/><stop stop-color="#C4D0D8" offset=".91255"/><stop stop-color="#B1B8BD" offset="1"/></linearGradient><linearGradient id="f" x1="16.008" x2="16.008" y1="7.58" y2="11.35" gradientUnits="userSpaceOnUse"><stop stop-color="#879EAE" offset="0"/><stop stop-color="#708C9E" stop-opacity="0" offset=".128"/></linearGradient><linearGradient id="e" x1="16.008" x2="16.008" y1="11.35" y2="9.465" gradientUnits="userSpaceOnUse"><stop stop-color="#879EAE" offset="0"/><stop stop-color="#708C9E" stop-opacity="0" offset=".128"/></linearGradient><linearGradient id="d" x1="8.8502" x2="23.155" y1="7.58" y2="7.58" gradientUnits="userSpaceOnUse"><stop stop-color="#949496" offset="0"/><stop stop-color="#C0C2C5" offset="1"/></linearGradient><linearGradient id="c" x1="14.062" x2="14.062" y1="7.9375" y2="5.8438" gradientUnits="userSpaceOnUse"><stop stop-color="#8699A7" offset="0"/><stop stop-color="#839BAA" stop-opacity="0" offset="1"/></linearGradient><radialGradient id="b" cx="0" cy="0" r="1" gradientTransform="translate(16.003 8.625) rotate(90) scale(3.0625 9.9695)" gradientUnits="userSpaceOnUse"><stop stop-color="#8CAFC5" offset="0"/><stop stop-color="#9ABDD2" stop-opacity="0" offset="1"/></radialGradient><radialGradient id="a" cx="0" cy="0" r="1" gradientTransform="translate(19.688 4.4375) rotate(90) scale(2.125 5.4478)" gradientUnits="userSpaceOnUse"><stop stop-color="#D9DEE3" offset="0"/><stop stop-color="#DBE0E6" stop-opacity="0" offset="1"/></radialGradient><radialGradient id="s" cx="0" cy="0" r="1" gradientTransform="translate(10.688 4.79) rotate(116.93) scale(4.9675 4.335)" gradientUnits="userSpaceOnUse"><stop stop-color="#B8C0C7" offset=".18058"/><stop stop-color="#ACB2B7" stop-opacity="0" offset="1"/></radialGradient><linearGradient id="r" x1="15.562" x2="15.562" y1="8.125" y2="6.9375" gradientUnits="userSpaceOnUse"><stop stop-color="#9CC0D6" offset=".3421"/><stop stop-color="#9CC0D6" stop-opacity="0" offset="1"/></linearGradient><linearGradient id="q" x1="10.405" x2="21.25" y1="22.222" y2="22.222" gradientUnits="userSpaceOnUse"><stop stop-color="#CBD0D5" offset="0"/><stop stop-color="#C3CAD1" offset=".30841"/><stop stop-color="#DEE5EB" offset=".72913"/><stop stop-color="#EAEFF5" offset="1"/></linearGradient><linearGradient id="p" x1="15.25" x2="15.25" y1="28.188" y2="25.312" gradientUnits="userSpaceOnUse"><stop stop-color="#C0DFF3" offset=".16304"/><stop stop-color="#BEDFF5" stop-opacity="0" offset="1"/></linearGradient><radialGradient id="o" cx="0" cy="0" r="1" gradientTransform="translate(12.448 4.08) rotate(-26.565) scale(1.2075)" gradientUnits="userSpaceOnUse"><stop stop-color="#95989C" offset=".31139"/><stop stop-color="#616A71" offset="1"/></radialGradient><radialGradient id="n" cx="0" cy="0" r="1" gradientTransform="translate(15.488 4.08) rotate(-26.565) scale(1.2075)" gradientUnits="userSpaceOnUse"><stop stop-color="#95989C" offset=".31139"/><stop stop-color="#616A71" offset="1"/></radialGradient><radialGradient id="m" cx="0" cy="0" r="1" gradientTransform="translate(18.528 4.08) rotate(-26.565) scale(1.2075)" gradientUnits="userSpaceOnUse"><stop stop-color="#95989C" offset=".31139"/><stop stop-color="#616A71" offset="1"/></radialGradient><radialGradient id="l" cx="0" cy="0" r="1" gradientTransform="translate(14.038 6) rotate(-26.565) scale(1.2075)" gradientUnits="userSpaceOnUse"><stop stop-color="#95989C" offset=".31139"/><stop stop-color="#616A71" offset="1"/></radialGradient><radialGradient id="k" cx="0" cy="0" r="1" gradientTransform="translate(16.928 6) rotate(-26.565) scale(1.2075)" gradientUnits="userSpaceOnUse"><stop stop-color="#95989C" offset=".31139"/><stop stop-color="#616A71" offset="1"/></radialGradient><linearGradient id="j" x1="18.625" x2="20.812" y1="13.25" y2="27.375" gradientUnits="userSpaceOnUse"><stop stop-color="#fff" offset=".42833"/><stop stop-color="#fff" stop-opacity="0" offset=".87146"/></linearGradient></defs></svg>
