<svg fill="none" viewBox="0 0 32 32" xmlns="http://www.w3.org/2000/svg"><g filter="url(#h)"><path d="m21.008 5.3171c-2.8409 0.50201-5.0115 3.8555-5.0115 3.8555s-2.1807-3.3535-5.0115-3.8555c-7.0121-1.235-9.903 4.9298-8.7326 9.5182 1.7305 6.7773 10.053 12.852 12.834 14.729 0.5501 0.3715 1.2704 0.3715 1.8305 0 2.7909-1.8775 11.113-7.9519 12.834-14.729 1.1604-4.5884-1.7305-10.753-8.7425-9.5182z" fill="url(#e)"/><path d="m21.008 5.3171c-2.8409 0.50201-5.0115 3.8555-5.0115 3.8555s-2.1807-3.3535-5.0115-3.8555c-7.0121-1.235-9.903 4.9298-8.7326 9.5182 1.7305 6.7773 10.053 12.852 12.834 14.729 0.5501 0.3715 1.2704 0.3715 1.8305 0 2.7909-1.8775 11.113-7.9519 12.834-14.729 1.1604-4.5884-1.7305-10.753-8.7425-9.5182z" fill="url(#d)"/><path d="m21.008 5.3171c-2.8409 0.50201-5.0115 3.8555-5.0115 3.8555s-2.1807-3.3535-5.0115-3.8555c-7.0121-1.235-9.903 4.9298-8.7326 9.5182 1.7305 6.7773 10.053 12.852 12.834 14.729 0.5501 0.3715 1.2704 0.3715 1.8305 0 2.7909-1.8775 11.113-7.9519 12.834-14.729 1.1604-4.5884-1.7305-10.753-8.7425-9.5182z" fill="url(#c)"/></g><g filter="url(#g)"><path d="m15.957 14.762v-5.2761c0.7286-0.90447 2.8578-2.1565 3.8314-2.6694-2.3366 2.1355-3.5278 6.1868-3.8314 7.9455z" fill="url(#b)"/></g><g filter="url(#f)"><path d="m15.957 14.762v-5.2761c-0.7286-0.90447-2.8579-2.1565-3.8314-2.6694 2.3365 2.1355 3.5278 6.1868 3.8314 7.9455z" fill="url(#a)"/></g><defs><filter id="h" x="2" y="4.5569" width="28.6" height="25.886" color-interpolation-filters="sRGB" filterUnits="userSpaceOnUse"><feFlood flood-opacity="0" result="BackgroundImageFix"/><feBlend in="SourceGraphic" in2="BackgroundImageFix" result="shape"/><feColorMatrix in="SourceAlpha" result="hardAlpha" values="0 0 0 0 0 0 0 0 0 0 0 0 0 0 0 0 0 0 127 0"/><feOffset dx="0.6" dy="-0.6"/><feGaussianBlur stdDeviation="0.625"/><feComposite in2="hardAlpha" k2="-1" k3="1" operator="arithmetic"/><feColorMatrix values="0 0 0 0 0.807843 0 0 0 0 0.176471 0 0 0 0 0.415686 0 0 0 1 0"/><feBlend in2="shape" result="effect1_innerShadow_18_4033"/><feColorMatrix in="SourceAlpha" result="hardAlpha" values="0 0 0 0 0 0 0 0 0 0 0 0 0 0 0 0 0 0 127 0"/><feOffset dx="0.6" dy="0.6"/><feGaussianBlur stdDeviation="0.625"/><feComposite in2="hardAlpha" k2="-1" k3="1" operator="arithmetic"/><feColorMatrix values="0 0 0 0 0.796078 0 0 0 0 0.207843 0 0 0 0 0.301961 0 0 0 1 0"/><feBlend in2="effect1_innerShadow_18_4033" result="effect2_innerShadow_18_4033"/></filter><filter id="g" x="15.457" y="6.3163" width="4.8314" height="8.9454" color-interpolation-filters="sRGB" filterUnits="userSpaceOnUse"><feFlood flood-opacity="0" result="BackgroundImageFix"/><feBlend in="SourceGraphic" in2="BackgroundImageFix" result="shape"/><feGaussianBlur result="effect1_foregroundBlur_18_4033" stdDeviation="0.25"/></filter><filter id="f" x="11.625" y="6.3163" width="4.8314" height="8.9454" color-interpolation-filters="sRGB" filterUnits="userSpaceOnUse"><feFlood flood-opacity="0" result="BackgroundImageFix"/><feBlend in="SourceGraphic" in2="BackgroundImageFix" result="shape"/><feGaussianBlur result="effect1_foregroundBlur_18_4033" stdDeviation="0.25"/></filter><linearGradient id="e" x1="16" x2="16" y1="5.1569" y2="29.843" gradientUnits="userSpaceOnUse"><stop stop-color="#FF3F67" offset="0"/><stop stop-color="#F83BA1" offset="1"/></linearGradient><radialGradient id="d" cx="0" cy="0" r="1" gradientTransform="translate(10.586 18.405) rotate(-25.71) scale(20.704 22.781)" gradientUnits="userSpaceOnUse"><stop stop-color="#FF657C" stop-opacity="0" offset=".89097"/><stop stop-color="#FF657C" offset="1"/></radialGradient><radialGradient id="c" cx="0" cy="0" r="1" gradientTransform="translate(14.857 8.6692) rotate(233.75) scale(4.3552 1.6518)" gradientUnits="userSpaceOnUse"><stop stop-color="#FF5772" offset="0"/><stop stop-color="#FF5772" stop-opacity="0" offset="1"/></radialGradient><linearGradient id="b" x1="15.391" x2="18.5" y1="12.595" y2="8.6692" gradientUnits="userSpaceOnUse"><stop stop-color="#FE375C" offset="0"/><stop stop-color="#FE375C" stop-opacity="0" offset="1"/></linearGradient><linearGradient id="a" x1="16.522" x2="13.413" y1="12.595" y2="8.6692" gradientUnits="userSpaceOnUse"><stop stop-color="#FF5573" offset=".16078"/><stop stop-color="#FF5573" stop-opacity="0" offset="1"/></linearGradient></defs></svg>
