<svg fill="none" viewBox="0 0 32 32" xmlns="http://www.w3.org/2000/svg"><path d="m22.247 18.77h3l-2.3 10.34c-0.04 0.23-0.25 0.39-0.48 0.39h-2.21c-0.2 0-0.35-0.19-0.31-0.38l2.3-10.35z" fill="url(#ah)"/><path d="m22.247 18.77h3l-2.3 10.34c-0.04 0.23-0.25 0.39-0.48 0.39h-2.21c-0.2 0-0.35-0.19-0.31-0.38l2.3-10.35z" fill="url(#w)"/><path d="m22.247 18.77h3l-2.3 10.34c-0.04 0.23-0.25 0.39-0.48 0.39h-2.21c-0.2 0-0.35-0.19-0.31-0.38l2.3-10.35z" fill="url(#l)"/><path d="m16.207 17.5h-3l2.57 11.61c0.05 0.23 0.26 0.39 0.49 0.39h2.21c0.2 0 0.35-0.18 0.31-0.38l-2.58-11.62z" fill="url(#g)"/><path d="m16.207 17.5h-3l2.57 11.61c0.05 0.23 0.26 0.39 0.49 0.39h2.21c0.2 0 0.35-0.18 0.31-0.38l-2.58-11.62z" fill="url(#f)"/><path d="m16.207 17.5h-3l2.57 11.61c0.05 0.23 0.26 0.39 0.49 0.39h2.21c0.2 0 0.35-0.18 0.31-0.38l-2.58-11.62z" fill="url(#e)"/><path d="m29.867 11.75c-0.01-0.17-0.09-0.34-0.21-0.46-0.03-0.03-5.04-5.4-5.12-5.49-0.82-0.81-1.94-1.3-3.17-1.3-1.6371 0-3.0675 0.87612-3.8516 2.1791-0.0124 0.02055-0.0231 0.03769-0.0368 0.05741-0.2773 0.40052-3.6081 5.2109-3.6806 5.3219-0.0018 0.0027-1e-3 0.0033-1e-3 0.0065 0 0.0033-1e-3 0.0066-0.0028 0.0094-0.1805 0.2777-0.4991 0.4657-0.8572 0.4657-0.55-0.01-0.99-0.48-0.99-1.03l-0.08-7.01v-1.73c0-0.15-0.13-0.27-0.28-0.27-0.95 0-1.72 0.77-1.72 1.73 0 0.15-0.13 0.27-0.28 0.27h-4.21c-1.94 0-3.51 1.57-3.51 3.51v0.37c0 0.62 0.5 1.12 1.12 1.12h2.94c0.52 0 0.94 0.42 0.94 0.94v2.88c0 2.67 1.47 5.01 3.64 6.25 0.22 0.12 0.36 0.35 0.36 0.61v8.82c0 0.28 0.22 0.5 0.5 0.5h2c0.28 0 0.5-0.22 0.5-0.5v-7.5c0-0.5523 0.4477-1 1-1h7c0.3265 0 0.6443-0.0315 0.9518-0.091 0.6401-0.1237 1.3365 0.2249 1.5398 0.8444 0.1446 0.4405 0.3202 0.8703 0.5284 1.2866l0.85 1.71c0.09 0.16 0.13 0.35 0.13 0.53v4.22c0 0.28 0.22 0.5 0.5 0.5h2c0.28 0 0.5-0.22 0.5-0.5v-15.932c0-0.2927 0.3448-0.5099 0.6073-0.6394 0.2354-0.1161 0.4094-0.3599 0.3927-0.6787z" fill="#E49E76"/><path d="m29.867 11.75c-0.01-0.17-0.09-0.34-0.21-0.46-0.03-0.03-5.04-5.4-5.12-5.49-0.82-0.81-1.94-1.3-3.17-1.3-1.6371 0-3.0675 0.87612-3.8516 2.1791-0.0124 0.02055-0.0231 0.03769-0.0368 0.05741-0.2773 0.40052-3.6081 5.2109-3.6806 5.3219-0.0018 0.0027-1e-3 0.0033-1e-3 0.0065 0 0.0033-1e-3 0.0066-0.0028 0.0094-0.1805 0.2777-0.4991 0.4657-0.8572 0.4657-0.55-0.01-0.99-0.48-0.99-1.03l-0.08-7.01v-1.73c0-0.15-0.13-0.27-0.28-0.27-0.95 0-1.72 0.77-1.72 1.73 0 0.15-0.13 0.27-0.28 0.27h-4.21c-1.94 0-3.51 1.57-3.51 3.51v0.37c0 0.62 0.5 1.12 1.12 1.12h2.94c0.52 0 0.94 0.42 0.94 0.94v2.88c0 2.67 1.47 5.01 3.64 6.25 0.22 0.12 0.36 0.35 0.36 0.61v8.82c0 0.28 0.22 0.5 0.5 0.5h2c0.28 0 0.5-0.22 0.5-0.5v-7.5c0-0.5523 0.4477-1 1-1h7c0.3265 0 0.6443-0.0315 0.9518-0.091 0.6401-0.1237 1.3365 0.2249 1.5398 0.8444 0.1446 0.4405 0.3202 0.8703 0.5284 1.2866l0.85 1.71c0.09 0.16 0.13 0.35 0.13 0.53v4.22c0 0.28 0.22 0.5 0.5 0.5h2c0.28 0 0.5-0.22 0.5-0.5v-15.932c0-0.2927 0.3448-0.5099 0.6073-0.6394 0.2354-0.1161 0.4094-0.3599 0.3927-0.6787z" fill="url(#d)"/><path d="m29.867 11.75c-0.01-0.17-0.09-0.34-0.21-0.46-0.03-0.03-5.04-5.4-5.12-5.49-0.82-0.81-1.94-1.3-3.17-1.3-1.6371 0-3.0675 0.87612-3.8516 2.1791-0.0124 0.02055-0.0231 0.03769-0.0368 0.05741-0.2773 0.40052-3.6081 5.2109-3.6806 5.3219-0.0018 0.0027-1e-3 0.0033-1e-3 0.0065 0 0.0033-1e-3 0.0066-0.0028 0.0094-0.1805 0.2777-0.4991 0.4657-0.8572 0.4657-0.55-0.01-0.99-0.48-0.99-1.03l-0.08-7.01v-1.73c0-0.15-0.13-0.27-0.28-0.27-0.95 0-1.72 0.77-1.72 1.73 0 0.15-0.13 0.27-0.28 0.27h-4.21c-1.94 0-3.51 1.57-3.51 3.51v0.37c0 0.62 0.5 1.12 1.12 1.12h2.94c0.52 0 0.94 0.42 0.94 0.94v2.88c0 2.67 1.47 5.01 3.64 6.25 0.22 0.12 0.36 0.35 0.36 0.61v8.82c0 0.28 0.22 0.5 0.5 0.5h2c0.28 0 0.5-0.22 0.5-0.5v-7.5c0-0.5523 0.4477-1 1-1h7c0.3265 0 0.6443-0.0315 0.9518-0.091 0.6401-0.1237 1.3365 0.2249 1.5398 0.8444 0.1446 0.4405 0.3202 0.8703 0.5284 1.2866l0.85 1.71c0.09 0.16 0.13 0.35 0.13 0.53v4.22c0 0.28 0.22 0.5 0.5 0.5h2c0.28 0 0.5-0.22 0.5-0.5v-15.932c0-0.2927 0.3448-0.5099 0.6073-0.6394 0.2354-0.1161 0.4094-0.3599 0.3927-0.6787z" fill="url(#c)"/><path d="m29.867 11.75c-0.01-0.17-0.09-0.34-0.21-0.46-0.03-0.03-5.04-5.4-5.12-5.49-0.82-0.81-1.94-1.3-3.17-1.3-1.6371 0-3.0675 0.87612-3.8516 2.1791-0.0124 0.02055-0.0231 0.03769-0.0368 0.05741-0.2773 0.40052-3.6081 5.2109-3.6806 5.3219-0.0018 0.0027-1e-3 0.0033-1e-3 0.0065 0 0.0033-1e-3 0.0066-0.0028 0.0094-0.1805 0.2777-0.4991 0.4657-0.8572 0.4657-0.55-0.01-0.99-0.48-0.99-1.03l-0.08-7.01v-1.73c0-0.15-0.13-0.27-0.28-0.27-0.95 0-1.72 0.77-1.72 1.73 0 0.15-0.13 0.27-0.28 0.27h-4.21c-1.94 0-3.51 1.57-3.51 3.51v0.37c0 0.62 0.5 1.12 1.12 1.12h2.94c0.52 0 0.94 0.42 0.94 0.94v2.88c0 2.67 1.47 5.01 3.64 6.25 0.22 0.12 0.36 0.35 0.36 0.61v8.82c0 0.28 0.22 0.5 0.5 0.5h2c0.28 0 0.5-0.22 0.5-0.5v-7.5c0-0.5523 0.4477-1 1-1h7c0.3265 0 0.6443-0.0315 0.9518-0.091 0.6401-0.1237 1.3365 0.2249 1.5398 0.8444 0.1446 0.4405 0.3202 0.8703 0.5284 1.2866l0.85 1.71c0.09 0.16 0.13 0.35 0.13 0.53v4.22c0 0.28 0.22 0.5 0.5 0.5h2c0.28 0 0.5-0.22 0.5-0.5v-15.932c0-0.2927 0.3448-0.5099 0.6073-0.6394 0.2354-0.1161 0.4094-0.3599 0.3927-0.6787z" fill="url(#b)"/><path d="m29.867 11.75c-0.01-0.17-0.09-0.34-0.21-0.46-0.03-0.03-5.04-5.4-5.12-5.49-0.82-0.81-1.94-1.3-3.17-1.3-1.6371 0-3.0675 0.87612-3.8516 2.1791-0.0124 0.02055-0.0231 0.03769-0.0368 0.05741-0.2773 0.40052-3.6081 5.2109-3.6806 5.3219-0.0018 0.0027-1e-3 0.0033-1e-3 0.0065 0 0.0033-1e-3 0.0066-0.0028 0.0094-0.1805 0.2777-0.4991 0.4657-0.8572 0.4657-0.55-0.01-0.99-0.48-0.99-1.03l-0.08-7.01v-1.73c0-0.15-0.13-0.27-0.28-0.27-0.95 0-1.72 0.77-1.72 1.73 0 0.15-0.13 0.27-0.28 0.27h-4.21c-1.94 0-3.51 1.57-3.51 3.51v0.37c0 0.62 0.5 1.12 1.12 1.12h2.94c0.52 0 0.94 0.42 0.94 0.94v2.88c0 2.67 1.47 5.01 3.64 6.25 0.22 0.12 0.36 0.35 0.36 0.61v8.82c0 0.28 0.22 0.5 0.5 0.5h2c0.28 0 0.5-0.22 0.5-0.5v-7.5c0-0.5523 0.4477-1 1-1h7c0.3265 0 0.6443-0.0315 0.9518-0.091 0.6401-0.1237 1.3365 0.2249 1.5398 0.8444 0.1446 0.4405 0.3202 0.8703 0.5284 1.2866l0.85 1.71c0.09 0.16 0.13 0.35 0.13 0.53v4.22c0 0.28 0.22 0.5 0.5 0.5h2c0.28 0 0.5-0.22 0.5-0.5v-15.932c0-0.2927 0.3448-0.5099 0.6073-0.6394 0.2354-0.1161 0.4094-0.3599 0.3927-0.6787z" fill="url(#a)"/><path d="m29.867 11.75c-0.01-0.17-0.09-0.34-0.21-0.46-0.03-0.03-5.04-5.4-5.12-5.49-0.82-0.81-1.94-1.3-3.17-1.3-1.6371 0-3.0675 0.87612-3.8516 2.1791-0.0124 0.02055-0.0231 0.03769-0.0368 0.05741-0.2773 0.40052-3.6081 5.2109-3.6806 5.3219-0.0018 0.0027-1e-3 0.0033-1e-3 0.0065 0 0.0033-1e-3 0.0066-0.0028 0.0094-0.1805 0.2777-0.4991 0.4657-0.8572 0.4657-0.55-0.01-0.99-0.48-0.99-1.03l-0.08-7.01v-1.73c0-0.15-0.13-0.27-0.28-0.27-0.95 0-1.72 0.77-1.72 1.73 0 0.15-0.13 0.27-0.28 0.27h-4.21c-1.94 0-3.51 1.57-3.51 3.51v0.37c0 0.62 0.5 1.12 1.12 1.12h2.94c0.52 0 0.94 0.42 0.94 0.94v2.88c0 2.67 1.47 5.01 3.64 6.25 0.22 0.12 0.36 0.35 0.36 0.61v8.82c0 0.28 0.22 0.5 0.5 0.5h2c0.28 0 0.5-0.22 0.5-0.5v-7.5c0-0.5523 0.4477-1 1-1h7c0.3265 0 0.6443-0.0315 0.9518-0.091 0.6401-0.1237 1.3365 0.2249 1.5398 0.8444 0.1446 0.4405 0.3202 0.8703 0.5284 1.2866l0.85 1.71c0.09 0.16 0.13 0.35 0.13 0.53v4.22c0 0.28 0.22 0.5 0.5 0.5h2c0.28 0 0.5-0.22 0.5-0.5v-15.932c0-0.2927 0.3448-0.5099 0.6073-0.6394 0.2354-0.1161 0.4094-0.3599 0.3927-0.6787z" fill="url(#ag)"/><path d="m29.867 11.75c-0.01-0.17-0.09-0.34-0.21-0.46-0.03-0.03-5.04-5.4-5.12-5.49-0.82-0.81-1.94-1.3-3.17-1.3-1.6371 0-3.0675 0.87612-3.8516 2.1791-0.0124 0.02055-0.0231 0.03769-0.0368 0.05741-0.2773 0.40052-3.6081 5.2109-3.6806 5.3219-0.0018 0.0027-1e-3 0.0033-1e-3 0.0065 0 0.0033-1e-3 0.0066-0.0028 0.0094-0.1805 0.2777-0.4991 0.4657-0.8572 0.4657-0.55-0.01-0.99-0.48-0.99-1.03l-0.08-7.01v-1.73c0-0.15-0.13-0.27-0.28-0.27-0.95 0-1.72 0.77-1.72 1.73 0 0.15-0.13 0.27-0.28 0.27h-4.21c-1.94 0-3.51 1.57-3.51 3.51v0.37c0 0.62 0.5 1.12 1.12 1.12h2.94c0.52 0 0.94 0.42 0.94 0.94v2.88c0 2.67 1.47 5.01 3.64 6.25 0.22 0.12 0.36 0.35 0.36 0.61v8.82c0 0.28 0.22 0.5 0.5 0.5h2c0.28 0 0.5-0.22 0.5-0.5v-7.5c0-0.5523 0.4477-1 1-1h7c0.3265 0 0.6443-0.0315 0.9518-0.091 0.6401-0.1237 1.3365 0.2249 1.5398 0.8444 0.1446 0.4405 0.3202 0.8703 0.5284 1.2866l0.85 1.71c0.09 0.16 0.13 0.35 0.13 0.53v4.22c0 0.28 0.22 0.5 0.5 0.5h2c0.28 0 0.5-0.22 0.5-0.5v-15.932c0-0.2927 0.3448-0.5099 0.6073-0.6394 0.2354-0.1161 0.4094-0.3599 0.3927-0.6787z" fill="url(#af)"/><path d="m29.867 11.75c-0.01-0.17-0.09-0.34-0.21-0.46-0.03-0.03-5.04-5.4-5.12-5.49-0.82-0.81-1.94-1.3-3.17-1.3-1.6371 0-3.0675 0.87612-3.8516 2.1791-0.0124 0.02055-0.0231 0.03769-0.0368 0.05741-0.2773 0.40052-3.6081 5.2109-3.6806 5.3219-0.0018 0.0027-1e-3 0.0033-1e-3 0.0065 0 0.0033-1e-3 0.0066-0.0028 0.0094-0.1805 0.2777-0.4991 0.4657-0.8572 0.4657-0.55-0.01-0.99-0.48-0.99-1.03l-0.08-7.01v-1.73c0-0.15-0.13-0.27-0.28-0.27-0.95 0-1.72 0.77-1.72 1.73 0 0.15-0.13 0.27-0.28 0.27h-4.21c-1.94 0-3.51 1.57-3.51 3.51v0.37c0 0.62 0.5 1.12 1.12 1.12h2.94c0.52 0 0.94 0.42 0.94 0.94v2.88c0 2.67 1.47 5.01 3.64 6.25 0.22 0.12 0.36 0.35 0.36 0.61v8.82c0 0.28 0.22 0.5 0.5 0.5h2c0.28 0 0.5-0.22 0.5-0.5v-7.5c0-0.5523 0.4477-1 1-1h7c0.3265 0 0.6443-0.0315 0.9518-0.091 0.6401-0.1237 1.3365 0.2249 1.5398 0.8444 0.1446 0.4405 0.3202 0.8703 0.5284 1.2866l0.85 1.71c0.09 0.16 0.13 0.35 0.13 0.53v4.22c0 0.28 0.22 0.5 0.5 0.5h2c0.28 0 0.5-0.22 0.5-0.5v-15.932c0-0.2927 0.3448-0.5099 0.6073-0.6394 0.2354-0.1161 0.4094-0.3599 0.3927-0.6787z" fill="url(#ae)"/><path d="m29.867 11.75c-0.01-0.17-0.09-0.34-0.21-0.46-0.03-0.03-5.04-5.4-5.12-5.49-0.82-0.81-1.94-1.3-3.17-1.3-1.6371 0-3.0675 0.87612-3.8516 2.1791-0.0124 0.02055-0.0231 0.03769-0.0368 0.05741-0.2773 0.40052-3.6081 5.2109-3.6806 5.3219-0.0018 0.0027-1e-3 0.0033-1e-3 0.0065 0 0.0033-1e-3 0.0066-0.0028 0.0094-0.1805 0.2777-0.4991 0.4657-0.8572 0.4657-0.55-0.01-0.99-0.48-0.99-1.03l-0.08-7.01v-1.73c0-0.15-0.13-0.27-0.28-0.27-0.95 0-1.72 0.77-1.72 1.73 0 0.15-0.13 0.27-0.28 0.27h-4.21c-1.94 0-3.51 1.57-3.51 3.51v0.37c0 0.62 0.5 1.12 1.12 1.12h2.94c0.52 0 0.94 0.42 0.94 0.94v2.88c0 2.67 1.47 5.01 3.64 6.25 0.22 0.12 0.36 0.35 0.36 0.61v8.82c0 0.28 0.22 0.5 0.5 0.5h2c0.28 0 0.5-0.22 0.5-0.5v-7.5c0-0.5523 0.4477-1 1-1h7c0.3265 0 0.6443-0.0315 0.9518-0.091 0.6401-0.1237 1.3365 0.2249 1.5398 0.8444 0.1446 0.4405 0.3202 0.8703 0.5284 1.2866l0.85 1.71c0.09 0.16 0.13 0.35 0.13 0.53v4.22c0 0.28 0.22 0.5 0.5 0.5h2c0.28 0 0.5-0.22 0.5-0.5v-15.932c0-0.2927 0.3448-0.5099 0.6073-0.6394 0.2354-0.1161 0.4094-0.3599 0.3927-0.6787z" fill="url(#ad)"/><path d="m15.304 20.5v-1.3125c0-0.5523-0.4478-1-1-1h-3.1629c-0.4596 0-0.7062 0.612-0.5055 1.0254 0.1815 0.3739 0.2184 0.6842 0.2254 0.8789 0.0036 0.0289 0.0055 0.0584 0.0055 0.0882v8.82c0 0.28 0.22 0.5 0.5 0.5h2c0.28 0 0.5-0.22 0.5-0.5v-7.5c0-0.5523 0.4477-1 1-1h0.4375z" fill="url(#ac)"/><path d="m15.304 20.5v-1.3125c0-0.5523-0.4478-1-1-1h-3.1629c-0.4596 0-0.7062 0.612-0.5055 1.0254 0.1815 0.3739 0.2184 0.6842 0.2254 0.8789 0.0036 0.0289 0.0055 0.0584 0.0055 0.0882v8.82c0 0.28 0.22 0.5 0.5 0.5h2c0.28 0 0.5-0.22 0.5-0.5v-7.5c0-0.5523 0.4477-1 1-1h0.4375z" fill="url(#ab)"/><path d="m28.867 19.594c0-1.3116-1.0634-2.3749-2.375-2.3749-1.3117 0-2.375 1.0633-2.375 2.375v0.7578c0 0.3125 0.1442 0.6049 0.2416 0.9018 0.1446 0.4405 0.3202 0.8703 0.5284 1.2866l0.85 1.71c0.09 0.16 0.13 0.35 0.13 0.53v4.22c0 0.28 0.22 0.5 0.5 0.5h2c0.28 0 0.5-0.22 0.5-0.5v-9.4063z" fill="url(#aa)"/><path d="m28.867 19.594c0-1.3116-1.0634-2.3749-2.375-2.3749-1.3117 0-2.375 1.0633-2.375 2.375v0.7578c0 0.3125 0.1442 0.6049 0.2416 0.9018 0.1446 0.4405 0.3202 0.8703 0.5284 1.2866l0.85 1.71c0.09 0.16 0.13 0.35 0.13 0.53v4.22c0 0.28 0.22 0.5 0.5 0.5h2c0.28 0 0.5-0.22 0.5-0.5v-9.4063z" fill="url(#z)"/><path d="m28.867 19.594c0-1.3116-1.0634-2.3749-2.375-2.3749-1.3117 0-2.375 1.0633-2.375 2.375v0.7578c0 0.3125 0.1442 0.6049 0.2416 0.9018 0.1446 0.4405 0.3202 0.8703 0.5284 1.2866l0.85 1.71c0.09 0.16 0.13 0.35 0.13 0.53v4.22c0 0.28 0.22 0.5 0.5 0.5h2c0.28 0 0.5-0.22 0.5-0.5v-9.4063z" fill="url(#y)"/><path d="m29.867 11.75c-0.01-0.17-0.09-0.34-0.21-0.46-0.03-0.03-5.04-5.4-5.12-5.49-0.82-0.81-1.94-1.3-3.17-1.3-1.6371 0-3.0675 0.87612-3.8516 2.1791-0.0124 0.02055-0.0231 0.03769-0.0368 0.05741-0.2773 0.40052-3.6081 5.2109-3.6806 5.3219-0.0018 0.0027-1e-3 0.0033-1e-3 0.0065 0 0.0033-1e-3 0.0066-0.0028 0.0094-0.1805 0.2777-0.4991 0.4657-0.8572 0.4657-0.55-0.01-0.99-0.48-0.99-1.03l-0.08-7.01v-1.73c0-0.15-0.13-0.27-0.28-0.27-0.95 0-1.72 0.77-1.72 1.73 0 0.15-0.13 0.27-0.28 0.27h-4.21c-1.94 0-3.51 1.57-3.51 3.51v0.37c0 0.62 0.5 1.12 1.12 1.12h2.94c0.52 0 0.94 0.42 0.94 0.94v2.88c0 2.67 1.47 5.01 3.64 6.25 0.22 0.12 0.36 0.35 0.36 0.61v8.82c0 0.28 0.22 0.5 0.5 0.5h2c0.28 0 0.5-0.22 0.5-0.5v-7.5c0-0.5523 0.4477-1 1-1h7c0.3265 0 0.6443-0.0315 0.9518-0.091 0.6401-0.1237 1.3365 0.2249 1.5398 0.8444 0.1446 0.4405 0.3202 0.8703 0.5284 1.2866l0.85 1.71c0.09 0.16 0.13 0.35 0.13 0.53v4.22c0 0.28 0.22 0.5 0.5 0.5h2c0.28 0 0.5-0.22 0.5-0.5v-15.932c0-0.2927 0.3448-0.5099 0.6073-0.6394 0.2354-0.1161 0.4094-0.3599 0.3927-0.6787z" fill="url(#x)" fill-opacity=".5"/><path d="m29.867 11.75c-0.01-0.17-0.09-0.34-0.21-0.46-0.03-0.03-5.04-5.4-5.12-5.49-0.82-0.81-1.94-1.3-3.17-1.3-1.6371 0-3.0675 0.87612-3.8516 2.1791-0.0124 0.02055-0.0231 0.03769-0.0368 0.05741-0.2773 0.40052-3.6081 5.2109-3.6806 5.3219-0.0018 0.0027-1e-3 0.0033-1e-3 0.0065 0 0.0033-1e-3 0.0066-0.0028 0.0094-0.1805 0.2777-0.4991 0.4657-0.8572 0.4657-0.55-0.01-0.99-0.48-0.99-1.03l-0.08-7.01v-1.73c0-0.15-0.13-0.27-0.28-0.27-0.95 0-1.72 0.77-1.72 1.73 0 0.15-0.13 0.27-0.28 0.27h-4.21c-1.94 0-3.51 1.57-3.51 3.51v0.37c0 0.62 0.5 1.12 1.12 1.12h2.94c0.52 0 0.94 0.42 0.94 0.94v2.88c0 2.67 1.47 5.01 3.64 6.25 0.22 0.12 0.36 0.35 0.36 0.61v8.82c0 0.28 0.22 0.5 0.5 0.5h2c0.28 0 0.5-0.22 0.5-0.5v-7.5c0-0.5523 0.4477-1 1-1h7c0.3265 0 0.6443-0.0315 0.9518-0.091 0.6401-0.1237 1.3365 0.2249 1.5398 0.8444 0.1446 0.4405 0.3202 0.8703 0.5284 1.2866l0.85 1.71c0.09 0.16 0.13 0.35 0.13 0.53v4.22c0 0.28 0.22 0.5 0.5 0.5h2c0.28 0 0.5-0.22 0.5-0.5v-15.932c0-0.2927 0.3448-0.5099 0.6073-0.6394 0.2354-0.1161 0.4094-0.3599 0.3927-0.6787z" fill="url(#v)"/><path d="m29.867 11.75c-0.01-0.17-0.09-0.34-0.21-0.46-0.03-0.03-5.04-5.4-5.12-5.49-0.82-0.81-1.94-1.3-3.17-1.3-1.6371 0-3.0675 0.87612-3.8516 2.1791-0.0124 0.02055-0.0231 0.03769-0.0368 0.05741-0.2773 0.40052-3.6081 5.2109-3.6806 5.3219-0.0018 0.0027-1e-3 0.0033-1e-3 0.0065 0 0.0033-1e-3 0.0066-0.0028 0.0094-0.1805 0.2777-0.4991 0.4657-0.8572 0.4657-0.55-0.01-0.99-0.48-0.99-1.03l-0.08-7.01v-1.73c0-0.15-0.13-0.27-0.28-0.27-0.95 0-1.72 0.77-1.72 1.73 0 0.15-0.13 0.27-0.28 0.27h-4.21c-1.94 0-3.51 1.57-3.51 3.51v0.37c0 0.62 0.5 1.12 1.12 1.12h2.94c0.52 0 0.94 0.42 0.94 0.94v2.88c0 2.67 1.47 5.01 3.64 6.25 0.22 0.12 0.36 0.35 0.36 0.61v8.82c0 0.28 0.22 0.5 0.5 0.5h2c0.28 0 0.5-0.22 0.5-0.5v-7.5c0-0.5523 0.4477-1 1-1h7c0.3265 0 0.6443-0.0315 0.9518-0.091 0.6401-0.1237 1.3365 0.2249 1.5398 0.8444 0.1446 0.4405 0.3202 0.8703 0.5284 1.2866l0.85 1.71c0.09 0.16 0.13 0.35 0.13 0.53v4.22c0 0.28 0.22 0.5 0.5 0.5h2c0.28 0 0.5-0.22 0.5-0.5v-15.932c0-0.2927 0.3448-0.5099 0.6073-0.6394 0.2354-0.1161 0.4094-0.3599 0.3927-0.6787z" fill="url(#u)"/><path d="m29.867 11.75c-0.01-0.17-0.09-0.34-0.21-0.46-0.03-0.03-5.04-5.4-5.12-5.49-0.82-0.81-1.94-1.3-3.17-1.3-1.6371 0-3.0675 0.87612-3.8516 2.1791-0.0124 0.02055-0.0231 0.03769-0.0368 0.05741-0.2773 0.40052-3.6081 5.2109-3.6806 5.3219-0.0018 0.0027-1e-3 0.0033-1e-3 0.0065 0 0.0033-1e-3 0.0066-0.0028 0.0094-0.1805 0.2777-0.4991 0.4657-0.8572 0.4657-0.55-0.01-0.99-0.48-0.99-1.03l-0.08-7.01v-1.73c0-0.15-0.13-0.27-0.28-0.27-0.95 0-1.72 0.77-1.72 1.73 0 0.15-0.13 0.27-0.28 0.27h-4.21c-1.94 0-3.51 1.57-3.51 3.51v0.37c0 0.62 0.5 1.12 1.12 1.12h2.94c0.52 0 0.94 0.42 0.94 0.94v2.88c0 2.67 1.47 5.01 3.64 6.25 0.22 0.12 0.36 0.35 0.36 0.61v8.82c0 0.28 0.22 0.5 0.5 0.5h2c0.28 0 0.5-0.22 0.5-0.5v-7.5c0-0.5523 0.4477-1 1-1h7c0.3265 0 0.6443-0.0315 0.9518-0.091 0.6401-0.1237 1.3365 0.2249 1.5398 0.8444 0.1446 0.4405 0.3202 0.8703 0.5284 1.2866l0.85 1.71c0.09 0.16 0.13 0.35 0.13 0.53v4.22c0 0.28 0.22 0.5 0.5 0.5h2c0.28 0 0.5-0.22 0.5-0.5v-15.932c0-0.2927 0.3448-0.5099 0.6073-0.6394 0.2354-0.1161 0.4094-0.3599 0.3927-0.6787z" fill="url(#t)"/><path d="m29.867 11.75c-0.01-0.17-0.09-0.34-0.21-0.46-0.03-0.03-5.04-5.4-5.12-5.49-0.82-0.81-1.94-1.3-3.17-1.3-1.6371 0-3.0675 0.87612-3.8516 2.1791-0.0124 0.02055-0.0231 0.03769-0.0368 0.05741-0.2773 0.40052-3.6081 5.2109-3.6806 5.3219-0.0018 0.0027-1e-3 0.0033-1e-3 0.0065 0 0.0033-1e-3 0.0066-0.0028 0.0094-0.1805 0.2777-0.4991 0.4657-0.8572 0.4657-0.55-0.01-0.99-0.48-0.99-1.03l-0.08-7.01v-1.73c0-0.15-0.13-0.27-0.28-0.27-0.95 0-1.72 0.77-1.72 1.73 0 0.15-0.13 0.27-0.28 0.27h-4.21c-1.94 0-3.51 1.57-3.51 3.51v0.37c0 0.62 0.5 1.12 1.12 1.12h2.94c0.52 0 0.94 0.42 0.94 0.94v2.88c0 2.67 1.47 5.01 3.64 6.25 0.22 0.12 0.36 0.35 0.36 0.61v8.82c0 0.28 0.22 0.5 0.5 0.5h2c0.28 0 0.5-0.22 0.5-0.5v-7.5c0-0.5523 0.4477-1 1-1h7c0.3265 0 0.6443-0.0315 0.9518-0.091 0.6401-0.1237 1.3365 0.2249 1.5398 0.8444 0.1446 0.4405 0.3202 0.8703 0.5284 1.2866l0.85 1.71c0.09 0.16 0.13 0.35 0.13 0.53v4.22c0 0.28 0.22 0.5 0.5 0.5h2c0.28 0 0.5-0.22 0.5-0.5v-15.932c0-0.2927 0.3448-0.5099 0.6073-0.6394 0.2354-0.1161 0.4094-0.3599 0.3927-0.6787z" fill="url(#s)"/><path d="m3.3668 8.5c-0.28 0-0.5-0.23-0.5-0.5v-0.44c0-0.28 0.22-0.5 0.5-0.5s0.5 0.22 0.5 0.5v0.44c0 0.27-0.22 0.5-0.5 0.5z" fill="url(#r)"/><path d="m7.3668 7.5c-0.28 0-0.5-0.24469-0.5-0.53192v-0.93617c0-0.29787 0.22-0.53191 0.5-0.53191s0.5 0.23404 0.5 0.53191v0.93617c0 0.28723-0.22 0.53192-0.5 0.53192z" fill="url(#q)"/><g filter="url(#ap)"><rect x="27.82" y="19.125" width=".5625" height="9.75" fill="url(#p)"/></g><g filter="url(#ao)"><path d="M12.566 19H13.1285V28.875H12.566V19Z" fill="url(#o)"/></g><g filter="url(#an)"><path d="m29.039 11.594-5.0866-5.4141c-0.7551-0.80371-1.8903-1.1283-2.9562-0.84536l-1.8009 0.47812 8.125 7.375 1.7187-1.5937z" fill="url(#n)"/></g><g filter="url(#am)"><path d="m11.492 11.906v-8.8437c-0.5626 0-1.3854 6.4896-1.3125 8.8437h1.3125z" fill="url(#m)"/></g><g filter="url(#al)"><path d="m13.148 13.234c-1.725-0.0375-1.9062-1.4219-1.7812-2.1094h-1.5313c-0.14063 0.7812 0 1.6208 0.21871 2.3125 0.4625 1.4625 2.349 1.5729 3.0938 1.5469v-1.75z" fill="url(#k)"/></g><g filter="url(#ak)"><path d="m21.75 28.875 1.6875-6.6875" stroke="url(#j)" stroke-width=".3"/></g><g filter="url(#aj)"><path d="M17.773 28.7812L15.8355 21" stroke="url(#i)" stroke-width=".3"/></g><g filter="url(#ai)"><path d="m28.367 13.188v9.4375h-1.3125l-3.8125-9.4375h5.125z" fill="url(#h)" fill-opacity=".5"/></g><defs><filter id="ap" x="27.07" y="18.375" width="2.0625" height="11.25" color-interpolation-filters="sRGB" filterUnits="userSpaceOnUse"><feFlood flood-opacity="0" result="BackgroundImageFix"/><feBlend in="SourceGraphic" in2="BackgroundImageFix" result="shape"/><feGaussianBlur result="effect1_foregroundBlur_28327_3280" stdDeviation="0.375"/></filter><filter id="ao" x="11.816" y="18.25" width="2.0625" height="11.375" color-interpolation-filters="sRGB" filterUnits="userSpaceOnUse"><feFlood flood-opacity="0" result="BackgroundImageFix"/><feBlend in="SourceGraphic" in2="BackgroundImageFix" result="shape"/><feGaussianBlur result="effect1_foregroundBlur_28327_3280" stdDeviation="0.375"/></filter><filter id="an" x="18.445" y="4.4839" width="11.344" height="9.4536" color-interpolation-filters="sRGB" filterUnits="userSpaceOnUse"><feFlood flood-opacity="0" result="BackgroundImageFix"/><feBlend in="SourceGraphic" in2="BackgroundImageFix" result="shape"/><feGaussianBlur result="effect1_foregroundBlur_28327_3280" stdDeviation="0.375"/></filter><filter id="am" x="9.5747" y="2.4625" width="2.517" height="10.044" color-interpolation-filters="sRGB" filterUnits="userSpaceOnUse"><feFlood flood-opacity="0" result="BackgroundImageFix"/><feBlend in="SourceGraphic" in2="BackgroundImageFix" result="shape"/><feGaussianBlur result="effect1_foregroundBlur_28327_3280" stdDeviation="0.3"/></filter><filter id="al" x="9.179" y="10.525" width="4.569" height="5.0624" color-interpolation-filters="sRGB" filterUnits="userSpaceOnUse"><feFlood flood-opacity="0" result="BackgroundImageFix"/><feBlend in="SourceGraphic" in2="BackgroundImageFix" result="shape"/><feGaussianBlur result="effect1_foregroundBlur_28327_3280" stdDeviation="0.3"/></filter><filter id="ak" x="20.804" y="21.351" width="3.5784" height="8.3609" color-interpolation-filters="sRGB" filterUnits="userSpaceOnUse"><feFlood flood-opacity="0" result="BackgroundImageFix"/><feBlend in="SourceGraphic" in2="BackgroundImageFix" result="shape"/><feGaussianBlur result="effect1_foregroundBlur_28327_3280" stdDeviation="0.4"/></filter><filter id="aj" x="14.89" y="20.164" width="3.8286" height="9.4538" color-interpolation-filters="sRGB" filterUnits="userSpaceOnUse"><feFlood flood-opacity="0" result="BackgroundImageFix"/><feBlend in="SourceGraphic" in2="BackgroundImageFix" result="shape"/><feGaussianBlur result="effect1_foregroundBlur_28327_3280" stdDeviation="0.4"/></filter><filter id="ai" x="22.242" y="12.188" width="7.125" height="11.438" color-interpolation-filters="sRGB" filterUnits="userSpaceOnUse"><feFlood flood-opacity="0" result="BackgroundImageFix"/><feBlend in="SourceGraphic" in2="BackgroundImageFix" result="shape"/><feGaussianBlur result="effect1_foregroundBlur_28327_3280" stdDeviation="0.5"/></filter><radialGradient id="ah" cx="0" cy="0" r="1" gradientTransform="translate(21.054 28.688) rotate(104.77) scale(7.1099 5.6814)" gradientUnits="userSpaceOnUse"><stop stop-color="#C56B44" offset="0"/><stop stop-color="#7E3834" offset="1"/></radialGradient><linearGradient id="w" x1="21.898" x2="22.594" y1="29.812" y2="25.219" gradientUnits="userSpaceOnUse"><stop stop-color="#CC703F" offset="0"/><stop stop-color="#CC703F" stop-opacity="0" offset=".49737"/></linearGradient><linearGradient id="l" x1="24.07" x2="24.07" y1="30.618" y2="28.215" gradientUnits="userSpaceOnUse"><stop stop-color="#D9747B" offset="0"/><stop stop-color="#D9747B" stop-opacity="0" offset="1"/></linearGradient><radialGradient id="g" cx="0" cy="0" r="1" gradientTransform="translate(17.679 29.812) rotate(257.47) scale(10.372 9.5115)" gradientUnits="userSpaceOnUse"><stop stop-color="#C56B44" offset="0"/><stop stop-color="#7E3834" offset="1"/></radialGradient><linearGradient id="f" x1="16" x2="14.145" y1="29.812" y2="21.279" gradientUnits="userSpaceOnUse"><stop stop-color="#D27D5B" offset="0"/><stop stop-color="#D27D5B" stop-opacity="0" offset="1"/></linearGradient><linearGradient id="e" x1="17.554" x2="17.554" y1="30.75" y2="28.062" gradientUnits="userSpaceOnUse"><stop stop-color="#D9747B" offset="0"/><stop stop-color="#D9747B" stop-opacity="0" offset="1"/></linearGradient><radialGradient id="d" cx="0" cy="0" r="1" gradientTransform="translate(15.867 11.938) rotate(125.58) scale(9.4527 7.0836)" gradientUnits="userSpaceOnUse"><stop stop-color="#E19C70" offset="0"/><stop stop-color="#E19C70" stop-opacity="0" offset="1"/></radialGradient><radialGradient id="c" cx="0" cy="0" r="1" gradientTransform="translate(31.21 13.75) rotate(212.49) scale(3.7234 1.1576)" gradientUnits="userSpaceOnUse"><stop stop-color="#CE7549" offset="0"/><stop stop-color="#CE7549" stop-opacity="0" offset="1"/></radialGradient><radialGradient id="b" cx="0" cy="0" r="1" gradientTransform="translate(-.85199 14.688) rotate(-37.037) scale(10.688 3.919)" gradientUnits="userSpaceOnUse"><stop stop-color="#B13E76" offset=".33405"/><stop stop-color="#B13E76" stop-opacity="0" offset="1"/></radialGradient><radialGradient id="a" cx="0" cy="0" r="1" gradientTransform="translate(8.9918 23.5) rotate(243.13) scale(7.8473 4.5626)" gradientUnits="userSpaceOnUse"><stop stop-color="#B13E76" offset=".13955"/><stop stop-color="#B13E76" stop-opacity="0" offset="1"/></radialGradient><radialGradient id="ag" cx="0" cy="0" r="1" gradientTransform="translate(9.3511 3.8906) rotate(46.259) scale(2.0113 1.1713)" gradientUnits="userSpaceOnUse"><stop stop-color="#E0A267" offset="0"/><stop stop-color="#E09A58" stop-opacity="0" offset="1"/></radialGradient><radialGradient id="af" cx="0" cy="0" r="1" gradientTransform="translate(2.8668 4.125) rotate(54.669) scale(3.0261 5.5052)" gradientUnits="userSpaceOnUse"><stop stop-color="#E0A267" offset="0"/><stop stop-color="#E09A58" stop-opacity="0" offset="1"/></radialGradient><radialGradient id="ae" cx="0" cy="0" r="1" gradientTransform="translate(5.3668 16.75) rotate(-22.834) scale(5.1539 19.279)" gradientUnits="userSpaceOnUse"><stop stop-color="#D28964" offset="0"/><stop stop-color="#D28964" stop-opacity="0" offset="1"/></radialGradient><radialGradient id="ad" cx="0" cy="0" r="1" gradientTransform="translate(7.2418 17.5) rotate(-18.435) scale(4.7434 14.456)" gradientUnits="userSpaceOnUse"><stop stop-color="#CE8167" offset="0"/><stop stop-color="#CE8167" stop-opacity="0" offset="1"/></radialGradient><linearGradient id="ac" x1="7.8043" x2="11.617" y1="24.938" y2="14.062" gradientUnits="userSpaceOnUse"><stop stop-color="#D27E4D" offset="0"/><stop stop-color="#E49E76" offset=".6875"/></linearGradient><linearGradient id="ab" x1="14.09" x2="14.09" y1="30.094" y2="28.145" gradientUnits="userSpaceOnUse"><stop stop-color="#D9747B" offset="0"/><stop stop-color="#D9747B" stop-opacity="0" offset="1"/></linearGradient><linearGradient id="aa" x1="26.492" x2="26.492" y1="19.625" y2="30.125" gradientUnits="userSpaceOnUse"><stop stop-color="#E49E76" offset="0"/><stop stop-color="#CE7549" offset="1"/></linearGradient><linearGradient id="z" x1="26.492" x2="26.492" y1="30.25" y2="28.688" gradientUnits="userSpaceOnUse"><stop stop-color="#BC5972" offset="0"/><stop stop-color="#BC5972" stop-opacity="0" offset="1"/></linearGradient><radialGradient id="y" cx="0" cy="0" r="1" gradientTransform="translate(22.804 25.062) rotate(-48.633) scale(5.5797 5.8783)" gradientUnits="userSpaceOnUse"><stop stop-color="#B13E76" offset="0"/><stop stop-color="#B13E76" stop-opacity="0" offset=".78959"/></radialGradient><radialGradient id="x" cx="0" cy="0" r="1" gradientTransform="translate(19.554 22.875) rotate(-90) scale(8.625 7.625)" gradientUnits="userSpaceOnUse"><stop stop-color="#B13E76" offset=".055803"/><stop stop-color="#B13E76" stop-opacity="0" offset=".94118"/></radialGradient><radialGradient id="v" cx="0" cy="0" r="1" gradientTransform="translate(19.492 21.5) rotate(-89.409) scale(6.0628 14.376)" gradientUnits="userSpaceOnUse"><stop stop-color="#B13E76" offset="0"/><stop stop-color="#B13E76" stop-opacity="0" offset=".45175"/></radialGradient><radialGradient id="u" cx="0" cy="0" r="1" gradientTransform="translate(15.086 9.4375) rotate(37.208) scale(2.1188 5.5373)" gradientUnits="userSpaceOnUse"><stop stop-color="#CD8549" offset="0"/><stop stop-color="#CD8549" stop-opacity="0" offset="1"/></radialGradient><radialGradient id="t" cx="0" cy="0" r="1" gradientTransform="translate(7.9293 6.125) rotate(90) scale(2.0625 4.5833)" gradientUnits="userSpaceOnUse"><stop stop-color="#E4AE7C" offset="0"/><stop stop-color="#E4AE7C" stop-opacity="0" offset="1"/></radialGradient><radialGradient id="s" cx="0" cy="0" r="1" gradientTransform="translate(30.867 7.6875) rotate(141.29) scale(10.493 12.083)" gradientUnits="userSpaceOnUse"><stop stop-color="#FFC684" offset="0"/><stop stop-color="#FFC684" stop-opacity="0" offset="1"/></radialGradient><radialGradient id="r" cx="0" cy="0" r="1" gradientTransform="translate(3.1714 7.9375) scale(.4375 .82812)" gradientUnits="userSpaceOnUse"><stop stop-color="#C78E72" offset="0"/><stop stop-color="#BC7748" offset="1"/></radialGradient><radialGradient id="q" cx="0" cy="0" r="1" gradientTransform="translate(7.511 6.5) rotate(180) scale(.29167 1.1934)" gradientUnits="userSpaceOnUse"><stop stop-color="#67545F" offset="0"/><stop stop-color="#3C2B34" offset="1"/></radialGradient><linearGradient id="p" x1="28.101" x2="28.101" y1="19.125" y2="28.875" gradientUnits="userSpaceOnUse"><stop stop-color="#FFB684" stop-opacity="0" offset="0"/><stop stop-color="#FFB684" offset="1"/></linearGradient><linearGradient id="o" x1="12.847" x2="12.847" y1="4.125" y2="24.562" gradientUnits="userSpaceOnUse"><stop stop-color="#FFB684" stop-opacity="0" offset="0"/><stop stop-color="#FFB684" offset="1"/></linearGradient><linearGradient id="n" x1="25.82" x2="28.164" y1="11.281" y2="8.8438" gradientUnits="userSpaceOnUse"><stop stop-color="#FFC684" stop-opacity="0" offset="0"/><stop stop-color="#FFC684" offset="1"/></linearGradient><linearGradient id="m" x1="11.492" x2="14.57" y1="15.062" y2="14.269" gradientUnits="userSpaceOnUse"><stop stop-color="#FFD0A3" stop-opacity="0" offset="0"/><stop stop-color="#FFD0A3" offset="1"/></linearGradient><radialGradient id="k" cx="0" cy="0" r="1" gradientTransform="translate(12.32 12.141) rotate(128.04) scale(2.4599 1.6484)" gradientUnits="userSpaceOnUse"><stop stop-color="#FFD0A3" offset="0"/><stop stop-color="#FFD0A3" stop-opacity="0" offset="1"/></radialGradient><linearGradient id="j" x1="21.336" x2="23.437" y1="28.656" y2="19.656" gradientUnits="userSpaceOnUse"><stop stop-color="#F79B78" offset="0"/><stop stop-color="#F69B78" stop-opacity="0" offset="1"/></linearGradient><linearGradient id="i" x1="16.692" x2="12.804" y1="28.656" y2="12.625" gradientUnits="userSpaceOnUse"><stop stop-color="#EA9669" offset="0"/><stop stop-color="#EA9669" stop-opacity="0" offset="1"/></linearGradient><linearGradient id="h" x1="27.492" x2="23.619" y1="13.188" y2="19.105" gradientUnits="userSpaceOnUse"><stop stop-color="#FFC684" stop-opacity="0" offset="0"/><stop stop-color="#FFC684" offset="1"/></linearGradient></defs></svg>
