<svg fill="none" viewBox="0 0 32 32" xmlns="http://www.w3.org/2000/svg"><path d="m7.7668 14.07c2.5154 0 4.5546-2.0392 4.5546-4.5547 0-2.5155-2.0392-4.5547-4.5546-4.5547-2.5155 0-4.5547 2.0392-4.5547 4.5547 0 2.5155 2.0392 4.5547 4.5547 4.5547z" fill="url(#ac)"/><path d="m7.7668 14.07c2.5154 0 4.5546-2.0392 4.5546-4.5547 0-2.5155-2.0392-4.5547-4.5546-4.5547-2.5155 0-4.5547 2.0392-4.5547 4.5547 0 2.5155 2.0392 4.5547 4.5547 4.5547z" fill="url(#r)"/><path d="m7.7668 14.07c2.5154 0 4.5546-2.0392 4.5546-4.5547 0-2.5155-2.0392-4.5547-4.5546-4.5547-2.5155 0-4.5547 2.0392-4.5547 4.5547 0 2.5155 2.0392 4.5547 4.5547 4.5547z" fill="url(#h)"/><path d="m7.7668 14.07c2.5154 0 4.5546-2.0392 4.5546-4.5547 0-2.5155-2.0392-4.5547-4.5546-4.5547-2.5155 0-4.5547 2.0392-4.5547 4.5547 0 2.5155 2.0392 4.5547 4.5547 4.5547z" fill="url(#g)"/><path d="m7.7668 14.07c2.5154 0 4.5546-2.0392 4.5546-4.5547 0-2.5155-2.0392-4.5547-4.5546-4.5547-2.5155 0-4.5547 2.0392-4.5547 4.5547 0 2.5155 2.0392 4.5547 4.5547 4.5547z" fill="url(#f)"/><path d="m24.61 14.07c2.5155 0 4.5547-2.0392 4.5547-4.5547 0-2.5155-2.0392-4.5547-4.5547-4.5547-2.5154 0-4.5546 2.0392-4.5546 4.5547 0 2.5155 2.0392 4.5547 4.5546 4.5547z" fill="url(#e)"/><g filter="url(#am)"><path d="m28.601 9.5154c0 2.2042-1.7868 3.991-3.9909 3.991s-3.9909-1.7868-3.9909-3.991c0-2.2041 1.7868-3.9909 3.9909-3.9909s3.9909 1.7868 3.9909 3.9909z" stroke="url(#d)" stroke-width=".3"/></g><g filter="url(#al)"><path d="m11.783 9.5154c0 2.218-1.798 4.016-4.0159 4.016-2.2179 0-4.0159-1.798-4.0159-4.016 0-2.2179 1.798-4.0159 4.0159-4.0159 2.2179 0 4.0159 1.798 4.0159 4.0159z" stroke="url(#c)" stroke-width=".25"/></g><g filter="url(#ak)"><path d="m30.235 19.871c0 7.73-6.27 9.88-14 9.88-7.73 0-14-2.15-14-9.88s6.27-14 14-14c7.73 0 14 6.26 14 14z" fill="url(#b)"/><path d="m30.235 19.871c0 7.73-6.27 9.88-14 9.88-7.73 0-14-2.15-14-9.88s6.27-14 14-14c7.73 0 14 6.26 14 14z" fill="url(#a)"/></g><path d="m30.235 19.871c0 7.73-6.27 9.88-14 9.88-7.73 0-14-2.15-14-9.88s6.27-14 14-14c7.73 0 14 6.26 14 14z" fill="url(#ab)"/><path d="m30.235 19.871c0 7.73-6.27 9.88-14 9.88-7.73 0-14-2.15-14-9.88s6.27-14 14-14c7.73 0 14 6.26 14 14z" fill="url(#aa)"/><path d="m30.235 19.871c0 7.73-6.27 9.88-14 9.88-7.73 0-14-2.15-14-9.88s6.27-14 14-14c7.73 0 14 6.26 14 14z" fill="url(#z)"/><path d="m12.936 19.797c-1.6016 1.6016-3.7344 1.4687-5.0469 0-1.5078-1.6016-0.72588-3.6172 0.71878-5.1875 1.6172-1.7578 2.8034-2.2122 4.2734-0.7422s1.5247 4.4597 0.0547 5.9297z" fill="url(#y)"/><path d="m12.936 19.797c-1.6016 1.6016-3.7344 1.4687-5.0469 0-1.5078-1.6016-0.72588-3.6172 0.71878-5.1875 1.6172-1.7578 2.8034-2.2122 4.2734-0.7422s1.5247 4.4597 0.0547 5.9297z" fill="url(#x)"/><path d="m19.054 19.797c1.6016 1.6016 3.7344 1.4687 5.0469 0 1.5078-1.6016 0.7259-3.6172-0.7188-5.1875-1.6171-1.7578-2.8034-2.2122-4.2734-0.7422s-1.5247 4.4597-0.0547 5.9297z" fill="url(#w)"/><path d="m19.054 19.797c1.6016 1.6016 3.7344 1.4687 5.0469 0 1.5078-1.6016 0.7259-3.6172-0.7188-5.1875-1.6171-1.7578-2.8034-2.2122-4.2734-0.7422s-1.5247 4.4597-0.0547 5.9297z" fill="url(#v)"/><g filter="url(#aj)"><path d="m14.865 19.255h1.6975c0.6543 0 0.9794 0.6938 0.6419 1.2335-0.3913 0.6259-0.9405 1.0193-0.9405 1.0193-0.1807 0.1344-0.37 0.2045-0.5501 0.2029-0.1802 0.0016-0.3694-0.0685-0.5502-0.2029 0 0-0.5491-0.3934-0.9405-1.0193-0.3375-0.5397-0.0123-1.2335 0.6419-1.2335z" fill="#A081BC"/></g><path d="m15.113 18.958h1.7736c0.6836 0 1.0234 0.7249 0.6707 1.2889-0.4089 0.6539-0.9827 1.065-0.9827 1.065-0.1888 0.1404-0.3866 0.2136-0.5748 0.2121-0.1882 0.0015-0.3859-0.0717-0.5748-0.2121 0 0-0.5738-0.4111-0.9827-1.065-0.3527-0.564-0.0129-1.2889 0.6707-1.2889z" fill="url(#u)"/><path d="m15.113 18.958h1.7736c0.6836 0 1.0234 0.7249 0.6707 1.2889-0.4089 0.6539-0.9827 1.065-0.9827 1.065-0.1888 0.1404-0.3866 0.2136-0.5748 0.2121-0.1882 0.0015-0.3859-0.0717-0.5748-0.2121 0 0-0.5738-0.4111-0.9827-1.065-0.3527-0.564-0.0129-1.2889 0.6707-1.2889z" fill="url(#t)"/><path d="m15.113 18.958h1.7736c0.6836 0 1.0234 0.7249 0.6707 1.2889-0.4089 0.6539-0.9827 1.065-0.9827 1.065-0.1888 0.1404-0.3866 0.2136-0.5748 0.2121-0.1882 0.0015-0.3859-0.0717-0.5748-0.2121 0 0-0.5738-0.4111-0.9827-1.065-0.3527-0.564-0.0129-1.2889 0.6707-1.2889z" fill="url(#s)"/><path d="m15.113 18.958h1.7736c0.6836 0 1.0234 0.7249 0.6707 1.2889-0.4089 0.6539-0.9827 1.065-0.9827 1.065-0.1888 0.1404-0.3866 0.2136-0.5748 0.2121-0.1882 0.0015-0.3859-0.0717-0.5748-0.2121 0 0-0.5738-0.4111-0.9827-1.065-0.3527-0.564-0.0129-1.2889 0.6707-1.2889z" fill="url(#q)"/><path d="m15.113 18.958h1.7736c0.6836 0 1.0234 0.7249 0.6707 1.2889-0.4089 0.6539-0.9827 1.065-0.9827 1.065-0.1888 0.1404-0.3866 0.2136-0.5748 0.2121-0.1882 0.0015-0.3859-0.0717-0.5748-0.2121 0 0-0.5738-0.4111-0.9827-1.065-0.3527-0.564-0.0129-1.2889 0.6707-1.2889z" fill="url(#p)"/><g filter="url(#ai)"><rect x="10.853" y="15.367" width="1.4688" height="2.8047" rx=".73438" fill="#45366A"/></g><g filter="url(#ah)"><rect x="18.884" y="15.367" width="1.4688" height="2.8047" rx=".73438" fill="#45366A"/></g><rect x="11.268" y="14.961" width="1.4688" height="2.9766" rx=".73438" fill="url(#o)"/><rect x="11.268" y="14.961" width="1.4688" height="2.9766" rx=".73438" fill="url(#n)"/><rect transform="matrix(-1 0 0 1 20.722 14.961)" width="1.4688" height="2.9766" rx=".73438" fill="url(#m)"/><rect transform="matrix(-1 0 0 1 20.722 14.961)" width="1.4688" height="2.9766" rx=".73438" fill="url(#l)"/><g filter="url(#ag)"><path d="m13.011 23.019c0-0.2618-0.2122-0.474-0.474-0.474-0.2617 0-0.4739 0.2122-0.4739 0.474 0 1.2137 0.9145 2.2694 2.1233 2.2694 0.6824 0 1.2709-0.3364 1.6542-0.8476 0.3832 0.5112 0.9718 0.8476 1.6541 0.8476 1.2089 0 2.1234-1.0557 2.1234-2.2694 0-0.2618-0.2122-0.474-0.474-0.474-0.2617 0-0.4739 0.2122-0.4739 0.474 0 0.7675-0.5643 1.3215-1.1755 1.3215s-1.1754-0.554-1.1754-1.3215c0-0.2618-0.2122-0.474-0.474-0.474h-0.0047-0.0047c-0.2618 0-0.474 0.2122-0.474 0.474 0 0.7675-0.5643 1.3215-1.1755 1.3215s-1.1754-0.554-1.1754-1.3215z" clip-rule="evenodd" fill="#A081BC" fill-rule="evenodd"/></g><path d="m15.99 22.603c0 1.045-0.78 1.894-1.74 1.894s-1.74-0.849-1.74-1.894" stroke="url(#k)" stroke-linecap="round" stroke-miterlimit="10"/><path d="m19.48 22.603c0 1.045-0.78 1.894-1.74 1.894s-1.74-0.849-1.74-1.894" stroke="url(#j)" stroke-linecap="round" stroke-miterlimit="10"/><g filter="url(#af)"><path d="m12.51 22.603c0.0417 0.5208 0.5344 1.5812 1.6094 1.6562 1.3437 0.0938 1.8125-0.9687 1.8594-1.6562-0.0261 0.5521 0.5781 1.7343 1.8437 1.7343 1.0875 0 1.599-1.1822 1.6563-1.7343" stroke="url(#i)" stroke-linecap="round" stroke-linejoin="round" stroke-width=".25"/></g><g filter="url(#ae)"><rect x="12.086" y="15.406" width=".35312" height="1.8438" rx=".17656" fill="#665A5C"/></g><g filter="url(#ad)"><rect x="20.055" y="15.406" width=".35312" height="1.8438" rx=".17656" fill="#665A5C"/></g><defs><filter id="am" x="19.869" y="4.7745" width="9.4819" height="9.4817" color-interpolation-filters="sRGB" filterUnits="userSpaceOnUse"><feFlood flood-opacity="0" result="BackgroundImageFix"/><feBlend in="SourceGraphic" in2="BackgroundImageFix" result="shape"/><feGaussianBlur result="effect1_foregroundBlur_28327_4211" stdDeviation="0.3"/></filter><filter id="al" x="3.126" y="4.8745" width="9.2819" height="9.2817" color-interpolation-filters="sRGB" filterUnits="userSpaceOnUse"><feFlood flood-opacity="0" result="BackgroundImageFix"/><feBlend in="SourceGraphic" in2="BackgroundImageFix" result="shape"/><feGaussianBlur result="effect1_foregroundBlur_28327_4211" stdDeviation="0.25"/></filter><filter id="ak" x="2.235" y="4.8706" width="29" height="25.38" color-interpolation-filters="sRGB" filterUnits="userSpaceOnUse"><feFlood flood-opacity="0" result="BackgroundImageFix"/><feBlend in="SourceGraphic" in2="BackgroundImageFix" result="shape"/><feColorMatrix in="SourceAlpha" result="hardAlpha" values="0 0 0 0 0 0 0 0 0 0 0 0 0 0 0 0 0 0 127 0"/><feOffset dx="1" dy="0.5"/><feGaussianBlur stdDeviation="1"/><feComposite in2="hardAlpha" k2="-1" k3="1" operator="arithmetic"/><feColorMatrix values="0 0 0 0 0.596078 0 0 0 0 0.584314 0 0 0 0 0.643137 0 0 0 0.6 0"/><feBlend in2="shape" result="effect1_innerShadow_28327_4211"/><feColorMatrix in="SourceAlpha" result="hardAlpha" values="0 0 0 0 0 0 0 0 0 0 0 0 0 0 0 0 0 0 127 0"/><feOffset dy="-1"/><feGaussianBlur stdDeviation="1"/><feComposite in2="hardAlpha" k2="-1" k3="1" operator="arithmetic"/><feColorMatrix values="0 0 0 0 0.686275 0 0 0 0 0.490196 0 0 0 0 0.862745 0 0 0 1 0"/><feBlend in2="effect1_innerShadow_28327_4211" result="effect2_innerShadow_28327_4211"/></filter><filter id="aj" x="13.588" y="18.755" width="4.2513" height="3.4558" color-interpolation-filters="sRGB" filterUnits="userSpaceOnUse"><feFlood flood-opacity="0" result="BackgroundImageFix"/><feBlend in="SourceGraphic" in2="BackgroundImageFix" result="shape"/><feGaussianBlur result="effect1_foregroundBlur_28327_4211" stdDeviation="0.25"/></filter><filter id="ai" x="10.353" y="14.867" width="2.4688" height="3.8047" color-interpolation-filters="sRGB" filterUnits="userSpaceOnUse"><feFlood flood-opacity="0" result="BackgroundImageFix"/><feBlend in="SourceGraphic" in2="BackgroundImageFix" result="shape"/><feGaussianBlur result="effect1_foregroundBlur_28327_4211" stdDeviation="0.25"/></filter><filter id="ah" x="18.384" y="14.867" width="2.4688" height="3.8047" color-interpolation-filters="sRGB" filterUnits="userSpaceOnUse"><feFlood flood-opacity="0" result="BackgroundImageFix"/><feBlend in="SourceGraphic" in2="BackgroundImageFix" result="shape"/><feGaussianBlur result="effect1_foregroundBlur_28327_4211" stdDeviation="0.25"/></filter><filter id="ag" x="11.564" y="22.045" width="8.555" height="3.7434" color-interpolation-filters="sRGB" filterUnits="userSpaceOnUse"><feFlood flood-opacity="0" result="BackgroundImageFix"/><feBlend in="SourceGraphic" in2="BackgroundImageFix" result="shape"/><feGaussianBlur result="effect1_foregroundBlur_28327_4211" stdDeviation="0.25"/></filter><filter id="af" x="12.135" y="22.228" width="7.7188" height="2.4844" color-interpolation-filters="sRGB" filterUnits="userSpaceOnUse"><feFlood flood-opacity="0" result="BackgroundImageFix"/><feBlend in="SourceGraphic" in2="BackgroundImageFix" result="shape"/><feGaussianBlur result="effect1_foregroundBlur_28327_4211" stdDeviation="0.125"/></filter><filter id="ae" x="11.586" y="14.906" width="1.3532" height="2.8438" color-interpolation-filters="sRGB" filterUnits="userSpaceOnUse"><feFlood flood-opacity="0" result="BackgroundImageFix"/><feBlend in="SourceGraphic" in2="BackgroundImageFix" result="shape"/><feGaussianBlur result="effect1_foregroundBlur_28327_4211" stdDeviation="0.25"/></filter><filter id="ad" x="19.555" y="14.906" width="1.3532" height="2.8438" color-interpolation-filters="sRGB" filterUnits="userSpaceOnUse"><feFlood flood-opacity="0" result="BackgroundImageFix"/><feBlend in="SourceGraphic" in2="BackgroundImageFix" result="shape"/><feGaussianBlur result="effect1_foregroundBlur_28327_4211" stdDeviation="0.25"/></filter><linearGradient id="ac" x1="4.61" x2="9.9225" y1="11.429" y2="4.5544" gradientUnits="userSpaceOnUse"><stop stop-color="#6363A2" offset="0"/><stop stop-color="#5A4A8A" offset="1"/></linearGradient><linearGradient id="r" x1="8.9225" x2="8.0787" y1="9.5154" y2="4.0857" gradientUnits="userSpaceOnUse"><stop stop-color="#4D4175" stop-opacity="0" offset=".54916"/><stop stop-color="#4D4175" offset="1"/></linearGradient><linearGradient id="h" x1="7.0787" x2="6.1569" y1="9.6638" y2="8.8982" gradientUnits="userSpaceOnUse"><stop stop-color="#4E4B84" offset="0"/><stop stop-color="#4E4B84" stop-opacity="0" offset="1"/></linearGradient><radialGradient id="g" cx="0" cy="0" r="1" gradientTransform="translate(12.079 5.9294) rotate(146.98) scale(10.323 4.7199)" gradientUnits="userSpaceOnUse"><stop stop-color="#4E4B84" stop-opacity="0" offset=".86933"/><stop stop-color="#4E4B84" offset="1"/></radialGradient><radialGradient id="f" cx="0" cy="0" r="1" gradientTransform="translate(12.322 5.9607) rotate(153.91) scale(3.8369 5.38)" gradientUnits="userSpaceOnUse"><stop stop-color="#5A4482" offset="0"/><stop stop-color="#5A4482" stop-opacity="0" offset="1"/></radialGradient><linearGradient id="e" x1="21.329" x2="29.164" y1="7.9607" y2="8.3357" gradientUnits="userSpaceOnUse"><stop stop-color="#6363A2" offset="0"/><stop stop-color="#5A4A8A" offset="1"/></linearGradient><linearGradient id="d" x1="28.751" x2="21.938" y1="11.601" y2="5.492" gradientUnits="userSpaceOnUse"><stop stop-color="#9A8BBD" stop-opacity="0" offset="0"/><stop stop-color="#A997CF" offset=".37823"/><stop stop-color="#9A8BBD" stop-opacity="0" offset="1"/></linearGradient><linearGradient id="c" x1="11.908" x2="5.0953" y1="11.601" y2="5.492" gradientUnits="userSpaceOnUse"><stop stop-color="#9A8BBD" stop-opacity="0" offset="0"/><stop stop-color="#A997CF" offset=".37823"/><stop stop-color="#9A8BBD" stop-opacity="0" offset="1"/></linearGradient><radialGradient id="b" cx="0" cy="0" r="1" gradientTransform="translate(16.235 10.255) rotate(90) scale(18.393)" gradientUnits="userSpaceOnUse"><stop stop-color="#EBE3F5" offset="0"/><stop stop-color="#DAC8ED" offset="1"/></radialGradient><radialGradient id="a" cx="0" cy="0" r="1" gradientTransform="translate(16.235 28.836) rotate(-90) scale(11.025 31.318)" gradientUnits="userSpaceOnUse"><stop stop-color="#C7B0DE" offset="0"/><stop stop-color="#C7B0DE" stop-opacity="0" offset="1"/></radialGradient><radialGradient id="ab" cx="0" cy="0" r="1" gradientTransform="translate(26.422 11.586) rotate(138.55) scale(6.4205 16.44)" gradientUnits="userSpaceOnUse"><stop stop-color="#F4F2F8" offset="0"/><stop stop-color="#F4F2F8" stop-opacity="0" offset="1"/></radialGradient><linearGradient id="aa" x1="31.11" x2="26.548" y1="25.211" y2="23.773" gradientUnits="userSpaceOnUse"><stop stop-color="#E1D3F1" offset="0"/><stop stop-color="#E1D3F1" stop-opacity="0" offset="1"/></linearGradient><radialGradient id="z" cx="0" cy="0" r="1" gradientTransform="translate(8.2975 14.711) rotate(23.798) scale(24.318 18.516)" gradientUnits="userSpaceOnUse"><stop stop-color="#BAB0C7" stop-opacity="0" offset=".89699"/><stop stop-color="#BAB0C7" offset=".99159"/></radialGradient><linearGradient id="y" x1="10.499" x2="10.499" y1="13.105" y2="19.554" gradientUnits="userSpaceOnUse"><stop stop-color="#706AA5" offset="0"/><stop stop-color="#604685" offset="1"/></linearGradient><radialGradient id="x" cx="0" cy="0" r="1" gradientTransform="translate(14.985 16.968) rotate(180) scale(3.8125 5.3968)" gradientUnits="userSpaceOnUse"><stop stop-color="#5F4E87" offset=".013985"/><stop stop-color="#5F4E87" stop-opacity="0" offset="1"/></radialGradient><linearGradient id="w" x1="21.491" x2="21.491" y1="12.987" y2="22.023" gradientUnits="userSpaceOnUse"><stop stop-color="#706AA5" offset="0"/><stop stop-color="#604685" offset="1"/></linearGradient><radialGradient id="v" cx="0" cy="0" r="1" gradientTransform="translate(17.485 19.148) rotate(-33.199) scale(3.9826 5.6376)" gradientUnits="userSpaceOnUse"><stop stop-color="#5F4E87" offset=".013985"/><stop stop-color="#5F4E87" stop-opacity="0" offset="1"/></radialGradient><linearGradient id="u" x1="15.864" x2="16.283" y1="18.117" y2="21.582" gradientUnits="userSpaceOnUse"><stop stop-color="#5F5254" offset="0"/><stop stop-color="#2E2127" offset="1"/></linearGradient><linearGradient id="t" x1="15.764" x2="15.764" y1="19.631" y2="18.427" gradientUnits="userSpaceOnUse"><stop stop-color="#34222C" stop-opacity="0" offset=".14655"/><stop stop-color="#34222C" offset=".87273"/></linearGradient><linearGradient id="s" x1="15.16" x2="15.16" y1="21.65" y2="19.83" gradientUnits="userSpaceOnUse"><stop stop-color="#552D52" offset="0"/><stop stop-color="#552D52" stop-opacity="0" offset=".71374"/></linearGradient><radialGradient id="q" cx="0" cy="0" r="1" gradientTransform="translate(13.86 20.755) rotate(-18.752) scale(4.4826 2.0128)" gradientUnits="userSpaceOnUse"><stop stop-color="#5C5458" stop-opacity="0" offset=".8276"/><stop stop-color="#5C5458" offset=".93501"/></radialGradient><radialGradient id="p" cx="0" cy="0" r="1" gradientTransform="translate(17.699 19.304) rotate(148.13) scale(1.4791 .53208)" gradientUnits="userSpaceOnUse"><stop stop-color="#6A5C5E" offset="0"/><stop stop-color="#6A5C5E" stop-opacity="0" offset=".80779"/></radialGradient><linearGradient id="o" x1="12.657" x2="11.813" y1="16.586" y2="16.586" gradientUnits="userSpaceOnUse"><stop stop-color="#594C4F" offset="0"/><stop stop-color="#413039" offset="1"/></linearGradient><linearGradient id="n" x1="12.966" x2="12.966" y1="18.273" y2="17.211" gradientUnits="userSpaceOnUse"><stop stop-color="#492847" offset="0"/><stop stop-color="#552D52" stop-opacity="0" offset="1"/></linearGradient><linearGradient id="m" x1="-.090851" x2=".89352" y1="1.3022" y2="1.3022" gradientUnits="userSpaceOnUse"><stop stop-color="#594C4F" offset="0"/><stop stop-color="#413039" offset="1"/></linearGradient><linearGradient id="l" x1="1.6982" x2="1.6982" y1="2.9766" y2="2.0625" gradientUnits="userSpaceOnUse"><stop stop-color="#492847" offset="0"/><stop stop-color="#552D52" stop-opacity="0" offset="1"/></linearGradient><radialGradient id="k" cx="0" cy="0" r="1" gradientTransform="translate(14.244 22.976) rotate(90) scale(1.7188 3.7434)" gradientUnits="userSpaceOnUse"><stop stop-color="#423539" offset=".0055866"/><stop stop-color="#472849" offset="1"/></radialGradient><radialGradient id="j" cx="0" cy="0" r="1" gradientTransform="translate(17.734 23.55) rotate(90) scale(1.6292 2.8274)" gradientUnits="userSpaceOnUse"><stop stop-color="#423539" offset=".0055866"/><stop stop-color="#472849" offset="1"/></radialGradient><linearGradient id="i" x1="12.322" x2="19.838" y1="23.103" y2="23.103" gradientUnits="userSpaceOnUse"><stop stop-color="#5F5356" offset="0"/><stop stop-color="#5F5356" stop-opacity="0" offset=".28898"/><stop stop-color="#5F5356" stop-opacity="0" offset=".44491"/><stop stop-color="#5F5356" offset=".5343"/><stop stop-color="#5F5356" stop-opacity="0" offset="1"/></linearGradient></defs></svg>
