<svg fill="none" viewBox="0 0 32 32" xmlns="http://www.w3.org/2000/svg"><circle cx="5.3789" cy="22.251" r="1.5508" fill="url(#ao)"/><circle cx="26.633" cy="22.263" r="1.5508" fill="url(#ad)"/><circle cx="26.633" cy="22.263" r="1.5508" fill="url(#s)"/><path d="m9.0078 12.083c-0.6 0.9-1.0365 2.125-1.1875 2.5937l2.3438 1.6875 1.789-2.2656c-0.2109-0.3255-0.7125-1.0508-1-1.4258s-0.7213-0.8333-0.8984-1.0156l-1.0469 0.4258z" fill="url(#h)"/><path d="m9.0078 12.083c-0.6 0.9-1.0365 2.125-1.1875 2.5937l2.3438 1.6875 1.789-2.2656c-0.2109-0.3255-0.7125-1.0508-1-1.4258s-0.7213-0.8333-0.8984-1.0156l-1.0469 0.4258z" fill="url(#f)"/><path d="m22.992 12.083c0.6 0.9 1.0364 2.125 1.1875 2.5937l-2.3438 1.6875-1.789-2.2656c0.2109-0.3255 0.7125-1.0508 1-1.4258s0.7213-0.8333 0.8984-1.0156l1.0469 0.4258z" fill="url(#e)"/><path d="m22.992 12.083c0.6 0.9 1.0364 2.125 1.1875 2.5937l-2.3438 1.6875-1.789-2.2656c0.2109-0.3255 0.7125-1.0508 1-1.4258s0.7213-0.8333 0.8984-1.0156l1.0469 0.4258z" fill="url(#d)"/><path d="m22.992 12.083c0.6 0.9 1.0364 2.125 1.1875 2.5937l-2.3438 1.6875-1.789-2.2656c0.2109-0.3255 0.7125-1.0508 1-1.4258s0.7213-0.8333 0.8984-1.0156l1.0469 0.4258z" fill="url(#c)"/><g filter="url(#au)"><path d="m3.125 12.153 3.1062 15.159c0.15253 0.7444 0.80758 1.2788 1.5674 1.2788h16.403c0.7599 0 1.4149-0.5344 1.5675-1.2788l3.1062-15.159-0.9916-0.4844c-1.4848 1.0781-4.592 3.2891-5.3947 3.7735-0.6401 0.3862-1.228-0.2433-1.3497-0.4219-1.1175-1.6406-2.8218-4.0285-3.4593-4.8672-0.6532-0.85938-1.3911-1.2839-1.6797-1.3203-0.2886 0.03645-1.0265 0.46093-1.6797 1.3203-0.6375 0.8387-2.3418 3.2266-3.4593 4.8672-0.1217 0.1786-0.7096 0.8081-1.3496 0.4219-0.80272-0.4844-3.91-2.6954-5.3948-3.7735l-0.9916 0.4844z" fill="url(#b)"/><path d="m3.125 12.153 3.1062 15.159c0.15253 0.7444 0.80758 1.2788 1.5674 1.2788h16.403c0.7599 0 1.4149-0.5344 1.5675-1.2788l3.1062-15.159-0.9916-0.4844c-1.4848 1.0781-4.592 3.2891-5.3947 3.7735-0.6401 0.3862-1.228-0.2433-1.3497-0.4219-1.1175-1.6406-2.8218-4.0285-3.4593-4.8672-0.6532-0.85938-1.3911-1.2839-1.6797-1.3203-0.2886 0.03645-1.0265 0.46093-1.6797 1.3203-0.6375 0.8387-2.3418 3.2266-3.4593 4.8672-0.1217 0.1786-0.7096 0.8081-1.3496 0.4219-0.80272-0.4844-3.91-2.6954-5.3948-3.7735l-0.9916 0.4844z" fill="url(#a)"/></g><path d="m3.125 12.153 3.1062 15.159c0.15253 0.7444 0.80758 1.2788 1.5674 1.2788h16.403c0.7599 0 1.4149-0.5344 1.5675-1.2788l3.1062-15.159-0.9916-0.4844c-1.4848 1.0781-4.592 3.2891-5.3947 3.7735-0.6401 0.3862-1.228-0.2433-1.3497-0.4219-1.1175-1.6406-2.8218-4.0285-3.4593-4.8672-0.6532-0.85938-1.3911-1.2839-1.6797-1.3203-0.2886 0.03645-1.0265 0.46093-1.6797 1.3203-0.6375 0.8387-2.3418 3.2266-3.4593 4.8672-0.1217 0.1786-0.7096 0.8081-1.3496 0.4219-0.80272-0.4844-3.91-2.6954-5.3948-3.7735l-0.9916 0.4844z" fill="url(#an)"/><path d="m3.125 12.153 3.1062 15.159c0.15253 0.7444 0.80758 1.2788 1.5674 1.2788h16.403c0.7599 0 1.4149-0.5344 1.5675-1.2788l3.1062-15.159-0.9916-0.4844c-1.4848 1.0781-4.592 3.2891-5.3947 3.7735-0.6401 0.3862-1.228-0.2433-1.3497-0.4219-1.1175-1.6406-2.8218-4.0285-3.4593-4.8672-0.6532-0.85938-1.3911-1.2839-1.6797-1.3203-0.2886 0.03645-1.0265 0.46093-1.6797 1.3203-0.6375 0.8387-2.3418 3.2266-3.4593 4.8672-0.1217 0.1786-0.7096 0.8081-1.3496 0.4219-0.80272-0.4844-3.91-2.6954-5.3948-3.7735l-0.9916 0.4844z" fill="url(#am)"/><path d="m3.125 12.153 3.1062 15.159c0.15253 0.7444 0.80758 1.2788 1.5674 1.2788h16.403c0.7599 0 1.4149-0.5344 1.5675-1.2788l3.1062-15.159-0.9916-0.4844c-1.4848 1.0781-4.592 3.2891-5.3947 3.7735-0.6401 0.3862-1.228-0.2433-1.3497-0.4219-1.1175-1.6406-2.8218-4.0285-3.4593-4.8672-0.6532-0.85938-1.3911-1.2839-1.6797-1.3203-0.2886 0.03645-1.0265 0.46093-1.6797 1.3203-0.6375 0.8387-2.3418 3.2266-3.4593 4.8672-0.1217 0.1786-0.7096 0.8081-1.3496 0.4219-0.80272-0.4844-3.91-2.6954-5.3948-3.7735l-0.9916 0.4844z" fill="url(#al)"/><path d="m3.125 12.153 3.1062 15.159c0.15253 0.7444 0.80758 1.2788 1.5674 1.2788h16.403c0.7599 0 1.4149-0.5344 1.5675-1.2788l3.1062-15.159-0.9916-0.4844c-1.4848 1.0781-4.592 3.2891-5.3947 3.7735-0.6401 0.3862-1.228-0.2433-1.3497-0.4219-1.1175-1.6406-2.8218-4.0285-3.4593-4.8672-0.6532-0.85938-1.3911-1.2839-1.6797-1.3203-0.2886 0.03645-1.0265 0.46093-1.6797 1.3203-0.6375 0.8387-2.3418 3.2266-3.4593 4.8672-0.1217 0.1786-0.7096 0.8081-1.3496 0.4219-0.80272-0.4844-3.91-2.6954-5.3948-3.7735l-0.9916 0.4844z" fill="url(#ak)"/><path d="m3.125 12.153 3.1062 15.159c0.15253 0.7444 0.80758 1.2788 1.5674 1.2788h16.403c0.7599 0 1.4149-0.5344 1.5675-1.2788l3.1062-15.159-0.9916-0.4844c-1.4848 1.0781-4.592 3.2891-5.3947 3.7735-0.6401 0.3862-1.228-0.2433-1.3497-0.4219-1.1175-1.6406-2.8218-4.0285-3.4593-4.8672-0.6532-0.85938-1.3911-1.2839-1.6797-1.3203-0.2886 0.03645-1.0265 0.46093-1.6797 1.3203-0.6375 0.8387-2.3418 3.2266-3.4593 4.8672-0.1217 0.1786-0.7096 0.8081-1.3496 0.4219-0.80272-0.4844-3.91-2.6954-5.3948-3.7735l-0.9916 0.4844z" fill="url(#aj)"/><path d="m3.125 12.153 3.1062 15.159c0.15253 0.7444 0.80758 1.2788 1.5674 1.2788h16.403c0.7599 0 1.4149-0.5344 1.5675-1.2788l3.1062-15.159-0.9916-0.4844c-1.4848 1.0781-4.592 3.2891-5.3947 3.7735-0.6401 0.3862-1.228-0.2433-1.3497-0.4219-1.1175-1.6406-2.8218-4.0285-3.4593-4.8672-0.6532-0.85938-1.3911-1.2839-1.6797-1.3203-0.2886 0.03645-1.0265 0.46093-1.6797 1.3203-0.6375 0.8387-2.3418 3.2266-3.4593 4.8672-0.1217 0.1786-0.7096 0.8081-1.3496 0.4219-0.80272-0.4844-3.91-2.6954-5.3948-3.7735l-0.9916 0.4844z" fill="url(#ai)"/><g filter="url(#at)"><path d="m23.779 22.743c-0.2651 0.8144-1.1173 1.2226-1.9317 0.9575-0.6132-0.25-0.8784-0.9512-0.6132-1.7656 0.2651-0.8144 1.1-1.2817 1.6054-1.1172 0.8144 0.2651 1.2047 1.1109 0.9395 1.9253z" fill="url(#ah)"/><path d="m23.779 22.743c-0.2651 0.8144-1.1173 1.2226-1.9317 0.9575-0.6132-0.25-0.8784-0.9512-0.6132-1.7656 0.2651-0.8144 1.1-1.2817 1.6054-1.1172 0.8144 0.2651 1.2047 1.1109 0.9395 1.9253z" fill="url(#ag)"/></g><g filter="url(#as)"><path d="m8.2971 22.743c0.26512 0.8144 1.1173 1.2226 1.9317 0.9575 0.6133-0.25 0.8784-0.9512 0.6133-1.7656-0.2652-0.8144-1.1001-1.2817-1.6055-1.1172-0.8144 0.2651-1.2046 1.1109-0.93951 1.9253z" fill="url(#af)"/><path d="m8.2971 22.743c0.26512 0.8144 1.1173 1.2226 1.9317 0.9575 0.6133-0.25 0.8784-0.9512 0.6133-1.7656-0.2652-0.8144-1.1001-1.2817-1.6055-1.1172-0.8144 0.2651-1.2046 1.1109-0.93951 1.9253z" fill="url(#ae)"/></g><path d="m4.9219 11.925c0 0.768-0.6226 1.3906-1.3906 1.3906s-1.3906-0.6226-1.3906-1.3906 0.62261-1.3906 1.3906-1.3906 1.3906 0.6226 1.3906 1.3906z" fill="url(#ac)"/><path d="m4.9219 11.925c0 0.768-0.6226 1.3906-1.3906 1.3906s-1.3906-0.6226-1.3906-1.3906 0.62261-1.3906 1.3906-1.3906 1.3906 0.6226 1.3906 1.3906z" fill="url(#ab)"/><path d="m4.9219 11.925c0 0.768-0.6226 1.3906-1.3906 1.3906s-1.3906-0.6226-1.3906-1.3906 0.62261-1.3906 1.3906-1.3906 1.3906 0.6226 1.3906 1.3906z" fill="url(#aa)"/><path d="m4.9219 11.925c0 0.768-0.6226 1.3906-1.3906 1.3906s-1.3906-0.6226-1.3906-1.3906 0.62261-1.3906 1.3906-1.3906 1.3906 0.6226 1.3906 1.3906z" fill="url(#z)"/><path d="m10.281 12.18c0.4117-0.2414 0.6881-0.6886 0.6881-1.2003 0-0.7681-0.6227-1.3906-1.3907-1.3906-0.76802 0-1.3906 0.62255-1.3906 1.3906 0 0.5321 0.29887 0.9944 0.7379 1.2282 0.08708-0.0346 0.24598-0.0688 0.41835-0.0192 0.2143 0.0617 0.56626 0.1395 0.93695-0.0087z" fill="url(#y)"/><path d="m10.281 12.18c0.4117-0.2414 0.6881-0.6886 0.6881-1.2003 0-0.7681-0.6227-1.3906-1.3907-1.3906-0.76802 0-1.3906 0.62255-1.3906 1.3906 0 0.5321 0.29887 0.9944 0.7379 1.2282 0.08708-0.0346 0.24598-0.0688 0.41835-0.0192 0.2143 0.0617 0.56626 0.1395 0.93695-0.0087z" fill="url(#x)"/><path d="m10.281 12.18c0.4117-0.2414 0.6881-0.6886 0.6881-1.2003 0-0.7681-0.6227-1.3906-1.3907-1.3906-0.76802 0-1.3906 0.62255-1.3906 1.3906 0 0.5321 0.29887 0.9944 0.7379 1.2282 0.08708-0.0346 0.24598-0.0688 0.41835-0.0192 0.2143 0.0617 0.56626 0.1395 0.93695-0.0087z" fill="url(#w)"/><path d="m10.281 12.18c0.4117-0.2414 0.6881-0.6886 0.6881-1.2003 0-0.7681-0.6227-1.3906-1.3907-1.3906-0.76802 0-1.3906 0.62255-1.3906 1.3906 0 0.5321 0.29887 0.9944 0.7379 1.2282 0.08708-0.0346 0.24598-0.0688 0.41835-0.0192 0.2143 0.0617 0.56626 0.1395 0.93695-0.0087z" fill="url(#v)"/><g filter="url(#ar)"><path d="m21.719 12.18c-0.4117-0.2414-0.6881-0.6886-0.6881-1.2003 0-0.7681 0.6227-1.3906 1.3907-1.3906s1.3906 0.62255 1.3906 1.3906c0 0.5321-0.2989 0.9944-0.7379 1.2282-0.0871-0.0346-0.246-0.0688-0.4183-0.0192-0.2144 0.0617-0.5663 0.1395-0.937-0.0087z" fill="url(#u)"/><path d="m21.719 12.18c-0.4117-0.2414-0.6881-0.6886-0.6881-1.2003 0-0.7681 0.6227-1.3906 1.3907-1.3906s1.3906 0.62255 1.3906 1.3906c0 0.5321-0.2989 0.9944-0.7379 1.2282-0.0871-0.0346-0.246-0.0688-0.4183-0.0192-0.2144 0.0617-0.5663 0.1395-0.937-0.0087z" fill="url(#t)"/></g><g filter="url(#aq)"><circle cx="16.038" cy="22.326" r="2.4679" fill="url(#r)"/></g><g filter="url(#ap)" stroke-width=".15"><path d="m16.211 9.3551c0.1719-0.02084 0.6125 0.06875 1 0.59375 0.3875 0.52501 2.7448 3.8854 3.875 5.5 0.2188 0.3385 0.8657 0.8719 1.7032 0.2969s3.5312-2.5249 4.5468-3.202" stroke="url(#q)"/><path d="m16.211 9.3551c0.1719-0.02084 0.6125 0.06875 1 0.59375 0.3875 0.52501 2.7448 3.8854 3.875 5.5 0.2188 0.3385 0.8657 0.8719 1.7032 0.2969s3.5312-2.5249 4.5468-3.202" stroke="url(#p)"/></g><circle cx="15.996" cy="7.6454" r="1.8008" fill="url(#o)"/><circle cx="15.996" cy="7.6454" r="1.8008" fill="url(#n)"/><circle cx="15.996" cy="7.6454" r="1.8008" fill="url(#m)"/><circle cx="15.996" cy="7.6454" r="1.8008" fill="url(#l)"/><path d="m29.922 11.925c0 0.768-0.6226 1.3906-1.3907 1.3906-0.768 0-1.3906-0.6226-1.3906-1.3906s0.6226-1.3906 1.3906-1.3906c0.7681 0 1.3907 0.6226 1.3907 1.3906z" fill="url(#k)"/><path d="m29.922 11.925c0 0.768-0.6226 1.3906-1.3907 1.3906-0.768 0-1.3906-0.6226-1.3906-1.3906s0.6226-1.3906 1.3906-1.3906c0.7681 0 1.3907 0.6226 1.3907 1.3906z" fill="url(#j)"/><path d="m29.922 11.925c0 0.768-0.6226 1.3906-1.3907 1.3906-0.768 0-1.3906-0.6226-1.3906-1.3906s0.6226-1.3906 1.3906-1.3906c0.7681 0 1.3907 0.6226 1.3907 1.3906z" fill="url(#i)"/><path d="m29.922 11.925c0 0.768-0.6226 1.3906-1.3907 1.3906-0.768 0-1.3906-0.6226-1.3906-1.3906s0.6226-1.3906 1.3906-1.3906c0.7681 0 1.3907 0.6226 1.3907 1.3906z" fill="url(#g)"/><defs><filter id="au" x="2.725" y="8.7329" width="26.55" height="19.858" color-interpolation-filters="sRGB" filterUnits="userSpaceOnUse"><feFlood flood-opacity="0" result="BackgroundImageFix"/><feBlend in="SourceGraphic" in2="BackgroundImageFix" result="shape"/><feColorMatrix in="SourceAlpha" result="hardAlpha" values="0 0 0 0 0 0 0 0 0 0 0 0 0 0 0 0 0 0 127 0"/><feOffset dx="0.4" dy="-0.1"/><feGaussianBlur stdDeviation="0.25"/><feComposite in2="hardAlpha" k2="-1" k3="1" operator="arithmetic"/><feColorMatrix values="0 0 0 0 0.803922 0 0 0 0 0.580392 0 0 0 0 0.262745 0 0 0 1 0"/><feBlend in2="shape" result="effect1_innerShadow_18_17387"/><feColorMatrix in="SourceAlpha" result="hardAlpha" values="0 0 0 0 0 0 0 0 0 0 0 0 0 0 0 0 0 0 127 0"/><feOffset dx="-0.4" dy="-0.1"/><feGaussianBlur stdDeviation="0.25"/><feComposite in2="hardAlpha" k2="-1" k3="1" operator="arithmetic"/><feColorMatrix values="0 0 0 0 0.894118 0 0 0 0 0.686275 0 0 0 0 0.301961 0 0 0 1 0"/><feBlend in2="effect1_innerShadow_18_17387" result="effect2_innerShadow_18_17387"/></filter><filter id="at" x="20.132" y="20.284" width="4.23" height="4.4961" color-interpolation-filters="sRGB" filterUnits="userSpaceOnUse"><feFlood flood-opacity="0" result="BackgroundImageFix"/><feColorMatrix in="SourceAlpha" result="hardAlpha" values="0 0 0 0 0 0 0 0 0 0 0 0 0 0 0 0 0 0 127 0"/><feOffset dx="-0.25" dy="0.25"/><feGaussianBlur stdDeviation="0.375"/><feComposite in2="hardAlpha" operator="out"/><feColorMatrix values="0 0 0 0 1 0 0 0 0 0.54902 0 0 0 0 0.305882 0 0 0 1 0"/><feBlend in2="BackgroundImageFix" result="effect1_dropShadow_18_17387"/><feBlend in="SourceGraphic" in2="effect1_dropShadow_18_17387" result="shape"/><feColorMatrix in="SourceAlpha" result="hardAlpha" values="0 0 0 0 0 0 0 0 0 0 0 0 0 0 0 0 0 0 127 0"/><feOffset dx="0.15" dy="-0.15"/><feGaussianBlur stdDeviation="0.25"/><feComposite in2="hardAlpha" k2="-1" k3="1" operator="arithmetic"/><feColorMatrix values="0 0 0 0 0.984314 0 0 0 0 0.219608 0 0 0 0 0.254902 0 0 0 1 0"/><feBlend in2="shape" result="effect2_innerShadow_18_17387"/></filter><filter id="as" x="7.2146" y="20.284" width="4.23" height="4.4961" color-interpolation-filters="sRGB" filterUnits="userSpaceOnUse"><feFlood flood-opacity="0" result="BackgroundImageFix"/><feColorMatrix in="SourceAlpha" result="hardAlpha" values="0 0 0 0 0 0 0 0 0 0 0 0 0 0 0 0 0 0 127 0"/><feOffset dx="-0.25" dy="0.25"/><feGaussianBlur stdDeviation="0.375"/><feComposite in2="hardAlpha" operator="out"/><feColorMatrix values="0 0 0 0 0.905882 0 0 0 0 0.439216 0 0 0 0 0.278431 0 0 0 1 0"/><feBlend in2="BackgroundImageFix" result="effect1_dropShadow_18_17387"/><feBlend in="SourceGraphic" in2="effect1_dropShadow_18_17387" result="shape"/><feColorMatrix in="SourceAlpha" result="hardAlpha" values="0 0 0 0 0 0 0 0 0 0 0 0 0 0 0 0 0 0 127 0"/><feOffset dx="0.3" dy="0.3"/><feGaussianBlur stdDeviation="0.3"/><feComposite in2="hardAlpha" k2="-1" k3="1" operator="arithmetic"/><feColorMatrix values="0 0 0 0 0.796078 0 0 0 0 0.141176 0 0 0 0 0.223529 0 0 0 1 0"/><feBlend in2="shape" result="effect2_innerShadow_18_17387"/></filter><filter id="ar" x="21.031" y="9.5888" width="2.7812" height="2.676" color-interpolation-filters="sRGB" filterUnits="userSpaceOnUse"><feFlood flood-opacity="0" result="BackgroundImageFix"/><feBlend in="SourceGraphic" in2="BackgroundImageFix" result="shape"/><feColorMatrix in="SourceAlpha" result="hardAlpha" values="0 0 0 0 0 0 0 0 0 0 0 0 0 0 0 0 0 0 127 0"/><feOffset/><feGaussianBlur stdDeviation="0.125"/><feComposite in2="hardAlpha" k2="-1" k3="1" operator="arithmetic"/><feColorMatrix values="0 0 0 0 0.756863 0 0 0 0 0.619608 0 0 0 0 0.321569 0 0 0 1 0"/><feBlend in2="shape" result="effect1_innerShadow_18_17387"/></filter><filter id="aq" x="11.82" y="19.108" width="7.4358" height="7.4358" color-interpolation-filters="sRGB" filterUnits="userSpaceOnUse"><feFlood flood-opacity="0" result="BackgroundImageFix"/><feColorMatrix in="SourceAlpha" result="hardAlpha" values="0 0 0 0 0 0 0 0 0 0 0 0 0 0 0 0 0 0 127 0"/><feOffset dx="-0.5" dy="0.5"/><feGaussianBlur stdDeviation="0.625"/><feComposite in2="hardAlpha" operator="out"/><feColorMatrix values="0 0 0 0 0.937255 0 0 0 0 0.443137 0 0 0 0 0.376471 0 0 0 1 0"/><feBlend in2="BackgroundImageFix" result="effect1_dropShadow_18_17387"/><feBlend in="SourceGraphic" in2="effect1_dropShadow_18_17387" result="shape"/><feColorMatrix in="SourceAlpha" result="hardAlpha" values="0 0 0 0 0 0 0 0 0 0 0 0 0 0 0 0 0 0 127 0"/><feOffset dx="0.75" dy="-0.75"/><feGaussianBlur stdDeviation="0.75"/><feComposite in2="hardAlpha" k2="-1" k3="1" operator="arithmetic"/><feColorMatrix values="0 0 0 0 0.313726 0 0 0 0 0.384314 0 0 0 0 1 0 0 0 1 0"/><feBlend in2="shape" result="effect2_innerShadow_18_17387"/></filter><filter id="ap" x="16.052" y="9.1274" width="11.476" height="7.0976" color-interpolation-filters="sRGB" filterUnits="userSpaceOnUse"><feFlood flood-opacity="0" result="BackgroundImageFix"/><feBlend in="SourceGraphic" in2="BackgroundImageFix" result="shape"/><feGaussianBlur result="effect1_foregroundBlur_18_17387" stdDeviation="0.075"/></filter><radialGradient id="ao" cx="0" cy="0" r="1" gradientTransform="translate(5.3789 23.247) rotate(256.46) scale(1.7518 2.1567)" gradientUnits="userSpaceOnUse"><stop stop-color="#395DE0" offset="0"/><stop stop-color="#2C68A3" offset="1"/></radialGradient><radialGradient id="ad" cx="0" cy="0" r="1" gradientTransform="translate(27.594 20.981) rotate(108.74) scale(2.9906)" gradientUnits="userSpaceOnUse"><stop stop-color="#3DB3F3" offset=".24862"/><stop stop-color="#5B73F4" offset="1"/></radialGradient><radialGradient id="s" cx="0" cy="0" r="1" gradientTransform="translate(28.094 21.653) rotate(161.16) scale(1.4033 .88972)" gradientUnits="userSpaceOnUse"><stop stop-color="#5FBEFF" offset=".258"/><stop stop-color="#5FBEFF" stop-opacity="0" offset="1"/></radialGradient><radialGradient id="h" cx="0" cy="0" r="1" gradientTransform="translate(8.6562 13.559) rotate(15.945) scale(3.185 7.9497)" gradientUnits="userSpaceOnUse"><stop stop-color="#FBC96E" offset="0"/><stop stop-color="#FAC567" offset="1"/></radialGradient><radialGradient id="f" cx="0" cy="0" r="1" gradientTransform="translate(10.531 14.247) rotate(203.25) scale(2.4148 7.2627)" gradientUnits="userSpaceOnUse"><stop stop-color="#D89F3A" stop-opacity="0" offset=".76538"/><stop stop-color="#DAA139" offset=".91124"/></radialGradient><radialGradient id="e" cx="0" cy="0" r="1" gradientTransform="translate(23.875 15.497) rotate(234.54) scale(2.532 2.5968)" gradientUnits="userSpaceOnUse"><stop stop-color="#BF812A" offset=".25423"/><stop stop-color="#CE9333" offset="1"/></radialGradient><radialGradient id="d" cx="0" cy="0" r="1" gradientTransform="translate(21.922 14.263) rotate(-23.091) scale(2.1912 5.7084)" gradientUnits="userSpaceOnUse"><stop stop-color="#E9BB61" stop-opacity="0" offset=".73436"/><stop stop-color="#E9BB61" offset=".92912"/></radialGradient><radialGradient id="c" cx="0" cy="0" r="1" gradientTransform="translate(23.219 14.888) rotate(217.08) scale(3.4469 5.8151)" gradientUnits="userSpaceOnUse"><stop stop-color="#C18739" stop-opacity="0" offset=".77271"/><stop stop-color="#C18739" offset=".94848"/></radialGradient><linearGradient id="b" x1="23.206" x2="5.5403" y1="20.58" y2="24.7" gradientUnits="userSpaceOnUse"><stop stop-color="#FFBC5D" offset="0"/><stop stop-color="#FCAD6A" offset=".3035"/><stop stop-color="#CB7547" offset="1"/></linearGradient><radialGradient id="a" cx="0" cy="0" r="1" gradientTransform="translate(12.133 31.859) rotate(-69.421) scale(11.003 21.415)" gradientUnits="userSpaceOnUse"><stop stop-color="#F67B4E" offset="0"/><stop stop-color="#F67B4E" stop-opacity="0" offset="1"/></radialGradient><linearGradient id="an" x1="5.2812" x2="8" y1="24.278" y2="23.716" gradientUnits="userSpaceOnUse"><stop stop-color="#C2794C" offset="0"/><stop stop-color="#E07648" stop-opacity="0" offset="1"/></linearGradient><linearGradient id="am" x1="26.625" x2="22" y1="26.028" y2="24.966" gradientUnits="userSpaceOnUse"><stop stop-color="#FFBB5B" offset=".12853"/><stop stop-color="#FFBB5B" stop-opacity="0" offset="1"/></linearGradient><linearGradient id="al" x1="17.438" x2="17.438" y1="28.872" y2="27.684" gradientUnits="userSpaceOnUse"><stop stop-color="#FF6F8C" offset=".18421"/><stop stop-color="#FF7A6A" stop-opacity="0" offset="1"/></linearGradient><radialGradient id="ak" cx="0" cy="0" r="1" gradientTransform="translate(28.062 12.403) rotate(113.38) scale(2.5194 2.0884)" gradientUnits="userSpaceOnUse"><stop stop-color="#DD9049" offset=".37723"/><stop stop-color="#F8BF60" stop-opacity="0" offset="1"/></radialGradient><radialGradient id="aj" cx="0" cy="0" r="1" gradientTransform="translate(4.0469 12.544) rotate(64.217) scale(2.0476 1.12)" gradientUnits="userSpaceOnUse"><stop stop-color="#D7783D" offset=".1956"/><stop stop-color="#D7783D" stop-opacity="0" offset="1"/></radialGradient><radialGradient id="ai" cx="0" cy="0" r="1" gradientTransform="translate(16 8.8329) rotate(76.057) scale(1.1672 2.556)" gradientUnits="userSpaceOnUse"><stop stop-color="#D48C33" offset=".38246"/><stop stop-color="#FEB16A" stop-opacity="0" offset="1"/></radialGradient><radialGradient id="ah" cx="0" cy="0" r="1" gradientTransform="translate(22.031 23.06) rotate(-51.582) scale(2.3133 1.4927)" gradientUnits="userSpaceOnUse"><stop stop-color="#FF196C" offset="0"/><stop stop-color="#FF1F4A" offset="1"/></radialGradient><radialGradient id="ag" cx="0" cy="0" r="1" gradientTransform="translate(23.625 21.841) rotate(149.74) scale(1.7366 1.1)" gradientUnits="userSpaceOnUse"><stop stop-color="#FF5873" offset=".22279"/><stop stop-color="#FF5873" stop-opacity="0" offset="1"/></radialGradient><radialGradient id="af" cx="0" cy="0" r="1" gradientTransform="translate(9.8126 23.122) rotate(255.72) scale(1.7736 1.6981)" gradientUnits="userSpaceOnUse"><stop stop-color="#F6196C" offset="0"/><stop stop-color="#E42047" offset="1"/></radialGradient><radialGradient id="ae" cx="0" cy="0" r="1" gradientTransform="translate(10.547 22.044) rotate(155.73) scale(.87416 .76569)" gradientUnits="userSpaceOnUse"><stop stop-color="#FE536F" offset="0"/><stop stop-color="#FE536F" stop-opacity="0" offset="1"/></radialGradient><radialGradient id="ac" cx="0" cy="0" r="1" gradientTransform="translate(4.6562 10.974) rotate(135.2) scale(2.9729 3.0929)" gradientUnits="userSpaceOnUse"><stop stop-color="#E7C04E" offset=".17243"/><stop stop-color="#D9972A" offset="1"/></radialGradient><radialGradient id="ab" cx="0" cy="0" r="1" gradientTransform="translate(3.2188 13.497) rotate(-71.33) scale(1.6596 1.7977)" gradientUnits="userSpaceOnUse"><stop stop-color="#DF8089" offset=".064598"/><stop stop-color="#DF8089" stop-opacity="0" offset="1"/></radialGradient><radialGradient id="aa" cx="0" cy="0" r="1" gradientTransform="translate(4.7656 11.04) rotate(141.02) scale(1.4071 .72713)" gradientUnits="userSpaceOnUse"><stop stop-color="#FFDE71" offset="0"/><stop stop-color="#FFDE71" stop-opacity="0" offset="1"/></radialGradient><radialGradient id="z" cx="0" cy="0" r="1" gradientTransform="translate(4.0156 12.014) rotate(180) scale(1.875 1.9487)" gradientUnits="userSpaceOnUse"><stop stop-color="#E1AD3D" stop-opacity="0" offset=".4876"/><stop stop-color="#B9894B" offset="1"/></radialGradient><radialGradient id="y" cx="0" cy="0" r="1" gradientTransform="translate(10.703 10.013) rotate(136.3) scale(2.9176 3.0323)" gradientUnits="userSpaceOnUse"><stop stop-color="#E7C04E" offset=".17243"/><stop stop-color="#D9972A" offset="1"/></radialGradient><radialGradient id="x" cx="0" cy="0" r="1" gradientTransform="translate(10.812 10.075) rotate(142.09) scale(1.3862 .71013)" gradientUnits="userSpaceOnUse"><stop stop-color="#FFDE71" offset="0"/><stop stop-color="#FFDE71" stop-opacity="0" offset="1"/></radialGradient><radialGradient id="w" cx="0" cy="0" r="1" gradientTransform="translate(9.5781 12.434) rotate(-76.799) scale(1.3 1.7338)" gradientUnits="userSpaceOnUse"><stop stop-color="#E4A122" offset="0"/><stop stop-color="#E4A122" stop-opacity="0" offset="1"/></radialGradient><radialGradient id="v" cx="0" cy="0" r="1" gradientTransform="translate(10.062 11.013) rotate(180) scale(1.875)" gradientUnits="userSpaceOnUse"><stop stop-color="#E1AD3D" stop-opacity="0" offset=".4876"/><stop stop-color="#B9894B" offset="1"/></radialGradient><radialGradient id="u" cx="0" cy="0" r="1" gradientTransform="translate(23.469 10.466) rotate(136.32) scale(2.3982 2.4925)" gradientUnits="userSpaceOnUse"><stop stop-color="#F0C950" offset=".17243"/><stop stop-color="#C8861F" offset="1"/></radialGradient><radialGradient id="t" cx="0" cy="0" r="1" gradientTransform="translate(23.672 10.2) rotate(147.14) scale(1.3393 .68608)" gradientUnits="userSpaceOnUse"><stop stop-color="#FFDE71" offset=".18395"/><stop stop-color="#FFDE71" stop-opacity="0" offset="1"/></radialGradient><radialGradient id="r" cx="0" cy="0" r="1" gradientTransform="translate(17.125 21.56) rotate(138.16) scale(2.8106)" gradientUnits="userSpaceOnUse"><stop stop-color="#5FBFFF" offset="0"/><stop stop-color="#3E94FF" offset="1"/></radialGradient><linearGradient id="q" x1="16.211" x2="22.555" y1="9.1532" y2="17.153" gradientUnits="userSpaceOnUse"><stop stop-color="#FFD678" offset="0"/><stop stop-color="#FFD678" stop-opacity="0" offset="1"/></linearGradient><radialGradient id="p" cx="0" cy="0" r="1" gradientTransform="translate(22.555 16.372) rotate(-34.668) scale(6.4972 1.7402)" gradientUnits="userSpaceOnUse"><stop stop-color="#FFD175" offset=".2893"/><stop stop-color="#FFD175" stop-opacity="0" offset="1"/></radialGradient><radialGradient id="o" cx="0" cy="0" r="1" gradientTransform="translate(17.438 6.6532) rotate(125.61) scale(3.4352 2.9166)" gradientUnits="userSpaceOnUse"><stop stop-color="#F3D154" offset=".3763"/><stop stop-color="#CC9848" offset="1"/></radialGradient><radialGradient id="n" cx="0" cy="0" r="1" gradientTransform="translate(15.656 9.4462) rotate(-79.313) scale(1.8326 2.1784)" gradientUnits="userSpaceOnUse"><stop stop-color="#E78F5E" offset="0"/><stop stop-color="#E78F5E" stop-opacity="0" offset="1"/></radialGradient><radialGradient id="m" cx="0" cy="0" r="1" gradientTransform="translate(16.75 8.247) rotate(213.28) scale(3.5883 4.2918)" gradientUnits="userSpaceOnUse"><stop stop-color="#E9C251" stop-opacity="0" offset=".55712"/><stop stop-color="#B49858" offset="1"/></radialGradient><radialGradient id="l" cx="0" cy="0" r="1" gradientTransform="translate(18.062 6.8407) rotate(156.06) scale(1.9831 1.5261)" gradientUnits="userSpaceOnUse"><stop stop-color="#FFED77" offset="0"/><stop stop-color="#FFED77" stop-opacity="0" offset="1"/></radialGradient><radialGradient id="k" cx="0" cy="0" r="1" gradientTransform="translate(29.656 10.974) rotate(135.2) scale(2.9729 3.0929)" gradientUnits="userSpaceOnUse"><stop stop-color="#F8CB54" offset=".17243"/><stop stop-color="#EAA34B" offset="1"/></radialGradient><radialGradient id="j" cx="0" cy="0" r="1" gradientTransform="translate(28.219 13.497) rotate(-71.33) scale(1.6596 2.2433)" gradientUnits="userSpaceOnUse"><stop stop-color="#F1907C" offset=".15958"/><stop stop-color="#F1907C" stop-opacity="0" offset="1"/></radialGradient><radialGradient id="i" cx="0" cy="0" r="1" gradientTransform="translate(29.766 11.04) rotate(141.02) scale(1.4071 .72713)" gradientUnits="userSpaceOnUse"><stop stop-color="#FFDE71" offset="0"/><stop stop-color="#FFDE71" stop-opacity="0" offset="1"/></radialGradient><radialGradient id="g" cx="0" cy="0" r="1" gradientTransform="translate(29.016 12.014) rotate(180) scale(1.875 1.9487)" gradientUnits="userSpaceOnUse"><stop stop-color="#E0A444" stop-opacity="0" offset=".4876"/><stop stop-color="#C6924D" offset="1"/></radialGradient></defs></svg>
