<svg fill="none" viewBox="0 0 32 32" xmlns="http://www.w3.org/2000/svg"><path d="m15.469 10.72c0.4417-0.0026 0.8491 0.2377 1.0605 0.6256l0.4359 0.7995c0.1127 0.2067 0.4087 0.209 0.5246 0.0041l0.461-0.8154c0.2204-0.3899 0.6326-0.632 1.0805-0.6347l0.2431-0.0015c0.587-0.0036 1.1222 0.3356 1.3695 0.868l7.4596 16.057c0.4619 0.9943-0.2641 2.132-1.3604 2.132h-20.982c-1.0956 0-1.8216-1.1363-1.361-2.1305l7.4885-16.165c0.2035-0.4394 0.6427-0.7218 1.127-0.7245l2.453-0.0141z" fill="url(#aj)"/><path d="m15.469 10.72c0.4417-0.0026 0.8491 0.2377 1.0605 0.6256l0.4359 0.7995c0.1127 0.2067 0.4087 0.209 0.5246 0.0041l0.461-0.8154c0.2204-0.3899 0.6326-0.632 1.0805-0.6347l0.2431-0.0015c0.587-0.0036 1.1222 0.3356 1.3695 0.868l7.4596 16.057c0.4619 0.9943-0.2641 2.132-1.3604 2.132h-20.982c-1.0956 0-1.8216-1.1363-1.361-2.1305l7.4885-16.165c0.2035-0.4394 0.6427-0.7218 1.127-0.7245l2.453-0.0141z" fill="url(#y)"/><path d="m15.469 10.72c0.4417-0.0026 0.8491 0.2377 1.0605 0.6256l0.4359 0.7995c0.1127 0.2067 0.4087 0.209 0.5246 0.0041l0.461-0.8154c0.2204-0.3899 0.6326-0.632 1.0805-0.6347l0.2431-0.0015c0.587-0.0036 1.1222 0.3356 1.3695 0.868l7.4596 16.057c0.4619 0.9943-0.2641 2.132-1.3604 2.132h-20.982c-1.0956 0-1.8216-1.1363-1.361-2.1305l7.4885-16.165c0.2035-0.4394 0.6427-0.7218 1.127-0.7245l2.453-0.0141z" fill="url(#n)"/><path d="m17.832 17.176 0.8751 3.159c0.24 0.8663 1.0285 1.466 1.9275 1.466h0.0722c0.8127 0 1.5447 0.4919 1.8517 1.2444l2.7374 6.7087h1.4476c1.0963 0 1.8222-1.1377 1.3603-2.132l-7.4596-16.057c-0.2473-0.5324-0.7824-0.8716-1.3694-0.868l-0.2431 0.0015c-0.4479 0.0027-0.8601 0.2448-1.0806 0.6347l-0.1191 0.2107v5.6316z" fill="url(#g)"/><path d="m17.832 17.176 0.8751 3.159c0.24 0.8663 1.0285 1.466 1.9275 1.466h0.0722c0.8127 0 1.5447 0.4919 1.8517 1.2444l2.7374 6.7087h1.4476c1.0963 0 1.8222-1.1377 1.3603-2.132l-7.4596-16.057c-0.2473-0.5324-0.7824-0.8716-1.3694-0.868l-0.2431 0.0015c-0.4479 0.0027-0.8601 0.2448-1.0806 0.6347l-0.1191 0.2107v5.6316z" fill="url(#f)"/><g filter="url(#an)"><path d="m21.793 16.273c0-0.3157-0.0747-0.6268-0.2181-0.9081l-1.343-2.6354c-0.2376-0.4662-0.7516-0.7632-1.3154-0.76l-0.2335 0.0013c-0.4302 0.0023-0.8261 0.2144-1.0378 0.5557l-0.4428 0.714c-0.1113 0.1795-0.3956 0.1775-0.5038-0.0035l-0.4187-0.7002c-0.2031-0.3395-0.5944-0.55-1.0186-0.5477l-2.3561 0.0123c-0.4652 0.0024-0.887 0.2496-1.0825 0.6344l-1.3149 2.5875c-0.1977 0.3892-0.3008 0.8195-0.3008 1.256 0 0.4836 0.4301 0.8756 0.9605 0.8756h0.03c0.5305 0 0.9605 0.392 0.9605 0.8756v6.8545c0 0.4836 0.4301 0.8756 0.9605 0.8756 0.5305 0 0.9605-0.392 0.9605-0.8756v-6.4358c0-0.487 0.4331-0.8819 0.9674-0.8819 0.5342 0 0.9674 0.3949 0.9674 0.8819v1.2642c0 0.4836 0.43 0.8756 0.9604 0.8756 0.5305 0 0.9605-0.392 0.9605-0.8756v-2.2347c0-0.4528 0.4027-0.8199 0.8994-0.8199 0.4488 0 1.0119 0.3016 1.0738 0.7067l0.0238 0.6514c0.0707 0.4628 0.5048 0.8072 1.0172 0.8072 0.5673 0 0.8441-0.4193 0.8441-0.9364v-1.8147z" fill="#2E1C46"/></g><g filter="url(#am)"><path d="m21.367 16 5.3987 11.599" stroke="#715594" stroke-linecap="round" stroke-width=".5"/></g><path d="m12.41 5.77c-0.1381 0-0.25 0.11193-0.25 0.25v3.5273c0 0.13807 0.1119 0.25 0.25 0.25h0.3632c0.2762 0 0.5 0.22384 0.5 0.50004v4.457c0 0.1381 0.112 0.25 0.25 0.25h5.5118c0.138 0 0.25-0.1119 0.25-0.25v-4.457c0-0.2762 0.2238-0.50004 0.5-0.50004h0.875c0.138 0 0.25-0.11193 0.25-0.25v-3.5273c0-0.13807-0.112-0.25-0.25-0.25h-8.25z" fill="url(#e)"/><path d="m12.41 5.77c-0.1381 0-0.25 0.11193-0.25 0.25v3.5273c0 0.13807 0.1119 0.25 0.25 0.25h0.3632c0.2762 0 0.5 0.22384 0.5 0.50004v4.457c0 0.1381 0.112 0.25 0.25 0.25h5.5118c0.138 0 0.25-0.1119 0.25-0.25v-4.457c0-0.2762 0.2238-0.50004 0.5-0.50004h0.875c0.138 0 0.25-0.11193 0.25-0.25v-3.5273c0-0.13807-0.112-0.25-0.25-0.25h-8.25z" fill="url(#d)"/><g filter="url(#al)"><path d="m22.27 15.506c0-0.2911-0.0635-0.5787-0.1862-0.8427l-1.4391-3.0976c-0.2473-0.5324-0.7824-0.8716-1.3694-0.868l-0.2431 0.0015c-0.4479 0.0027-0.8601 0.2448-1.0806 0.6347l-0.461 0.8154c-0.1159 0.2049-0.4118 0.2026-0.5245-0.0041l-0.4359-0.7995c-0.2114-0.3879-0.6188-0.6282-1.0605-0.6256l-2.4531 0.0141c-0.4843 0.0027-0.9234 0.2851-1.127 0.7245l-1.4042 3.0312c-0.183 0.3952-0.2779 0.8255-0.2779 1.261v0.0972c0 0.5523 0.4477 1 1 1h0.0313c0.5523 0 1 0.4477 1 1v7.8281c0 0.5523 0.4477 1 1 1s1-0.4477 1-1v-6.9616c0-0.5562 0.4509-1.0071 1.0071-1.0071 0.5563 0 1.0072 0.4509 1.0072 1.0071v1.0554c0 0.5523 0.4477 1 1 1s1-0.4477 1-1v-1.9855c0-0.5172 0.4192-0.9364 0.9364-0.9364 0.4672 0 0.8629 0.3444 0.9274 0.8071l0.0247 0.1774c0.0736 0.5284 0.5255 0.9217 1.0591 0.9217 0.5906 0 1.0693-0.4787 1.0693-1.0693v-2.179z" fill="url(#c)"/></g><path d="m22.27 15.506c0-0.2911-0.0635-0.5787-0.1862-0.8427l-1.4391-3.0976c-0.2473-0.5324-0.7824-0.8716-1.3694-0.868l-0.2431 0.0015c-0.4479 0.0027-0.8601 0.2448-1.0806 0.6347l-0.461 0.8154c-0.1159 0.2049-0.4118 0.2026-0.5245-0.0041l-0.4359-0.7995c-0.2114-0.3879-0.6188-0.6282-1.0605-0.6256l-2.4531 0.0141c-0.4843 0.0027-0.9234 0.2851-1.127 0.7245l-1.4042 3.0312c-0.183 0.3952-0.2779 0.8255-0.2779 1.261v0.0972c0 0.5523 0.4477 1 1 1h0.0313c0.5523 0 1 0.4477 1 1v7.8281c0 0.5523 0.4477 1 1 1s1-0.4477 1-1v-6.9616c0-0.5562 0.4509-1.0071 1.0071-1.0071 0.5563 0 1.0072 0.4509 1.0072 1.0071v1.0554c0 0.5523 0.4477 1 1 1s1-0.4477 1-1v-1.9855c0-0.5172 0.4192-0.9364 0.9364-0.9364 0.4672 0 0.8629 0.3444 0.9274 0.8071l0.0247 0.1774c0.0736 0.5284 0.5255 0.9217 1.0591 0.9217 0.5906 0 1.0693-0.4787 1.0693-1.0693v-2.179z" fill="url(#b)"/><path d="m22.27 15.506c0-0.2911-0.0635-0.5787-0.1862-0.8427l-1.4391-3.0976c-0.2473-0.5324-0.7824-0.8716-1.3694-0.868l-0.2431 0.0015c-0.4479 0.0027-0.8601 0.2448-1.0806 0.6347l-0.461 0.8154c-0.1159 0.2049-0.4118 0.2026-0.5245-0.0041l-0.4359-0.7995c-0.2114-0.3879-0.6188-0.6282-1.0605-0.6256l-2.4531 0.0141c-0.4843 0.0027-0.9234 0.2851-1.127 0.7245l-1.4042 3.0312c-0.183 0.3952-0.2779 0.8255-0.2779 1.261v0.0972c0 0.5523 0.4477 1 1 1h0.0313c0.5523 0 1 0.4477 1 1v7.8281c0 0.5523 0.4477 1 1 1s1-0.4477 1-1v-6.9616c0-0.5562 0.4509-1.0071 1.0071-1.0071 0.5563 0 1.0072 0.4509 1.0072 1.0071v1.0554c0 0.5523 0.4477 1 1 1s1-0.4477 1-1v-1.9855c0-0.5172 0.4192-0.9364 0.9364-0.9364 0.4672 0 0.8629 0.3444 0.9274 0.8071l0.0247 0.1774c0.0736 0.5284 0.5255 0.9217 1.0591 0.9217 0.5906 0 1.0693-0.4787 1.0693-1.0693v-2.179z" fill="url(#a)"/><path d="m22.27 15.506c0-0.2911-0.0635-0.5787-0.1862-0.8427l-1.4391-3.0976c-0.2473-0.5324-0.7824-0.8716-1.3694-0.868l-0.2431 0.0015c-0.4479 0.0027-0.8601 0.2448-1.0806 0.6347l-0.461 0.8154c-0.1159 0.2049-0.4118 0.2026-0.5245-0.0041l-0.4359-0.7995c-0.2114-0.3879-0.6188-0.6282-1.0605-0.6256l-2.4531 0.0141c-0.4843 0.0027-0.9234 0.2851-1.127 0.7245l-1.4042 3.0312c-0.183 0.3952-0.2779 0.8255-0.2779 1.261v0.0972c0 0.5523 0.4477 1 1 1h0.0313c0.5523 0 1 0.4477 1 1v7.8281c0 0.5523 0.4477 1 1 1s1-0.4477 1-1v-6.9616c0-0.5562 0.4509-1.0071 1.0071-1.0071 0.5563 0 1.0072 0.4509 1.0072 1.0071v1.0554c0 0.5523 0.4477 1 1 1s1-0.4477 1-1v-1.9855c0-0.5172 0.4192-0.9364 0.9364-0.9364 0.4672 0 0.8629 0.3444 0.9274 0.8071l0.0247 0.1774c0.0736 0.5284 0.5255 0.9217 1.0591 0.9217 0.5906 0 1.0693-0.4787 1.0693-1.0693v-2.179z" fill="url(#ai)"/><path d="m22.27 15.506c0-0.2911-0.0635-0.5787-0.1862-0.8427l-1.4391-3.0976c-0.2473-0.5324-0.7824-0.8716-1.3694-0.868l-0.2431 0.0015c-0.4479 0.0027-0.8601 0.2448-1.0806 0.6347l-0.461 0.8154c-0.1159 0.2049-0.4118 0.2026-0.5245-0.0041l-0.4359-0.7995c-0.2114-0.3879-0.6188-0.6282-1.0605-0.6256l-2.4531 0.0141c-0.4843 0.0027-0.9234 0.2851-1.127 0.7245l-1.4042 3.0312c-0.183 0.3952-0.2779 0.8255-0.2779 1.261v0.0972c0 0.5523 0.4477 1 1 1h0.0313c0.5523 0 1 0.4477 1 1v7.8281c0 0.5523 0.4477 1 1 1s1-0.4477 1-1v-6.9616c0-0.5562 0.4509-1.0071 1.0071-1.0071 0.5563 0 1.0072 0.4509 1.0072 1.0071v1.0554c0 0.5523 0.4477 1 1 1s1-0.4477 1-1v-1.9855c0-0.5172 0.4192-0.9364 0.9364-0.9364 0.4672 0 0.8629 0.3444 0.9274 0.8071l0.0247 0.1774c0.0736 0.5284 0.5255 0.9217 1.0591 0.9217 0.5906 0 1.0693-0.4787 1.0693-1.0693v-2.179z" fill="url(#ah)"/><path d="m22.27 15.506c0-0.2911-0.0635-0.5787-0.1862-0.8427l-1.4391-3.0976c-0.2473-0.5324-0.7824-0.8716-1.3694-0.868l-0.2431 0.0015c-0.4479 0.0027-0.8601 0.2448-1.0806 0.6347l-0.461 0.8154c-0.1159 0.2049-0.4118 0.2026-0.5245-0.0041l-0.4359-0.7995c-0.2114-0.3879-0.6188-0.6282-1.0605-0.6256l-2.4531 0.0141c-0.4843 0.0027-0.9234 0.2851-1.127 0.7245l-1.4042 3.0312c-0.183 0.3952-0.2779 0.8255-0.2779 1.261v0.0972c0 0.5523 0.4477 1 1 1h0.0313c0.5523 0 1 0.4477 1 1v7.8281c0 0.5523 0.4477 1 1 1s1-0.4477 1-1v-6.9616c0-0.5562 0.4509-1.0071 1.0071-1.0071 0.5563 0 1.0072 0.4509 1.0072 1.0071v1.0554c0 0.5523 0.4477 1 1 1s1-0.4477 1-1v-1.9855c0-0.5172 0.4192-0.9364 0.9364-0.9364 0.4672 0 0.8629 0.3444 0.9274 0.8071l0.0247 0.1774c0.0736 0.5284 0.5255 0.9217 1.0591 0.9217 0.5906 0 1.0693-0.4787 1.0693-1.0693v-2.179z" fill="url(#ag)"/><circle cx="17.23" cy="3.8247" r="1.9453" fill="url(#af)"/><circle cx="17.23" cy="3.8247" r="1.9453" fill="url(#ae)"/><path d="m21.406 5.8169c-0.1397 0-0.2507-0.11517-0.2663-0.25408-0.1098-0.97979-0.9455-1.7537-1.9604-1.7537-1.0895 0-1.9727 0.88319-1.9727 1.9727s0.8832 1.9726 1.9727 1.9726c0.0943 0 0.1871-0.00662 0.2779-0.01942 0.1684-0.02374 0.3354 0.09692 0.3354 0.26694v1.5454c0 0.13807 0.1119 0.25 0.25 0.25h2.1425c1.0992 0 1.9903-0.89106 1.9903-1.9902 0-1.0992-0.8911-1.9902-1.9903-1.9902h-0.7791z" fill="url(#ad)"/><path d="m21.406 5.8169c-0.1397 0-0.2507-0.11517-0.2663-0.25408-0.1098-0.97979-0.9455-1.7537-1.9604-1.7537-1.0895 0-1.9727 0.88319-1.9727 1.9727s0.8832 1.9726 1.9727 1.9726c0.0943 0 0.1871-0.00662 0.2779-0.01942 0.1684-0.02374 0.3354 0.09692 0.3354 0.26694v1.5454c0 0.13807 0.1119 0.25 0.25 0.25h2.1425c1.0992 0 1.9903-0.89106 1.9903-1.9902 0-1.0992-0.8911-1.9902-1.9903-1.9902h-0.7791z" fill="url(#ac)"/><path d="m21.406 5.8169c-0.1397 0-0.2507-0.11517-0.2663-0.25408-0.1098-0.97979-0.9455-1.7537-1.9604-1.7537-1.0895 0-1.9727 0.88319-1.9727 1.9727s0.8832 1.9726 1.9727 1.9726c0.0943 0 0.1871-0.00662 0.2779-0.01942 0.1684-0.02374 0.3354 0.09692 0.3354 0.26694v1.5454c0 0.13807 0.1119 0.25 0.25 0.25h2.1425c1.0992 0 1.9903-0.89106 1.9903-1.9902 0-1.0992-0.8911-1.9902-1.9903-1.9902h-0.7791z" fill="url(#ab)"/><path d="m21.406 5.8169c-0.1397 0-0.2507-0.11517-0.2663-0.25408-0.1098-0.97979-0.9455-1.7537-1.9604-1.7537-1.0895 0-1.9727 0.88319-1.9727 1.9727s0.8832 1.9726 1.9727 1.9726c0.0943 0 0.1871-0.00662 0.2779-0.01942 0.1684-0.02374 0.3354 0.09692 0.3354 0.26694v1.5454c0 0.13807 0.1119 0.25 0.25 0.25h2.1425c1.0992 0 1.9903-0.89106 1.9903-1.9902 0-1.0992-0.8911-1.9902-1.9903-1.9902h-0.7791z" fill="url(#aa)"/><circle cx="19.18" cy="5.7817" r="1.9727" fill="url(#z)"/><path d="m12.086 5.8169c0.1398 0 0.2507-0.11523 0.2665-0.25411 0.1104-0.96978 0.9458-1.6834 1.9603-1.6834 1.0895 0 1.8398 0.89844 1.8398 1.9024 0 1.0895-0.7503 1.9726-1.8398 1.9726-0.0943 0-0.1871-0.00662-0.2779-0.01942-0.1684-0.02374-0.3354 0.09692-0.3354 0.26694v1.5454c0 0.13807-0.1119 0.25-0.25 0.25h-2.1426c-1.0991 0-1.9902-0.89106-1.9902-1.9902 0-1.0992 0.89109-1.9902 1.9902-1.9902h0.7791z" fill="url(#x)"/><path d="m12.086 5.8169c0.1398 0 0.2507-0.11523 0.2665-0.25411 0.1104-0.96978 0.9458-1.6834 1.9603-1.6834 1.0895 0 1.8398 0.89844 1.8398 1.9024 0 1.0895-0.7503 1.9726-1.8398 1.9726-0.0943 0-0.1871-0.00662-0.2779-0.01942-0.1684-0.02374-0.3354 0.09692-0.3354 0.26694v1.5454c0 0.13807-0.1119 0.25-0.25 0.25h-2.1426c-1.0991 0-1.9902-0.89106-1.9902-1.9902 0-1.0992 0.89109-1.9902 1.9902-1.9902h0.7791z" fill="url(#w)"/><path d="m12.086 5.8169c0.1398 0 0.2507-0.11523 0.2665-0.25411 0.1104-0.96978 0.9458-1.6834 1.9603-1.6834 1.0895 0 1.8398 0.89844 1.8398 1.9024 0 1.0895-0.7503 1.9726-1.8398 1.9726-0.0943 0-0.1871-0.00662-0.2779-0.01942-0.1684-0.02374-0.3354 0.09692-0.3354 0.26694v1.5454c0 0.13807-0.1119 0.25-0.25 0.25h-2.1426c-1.0991 0-1.9902-0.89106-1.9902-1.9902 0-1.0992 0.89109-1.9902 1.9902-1.9902h0.7791z" fill="url(#v)"/><circle cx="14.277" cy="5.8147" r="1.9414" fill="url(#u)"/><circle cx="14.277" cy="5.8147" r="1.9414" fill="url(#t)"/><circle cx="14.277" cy="5.8147" r="1.9414" fill="url(#s)"/><path d="m18.793 9.5192c-0.2538-0.15264-0.5968-0.14957-0.8309 0.03177-0.4809 0.37241-1.0845 0.59403-1.7397 0.59403-1.5706 0-2.8438-1.2732-2.8438-2.8437s1.2732-2.8438 2.8438-2.8438c0.9489 0 1.7892 0.46476 2.3058 1.1791 0.1736 0.24005 0.5019 0.34001 0.7888 0.26616 0.1583-0.04074 0.3242-0.06241 0.4952-0.06241 1.0938 0 1.9805 0.88669 1.9805 1.9805s-0.8867 1.9805-1.9805 1.9805c-0.3728 0-0.7215-0.10299-1.0192-0.28207z" fill="url(#r)"/><path d="m18.793 9.5192c-0.2538-0.15264-0.5968-0.14957-0.8309 0.03177-0.4809 0.37241-1.0845 0.59403-1.7397 0.59403-1.5706 0-2.8438-1.2732-2.8438-2.8437s1.2732-2.8438 2.8438-2.8438c0.9489 0 1.7892 0.46476 2.3058 1.1791 0.1736 0.24005 0.5019 0.34001 0.7888 0.26616 0.1583-0.04074 0.3242-0.06241 0.4952-0.06241 1.0938 0 1.9805 0.88669 1.9805 1.9805s-0.8867 1.9805-1.9805 1.9805c-0.3728 0-0.7215-0.10299-1.0192-0.28207z" fill="url(#q)"/><path d="m18.793 9.5192c-0.2538-0.15264-0.5968-0.14957-0.8309 0.03177-0.4809 0.37241-1.0845 0.59403-1.7397 0.59403-1.5706 0-2.8438-1.2732-2.8438-2.8437s1.2732-2.8438 2.8438-2.8438c0.9489 0 1.7892 0.46476 2.3058 1.1791 0.1736 0.24005 0.5019 0.34001 0.7888 0.26616 0.1583-0.04074 0.3242-0.06241 0.4952-0.06241 1.0938 0 1.9805 0.88669 1.9805 1.9805s-0.8867 1.9805-1.9805 1.9805c-0.3728 0-0.7215-0.10299-1.0192-0.28207z" fill="url(#p)"/><path d="m18.793 9.5192c-0.2538-0.15264-0.5968-0.14957-0.8309 0.03177-0.4809 0.37241-1.0845 0.59403-1.7397 0.59403-1.5706 0-2.8438-1.2732-2.8438-2.8437s1.2732-2.8438 2.8438-2.8438c0.9489 0 1.7892 0.46476 2.3058 1.1791 0.1736 0.24005 0.5019 0.34001 0.7888 0.26616 0.1583-0.04074 0.3242-0.06241 0.4952-0.06241 1.0938 0 1.9805 0.88669 1.9805 1.9805s-0.8867 1.9805-1.9805 1.9805c-0.3728 0-0.7215-0.10299-1.0192-0.28207z" fill="url(#o)"/><path d="m18.793 9.5192c-0.2538-0.15264-0.5968-0.14957-0.8309 0.03177-0.4809 0.37241-1.0845 0.59403-1.7397 0.59403-1.5706 0-2.8438-1.2732-2.8438-2.8437s1.2732-2.8438 2.8438-2.8438c0.9489 0 1.7892 0.46476 2.3058 1.1791 0.1736 0.24005 0.5019 0.34001 0.7888 0.26616 0.1583-0.04074 0.3242-0.06241 0.4952-0.06241 1.0938 0 1.9805 0.88669 1.9805 1.9805s-0.8867 1.9805-1.9805 1.9805c-0.3728 0-0.7215-0.10299-1.0192-0.28207z" fill="url(#m)"/><g filter="url(#ak)"><path d="m13.379 25.797v-9.5049" stroke="url(#l)" stroke-linecap="round" stroke-width=".5"/></g><circle cx="16.219" cy="7.3013" r="2.8555" fill="url(#k)"/><circle cx="16.219" cy="7.3013" r="2.8555" fill="url(#j)"/><circle cx="16.219" cy="7.3013" r="2.8555" fill="url(#i)"/><circle cx="16.219" cy="7.3013" r="2.8555" fill="url(#h)"/><defs><filter id="an" x="9.707" y="11.469" width="12.586" height="14.991" color-interpolation-filters="sRGB" filterUnits="userSpaceOnUse"><feFlood flood-opacity="0" result="BackgroundImageFix"/><feBlend in="SourceGraphic" in2="BackgroundImageFix" result="shape"/><feGaussianBlur result="effect1_foregroundBlur_18_4945" stdDeviation="0.25"/></filter><filter id="am" x="20.117" y="14.75" width="7.8988" height="14.099" color-interpolation-filters="sRGB" filterUnits="userSpaceOnUse"><feFlood flood-opacity="0" result="BackgroundImageFix"/><feBlend in="SourceGraphic" in2="BackgroundImageFix" result="shape"/><feGaussianBlur result="effect1_foregroundBlur_18_4945" stdDeviation="0.5"/></filter><filter id="al" x="10.207" y="10.698" width="12.562" height="16.478" color-interpolation-filters="sRGB" filterUnits="userSpaceOnUse"><feFlood flood-opacity="0" result="BackgroundImageFix"/><feBlend in="SourceGraphic" in2="BackgroundImageFix" result="shape"/><feColorMatrix in="SourceAlpha" result="hardAlpha" values="0 0 0 0 0 0 0 0 0 0 0 0 0 0 0 0 0 0 127 0"/><feOffset dx="0.5" dy="0.5"/><feGaussianBlur stdDeviation="0.375"/><feComposite in2="hardAlpha" k2="-1" k3="1" operator="arithmetic"/><feColorMatrix values="0 0 0 0 0.768627 0 0 0 0 0.407843 0 0 0 0 0.219608 0 0 0 1 0"/><feBlend in2="shape" result="effect1_innerShadow_18_4945"/></filter><filter id="ak" x="12.629" y="15.542" width="1.5" height="11.005" color-interpolation-filters="sRGB" filterUnits="userSpaceOnUse"><feFlood flood-opacity="0" result="BackgroundImageFix"/><feBlend in="SourceGraphic" in2="BackgroundImageFix" result="shape"/><feGaussianBlur result="effect1_foregroundBlur_18_4945" stdDeviation="0.25"/></filter><linearGradient id="aj" x1="16.252" x2="16.252" y1="21.639" y2="29.754" gradientUnits="userSpaceOnUse"><stop stop-color="#52337C" offset=".019584"/><stop stop-color="#342E47" offset=".76609"/></linearGradient><linearGradient id="y" x1="5.832" x2="8.332" y1="22.833" y2="23.926" gradientUnits="userSpaceOnUse"><stop stop-color="#242327" offset="0"/><stop stop-color="#26242B" stop-opacity="0" offset="1"/></linearGradient><linearGradient id="n" x1="16.252" x2="16.252" y1="24.646" y2="29.754" gradientUnits="userSpaceOnUse"><stop stop-color="#27225A" stop-opacity="0" offset=".69378"/><stop stop-color="#27225A" offset="1"/></linearGradient><linearGradient id="g" x1="24.362" x2="19.933" y1="25.827" y2="14.228" gradientUnits="userSpaceOnUse"><stop stop-color="#553C7D" offset="0"/><stop stop-color="#553C7D" stop-opacity="0" offset="1"/></linearGradient><linearGradient id="f" x1="26.344" x2="26.323" y1="30.003" y2="27.852" gradientUnits="userSpaceOnUse"><stop stop-color="#392680" offset="0"/><stop stop-color="#392680" stop-opacity="0" offset="1"/></linearGradient><radialGradient id="e" cx="0" cy="0" r="1" gradientTransform="translate(16.959 10.726) rotate(90) scale(4.0505 3.838)" gradientUnits="userSpaceOnUse"><stop stop-color="#E9DAED" offset="0"/><stop stop-color="#B3ACB6" offset="1"/></radialGradient><radialGradient id="d" cx="0" cy="0" r="1" gradientTransform="translate(17.801 12.52) rotate(111.8) scale(1.767 .99048)" gradientUnits="userSpaceOnUse"><stop stop-color="#C9AFB2" offset="0"/><stop stop-color="#C9AFB2" stop-opacity="0" offset="1"/></radialGradient><linearGradient id="c" x1="13.058" x2="21.873" y1="13.427" y2="13.427" gradientUnits="userSpaceOnUse"><stop stop-color="#FF804A" offset="0"/><stop stop-color="#FF655E" offset=".83299"/></linearGradient><radialGradient id="b" cx="0" cy="0" r="1" gradientTransform="translate(19.977 19.008) rotate(267.06) scale(4.9711 2.8708)" gradientUnits="userSpaceOnUse"><stop stop-color="#CA2C4D" offset=".26829"/><stop stop-color="#CA2C4D" stop-opacity="0" offset="1"/></radialGradient><radialGradient id="a" cx="0" cy="0" r="1" gradientTransform="translate(18.067 10.698) rotate(90) scale(3.8546 2.5237)" gradientUnits="userSpaceOnUse"><stop stop-color="#D74B32" offset="0"/><stop stop-color="#D74B32" stop-opacity="0" offset="1"/></radialGradient><radialGradient id="ai" cx="0" cy="0" r="1" gradientTransform="translate(15.649 18.944) rotate(-90) scale(2.6096 1.5488)" gradientUnits="userSpaceOnUse"><stop stop-color="#C93B38" offset=".30081"/><stop stop-color="#C93B38" stop-opacity="0" offset="1"/></radialGradient><radialGradient id="ah" cx="0" cy="0" r="1" gradientTransform="translate(15.776 11.773) rotate(90) scale(1.5912 1.0608)" gradientUnits="userSpaceOnUse"><stop stop-color="#FF8752" offset="0"/><stop stop-color="#FF8752" stop-opacity="0" offset="1"/></radialGradient><radialGradient id="ag" cx="0" cy="0" r="1" gradientTransform="translate(12.848 26.676) rotate(-90) scale(4.7831 1.4427)" gradientUnits="userSpaceOnUse"><stop stop-color="#E56751" offset="0"/><stop stop-color="#E56751" stop-opacity="0" offset="1"/></radialGradient><radialGradient id="af" cx="0" cy="0" r="1" gradientTransform="translate(18.74 3.4) rotate(166.74) scale(3.7265)" gradientUnits="userSpaceOnUse"><stop stop-color="#BBBABD" offset=".19047"/><stop stop-color="#919092" offset="1"/></radialGradient><radialGradient id="ae" cx="0" cy="0" r="1" gradientTransform="translate(18.102 4.9849) rotate(235.28) scale(1.2689 1.8244)" gradientUnits="userSpaceOnUse"><stop stop-color="#939294" offset=".31554"/><stop stop-color="#939294" stop-opacity="0" offset="1"/></radialGradient><linearGradient id="ad" x1="20.691" x2="20.691" y1="6.162" y2="10.112" gradientUnits="userSpaceOnUse"><stop stop-color="#BFBEBF" offset="0"/><stop stop-color="#C0B1D7" offset="1"/></linearGradient><radialGradient id="ac" cx="0" cy="0" r="1" gradientTransform="translate(24.176 7.2618) rotate(162.47) scale(2.5335 2.566)" gradientUnits="userSpaceOnUse"><stop stop-color="#D8D6DA" offset="0"/><stop stop-color="#D8D6DA" stop-opacity="0" offset="1"/></radialGradient><radialGradient id="ab" cx="0" cy="0" r="1" gradientTransform="translate(20.851 6.1395) rotate(11.31) scale(.85839 2.4787)" gradientUnits="userSpaceOnUse"><stop stop-color="#D0CFD2" offset=".27888"/><stop stop-color="#D0CFD2" stop-opacity="0" offset=".9488"/></radialGradient><linearGradient id="aa" x1="21.739" x2="21.739" y1="9.8898" y2="9.2908" gradientUnits="userSpaceOnUse"><stop stop-color="#B7ABD1" offset="0"/><stop stop-color="#B7ABD1" stop-opacity="0" offset=".4647"/></linearGradient><radialGradient id="z" cx="0" cy="0" r="1" gradientTransform="translate(20.711 5.351) rotate(204.57) scale(3.7085)" gradientUnits="userSpaceOnUse"><stop stop-color="#CAC8CD" offset=".19047"/><stop stop-color="#939294" offset="1"/></radialGradient><radialGradient id="x" cx="0" cy="0" r="1" gradientTransform="translate(10.968 9.4884) rotate(-72.399) scale(3.4873 6.2161)" gradientUnits="userSpaceOnUse"><stop stop-color="#AEA7CF" offset="0"/><stop stop-color="#A9A9AA" offset="1"/></radialGradient><radialGradient id="w" cx="0" cy="0" r="1" gradientTransform="translate(11.175 7.3794) rotate(213.18) scale(2.2203 2.3617)" gradientUnits="userSpaceOnUse"><stop stop-color="#B2AEB8" offset="0"/><stop stop-color="#B2AEB8" stop-opacity="0" offset="1"/></radialGradient><linearGradient id="v" x1="13.696" x2="12.63" y1="10.084" y2="9.5687" gradientUnits="userSpaceOnUse"><stop stop-color="#BAB2BD" offset="0"/><stop stop-color="#BAB2BD" stop-opacity="0" offset="1"/></linearGradient><radialGradient id="u" cx="0" cy="0" r="1" gradientTransform="translate(15.143 4.2317) rotate(141.24) scale(4.7596)" gradientUnits="userSpaceOnUse"><stop stop-color="#B3B2B3" offset=".12334"/><stop stop-color="#9D9CA1" offset="1"/></radialGradient><radialGradient id="t" cx="0" cy="0" r="1" gradientTransform="translate(15.008 3.8733) rotate(115.08) scale(4.0897)" gradientUnits="userSpaceOnUse"><stop stop-color="#A59FB8" stop-opacity="0" offset=".45905"/><stop stop-color="#A59FB8" offset="1"/></radialGradient><radialGradient id="s" cx="0" cy="0" r="1" gradientTransform="translate(14.473 5.5357) rotate(229.29) scale(.88637 1.7406)" gradientUnits="userSpaceOnUse"><stop stop-color="#A2A1A2" offset=".27535"/><stop stop-color="#A2A1A2" stop-opacity="0" offset="1"/></radialGradient><linearGradient id="r" x1="19.552" x2="19.002" y1="6.0923" y2="9.5006" gradientUnits="userSpaceOnUse"><stop stop-color="#C7C5CB" offset="0"/><stop stop-color="#C2B0DB" offset="1"/></linearGradient><radialGradient id="q" cx="0" cy="0" r="1" gradientTransform="translate(21.622 6.8898) rotate(142.95) scale(2.4266 1.9231)" gradientUnits="userSpaceOnUse"><stop stop-color="#D1D0D3" offset="0"/><stop stop-color="#D1D0D3" stop-opacity="0" offset="1"/></radialGradient><radialGradient id="p" cx="0" cy="0" r="1" gradientTransform="translate(18.337 5.4088) rotate(59.394) scale(1.5663 2.3172)" gradientUnits="userSpaceOnUse"><stop stop-color="#B0B0B1" offset="0"/><stop stop-color="#B0B0B1" stop-opacity="0" offset="1"/></radialGradient><radialGradient id="o" cx="0" cy="0" r="1" gradientTransform="translate(19.932 6.1486) rotate(107.2) scale(3.8255 5.0992)" gradientUnits="userSpaceOnUse"><stop stop-color="#C0AAC5" stop-opacity="0" offset="0"/><stop stop-color="#C0AAC5" stop-opacity="0" offset=".71793"/><stop stop-color="#C0AAC5" offset=".96623"/></radialGradient><radialGradient id="m" cx="0" cy="0" r="1" gradientTransform="translate(18.738 6.9939) rotate(12.897) scale(1.3772 2.4432)" gradientUnits="userSpaceOnUse"><stop stop-color="#D0CED4" offset="0"/><stop stop-color="#C1BDCB" stop-opacity="0" offset="1"/></radialGradient><linearGradient id="l" x1="13.879" x2="13.879" y1="16.292" y2="25.797" gradientUnits="userSpaceOnUse"><stop stop-color="#FF9A58" stop-opacity="0" offset="0"/><stop stop-color="#FF9A58" offset=".19324"/><stop stop-color="#FFA163" offset=".86956"/><stop stop-color="#FF9A58" stop-opacity="0" offset="1"/></linearGradient><radialGradient id="k" cx="0" cy="0" r="1" gradientTransform="translate(18.138 6.1776) rotate(172.16) scale(4.6196 4.6938)" gradientUnits="userSpaceOnUse"><stop stop-color="#CFCDD4" offset=".089259"/><stop stop-color="#9E9EA0" offset="1"/></radialGradient><radialGradient id="j" cx="0" cy="0" r="1" gradientTransform="translate(16.021 10.157) rotate(-83.292) scale(4.5513 9.6504)" gradientUnits="userSpaceOnUse"><stop stop-color="#BEB1DF" offset=".2503"/><stop stop-color="#BEB1DF" stop-opacity="0" offset=".92098"/></radialGradient><radialGradient id="i" cx="0" cy="0" r="1" gradientTransform="translate(15.158 7.9759) rotate(-17.941) scale(4.5598 5.0036)" gradientUnits="userSpaceOnUse"><stop stop-color="#D0CED4" stop-opacity="0" offset=".7207"/><stop stop-color="#D0CED4" offset=".90718"/></radialGradient><radialGradient id="h" cx="0" cy="0" r="1" gradientTransform="translate(16.376 5.6141) rotate(94.289) scale(4.986 5.5085)" gradientUnits="userSpaceOnUse"><stop stop-color="#C0AAC5" stop-opacity="0" offset=".69408"/><stop stop-color="#C0AAC5" offset=".96623"/></radialGradient></defs></svg>
