<?xml version="1.0" encoding="utf-8"?>
<!-- Generator: Adobe Illustrator 28.1.0, SVG Export Plug-In . SVG Version: 6.00 Build 0)  -->
<svg version="1.1" id="Ebene_1" xmlns="http://www.w3.org/2000/svg" xmlns:xlink="http://www.w3.org/1999/xlink" x="0px" y="0px"
	 viewBox="0 0 200 200" style="enable-background:new 0 0 200 200;" xml:space="preserve">
<style type="text/css">
	
		.st0{clip-path:url(#SVGID_00000177454401469699384970000003927551428958396573_);fill:none;stroke:#BDBDBD;stroke-width:6;stroke-miterlimit:10;}
	.st1{fill:#BDBDBD;}
</style>
<g>
	<g>
		<defs>
			<circle id="SVGID_1_" cx="100" cy="100" r="97"/>
		</defs>
		<clipPath id="SVGID_00000093882085937722102860000006089493123039414147_">
			<use xlink:href="#SVGID_1_"  style="overflow:visible;"/>
		</clipPath>
		
			<circle style="clip-path:url(#SVGID_00000093882085937722102860000006089493123039414147_);fill:none;stroke:#BDBDBD;stroke-width:6;stroke-miterlimit:10;" cx="100" cy="100" r="97"/>
	</g>
</g>
<g id="Regular-S" transform="matrix(1 0 0 1 1396.74 696)">
	<path class="st1" d="M-1323.3-578.9h7.4v-37.5h-7.4c-10.9,0-16.7,5.7-16.7,16.1v5.2C-1340.1-584.5-1334.2-578.9-1323.3-578.9z
		 M-1310.2-578.8c10.6,1.2,24,4.4,34.8,9.4c0-0.4,0-0.8,0-1.2v-53.7c0-0.5,0-0.9,0-1.4c-10.9,5.1-25.3,8.3-34.8,9.4V-578.8z
		 M-1261.5-560.3c4.8,0,8.1-3.3,8.1-8.2v-58.6c0-4.8-3.3-8.2-8.1-8.2c-4.8,0-8.2,3.3-8.2,8.2v58.6
		C-1269.7-563.6-1266.3-560.3-1261.5-560.3z M-1308.4-552.8c4.9,0,8.4-3.3,7.2-9.3l-2.1-9.8c-3.2-0.6-8-1-18.8-1.3c-0.4,0-1,0-1.6,0
		l6.2,13.5C-1315.5-555.4-1313-552.8-1308.4-552.8z"/>
</g>
</svg>
