<svg fill="none" viewBox="0 0 32 32" xmlns="http://www.w3.org/2000/svg"><g filter="url(#ab)"><circle cx="14.039" cy="17.961" r="12.039" fill="url(#v)"/><circle cx="14.039" cy="17.961" r="12.039" fill="url(#k)"/></g><circle cx="14.039" cy="17.961" r="8.8047" fill="url(#h)"/><circle cx="14.039" cy="17.961" r="8.8047" fill="url(#g)"/><circle cx="14.039" cy="17.961" r="8.8047" fill="url(#f)"/><circle cx="14.039" cy="17.961" r="5.7578" fill="url(#e)"/><circle cx="14.039" cy="17.961" r="5.7578" fill="url(#d)"/><circle cx="14.039" cy="17.961" r="2.8594" fill="#B7ABC8"/><circle cx="14.039" cy="17.961" r="2.8594" fill="url(#c)"/><circle cx="14.039" cy="17.961" r="2.8594" fill="url(#b)"/><g filter="url(#aa)"><path d="m14.282 28.929c6.0577 0 10.968-4.9108 10.968-10.968s-4.9108-10.968-10.968-10.968c-6.0577 0-10.968 4.9108-10.968 10.968s4.9108 10.968 10.968 10.968z" stroke="url(#a)" stroke-width=".65"/></g><path d="m14.134 17.875c-0.3385-0.3386-0.4635-0.7234-0.1249-1.062l1.715-1.7229c0.3386-0.3386 0.8875-0.3386 1.226 0 0.3386 0.3386 0.3386 0.8875 0 1.226l-1.715 1.7229c-0.3385 0.3386-0.7625 0.1745-1.1011-0.164z" fill="#7C7088"/><path d="m14.134 17.875c-0.3385-0.3386-0.4635-0.7234-0.1249-1.062l1.715-1.7229c0.3386-0.3386 0.8875-0.3386 1.226 0 0.3386 0.3386 0.3386 0.8875 0 1.226l-1.715 1.7229c-0.3385 0.3386-0.7625 0.1745-1.1011-0.164z" fill="url(#u)"/><path d="m14.134 17.875c-0.3385-0.3386-0.4635-0.7234-0.1249-1.062l1.715-1.7229c0.3386-0.3386 0.8875-0.3386 1.226 0 0.3386 0.3386 0.3386 0.8875 0 1.226l-1.715 1.7229c-0.3385 0.3386-0.7625 0.1745-1.1011-0.164z" fill="url(#t)"/><path d="m22.664 2.7719 1.2271 3.2437-4.4843 3.1406c-1.3353-3.5314 0.2977-5.6171 1.8134-6.826 0.4971-0.3965 1.2188-0.15307 1.4438 0.44166z" fill="#2983DF"/><path d="m22.664 2.7719 1.2271 3.2437-4.4843 3.1406c-1.3353-3.5314 0.2977-5.6171 1.8134-6.826 0.4971-0.3965 1.2188-0.15307 1.4438 0.44166z" fill="url(#s)"/><path d="m22.664 2.7719 1.2271 3.2437-4.4843 3.1406c-1.3353-3.5314 0.2977-5.6171 1.8134-6.826 0.4971-0.3965 1.2188-0.15307 1.4438 0.44166z" fill="url(#r)"/><path d="m29.197 9.3114-3.2586-1.1871-3.0852 4.5227c3.5476 1.2917 5.6131-0.367 6.8032-1.8974 0.3903-0.502 0.138-1.2206-0.4594-1.4382z" fill="#2980EB"/><path d="m29.197 9.3114-3.2586-1.1871-3.0852 4.5227c3.5476 1.2917 5.6131-0.367 6.8032-1.8974 0.3903-0.502 0.138-1.2206-0.4594-1.4382z" fill="url(#q)"/><path d="m29.197 9.3114-3.2586-1.1871-3.0852 4.5227c3.5476 1.2917 5.6131-0.367 6.8032-1.8974 0.3903-0.502 0.138-1.2206-0.4594-1.4382z" fill="url(#p)"/><g filter="url(#z)"><rect transform="rotate(-20.523 21.323 2.6242)" x="21.323" y="2.6242" width=".94554" height="5.2576" rx=".47277" fill="url(#o)"/></g><g filter="url(#y)"><rect transform="rotate(110.61 29.642 9.7205)" x="29.642" y="9.7205" width=".94554" height="5.2576" rx=".47277" fill="url(#n)"/></g><g filter="url(#x)"><path d="m16.68 10.71 6.6257-4.9096c0.8791-0.6572 2.1933-0.48594 2.8565 0.19709 0.7373 0.79118 0.8247 1.956 0.1923 2.8155l-4.8899 6.6455c-1.2284 1.6694-3.6502 1.8646-5.1301 0.4134-1.4916-1.4627-1.3277-3.911 0.3455-5.1619z" fill="#52BCF0"/></g><path d="m16.68 10.71 6.6257-4.9096c0.8791-0.6572 2.1933-0.48594 2.8565 0.19709 0.7373 0.79118 0.8247 1.956 0.1923 2.8155l-4.8899 6.6455c-1.2284 1.6694-3.6502 1.8646-5.1301 0.4134-1.4916-1.4627-1.3277-3.911 0.3455-5.1619z" fill="url(#m)"/><path d="m16.68 10.71 6.6257-4.9096c0.8791-0.6572 2.1933-0.48594 2.8565 0.19709 0.7373 0.79118 0.8247 1.956 0.1923 2.8155l-4.8899 6.6455c-1.2284 1.6694-3.6502 1.8646-5.1301 0.4134-1.4916-1.4627-1.3277-3.911 0.3455-5.1619z" fill="url(#l)"/><path d="m16.68 10.71 6.6257-4.9096c0.8791-0.6572 2.1933-0.48594 2.8565 0.19709 0.7373 0.79118 0.8247 1.956 0.1923 2.8155l-4.8899 6.6455c-1.2284 1.6694-3.6502 1.8646-5.1301 0.4134-1.4916-1.4627-1.3277-3.911 0.3455-5.1619z" fill="url(#j)"/><g filter="url(#w)"><rect transform="rotate(45 26.024 4.7419)" x="26.024" y="4.7419" width="1.768" height="9.0377" rx=".88401" fill="#2984E4"/></g><rect transform="rotate(45 26.024 4.7419)" x="26.024" y="4.7419" width="1.768" height="9.0377" rx=".88401" fill="url(#i)"/><defs><filter id="ab" x="2" y="5.4219" width="24.578" height="25.078" color-interpolation-filters="sRGB" filterUnits="userSpaceOnUse"><feFlood flood-opacity="0" result="BackgroundImageFix"/><feBlend in="SourceGraphic" in2="BackgroundImageFix" result="shape"/><feColorMatrix in="SourceAlpha" result="hardAlpha" values="0 0 0 0 0 0 0 0 0 0 0 0 0 0 0 0 0 0 127 0"/><feOffset dx="0.5" dy="-0.5"/><feGaussianBlur stdDeviation="0.5"/><feComposite in2="hardAlpha" k2="-1" k3="1" operator="arithmetic"/><feColorMatrix values="0 0 0 0 0.737255 0 0 0 0 0.160784 0 0 0 0 0.329412 0 0 0 1 0"/><feBlend in2="shape" result="effect1_innerShadow_18_3225"/><feColorMatrix in="SourceAlpha" result="hardAlpha" values="0 0 0 0 0 0 0 0 0 0 0 0 0 0 0 0 0 0 127 0"/><feOffset dx="0.5" dy="0.5"/><feGaussianBlur stdDeviation="0.5"/><feComposite in2="hardAlpha" k2="-1" k3="1" operator="arithmetic"/><feColorMatrix values="0 0 0 0 0.74902 0 0 0 0 0.341176 0 0 0 0 0.490196 0 0 0 1 0"/><feBlend in2="effect1_innerShadow_18_3225" result="effect2_innerShadow_18_3225"/></filter><filter id="aa" x="2.3382" y="6.0175" width="23.887" height="23.887" color-interpolation-filters="sRGB" filterUnits="userSpaceOnUse"><feFlood flood-opacity="0" result="BackgroundImageFix"/><feBlend in="SourceGraphic" in2="BackgroundImageFix" result="shape"/><feGaussianBlur result="effect1_foregroundBlur_18_3225" stdDeviation="0.325"/></filter><filter id="z" x="20.958" y="1.9282" width="3.4576" height="5.9842" color-interpolation-filters="sRGB" filterUnits="userSpaceOnUse"><feFlood flood-opacity="0" result="BackgroundImageFix"/><feBlend in="SourceGraphic" in2="BackgroundImageFix" result="shape"/><feGaussianBlur result="effect1_foregroundBlur_18_3225" stdDeviation="0.25"/></filter><filter id="y" x="24.024" y="7.5056" width="5.9818" height="3.4639" color-interpolation-filters="sRGB" filterUnits="userSpaceOnUse"><feFlood flood-opacity="0" result="BackgroundImageFix"/><feBlend in="SourceGraphic" in2="BackgroundImageFix" result="shape"/><feGaussianBlur result="effect1_foregroundBlur_18_3225" stdDeviation="0.25"/></filter><filter id="x" x="15.313" y="5.3867" width="11.715" height="11.71" color-interpolation-filters="sRGB" filterUnits="userSpaceOnUse"><feFlood flood-opacity="0" result="BackgroundImageFix"/><feBlend in="SourceGraphic" in2="BackgroundImageFix" result="shape"/><feColorMatrix in="SourceAlpha" result="hardAlpha" values="0 0 0 0 0 0 0 0 0 0 0 0 0 0 0 0 0 0 127 0"/><feOffset dx="0.25" dy="0.25"/><feGaussianBlur stdDeviation="0.5"/><feComposite in2="hardAlpha" k2="-1" k3="1" operator="arithmetic"/><feColorMatrix values="0 0 0 0 0.45098 0 0 0 0 0.65098 0 0 0 0 0.737255 0 0 0 1 0"/><feBlend in2="shape" result="effect1_innerShadow_18_3225"/></filter><filter id="w" x="19.85" y="4.9582" width="7.2084" height="7.2084" color-interpolation-filters="sRGB" filterUnits="userSpaceOnUse"><feFlood flood-opacity="0" result="BackgroundImageFix"/><feBlend in="SourceGraphic" in2="BackgroundImageFix" result="shape"/><feColorMatrix in="SourceAlpha" result="hardAlpha" values="0 0 0 0 0 0 0 0 0 0 0 0 0 0 0 0 0 0 127 0"/><feOffset dx="0.15" dy="0.15"/><feGaussianBlur stdDeviation="0.15"/><feComposite in2="hardAlpha" k2="-1" k3="1" operator="arithmetic"/><feColorMatrix values="0 0 0 0 0.160784 0 0 0 0 0.521569 0 0 0 0 0.764706 0 0 0 1 0"/><feBlend in2="shape" result="effect1_innerShadow_18_3225"/><feColorMatrix in="SourceAlpha" result="hardAlpha" values="0 0 0 0 0 0 0 0 0 0 0 0 0 0 0 0 0 0 127 0"/><feOffset dx="-0.15" dy="-0.15"/><feGaussianBlur stdDeviation="0.225"/><feComposite in2="hardAlpha" k2="-1" k3="1" operator="arithmetic"/><feColorMatrix values="0 0 0 0 0.235294 0 0 0 0 0.435294 0 0 0 0 0.831373 0 0 0 1 0"/><feBlend in2="effect1_innerShadow_18_3225" result="effect2_innerShadow_18_3225"/></filter><linearGradient id="v" x1="19.534" x2="9.4331" y1="7.1214" y2="27.666" gradientUnits="userSpaceOnUse"><stop stop-color="#E6378B" offset="0"/><stop stop-color="#EF3A5C" offset="1"/></linearGradient><radialGradient id="k" cx="0" cy="0" r="1" gradientTransform="translate(19.972 10.33) rotate(124.82) scale(5.3347 7.7581)" gradientUnits="userSpaceOnUse"><stop stop-color="#B82974" offset=".21911"/><stop stop-color="#B82974" stop-opacity="0" offset="1"/></radialGradient><linearGradient id="h" x1="20.353" x2="7.2788" y1="22.388" y2="8.8065" gradientUnits="userSpaceOnUse"><stop stop-color="#CEC3DF" offset="0"/><stop stop-color="#C5BCD3" offset="1"/></linearGradient><radialGradient id="g" cx="0" cy="0" r="1" gradientTransform="translate(11.214 17.961) scale(11.63)" gradientUnits="userSpaceOnUse"><stop stop-color="#CBC4DF" stop-opacity="0" offset=".86129"/><stop stop-color="#CBC4DF" offset="1"/></radialGradient><radialGradient id="f" cx="0" cy="0" r="1" gradientTransform="translate(18.195 9.7585) rotate(118.22) scale(5.9062 3.2327)" gradientUnits="userSpaceOnUse"><stop stop-color="#9DA8B4" offset="0"/><stop stop-color="#9DA8B4" stop-opacity="0" offset="1"/></radialGradient><linearGradient id="e" x1="17.878" x2="11.087" y1="14.074" y2="23.214" gradientUnits="userSpaceOnUse"><stop stop-color="#D2347A" offset="0"/><stop stop-color="#ED3963" offset="1"/></linearGradient><radialGradient id="d" cx="0" cy="0" r="1" gradientTransform="translate(16.989 14.265) rotate(131.25) scale(4.4743)" gradientUnits="userSpaceOnUse"><stop stop-color="#962359" offset="0"/><stop stop-color="#962359" stop-opacity="0" offset=".94743"/></radialGradient><radialGradient id="c" cx="0" cy="0" r="1" gradientTransform="translate(13.499 16.994) rotate(67.204) scale(4.7503)" gradientUnits="userSpaceOnUse"><stop stop-color="#C9BED9" stop-opacity="0" offset=".613"/><stop stop-color="#C9BED9" offset="1"/></radialGradient><radialGradient id="b" cx="0" cy="0" r="1" gradientTransform="translate(15.339 15.102) rotate(103.84) scale(3.7137)" gradientUnits="userSpaceOnUse"><stop stop-color="#857D97" offset="0"/><stop stop-color="#857D97" stop-opacity="0" offset="1"/></radialGradient><linearGradient id="a" x1="23.42" x2="16.829" y1="10.783" y2="17.524" gradientUnits="userSpaceOnUse"><stop stop-color="#FF6AA2" offset="0"/><stop stop-color="#FF6AA2" stop-opacity="0" offset="1"/></linearGradient><linearGradient id="u" x1="16.148" x2="15.507" y1="17.281" y2="16.622" gradientUnits="userSpaceOnUse"><stop stop-color="#7E5F8A" offset="0"/><stop stop-color="#7E5F8A" stop-opacity="0" offset="1"/></linearGradient><linearGradient id="t" x1="14.901" x2="15.139" y1="15.823" y2="16.048" gradientUnits="userSpaceOnUse"><stop stop-color="#746D7C" offset="0"/><stop stop-color="#746D7C" stop-opacity="0" offset="1"/></linearGradient><radialGradient id="s" cx="0" cy="0" r="1" gradientTransform="translate(21.579 6.1562) rotate(202.72) scale(2.7103 4.921)" gradientUnits="userSpaceOnUse"><stop stop-color="#6897C2" stop-opacity="0" offset=".74968"/><stop stop-color="#6897C2" offset="1"/></radialGradient><linearGradient id="r" x1="23.47" x2="21.876" y1="4.3125" y2="4.875" gradientUnits="userSpaceOnUse"><stop stop-color="#58C3FF" offset="0"/><stop stop-color="#58C3FF" stop-opacity="0" offset="1"/></linearGradient><linearGradient id="q" x1="28.126" x2="27.532" y1="8.5312" y2="9.8124" gradientUnits="userSpaceOnUse"><stop stop-color="#49B6FF" offset="0"/><stop stop-color="#49B6FF" stop-opacity="0" offset="1"/></linearGradient><radialGradient id="p" cx="0" cy="0" r="1" gradientTransform="translate(25.626 9.2343) rotate(79.579) scale(4.1465 5.3415)" gradientUnits="userSpaceOnUse"><stop stop-color="#5066D2" stop-opacity="0" offset=".81444"/><stop stop-color="#5066D2" offset=".92639"/></radialGradient><radialGradient id="o" cx="0" cy="0" r="1" gradientTransform="translate(21.826 2.947) rotate(86.925) scale(4.9959 1.0548)" gradientUnits="userSpaceOnUse"><stop stop-color="#61CEFF" offset="0"/><stop stop-color="#3CB8FF" stop-opacity="0" offset="1"/></radialGradient><radialGradient id="n" cx="0" cy="0" r="1" gradientTransform="translate(30.146 10.043) rotate(86.925) scale(4.9959 1.0548)" gradientUnits="userSpaceOnUse"><stop stop-color="#61CEFF" offset="0"/><stop stop-color="#3CB8FF" stop-opacity="0" offset="1"/></radialGradient><radialGradient id="m" cx="0" cy="0" r="1" gradientTransform="translate(27.157 5.875) rotate(143.33) scale(3.6625 3.774)" gradientUnits="userSpaceOnUse"><stop stop-color="#6BFFFF" offset=".42268"/><stop stop-color="#6BFFFF" stop-opacity="0" offset="1"/></radialGradient><radialGradient id="l" cx="0" cy="0" r="1" gradientTransform="translate(24.007 8.5459) rotate(137.68) scale(10.847 10.988)" gradientUnits="userSpaceOnUse"><stop stop-color="#5E9BDB" stop-opacity="0" offset=".83752"/><stop stop-color="#5E9BDB" offset="1"/></radialGradient><radialGradient id="j" cx="0" cy="0" r="1" gradientTransform="translate(20.894 11.116) rotate(134.32) scale(1.9705 1.0369)" gradientUnits="userSpaceOnUse"><stop stop-color="#49A0E1" offset=".36054"/><stop stop-color="#49A0E1" stop-opacity="0" offset="1"/></radialGradient><radialGradient id="i" cx="0" cy="0" r="1" gradientTransform="translate(26.831 5.6258) rotate(-89.569) scale(2.939 1.1195)" gradientUnits="userSpaceOnUse"><stop stop-color="#60CAFF" offset="0"/><stop stop-color="#60CAFF" stop-opacity="0" offset="1"/></radialGradient></defs></svg>
