<svg fill="none" viewBox="0 0 32 32" xmlns="http://www.w3.org/2000/svg"><g filter="url(#y)"><path d="m9.4525 11.179-2.9262-8.8876c-0.07756-0.23558 0.19825-0.42815 0.39267-0.27417l7.1426 5.6568c0.2163 0.17136 0.5306 0.135 0.7021-0.08123l2.6185-3.301c0.1374-0.17319 0.4155-0.09594 0.4438 0.1233l0.5513 4.2635c0.0397 0.30696 0.3459 0.50449 0.642 0.41407l7.2114-2.2028c0.2388-0.07294 0.4252 0.21075 0.2635 0.40101l-4.631 5.4482c-0.2041 0.2401-0.1378 0.607 0.1375 0.7605l7.2776 4.0579c0.2174 0.1212 0.1434 0.4511-0.105 0.4678l-8.2578 0.5549c-0.3327 0.0223-0.5507 0.3578-0.436 0.6709l1.5628 4.2652c0.0852 0.2327-0.1836 0.4343-0.3831 0.2873l-3.6967-2.7251c-0.2599-0.1916-0.6305-0.0903-0.7568 0.2068l-3.5912 8.4467c-0.0977 0.2296-0.4345 0.1902-0.4765-0.0557l-1.6888-9.8855c-0.0486-0.2846-0.3273-0.4689-0.6082-0.4024l-7.8066 1.8507c-0.25691 0.0609-0.42055-0.2663-0.21771-0.4353l5.5381-4.6151c0.27582-0.2299 0.22668-0.6669-0.09331-0.8298l-3.9547-2.0126c-0.20882-0.1063-0.16984-0.4157 0.05882-0.4668l4.7212-1.0561c0.28835-0.0645 0.45818-0.3636 0.36577-0.6443z" fill="url(#l)"/><path d="m9.4525 11.179-2.9262-8.8876c-0.07756-0.23558 0.19825-0.42815 0.39267-0.27417l7.1426 5.6568c0.2163 0.17136 0.5306 0.135 0.7021-0.08123l2.6185-3.301c0.1374-0.17319 0.4155-0.09594 0.4438 0.1233l0.5513 4.2635c0.0397 0.30696 0.3459 0.50449 0.642 0.41407l7.2114-2.2028c0.2388-0.07294 0.4252 0.21075 0.2635 0.40101l-4.631 5.4482c-0.2041 0.2401-0.1378 0.607 0.1375 0.7605l7.2776 4.0579c0.2174 0.1212 0.1434 0.4511-0.105 0.4678l-8.2578 0.5549c-0.3327 0.0223-0.5507 0.3578-0.436 0.6709l1.5628 4.2652c0.0852 0.2327-0.1836 0.4343-0.3831 0.2873l-3.6967-2.7251c-0.2599-0.1916-0.6305-0.0903-0.7568 0.2068l-3.5912 8.4467c-0.0977 0.2296-0.4345 0.1902-0.4765-0.0557l-1.6888-9.8855c-0.0486-0.2846-0.3273-0.4689-0.6082-0.4024l-7.8066 1.8507c-0.25691 0.0609-0.42055-0.2663-0.21771-0.4353l5.5381-4.6151c0.27582-0.2299 0.22668-0.6669-0.09331-0.8298l-3.9547-2.0126c-0.20882-0.1063-0.16984-0.4157 0.05882-0.4668l4.7212-1.0561c0.28835-0.0645 0.45818-0.3636 0.36577-0.6443z" fill="url(#i)"/></g><g filter="url(#u)"><path d="m10.811 15.501-1.6538 1.5428c-0.18274 0.1704-0.02988 0.4739 0.21588 0.4286l3.0623-0.5647c0.1474-0.0272 0.2854 0.0805 0.2949 0.23l0.3006 4.7583c0.0177 0.279 0.4031 0.3374 0.5025 0.076l1.5724-4.134c0.0614-0.1612 0.2637-0.2133 0.3953-0.1018l1.3921 1.1796c0.1844 0.1562 0.4612-0.0141 0.4048-0.2491l-0.4622-1.9256c-0.0393-0.1638 0.0914-0.3189 0.2595-0.3078l5.2633 0.3465c0.2245 0.0147 0.2987-0.2949 0.0919-0.3835l-4.9934-2.1381c-0.1363-0.0583-0.1922-0.2219-0.12-0.3514l0.8891-1.5958c0.1109-0.1991-0.0807-0.4307-0.297-0.359l-1.9521 0.6468c-0.1634 0.0542-0.3314-0.0692-0.3286-0.2414l0.0618-3.7534c0.0044-0.26624-0.3551-0.3539-0.4738-0.11552l-1.3273 2.6663c-0.0698 0.1401-0.2497 0.1824-0.3746 0.088l-2.4456-1.8489c-0.1919-0.14507-0.4579 0.03806-0.3909 0.26909l0.9271 3.1952c0.041 0.1411-0.0481 0.287-0.1924 0.315l-2.666 0.5184c-0.23883 0.0465-0.27734 0.3721-0.05593 0.4729l2.0332 0.9263c0.1621 0.0738 0.1972 0.2887 0.0669 0.4103z" fill="#A2131B"/></g><g filter="url(#t)"><path d="m12.539 15.318-1.4286 1.3328c-0.1827 0.1704-0.0299 0.474 0.2159 0.4286l2.6936-0.4968c0.1474-0.0271 0.2854 0.0806 0.2948 0.2301l0.2659 4.2083c0.0177 0.279 0.4031 0.3374 0.5025 0.076l1.3851-3.6414c0.0613-0.1612 0.2637-0.2133 0.3953-0.1018l1.1942 1.0118c0.1843 0.1563 0.4611-0.0141 0.4047-0.2491l-0.3987-1.6611c-0.0393-0.1638 0.0914-0.3189 0.2595-0.3078l4.6665 0.3072c0.2244 0.0147 0.2986-0.2949 0.0918-0.3835l-4.4358-1.8993c-0.1363-0.0584-0.1922-0.222-0.12-0.3515l0.7712-1.3842c0.111-0.1991-0.0806-0.4307-0.297-0.359l-1.6967 0.5622c-0.1634 0.0542-0.3314-0.0693-0.3286-0.2414l0.0542-3.2941c0.0044-0.26624-0.3551-0.3539-0.4737-0.11552l-1.1551 2.3202c-0.0698 0.1402-0.2497 0.1825-0.3746 0.0881l-2.1558-1.6299c-0.1919-0.14508-0.4579 0.03806-0.3909 0.26906l0.8201 2.8265c0.041 0.1411-0.0481 0.287-0.1923 0.315l-2.3397 0.455c-0.2388 0.0464-0.2773 0.372-0.0559 0.4729l1.7612 0.8023c0.1622 0.0739 0.1972 0.2888 0.0669 0.4103z" fill="#FFB628"/></g><g filter="url(#s)"><path d="m8 3.5 5.3438 4.4219" stroke="url(#h)" stroke-linecap="round" stroke-width=".25"/></g><g filter="url(#r)"><path d="m17.511 5.5 0.4435 3.2822c0.0546 0.40347 0.4539 0.665 0.8456 0.5537v0" stroke="url(#g)" stroke-linecap="round" stroke-width=".25"/></g><g filter="url(#q)"><path d="m16.711 9.5v2.875c0 0.2244 0.1819 0.4062 0.4062 0.4062v0" stroke="url(#f)" stroke-linecap="round" stroke-width=".25"/></g><g filter="url(#p)"><path d="m18.781 12.75-0.5351 1.0061c-0.134 0.2519-0.0304 0.5647 0.2275 0.6868l3.0264 1.4321" stroke="url(#e)" stroke-linecap="round" stroke-width=".25"/></g><g filter="url(#o)"><path d="m21.514 23.344-1.4531-3.8438" stroke="url(#d)" stroke-linecap="round" stroke-opacity=".6" stroke-width=".25"/></g><g filter="url(#n)"><path d="m28.141 17.211-6.4591-3.5617c-0.4126-0.2275-0.6476-0.681-0.5956-1.1492v0" stroke="url(#c)" stroke-linecap="round" stroke-width=".25"/></g><g filter="url(#m)"><path d="m13 10.5 1.9062 1.5469" stroke="url(#b)" stroke-linecap="round" stroke-width=".25"/></g><g filter="url(#x)"><path d="M16.3125 17L15 20.5625" stroke="url(#a)" stroke-linecap="round" stroke-width=".25"/></g><g filter="url(#w)"><path d="m17.5 15.75 0.5469 1.9688" stroke="url(#k)" stroke-linecap="round" stroke-width=".25"/></g><g filter="url(#v)"><ellipse transform="rotate(45.133 18.817 12.49)" cx="18.817" cy="12.49" rx=".21842" ry=".47514" fill="url(#j)"/></g><defs><filter id="y" x="2.7255" y="1.9622" width="26.831" height="28.072" color-interpolation-filters="sRGB" filterUnits="userSpaceOnUse"><feFlood flood-opacity="0" result="BackgroundImageFix"/><feBlend in="SourceGraphic" in2="BackgroundImageFix" result="shape"/><feColorMatrix in="SourceAlpha" result="hardAlpha" values="0 0 0 0 0 0 0 0 0 0 0 0 0 0 0 0 0 0 127 0"/><feOffset dx="0.15" dy="0.15"/><feGaussianBlur stdDeviation="0.5"/><feComposite in2="hardAlpha" k2="-1" k3="1" operator="arithmetic"/><feColorMatrix values="0 0 0 0 0.770833 0 0 0 0 0.102778 0 0 0 0 0.344827 0 0 0 1 0"/><feBlend in2="shape" result="effect1_innerShadow_7139_6201"/></filter><filter id="u" x="6.5644" y="6.3491" width="18.008" height="17.79" color-interpolation-filters="sRGB" filterUnits="userSpaceOnUse"><feFlood flood-opacity="0" result="BackgroundImageFix"/><feBlend in="SourceGraphic" in2="BackgroundImageFix" result="shape"/><feGaussianBlur result="effect1_foregroundBlur_7139_6201" stdDeviation="1"/></filter><filter id="t" x="10.564" y="8.8491" width="12.789" height="12.665" color-interpolation-filters="sRGB" filterUnits="userSpaceOnUse"><feFlood flood-opacity="0" result="BackgroundImageFix"/><feBlend in="SourceGraphic" in2="BackgroundImageFix" result="shape"/><feColorMatrix in="SourceAlpha" result="hardAlpha" values="0 0 0 0 0 0 0 0 0 0 0 0 0 0 0 0 0 0 127 0"/><feOffset dx="0.15" dy="0.25"/><feGaussianBlur stdDeviation="0.2"/><feComposite in2="hardAlpha" k2="-1" k3="1" operator="arithmetic"/><feColorMatrix values="0 0 0 0 0.966667 0 0 0 0 0.507026 0 0 0 0 0 0 0 0 1 0"/><feBlend in2="shape" result="effect1_innerShadow_7139_6201"/></filter><filter id="s" x="7.625" y="3.125" width="6.0938" height="5.1719" color-interpolation-filters="sRGB" filterUnits="userSpaceOnUse"><feFlood flood-opacity="0" result="BackgroundImageFix"/><feBlend in="SourceGraphic" in2="BackgroundImageFix" result="shape"/><feGaussianBlur result="effect1_foregroundBlur_7139_6201" stdDeviation="0.125"/></filter><filter id="r" x="17.136" y="5.125" width="1.9482" height="4.6118" color-interpolation-filters="sRGB" filterUnits="userSpaceOnUse"><feFlood flood-opacity="0" result="BackgroundImageFix"/><feBlend in="SourceGraphic" in2="BackgroundImageFix" result="shape"/><feGaussianBlur result="effect1_foregroundBlur_7139_6201" stdDeviation="0.125"/></filter><filter id="q" x="16.336" y="9.125" width="1.0312" height="4.0312" color-interpolation-filters="sRGB" filterUnits="userSpaceOnUse"><feFlood flood-opacity="0" result="BackgroundImageFix"/><feBlend in="SourceGraphic" in2="BackgroundImageFix" result="shape"/><feGaussianBlur result="effect1_foregroundBlur_7139_6201" stdDeviation="0.125"/></filter><filter id="p" x="17.812" y="12.375" width="4.0627" height="3.875" color-interpolation-filters="sRGB" filterUnits="userSpaceOnUse"><feFlood flood-opacity="0" result="BackgroundImageFix"/><feBlend in="SourceGraphic" in2="BackgroundImageFix" result="shape"/><feGaussianBlur result="effect1_foregroundBlur_7139_6201" stdDeviation="0.125"/></filter><filter id="o" x="19.686" y="19.125" width="2.2032" height="4.5938" color-interpolation-filters="sRGB" filterUnits="userSpaceOnUse"><feFlood flood-opacity="0" result="BackgroundImageFix"/><feBlend in="SourceGraphic" in2="BackgroundImageFix" result="shape"/><feGaussianBlur result="effect1_foregroundBlur_7139_6201" stdDeviation="0.125"/></filter><filter id="n" x="20.704" y="12.236" width="7.8119" height="5.3498" color-interpolation-filters="sRGB" filterUnits="userSpaceOnUse"><feFlood flood-opacity="0" result="BackgroundImageFix"/><feBlend in="SourceGraphic" in2="BackgroundImageFix" result="shape"/><feGaussianBlur result="effect1_foregroundBlur_7139_6201" stdDeviation="0.125"/></filter><filter id="m" x="12.625" y="10.125" width="2.6563" height="2.2969" color-interpolation-filters="sRGB" filterUnits="userSpaceOnUse"><feFlood flood-opacity="0" result="BackgroundImageFix"/><feBlend in="SourceGraphic" in2="BackgroundImageFix" result="shape"/><feGaussianBlur result="effect1_foregroundBlur_7139_6201" stdDeviation="0.125"/></filter><filter id="x" x="14.625" y="16.625" width="2.0626" height="4.3125" color-interpolation-filters="sRGB" filterUnits="userSpaceOnUse"><feFlood flood-opacity="0" result="BackgroundImageFix"/><feBlend in="SourceGraphic" in2="BackgroundImageFix" result="shape"/><feGaussianBlur result="effect1_foregroundBlur_7139_6201" stdDeviation="0.125"/></filter><filter id="w" x="17.125" y="15.375" width="1.2969" height="2.7188" color-interpolation-filters="sRGB" filterUnits="userSpaceOnUse"><feFlood flood-opacity="0" result="BackgroundImageFix"/><feBlend in="SourceGraphic" in2="BackgroundImageFix" result="shape"/><feGaussianBlur result="effect1_foregroundBlur_7139_6201" stdDeviation="0.125"/></filter><filter id="v" x="18.347" y="12.021" width=".94084" height=".93877" color-interpolation-filters="sRGB" filterUnits="userSpaceOnUse"><feFlood flood-opacity="0" result="BackgroundImageFix"/><feBlend in="SourceGraphic" in2="BackgroundImageFix" result="shape"/><feGaussianBlur result="effect1_foregroundBlur_7139_6201" stdDeviation="0.05"/></filter><linearGradient id="l" x1="18.953" x2="16.008" y1="28.859" y2="-1.8906" gradientUnits="userSpaceOnUse"><stop stop-color="#E81123" offset="0"/><stop stop-color="#EA0A4F" offset=".37158"/><stop stop-color="#EC008C" offset=".80729"/></linearGradient><linearGradient id="i" x1="18.984" x2="19.75" y1="12.381" y2="-8.8381" gradientUnits="userSpaceOnUse"><stop stop-color="#A11749" stop-opacity="0" offset=".29689"/><stop stop-color="#A21749" offset=".77394"/><stop stop-color="#A21749" offset=".81771"/></linearGradient><linearGradient id="h" x1="13.625" x2="9.3633" y1="8.2656" y2="6.1283" gradientUnits="userSpaceOnUse"><stop stop-color="#FF5696" offset="0"/><stop stop-color="#FF5696" stop-opacity="0" offset="1"/></linearGradient><linearGradient id="g" x1="16.886" x2="14.228" y1="9.3125" y2="5.2834" gradientUnits="userSpaceOnUse"><stop stop-color="#FF5696" offset="0"/><stop stop-color="#FF5696" stop-opacity="0" offset="1"/></linearGradient><linearGradient id="f" x1="16.836" x2="16.914" y1="10.578" y2="8.4375" gradientUnits="userSpaceOnUse"><stop stop-color="#FFD530" offset="0"/><stop stop-color="#FFD530" stop-opacity="0" offset="1"/></linearGradient><linearGradient id="e" x1="21.859" x2="16.172" y1="15.328" y2="11.672" gradientUnits="userSpaceOnUse"><stop stop-color="#FFD530" stop-opacity="0" offset="0"/><stop stop-color="#FFD530" offset=".41238"/><stop stop-color="#FFD530" stop-opacity="0" offset="1"/></linearGradient><linearGradient id="d" x1="20.061" x2="25.393" y1="19.609" y2="26.022" gradientUnits="userSpaceOnUse"><stop stop-color="#FF5C7A" offset=".16705"/><stop stop-color="#FF5C7A" stop-opacity="0" offset=".75"/></linearGradient><linearGradient id="c" x1="21.797" x2="29.718" y1="14.086" y2="15.317" gradientUnits="userSpaceOnUse"><stop stop-color="#FF3E87" offset="0"/><stop stop-color="#FF3E87" stop-opacity="0" offset="1"/></linearGradient><linearGradient id="b" x1="14.875" x2="13.109" y1="12.594" y2="10.844" gradientUnits="userSpaceOnUse"><stop stop-color="#FFD530" offset="0"/><stop stop-color="#FFD530" stop-opacity="0" offset="1"/></linearGradient><linearGradient id="a" x1="15.906" x2="17.172" y1="19.859" y2="16.703" gradientUnits="userSpaceOnUse"><stop stop-color="#FFD530" offset="0"/><stop stop-color="#FFD530" stop-opacity="0" offset="1"/></linearGradient><linearGradient id="k" x1="18.547" x2="17.68" y1="17.609" y2="14.438" gradientUnits="userSpaceOnUse"><stop stop-color="#FFD530" offset="0"/><stop stop-color="#FFD530" stop-opacity="0" offset="1"/></linearGradient><linearGradient id="j" x1="18.817" x2="18.689" y1="12.015" y2="12.878" gradientUnits="userSpaceOnUse"><stop stop-color="#FFD530" offset="0"/><stop stop-color="#FFD530" stop-opacity="0" offset="1"/></linearGradient></defs></svg>
