<svg fill="none" viewBox="0 0 32 32" xmlns="http://www.w3.org/2000/svg"><path d="m10.984 22.625-8.1094-8.1719c-1.3203-1.3203-0.82813-2.6406-0.24999-3.2187l8.5625-8.5156c1.0235-1.0234 2.1875-0.82811 3.125 0.10939l8.0625 8-11.391 11.797z" fill="#8A584C"/><path d="m10.984 22.625-8.1094-8.1719c-1.3203-1.3203-0.82813-2.6406-0.24999-3.2187l8.5625-8.5156c1.0235-1.0234 2.1875-0.82811 3.125 0.10939l8.0625 8-11.391 11.797z" fill="url(#ap)"/><path d="m10.984 22.625-8.1094-8.1719c-1.3203-1.3203-0.82813-2.6406-0.24999-3.2187l8.5625-8.5156c1.0235-1.0234 2.1875-0.82811 3.125 0.10939l8.0625 8-11.391 11.797z" fill="url(#ae)"/><path d="m10.984 22.625-8.1094-8.1719c-1.3203-1.3203-0.82813-2.6406-0.24999-3.2187l8.5625-8.5156c1.0235-1.0234 2.1875-0.82811 3.125 0.10939l8.0625 8-11.391 11.797z" fill="url(#t)"/><g filter="url(#az)"><path d="m6.4631 9.7234c0.01349-0.01287 0.0273-0.02553 0.04157-0.03753 0.53287-0.44778 1.2105-0.43783 1.7342 0.00778 0.00812 0.00691 0.01576 0.01374 0.02362 0.02095 0.1007 0.09225 0.84646 0.77707 1.4172 1.3479 0.57851 0.5785 1.2534 1.316 1.328 1.3977 0.0048 0.0052 0.0092 0.0101 0.0138 0.0154 0.4518 0.5196 0.4834 1.2115 0.0044 1.7472-0.0075 0.0084-0.0146 0.0164-0.022 0.0249-0.0835 0.0958-0.6469 0.739-1.3242 1.4163-0.65405 0.6541-1.2771 1.2338-1.4056 1.3528-0.01635 0.0151-0.03279 0.0296-0.05022 0.0434-0.57977 0.4619-1.2228 0.394-1.7393-0.0602-8.5e-4 -7e-4 -0.00112-1e-3 -0.00197-0.0017-0.02685-0.0236-0.82893-0.7275-1.4357-1.3343-0.60623-0.6062-1.3019-1.3998-1.3264-1.4278-7.8e-4 -9e-4 -0.00107-0.0012-0.00184-0.0021-0.46506-0.5359-0.45286-1.2548-0.00911-1.755 0.00678-0.0076 0.01353-0.0149 0.02058-0.0223 0.09356-0.0981 0.80576-0.8443 1.3558-1.3943 0.53487-0.5349 1.2487-1.2166 1.3771-1.3391z" fill="#824534"/><path d="m6.4631 9.7234c0.01349-0.01287 0.0273-0.02553 0.04157-0.03753 0.53287-0.44778 1.2105-0.43783 1.7342 0.00778 0.00812 0.00691 0.01576 0.01374 0.02362 0.02095 0.1007 0.09225 0.84646 0.77707 1.4172 1.3479 0.57851 0.5785 1.2534 1.316 1.328 1.3977 0.0048 0.0052 0.0092 0.0101 0.0138 0.0154 0.4518 0.5196 0.4834 1.2115 0.0044 1.7472-0.0075 0.0084-0.0146 0.0164-0.022 0.0249-0.0835 0.0958-0.6469 0.739-1.3242 1.4163-0.65405 0.6541-1.2771 1.2338-1.4056 1.3528-0.01635 0.0151-0.03279 0.0296-0.05022 0.0434-0.57977 0.4619-1.2228 0.394-1.7393-0.0602-8.5e-4 -7e-4 -0.00112-1e-3 -0.00197-0.0017-0.02685-0.0236-0.82893-0.7275-1.4357-1.3343-0.60623-0.6062-1.3019-1.3998-1.3264-1.4278-7.8e-4 -9e-4 -0.00107-0.0012-0.00184-0.0021-0.46506-0.5359-0.45286-1.2548-0.00911-1.755 0.00678-0.0076 0.01353-0.0149 0.02058-0.0223 0.09356-0.0981 0.80576-0.8443 1.3558-1.3943 0.53487-0.5349 1.2487-1.2166 1.3771-1.3391z" fill="url(#i)"/><path d="m6.4631 9.7234c0.01349-0.01287 0.0273-0.02553 0.04157-0.03753 0.53287-0.44778 1.2105-0.43783 1.7342 0.00778 0.00812 0.00691 0.01576 0.01374 0.02362 0.02095 0.1007 0.09225 0.84646 0.77707 1.4172 1.3479 0.57851 0.5785 1.2534 1.316 1.328 1.3977 0.0048 0.0052 0.0092 0.0101 0.0138 0.0154 0.4518 0.5196 0.4834 1.2115 0.0044 1.7472-0.0075 0.0084-0.0146 0.0164-0.022 0.0249-0.0835 0.0958-0.6469 0.739-1.3242 1.4163-0.65405 0.6541-1.2771 1.2338-1.4056 1.3528-0.01635 0.0151-0.03279 0.0296-0.05022 0.0434-0.57977 0.4619-1.2228 0.394-1.7393-0.0602-8.5e-4 -7e-4 -0.00112-1e-3 -0.00197-0.0017-0.02685-0.0236-0.82893-0.7275-1.4357-1.3343-0.60623-0.6062-1.3019-1.3998-1.3264-1.4278-7.8e-4 -9e-4 -0.00107-0.0012-0.00184-0.0021-0.46506-0.5359-0.45286-1.2548-0.00911-1.755 0.00678-0.0076 0.01353-0.0149 0.02058-0.0223 0.09356-0.0981 0.80576-0.8443 1.3558-1.3943 0.53487-0.5349 1.2487-1.2166 1.3771-1.3391z" fill="#7B3E41"/></g><path d="m6.7756 9.1609c0.01349-0.01287 0.0273-0.02553 0.04157-0.03753 0.53287-0.44778 1.2105-0.43783 1.7342 0.00778 0.00812 0.00691 0.01576 0.01374 0.02362 0.02095 0.1007 0.09225 0.84646 0.7771 1.4172 1.3479 0.57851 0.5785 1.2534 1.316 1.328 1.3977 0.0048 0.0052 0.0092 0.0101 0.0138 0.0154 0.4518 0.5196 0.4834 1.2115 0.0044 1.7472-0.0075 0.0084-0.0146 0.0164-0.022 0.0249-0.0835 0.0958-0.6469 0.739-1.3242 1.4163-0.65405 0.6541-1.2771 1.2338-1.4056 1.3528-0.01635 0.0151-0.03279 0.0296-0.05022 0.0434-0.57977 0.4619-1.2228 0.394-1.7393-0.0602-8.5e-4 -7e-4 -0.00112-1e-3 -0.00197-0.0017-0.02685-0.0236-0.82893-0.7275-1.4357-1.3343-0.60623-0.6062-1.3019-1.3998-1.3264-1.4278-7.8e-4 -9e-4 -0.00107-0.0012-0.00184-0.0021-0.46506-0.5359-0.45286-1.2548-0.00911-1.755 0.00678-0.0076 0.01353-0.0149 0.02058-0.0223 0.09356-0.0981 0.80576-0.8443 1.3558-1.3943 0.53487-0.53489 1.2487-1.2166 1.3771-1.3391z" fill="#824534"/><path d="m6.7756 9.1609c0.01349-0.01287 0.0273-0.02553 0.04157-0.03753 0.53287-0.44778 1.2105-0.43783 1.7342 0.00778 0.00812 0.00691 0.01576 0.01374 0.02362 0.02095 0.1007 0.09225 0.84646 0.7771 1.4172 1.3479 0.57851 0.5785 1.2534 1.316 1.328 1.3977 0.0048 0.0052 0.0092 0.0101 0.0138 0.0154 0.4518 0.5196 0.4834 1.2115 0.0044 1.7472-0.0075 0.0084-0.0146 0.0164-0.022 0.0249-0.0835 0.0958-0.6469 0.739-1.3242 1.4163-0.65405 0.6541-1.2771 1.2338-1.4056 1.3528-0.01635 0.0151-0.03279 0.0296-0.05022 0.0434-0.57977 0.4619-1.2228 0.394-1.7393-0.0602-8.5e-4 -7e-4 -0.00112-1e-3 -0.00197-0.0017-0.02685-0.0236-0.82893-0.7275-1.4357-1.3343-0.60623-0.6062-1.3019-1.3998-1.3264-1.4278-7.8e-4 -9e-4 -0.00107-0.0012-0.00184-0.0021-0.46506-0.5359-0.45286-1.2548-0.00911-1.755 0.00678-0.0076 0.01353-0.0149 0.02058-0.0223 0.09356-0.0981 0.80576-0.8443 1.3558-1.3943 0.53487-0.53489 1.2487-1.2166 1.3771-1.3391z" fill="url(#f)"/><path d="m6.7756 9.1609c0.01349-0.01287 0.0273-0.02553 0.04157-0.03753 0.53287-0.44778 1.2105-0.43783 1.7342 0.00778 0.00812 0.00691 0.01576 0.01374 0.02362 0.02095 0.1007 0.09225 0.84646 0.7771 1.4172 1.3479 0.57851 0.5785 1.2534 1.316 1.328 1.3977 0.0048 0.0052 0.0092 0.0101 0.0138 0.0154 0.4518 0.5196 0.4834 1.2115 0.0044 1.7472-0.0075 0.0084-0.0146 0.0164-0.022 0.0249-0.0835 0.0958-0.6469 0.739-1.3242 1.4163-0.65405 0.6541-1.2771 1.2338-1.4056 1.3528-0.01635 0.0151-0.03279 0.0296-0.05022 0.0434-0.57977 0.4619-1.2228 0.394-1.7393-0.0602-8.5e-4 -7e-4 -0.00112-1e-3 -0.00197-0.0017-0.02685-0.0236-0.82893-0.7275-1.4357-1.3343-0.60623-0.6062-1.3019-1.3998-1.3264-1.4278-7.8e-4 -9e-4 -0.00107-0.0012-0.00184-0.0021-0.46506-0.5359-0.45286-1.2548-0.00911-1.755 0.00678-0.0076 0.01353-0.0149 0.02058-0.0223 0.09356-0.0981 0.80576-0.8443 1.3558-1.3943 0.53487-0.53489 1.2487-1.2166 1.3771-1.3391z" fill="url(#e)"/><path d="m6.7756 9.1609c0.01349-0.01287 0.0273-0.02553 0.04157-0.03753 0.53287-0.44778 1.2105-0.43783 1.7342 0.00778 0.00812 0.00691 0.01576 0.01374 0.02362 0.02095 0.1007 0.09225 0.84646 0.7771 1.4172 1.3479 0.57851 0.5785 1.2534 1.316 1.328 1.3977 0.0048 0.0052 0.0092 0.0101 0.0138 0.0154 0.4518 0.5196 0.4834 1.2115 0.0044 1.7472-0.0075 0.0084-0.0146 0.0164-0.022 0.0249-0.0835 0.0958-0.6469 0.739-1.3242 1.4163-0.65405 0.6541-1.2771 1.2338-1.4056 1.3528-0.01635 0.0151-0.03279 0.0296-0.05022 0.0434-0.57977 0.4619-1.2228 0.394-1.7393-0.0602-8.5e-4 -7e-4 -0.00112-1e-3 -0.00197-0.0017-0.02685-0.0236-0.82893-0.7275-1.4357-1.3343-0.60623-0.6062-1.3019-1.3998-1.3264-1.4278-7.8e-4 -9e-4 -0.00107-0.0012-0.00184-0.0021-0.46506-0.5359-0.45286-1.2548-0.00911-1.755 0.00678-0.0076 0.01353-0.0149 0.02058-0.0223 0.09356-0.0981 0.80576-0.8443 1.3558-1.3943 0.53487-0.53489 1.2487-1.2166 1.3771-1.3391z" fill="url(#d)"/><path d="m6.7756 9.1609c0.01349-0.01287 0.0273-0.02553 0.04157-0.03753 0.53287-0.44778 1.2105-0.43783 1.7342 0.00778 0.00812 0.00691 0.01576 0.01374 0.02362 0.02095 0.1007 0.09225 0.84646 0.7771 1.4172 1.3479 0.57851 0.5785 1.2534 1.316 1.328 1.3977 0.0048 0.0052 0.0092 0.0101 0.0138 0.0154 0.4518 0.5196 0.4834 1.2115 0.0044 1.7472-0.0075 0.0084-0.0146 0.0164-0.022 0.0249-0.0835 0.0958-0.6469 0.739-1.3242 1.4163-0.65405 0.6541-1.2771 1.2338-1.4056 1.3528-0.01635 0.0151-0.03279 0.0296-0.05022 0.0434-0.57977 0.4619-1.2228 0.394-1.7393-0.0602-8.5e-4 -7e-4 -0.00112-1e-3 -0.00197-0.0017-0.02685-0.0236-0.82893-0.7275-1.4357-1.3343-0.60623-0.6062-1.3019-1.3998-1.3264-1.4278-7.8e-4 -9e-4 -0.00107-0.0012-0.00184-0.0021-0.46506-0.5359-0.45286-1.2548-0.00911-1.755 0.00678-0.0076 0.01353-0.0149 0.02058-0.0223 0.09356-0.0981 0.80576-0.8443 1.3558-1.3943 0.53487-0.53489 1.2487-1.2166 1.3771-1.3391z" fill="url(#c)"/><g filter="url(#ay)"><path d="m4.39 13.184c-0.15613-0.1798-0.16151-0.4439-0.00916-0.6269 0.29378-0.3529 0.81235-0.9539 1.4197-1.5613 0.60682-0.6068 1.2042-1.1219 1.5551-1.4137 0.18249-0.15174 0.44548-0.14666 0.62496 0.00863 0.407 0.35215 1.1233 0.98144 1.572 1.4301 0.44501 0.445 1.0677 1.1533 1.4214 1.562 0.1593 0.184 0.1603 0.455 2e-3 0.6399-0.3422 0.3993-0.941 1.0853-1.4058 1.5501-0.46442 0.4645-1.1497 1.0626-1.5491 1.4049-0.18529 0.1588-0.45732 0.1572-0.64154-0.0029-0.41771-0.3628-1.1447-1.003-1.5614-1.4196-0.41994-0.4199-1.067-1.1552-1.4283-1.5713z" fill="url(#b)"/><path d="m4.39 13.184c-0.15613-0.1798-0.16151-0.4439-0.00916-0.6269 0.29378-0.3529 0.81235-0.9539 1.4197-1.5613 0.60682-0.6068 1.2042-1.1219 1.5551-1.4137 0.18249-0.15174 0.44548-0.14666 0.62496 0.00863 0.407 0.35215 1.1233 0.98144 1.572 1.4301 0.44501 0.445 1.0677 1.1533 1.4214 1.562 0.1593 0.184 0.1603 0.455 2e-3 0.6399-0.3422 0.3993-0.941 1.0853-1.4058 1.5501-0.46442 0.4645-1.1497 1.0626-1.5491 1.4049-0.18529 0.1588-0.45732 0.1572-0.64154-0.0029-0.41771-0.3628-1.1447-1.003-1.5614-1.4196-0.41994-0.4199-1.067-1.1552-1.4283-1.5713z" fill="url(#a)"/><path d="m4.39 13.184c-0.15613-0.1798-0.16151-0.4439-0.00916-0.6269 0.29378-0.3529 0.81235-0.9539 1.4197-1.5613 0.60682-0.6068 1.2042-1.1219 1.5551-1.4137 0.18249-0.15174 0.44548-0.14666 0.62496 0.00863 0.407 0.35215 1.1233 0.98144 1.572 1.4301 0.44501 0.445 1.0677 1.1533 1.4214 1.562 0.1593 0.184 0.1603 0.455 2e-3 0.6399-0.3422 0.3993-0.941 1.0853-1.4058 1.5501-0.46442 0.4645-1.1497 1.0626-1.5491 1.4049-0.18529 0.1588-0.45732 0.1572-0.64154-0.0029-0.41771-0.3628-1.1447-1.003-1.5614-1.4196-0.41994-0.4199-1.067-1.1552-1.4283-1.5713z" fill="url(#ao)"/></g><path d="m11.963 4.0047c0.0135-0.01287 0.0273-0.02553 0.0416-0.03753 0.5328-0.44778 1.2105-0.43783 1.7342 0.00778 0.0081 0.00691 0.0157 0.01374 0.0236 0.02095 0.1007 0.09225 0.8464 0.7771 1.4172 1.3478 0.5785 0.57851 1.2534 1.316 1.328 1.3977 0.0048 0.00519 0.0092 0.01013 0.0138 0.01543 0.4518 0.51959 0.4834 1.2115 0.0044 1.7472-0.0075 0.00839-0.0146 0.0164-0.022 0.02488-0.0835 0.09584-0.6469 0.73904-1.3242 1.4164-0.6541 0.65401-1.2771 1.2337-1.4056 1.3527-0.0164 0.0152-0.0328 0.0296-0.0502 0.0435-0.5798 0.4619-1.2228 0.3939-1.7393-0.0602-9e-4 -8e-4 -0.0011-1e-3 -2e-3 -0.0018-0.0268-0.0235-0.8289-0.7274-1.4357-1.3342-0.60625-0.60623-1.3019-1.3999-1.3264-1.4279-7.8e-4 -8.9e-4 -0.00107-0.00122-0.00184-0.00212-0.46506-0.53587-0.45286-1.2547-0.00911-1.755 0.00678-0.00765 0.01353-0.01487 0.02058-0.02227 0.09356-0.09815 0.80578-0.8443 1.3558-1.3944 0.5349-0.53487 1.2488-1.2166 1.3772-1.339z" fill="#824534"/><path d="m11.963 4.0047c0.0135-0.01287 0.0273-0.02553 0.0416-0.03753 0.5328-0.44778 1.2105-0.43783 1.7342 0.00778 0.0081 0.00691 0.0157 0.01374 0.0236 0.02095 0.1007 0.09225 0.8464 0.7771 1.4172 1.3478 0.5785 0.57851 1.2534 1.316 1.328 1.3977 0.0048 0.00519 0.0092 0.01013 0.0138 0.01543 0.4518 0.51959 0.4834 1.2115 0.0044 1.7472-0.0075 0.00839-0.0146 0.0164-0.022 0.02488-0.0835 0.09584-0.6469 0.73904-1.3242 1.4164-0.6541 0.65401-1.2771 1.2337-1.4056 1.3527-0.0164 0.0152-0.0328 0.0296-0.0502 0.0435-0.5798 0.4619-1.2228 0.3939-1.7393-0.0602-9e-4 -8e-4 -0.0011-1e-3 -2e-3 -0.0018-0.0268-0.0235-0.8289-0.7274-1.4357-1.3342-0.60625-0.60623-1.3019-1.3999-1.3264-1.4279-7.8e-4 -8.9e-4 -0.00107-0.00122-0.00184-0.00212-0.46506-0.53587-0.45286-1.2547-0.00911-1.755 0.00678-0.00765 0.01353-0.01487 0.02058-0.02227 0.09356-0.09815 0.80578-0.8443 1.3558-1.3944 0.5349-0.53487 1.2488-1.2166 1.3772-1.339z" fill="url(#an)"/><path d="m11.963 4.0047c0.0135-0.01287 0.0273-0.02553 0.0416-0.03753 0.5328-0.44778 1.2105-0.43783 1.7342 0.00778 0.0081 0.00691 0.0157 0.01374 0.0236 0.02095 0.1007 0.09225 0.8464 0.7771 1.4172 1.3478 0.5785 0.57851 1.2534 1.316 1.328 1.3977 0.0048 0.00519 0.0092 0.01013 0.0138 0.01543 0.4518 0.51959 0.4834 1.2115 0.0044 1.7472-0.0075 0.00839-0.0146 0.0164-0.022 0.02488-0.0835 0.09584-0.6469 0.73904-1.3242 1.4164-0.6541 0.65401-1.2771 1.2337-1.4056 1.3527-0.0164 0.0152-0.0328 0.0296-0.0502 0.0435-0.5798 0.4619-1.2228 0.3939-1.7393-0.0602-9e-4 -8e-4 -0.0011-1e-3 -2e-3 -0.0018-0.0268-0.0235-0.8289-0.7274-1.4357-1.3342-0.60625-0.60623-1.3019-1.3999-1.3264-1.4279-7.8e-4 -8.9e-4 -0.00107-0.00122-0.00184-0.00212-0.46506-0.53587-0.45286-1.2547-0.00911-1.755 0.00678-0.00765 0.01353-0.01487 0.02058-0.02227 0.09356-0.09815 0.80578-0.8443 1.3558-1.3944 0.5349-0.53487 1.2488-1.2166 1.3772-1.339z" fill="url(#am)"/><path d="m11.963 4.0047c0.0135-0.01287 0.0273-0.02553 0.0416-0.03753 0.5328-0.44778 1.2105-0.43783 1.7342 0.00778 0.0081 0.00691 0.0157 0.01374 0.0236 0.02095 0.1007 0.09225 0.8464 0.7771 1.4172 1.3478 0.5785 0.57851 1.2534 1.316 1.328 1.3977 0.0048 0.00519 0.0092 0.01013 0.0138 0.01543 0.4518 0.51959 0.4834 1.2115 0.0044 1.7472-0.0075 0.00839-0.0146 0.0164-0.022 0.02488-0.0835 0.09584-0.6469 0.73904-1.3242 1.4164-0.6541 0.65401-1.2771 1.2337-1.4056 1.3527-0.0164 0.0152-0.0328 0.0296-0.0502 0.0435-0.5798 0.4619-1.2228 0.3939-1.7393-0.0602-9e-4 -8e-4 -0.0011-1e-3 -2e-3 -0.0018-0.0268-0.0235-0.8289-0.7274-1.4357-1.3342-0.60625-0.60623-1.3019-1.3999-1.3264-1.4279-7.8e-4 -8.9e-4 -0.00107-0.00122-0.00184-0.00212-0.46506-0.53587-0.45286-1.2547-0.00911-1.755 0.00678-0.00765 0.01353-0.01487 0.02058-0.02227 0.09356-0.09815 0.80578-0.8443 1.3558-1.3944 0.5349-0.53487 1.2488-1.2166 1.3772-1.339z" fill="url(#al)"/><path d="m11.963 4.0047c0.0135-0.01287 0.0273-0.02553 0.0416-0.03753 0.5328-0.44778 1.2105-0.43783 1.7342 0.00778 0.0081 0.00691 0.0157 0.01374 0.0236 0.02095 0.1007 0.09225 0.8464 0.7771 1.4172 1.3478 0.5785 0.57851 1.2534 1.316 1.328 1.3977 0.0048 0.00519 0.0092 0.01013 0.0138 0.01543 0.4518 0.51959 0.4834 1.2115 0.0044 1.7472-0.0075 0.00839-0.0146 0.0164-0.022 0.02488-0.0835 0.09584-0.6469 0.73904-1.3242 1.4164-0.6541 0.65401-1.2771 1.2337-1.4056 1.3527-0.0164 0.0152-0.0328 0.0296-0.0502 0.0435-0.5798 0.4619-1.2228 0.3939-1.7393-0.0602-9e-4 -8e-4 -0.0011-1e-3 -2e-3 -0.0018-0.0268-0.0235-0.8289-0.7274-1.4357-1.3342-0.60625-0.60623-1.3019-1.3999-1.3264-1.4279-7.8e-4 -8.9e-4 -0.00107-0.00122-0.00184-0.00212-0.46506-0.53587-0.45286-1.2547-0.00911-1.755 0.00678-0.00765 0.01353-0.01487 0.02058-0.02227 0.09356-0.09815 0.80578-0.8443 1.3558-1.3944 0.5349-0.53487 1.2488-1.2166 1.3772-1.339z" fill="url(#ak)"/><g filter="url(#ax)"><path d="m9.5802 8.0262c-0.15587-0.18035-0.16037-0.44482-0.00743-0.62766 0.30308-0.36231 0.8445-0.98768 1.4779-1.6212 0.6329-0.6329 1.2545-1.1707 1.6147-1.4716 0.1823-0.15232 0.4457-0.14814 0.6257 0.00686 0.4079 0.35128 1.1255 0.97894 1.5741 1.4275 0.445 0.44502 1.0663 1.1547 1.4191 1.5643 0.1589 0.18444 0.1591 0.45558 3e-4 0.64008-0.353 0.41009-0.9798 1.1256-1.4643 1.6101-0.4841 0.48412-1.1988 1.1102-1.6091 1.4633-0.1849 0.1592-0.4571 0.1584-0.6417-0.0012-0.4186-0.3619-1.1471-1.0007-1.5637-1.4173-0.4198-0.41981-1.0652-1.1563-1.4256-1.5733z" fill="url(#aj)"/><path d="m9.5802 8.0262c-0.15587-0.18035-0.16037-0.44482-0.00743-0.62766 0.30308-0.36231 0.8445-0.98768 1.4779-1.6212 0.6329-0.6329 1.2545-1.1707 1.6147-1.4716 0.1823-0.15232 0.4457-0.14814 0.6257 0.00686 0.4079 0.35128 1.1255 0.97894 1.5741 1.4275 0.445 0.44502 1.0663 1.1547 1.4191 1.5643 0.1589 0.18444 0.1591 0.45558 3e-4 0.64008-0.353 0.41009-0.9798 1.1256-1.4643 1.6101-0.4841 0.48412-1.1988 1.1102-1.6091 1.4633-0.1849 0.1592-0.4571 0.1584-0.6417-0.0012-0.4186-0.3619-1.1471-1.0007-1.5637-1.4173-0.4198-0.41981-1.0652-1.1563-1.4256-1.5733z" fill="url(#ai)"/><path d="m9.5802 8.0262c-0.15587-0.18035-0.16037-0.44482-0.00743-0.62766 0.30308-0.36231 0.8445-0.98768 1.4779-1.6212 0.6329-0.6329 1.2545-1.1707 1.6147-1.4716 0.1823-0.15232 0.4457-0.14814 0.6257 0.00686 0.4079 0.35128 1.1255 0.97894 1.5741 1.4275 0.445 0.44502 1.0663 1.1547 1.4191 1.5643 0.1589 0.18444 0.1591 0.45558 3e-4 0.64008-0.353 0.41009-0.9798 1.1256-1.4643 1.6101-0.4841 0.48412-1.1988 1.1102-1.6091 1.4633-0.1849 0.1592-0.4571 0.1584-0.6417-0.0012-0.4186-0.3619-1.1471-1.0007-1.5637-1.4173-0.4198-0.41981-1.0652-1.1563-1.4256-1.5733z" fill="url(#ah)"/></g><g filter="url(#aw)"><path d="m17.09 9.9283c0.0135-0.01286 0.0273-0.02553 0.0416-0.03752 0.5328-0.44779 1.2105-0.43783 1.7342 0.00778 0.0081 0.00691 0.0158 0.01374 0.0236 0.02094 0.1007 0.09228 0.8465 0.77708 1.4172 1.3479 0.5785 0.5785 1.2534 1.3159 1.3281 1.3977 0.0047 0.0052 0.0091 0.0101 0.0137 0.0154 0.4518 0.5196 0.4834 1.2115 0.0045 1.7472-0.0075 0.0084-0.0147 0.0164-0.0221 0.0249-0.0834 0.0958-0.6469 0.739-1.3242 1.4163-0.654 0.6541-1.2771 1.2338-1.4056 1.3528-0.0163 0.0151-0.0328 0.0296-0.0502 0.0434-0.5798 0.4619-1.2228 0.394-1.7393-0.0602-8e-4 -7e-4 -0.0011-1e-3 -2e-3 -0.0017-0.0268-0.0236-0.8289-0.7275-1.4357-1.3343-0.6062-0.6062-1.3019-1.3998-1.3264-1.4278-8e-4 -9e-4 -0.0011-0.0012-0.0018-0.0021-0.4651-0.5359-0.4529-1.2548-0.0091-1.755 0.0067-0.0076 0.0135-0.0149 0.0205-0.0223 0.0936-0.0981 0.8058-0.8443 1.3559-1.3943 0.5348-0.5349 1.2487-1.2166 1.3771-1.3391z" fill="#824534"/><path d="m17.09 9.9283c0.0135-0.01286 0.0273-0.02553 0.0416-0.03752 0.5328-0.44779 1.2105-0.43783 1.7342 0.00778 0.0081 0.00691 0.0158 0.01374 0.0236 0.02094 0.1007 0.09228 0.8465 0.77708 1.4172 1.3479 0.5785 0.5785 1.2534 1.3159 1.3281 1.3977 0.0047 0.0052 0.0091 0.0101 0.0137 0.0154 0.4518 0.5196 0.4834 1.2115 0.0045 1.7472-0.0075 0.0084-0.0147 0.0164-0.0221 0.0249-0.0834 0.0958-0.6469 0.739-1.3242 1.4163-0.654 0.6541-1.2771 1.2338-1.4056 1.3528-0.0163 0.0151-0.0328 0.0296-0.0502 0.0434-0.5798 0.4619-1.2228 0.394-1.7393-0.0602-8e-4 -7e-4 -0.0011-1e-3 -2e-3 -0.0017-0.0268-0.0236-0.8289-0.7275-1.4357-1.3343-0.6062-0.6062-1.3019-1.3998-1.3264-1.4278-8e-4 -9e-4 -0.0011-0.0012-0.0018-0.0021-0.4651-0.5359-0.4529-1.2548-0.0091-1.755 0.0067-0.0076 0.0135-0.0149 0.0205-0.0223 0.0936-0.0981 0.8058-0.8443 1.3559-1.3943 0.5348-0.5349 1.2487-1.2166 1.3771-1.3391z" fill="url(#ag)"/><path d="m17.09 9.9283c0.0135-0.01286 0.0273-0.02553 0.0416-0.03752 0.5328-0.44779 1.2105-0.43783 1.7342 0.00778 0.0081 0.00691 0.0158 0.01374 0.0236 0.02094 0.1007 0.09228 0.8465 0.77708 1.4172 1.3479 0.5785 0.5785 1.2534 1.3159 1.3281 1.3977 0.0047 0.0052 0.0091 0.0101 0.0137 0.0154 0.4518 0.5196 0.4834 1.2115 0.0045 1.7472-0.0075 0.0084-0.0147 0.0164-0.0221 0.0249-0.0834 0.0958-0.6469 0.739-1.3242 1.4163-0.654 0.6541-1.2771 1.2338-1.4056 1.3528-0.0163 0.0151-0.0328 0.0296-0.0502 0.0434-0.5798 0.4619-1.2228 0.394-1.7393-0.0602-8e-4 -7e-4 -0.0011-1e-3 -2e-3 -0.0017-0.0268-0.0236-0.8289-0.7275-1.4357-1.3343-0.6062-0.6062-1.3019-1.3998-1.3264-1.4278-8e-4 -9e-4 -0.0011-0.0012-0.0018-0.0021-0.4651-0.5359-0.4529-1.2548-0.0091-1.755 0.0067-0.0076 0.0135-0.0149 0.0205-0.0223 0.0936-0.0981 0.8058-0.8443 1.3559-1.3943 0.5348-0.5349 1.2487-1.2166 1.3771-1.3391z" fill="url(#af)"/><path d="m17.09 9.9283c0.0135-0.01286 0.0273-0.02553 0.0416-0.03752 0.5328-0.44779 1.2105-0.43783 1.7342 0.00778 0.0081 0.00691 0.0158 0.01374 0.0236 0.02094 0.1007 0.09228 0.8465 0.77708 1.4172 1.3479 0.5785 0.5785 1.2534 1.3159 1.3281 1.3977 0.0047 0.0052 0.0091 0.0101 0.0137 0.0154 0.4518 0.5196 0.4834 1.2115 0.0045 1.7472-0.0075 0.0084-0.0147 0.0164-0.0221 0.0249-0.0834 0.0958-0.6469 0.739-1.3242 1.4163-0.654 0.6541-1.2771 1.2338-1.4056 1.3528-0.0163 0.0151-0.0328 0.0296-0.0502 0.0434-0.5798 0.4619-1.2228 0.394-1.7393-0.0602-8e-4 -7e-4 -0.0011-1e-3 -2e-3 -0.0017-0.0268-0.0236-0.8289-0.7275-1.4357-1.3343-0.6062-0.6062-1.3019-1.3998-1.3264-1.4278-8e-4 -9e-4 -0.0011-0.0012-0.0018-0.0021-0.4651-0.5359-0.4529-1.2548-0.0091-1.755 0.0067-0.0076 0.0135-0.0149 0.0205-0.0223 0.0936-0.0981 0.8058-0.8443 1.3559-1.3943 0.5348-0.5349 1.2487-1.2166 1.3771-1.3391z" fill="url(#ad)"/><path d="m17.09 9.9283c0.0135-0.01286 0.0273-0.02553 0.0416-0.03752 0.5328-0.44779 1.2105-0.43783 1.7342 0.00778 0.0081 0.00691 0.0158 0.01374 0.0236 0.02094 0.1007 0.09228 0.8465 0.77708 1.4172 1.3479 0.5785 0.5785 1.2534 1.3159 1.3281 1.3977 0.0047 0.0052 0.0091 0.0101 0.0137 0.0154 0.4518 0.5196 0.4834 1.2115 0.0045 1.7472-0.0075 0.0084-0.0147 0.0164-0.0221 0.0249-0.0834 0.0958-0.6469 0.739-1.3242 1.4163-0.654 0.6541-1.2771 1.2338-1.4056 1.3528-0.0163 0.0151-0.0328 0.0296-0.0502 0.0434-0.5798 0.4619-1.2228 0.394-1.7393-0.0602-8e-4 -7e-4 -0.0011-1e-3 -2e-3 -0.0017-0.0268-0.0236-0.8289-0.7275-1.4357-1.3343-0.6062-0.6062-1.3019-1.3998-1.3264-1.4278-8e-4 -9e-4 -0.0011-0.0012-0.0018-0.0021-0.4651-0.5359-0.4529-1.2548-0.0091-1.755 0.0067-0.0076 0.0135-0.0149 0.0205-0.0223 0.0936-0.0981 0.8058-0.8443 1.3559-1.3943 0.5348-0.5349 1.2487-1.2166 1.3771-1.3391z" fill="#613534"/></g><path d="m17.494 9.4734c0.0135-0.01287 0.0273-0.02553 0.0416-0.03753 0.5329-0.44778 1.2105-0.43783 1.7342 0.00778 0.0081 0.00691 0.0158 0.01374 0.0236 0.02095 0.1007 0.09225 0.8465 0.77707 1.4172 1.3479 0.5786 0.5785 1.2534 1.316 1.3281 1.3977 0.0047 0.0052 0.0092 0.0101 0.0138 0.0154 0.4518 0.5196 0.4833 1.2115 0.0044 1.7472-0.0075 0.0084-0.0147 0.0164-0.0221 0.0249-0.0834 0.0958-0.6468 0.739-1.3242 1.4163-0.654 0.6541-1.2771 1.2338-1.4056 1.3528-0.0163 0.0151-0.0327 0.0296-0.0502 0.0434-0.5797 0.4619-1.2227 0.394-1.7393-0.0602-8e-4 -7e-4 -0.0011-1e-3 -0.0019-0.0017-0.0269-0.0236-0.829-0.7275-1.4358-1.3343-0.6062-0.6062-1.3018-1.3998-1.3264-1.4278-7e-4 -9e-4 -1e-3 -0.0012-0.0018-0.0021-0.4651-0.5359-0.4529-1.2548-0.0091-1.755 0.0068-0.0076 0.0135-0.0149 0.0206-0.0223 0.0935-0.0981 0.8057-0.8443 1.3558-1.3943 0.5349-0.5349 1.2487-1.2166 1.3771-1.3391z" fill="#824534"/><path d="m17.494 9.4734c0.0135-0.01287 0.0273-0.02553 0.0416-0.03753 0.5329-0.44778 1.2105-0.43783 1.7342 0.00778 0.0081 0.00691 0.0158 0.01374 0.0236 0.02095 0.1007 0.09225 0.8465 0.77707 1.4172 1.3479 0.5786 0.5785 1.2534 1.316 1.3281 1.3977 0.0047 0.0052 0.0092 0.0101 0.0138 0.0154 0.4518 0.5196 0.4833 1.2115 0.0044 1.7472-0.0075 0.0084-0.0147 0.0164-0.0221 0.0249-0.0834 0.0958-0.6468 0.739-1.3242 1.4163-0.654 0.6541-1.2771 1.2338-1.4056 1.3528-0.0163 0.0151-0.0327 0.0296-0.0502 0.0434-0.5797 0.4619-1.2227 0.394-1.7393-0.0602-8e-4 -7e-4 -0.0011-1e-3 -0.0019-0.0017-0.0269-0.0236-0.829-0.7275-1.4358-1.3343-0.6062-0.6062-1.3018-1.3998-1.3264-1.4278-7e-4 -9e-4 -1e-3 -0.0012-0.0018-0.0021-0.4651-0.5359-0.4529-1.2548-0.0091-1.755 0.0068-0.0076 0.0135-0.0149 0.0206-0.0223 0.0935-0.0981 0.8057-0.8443 1.3558-1.3943 0.5349-0.5349 1.2487-1.2166 1.3771-1.3391z" fill="url(#ac)"/><path d="m17.494 9.4734c0.0135-0.01287 0.0273-0.02553 0.0416-0.03753 0.5329-0.44778 1.2105-0.43783 1.7342 0.00778 0.0081 0.00691 0.0158 0.01374 0.0236 0.02095 0.1007 0.09225 0.8465 0.77707 1.4172 1.3479 0.5786 0.5785 1.2534 1.316 1.3281 1.3977 0.0047 0.0052 0.0092 0.0101 0.0138 0.0154 0.4518 0.5196 0.4833 1.2115 0.0044 1.7472-0.0075 0.0084-0.0147 0.0164-0.0221 0.0249-0.0834 0.0958-0.6468 0.739-1.3242 1.4163-0.654 0.6541-1.2771 1.2338-1.4056 1.3528-0.0163 0.0151-0.0327 0.0296-0.0502 0.0434-0.5797 0.4619-1.2227 0.394-1.7393-0.0602-8e-4 -7e-4 -0.0011-1e-3 -0.0019-0.0017-0.0269-0.0236-0.829-0.7275-1.4358-1.3343-0.6062-0.6062-1.3018-1.3998-1.3264-1.4278-7e-4 -9e-4 -1e-3 -0.0012-0.0018-0.0021-0.4651-0.5359-0.4529-1.2548-0.0091-1.755 0.0068-0.0076 0.0135-0.0149 0.0206-0.0223 0.0935-0.0981 0.8057-0.8443 1.3558-1.3943 0.5349-0.5349 1.2487-1.2166 1.3771-1.3391z" fill="url(#ab)"/><path d="m17.494 9.4734c0.0135-0.01287 0.0273-0.02553 0.0416-0.03753 0.5329-0.44778 1.2105-0.43783 1.7342 0.00778 0.0081 0.00691 0.0158 0.01374 0.0236 0.02095 0.1007 0.09225 0.8465 0.77707 1.4172 1.3479 0.5786 0.5785 1.2534 1.316 1.3281 1.3977 0.0047 0.0052 0.0092 0.0101 0.0138 0.0154 0.4518 0.5196 0.4833 1.2115 0.0044 1.7472-0.0075 0.0084-0.0147 0.0164-0.0221 0.0249-0.0834 0.0958-0.6468 0.739-1.3242 1.4163-0.654 0.6541-1.2771 1.2338-1.4056 1.3528-0.0163 0.0151-0.0327 0.0296-0.0502 0.0434-0.5797 0.4619-1.2227 0.394-1.7393-0.0602-8e-4 -7e-4 -0.0011-1e-3 -0.0019-0.0017-0.0269-0.0236-0.829-0.7275-1.4358-1.3343-0.6062-0.6062-1.3018-1.3998-1.3264-1.4278-7e-4 -9e-4 -1e-3 -0.0012-0.0018-0.0021-0.4651-0.5359-0.4529-1.2548-0.0091-1.755 0.0068-0.0076 0.0135-0.0149 0.0206-0.0223 0.0935-0.0981 0.8057-0.8443 1.3558-1.3943 0.5349-0.5349 1.2487-1.2166 1.3771-1.3391z" fill="url(#aa)"/><path d="m17.494 9.4734c0.0135-0.01287 0.0273-0.02553 0.0416-0.03753 0.5329-0.44778 1.2105-0.43783 1.7342 0.00778 0.0081 0.00691 0.0158 0.01374 0.0236 0.02095 0.1007 0.09225 0.8465 0.77707 1.4172 1.3479 0.5786 0.5785 1.2534 1.316 1.3281 1.3977 0.0047 0.0052 0.0092 0.0101 0.0138 0.0154 0.4518 0.5196 0.4833 1.2115 0.0044 1.7472-0.0075 0.0084-0.0147 0.0164-0.0221 0.0249-0.0834 0.0958-0.6468 0.739-1.3242 1.4163-0.654 0.6541-1.2771 1.2338-1.4056 1.3528-0.0163 0.0151-0.0327 0.0296-0.0502 0.0434-0.5797 0.4619-1.2227 0.394-1.7393-0.0602-8e-4 -7e-4 -0.0011-1e-3 -0.0019-0.0017-0.0269-0.0236-0.829-0.7275-1.4358-1.3343-0.6062-0.6062-1.3018-1.3998-1.3264-1.4278-7e-4 -9e-4 -1e-3 -0.0012-0.0018-0.0021-0.4651-0.5359-0.4529-1.2548-0.0091-1.755 0.0068-0.0076 0.0135-0.0149 0.0206-0.0223 0.0935-0.0981 0.8057-0.8443 1.3558-1.3943 0.5349-0.5349 1.2487-1.2166 1.3771-1.3391z" fill="url(#z)"/><g filter="url(#av)"><path d="m15.109 13.497c-0.1561-0.1798-0.1615-0.4439-0.0092-0.6269 0.2938-0.3529 0.8124-0.9539 1.4198-1.5613 0.6068-0.6068 1.2042-1.1219 1.555-1.4137 0.1825-0.15174 0.4455-0.14666 0.625 0.00863 0.407 0.35214 1.1233 0.98144 1.572 1.4301 0.445 0.445 1.0677 1.1533 1.4215 1.562 0.1593 0.184 0.1603 0.455 0.0019 0.6399-0.3422 0.3993-0.9409 1.0853-1.4057 1.5501-0.4645 0.4645-1.1497 1.0626-1.5492 1.4049-0.1853 0.1588-0.4573 0.1572-0.6415-0.0029-0.4177-0.3628-1.1447-1.003-1.5614-1.4196-0.4199-0.4199-1.0669-1.1552-1.4282-1.5713z" fill="url(#y)"/><path d="m15.109 13.497c-0.1561-0.1798-0.1615-0.4439-0.0092-0.6269 0.2938-0.3529 0.8124-0.9539 1.4198-1.5613 0.6068-0.6068 1.2042-1.1219 1.555-1.4137 0.1825-0.15174 0.4455-0.14666 0.625 0.00863 0.407 0.35214 1.1233 0.98144 1.572 1.4301 0.445 0.445 1.0677 1.1533 1.4215 1.562 0.1593 0.184 0.1603 0.455 0.0019 0.6399-0.3422 0.3993-0.9409 1.0853-1.4057 1.5501-0.4645 0.4645-1.1497 1.0626-1.5492 1.4049-0.1853 0.1588-0.4573 0.1572-0.6415-0.0029-0.4177-0.3628-1.1447-1.003-1.5614-1.4196-0.4199-0.4199-1.0669-1.1552-1.4282-1.5713z" fill="url(#x)"/><path d="m15.109 13.497c-0.1561-0.1798-0.1615-0.4439-0.0092-0.6269 0.2938-0.3529 0.8124-0.9539 1.4198-1.5613 0.6068-0.6068 1.2042-1.1219 1.555-1.4137 0.1825-0.15174 0.4455-0.14666 0.625 0.00863 0.407 0.35214 1.1233 0.98144 1.572 1.4301 0.445 0.445 1.0677 1.1533 1.4215 1.562 0.1593 0.184 0.1603 0.455 0.0019 0.6399-0.3422 0.3993-0.9409 1.0853-1.4057 1.5501-0.4645 0.4645-1.1497 1.0626-1.5492 1.4049-0.1853 0.1588-0.4573 0.1572-0.6415-0.0029-0.4177-0.3628-1.1447-1.003-1.5614-1.4196-0.4199-0.4199-1.0669-1.1552-1.4282-1.5713z" fill="url(#w)"/></g><g filter="url(#au)"><path d="m11.963 15.158c0.0135-0.0129 0.0273-0.0256 0.0416-0.0376 0.5328-0.4478 1.2105-0.4378 1.7342 0.0078 0.0081 0.0069 0.0157 0.0138 0.0236 0.021 0.1007 0.0922 0.8464 0.7771 1.4172 1.3478 0.5785 0.5785 1.2534 1.316 1.328 1.3977 0.0048 0.0052 0.0092 0.0101 0.0138 0.0155 0.4518 0.5195 0.4834 1.2115 0.0044 1.7471-0.0075 0.0084-0.0146 0.0164-0.022 0.0249-0.0835 0.0959-0.6469 0.739-1.3242 1.4164-0.6541 0.654-1.2771 1.2337-1.4056 1.3527-0.0164 0.0151-0.0328 0.0296-0.0502 0.0435-0.5798 0.4619-1.2228 0.3939-1.7393-0.0602-9e-4 -8e-4 -0.0011-1e-3 -2e-3 -0.0018-0.0268-0.0235-0.8289-0.7274-1.4357-1.3342-0.60625-0.6063-1.3019-1.3999-1.3264-1.4279-7.8e-4 -9e-4 -0.00107-0.0012-0.00184-0.0021-0.46506-0.5359-0.45286-1.2547-0.00911-1.755 0.00678-0.0076 0.01353-0.0148 0.02058-0.0222 0.09356-0.0982 0.80578-0.8443 1.3558-1.3944 0.5349-0.5349 1.2488-1.2166 1.3772-1.339z" fill="url(#v)"/></g><path d="m12.322 14.677c0.0135-0.0129 0.0273-0.0256 0.0415-0.0376 0.5329-0.4478 1.2106-0.4378 1.7342 0.0078 0.0082 0.0069 0.0158 0.0137 0.0237 0.021 0.1007 0.0922 0.8464 0.7771 1.4172 1.3478 0.5785 0.5785 1.2534 1.316 1.328 1.3977 0.0048 0.0052 0.0092 0.0101 0.0138 0.0154 0.4518 0.5196 0.4833 1.2116 0.0044 1.7472-0.0075 0.0084-0.0146 0.0164-0.022 0.0249-0.0835 0.0958-0.6469 0.739-1.3242 1.4164-0.6541 0.654-1.2772 1.2337-1.4056 1.3527-0.0164 0.0151-0.0328 0.0296-0.0502 0.0435-0.5798 0.4619-1.2228 0.3939-1.7393-0.0603-9e-4 -7e-4 -0.0012-9e-4 -2e-3 -0.0017-0.0269-0.0235-0.8289-0.7274-1.4357-1.3342-0.6063-0.6063-1.3019-1.3999-1.3264-1.4279-7.8e-4 -9e-4 -0.00106-0.0012-0.00184-0.0021-0.46505-0.5359-0.45285-1.2547-0.0091-1.755 0.00678-0.0076 0.01352-0.0148 0.02057-0.0222 0.09357-0.0982 0.80581-0.8443 1.3558-1.3944 0.5349-0.5349 1.2487-1.2166 1.3772-1.339z" fill="#824534"/><path d="m12.322 14.677c0.0135-0.0129 0.0273-0.0256 0.0415-0.0376 0.5329-0.4478 1.2106-0.4378 1.7342 0.0078 0.0082 0.0069 0.0158 0.0137 0.0237 0.021 0.1007 0.0922 0.8464 0.7771 1.4172 1.3478 0.5785 0.5785 1.2534 1.316 1.328 1.3977 0.0048 0.0052 0.0092 0.0101 0.0138 0.0154 0.4518 0.5196 0.4833 1.2116 0.0044 1.7472-0.0075 0.0084-0.0146 0.0164-0.022 0.0249-0.0835 0.0958-0.6469 0.739-1.3242 1.4164-0.6541 0.654-1.2772 1.2337-1.4056 1.3527-0.0164 0.0151-0.0328 0.0296-0.0502 0.0435-0.5798 0.4619-1.2228 0.3939-1.7393-0.0603-9e-4 -7e-4 -0.0012-9e-4 -2e-3 -0.0017-0.0269-0.0235-0.8289-0.7274-1.4357-1.3342-0.6063-0.6063-1.3019-1.3999-1.3264-1.4279-7.8e-4 -9e-4 -0.00106-0.0012-0.00184-0.0021-0.46505-0.5359-0.45285-1.2547-0.0091-1.755 0.00678-0.0076 0.01352-0.0148 0.02057-0.0222 0.09357-0.0982 0.80581-0.8443 1.3558-1.3944 0.5349-0.5349 1.2487-1.2166 1.3772-1.339z" fill="url(#u)"/><path d="m12.322 14.677c0.0135-0.0129 0.0273-0.0256 0.0415-0.0376 0.5329-0.4478 1.2106-0.4378 1.7342 0.0078 0.0082 0.0069 0.0158 0.0137 0.0237 0.021 0.1007 0.0922 0.8464 0.7771 1.4172 1.3478 0.5785 0.5785 1.2534 1.316 1.328 1.3977 0.0048 0.0052 0.0092 0.0101 0.0138 0.0154 0.4518 0.5196 0.4833 1.2116 0.0044 1.7472-0.0075 0.0084-0.0146 0.0164-0.022 0.0249-0.0835 0.0958-0.6469 0.739-1.3242 1.4164-0.6541 0.654-1.2772 1.2337-1.4056 1.3527-0.0164 0.0151-0.0328 0.0296-0.0502 0.0435-0.5798 0.4619-1.2228 0.3939-1.7393-0.0603-9e-4 -7e-4 -0.0012-9e-4 -2e-3 -0.0017-0.0269-0.0235-0.8289-0.7274-1.4357-1.3342-0.6063-0.6063-1.3019-1.3999-1.3264-1.4279-7.8e-4 -9e-4 -0.00106-0.0012-0.00184-0.0021-0.46505-0.5359-0.45285-1.2547-0.0091-1.755 0.00678-0.0076 0.01352-0.0148 0.02057-0.0222 0.09357-0.0982 0.80581-0.8443 1.3558-1.3944 0.5349-0.5349 1.2487-1.2166 1.3772-1.339z" fill="url(#s)"/><path d="m12.322 14.677c0.0135-0.0129 0.0273-0.0256 0.0415-0.0376 0.5329-0.4478 1.2106-0.4378 1.7342 0.0078 0.0082 0.0069 0.0158 0.0137 0.0237 0.021 0.1007 0.0922 0.8464 0.7771 1.4172 1.3478 0.5785 0.5785 1.2534 1.316 1.328 1.3977 0.0048 0.0052 0.0092 0.0101 0.0138 0.0154 0.4518 0.5196 0.4833 1.2116 0.0044 1.7472-0.0075 0.0084-0.0146 0.0164-0.022 0.0249-0.0835 0.0958-0.6469 0.739-1.3242 1.4164-0.6541 0.654-1.2772 1.2337-1.4056 1.3527-0.0164 0.0151-0.0328 0.0296-0.0502 0.0435-0.5798 0.4619-1.2228 0.3939-1.7393-0.0603-9e-4 -7e-4 -0.0012-9e-4 -2e-3 -0.0017-0.0269-0.0235-0.8289-0.7274-1.4357-1.3342-0.6063-0.6063-1.3019-1.3999-1.3264-1.4279-7.8e-4 -9e-4 -0.00106-0.0012-0.00184-0.0021-0.46505-0.5359-0.45285-1.2547-0.0091-1.755 0.00678-0.0076 0.01352-0.0148 0.02057-0.0222 0.09357-0.0982 0.80581-0.8443 1.3558-1.3944 0.5349-0.5349 1.2487-1.2166 1.3772-1.339z" fill="url(#r)"/><path d="m12.322 14.677c0.0135-0.0129 0.0273-0.0256 0.0415-0.0376 0.5329-0.4478 1.2106-0.4378 1.7342 0.0078 0.0082 0.0069 0.0158 0.0137 0.0237 0.021 0.1007 0.0922 0.8464 0.7771 1.4172 1.3478 0.5785 0.5785 1.2534 1.316 1.328 1.3977 0.0048 0.0052 0.0092 0.0101 0.0138 0.0154 0.4518 0.5196 0.4833 1.2116 0.0044 1.7472-0.0075 0.0084-0.0146 0.0164-0.022 0.0249-0.0835 0.0958-0.6469 0.739-1.3242 1.4164-0.6541 0.654-1.2772 1.2337-1.4056 1.3527-0.0164 0.0151-0.0328 0.0296-0.0502 0.0435-0.5798 0.4619-1.2228 0.3939-1.7393-0.0603-9e-4 -7e-4 -0.0012-9e-4 -2e-3 -0.0017-0.0269-0.0235-0.8289-0.7274-1.4357-1.3342-0.6063-0.6063-1.3019-1.3999-1.3264-1.4279-7.8e-4 -9e-4 -0.00106-0.0012-0.00184-0.0021-0.46505-0.5359-0.45285-1.2547-0.0091-1.755 0.00678-0.0076 0.01352-0.0148 0.02057-0.0222 0.09357-0.0982 0.80581-0.8443 1.3558-1.3944 0.5349-0.5349 1.2487-1.2166 1.3772-1.339z" fill="url(#q)"/><g filter="url(#at)"><path d="m9.9369 18.7c-0.15613-0.1798-0.16152-0.4438-0.00916-0.6269 0.29375-0.3529 0.81235-0.9539 1.4198-1.5613 0.6068-0.6068 1.2042-1.1219 1.5551-1.4136 0.1825-0.1518 0.4454-0.1467 0.6249 0.0086 0.407 0.3521 1.1233 0.9814 1.572 1.4301 0.4451 0.4451 1.0677 1.1533 1.4215 1.562 0.1593 0.184 0.1603 0.4551 0.0019 0.6399-0.3421 0.3993-0.9409 1.0853-1.4057 1.5502-0.4644 0.4644-1.1497 1.0625-1.5491 1.4048-0.1853 0.1588-0.4574 0.1572-0.6416-0.0028-0.4177-0.3629-1.1447-1.0031-1.5613-1.4197-0.42-0.4199-1.067-1.1552-1.4283-1.5713z" fill="url(#p)"/><path d="m9.9369 18.7c-0.15613-0.1798-0.16152-0.4438-0.00916-0.6269 0.29375-0.3529 0.81235-0.9539 1.4198-1.5613 0.6068-0.6068 1.2042-1.1219 1.5551-1.4136 0.1825-0.1518 0.4454-0.1467 0.6249 0.0086 0.407 0.3521 1.1233 0.9814 1.572 1.4301 0.4451 0.4451 1.0677 1.1533 1.4215 1.562 0.1593 0.184 0.1603 0.4551 0.0019 0.6399-0.3421 0.3993-0.9409 1.0853-1.4057 1.5502-0.4644 0.4644-1.1497 1.0625-1.5491 1.4048-0.1853 0.1588-0.4574 0.1572-0.6416-0.0028-0.4177-0.3629-1.1447-1.0031-1.5613-1.4197-0.42-0.4199-1.067-1.1552-1.4283-1.5713z" fill="url(#o)"/><path d="m9.9369 18.7c-0.15613-0.1798-0.16152-0.4438-0.00916-0.6269 0.29375-0.3529 0.81235-0.9539 1.4198-1.5613 0.6068-0.6068 1.2042-1.1219 1.5551-1.4136 0.1825-0.1518 0.4454-0.1467 0.6249 0.0086 0.407 0.3521 1.1233 0.9814 1.572 1.4301 0.4451 0.4451 1.0677 1.1533 1.4215 1.562 0.1593 0.184 0.1603 0.4551 0.0019 0.6399-0.3421 0.3993-0.9409 1.0853-1.4057 1.5502-0.4644 0.4644-1.1497 1.0625-1.5491 1.4048-0.1853 0.1588-0.4574 0.1572-0.6416-0.0028-0.4177-0.3629-1.1447-1.0031-1.5613-1.4197-0.42-0.4199-1.067-1.1552-1.4283-1.5713z" fill="url(#n)"/></g><path d="m10.258 21.783s6.2968 6.5625 7.4062 7.5469 2.3281 0.7969 3.2813 0c0.9531-0.7969 7.375-7.2344 8.3906-8.2969s0.7344-2.4843-0.1563-3.375c-0.8906-0.8906-7.4687-7.4062-7.4687-7.4062l-11.453 11.531z" fill="url(#m)"/><path d="m10.258 21.783s6.2968 6.5625 7.4062 7.5469 2.3281 0.7969 3.2813 0c0.9531-0.7969 7.375-7.2344 8.3906-8.2969s0.7344-2.4843-0.1563-3.375c-0.8906-0.8906-7.4687-7.4062-7.4687-7.4062l-11.453 11.531z" fill="url(#l)"/><g filter="url(#as)"><path d="m12.133 21.523s4.7257 4.9746 5.7649 5.8967c1.0392 0.922 1.4782 1.4489 2.371 0.7025s6.9083-6.7765 7.8596-7.7718c0.9514-0.9952 0.5293-1.61-0.3049-2.4442-0.8343-0.8343-5.8235-5.765-5.8235-5.765l-9.8671 9.3818z" fill="#D3245A"/><path d="m12.133 21.523s4.7257 4.9746 5.7649 5.8967c1.0392 0.922 1.4782 1.4489 2.371 0.7025s6.9083-6.7765 7.8596-7.7718c0.9514-0.9952 0.5293-1.61-0.3049-2.4442-0.8343-0.8343-5.8235-5.765-5.8235-5.765l-9.8671 9.3818z" fill="url(#k)"/><path d="m12.133 21.523s4.7257 4.9746 5.7649 5.8967c1.0392 0.922 1.4782 1.4489 2.371 0.7025s6.9083-6.7765 7.8596-7.7718c0.9514-0.9952 0.5293-1.61-0.3049-2.4442-0.8343-0.8343-5.8235-5.765-5.8235-5.765l-9.8671 9.3818z" fill="url(#j)"/></g><g filter="url(#ar)"><path d="m22.491 12.086s-8.3587 11.343-8.6719 11.656c-0.3131 0.3132-0.5694 0.3701-0.9965 0.0997-0.4271-0.2705-1.7368-1.808-1.9503-2.05-0.2136-0.2421-0.2067-0.5427 0.0746-0.8052 0.2813-0.2626 10.206-10.146 10.206-10.146 0.1602-0.1602 0.449-0.1184 0.5766 0 0 0 0.5837 0.4982 0.7616 0.6762 0.178 0.178 0.0911 0.4419 0 0.5694z" fill="#572916"/></g><path d="m23.227 11.547s-9.5078 12.906-9.8516 13.25c-0.3438 0.3437-0.625 0.4062-1.0938 0.1094-0.4687-0.2969-1.9062-1.9844-2.1406-2.25-0.23435-0.2657-0.22686-0.5957 0.0819-0.8838 0.3087-0.2881 11.535-11.593 11.535-11.593 0.1758-0.1758 0.4928-0.13 0.6328 0 0 0 0.6406 0.5469 0.836 0.7422 0.1953 0.1953 0.1 0.485 0 0.625z" fill="url(#h)"/><g filter="url(#aq)"><path d="m22.875 11.281c0-0.4531-0.5-0.9374-0.9531-0.7812s-5.4219 5.7812-5.4219 5.7812l1.5781 1.2656c1.5834-1.8958 4.7969-5.8046 4.7969-6.2656z" fill="url(#g)"/></g><defs><filter id="az" x="2.3733" y="8.3547" width="9.9996" height="10.021" color-interpolation-filters="sRGB" filterUnits="userSpaceOnUse"><feFlood flood-opacity="0" result="BackgroundImageFix"/><feBlend in="SourceGraphic" in2="BackgroundImageFix" result="shape"/><feGaussianBlur result="effect1_foregroundBlur_18_32062" stdDeviation="0.5"/></filter><filter id="ay" x="4.0197" y="9.2217" width="7.3245" height="7.3247" color-interpolation-filters="sRGB" filterUnits="userSpaceOnUse"><feFlood flood-opacity="0" result="BackgroundImageFix"/><feBlend in="SourceGraphic" in2="BackgroundImageFix" result="shape"/><feGaussianBlur result="effect1_foregroundBlur_18_32062" stdDeviation="0.125"/></filter><filter id="ax" x="9.2107" y="3.9439" width="7.4429" height="7.443" color-interpolation-filters="sRGB" filterUnits="userSpaceOnUse"><feFlood flood-opacity="0" result="BackgroundImageFix"/><feBlend in="SourceGraphic" in2="BackgroundImageFix" result="shape"/><feGaussianBlur result="effect1_foregroundBlur_18_32062" stdDeviation="0.125"/></filter><filter id="aw" x="13" y="8.5596" width="9.9996" height="10.021" color-interpolation-filters="sRGB" filterUnits="userSpaceOnUse"><feFlood flood-opacity="0" result="BackgroundImageFix"/><feBlend in="SourceGraphic" in2="BackgroundImageFix" result="shape"/><feGaussianBlur result="effect1_foregroundBlur_18_32062" stdDeviation="0.5"/></filter><filter id="av" x="14.738" y="9.5342" width="7.3245" height="7.3247" color-interpolation-filters="sRGB" filterUnits="userSpaceOnUse"><feFlood flood-opacity="0" result="BackgroundImageFix"/><feBlend in="SourceGraphic" in2="BackgroundImageFix" result="shape"/><feGaussianBlur result="effect1_foregroundBlur_18_32062" stdDeviation="0.125"/></filter><filter id="au" x="7.8733" y="13.789" width="9.9996" height="10.021" color-interpolation-filters="sRGB" filterUnits="userSpaceOnUse"><feFlood flood-opacity="0" result="BackgroundImageFix"/><feBlend in="SourceGraphic" in2="BackgroundImageFix" result="shape"/><feGaussianBlur result="effect1_foregroundBlur_18_32062" stdDeviation="0.5"/></filter><filter id="at" x="9.5666" y="14.737" width="7.3245" height="7.3247" color-interpolation-filters="sRGB" filterUnits="userSpaceOnUse"><feFlood flood-opacity="0" result="BackgroundImageFix"/><feBlend in="SourceGraphic" in2="BackgroundImageFix" result="shape"/><feGaussianBlur result="effect1_foregroundBlur_18_32062" stdDeviation="0.125"/></filter><filter id="as" x="11.133" y="11.142" width="18.54" height="18.335" color-interpolation-filters="sRGB" filterUnits="userSpaceOnUse"><feFlood flood-opacity="0" result="BackgroundImageFix"/><feBlend in="SourceGraphic" in2="BackgroundImageFix" result="shape"/><feGaussianBlur result="effect1_foregroundBlur_18_32062" stdDeviation="0.5"/></filter><filter id="ar" x="9.7224" y="9.7355" width="13.872" height="15.28" color-interpolation-filters="sRGB" filterUnits="userSpaceOnUse"><feFlood flood-opacity="0" result="BackgroundImageFix"/><feBlend in="SourceGraphic" in2="BackgroundImageFix" result="shape"/><feGaussianBlur result="effect1_foregroundBlur_18_32062" stdDeviation="0.5"/></filter><filter id="aq" x="16" y="9.97" width="7.375" height="8.0768" color-interpolation-filters="sRGB" filterUnits="userSpaceOnUse"><feFlood flood-opacity="0" result="BackgroundImageFix"/><feBlend in="SourceGraphic" in2="BackgroundImageFix" result="shape"/><feGaussianBlur result="effect1_foregroundBlur_18_32062" stdDeviation="0.25"/></filter><radialGradient id="ap" cx="0" cy="0" r="1" gradientTransform="translate(6.375 5.875) rotate(135) scale(12.33 6.1373)" gradientUnits="userSpaceOnUse"><stop stop-color="#735040" offset="0"/><stop stop-color="#724A3A" stop-opacity="0" offset="1"/></radialGradient><radialGradient id="ae" cx="0" cy="0" r="1" gradientTransform="translate(4.0312 18.906) rotate(45) scale(11.56 8.9714)" gradientUnits="userSpaceOnUse"><stop stop-color="#834D4F" offset="0"/><stop stop-color="#834B4D" stop-opacity="0" offset="1"/></radialGradient><radialGradient id="t" cx="0" cy="0" r="1" gradientTransform="translate(17.5 6.6875) rotate(45) scale(10.165 3.1378)" gradientUnits="userSpaceOnUse"><stop stop-color="#AC7A64" offset="0"/><stop stop-color="#AC7A63" stop-opacity="0" offset="1"/></radialGradient><linearGradient id="i" x1="6.5938" x2="5.3125" y1="14.812" y2="16.094" gradientUnits="userSpaceOnUse"><stop stop-color="#835355" stop-opacity="0" offset="0"/><stop stop-color="#825254" offset=".54268"/></linearGradient><linearGradient id="f" x1="6.9062" x2="5.625" y1="14.25" y2="15.531" gradientUnits="userSpaceOnUse"><stop stop-color="#835355" stop-opacity="0" offset="0"/><stop stop-color="#825254" offset=".54268"/></linearGradient><linearGradient id="e" x1="9.5547" x2="10.375" y1="11.602" y2="10.781" gradientUnits="userSpaceOnUse"><stop stop-color="#91634B" stop-opacity="0" offset="0"/><stop stop-color="#8E5E45" offset=".25714"/><stop stop-color="#79452B" offset=".97143"/></linearGradient><linearGradient id="d" x1="5.3125" x2="6.2578" y1="10.562" y2="11.508" gradientUnits="userSpaceOnUse"><stop stop-color="#754A38" offset="0"/><stop stop-color="#764B38" offset=".19835"/><stop stop-color="#8A5648" stop-opacity="0" offset="1"/></linearGradient><linearGradient id="c" x1="10.438" x2="9.5469" y1="15.031" y2="14.141" gradientUnits="userSpaceOnUse"><stop stop-color="#7F4131" offset=".19298"/><stop stop-color="#884B3F" offset=".50877"/><stop stop-color="#905452" stop-opacity="0" offset="1"/></linearGradient><linearGradient id="b" x1="4.7156" x2="10.695" y1="13.599" y2="13.576" gradientUnits="userSpaceOnUse"><stop stop-color="#865345" offset="0"/><stop stop-color="#945C4E" offset="1"/></linearGradient><linearGradient id="a" x1="5.9333" x2="9.4925" y1="14.755" y2="11.262" gradientUnits="userSpaceOnUse"><stop stop-color="#7F4A40" offset=".02767"/><stop stop-color="#844A45" stop-opacity="0" offset=".18383"/></linearGradient><linearGradient id="ao" x1="9.61" x2="6.4587" y1="11.145" y2="14.297" gradientUnits="userSpaceOnUse"><stop stop-color="#9B705C" offset=".019481"/><stop stop-color="#9B705C" stop-opacity="0" offset=".20455"/></linearGradient><linearGradient id="an" x1="12.094" x2="10.812" y1="9.0938" y2="10.375" gradientUnits="userSpaceOnUse"><stop stop-color="#7A3C35" stop-opacity="0" offset=".40244"/><stop stop-color="#783930" offset=".86585"/><stop stop-color="#713126" offset="1"/></linearGradient><linearGradient id="am" x1="14.656" x2="15.562" y1="6.4688" y2="5.625" gradientUnits="userSpaceOnUse"><stop stop-color="#A87760" stop-opacity="0" offset="0"/><stop stop-color="#A8775F" offset=".34268"/><stop stop-color="#A3735A" offset="1"/></linearGradient><linearGradient id="al" x1="10.5" x2="11.445" y1="5.4062" y2="6.3516" gradientUnits="userSpaceOnUse"><stop stop-color="#754A38" offset="0"/><stop stop-color="#764B38" offset=".19835"/><stop stop-color="#8A5648" stop-opacity="0" offset="1"/></linearGradient><linearGradient id="ak" x1="15.625" x2="14.734" y1="9.875" y2="8.9844" gradientUnits="userSpaceOnUse"><stop stop-color="#7F4131" offset=".19298"/><stop stop-color="#884B3F" offset=".50877"/><stop stop-color="#905452" stop-opacity="0" offset="1"/></linearGradient><linearGradient id="aj" x1="9.904" x2="15.982" y1="8.4419" y2="8.5181" gradientUnits="userSpaceOnUse"><stop stop-color="#8B5A4A" offset="0"/><stop stop-color="#9B6351" offset="1"/></linearGradient><linearGradient id="ai" x1="11.123" x2="13.856" y1="9.5964" y2="6.8624" gradientUnits="userSpaceOnUse"><stop stop-color="#804643" offset=".02767"/><stop stop-color="#874B4F" stop-opacity="0" offset=".18383"/></linearGradient><linearGradient id="ah" x1="14.921" x2="12.674" y1="5.8652" y2="8.0062" gradientUnits="userSpaceOnUse"><stop stop-color="#9B705C" offset=".019481"/><stop stop-color="#9B705C" stop-opacity="0" offset=".20455"/></linearGradient><linearGradient id="ag" x1="17.221" x2="15.94" y1="15.017" y2="16.299" gradientUnits="userSpaceOnUse"><stop stop-color="#6D3F3D" stop-opacity="0" offset=".10976"/><stop stop-color="#643026" offset=".67073"/><stop stop-color="#5D2A1F" offset="1"/></linearGradient><linearGradient id="af" x1="19.869" x2="20.69" y1="12.369" y2="11.549" gradientUnits="userSpaceOnUse"><stop stop-color="#91634B" stop-opacity="0" offset="0"/><stop stop-color="#8E5E45" offset=".25714"/><stop stop-color="#79452B" offset=".97143"/></linearGradient><linearGradient id="ad" x1="15.627" x2="16.572" y1="11.33" y2="12.275" gradientUnits="userSpaceOnUse"><stop stop-color="#733821" offset="0"/><stop stop-color="#773D25" offset=".19835"/><stop stop-color="#7F4B35" stop-opacity="0" offset="1"/></linearGradient><linearGradient id="ac" x1="17.625" x2="16.344" y1="14.562" y2="15.844" gradientUnits="userSpaceOnUse"><stop stop-color="#6D3F3D" stop-opacity="0" offset=".10976"/><stop stop-color="#643026" offset=".67073"/><stop stop-color="#5D2A1F" offset="1"/></linearGradient><linearGradient id="ab" x1="20.273" x2="21.094" y1="11.914" y2="11.094" gradientUnits="userSpaceOnUse"><stop stop-color="#91634B" stop-opacity="0" offset="0"/><stop stop-color="#8E5E45" offset=".25714"/><stop stop-color="#79452B" offset=".97143"/></linearGradient><linearGradient id="aa" x1="16.031" x2="16.977" y1="10.875" y2="11.82" gradientUnits="userSpaceOnUse"><stop stop-color="#733821" offset="0"/><stop stop-color="#773D25" offset=".19835"/><stop stop-color="#7F4B35" stop-opacity="0" offset="1"/></linearGradient><linearGradient id="z" x1="21.156" x2="20.266" y1="15.344" y2="14.453" gradientUnits="userSpaceOnUse"><stop stop-color="#7F4131" offset=".19298"/><stop stop-color="#884B3F" offset=".50877"/><stop stop-color="#905452" stop-opacity="0" offset="1"/></linearGradient><linearGradient id="y" x1="15.434" x2="21.414" y1="13.912" y2="13.888" gradientUnits="userSpaceOnUse"><stop stop-color="#865345" offset="0"/><stop stop-color="#945C4E" offset="1"/></linearGradient><linearGradient id="x" x1="16.652" x2="20.211" y1="15.067" y2="11.574" gradientUnits="userSpaceOnUse"><stop stop-color="#7F4A40" offset=".02767"/><stop stop-color="#844A45" stop-opacity="0" offset=".18383"/></linearGradient><linearGradient id="w" x1="20.329" x2="17.178" y1="11.458" y2="14.609" gradientUnits="userSpaceOnUse"><stop stop-color="#9B705C" offset=".019481"/><stop stop-color="#9B705C" stop-opacity="0" offset=".20455"/></linearGradient><linearGradient id="v" x1="11.375" x2="9.2188" y1="21.375" y2="19.219" gradientUnits="userSpaceOnUse"><stop stop-color="#64342F" offset="0"/><stop stop-color="#773C41" offset="1"/></linearGradient><linearGradient id="u" x1="12.453" x2="11.172" y1="19.766" y2="21.047" gradientUnits="userSpaceOnUse"><stop stop-color="#835355" stop-opacity="0" offset="0"/><stop stop-color="#825254" offset=".54268"/></linearGradient><linearGradient id="s" x1="15.102" x2="15.922" y1="17.117" y2="16.297" gradientUnits="userSpaceOnUse"><stop stop-color="#91634B" stop-opacity="0" offset="0"/><stop stop-color="#8E5E45" offset=".25714"/><stop stop-color="#79452B" offset=".97143"/></linearGradient><linearGradient id="r" x1="10.859" x2="11.805" y1="16.078" y2="17.023" gradientUnits="userSpaceOnUse"><stop stop-color="#733821" offset="0"/><stop stop-color="#783F28" offset=".19835"/><stop stop-color="#7E4934" stop-opacity="0" offset="1"/></linearGradient><linearGradient id="q" x1="15.984" x2="15.094" y1="20.547" y2="19.656" gradientUnits="userSpaceOnUse"><stop stop-color="#7F4131" offset=".19298"/><stop stop-color="#884B3F" offset=".50877"/><stop stop-color="#905452" stop-opacity="0" offset="1"/></linearGradient><linearGradient id="p" x1="10.262" x2="16.242" y1="19.115" y2="19.091" gradientUnits="userSpaceOnUse"><stop stop-color="#865345" offset="0"/><stop stop-color="#945C4E" offset="1"/></linearGradient><linearGradient id="o" x1="11.48" x2="15.039" y1="20.27" y2="16.777" gradientUnits="userSpaceOnUse"><stop stop-color="#7F4A40" offset=".02767"/><stop stop-color="#844A45" stop-opacity="0" offset=".18383"/></linearGradient><linearGradient id="n" x1="15.157" x2="12.006" y1="16.661" y2="19.812" gradientUnits="userSpaceOnUse"><stop stop-color="#9B705C" offset=".019481"/><stop stop-color="#9B705C" stop-opacity="0" offset=".20455"/></linearGradient><linearGradient id="m" x1="26.938" x2="15.75" y1="16.312" y2="27.5" gradientUnits="userSpaceOnUse"><stop stop-color="#ED4253" offset="0"/><stop stop-color="#C41959" offset="1"/></linearGradient><linearGradient id="l" x1="25.938" x2="22.688" y1="25.125" y2="21.875" gradientUnits="userSpaceOnUse"><stop stop-color="#D61E58" offset="0"/><stop stop-color="#D71D59" stop-opacity="0" offset=".93269"/></linearGradient><linearGradient id="k" x1="25.75" x2="22.844" y1="15.125" y2="18.031" gradientUnits="userSpaceOnUse"><stop stop-color="#EA4B6C" offset=".086022"/><stop stop-color="#EC4B6C" stop-opacity="0" offset=".69355"/></linearGradient><linearGradient id="j" x1="17.438" x2="18.844" y1="18.5" y2="19.531" gradientUnits="userSpaceOnUse"><stop stop-color="#B3154F" offset=".38439"/><stop stop-color="#B71550" stop-opacity="0" offset=".76686"/></linearGradient><linearGradient id="h" x1="23.34" x2="11.25" y1="11.472" y2="23.625" gradientUnits="userSpaceOnUse"><stop stop-color="#C1C1C2" offset="0"/><stop stop-color="#ADABB2" offset=".08753"/><stop stop-color="#B1A4C2" offset=".19841"/><stop stop-color="#B3A5C6" offset=".7579"/><stop stop-color="#A892C1" offset=".87912"/><stop stop-color="#A485C3" offset="1"/></linearGradient><linearGradient id="g" x1="22.25" x2="16.5" y1="10.783" y2="16.533" gradientUnits="userSpaceOnUse"><stop stop-color="#D4D1DB" offset="0"/><stop stop-color="#B3A6C5" stop-opacity="0" offset="1"/></linearGradient></defs></svg>
