<svg fill="none" viewBox="0 0 32 32" xmlns="http://www.w3.org/2000/svg"><g filter="url(#bj)"><path d="m28.046 9.04-1.25-0.62c-0.2-0.11-0.13-0.42 0.1-0.42h0.58c1.38 0 2.5-1.12 2.5-2.5s-1.12-2.5-2.5-2.5h-2.03c-2.47 0-4.47 2-4.47 4.47 0 1.57 0.82 3.02 2.17 3.83l1.88 1.13c0.59 0.35 0.95 0.99 0.95 1.67v10.9c0 0.5523-0.4477 1-1 1h-3.48v4h4.48c2.21 0 4-1.79 4-4v-13.84c0-1.33-0.75-2.53-1.93-3.12z" fill="url(#ba)"/><path d="m28.046 9.04-1.25-0.62c-0.2-0.11-0.13-0.42 0.1-0.42h0.58c1.38 0 2.5-1.12 2.5-2.5s-1.12-2.5-2.5-2.5h-2.03c-2.47 0-4.47 2-4.47 4.47 0 1.57 0.82 3.02 2.17 3.83l1.88 1.13c0.59 0.35 0.95 0.99 0.95 1.67v10.9c0 0.5523-0.4477 1-1 1h-3.48v4h4.48c2.21 0 4-1.79 4-4v-13.84c0-1.33-0.75-2.53-1.93-3.12z" fill="url(#ap)"/><path d="m28.046 9.04-1.25-0.62c-0.2-0.11-0.13-0.42 0.1-0.42h0.58c1.38 0 2.5-1.12 2.5-2.5s-1.12-2.5-2.5-2.5h-2.03c-2.47 0-4.47 2-4.47 4.47 0 1.57 0.82 3.02 2.17 3.83l1.88 1.13c0.59 0.35 0.95 0.99 0.95 1.67v10.9c0 0.5523-0.4477 1-1 1h-3.48v4h4.48c2.21 0 4-1.79 4-4v-13.84c0-1.33-0.75-2.53-1.93-3.12z" fill="url(#af)"/><path d="m28.046 9.04-1.25-0.62c-0.2-0.11-0.13-0.42 0.1-0.42h0.58c1.38 0 2.5-1.12 2.5-2.5s-1.12-2.5-2.5-2.5h-2.03c-2.47 0-4.47 2-4.47 4.47 0 1.57 0.82 3.02 2.17 3.83l1.88 1.13c0.59 0.35 0.95 0.99 0.95 1.67v10.9c0 0.5523-0.4477 1-1 1h-3.48v4h4.48c2.21 0 4-1.79 4-4v-13.84c0-1.33-0.75-2.53-1.93-3.12z" fill="url(#x)"/><path d="m28.046 9.04-1.25-0.62c-0.2-0.11-0.13-0.42 0.1-0.42h0.58c1.38 0 2.5-1.12 2.5-2.5s-1.12-2.5-2.5-2.5h-2.03c-2.47 0-4.47 2-4.47 4.47 0 1.57 0.82 3.02 2.17 3.83l1.88 1.13c0.59 0.35 0.95 0.99 0.95 1.67v10.9c0 0.5523-0.4477 1-1 1h-3.48v4h4.48c2.21 0 4-1.79 4-4v-13.84c0-1.33-0.75-2.53-1.93-3.12z" fill="url(#m)"/><path d="m28.046 9.04-1.25-0.62c-0.2-0.11-0.13-0.42 0.1-0.42h0.58c1.38 0 2.5-1.12 2.5-2.5s-1.12-2.5-2.5-2.5h-2.03c-2.47 0-4.47 2-4.47 4.47 0 1.57 0.82 3.02 2.17 3.83l1.88 1.13c0.59 0.35 0.95 0.99 0.95 1.67v10.9c0 0.5523-0.4477 1-1 1h-3.48v4h4.48c2.21 0 4-1.79 4-4v-13.84c0-1.33-0.75-2.53-1.93-3.12z" fill="url(#g)"/><path d="m28.046 9.04-1.25-0.62c-0.2-0.11-0.13-0.42 0.1-0.42h0.58c1.38 0 2.5-1.12 2.5-2.5s-1.12-2.5-2.5-2.5h-2.03c-2.47 0-4.47 2-4.47 4.47 0 1.57 0.82 3.02 2.17 3.83l1.88 1.13c0.59 0.35 0.95 0.99 0.95 1.67v10.9c0 0.5523-0.4477 1-1 1h-3.48v4h4.48c2.21 0 4-1.79 4-4v-13.84c0-1.33-0.75-2.53-1.93-3.12z" fill="url(#f)"/></g><g filter="url(#bi)"><path d="m25.601 9.0312 1.8011 0.86222c0.6944 0.33243 1.1364 1.034 1.1364 1.8039v13.803c0 1.1046-0.8954 2-2 2h-2.1875" stroke="url(#e)" stroke-linecap="round" stroke-width=".75"/></g><path d="m3.8356 16.99v1.99c0 0.69 0.39 1.32 1.01 1.62l0.69 0.33c0.19 0.09 0.41 0.09 0.6 0l0.69-0.33c0.62-0.3 1.01-0.93 1.01-1.62v-1.99h-4z" fill="url(#d)"/><path d="m3.8356 16.99v1.99c0 0.69 0.39 1.32 1.01 1.62l0.69 0.33c0.19 0.09 0.41 0.09 0.6 0l0.69-0.33c0.62-0.3 1.01-0.93 1.01-1.62v-1.99h-4z" fill="url(#c)"/><path d="m16.526 11c-0.95 0-1.82-0.53-2.24-1.38l-0.71-1.43c-0.39-0.77-0.6-1.62-0.59-2.48 0.01-1.49-1.19-2.71-2.68-2.71-0.18 0-0.33001 0.14-0.33001 0.33v2.0762s-0.60157-0.40625-1.6875-0.40625c-1.3131 0-2.7425 0.84-3.5725 2.1-0.74021 1.3324-1.6231 2.6056-2.43 3.9-0.2 0.25-0.31 0.56-0.31 0.88 0 1.73 1.39 3.12 3.12 3.12h3.88v3h-0.08-1.38c-0.85 0-1.56 0.69-1.54 1.53 0.02 0.82 0.68 1.47 1.5 1.47l1.5 0.04v2.9c0 3.35 2.71 6.06 6.06 6.06h6.89c1.69 0 3.05-1.37 3.05-3.05v-7.49c0-4.67-3.78-8.46-8.45-8.46z" fill="url(#az)"/><path d="m16.526 11c-0.95 0-1.82-0.53-2.24-1.38l-0.71-1.43c-0.39-0.77-0.6-1.62-0.59-2.48 0.01-1.49-1.19-2.71-2.68-2.71-0.18 0-0.33001 0.14-0.33001 0.33v2.0762s-0.60157-0.40625-1.6875-0.40625c-1.3131 0-2.7425 0.84-3.5725 2.1-0.74021 1.3324-1.6231 2.6056-2.43 3.9-0.2 0.25-0.31 0.56-0.31 0.88 0 1.73 1.39 3.12 3.12 3.12h3.88v3h-0.08-1.38c-0.85 0-1.56 0.69-1.54 1.53 0.02 0.82 0.68 1.47 1.5 1.47l1.5 0.04v2.9c0 3.35 2.71 6.06 6.06 6.06h6.89c1.69 0 3.05-1.37 3.05-3.05v-7.49c0-4.67-3.78-8.46-8.45-8.46z" fill="url(#ay)"/><path d="m16.526 11c-0.95 0-1.82-0.53-2.24-1.38l-0.71-1.43c-0.39-0.77-0.6-1.62-0.59-2.48 0.01-1.49-1.19-2.71-2.68-2.71-0.18 0-0.33001 0.14-0.33001 0.33v2.0762s-0.60157-0.40625-1.6875-0.40625c-1.3131 0-2.7425 0.84-3.5725 2.1-0.74021 1.3324-1.6231 2.6056-2.43 3.9-0.2 0.25-0.31 0.56-0.31 0.88 0 1.73 1.39 3.12 3.12 3.12h3.88v3h-0.08-1.38c-0.85 0-1.56 0.69-1.54 1.53 0.02 0.82 0.68 1.47 1.5 1.47l1.5 0.04v2.9c0 3.35 2.71 6.06 6.06 6.06h6.89c1.69 0 3.05-1.37 3.05-3.05v-7.49c0-4.67-3.78-8.46-8.45-8.46z" fill="url(#ax)"/><path d="m16.526 11c-0.95 0-1.82-0.53-2.24-1.38l-0.71-1.43c-0.39-0.77-0.6-1.62-0.59-2.48 0.01-1.49-1.19-2.71-2.68-2.71-0.18 0-0.33001 0.14-0.33001 0.33v2.0762s-0.60157-0.40625-1.6875-0.40625c-1.3131 0-2.7425 0.84-3.5725 2.1-0.74021 1.3324-1.6231 2.6056-2.43 3.9-0.2 0.25-0.31 0.56-0.31 0.88 0 1.73 1.39 3.12 3.12 3.12h3.88v3h-0.08-1.38c-0.85 0-1.56 0.69-1.54 1.53 0.02 0.82 0.68 1.47 1.5 1.47l1.5 0.04v2.9c0 3.35 2.71 6.06 6.06 6.06h6.89c1.69 0 3.05-1.37 3.05-3.05v-7.49c0-4.67-3.78-8.46-8.45-8.46z" fill="url(#aw)"/><path d="m16.526 11c-0.95 0-1.82-0.53-2.24-1.38l-0.71-1.43c-0.39-0.77-0.6-1.62-0.59-2.48 0.01-1.49-1.19-2.71-2.68-2.71-0.18 0-0.33001 0.14-0.33001 0.33v2.0762s-0.60157-0.40625-1.6875-0.40625c-1.3131 0-2.7425 0.84-3.5725 2.1-0.74021 1.3324-1.6231 2.6056-2.43 3.9-0.2 0.25-0.31 0.56-0.31 0.88 0 1.73 1.39 3.12 3.12 3.12h3.88v3h-0.08-1.38c-0.85 0-1.56 0.69-1.54 1.53 0.02 0.82 0.68 1.47 1.5 1.47l1.5 0.04v2.9c0 3.35 2.71 6.06 6.06 6.06h6.89c1.69 0 3.05-1.37 3.05-3.05v-7.49c0-4.67-3.78-8.46-8.45-8.46z" fill="url(#av)"/><path d="m16.526 11c-0.95 0-1.82-0.53-2.24-1.38l-0.71-1.43c-0.39-0.77-0.6-1.62-0.59-2.48 0.01-1.49-1.19-2.71-2.68-2.71-0.18 0-0.33001 0.14-0.33001 0.33v2.0762s-0.60157-0.40625-1.6875-0.40625c-1.3131 0-2.7425 0.84-3.5725 2.1-0.74021 1.3324-1.6231 2.6056-2.43 3.9-0.2 0.25-0.31 0.56-0.31 0.88 0 1.73 1.39 3.12 3.12 3.12h3.88v3h-0.08-1.38c-0.85 0-1.56 0.69-1.54 1.53 0.02 0.82 0.68 1.47 1.5 1.47l1.5 0.04v2.9c0 3.35 2.71 6.06 6.06 6.06h6.89c1.69 0 3.05-1.37 3.05-3.05v-7.49c0-4.67-3.78-8.46-8.45-8.46z" fill="url(#au)"/><path d="m16.526 11c-0.95 0-1.82-0.53-2.24-1.38l-0.71-1.43c-0.39-0.77-0.6-1.62-0.59-2.48 0.01-1.49-1.19-2.71-2.68-2.71-0.18 0-0.33001 0.14-0.33001 0.33v2.0762s-0.60157-0.40625-1.6875-0.40625c-1.3131 0-2.7425 0.84-3.5725 2.1-0.74021 1.3324-1.6231 2.6056-2.43 3.9-0.2 0.25-0.31 0.56-0.31 0.88 0 1.73 1.39 3.12 3.12 3.12h3.88v3h-0.08-1.38c-0.85 0-1.56 0.69-1.54 1.53 0.02 0.82 0.68 1.47 1.5 1.47l1.5 0.04v2.9c0 3.35 2.71 6.06 6.06 6.06h6.89c1.69 0 3.05-1.37 3.05-3.05v-7.49c0-4.67-3.78-8.46-8.45-8.46z" fill="url(#at)" fill-opacity=".75"/><path d="m16.526 11c-0.95 0-1.82-0.53-2.24-1.38l-0.71-1.43c-0.39-0.77-0.6-1.62-0.59-2.48 0.01-1.49-1.19-2.71-2.68-2.71-0.18 0-0.33001 0.14-0.33001 0.33v2.0762s-0.60157-0.40625-1.6875-0.40625c-1.3131 0-2.7425 0.84-3.5725 2.1-0.74021 1.3324-1.6231 2.6056-2.43 3.9-0.2 0.25-0.31 0.56-0.31 0.88 0 1.73 1.39 3.12 3.12 3.12h3.88v3h-0.08-1.38c-0.85 0-1.56 0.69-1.54 1.53 0.02 0.82 0.68 1.47 1.5 1.47l1.5 0.04v2.9c0 3.35 2.71 6.06 6.06 6.06h6.89c1.69 0 3.05-1.37 3.05-3.05v-7.49c0-4.67-3.78-8.46-8.45-8.46z" fill="url(#as)"/><path d="m7.2556 8c-0.74 0-1.39 0.46-1.63 1.15-0.08 0.21-0.15 0.43-0.23 0.65-0.25 0.72-0.93 1.2-1.7 1.2h-1.41c-0.2 0.25-0.31 0.56-0.31 0.88 0 1.73 1.39 3.12 3.12 3.12h5.88v-2.25c0-0.97-0.78-1.75-1.75-1.75-0.14 0-0.25-0.11-0.25-0.25v-1.03c0-0.95-0.77-1.72-1.72-1.72z" fill="url(#ar)"/><path d="m7.2556 8c-0.74 0-1.39 0.46-1.63 1.15-0.08 0.21-0.15 0.43-0.23 0.65-0.25 0.72-0.93 1.2-1.7 1.2h-1.41c-0.2 0.25-0.31 0.56-0.31 0.88 0 1.73 1.39 3.12 3.12 3.12h5.88v-2.25c0-0.97-0.78-1.75-1.75-1.75-0.14 0-0.25-0.11-0.25-0.25v-1.03c0-0.95-0.77-1.72-1.72-1.72z" fill="url(#aq)"/><path d="m7.2556 8c-0.74 0-1.39 0.46-1.63 1.15-0.08 0.21-0.15 0.43-0.23 0.65-0.25 0.72-0.93 1.2-1.7 1.2h-1.41c-0.2 0.25-0.31 0.56-0.31 0.88 0 1.73 1.39 3.12 3.12 3.12h5.88v-2.25c0-0.97-0.78-1.75-1.75-1.75-0.14 0-0.25-0.11-0.25-0.25v-1.03c0-0.95-0.77-1.72-1.72-1.72z" fill="url(#ao)"/><path d="m3.2356 11.96c0-0.53-0.42-0.96-0.95-0.96-0.2 0.25-0.36079 0.6758-0.36079 0.9883 0 0.36 0.08985 0.6875 0.22079 0.9217 0.05 0.01 0.09 0.01 0.13 0.01 0.53 0 0.96-0.43 0.96-0.96z" fill="url(#an)"/><path d="m9.6256 17.74 1.35-1.36v-0.09-1.29h-2v3c0.24-0.02 0.47-0.09 0.65-0.26z" fill="url(#am)"/><path d="m13.686 19.74c-0.85 0.83-1.99 1.3-3.18 1.3h-1.53v2.9c0 3.31 1.71 6 5 6.06v-10.6l-0.29 0.34z" fill="url(#al)"/><path d="m13.686 19.74c-0.85 0.83-1.99 1.3-3.18 1.3h-1.53v2.9c0 3.31 1.71 6 5 6.06v-10.6l-0.29 0.34z" fill="url(#ak)"/><path d="m13.686 19.74c-0.85 0.83-1.99 1.3-3.18 1.3h-1.53v2.9c0 3.31 1.71 6 5 6.06v-10.6l-0.29 0.34z" fill="url(#aj)"/><path d="m13.686 19.74c-0.85 0.83-1.99 1.3-3.18 1.3h-1.53v2.9c0 3.31 1.71 6 5 6.06v-10.6l-0.29 0.34z" fill="url(#ai)"/><path d="m7.2744 10.016c0.29772 0 0.53907-0.24132 0.53907-0.53904 0-0.29771-0.24135-0.53906-0.53907-0.53906-0.29771 0-0.53906 0.24135-0.53906 0.53906 0 0.29772 0.24135 0.53904 0.53906 0.53904z" fill="url(#ah)"/><path d="m7.2744 10.016c0.29772 0 0.53907-0.24132 0.53907-0.53904 0-0.29771-0.24135-0.53906-0.53907-0.53906-0.29771 0-0.53906 0.24135-0.53906 0.53906 0 0.29772 0.24135 0.53904 0.53906 0.53904z" fill="url(#ag)"/><path d="m21.696 19c-4.27 0-7.72 3.45-7.72 7.72v1.28h-5c-0.94 0-1.72 0.64-1.94 1.51-0.06 0.25 0.13 0.49 0.38 0.49h14.51c1.69 0 3.05-1.37 3.05-3.05v-7.95h-3.28z" fill="url(#b)"/><path d="m21.696 19c-4.27 0-7.72 3.45-7.72 7.72v1.28h-5c-0.94 0-1.72 0.64-1.94 1.51-0.06 0.25 0.13 0.49 0.38 0.49h14.51c1.69 0 3.05-1.37 3.05-3.05v-7.95h-3.28z" fill="url(#a)"/><path d="m21.696 19c-4.27 0-7.72 3.45-7.72 7.72v1.28h-5c-0.94 0-1.72 0.64-1.94 1.51-0.06 0.25 0.13 0.49 0.38 0.49h14.51c1.69 0 3.05-1.37 3.05-3.05v-7.95h-3.28z" fill="url(#ae)"/><path d="m21.696 19c-4.27 0-7.72 3.45-7.72 7.72v1.28h-5c-0.94 0-1.72 0.64-1.94 1.51-0.06 0.25 0.13 0.49 0.38 0.49h14.51c1.69 0 3.05-1.37 3.05-3.05v-7.95h-3.28z" fill="url(#b)"/><path d="m21.696 19c-4.27 0-7.72 3.45-7.72 7.72v1.28h-5c-0.94 0-1.72 0.64-1.94 1.51-0.06 0.25 0.13 0.49 0.38 0.49h14.51c1.69 0 3.05-1.37 3.05-3.05v-7.95h-3.28z" fill="url(#ad)"/><path d="m21.696 19c-4.27 0-7.72 3.45-7.72 7.72v1.28h-5c-0.94 0-1.72 0.64-1.94 1.51-0.06 0.25 0.13 0.49 0.38 0.49h14.51c1.69 0 3.05-1.37 3.05-3.05v-7.95h-3.28z" fill="url(#ac)"/><path d="m21.696 19c-4.27 0-7.72 3.45-7.72 7.72v1.28h-5c-0.94 0-1.72 0.64-1.94 1.51-0.06 0.25 0.13 0.49 0.38 0.49h14.51c1.69 0 3.05-1.37 3.05-3.05v-7.95h-3.28z" fill="url(#ab)"/><path d="m21.696 19c-4.27 0-7.72 3.45-7.72 7.72v1.28h-5c-0.94 0-1.72 0.64-1.94 1.51-0.06 0.25 0.13 0.49 0.38 0.49h14.51c1.69 0 3.05-1.37 3.05-3.05v-7.95h-3.28z" fill="url(#aa)"/><path d="m21.696 19c-4.27 0-7.72 3.45-7.72 7.72v1.28h-5c-0.94 0-1.72 0.64-1.94 1.51-0.06 0.25 0.13 0.49 0.38 0.49h14.51c1.69 0 3.05-1.37 3.05-3.05v-7.95h-3.28z" fill="url(#z)"/><path d="m21.696 19c-4.27 0-7.72 3.45-7.72 7.72v1.28h-5c-0.94 0-1.72 0.64-1.94 1.51-0.06 0.25 0.13 0.49 0.38 0.49h14.51c1.69 0 3.05-1.37 3.05-3.05v-7.95h-3.28z" fill="url(#a)"/><g filter="url(#bh)"><path d="m4.2393 18.992v-1.2368h0.78934v1.3682c0 0.104 0.01623 0.2073 0.04809 0.3063l0.35199 1.0938-0.38769-0.2039c-0.49302-0.2593-0.80173-0.7705-0.80173-1.3276z" fill="#BD948F"/></g><path d="m7.5756 16.49h-3.48c-0.41 0-0.75 0.34-0.75 0.75s0.34 0.75 0.75 0.75h3.48c0.41 0 0.75-0.34 0.75-0.75s-0.33-0.75-0.75-0.75z" fill="url(#y)"/><path d="m7.5756 16.49h-3.48c-0.41 0-0.75 0.34-0.75 0.75s0.34 0.75 0.75 0.75h3.48c0.41 0 0.75-0.34 0.75-0.75s-0.33-0.75-0.75-0.75z" fill="url(#w)"/><path d="m7.5756 16.49h-3.48c-0.41 0-0.75 0.34-0.75 0.75s0.34 0.75 0.75 0.75h3.48c0.41 0 0.75-0.34 0.75-0.75s-0.33-0.75-0.75-0.75z" fill="url(#v)"/><path d="m21.976 19.45v5.8c0 0.41 0.34 0.75 0.75 0.75s0.75-0.34 0.75-0.75v-5.8c0-2.96-1.86-5.5-4.48-6.5-0.49-0.18-1.02 0.18-1.02 0.71 0 0.31 0.19 0.59 0.48 0.7 2.06 0.78 3.52 2.77 3.52 5.09z" fill="url(#u)"/><path d="m9.6256 17.74 4.35-4.3962 1.5782 2.1093 0.9531 1.7969-2.8213 2.49c-0.85 0.83-1.99 1.3-3.18 1.3h-1.53l-1.5-0.04c-0.82 0-1.48-0.65-1.5-1.47-0.02-0.84 0.69-1.53 1.54-1.53h1.46c0.24001-0.02 0.47-0.09 0.65-0.26z" fill="#F2A85C"/><path d="m9.6256 17.74 4.35-4.3962 1.5782 2.1093 0.9531 1.7969-2.8213 2.49c-0.85 0.83-1.99 1.3-3.18 1.3h-1.53l-1.5-0.04c-0.82 0-1.48-0.65-1.5-1.47-0.02-0.84 0.69-1.53 1.54-1.53h1.46c0.24001-0.02 0.47-0.09 0.65-0.26z" fill="url(#t)"/><path d="m9.6256 17.74 4.35-4.3962 1.5782 2.1093 0.9531 1.7969-2.8213 2.49c-0.85 0.83-1.99 1.3-3.18 1.3h-1.53l-1.5-0.04c-0.82 0-1.48-0.65-1.5-1.47-0.02-0.84 0.69-1.53 1.54-1.53h1.46c0.24001-0.02 0.47-0.09 0.65-0.26z" fill="url(#s)"/><path d="m9.6256 17.74 4.35-4.3962 1.5782 2.1093 0.9531 1.7969-2.8213 2.49c-0.85 0.83-1.99 1.3-3.18 1.3h-1.53l-1.5-0.04c-0.82 0-1.48-0.65-1.5-1.47-0.02-0.84 0.69-1.53 1.54-1.53h1.46c0.24001-0.02 0.47-0.09 0.65-0.26z" fill="url(#r)"/><path d="m9.6256 17.74 4.35-4.3962 1.5782 2.1093 0.9531 1.7969-2.8213 2.49c-0.85 0.83-1.99 1.3-3.18 1.3h-1.53l-1.5-0.04c-0.82 0-1.48-0.65-1.5-1.47-0.02-0.84 0.69-1.53 1.54-1.53h1.46c0.24001-0.02 0.47-0.09 0.65-0.26z" fill="url(#q)"/><path d="m9.6256 17.74 4.35-4.3962 1.5782 2.1093 0.9531 1.7969-2.8213 2.49c-0.85 0.83-1.99 1.3-3.18 1.3h-1.53l-1.5-0.04c-0.82 0-1.48-0.65-1.5-1.47-0.02-0.84 0.69-1.53 1.54-1.53h1.46c0.24001-0.02 0.47-0.09 0.65-0.26z" fill="url(#p)"/><path d="m9.6256 17.74 4.35-4.3962 1.5782 2.1093 0.9531 1.7969-2.8213 2.49c-0.85 0.83-1.99 1.3-3.18 1.3h-1.53l-1.5-0.04c-0.82 0-1.48-0.65-1.5-1.47-0.02-0.84 0.69-1.53 1.54-1.53h1.46c0.24001-0.02 0.47-0.09 0.65-0.26z" fill="url(#o)"/><g filter="url(#bg)"><path d="m15.304 17.844-1.5883 1.342c-0.7514 0.6348-1.8656 0.581-2.5523-0.1233l2.9062-2.5313 1.2344 1.3126z" fill="url(#n)"/></g><g filter="url(#bf)"><path d="m14.466 11.011-2.0873-4.5268c-0.1182-0.25639-0.4252-0.36411-0.6777-0.23785l-2.3226 1.1613c-0.24198 0.12099-0.34383 0.41252-0.22984 0.65788l2.1342 4.5936c0.1213 0.2611 0.4375 0.366 0.6908 0.2293l2.2759-1.228c0.2323-0.1254 0.3271-0.4097 0.2166-0.6494z" fill="url(#l)"/></g><g filter="url(#be)"><path d="m12.278 5.6879c-0.0912-0.84429-0.4087-1.3823-0.731-1.6974-0.2375-0.23223-0.5556-0.01917-0.5556 0.31302v1.384c0 0.27614 0.2239 0.5 0.5 0.5h0.3125c0.2762 0 0.5037-0.22508 0.4741-0.49963z" fill="url(#k)"/></g><g filter="url(#bd)"><ellipse transform="rotate(-38.224 28.202 4.963)" cx="28.202" cy="4.963" rx="1.1912" ry="1.5606" fill="url(#j)"/></g><g filter="url(#bc)" opacity=".3"><path d="m23.038 4.75c-0.9271 0.89583-2.1938 3.2875 0.1562 5.6875" stroke="url(#i)" stroke-linecap="round" stroke-width=".5"/></g><g filter="url(#bb)"><path d="M25.96 8.45312L24.1318 9.25" stroke="url(#h)" stroke-linecap="round" stroke-width=".4"/></g><defs><filter id="bj" x="20.976" y="3" width="9.2" height="27.4" color-interpolation-filters="sRGB" filterUnits="userSpaceOnUse"><feFlood flood-opacity="0" result="BackgroundImageFix"/><feBlend in="SourceGraphic" in2="BackgroundImageFix" result="shape"/><feColorMatrix in="SourceAlpha" result="hardAlpha" values="0 0 0 0 0 0 0 0 0 0 0 0 0 0 0 0 0 0 127 0"/><feOffset dx="0.2" dy="0.4"/><feGaussianBlur stdDeviation="0.5"/><feComposite in2="hardAlpha" k2="-1" k3="1" operator="arithmetic"/><feColorMatrix values="0 0 0 0 0.431373 0 0 0 0 0.239216 0 0 0 0 0.231373 0 0 0 1 0"/><feBlend in2="shape" result="effect1_innerShadow_28327_3925"/></filter><filter id="bi" x="22.476" y="7.1561" width="7.9375" height="22.219" color-interpolation-filters="sRGB" filterUnits="userSpaceOnUse"><feFlood flood-opacity="0" result="BackgroundImageFix"/><feBlend in="SourceGraphic" in2="BackgroundImageFix" result="shape"/><feGaussianBlur result="effect1_foregroundBlur_28327_3925" stdDeviation="0.75"/></filter><filter id="bh" x="3.2393" y="16.756" width="3.1894" height="4.7683" color-interpolation-filters="sRGB" filterUnits="userSpaceOnUse"><feFlood flood-opacity="0" result="BackgroundImageFix"/><feBlend in="SourceGraphic" in2="BackgroundImageFix" result="shape"/><feGaussianBlur result="effect1_foregroundBlur_28327_3925" stdDeviation="0.5"/></filter><filter id="bg" x="10.663" y="16.031" width="5.1406" height="4.0973" color-interpolation-filters="sRGB" filterUnits="userSpaceOnUse"><feFlood flood-opacity="0" result="BackgroundImageFix"/><feBlend in="SourceGraphic" in2="BackgroundImageFix" result="shape"/><feGaussianBlur result="effect1_foregroundBlur_28327_3925" stdDeviation="0.25"/></filter><filter id="bf" x="7.1024" y="4.1935" width="9.4102" height="10.755" color-interpolation-filters="sRGB" filterUnits="userSpaceOnUse"><feFlood flood-opacity="0" result="BackgroundImageFix"/><feBlend in="SourceGraphic" in2="BackgroundImageFix" result="shape"/><feGaussianBlur result="effect1_foregroundBlur_28327_3925" stdDeviation="1"/></filter><filter id="be" x="9.9912" y="2.8928" width="3.2891" height="4.2947" color-interpolation-filters="sRGB" filterUnits="userSpaceOnUse"><feFlood flood-opacity="0" result="BackgroundImageFix"/><feBlend in="SourceGraphic" in2="BackgroundImageFix" result="shape"/><feGaussianBlur result="effect1_foregroundBlur_28327_3925" stdDeviation="0.5"/></filter><filter id="bd" x="25.858" y="2.5324" width="4.6893" height="4.8613" color-interpolation-filters="sRGB" filterUnits="userSpaceOnUse"><feFlood flood-opacity="0" result="BackgroundImageFix"/><feBlend in="SourceGraphic" in2="BackgroundImageFix" result="shape"/><feGaussianBlur result="effect1_foregroundBlur_28327_3925" stdDeviation="0.5"/></filter><filter id="bc" x="20.854" y="3.75" width="3.3402" height="7.6875" color-interpolation-filters="sRGB" filterUnits="userSpaceOnUse"><feFlood flood-opacity="0" result="BackgroundImageFix"/><feBlend in="SourceGraphic" in2="BackgroundImageFix" result="shape"/><feGaussianBlur result="effect1_foregroundBlur_28327_3925" stdDeviation="0.375"/></filter><filter id="bb" x="23.132" y="7.453" width="3.8283" height="2.797" color-interpolation-filters="sRGB" filterUnits="userSpaceOnUse"><feFlood flood-opacity="0" result="BackgroundImageFix"/><feBlend in="SourceGraphic" in2="BackgroundImageFix" result="shape"/><feGaussianBlur result="effect1_foregroundBlur_28327_3925" stdDeviation="0.4"/></filter><linearGradient id="ba" x1="25.476" x2="25.476" y1="29.375" y2="3" gradientUnits="userSpaceOnUse"><stop stop-color="#732D22" offset="0"/><stop stop-color="#B67574" offset="1"/></linearGradient><linearGradient id="ap" x1="30.913" x2="28.538" y1="18.688" y2="18.688" gradientUnits="userSpaceOnUse"><stop stop-color="#8B6D68" offset="0"/><stop stop-color="#8B6D68" stop-opacity="0" offset="1"/></linearGradient><linearGradient id="af" x1="25.944" x2="25.944" y1="30.219" y2="25.969" gradientUnits="userSpaceOnUse"><stop stop-color="#843977" offset="0"/><stop stop-color="#843977" stop-opacity="0" offset=".99057"/></linearGradient><radialGradient id="x" cx="0" cy="0" r="1" gradientTransform="translate(29.476 8.625) rotate(202.5) scale(4.7356 1.7619)" gradientUnits="userSpaceOnUse"><stop stop-color="#843977" offset="0"/><stop stop-color="#843977" stop-opacity="0" offset=".99057"/></radialGradient><radialGradient id="m" cx="0" cy="0" r="1" gradientTransform="translate(22.288 7.5) rotate(-.69028) scale(5.1879 5.5434)" gradientUnits="userSpaceOnUse"><stop stop-color="#9D5F57" offset="0"/><stop stop-color="#9D5F57" stop-opacity="0" offset="1"/></radialGradient><radialGradient id="g" cx="0" cy="0" r="1" gradientTransform="translate(24.382 14.062) rotate(-40.657) scale(3.5014 4.2536)" gradientUnits="userSpaceOnUse"><stop stop-color="#894144" offset="0"/><stop stop-color="#894144" stop-opacity="0" offset="1"/></radialGradient><radialGradient id="f" cx="0" cy="0" r="1" gradientTransform="translate(22.319 25.625) rotate(19.525) scale(4.6751 9.5192)" gradientUnits="userSpaceOnUse"><stop stop-color="#602B2E" offset="0"/><stop stop-color="#602B2E" stop-opacity="0" offset=".89862"/></radialGradient><linearGradient id="e" x1="26.444" x2="26.444" y1="9.0312" y2="27.5" gradientUnits="userSpaceOnUse"><stop stop-color="#C89492" offset="0"/><stop stop-color="#AA7472" offset="1"/></linearGradient><linearGradient id="d" x1="5.8356" x2="6.6188" y1="17.743" y2="20.127" gradientUnits="userSpaceOnUse"><stop stop-color="#9C5D65" offset="0"/><stop stop-color="#814376" offset="1"/></linearGradient><radialGradient id="c" cx="0" cy="0" r="1" gradientTransform="translate(6.3882 20.088) rotate(161.56) scale(.89161 .98077)" gradientUnits="userSpaceOnUse"><stop stop-color="#8B4267" offset="0"/><stop stop-color="#8B4267" stop-opacity="0" offset="1"/></radialGradient><linearGradient id="az" x1="12.083" x2=".95877" y1="3" y2="20.273" gradientUnits="userSpaceOnUse"><stop stop-color="#FFBC7A" offset="0"/><stop stop-color="#DC872A" offset="1"/><stop stop-color="#F79755" offset="1"/></linearGradient><radialGradient id="ay" cx="0" cy="0" r="1" gradientTransform="translate(12.226 23.188) rotate(-39.457) scale(5.2616 4.7393)" gradientUnits="userSpaceOnUse"><stop stop-color="#F4718B" offset="0"/><stop stop-color="#F37890" stop-opacity="0" offset=".85407"/></radialGradient><radialGradient id="ax" cx="0" cy="0" r="1" gradientTransform="translate(22.038 18.5) rotate(241) scale(5.9309 5.6127)" gradientUnits="userSpaceOnUse"><stop stop-color="#FFC881" offset="0"/><stop stop-color="#FFC881" stop-opacity="0" offset="1"/></radialGradient><radialGradient id="aw" cx="0" cy="0" r="1" gradientTransform="translate(12.148 16.5) rotate(246.48) scale(2.897 3.5536)" gradientUnits="userSpaceOnUse"><stop stop-color="#D58653" offset="0"/><stop stop-color="#C56F38" stop-opacity=".97396" offset="1e-4"/><stop stop-color="#D58653" stop-opacity="0" offset="1"/></radialGradient><radialGradient id="av" cx="0" cy="0" r="1" gradientTransform="translate(12.413 19.281) rotate(92.272) scale(3.9406 3.5708)" gradientUnits="userSpaceOnUse"><stop stop-color="#E58463" offset="0"/><stop stop-color="#C56F38" stop-opacity=".97396" offset="1e-4"/><stop stop-color="#E58463" stop-opacity="0" offset="1"/></radialGradient><radialGradient id="au" cx="0" cy="0" r="1" gradientTransform="translate(16.132 25.062) rotate(212.1) scale(6.2341 6.2144)" gradientUnits="userSpaceOnUse"><stop stop-color="#E58463" offset="0"/><stop stop-color="#C56F38" stop-opacity=".97396" offset="1e-4"/><stop stop-color="#E58463" stop-opacity="0" offset="1"/></radialGradient><radialGradient id="at" cx="0" cy="0" r="1" gradientTransform="translate(7.1443 9.5151) rotate(-38.838) scale(3.2085 2.7331)" gradientUnits="userSpaceOnUse"><stop stop-color="#F16C42" offset="0"/><stop stop-color="#FFB179" stop-opacity="0" offset="1"/></radialGradient><linearGradient id="as" x1="3.5943" x2="5.2347" y1="6.875" y2="8.1053" gradientUnits="userSpaceOnUse"><stop stop-color="#FFD490" offset="0"/><stop stop-color="#FFD490" stop-opacity="0" offset="1"/></linearGradient><linearGradient id="ar" x1="5.9131" x2="6.0291" y1="8.9375" y2="15.082" gradientUnits="userSpaceOnUse"><stop stop-color="#FFD0A7" offset="0"/><stop stop-color="#EBB28F" offset="1"/></linearGradient><radialGradient id="aq" cx="0" cy="0" r="1" gradientTransform="translate(5.0381 18.188) rotate(-40.426) scale(6.0961 3.0917)" gradientUnits="userSpaceOnUse"><stop stop-color="#F4718B" offset="0"/><stop stop-color="#F37890" stop-opacity="0" offset="1"/></radialGradient><radialGradient id="ao" cx="0" cy="0" r="1" gradientTransform="translate(9.1006 8.5) rotate(125.87) scale(2.5066 3.2228)" gradientUnits="userSpaceOnUse"><stop stop-color="#FFDAB6" offset="0"/><stop stop-color="#FFDAB6" stop-opacity="0" offset="1"/></radialGradient><linearGradient id="an" x1="1.8076" x2="3.24" y1="11.962" y2="11.962" gradientUnits="userSpaceOnUse"><stop stop-color="#432F41" offset=".0055866"/><stop stop-color="#342230" offset="1"/></linearGradient><linearGradient id="am" x1="11.257" x2="10.585" y1="15.938" y2="14.688" gradientUnits="userSpaceOnUse"><stop stop-color="#DAA37B" offset="0"/><stop stop-color="#EBB28F" offset="1"/></linearGradient><linearGradient id="al" x1="13.976" x2="8.9756" y1="23.669" y2="23.669" gradientUnits="userSpaceOnUse"><stop stop-color="#E19D85" offset="0"/><stop stop-color="#E8B997" offset="1"/></linearGradient><linearGradient id="ak" x1="11.163" x2="11.163" y1="28.938" y2="25.875" gradientUnits="userSpaceOnUse"><stop stop-color="#E19D85" offset="0"/><stop stop-color="#E19D85" stop-opacity="0" offset="1"/></linearGradient><radialGradient id="aj" cx="0" cy="0" r="1" gradientTransform="translate(13.976 28.188) rotate(196.7) scale(3.2626 3.4618)" gradientUnits="userSpaceOnUse"><stop stop-color="#DA9269" offset="0"/><stop stop-color="#DA9269" stop-opacity="0" offset="1"/></radialGradient><radialGradient id="ai" cx="0" cy="0" r="1" gradientTransform="translate(12.788 19.4) rotate(137.81) scale(3.9646 1.7787)" gradientUnits="userSpaceOnUse"><stop stop-color="#DA9269" offset="0"/><stop stop-color="#DA9269" stop-opacity="0" offset="1"/></radialGradient><radialGradient id="ah" cx="0" cy="0" r="1" gradientTransform="translate(7.4344 9.3031) rotate(125.84) scale(.74807 .66694)" gradientUnits="userSpaceOnUse"><stop stop-color="#433437" offset=".0055866"/><stop stop-color="#3B2838" offset="1"/></radialGradient><radialGradient id="ag" cx="0" cy="0" r="1" gradientTransform="translate(7.4513 9.3621) rotate(126.38) scale(.39757 .33514)" gradientUnits="userSpaceOnUse"><stop stop-color="#5C5051" offset="0"/><stop stop-color="#5C5051" stop-opacity="0" offset="1"/></radialGradient><radialGradient id="b" cx="0" cy="0" r="1" gradientTransform="translate(21.851 23.062) rotate(123.77) scale(12.481)" gradientUnits="userSpaceOnUse"><stop stop-color="#FFBC7A" offset="0"/><stop stop-color="#DC872A" offset="1"/><stop stop-color="#F79755" offset="1"/></radialGradient><linearGradient id="a" x1="16" x2="16" y1="30.625" y2="27.812" gradientUnits="userSpaceOnUse"><stop stop-color="#F4718B" offset="0"/><stop stop-color="#F37890" stop-opacity="0" offset=".77012"/></linearGradient><radialGradient id="ae" cx="0" cy="0" r="1" gradientTransform="translate(14.351 23.312) rotate(98.94) scale(5.6309 3.8313)" gradientUnits="userSpaceOnUse"><stop stop-color="#EA8853" offset="0"/><stop stop-color="#EA8853" stop-opacity="0" offset="1"/></radialGradient><radialGradient id="ad" cx="0" cy="0" r="1" gradientTransform="translate(14.976 28.938) rotate(90) scale(.65625 6.4688)" gradientUnits="userSpaceOnUse"><stop stop-color="#FAA44D" offset="0"/><stop stop-color="#FD9A6A" stop-opacity="0" offset="1"/></radialGradient><radialGradient id="ac" cx="0" cy="0" r="1" gradientTransform="translate(14.351 23.312) rotate(98.616) scale(6.2581 2.3037)" gradientUnits="userSpaceOnUse"><stop stop-color="#E88750" offset="0"/><stop stop-color="#E88750" stop-opacity="0" offset="1"/></radialGradient><radialGradient id="ab" cx="0" cy="0" r="1" gradientTransform="translate(24.163 30) rotate(212.93) scale(13.106 16.426)" gradientUnits="userSpaceOnUse"><stop stop-color="#E9812E" stop-opacity="0" offset=".77976"/><stop stop-color="#E9812E" offset="1"/></radialGradient><radialGradient id="aa" cx="0" cy="0" r="1" gradientTransform="translate(23.413 19.688) rotate(100.46) scale(8.2623 3.7869)" gradientUnits="userSpaceOnUse"><stop stop-color="#FFC881" offset="0"/><stop stop-color="#FFC881" stop-opacity="0" offset="1"/></radialGradient><linearGradient id="z" x1="25.257" x2="24.476" y1="25" y2="25" gradientUnits="userSpaceOnUse"><stop stop-color="#EE9F58" offset="0"/><stop stop-color="#EE9F58" stop-opacity="0" offset="1"/></linearGradient><linearGradient id="y" x1="7.2881" x2="4.5068" y1="18.438" y2="16.49" gradientUnits="userSpaceOnUse"><stop stop-color="#E68A48" offset="0"/><stop stop-color="#FAAF70" offset="1"/></linearGradient><radialGradient id="w" cx="0" cy="0" r="1" gradientTransform="translate(3.5693 18.219) rotate(-16.972) scale(2.5158 2.062)" gradientUnits="userSpaceOnUse"><stop stop-color="#FFCE9C" offset="0"/><stop stop-color="#FFCE9C" stop-opacity="0" offset=".7747"/></radialGradient><radialGradient id="v" cx="0" cy="0" r="1" gradientTransform="translate(6.6318 16.922) rotate(90) scale(.57812 1.9194)" gradientUnits="userSpaceOnUse"><stop stop-color="#F9AE7E" offset="0"/><stop stop-color="#F9AE7E" stop-opacity="0" offset="1"/></radialGradient><radialGradient id="u" cx="0" cy="0" r="1" gradientTransform="translate(23.476 18.562) rotate(153.76) scale(4.9474 12.439)" gradientUnits="userSpaceOnUse"><stop stop-color="#C37E70" offset="0"/><stop stop-color="#9C5F60" offset="1"/></radialGradient><linearGradient id="t" x1="15.632" x2="13.413" y1="17.192" y2="17.969" gradientUnits="userSpaceOnUse"><stop stop-color="#F0A456" offset="0"/><stop stop-color="#F1A75A" stop-opacity="0" offset="1"/></linearGradient><linearGradient id="s" x1="9.9754" x2="9.9754" y1="21.719" y2="19.281" gradientUnits="userSpaceOnUse"><stop stop-color="#F4718B" offset="0"/><stop stop-color="#F37890" stop-opacity="0" offset=".71338"/></linearGradient><linearGradient id="r" x1="5.9752" x2="7.2881" y1="20.531" y2="20.531" gradientUnits="userSpaceOnUse"><stop stop-color="#FBA97E" offset="0"/><stop stop-color="#EB9D74" stop-opacity="0" offset="1"/></linearGradient><radialGradient id="q" cx="0" cy="0" r="1" gradientTransform="translate(7.5694 19.578) scale(5.9688 1.1858)" gradientUnits="userSpaceOnUse"><stop stop-color="#F3A26C" offset="0"/><stop stop-color="#F3A26C" stop-opacity="0" offset="1"/></radialGradient><radialGradient id="p" cx="0" cy="0" r="1" gradientTransform="translate(10.788 15.781) rotate(46.591) scale(1.5916 3.4335)" gradientUnits="userSpaceOnUse"><stop stop-color="#D58653" offset="0"/><stop stop-color="#D58653" stop-opacity="0" offset="1"/></radialGradient><radialGradient id="o" cx="0" cy="0" r="1" gradientTransform="translate(14.101 19.875) rotate(230.6) scale(1.1324 3.6144)" gradientUnits="userSpaceOnUse"><stop stop-color="#E98B57" offset="0"/><stop stop-color="#E98B57" stop-opacity="0" offset="1"/></radialGradient><linearGradient id="n" x1="14.694" x2="13.007" y1="19.281" y2="17.625" gradientUnits="userSpaceOnUse"><stop stop-color="#F5A57F" offset="0"/><stop stop-color="#F5A57F" stop-opacity="0" offset="1"/></linearGradient><linearGradient id="l" x1="13.476" x2="10.351" y1="9.2812" y2="10.969" gradientUnits="userSpaceOnUse"><stop stop-color="#FFD490" offset="0"/><stop stop-color="#FFD490" stop-opacity="0" offset="1"/></linearGradient><linearGradient id="k" x1="12.031" x2="11.204" y1="4.8079" y2="5.0946" gradientUnits="userSpaceOnUse"><stop stop-color="#FFD490" offset="0"/><stop stop-color="#FFD490" stop-opacity="0" offset="1"/></linearGradient><radialGradient id="j" cx="0" cy="0" r="1" gradientTransform="translate(28.699 4.3319) rotate(108.57) scale(2.6082 1.9909)" gradientUnits="userSpaceOnUse"><stop stop-color="#C89185" offset="0"/><stop stop-color="#C89185" stop-opacity="0" offset="1"/></radialGradient><linearGradient id="i" x1="22.524" x2="22.524" y1="4.75" y2="10.438" gradientUnits="userSpaceOnUse"><stop stop-color="#C89492" offset="0"/><stop stop-color="#AA7472" offset="1"/></linearGradient><linearGradient id="h" x1="24.929" x2="24.929" y1="8.5938" y2="9.25" gradientUnits="userSpaceOnUse"><stop stop-color="#C89492" offset="0"/><stop stop-color="#AA7472" offset="1"/></linearGradient></defs></svg>
