<svg fill="none" viewBox="0 0 32 32" xmlns="http://www.w3.org/2000/svg"><g filter="url(#k)"><path d="m23.623 21.425 0.9948 0.996c0.5372 0.5378 1.4027 0.5378 1.9399 0l3.1437-3.1472c0.398-0.3984 0.398-1.0358 0-1.4342l-5.8297-5.8362c-0.1791-0.1793-0.1791-0.4581 0-0.6374 0.1094-0.1095 0.2586-0.1494 0.3979-0.1195 0.9451 0.1594 1.9499-0.1195 2.6761-0.8465 1.2038-1.2051 1.1938-3.1671-0.0298-4.3623l-0.8556-0.86647-0.388 0.12948c-0.9749-0.28883-2.0692-0.07968-2.8751 0.61748-0.8356 0.72704-1.1739 1.7927-1.0147 2.7886 0.0199 0.14939-0.0199 0.28882-0.1293 0.39838l-0.0199 0.01992c-0.1791 0.17927-0.4576 0.17927-0.6367 0l-5.8298-5.8263c-0.3979-0.39837-1.0346-0.39837-1.4326 0l-3.1138 3.1173c-0.0796 0.07968-0.1393 0.16931-0.199 0.25895l-0.2089-0.20915-0.73618 0.737 1.1441 1.1453 0.0199 0.01992c0.2785 0.27886 0.6566 0.42825 1.0446 0.40834 0.8953-0.03984 1.8106 0.30874 2.4572 1.0557 0.9849 1.1353 0.9949 2.8583 0 4.0037-1.1739 1.3544-3.2233 1.4142-4.4768 0.1693-0.64665-0.6474-0.9451-1.5039-0.88541-2.3505 0.0199-0.3884-0.11938-0.7668-0.39794-1.0457-0.00995-0.0199-0.01989-0.0299-0.02984-0.0398l-0.97495-0.97606-0.42778 0.43826 0.18902 0.1892c-0.25866 0.0498-0.49742 0.1793-0.69639 0.3784l-3.1437 3.1472c-0.39793 0.3984-0.39793 1.0358 0 1.4342l5.8397 5.8462c0.17907 0.1792 0.17907 0.4581 0 0.6374-0.10943 0.1095-0.25866 0.1494-0.39793 0.1195-1.0048-0.1693-2.0792 0.1593-2.8154 0.9959-0.99484 1.1354-1.0048 2.8683-0.00994 4.0137 1.1739 1.3544 3.2233 1.4142 4.4768 0.1593 0.7163-0.7171 1.0048-1.713 0.8555-2.6392-0.0199-0.1494 0.0199-0.2889 0.1294-0.3984l0.0199-0.0199c0.179-0.1793 0.4576-0.1793 0.6367 0l5.7999 5.8063c0.3979 0.3984 1.0346 0.3984 1.4326 0l3.1138-3.1173c0.5372-0.5378 0.5372-1.4043 0-1.9421l-0.0199-0.0199-0.8854-0.8864-0.388 0.3884 0.1095 0.1096c-0.8556 0-1.7112-0.3486-2.328-1.0557-0.9849-1.1354-0.9948-2.8584 0-4.0037 1.1739-1.3545 3.2233-1.4142 4.4768-0.1693 0.5173 0.5179 0.8158 1.1852 0.8755 1.8624l-0.0199-0.0199-0.577 0.5776z" fill="#EAE4F2"/><path d="m23.623 21.425 0.9948 0.996c0.5372 0.5378 1.4027 0.5378 1.9399 0l3.1437-3.1472c0.398-0.3984 0.398-1.0358 0-1.4342l-5.8297-5.8362c-0.1791-0.1793-0.1791-0.4581 0-0.6374 0.1094-0.1095 0.2586-0.1494 0.3979-0.1195 0.9451 0.1594 1.9499-0.1195 2.6761-0.8465 1.2038-1.2051 1.1938-3.1671-0.0298-4.3623l-0.8556-0.86647-0.388 0.12948c-0.9749-0.28883-2.0692-0.07968-2.8751 0.61748-0.8356 0.72704-1.1739 1.7927-1.0147 2.7886 0.0199 0.14939-0.0199 0.28882-0.1293 0.39838l-0.0199 0.01992c-0.1791 0.17927-0.4576 0.17927-0.6367 0l-5.8298-5.8263c-0.3979-0.39837-1.0346-0.39837-1.4326 0l-3.1138 3.1173c-0.0796 0.07968-0.1393 0.16931-0.199 0.25895l-0.2089-0.20915-0.73618 0.737 1.1441 1.1453 0.0199 0.01992c0.2785 0.27886 0.6566 0.42825 1.0446 0.40834 0.8953-0.03984 1.8106 0.30874 2.4572 1.0557 0.9849 1.1353 0.9949 2.8583 0 4.0037-1.1739 1.3544-3.2233 1.4142-4.4768 0.1693-0.64665-0.6474-0.9451-1.5039-0.88541-2.3505 0.0199-0.3884-0.11938-0.7668-0.39794-1.0457-0.00995-0.0199-0.01989-0.0299-0.02984-0.0398l-0.97495-0.97606-0.42778 0.43826 0.18902 0.1892c-0.25866 0.0498-0.49742 0.1793-0.69639 0.3784l-3.1437 3.1472c-0.39793 0.3984-0.39793 1.0358 0 1.4342l5.8397 5.8462c0.17907 0.1792 0.17907 0.4581 0 0.6374-0.10943 0.1095-0.25866 0.1494-0.39793 0.1195-1.0048-0.1693-2.0792 0.1593-2.8154 0.9959-0.99484 1.1354-1.0048 2.8683-0.00994 4.0137 1.1739 1.3544 3.2233 1.4142 4.4768 0.1593 0.7163-0.7171 1.0048-1.713 0.8555-2.6392-0.0199-0.1494 0.0199-0.2889 0.1294-0.3984l0.0199-0.0199c0.179-0.1793 0.4576-0.1793 0.6367 0l5.7999 5.8063c0.3979 0.3984 1.0346 0.3984 1.4326 0l3.1138-3.1173c0.5372-0.5378 0.5372-1.4043 0-1.9421l-0.0199-0.0199-0.8854-0.8864-0.388 0.3884 0.1095 0.1096c-0.8556 0-1.7112-0.3486-2.328-1.0557-0.9849-1.1354-0.9948-2.8584 0-4.0037 1.1739-1.3545 3.2233-1.4142 4.4768-0.1693 0.5173 0.5179 0.8158 1.1852 0.8755 1.8624l-0.0199-0.0199-0.577 0.5776z" fill="url(#j)"/></g><path d="m23.623 21.425 0.9948 0.996c0.5372 0.5378 1.4027 0.5378 1.9399 0l3.1437-3.1472c0.398-0.3984 0.398-1.0358 0-1.4342l-5.8297-5.8362c-0.1791-0.1793-0.1791-0.4581 0-0.6374 0.1094-0.1095 0.2586-0.1494 0.3979-0.1195 0.9451 0.1594 1.9499-0.1195 2.6761-0.8465 1.2038-1.2051 1.1938-3.1671-0.0298-4.3623l-0.8556-0.86647-0.388 0.12948c-0.9749-0.28883-2.0692-0.07968-2.8751 0.61748-0.8356 0.72704-1.1739 1.7927-1.0147 2.7886 0.0199 0.14939-0.0199 0.28882-0.1293 0.39838l-0.0199 0.01992c-0.1791 0.17927-0.4576 0.17927-0.6367 0l-5.8298-5.8263c-0.3979-0.39837-1.0346-0.39837-1.4326 0l-3.1138 3.1173c-0.0796 0.07968-0.1393 0.16931-0.199 0.25895l-0.2089-0.20915-0.73618 0.737 1.1441 1.1453 0.0199 0.01992c0.2785 0.27886 0.6566 0.42825 1.0446 0.40834 0.8953-0.03984 1.8106 0.30874 2.4572 1.0557 0.9849 1.1353 0.9949 2.8583 0 4.0037-1.1739 1.3544-3.2233 1.4142-4.4768 0.1693-0.64665-0.6474-0.9451-1.5039-0.88541-2.3505 0.0199-0.3884-0.11938-0.7668-0.39794-1.0457-0.00995-0.0199-0.01989-0.0299-0.02984-0.0398l-0.97495-0.97606-0.42778 0.43826 0.18902 0.1892c-0.25866 0.0498-0.49742 0.1793-0.69639 0.3784l-3.1437 3.1472c-0.39793 0.3984-0.39793 1.0358 0 1.4342l5.8397 5.8462c0.17907 0.1792 0.17907 0.4581 0 0.6374-0.10943 0.1095-0.25866 0.1494-0.39793 0.1195-1.0048-0.1693-2.0792 0.1593-2.8154 0.9959-0.99484 1.1354-1.0048 2.8683-0.00994 4.0137 1.1739 1.3544 3.2233 1.4142 4.4768 0.1593 0.7163-0.7171 1.0048-1.713 0.8555-2.6392-0.0199-0.1494 0.0199-0.2889 0.1294-0.3984l0.0199-0.0199c0.179-0.1793 0.4576-0.1793 0.6367 0l5.7999 5.8063c0.3979 0.3984 1.0346 0.3984 1.4326 0l3.1138-3.1173c0.5372-0.5378 0.5372-1.4043 0-1.9421l-0.0199-0.0199-0.8854-0.8864-0.388 0.3884 0.1095 0.1096c-0.8556 0-1.7112-0.3486-2.328-1.0557-0.9849-1.1354-0.9948-2.8584 0-4.0037 1.1739-1.3545 3.2233-1.4142 4.4768-0.1693 0.5173 0.5179 0.8158 1.1852 0.8755 1.8624l-0.0199-0.0199-0.577 0.5776z" fill="url(#i)"/><path d="m23.623 21.425 0.9948 0.996c0.5372 0.5378 1.4027 0.5378 1.9399 0l3.1437-3.1472c0.398-0.3984 0.398-1.0358 0-1.4342l-5.8297-5.8362c-0.1791-0.1793-0.1791-0.4581 0-0.6374 0.1094-0.1095 0.2586-0.1494 0.3979-0.1195 0.9451 0.1594 1.9499-0.1195 2.6761-0.8465 1.2038-1.2051 1.1938-3.1671-0.0298-4.3623l-0.8556-0.86647-0.388 0.12948c-0.9749-0.28883-2.0692-0.07968-2.8751 0.61748-0.8356 0.72704-1.1739 1.7927-1.0147 2.7886 0.0199 0.14939-0.0199 0.28882-0.1293 0.39838l-0.0199 0.01992c-0.1791 0.17927-0.4576 0.17927-0.6367 0l-5.8298-5.8263c-0.3979-0.39837-1.0346-0.39837-1.4326 0l-3.1138 3.1173c-0.0796 0.07968-0.1393 0.16931-0.199 0.25895l-0.2089-0.20915-0.73618 0.737 1.1441 1.1453 0.0199 0.01992c0.2785 0.27886 0.6566 0.42825 1.0446 0.40834 0.8953-0.03984 1.8106 0.30874 2.4572 1.0557 0.9849 1.1353 0.9949 2.8583 0 4.0037-1.1739 1.3544-3.2233 1.4142-4.4768 0.1693-0.64665-0.6474-0.9451-1.5039-0.88541-2.3505 0.0199-0.3884-0.11938-0.7668-0.39794-1.0457-0.00995-0.0199-0.01989-0.0299-0.02984-0.0398l-0.97495-0.97606-0.42778 0.43826 0.18902 0.1892c-0.25866 0.0498-0.49742 0.1793-0.69639 0.3784l-3.1437 3.1472c-0.39793 0.3984-0.39793 1.0358 0 1.4342l5.8397 5.8462c0.17907 0.1792 0.17907 0.4581 0 0.6374-0.10943 0.1095-0.25866 0.1494-0.39793 0.1195-1.0048-0.1693-2.0792 0.1593-2.8154 0.9959-0.99484 1.1354-1.0048 2.8683-0.00994 4.0137 1.1739 1.3544 3.2233 1.4142 4.4768 0.1593 0.7163-0.7171 1.0048-1.713 0.8555-2.6392-0.0199-0.1494 0.0199-0.2889 0.1294-0.3984l0.0199-0.0199c0.179-0.1793 0.4576-0.1793 0.6367 0l5.7999 5.8063c0.3979 0.3984 1.0346 0.3984 1.4326 0l3.1138-3.1173c0.5372-0.5378 0.5372-1.4043 0-1.9421l-0.0199-0.0199-0.8854-0.8864-0.388 0.3884 0.1095 0.1096c-0.8556 0-1.7112-0.3486-2.328-1.0557-0.9849-1.1354-0.9948-2.8584 0-4.0037 1.1739-1.3545 3.2233-1.4142 4.4768-0.1693 0.5173 0.5179 0.8158 1.1852 0.8755 1.8624l-0.0199-0.0199-0.577 0.5776z" fill="url(#h)"/><path d="m23.623 21.425 0.9948 0.996c0.5372 0.5378 1.4027 0.5378 1.9399 0l3.1437-3.1472c0.398-0.3984 0.398-1.0358 0-1.4342l-5.8297-5.8362c-0.1791-0.1793-0.1791-0.4581 0-0.6374 0.1094-0.1095 0.2586-0.1494 0.3979-0.1195 0.9451 0.1594 1.9499-0.1195 2.6761-0.8465 1.2038-1.2051 1.1938-3.1671-0.0298-4.3623l-0.8556-0.86647-0.388 0.12948c-0.9749-0.28883-2.0692-0.07968-2.8751 0.61748-0.8356 0.72704-1.1739 1.7927-1.0147 2.7886 0.0199 0.14939-0.0199 0.28882-0.1293 0.39838l-0.0199 0.01992c-0.1791 0.17927-0.4576 0.17927-0.6367 0l-5.8298-5.8263c-0.3979-0.39837-1.0346-0.39837-1.4326 0l-3.1138 3.1173c-0.0796 0.07968-0.1393 0.16931-0.199 0.25895l-0.2089-0.20915-0.73618 0.737 1.1441 1.1453 0.0199 0.01992c0.2785 0.27886 0.6566 0.42825 1.0446 0.40834 0.8953-0.03984 1.8106 0.30874 2.4572 1.0557 0.9849 1.1353 0.9949 2.8583 0 4.0037-1.1739 1.3544-3.2233 1.4142-4.4768 0.1693-0.64665-0.6474-0.9451-1.5039-0.88541-2.3505 0.0199-0.3884-0.11938-0.7668-0.39794-1.0457-0.00995-0.0199-0.01989-0.0299-0.02984-0.0398l-0.97495-0.97606-0.42778 0.43826 0.18902 0.1892c-0.25866 0.0498-0.49742 0.1793-0.69639 0.3784l-3.1437 3.1472c-0.39793 0.3984-0.39793 1.0358 0 1.4342l5.8397 5.8462c0.17907 0.1792 0.17907 0.4581 0 0.6374-0.10943 0.1095-0.25866 0.1494-0.39793 0.1195-1.0048-0.1693-2.0792 0.1593-2.8154 0.9959-0.99484 1.1354-1.0048 2.8683-0.00994 4.0137 1.1739 1.3544 3.2233 1.4142 4.4768 0.1593 0.7163-0.7171 1.0048-1.713 0.8555-2.6392-0.0199-0.1494 0.0199-0.2889 0.1294-0.3984l0.0199-0.0199c0.179-0.1793 0.4576-0.1793 0.6367 0l5.7999 5.8063c0.3979 0.3984 1.0346 0.3984 1.4326 0l3.1138-3.1173c0.5372-0.5378 0.5372-1.4043 0-1.9421l-0.0199-0.0199-0.8854-0.8864-0.388 0.3884 0.1095 0.1096c-0.8556 0-1.7112-0.3486-2.328-1.0557-0.9849-1.1354-0.9948-2.8584 0-4.0037 1.1739-1.3545 3.2233-1.4142 4.4768-0.1693 0.5173 0.5179 0.8158 1.1852 0.8755 1.8624l-0.0199-0.0199-0.577 0.5776z" fill="url(#g)"/><path d="m23.623 21.425 0.9948 0.996c0.5372 0.5378 1.4027 0.5378 1.9399 0l3.1437-3.1472c0.398-0.3984 0.398-1.0358 0-1.4342l-5.8297-5.8362c-0.1791-0.1793-0.1791-0.4581 0-0.6374 0.1094-0.1095 0.2586-0.1494 0.3979-0.1195 0.9451 0.1594 1.9499-0.1195 2.6761-0.8465 1.2038-1.2051 1.1938-3.1671-0.0298-4.3623l-0.8556-0.86647-0.388 0.12948c-0.9749-0.28883-2.0692-0.07968-2.8751 0.61748-0.8356 0.72704-1.1739 1.7927-1.0147 2.7886 0.0199 0.14939-0.0199 0.28882-0.1293 0.39838l-0.0199 0.01992c-0.1791 0.17927-0.4576 0.17927-0.6367 0l-5.8298-5.8263c-0.3979-0.39837-1.0346-0.39837-1.4326 0l-3.1138 3.1173c-0.0796 0.07968-0.1393 0.16931-0.199 0.25895l-0.2089-0.20915-0.73618 0.737 1.1441 1.1453 0.0199 0.01992c0.2785 0.27886 0.6566 0.42825 1.0446 0.40834 0.8953-0.03984 1.8106 0.30874 2.4572 1.0557 0.9849 1.1353 0.9949 2.8583 0 4.0037-1.1739 1.3544-3.2233 1.4142-4.4768 0.1693-0.64665-0.6474-0.9451-1.5039-0.88541-2.3505 0.0199-0.3884-0.11938-0.7668-0.39794-1.0457-0.00995-0.0199-0.01989-0.0299-0.02984-0.0398l-0.97495-0.97606-0.42778 0.43826 0.18902 0.1892c-0.25866 0.0498-0.49742 0.1793-0.69639 0.3784l-3.1437 3.1472c-0.39793 0.3984-0.39793 1.0358 0 1.4342l5.8397 5.8462c0.17907 0.1792 0.17907 0.4581 0 0.6374-0.10943 0.1095-0.25866 0.1494-0.39793 0.1195-1.0048-0.1693-2.0792 0.1593-2.8154 0.9959-0.99484 1.1354-1.0048 2.8683-0.00994 4.0137 1.1739 1.3544 3.2233 1.4142 4.4768 0.1593 0.7163-0.7171 1.0048-1.713 0.8555-2.6392-0.0199-0.1494 0.0199-0.2889 0.1294-0.3984l0.0199-0.0199c0.179-0.1793 0.4576-0.1793 0.6367 0l5.7999 5.8063c0.3979 0.3984 1.0346 0.3984 1.4326 0l3.1138-3.1173c0.5372-0.5378 0.5372-1.4043 0-1.9421l-0.0199-0.0199-0.8854-0.8864-0.388 0.3884 0.1095 0.1096c-0.8556 0-1.7112-0.3486-2.328-1.0557-0.9849-1.1354-0.9948-2.8584 0-4.0037 1.1739-1.3545 3.2233-1.4142 4.4768-0.1693 0.5173 0.5179 0.8158 1.1852 0.8755 1.8624l-0.0199-0.0199-0.577 0.5776z" fill="url(#f)"/><path d="m23.623 21.425 0.9948 0.996c0.5372 0.5378 1.4027 0.5378 1.9399 0l3.1437-3.1472c0.398-0.3984 0.398-1.0358 0-1.4342l-5.8297-5.8362c-0.1791-0.1793-0.1791-0.4581 0-0.6374 0.1094-0.1095 0.2586-0.1494 0.3979-0.1195 0.9451 0.1594 1.9499-0.1195 2.6761-0.8465 1.2038-1.2051 1.1938-3.1671-0.0298-4.3623l-0.8556-0.86647-0.388 0.12948c-0.9749-0.28883-2.0692-0.07968-2.8751 0.61748-0.8356 0.72704-1.1739 1.7927-1.0147 2.7886 0.0199 0.14939-0.0199 0.28882-0.1293 0.39838l-0.0199 0.01992c-0.1791 0.17927-0.4576 0.17927-0.6367 0l-5.8298-5.8263c-0.3979-0.39837-1.0346-0.39837-1.4326 0l-3.1138 3.1173c-0.0796 0.07968-0.1393 0.16931-0.199 0.25895l-0.2089-0.20915-0.73618 0.737 1.1441 1.1453 0.0199 0.01992c0.2785 0.27886 0.6566 0.42825 1.0446 0.40834 0.8953-0.03984 1.8106 0.30874 2.4572 1.0557 0.9849 1.1353 0.9949 2.8583 0 4.0037-1.1739 1.3544-3.2233 1.4142-4.4768 0.1693-0.64665-0.6474-0.9451-1.5039-0.88541-2.3505 0.0199-0.3884-0.11938-0.7668-0.39794-1.0457-0.00995-0.0199-0.01989-0.0299-0.02984-0.0398l-0.97495-0.97606-0.42778 0.43826 0.18902 0.1892c-0.25866 0.0498-0.49742 0.1793-0.69639 0.3784l-3.1437 3.1472c-0.39793 0.3984-0.39793 1.0358 0 1.4342l5.8397 5.8462c0.17907 0.1792 0.17907 0.4581 0 0.6374-0.10943 0.1095-0.25866 0.1494-0.39793 0.1195-1.0048-0.1693-2.0792 0.1593-2.8154 0.9959-0.99484 1.1354-1.0048 2.8683-0.00994 4.0137 1.1739 1.3544 3.2233 1.4142 4.4768 0.1593 0.7163-0.7171 1.0048-1.713 0.8555-2.6392-0.0199-0.1494 0.0199-0.2889 0.1294-0.3984l0.0199-0.0199c0.179-0.1793 0.4576-0.1793 0.6367 0l5.7999 5.8063c0.3979 0.3984 1.0346 0.3984 1.4326 0l3.1138-3.1173c0.5372-0.5378 0.5372-1.4043 0-1.9421l-0.0199-0.0199-0.8854-0.8864-0.388 0.3884 0.1095 0.1096c-0.8556 0-1.7112-0.3486-2.328-1.0557-0.9849-1.1354-0.9948-2.8584 0-4.0037 1.1739-1.3545 3.2233-1.4142 4.4768-0.1693 0.5173 0.5179 0.8158 1.1852 0.8755 1.8624l-0.0199-0.0199-0.577 0.5776z" fill="url(#e)"/><path d="m23.623 21.425 0.9948 0.996c0.5372 0.5378 1.4027 0.5378 1.9399 0l3.1437-3.1472c0.398-0.3984 0.398-1.0358 0-1.4342l-5.8297-5.8362c-0.1791-0.1793-0.1791-0.4581 0-0.6374 0.1094-0.1095 0.2586-0.1494 0.3979-0.1195 0.9451 0.1594 1.9499-0.1195 2.6761-0.8465 1.2038-1.2051 1.1938-3.1671-0.0298-4.3623l-0.8556-0.86647-0.388 0.12948c-0.9749-0.28883-2.0692-0.07968-2.8751 0.61748-0.8356 0.72704-1.1739 1.7927-1.0147 2.7886 0.0199 0.14939-0.0199 0.28882-0.1293 0.39838l-0.0199 0.01992c-0.1791 0.17927-0.4576 0.17927-0.6367 0l-5.8298-5.8263c-0.3979-0.39837-1.0346-0.39837-1.4326 0l-3.1138 3.1173c-0.0796 0.07968-0.1393 0.16931-0.199 0.25895l-0.2089-0.20915-0.73618 0.737 1.1441 1.1453 0.0199 0.01992c0.2785 0.27886 0.6566 0.42825 1.0446 0.40834 0.8953-0.03984 1.8106 0.30874 2.4572 1.0557 0.9849 1.1353 0.9949 2.8583 0 4.0037-1.1739 1.3544-3.2233 1.4142-4.4768 0.1693-0.64665-0.6474-0.9451-1.5039-0.88541-2.3505 0.0199-0.3884-0.11938-0.7668-0.39794-1.0457-0.00995-0.0199-0.01989-0.0299-0.02984-0.0398l-0.97495-0.97606-0.42778 0.43826 0.18902 0.1892c-0.25866 0.0498-0.49742 0.1793-0.69639 0.3784l-3.1437 3.1472c-0.39793 0.3984-0.39793 1.0358 0 1.4342l5.8397 5.8462c0.17907 0.1792 0.17907 0.4581 0 0.6374-0.10943 0.1095-0.25866 0.1494-0.39793 0.1195-1.0048-0.1693-2.0792 0.1593-2.8154 0.9959-0.99484 1.1354-1.0048 2.8683-0.00994 4.0137 1.1739 1.3544 3.2233 1.4142 4.4768 0.1593 0.7163-0.7171 1.0048-1.713 0.8555-2.6392-0.0199-0.1494 0.0199-0.2889 0.1294-0.3984l0.0199-0.0199c0.179-0.1793 0.4576-0.1793 0.6367 0l5.7999 5.8063c0.3979 0.3984 1.0346 0.3984 1.4326 0l3.1138-3.1173c0.5372-0.5378 0.5372-1.4043 0-1.9421l-0.0199-0.0199-0.8854-0.8864-0.388 0.3884 0.1095 0.1096c-0.8556 0-1.7112-0.3486-2.328-1.0557-0.9849-1.1354-0.9948-2.8584 0-4.0037 1.1739-1.3545 3.2233-1.4142 4.4768-0.1693 0.5173 0.5179 0.8158 1.1852 0.8755 1.8624l-0.0199-0.0199-0.577 0.5776z" fill="url(#d)"/><path d="m23.623 21.425 0.9948 0.996c0.5372 0.5378 1.4027 0.5378 1.9399 0l3.1437-3.1472c0.398-0.3984 0.398-1.0358 0-1.4342l-5.8297-5.8362c-0.1791-0.1793-0.1791-0.4581 0-0.6374 0.1094-0.1095 0.2586-0.1494 0.3979-0.1195 0.9451 0.1594 1.9499-0.1195 2.6761-0.8465 1.2038-1.2051 1.1938-3.1671-0.0298-4.3623l-0.8556-0.86647-0.388 0.12948c-0.9749-0.28883-2.0692-0.07968-2.8751 0.61748-0.8356 0.72704-1.1739 1.7927-1.0147 2.7886 0.0199 0.14939-0.0199 0.28882-0.1293 0.39838l-0.0199 0.01992c-0.1791 0.17927-0.4576 0.17927-0.6367 0l-5.8298-5.8263c-0.3979-0.39837-1.0346-0.39837-1.4326 0l-3.1138 3.1173c-0.0796 0.07968-0.1393 0.16931-0.199 0.25895l-0.2089-0.20915-0.73618 0.737 1.1441 1.1453 0.0199 0.01992c0.2785 0.27886 0.6566 0.42825 1.0446 0.40834 0.8953-0.03984 1.8106 0.30874 2.4572 1.0557 0.9849 1.1353 0.9949 2.8583 0 4.0037-1.1739 1.3544-3.2233 1.4142-4.4768 0.1693-0.64665-0.6474-0.9451-1.5039-0.88541-2.3505 0.0199-0.3884-0.11938-0.7668-0.39794-1.0457-0.00995-0.0199-0.01989-0.0299-0.02984-0.0398l-0.97495-0.97606-0.42778 0.43826 0.18902 0.1892c-0.25866 0.0498-0.49742 0.1793-0.69639 0.3784l-3.1437 3.1472c-0.39793 0.3984-0.39793 1.0358 0 1.4342l5.8397 5.8462c0.17907 0.1792 0.17907 0.4581 0 0.6374-0.10943 0.1095-0.25866 0.1494-0.39793 0.1195-1.0048-0.1693-2.0792 0.1593-2.8154 0.9959-0.99484 1.1354-1.0048 2.8683-0.00994 4.0137 1.1739 1.3544 3.2233 1.4142 4.4768 0.1593 0.7163-0.7171 1.0048-1.713 0.8555-2.6392-0.0199-0.1494 0.0199-0.2889 0.1294-0.3984l0.0199-0.0199c0.179-0.1793 0.4576-0.1793 0.6367 0l5.7999 5.8063c0.3979 0.3984 1.0346 0.3984 1.4326 0l3.1138-3.1173c0.5372-0.5378 0.5372-1.4043 0-1.9421l-0.0199-0.0199-0.8854-0.8864-0.388 0.3884 0.1095 0.1096c-0.8556 0-1.7112-0.3486-2.328-1.0557-0.9849-1.1354-0.9948-2.8584 0-4.0037 1.1739-1.3545 3.2233-1.4142 4.4768-0.1693 0.5173 0.5179 0.8158 1.1852 0.8755 1.8624l-0.0199-0.0199-0.577 0.5776z" fill="url(#c)"/><path d="m23.623 21.425 0.9948 0.996c0.5372 0.5378 1.4027 0.5378 1.9399 0l3.1437-3.1472c0.398-0.3984 0.398-1.0358 0-1.4342l-5.8297-5.8362c-0.1791-0.1793-0.1791-0.4581 0-0.6374 0.1094-0.1095 0.2586-0.1494 0.3979-0.1195 0.9451 0.1594 1.9499-0.1195 2.6761-0.8465 1.2038-1.2051 1.1938-3.1671-0.0298-4.3623l-0.8556-0.86647-0.388 0.12948c-0.9749-0.28883-2.0692-0.07968-2.8751 0.61748-0.8356 0.72704-1.1739 1.7927-1.0147 2.7886 0.0199 0.14939-0.0199 0.28882-0.1293 0.39838l-0.0199 0.01992c-0.1791 0.17927-0.4576 0.17927-0.6367 0l-5.8298-5.8263c-0.3979-0.39837-1.0346-0.39837-1.4326 0l-3.1138 3.1173c-0.0796 0.07968-0.1393 0.16931-0.199 0.25895l-0.2089-0.20915-0.73618 0.737 1.1441 1.1453 0.0199 0.01992c0.2785 0.27886 0.6566 0.42825 1.0446 0.40834 0.8953-0.03984 1.8106 0.30874 2.4572 1.0557 0.9849 1.1353 0.9949 2.8583 0 4.0037-1.1739 1.3544-3.2233 1.4142-4.4768 0.1693-0.64665-0.6474-0.9451-1.5039-0.88541-2.3505 0.0199-0.3884-0.11938-0.7668-0.39794-1.0457-0.00995-0.0199-0.01989-0.0299-0.02984-0.0398l-0.97495-0.97606-0.42778 0.43826 0.18902 0.1892c-0.25866 0.0498-0.49742 0.1793-0.69639 0.3784l-3.1437 3.1472c-0.39793 0.3984-0.39793 1.0358 0 1.4342l5.8397 5.8462c0.17907 0.1792 0.17907 0.4581 0 0.6374-0.10943 0.1095-0.25866 0.1494-0.39793 0.1195-1.0048-0.1693-2.0792 0.1593-2.8154 0.9959-0.99484 1.1354-1.0048 2.8683-0.00994 4.0137 1.1739 1.3544 3.2233 1.4142 4.4768 0.1593 0.7163-0.7171 1.0048-1.713 0.8555-2.6392-0.0199-0.1494 0.0199-0.2889 0.1294-0.3984l0.0199-0.0199c0.179-0.1793 0.4576-0.1793 0.6367 0l5.7999 5.8063c0.3979 0.3984 1.0346 0.3984 1.4326 0l3.1138-3.1173c0.5372-0.5378 0.5372-1.4043 0-1.9421l-0.0199-0.0199-0.8854-0.8864-0.388 0.3884 0.1095 0.1096c-0.8556 0-1.7112-0.3486-2.328-1.0557-0.9849-1.1354-0.9948-2.8584 0-4.0037 1.1739-1.3545 3.2233-1.4142 4.4768-0.1693 0.5173 0.5179 0.8158 1.1852 0.8755 1.8624l-0.0199-0.0199-0.577 0.5776z" fill="url(#b)"/><path d="m21.77 4.9092c-0.8354 0.7273-1.1735 1.7934-1.0144 2.7897 0.0199 0.14945-0.0199 0.28893-0.1293 0.39853l-0.0199 0.01992c-0.179 0.17934-0.4574 0.17934-0.6364 0l-5.8177-5.8184c-0.3978-0.39852-1.0343-0.39852-1.4321 0l-3.1127 3.1184c-0.53701 0.53801-0.53701 1.4048 0 1.9428l0.02984 0.01992c0.26851 0.26901 0.64643 0.41845 1.0342 0.39853 0.8951-0.03985 1.81 0.30885 2.4564 1.0561 0.9845 1.1358 0.9945 2.8594 0 4.0052-1.1735 1.3549-3.2221 1.4147-4.4752 0.1693-0.63647-0.6575-0.93481-1.5144-0.88508-2.3612 0.02983-0.3886-0.11934-0.77715-0.39779-1.0462-0.53702-0.53801-1.4022-0.53801-1.9392 0l-3.1326 3.1384c-0.39779 0.3985-0.39779 1.0362 0 1.4347l5.8376 5.8483c0.17901 0.1794 0.17901 0.4583 0 0.6377-0.10939 0.1096-0.25856 0.1494-0.39779 0.1195-1.0044-0.1693-2.0784 0.1595-2.8144 0.9964-0.99448 1.1357-1.0044 2.8693-0.00995 4.0151 1.1735 1.355 3.2221 1.4147 4.4751 0.1594 0.71605-0.7174 1.0044-1.7137 0.85525-2.6402-0.0199-0.1495 0.0199-0.289 0.1293-0.3986l0.0199-0.0199c0.179-0.1793 0.4574-0.1793 0.6364 0l5.7978 5.8085c0.3978 0.3985 1.0343 0.3985 1.4321 0l3.1127-3.1184c0.537-0.538 0.537-1.4048 0-1.9428l-0.0199-0.02c-0.2685-0.269-0.6464-0.4184-1.0343-0.3985-0.895 0.0399-1.8099-0.3089-2.4563-1.0561-0.9846-1.1358-0.9945-2.8594 0-4.0052 1.1735-1.3549 3.2221-1.4147 4.4751-0.1693 0.6464 0.6476 0.9448 1.5044 0.8851 2.3513-0.0199 0.3885 0.1193 0.7671 0.3978 1.0461 0.537 0.538 1.4022 0.538 1.9392 0l3.1426-3.1483c0.3977-0.3986 0.3977-1.0362 0-1.4347l-5.8277-5.8384c-0.179-0.1793-0.179-0.4583 0-0.6376 0.1094-0.1096 0.2586-0.1495 0.3978-0.1196 0.9448 0.1594 1.9492-0.1196 2.6752-0.84687 1.2431-1.2454 1.1933-3.3078-0.1691-4.4834-1.1536-0.95646-2.874-0.95646-4.0077 0.02989z" fill="url(#a)"/><defs><filter id="k" x="3" y="2" width="28" height="28" color-interpolation-filters="sRGB" filterUnits="userSpaceOnUse"><feFlood flood-opacity="0" result="BackgroundImageFix"/><feBlend in="SourceGraphic" in2="BackgroundImageFix" result="shape"/><feColorMatrix in="SourceAlpha" result="hardAlpha" values="0 0 0 0 0 0 0 0 0 0 0 0 0 0 0 0 0 0 127 0"/><feOffset dx="1" dy="-1"/><feGaussianBlur stdDeviation="2"/><feComposite in2="hardAlpha" k2="-1" k3="1" operator="arithmetic"/><feColorMatrix values="0 0 0 0 0.74902 0 0 0 0 0.545098 0 0 0 0 0.913725 0 0 0 1 0"/><feBlend in2="shape" result="effect1_innerShadow_18_3747"/></filter><radialGradient id="j" cx="0" cy="0" r="1" gradientTransform="translate(21.632 17.94) rotate(160.4) scale(4.9474 4.1788)" gradientUnits="userSpaceOnUse"><stop stop-color="#BA84E6" offset=".31458"/><stop stop-color="#BA84E6" stop-opacity="0" offset="1"/></radialGradient><radialGradient id="i" cx="0" cy="0" r="1" gradientTransform="translate(7.2665 10.279) rotate(74.055) scale(5.1128)" gradientUnits="userSpaceOnUse"><stop stop-color="#E8DFF2" offset="0"/><stop stop-color="#E8DFF2" stop-opacity="0" offset="1"/></radialGradient><radialGradient id="h" cx="0" cy="0" r="1" gradientTransform="translate(11.544 23.08) rotate(66.552) scale(2.888 1.4548)" gradientUnits="userSpaceOnUse"><stop stop-color="#BC81EC" offset=".23952"/><stop stop-color="#BC81EC" stop-opacity="0" offset="1"/></radialGradient><radialGradient id="g" cx="0" cy="0" r="1" gradientTransform="translate(17.928 30) rotate(-45) scale(1.5074 2.7813)" gradientUnits="userSpaceOnUse"><stop stop-color="#C285F2" offset="0"/><stop stop-color="#C285F2" stop-opacity="0" offset="1"/></radialGradient><radialGradient id="f" cx="0" cy="0" r="1" gradientTransform="translate(24.951 22.984) rotate(-35.838) scale(1.4176 2.6155)" gradientUnits="userSpaceOnUse"><stop stop-color="#C285F2" offset="0"/><stop stop-color="#C285F2" stop-opacity="0" offset="1"/></radialGradient><radialGradient id="e" cx="0" cy="0" r="1" gradientTransform="translate(27.186 6.1291) rotate(131.5) scale(2.2162)" gradientUnits="userSpaceOnUse"><stop stop-color="#EEECF1" offset="0"/><stop stop-color="#EEECF1" stop-opacity="0" offset="1"/></radialGradient><radialGradient id="d" cx="0" cy="0" r="1" gradientTransform="translate(30 17.749) rotate(130.54) scale(2.8562)" gradientUnits="userSpaceOnUse"><stop stop-color="#EEECF1" offset="0"/><stop stop-color="#EEECF1" stop-opacity="0" offset="1"/></radialGradient><radialGradient id="c" cx="0" cy="0" r="1" gradientTransform="translate(22.589 24.836) rotate(133.02) scale(2.62)" gradientUnits="userSpaceOnUse"><stop stop-color="#EEECF1" offset="0"/><stop stop-color="#EEECF1" stop-opacity="0" offset="1"/></radialGradient><radialGradient id="b" cx="0" cy="0" r="1" gradientTransform="translate(24.377 9.5767) rotate(47.726) scale(5.6947 2.2848)" gradientUnits="userSpaceOnUse"><stop stop-color="#C0A5DB" offset=".20437"/><stop stop-color="#C0A5DB" stop-opacity="0" offset="1"/></radialGradient><linearGradient id="a" x1="21.121" x2="5.0276" y1="9.2575" y2="25.944" gradientUnits="userSpaceOnUse"><stop stop-color="#CEDA5F" offset="0"/><stop stop-color="#74EB95" offset="1"/></linearGradient></defs></svg>
