<svg fill="none" viewBox="0 0 32 32" xmlns="http://www.w3.org/2000/svg"><path d="m17.106 19.75h-2v10.13h2v-10.13z" fill="url(#w)"/><path d="m8.0865 25.52c0 2.4 1.95 4.35 4.26 4.37l2.88 0.01c0.14 0 0.26-0.12 0.25-0.27-0.14-2.66-2.34-4.81-5.04-4.81h-2.07c-0.16 0-0.28 0.13-0.28 0.28v0.42z" fill="url(#l)"/><path d="m16.946 29.2c0-2.4 1.95-4.35 4.26-4.37l2.88-0.01c0.14 0 0.26 0.12 0.25 0.27-0.14 2.66-2.34 4.81-5.04 4.81h-2.07c-0.16 0-0.28-0.13-0.28-0.28v-0.42z" fill="url(#h)"/><path d="m26.946 14.45c0.13-1.07-1.19-2.14-3.1-2.67 1.63-1.11 2.52-2.55 2.05-3.51-0.47-0.97-2.16-1.15-4.05-0.55 0.76-1.82 0.73-3.51-0.19-4.06-0.84-0.51-2.18 0.08-3.37 1.35-0.33-1.7-1.15-2.9-2.13-2.91-1.06-0.03-1.97 1.33-2.31 3.22-1.26-1.45-2.75-2.16-3.64-1.6-0.93 0.58-0.92 2.34-0.09 4.19-1.94-0.62-3.68-0.42-4.15 0.58-0.45 0.97 0.47 2.4 2.13 3.49-1.89 0.56-3.19 1.64-3.04 2.71s1.7 1.76 3.69 1.78c-1.28 1.5-1.78 3.11-1.07 3.93s2.39 0.55 4.06-0.52c-0.26 1.95 0.21 3.58 1.24 3.88 1.04 0.3 2.3-0.84 3.12-2.65 0.85 1.78 2.12 2.89 3.15 2.58s1.48-1.96 1.18-3.92c1.68 1.03 3.35 1.27 4.04 0.45 0.7-0.83 0.17-2.45-1.15-3.93 1.97-0.06 3.5-0.77 3.63-1.84zm-10.49-3.03c0.09 0.12 0.2 0.22 0.33 0.3 0.16 0.09 0.33 0.14 0.52 0.16 0.01 0.18 0.04 0.35 0.12 0.5 0.08 0.16 0.2 0.3 0.35 0.42-0.09 0.15-0.15 0.31-0.17 0.49s0.01 0.36 0.06 0.54c-0.16 0.08-0.3 0.18-0.41 0.31-0.12 0.14-0.19 0.31-0.24 0.49-0.18-0.02-0.35-0.01-0.51 0.04-0.17 0.05-0.33 0.15-0.47 0.28-0.14-0.11-0.29-0.2-0.45-0.25-0.18-0.05-0.36-0.05-0.54-0.02-0.05-0.17-0.13-0.32-0.25-0.45-0.12-0.14-0.27-0.24-0.44-0.32 0.05-0.17 0.06-0.34 0.04-0.51-0.03-0.18-0.1-0.35-0.2-0.51 0.13-0.12 0.24-0.25 0.31-0.41 0.08-0.18 0.11-0.38 0.1-0.59 0.21-0.02 0.41-0.06 0.58-0.17 0.13-0.08 0.24-0.19 0.33-0.31 0.15 0.06 0.3 0.1 0.46 0.1 0.17 0 0.33-0.03 0.48-0.09z" fill="url(#g)"/><path d="m16 19c3.2369 0 5.861-2.624 5.861-5.861 0-3.2369-2.6241-5.8609-5.861-5.8609s-5.861 2.624-5.861 5.8609c0 3.237 2.6241 5.861 5.861 5.861z" fill="url(#f)"/><path d="m21.118 10.281-0.8002 0.8001 1.1169 1.1168 0.2954-0.2954c0.0855 0.3985 0.1306 0.8121 0.1306 1.2361 0 0.2852-0.0204 0.5656-0.0598 0.8398l-0.3662-0.3662-1.1144 1.1143 0.9599 0.9583c-0.5311 1.0994-1.3954 2.0077-2.4619 2.5938l-1.0268-1.0233-1.1061 1.1061 0.5151 0.5151c-0.3876 0.0807-0.7892 0.1231-1.2008 0.1231-0.4241 0-0.8376-0.045-1.2361-0.1306l0.5076-0.5076-1.1168-1.1168-1.0124 1.0123c-0.7588-0.4245-1.4135-1.013-1.9162-1.7174l1.1097 1.1098 1.1118-1.1118-1.1118-1.1118-1.1114 1.1114c-0.1994-0.2797-0.3749-0.5777-0.5234-0.8909l0.9277-0.9277-1.1116-1.1116-0.3248 0.3249c-0.0351-0.2594-0.0533-0.5242-0.0533-0.7932 0-0.4115 0.0425-0.8132 0.1232-1.2008l0.2549 0.2549 1.0956-1.0956-0.7622-0.7596c0.1636-0.3001 0.3526-0.58425 0.5642-0.84963l0.9051 0.90213 1.1201-1.12-0.8791-0.87765c0.2775-0.20141 0.5733-0.37907 0.8845-0.53002l0.7017 0.70057 1.1193-1.1193-0.1061-0.10613c0.2743-0.03935 0.5547-0.05971 0.8398-0.05971 0.269 0 0.5338 0.01812 0.7932 0.05321l-0.1127 0.11263 1.1116 1.1116 0.7155-0.71544c0.3132 0.14849 0.6112 0.32393 0.8909 0.52333l-0.8993 0.89922 1.1118 1.1118 0.935-0.93494c0.214 0.26269 0.4058 0.5443 0.5723 0.84194zm-0.3922 6.2634-1.1136 1.1135-1.1135-1.1097 1.1145-1.1146 1.1126 1.1108zm-9.5019-3.6446 1.1116 1.1116 1.0987-1.0987-1.1135-1.1097-1.0968 1.0968zm1.804-1.8039 1.1134 1.1097 1.1185-1.1184-1.1125-1.1107-1.1194 1.1194zm1.8265-1.8265 1.1125 1.1107 1.1178-1.1179-1.1116-1.1116-1.1187 1.1188zm1.8202 1.8172 1.1172-1.1173 1.1118 1.1118-1.1163 1.1164-1.1127-1.1109zm-1.825 1.8249 1.1178-1.1178 1.1127 1.1109-1.1168 1.1168-1.1137-1.1099zm-1.807 1.807 1.0999-1.0999 1.1137 1.1099-1.1018 1.1018-1.1118-1.1118zm7.685-1.8135-1.1169-1.1168-1.1158 1.1158 1.1178 1.1159 1.1149-1.1149zm-1.8221 1.8221-1.1177-1.116-1.1162 1.1162 1.1187 1.1149 1.1152-1.1151zm-1.8223 1.8223-1.1187-1.115-1.103 1.1031 1.1168 1.1168 1.1049-1.1049z" clip-rule="evenodd" fill="#63332A" fill-rule="evenodd"/><path d="m17.106 19.75h-2v10.13h2v-10.13z" fill="url(#e)"/><path d="m17.106 19.75h-2v10.13h2v-10.13z" fill="url(#d)"/><path d="m17.106 19.75h-2v10.13h2v-10.13z" fill="url(#c)"/><path d="m17.106 19.75h-2v10.13h2v-10.13z" fill="url(#b)"/><path d="m17.106 19.75h-2v10.13h2v-10.13z" fill="url(#a)"/><path d="m8.0943 25.5c0 2.4 1.95 4.35 4.26 4.37l2.88 0.01c0.14 0 0.26-0.12 0.25-0.27-0.14-2.66-2.34-4.81-5.04-4.81h-2.07c-0.16 0-0.28 0.13-0.28 0.28v0.42z" fill="url(#v)"/><path d="m8.0943 25.5c0 2.4 1.95 4.35 4.26 4.37l2.88 0.01c0.14 0 0.26-0.12 0.25-0.27-0.14-2.66-2.34-4.81-5.04-4.81h-2.07c-0.16 0-0.28 0.13-0.28 0.28v0.42z" fill="url(#u)"/><path d="m8.0943 25.5c0 2.4 1.95 4.35 4.26 4.37l2.88 0.01c0.14 0 0.26-0.12 0.25-0.27-0.14-2.66-2.34-4.81-5.04-4.81h-2.07c-0.16 0-0.28 0.13-0.28 0.28v0.42z" fill="url(#t)"/><g filter="url(#aa)"><path d="m8.9307 25.917c0 1.8567 1.5086 3.3654 3.2958 3.3808l2.2281 0.0078c0.1083 0 0.2011-0.0929 0.1934-0.2089-0.1083-2.0579-1.8104-3.7213-3.8992-3.7213h-1.6014c-0.12379 0-0.21662 0.1006-0.21662 0.2167v0.3249z" fill="url(#s)"/></g><path d="m16.79 29.18c0-2.4 1.95-4.35 4.26-4.37l2.88-0.01c0.14 0 0.26 0.12 0.25 0.27-0.14 2.66-2.34 4.81-5.04 4.81h-2.07c-0.16 0-0.28-0.13-0.28-0.28v-0.42z" fill="url(#r)"/><path d="m16.79 29.18c0-2.4 1.95-4.35 4.26-4.37l2.88-0.01c0.14 0 0.26 0.12 0.25 0.27-0.14 2.66-2.34 4.81-5.04 4.81h-2.07c-0.16 0-0.28-0.13-0.28-0.28v-0.42z" fill="url(#q)"/><path d="m16.79 29.18c0-2.4 1.95-4.35 4.26-4.37l2.88-0.01c0.14 0 0.26 0.12 0.25 0.27-0.14 2.66-2.34 4.81-5.04 4.81h-2.07c-0.16 0-0.28-0.13-0.28-0.28v-0.42z" fill="url(#p)"/><g filter="url(#z)"><path d="m17.75 28.606c0-1.7897 1.5295-3.2439 3.3414-3.2588l2.2589-0.0074c0.1098 0 0.204 0.0894 0.1961 0.2013-0.1098 1.9836-1.8354 3.5869-3.9532 3.5869h-1.6236c-0.1255 0-0.2196-0.097-0.2196-0.2088v-0.3132z" fill="url(#o)"/></g><g filter="url(#y)"><path d="m26.946 14.45c0.13-1.07-1.19-2.14-3.1-2.67 1.63-1.11 2.52-2.55 2.05-3.51-0.47-0.97-2.16-1.15-4.05-0.55 0.76-1.82 0.73-3.51-0.19-4.06-0.84-0.51-2.18 0.08-3.37 1.35-0.33-1.7-1.15-2.9-2.13-2.91-1.06-0.03-1.97 1.33-2.31 3.22-1.26-1.45-2.75-2.16-3.64-1.6-0.93 0.58-0.92 2.34-0.09 4.19-1.94-0.62-3.68-0.42-4.15 0.58-0.45 0.97 0.47 2.4 2.13 3.49-1.89 0.56-3.19 1.64-3.04 2.71s1.7 1.76 3.69 1.78c-1.28 1.5-1.78 3.11-1.07 3.93s2.39 0.55 4.06-0.52c-0.26 1.95 0.21 3.58 1.24 3.88 1.04 0.3 2.3-0.84 3.12-2.65 0.85 1.78 2.12 2.89 3.15 2.58s1.48-1.96 1.18-3.92c1.68 1.03 3.35 1.27 4.04 0.45 0.7-0.83 0.17-2.45-1.15-3.93 1.97-0.06 3.5-0.77 3.63-1.84zm-10.49-3.03c0.09 0.12 0.2 0.22 0.33 0.3 0.16 0.09 0.33 0.14 0.52 0.16 0.01 0.18 0.04 0.35 0.12 0.5 0.08 0.16 0.2 0.3 0.35 0.42-0.09 0.15-0.15 0.31-0.17 0.49s0.01 0.36 0.06 0.54c-0.16 0.08-0.3 0.18-0.41 0.31-0.12 0.14-0.19 0.31-0.24 0.49-0.18-0.02-0.35-0.01-0.51 0.04-0.17 0.05-0.33 0.15-0.47 0.28-0.14-0.11-0.29-0.2-0.45-0.25-0.18-0.05-0.36-0.05-0.54-0.02-0.05-0.17-0.13-0.32-0.25-0.45-0.12-0.14-0.27-0.24-0.44-0.32 0.05-0.17 0.06-0.34 0.04-0.51-0.03-0.18-0.1-0.35-0.2-0.51 0.13-0.12 0.24-0.25 0.31-0.41 0.08-0.18 0.11-0.38 0.1-0.59 0.21-0.02 0.41-0.06 0.58-0.17 0.13-0.08 0.24-0.19 0.33-0.31 0.15 0.06 0.3 0.1 0.46 0.1 0.17 0 0.33-0.03 0.48-0.09z" fill="url(#n)"/></g><path d="m16 19c3.2369 0 5.861-2.624 5.861-5.861 0-3.2369-2.6241-5.8609-5.861-5.8609s-5.861 2.624-5.861 5.8609c0 3.237 2.6241 5.861 5.861 5.861z" fill="url(#m)"/><path d="m13.55 7.8132 0.6661 0.66602 0.9713-0.97139-0.1509-0.15094c0.3135-0.05187 0.6355-0.07885 0.9637-0.07885 0.3915 0 0.774 0.03837 1.1439 0.11157l-0.1182 0.11822 0.9714 0.97139 0.5972-0.5972c0.4005 0.19805 0.7752 0.44051 1.1175 0.72097l-0.7955 0.79547 0.9558 0.9558 0.7803-0.78032c0.2713 0.35349 0.5032 0.73882 0.6891 1.1493l-0.5502 0.5502 0.9871 0.987 0.0149-0.0149c0.0446 0.2913 0.0677 0.5897 0.0677 0.8934 0 0.3283-0.027 0.6502-0.0789 0.9637l-0.0037-0.0037-0.9714 0.9714 0.5188 0.5188c-0.1883 0.4086-0.4222 0.7919-0.6953 1.1432l-0.7428-0.7428-0.9557 0.9558 0.7522 0.7522c-0.3445 0.2787-0.7211 0.5192-1.1236 0.7149l-0.5479-0.5479-0.987 0.987 0.0499 0.0499c-0.3487 0.0647-0.7082 0.0985-1.0756 0.0985-0.3038 0-0.6021-0.0231-0.8935-0.0677l0.0807-0.0807-0.987-0.987-0.6159 0.616c-0.4106-0.186-0.7959-0.4179-1.1494-0.6892l0.8461-0.846-0.9558-0.9558-0.8612 0.8613c-0.2805-0.3424-0.5229-0.717-0.721-1.1176l0.663-0.6629-0.9714-0.9714-0.184 0.184c-0.0732-0.37-0.1116-0.7525-0.1116-1.144 0-0.3674 0.0338-0.7269 0.0985-1.0756l0.1971 0.1971 0.987-0.987-0.6951-0.6951c0.1958-0.4024 0.4363-0.77908 0.715-1.1235l0.8994 0.89942 0.9557-0.9558-0.89-0.88999c0.3514-0.27304 0.7346-0.50698 1.1432-0.69527zm3.5437 9.1322-0.987 0.987-0.987-0.987 0.987-0.987 0.987 0.987zm1.875-1.875-0.9558 0.9557-0.987-0.987 0.9558-0.9557 0.987 0.987zm1.8906-1.8907-0.9714 0.9714-0.987-0.987 0.9714-0.9714 0.987 0.987zm-6.6589 2.8464 0.987-0.987-0.9557-0.9557-0.987 0.987 0.9557 0.9557zm-1.875-1.875 0.987-0.987-0.9713-0.9714-0.9871 0.987 0.9714 0.9714zm4.737-0.987-0.9557 0.9558-0.9558-0.9558 0.9558-0.9557 0.9557 0.9557zm1.8907-1.8906-0.9714 0.9714-0.9558-0.9558 0.9714-0.9714 0.9558 0.9558zm-4.7214 0.9714 0.9557-0.9558-0.9713-0.9714-0.9558 0.9558 0.9714 0.9714zm2.8464-2.8464-0.9714 0.9714-0.9714-0.9714 0.9714-0.97139 0.9714 0.97139z" clip-rule="evenodd" fill="url(#k)" fill-rule="evenodd"/><path d="m13.55 7.8132 0.6661 0.66602 0.9713-0.97139-0.1509-0.15094c0.3135-0.05187 0.6355-0.07885 0.9637-0.07885 0.3915 0 0.774 0.03837 1.1439 0.11157l-0.1182 0.11822 0.9714 0.97139 0.5972-0.5972c0.4005 0.19805 0.7752 0.44051 1.1175 0.72097l-0.7955 0.79547 0.9558 0.9558 0.7803-0.78032c0.2713 0.35349 0.5032 0.73882 0.6891 1.1493l-0.5502 0.5502 0.9871 0.987 0.0149-0.0149c0.0446 0.2913 0.0677 0.5897 0.0677 0.8934 0 0.3283-0.027 0.6502-0.0789 0.9637l-0.0037-0.0037-0.9714 0.9714 0.5188 0.5188c-0.1883 0.4086-0.4222 0.7919-0.6953 1.1432l-0.7428-0.7428-0.9557 0.9558 0.7522 0.7522c-0.3445 0.2787-0.7211 0.5192-1.1236 0.7149l-0.5479-0.5479-0.987 0.987 0.0499 0.0499c-0.3487 0.0647-0.7082 0.0985-1.0756 0.0985-0.3038 0-0.6021-0.0231-0.8935-0.0677l0.0807-0.0807-0.987-0.987-0.6159 0.616c-0.4106-0.186-0.7959-0.4179-1.1494-0.6892l0.8461-0.846-0.9558-0.9558-0.8612 0.8613c-0.2805-0.3424-0.5229-0.717-0.721-1.1176l0.663-0.6629-0.9714-0.9714-0.184 0.184c-0.0732-0.37-0.1116-0.7525-0.1116-1.144 0-0.3674 0.0338-0.7269 0.0985-1.0756l0.1971 0.1971 0.987-0.987-0.6951-0.6951c0.1958-0.4024 0.4363-0.77908 0.715-1.1235l0.8994 0.89942 0.9557-0.9558-0.89-0.88999c0.3514-0.27304 0.7346-0.50698 1.1432-0.69527zm3.5437 9.1322-0.987 0.987-0.987-0.987 0.987-0.987 0.987 0.987zm1.875-1.875-0.9558 0.9557-0.987-0.987 0.9558-0.9557 0.987 0.987zm1.8906-1.8907-0.9714 0.9714-0.987-0.987 0.9714-0.9714 0.987 0.987zm-6.6589 2.8464 0.987-0.987-0.9557-0.9557-0.987 0.987 0.9557 0.9557zm-1.875-1.875 0.987-0.987-0.9713-0.9714-0.9871 0.987 0.9714 0.9714zm4.737-0.987-0.9557 0.9558-0.9558-0.9558 0.9558-0.9557 0.9557 0.9557zm1.8907-1.8906-0.9714 0.9714-0.9558-0.9558 0.9714-0.9714 0.9558 0.9558zm-4.7214 0.9714 0.9557-0.9558-0.9713-0.9714-0.9558 0.9558 0.9714 0.9714zm2.8464-2.8464-0.9714 0.9714-0.9714-0.9714 0.9714-0.97139 0.9714 0.97139z" clip-rule="evenodd" fill="url(#j)" fill-rule="evenodd"/><g filter="url(#x)"><path d="m11.422 25.547c1.1562 0.1562 3.039 1.5137 3.2265 3.5512" stroke="url(#i)" stroke-linecap="round" stroke-width=".5"/></g><defs><filter id="aa" x="8.1807" y="24.625" width="7.2177" height="5.4302" color-interpolation-filters="sRGB" filterUnits="userSpaceOnUse"><feFlood flood-opacity="0" result="BackgroundImageFix"/><feBlend in="SourceGraphic" in2="BackgroundImageFix" result="shape"/><feGaussianBlur result="effect1_foregroundBlur_28327_7424" stdDeviation="0.375"/></filter><filter id="z" x="17.15" y="24.739" width="6.9969" height="4.9883" color-interpolation-filters="sRGB" filterUnits="userSpaceOnUse"><feFlood flood-opacity="0" result="BackgroundImageFix"/><feBlend in="SourceGraphic" in2="BackgroundImageFix" result="shape"/><feGaussianBlur result="effect1_foregroundBlur_28327_7424" stdDeviation="0.3"/></filter><filter id="y" x="5.0447" y="1.7998" width="21.911" height="22.258" color-interpolation-filters="sRGB" filterUnits="userSpaceOnUse"><feFlood flood-opacity="0" result="BackgroundImageFix"/><feBlend in="SourceGraphic" in2="BackgroundImageFix" result="shape"/><feColorMatrix in="SourceAlpha" result="hardAlpha" values="0 0 0 0 0 0 0 0 0 0 0 0 0 0 0 0 0 0 127 0"/><feOffset dy="-0.3"/><feGaussianBlur stdDeviation="0.5"/><feComposite in2="hardAlpha" k2="-1" k3="1" operator="arithmetic"/><feColorMatrix values="0 0 0 0 0.775 0 0 0 0 0.571832 0 0 0 0 0.287396 0 0 0 1 0"/><feBlend in2="shape" result="effect1_innerShadow_28327_7424"/><feColorMatrix in="SourceAlpha" result="hardAlpha" values="0 0 0 0 0 0 0 0 0 0 0 0 0 0 0 0 0 0 127 0"/><feOffset dy="0.25"/><feGaussianBlur stdDeviation="0.375"/><feComposite in2="hardAlpha" k2="-1" k3="1" operator="arithmetic"/><feColorMatrix values="0 0 0 0 1 0 0 0 0 0.972549 0 0 0 0 0.427451 0 0 0 1 0"/><feBlend in2="effect1_innerShadow_28327_7424" result="effect2_innerShadow_28327_7424"/></filter><filter id="x" x="10.672" y="24.797" width="4.7266" height="5.0513" color-interpolation-filters="sRGB" filterUnits="userSpaceOnUse"><feFlood flood-opacity="0" result="BackgroundImageFix"/><feBlend in="SourceGraphic" in2="BackgroundImageFix" result="shape"/><feGaussianBlur result="effect1_foregroundBlur_28327_7424" stdDeviation="0.25"/></filter><linearGradient id="w" x1="16.108" x2="16.108" y1="29.885" y2="19.752" gradientUnits="userSpaceOnUse"><stop stop-color="#8ED800" offset=".0112"/><stop stop-color="#008461" offset="1"/></linearGradient><linearGradient id="l" x1="15.211" x2="7.0894" y1="29.489" y2="24.8" gradientUnits="userSpaceOnUse"><stop stop-color="#8ED800" offset=".0112"/><stop stop-color="#008461" offset="1"/></linearGradient><linearGradient id="h" x1="18.769" x2="25.176" y1="28.108" y2="25.12" gradientUnits="userSpaceOnUse"><stop stop-color="#8ED800" offset=".0112"/><stop stop-color="#008461" offset="1"/></linearGradient><linearGradient id="g" x1="16.234" x2="15.825" y1="2.0924" y2="23.845" gradientUnits="userSpaceOnUse"><stop stop-color="#F8EC1D" offset="0"/><stop stop-color="#F7BE1E" offset="1"/></linearGradient><linearGradient id="f" x1="16.113" x2="15.893" y1="7.2803" y2="18.995" gradientUnits="userSpaceOnUse"><stop stop-color="#9C634D" offset="0"/><stop stop-color="#63332A" offset="1"/></linearGradient><linearGradient id="e" x1="16.108" x2="16.108" y1="29.885" y2="20.406" gradientUnits="userSpaceOnUse"><stop stop-color="#5DA112" offset="0"/><stop stop-color="#74A93F" offset="1"/></linearGradient><linearGradient id="d" x1="14.984" x2="15.609" y1="28.016" y2="27.969" gradientUnits="userSpaceOnUse"><stop stop-color="#51923C" offset="0"/><stop stop-color="#51923C" stop-opacity="0" offset="1"/></linearGradient><linearGradient id="c" x1="17.106" x2="16.609" y1="28.062" y2="28.062" gradientUnits="userSpaceOnUse"><stop stop-color="#51923C" offset="0"/><stop stop-color="#51923C" stop-opacity="0" offset="1"/></linearGradient><linearGradient id="b" x1="15.016" x2="15.453" y1="23.656" y2="23.672" gradientUnits="userSpaceOnUse"><stop stop-color="#8FB87F" offset="0"/><stop stop-color="#8FB87F" stop-opacity="0" offset="1"/></linearGradient><radialGradient id="a" cx="0" cy="0" r="1" gradientTransform="translate(16.312 27.031) rotate(90) scale(3.625 .46875)" gradientUnits="userSpaceOnUse"><stop stop-color="#83B15D" offset="0"/><stop stop-color="#83B15D" stop-opacity="0" offset="1"/></radialGradient><linearGradient id="v" x1="12.633" x2="8.4141" y1="24.8" y2="30.511" gradientUnits="userSpaceOnUse"><stop stop-color="#629B53" offset=".0112"/><stop stop-color="#008461" offset="1"/><stop stop-color="#4D9055" offset="1"/></linearGradient><linearGradient id="u" x1="14.008" x2="14.008" y1="30.292" y2="28.324" gradientUnits="userSpaceOnUse"><stop stop-color="#6F7E82" offset="0"/><stop stop-color="#6F7E82" stop-opacity="0" offset="1"/></linearGradient><radialGradient id="t" cx="0" cy="0" r="1" gradientTransform="translate(12.844 25.188) rotate(158.54) scale(4.8688 6.6316)" gradientUnits="userSpaceOnUse"><stop stop-color="#92B196" stop-opacity="0" offset=".84091"/><stop stop-color="#92B196" offset="1"/></radialGradient><linearGradient id="s" x1="14.648" x2="9.3828" y1="28.824" y2="25.464" gradientUnits="userSpaceOnUse"><stop stop-color="#6FA06A" offset="0"/><stop stop-color="#619A6A" offset="1"/></linearGradient><linearGradient id="r" x1="17.844" x2="25.019" y1="29.88" y2="25.1" gradientUnits="userSpaceOnUse"><stop stop-color="#528C39" offset="0"/><stop stop-color="#81BD52" offset="1"/></linearGradient><linearGradient id="q" x1="19.281" x2="19.281" y1="30.219" y2="28.812" gradientUnits="userSpaceOnUse"><stop stop-color="#6A806E" offset="0"/><stop stop-color="#6A806E" stop-opacity="0" offset="1"/></linearGradient><radialGradient id="p" cx="0" cy="0" r="1" gradientTransform="translate(24 25.016) rotate(133.9) scale(1.1493 .24366)" gradientUnits="userSpaceOnUse"><stop stop-color="#9DD271" offset="0"/><stop stop-color="#9DD271" stop-opacity="0" offset="1"/></radialGradient><linearGradient id="o" x1="22.75" x2="18.842" y1="25.339" y2="28.573" gradientUnits="userSpaceOnUse"><stop stop-color="#87BE58" offset="0"/><stop stop-color="#7BA561" offset="1"/></linearGradient><linearGradient id="n" x1="19.812" x2="15.562" y1="5.5626" y2="23.375" gradientUnits="userSpaceOnUse"><stop stop-color="#FFE447" offset="0"/><stop stop-color="#F7B44B" offset="1"/></linearGradient><radialGradient id="m" cx="0" cy="0" r="1" gradientTransform="translate(21.438 11.906) rotate(152.16) scale(8.7648 7.6939)" gradientUnits="userSpaceOnUse"><stop stop-color="#966261" offset="0"/><stop stop-color="#7B454A" offset="1"/></radialGradient><radialGradient id="k" cx="0" cy="0" r="1" gradientTransform="translate(20.438 11.625) rotate(146.31) scale(6.0844)" gradientUnits="userSpaceOnUse"><stop stop-color="#8C6161" offset="0"/><stop stop-color="#693542" offset="1"/></radialGradient><linearGradient id="j" x1="16" x2="16" y1="16.25" y2="19.625" gradientUnits="userSpaceOnUse"><stop stop-color="#723152" stop-opacity="0" offset="0"/><stop stop-color="#723152" offset="1"/></linearGradient><linearGradient id="i" x1="14.648" x2="9.8516" y1="27.192" y2="24.442" gradientUnits="userSpaceOnUse"><stop stop-color="#86AD7A" offset="0"/><stop stop-color="#86AD7A" stop-opacity="0" offset="1"/></linearGradient></defs></svg>
