<svg fill="none" viewBox="0 0 32 32" xmlns="http://www.w3.org/2000/svg"><path d="m3.9453 26.745v-3.7422h4.0234v4.0266c0 1.2625-1.9375 1.9656-2.7344 1.9656h-2.7031c-0.1875 0-0.53125-0.125-0.53125-0.5s0.39345-0.5349 0.58705-0.5349c0.78887 0 1.3583-0.4589 1.3583-1.2151z" fill="url(#ap)"/><path d="m3.9453 26.745v-3.7422h4.0234v4.0266c0 1.2625-1.9375 1.9656-2.7344 1.9656h-2.7031c-0.1875 0-0.53125-0.125-0.53125-0.5s0.39345-0.5349 0.58705-0.5349c0.78887 0 1.3583-0.4589 1.3583-1.2151z" fill="url(#ae)"/><path d="m11.78 29c-5.4 0-9.78-4.38-9.78-9.78v-4.64c0-3.58 2.86-6.55 6.44-6.58 3.45-0.03 6.28 2.62 6.54 6 0.25 2.25 2.21 4 4.52 4h0.13c2.45-0.07 4.37-2.12 4.37-4.56v-2.31c0-0.68 0.71-1.12 1.33-0.82 0.5046 0.2498 0.9287 0.6372 1.2233 1.1134 0.0969 0.1568 0.2623 0.2638 0.4467 0.2638s0.3498-0.107 0.4467-0.2638c0.2946-0.4762 0.7187-0.8636 1.2233-1.1134 0.62-0.31 1.33 0.14 1.33 0.82v3.75c0 7.71-4.29 14.13-12 14.12h-6.22z" fill="url(#t)"/><path d="m11.78 29c-5.4 0-9.78-4.38-9.78-9.78v-4.64c0-3.58 2.86-6.55 6.44-6.58 3.45-0.03 6.28 2.62 6.54 6 0.25 2.25 2.21 4 4.52 4h0.13c2.45-0.07 4.37-2.12 4.37-4.56v-2.31c0-0.68 0.71-1.12 1.33-0.82 0.5046 0.2498 0.9287 0.6372 1.2233 1.1134 0.0969 0.1568 0.2623 0.2638 0.4467 0.2638s0.3498-0.107 0.4467-0.2638c0.2946-0.4762 0.7187-0.8636 1.2233-1.1134 0.62-0.31 1.33 0.14 1.33 0.82v3.75c0 7.71-4.29 14.13-12 14.12h-6.22z" fill="url(#i)"/><path d="m11.78 29c-5.4 0-9.78-4.38-9.78-9.78v-4.64c0-3.58 2.86-6.55 6.44-6.58 3.45-0.03 6.28 2.62 6.54 6 0.25 2.25 2.21 4 4.52 4h0.13c2.45-0.07 4.37-2.12 4.37-4.56v-2.31c0-0.68 0.71-1.12 1.33-0.82 0.5046 0.2498 0.9287 0.6372 1.2233 1.1134 0.0969 0.1568 0.2623 0.2638 0.4467 0.2638s0.3498-0.107 0.4467-0.2638c0.2946-0.4762 0.7187-0.8636 1.2233-1.1134 0.62-0.31 1.33 0.14 1.33 0.82v3.75c0 7.71-4.29 14.13-12 14.12h-6.22z" fill="url(#f)"/><path d="m11.78 29c-5.4 0-9.78-4.38-9.78-9.78v-4.64c0-3.58 2.86-6.55 6.44-6.58 3.45-0.03 6.28 2.62 6.54 6 0.25 2.25 2.21 4 4.52 4h0.13c2.45-0.07 4.37-2.12 4.37-4.56v-2.31c0-0.68 0.71-1.12 1.33-0.82 0.5046 0.2498 0.9287 0.6372 1.2233 1.1134 0.0969 0.1568 0.2623 0.2638 0.4467 0.2638s0.3498-0.107 0.4467-0.2638c0.2946-0.4762 0.7187-0.8636 1.2233-1.1134 0.62-0.31 1.33 0.14 1.33 0.82v3.75c0 7.71-4.29 14.13-12 14.12h-6.22z" fill="url(#e)"/><path d="m11.78 29c-5.4 0-9.78-4.38-9.78-9.78v-4.64c0-3.58 2.86-6.55 6.44-6.58 3.45-0.03 6.28 2.62 6.54 6 0.25 2.25 2.21 4 4.52 4h0.13c2.45-0.07 4.37-2.12 4.37-4.56v-2.31c0-0.68 0.71-1.12 1.33-0.82 0.5046 0.2498 0.9287 0.6372 1.2233 1.1134 0.0969 0.1568 0.2623 0.2638 0.4467 0.2638s0.3498-0.107 0.4467-0.2638c0.2946-0.4762 0.7187-0.8636 1.2233-1.1134 0.62-0.31 1.33 0.14 1.33 0.82v3.75c0 7.71-4.29 14.13-12 14.12h-6.22z" fill="url(#d)"/><path d="m11.78 29c-5.4 0-9.78-4.38-9.78-9.78v-4.64c0-3.58 2.86-6.55 6.44-6.58 3.45-0.03 6.28 2.62 6.54 6 0.25 2.25 2.21 4 4.52 4h0.13c2.45-0.07 4.37-2.12 4.37-4.56v-2.31c0-0.68 0.71-1.12 1.33-0.82 0.5046 0.2498 0.9287 0.6372 1.2233 1.1134 0.0969 0.1568 0.2623 0.2638 0.4467 0.2638s0.3498-0.107 0.4467-0.2638c0.2946-0.4762 0.7187-0.8636 1.2233-1.1134 0.62-0.31 1.33 0.14 1.33 0.82v3.75c0 7.71-4.29 14.13-12 14.12h-6.22z" fill="url(#c)"/><path d="m11.78 29c-5.4 0-9.78-4.38-9.78-9.78v-4.64c0-3.58 2.86-6.55 6.44-6.58 3.45-0.03 6.28 2.62 6.54 6 0.25 2.25 2.21 4 4.52 4h0.13c2.45-0.07 4.37-2.12 4.37-4.56v-2.31c0-0.68 0.71-1.12 1.33-0.82 0.5046 0.2498 0.9287 0.6372 1.2233 1.1134 0.0969 0.1568 0.2623 0.2638 0.4467 0.2638s0.3498-0.107 0.4467-0.2638c0.2946-0.4762 0.7187-0.8636 1.2233-1.1134 0.62-0.31 1.33 0.14 1.33 0.82v3.75c0 7.71-4.29 14.13-12 14.12h-6.22z" fill="url(#b)"/><path d="m11.78 29c-5.4 0-9.78-4.38-9.78-9.78v-4.64c0-3.58 2.86-6.55 6.44-6.58 3.45-0.03 6.28 2.62 6.54 6 0.25 2.25 2.21 4 4.52 4h0.13c2.45-0.07 4.37-2.12 4.37-4.56v-2.31c0-0.68 0.71-1.12 1.33-0.82 0.5046 0.2498 0.9287 0.6372 1.2233 1.1134 0.0969 0.1568 0.2623 0.2638 0.4467 0.2638s0.3498-0.107 0.4467-0.2638c0.2946-0.4762 0.7187-0.8636 1.2233-1.1134 0.62-0.31 1.33 0.14 1.33 0.82v3.75c0 7.71-4.29 14.13-12 14.12h-6.22z" fill="url(#a)"/><path d="m11.78 29c-5.4 0-9.78-4.38-9.78-9.78v-4.64c0-3.58 2.86-6.55 6.44-6.58 3.45-0.03 6.28 2.62 6.54 6 0.25 2.25 2.21 4 4.52 4h0.13c2.45-0.07 4.37-2.12 4.37-4.56v-2.31c0-0.68 0.71-1.12 1.33-0.82 0.5046 0.2498 0.9287 0.6372 1.2233 1.1134 0.0969 0.1568 0.2623 0.2638 0.4467 0.2638s0.3498-0.107 0.4467-0.2638c0.2946-0.4762 0.7187-0.8636 1.2233-1.1134 0.62-0.31 1.33 0.14 1.33 0.82v3.75c0 7.71-4.29 14.13-12 14.12h-6.22z" fill="url(#ao)"/><path d="m11.78 29c-5.4 0-9.78-4.38-9.78-9.78v-4.64c0-3.58 2.86-6.55 6.44-6.58 3.45-0.03 6.28 2.62 6.54 6 0.25 2.25 2.21 4 4.52 4h0.13c2.45-0.07 4.37-2.12 4.37-4.56v-2.31c0-0.68 0.71-1.12 1.33-0.82 0.5046 0.2498 0.9287 0.6372 1.2233 1.1134 0.0969 0.1568 0.2623 0.2638 0.4467 0.2638s0.3498-0.107 0.4467-0.2638c0.2946-0.4762 0.7187-0.8636 1.2233-1.1134 0.62-0.31 1.33 0.14 1.33 0.82v3.75c0 7.71-4.29 14.13-12 14.12h-6.22z" fill="url(#an)"/><path d="m11.78 29c-5.4 0-9.78-4.38-9.78-9.78v-4.64c0-3.58 2.86-6.55 6.44-6.58 3.45-0.03 6.28 2.62 6.54 6 0.25 2.25 2.21 4 4.52 4h0.13c2.45-0.07 4.37-2.12 4.37-4.56v-2.31c0-0.68 0.71-1.12 1.33-0.82 0.5046 0.2498 0.9287 0.6372 1.2233 1.1134 0.0969 0.1568 0.2623 0.2638 0.4467 0.2638s0.3498-0.107 0.4467-0.2638c0.2946-0.4762 0.7187-0.8636 1.2233-1.1134 0.62-0.31 1.33 0.14 1.33 0.82v3.75c0 7.71-4.29 14.13-12 14.12h-6.22z" fill="url(#am)"/><path d="m11.78 29c-5.4 0-9.78-4.38-9.78-9.78v-4.64c0-3.58 2.86-6.55 6.44-6.58 3.45-0.03 6.28 2.62 6.54 6 0.25 2.25 2.21 4 4.52 4h0.13c2.45-0.07 4.37-2.12 4.37-4.56v-2.31c0-0.68 0.71-1.12 1.33-0.82 0.5046 0.2498 0.9287 0.6372 1.2233 1.1134 0.0969 0.1568 0.2623 0.2638 0.4467 0.2638s0.3498-0.107 0.4467-0.2638c0.2946-0.4762 0.7187-0.8636 1.2233-1.1134 0.62-0.31 1.33 0.14 1.33 0.82v3.75c0 7.71-4.29 14.13-12 14.12h-6.22z" fill="url(#al)" fill-opacity=".6"/><g filter="url(#at)"><path d="m15.062 21.438c-3.1056-1.9647-4.9465-5.1469-5.3521-9.0624-0.09617-0.9286 0.67127-1.6876 1.6048-1.6876 0.9435 0 1.7175 0.7726 1.8137 1.7112 0.215 2.0967 0.821 5.2224 2.1836 6.5388 3.6117 3.4894 7.3316 1.3325 8.6875-0.9062-1.0938 4.3437-5.7493 5.4233-8.9375 3.4062z" fill="#D5D1D9"/></g><g filter="url(#as)"><path d="m9.7739 14.336h-2.8507c-0.94042 0-1.7045 0.7641-1.7045 1.7045s0.7641 1.7045 1.7045 1.7045c0.59756 0 1.1168-0.3036 1.4204-0.7641 0.30368 0.4605 0.83267 0.7641 1.4204 0.7641 0.94046 0 1.7046-0.7641 1.7046-1.7045 0.0098-0.9404-0.7543-1.7045-1.6948-1.7045z" fill="url(#ak)"/></g><g filter="url(#ar)"><path d="m10.02 14h-2.91c-0.96 0-1.74 0.78-1.74 1.74s0.78 1.74 1.74 1.74c0.47266 0 0.89729-0.1861 1.2088-0.4885 0.12874-0.1251 0.35395-0.1252 0.48309-6e-4 0.31383 0.3028 0.74295 0.4891 1.2082 0.4891 0.96 0 1.74-0.78 1.74-1.74 0.01-0.96-0.77-1.74-1.73-1.74z" fill="#97959A"/><path d="m10.02 14h-2.91c-0.96 0-1.74 0.78-1.74 1.74s0.78 1.74 1.74 1.74c0.47266 0 0.89729-0.1861 1.2088-0.4885 0.12874-0.1251 0.35395-0.1252 0.48309-6e-4 0.31383 0.3028 0.74295 0.4891 1.2082 0.4891 0.96 0 1.74-0.78 1.74-1.74 0.01-0.96-0.77-1.74-1.73-1.74z" fill="url(#aj)"/><path d="m10.02 14h-2.91c-0.96 0-1.74 0.78-1.74 1.74s0.78 1.74 1.74 1.74c0.47266 0 0.89729-0.1861 1.2088-0.4885 0.12874-0.1251 0.35395-0.1252 0.48309-6e-4 0.31383 0.3028 0.74295 0.4891 1.2082 0.4891 0.96 0 1.74-0.78 1.74-1.74 0.01-0.96-0.77-1.74-1.73-1.74z" fill="url(#ai)"/><path d="m10.02 14h-2.91c-0.96 0-1.74 0.78-1.74 1.74s0.78 1.74 1.74 1.74c0.47266 0 0.89729-0.1861 1.2088-0.4885 0.12874-0.1251 0.35395-0.1252 0.48309-6e-4 0.31383 0.3028 0.74295 0.4891 1.2082 0.4891 0.96 0 1.74-0.78 1.74-1.74 0.01-0.96-0.77-1.74-1.73-1.74z" fill="url(#ah)"/></g><path d="m8.5625 16.704v-2.7038h1.4575c0.96 0 1.74 0.78 1.73 1.74 0 0.96-0.78 1.74-1.74 1.74-0.59838 0-1.1371-0.3083-1.4475-0.7762z" fill="url(#ag)"/><path d="m8.5625 16.704v-2.7038h1.4575c0.96 0 1.74 0.78 1.73 1.74 0 0.96-0.78 1.74-1.74 1.74-0.59838 0-1.1371-0.3083-1.4475-0.7762z" fill="url(#af)"/><path d="m10.02 14h-2.91c-0.96 0-1.74 0.78-1.74 1.74s0.78 1.74 1.74 1.74c0.47266 0 0.89729-0.1861 1.2088-0.4885 0.12874-0.1251 0.35395-0.1252 0.48309-6e-4 0.31383 0.3028 0.74295 0.4891 1.2082 0.4891 0.96 0 1.74-0.78 1.74-1.74 0.01-0.96-0.77-1.74-1.73-1.74z" fill="url(#ad)"/><path d="m10.02 14h-2.91c-0.96 0-1.74 0.78-1.74 1.74s0.78 1.74 1.74 1.74c0.47266 0 0.89729-0.1861 1.2088-0.4885 0.12874-0.1251 0.35395-0.1252 0.48309-6e-4 0.31383 0.3028 0.74295 0.4891 1.2082 0.4891 0.96 0 1.74-0.78 1.74-1.74 0.01-0.96-0.77-1.74-1.73-1.74z" fill="url(#ac)"/><path d="m8.19 15.65-0.8-0.66c-0.13-0.11-0.2-0.27-0.2-0.43 0-0.31 0.25-0.56 0.56-0.56h1.63c0.31 0 0.56 0.25 0.56 0.56 0 0.17-0.08 0.33-0.2 0.43l-0.8 0.66c-0.22 0.18-0.53 0.18-0.75 0z" fill="url(#ab)"/><path d="m8.19 15.65-0.8-0.66c-0.13-0.11-0.2-0.27-0.2-0.43 0-0.31 0.25-0.56 0.56-0.56h1.63c0.31 0 0.56 0.25 0.56 0.56 0 0.17-0.08 0.33-0.2 0.43l-0.8 0.66c-0.22 0.18-0.53 0.18-0.75 0z" fill="url(#aa)"/><path d="m8.19 15.65-0.8-0.66c-0.13-0.11-0.2-0.27-0.2-0.43 0-0.31 0.25-0.56 0.56-0.56h1.63c0.31 0 0.56 0.25 0.56 0.56 0 0.17-0.08 0.33-0.2 0.43l-0.8 0.66c-0.22 0.18-0.53 0.18-0.75 0z" fill="url(#z)"/><path d="m8.19 15.65-0.8-0.66c-0.13-0.11-0.2-0.27-0.2-0.43 0-0.31 0.25-0.56 0.56-0.56h1.63c0.31 0 0.56 0.25 0.56 0.56 0 0.17-0.08 0.33-0.2 0.43l-0.8 0.66c-0.22 0.18-0.53 0.18-0.75 0z" fill="url(#y)"/><path d="m8.19 15.65-0.8-0.66c-0.13-0.11-0.2-0.27-0.2-0.43 0-0.31 0.25-0.56 0.56-0.56h1.63c0.31 0 0.56 0.25 0.56 0.56 0 0.17-0.08 0.33-0.2 0.43l-0.8 0.66c-0.22 0.18-0.53 0.18-0.75 0z" fill="url(#x)"/><path d="m11.07 13.96c0.4142 0 0.75-0.3357 0.75-0.75 0-0.4142-0.3358-0.75-0.75-0.75s-0.75 0.3358-0.75 0.75c0 0.4143 0.3358 0.75 0.75 0.75z" fill="url(#w)"/><path d="m11.07 13.96c0.4142 0 0.75-0.3357 0.75-0.75 0-0.4142-0.3358-0.75-0.75-0.75s-0.75 0.3358-0.75 0.75c0 0.4143 0.3358 0.75 0.75 0.75z" fill="url(#v)"/><path d="m11.07 13.96c0.4142 0 0.75-0.3357 0.75-0.75 0-0.4142-0.3358-0.75-0.75-0.75s-0.75 0.3358-0.75 0.75c0 0.4143 0.3358 0.75 0.75 0.75z" fill="url(#u)"/><path d="m6.06 13.96c0.41421 0 0.75-0.3357 0.75-0.75 0-0.4142-0.33579-0.75-0.75-0.75-0.41422 0-0.75 0.3358-0.75 0.75 0 0.4143 0.33578 0.75 0.75 0.75z" fill="url(#s)"/><path d="m6.06 13.96c0.41421 0 0.75-0.3357 0.75-0.75 0-0.4142-0.33579-0.75-0.75-0.75-0.41422 0-0.75 0.3358-0.75 0.75 0 0.4143 0.33578 0.75 0.75 0.75z" fill="url(#r)"/><path d="m6.06 13.96c0.41421 0 0.75-0.3357 0.75-0.75 0-0.4142-0.33579-0.75-0.75-0.75-0.41422 0-0.75 0.3358-0.75 0.75 0 0.4143 0.33578 0.75 0.75 0.75z" fill="url(#q)"/><path d="m19.03 20.35c1.03 0 1.86-0.83 1.86-1.86 0-0.24-0.05-0.47-0.13-0.67-0.36 0.11-0.74 0.17-1.14 0.18h-0.13c-0.74 0-1.43-0.18-2.05-0.49-0.18 0.29-0.28 0.62-0.28 0.98 0.01 1.03 0.84 1.86 1.87 1.86z" fill="url(#p)"/><path d="m23.57 20.631c0.6296 0 1.14-0.5104 1.14-1.14s-0.5104-1.14-1.14-1.14-1.14 0.5104-1.14 1.14 0.5104 1.14 1.14 1.14z" fill="url(#o)"/><path d="m16.62 26.5c0 0.82 0.67 1.49 1.49 1.49 0.28 0 0.5 0.22 0.5 0.5s-0.22 0.5-0.5 0.5h-2.49c-2.22 0-4.01-1.8-4.01-4.01v-2.72l5.01 1.8022v2.4378z" fill="url(#n)"/><path d="m16.62 26.5c0 0.82 0.67 1.49 1.49 1.49 0.28 0 0.5 0.22 0.5 0.5s-0.22 0.5-0.5 0.5h-2.49c-2.22 0-4.01-1.8-4.01-4.01v-2.72l5.01 1.8022v2.4378z" fill="url(#m)"/><path d="m16.62 26.5c0 0.82 0.67 1.49 1.49 1.49 0.28 0 0.5 0.22 0.5 0.5s-0.22 0.5-0.5 0.5h-2.49c-2.22 0-4.01-1.8-4.01-4.01v-2.72l5.01 1.8022v2.4378z" fill="url(#l)"/><path d="m11.61 24.98v-3.76c0-1.67-1.32-3.07-2.99-3.1-1.71-0.03-3.1 1.35-3.1 3.04v1.58c0 3.43 2.76 6.22 6.19 6.25h0.07 3.85c-2.22 0-4.02-1.8-4.02-4.01z" fill="url(#k)"/><path d="m11.61 24.98v-3.76c0-1.67-1.32-3.07-2.99-3.1-1.71-0.03-3.1 1.35-3.1 3.04v1.58c0 3.43 2.76 6.22 6.19 6.25h0.07 3.85c-2.22 0-4.02-1.8-4.02-4.01z" fill="url(#j)"/><path d="m11.61 24.98v-3.76c0-1.67-1.32-3.07-2.99-3.1-1.71-0.03-3.1 1.35-3.1 3.04v1.58c0 3.43 2.76 6.22 6.19 6.25h0.07 3.85c-2.22 0-4.02-1.8-4.02-4.01z" fill="url(#h)"/><g filter="url(#aq)"><path d="m16.234 25.704c-0.1094 0.7344 0.1 2.4031 1.875 2.6406" stroke="url(#g)" stroke-linecap="round" stroke-width=".1"/></g><defs><filter id="at" x="6.7023" y="7.6877" width="20.298" height="17.73" color-interpolation-filters="sRGB" filterUnits="userSpaceOnUse"><feFlood flood-opacity="0" result="BackgroundImageFix"/><feBlend in="SourceGraphic" in2="BackgroundImageFix" result="shape"/><feGaussianBlur result="effect1_foregroundBlur_28327_5909" stdDeviation="1.5"/></filter><filter id="as" x="4.7188" y="13.836" width="7.25" height="4.4089" color-interpolation-filters="sRGB" filterUnits="userSpaceOnUse"><feFlood flood-opacity="0" result="BackgroundImageFix"/><feBlend in="SourceGraphic" in2="BackgroundImageFix" result="shape"/><feGaussianBlur result="effect1_foregroundBlur_28327_5909" stdDeviation="0.25"/></filter><filter id="ar" x="5.37" y="14" width="6.3801" height="3.48" color-interpolation-filters="sRGB" filterUnits="userSpaceOnUse"><feFlood flood-opacity="0" result="BackgroundImageFix"/><feBlend in="SourceGraphic" in2="BackgroundImageFix" result="shape"/><feColorMatrix in="SourceAlpha" result="hardAlpha" values="0 0 0 0 0 0 0 0 0 0 0 0 0 0 0 0 0 0 127 0"/><feOffset/><feGaussianBlur stdDeviation="0.2"/><feComposite in2="hardAlpha" k2="-1" k3="1" operator="arithmetic"/><feColorMatrix values="0 0 0 0 0.52549 0 0 0 0 0.517647 0 0 0 0 0.529412 0 0 0 1 0"/><feBlend in2="shape" result="effect1_innerShadow_28327_5909"/></filter><filter id="aq" x="15.911" y="25.404" width="2.4988" height="3.2407" color-interpolation-filters="sRGB" filterUnits="userSpaceOnUse"><feFlood flood-opacity="0" result="BackgroundImageFix"/><feBlend in="SourceGraphic" in2="BackgroundImageFix" result="shape"/><feGaussianBlur result="effect1_foregroundBlur_28327_5909" stdDeviation="0.125"/></filter><linearGradient id="ap" x1="5.7277" x2="4.3125" y1="26.583" y2="28.995" gradientUnits="userSpaceOnUse"><stop stop-color="#5E5369" offset="0"/><stop stop-color="#7C7089" offset="1"/></linearGradient><linearGradient id="ae" x1="4.4531" x2="4.4531" y1="29.094" y2="28.453" gradientUnits="userSpaceOnUse"><stop stop-color="#78638C" offset="0"/><stop stop-color="#78638C" stop-opacity="0" offset="1"/></linearGradient><radialGradient id="t" cx="0" cy="0" r="1" gradientTransform="translate(18.062 19.438) rotate(107.28) scale(14.727 14.96)" gradientUnits="userSpaceOnUse"><stop stop-color="#C3BDCA" offset=".023797"/><stop stop-color="#9F9EA0" offset="1"/></radialGradient><linearGradient id="i" x1="6.625" x2="10.938" y1="19.75" y2="19.75" gradientUnits="userSpaceOnUse"><stop stop-color="#949296" offset="0"/><stop stop-color="#949296" stop-opacity="0" offset="1"/></linearGradient><linearGradient id="f" x1="18.875" x2="18.875" y1="30.5" y2="24.75" gradientUnits="userSpaceOnUse"><stop stop-color="#89789A" offset="0"/><stop stop-color="#89789A" stop-opacity="0" offset="1"/></linearGradient><radialGradient id="e" cx="0" cy="0" r="1" gradientTransform="translate(20.188 13.625) rotate(90) scale(7.3125 5.3125)" gradientUnits="userSpaceOnUse"><stop stop-color="#99979D" offset=".58974"/><stop stop-color="#99979D" stop-opacity="0" offset="1"/></radialGradient><radialGradient id="d" cx="0" cy="0" r="1" gradientTransform="translate(6.6875 28.625) rotate(-47.77) scale(5.4865 7.7186)" gradientUnits="userSpaceOnUse"><stop stop-color="#79638D" offset="0"/><stop stop-color="#79638D" stop-opacity="0" offset="1"/></radialGradient><radialGradient id="c" cx="0" cy="0" r="1" gradientTransform="translate(17.875 30.188) rotate(-90) scale(4.5 9.6689)" gradientUnits="userSpaceOnUse"><stop stop-color="#79638D" offset=".040541"/><stop stop-color="#79638D" stop-opacity="0" offset="1"/></radialGradient><radialGradient id="b" cx="0" cy="0" r="1" gradientTransform="translate(16.375 13.125) rotate(63.616) scale(17.721 22.334)" gradientUnits="userSpaceOnUse"><stop stop-color="#79638D" stop-opacity="0" offset=".83587"/><stop stop-color="#79638D" offset="1"/></radialGradient><radialGradient id="a" cx="0" cy="0" r="1" gradientTransform="translate(28.062 11.188) rotate(90) scale(6.2188 1.3438)" gradientUnits="userSpaceOnUse"><stop stop-color="#97929C" offset=".42714"/><stop stop-color="#97929C" stop-opacity="0" offset="1"/></radialGradient><radialGradient id="ao" cx="0" cy="0" r="1" gradientTransform="translate(26.062 10) rotate(90) scale(7.875 1.4144)" gradientUnits="userSpaceOnUse"><stop stop-color="#CAC8CC" offset="0"/><stop stop-color="#CAC8CC" stop-opacity="0" offset="1"/></radialGradient><radialGradient id="an" cx="0" cy="0" r="1" gradientTransform="translate(27.859 11.078) rotate(90) scale(1.7656 1.2936)" gradientUnits="userSpaceOnUse"><stop stop-color="#8B888D" offset="0"/><stop stop-color="#8B888D" stop-opacity="0" offset="1"/></radialGradient><radialGradient id="am" cx="0" cy="0" r="1" gradientTransform="translate(29.891 10.172) rotate(101.9) scale(3.8643 1.1984)" gradientUnits="userSpaceOnUse"><stop stop-color="#C9C7CA" offset="0"/><stop stop-color="#C9C7CA" stop-opacity="0" offset=".51956"/></radialGradient><radialGradient id="al" cx="0" cy="0" r="1" gradientTransform="translate(9.0312 8.6252) rotate(90) scale(2.0625 4.0625)" gradientUnits="userSpaceOnUse"><stop stop-color="#B3B3B3" offset="0"/><stop stop-color="#B3B3B3" stop-opacity="0" offset=".51923"/><stop stop-color="#B3B3B3" stop-opacity="0" offset="1"/></radialGradient><linearGradient id="ak" x1="9.4688" x2="6.375" y1="17.745" y2="15.063" gradientUnits="userSpaceOnUse"><stop stop-color="#6A5B79" offset="0"/><stop stop-color="#7D7981" offset="1"/></linearGradient><radialGradient id="aj" cx="0" cy="0" r="1" gradientTransform="translate(11.312 15.047) rotate(139.71) scale(1.8846 1.5483)" gradientUnits="userSpaceOnUse"><stop stop-color="#C8C5CB" offset="0"/><stop stop-color="#C8C5CB" stop-opacity="0" offset="1"/></radialGradient><radialGradient id="ai" cx="0" cy="0" r="1" gradientTransform="translate(6.5625 17.219) rotate(-67.011) scale(2.2404 3.7187)" gradientUnits="userSpaceOnUse"><stop stop-color="#877E91" offset="0"/><stop stop-color="#877E91" stop-opacity="0" offset="1"/></radialGradient><radialGradient id="ah" cx="0" cy="0" r="1" gradientTransform="translate(7.8438 15.156) rotate(131.44) scale(.77902 1.0236)" gradientUnits="userSpaceOnUse"><stop stop-color="#9D97A3" offset="0"/><stop stop-color="#9D97A3" stop-opacity="0" offset="1"/></radialGradient><radialGradient id="ag" cx="0" cy="0" r="1" gradientTransform="translate(11.156 14.438) rotate(117.19) scale(3.2145 3.0555)" gradientUnits="userSpaceOnUse"><stop stop-color="#877E91" stop-opacity="0" offset=".47236"/><stop stop-color="#877E91" offset="1"/></radialGradient><linearGradient id="af" x1="8.5" x2="8.8047" y1="16.219" y2="16.219" gradientUnits="userSpaceOnUse"><stop stop-color="#96939A" offset="0"/><stop stop-color="#96939A" stop-opacity="0" offset="1"/></linearGradient><radialGradient id="ad" cx="0" cy="0" r="1" gradientTransform="translate(7.125 18.078) rotate(-71.761) scale(1.4477 2.4855)" gradientUnits="userSpaceOnUse"><stop stop-color="#88749B" offset="0"/><stop stop-color="#88749B" stop-opacity="0" offset="1"/></radialGradient><radialGradient id="ac" cx="0" cy="0" r="1" gradientTransform="translate(10.375 17.906) rotate(257.05) scale(1.3948 2.3947)" gradientUnits="userSpaceOnUse"><stop stop-color="#88749B" offset="0"/><stop stop-color="#88749B" stop-opacity="0" offset="1"/></radialGradient><linearGradient id="ab" x1="8.2275" x2="8.5303" y1="14.219" y2="15.484" gradientUnits="userSpaceOnUse"><stop stop-color="#5F5254" offset="0"/><stop stop-color="#2E2127" offset="1"/></linearGradient><linearGradient id="aa" x1="8.3737" x2="8.3737" y1="14.468" y2="13.631" gradientUnits="userSpaceOnUse"><stop stop-color="#34222C" stop-opacity="0" offset=".14655"/><stop stop-color="#34222C" offset=".87273"/></linearGradient><linearGradient id="z" x1="7.8854" x2="7.8854" y1="15.873" y2="14.607" gradientUnits="userSpaceOnUse"><stop stop-color="#552D52" offset="0"/><stop stop-color="#552D52" stop-opacity="0" offset="1"/></linearGradient><radialGradient id="y" cx="0" cy="0" r="1" gradientTransform="translate(6.8324 15.25) rotate(-16.265) scale(3.5792 1.4195)" gradientUnits="userSpaceOnUse"><stop stop-color="#5C5458" stop-opacity="0" offset=".8276"/><stop stop-color="#5C5458" offset=".93501"/></radialGradient><radialGradient id="x" cx="0" cy="0" r="1" gradientTransform="translate(9.4544 14.469) rotate(149.32) scale(.6177 .35168)" gradientUnits="userSpaceOnUse"><stop stop-color="#6A5C5E" offset="0"/><stop stop-color="#6A5C5E" stop-opacity="0" offset="1"/></radialGradient><radialGradient id="w" cx="0" cy="0" r="1" gradientTransform="translate(11.293 12.969) rotate(125.84) scale(1.0408 .92791)" gradientUnits="userSpaceOnUse"><stop stop-color="#433437" offset=".0055866"/><stop stop-color="#3B2838" offset="1"/></radialGradient><radialGradient id="v" cx="0" cy="0" r="1" gradientTransform="translate(11.35 13.023) rotate(137.64) scale(.53919 .47436)" gradientUnits="userSpaceOnUse"><stop stop-color="#5C5051" offset="0"/><stop stop-color="#5C5051" stop-opacity="0" offset="1"/></radialGradient><linearGradient id="u" x1="10.923" x2="10.407" y1="12.621" y2="12.293" gradientUnits="userSpaceOnUse"><stop stop-color="#5C5051" stop-opacity="0" offset="0"/><stop stop-color="#5C5051" offset="1"/></linearGradient><radialGradient id="s" cx="0" cy="0" r="1" gradientTransform="translate(6.2826 12.969) rotate(125.84) scale(1.0408 .92791)" gradientUnits="userSpaceOnUse"><stop stop-color="#433437" offset=".0055866"/><stop stop-color="#3B2838" offset="1"/></radialGradient><radialGradient id="r" cx="0" cy="0" r="1" gradientTransform="translate(6.3403 13.023) rotate(137.64) scale(.53919 .47436)" gradientUnits="userSpaceOnUse"><stop stop-color="#5C5051" offset="0"/><stop stop-color="#5C5051" stop-opacity="0" offset="1"/></radialGradient><linearGradient id="q" x1="5.9126" x2="5.3969" y1="12.621" y2="12.293" gradientUnits="userSpaceOnUse"><stop stop-color="#5C5051" stop-opacity="0" offset="0"/><stop stop-color="#5C5051" offset="1"/></linearGradient><linearGradient id="p" x1="20.188" x2="18.25" y1="19.75" y2="17.51" gradientUnits="userSpaceOnUse"><stop stop-color="#9B9B9B" offset="0"/><stop stop-color="#9F9FA1" offset="1"/></linearGradient><linearGradient id="o" x1="22.625" x2="24.71" y1="18.351" y2="20.631" gradientUnits="userSpaceOnUse"><stop stop-color="#96939A" offset="0"/><stop stop-color="#ADAAB2" offset="1"/></linearGradient><linearGradient id="n" x1="16.844" x2="14.938" y1="25.625" y2="30.469" gradientUnits="userSpaceOnUse"><stop stop-color="#B7B3BB" offset="0"/><stop stop-color="#938A9E" offset="1"/></linearGradient><radialGradient id="m" cx="0" cy="0" r="1" gradientTransform="translate(16.156 24.062) rotate(122.86) scale(5.3569 6.3372)" gradientUnits="userSpaceOnUse"><stop stop-color="#79658C" stop-opacity="0" offset=".7803"/><stop stop-color="#79658C" offset="1"/></radialGradient><radialGradient id="l" cx="0" cy="0" r="1" gradientTransform="translate(17.094 27.266) rotate(145.01) scale(.95364 2.0023)" gradientUnits="userSpaceOnUse"><stop stop-color="#BCB9C2" offset="0"/><stop stop-color="#BCB9C2" stop-opacity="0" offset="1"/></radialGradient><radialGradient id="k" cx="0" cy="0" r="1" gradientTransform="translate(8.2518 18.12) rotate(85.497) scale(7.1422 8.183)" gradientUnits="userSpaceOnUse"><stop stop-color="#AEA6B7" offset="0"/><stop stop-color="#C7BDD3" offset="1"/></radialGradient><radialGradient id="j" cx="0" cy="0" r="1" gradientTransform="translate(14.344 27.302) rotate(144.22) scale(4.2758 4.5128)" gradientUnits="userSpaceOnUse"><stop stop-color="#886BA0" offset="0"/><stop stop-color="#886BA0" stop-opacity="0" offset="1"/></radialGradient><radialGradient id="h" cx="0" cy="0" r="1" gradientTransform="translate(9.625 33.302) rotate(242.55) scale(10.984 8.0444)" gradientUnits="userSpaceOnUse"><stop stop-color="#886BA0" offset="0"/><stop stop-color="#886BA0" stop-opacity="0" offset="1"/></radialGradient><linearGradient id="g" x1="17.641" x2="16.953" y1="28.266" y2="25.156" gradientUnits="userSpaceOnUse"><stop stop-color="#DBD3EB" offset="0"/><stop stop-color="#BFBBC8" stop-opacity="0" offset="1"/></linearGradient></defs></svg>
