<svg fill="none" viewBox="0 0 32 32" xmlns="http://www.w3.org/2000/svg"><path d="m4.2945 19c-0.15455-0.0305-0.2985 0.0877-0.2985 0.2453v3.9268c0 0.7685 0.44035 1.4691 1.1329 1.8023l8.8668 4.2662c1.233 0.5932 2.669 0.5932 3.9021 0l8.8672-4.2662c0.6925-0.3332 1.1329-1.0338 1.1329-1.8023v-3.9268c0-0.1576-0.144-0.2758-0.2985-0.2453l-11.652 2.3043-11.653-2.3043z" fill="url(#y)"/><path d="m15.929 11.913-11.358 5.2789c-0.35288 0.1639-0.57855 0.5177-0.57855 0.9068v0.7984c0 0.0771 0.04425 0.1473 0.11377 0.1805l10.546 5.0388c0.818 0.3909 1.7688 0.3909 2.5868 0l10.546-5.0388c0.0695-0.0332 0.1138-0.1034 0.1138-0.1805v-0.7984c0-0.3891-0.2257-0.7429-0.5786-0.9068l-11.358-5.2789v-0.0148l-0.0159 0.0074-0.0159-0.0074v0.0148z" fill="url(#a)"/><path d="m15.929 11.913-11.358 5.2789c-0.35288 0.1639-0.57855 0.5177-0.57855 0.9068v0.7984c0 0.0771 0.04425 0.1473 0.11377 0.1805l10.546 5.0388c0.818 0.3909 1.7688 0.3909 2.5868 0l10.546-5.0388c0.0695-0.0332 0.1138-0.1034 0.1138-0.1805v-0.7984c0-0.3891-0.2257-0.7429-0.5786-0.9068l-11.358-5.2789v-0.0148l-0.0159 0.0074-0.0159-0.0074v0.0148z" fill="url(#a)"/><path d="m15.929 11.913-11.358 5.2789c-0.35288 0.1639-0.57855 0.5177-0.57855 0.9068v0.7984c0 0.0771 0.04425 0.1473 0.11377 0.1805l10.546 5.0388c0.818 0.3909 1.7688 0.3909 2.5868 0l10.546-5.0388c0.0695-0.0332 0.1138-0.1034 0.1138-0.1805v-0.7984c0-0.3891-0.2257-0.7429-0.5786-0.9068l-11.358-5.2789v-0.0148l-0.0159 0.0074-0.0159-0.0074v0.0148z" fill="url(#h)"/><path d="m15.929 11.913-11.358 5.2789c-0.35288 0.1639-0.57855 0.5177-0.57855 0.9068v0.7984c0 0.0771 0.04425 0.1473 0.11377 0.1805l10.546 5.0388c0.818 0.3909 1.7688 0.3909 2.5868 0l10.546-5.0388c0.0695-0.0332 0.1138-0.1034 0.1138-0.1805v-0.7984c0-0.3891-0.2257-0.7429-0.5786-0.9068l-11.358-5.2789v-0.0148l-0.0159 0.0074-0.0159-0.0074v0.0148z" fill="url(#g)"/><path d="m15.929 11.913-11.358 5.2789c-0.35288 0.1639-0.57855 0.5177-0.57855 0.9068v0.7984c0 0.0771 0.04425 0.1473 0.11377 0.1805l10.546 5.0388c0.818 0.3909 1.7688 0.3909 2.5868 0l10.546-5.0388c0.0695-0.0332 0.1138-0.1034 0.1138-0.1805v-0.7984c0-0.3891-0.2257-0.7429-0.5786-0.9068l-11.358-5.2789v-0.0148l-0.0159 0.0074-0.0159-0.0074v0.0148z" fill="url(#f)"/><g filter="url(#ae)"><path d="m17.191 24.211 10.344-5" stroke="url(#e)" stroke-linecap="round" stroke-width=".2"/></g><g filter="url(#ad)"><path d="m15.687 24.34c-4.2159-0.9053-4.7633-4.9142-4.5101-6.8055l9.6505 0.1616c0.0432 2.5918-1.665 6.0943-5.1404 6.6439z" fill="url(#d)"/><path d="m15.687 24.34c-4.2159-0.9053-4.7633-4.9142-4.5101-6.8055l9.6505 0.1616c0.0432 2.5918-1.665 6.0943-5.1404 6.6439z" fill="url(#c)"/></g><g filter="url(#ac)"><path d="m7.9422 20.117c-1.1812-0.2853-1.3346-1.5486-1.2637-2.1445l2.704 0.0509c0.01208 0.8167-0.46652 1.9204-1.4403 2.0936z" fill="url(#b)"/></g><path d="m4.5707 18.101 10.517 4.8877c0.5338 0.2481 1.1498 0.2484 1.6839 9e-4l10.548-4.8886c0.2074-0.0964 0.3709-0.2583 0.4704-0.4545 0.0698 0.1376 0.1082 0.292 0.1082 0.4524v0.7984c0 0.0771-0.0443 0.1473-0.1138 0.1805l-10.546 5.0388c-0.818 0.3909-1.7688 0.3909-2.5868 0l-10.546-5.0388c-0.06952-0.0332-0.11377-0.1034-0.11377-0.1805v-0.7984c0-0.1604 0.03835-0.3148 0.10815-0.4524 0.09953 0.1962 0.26299 0.3581 0.4704 0.4545z" fill="url(#x)"/><g filter="url(#ab)"><path d="m11.153 17.356c-0.0185 0.0729-0.028 0.1469-0.028 0.2218 0 1.1348 2.1722 2.0547 4.8516 2.0547s4.8516-0.9199 4.8516-2.0547c0-0.0749-0.0095-0.1489-0.028-0.2218-0.4233-2.2791-2.4219-4.0047-4.8236-4.0047s-4.4003 1.7256-4.8236 4.0047z" fill="#4C2F5A"/><path d="m11.153 17.356c-0.0185 0.0729-0.028 0.1469-0.028 0.2218 0 1.1348 2.1722 2.0547 4.8516 2.0547s4.8516-0.9199 4.8516-2.0547c0-0.0749-0.0095-0.1489-0.028-0.2218-0.4233-2.2791-2.4219-4.0047-4.8236-4.0047s-4.4003 1.7256-4.8236 4.0047z" fill="url(#w)"/><path d="m11.153 17.356c-0.0185 0.0729-0.028 0.1469-0.028 0.2218 0 1.1348 2.1722 2.0547 4.8516 2.0547s4.8516-0.9199 4.8516-2.0547c0-0.0749-0.0095-0.1489-0.028-0.2218-0.4233-2.2791-2.4219-4.0047-4.8236-4.0047s-4.4003 1.7256-4.8236 4.0047z" fill="url(#v)"/><path d="m11.153 17.356c-0.0185 0.0729-0.028 0.1469-0.028 0.2218 0 1.1348 2.1722 2.0547 4.8516 2.0547s4.8516-0.9199 4.8516-2.0547c0-0.0749-0.0095-0.1489-0.028-0.2218-0.4233-2.2791-2.4219-4.0047-4.8236-4.0047s-4.4003 1.7256-4.8236 4.0047z" fill="url(#u)"/><path d="m11.153 17.356c-0.0185 0.0729-0.028 0.1469-0.028 0.2218 0 1.1348 2.1722 2.0547 4.8516 2.0547s4.8516-0.9199 4.8516-2.0547c0-0.0749-0.0095-0.1489-0.028-0.2218-0.4233-2.2791-2.4219-4.0047-4.8236-4.0047s-4.4003 1.7256-4.8236 4.0047z" fill="url(#t)"/></g><path d="m11.153 17.356c-0.0185 0.0729-0.028 0.1469-0.028 0.2218 0 1.1348 2.1722 2.0547 4.8516 2.0547s4.8516-0.9199 4.8516-2.0547c0-0.0749-0.0095-0.1489-0.028-0.2218-0.4233-2.2791-2.4219-4.0047-4.8236-4.0047s-4.4003 1.7256-4.8236 4.0047z" fill="url(#s)"/><path d="m11.153 17.356c-0.0185 0.0729-0.028 0.1469-0.028 0.2218 0 1.1348 2.1722 2.0547 4.8516 2.0547s4.8516-0.9199 4.8516-2.0547c0-0.0749-0.0095-0.1489-0.028-0.2218-0.4233-2.2791-2.4219-4.0047-4.8236-4.0047s-4.4003 1.7256-4.8236 4.0047z" fill="url(#r)"/><g filter="url(#aa)"><path d="m7.9882 17.09c0.77019 0 1.3945 0.4132 1.3945 1.1446 0 0.4336-0.62434 0.6211-1.3945 0.6211s-1.3945-0.168-1.3945-0.6211c0-0.7314 0.62434-1.1446 1.3945-1.1446z" fill="#50416C"/></g><path d="m7.9882 16.977c0.73135 0 1.3242 0.4131 1.3242 1.1445 0 0.4336-0.59287 0.6211-1.3242 0.6211s-1.3242-0.168-1.3242-0.6211c0-0.7314 0.59287-1.1445 1.3242-1.1445z" fill="url(#q)"/><path d="m7.9882 16.977c0.73135 0 1.3242 0.4131 1.3242 1.1445 0 0.4336-0.59287 0.6211-1.3242 0.6211s-1.3242-0.168-1.3242-0.6211c0-0.7314 0.59287-1.1445 1.3242-1.1445z" fill="url(#p)"/><path d="m7.9882 16.977c0.73135 0 1.3242 0.4131 1.3242 1.1445 0 0.4336-0.59287 0.6211-1.3242 0.6211s-1.3242-0.168-1.3242-0.6211c0-0.7314 0.59287-1.1445 1.3242-1.1445z" fill="url(#o)"/><path d="m14.945 9.8594c0-0.54797 0.4442-0.99219 0.9921-0.99219 0.548 0 0.9922 0.44422 0.9922 0.99219v4.1484c0 0.548-0.4442 0.7188-0.9922 0.7188-0.5479 0-0.9921-0.1708-0.9921-0.7188v-4.1484z" fill="url(#n)"/><path d="m14.945 9.8594c0-0.54797 0.4442-0.99219 0.9921-0.99219 0.548 0 0.9922 0.44422 0.9922 0.99219v4.1484c0 0.548-0.4442 0.7188-0.9922 0.7188-0.5479 0-0.9921-0.1708-0.9921-0.7188v-4.1484z" fill="url(#m)"/><path d="m14.945 9.8594c0-0.54797 0.4442-0.99219 0.9921-0.99219 0.548 0 0.9922 0.44422 0.9922 0.99219v4.1484c0 0.548-0.4442 0.7188-0.9922 0.7188-0.5479 0-0.9921-0.1708-0.9921-0.7188v-4.1484z" fill="url(#l)"/><circle cx="15.976" cy="6.3984" r="4.5781" fill="url(#k)"/><circle cx="15.976" cy="6.3984" r="4.5781" fill="url(#j)"/><circle cx="15.976" cy="6.3984" r="4.5781" fill="url(#i)"/><g filter="url(#z)"><path d="m27.535 17.868-10.813 5.0684c-0.1183 0.0498-0.433 0.1464-0.7455 0.1339" stroke="#7067A3" stroke-linecap="round" stroke-width=".2"/></g><defs><filter id="ae" x="16.891" y="18.911" width="10.944" height="5.6001" color-interpolation-filters="sRGB" filterUnits="userSpaceOnUse"><feFlood flood-opacity="0" result="BackgroundImageFix"/><feBlend in="SourceGraphic" in2="BackgroundImageFix" result="shape"/><feGaussianBlur result="effect1_foregroundBlur_18_3570" stdDeviation="0.1"/></filter><filter id="ad" x="10.375" y="16.785" width="11.203" height="8.3055" color-interpolation-filters="sRGB" filterUnits="userSpaceOnUse"><feFlood flood-opacity="0" result="BackgroundImageFix"/><feBlend in="SourceGraphic" in2="BackgroundImageFix" result="shape"/><feGaussianBlur result="effect1_foregroundBlur_18_3570" stdDeviation="0.375"/></filter><filter id="ac" x="6.414" y="17.723" width="3.2188" height="2.6445" color-interpolation-filters="sRGB" filterUnits="userSpaceOnUse"><feFlood flood-opacity="0" result="BackgroundImageFix"/><feBlend in="SourceGraphic" in2="BackgroundImageFix" result="shape"/><feGaussianBlur result="effect1_foregroundBlur_18_3570" stdDeviation="0.125"/></filter><filter id="ab" x="11.125" y="13.252" width="9.7031" height="6.3812" color-interpolation-filters="sRGB" filterUnits="userSpaceOnUse"><feFlood flood-opacity="0" result="BackgroundImageFix"/><feBlend in="SourceGraphic" in2="BackgroundImageFix" result="shape"/><feColorMatrix in="SourceAlpha" result="hardAlpha" values="0 0 0 0 0 0 0 0 0 0 0 0 0 0 0 0 0 0 127 0"/><feOffset dy="-0.1"/><feGaussianBlur stdDeviation="0.2"/><feComposite in2="hardAlpha" k2="-1" k3="1" operator="arithmetic"/><feColorMatrix values="0 0 0 0 0.14902 0 0 0 0 0.0862745 0 0 0 0 0.235294 0 0 0 1 0"/><feBlend in2="shape" result="effect1_innerShadow_18_3570"/></filter><filter id="aa" x="6.4437" y="16.94" width="3.0891" height="2.0656" color-interpolation-filters="sRGB" filterUnits="userSpaceOnUse"><feFlood flood-opacity="0" result="BackgroundImageFix"/><feBlend in="SourceGraphic" in2="BackgroundImageFix" result="shape"/><feGaussianBlur result="effect1_foregroundBlur_18_3570" stdDeviation="0.075"/></filter><filter id="z" x="15.776" y="17.668" width="11.958" height="5.6035" color-interpolation-filters="sRGB" filterUnits="userSpaceOnUse"><feFlood flood-opacity="0" result="BackgroundImageFix"/><feBlend in="SourceGraphic" in2="BackgroundImageFix" result="shape"/><feGaussianBlur result="effect1_foregroundBlur_18_3570" stdDeviation="0.05"/></filter><linearGradient id="y" x1="5.375" x2="26.472" y1="24.227" y2="24.227" gradientUnits="userSpaceOnUse"><stop stop-color="#2F2137" offset="0"/><stop stop-color="#38224A" offset=".44792"/><stop stop-color="#5D3E7D" offset=".56771"/></linearGradient><linearGradient id="a" x1="26.242" x2="3.3046" y1="17.492" y2="17.492" gradientUnits="userSpaceOnUse"><stop stop-color="#615D8D" offset="0"/><stop stop-color="#5E5681" offset="1"/></linearGradient><linearGradient id="h" x1="9.9839" x2="10.148" y1="20.679" y2="20.343" gradientUnits="userSpaceOnUse"><stop stop-color="#4F3A84" offset=".26862"/><stop stop-color="#534177" stop-opacity="0" offset="1"/></linearGradient><linearGradient id="g" x1="21.321" x2="21.091" y1="20.999" y2="20.515" gradientUnits="userSpaceOnUse"><stop stop-color="#6152A2" offset=".33814"/><stop stop-color="#5F5887" stop-opacity="0" offset="1"/></linearGradient><radialGradient id="f" cx="0" cy="0" r="1" gradientTransform="translate(16.365 11.347) rotate(90) scale(5.6553 9.5433)" gradientUnits="userSpaceOnUse"><stop stop-color="#6D6F9E" offset="0"/><stop stop-color="#6D6F9E" stop-opacity="0" offset="1"/></radialGradient><linearGradient id="e" x1="26.523" x2="17.852" y1="19.898" y2="24.211" gradientUnits="userSpaceOnUse"><stop stop-color="#69597D" offset=".89605"/><stop stop-color="#69597D" stop-opacity="0" offset="1"/></linearGradient><linearGradient id="d" x1="15.976" x2="15.976" y1="18.492" y2="24.34" gradientUnits="userSpaceOnUse"><stop stop-color="#4D4277" offset="0"/><stop stop-color="#4D4277" stop-opacity="0" offset="1"/></linearGradient><radialGradient id="c" cx="0" cy="0" r="1" gradientTransform="translate(15.976 18.117) rotate(90) scale(2.375 5.2725)" gradientUnits="userSpaceOnUse"><stop stop-color="#281E45" offset=".32895"/><stop stop-color="#281E45" stop-opacity="0" offset="1"/></radialGradient><linearGradient id="b" x1="8.0234" x2="8.0234" y1="17.508" y2="21.206" gradientUnits="userSpaceOnUse"><stop stop-color="#4D4277" offset="0"/><stop stop-color="#4D4277" stop-opacity="0" offset="1"/></linearGradient><linearGradient id="x" x1="26.336" x2="3.1892" y1="21.119" y2="21.119" gradientUnits="userSpaceOnUse"><stop stop-color="#6052A1" offset=".43068"/><stop stop-color="#4E3A83" offset=".46444"/></linearGradient><radialGradient id="w" cx="0" cy="0" r="1" gradientTransform="translate(16.43 13.352) rotate(94.126) scale(6.2976 12.021)" gradientUnits="userSpaceOnUse"><stop stop-color="#442A5D" stop-opacity="0" offset=".64677"/><stop stop-color="#442A5D" offset="1"/></radialGradient><radialGradient id="v" cx="0" cy="0" r="1" gradientTransform="translate(20.076 15.75) rotate(151.17) scale(4.6796 3.0424)" gradientUnits="userSpaceOnUse"><stop stop-color="#6F5A85" offset="0"/><stop stop-color="#6F5A85" stop-opacity="0" offset="1"/></radialGradient><radialGradient id="u" cx="0" cy="0" r="1" gradientTransform="translate(12.842 13.352) rotate(101.74) scale(5.6319 3.5886)" gradientUnits="userSpaceOnUse"><stop stop-color="#4A3947" offset="0"/><stop stop-color="#4A3947" stop-opacity="0" offset="1"/></radialGradient><radialGradient id="t" cx="0" cy="0" r="1" gradientTransform="translate(15.779 18.633) rotate(-47.572) scale(5.3614 5.4902)" gradientUnits="userSpaceOnUse"><stop stop-color="#766F8B" stop-opacity=".081686" offset=".9419"/><stop stop-color="#766F8B" offset=".99118"/></radialGradient><radialGradient id="s" cx="0" cy="0" r="1" gradientTransform="translate(10.93 17.867) rotate(-44.236) scale(4.9723 4.8674)" gradientUnits="userSpaceOnUse"><stop stop-color="#422E3D" offset="0"/><stop stop-color="#422E3D" stop-opacity="0" offset="1"/></radialGradient><radialGradient id="r" cx="0" cy="0" r="1" gradientTransform="translate(17.023 18.648) rotate(220.93) scale(5.9148 7.011)" gradientUnits="userSpaceOnUse"><stop stop-color="#50464D" stop-opacity="0" offset=".93384"/><stop stop-color="#50464D" offset="1"/></radialGradient><radialGradient id="q" cx="0" cy="0" r="1" gradientTransform="translate(9.0078 18.102) rotate(180) scale(2.1562 2.1875)" gradientUnits="userSpaceOnUse"><stop stop-color="#FF3389" offset="0"/><stop stop-color="#E13B63" offset="1"/></radialGradient><radialGradient id="p" cx="0" cy="0" r="1" gradientTransform="translate(8.8693 18.162) rotate(168.31) scale(1.1308 .55612)" gradientUnits="userSpaceOnUse"><stop stop-color="#FF5EA3" offset="0"/><stop stop-color="#FF5EA3" stop-opacity="0" offset="1"/></radialGradient><radialGradient id="o" cx="0" cy="0" r="1" gradientTransform="translate(8.6171 17.859) rotate(166.19) scale(1.9308 1.9025)" gradientUnits="userSpaceOnUse"><stop stop-color="#C52754" stop-opacity="0" offset=".67726"/><stop stop-color="#C52754" offset="1"/></radialGradient><linearGradient id="n" x1="15.273" x2="17.086" y1="12.961" y2="12.961" gradientUnits="userSpaceOnUse"><stop stop-color="#DDB7F2" offset="0"/><stop stop-color="#F8EBFF" offset="1"/></linearGradient><radialGradient id="m" cx="0" cy="0" r="1" gradientTransform="translate(16.083 10.342) scale(1.719 .94271)" gradientUnits="userSpaceOnUse"><stop stop-color="#BD7CD0" offset="0"/><stop stop-color="#BD7CD0" stop-opacity="0" offset="1"/></radialGradient><radialGradient id="l" cx="0" cy="0" r="1" gradientTransform="translate(15.403 9.9659) rotate(123.06) scale(3.1837 2.0139)" gradientUnits="userSpaceOnUse"><stop stop-color="#B87EBA" offset=".17972"/><stop stop-color="#BD7CD0" stop-opacity="0" offset="1"/></radialGradient><radialGradient id="k" cx="0" cy="0" r="1" gradientTransform="translate(18.805 4.4922) rotate(142.72) scale(5.2626)" gradientUnits="userSpaceOnUse"><stop stop-color="#FF78AD" offset="0"/><stop stop-color="#FB426F" offset="1"/></radialGradient><radialGradient id="j" cx="0" cy="0" r="1" gradientTransform="translate(18.617 6.3984) rotate(180) scale(7.2188)" gradientUnits="userSpaceOnUse"><stop stop-color="#CC515D" stop-opacity="0" offset=".54266"/><stop stop-color="#CC515D" offset="1"/></radialGradient><radialGradient id="i" cx="0" cy="0" r="1" gradientTransform="translate(15.976 3.9297) rotate(90) scale(7.375)" gradientUnits="userSpaceOnUse"><stop stop-color="#B8276B" stop-opacity="0" offset=".8071"/><stop stop-color="#B8276B" offset="1"/></radialGradient></defs></svg>
