<svg fill="none" viewBox="0 0 32 32" xmlns="http://www.w3.org/2000/svg"><g filter="url(#ab)"><path d="m5.8204 2.0171c-2.0987 0-3.8 1.7013-3.8 3.8v12.183h28v-12.183c0-2.0987-1.7013-3.8-3.8-3.8h-20.4z" fill="url(#t)"/></g><g filter="url(#aa)"><rect x="4.5468" y="4.5468" width="22.906" height="22.906" rx="1.5" stroke="url(#i)"/></g><g filter="url(#z)"><path d="m2.0204 12.003v14.197c0 2.0987 1.7013 3.8 3.8 3.8h20.4c2.0974 0 3.7979-1.6992 3.8-3.7961v-14.204c-3.4943 5e-3 -5.2399 1.0926-6.9845 2.1796-1.7467 1.0883-3.4923 2.1759-6.9905 2.1759-3.4975 0-5.2582-1.089-7.0182-2.1775-1.7587-1.0878-3.5168-2.1752-7.0068-2.1752z" fill="url(#h)"/><path d="m2.0204 12.003v14.197c0 2.0987 1.7013 3.8 3.8 3.8h20.4c2.0974 0 3.7979-1.6992 3.8-3.7961v-14.204c-3.4943 5e-3 -5.2399 1.0926-6.9845 2.1796-1.7467 1.0883-3.4923 2.1759-6.9905 2.1759-3.4975 0-5.2582-1.089-7.0182-2.1775-1.7587-1.0878-3.5168-2.1752-7.0068-2.1752z" fill="url(#g)"/><path d="m2.0204 12.003v14.197c0 2.0987 1.7013 3.8 3.8 3.8h20.4c2.0974 0 3.7979-1.6992 3.8-3.7961v-14.204c-3.4943 5e-3 -5.2399 1.0926-6.9845 2.1796-1.7467 1.0883-3.4923 2.1759-6.9905 2.1759-3.4975 0-5.2582-1.089-7.0182-2.1775-1.7587-1.0878-3.5168-2.1752-7.0068-2.1752z" fill="url(#f)"/></g><path d="m14.734 16.3c-0.3634-4e-4 -0.6521-8e-3 -0.7931-0.0252l-10.698 12.718c0.56653 0.5232 1.2927 0.8762 2.0971 0.9777h21.361c0.7853-0.0991 1.4959-0.4378 2.0563-0.9406l-10.672-12.815c-0.6099 0.0906-1.2839 0.1413-2.0397 0.1413-0.4668 0-0.9027-0.0194-1.3118-0.0556z" fill="url(#e)"/><path d="m14.734 16.3c-0.3634-4e-4 -0.6521-8e-3 -0.7931-0.0252l-10.698 12.718c0.56653 0.5232 1.2927 0.8762 2.0971 0.9777h21.361c0.7853-0.0991 1.4959-0.4378 2.0563-0.9406l-10.672-12.815c-0.6099 0.0906-1.2839 0.1413-2.0397 0.1413-0.4668 0-0.9027-0.0194-1.3118-0.0556z" fill="url(#d)"/><g filter="url(#y)"><path d="m25.161 24.926c0 0.2335-0.4713 0.261-0.7263 0.261h-16.854c-0.25493 0-0.62282-0.1002-0.62282-0.3424 0-0.2336 0.04743-0.2082 0.22683-0.3899l1.5121-1.6884c0.1549-0.1424 0.29875-0.1831 0.50898-0.1831h13.779c0.1881 0 0.3688 0.0543 0.4795 0.1899l1.4532 1.7528c0.1699 0.1903 0.243 0.1665 0.243 0.4001z" fill="#271935"/></g><g filter="url(#x)"><path d="m21.083 20.004c0 0.1125-0.2601 0.1257-0.4008 0.1257h-9.3024c-0.1407 0-0.3438-0.0483-0.3438-0.1649 0-0.1125 0.0262-0.1003 0.1252-0.1877l0.8346-0.8131c0.0855-0.0686 0.1649-0.0881 0.281-0.0881h7.6054c0.1038 0 0.2035 0.0261 0.2646 0.0914l0.8021 0.844c0.0938 0.0917 0.1341 0.0802 0.1341 0.1927z" fill="#271935"/></g><g filter="url(#w)"><path d="m18.645 17.008c0 0.0579-0.1339 0.0647-0.2063 0.0647h-4.7887c-0.0724 0-0.177-0.0248-0.177-0.0849 0-0.0579 0.0135-0.0516 0.0645-0.0966l0.4296-0.4186c0.044-0.0353 0.0849-0.0454 0.1446-0.0454h3.9151c0.0535 0 0.1048 0.0135 0.1363 0.0471l0.4129 0.4345c0.0483 0.0472 0.069 0.0413 0.069 0.0992z" fill="#271935"/></g><path d="m25.169 24.699c0 0.2691 0.0317 0.3008-0.2383 0.3008h-17.85c-0.27 0-0.22807-0.1155-0.22807-0.3945 0-0.2691-0.38133-0.24-0.19133-0.4493l1.6015-1.9453c0.16407-0.164 0.31641-0.2109 0.53907-0.2109h14.594c0.1992 0 0.3906 0.0625 0.5078 0.2187l1.5391 2.0196c0.18 0.2192-0.2735 0.1918-0.2735 0.4609z" fill="url(#c)"/><path d="m21.23 19.67c0 0.18-0.23 0.33-0.5 0.33h-9.42c-0.27 0-0.286-0.07-0.286-0.25s-0.1721 0.039-0.1721-0.25l1.0625-1.3828c0.0664-0.0938 0.1875-0.1172 0.2735-0.1172h7.6171c0.1641 0 0.2735 0.043 0.3594 0.1445l0.9805 1.2891c0.18 0.22-0.0938 0.2364 0.0851 0.2364z" fill="url(#b)"/><path d="m13.862 16.07-0.5804 0.6799h5.5234l-0.6046-0.6826c-0.038-0.0429-0.0925-0.0674-0.1497-0.0674h-4.0366c-0.0585 0-0.1141 0.0256-0.1521 0.0701z" fill="url(#a)"/><rect x="13.25" y="16.684" width="5.5823" height=".31641" rx=".1582" fill="url(#s)"/><path d="m29.18 28.584-1.0576-1.2075c-0.1798-0.2079-0.5494-0.3762-0.8191-0.3762h-22.416c-0.27973 0-0.64929 0.1584-0.83911 0.3663l-1.1686 1.2405c0.6969 0.8505 1.7554 1.3932 2.9407 1.3932h20.4c1.196 0 2.2631-0.5526 2.9596-1.4163z" fill="url(#r)"/><path d="m25.52 24.5c0-0.27-0.2318-0.5-0.504-0.5h-17.992c-0.27214 0-0.50397 0.22-0.50397 0.5 0 0.27 0.23183 0.5 0.50397 0.5h17.992c0.2722 0 0.504-0.22 0.504-0.5z" fill="url(#q)"/><path d="m21.23 19.661c0-0.1851-0.1275-0.3393-0.3975-0.3393h-9.6094c-0.27 0-0.4131 0.1542-0.4131 0.3393s0.1331 0.3393 0.4131 0.3393h9.6094c0.28 0 0.3975-0.1542 0.3975-0.3393z" fill="url(#p)"/><g filter="url(#v)"><path d="m25.348 29.828h0.8906l-9.3046-13.688h-0.62l9.034 13.688z" fill="url(#o)"/></g><g filter="url(#u)"><path d="m6.0731 29.828h-1l9.8742-13.688h0.62l-9.4942 13.688z" fill="url(#n)"/></g><path d="m6.5204 30h-1l9.69-14h0.61l-9.3 14z" fill="url(#m)"/><path d="M6.02039 30L15.6704 16H15.0604L5.07306 29.9265C5.3147 29.9747 5.56458 30 5.82037 30H6.02039Z" fill="url(#l)"/><path d="m25.56 30h1l-9.65-14h-0.62l9.27 14z" fill="url(#k)"/><path d="m27.003 29.919-9.9423-13.919h-0.62l9.62 14h0.16c0.2682 0 0.5298-0.0278 0.7823-0.0806z" fill="url(#j)"/><defs><filter id="ab" x="2.0204" y="2.0171" width="28" height="15.983" color-interpolation-filters="sRGB" filterUnits="userSpaceOnUse"><feFlood flood-opacity="0" result="BackgroundImageFix"/><feBlend in="SourceGraphic" in2="BackgroundImageFix" result="shape"/><feColorMatrix in="SourceAlpha" result="hardAlpha" values="0 0 0 0 0 0 0 0 0 0 0 0 0 0 0 0 0 0 127 0"/><feOffset/><feGaussianBlur stdDeviation="1"/><feComposite in2="hardAlpha" k2="-1" k3="1" operator="arithmetic"/><feColorMatrix values="0 0 0 0 0.333333 0 0 0 0 0.670588 0 0 0 0 0.890196 0 0 0 1 0"/><feBlend in2="shape" result="effect1_innerShadow_18_11793"/></filter><filter id="aa" x="2.0468" y="2.0468" width="27.907" height="27.906" color-interpolation-filters="sRGB" filterUnits="userSpaceOnUse"><feFlood flood-opacity="0" result="BackgroundImageFix"/><feBlend in="SourceGraphic" in2="BackgroundImageFix" result="shape"/><feGaussianBlur result="effect1_foregroundBlur_18_11793" stdDeviation="1"/></filter><filter id="z" x="2.0204" y="12" width="28" height="18.75" color-interpolation-filters="sRGB" filterUnits="userSpaceOnUse"><feFlood flood-opacity="0" result="BackgroundImageFix"/><feBlend in="SourceGraphic" in2="BackgroundImageFix" result="shape"/><feColorMatrix in="SourceAlpha" result="hardAlpha" values="0 0 0 0 0 0 0 0 0 0 0 0 0 0 0 0 0 0 127 0"/><feOffset dy="0.75"/><feGaussianBlur stdDeviation="0.5"/><feComposite in2="hardAlpha" k2="-1" k3="1" operator="arithmetic"/><feColorMatrix values="0 0 0 0 0.262745 0 0 0 0 0.941176 0 0 0 0 0.498039 0 0 0 1 0"/><feBlend in2="shape" result="effect1_innerShadow_18_11793"/></filter><filter id="y" x="6.4579" y="22.084" width="19.203" height="3.6038" color-interpolation-filters="sRGB" filterUnits="userSpaceOnUse"><feFlood flood-opacity="0" result="BackgroundImageFix"/><feBlend in="SourceGraphic" in2="BackgroundImageFix" result="shape"/><feGaussianBlur result="effect1_foregroundBlur_18_11793" stdDeviation="0.25"/></filter><filter id="x" x="10.786" y="18.626" width="10.547" height="1.7539" color-interpolation-filters="sRGB" filterUnits="userSpaceOnUse"><feFlood flood-opacity="0" result="BackgroundImageFix"/><feBlend in="SourceGraphic" in2="BackgroundImageFix" result="shape"/><feGaussianBlur result="effect1_foregroundBlur_18_11793" stdDeviation="0.125"/></filter><filter id="w" x="13.223" y="16.177" width="5.6719" height="1.1455" color-interpolation-filters="sRGB" filterUnits="userSpaceOnUse"><feFlood flood-opacity="0" result="BackgroundImageFix"/><feBlend in="SourceGraphic" in2="BackgroundImageFix" result="shape"/><feGaussianBlur result="effect1_foregroundBlur_18_11793" stdDeviation="0.125"/></filter><filter id="v" x="16.064" y="15.891" width="10.425" height="14.188" color-interpolation-filters="sRGB" filterUnits="userSpaceOnUse"><feFlood flood-opacity="0" result="BackgroundImageFix"/><feBlend in="SourceGraphic" in2="BackgroundImageFix" result="shape"/><feGaussianBlur result="effect1_foregroundBlur_18_11793" stdDeviation="0.125"/></filter><filter id="u" x="4.8231" y="15.891" width="10.994" height="14.188" color-interpolation-filters="sRGB" filterUnits="userSpaceOnUse"><feFlood flood-opacity="0" result="BackgroundImageFix"/><feBlend in="SourceGraphic" in2="BackgroundImageFix" result="shape"/><feGaussianBlur result="effect1_foregroundBlur_18_11793" stdDeviation="0.125"/></filter><linearGradient id="t" x1="16.02" x2="16.02" y1="2.0171" y2="17.281" gradientUnits="userSpaceOnUse"><stop stop-color="#35C9FF" offset="0"/><stop stop-color="#2DF9FF" offset="1"/></linearGradient><linearGradient id="i" x1="5.221" x2="27.953" y1="17" y2="1.3444" gradientUnits="userSpaceOnUse"><stop stop-color="#4CECFF" offset="0"/><stop stop-color="#4CECFF" stop-opacity="0" offset="1"/></linearGradient><linearGradient id="h" x1="16.458" x2="16.453" y1="27.688" y2="10" gradientUnits="userSpaceOnUse"><stop stop-color="#286A54" offset="0"/><stop stop-color="#3BDE75" offset="1"/></linearGradient><radialGradient id="g" cx="0" cy="0" r="1" gradientTransform="translate(30.958 10.25) rotate(122.5) scale(11.634 18.097)" gradientUnits="userSpaceOnUse"><stop stop-color="#39ED7A" offset="0"/><stop stop-color="#39ED7A" stop-opacity="0" offset="1"/></radialGradient><radialGradient id="f" cx="0" cy="0" r="1" gradientTransform="translate(2.4579 6.5625) rotate(51.756) scale(16.155 25.129)" gradientUnits="userSpaceOnUse"><stop stop-color="#39ED7A" offset="0"/><stop stop-color="#39ED7A" stop-opacity="0" offset="1"/></radialGradient><linearGradient id="e" x1="16" x2="16" y1="16.214" y2="25.094" gradientUnits="userSpaceOnUse"><stop stop-color="#352A41" offset="0"/><stop stop-color="#392C46" offset="1"/></linearGradient><linearGradient id="d" x1="24.739" x2="19.989" y1="24.125" y2="26.281" gradientUnits="userSpaceOnUse"><stop stop-color="#4F435B" offset="0"/><stop stop-color="#4F435B" stop-opacity="0" offset="1"/></linearGradient><linearGradient id="c" x1="25.428" x2="6.5777" y1="23.505" y2="23.505" gradientUnits="userSpaceOnUse"><stop stop-color="#A2694F" offset="0"/><stop stop-color="#6A4532" offset="1"/></linearGradient><linearGradient id="b" x1="21.231" x2="10.814" y1="19.003" y2="19.003" gradientUnits="userSpaceOnUse"><stop stop-color="#A2694F" offset="0"/><stop stop-color="#6A4532" offset="1"/></linearGradient><linearGradient id="a" x1="16.044" x2="18.806" y1="16.375" y2="16.375" gradientUnits="userSpaceOnUse"><stop stop-color="#795650" offset="0"/><stop stop-color="#996960" offset="1"/></linearGradient><linearGradient id="s" x1="13.76" x2="16.809" y1="16.916" y2="16.916" gradientUnits="userSpaceOnUse"><stop stop-color="#98665E" offset="0"/><stop stop-color="#72504D" offset="1"/></linearGradient><linearGradient id="r" x1="23.958" x2="1.7079" y1="27.5" y2="30" gradientUnits="userSpaceOnUse"><stop stop-color="#7C5652" offset="0"/><stop stop-color="#A16C62" offset="1"/></linearGradient><linearGradient id="q" x1="6.5177" x2="23.02" y1="24.502" y2="24.502" gradientUnits="userSpaceOnUse"><stop stop-color="#A06861" offset="0"/><stop stop-color="#76514F" offset="1"/></linearGradient><linearGradient id="p" x1="10.814" x2="21.231" y1="19.662" y2="19.662" gradientUnits="userSpaceOnUse"><stop stop-color="#99665F" offset="0"/><stop stop-color="#74504E" offset="1"/></linearGradient><linearGradient id="o" x1="17.114" x2="25.239" y1="16.625" y2="29.375" gradientUnits="userSpaceOnUse"><stop stop-color="#2E203B" offset="0"/><stop stop-color="#2E203B" offset=".71354"/><stop stop-color="#523135" offset="1"/></linearGradient><linearGradient id="n" x1="14.239" x2="5.3641" y1="17" y2="28.562" gradientUnits="userSpaceOnUse"><stop stop-color="#2E203B" offset=".79701"/><stop stop-color="#6A4540" offset="1"/></linearGradient><linearGradient id="m" x1="6.36" x2="15.804" y1="30" y2="14.717" gradientUnits="userSpaceOnUse"><stop stop-color="#93839E" offset="0"/><stop stop-color="#887D8F" offset="1"/></linearGradient><linearGradient id="l" x1="15.67" x2="5.6151" y1="16" y2="30.011" gradientUnits="userSpaceOnUse"><stop stop-color="#BEB5C9" offset="0"/><stop stop-color="#998FA4" offset="1"/></linearGradient><linearGradient id="k" x1="25.458" x2="16.853" y1="29.312" y2="15.987" gradientUnits="userSpaceOnUse"><stop stop-color="#62516D" offset="0"/><stop stop-color="#887D8F" offset="1"/><stop stop-color="#6C567A" offset="1"/></linearGradient><linearGradient id="j" x1="16.643" x2="26.275" y1="16" y2="30" gradientUnits="userSpaceOnUse"><stop stop-color="#BBB1C5" offset="0"/><stop stop-color="#978CA2" offset="1"/></linearGradient></defs></svg>
