<svg fill="none" viewBox="0 0 32 32" xmlns="http://www.w3.org/2000/svg"><g filter="url(#g)"><path d="m18.605 3.7445 2.2031 4.6198c0.3411 0.686 0.9633 1.1684 1.6857 1.2755l4.9274 0.69672c2.5387 0.3752 3.4963 3.101 1.5275 5.0854l-3.4531 3.5625c-0.5619 0.5573-0.8228 1.3827-0.6824 2.1866l0.7761 5.0634c0.4415 2.6261-1.7703 4.4892-4.008 3.2887l-4.5355-2.4117c-0.6321-0.3323-1.3746-0.3323-2.0068 0l-4.5355 2.4117c-2.2376 1.1897-4.586-0.6169-3.9298-3.3512l0.76563-4.9531c0.14048-0.804-0.12041-1.6293-0.68233-2.1866l-3.5208-3.6884c-1.9843-1.961-1.0112-4.6321 1.5274-5.0073l4.7462-0.69672c0.72251-0.10718 1.5515-0.57881 1.8827-1.2755l2.2476-4.6198c1.1439-2.326 3.931-2.326 5.0649 0z" fill="url(#f)"/><path d="m18.605 3.7445 2.2031 4.6198c0.3411 0.686 0.9633 1.1684 1.6857 1.2755l4.9274 0.69672c2.5387 0.3752 3.4963 3.101 1.5275 5.0854l-3.4531 3.5625c-0.5619 0.5573-0.8228 1.3827-0.6824 2.1866l0.7761 5.0634c0.4415 2.6261-1.7703 4.4892-4.008 3.2887l-4.5355-2.4117c-0.6321-0.3323-1.3746-0.3323-2.0068 0l-4.5355 2.4117c-2.2376 1.1897-4.586-0.6169-3.9298-3.3512l0.76563-4.9531c0.14048-0.804-0.12041-1.6293-0.68233-2.1866l-3.5208-3.6884c-1.9843-1.961-1.0112-4.6321 1.5274-5.0073l4.7462-0.69672c0.72251-0.10718 1.5515-0.57881 1.8827-1.2755l2.2476-4.6198c1.1439-2.326 3.931-2.326 5.0649 0z" fill="url(#e)"/></g><path d="m18.605 3.7445 2.2031 4.6198c0.3411 0.686 0.9633 1.1684 1.6857 1.2755l4.9274 0.69672c2.5387 0.3752 3.4963 3.101 1.5275 5.0854l-3.4531 3.5625c-0.5619 0.5573-0.8228 1.3827-0.6824 2.1866l0.7761 5.0634c0.4415 2.6261-1.7703 4.4892-4.008 3.2887l-4.5355-2.4117c-0.6321-0.3323-1.3746-0.3323-2.0068 0l-4.5355 2.4117c-2.2376 1.1897-4.586-0.6169-3.9298-3.3512l0.76563-4.9531c0.14048-0.804-0.12041-1.6293-0.68233-2.1866l-3.5208-3.6884c-1.9843-1.961-1.0112-4.6321 1.5274-5.0073l4.7462-0.69672c0.72251-0.10718 1.5515-0.57881 1.8827-1.2755l2.2476-4.6198c1.1439-2.326 3.931-2.326 5.0649 0z" fill="url(#d)"/><path d="m18.605 3.7445 2.2031 4.6198c0.3411 0.686 0.9633 1.1684 1.6857 1.2755l4.9274 0.69672c2.5387 0.3752 3.4963 3.101 1.5275 5.0854l-3.4531 3.5625c-0.5619 0.5573-0.8228 1.3827-0.6824 2.1866l0.7761 5.0634c0.4415 2.6261-1.7703 4.4892-4.008 3.2887l-4.5355-2.4117c-0.6321-0.3323-1.3746-0.3323-2.0068 0l-4.5355 2.4117c-2.2376 1.1897-4.586-0.6169-3.9298-3.3512l0.76563-4.9531c0.14048-0.804-0.12041-1.6293-0.68233-2.1866l-3.5208-3.6884c-1.9843-1.961-1.0112-4.6321 1.5274-5.0073l4.7462-0.69672c0.72251-0.10718 1.5515-0.57881 1.8827-1.2755l2.2476-4.6198c1.1439-2.326 3.931-2.326 5.0649 0z" fill="url(#c)"/><path d="m18.605 3.7445 2.2031 4.6198c0.3411 0.686 0.9633 1.1684 1.6857 1.2755l4.9274 0.69672c2.5387 0.3752 3.4963 3.101 1.5275 5.0854l-3.4531 3.5625c-0.5619 0.5573-0.8228 1.3827-0.6824 2.1866l0.7761 5.0634c0.4415 2.6261-1.7703 4.4892-4.008 3.2887l-4.5355-2.4117c-0.6321-0.3323-1.3746-0.3323-2.0068 0l-4.5355 2.4117c-2.2376 1.1897-4.586-0.6169-3.9298-3.3512l0.76563-4.9531c0.14048-0.804-0.12041-1.6293-0.68233-2.1866l-3.5208-3.6884c-1.9843-1.961-1.0112-4.6321 1.5274-5.0073l4.7462-0.69672c0.72251-0.10718 1.5515-0.57881 1.8827-1.2755l2.2476-4.6198c1.1439-2.326 3.931-2.326 5.0649 0z" fill="url(#b)"/><path d="m18.605 3.7445 2.2031 4.6198c0.3411 0.686 0.9633 1.1684 1.6857 1.2755l4.9274 0.69672c2.5387 0.3752 3.4963 3.101 1.5275 5.0854l-3.4531 3.5625c-0.5619 0.5573-0.8228 1.3827-0.6824 2.1866l0.7761 5.0634c0.4415 2.6261-1.7703 4.4892-4.008 3.2887l-4.5355-2.4117c-0.6321-0.3323-1.3746-0.3323-2.0068 0l-4.5355 2.4117c-2.2376 1.1897-4.586-0.6169-3.9298-3.3512l0.76563-4.9531c0.14048-0.804-0.12041-1.6293-0.68233-2.1866l-3.5208-3.6884c-1.9843-1.961-1.0112-4.6321 1.5274-5.0073l4.7462-0.69672c0.72251-0.10718 1.5515-0.57881 1.8827-1.2755l2.2476-4.6198c1.1439-2.326 3.931-2.326 5.0649 0z" fill="url(#a)"/><defs><filter id="g" x=".82721" y="1.5" width="30.673" height="29.646" color-interpolation-filters="sRGB" filterUnits="userSpaceOnUse"><feFlood flood-opacity="0" result="BackgroundImageFix"/><feBlend in="SourceGraphic" in2="BackgroundImageFix" result="shape"/><feColorMatrix in="SourceAlpha" result="hardAlpha" values="0 0 0 0 0 0 0 0 0 0 0 0 0 0 0 0 0 0 127 0"/><feOffset dy="-0.5"/><feGaussianBlur stdDeviation="1.5"/><feComposite in2="hardAlpha" k2="-1" k3="1" operator="arithmetic"/><feColorMatrix values="0 0 0 0 0.772549 0 0 0 0 0.494118 0 0 0 0 0.282353 0 0 0 1 0"/><feBlend in2="shape" result="effect1_innerShadow_18_14837"/><feColorMatrix in="SourceAlpha" result="hardAlpha" values="0 0 0 0 0 0 0 0 0 0 0 0 0 0 0 0 0 0 127 0"/><feOffset dx="-1.25" dy="1.25"/><feGaussianBlur stdDeviation="0.75"/><feComposite in2="hardAlpha" k2="-1" k3="1" operator="arithmetic"/><feColorMatrix values="0 0 0 0 1 0 0 0 0 0.952941 0 0 0 0 0.286275 0 0 0 1 0"/><feBlend in2="effect1_innerShadow_18_14837" result="effect2_innerShadow_18_14837"/><feColorMatrix in="SourceAlpha" result="hardAlpha" values="0 0 0 0 0 0 0 0 0 0 0 0 0 0 0 0 0 0 127 0"/><feOffset dx="1.5" dy="-0.5"/><feGaussianBlur stdDeviation="0.75"/><feComposite in2="hardAlpha" k2="-1" k3="1" operator="arithmetic"/><feColorMatrix values="0 0 0 0 0.698039 0 0 0 0 0.537255 0 0 0 0 0.192157 0 0 0 1 0"/><feBlend in2="effect2_innerShadow_18_14837" result="effect3_innerShadow_18_14837"/></filter><radialGradient id="f" cx="0" cy="0" r="1" gradientTransform="translate(24.542 8.9688) rotate(132.94) scale(19.98 19.773)" gradientUnits="userSpaceOnUse"><stop stop-color="#FAC632" offset="0"/><stop stop-color="#F7C632" offset="1"/></radialGradient><radialGradient id="e" cx="0" cy="0" r="1" gradientTransform="translate(16.039 15.948) rotate(90) scale(13.948 13.961)" gradientUnits="userSpaceOnUse"><stop stop-color="#DDBA38" offset="0"/><stop stop-color="#DDBA38" stop-opacity="0" offset="1"/></radialGradient><radialGradient id="d" cx="0" cy="0" r="1" gradientTransform="translate(7.06 10.082) rotate(74.055) scale(2.2652 7.5594)" gradientUnits="userSpaceOnUse"><stop stop-color="#DDBA38" offset="0"/><stop stop-color="#DDBA38" stop-opacity="0" offset="1"/></radialGradient><radialGradient id="c" cx="0" cy="0" r="1" gradientTransform="translate(2.0772 11.52) rotate(16.083) scale(3.931 3.9349)" gradientUnits="userSpaceOnUse"><stop stop-color="#B5953A" offset="0"/><stop stop-color="#B5953A" stop-opacity="0" offset="1"/></radialGradient><radialGradient id="b" cx="0" cy="0" r="1" gradientTransform="translate(8.888 30.811) rotate(-58.496) scale(2.8282 2.831)" gradientUnits="userSpaceOnUse"><stop stop-color="#C47E42" offset="0"/><stop stop-color="#C47E42" stop-opacity="0" offset="1"/></radialGradient><radialGradient id="a" cx="0" cy="0" r="1" gradientTransform="translate(31.057 11.676) rotate(150.75) scale(2.2288 2.9306)" gradientUnits="userSpaceOnUse"><stop stop-color="#FFF246" offset="0"/><stop stop-color="#FFF246" stop-opacity="0" offset="1"/></radialGradient></defs></svg>
