<?xml version="1.0" encoding="UTF-8"?>
<!-- Generated by Pixelmator Pro 3.6.17 -->
<svg width="1481" height="183" viewBox="0 0 1481 183" xmlns="http://www.w3.org/2000/svg">
    <path id="Threema-Work" fill="#ffffff" stroke="none" d="M 883.942993 45.75 C 920.325012 45.75 939.065979 64.127007 939.437012 90.693001 L 939.442993 91.5 L 939.442993 177.75 L 910.192993 177.75 L 910.192993 164.5 C 902.442993 175.25 888.692993 182 868.942993 182 C 844.692993 182 823.192993 171.5 823.192993 145.5 C 823.192993 116.300003 848.919983 105.957001 877.573975 100.659004 L 908.442993 95 L 908.442993 92 C 908.442993 79.5 899.192993 72.5 884.442993 72.5 C 868.149963 72.5 859.224976 79.435005 847.377991 90.681007 L 844.692993 93.25 L 824.192993 74.5 C 840.192993 55.5 858.692993 45.75 883.942993 45.75 Z M 425.470978 45.75 C 464.470978 45.75 485.220978 70.25 485.220978 109.5 L 485.212982 110.850006 C 485.17099 114.443001 484.979004 119.007996 484.773987 121.623993 L 484.720978 122.25 L 392.970978 122.25 C 395.720978 140.75 406.720978 154.25 428.970978 154.25 C 443.781982 154.25 451.770996 149.376007 466.404999 137.221008 L 466.970978 136.75 L 485.220978 156.75 C 466.470978 175.75 448.970978 181.75 428.220978 181.75 C 386.970978 181.75 361.220978 155.25 361.220978 114.5 C 361.220978 75 385.220978 45.75 425.470978 45.75 Z M 557.128967 45.75 C 596.128967 45.75 616.878967 70.25 616.878967 109.5 L 616.878967 110.354004 L 616.859009 111.843002 C 616.797974 115.256004 616.620972 119.257996 616.43396 121.636002 L 616.382996 122.25 L 524.632996 122.25 C 527.382996 140.75 538.382996 154.25 560.632996 154.25 C 575.442993 154.25 583.432983 149.376007 598.065979 137.221008 L 598.632996 136.75 L 616.882996 156.75 C 598.132996 175.75 580.632996 181.75 559.882996 181.75 C 518.632996 181.75 492.882996 155.25 492.882996 114.5 C 492.878998 75 516.878967 45.75 557.128967 45.75 Z M 1239.910034 55.75 C 1273.410034 55.75 1296.160034 81.5 1296.160034 118.499992 C 1296.160034 155.25 1273.410034 180.75 1239.910034 180.75 C 1206.660034 180.75 1183.910034 155.25 1183.910034 118.499992 C 1183.915039 81.5 1206.660034 55.75 1239.915039 55.75 Z M 1395.72998 0.25 L 1395.72998 125.25 L 1460.47998 58.75 L 1475.47998 58.75 L 1429.47998 105.75 L 1480.22998 177.75 L 1466.22998 177.75 L 1421.22998 113.25 L 1395.72998 139.25 L 1395.72998 177.75 L 1383.72998 177.75 L 1383.72998 0.25 Z M 769.536011 45.75 C 796.760986 45.75 811.735962 62.167 812.036011 87.723007 L 812.036011 88.5 L 812.036011 177.75 L 779.536011 177.75 L 779.536011 98.25 C 779.536011 84 774.036011 73.75 759.286011 73.75 C 744.685974 73.75 736.940979 84.531006 736.786011 98.816002 L 736.786011 99.25 L 736.786011 177.75 L 704.286011 177.75 L 704.286011 98.25 C 704.286011 84 699.036011 73.75 684.036011 73.75 C 669.435974 73.75 661.690979 84.776001 661.536011 98.823006 L 661.536011 99.25 L 661.536011 177.75 L 629.036011 177.75 L 629.036011 50 L 659.286011 50 L 659.286011 64.25 C 666.036011 53.25 677.786011 45.75 695.786011 45.75 C 712.536011 45.75 724.536011 52.75 731.286011 64.5 C 738.786011 53.75 750.786011 45.75 769.536011 45.75 Z M 142 0.25 L 142 30.25 L 88.5 30.25 L 88.5 177.75 L 53.5 177.75 L 53.5 30.25 L -0 30.25 L -0 0.25 Z M 184.907013 0.25 L 184.907013 61.5 C 192.907013 51.75 205.157013 45.75 221.157013 45.75 C 250.610001 45.75 266.585999 63.882004 266.901978 89.472 L 266.901978 90.25 L 266.901978 177.75 L 234.402008 177.75 L 234.402008 100 C 234.402008 83.25 226.152008 73.75 210.652008 73.75 C 195.802002 73.75 185.118011 84.531006 184.904999 100.272003 L 184.904999 100.75 L 184.904999 177.75 L 152.404999 177.75 L 152.404999 0.25 Z M 344.063995 48.25 C 350.813995 48.25 356.634003 49.645004 363.541992 51.762009 L 364.313995 52 L 358.563995 80.5 C 353.272736 78.9925 347.81369 78.152649 342.313995 78 C 325.237 78 314.529999 91.476006 314.313995 114.063004 L 314.313995 114.75 L 314.313995 177.75 L 281.815002 177.75 L 281.815002 50 L 312.065002 50 L 312.065002 68.75 C 318.063995 56.5 328.315002 48.25 344.063995 48.25 Z M 991.099976 141.5 L 991.099976 177.75 L 955.599976 177.75 L 955.599976 141.5 Z M 995.25 0.25 L 1017.5 93.75 C 1023.5 118.999992 1029.25 143.5 1034.75 168.75 C 1039.161987 150.75 1043.822998 133.497009 1048.64502 115.937004 L 1054.75 93.75 L 1080.5 0.25 L 1094.75 0.25 L 1120.25 93.75 C 1127.25 118.749992 1133.5 142.5 1139.75 167.75 C 1143.833008 148.111008 1148.218994 129.380005 1152.790039 110.262001 L 1156.75 93.75 L 1179 0.25 L 1191.75 0.25 L 1149 177.75 L 1131.25 177.75 L 1105.5 84.75 L 1103.426025 77.099007 C 1097.920044 56.735001 1092.610962 36.611008 1087.5 15.498993 C 1082.088013 37.852005 1076.454956 59.541 1070.599976 80.982002 L 1069.5 84.999001 L 1043.75 177.749008 L 1024.75 177.749008 L 982.25 0.25 Z M 1352.569946 57.75 C 1358.903076 57.775131 1365.182983 58.907516 1371.125977 61.096001 L 1371.569946 61.25 L 1368.819946 71 C 1363.607544 69.104622 1358.115601 68.090744 1352.569946 68 C 1337.469971 68 1323.599976 81.966003 1323.323975 108.686005 L 1323.323975 109.5 L 1323.323975 177.75 L 1311.323975 177.75 L 1311.323975 58.75 L 1322.573975 58.75 L 1322.573975 79 C 1327.819946 66 1339.569946 57.75 1352.569946 57.75 Z M 1239.910034 65.75 C 1213.160034 65.75 1196.410034 87.75 1196.410034 118.499992 C 1196.410034 149 1213.160034 170.75 1239.910034 170.75 C 1266.910034 170.75 1283.660034 149 1283.660034 118.499992 C 1283.660034 87.75 1266.915039 65.75 1239.915039 65.75 Z M 908.442993 118.249992 L 885.796021 122.990997 L 884.687012 123.227997 C 866.703003 127.117996 854.942993 131.727997 854.942993 143.25 C 854.942993 151.25 862.192993 156 874.442993 156 C 890.778015 156 908.093018 148.158997 908.442993 126.412994 L 908.442993 125.75 Z M 424.470978 71.25 C 407.393982 71.25 397.421997 82.276001 393.828003 98.507004 L 393.720978 99 L 453.470978 99 C 452.220978 82 442.220978 71.25 424.470978 71.25 Z M 556.128967 71.25 C 539.050964 71.25 529.078979 82.276001 525.485962 98.507004 L 525.378967 99 L 585.128967 99 C 583.878967 82 573.878967 71.25 556.128967 71.25 Z"/>
</svg>
