<svg width="407" height="34" viewBox="0 0 407 34" fill="none" xmlns="http://www.w3.org/2000/svg">
<g clip-path="url(#clip0_115_149)">
<path d="M237.25 30.5C238.217 30.5 239 29.7165 239 28.75C239 27.7835 238.217 27 237.25 27C236.284 27 235.5 27.7835 235.5 28.75C235.5 29.7165 236.284 30.5 237.25 30.5Z" fill="white"/>
<path d="M243.213 30.5C244.18 30.5 244.963 29.7165 244.963 28.75C244.963 27.7835 244.18 27 243.213 27C242.247 27 241.463 27.7835 241.463 28.75C241.463 29.7165 242.247 30.5 243.213 30.5Z" fill="white"/>
<path d="M249.17 30.5C250.137 30.5 250.92 29.7165 250.92 28.75C250.92 27.7835 250.137 27 249.17 27C248.204 27 247.42 27.7835 247.42 28.75C247.42 29.7165 248.204 30.5 249.17 30.5Z" fill="white"/>
<path d="M32.7586 8.39546H24V3.21436H47.8588V8.39546H39.1002V30.6877H32.7647V8.39546H32.7586Z" fill="white"/>
<path d="M76.3683 3.21436V30.6815H70.0328V19.4191H57.5938V30.6815H51.2583V3.21436H57.5938V14.0481H70.0328V3.21436H76.3683Z" fill="white"/>
<path d="M99.69 30.6877L94.4105 23.0324H88.5816V30.6877H82.2461V3.21436H94.0992C96.5223 3.21436 98.628 3.61855 100.416 4.43308C102.205 5.24148 103.578 6.39283 104.542 7.88715C105.507 9.38146 105.989 11.1452 105.989 13.1846C105.989 15.224 105.501 16.9878 104.524 18.4637C103.547 19.9396 102.156 21.0726 100.361 21.8565L106.502 30.6877H99.6961H99.69ZM98.0909 9.63255C97.1021 8.80578 95.6556 8.39546 93.7513 8.39546H88.5877V17.9676H93.7513C95.6556 17.9676 97.1021 17.5512 98.0909 16.7122C99.0797 15.8731 99.5802 14.6973 99.5802 13.1785C99.5802 11.6597 99.0858 10.4532 98.0909 9.62643V9.63255Z" fill="white"/>
<path d="M132.191 25.5862V30.6877H110.994V3.21436H131.685V8.31584H117.293V14.2808H130.006V19.2231H117.293V25.5801H132.191V25.5862Z" fill="white"/>
<path d="M158.437 25.5862V30.6877H137.239V3.21436H157.93V8.31584H143.538V14.2808H156.252V19.2231H143.538V25.5801H158.437V25.5862Z" fill="white"/>
<path d="M188.393 30.6877L188.357 14.2074L180.3 27.7848H177.443L169.423 14.5626V30.6938H163.479V3.21436H168.721L178.969 20.2826L189.058 3.21436H194.259L194.338 30.6815H188.393V30.6877Z" fill="white"/>
<path d="M218.862 24.8023H206.148L203.725 30.6877H197.231L209.432 3.21436H215.688L227.932 30.6815H221.285L218.862 24.7962V24.8023ZM216.866 19.9764L212.526 9.46107L208.187 19.9764H216.866Z" fill="white"/>
<path d="M243.003 3C249.067 3 254 7.93423 254 14C254 20.0658 249.067 25 243.003 25C240.765 25 238.688 24.3317 236.951 23.1816L232.724 24.5361L234.096 20.4492C232.779 18.6375 232 16.4053 232 14C232 7.93423 236.933 3 242.997 3H243.003ZM243.205 8C241.484 8.00015 240.08 9.4088 240.08 11.1357V12.5996H239.982C239.439 12.5997 239 13.0401 239 13.585V17.542C239 18.0868 239.439 18.5272 239.982 18.5273H246.422C246.965 18.5273 247.404 18.0868 247.404 17.542V13.585C247.404 13.0401 246.965 12.5996 246.422 12.5996H246.33V11.1357C246.33 9.40871 244.926 8 243.205 8ZM243.205 9.28613C244.218 9.28613 245.049 10.1191 245.049 11.1357V12.5996H241.362V11.1357C241.362 10.1131 242.192 9.28628 243.205 9.28613Z" fill="white"/>
</g>
<path d="M297.409 3.37231L288.223 30.6216H285.185L277.201 7.38224L269.182 30.6216H266.186L257 3.37231H259.959L267.821 26.8061L275.962 3.37231H278.647L286.667 26.9276L294.645 3.37231H297.409Z" fill="white"/>
<path d="M305.836 29.048C303.643 27.8389 301.929 26.1864 300.696 24.0842C299.463 21.982 298.849 19.6186 298.849 17C298.849 14.3814 299.463 12.018 300.696 9.91579C301.929 7.81362 303.643 6.16104 305.836 4.95199C308.029 3.74294 310.472 3.14145 313.175 3.14145C315.879 3.14145 318.309 3.73686 320.472 4.93376C322.641 6.13066 324.349 7.78324 325.594 9.89756C326.84 12.0119 327.465 14.3814 327.465 17C327.465 19.6186 326.84 21.9881 325.594 24.1024C324.349 26.2167 322.641 27.8754 320.472 29.0662C318.303 30.2631 315.873 30.8585 313.175 30.8585C310.478 30.8585 308.029 30.257 305.836 29.048ZM319.02 26.8304C320.758 25.8583 322.119 24.5095 323.109 22.784C324.093 21.0585 324.592 19.1325 324.592 17C324.592 14.8674 324.099 12.9475 323.109 11.216C322.125 9.49049 320.758 8.1417 319.02 7.1696C317.283 6.1975 315.332 5.71145 313.182 5.71145C311.031 5.71145 309.074 6.1975 307.325 7.1696C305.575 8.1417 304.196 9.49049 303.199 11.216C302.203 12.9415 301.699 14.8674 301.699 17C301.699 19.1325 302.197 21.0585 303.199 22.784C304.196 24.5095 305.575 25.8583 307.325 26.8304C309.074 27.8025 311.031 28.2885 313.182 28.2885C315.332 28.2885 317.283 27.8025 319.02 26.8304Z" fill="white"/>
<path d="M351.366 30.6276L345.139 21.8666C344.44 21.9456 343.711 21.982 342.958 21.982H335.637V30.6276H332.757V3.37231H342.958C346.433 3.37231 349.161 4.20468 351.136 5.86333C353.11 7.52198 354.094 9.80642 354.094 12.7167C354.094 14.8431 353.554 16.6415 352.478 18.1057C351.403 19.57 349.866 20.6332 347.867 21.2772L354.526 30.6216H351.373L351.366 30.6276ZM349.07 17.7412C350.498 16.5504 351.209 14.8735 351.209 12.7167C351.209 10.5598 350.492 8.81609 349.07 7.63741C347.642 6.45874 345.576 5.86333 342.879 5.86333H335.637V19.5274H342.879C345.576 19.5274 347.642 18.932 349.07 17.7351V17.7412Z" fill="white"/>
<path d="M368.184 17.8202L362.619 23.4645V30.6276H359.739V3.37231H362.619V19.8373L378.622 3.37231H381.933L370.134 15.7119L382.747 30.6216H379.321L368.184 17.8141V17.8202Z" fill="white"/>
<defs>
<clipPath id="clip0_115_149">
<rect width="230" height="28" fill="white" transform="translate(24 3)"/>
</clipPath>
</defs>
</svg>
