<svg fill="none" viewBox="0 0 32 32" xmlns="http://www.w3.org/2000/svg"><g filter="url(#s)"><path d="m29.967 17.967c0 1.1046-0.9045 1.9791-1.9872 2.1974-3.9286 0.7921-7.0233 3.8868-7.8154 7.8154-0.2183 1.0827-1.0928 1.9872-2.1974 1.9872h-14c-1.1046 0-2.0074-0.8967-1.9286-1.9984 0.47911-6.6918 3.3518-13.025 8.1286-17.802 4.7767-4.7768 11.11-7.6495 17.802-8.1286 1.1017-0.07888 1.9984 0.82399 1.9984 1.9286v14z" fill="url(#q)"/></g><path d="m29.967 17.967c0 1.1046-0.9045 1.9791-1.9873 2.1974-3.9285 0.7921-7.0231 3.8868-7.8153 7.8153-0.2183 1.0828-1.0928 1.9873-2.1974 1.9873h-13c0-6.63 2.64-12.99 7.32-17.68 4.69-4.69 11.05-7.32 17.68-7.32v13z" fill="url(#i)"/><path d="m29.967 17.967c0 1.1046-0.9045 1.9791-1.9873 2.1974-3.9285 0.7921-7.0231 3.8868-7.8153 7.8153-0.2183 1.0828-1.0928 1.9873-2.1974 1.9873h-13c0-6.63 2.64-12.99 7.32-17.68 4.69-4.69 11.05-7.32 17.68-7.32v13z" fill="url(#h)"/><path d="m29.967 17.967c0 1.1046-0.9045 1.9791-1.9873 2.1974-3.9285 0.7921-7.0231 3.8868-7.8153 7.8153-0.2183 1.0828-1.0928 1.9873-2.1974 1.9873h-13c0-6.63 2.64-12.99 7.32-17.68 4.69-4.69 11.05-7.32 17.68-7.32v13z" fill="url(#g)"/><path d="m29.967 17.967c0 1.1046-0.9045 1.9791-1.9873 2.1974-3.9285 0.7921-7.0231 3.8868-7.8153 7.8153-0.2183 1.0828-1.0928 1.9873-2.1974 1.9873h-10c0-5.83 2.32-11.43 6.44-15.56 4.12-4.12 9.72-6.44 15.56-6.44v10z" fill="url(#f)"/><path d="m29.967 17.967c0 1.1046-0.9045 1.9791-1.9873 2.1974-3.9285 0.7921-7.0231 3.8868-7.8153 7.8153-0.2183 1.0828-1.0928 1.9873-2.1974 1.9873h-10c0-5.83 2.32-11.43 6.44-15.56 4.12-4.12 9.72-6.44 15.56-6.44v10z" fill="url(#e)"/><path d="m29.967 17.967c0 1.1046-0.9045 1.9791-1.9873 2.1974-3.9285 0.7921-7.0231 3.8868-7.8153 7.8153-0.2183 1.0828-1.0928 1.9873-2.1974 1.9873h-10c0-5.83 2.32-11.43 6.44-15.56 4.12-4.12 9.72-6.44 15.56-6.44v10z" fill="url(#d)"/><path d="m29.967 17.967c0 1.1045-0.9045 1.9791-1.9873 2.1974-3.9285 0.7921-7.0232 3.8868-7.8153 7.8153-0.2183 1.0828-1.0929 1.9873-2.1974 1.9873h-7c0-5.04 2-9.87 5.56-13.44 3.56-3.56 8.4-5.56 13.44-5.56v7z" fill="url(#c)"/><path d="m29.967 17.967c0 1.1045-0.9045 1.9791-1.9873 2.1974-3.9285 0.7921-7.0232 3.8868-7.8153 7.8153-0.2183 1.0828-1.0929 1.9873-2.1974 1.9873h-7c0-5.04 2-9.87 5.56-13.44 3.56-3.56 8.4-5.56 13.44-5.56v7z" fill="url(#b)"/><path d="m29.967 17.967c0 1.1045-0.9045 1.9791-1.9873 2.1974-3.9285 0.7921-7.0232 3.8868-7.8153 7.8153-0.2183 1.0828-1.0929 1.9873-2.1974 1.9873h-7c0-5.04 2-9.87 5.56-13.44 3.56-3.56 8.4-5.56 13.44-5.56v7z" fill="url(#a)"/><path d="m29.967 17.967c0 1.1045-0.9045 1.9791-1.9873 2.1974-3.9285 0.7921-7.0232 3.8868-7.8153 7.8153-0.2183 1.0828-1.0929 1.9873-2.1974 1.9873h-4c0-4.24 1.69-8.31 4.69-11.31s7.07-4.69 11.31-4.69v4z" fill="url(#p)"/><path d="m29.967 17.967c0 1.1045-0.9045 1.9791-1.9873 2.1974-3.9285 0.7921-7.0232 3.8868-7.8153 7.8153-0.2183 1.0828-1.0929 1.9873-2.1974 1.9873h-4c0-4.24 1.69-8.31 4.69-11.31s7.07-4.69 11.31-4.69v4z" fill="url(#o)"/><path d="m29.967 17.967c0 1.1045-0.9045 1.9791-1.9873 2.1974-3.9285 0.7921-7.0232 3.8868-7.8153 7.8153-0.2183 1.0828-1.0929 1.9873-2.1974 1.9873h-4c0-4.24 1.69-8.31 4.69-11.31s7.07-4.69 11.31-4.69v4z" fill="url(#n)"/><path d="m29.967 18.717c0 0.6903-0.5625 1.2418-1.2475 1.327-4.5254 0.5632-8.1123 4.1501-8.6755 8.6755-0.0852 0.685-0.6367 1.2475-1.327 1.2475h-1.75c0-3.45 1.37-6.76 3.81-9.19 2.44-2.44 5.75-3.81 9.19-3.81v1.75z" fill="url(#m)"/><path d="m29.967 18.717c0 0.6903-0.5625 1.2418-1.2475 1.327-4.5254 0.5632-8.1123 4.1501-8.6755 8.6755-0.0852 0.685-0.6367 1.2475-1.327 1.2475h-1.75c0-3.45 1.37-6.76 3.81-9.19 2.44-2.44 5.75-3.81 9.19-3.81v1.75z" fill="url(#l)"/><path d="m29.967 18.717c0 0.6903-0.5625 1.2418-1.2475 1.327-4.5254 0.5632-8.1123 4.1501-8.6755 8.6755-0.0852 0.685-0.6367 1.2475-1.327 1.2475h-1.75c0-3.45 1.37-6.76 3.81-9.19 2.44-2.44 5.75-3.81 9.19-3.81v1.75z" fill="url(#k)"/><g filter="url(#r)"><path d="m21.965 23.196c-0.6107 0.6398-2.1417 2.7611-2.4208 5.5179" stroke="url(#j)" stroke-linecap="round" stroke-width=".4"/></g><defs><filter id="s" x="1.7333" y="1.7833" width="28.483" height="28.433" color-interpolation-filters="sRGB" filterUnits="userSpaceOnUse"><feFlood flood-opacity="0" result="BackgroundImageFix"/><feBlend in="SourceGraphic" in2="BackgroundImageFix" result="shape"/><feColorMatrix in="SourceAlpha" result="hardAlpha" values="0 0 0 0 0 0 0 0 0 0 0 0 0 0 0 0 0 0 127 0"/><feOffset dx="0.25" dy="0.25"/><feGaussianBlur stdDeviation="0.25"/><feComposite in2="hardAlpha" k2="-1" k3="1" operator="arithmetic"/><feColorMatrix values="0 0 0 0 0.760784 0 0 0 0 0.286275 0 0 0 0 0.372549 0 0 0 1 0"/><feBlend in2="shape" result="effect1_innerShadow_18_15376"/><feColorMatrix in="SourceAlpha" result="hardAlpha" values="0 0 0 0 0 0 0 0 0 0 0 0 0 0 0 0 0 0 127 0"/><feOffset dy="-0.25"/><feGaussianBlur stdDeviation="0.5"/><feComposite in2="hardAlpha" k2="-1" k3="1" operator="arithmetic"/><feColorMatrix values="0 0 0 0 0.941176 0 0 0 0 0.207843 0 0 0 0 0.423529 0 0 0 1 0"/><feBlend in2="effect1_innerShadow_18_15376" result="effect2_innerShadow_18_15376"/><feColorMatrix in="SourceAlpha" result="hardAlpha" values="0 0 0 0 0 0 0 0 0 0 0 0 0 0 0 0 0 0 127 0"/><feOffset dx="-0.6"/><feGaussianBlur stdDeviation="0.15"/><feComposite in2="hardAlpha" k2="-1" k3="1" operator="arithmetic"/><feColorMatrix values="0 0 0 0 1 0 0 0 0 0.368627 0 0 0 0 0.709804 0 0 0 1 0"/><feBlend in2="effect2_innerShadow_18_15376" result="effect3_innerShadow_18_15376"/></filter><filter id="r" x="18.944" y="22.596" width="3.6209" height="6.7179" color-interpolation-filters="sRGB" filterUnits="userSpaceOnUse"><feFlood flood-opacity="0" result="BackgroundImageFix"/><feBlend in="SourceGraphic" in2="BackgroundImageFix" result="shape"/><feGaussianBlur result="effect1_foregroundBlur_18_15376" stdDeviation="0.2"/></filter><linearGradient id="q" x1="3.0316" x2="21.604" y1="25.794" y2="8.0294" gradientUnits="userSpaceOnUse"><stop stop-color="#FF4B5F" offset="0"/><stop stop-color="#F63EA0" offset="1"/></linearGradient><linearGradient id="i" x1="8.9207" x2="27.36" y1="29.026" y2="7.0382" gradientUnits="userSpaceOnUse"><stop stop-color="#FF8E54" offset="0"/><stop stop-color="#FFC751" offset="1"/></linearGradient><linearGradient id="h" x1="30.047" x2="29.066" y1="6.81" y2="6.81" gradientUnits="userSpaceOnUse"><stop stop-color="#FFEF61" offset="0"/><stop stop-color="#FFEF61" stop-opacity="0" offset="1"/></linearGradient><linearGradient id="g" x1="6.3986" x2="6.3986" y1="29.967" y2="29.436" gradientUnits="userSpaceOnUse"><stop stop-color="#FF677B" offset=".32554"/><stop stop-color="#FF677B" stop-opacity="0" offset="1"/></linearGradient><linearGradient id="f" x1="11.446" x2="27.673" y1="29.139" y2="9.7896" gradientUnits="userSpaceOnUse"><stop stop-color="#FFD05E" offset="0"/><stop stop-color="#FFE38D" offset="1"/></linearGradient><linearGradient id="e" x1="30.038" x2="29.167" y1="9.5888" y2="9.5888" gradientUnits="userSpaceOnUse"><stop stop-color="#FFFF9F" offset="0"/><stop stop-color="#FFFF9F" stop-opacity="0" offset="1"/></linearGradient><linearGradient id="d" x1="9.2268" x2="9.2268" y1="29.967" y2="29.5" gradientUnits="userSpaceOnUse"><stop stop-color="#FF9783" offset=".32554"/><stop stop-color="#FF9783" stop-opacity="0" offset="1"/></linearGradient><linearGradient id="c" x1="13.972" x2="27.986" y1="29.252" y2="12.541" gradientUnits="userSpaceOnUse"><stop stop-color="#48CF92" offset="0"/><stop stop-color="#60E4AB" offset="1"/></linearGradient><linearGradient id="b" x1="30.028" x2="29.133" y1="12.368" y2="12.368" gradientUnits="userSpaceOnUse"><stop stop-color="#74FFB9" offset="0"/><stop stop-color="#74FFB9" stop-opacity="0" offset="1"/></linearGradient><linearGradient id="a" x1="12.055" x2="12.055" y1="29.967" y2="29.564" gradientUnits="userSpaceOnUse"><stop stop-color="#5E97B1" offset=".32554"/><stop stop-color="#5E97B1" stop-opacity="0" offset="1"/></linearGradient><linearGradient id="p" x1="16.497" x2="28.298" y1="29.365" y2="15.292" gradientUnits="userSpaceOnUse"><stop stop-color="#4D81F6" offset="0"/><stop stop-color="#46A0FF" offset="1"/></linearGradient><linearGradient id="o" x1="30.018" x2="29.265" y1="15.146" y2="15.146" gradientUnits="userSpaceOnUse"><stop stop-color="#55C3FF" offset="0"/><stop stop-color="#55C3FF" stop-opacity="0" offset="1"/></linearGradient><linearGradient id="n" x1="14.883" x2="14.883" y1="29.967" y2="29.627" gradientUnits="userSpaceOnUse"><stop stop-color="#6160FF" offset=".32554"/><stop stop-color="#6160FF" stop-opacity="0" offset="1"/></linearGradient><linearGradient id="m" x1="19.023" x2="28.611" y1="29.478" y2="18.044" gradientUnits="userSpaceOnUse"><stop stop-color="#8569CA" offset="0"/><stop stop-color="#9970E2" offset="1"/></linearGradient><linearGradient id="l" x1="30.008" x2="29.396" y1="17.925" y2="17.925" gradientUnits="userSpaceOnUse"><stop stop-color="#B28AFA" offset="0"/><stop stop-color="#B28AFA" stop-opacity="0" offset="1"/></linearGradient><linearGradient id="k" x1="17.711" x2="17.711" y1="29.967" y2="29.691" gradientUnits="userSpaceOnUse"><stop stop-color="#894FE0" offset=".32554"/><stop stop-color="#894FE0" stop-opacity="0" offset="1"/></linearGradient><linearGradient id="j" x1="19.828" x2="22.096" y1="28.583" y2="23.349" gradientUnits="userSpaceOnUse"><stop stop-color="#977DDD" offset="0"/><stop stop-color="#977DDD" stop-opacity="0" offset="1"/></linearGradient></defs></svg>
