<svg fill="none" viewBox="0 0 32 32" xmlns="http://www.w3.org/2000/svg"><path d="m26.373 10.026c0-0.05521 0.0448-0.09999 0.1-0.09999h1.3231c1.215 0 2.2 0.98499 2.2 2.2v10.686c0 1.215-0.985 2.2-2.2 2.2h-1.3231c-0.0552 0-0.1-0.0448-0.1-0.1v-14.886z" fill="#D8D0DE"/><path d="m26.373 10.026c0-0.05521 0.0448-0.09999 0.1-0.09999h1.3231c1.215 0 2.2 0.98499 2.2 2.2v10.686c0 1.215-0.985 2.2-2.2 2.2h-1.3231c-0.0552 0-0.1-0.0448-0.1-0.1v-14.886z" fill="url(#v)"/><path d="m26.373 10.026c0-0.05521 0.0448-0.09999 0.1-0.09999h1.3231c1.215 0 2.2 0.98499 2.2 2.2v10.686c0 1.215-0.985 2.2-2.2 2.2h-1.3231c-0.0552 0-0.1-0.0448-0.1-0.1v-14.886z" fill="url(#k)"/><path d="m5.627 10.026c0-0.05521-0.04477-0.09999-0.1-0.09999h-1.323c-1.215 0-2.2 0.98499-2.2 2.2v10.686c0 1.215 0.98497 2.2 2.2 2.2h1.323c0.05523 0 0.1-0.0448 0.1-0.1v-14.886z" fill="#CFC4D5"/><path d="m5.627 10.026c0-0.05521-0.04477-0.09999-0.1-0.09999h-1.323c-1.215 0-2.2 0.98499-2.2 2.2v10.686c0 1.215 0.98497 2.2 2.2 2.2h1.323c0.05523 0 0.1-0.0448 0.1-0.1v-14.886z" fill="url(#h)"/><path d="m5.627 10.026c0-0.05521-0.04477-0.09999-0.1-0.09999h-1.323c-1.215 0-2.2 0.98499-2.2 2.2v10.686c0 1.215 0.98497 2.2 2.2 2.2h1.323c0.05523 0 0.1-0.0448 0.1-0.1v-14.886z" fill="url(#g)"/><g filter="url(#ag)"><rect x="18.164" y="10.695" width="11.023" height="13.441" rx="1.25" fill="#C9C0D3"/></g><g filter="url(#ae)"><rect x="2.7227" y="10.695" width="11.023" height="13.441" rx="1.25" fill="#BFB6C8"/></g><path d="m8.2344 6.3016c0-1.215 0.98497-2.2 2.2-2.2h11.131c1.2151 0 2.2 0.98498 2.2 2.2v8.0812h-15.531v-8.0812z" fill="url(#f)"/><path d="m15 4.1016h-4.5656c-1.215 0-2.2 0.98499-2.2 2.2v8.0812h6.7656v-10.281z" fill="url(#e)"/><path d="m15 4.1016h-4.5656c-1.215 0-2.2 0.98499-2.2 2.2v8.0812h6.7656v-10.281z" fill="url(#d)"/><path d="m10 3.8234c0-0.99411 0.8059-1.8 1.8-1.8h8.4c0.9941 0 1.8 0.80589 1.8 1.8v10.559h-12v-10.559z" fill="url(#c)"/><path d="m5.627 10.026c0-0.05521 0.04477-0.09999 0.1-0.09999h20.546c0.0553 0 0.1 0.04478 0.1 0.09999v14.886c0 0.0552-0.0447 0.1-0.1 0.1h-20.546c-0.05522 0-0.1-0.0448-0.1-0.1v-14.886z" fill="url(#b)"/><path d="m5.627 10.026c0-0.05521 0.04477-0.09999 0.1-0.09999h20.546c0.0553 0 0.1 0.04478 0.1 0.09999v14.886c0 0.0552-0.0447 0.1-0.1 0.1h-20.546c-0.05522 0-0.1-0.0448-0.1-0.1v-14.886z" fill="url(#a)"/><path d="m5.627 10.026c0-0.05521 0.04477-0.09999 0.1-0.09999h20.546c0.0553 0 0.1 0.04478 0.1 0.09999v14.886c0 0.0552-0.0447 0.1-0.1 0.1h-20.546c-0.05522 0-0.1-0.0448-0.1-0.1v-14.886z" fill="url(#u)"/><g filter="url(#ad)"><circle cx="27.99" cy="17.035" r=".8418" fill="#958E9D"/></g><g filter="url(#ac)"><circle cx="27.99" cy="20.004" r=".8418" fill="#958E9D"/></g><g filter="url(#ab)"><circle cx="27.99" cy="23.004" r=".8418" fill="#EF315A"/></g><g filter="url(#aa)"><path d="m12.723 17.016c0-0.5609 0.4547-1.0156 1.0156-1.0156h4.5234c0.5609 0 1.0156 0.4547 1.0156 1.0156s-0.4547 1.0156-1.0156 1.0156h-4.5234c-0.5609 0-1.0156-0.4547-1.0156-1.0156z" stroke="url(#t)" stroke-width=".1"/></g><g filter="url(#z)"><path d="m12.723 17.016c0-0.5609 0.4547-1.0156 1.0156-1.0156h4.5234c0.5609 0 1.0156 0.4547 1.0156 1.0156s-0.4547 1.0156-1.0156 1.0156h-4.5234c-0.5609 0-1.0156-0.4547-1.0156-1.0156z" fill="#403756"/></g><g filter="url(#y)"><path d="m24.914 25.012h-17.828v-2.8078c0-1.1874 0.96258-2.15 2.15-2.15h13.528c1.1874 0 2.15 0.9626 2.15 2.15v2.8078z" stroke="url(#s)" stroke-width=".15"/></g><path d="m24.914 25.012h-17.828v-2.8078c0-1.1874 0.96258-2.15 2.15-2.15h13.528c1.1874 0 2.15 0.9626 2.15 2.15v2.8078z" fill="url(#r)"/><g filter="url(#x)"><path d="m9.0391 20.064c0.06484-0.0059 0.13051-0.0089 0.19687-0.0089h13.528c0.0663 0 0.132 3e-3 0.1968 0.0089v7.7685c0 1.174-0.8954 2.1257-2 2.1257h-9.9218c-1.1046 0-2-0.9517-2-2.1257v-7.7685z" fill="url(#q)"/></g><path d="m9.0391 20.064c0.06484-0.0059 0.13051-0.0089 0.19687-0.0089h13.528c0.0663 0 0.132 3e-3 0.1968 0.0089v7.7685c0 1.174-0.8954 2.1257-2 2.1257h-9.9218c-1.1046 0-2-0.9517-2-2.1257v-7.7685z" fill="url(#p)"/><g filter="url(#w)"><path d="m10 20.055h12v6.1219c0 0.9941-0.8059 1.8-1.8 1.8h-8.4c-0.9941 0-1.8-0.8059-1.8-1.8v-6.1219z" fill="url(#o)"/><path d="m10 20.055h12v6.1219c0 0.9941-0.8059 1.8-1.8 1.8h-8.4c-0.9941 0-1.8-0.8059-1.8-1.8v-6.1219z" fill="url(#n)"/></g><path d="m11.82 25.494c0-0.2662 0.2158-0.482 0.4821-0.482h7.3952c0.2663 0 0.4821 0.2158 0.4821 0.482s-0.2158 0.482-0.4821 0.482h-7.3952c-0.2663 0-0.4821-0.2158-0.4821-0.482z" fill="#B8B1BE"/><path d="m11.82 23.448c0-0.2662 0.2158-0.482 0.4821-0.482h7.3952c0.2663 0 0.4821 0.2158 0.4821 0.482s-0.2158 0.4821-0.4821 0.4821h-7.3952c-0.2663 0-0.4821-0.2159-0.4821-0.4821z" fill="#B2ACB8"/><path d="m11.82 21.401c0-0.2662 0.2158-0.482 0.4821-0.482h7.3952c0.2663 0 0.4821 0.2158 0.4821 0.482 0 0.2663-0.2158 0.4821-0.4821 0.4821h-7.3952c-0.2663 0-0.4821-0.2158-0.4821-0.4821z" fill="#A19CA7"/><path d="m11.82 21.401c0-0.2662 0.2158-0.482 0.4821-0.482h7.3952c0.2663 0 0.4821 0.2158 0.4821 0.482 0 0.2663-0.2158 0.4821-0.4821 0.4821h-7.3952c-0.2663 0-0.4821-0.2158-0.4821-0.4821z" fill="url(#m)"/><g filter="url(#af)"><rect x="6.2656" y="10.519" width="19.469" height=".46875" fill="url(#l)"/></g><path d="m7.0859 25.012h-1.359c-0.05524 0-0.10001-0.0448-0.10001-0.1001v-3.9937h1.459v4.0938z" fill="url(#j)"/><path d="m24.914 25.012h1.3589c0.0553 0 0.1-0.0448 0.1-0.1001v-3.9937h-1.4589v4.0938z" fill="url(#i)"/><defs><filter id="ag" x="17.364" y="9.8953" width="12.623" height="15.041" color-interpolation-filters="sRGB" filterUnits="userSpaceOnUse"><feFlood flood-opacity="0" result="BackgroundImageFix"/><feBlend in="SourceGraphic" in2="BackgroundImageFix" result="shape"/><feGaussianBlur result="effect1_foregroundBlur_18_19569" stdDeviation="0.4"/></filter><filter id="ae" x="1.9227" y="9.8953" width="12.623" height="15.041" color-interpolation-filters="sRGB" filterUnits="userSpaceOnUse"><feFlood flood-opacity="0" result="BackgroundImageFix"/><feBlend in="SourceGraphic" in2="BackgroundImageFix" result="shape"/><feGaussianBlur result="effect1_foregroundBlur_18_19569" stdDeviation="0.4"/></filter><filter id="ad" x="26.848" y="16.093" width="2.0836" height="2.0836" color-interpolation-filters="sRGB" filterUnits="userSpaceOnUse"><feFlood flood-opacity="0" result="BackgroundImageFix"/><feColorMatrix in="SourceAlpha" result="hardAlpha" values="0 0 0 0 0 0 0 0 0 0 0 0 0 0 0 0 0 0 127 0"/><feOffset dx="-0.1" dy="0.1"/><feGaussianBlur stdDeviation="0.1"/><feComposite in2="hardAlpha" operator="out"/><feColorMatrix values="0 0 0 0 0.54902 0 0 0 0 0.486275 0 0 0 0 0.615686 0 0 0 1 0"/><feBlend in2="BackgroundImageFix" result="effect1_dropShadow_18_19569"/><feBlend in="SourceGraphic" in2="effect1_dropShadow_18_19569" result="shape"/><feColorMatrix in="SourceAlpha" result="hardAlpha" values="0 0 0 0 0 0 0 0 0 0 0 0 0 0 0 0 0 0 127 0"/><feOffset dx="-0.03" dy="0.03"/><feGaussianBlur stdDeviation="0.025"/><feComposite in2="hardAlpha" k2="-1" k3="1" operator="arithmetic"/><feColorMatrix values="0 0 0 0 0.733333 0 0 0 0 0.721569 0 0 0 0 0.741176 0 0 0 1 0"/><feBlend in2="shape" result="effect2_innerShadow_18_19569"/><feColorMatrix in="SourceAlpha" result="hardAlpha" values="0 0 0 0 0 0 0 0 0 0 0 0 0 0 0 0 0 0 127 0"/><feOffset dx="0.05" dy="-0.05"/><feGaussianBlur stdDeviation="0.025"/><feComposite in2="hardAlpha" k2="-1" k3="1" operator="arithmetic"/><feColorMatrix values="0 0 0 0 0.541176 0 0 0 0 0.466667 0 0 0 0 0.607843 0 0 0 1 0"/><feBlend in2="effect2_innerShadow_18_19569" result="effect3_innerShadow_18_19569"/></filter><filter id="ac" x="26.848" y="19.062" width="2.0836" height="2.0836" color-interpolation-filters="sRGB" filterUnits="userSpaceOnUse"><feFlood flood-opacity="0" result="BackgroundImageFix"/><feColorMatrix in="SourceAlpha" result="hardAlpha" values="0 0 0 0 0 0 0 0 0 0 0 0 0 0 0 0 0 0 127 0"/><feOffset dx="-0.1" dy="0.1"/><feGaussianBlur stdDeviation="0.1"/><feComposite in2="hardAlpha" operator="out"/><feColorMatrix values="0 0 0 0 0.588235 0 0 0 0 0.454902 0 0 0 0 0.607843 0 0 0 1 0"/><feBlend in2="BackgroundImageFix" result="effect1_dropShadow_18_19569"/><feBlend in="SourceGraphic" in2="effect1_dropShadow_18_19569" result="shape"/><feColorMatrix in="SourceAlpha" result="hardAlpha" values="0 0 0 0 0 0 0 0 0 0 0 0 0 0 0 0 0 0 127 0"/><feOffset dx="-0.03" dy="0.03"/><feGaussianBlur stdDeviation="0.025"/><feComposite in2="hardAlpha" k2="-1" k3="1" operator="arithmetic"/><feColorMatrix values="0 0 0 0 0.733333 0 0 0 0 0.721569 0 0 0 0 0.741176 0 0 0 1 0"/><feBlend in2="shape" result="effect2_innerShadow_18_19569"/><feColorMatrix in="SourceAlpha" result="hardAlpha" values="0 0 0 0 0 0 0 0 0 0 0 0 0 0 0 0 0 0 127 0"/><feOffset dx="0.05" dy="-0.05"/><feGaussianBlur stdDeviation="0.025"/><feComposite in2="hardAlpha" k2="-1" k3="1" operator="arithmetic"/><feColorMatrix values="0 0 0 0 0.47451 0 0 0 0 0.427451 0 0 0 0 0.52549 0 0 0 1 0"/><feBlend in2="effect2_innerShadow_18_19569" result="effect3_innerShadow_18_19569"/></filter><filter id="ab" x="26.848" y="22.062" width="2.0836" height="2.0836" color-interpolation-filters="sRGB" filterUnits="userSpaceOnUse"><feFlood flood-opacity="0" result="BackgroundImageFix"/><feColorMatrix in="SourceAlpha" result="hardAlpha" values="0 0 0 0 0 0 0 0 0 0 0 0 0 0 0 0 0 0 127 0"/><feOffset dx="-0.1" dy="0.1"/><feGaussianBlur stdDeviation="0.1"/><feComposite in2="hardAlpha" operator="out"/><feColorMatrix values="0 0 0 0 0.588235 0 0 0 0 0.454902 0 0 0 0 0.607843 0 0 0 1 0"/><feBlend in2="BackgroundImageFix" result="effect1_dropShadow_18_19569"/><feBlend in="SourceGraphic" in2="effect1_dropShadow_18_19569" result="shape"/><feColorMatrix in="SourceAlpha" result="hardAlpha" values="0 0 0 0 0 0 0 0 0 0 0 0 0 0 0 0 0 0 127 0"/><feOffset dx="-0.03" dy="0.03"/><feGaussianBlur stdDeviation="0.025"/><feComposite in2="hardAlpha" k2="-1" k3="1" operator="arithmetic"/><feColorMatrix values="0 0 0 0 1 0 0 0 0 0.431373 0 0 0 0 0.517647 0 0 0 1 0"/><feBlend in2="shape" result="effect2_innerShadow_18_19569"/><feColorMatrix in="SourceAlpha" result="hardAlpha" values="0 0 0 0 0 0 0 0 0 0 0 0 0 0 0 0 0 0 127 0"/><feOffset dx="0.05" dy="-0.05"/><feGaussianBlur stdDeviation="0.025"/><feComposite in2="hardAlpha" k2="-1" k3="1" operator="arithmetic"/><feColorMatrix values="0 0 0 0 0.709804 0 0 0 0 0.247059 0 0 0 0 0.4 0 0 0 1 0"/><feBlend in2="effect2_innerShadow_18_19569" result="effect3_innerShadow_18_19569"/></filter><filter id="aa" x="12.623" y="15.9" width="6.7548" height="2.2314" color-interpolation-filters="sRGB" filterUnits="userSpaceOnUse"><feFlood flood-opacity="0" result="BackgroundImageFix"/><feBlend in="SourceGraphic" in2="BackgroundImageFix" result="shape"/><feGaussianBlur result="effect1_foregroundBlur_18_19569" stdDeviation="0.025"/></filter><filter id="z" x="12.623" y="16" width="6.6547" height="2.1812" color-interpolation-filters="sRGB" filterUnits="userSpaceOnUse"><feFlood flood-opacity="0" result="BackgroundImageFix"/><feBlend in="SourceGraphic" in2="BackgroundImageFix" result="shape"/><feColorMatrix in="SourceAlpha" result="hardAlpha" values="0 0 0 0 0 0 0 0 0 0 0 0 0 0 0 0 0 0 127 0"/><feOffset/><feGaussianBlur stdDeviation="0.075"/><feComposite in2="hardAlpha" k2="-1" k3="1" operator="arithmetic"/><feColorMatrix values="0 0 0 0 0.145098 0 0 0 0 0.105882 0 0 0 0 0.219608 0 0 0 1 0"/><feBlend in2="shape" result="effect1_innerShadow_18_19569"/><feColorMatrix in="SourceAlpha" result="hardAlpha" values="0 0 0 0 0 0 0 0 0 0 0 0 0 0 0 0 0 0 127 0"/><feOffset dx="-0.1" dy="0.15"/><feGaussianBlur stdDeviation="0.25"/><feComposite in2="hardAlpha" k2="-1" k3="1" operator="arithmetic"/><feColorMatrix values="0 0 0 0 0.156863 0 0 0 0 0.121569 0 0 0 0 0.223529 0 0 0 1 0"/><feBlend in2="effect1_innerShadow_18_19569" result="effect2_innerShadow_18_19569"/></filter><filter id="y" x="6.961" y="19.93" width="18.078" height="5.2078" color-interpolation-filters="sRGB" filterUnits="userSpaceOnUse"><feFlood flood-opacity="0" result="BackgroundImageFix"/><feBlend in="SourceGraphic" in2="BackgroundImageFix" result="shape"/><feGaussianBlur result="effect1_foregroundBlur_18_19569" stdDeviation="0.025"/></filter><filter id="x" x="8.9891" y="20.005" width="14.022" height="9.9531" color-interpolation-filters="sRGB" filterUnits="userSpaceOnUse"><feFlood flood-opacity="0" result="BackgroundImageFix"/><feBlend in="SourceGraphic" in2="BackgroundImageFix" result="shape"/><feColorMatrix in="SourceAlpha" result="hardAlpha" values="0 0 0 0 0 0 0 0 0 0 0 0 0 0 0 0 0 0 127 0"/><feOffset dx="-0.05" dy="-0.05"/><feGaussianBlur stdDeviation="0.025"/><feComposite in2="hardAlpha" k2="-1" k3="1" operator="arithmetic"/><feColorMatrix values="0 0 0 0 0.309804 0 0 0 0 0.298039 0 0 0 0 0.411765 0 0 0 1 0"/><feBlend in2="shape" result="effect1_innerShadow_18_19569"/><feColorMatrix in="SourceAlpha" result="hardAlpha" values="0 0 0 0 0 0 0 0 0 0 0 0 0 0 0 0 0 0 127 0"/><feOffset dx="0.05" dy="-0.05"/><feGaussianBlur stdDeviation="0.025"/><feComposite in2="hardAlpha" k2="-1" k3="1" operator="arithmetic"/><feColorMatrix values="0 0 0 0 0.298039 0 0 0 0 0.219608 0 0 0 0 0.411765 0 0 0 1 0"/><feBlend in2="effect1_innerShadow_18_19569" result="effect2_innerShadow_18_19569"/></filter><filter id="w" x="9.8" y="19.955" width="12.4" height="8.3219" color-interpolation-filters="sRGB" filterUnits="userSpaceOnUse"><feFlood flood-opacity="0" result="BackgroundImageFix"/><feColorMatrix in="SourceAlpha" result="hardAlpha" values="0 0 0 0 0 0 0 0 0 0 0 0 0 0 0 0 0 0 127 0"/><feOffset dy="0.1"/><feGaussianBlur stdDeviation="0.1"/><feComposite in2="hardAlpha" operator="out"/><feColorMatrix values="0 0 0 0 0.207843 0 0 0 0 0.137255 0 0 0 0 0.317647 0 0 0 1 0"/><feBlend in2="BackgroundImageFix" result="effect1_dropShadow_18_19569"/><feBlend in="SourceGraphic" in2="effect1_dropShadow_18_19569" result="shape"/></filter><filter id="af" x="5.7656" y="10.019" width="20.469" height="1.4688" color-interpolation-filters="sRGB" filterUnits="userSpaceOnUse"><feFlood flood-opacity="0" result="BackgroundImageFix"/><feBlend in="SourceGraphic" in2="BackgroundImageFix" result="shape"/><feGaussianBlur result="effect1_foregroundBlur_18_19569" stdDeviation="0.25"/></filter><linearGradient id="v" x1="29.996" x2="29.125" y1="11.57" y2="20.758" gradientUnits="userSpaceOnUse"><stop stop-color="#EBE7EE" offset="0"/><stop stop-color="#EBE7EE" stop-opacity="0" offset="1"/></linearGradient><linearGradient id="k" x1="26.906" x2="26.906" y1="25.226" y2="22.258" gradientUnits="userSpaceOnUse"><stop stop-color="#9E84B7" offset="0"/><stop stop-color="#C6BBD3" stop-opacity="0" offset="1"/></linearGradient><linearGradient id="h" x1="2.0039" x2="4.5087" y1="18.118" y2="18.118" gradientUnits="userSpaceOnUse"><stop stop-color="#8B8690" offset="0"/><stop stop-color="#8B8690" stop-opacity="0" offset="1"/></linearGradient><linearGradient id="g" x1="4.8576" x2="4.8576" y1="25.312" y2="21.824" gradientUnits="userSpaceOnUse"><stop stop-color="#947BAB" offset="0"/><stop stop-color="#947BAB" stop-opacity="0" offset="1"/></linearGradient><linearGradient id="f" x1="23.531" x2="9" y1="8.6953" y2="8.6953" gradientUnits="userSpaceOnUse"><stop stop-color="#5B54A3" offset="0"/><stop stop-color="#584076" offset="1"/></linearGradient><linearGradient id="e" x1="9.0625" x2="9.0625" y1="10.258" y2="7.8828" gradientUnits="userSpaceOnUse"><stop stop-color="#503B6A" offset=".10526"/><stop stop-color="#503B6A" stop-opacity="0" offset="1"/></linearGradient><linearGradient id="d" x1="10.039" x2="9.832" y1="9.6797" y2="9.6797" gradientUnits="userSpaceOnUse"><stop stop-color="#473361" offset="0"/><stop stop-color="#473361" stop-opacity="0" offset=".97059"/></linearGradient><linearGradient id="c" x1="16" x2="16" y1="2.0234" y2="10.133" gradientUnits="userSpaceOnUse"><stop stop-color="#E2D9EB" offset="0"/><stop stop-color="#CEC9D5" offset="1"/></linearGradient><linearGradient id="b" x1="26.031" x2="6.3125" y1="16.883" y2="16.883" gradientUnits="userSpaceOnUse"><stop stop-color="#5C55AB" offset="0"/><stop stop-color="#5A407B" offset=".94929"/></linearGradient><linearGradient id="a" x1="26.373" x2="26.27" y1="18.195" y2="18.195" gradientUnits="userSpaceOnUse"><stop stop-color="#625CA5" offset=".13208"/><stop stop-color="#625CA5" stop-opacity="0" offset="1"/></linearGradient><linearGradient id="u" x1="5.627" x2="5.7656" y1="18.07" y2="18.07" gradientUnits="userSpaceOnUse"><stop stop-color="#44325E" offset="0"/><stop stop-color="#44325E" stop-opacity="0" offset="1"/></linearGradient><linearGradient id="t" x1="13.711" x2="14.188" y1="17.961" y2="16.523" gradientUnits="userSpaceOnUse"><stop stop-color="#69578A" offset=".19906"/><stop stop-color="#4B3580" offset="1"/></linearGradient><linearGradient id="s" x1="16" x2="16" y1="20.055" y2="24.055" gradientUnits="userSpaceOnUse"><stop stop-color="#4E3682" offset="0"/><stop stop-color="#4E3682" stop-opacity="0" offset="1"/></linearGradient><linearGradient id="r" x1="16" x2="16" y1="20.055" y2="25.012" gradientUnits="userSpaceOnUse"><stop stop-color="#140C25" offset="0"/><stop stop-color="#1C142E" offset="1"/></linearGradient><linearGradient id="q" x1="11.344" x2="22.094" y1="27.914" y2="27.852" gradientUnits="userSpaceOnUse"><stop stop-color="#5D447C" offset="0"/><stop stop-color="#4A4668" offset="1"/></linearGradient><linearGradient id="p" x1="16" x2="16" y1="19.695" y2="22.102" gradientUnits="userSpaceOnUse"><stop stop-color="#1F0C35" offset="0"/><stop stop-color="#1F0C35" stop-opacity="0" offset="1"/></linearGradient><linearGradient id="o" x1="16" x2="16" y1="20.055" y2="27.977" gradientUnits="userSpaceOnUse"><stop stop-color="#CFC8D7" offset="0"/><stop stop-color="#ECE3F6" offset="1"/></linearGradient><linearGradient id="n" x1="16" x2="16" y1="19.884" y2="21.78" gradientUnits="userSpaceOnUse"><stop stop-color="#776987" offset=".16279"/><stop stop-color="#A198AD" stop-opacity="0" offset="1"/></linearGradient><linearGradient id="m" x1="16" x2="16" y1="20.919" y2="21.586" gradientUnits="userSpaceOnUse"><stop stop-color="#8A8491" offset="0"/><stop stop-color="#8A8491" stop-opacity="0" offset="1"/></linearGradient><linearGradient id="l" x1="9.4782" x2="23.653" y1="11.175" y2="11.175" gradientUnits="userSpaceOnUse"><stop stop-color="#5E457D" offset="0"/><stop stop-color="#615AAE" offset="1"/></linearGradient><linearGradient id="j" x1="5.9688" x2="5.9688" y1="25.012" y2="23.602" gradientUnits="userSpaceOnUse"><stop stop-color="#4A2D6E" offset=".077381"/><stop stop-color="#4A2D6E" stop-opacity="0" offset="1"/></linearGradient><linearGradient id="i" x1="26.031" x2="26.031" y1="25.012" y2="23.602" gradientUnits="userSpaceOnUse"><stop stop-color="#4B3A96" offset=".077381"/><stop stop-color="#4B3A96" stop-opacity="0" offset="1"/></linearGradient></defs></svg>
