<svg fill="none" viewBox="0 0 32 32" xmlns="http://www.w3.org/2000/svg"><path d="m3.2106 11.539c-0.58-1.27-1.06-2.62-1.2-4.07-0.06-0.73-0.03-1.48 0.17-2.23 0.19-0.74 0.58-1.49 1.2-2.03 1.2-1.14 2.91-1.43 4.39-1.33 1.51 0.09 2.95 0.47 4.3 0.99 2.71 1.07 5.17 2.62 7.4 4.42 2.24 1.8 4.28 3.84 6.05 6.16 0.9 1.15 1.71 2.38 2.43 3.69s1.36 2.7 1.75 4.29c0.35 1.56 0.59 3.39-0.29 5.36-0.12 0.24-0.24 0.47-0.37 0.71-0.16 0.22-0.33 0.44-0.51 0.65-0.32 0.45-0.8 0.75-1.23 1.08-0.93 0.52-1.94 0.85-2.85 0.89-1.85 0.12-3.43-0.31-4.87-0.87-1.42-0.6-2.75-1.3-3.92-2.19-2.39-1.7-4.39-3.81-5.96-6.17-0.06-0.1-0.04-0.22 0.06-0.29 0.07-0.05 0.16-0.04 0.23 0 2.37 1.51 4.69 2.92 7.1 3.98 1.2 0.53 2.41 0.98 3.61 1.25 1.18 0.29 2.37 0.43 3.28 0.24 0.48-0.04 0.78-0.24 1.06-0.38 0.2-0.22 0.44-0.35 0.54-0.69 0.31-0.57 0.36-1.66 0.19-2.77-0.15-1.13-0.54-2.34-1.04-3.5-0.51-1.16-1.13-2.31-1.85-3.4-1.42-2.2-3.18-4.23-5.12-6.04-1.94-1.82-4.11-3.41-6.48-4.55-1.19-0.59-2.42-1.03-3.67-1.23-1.24-0.2-2.51-0.06-3.41 0.65-0.94 0.67-1.32 1.98-1.33 3.27-0.02 1.32 0.29 2.66 0.72 3.96 0.04 0.11-0.02 0.22-0.13 0.26-0.09 0.03-0.2-0.02-0.25-0.11z" fill="url(#n)"/><path d="m3.2106 11.539c-0.58-1.27-1.06-2.62-1.2-4.07-0.06-0.73-0.03-1.48 0.17-2.23 0.19-0.74 0.58-1.49 1.2-2.03 1.2-1.14 2.91-1.43 4.39-1.33 1.51 0.09 2.95 0.47 4.3 0.99 2.71 1.07 5.17 2.62 7.4 4.42 2.24 1.8 4.28 3.84 6.05 6.16 0.9 1.15 1.71 2.38 2.43 3.69s1.36 2.7 1.75 4.29c0.35 1.56 0.59 3.39-0.29 5.36-0.12 0.24-0.24 0.47-0.37 0.71-0.16 0.22-0.33 0.44-0.51 0.65-0.32 0.45-0.8 0.75-1.23 1.08-0.93 0.52-1.94 0.85-2.85 0.89-1.85 0.12-3.43-0.31-4.87-0.87-1.42-0.6-2.75-1.3-3.92-2.19-2.39-1.7-4.39-3.81-5.96-6.17-0.06-0.1-0.04-0.22 0.06-0.29 0.07-0.05 0.16-0.04 0.23 0 2.37 1.51 4.69 2.92 7.1 3.98 1.2 0.53 2.41 0.98 3.61 1.25 1.18 0.29 2.37 0.43 3.28 0.24 0.48-0.04 0.78-0.24 1.06-0.38 0.2-0.22 0.44-0.35 0.54-0.69 0.31-0.57 0.36-1.66 0.19-2.77-0.15-1.13-0.54-2.34-1.04-3.5-0.51-1.16-1.13-2.31-1.85-3.4-1.42-2.2-3.18-4.23-5.12-6.04-1.94-1.82-4.11-3.41-6.48-4.55-1.19-0.59-2.42-1.03-3.67-1.23-1.24-0.2-2.51-0.06-3.41 0.65-0.94 0.67-1.32 1.98-1.33 3.27-0.02 1.32 0.29 2.66 0.72 3.96 0.04 0.11-0.02 0.22-0.13 0.26-0.09 0.03-0.2-0.02-0.25-0.11z" fill="url(#i)"/><path d="m3.2106 11.539c-0.58-1.27-1.06-2.62-1.2-4.07-0.06-0.73-0.03-1.48 0.17-2.23 0.19-0.74 0.58-1.49 1.2-2.03 1.2-1.14 2.91-1.43 4.39-1.33 1.51 0.09 2.95 0.47 4.3 0.99 2.71 1.07 5.17 2.62 7.4 4.42 2.24 1.8 4.28 3.84 6.05 6.16 0.9 1.15 1.71 2.38 2.43 3.69s1.36 2.7 1.75 4.29c0.35 1.56 0.59 3.39-0.29 5.36-0.12 0.24-0.24 0.47-0.37 0.71-0.16 0.22-0.33 0.44-0.51 0.65-0.32 0.45-0.8 0.75-1.23 1.08-0.93 0.52-1.94 0.85-2.85 0.89-1.85 0.12-3.43-0.31-4.87-0.87-1.42-0.6-2.75-1.3-3.92-2.19-2.39-1.7-4.39-3.81-5.96-6.17-0.06-0.1-0.04-0.22 0.06-0.29 0.07-0.05 0.16-0.04 0.23 0 2.37 1.51 4.69 2.92 7.1 3.98 1.2 0.53 2.41 0.98 3.61 1.25 1.18 0.29 2.37 0.43 3.28 0.24 0.48-0.04 0.78-0.24 1.06-0.38 0.2-0.22 0.44-0.35 0.54-0.69 0.31-0.57 0.36-1.66 0.19-2.77-0.15-1.13-0.54-2.34-1.04-3.5-0.51-1.16-1.13-2.31-1.85-3.4-1.42-2.2-3.18-4.23-5.12-6.04-1.94-1.82-4.11-3.41-6.48-4.55-1.19-0.59-2.42-1.03-3.67-1.23-1.24-0.2-2.51-0.06-3.41 0.65-0.94 0.67-1.32 1.98-1.33 3.27-0.02 1.32 0.29 2.66 0.72 3.96 0.04 0.11-0.02 0.22-0.13 0.26-0.09 0.03-0.2-0.02-0.25-0.11z" fill="url(#h)"/><path d="m2.8941 6.9206-0.80398-1.2849c0.02514-0.1322 0.05514-0.26451 0.09042-0.39683 0.19-0.74 0.58-1.49 1.2-2.03 1.2-1.14 2.91-1.43 4.39-1.33 1.51 0.09 2.95 0.47 4.3 0.99 2.7101 1.07 5.17 2.62 7.4 4.42 2.24 1.8 4.28 3.84 6.05 6.16 0.9 1.15 1.71 2.38 2.43 3.69s-0.6075 0.6003-0.2175 2.1903c0.2225 0.9918 0.2184 1.944-0.5188 3.3914-0.0689 0.1352-0.1521 0.2632-0.2435 0.3844l-1.3241 1.7555c0.2503-0.597 0.2811-1.6058 0.1239-2.6316-0.1499-1.13-0.54-2.34-1.04-3.5-0.51-1.16-1.13-2.31-1.85-3.4-1.42-2.2-3.18-4.23-5.12-6.04-1.94-1.82-4.11-3.41-6.4799-4.55-1.19-0.59-2.42-1.03-3.67-1.23-1.24-0.2-2.51-0.06-3.41 0.65-0.81642 0.58192-1.2104 1.6466-1.3064 2.7617z" fill="url(#g)"/><path d="m2.8941 6.9206-0.80398-1.2849c0.02514-0.1322 0.05514-0.26451 0.09042-0.39683 0.19-0.74 0.58-1.49 1.2-2.03 1.2-1.14 2.91-1.43 4.39-1.33 1.51 0.09 2.95 0.47 4.3 0.99 2.7101 1.07 5.17 2.62 7.4 4.42 2.24 1.8 4.28 3.84 6.05 6.16 0.9 1.15 1.71 2.38 2.43 3.69s-0.6075 0.6003-0.2175 2.1903c0.2225 0.9918 0.2184 1.944-0.5188 3.3914-0.0689 0.1352-0.1521 0.2632-0.2435 0.3844l-1.3241 1.7555c0.2503-0.597 0.2811-1.6058 0.1239-2.6316-0.1499-1.13-0.54-2.34-1.04-3.5-0.51-1.16-1.13-2.31-1.85-3.4-1.42-2.2-3.18-4.23-5.12-6.04-1.94-1.82-4.11-3.41-6.4799-4.55-1.19-0.59-2.42-1.03-3.67-1.23-1.24-0.2-2.51-0.06-3.41 0.65-0.81642 0.58192-1.2104 1.6466-1.3064 2.7617z" fill="url(#f)"/><path d="m2.8941 6.9206-0.80398-1.2849c0.02514-0.1322 0.05514-0.26451 0.09042-0.39683 0.19-0.74 0.58-1.49 1.2-2.03 1.2-1.14 2.91-1.43 4.39-1.33 1.51 0.09 2.95 0.47 4.3 0.99 2.7101 1.07 5.17 2.62 7.4 4.42 2.24 1.8 4.28 3.84 6.05 6.16 0.9 1.15 1.71 2.38 2.43 3.69s-0.6075 0.6003-0.2175 2.1903c0.2225 0.9918 0.2184 1.944-0.5188 3.3914-0.0689 0.1352-0.1521 0.2632-0.2435 0.3844l-1.3241 1.7555c0.2503-0.597 0.2811-1.6058 0.1239-2.6316-0.1499-1.13-0.54-2.34-1.04-3.5-0.51-1.16-1.13-2.31-1.85-3.4-1.42-2.2-3.18-4.23-5.12-6.04-1.94-1.82-4.11-3.41-6.4799-4.55-1.19-0.59-2.42-1.03-3.67-1.23-1.24-0.2-2.51-0.06-3.41 0.65-0.81642 0.58192-1.2104 1.6466-1.3064 2.7617z" fill="url(#e)"/><path d="m29.024 19.361c0.2668 0.6552 0.4976 1.3409 0.676 2.0684 0.35 1.56 0.5901 3.39-0.29 5.36-0.1199 0.24-0.24 0.47-0.3699 0.71-0.1601 0.22-0.33 0.44-0.5101 0.65-0.256 0.3601-0.6146 0.6242-0.968 0.8844-0.0882 0.0649-0.1761 0.1297-0.262 0.1956-0.93 0.52-1.94 0.85-2.85 0.89-1.85 0.12-3.43-0.31-4.87-0.87-1.42-0.6-2.75-1.3-3.92-2.19-2.39-1.7-4.39-3.81-5.96-6.17-0.06-0.1-0.03999-0.22 0.06001-0.29 0.07-0.05 0.15999-0.04 0.23 0 2.37 1.51 4.69 2.92 7.1 3.98 1.2001 0.53 2.41 0.98 3.61 1.25 1.18 0.29 2.3701 0.43 3.28 0.24 0.4021-0.0336 0.6779-0.1793 0.9214-0.3081 0.0472-0.0249 0.0932-0.0492 0.1387-0.0719 0.0544-0.0599 0.1118-0.1131 0.1685-0.1657 0.1517-0.1407 0.2987-0.2769 0.3714-0.5243 0.31-0.57 0.36-1.66 0.19-2.77-0.1229-0.9263-0.4071-1.9063-0.781-2.8684h4.035z" fill="url(#d)"/><path d="m29.024 19.361c0.2668 0.6552 0.4976 1.3409 0.676 2.0684 0.35 1.56 0.5901 3.39-0.29 5.36-0.1199 0.24-0.24 0.47-0.3699 0.71-0.1601 0.22-0.33 0.44-0.5101 0.65-0.256 0.3601-0.6146 0.6242-0.968 0.8844-0.0882 0.0649-0.1761 0.1297-0.262 0.1956-0.93 0.52-1.94 0.85-2.85 0.89-1.85 0.12-3.43-0.31-4.87-0.87-1.42-0.6-2.75-1.3-3.92-2.19-2.39-1.7-4.39-3.81-5.96-6.17-0.06-0.1-0.03999-0.22 0.06001-0.29 0.07-0.05 0.15999-0.04 0.23 0 2.37 1.51 4.69 2.92 7.1 3.98 1.2001 0.53 2.41 0.98 3.61 1.25 1.18 0.29 2.3701 0.43 3.28 0.24 0.4021-0.0336 0.6779-0.1793 0.9214-0.3081 0.0472-0.0249 0.0932-0.0492 0.1387-0.0719 0.0544-0.0599 0.1118-0.1131 0.1685-0.1657 0.1517-0.1407 0.2987-0.2769 0.3714-0.5243 0.31-0.57 0.36-1.66 0.19-2.77-0.1229-0.9263-0.4071-1.9063-0.781-2.8684h4.035z" fill="url(#c)"/><path d="m29.024 19.361c0.2668 0.6552 0.4976 1.3409 0.676 2.0684 0.35 1.56 0.5901 3.39-0.29 5.36-0.1199 0.24-0.24 0.47-0.3699 0.71-0.1601 0.22-0.33 0.44-0.5101 0.65-0.256 0.3601-0.6146 0.6242-0.968 0.8844-0.0882 0.0649-0.1761 0.1297-0.262 0.1956-0.93 0.52-1.94 0.85-2.85 0.89-1.85 0.12-3.43-0.31-4.87-0.87-1.42-0.6-2.75-1.3-3.92-2.19-2.39-1.7-4.39-3.81-5.96-6.17-0.06-0.1-0.03999-0.22 0.06001-0.29 0.07-0.05 0.15999-0.04 0.23 0 2.37 1.51 4.69 2.92 7.1 3.98 1.2001 0.53 2.41 0.98 3.61 1.25 1.18 0.29 2.3701 0.43 3.28 0.24 0.4021-0.0336 0.6779-0.1793 0.9214-0.3081 0.0472-0.0249 0.0932-0.0492 0.1387-0.0719 0.0544-0.0599 0.1118-0.1131 0.1685-0.1657 0.1517-0.1407 0.2987-0.2769 0.3714-0.5243 0.31-0.57 0.36-1.66 0.19-2.77-0.1229-0.9263-0.4071-1.9063-0.781-2.8684h4.035z" fill="url(#b)"/><g filter="url(#r)"><path d="m9.4806 17.919 1.39 0.47c0.44 0.15 0.93 0.07 1.3-0.21l1.18-0.88c0.94-0.7 2.27-0.02 2.26 1.15l-0.02 1.47c-0.01 0.47 0.22 0.9 0.6 1.17l1.2 0.85c0.96 0.68 0.72 2.16-0.4 2.5l-1.41 0.44c-0.44 0.14-0.79 0.49-0.93 0.93l-0.44 1.41c-0.35 1.12-1.83 1.35-2.5 0.4l-0.85-1.2c-0.27-0.38-0.71-0.6-1.17-0.6l-1.47 0.02c-1.16 0.02-1.84-1.32-1.14-2.26l0.88-1.18c0.28-0.37 0.36-0.86 0.21-1.3l-0.47-1.39c-0.39-1.11 0.67-2.17 1.78-1.79z" fill="url(#a)"/><path d="m9.4806 17.919 1.39 0.47c0.44 0.15 0.93 0.07 1.3-0.21l1.18-0.88c0.94-0.7 2.27-0.02 2.26 1.15l-0.02 1.47c-0.01 0.47 0.22 0.9 0.6 1.17l1.2 0.85c0.96 0.68 0.72 2.16-0.4 2.5l-1.41 0.44c-0.44 0.14-0.79 0.49-0.93 0.93l-0.44 1.41c-0.35 1.12-1.83 1.35-2.5 0.4l-0.85-1.2c-0.27-0.38-0.71-0.6-1.17-0.6l-1.47 0.02c-1.16 0.02-1.84-1.32-1.14-2.26l0.88-1.18c0.28-0.37 0.36-0.86 0.21-1.3l-0.47-1.39c-0.39-1.11 0.67-2.17 1.78-1.79z" fill="url(#m)"/><path d="m9.4806 17.919 1.39 0.47c0.44 0.15 0.93 0.07 1.3-0.21l1.18-0.88c0.94-0.7 2.27-0.02 2.26 1.15l-0.02 1.47c-0.01 0.47 0.22 0.9 0.6 1.17l1.2 0.85c0.96 0.68 0.72 2.16-0.4 2.5l-1.41 0.44c-0.44 0.14-0.79 0.49-0.93 0.93l-0.44 1.41c-0.35 1.12-1.83 1.35-2.5 0.4l-0.85-1.2c-0.27-0.38-0.71-0.6-1.17-0.6l-1.47 0.02c-1.16 0.02-1.84-1.32-1.14-2.26l0.88-1.18c0.28-0.37 0.36-0.86 0.21-1.3l-0.47-1.39c-0.39-1.11 0.67-2.17 1.78-1.79z" fill="url(#l)"/></g><path d="m9.4806 17.919 1.39 0.47c0.44 0.15 0.93 0.07 1.3-0.21l1.18-0.88c0.94-0.7 2.27-0.02 2.26 1.15l-0.02 1.47c-0.01 0.47 0.22 0.9 0.6 1.17l1.2 0.85c0.96 0.68 0.72 2.16-0.4 2.5l-1.41 0.44c-0.44 0.14-0.79 0.49-0.93 0.93l-0.44 1.41c-0.35 1.12-1.83 1.35-2.5 0.4l-0.85-1.2c-0.27-0.38-0.71-0.6-1.17-0.6l-1.47 0.02c-1.16 0.02-1.84-1.32-1.14-2.26l0.88-1.18c0.28-0.37 0.36-0.86 0.21-1.3l-0.47-1.39c-0.39-1.11 0.67-2.17 1.78-1.79z" fill="url(#k)"/><g filter="url(#q)"><path d="m15 25.062c1.4375 1 5.9688 3.75 9.9688 2.4063 3.5319-1.1866 2.625-6.6563 0.8124-9.4688" stroke="#FFF38A" stroke-linecap="round"/></g><g filter="url(#p)"><path d="m2.733 5.3607c0.8125-2.375 3.9636-3.4259 7.8438-2.2187 4.2187 1.3125 12.219 6.1562 16.844 14.781" stroke="url(#j)" stroke-linecap="round" stroke-width=".3"/></g><g filter="url(#o)"><path d="m14.396 18.642-0.1051 1.1922c-0.0936 1.0616 0.383 2.0932 1.2521 2.71l0.5343 0.3791" stroke="#FBEC6A" stroke-linecap="round"/></g><defs><filter id="r" x="6.7474" y="16.966" width="11.492" height="11.497" color-interpolation-filters="sRGB" filterUnits="userSpaceOnUse"><feFlood flood-opacity="0" result="BackgroundImageFix"/><feBlend in="SourceGraphic" in2="BackgroundImageFix" result="shape"/><feColorMatrix in="SourceAlpha" result="hardAlpha" values="0 0 0 0 0 0 0 0 0 0 0 0 0 0 0 0 0 0 127 0"/><feOffset dx="0.25" dy="0.25"/><feGaussianBlur stdDeviation="0.75"/><feComposite in2="hardAlpha" k2="-1" k3="1" operator="arithmetic"/><feColorMatrix values="0 0 0 0 1 0 0 0 0 0.65098 0 0 0 0 0.396078 0 0 0 1 0"/><feBlend in2="shape" result="effect1_innerShadow_7140_6216"/><feColorMatrix in="SourceAlpha" result="hardAlpha" values="0 0 0 0 0 0 0 0 0 0 0 0 0 0 0 0 0 0 127 0"/><feOffset dx="-0.05" dy="-0.05"/><feGaussianBlur stdDeviation="0.125"/><feComposite in2="hardAlpha" k2="-1" k3="1" operator="arithmetic"/><feColorMatrix values="0 0 0 0 1 0 0 0 0 0.619535 0 0 0 0 0.341667 0 0 0 1 0"/><feBlend in2="effect1_innerShadow_7140_6216" result="effect2_innerShadow_7140_6216"/></filter><filter id="q" x="12.5" y="15.5" width="17.379" height="14.832" color-interpolation-filters="sRGB" filterUnits="userSpaceOnUse"><feFlood flood-opacity="0" result="BackgroundImageFix"/><feBlend in="SourceGraphic" in2="BackgroundImageFix" result="shape"/><feGaussianBlur result="effect1_foregroundBlur_7140_6216" stdDeviation="1"/></filter><filter id="p" x="1.583" y="1.4885" width="26.988" height="17.585" color-interpolation-filters="sRGB" filterUnits="userSpaceOnUse"><feFlood flood-opacity="0" result="BackgroundImageFix"/><feBlend in="SourceGraphic" in2="BackgroundImageFix" result="shape"/><feGaussianBlur result="effect1_foregroundBlur_7140_6216" stdDeviation="0.5"/></filter><filter id="o" x="11.779" y="16.142" width="6.798" height="9.2812" color-interpolation-filters="sRGB" filterUnits="userSpaceOnUse"><feFlood flood-opacity="0" result="BackgroundImageFix"/><feBlend in="SourceGraphic" in2="BackgroundImageFix" result="shape"/><feGaussianBlur result="effect1_foregroundBlur_7140_6216" stdDeviation="1"/></filter><radialGradient id="n" cx="0" cy="0" r="1" gradientTransform="translate(19.608 17.736) rotate(-21.898) scale(6.8707 13.138)" gradientUnits="userSpaceOnUse"><stop stop-color="#EC9F57" offset="0"/><stop stop-color="#F7D520" offset="1"/></radialGradient><radialGradient id="i" cx="0" cy="0" r="1" gradientTransform="translate(1.233 13.486) rotate(-76.041) scale(22.541 5.8199)" gradientUnits="userSpaceOnUse"><stop stop-color="#EC9F57" offset="0"/><stop stop-color="#EC9F57" stop-opacity="0" offset=".64227"/></radialGradient><radialGradient id="h" cx="0" cy="0" r="1" gradientTransform="translate(24.546 20.173) rotate(71.384) scale(6.2653 2.0215)" gradientUnits="userSpaceOnUse"><stop stop-color="#EC9F57" offset="0"/><stop stop-color="#EC9F57" stop-opacity="0" offset=".9448"/></radialGradient><radialGradient id="g" cx="0" cy="0" r="1" gradientTransform="translate(15.483 15.673) rotate(-41.186) scale(8.637 25.636)" gradientUnits="userSpaceOnUse"><stop stop-color="#E48A35" offset="0"/><stop stop-color="#EC9F57" stop-opacity="0" offset=".69271"/></radialGradient><radialGradient id="f" cx="0" cy="0" r="1" gradientTransform="translate(18.233 13.361) rotate(229.2) scale(12.053 3.3724)" gradientUnits="userSpaceOnUse"><stop stop-color="#D8700F" offset=".34375"/><stop stop-color="#D8700F" stop-opacity="0" offset="1"/></radialGradient><linearGradient id="e" x1="12.67" x2="12.296" y1="-.2019" y2="4.9856" gradientUnits="userSpaceOnUse"><stop stop-color="#E48A35" offset="0"/><stop stop-color="#EC9F57" stop-opacity="0" offset=".69271"/></linearGradient><radialGradient id="d" cx="0" cy="0" r="1" gradientTransform="translate(23.17 19.986) rotate(202.04) scale(10.991 12.934)" gradientUnits="userSpaceOnUse"><stop stop-color="#EC9F57" stop-opacity="0" offset=".61458"/><stop stop-color="#E48A35" offset="1"/></radialGradient><linearGradient id="c" x1="33.358" x2="10.358" y1="24.111" y2="18.986" gradientUnits="userSpaceOnUse"><stop stop-color="#EC9F57" stop-opacity="0" offset=".67737"/><stop stop-color="#E48A35" offset="1"/></linearGradient><radialGradient id="b" cx="0" cy="0" r="1" gradientTransform="translate(25.733 20.361) rotate(-81.399) scale(15.044 22.014)" gradientUnits="userSpaceOnUse"><stop stop-color="#D8700F" stop-opacity="0" offset=".61458"/><stop stop-color="#D8700F" offset=".78125"/></radialGradient><linearGradient id="a" x1="21.296" x2="8.0455" y1="20.111" y2="26.986" gradientUnits="userSpaceOnUse"><stop stop-color="#FBED1D" offset="0"/><stop stop-color="#FBB016" offset="1"/></linearGradient><radialGradient id="m" cx="0" cy="0" r="1" gradientTransform="translate(16.514 24.954) rotate(48.32) scale(2.2176 3.3953)" gradientUnits="userSpaceOnUse"><stop stop-color="#FBB016" offset="0"/><stop stop-color="#FBB016" stop-opacity="0" offset=".71354"/></radialGradient><radialGradient id="l" cx="0" cy="0" r="1" gradientTransform="translate(6.7974 24.548) rotate(-13.501) scale(4.8188 7.378)" gradientUnits="userSpaceOnUse"><stop stop-color="#FBA900" offset="0"/><stop stop-color="#FBB016" stop-opacity="0" offset=".71354"/></radialGradient><linearGradient id="k" x1="19.546" x2="14.608" y1="18.361" y2="20.861" gradientUnits="userSpaceOnUse"><stop stop-color="#FBEC6A" offset=".50784"/><stop stop-color="#FBEC6A" stop-opacity="0" offset="1"/></linearGradient><linearGradient id="j" x1="4.9205" x2="32.796" y1="3.6732" y2="21.173" gradientUnits="userSpaceOnUse"><stop stop-color="#FFF59F" offset=".67708"/><stop stop-color="#FFF38A" stop-opacity="0" offset="1"/></linearGradient></defs></svg>
