<svg fill="none" viewBox="0 0 32 32" xmlns="http://www.w3.org/2000/svg"><path d="m14.668 8.3198c0.2397-0.55149 0.3725-1.1601 0.3725-1.7998 0-2.4963-2.0236-4.52-4.52-4.52-2.4963 0-4.52 2.0237-4.52 4.52 0 1.0739 0.37448 2.0603 1 2.8357v0.64426c0.26999 0 0.45001 0.27 0.34 0.52l-3.81 8.63 5.38 2.2 5.76-13.03-0.0025-2.3e-4z" fill="#568831"/><path d="m14.668 8.3198c0.2397-0.55149 0.3725-1.1601 0.3725-1.7998 0-2.4963-2.0236-4.52-4.52-4.52-2.4963 0-4.52 2.0237-4.52 4.52 0 1.0739 0.37448 2.0603 1 2.8357v0.64426c0.26999 0 0.45001 0.27 0.34 0.52l-3.81 8.63 5.38 2.2 5.76-13.03-0.0025-2.3e-4z" fill="url(#ac)"/><path d="m14.668 8.3198c0.2397-0.55149 0.3725-1.1601 0.3725-1.7998 0-2.4963-2.0236-4.52-4.52-4.52-2.4963 0-4.52 2.0237-4.52 4.52 0 1.0739 0.37448 2.0603 1 2.8357v0.64426c0.26999 0 0.45001 0.27 0.34 0.52l-3.81 8.63 5.38 2.2 5.76-13.03-0.0025-2.3e-4z" fill="url(#r)"/><path d="m14.668 8.3198c0.2397-0.55149 0.3725-1.1601 0.3725-1.7998 0-2.4963-2.0236-4.52-4.52-4.52-2.4963 0-4.52 2.0237-4.52 4.52 0 1.0739 0.37448 2.0603 1 2.8357v0.64426c0.26999 0 0.45001 0.27 0.34 0.52l-3.81 8.63 5.38 2.2 5.76-13.03-0.0025-2.3e-4z" fill="url(#h)"/><path d="m14.668 8.3198c0.2397-0.55149 0.3725-1.1601 0.3725-1.7998 0-2.4963-2.0236-4.52-4.52-4.52-2.4963 0-4.52 2.0237-4.52 4.52 0 1.0739 0.37448 2.0603 1 2.8357v0.64426c0.26999 0 0.45001 0.27 0.34 0.52l-3.81 8.63 5.38 2.2 5.76-13.03-0.0025-2.3e-4z" fill="url(#g)"/><path d="m11.719 15 0.8828-2h-6.3616l-0.88 2h6.3588z" fill="url(#f)"/><path d="m11.719 15 0.8828-2h-6.3616l-0.88 2h6.3588z" fill="url(#e)"/><g filter="url(#ag)"><path d="m7 3.6799-2.21 2.47c-0.5 0.54-1.21 0.85-1.95 0.85h-0.33c-0.28 0-0.51 0.23-0.51 0.51 0 1.37 1.12 2.49 2.49 2.49h2.51v-6.32z" fill="url(#d)"/><path d="m7 3.6799-2.21 2.47c-0.5 0.54-1.21 0.85-1.95 0.85h-0.33c-0.28 0-0.51 0.23-0.51 0.51 0 1.37 1.12 2.49 2.49 2.49h2.51v-6.32z" fill="url(#c)"/><path d="m7 3.6799-2.21 2.47c-0.5 0.54-1.21 0.85-1.95 0.85h-0.33c-0.28 0-0.51 0.23-0.51 0.51 0 1.37 1.12 2.49 2.49 2.49h2.51v-6.32z" fill="url(#b)"/><path d="m7 3.6799-2.21 2.47c-0.5 0.54-1.21 0.85-1.95 0.85h-0.33c-0.28 0-0.51 0.23-0.51 0.51 0 1.37 1.12 2.49 2.49 2.49h2.51v-6.32z" fill="url(#a)"/></g><path d="m10.438 7.0156c0.2761 0 0.5-0.22385 0.5-0.5 0-0.27614-0.2239-0.5-0.5-0.5s-0.5 0.22386-0.5 0.5c0 0.27615 0.2239 0.5 0.5 0.5z" fill="url(#ab)"/><path d="m10.438 7.0156c0.2761 0 0.5-0.22385 0.5-0.5 0-0.27614-0.2239-0.5-0.5-0.5s-0.5 0.22386-0.5 0.5c0 0.27615 0.2239 0.5 0.5 0.5z" fill="url(#aa)"/><path d="m10.438 7.0156c0.2761 0 0.5-0.22385 0.5-0.5 0-0.27614-0.2239-0.5-0.5-0.5s-0.5 0.22386-0.5 0.5c0 0.27615 0.2239 0.5 0.5 0.5z" fill="url(#z)"/><path d="m27.43 13.57c-0.92 0.92-2.16 1.43-3.45 1.43h-18.62c-1.11 2.51-2.36 4.54-2.36 7 0 4.42 3.58 8 8 8h8c6.08 0 11-4.92 11-11v-4.36c0-1.34-1.62-2.01-2.57-1.07z" fill="url(#y)"/><path d="m27.43 13.57c-0.92 0.92-2.16 1.43-3.45 1.43h-18.62c-1.11 2.51-2.36 4.54-2.36 7 0 4.42 3.58 8 8 8h8c6.08 0 11-4.92 11-11v-4.36c0-1.34-1.62-2.01-2.57-1.07z" fill="url(#x)"/><path d="m27.43 13.57c-0.92 0.92-2.16 1.43-3.45 1.43h-18.62c-1.11 2.51-2.36 4.54-2.36 7 0 4.42 3.58 8 8 8h8c6.08 0 11-4.92 11-11v-4.36c0-1.34-1.62-2.01-2.57-1.07z" fill="url(#w)"/><path d="m27.43 13.57c-0.01 0.01 0 0.01 0 0-0.1683 0.1683-0.3441 0.3089-0.43 0.3831v5.0469c0 6.08-4.92 11-11 11h3c6.08 0 11-4.92 11-11v-4.36c0-1.34-1.62-2.01-2.57-1.07z" fill="url(#v)"/><path d="m27.43 13.57c-0.01 0.01 0 0.01 0 0-0.1683 0.1683-0.3441 0.3089-0.43 0.3831v5.0469c0 6.08-4.92 11-11 11h3c6.08 0 11-4.92 11-11v-4.36c0-1.34-1.62-2.01-2.57-1.07z" fill="url(#u)"/><path d="m27.43 13.57c-0.01 0.01 0 0.01 0 0-0.1683 0.1683-0.3441 0.3089-0.43 0.3831v5.0469c0 6.08-4.92 11-11 11h3c6.08 0 11-4.92 11-11v-4.36c0-1.34-1.62-2.01-2.57-1.07z" fill="url(#t)"/><g filter="url(#af)"><path d="M5.36 15C4.25 17.51 3 19.54 3 22C3 25.73 5.55 28.86 9 29.75V22.4C9 20.99 9.34 19.59 9.99 18.34L11.71 15H5.36Z" fill="url(#s)"/><path d="M5.36 15C4.25 17.51 3 19.54 3 22C3 25.73 5.55 28.86 9 29.75V22.4C9 20.99 9.34 19.59 9.99 18.34L11.71 15H5.36Z" fill="url(#q)"/><path d="M5.36 15C4.25 17.51 3 19.54 3 22C3 25.73 5.55 28.86 9 29.75V22.4C9 20.99 9.34 19.59 9.99 18.34L11.71 15H5.36Z" fill="url(#p)"/></g><g filter="url(#ae)"><path d="m26.997 13.955c-0.8587 0.6764-1.9197 1.0453-3.0169 1.0453h-12.27l-1.72 3.34c-0.20645 0.397-0.38162 0.8092-0.52457 1.232-0.2918 0.8631-0.29348 1.8044 0.00394 2.6655 0.96461 2.7929 3.3115 4.7625 6.0562 4.7625h4.8474c2.0427 0 4.124-0.7176 5.1488-2.4846 0.9402-1.6209 1.4782-3.5047 1.4782-5.5154v-4.39c0-0.0115-2e-4 -0.0607-6e-4 -0.1356-7e-4 -0.1223-0.0017-0.313-0.0025-0.5197z" fill="url(#o)"/><path d="m26.997 13.955c-0.8587 0.6764-1.9197 1.0453-3.0169 1.0453h-12.27l-1.72 3.34c-0.20645 0.397-0.38162 0.8092-0.52457 1.232-0.2918 0.8631-0.29348 1.8044 0.00394 2.6655 0.96461 2.7929 3.3115 4.7625 6.0562 4.7625h4.8474c2.0427 0 4.124-0.7176 5.1488-2.4846 0.9402-1.6209 1.4782-3.5047 1.4782-5.5154v-4.39c0-0.0115-2e-4 -0.0607-6e-4 -0.1356-7e-4 -0.1223-0.0017-0.313-0.0025-0.5197z" fill="url(#n)"/><path d="m26.997 13.955c-0.8587 0.6764-1.9197 1.0453-3.0169 1.0453h-12.27l-1.72 3.34c-0.20645 0.397-0.38162 0.8092-0.52457 1.232-0.2918 0.8631-0.29348 1.8044 0.00394 2.6655 0.96461 2.7929 3.3115 4.7625 6.0562 4.7625h4.8474c2.0427 0 4.124-0.7176 5.1488-2.4846 0.9402-1.6209 1.4782-3.5047 1.4782-5.5154v-4.39c0-0.0115-2e-4 -0.0607-6e-4 -0.1356-7e-4 -0.1223-0.0017-0.313-0.0025-0.5197z" fill="url(#m)"/><path d="m26.997 13.955c-0.8587 0.6764-1.9197 1.0453-3.0169 1.0453h-12.27l-1.72 3.34c-0.20645 0.397-0.38162 0.8092-0.52457 1.232-0.2918 0.8631-0.29348 1.8044 0.00394 2.6655 0.96461 2.7929 3.3115 4.7625 6.0562 4.7625h4.8474c2.0427 0 4.124-0.7176 5.1488-2.4846 0.9402-1.6209 1.4782-3.5047 1.4782-5.5154v-4.39c0-0.0115-2e-4 -0.0607-6e-4 -0.1356-7e-4 -0.1223-0.0017-0.313-0.0025-0.5197z" fill="url(#l)"/><path d="m26.997 13.955c-0.8587 0.6764-1.9197 1.0453-3.0169 1.0453h-12.27l-1.72 3.34c-0.20645 0.397-0.38162 0.8092-0.52457 1.232-0.2918 0.8631-0.29348 1.8044 0.00394 2.6655 0.96461 2.7929 3.3115 4.7625 6.0562 4.7625h4.8474c2.0427 0 4.124-0.7176 5.1488-2.4846 0.9402-1.6209 1.4782-3.5047 1.4782-5.5154v-4.39c0-0.0115-2e-4 -0.0607-6e-4 -0.1356-7e-4 -0.1223-0.0017-0.313-0.0025-0.5197z" fill="url(#k)"/></g><path d="m26.997 13.955c-0.8587 0.6764-1.9197 1.0453-3.0169 1.0453h-12.27l-1.72 3.34c-0.20645 0.397-0.38162 0.8092-0.52457 1.232-0.2918 0.8631-0.29348 1.8044 0.00394 2.6655 0.96461 2.7929 3.3115 4.7625 6.0562 4.7625h4.8474c2.0427 0 4.124-0.7176 5.1488-2.4846 0.9402-1.6209 1.4782-3.5047 1.4782-5.5154v-4.39c0-0.0115-2e-4 -0.0607-6e-4 -0.1356-7e-4 -0.1223-0.0017-0.313-0.0025-0.5197z" fill="url(#j)"/><g filter="url(#ad)"><path d="m10.438 12.094 2.3437-5.625h1.5938l-2.3168 5.625h-1.6207z" fill="url(#i)"/></g><defs><filter id="ag" x="2" y="3.5299" width="5.05" height="6.47" color-interpolation-filters="sRGB" filterUnits="userSpaceOnUse"><feFlood flood-opacity="0" result="BackgroundImageFix"/><feBlend in="SourceGraphic" in2="BackgroundImageFix" result="shape"/><feColorMatrix in="SourceAlpha" result="hardAlpha" values="0 0 0 0 0 0 0 0 0 0 0 0 0 0 0 0 0 0 127 0"/><feOffset dx="0.05" dy="-0.15"/><feGaussianBlur stdDeviation="0.175"/><feComposite in2="hardAlpha" k2="-1" k3="1" operator="arithmetic"/><feColorMatrix values="0 0 0 0 0.804167 0 0 0 0 0.580149 0 0 0 0 0.281458 0 0 0 1 0"/><feBlend in2="shape" result="effect1_innerShadow_28327_4986"/></filter><filter id="af" x="3" y="15" width="8.96" height="14.75" color-interpolation-filters="sRGB" filterUnits="userSpaceOnUse"><feFlood flood-opacity="0" result="BackgroundImageFix"/><feBlend in="SourceGraphic" in2="BackgroundImageFix" result="shape"/><feColorMatrix in="SourceAlpha" result="hardAlpha" values="0 0 0 0 0 0 0 0 0 0 0 0 0 0 0 0 0 0 127 0"/><feOffset dx="0.25"/><feGaussianBlur stdDeviation="0.5"/><feComposite in2="hardAlpha" k2="-1" k3="1" operator="arithmetic"/><feColorMatrix values="0 0 0 0 0.325 0 0 0 0 0.214519 0 0 0 0 0.201771 0 0 0 1 0"/><feBlend in2="shape" result="effect1_innerShadow_28327_4986"/></filter><filter id="ae" x="9.2465" y="13.805" width="17.854" height="13.195" color-interpolation-filters="sRGB" filterUnits="userSpaceOnUse"><feFlood flood-opacity="0" result="BackgroundImageFix"/><feBlend in="SourceGraphic" in2="BackgroundImageFix" result="shape"/><feColorMatrix in="SourceAlpha" result="hardAlpha" values="0 0 0 0 0 0 0 0 0 0 0 0 0 0 0 0 0 0 127 0"/><feOffset dx="0.1" dy="-0.15"/><feGaussianBlur stdDeviation="0.2"/><feComposite in2="hardAlpha" k2="-1" k3="1" operator="arithmetic"/><feColorMatrix values="0 0 0 0 0.592875 0 0 0 0 0.535503 0 0 0 0 0.645833 0 0 0 1 0"/><feBlend in2="shape" result="effect1_innerShadow_28327_4986"/></filter><filter id="ad" x="9.4375" y="5.4688" width="5.9375" height="7.625" color-interpolation-filters="sRGB" filterUnits="userSpaceOnUse"><feFlood flood-opacity="0" result="BackgroundImageFix"/><feBlend in="SourceGraphic" in2="BackgroundImageFix" result="shape"/><feGaussianBlur result="effect1_foregroundBlur_28327_4986" stdDeviation="0.5"/></filter><radialGradient id="ac" cx="0" cy="0" r="1" gradientTransform="translate(14.5 3.8125) rotate(126.98) scale(6.65 7.1986)" gradientUnits="userSpaceOnUse"><stop stop-color="#71A650" offset="0"/><stop stop-color="#71A650" stop-opacity="0" offset="1"/></radialGradient><radialGradient id="r" cx="0" cy="0" r="1" gradientTransform="translate(10.812 9.2812) rotate(-86.912) scale(7.5422 6.9392)" gradientUnits="userSpaceOnUse"><stop stop-color="#71A650" stop-opacity="0" offset=".8684"/><stop stop-color="#71A650" offset="1"/></radialGradient><radialGradient id="h" cx="0" cy="0" r="1" gradientTransform="translate(6.4375 11.5) rotate(119.17) scale(3.0778 1.5751)" gradientUnits="userSpaceOnUse"><stop stop-color="#4C6634" offset="0"/><stop stop-color="#4C6634" stop-opacity="0" offset="1"/></radialGradient><radialGradient id="g" cx="0" cy="0" r="1" gradientTransform="translate(18.625 9.3125) rotate(181.18) scale(6.0638 6.2065)" gradientUnits="userSpaceOnUse"><stop stop-color="#4C6634" offset="0"/><stop stop-color="#4C6634" stop-opacity="0" offset="1"/></radialGradient><linearGradient id="f" x1="5.36" x2="11.5" y1="15" y2="15" gradientUnits="userSpaceOnUse"><stop stop-color="#B0ABAE" offset="0"/><stop stop-color="#D9CFE3" offset=".6081"/><stop stop-color="#E2D9EB" offset="1"/></linearGradient><linearGradient id="e" x1="12.938" x2="11.188" y1="15.5" y2="15" gradientUnits="userSpaceOnUse"><stop stop-color="#B0ABAE" offset="0"/><stop stop-color="#B0ABAE" stop-opacity="0" offset="1"/></linearGradient><radialGradient id="d" cx="0" cy="0" r="1" gradientTransform="translate(3.7812 7.6249) scale(5.8125 5.4375)" gradientUnits="userSpaceOnUse"><stop stop-color="#FAC252" offset="0"/><stop stop-color="#D2A776" offset="1"/></radialGradient><linearGradient id="c" x1="4.5938" x2="4.6406" y1="10.516" y2="9.6249" gradientUnits="userSpaceOnUse"><stop stop-color="#C9A37D" offset="0"/><stop stop-color="#C9A37D" stop-opacity="0" offset="1"/></linearGradient><linearGradient id="b" x1="7" x2="6.1562" y1="2.9687" y2="6.2499" gradientUnits="userSpaceOnUse"><stop stop-color="#E3B651" offset="0"/><stop stop-color="#E3B651" stop-opacity="0" offset="1"/></linearGradient><radialGradient id="a" cx="0" cy="0" r="1" gradientTransform="translate(2.5 6.4374) rotate(16.06) scale(6.4388 2.7873)" gradientUnits="userSpaceOnUse"><stop stop-color="#FFDA66" offset="0"/><stop stop-color="#FFDA66" stop-opacity="0" offset="1"/></radialGradient><radialGradient id="ab" cx="0" cy="0" r="1" gradientTransform="translate(10.586 6.3547) rotate(125.84) scale(.69386 .61861)" gradientUnits="userSpaceOnUse"><stop stop-color="#433437" offset=".0055866"/><stop stop-color="#3B2838" offset="1"/></radialGradient><radialGradient id="aa" cx="0" cy="0" r="1" gradientTransform="translate(10.624 6.3906) rotate(137.64) scale(.35946 .31624)" gradientUnits="userSpaceOnUse"><stop stop-color="#5C5051" offset="0"/><stop stop-color="#5C5051" stop-opacity="0" offset="1"/></radialGradient><linearGradient id="z" x1="10.339" x2="9.9954" y1="6.1229" y2="5.9042" gradientUnits="userSpaceOnUse"><stop stop-color="#5C5051" stop-opacity="0" offset="0"/><stop stop-color="#5C5051" offset="1"/></linearGradient><linearGradient id="y" x1="18.812" x2="18.812" y1="33.75" y2="27" gradientUnits="userSpaceOnUse"><stop stop-color="#997BB6" offset=".25472"/><stop stop-color="#BBAACA" offset="1"/></linearGradient><radialGradient id="x" cx="0" cy="0" r="1" gradientTransform="translate(16.5 23.062) rotate(90) scale(5.9375 6.375)" gradientUnits="userSpaceOnUse"><stop stop-color="#A58CBE" offset=".45263"/><stop stop-color="#A58CBE" stop-opacity="0" offset="1"/></radialGradient><linearGradient id="w" x1="15.688" x2="15.688" y1="32.938" y2="28.938" gradientUnits="userSpaceOnUse"><stop stop-color="#8E70A9" offset="0"/><stop stop-color="#8E70A9" stop-opacity="0" offset="1"/></linearGradient><linearGradient id="v" x1="26.125" x2="28.062" y1="29.062" y2="16.875" gradientUnits="userSpaceOnUse"><stop stop-color="#9883AD" offset="0"/><stop stop-color="#F8F5FC" offset="1"/></linearGradient><radialGradient id="u" cx="0" cy="0" r="1" gradientTransform="translate(31.438 19.125) rotate(180) scale(2.875 6.9375)" gradientUnits="userSpaceOnUse"><stop stop-color="#E7E4EA" offset="0"/><stop stop-color="#D8D4DD" offset="1e-4"/><stop stop-color="#D8D4DD" stop-opacity="0" offset="1"/></radialGradient><radialGradient id="t" cx="0" cy="0" r="1" gradientTransform="translate(26.125 15.375) rotate(15.124) scale(2.3955 5.1611)" gradientUnits="userSpaceOnUse"><stop stop-color="#E7E4EA" offset="0"/><stop stop-color="#D8D4DD" offset="1e-4"/><stop stop-color="#D8D4DD" stop-opacity="0" offset=".88428"/></radialGradient><linearGradient id="s" x1="7.355" x2="7.3533" y1="13.812" y2="33.52" gradientUnits="userSpaceOnUse"><stop stop-color="#794E49" offset="0"/><stop stop-color="#5B2A3F" offset="1"/></linearGradient><radialGradient id="q" cx="0" cy="0" r="1" gradientTransform="translate(11.469 16.875) rotate(206.19) scale(2.1243 3.54)" gradientUnits="userSpaceOnUse"><stop stop-color="#87645F" offset="0"/><stop stop-color="#87645F" stop-opacity="0" offset="1"/></radialGradient><radialGradient id="p" cx="0" cy="0" r="1" gradientTransform="translate(12.75 17.172) rotate(205.45) scale(2.5091 9.6963)" gradientUnits="userSpaceOnUse"><stop stop-color="#533733" offset=".44097"/><stop stop-color="#533733" stop-opacity="0" offset="1"/></radialGradient><linearGradient id="o" x1="27.375" x2="17.062" y1="13.25" y2="27.375" gradientUnits="userSpaceOnUse"><stop stop-color="#EBE7F0" offset="0"/><stop stop-color="#CFC3DD" offset="1"/></linearGradient><radialGradient id="n" cx="0" cy="0" r="1" gradientTransform="translate(1.8125 33.375) rotate(-40.601) scale(21.896 22.49)" gradientUnits="userSpaceOnUse"><stop stop-color="#988BA4" offset="0"/><stop stop-color="#988BA4" stop-opacity="0" offset=".73528"/></radialGradient><radialGradient id="m" cx="0" cy="0" r="1" gradientTransform="translate(25.125 8.5001) rotate(127.4) scale(26.751 21.061)" gradientUnits="userSpaceOnUse"><stop stop-color="#988BA4" stop-opacity="0" offset=".56976"/><stop stop-color="#988BA4" offset="1"/></radialGradient><radialGradient id="l" cx="0" cy="0" r="1" gradientTransform="translate(27.688 13.063) rotate(116.79) scale(7.2114 7.2108)" gradientUnits="userSpaceOnUse"><stop stop-color="#F5F1FA" offset="0"/><stop stop-color="#F5F1FA" stop-opacity="0" offset="1"/></radialGradient><radialGradient id="k" cx="0" cy="0" r="1" gradientTransform="translate(24.75 13.955) rotate(170.79) scale(10.827 5.276)" gradientUnits="userSpaceOnUse"><stop stop-color="#F5F1FA" offset="0"/><stop stop-color="#F5F1FA" stop-opacity="0" offset="1"/></radialGradient><radialGradient id="j" cx="0" cy="0" r="1" gradientTransform="translate(28.375 12.625) rotate(130.77) scale(8.9959 4.3837)" gradientUnits="userSpaceOnUse"><stop stop-color="#F5F1FA" offset="0"/><stop stop-color="#F5F1FA" stop-opacity="0" offset="1"/></radialGradient><linearGradient id="i" x1="11.484" x2="13.906" y1="11.375" y2="5.8906" gradientUnits="userSpaceOnUse"><stop stop-color="#629440" offset="0"/><stop stop-color="#629440" stop-opacity="0" offset="1"/></linearGradient></defs></svg>
