<svg fill="none" viewBox="0 0 32 32" xmlns="http://www.w3.org/2000/svg"><g filter="url(#x)"><path d="m26.545 15.699c0-1.63 0.39-3.24 1.04-4.73 0.19-0.44 0.3-0.92 0.3-1.43 0-2.07-1.75-3.73-3.85-3.58-1.78 0.12-3.22 1.57-3.33 3.35-0.04 0.61 0.08 1.19 0.31 1.71 0.64 1.41 1.02 2.93 1.02 4.48v0.2c0 0.92-0.38 1.8-1.04 2.44l-0.29 0.28c-2.78 2.66-2.81 7.09-0.08 9.8l1.51 1.49c0.13 0.13 0.32 0.21 0.51 0.21h3.32c0.19 0 0.37-0.07 0.51-0.21l1.51-1.5c2.74-2.71 2.7-7.14-0.08-9.8l-0.3-0.28c-0.69-0.63-1.06-1.51-1.06-2.43z" fill="#DAD4E3"/><path d="m26.545 15.699c0-1.63 0.39-3.24 1.04-4.73 0.19-0.44 0.3-0.92 0.3-1.43 0-2.07-1.75-3.73-3.85-3.58-1.78 0.12-3.22 1.57-3.33 3.35-0.04 0.61 0.08 1.19 0.31 1.71 0.64 1.41 1.02 2.93 1.02 4.48v0.2c0 0.92-0.38 1.8-1.04 2.44l-0.29 0.28c-2.78 2.66-2.81 7.09-0.08 9.8l1.51 1.49c0.13 0.13 0.32 0.21 0.51 0.21h3.32c0.19 0 0.37-0.07 0.51-0.21l1.51-1.5c2.74-2.71 2.7-7.14-0.08-9.8l-0.3-0.28c-0.69-0.63-1.06-1.51-1.06-2.43z" fill="url(#u)"/><path d="m26.545 15.699c0-1.63 0.39-3.24 1.04-4.73 0.19-0.44 0.3-0.92 0.3-1.43 0-2.07-1.75-3.73-3.85-3.58-1.78 0.12-3.22 1.57-3.33 3.35-0.04 0.61 0.08 1.19 0.31 1.71 0.64 1.41 1.02 2.93 1.02 4.48v0.2c0 0.92-0.38 1.8-1.04 2.44l-0.29 0.28c-2.78 2.66-2.81 7.09-0.08 9.8l1.51 1.49c0.13 0.13 0.32 0.21 0.51 0.21h3.32c0.19 0 0.37-0.07 0.51-0.21l1.51-1.5c2.74-2.71 2.7-7.14-0.08-9.8l-0.3-0.28c-0.69-0.63-1.06-1.51-1.06-2.43z" fill="url(#j)"/></g><path d="m26.545 15.699c0-1.63 0.39-3.24 1.04-4.73 0.19-0.44 0.3-0.92 0.3-1.43 0-2.07-1.75-3.73-3.85-3.58-1.78 0.12-3.22 1.57-3.33 3.35-0.04 0.61 0.08 1.19 0.31 1.71 0.64 1.41 1.02 2.93 1.02 4.48v0.2c0 0.92-0.38 1.8-1.04 2.44l-0.29 0.28c-2.78 2.66-2.81 7.09-0.08 9.8l1.51 1.49c0.13 0.13 0.32 0.21 0.51 0.21h3.32c0.19 0 0.37-0.07 0.51-0.21l1.51-1.5c2.74-2.71 2.7-7.14-0.08-9.8l-0.3-0.28c-0.69-0.63-1.06-1.51-1.06-2.43z" fill="url(#h)"/><path d="m26.545 15.699c0-1.63 0.39-3.24 1.04-4.73 0.19-0.44 0.3-0.92 0.3-1.43 0-2.07-1.75-3.73-3.85-3.58-1.78 0.12-3.22 1.57-3.33 3.35-0.04 0.61 0.08 1.19 0.31 1.71 0.64 1.41 1.02 2.93 1.02 4.48v0.2c0 0.92-0.38 1.8-1.04 2.44l-0.29 0.28c-2.78 2.66-2.81 7.09-0.08 9.8l1.51 1.49c0.13 0.13 0.32 0.21 0.51 0.21h3.32c0.19 0 0.37-0.07 0.51-0.21l1.51-1.5c2.74-2.71 2.7-7.14-0.08-9.8l-0.3-0.28c-0.69-0.63-1.06-1.51-1.06-2.43z" fill="url(#g)"/><path d="m26.545 15.699c0-1.63 0.39-3.24 1.04-4.73 0.19-0.44 0.3-0.92 0.3-1.43 0-2.07-1.75-3.73-3.85-3.58-1.78 0.12-3.22 1.57-3.33 3.35-0.04 0.61 0.08 1.19 0.31 1.71 0.64 1.41 1.02 2.93 1.02 4.48v0.2c0 0.92-0.38 1.8-1.04 2.44l-0.29 0.28c-2.78 2.66-2.81 7.09-0.08 9.8l1.51 1.49c0.13 0.13 0.32 0.21 0.51 0.21h3.32c0.19 0 0.37-0.07 0.51-0.21l1.51-1.5c2.74-2.71 2.7-7.14-0.08-9.8l-0.3-0.28c-0.69-0.63-1.06-1.51-1.06-2.43z" fill="url(#f)"/><path d="m26.545 15.699c0-1.63 0.39-3.24 1.04-4.73 0.19-0.44 0.3-0.92 0.3-1.43 0-2.07-1.75-3.73-3.85-3.58-1.78 0.12-3.22 1.57-3.33 3.35-0.04 0.61 0.08 1.19 0.31 1.71 0.64 1.41 1.02 2.93 1.02 4.48v0.2c0 0.92-0.38 1.8-1.04 2.44l-0.29 0.28c-2.78 2.66-2.81 7.09-0.08 9.8l1.51 1.49c0.13 0.13 0.32 0.21 0.51 0.21h3.32c0.19 0 0.37-0.07 0.51-0.21l1.51-1.5c2.74-2.71 2.7-7.14-0.08-9.8l-0.3-0.28c-0.69-0.63-1.06-1.51-1.06-2.43z" fill="url(#e)"/><path d="m26.545 15.699c0-1.63 0.39-3.24 1.04-4.73 0.19-0.44 0.3-0.92 0.3-1.43 0-2.07-1.75-3.73-3.85-3.58-1.78 0.12-3.22 1.57-3.33 3.35-0.04 0.61 0.08 1.19 0.31 1.71 0.64 1.41 1.02 2.93 1.02 4.48v0.2c0 0.92-0.38 1.8-1.04 2.44l-0.29 0.28c-2.78 2.66-2.81 7.09-0.08 9.8l1.51 1.49c0.13 0.13 0.32 0.21 0.51 0.21h3.32c0.19 0 0.37-0.07 0.51-0.21l1.51-1.5c2.74-2.71 2.7-7.14-0.08-9.8l-0.3-0.28c-0.69-0.63-1.06-1.51-1.06-2.43z" fill="url(#d)"/><path d="m26.885 13.039h-5.17c0.11 0.44 0.2 0.89 0.25 1.34h4.67c0.05-0.45 0.14-0.89 0.25-1.34z" fill="url(#c)"/><path d="m26.755 16.829c-0.13-0.36-0.21-0.74-0.21-1.14 0-0.07 0.01-0.13 0.01-0.2h-4.53v0.2c0 0.39-0.08 0.77-0.21 1.14h4.94z" fill="url(#b)"/><g filter="url(#w)"><path d="m18.615 15.699c0-1.63 0.39-3.24 1.04-4.73 0.19-0.44 0.3-0.92 0.3-1.43 0-2.07-1.75-3.73-3.85-3.58-1.78 0.12-3.22 1.57-3.33 3.35-0.04 0.61 0.08 1.19 0.31 1.71 0.64 1.41 1.02 2.93 1.02 4.48v0.2c0 0.92-0.38 1.8-1.04 2.44l-0.29 0.28c-2.78 2.66-2.81 7.09-0.08 9.8l1.51 1.49c0.13 0.13 0.32 0.21 0.51 0.21h3.32c0.19 0 0.37-0.07 0.51-0.21l1.51-1.5c2.74-2.71 2.7-7.14-0.08-9.8l-0.3-0.28c-0.68-0.63-1.06-1.51-1.06-2.43z" fill="#DAD4E3"/><path d="m18.615 15.699c0-1.63 0.39-3.24 1.04-4.73 0.19-0.44 0.3-0.92 0.3-1.43 0-2.07-1.75-3.73-3.85-3.58-1.78 0.12-3.22 1.57-3.33 3.35-0.04 0.61 0.08 1.19 0.31 1.71 0.64 1.41 1.02 2.93 1.02 4.48v0.2c0 0.92-0.38 1.8-1.04 2.44l-0.29 0.28c-2.78 2.66-2.81 7.09-0.08 9.8l1.51 1.49c0.13 0.13 0.32 0.21 0.51 0.21h3.32c0.19 0 0.37-0.07 0.51-0.21l1.51-1.5c2.74-2.71 2.7-7.14-0.08-9.8l-0.3-0.28c-0.68-0.63-1.06-1.51-1.06-2.43z" fill="url(#a)"/><path d="m18.615 15.699c0-1.63 0.39-3.24 1.04-4.73 0.19-0.44 0.3-0.92 0.3-1.43 0-2.07-1.75-3.73-3.85-3.58-1.78 0.12-3.22 1.57-3.33 3.35-0.04 0.61 0.08 1.19 0.31 1.71 0.64 1.41 1.02 2.93 1.02 4.48v0.2c0 0.92-0.38 1.8-1.04 2.44l-0.29 0.28c-2.78 2.66-2.81 7.09-0.08 9.8l1.51 1.49c0.13 0.13 0.32 0.21 0.51 0.21h3.32c0.19 0 0.37-0.07 0.51-0.21l1.51-1.5c2.74-2.71 2.7-7.14-0.08-9.8l-0.3-0.28c-0.68-0.63-1.06-1.51-1.06-2.43z" fill="url(#t)"/></g><path d="m18.615 15.699c0-1.63 0.39-3.24 1.04-4.73 0.19-0.44 0.3-0.92 0.3-1.43 0-2.07-1.75-3.73-3.85-3.58-1.78 0.12-3.22 1.57-3.33 3.35-0.04 0.61 0.08 1.19 0.31 1.71 0.64 1.41 1.02 2.93 1.02 4.48v0.2c0 0.92-0.38 1.8-1.04 2.44l-0.29 0.28c-2.78 2.66-2.81 7.09-0.08 9.8l1.51 1.49c0.13 0.13 0.32 0.21 0.51 0.21h3.32c0.19 0 0.37-0.07 0.51-0.21l1.51-1.5c2.74-2.71 2.7-7.14-0.08-9.8l-0.3-0.28c-0.68-0.63-1.06-1.51-1.06-2.43z" fill="url(#s)"/><path d="m18.615 15.699c0-1.63 0.39-3.24 1.04-4.73 0.19-0.44 0.3-0.92 0.3-1.43 0-2.07-1.75-3.73-3.85-3.58-1.78 0.12-3.22 1.57-3.33 3.35-0.04 0.61 0.08 1.19 0.31 1.71 0.64 1.41 1.02 2.93 1.02 4.48v0.2c0 0.92-0.38 1.8-1.04 2.44l-0.29 0.28c-2.78 2.66-2.81 7.09-0.08 9.8l1.51 1.49c0.13 0.13 0.32 0.21 0.51 0.21h3.32c0.19 0 0.37-0.07 0.51-0.21l1.51-1.5c2.74-2.71 2.7-7.14-0.08-9.8l-0.3-0.28c-0.68-0.63-1.06-1.51-1.06-2.43z" fill="url(#r)"/><path d="m18.615 15.699c0-1.63 0.39-3.24 1.04-4.73 0.19-0.44 0.3-0.92 0.3-1.43 0-2.07-1.75-3.73-3.85-3.58-1.78 0.12-3.22 1.57-3.33 3.35-0.04 0.61 0.08 1.19 0.31 1.71 0.64 1.41 1.02 2.93 1.02 4.48v0.2c0 0.92-0.38 1.8-1.04 2.44l-0.29 0.28c-2.78 2.66-2.81 7.09-0.08 9.8l1.51 1.49c0.13 0.13 0.32 0.21 0.51 0.21h3.32c0.19 0 0.37-0.07 0.51-0.21l1.51-1.5c2.74-2.71 2.7-7.14-0.08-9.8l-0.3-0.28c-0.68-0.63-1.06-1.51-1.06-2.43z" fill="url(#q)"/><path d="m18.615 15.699c0-1.63 0.39-3.24 1.04-4.73 0.19-0.44 0.3-0.92 0.3-1.43 0-2.07-1.75-3.73-3.85-3.58-1.78 0.12-3.22 1.57-3.33 3.35-0.04 0.61 0.08 1.19 0.31 1.71 0.64 1.41 1.02 2.93 1.02 4.48v0.2c0 0.92-0.38 1.8-1.04 2.44l-0.29 0.28c-2.78 2.66-2.81 7.09-0.08 9.8l1.51 1.49c0.13 0.13 0.32 0.21 0.51 0.21h3.32c0.19 0 0.37-0.07 0.51-0.21l1.51-1.5c2.74-2.71 2.7-7.14-0.08-9.8l-0.3-0.28c-0.68-0.63-1.06-1.51-1.06-2.43z" fill="url(#p)"/><path d="m18.955 13.039h-5.17c0.11 0.44 0.2 0.89 0.25 1.34h4.67c0.06-0.45 0.14-0.89 0.25-1.34z" fill="url(#o)"/><path d="m18.835 16.829c-0.13-0.36-0.21-0.74-0.21-1.14 0-0.07 0.01-0.13 0.01-0.2h-4.53v0.2c0 0.39-0.08 0.77-0.21 1.14h4.94z" fill="url(#n)"/><g filter="url(#v)"><path d="m9.0049 29.969c3.877 0 7.02-3.1429 7.02-7.02 0-3.877-3.143-7.02-7.02-7.02s-7.02 3.143-7.02 7.02c0 3.8771 3.143 7.02 7.02 7.02z" fill="url(#m)"/></g><path d="m7.1648 22.649c0.62408 0 1.13-0.5059 1.13-1.13s-0.50592-1.13-1.13-1.13-1.13 0.5059-1.13 1.13 0.50592 1.13 1.13 1.13z" fill="url(#l)"/><path d="m10.845 22.649c0.6241 0 1.13-0.5059 1.13-1.13s-0.5059-1.13-1.13-1.13c-0.624 0-1.13 0.5059-1.13 1.13s0.50596 1.13 1.13 1.13z" fill="url(#k)"/><path d="m9.0948 19.819c0.62409 0 1.13-0.5059 1.13-1.13s-0.50587-1.13-1.13-1.13c-0.62408 0-1.13 0.5059-1.13 1.13s0.50592 1.13 1.13 1.13z" fill="url(#i)"/><defs><filter id="x" x="18.598" y="5.95" width="12.417" height="23.969" color-interpolation-filters="sRGB" filterUnits="userSpaceOnUse"><feFlood flood-opacity="0" result="BackgroundImageFix"/><feBlend in="SourceGraphic" in2="BackgroundImageFix" result="shape"/><feColorMatrix in="SourceAlpha" result="hardAlpha" values="0 0 0 0 0 0 0 0 0 0 0 0 0 0 0 0 0 0 127 0"/><feOffset dx="1"/><feGaussianBlur stdDeviation="1"/><feComposite in2="hardAlpha" k2="-1" k3="1" operator="arithmetic"/><feColorMatrix values="0 0 0 0 0.690196 0 0 0 0 0.686275 0 0 0 0 0.698039 0 0 0 1 0"/><feBlend in2="shape" result="effect1_innerShadow_18_2431"/></filter><filter id="w" x="10.668" y="5.95" width="12.417" height="23.969" color-interpolation-filters="sRGB" filterUnits="userSpaceOnUse"><feFlood flood-opacity="0" result="BackgroundImageFix"/><feBlend in="SourceGraphic" in2="BackgroundImageFix" result="shape"/><feColorMatrix in="SourceAlpha" result="hardAlpha" values="0 0 0 0 0 0 0 0 0 0 0 0 0 0 0 0 0 0 127 0"/><feOffset dx="1"/><feGaussianBlur stdDeviation="1"/><feComposite in2="hardAlpha" k2="-1" k3="1" operator="arithmetic"/><feColorMatrix values="0 0 0 0 0.690196 0 0 0 0 0.686275 0 0 0 0 0.698039 0 0 0 1 0"/><feBlend in2="shape" result="effect1_innerShadow_18_2431"/></filter><filter id="v" x="1.7349" y="15.679" width="14.54" height="14.29" color-interpolation-filters="sRGB" filterUnits="userSpaceOnUse"><feFlood flood-opacity="0" result="BackgroundImageFix"/><feBlend in="SourceGraphic" in2="BackgroundImageFix" result="shape"/><feColorMatrix in="SourceAlpha" result="hardAlpha" values="0 0 0 0 0 0 0 0 0 0 0 0 0 0 0 0 0 0 127 0"/><feOffset dx="-0.25"/><feGaussianBlur stdDeviation="0.5"/><feComposite in2="hardAlpha" k2="-1" k3="1" operator="arithmetic"/><feColorMatrix values="0 0 0 0 0.537255 0 0 0 0 0.521569 0 0 0 0 0.780392 0 0 0 1 0"/><feBlend in2="shape" result="effect1_innerShadow_18_2431"/><feColorMatrix in="SourceAlpha" result="hardAlpha" values="0 0 0 0 0 0 0 0 0 0 0 0 0 0 0 0 0 0 127 0"/><feOffset dx="0.25" dy="-0.25"/><feGaussianBlur stdDeviation="0.25"/><feComposite in2="hardAlpha" k2="-1" k3="1" operator="arithmetic"/><feColorMatrix values="0 0 0 0 0.376471 0 0 0 0 0.215686 0 0 0 0 0.521569 0 0 0 1 0"/><feBlend in2="effect1_innerShadow_18_2431" result="effect2_innerShadow_18_2431"/></filter><radialGradient id="u" cx="0" cy="0" r="1" gradientTransform="translate(27.872 7.594) rotate(151.02) scale(5.521 4.503)" gradientUnits="userSpaceOnUse"><stop stop-color="#FAF9FD" offset="0"/><stop stop-color="#FAF9FD" stop-opacity="0" offset="1"/></radialGradient><radialGradient id="j" cx="0" cy="0" r="1" gradientTransform="translate(30.015 20.448) rotate(165.41) scale(5.8986 7.956)" gradientUnits="userSpaceOnUse"><stop stop-color="#FAF9FD" offset=".16182"/><stop stop-color="#FAF9FD" stop-opacity="0" offset="1"/></radialGradient><radialGradient id="h" cx="0" cy="0" r="1" gradientTransform="translate(19.152 30.727) rotate(-27.646) scale(9.229 9.4068)" gradientUnits="userSpaceOnUse"><stop stop-color="#B07ED9" offset=".13514"/><stop stop-color="#B07ED9" stop-opacity="0" offset="1"/></radialGradient><linearGradient id="g" x1="24.804" x2="24.804" y1="30.035" y2="29.634" gradientUnits="userSpaceOnUse"><stop stop-color="#AA7DD2" offset="0"/><stop stop-color="#AA7DD2" stop-opacity="0" offset="1"/></linearGradient><radialGradient id="f" cx="0" cy="0" r="1" gradientTransform="translate(26.808 13.209) rotate(203.87) scale(4.0088 2.8454)" gradientUnits="userSpaceOnUse"><stop stop-color="#DDD1EB" offset="0"/><stop stop-color="#DDD1EB" stop-opacity="0" offset="1"/></radialGradient><radialGradient id="e" cx="0" cy="0" r="1" gradientTransform="translate(19.624 26.169) rotate(13.392) scale(3.0297 4.501)" gradientUnits="userSpaceOnUse"><stop stop-color="#B192CD" offset=".49134"/><stop stop-color="#B192CD" stop-opacity="0" offset="1"/></radialGradient><radialGradient id="d" cx="0" cy="0" r="1" gradientTransform="translate(28.676 6.8717) rotate(150.66) scale(5.0126 4.0883)" gradientUnits="userSpaceOnUse"><stop stop-color="#FAF9FD" offset="0"/><stop stop-color="#FAF9FD" stop-opacity="0" offset="1"/></radialGradient><linearGradient id="c" x1="23.01" x2="26.095" y1="14.379" y2="14.379" gradientUnits="userSpaceOnUse"><stop stop-color="#D72B4D" offset="0"/><stop stop-color="#FF5694" offset="1"/></linearGradient><linearGradient id="b" x1="23.052" x2="26" y1="16.829" y2="16.829" gradientUnits="userSpaceOnUse"><stop stop-color="#D8324D" offset="0"/><stop stop-color="#FF5694" offset="1"/></linearGradient><radialGradient id="a" cx="0" cy="0" r="1" gradientTransform="translate(19.942 7.594) rotate(151.02) scale(5.521 4.503)" gradientUnits="userSpaceOnUse"><stop stop-color="#FAF9FD" offset="0"/><stop stop-color="#FAF9FD" stop-opacity="0" offset="1"/></radialGradient><radialGradient id="t" cx="0" cy="0" r="1" gradientTransform="translate(22.085 20.448) rotate(165.41) scale(5.8986 7.956)" gradientUnits="userSpaceOnUse"><stop stop-color="#FAF9FD" offset=".16182"/><stop stop-color="#FAF9FD" stop-opacity="0" offset="1"/></radialGradient><radialGradient id="s" cx="0" cy="0" r="1" gradientTransform="translate(11.222 30.727) rotate(-27.646) scale(9.229 9.4068)" gradientUnits="userSpaceOnUse"><stop stop-color="#A87AD0" offset=".13514"/><stop stop-color="#A87AD0" stop-opacity="0" offset="1"/></radialGradient><linearGradient id="r" x1="16.874" x2="16.874" y1="30.035" y2="29.634" gradientUnits="userSpaceOnUse"><stop stop-color="#AA7DD2" offset="0"/><stop stop-color="#AA7DD2" stop-opacity="0" offset="1"/></linearGradient><radialGradient id="q" cx="0" cy="0" r="1" gradientTransform="translate(18.878 13.209) rotate(203.87) scale(4.0088 2.8454)" gradientUnits="userSpaceOnUse"><stop stop-color="#DDD1EB" offset="0"/><stop stop-color="#DDD1EB" stop-opacity="0" offset="1"/></radialGradient><radialGradient id="p" cx="0" cy="0" r="1" gradientTransform="translate(20.746 6.8717) rotate(150.66) scale(5.0126 4.0883)" gradientUnits="userSpaceOnUse"><stop stop-color="#FAF9FD" offset="0"/><stop stop-color="#FAF9FD" stop-opacity="0" offset="1"/></radialGradient><linearGradient id="o" x1="14.431" x2="18.571" y1="13.709" y2="13.709" gradientUnits="userSpaceOnUse"><stop stop-color="#BC3246" offset="0"/><stop stop-color="#FE3A86" offset="1"/></linearGradient><linearGradient id="n" x1="15.132" x2="18.08" y1="16.829" y2="16.829" gradientUnits="userSpaceOnUse"><stop stop-color="#CC314C" offset="0"/><stop stop-color="#FF5694" offset="1"/></linearGradient><radialGradient id="m" cx="0" cy="0" r="1" gradientTransform="translate(13.098 18.801) rotate(129.24) scale(12.867)" gradientUnits="userSpaceOnUse"><stop stop-color="#7D79C2" offset="0"/><stop stop-color="#492D6C" offset="1"/></radialGradient><radialGradient id="l" cx="0" cy="0" r="1" gradientTransform="translate(6.4356 22.308) rotate(-39.428) scale(2.0504 1.9239)" gradientUnits="userSpaceOnUse"><stop stop-color="#3F2B52" offset="0"/><stop stop-color="#291737" offset="1"/></radialGradient><radialGradient id="k" cx="0" cy="0" r="1" gradientTransform="translate(10.116 22.308) rotate(-39.428) scale(2.0504 1.9239)" gradientUnits="userSpaceOnUse"><stop stop-color="#52336E" offset="0"/><stop stop-color="#311644" offset="1"/></radialGradient><radialGradient id="i" cx="0" cy="0" r="1" gradientTransform="translate(8.3657 19.478) rotate(-39.428) scale(2.0504 1.9239)" gradientUnits="userSpaceOnUse"><stop stop-color="#3A224C" offset="0"/><stop stop-color="#25112E" offset="1"/></radialGradient></defs></svg>
