<svg fill="none" viewBox="0 0 32 32" xmlns="http://www.w3.org/2000/svg"><g clip-path="url(#bm)"><g filter="url(#bl)"><path d="m26.99 29.93h-21.98c-1.66 0-3.01-1.349-3.01-3.0077v-7.9939c0-1.0991 0.89-1.9984 2-1.9984h24c1.1 0 2 0.8893 2 1.9984v7.9939c-0.01 1.6587-1.35 3.0077-3.01 3.0077z" fill="url(#ba)"/></g><path d="m26.99 29.93h-21.98c-1.66 0-3.01-1.349-3.01-3.0077v-7.9939c0-1.0991 0.89-1.9984 2-1.9984h24c1.1 0 2 0.8893 2 1.9984v7.9939c-0.01 1.6587-1.35 3.0077-3.01 3.0077z" fill="url(#ap)"/><path d="m26.99 29.93h-21.98c-1.66 0-3.01-1.349-3.01-3.0077v-7.9939c0-1.0991 0.89-1.9984 2-1.9984h24c1.1 0 2 0.8893 2 1.9984v7.9939c-0.01 1.6587-1.35 3.0077-3.01 3.0077z" fill="url(#ae)"/><path d="m26.99 29.93h-21.98c-1.66 0-3.01-1.349-3.01-3.0077v-7.9939c0-1.0991 0.89-1.9984 2-1.9984h24c1.1 0 2 0.8893 2 1.9984v7.9939c-0.01 1.6587-1.35 3.0077-3.01 3.0077z" fill="url(#t)"/><rect x="22.005" y="14.779" width="2.9991" height="4.1454" rx=".2" fill="#895E5A"/><rect x="22.005" y="14.779" width="2.9991" height="4.1454" rx=".2" fill="url(#i)"/><rect x="22.005" y="14.779" width="2.9991" height="4.1454" rx=".2" fill="url(#e)"/><rect x="22.005" y="14.779" width="2.9991" height="4.1454" rx=".2" fill="url(#d)"/><path d="m26.458 5.1752c7e-4 -0.02798 0.0011-0.05606 0.0011-0.08422 0-1.6314-1.3225-2.954-2.954-2.954-1.6314 0-2.954 1.3226-2.954 2.954 0 0.02816 4e-4 0.05624 0.0012 0.08421-1.4601 0.24144-2.5736 1.5099-2.5736 3.0384 0 0.52687 0.1323 1.0228 0.3655 1.4565-0.7693 0.52693-1.274 1.4119-1.274 2.4147 0 1.6154 1.3096 2.925 2.925 2.925h7.0199c1.6154 0 2.9249-1.3096 2.9249-2.925 0-1.0028-0.5047-1.8878-1.2739-2.4147 0.2332-0.43366 0.3655-0.92962 0.3655-1.4565 0-1.5285-1.1135-2.797-2.5736-3.0384z" clip-rule="evenodd" fill="#77AB60" fill-rule="evenodd"/><path d="m26.458 5.1752c7e-4 -0.02798 0.0011-0.05606 0.0011-0.08422 0-1.6314-1.3225-2.954-2.954-2.954-1.6314 0-2.954 1.3226-2.954 2.954 0 0.02816 4e-4 0.05624 0.0012 0.08421-1.4601 0.24144-2.5736 1.5099-2.5736 3.0384 0 0.52687 0.1323 1.0228 0.3655 1.4565-0.7693 0.52693-1.274 1.4119-1.274 2.4147 0 1.6154 1.3096 2.925 2.925 2.925h7.0199c1.6154 0 2.9249-1.3096 2.9249-2.925 0-1.0028-0.5047-1.8878-1.2739-2.4147 0.2332-0.43366 0.3655-0.92962 0.3655-1.4565 0-1.5285-1.1135-2.797-2.5736-3.0384z" clip-rule="evenodd" fill="url(#c)" fill-rule="evenodd"/><path d="m26.458 5.1752c7e-4 -0.02798 0.0011-0.05606 0.0011-0.08422 0-1.6314-1.3225-2.954-2.954-2.954-1.6314 0-2.954 1.3226-2.954 2.954 0 0.02816 4e-4 0.05624 0.0012 0.08421-1.4601 0.24144-2.5736 1.5099-2.5736 3.0384 0 0.52687 0.1323 1.0228 0.3655 1.4565-0.7693 0.52693-1.274 1.4119-1.274 2.4147 0 1.6154 1.3096 2.925 2.925 2.925h7.0199c1.6154 0 2.9249-1.3096 2.9249-2.925 0-1.0028-0.5047-1.8878-1.2739-2.4147 0.2332-0.43366 0.3655-0.92962 0.3655-1.4565 0-1.5285-1.1135-2.797-2.5736-3.0384z" clip-rule="evenodd" fill="url(#b)" fill-rule="evenodd"/><path d="m26.458 5.1752c7e-4 -0.02798 0.0011-0.05606 0.0011-0.08422 0-1.6314-1.3225-2.954-2.954-2.954-1.6314 0-2.954 1.3226-2.954 2.954 0 0.02816 4e-4 0.05624 0.0012 0.08421-1.4601 0.24144-2.5736 1.5099-2.5736 3.0384 0 0.52687 0.1323 1.0228 0.3655 1.4565-0.7693 0.52693-1.274 1.4119-1.274 2.4147 0 1.6154 1.3096 2.925 2.925 2.925h7.0199c1.6154 0 2.9249-1.3096 2.9249-2.925 0-1.0028-0.5047-1.8878-1.2739-2.4147 0.2332-0.43366 0.3655-0.92962 0.3655-1.4565 0-1.5285-1.1135-2.797-2.5736-3.0384z" clip-rule="evenodd" fill="url(#a)" fill-rule="evenodd"/><path d="m26.458 5.1752c7e-4 -0.02798 0.0011-0.05606 0.0011-0.08422 0-1.6314-1.3225-2.954-2.954-2.954-1.6314 0-2.954 1.3226-2.954 2.954 0 0.02816 4e-4 0.05624 0.0012 0.08421-1.4601 0.24144-2.5736 1.5099-2.5736 3.0384 0 0.52687 0.1323 1.0228 0.3655 1.4565-0.7693 0.52693-1.274 1.4119-1.274 2.4147 0 1.6154 1.3096 2.925 2.925 2.925h7.0199c1.6154 0 2.9249-1.3096 2.9249-2.925 0-1.0028-0.5047-1.8878-1.2739-2.4147 0.2332-0.43366 0.3655-0.92962 0.3655-1.4565 0-1.5285-1.1135-2.797-2.5736-3.0384z" clip-rule="evenodd" fill="url(#az)" fill-rule="evenodd"/><path d="m26.458 5.1752c7e-4 -0.02798 0.0011-0.05606 0.0011-0.08422 0-1.6314-1.3225-2.954-2.954-2.954-1.6314 0-2.954 1.3226-2.954 2.954 0 0.02816 4e-4 0.05624 0.0012 0.08421-1.4601 0.24144-2.5736 1.5099-2.5736 3.0384 0 0.52687 0.1323 1.0228 0.3655 1.4565-0.7693 0.52693-1.274 1.4119-1.274 2.4147 0 1.6154 1.3096 2.925 2.925 2.925h7.0199c1.6154 0 2.9249-1.3096 2.9249-2.925 0-1.0028-0.5047-1.8878-1.2739-2.4147 0.2332-0.43366 0.3655-0.92962 0.3655-1.4565 0-1.5285-1.1135-2.797-2.5736-3.0384z" clip-rule="evenodd" fill="url(#ay)" fill-rule="evenodd"/><path d="m26.458 5.1752c7e-4 -0.02798 0.0011-0.05606 0.0011-0.08422 0-1.6314-1.3225-2.954-2.954-2.954-1.6314 0-2.954 1.3226-2.954 2.954 0 0.02816 4e-4 0.05624 0.0012 0.08421-1.4601 0.24144-2.5736 1.5099-2.5736 3.0384 0 0.52687 0.1323 1.0228 0.3655 1.4565-0.7693 0.52693-1.274 1.4119-1.274 2.4147 0 1.6154 1.3096 2.925 2.925 2.925h7.0199c1.6154 0 2.9249-1.3096 2.9249-2.925 0-1.0028-0.5047-1.8878-1.2739-2.4147 0.2332-0.43366 0.3655-0.92962 0.3655-1.4565 0-1.5285-1.1135-2.797-2.5736-3.0384z" clip-rule="evenodd" fill="url(#ax)" fill-rule="evenodd"/><path d="m26.458 5.1752c7e-4 -0.02798 0.0011-0.05606 0.0011-0.08422 0-1.6314-1.3225-2.954-2.954-2.954-1.6314 0-2.954 1.3226-2.954 2.954 0 0.02816 4e-4 0.05624 0.0012 0.08421-1.4601 0.24144-2.5736 1.5099-2.5736 3.0384 0 0.52687 0.1323 1.0228 0.3655 1.4565-0.7693 0.52693-1.274 1.4119-1.274 2.4147 0 1.6154 1.3096 2.925 2.925 2.925h7.0199c1.6154 0 2.9249-1.3096 2.9249-2.925 0-1.0028-0.5047-1.8878-1.2739-2.4147 0.2332-0.43366 0.3655-0.92962 0.3655-1.4565 0-1.5285-1.1135-2.797-2.5736-3.0384z" clip-rule="evenodd" fill="url(#aw)" fill-rule="evenodd"/><g filter="url(#bj)" shape-rendering="crispEdges"><path d="m17.978 8.2136c0-1.7009 1.3789-3.0798 3.0798-3.0798h4.8933c1.7009 0 3.0798 1.3789 3.0798 3.0798 0 2.0677-1.3789 2.2864-3.0798 2.2864h-4.8933c-1.7009 0-3.0798-0.1562-3.0798-2.2864z" fill="url(#av)"/><path d="m17.978 8.2136c0-1.7009 1.3789-3.0798 3.0798-3.0798h4.8933c1.7009 0 3.0798 1.3789 3.0798 3.0798 0 2.0677-1.3789 2.2864-3.0798 2.2864h-4.8933c-1.7009 0-3.0798-0.1562-3.0798-2.2864z" fill="url(#au)"/><path d="m17.978 8.2136c0-1.7009 1.3789-3.0798 3.0798-3.0798h4.8933c1.7009 0 3.0798 1.3789 3.0798 3.0798 0 2.0677-1.3789 2.2864-3.0798 2.2864h-4.8933c-1.7009 0-3.0798-0.1562-3.0798-2.2864z" fill="url(#at)"/></g><g filter="url(#bi)"><path d="m20.703 5.1346c-8e-4 -0.02654-0.0012-0.05318-0.0012-0.07991 0-1.5481 1.255-2.803 2.8031-2.803 1.548 0 2.803 1.255 2.803 2.803 0 0.02673-4e-4 0.05337-0.0011 0.07992-0.1187 0.27317-1.2579 1.3794-2.8019 1.3794-2.0062 0-2.8841-1.3658-2.8019-1.3794z" fill="url(#as)"/><path d="m20.703 5.1346c-8e-4 -0.02654-0.0012-0.05318-0.0012-0.07991 0-1.5481 1.255-2.803 2.8031-2.803 1.548 0 2.803 1.255 2.803 2.803 0 0.02673-4e-4 0.05337-0.0011 0.07992-0.1187 0.27317-1.2579 1.3794-2.8019 1.3794-2.0062 0-2.8841-1.3658-2.8019-1.3794z" fill="url(#ar)"/><path d="m20.703 5.1346c-8e-4 -0.02654-0.0012-0.05318-0.0012-0.07991 0-1.5481 1.255-2.803 2.8031-2.803 1.548 0 2.803 1.255 2.803 2.803 0 0.02673-4e-4 0.05337-0.0011 0.07992-0.1187 0.27317-1.2579 1.3794-2.8019 1.3794-2.0062 0-2.8841-1.3658-2.8019-1.3794z" fill="url(#aq)"/></g><g filter="url(#bh)"><path d="m4.5511 24.377c-0.53522 1.3542 0.25148 1.5735 0.8512 1.5735h20.396c0.7295 0 1.048-0.5934 0.6981-1.4856-0.1829-0.4663-2.9974-7.4846-4.4238-11.229-0.074-0.1943-0.2588-0.3221-0.4666-0.3221h-12.035c-0.49423 0-0.61191 0.3413-0.81195 0.8238-0.20005 0.4824-3.6724 9.2857-4.2076 10.64z" fill="url(#ao)"/><path d="m4.5511 24.377c-0.53522 1.3542 0.25148 1.5735 0.8512 1.5735h20.396c0.7295 0 1.048-0.5934 0.6981-1.4856-0.1829-0.4663-2.9974-7.4846-4.4238-11.229-0.074-0.1943-0.2588-0.3221-0.4666-0.3221h-12.035c-0.49423 0-0.61191 0.3413-0.81195 0.8238-0.20005 0.4824-3.6724 9.2857-4.2076 10.64z" fill="url(#an)"/><path d="m4.5511 24.377c-0.53522 1.3542 0.25148 1.5735 0.8512 1.5735h20.396c0.7295 0 1.048-0.5934 0.6981-1.4856-0.1829-0.4663-2.9974-7.4846-4.4238-11.229-0.074-0.1943-0.2588-0.3221-0.4666-0.3221h-12.035c-0.49423 0-0.61191 0.3413-0.81195 0.8238-0.20005 0.4824-3.6724 9.2857-4.2076 10.64z" fill="url(#am)"/><path d="m4.5511 24.377c-0.53522 1.3542 0.25148 1.5735 0.8512 1.5735h20.396c0.7295 0 1.048-0.5934 0.6981-1.4856-0.1829-0.4663-2.9974-7.4846-4.4238-11.229-0.074-0.1943-0.2588-0.3221-0.4666-0.3221h-12.035c-0.49423 0-0.61191 0.3413-0.81195 0.8238-0.20005 0.4824-3.6724 9.2857-4.2076 10.64z" fill="url(#al)"/></g><circle cx="7.8071" cy="7.2538" r="1.3197" fill="url(#ak)"/><circle cx="7.8071" cy="7.2538" r="1.3197" fill="url(#aj)"/><path d="m8.281 6.3718c-0.32891 0.5235-0.53697 0.55046-0.91955 0.40283-0.20809-0.05146-0.39604-0.15439-0.87261-0.15439-1.1114 0-2.0741 0.93972-2.0741 2.2083 0 1.2686 0.85915 2.1412 2.5506 2.1412h4.0341c1.6579 0 2.8393-1.3818 2.8393-3.1414 0-1.7596-1.6177-2.8729-3.0474-2.8729-1.4297 0-2.1815 0.89272-2.5104 1.4162z" fill="#D4D1D6"/><path d="m8.281 6.3718c-0.32891 0.5235-0.53697 0.55046-0.91955 0.40283-0.20809-0.05146-0.39604-0.15439-0.87261-0.15439-1.1114 0-2.0741 0.93972-2.0741 2.2083 0 1.2686 0.85915 2.1412 2.5506 2.1412h4.0341c1.6579 0 2.8393-1.3818 2.8393-3.1414 0-1.7596-1.6177-2.8729-3.0474-2.8729-1.4297 0-2.1815 0.89272-2.5104 1.4162z" fill="url(#ai)"/><path d="m8.281 6.3718c-0.32891 0.5235-0.53697 0.55046-0.91955 0.40283-0.20809-0.05146-0.39604-0.15439-0.87261-0.15439-1.1114 0-2.0741 0.93972-2.0741 2.2083 0 1.2686 0.85915 2.1412 2.5506 2.1412h4.0341c1.6579 0 2.8393-1.3818 2.8393-3.1414 0-1.7596-1.6177-2.8729-3.0474-2.8729-1.4297 0-2.1815 0.89272-2.5104 1.4162z" fill="url(#ah)"/><path d="m8.281 6.3718c-0.32891 0.5235-0.53697 0.55046-0.91955 0.40283-0.20809-0.05146-0.39604-0.15439-0.87261-0.15439-1.1114 0-2.0741 0.93972-2.0741 2.2083 0 1.2686 0.85915 2.1412 2.5506 2.1412h4.0341c1.6579 0 2.8393-1.3818 2.8393-3.1414 0-1.7596-1.6177-2.8729-3.0474-2.8729-1.4297 0-2.1815 0.89272-2.5104 1.4162z" fill="url(#ag)"/><path d="m8.281 6.3718c-0.32891 0.5235-0.53697 0.55046-0.91955 0.40283-0.20809-0.05146-0.39604-0.15439-0.87261-0.15439-1.1114 0-2.0741 0.93972-2.0741 2.2083 0 1.2686 0.85915 2.1412 2.5506 2.1412h4.0341c1.6579 0 2.8393-1.3818 2.8393-3.1414 0-1.7596-1.6177-2.8729-3.0474-2.8729-1.4297 0-2.1815 0.89272-2.5104 1.4162z" fill="url(#af)"/><path d="m8.281 6.3718c-0.32891 0.5235-0.53697 0.55046-0.91955 0.40283-0.20809-0.05146-0.39604-0.15439-0.87261-0.15439-1.1114 0-2.0741 0.93972-2.0741 2.2083 0 1.2686 0.85915 2.1412 2.5506 2.1412h4.0341c1.6579 0 2.8393-1.3818 2.8393-3.1414 0-1.7596-1.6177-2.8729-3.0474-2.8729-1.4297 0-2.1815 0.89272-2.5104 1.4162z" fill="url(#ad)"/><path d="m8.281 6.3718c-0.32891 0.5235-0.53697 0.55046-0.91955 0.40283-0.20809-0.05146-0.39604-0.15439-0.87261-0.15439-1.1114 0-2.0741 0.93972-2.0741 2.2083 0 1.2686 0.85915 2.1412 2.5506 2.1412h4.0341c1.6579 0 2.8393-1.3818 2.8393-3.1414 0-1.7596-1.6177-2.8729-3.0474-2.8729-1.4297 0-2.1815 0.89272-2.5104 1.4162z" fill="url(#ac)"/><path d="m8.281 6.3718c-0.32891 0.5235-0.53697 0.55046-0.91955 0.40283-0.20809-0.05146-0.39604-0.15439-0.87261-0.15439-1.1114 0-2.0741 0.93972-2.0741 2.2083 0 1.2686 0.85915 2.1412 2.5506 2.1412h4.0341c1.6579 0 2.8393-1.3818 2.8393-3.1414 0-1.7596-1.6177-2.8729-3.0474-2.8729-1.4297 0-2.1815 0.89272-2.5104 1.4162z" fill="url(#ab)"/><path d="m8.281 6.3718c-0.32891 0.5235-0.53697 0.55046-0.91955 0.40283-0.20809-0.05146-0.39604-0.15439-0.87261-0.15439-1.1114 0-2.0741 0.93972-2.0741 2.2083 0 1.2686 0.85915 2.1412 2.5506 2.1412h4.0341c1.6579 0 2.8393-1.3818 2.8393-3.1414 0-1.7596-1.6177-2.8729-3.0474-2.8729-1.4297 0-2.1815 0.89272-2.5104 1.4162z" fill="url(#aa)"/><path d="m13.037 23.917c-0.4571-1.1066-2.3155-5.7335-3.1875-7.9086v9.9434h5.1721c-1.1226 0-1.4133-0.6516-1.9846-2.0348z" fill="url(#z)"/><path d="m13.037 23.917c-0.4571-1.1066-2.3155-5.7335-3.1875-7.9086v9.9434h5.1721c-1.1226 0-1.4133-0.6516-1.9846-2.0348z" fill="url(#y)"/><path d="m9.8516 16.012c-0.24484-0.6036-0.74048-1.8528-0.79867-2.0157-0.00533-0.0149-0.01095-0.0304-0.01672-0.0463-0.073-0.2009-0.17214-0.4738-0.06354-0.6802v-0.0041c-0.06677 0.1149-0.12384 0.2533-0.18764 0.408-0.00863 0.0209-0.01738 0.0422-0.0263 0.0637-0.15783 0.3806-2.3524 5.9403-3.5346 8.9352-0.31626 0.8012-0.56006 1.4188-0.67302 1.7047-0.53522 1.3541 0.25148 1.5734 0.8512 1.5734h4.1387v-8.8879l0.31062-1.0508z" fill="url(#x)"/><path d="m9.8516 16.012c-0.24484-0.6036-0.74048-1.8528-0.79867-2.0157-0.00533-0.0149-0.01095-0.0304-0.01672-0.0463-0.073-0.2009-0.17214-0.4738-0.06354-0.6802v-0.0041c-0.06677 0.1149-0.12384 0.2533-0.18764 0.408-0.00863 0.0209-0.01738 0.0422-0.0263 0.0637-0.15783 0.3806-2.3524 5.9403-3.5346 8.9352-0.31626 0.8012-0.56006 1.4188-0.67302 1.7047-0.53522 1.3541 0.25148 1.5734 0.8512 1.5734h4.1387v-8.8879l0.31062-1.0508z" fill="url(#w)"/><path d="m9.8516 16.012c-0.24484-0.6036-0.74048-1.8528-0.79867-2.0157-0.00533-0.0149-0.01095-0.0304-0.01672-0.0463-0.073-0.2009-0.17214-0.4738-0.06354-0.6802v-0.0041c-0.06677 0.1149-0.12384 0.2533-0.18764 0.408-0.00863 0.0209-0.01738 0.0422-0.0263 0.0637-0.15783 0.3806-2.3524 5.9403-3.5346 8.9352-0.31626 0.8012-0.56006 1.4188-0.67302 1.7047-0.53522 1.3541 0.25148 1.5734 0.8512 1.5734h4.1387v-8.8879l0.31062-1.0508z" fill="url(#v)"/><path d="m9.874 25.949-0.02252-9.9453c-1.1957 3.3106-3.3964 9.2906-3.487 9.5313-0.09062 0.2406-0.22005 0.3763-0.27344 0.414h3.783z" fill="url(#u)"/><g filter="url(#bg)"><path d="m16.262 18.949-0.707-2.0547c-0.2344-0.6914 0.4219-0.8945 0.8711-0.8945h1.9492c0.6563 0 0.9179 0.4116 1.0195 0.6875 0.1641 0.4453 0.5211 1.3938 0.8086 2.1563s-0.0195 1.164-0.7539 1.164h-1.7031c-0.8312 0-1.2383-0.3437-1.4844-1.0586z" fill="url(#s)"/><path d="m16.262 18.949-0.707-2.0547c-0.2344-0.6914 0.4219-0.8945 0.8711-0.8945h1.9492c0.6563 0 0.9179 0.4116 1.0195 0.6875 0.1641 0.4453 0.5211 1.3938 0.8086 2.1563s-0.0195 1.164-0.7539 1.164h-1.7031c-0.8312 0-1.2383-0.3437-1.4844-1.0586z" fill="url(#r)"/><path d="m16.262 18.949-0.707-2.0547c-0.2344-0.6914 0.4219-0.8945 0.8711-0.8945h1.9492c0.6563 0 0.9179 0.4116 1.0195 0.6875 0.1641 0.4453 0.5211 1.3938 0.8086 2.1563s-0.0195 1.164-0.7539 1.164h-1.7031c-0.8312 0-1.2383-0.3437-1.4844-1.0586z" fill="url(#q)"/></g><path d="m6.6752 10.954c1.1173-0.09 1.9888-1.0123 1.9888-2.1566 0-1.2039-0.97261-2.1798-2.1724-2.1798-0.36405 0-0.70718 0.08985-1.0086 0.24867-0.64939 0.3627-1.1078 1.084-1.1078 1.9624 0 1.2066 0.77912 2.04 2.3 2.1253z" fill="#D2CBD5"/><path d="m6.6752 10.954c1.1173-0.09 1.9888-1.0123 1.9888-2.1566 0-1.2039-0.97261-2.1798-2.1724-2.1798-0.36405 0-0.70718 0.08985-1.0086 0.24867-0.64939 0.3627-1.1078 1.084-1.1078 1.9624 0 1.2066 0.77912 2.04 2.3 2.1253z" fill="url(#p)"/><path d="m6.6752 10.954c1.1173-0.09 1.9888-1.0123 1.9888-2.1566 0-1.2039-0.97261-2.1798-2.1724-2.1798-0.36405 0-0.70718 0.08985-1.0086 0.24867-0.64939 0.3627-1.1078 1.084-1.1078 1.9624 0 1.2066 0.77912 2.04 2.3 2.1253z" fill="url(#o)"/><path d="m6.6752 10.954c1.1173-0.09 1.9888-1.0123 1.9888-2.1566 0-1.2039-0.97261-2.1798-2.1724-2.1798-0.36405 0-0.70718 0.08985-1.0086 0.24867-0.64939 0.3627-1.1078 1.084-1.1078 1.9624 0 1.2066 0.77912 2.04 2.3 2.1253z" fill="url(#n)"/><path d="m6.6752 10.954c1.1173-0.09 1.9888-1.0123 1.9888-2.1566 0-1.2039-0.97261-2.1798-2.1724-2.1798-0.36405 0-0.70718 0.08985-1.0086 0.24867-0.64939 0.3627-1.1078 1.084-1.1078 1.9624 0 1.2066 0.77912 2.04 2.3 2.1253z" fill="url(#m)"/><path d="m6.6752 10.954c1.1173-0.09 1.9888-1.0123 1.9888-2.1566 0-1.2039-0.97261-2.1798-2.1724-2.1798-0.36405 0-0.70718 0.08985-1.0086 0.24867-0.64939 0.3627-1.1078 1.084-1.1078 1.9624 0 1.2066 0.77912 2.04 2.3 2.1253z" fill="url(#l)"/><g filter="url(#bf)"><path d="m8.6556 9.2109c-0.10647 0.58246-0.81203 1.3241-1.0221 1.375h2.0613c-0.64735-0.3055-1.0392-1.1362-1.0392-1.375z" fill="#DDD0F2"/></g><g filter="url(#be)"><path d="m28.906 18.531v8.6563" stroke="url(#k)" stroke-linecap="round" stroke-width=".75"/></g><g filter="url(#bd)"><path d="m27.141 5.7969-1.1523 2.596c-0.1136 0.25609 0.0063 0.55736 0.2804 0.61562 0.9414 0.20013 2.1175 0.02104 2.4344-0.4147 0-1.6562-0.9687-2.4948-1.5625-2.7969z" fill="url(#j)"/></g><g filter="url(#bc)"><path d="m28.656 10.469-2.2187 2.5937c0.9687 0.4063 2.4375 0.6039 2.8437 0.2602 0.5139-1.3277-0.0312-2.5519-0.625-2.8539z" fill="url(#h)"/></g><g filter="url(#bb)"><path d="m19.752 10.431h7.3539c0.3579 0 0.8904-0.128 1.2116-0.417" stroke="url(#g)" stroke-linecap="round" stroke-width=".25"/></g><g filter="url(#bk)"><path d="m26.262 5.3782c-0.1285 0.24983-1.6061 1.1671-2.8052 1.1671" stroke="url(#f)" stroke-linecap="round" stroke-width=".25"/></g></g><defs><filter id="bl" x="2" y="16.18" width="28" height="13.75" color-interpolation-filters="sRGB" filterUnits="userSpaceOnUse"><feFlood flood-opacity="0" result="BackgroundImageFix"/><feBlend in="SourceGraphic" in2="BackgroundImageFix" result="shape"/><feColorMatrix in="SourceAlpha" result="hardAlpha" values="0 0 0 0 0 0 0 0 0 0 0 0 0 0 0 0 0 0 127 0"/><feOffset dy="-0.75"/><feGaussianBlur stdDeviation="0.5"/><feComposite in2="hardAlpha" k2="-1" k3="1" operator="arithmetic"/><feColorMatrix values="0 0 0 0 0.321569 0 0 0 0 0.364706 0 0 0 0 0.423529 0 0 0 1 0"/><feBlend in2="shape" result="effect1_innerShadow_18_5001"/></filter><filter id="bj" x="13.978" y="5.1338" width="19.053" height="13.366" color-interpolation-filters="sRGB" filterUnits="userSpaceOnUse"><feFlood flood-opacity="0" result="BackgroundImageFix"/><feColorMatrix in="SourceAlpha" result="hardAlpha" values="0 0 0 0 0 0 0 0 0 0 0 0 0 0 0 0 0 0 127 0"/><feOffset dy="4"/><feGaussianBlur stdDeviation="2"/><feComposite in2="hardAlpha" operator="out"/><feColorMatrix values="0 0 0 0 0 0 0 0 0 0 0 0 0 0 0 0 0 0 0.25 0"/><feBlend in2="BackgroundImageFix" result="effect1_dropShadow_18_5001"/><feBlend in="SourceGraphic" in2="effect1_dropShadow_18_5001" result="shape"/></filter><filter id="bi" x="20.448" y="2.0017" width="6.1101" height="4.7624" color-interpolation-filters="sRGB" filterUnits="userSpaceOnUse"><feFlood flood-opacity="0" result="BackgroundImageFix"/><feBlend in="SourceGraphic" in2="BackgroundImageFix" result="shape"/><feGaussianBlur result="effect1_foregroundBlur_18_5001" stdDeviation="0.125"/></filter><filter id="bh" x="4.3732" y="12.713" width="22.265" height="13.237" color-interpolation-filters="sRGB" filterUnits="userSpaceOnUse"><feFlood flood-opacity="0" result="BackgroundImageFix"/><feBlend in="SourceGraphic" in2="BackgroundImageFix" result="shape"/><feColorMatrix in="SourceAlpha" result="hardAlpha" values="0 0 0 0 0 0 0 0 0 0 0 0 0 0 0 0 0 0 127 0"/><feOffset dy="-0.2"/><feGaussianBlur stdDeviation="0.1"/><feComposite in2="hardAlpha" k2="-1" k3="1" operator="arithmetic"/><feColorMatrix values="0 0 0 0 0.995833 0 0 0 0 0.553126 0 0 0 0 0.174271 0 0 0 1 0"/><feBlend in2="shape" result="effect1_innerShadow_18_5001"/></filter><filter id="bg" x="15.506" y="15.85" width="4.9543" height="4.1578" color-interpolation-filters="sRGB" filterUnits="userSpaceOnUse"><feFlood flood-opacity="0" result="BackgroundImageFix"/><feBlend in="SourceGraphic" in2="BackgroundImageFix" result="shape"/><feColorMatrix in="SourceAlpha" result="hardAlpha" values="0 0 0 0 0 0 0 0 0 0 0 0 0 0 0 0 0 0 127 0"/><feOffset dx="0.15" dy="-0.15"/><feGaussianBlur stdDeviation="0.2"/><feComposite in2="hardAlpha" k2="-1" k3="1" operator="arithmetic"/><feColorMatrix values="0 0 0 0 1 0 0 0 0 0.396078 0 0 0 0 0.109804 0 0 0 1 0"/><feBlend in2="shape" result="effect1_innerShadow_18_5001"/></filter><filter id="bf" x="7.1334" y="8.7109" width="3.0613" height="2.375" color-interpolation-filters="sRGB" filterUnits="userSpaceOnUse"><feFlood flood-opacity="0" result="BackgroundImageFix"/><feBlend in="SourceGraphic" in2="BackgroundImageFix" result="shape"/><feGaussianBlur result="effect1_foregroundBlur_18_5001" stdDeviation="0.25"/></filter><filter id="be" x="27.281" y="16.906" width="3.25" height="11.906" color-interpolation-filters="sRGB" filterUnits="userSpaceOnUse"><feFlood flood-opacity="0" result="BackgroundImageFix"/><feBlend in="SourceGraphic" in2="BackgroundImageFix" result="shape"/><feGaussianBlur result="effect1_foregroundBlur_18_5001" stdDeviation="0.625"/></filter><filter id="bd" x="24.696" y="4.5469" width="5.2574" height="5.7932" color-interpolation-filters="sRGB" filterUnits="userSpaceOnUse"><feFlood flood-opacity="0" result="BackgroundImageFix"/><feBlend in="SourceGraphic" in2="BackgroundImageFix" result="shape"/><feGaussianBlur result="effect1_foregroundBlur_18_5001" stdDeviation="0.625"/></filter><filter id="bc" x="25.438" y="9.4688" width="5.0485" height="5.0303" color-interpolation-filters="sRGB" filterUnits="userSpaceOnUse"><feFlood flood-opacity="0" result="BackgroundImageFix"/><feBlend in="SourceGraphic" in2="BackgroundImageFix" result="shape"/><feGaussianBlur result="effect1_foregroundBlur_18_5001" stdDeviation="0.5"/></filter><filter id="bb" x="19.377" y="9.6392" width="9.3156" height="1.167" color-interpolation-filters="sRGB" filterUnits="userSpaceOnUse"><feFlood flood-opacity="0" result="BackgroundImageFix"/><feBlend in="SourceGraphic" in2="BackgroundImageFix" result="shape"/><feGaussianBlur result="effect1_foregroundBlur_18_5001" stdDeviation="0.125"/></filter><filter id="bk" x="23.082" y="5.0032" width="3.5552" height="1.917" color-interpolation-filters="sRGB" filterUnits="userSpaceOnUse"><feFlood flood-opacity="0" result="BackgroundImageFix"/><feBlend in="SourceGraphic" in2="BackgroundImageFix" result="shape"/><feGaussianBlur result="effect1_foregroundBlur_18_5001" stdDeviation="0.125"/></filter><linearGradient id="ba" x1="19.525" x2="16.724" y1="20.198" y2="31.462" gradientUnits="userSpaceOnUse"><stop stop-color="#86B363" offset="0"/><stop stop-color="#547256" offset="1"/></linearGradient><linearGradient id="ap" x1="31.825" x2="25.431" y1="23.43" y2="23.43" gradientUnits="userSpaceOnUse"><stop stop-color="#98DC73" offset=".1619"/><stop stop-color="#98DC73" stop-opacity="0" offset="1"/></linearGradient><radialGradient id="ae" cx="0" cy="0" r="1" gradientTransform="translate(31.19 15.926) rotate(137.42) scale(4.9394 1.5682)" gradientUnits="userSpaceOnUse"><stop stop-color="#B3F482" offset=".35182"/><stop stop-color="#B3F482" stop-opacity="0" offset="1"/></radialGradient><radialGradient id="t" cx="0" cy="0" r="1" gradientTransform="translate(4.8135 17.204) rotate(20.833) scale(3.9615 2.0778)" gradientUnits="userSpaceOnUse"><stop stop-color="#8DC163" offset=".089479"/><stop stop-color="#8DC163" stop-opacity="0" offset=".99341"/></radialGradient><linearGradient id="i" x1="23.505" x2="23.505" y1="14.779" y2="15.687" gradientUnits="userSpaceOnUse"><stop stop-color="#683234" offset="0"/><stop stop-color="#683234" stop-opacity="0" offset="1"/></linearGradient><linearGradient id="e" x1="22.922" x2="23.641" y1="16.344" y2="16.062" gradientUnits="userSpaceOnUse"><stop stop-color="#683234" offset="0"/><stop stop-color="#683234" stop-opacity="0" offset="1"/></linearGradient><linearGradient id="d" x1="24.258" x2="24.258" y1="18.976" y2="18.836" gradientUnits="userSpaceOnUse"><stop stop-color="#683234" offset="0"/><stop stop-color="#683234" stop-opacity="0" offset="1"/></linearGradient><radialGradient id="c" cx="0" cy="0" r="1" gradientTransform="translate(26.265 8.5734) rotate(156.47) scale(10.854 22.891)" gradientUnits="userSpaceOnUse"><stop stop-color="#4F6655" stop-opacity="0" offset=".55802"/><stop stop-color="#4F6655" offset="1"/></radialGradient><radialGradient id="b" cx="0" cy="0" r="1" gradientTransform="translate(23.505 3.6902) rotate(90) scale(11.32 23.817)" gradientUnits="userSpaceOnUse"><stop stop-color="#6C925D" stop-opacity="0" offset=".77828"/><stop stop-color="#6C925D" offset=".98835"/></radialGradient><radialGradient id="a" cx="0" cy="0" r="1" gradientTransform="translate(18.514 8.5734) scale(12.554 18.056)" gradientUnits="userSpaceOnUse"><stop stop-color="#8ED15E" stop-opacity="0" offset=".65108"/><stop stop-color="#8ED15E" offset="1"/></radialGradient><radialGradient id="az" cx="0" cy="0" r="1" gradientTransform="translate(27.054 10.346) rotate(231.06) scale(9.7453 16.938)" gradientUnits="userSpaceOnUse"><stop stop-color="#556E52" stop-opacity="0" offset=".77595"/><stop stop-color="#556E52" offset="1"/></radialGradient><radialGradient id="ay" cx="0" cy="0" r="1" gradientTransform="translate(26.583 2.137) rotate(128.98) scale(3.3704 3.3696)" gradientUnits="userSpaceOnUse"><stop stop-color="#9AD380" offset="0"/><stop stop-color="#9AD380" stop-opacity="0" offset="1"/></radialGradient><radialGradient id="ax" cx="0" cy="0" r="1" gradientTransform="translate(29.196 10.603) rotate(180) scale(6.2957 1.9385)" gradientUnits="userSpaceOnUse"><stop stop-color="#94D56B" offset="0"/><stop stop-color="#94D56B" stop-opacity="0" offset="1"/></radialGradient><radialGradient id="aw" cx="0" cy="0" r="1" gradientTransform="translate(27.868 5.3782) rotate(151.29) scale(4.1016 1.7637)" gradientUnits="userSpaceOnUse"><stop stop-color="#94D56B" offset="0"/><stop stop-color="#94D56B" stop-opacity="0" offset="1"/></radialGradient><radialGradient id="av" cx="0" cy="0" r="1" gradientTransform="translate(23.505 5.7813) rotate(90) scale(4.7188 10.786)" gradientUnits="userSpaceOnUse"><stop stop-color="#6C925D" stop-opacity="0" offset=".72047"/><stop stop-color="#6C925D" offset=".98835"/></radialGradient><radialGradient id="au" cx="0" cy="0" r="1" gradientTransform="translate(25.875 7.8169) rotate(173.78) scale(8.6132 9.1524)" gradientUnits="userSpaceOnUse"><stop stop-color="#4F6655" stop-opacity="0" offset=".55802"/><stop stop-color="#4F6655" offset="1"/></radialGradient><radialGradient id="at" cx="0" cy="0" r="1" gradientTransform="translate(19.219 7.8169) scale(10.781 7.5269)" gradientUnits="userSpaceOnUse"><stop stop-color="#8ED15E" stop-opacity="0" offset=".71594"/><stop stop-color="#8ED15E" offset="1"/></radialGradient><radialGradient id="as" cx="0" cy="0" r="1" gradientTransform="translate(23.081 5.5411) rotate(-33.132) scale(3.4419 3.8283)" gradientUnits="userSpaceOnUse"><stop stop-color="#9ED086" stop-opacity="0" offset=".8258"/><stop stop-color="#9ED086" offset="1"/></radialGradient><radialGradient id="ar" cx="0" cy="0" r="1" gradientTransform="translate(24.864 3.9899) rotate(173.14) scale(4.7189 4.6237)" gradientUnits="userSpaceOnUse"><stop stop-color="#4E6A4A" stop-opacity="0" offset=".32446"/><stop stop-color="#4E6A4A" offset="1"/></radialGradient><radialGradient id="aq" cx="0" cy="0" r="1" gradientTransform="translate(25.68 3.5451) rotate(141.62) scale(2.3642 1.6499)" gradientUnits="userSpaceOnUse"><stop stop-color="#A1DF84" offset="0"/><stop stop-color="#A1DF84" stop-opacity="0" offset="1"/></radialGradient><linearGradient id="ao" x1="14.25" x2="17.829" y1="12.913" y2="24.369" gradientUnits="userSpaceOnUse"><stop stop-color="#FFE15A" offset="0"/><stop stop-color="#FFB95E" offset="1"/></linearGradient><linearGradient id="an" x1="11.219" x2="14.279" y1="20.016" y2="18.765" gradientUnits="userSpaceOnUse"><stop stop-color="#D1802F" offset="0"/><stop stop-color="#F5962D" offset=".12888"/><stop stop-color="#F5962D" stop-opacity="0" offset=".21106"/></linearGradient><radialGradient id="am" cx="0" cy="0" r="1" gradientTransform="translate(18.656 19) rotate(125.56) scale(8.5438 14.592)" gradientUnits="userSpaceOnUse"><stop stop-color="#F5962D" stop-opacity="0" offset=".91702"/><stop stop-color="#F5962D" offset=".93137"/><stop stop-color="#D1802F" offset=".97134"/></radialGradient><linearGradient id="al" x1="14.5" x2="14.5" y1="12.82" y2="13.562" gradientUnits="userSpaceOnUse"><stop stop-color="#FFCE31" offset="0"/><stop stop-color="#FFCE31" stop-opacity="0" offset=".2449"/></linearGradient><radialGradient id="ak" cx="0" cy="0" r="1" gradientTransform="translate(8.3086 5.9883) rotate(154.22) scale(2.0225)" gradientUnits="userSpaceOnUse"><stop stop-color="#D2D1D2" offset=".23791"/><stop stop-color="#B0AFB0" offset="1"/></radialGradient><radialGradient id="aj" cx="0" cy="0" r="1" gradientTransform="translate(8.1406 7.6095) rotate(-66.161) scale(1.4691 1.3115)" gradientUnits="userSpaceOnUse"><stop stop-color="#B3B1B3" offset="0"/><stop stop-color="#B3B1B3" stop-opacity="0" offset="1"/></radialGradient><radialGradient id="ai" cx="0" cy="0" r="1" gradientTransform="translate(11.437 10.97) rotate(-90) scale(3.2823 4.0171)" gradientUnits="userSpaceOnUse"><stop stop-color="#C4B3F8" offset="0"/><stop stop-color="#C4B3F8" stop-opacity="0" offset="1"/></radialGradient><linearGradient id="ah" x1="9.1268" x2="9.1268" y1="11.344" y2="10.375" gradientUnits="userSpaceOnUse"><stop stop-color="#BEACF3" offset="0"/><stop stop-color="#BEACF3" stop-opacity="0" offset="1"/></linearGradient><radialGradient id="ag" cx="0" cy="0" r="1" gradientTransform="translate(8.7187 6.375) rotate(42.254) scale(5.9952 6.2077)" gradientUnits="userSpaceOnUse"><stop stop-color="#C6BED2" stop-opacity="0" offset=".73844"/><stop stop-color="#C6BED2" offset="1"/></radialGradient><radialGradient id="af" cx="0" cy="0" r="1" gradientTransform="translate(12.406 9.8438) rotate(219) scale(6.5545 6.8026)" gradientUnits="userSpaceOnUse"><stop stop-color="#B2B2B2" stop-opacity="0" offset=".60822"/><stop stop-color="#B2B2B2" offset=".90832"/></radialGradient><radialGradient id="ad" cx="0" cy="0" r="1" gradientTransform="translate(13.406 5.8125) rotate(146.31) scale(4.2816 4.0042)" gradientUnits="userSpaceOnUse"><stop stop-color="#EFEEF0" offset="0"/><stop stop-color="#EFEEF0" stop-opacity="0" offset="1"/></radialGradient><radialGradient id="ac" cx="0" cy="0" r="1" gradientTransform="translate(7.4999 8.8438) scale(2.9688 3.3125)" gradientUnits="userSpaceOnUse"><stop stop-color="#CDC3D5" offset=".32632"/><stop stop-color="#CDC3D5" stop-opacity="0" offset="1"/></radialGradient><radialGradient id="ab" cx="0" cy="0" r="1" gradientTransform="translate(6.9999 8.6875) rotate(-13.523) scale(2.5392 2.7634)" gradientUnits="userSpaceOnUse"><stop stop-color="#E9E6EB" offset=".65011"/><stop stop-color="#E9E6EB" stop-opacity="0" offset=".7892"/></radialGradient><radialGradient id="aa" cx="0" cy="0" r="1" gradientTransform="translate(7.7343 10.125) rotate(52.549) scale(.92505 1.0238)" gradientUnits="userSpaceOnUse"><stop stop-color="#D2C6DB" offset=".47704"/><stop stop-color="#D2C6DB" stop-opacity="0" offset="1"/></radialGradient><radialGradient id="z" cx="0" cy="0" r="1" gradientTransform="translate(9.8494 25.952) scale(3.5354 9.9544)" gradientUnits="userSpaceOnUse"><stop stop-color="#533E62" offset="0"/><stop stop-color="#47324C" offset="1"/></radialGradient><linearGradient id="y" x1="9.8711" x2="9.9805" y1="25.952" y2="25.952" gradientUnits="userSpaceOnUse"><stop stop-color="#452D3D" offset="0"/><stop stop-color="#452D3D" stop-opacity="0" offset="1"/></linearGradient><linearGradient id="x" x1="9.8601" x2="5.125" y1="16.594" y2="25.5" gradientUnits="userSpaceOnUse"><stop stop-color="#CF5E09" offset="0"/><stop stop-color="#ED8634" offset="1"/></linearGradient><linearGradient id="w" x1="7.1166" x2="7.6172" y1="17.672" y2="17.875" gradientUnits="userSpaceOnUse"><stop stop-color="#D18A2A" offset="0"/><stop stop-color="#D18A2A" offset=".5561"/><stop stop-color="#CF8A2A" stop-opacity="0" offset="1"/></linearGradient><linearGradient id="v" x1="8.7344" x2="9.0938" y1="14.133" y2="14.312" gradientUnits="userSpaceOnUse"><stop stop-color="#E28B32" offset="0"/><stop stop-color="#E28B32" stop-opacity="0" offset="1"/></linearGradient><linearGradient id="u" x1="9.4374" x2="7.9826" y1="16.188" y2="25.949" gradientUnits="userSpaceOnUse"><stop stop-color="#C9360F" offset="0"/><stop stop-color="#CC4824" offset="1"/></linearGradient><radialGradient id="s" cx="0" cy="0" r="1" gradientTransform="translate(16.091 18.19) scale(2.628 1.2827)" gradientUnits="userSpaceOnUse"><stop stop-color="#FF8753" offset="0"/><stop stop-color="#FF9569" offset="1"/></radialGradient><linearGradient id="r" x1="17.094" x2="17.094" y1="15.891" y2="16.477" gradientUnits="userSpaceOnUse"><stop stop-color="#FF8043" offset="0"/><stop stop-color="#FF8043" stop-opacity="0" offset="1"/></linearGradient><radialGradient id="q" cx="0" cy="0" r="1" gradientTransform="translate(15.094 15.281) rotate(39.806) scale(3.9051 5.2775)" gradientUnits="userSpaceOnUse"><stop stop-color="#FF7F45" offset="0"/><stop stop-color="#FF7F45" stop-opacity="0" offset="1"/></radialGradient><radialGradient id="p" cx="0" cy="0" r="1" gradientTransform="translate(5.3041 9.2198) rotate(-24.088) scale(3.4573 2.9952)" gradientUnits="userSpaceOnUse"><stop stop-color="#E8E5EB" stop-opacity="0" offset=".49967"/><stop stop-color="#E8E5EB" offset="1"/></radialGradient><radialGradient id="o" cx="0" cy="0" r="1" gradientTransform="translate(3.9916 6.8053) rotate(33.26) scale(3.6251 3.5891)" gradientUnits="userSpaceOnUse"><stop stop-color="#AEADB0" offset="0"/><stop stop-color="#AEADB0" stop-opacity="0" offset="1"/></radialGradient><radialGradient id="n" cx="0" cy="0" r="1" gradientTransform="translate(7.6479 7.5579) rotate(129.81) scale(4.4416 3.8779)" gradientUnits="userSpaceOnUse"><stop stop-color="#AEADB0" stop-opacity="0" offset=".71915"/><stop stop-color="#AEADB0" offset="1"/></radialGradient><radialGradient id="m" cx="0" cy="0" r="1" gradientTransform="translate(6.5196 11.164) rotate(241.67) scale(2.693 2.6577)" gradientUnits="userSpaceOnUse"><stop stop-color="#C6B4D5" offset="0"/><stop stop-color="#C6B4D5" stop-opacity="0" offset="1"/></radialGradient><radialGradient id="l" cx="0" cy="0" r="1" gradientTransform="translate(8.664 7.394) rotate(150.04) scale(2.8021 2.5552)" gradientUnits="userSpaceOnUse"><stop stop-color="#EAE7EC" offset="0"/><stop stop-color="#EAE7EC" stop-opacity="0" offset="1"/></radialGradient><linearGradient id="k" x1="29.406" x2="29.406" y1="18.531" y2="27.188" gradientUnits="userSpaceOnUse"><stop stop-color="#B3F482" offset="0"/><stop stop-color="#B3F482" stop-opacity="0" offset="1"/></linearGradient><linearGradient id="j" x1="25.578" x2="30.25" y1="9.1875" y2="4.4062" gradientUnits="userSpaceOnUse"><stop stop-color="#A9E784" offset="0"/><stop stop-color="#A9E784" stop-opacity="0" offset="1"/></linearGradient><linearGradient id="h" x1="27.418" x2="32.129" y1="13.451" y2="7.9906" gradientUnits="userSpaceOnUse"><stop stop-color="#A7E281" offset="0"/><stop stop-color="#A7E281" stop-opacity="0" offset="1"/></linearGradient><linearGradient id="g" x1="28.318" x2="19.452" y1="10.431" y2="10.431" gradientUnits="userSpaceOnUse"><stop stop-color="#A7E583" offset="0"/><stop stop-color="#6D945E" offset=".43237"/><stop stop-color="#6D945E" stop-opacity="0" offset="1"/></linearGradient><linearGradient id="f" x1="26.508" x2="23.403" y1="5.5174" y2="6.7165" gradientUnits="userSpaceOnUse"><stop stop-color="#A7E583" offset="0"/><stop stop-color="#A7E583" stop-opacity="0" offset="1"/></linearGradient><clipPath id="bm"><rect width="32" height="32" fill="#fff"/></clipPath></defs></svg>
