<svg fill="none" viewBox="0 0 32 32" xmlns="http://www.w3.org/2000/svg"><circle cx="16.002" cy="26.266" r="3.6607" fill="url(#i)"/><circle cx="16.002" cy="26.266" r="3.6607" fill="url(#h)"/><circle cx="16.002" cy="26.266" r="3.6607" fill="url(#g)"/><g filter="url(#m)"><rect x="14.796" y="2.0601" width="2.4084" height="4.3613" rx="1.2042" fill="url(#f)"/></g><g filter="url(#l)"><path d="m7.9782 10.674c0.74196-3.7141 3.9853-6.3957 7.7654-6.4328 0.0265-2.4e-4 0.0531 0 0.0797 0h0.3532c0.0266 0 0.0531-2.4e-4 0.0797 0 3.7801 0.03711 7.0234 2.7186 7.7654 6.4328l1.8611 9.3168c0.1339 0.6699 0.437 1.2943 0.8806 1.8138l1.2391 1.4511c0.6184 0.7242 0.9581 1.6452 0.9581 2.5975v1.326c0 0.4142-0.3358 0.75-0.75 0.75h-24.421c-0.41422 0-0.75-0.3358-0.75-0.75v-1.326c0-0.9523 0.33973-1.8733 0.9581-2.5975l1.239-1.4511c0.44361-0.5195 0.74677-1.1439 0.8806-1.8138l1.8612-9.3168z" fill="url(#e)"/></g><path d="m7.9782 10.674c0.74196-3.7141 3.9853-6.3957 7.7654-6.4328 0.0265-2.4e-4 0.0531 0 0.0797 0h0.3532c0.0266 0 0.0531-2.4e-4 0.0797 0 3.7801 0.03711 7.0234 2.7186 7.7654 6.4328l1.8611 9.3168c0.1339 0.6699 0.437 1.2943 0.8806 1.8138l1.2391 1.4511c0.6184 0.7242 0.9581 1.6452 0.9581 2.5975v1.326c0 0.4142-0.3358 0.75-0.75 0.75h-24.421c-0.41422 0-0.75-0.3358-0.75-0.75v-1.326c0-0.9523 0.33973-1.8733 0.9581-2.5975l1.239-1.4511c0.44361-0.5195 0.74677-1.1439 0.8806-1.8138l1.8612-9.3168z" fill="url(#d)"/><path d="m7.9782 10.674c0.74196-3.7141 3.9853-6.3957 7.7654-6.4328 0.0265-2.4e-4 0.0531 0 0.0797 0h0.3532c0.0266 0 0.0531-2.4e-4 0.0797 0 3.7801 0.03711 7.0234 2.7186 7.7654 6.4328l1.8611 9.3168c0.1339 0.6699 0.437 1.2943 0.8806 1.8138l1.2391 1.4511c0.6184 0.7242 0.9581 1.6452 0.9581 2.5975v1.326c0 0.4142-0.3358 0.75-0.75 0.75h-24.421c-0.41422 0-0.75-0.3358-0.75-0.75v-1.326c0-0.9523 0.33973-1.8733 0.9581-2.5975l1.239-1.4511c0.44361-0.5195 0.74677-1.1439 0.8806-1.8138l1.8612-9.3168z" fill="url(#c)"/><g filter="url(#k)"><path d="m7.4788 21.312-1.5625 2.125h21l-1.6875-2.125h-17.75z" fill="url(#b)"/></g><g filter="url(#j)"><path d="m16.791 9.3262c0-1.2502 1.0135-2.2638 2.2637-2.2638 1.0447 0 1.9538 0.71493 2.2 1.7302l3.0363 12.52h-7.5v-11.986z" fill="url(#a)"/></g><defs><filter id="m" x="14.796" y="2.0601" width="2.6084" height="4.3613" color-interpolation-filters="sRGB" filterUnits="userSpaceOnUse"><feFlood flood-opacity="0" result="BackgroundImageFix"/><feBlend in="SourceGraphic" in2="BackgroundImageFix" result="shape"/><feColorMatrix in="SourceAlpha" result="hardAlpha" values="0 0 0 0 0 0 0 0 0 0 0 0 0 0 0 0 0 0 127 0"/><feOffset dx="0.2"/><feGaussianBlur stdDeviation="0.25"/><feComposite in2="hardAlpha" k2="-1" k3="1" operator="arithmetic"/><feColorMatrix values="0 0 0 0 0.87451 0 0 0 0 0.564706 0 0 0 0 0.341176 0 0 0 1 0"/><feBlend in2="shape" result="effect1_innerShadow_18_17986"/></filter><filter id="l" x="-.96069" y="4.2407" width="30.921" height="23.688" color-interpolation-filters="sRGB" filterUnits="userSpaceOnUse"><feFlood flood-opacity="0" result="BackgroundImageFix"/><feBlend in="SourceGraphic" in2="BackgroundImageFix" result="shape"/><feColorMatrix in="SourceAlpha" result="hardAlpha" values="0 0 0 0 0 0 0 0 0 0 0 0 0 0 0 0 0 0 127 0"/><feOffset dx="-4"/><feGaussianBlur stdDeviation="2"/><feComposite in2="hardAlpha" k2="-1" k3="1" operator="arithmetic"/><feColorMatrix values="0 0 0 0 1 0 0 0 0 0.905882 0 0 0 0 0.392157 0 0 0 1 0"/><feBlend in2="shape" result="effect1_innerShadow_18_17986"/><feColorMatrix in="SourceAlpha" result="hardAlpha" values="0 0 0 0 0 0 0 0 0 0 0 0 0 0 0 0 0 0 127 0"/><feOffset dx="-0.5"/><feGaussianBlur stdDeviation="0.5"/><feComposite in2="hardAlpha" k2="-1" k3="1" operator="arithmetic"/><feColorMatrix values="0 0 0 0 0.996078 0 0 0 0 0.866667 0 0 0 0 0.462745 0 0 0 1 0"/><feBlend in2="effect1_innerShadow_18_17986" result="effect2_innerShadow_18_17986"/><feColorMatrix in="SourceAlpha" result="hardAlpha" values="0 0 0 0 0 0 0 0 0 0 0 0 0 0 0 0 0 0 127 0"/><feOffset dx="1"/><feGaussianBlur stdDeviation="1"/><feComposite in2="hardAlpha" k2="-1" k3="1" operator="arithmetic"/><feColorMatrix values="0 0 0 0 0.917647 0 0 0 0 0.572549 0 0 0 0 0.32549 0 0 0 1 0"/><feBlend in2="effect2_innerShadow_18_17986" result="effect3_innerShadow_18_17986"/></filter><filter id="k" x="3.9163" y="19.312" width="25" height="6.125" color-interpolation-filters="sRGB" filterUnits="userSpaceOnUse"><feFlood flood-opacity="0" result="BackgroundImageFix"/><feBlend in="SourceGraphic" in2="BackgroundImageFix" result="shape"/><feGaussianBlur result="effect1_foregroundBlur_18_17986" stdDeviation="1"/></filter><filter id="j" x="14.791" y="5.0625" width="11.5" height="18.25" color-interpolation-filters="sRGB" filterUnits="userSpaceOnUse"><feFlood flood-opacity="0" result="BackgroundImageFix"/><feBlend in="SourceGraphic" in2="BackgroundImageFix" result="shape"/><feGaussianBlur result="effect1_foregroundBlur_18_17986" stdDeviation="1"/></filter><radialGradient id="i" cx="0" cy="0" r="1" gradientTransform="translate(17.76 29.562) rotate(233.49) scale(2.955 4.0809)" gradientUnits="userSpaceOnUse"><stop stop-color="#FFC26D" offset="0"/><stop stop-color="#F68D61" offset="1"/></radialGradient><linearGradient id="h" x1="15.26" x2="15.51" y1="27.156" y2="28.938" gradientUnits="userSpaceOnUse"><stop stop-color="#E57356" offset=".18624"/><stop stop-color="#E57356" stop-opacity="0" offset="1"/></linearGradient><radialGradient id="g" cx="0" cy="0" r="1" gradientTransform="translate(16.885 26.719) rotate(135) scale(4.0659 6.7091)" gradientUnits="userSpaceOnUse"><stop stop-color="#EA8059" stop-opacity="0" offset=".44104"/><stop stop-color="#C27068" offset="1"/></radialGradient><radialGradient id="f" cx="0" cy="0" r="1" gradientTransform="translate(16.791 4.2407) rotate(-90) scale(2.1807 1.3125)" gradientUnits="userSpaceOnUse"><stop stop-color="#FFE957" offset="0"/><stop stop-color="#F7A630" offset="1"/></radialGradient><linearGradient id="e" x1="18.467" x2="4.9456" y1="26.093" y2="26.093" gradientUnits="userSpaceOnUse"><stop stop-color="#FCB949" offset="0"/><stop stop-color="#E28C37" offset="1"/></linearGradient><linearGradient id="d" x1="18.104" x2="18.104" y1="28.188" y2="25.188" gradientUnits="userSpaceOnUse"><stop stop-color="#D7737D" offset="0"/><stop stop-color="#FCA162" stop-opacity="0" offset=".30208"/></linearGradient><radialGradient id="c" cx="0" cy="0" r="1" gradientTransform="translate(22.041 14.625) rotate(146.14) scale(22.883 21.952)" gradientUnits="userSpaceOnUse"><stop stop-color="#E69136" stop-opacity="0" offset=".67038"/><stop stop-color="#CF7D44" offset=".97728"/></radialGradient><linearGradient id="b" x1="6.2288" x2="26.291" y1="23.438" y2="23.438" gradientUnits="userSpaceOnUse"><stop stop-color="#F5A43C" offset=".27726"/><stop stop-color="#FFE154" offset="1"/></linearGradient><linearGradient id="a" x1="25.174" x2="15.541" y1="18.572" y2="18.572" gradientUnits="userSpaceOnUse"><stop stop-color="#FFEF6D" offset=".11756"/><stop stop-color="#FFEF6D" stop-opacity="0" offset="1"/></linearGradient></defs></svg>
