<svg fill="none" viewBox="0 0 32 32" xmlns="http://www.w3.org/2000/svg"><path d="m22.014 29.972c-0.12 0-0.24-0.03-0.35-0.09-3.95-2.07-6.4-6.12-6.4-10.58v-2.75c0-0.41 0.34-0.75 0.75-0.75s0.75 0.34 0.75 0.75v2.75c0 3.9 2.14 7.44 5.6 9.25 0.37 0.19 0.51 0.65 0.32 1.01-0.14 0.26-0.4 0.41-0.67 0.41z" fill="url(#t)"/><g filter="url(#af)"><path d="m16.342 16.549c-0.2002 1.6156-0.2403 5.087 0.9614 7.5704 1.2017 2.4833 4.0498 4.5546 4.9711 4.9552" stroke="url(#i)" stroke-linecap="round" stroke-width=".3"/></g><g filter="url(#ac)"><path d="m28.608 16.197c-0.1388-0.1135-0.1383-0.3351 9e-4 -0.4481 0.9025-0.7325 1.4588-1.8734 1.4047-3.1365-0.09-1.98-1.72-3.58-3.71-3.64-0.78-0.02-1.52 0.2-2.13 0.58l-0.04 0.03c-0.03 0.02-0.06 0.04-0.1 0.06l-3.75 2.49c-0.28 0.19-0.62-0.15-0.43-0.43l2.49-3.75c0.02-0.03 0.04-0.06 0.06-0.1l0.03-0.04c0.41-0.65 0.62-1.42 0.58-2.25-0.12-1.94-1.7-3.5-3.64-3.59-1.2631-0.05413-2.4041 0.50221-3.1366 1.4046-0.113 0.13923-0.3346 0.13972-0.4481 9e-4 -0.7325-0.89583-1.873-1.4596-3.1353-1.4056-1.98 0.09-3.58 1.72-3.64 3.71-0.02 0.78 0.2 1.52 0.58 2.13l0.03 0.04c0.02 0.03 0.04 0.06 0.06 0.1l2.49 3.75c0.19 0.28-0.15 0.62-0.43 0.43l-3.75-2.49c-0.03-0.02-0.06-0.04-0.1-0.06l-0.04-0.03c-0.61-0.38-1.35-0.6-2.13-0.58-1.99 0.06-3.62 1.66-3.71 3.64-0.05413 1.263 0.50221 2.404 1.4046 3.1365 0.13923 0.113 0.13971 0.3346 9e-4 0.4481-0.89583 0.7326-1.4596 1.873-1.4056 3.1354 0.09 1.99 1.72 3.59 3.71 3.64 0.78 0.02 1.52-0.2 2.13-0.58l0.04-0.03c0.03-0.02 0.06-0.04 0.1-0.06l7.5-4.98c0.31-0.21 0.72-0.21 1.04 0l7.5 4.98c0.03 0.02 0.06 0.04 0.1 0.06l0.04 0.03c0.61 0.39 1.35 0.6 2.13 0.58 1.99-0.05 3.62-1.65 3.71-3.64 0.0541-1.2624-0.5098-2.4028-1.4056-3.1354z" fill="url(#h)"/><path d="m28.608 16.197c-0.1388-0.1135-0.1383-0.3351 9e-4 -0.4481 0.9025-0.7325 1.4588-1.8734 1.4047-3.1365-0.09-1.98-1.72-3.58-3.71-3.64-0.78-0.02-1.52 0.2-2.13 0.58l-0.04 0.03c-0.03 0.02-0.06 0.04-0.1 0.06l-3.75 2.49c-0.28 0.19-0.62-0.15-0.43-0.43l2.49-3.75c0.02-0.03 0.04-0.06 0.06-0.1l0.03-0.04c0.41-0.65 0.62-1.42 0.58-2.25-0.12-1.94-1.7-3.5-3.64-3.59-1.2631-0.05413-2.4041 0.50221-3.1366 1.4046-0.113 0.13923-0.3346 0.13972-0.4481 9e-4 -0.7325-0.89583-1.873-1.4596-3.1353-1.4056-1.98 0.09-3.58 1.72-3.64 3.71-0.02 0.78 0.2 1.52 0.58 2.13l0.03 0.04c0.02 0.03 0.04 0.06 0.06 0.1l2.49 3.75c0.19 0.28-0.15 0.62-0.43 0.43l-3.75-2.49c-0.03-0.02-0.06-0.04-0.1-0.06l-0.04-0.03c-0.61-0.38-1.35-0.6-2.13-0.58-1.99 0.06-3.62 1.66-3.71 3.64-0.05413 1.263 0.50221 2.404 1.4046 3.1365 0.13923 0.113 0.13971 0.3346 9e-4 0.4481-0.89583 0.7326-1.4596 1.873-1.4056 3.1354 0.09 1.99 1.72 3.59 3.71 3.64 0.78 0.02 1.52-0.2 2.13-0.58l0.04-0.03c0.03-0.02 0.06-0.04 0.1-0.06l7.5-4.98c0.31-0.21 0.72-0.21 1.04 0l7.5 4.98c0.03 0.02 0.06 0.04 0.1 0.06l0.04 0.03c0.61 0.39 1.35 0.6 2.13 0.58 1.99-0.05 3.62-1.65 3.71-3.64 0.0541-1.2624-0.5098-2.4028-1.4056-3.1354z" fill="url(#g)"/><path d="m28.608 16.197c-0.1388-0.1135-0.1383-0.3351 9e-4 -0.4481 0.9025-0.7325 1.4588-1.8734 1.4047-3.1365-0.09-1.98-1.72-3.58-3.71-3.64-0.78-0.02-1.52 0.2-2.13 0.58l-0.04 0.03c-0.03 0.02-0.06 0.04-0.1 0.06l-3.75 2.49c-0.28 0.19-0.62-0.15-0.43-0.43l2.49-3.75c0.02-0.03 0.04-0.06 0.06-0.1l0.03-0.04c0.41-0.65 0.62-1.42 0.58-2.25-0.12-1.94-1.7-3.5-3.64-3.59-1.2631-0.05413-2.4041 0.50221-3.1366 1.4046-0.113 0.13923-0.3346 0.13972-0.4481 9e-4 -0.7325-0.89583-1.873-1.4596-3.1353-1.4056-1.98 0.09-3.58 1.72-3.64 3.71-0.02 0.78 0.2 1.52 0.58 2.13l0.03 0.04c0.02 0.03 0.04 0.06 0.06 0.1l2.49 3.75c0.19 0.28-0.15 0.62-0.43 0.43l-3.75-2.49c-0.03-0.02-0.06-0.04-0.1-0.06l-0.04-0.03c-0.61-0.38-1.35-0.6-2.13-0.58-1.99 0.06-3.62 1.66-3.71 3.64-0.05413 1.263 0.50221 2.404 1.4046 3.1365 0.13923 0.113 0.13971 0.3346 9e-4 0.4481-0.89583 0.7326-1.4596 1.873-1.4056 3.1354 0.09 1.99 1.72 3.59 3.71 3.64 0.78 0.02 1.52-0.2 2.13-0.58l0.04-0.03c0.03-0.02 0.06-0.04 0.1-0.06l7.5-4.98c0.31-0.21 0.72-0.21 1.04 0l7.5 4.98c0.03 0.02 0.06 0.04 0.1 0.06l0.04 0.03c0.61 0.39 1.35 0.6 2.13 0.58 1.99-0.05 3.62-1.65 3.71-3.64 0.0541-1.2624-0.5098-2.4028-1.4056-3.1354z" fill="url(#f)"/><path d="m28.608 16.197c-0.1388-0.1135-0.1383-0.3351 9e-4 -0.4481 0.9025-0.7325 1.4588-1.8734 1.4047-3.1365-0.09-1.98-1.72-3.58-3.71-3.64-0.78-0.02-1.52 0.2-2.13 0.58l-0.04 0.03c-0.03 0.02-0.06 0.04-0.1 0.06l-3.75 2.49c-0.28 0.19-0.62-0.15-0.43-0.43l2.49-3.75c0.02-0.03 0.04-0.06 0.06-0.1l0.03-0.04c0.41-0.65 0.62-1.42 0.58-2.25-0.12-1.94-1.7-3.5-3.64-3.59-1.2631-0.05413-2.4041 0.50221-3.1366 1.4046-0.113 0.13923-0.3346 0.13972-0.4481 9e-4 -0.7325-0.89583-1.873-1.4596-3.1353-1.4056-1.98 0.09-3.58 1.72-3.64 3.71-0.02 0.78 0.2 1.52 0.58 2.13l0.03 0.04c0.02 0.03 0.04 0.06 0.06 0.1l2.49 3.75c0.19 0.28-0.15 0.62-0.43 0.43l-3.75-2.49c-0.03-0.02-0.06-0.04-0.1-0.06l-0.04-0.03c-0.61-0.38-1.35-0.6-2.13-0.58-1.99 0.06-3.62 1.66-3.71 3.64-0.05413 1.263 0.50221 2.404 1.4046 3.1365 0.13923 0.113 0.13971 0.3346 9e-4 0.4481-0.89583 0.7326-1.4596 1.873-1.4056 3.1354 0.09 1.99 1.72 3.59 3.71 3.64 0.78 0.02 1.52-0.2 2.13-0.58l0.04-0.03c0.03-0.02 0.06-0.04 0.1-0.06l7.5-4.98c0.31-0.21 0.72-0.21 1.04 0l7.5 4.98c0.03 0.02 0.06 0.04 0.1 0.06l0.04 0.03c0.61 0.39 1.35 0.6 2.13 0.58 1.99-0.05 3.62-1.65 3.71-3.64 0.0541-1.2624-0.5098-2.4028-1.4056-3.1354z" fill="url(#e)"/></g><path d="m28.608 16.197c-0.1388-0.1135-0.1383-0.3351 9e-4 -0.4481 0.9025-0.7325 1.4588-1.8734 1.4047-3.1365-0.09-1.98-1.72-3.58-3.71-3.64-0.78-0.02-1.52 0.2-2.13 0.58l-0.04 0.03c-0.03 0.02-0.06 0.04-0.1 0.06l-3.75 2.49c-0.28 0.19-0.62-0.15-0.43-0.43l2.49-3.75c0.02-0.03 0.04-0.06 0.06-0.1l0.03-0.04c0.41-0.65 0.62-1.42 0.58-2.25-0.12-1.94-1.7-3.5-3.64-3.59-1.2631-0.05413-2.4041 0.50221-3.1366 1.4046-0.113 0.13923-0.3346 0.13972-0.4481 9e-4 -0.7325-0.89583-1.873-1.4596-3.1353-1.4056-1.98 0.09-3.58 1.72-3.64 3.71-0.02 0.78 0.2 1.52 0.58 2.13l0.03 0.04c0.02 0.03 0.04 0.06 0.06 0.1l2.49 3.75c0.19 0.28-0.15 0.62-0.43 0.43l-3.75-2.49c-0.03-0.02-0.06-0.04-0.1-0.06l-0.04-0.03c-0.61-0.38-1.35-0.6-2.13-0.58-1.99 0.06-3.62 1.66-3.71 3.64-0.05413 1.263 0.50221 2.404 1.4046 3.1365 0.13923 0.113 0.13971 0.3346 9e-4 0.4481-0.89583 0.7326-1.4596 1.873-1.4056 3.1354 0.09 1.99 1.72 3.59 3.71 3.64 0.78 0.02 1.52-0.2 2.13-0.58l0.04-0.03c0.03-0.02 0.06-0.04 0.1-0.06l7.5-4.98c0.31-0.21 0.72-0.21 1.04 0l7.5 4.98c0.03 0.02 0.06 0.04 0.1 0.06l0.04 0.03c0.61 0.39 1.35 0.6 2.13 0.58 1.99-0.05 3.62-1.65 3.71-3.64 0.0541-1.2624-0.5098-2.4028-1.4056-3.1354z" fill="url(#d)"/><path d="m28.608 16.197c-0.1388-0.1135-0.1383-0.3351 9e-4 -0.4481 0.9025-0.7325 1.4588-1.8734 1.4047-3.1365-0.09-1.98-1.72-3.58-3.71-3.64-0.78-0.02-1.52 0.2-2.13 0.58l-0.04 0.03c-0.03 0.02-0.06 0.04-0.1 0.06l-3.75 2.49c-0.28 0.19-0.62-0.15-0.43-0.43l2.49-3.75c0.02-0.03 0.04-0.06 0.06-0.1l0.03-0.04c0.41-0.65 0.62-1.42 0.58-2.25-0.12-1.94-1.7-3.5-3.64-3.59-1.2631-0.05413-2.4041 0.50221-3.1366 1.4046-0.113 0.13923-0.3346 0.13972-0.4481 9e-4 -0.7325-0.89583-1.873-1.4596-3.1353-1.4056-1.98 0.09-3.58 1.72-3.64 3.71-0.02 0.78 0.2 1.52 0.58 2.13l0.03 0.04c0.02 0.03 0.04 0.06 0.06 0.1l2.49 3.75c0.19 0.28-0.15 0.62-0.43 0.43l-3.75-2.49c-0.03-0.02-0.06-0.04-0.1-0.06l-0.04-0.03c-0.61-0.38-1.35-0.6-2.13-0.58-1.99 0.06-3.62 1.66-3.71 3.64-0.05413 1.263 0.50221 2.404 1.4046 3.1365 0.13923 0.113 0.13971 0.3346 9e-4 0.4481-0.89583 0.7326-1.4596 1.873-1.4056 3.1354 0.09 1.99 1.72 3.59 3.71 3.64 0.78 0.02 1.52-0.2 2.13-0.58l0.04-0.03c0.03-0.02 0.06-0.04 0.1-0.06l7.5-4.98c0.31-0.21 0.72-0.21 1.04 0l7.5 4.98c0.03 0.02 0.06 0.04 0.1 0.06l0.04 0.03c0.61 0.39 1.35 0.6 2.13 0.58 1.99-0.05 3.62-1.65 3.71-3.64 0.0541-1.2624-0.5098-2.4028-1.4056-3.1354z" fill="url(#c)"/><path d="m28.608 16.197c-0.1388-0.1135-0.1383-0.3351 9e-4 -0.4481 0.9025-0.7325 1.4588-1.8734 1.4047-3.1365-0.09-1.98-1.72-3.58-3.71-3.64-0.78-0.02-1.52 0.2-2.13 0.58l-0.04 0.03c-0.03 0.02-0.06 0.04-0.1 0.06l-3.75 2.49c-0.28 0.19-0.62-0.15-0.43-0.43l2.49-3.75c0.02-0.03 0.04-0.06 0.06-0.1l0.03-0.04c0.41-0.65 0.62-1.42 0.58-2.25-0.12-1.94-1.7-3.5-3.64-3.59-1.2631-0.05413-2.4041 0.50221-3.1366 1.4046-0.113 0.13923-0.3346 0.13972-0.4481 9e-4 -0.7325-0.89583-1.873-1.4596-3.1353-1.4056-1.98 0.09-3.58 1.72-3.64 3.71-0.02 0.78 0.2 1.52 0.58 2.13l0.03 0.04c0.02 0.03 0.04 0.06 0.06 0.1l2.49 3.75c0.19 0.28-0.15 0.62-0.43 0.43l-3.75-2.49c-0.03-0.02-0.06-0.04-0.1-0.06l-0.04-0.03c-0.61-0.38-1.35-0.6-2.13-0.58-1.99 0.06-3.62 1.66-3.71 3.64-0.05413 1.263 0.50221 2.404 1.4046 3.1365 0.13923 0.113 0.13971 0.3346 9e-4 0.4481-0.89583 0.7326-1.4596 1.873-1.4056 3.1354 0.09 1.99 1.72 3.59 3.71 3.64 0.78 0.02 1.52-0.2 2.13-0.58l0.04-0.03c0.03-0.02 0.06-0.04 0.1-0.06l7.5-4.98c0.31-0.21 0.72-0.21 1.04 0l7.5 4.98c0.03 0.02 0.06 0.04 0.1 0.06l0.04 0.03c0.61 0.39 1.35 0.6 2.13 0.58 1.99-0.05 3.62-1.65 3.71-3.64 0.0541-1.2624-0.5098-2.4028-1.4056-3.1354z" fill="url(#b)"/><path d="m28.608 16.197c-0.1388-0.1135-0.1383-0.3351 9e-4 -0.4481 0.9025-0.7325 1.4588-1.8734 1.4047-3.1365-0.09-1.98-1.72-3.58-3.71-3.64-0.78-0.02-1.52 0.2-2.13 0.58l-0.04 0.03c-0.03 0.02-0.06 0.04-0.1 0.06l-3.75 2.49c-0.28 0.19-0.62-0.15-0.43-0.43l2.49-3.75c0.02-0.03 0.04-0.06 0.06-0.1l0.03-0.04c0.41-0.65 0.62-1.42 0.58-2.25-0.12-1.94-1.7-3.5-3.64-3.59-1.2631-0.05413-2.4041 0.50221-3.1366 1.4046-0.113 0.13923-0.3346 0.13972-0.4481 9e-4 -0.7325-0.89583-1.873-1.4596-3.1353-1.4056-1.98 0.09-3.58 1.72-3.64 3.71-0.02 0.78 0.2 1.52 0.58 2.13l0.03 0.04c0.02 0.03 0.04 0.06 0.06 0.1l2.49 3.75c0.19 0.28-0.15 0.62-0.43 0.43l-3.75-2.49c-0.03-0.02-0.06-0.04-0.1-0.06l-0.04-0.03c-0.61-0.38-1.35-0.6-2.13-0.58-1.99 0.06-3.62 1.66-3.71 3.64-0.05413 1.263 0.50221 2.404 1.4046 3.1365 0.13923 0.113 0.13971 0.3346 9e-4 0.4481-0.89583 0.7326-1.4596 1.873-1.4056 3.1354 0.09 1.99 1.72 3.59 3.71 3.64 0.78 0.02 1.52-0.2 2.13-0.58l0.04-0.03c0.03-0.02 0.06-0.04 0.1-0.06l7.5-4.98c0.31-0.21 0.72-0.21 1.04 0l7.5 4.98c0.03 0.02 0.06 0.04 0.1 0.06l0.04 0.03c0.61 0.39 1.35 0.6 2.13 0.58 1.99-0.05 3.62-1.65 3.71-3.64 0.0541-1.2624-0.5098-2.4028-1.4056-3.1354z" fill="url(#a)"/><path d="m28.608 16.197c-0.1388-0.1135-0.1383-0.3351 9e-4 -0.4481 0.9025-0.7325 1.4588-1.8734 1.4047-3.1365-0.09-1.98-1.72-3.58-3.71-3.64-0.78-0.02-1.52 0.2-2.13 0.58l-0.04 0.03c-0.03 0.02-0.06 0.04-0.1 0.06l-3.75 2.49c-0.28 0.19-0.62-0.15-0.43-0.43l2.49-3.75c0.02-0.03 0.04-0.06 0.06-0.1l0.03-0.04c0.41-0.65 0.62-1.42 0.58-2.25-0.12-1.94-1.7-3.5-3.64-3.59-1.2631-0.05413-2.4041 0.50221-3.1366 1.4046-0.113 0.13923-0.3346 0.13972-0.4481 9e-4 -0.7325-0.89583-1.873-1.4596-3.1353-1.4056-1.98 0.09-3.58 1.72-3.64 3.71-0.02 0.78 0.2 1.52 0.58 2.13l0.03 0.04c0.02 0.03 0.04 0.06 0.06 0.1l2.49 3.75c0.19 0.28-0.15 0.62-0.43 0.43l-3.75-2.49c-0.03-0.02-0.06-0.04-0.1-0.06l-0.04-0.03c-0.61-0.38-1.35-0.6-2.13-0.58-1.99 0.06-3.62 1.66-3.71 3.64-0.05413 1.263 0.50221 2.404 1.4046 3.1365 0.13923 0.113 0.13971 0.3346 9e-4 0.4481-0.89583 0.7326-1.4596 1.873-1.4056 3.1354 0.09 1.99 1.72 3.59 3.71 3.64 0.78 0.02 1.52-0.2 2.13-0.58l0.04-0.03c0.03-0.02 0.06-0.04 0.1-0.06l7.5-4.98c0.31-0.21 0.72-0.21 1.04 0l7.5 4.98c0.03 0.02 0.06 0.04 0.1 0.06l0.04 0.03c0.61 0.39 1.35 0.6 2.13 0.58 1.99-0.05 3.62-1.65 3.71-3.64 0.0541-1.2624-0.5098-2.4028-1.4056-3.1354z" fill="url(#s)"/><path d="m28.608 16.197c-0.1388-0.1135-0.1383-0.3351 9e-4 -0.4481 0.9025-0.7325 1.4588-1.8734 1.4047-3.1365-0.09-1.98-1.72-3.58-3.71-3.64-0.78-0.02-1.52 0.2-2.13 0.58l-0.04 0.03c-0.03 0.02-0.06 0.04-0.1 0.06l-3.75 2.49c-0.28 0.19-0.62-0.15-0.43-0.43l2.49-3.75c0.02-0.03 0.04-0.06 0.06-0.1l0.03-0.04c0.41-0.65 0.62-1.42 0.58-2.25-0.12-1.94-1.7-3.5-3.64-3.59-1.2631-0.05413-2.4041 0.50221-3.1366 1.4046-0.113 0.13923-0.3346 0.13972-0.4481 9e-4 -0.7325-0.89583-1.873-1.4596-3.1353-1.4056-1.98 0.09-3.58 1.72-3.64 3.71-0.02 0.78 0.2 1.52 0.58 2.13l0.03 0.04c0.02 0.03 0.04 0.06 0.06 0.1l2.49 3.75c0.19 0.28-0.15 0.62-0.43 0.43l-3.75-2.49c-0.03-0.02-0.06-0.04-0.1-0.06l-0.04-0.03c-0.61-0.38-1.35-0.6-2.13-0.58-1.99 0.06-3.62 1.66-3.71 3.64-0.05413 1.263 0.50221 2.404 1.4046 3.1365 0.13923 0.113 0.13971 0.3346 9e-4 0.4481-0.89583 0.7326-1.4596 1.873-1.4056 3.1354 0.09 1.99 1.72 3.59 3.71 3.64 0.78 0.02 1.52-0.2 2.13-0.58l0.04-0.03c0.03-0.02 0.06-0.04 0.1-0.06l7.5-4.98c0.31-0.21 0.72-0.21 1.04 0l7.5 4.98c0.03 0.02 0.06 0.04 0.1 0.06l0.04 0.03c0.61 0.39 1.35 0.6 2.13 0.58 1.99-0.05 3.62-1.65 3.71-3.64 0.0541-1.2624-0.5098-2.4028-1.4056-3.1354z" fill="url(#r)"/><path d="m28.608 16.197c-0.1388-0.1135-0.1383-0.3351 9e-4 -0.4481 0.9025-0.7325 1.4588-1.8734 1.4047-3.1365-0.09-1.98-1.72-3.58-3.71-3.64-0.78-0.02-1.52 0.2-2.13 0.58l-0.04 0.03c-0.03 0.02-0.06 0.04-0.1 0.06l-3.75 2.49c-0.28 0.19-0.62-0.15-0.43-0.43l2.49-3.75c0.02-0.03 0.04-0.06 0.06-0.1l0.03-0.04c0.41-0.65 0.62-1.42 0.58-2.25-0.12-1.94-1.7-3.5-3.64-3.59-1.2631-0.05413-2.4041 0.50221-3.1366 1.4046-0.113 0.13923-0.3346 0.13972-0.4481 9e-4 -0.7325-0.89583-1.873-1.4596-3.1353-1.4056-1.98 0.09-3.58 1.72-3.64 3.71-0.02 0.78 0.2 1.52 0.58 2.13l0.03 0.04c0.02 0.03 0.04 0.06 0.06 0.1l2.49 3.75c0.19 0.28-0.15 0.62-0.43 0.43l-3.75-2.49c-0.03-0.02-0.06-0.04-0.1-0.06l-0.04-0.03c-0.61-0.38-1.35-0.6-2.13-0.58-1.99 0.06-3.62 1.66-3.71 3.64-0.05413 1.263 0.50221 2.404 1.4046 3.1365 0.13923 0.113 0.13971 0.3346 9e-4 0.4481-0.89583 0.7326-1.4596 1.873-1.4056 3.1354 0.09 1.99 1.72 3.59 3.71 3.64 0.78 0.02 1.52-0.2 2.13-0.58l0.04-0.03c0.03-0.02 0.06-0.04 0.1-0.06l7.5-4.98c0.31-0.21 0.72-0.21 1.04 0l7.5 4.98c0.03 0.02 0.06 0.04 0.1 0.06l0.04 0.03c0.61 0.39 1.35 0.6 2.13 0.58 1.99-0.05 3.62-1.65 3.71-3.64 0.0541-1.2624-0.5098-2.4028-1.4056-3.1354z" fill="url(#q)"/><g filter="url(#ab)"><path d="m7.8315 20.991 7.2414-5.0226-6.5414-4.5838c-1.153-0.8079-2.7279-0.6263-3.6667 0.4229-0.89356 0.9987-0.94737 2.4928-0.12799 3.5531l0.71108 0.9202-0.69791 0.5519c-1.1054 0.874-1.3088 2.4716-0.45767 3.5947 0.83806 1.1059 2.399 1.3545 3.5391 0.5636z" fill="#5AB25A"/></g><g filter="url(#aa)"><path d="m11.669 8.2488 4.543 6.5498 4.1459-5.9166c0.7308-1.0428 0.5665-2.4674-0.3825-3.3165-0.9033-0.8082-2.2546-0.85688-3.2137-0.11576l-0.8324 0.64316-0.4991-0.63125c-0.7905-0.99979-2.2355-1.1838-3.2513-0.41395-1.0003 0.75801-1.2251 2.1698-0.5099 3.2011z" fill="#5AB25A"/></g><g filter="url(#z)"><path d="m23.845 12.015-5.7094 3.96 5.1574 3.6139c0.9091 0.637 2.1508 0.4938 2.8909-0.3334 0.7045-0.7874 0.747-1.9654 0.1009-2.8014l-0.5606-0.7255 0.5503-0.4351c0.8715-0.6891 1.0318-1.9486 0.3608-2.8341-0.6608-0.8719-1.8914-1.0679-2.7903-0.4444z" fill="#5AB25A"/></g><g filter="url(#y)"><path d="m14.537 14.799-7.6574-4.7675c-0.41696-0.25959-0.96523-0.13457-1.2284 0.2801-0.26893 0.4237-0.13712 0.9856 0.29284 1.2445 1.6328 0.983 4.3887 2.6309 5.6821 3.3453 1.5768 0.8709 2.6574 0.2097 2.9109-0.1024z" fill="url(#p)"/></g><g filter="url(#x)"><path d="m9.6518 7.1926 4.856 7.6059c0.6826-0.5266 0.4798-3.0014-0.8775-5.0608-1.3574-2.0594-3.0814-2.7108-3.9785-2.545z" fill="url(#o)"/></g><g filter="url(#w)"><ellipse transform="rotate(-25.924 27.542 12.07)" cx="27.542" cy="12.07" rx="1.875" ry="2.4476" fill="url(#n)"/></g><g filter="url(#v)"><ellipse transform="rotate(-41.402 20.325 4.8647)" cx="20.325" cy="4.8647" rx="1.875" ry="2.4476" fill="url(#m)"/></g><g filter="url(#u)"><path d="m28.434 16.841-2.6875-1.75c0.2812 1.0703 0.8719 3.1219 1.1719 3.7969 0.4765 1.2734 2.125 1.1484 2.3515-0.0469 0.275-1.225-0.3672-1.664-0.8359-2z" fill="url(#l)"/></g><g filter="url(#ae)"><path d="m15.854 4.5155v3.5625c-1.4532-1.3125-2.2339-1.8438-2.7339-2.9063-0.6733-1.431 0.3268-2.6826 1.25-1.9062 0.3438 0.28906 1.0078 0.86719 1.4839 1.25z" fill="url(#k)"/></g><g filter="url(#ad)"><path d="m13.385 14.281 2.6875 1.625-3.125 0.4063 0.4375-2.0313z" fill="url(#j)"/></g><defs><filter id="af" x="15.784" y="16.099" width="6.9403" height="13.425" color-interpolation-filters="sRGB" filterUnits="userSpaceOnUse"><feFlood flood-opacity="0" result="BackgroundImageFix"/><feBlend in="SourceGraphic" in2="BackgroundImageFix" result="shape"/><feGaussianBlur result="effect1_foregroundBlur_28327_7859" stdDeviation="0.15"/></filter><filter id="ac" x="2.0104" y="1.2188" width="28.757" height="21.755" color-interpolation-filters="sRGB" filterUnits="userSpaceOnUse"><feFlood flood-opacity="0" result="BackgroundImageFix"/><feBlend in="SourceGraphic" in2="BackgroundImageFix" result="shape"/><feColorMatrix in="SourceAlpha" result="hardAlpha" values="0 0 0 0 0 0 0 0 0 0 0 0 0 0 0 0 0 0 127 0"/><feOffset dx="0.75"/><feGaussianBlur stdDeviation="0.5"/><feComposite in2="hardAlpha" k2="-1" k3="1" operator="arithmetic"/><feColorMatrix values="0 0 0 0 0.678431 0 0 0 0 0.823529 0 0 0 0 0.639216 0 0 0 1 0"/><feBlend in2="shape" result="effect1_innerShadow_28327_7859"/><feColorMatrix in="SourceAlpha" result="hardAlpha" values="0 0 0 0 0 0 0 0 0 0 0 0 0 0 0 0 0 0 127 0"/><feOffset dy="-0.75"/><feGaussianBlur stdDeviation="0.5"/><feComposite in2="hardAlpha" k2="-1" k3="1" operator="arithmetic"/><feColorMatrix values="0 0 0 0 0.215686 0 0 0 0 0.505882 0 0 0 0 0.243137 0 0 0 0.6 0"/><feBlend in2="effect1_innerShadow_28327_7859" result="effect2_innerShadow_28327_7859"/></filter><filter id="ab" x="1.7667" y="8.8816" width="15.306" height="14.572" color-interpolation-filters="sRGB" filterUnits="userSpaceOnUse"><feFlood flood-opacity="0" result="BackgroundImageFix"/><feBlend in="SourceGraphic" in2="BackgroundImageFix" result="shape"/><feGaussianBlur result="effect1_foregroundBlur_28327_7859" stdDeviation="1"/></filter><filter id="aa" x="9.2512" y="2.5723" width="13.562" height="14.226" color-interpolation-filters="sRGB" filterUnits="userSpaceOnUse"><feFlood flood-opacity="0" result="BackgroundImageFix"/><feBlend in="SourceGraphic" in2="BackgroundImageFix" result="shape"/><feGaussianBlur result="effect1_foregroundBlur_28327_7859" stdDeviation="1"/></filter><filter id="z" x="16.135" y="9.6506" width="12.914" height="12.335" color-interpolation-filters="sRGB" filterUnits="userSpaceOnUse"><feFlood flood-opacity="0" result="BackgroundImageFix"/><feBlend in="SourceGraphic" in2="BackgroundImageFix" result="shape"/><feGaussianBlur result="effect1_foregroundBlur_28327_7859" stdDeviation="1"/></filter><filter id="y" x="4.5119" y="8.8958" width="11.026" height="7.438" color-interpolation-filters="sRGB" filterUnits="userSpaceOnUse"><feFlood flood-opacity="0" result="BackgroundImageFix"/><feBlend in="SourceGraphic" in2="BackgroundImageFix" result="shape"/><feGaussianBlur result="effect1_foregroundBlur_28327_7859" stdDeviation="0.5"/></filter><filter id="x" x="8.6518" y="6.168" width="7.2365" height="9.6306" color-interpolation-filters="sRGB" filterUnits="userSpaceOnUse"><feFlood flood-opacity="0" result="BackgroundImageFix"/><feBlend in="SourceGraphic" in2="BackgroundImageFix" result="shape"/><feGaussianBlur result="effect1_foregroundBlur_28327_7859" stdDeviation="0.5"/></filter><filter id="w" x="24.544" y="8.7202" width="5.9949" height="6.6992" color-interpolation-filters="sRGB" filterUnits="userSpaceOnUse"><feFlood flood-opacity="0" result="BackgroundImageFix"/><feBlend in="SourceGraphic" in2="BackgroundImageFix" result="shape"/><feGaussianBlur result="effect1_foregroundBlur_28327_7859" stdDeviation="0.5"/></filter><filter id="v" x="17.18" y="1.6489" width="6.2887" height="6.4314" color-interpolation-filters="sRGB" filterUnits="userSpaceOnUse"><feFlood flood-opacity="0" result="BackgroundImageFix"/><feBlend in="SourceGraphic" in2="BackgroundImageFix" result="shape"/><feGaussianBlur result="effect1_foregroundBlur_28327_7859" stdDeviation="0.5"/></filter><filter id="u" x="24.747" y="14.091" width="5.5895" height="6.7004" color-interpolation-filters="sRGB" filterUnits="userSpaceOnUse"><feFlood flood-opacity="0" result="BackgroundImageFix"/><feBlend in="SourceGraphic" in2="BackgroundImageFix" result="shape"/><feGaussianBlur result="effect1_foregroundBlur_28327_7859" stdDeviation="0.5"/></filter><filter id="ae" x="11.9" y="2.0276" width="4.9542" height="7.0505" color-interpolation-filters="sRGB" filterUnits="userSpaceOnUse"><feFlood flood-opacity="0" result="BackgroundImageFix"/><feBlend in="SourceGraphic" in2="BackgroundImageFix" result="shape"/><feGaussianBlur result="effect1_foregroundBlur_28327_7859" stdDeviation="0.5"/></filter><filter id="ad" x="12.448" y="13.781" width="4.125" height="3.0312" color-interpolation-filters="sRGB" filterUnits="userSpaceOnUse"><feFlood flood-opacity="0" result="BackgroundImageFix"/><feBlend in="SourceGraphic" in2="BackgroundImageFix" result="shape"/><feGaussianBlur result="effect1_foregroundBlur_28327_7859" stdDeviation="0.25"/></filter><linearGradient id="t" x1="15.264" x2="23.336" y1="17.249" y2="31.79" gradientUnits="userSpaceOnUse"><stop stop-color="#1C3226" offset="0"/><stop stop-color="#41724B" offset="1"/></linearGradient><linearGradient id="i" x1="16.819" x2="21.675" y1="17.217" y2="29.226" gradientUnits="userSpaceOnUse"><stop stop-color="#43504C" offset="0"/><stop stop-color="#6C8B72" offset="1"/></linearGradient><radialGradient id="h" cx="0" cy="0" r="1" gradientTransform="translate(15.342 23.296) scale(16.045)" gradientUnits="userSpaceOnUse"><stop stop-color="#3D8346" offset="0"/><stop stop-color="#64BF60" offset=".77721"/></radialGradient><radialGradient id="g" cx="0" cy="0" r="1" gradientTransform="translate(2.6603 15.91) scale(5.2656 12.286)" gradientUnits="userSpaceOnUse"><stop stop-color="#4D9E4C" offset="0"/><stop stop-color="#4D9E4C" stop-opacity="0" offset="1"/></radialGradient><radialGradient id="f" cx="0" cy="0" r="1" gradientTransform="translate(7.0483 2.2782) rotate(58.683) scale(11.932 11.108)" gradientUnits="userSpaceOnUse"><stop stop-color="#4D9E4C" offset="0"/><stop stop-color="#4D9E4C" stop-opacity="0" offset="1"/></radialGradient><radialGradient id="e" cx="0" cy="0" r="1" gradientTransform="translate(27.818 24.686) rotate(213.06) scale(11.798 8.7589)" gradientUnits="userSpaceOnUse"><stop stop-color="#4D9E4C" offset="0"/><stop stop-color="#4D9E4C" stop-opacity="0" offset="1"/></radialGradient><radialGradient id="d" cx="0" cy="0" r="1" gradientTransform="translate(23.138 10.118) rotate(146.08) scale(6.0283 5.2431)" gradientUnits="userSpaceOnUse"><stop stop-color="#69B257" offset="0"/><stop stop-color="#69B257" stop-opacity="0" offset="1"/></radialGradient><radialGradient id="c" cx="0" cy="0" r="1" gradientTransform="translate(30.018 15.062) rotate(180) scale(4.0385 2.2812)" gradientUnits="userSpaceOnUse"><stop stop-color="#5FBE59" offset="0"/><stop stop-color="#5FBE59" stop-opacity="0" offset="1"/></radialGradient><radialGradient id="b" cx="0" cy="0" r="1" gradientTransform="translate(10.442 10.498) rotate(46.507) scale(4.7179 2.3317)" gradientUnits="userSpaceOnUse"><stop stop-color="#419D36" offset="0"/><stop stop-color="#419D36" stop-opacity="0" offset="1"/></radialGradient><radialGradient id="a" cx="0" cy="0" r="1" gradientTransform="translate(21.309 10.586) rotate(133.95) scale(6.217 .24068)" gradientUnits="userSpaceOnUse"><stop stop-color="#83C978" offset=".39735"/><stop stop-color="#83C978" stop-opacity="0" offset="1"/></radialGradient><radialGradient id="s" cx="0" cy="0" r="1" gradientTransform="translate(29.76 16.016) rotate(180) scale(4.3438 .32812)" gradientUnits="userSpaceOnUse"><stop stop-color="#83C978" offset=".49519"/><stop stop-color="#83C978" stop-opacity="0" offset="1"/></radialGradient><radialGradient id="r" cx="0" cy="0" r="1" gradientTransform="translate(10.383 10.381) rotate(44.471) scale(6.723 .26027)" gradientUnits="userSpaceOnUse"><stop stop-color="#64BD54" offset=".39735"/><stop stop-color="#64BD54" stop-opacity="0" offset="1"/></radialGradient><radialGradient id="q" cx="0" cy="0" r="1" gradientTransform="translate(19.886 20.161) rotate(32.558) scale(8.15 2.8042)" gradientUnits="userSpaceOnUse"><stop stop-color="#5C896A" offset="0"/><stop stop-color="#5C896A" stop-opacity="0" offset="1"/></radialGradient><linearGradient id="p" x1="10.968" x2="7.7504" y1="11.113" y2="15.91" gradientUnits="userSpaceOnUse"><stop stop-color="#83C57F" offset="0"/><stop stop-color="#83C57F" stop-opacity="0" offset="1"/></linearGradient><linearGradient id="o" x1="12.021" x2="15.423" y1="10.899" y2="8.7138" gradientUnits="userSpaceOnUse"><stop stop-color="#44A340" offset="0"/><stop stop-color="#44A340" stop-opacity="0" offset="1"/></linearGradient><radialGradient id="n" cx="0" cy="0" r="1" gradientTransform="translate(28.578 12.01) rotate(182.17) scale(2.5606 2.7462)" gradientUnits="userSpaceOnUse"><stop stop-color="#92E289" offset="0"/><stop stop-color="#92E289" stop-opacity="0" offset="1"/></radialGradient><radialGradient id="m" cx="0" cy="0" r="1" gradientTransform="translate(21.362 4.8046) rotate(182.17) scale(2.5606 2.7462)" gradientUnits="userSpaceOnUse"><stop stop-color="#92E289" offset="0"/><stop stop-color="#92E289" stop-opacity="0" offset="1"/></radialGradient><radialGradient id="l" cx="0" cy="0" r="1" gradientTransform="translate(30.278 19.122) rotate(227.4) scale(8.4485 3.0748)" gradientUnits="userSpaceOnUse"><stop stop-color="#92E289" offset="0"/><stop stop-color="#92E289" stop-opacity="0" offset="1"/></radialGradient><radialGradient id="k" cx="0" cy="0" r="1" gradientTransform="translate(14.103 4.4686) rotate(46.145) scale(5.5038 3.3043)" gradientUnits="userSpaceOnUse"><stop stop-color="#8EDB87" offset="0"/><stop stop-color="#8EDB87" stop-opacity="0" offset="1"/></radialGradient><linearGradient id="j" x1="15.417" x2="12.854" y1="15.719" y2="15.562" gradientUnits="userSpaceOnUse"><stop stop-color="#83C57F" offset="0"/><stop stop-color="#83C57F" stop-opacity="0" offset="1"/></linearGradient></defs></svg>
