<svg fill="none" viewBox="0 0 32 32" xmlns="http://www.w3.org/2000/svg"><path d="m2.0156 23.969v-15.891c0-1.0312 0.78125-1.3281 1.2656-1.5312 0.48437-0.20313 11.666-4.2656 12.016-4.3906s1.0521-0.05208 1.3593 0c3.849 1.3906 11.706 4.2438 12.344 4.5312s0.901 1.0469 0.9531 1.3906v15.766c0 0.725-0.5469 1.3593-0.8437 1.4687l-12.594 4.6406c-0.2625 0.0875-0.7447 0.1105-1.0468 0-3.6771-1.3437-11.256-4.1125-12.156-4.4375-1-0.3593-1.3385-1.2031-1.2969-1.5468z" fill="#52C3E4"/><path d="m16.656 2.1562c3.8489 1.3906 11.969 4.375 12.344 4.5312 0.375 0.15625 0.531 0.42232 0.6719 0.60938l-13.672 4.8437-13.734-4.9375c0.27138-0.32399 0.72663-0.53505 1.0156-0.65624 0.48437-0.20313 11.666-4.2656 12.016-4.3906s1.0521-0.05208 1.3594 0z" fill="url(#z)"/><path d="m16.656 2.1562c3.8489 1.3906 11.969 4.375 12.344 4.5312 0.375 0.15625 0.531 0.42232 0.6719 0.60938l-13.672 4.8437-13.734-4.9375c0.27138-0.32399 0.72663-0.53505 1.0156-0.65624 0.48437-0.20313 11.666-4.2656 12.016-4.3906s1.0521-0.05208 1.3594 0z" fill="url(#o)"/><path d="m16.656 2.1562c3.8489 1.3906 11.969 4.375 12.344 4.5312 0.375 0.15625 0.531 0.42232 0.6719 0.60938l-13.672 4.8437-13.734-4.9375c0.27138-0.32399 0.72663-0.53505 1.0156-0.65624 0.48437-0.20313 11.666-4.2656 12.016-4.3906s1.0521-0.05208 1.3594 0z" fill="url(#h)"/><path d="m16.656 2.1562c3.8489 1.3906 11.969 4.375 12.344 4.5312 0.375 0.15625 0.531 0.42232 0.6719 0.60938l-13.672 4.8437-13.734-4.9375c0.27138-0.32399 0.72663-0.53505 1.0156-0.65624 0.48437-0.20313 11.666-4.2656 12.016-4.3906s1.0521-0.05208 1.3594 0z" fill="url(#g)"/><path d="m16.656 2.1562c3.8489 1.3906 11.969 4.375 12.344 4.5312 0.375 0.15625 0.531 0.42232 0.6719 0.60938l-13.672 4.8437-13.734-4.9375c0.27138-0.32399 0.72663-0.53505 1.0156-0.65624 0.48437-0.20313 11.666-4.2656 12.016-4.3906s1.0521-0.05208 1.3594 0z" fill="url(#f)"/><path d="m16.656 2.1562c3.8489 1.3906 11.969 4.375 12.344 4.5312 0.375 0.15625 0.531 0.42232 0.6719 0.60938l-13.672 4.8437-13.734-4.9375c0.27138-0.32399 0.72663-0.53505 1.0156-0.65624 0.48437-0.20313 11.666-4.2656 12.016-4.3906s1.0521-0.05208 1.3594 0z" fill="url(#e)"/><path d="m29.109 25.312-12.594 4.6406c-0.1261 0.0421-0.3029 0.0692-0.486 0.0738l0.0016-18.019 13.6-4.7527c0.1947 0.30016 0.3216 0.60427 0.3216 0.82302v15.766c0 0.725-0.5469 1.3593-0.8437 1.4687z" fill="url(#d)"/><path d="m29.109 25.312-12.594 4.6406c-0.1261 0.0421-0.3029 0.0692-0.486 0.0738l0.0016-18.019 13.6-4.7527c0.1947 0.30016 0.3216 0.60427 0.3216 0.82302v15.766c0 0.725-0.5469 1.3593-0.8437 1.4687z" fill="url(#c)"/><path d="m29.109 25.312-12.594 4.6406c-0.1261 0.0421-0.3029 0.0692-0.486 0.0738l0.0016-18.019 13.6-4.7527c0.1947 0.30016 0.3216 0.60427 0.3216 0.82302v15.766c0 0.725-0.5469 1.3593-0.8437 1.4687z" fill="url(#b)"/><path d="m29.109 25.312-12.594 4.6406c-0.1261 0.0421-0.3029 0.0692-0.486 0.0738l0.0016-18.019 13.6-4.7527c0.1947 0.30016 0.3216 0.60427 0.3216 0.82302v15.766c0 0.725-0.5469 1.3593-0.8437 1.4687z" fill="url(#a)"/><path d="m2.0156 23.969v-15.891c0-0.41391 0.12586-0.70952 0.30787-0.92824 0 0 10.426 3.9414 13.706 4.8423v18.035c-0.1982 5e-3 -0.4038-0.0164-0.5608-0.0738-3.6771-1.3437-11.256-4.1125-12.156-4.4375-1-0.3593-1.3385-1.2031-1.2969-1.5468z" fill="url(#y)"/><path d="m2.0156 23.969v-15.891c0-0.41391 0.12586-0.70952 0.30787-0.92824 0 0 10.426 3.9414 13.706 4.8423v18.035c-0.1982 5e-3 -0.4038-0.0164-0.5608-0.0738-3.6771-1.3437-11.256-4.1125-12.156-4.4375-1-0.3593-1.3385-1.2031-1.2969-1.5468z" fill="url(#x)"/><path d="m2.0156 23.969v-15.891c0-0.41391 0.12586-0.70952 0.30787-0.92824 0 0 10.426 3.9414 13.706 4.8423v18.035c-0.1982 5e-3 -0.4038-0.0164-0.5608-0.0738-3.6771-1.3437-11.256-4.1125-12.156-4.4375-1-0.3593-1.3385-1.2031-1.2969-1.5468z" fill="url(#w)"/><path d="m2.0156 23.969v-15.891c0-0.41391 0.12586-0.70952 0.30787-0.92824 0 0 10.426 3.9414 13.706 4.8423v18.035c-0.1982 5e-3 -0.4038-0.0164-0.5608-0.0738-3.6771-1.3437-11.256-4.1125-12.156-4.4375-1-0.3593-1.3385-1.2031-1.2969-1.5468z" fill="url(#v)"/><g filter="url(#af)"><path d="m20.151 14.381c0.7345 0.8106 1.4587 2.1725 1.6329 3.2141 0.3494 2.088-2.658 3.0766-3.0191 1.3437-0.2832-1.3593 0.4488-3.3566 1.0501-4.5078 0.0875-0.1673 0.2538-0.1616 0.3361-0.05z" fill="#78DCFF"/><path d="m20.151 14.381c0.7345 0.8106 1.4587 2.1725 1.6329 3.2141 0.3494 2.088-2.658 3.0766-3.0191 1.3437-0.2832-1.3593 0.4488-3.3566 1.0501-4.5078 0.0875-0.1673 0.2538-0.1616 0.3361-0.05z" fill="#39B3FF"/></g><path d="m20.653 13.481c0.8307 0.8106 1.6495 2.1725 1.8466 3.2141 0.395 2.0881-3.0057 3.0766-3.4141 1.3438-0.3203-1.3594 0.5075-3.3567 1.1875-4.5079 0.0989-0.1673 0.287-0.1616 0.38-0.05z" fill="#78DCFF"/><path d="m20.653 13.481c0.8307 0.8106 1.6495 2.1725 1.8466 3.2141 0.395 2.0881-3.0057 3.0766-3.4141 1.3438-0.3203-1.3594 0.5075-3.3567 1.1875-4.5079 0.0989-0.1673 0.287-0.1616 0.38-0.05z" fill="url(#u)"/><path d="m20.653 13.481c0.8307 0.8106 1.6495 2.1725 1.8466 3.2141 0.395 2.0881-3.0057 3.0766-3.4141 1.3438-0.3203-1.3594 0.5075-3.3567 1.1875-4.5079 0.0989-0.1673 0.287-0.1616 0.38-0.05z" fill="url(#t)"/><path d="m20.653 13.481c0.8307 0.8106 1.6495 2.1725 1.8466 3.2141 0.395 2.0881-3.0057 3.0766-3.4141 1.3438-0.3203-1.3594 0.5075-3.3567 1.1875-4.5079 0.0989-0.1673 0.287-0.1616 0.38-0.05z" fill="url(#s)"/><g filter="url(#ae)"><path d="m26.255 20.42c1.3281-0.1172 1.631 1.796 0.4531 2.1172-0.5457 0.1488-1.2244-0.1233-1.289-0.6406-0.0744-0.5954 0.3879-1.4371 0.8359-1.4766z" fill="#33B4FF"/></g><path d="m26.523 19.789c1.3282-0.1172 1.631 1.796 0.4532 2.1171-0.5458 0.1489-1.2245-0.1233-1.2891-0.6406-0.0744-0.5954 0.3879-1.437 0.8359-1.4765z" fill="url(#r)"/><path d="m26.523 19.789c1.3282-0.1172 1.631 1.796 0.4532 2.1171-0.5458 0.1489-1.2245-0.1233-1.2891-0.6406-0.0744-0.5954 0.3879-1.437 0.8359-1.4765z" fill="url(#q)"/><g filter="url(#ad)"><path d="m12.172 18.75c0.025-0.7375 0.6093-1.1875 0.9219-1.1875 1.3593 0.1563 1.099 1.9423 0.6718 2.1094-0.3594 0.1406-1.625 0-1.5937-0.9219z" fill="#268BE7"/></g><path d="m11.797 18.859c0.025-0.7375 0.6093-1.1875 0.9219-1.1875 1.3593 0.1562 1.099 1.9422 0.6718 2.1094-0.3594 0.1406-1.625 0-1.5937-0.9219z" fill="url(#p)"/><path d="m11.797 18.859c0.025-0.7375 0.6093-1.1875 0.9219-1.1875 1.3593 0.1562 1.099 1.9422 0.6718 2.1094-0.3594 0.1406-1.625 0-1.5937-0.9219z" fill="url(#n)"/><g filter="url(#ac)"><path d="m7.8175 23.337c-0.2125-1.0125 0.5625-1.625 0.9375-1.625 1.4844 0 1.4624 2.1762 1 2.4375-0.46235 0.2613-1.725 0.2-1.9375-0.8125z" fill="#1D89E4"/></g><path d="m7.375 23.547c-0.2125-1.0125 0.5625-1.625 0.9375-1.625 1.4844 0 1.4624 2.1761 1 2.4375-0.46235 0.2613-1.725 0.2-1.9375-0.8125z" fill="url(#m)"/><path d="m7.375 23.547c-0.2125-1.0125 0.5625-1.625 0.9375-1.625 1.4844 0 1.4624 2.1761 1 2.4375-0.46235 0.2613-1.725 0.2-1.9375-0.8125z" fill="url(#l)"/><g filter="url(#ab)"><path d="m4.543 16c-0.1125-1.3125 0.76432-3.2344 1.4726-4.0313 0.20313-0.164 0.33887-0.1629 0.53125 0.0469 0.51563 0.5625 1.918 3.0938 1.918 4.6563 0 1.1881-1.0156 1.3594-1.5312 1.3594-0.85937 0-2.2781-0.7188-2.3906-2.0313z" fill="#39e"/></g><path d="m3.8594 16c-0.1125-1.3125 1.276-3.2344 1.9844-4.0312 0.20313-0.1641 0.33887-0.163 0.53125 0.0468 0.51562 0.5625 1.4062 3.0938 1.4062 4.6563 0 1.1881-1.0156 1.3593-1.5312 1.3594-0.85938 0-2.2781-0.7188-2.3906-2.0313z" fill="#63A9ED"/><path d="m3.8594 16c-0.1125-1.3125 1.276-3.2344 1.9844-4.0312 0.20313-0.1641 0.33887-0.163 0.53125 0.0468 0.51562 0.5625 1.4062 3.0938 1.4062 4.6563 0 1.1881-1.0156 1.3593-1.5312 1.3594-0.85938 0-2.2781-0.7188-2.3906-2.0313z" fill="url(#k)"/><path d="m3.8594 16c-0.1125-1.3125 1.276-3.2344 1.9844-4.0312 0.20313-0.1641 0.33887-0.163 0.53125 0.0468 0.51562 0.5625 1.4062 3.0938 1.4062 4.6563 0 1.1881-1.0156 1.3593-1.5312 1.3594-0.85938 0-2.2781-0.7188-2.3906-2.0313z" fill="url(#j)"/><path d="m3.8594 16c-0.1125-1.3125 1.276-3.2344 1.9844-4.0312 0.20313-0.1641 0.33887-0.163 0.53125 0.0468 0.51562 0.5625 1.4062 3.0938 1.4062 4.6563 0 1.1881-1.0156 1.3593-1.5312 1.3594-0.85938 0-2.2781-0.7188-2.3906-2.0313z" fill="url(#i)"/><g filter="url(#aa)"><path d="m28.406 6.75-12.906 4.375" stroke="#73E7FF" stroke-linecap="round" stroke-width=".25"/></g><defs><filter id="af" x="17.702" y="13.301" width="5.1101" height="7.5273" color-interpolation-filters="sRGB" filterUnits="userSpaceOnUse"><feFlood flood-opacity="0" result="BackgroundImageFix"/><feBlend in="SourceGraphic" in2="BackgroundImageFix" result="shape"/><feGaussianBlur result="effect1_foregroundBlur_18_30340" stdDeviation="0.5"/></filter><filter id="ae" x="24.411" y="19.414" width="4.0313" height="4.1628" color-interpolation-filters="sRGB" filterUnits="userSpaceOnUse"><feFlood flood-opacity="0" result="BackgroundImageFix"/><feBlend in="SourceGraphic" in2="BackgroundImageFix" result="shape"/><feGaussianBlur result="effect1_foregroundBlur_18_30340" stdDeviation="0.5"/></filter><filter id="ad" x="11.171" y="16.563" width="3.9375" height="4.1561" color-interpolation-filters="sRGB" filterUnits="userSpaceOnUse"><feFlood flood-opacity="0" result="BackgroundImageFix"/><feBlend in="SourceGraphic" in2="BackgroundImageFix" result="shape"/><feGaussianBlur result="effect1_foregroundBlur_18_30340" stdDeviation="0.5"/></filter><filter id="ac" x="6.7812" y="20.712" width="4.2522" height="4.5688" color-interpolation-filters="sRGB" filterUnits="userSpaceOnUse"><feFlood flood-opacity="0" result="BackgroundImageFix"/><feBlend in="SourceGraphic" in2="BackgroundImageFix" result="shape"/><feGaussianBlur result="effect1_foregroundBlur_18_30340" stdDeviation="0.5"/></filter><filter id="ab" x="3.5332" y="10.851" width="5.9317" height="8.1799" color-interpolation-filters="sRGB" filterUnits="userSpaceOnUse"><feFlood flood-opacity="0" result="BackgroundImageFix"/><feBlend in="SourceGraphic" in2="BackgroundImageFix" result="shape"/><feGaussianBlur result="effect1_foregroundBlur_18_30340" stdDeviation="0.5"/></filter><filter id="aa" x="15.125" y="6.375" width="13.656" height="5.1251" color-interpolation-filters="sRGB" filterUnits="userSpaceOnUse"><feFlood flood-opacity="0" result="BackgroundImageFix"/><feBlend in="SourceGraphic" in2="BackgroundImageFix" result="shape"/><feGaussianBlur result="effect1_foregroundBlur_18_30340" stdDeviation="0.125"/></filter><linearGradient id="z" x1="10.5" x2="15.969" y1="4.125" y2="8.5" gradientUnits="userSpaceOnUse"><stop stop-color="#70D9EA" offset="0"/><stop stop-color="#70DEF1" offset="1"/></linearGradient><linearGradient id="o" x1="20.844" x2="20.469" y1="10.5" y2="9.4375" gradientUnits="userSpaceOnUse"><stop stop-color="#85F6FF" offset=".17538"/><stop stop-color="#85F6FF" stop-opacity="0" offset=".73"/></linearGradient><linearGradient id="h" x1="8.875" x2="9.3125" y1="9.6875" y2="8.4375" gradientUnits="userSpaceOnUse"><stop stop-color="#4CBFE2" offset=".17538"/><stop stop-color="#60CAE4" stop-opacity="0" offset=".73"/></linearGradient><radialGradient id="g" cx="0" cy="0" r="1" gradientTransform="translate(16.328 11.906) rotate(77.799) scale(.59148 1.0996)" gradientUnits="userSpaceOnUse"><stop stop-color="#83F3FE" offset=".56084"/><stop stop-color="#82F3FE" stop-opacity="0" offset="1"/></radialGradient><linearGradient id="f" x1="9.4375" x2="9.7188" y1="4.4375" y2="5.1875" gradientUnits="userSpaceOnUse"><stop stop-color="#66C5D6" offset="0"/><stop stop-color="#78D5E6" stop-opacity="0" offset="1"/></linearGradient><linearGradient id="e" x1="9.4375" x2="9.7188" y1="4.4375" y2="5.1875" gradientUnits="userSpaceOnUse"><stop stop-color="#70C0CE" offset="0"/><stop stop-color="#6DD1E1" stop-opacity="0" offset=".31701"/></linearGradient><linearGradient id="d" x1="18.375" x2="27.875" y1="12" y2="25.625" gradientUnits="userSpaceOnUse"><stop stop-color="#57E1FF" offset="0"/><stop stop-color="#3FC0FF" offset="1"/></linearGradient><linearGradient id="c" x1="24.375" x2="23.875" y1="27.219" y2="25.875" gradientUnits="userSpaceOnUse"><stop stop-color="#4AA3FF" offset="0"/><stop stop-color="#3CAEFF" stop-opacity="0" offset="1"/></linearGradient><linearGradient id="b" x1="16.03" x2="18.625" y1="23.375" y2="23.375" gradientUnits="userSpaceOnUse"><stop stop-color="#48ABFF" offset="0"/><stop stop-color="#45C3FF" stop-opacity="0" offset="1"/></linearGradient><linearGradient id="a" x1="22.062" x2="22.5" y1="9.75" y2="11" gradientUnits="userSpaceOnUse"><stop stop-color="#86F7FF" offset=".13363"/><stop stop-color="#86F7FF" stop-opacity="0" offset=".80178"/></linearGradient><linearGradient id="y" x1="3.1875" x2="14.625" y1="8.75" y2="27.312" gradientUnits="userSpaceOnUse"><stop stop-color="#51B0D9" offset="0"/><stop stop-color="#458EF3" offset=".75534"/></linearGradient><linearGradient id="x" x1="13.375" x2="16.03" y1="24.125" y2="24.125" gradientUnits="userSpaceOnUse"><stop stop-color="#41A1FF" stop-opacity="0" offset=".65924"/><stop stop-color="#49ACFF" offset="1"/></linearGradient><linearGradient id="w" x1="9.0209" x2="8.4375" y1="9.0625" y2="10.688" gradientUnits="userSpaceOnUse"><stop stop-color="#4CBFE2" offset=".30686"/><stop stop-color="#4ABDE1" stop-opacity="0" offset="1"/></linearGradient><radialGradient id="v" cx="0" cy="0" r="1" gradientTransform="translate(16.375 11.938) rotate(151.93) scale(1.0625 1.0991)" gradientUnits="userSpaceOnUse"><stop stop-color="#86F8FF" offset=".42214"/><stop stop-color="#85F6FF" stop-opacity="0" offset="1"/></radialGradient><radialGradient id="u" cx="0" cy="0" r="1" gradientTransform="translate(19.812 18.928) rotate(77.773) scale(2.9512 1.8778)" gradientUnits="userSpaceOnUse"><stop stop-color="#67C9FF" offset="0"/><stop stop-color="#62C9FF" stop-opacity="0" offset="1"/></radialGradient><radialGradient id="t" cx="0" cy="0" r="1" gradientTransform="translate(21.047 13.672) rotate(90) scale(4.3438 .97288)" gradientUnits="userSpaceOnUse"><stop stop-color="#B0FFFF" offset=".23381"/><stop stop-color="#B1FFFF" stop-opacity="0" offset=".79856"/></radialGradient><radialGradient id="s" cx="0" cy="0" r="1" gradientTransform="translate(21.75 14.562) rotate(71.061) scale(3.3699 1.2356)" gradientUnits="userSpaceOnUse"><stop stop-color="#B0FFFF" offset="0"/><stop stop-color="#AFFEFF" stop-opacity="0" offset="1"/></radialGradient><radialGradient id="r" cx="0" cy="0" r="1" gradientTransform="translate(26.676 20.862) rotate(82.878) scale(1.0842 1.0306)" gradientUnits="userSpaceOnUse"><stop stop-color="#5ADBFF" offset="0"/><stop stop-color="#51E5FF" offset="1"/></radialGradient><radialGradient id="q" cx="0" cy="0" r="1" gradientTransform="translate(27.125 20.453) rotate(67.226) scale(.444 .86169)" gradientUnits="userSpaceOnUse"><stop stop-color="#8CF5FF" offset="0"/><stop stop-color="#78EDFF" stop-opacity="0" offset="1"/></radialGradient><radialGradient id="p" cx="0" cy="0" r="1" gradientTransform="translate(13.094 18.516) rotate(107.94) scale(1.7245 1.9715)" gradientUnits="userSpaceOnUse"><stop stop-color="#59AFF3" offset="0"/><stop stop-color="#52A7F3" offset=".46244"/><stop stop-color="#64AEF1" offset=".80067"/></radialGradient><radialGradient id="n" cx="0" cy="0" r="1" gradientTransform="translate(13.203 18.438) rotate(145.62) scale(.35972 .32324)" gradientUnits="userSpaceOnUse"><stop stop-color="#82C6FF" offset=".22706"/><stop stop-color="#83C6FF" stop-opacity="0" offset="1"/></radialGradient><radialGradient id="m" cx="0" cy="0" r="1" gradientTransform="translate(8.8469 22.927) rotate(107.53) scale(2.0499 2.297)" gradientUnits="userSpaceOnUse"><stop stop-color="#59AFF3" offset="0"/><stop stop-color="#52A7F3" offset=".46244"/><stop stop-color="#64AEF1" offset=".80067"/></radialGradient><radialGradient id="l" cx="0" cy="0" r="1" gradientTransform="translate(8.9741 22.834) rotate(144.96) scale(.42149 .38204)" gradientUnits="userSpaceOnUse"><stop stop-color="#82C6FF" offset=".22706"/><stop stop-color="#83C6FF" stop-opacity="0" offset="1"/></radialGradient><radialGradient id="k" cx="0" cy="0" r="1" gradientTransform="translate(6.1875 14.062) rotate(94.401) scale(4.8267 3.0682)" gradientUnits="userSpaceOnUse"><stop stop-color="#73ABEE" stop-opacity="0" offset=".44872"/><stop stop-color="#70AFE2" offset=".84615"/></radialGradient><radialGradient id="j" cx="0" cy="0" r="1" gradientTransform="translate(5.8171 13.75) rotate(90) scale(3.4375 2.5721)" gradientUnits="userSpaceOnUse"><stop stop-color="#73B3E4" offset=".40476"/><stop stop-color="#6FB0E0" stop-opacity="0" offset="1"/></radialGradient><radialGradient id="i" cx="0" cy="0" r="1" gradientTransform="translate(6.4375 12.688) rotate(85.4) scale(2.7275 .62241)" gradientUnits="userSpaceOnUse"><stop stop-color="#A1D0F5" offset="0"/><stop stop-color="#8DC1EA" stop-opacity="0" offset="1"/></radialGradient></defs></svg>
