<svg fill="none" viewBox="0 0 32 32" xmlns="http://www.w3.org/2000/svg"><g filter="url(#k)"><path d="m2.575 5.3349 6.1757-1.7617c0.17932-0.05116 0.36937-0.05116 0.54869 1e-5l6.4565 1.8421c0.1795 0.05121 0.3697 0.05117 0.5491-1.1e-4l6.4451-1.8417c0.1797-0.05135 0.3702-0.05131 0.5499 1e-4l6.155 1.7613c0.3 0.08 0.51 0.35 0.51 0.66v21.82c0 0.44-0.42 0.77-0.85 0.66l-5.7905-1.8827c-0.1891-0.0614-0.3923-0.0651-0.5835-0.0106l-6.4309 1.8348c-0.1798 0.0513-0.3703 0.0512-0.55-3e-4l-6.441-1.8469c-0.19161-0.055-0.39528-0.0514-0.58485 0.0103l-5.8292 1.8954c-0.43 0.11-0.85-0.22-0.85-0.66v-21.82c0-0.31 0.22-0.58 0.52-0.66z" fill="url(#g)"/></g><g filter="url(#j)"><path d="m2.575 5.3349 6.1757-1.7617c0.17932-0.05116 0.36937-0.05116 0.54869 1e-5l6.4565 1.8421c0.1795 0.05121 0.3697 0.05117 0.5491-1.1e-4l6.4451-1.8417c0.1797-0.05135 0.3702-0.05131 0.5499 1e-4l6.155 1.7613c0.3 0.08 0.51 0.35 0.51 0.66v21.82c0 0.44-0.42 0.77-0.85 0.66l-5.7905-1.8827c-0.1891-0.0614-0.3923-0.0651-0.5835-0.0106l-6.4309 1.8348c-0.1798 0.0513-0.3703 0.0512-0.55-3e-4l-6.441-1.8469c-0.19161-0.055-0.39528-0.0514-0.58485 0.0103l-5.8292 1.8954c-0.43 0.11-0.85-0.22-0.85-0.66v-21.82c0-0.31 0.22-0.58 0.52-0.66z" fill="url(#f)"/></g><path d="m4.005 6.8349 4.634-1.2134c0.25929-0.0679 0.53204-0.06508 0.78987 0.00816l6.1581 1.7494c0.2668 0.0758 0.5495 0.07612 0.8165 9.1e-4l6.2266-1.7537c0.2586-0.07283 0.532-0.07487 0.7916-0.00591l4.5734 1.2146c0.3 0.08 0.51 0.35001 0.51 0.66001v18.173c0 0.2187-0.114 0.5156-0.4656 0.4219l-4.5984-1.4632c-0.2809-0.0894-0.5818-0.094-0.8653-0.0134l-6.1685 1.7549c-0.2694 0.0767-0.5549 0.0763-0.8241-9e-4l-6.1224-1.7568c-0.28069-0.0805-0.57878-0.0774-0.8577 9e-3l-4.4424 1.3766c-0.33594 0.082-0.66552-0.0969-0.66552-0.5469v-17.954c0-0.31 0.21-0.58 0.51-0.66z" fill="url(#e)"/><path d="m14.905 15.605-0.53 0.53c-0.23 0.23-0.35 0.53-0.35 0.85s0.13 0.63 0.35 0.85l0.53 0.53c0.08 0.08 0.18 0.12 0.29 0.12h0.43c0.22 0 0.4 0.18 0.4 0.4v2.19c0 0.22 0.18 0.4 0.4 0.4h0.43c0.11 0 0.21-0.04 0.29-0.12l0.41-0.41c0.3-0.3 0.47-0.71 0.47-1.14v-1.24c0-0.06 0.01-0.12 0.04-0.18l0.91-1.83c0.03-0.06 0.04-0.12 0.04-0.18v-0.5c0-0.22 0.18-0.4 0.4-0.4h0.19c0.22 0 0.4 0.18 0.4 0.4v0.19c0 0.22 0.18 0.4 0.4 0.4h0.19c0.22 0 0.4-0.18 0.4-0.4v-0.19c0-0.22 0.18-0.4 0.4-0.4h0.19c0.22 0 0.4 0.18 0.4 0.4v0.19c0 0.22 0.18 0.4 0.4 0.4h1.12c0.16 0 0.31-0.1 0.37-0.25l0.88-2.19c0.11-0.26-0.09-0.55-0.37-0.55-0.22 0-0.4-0.18-0.4-0.4v-1.19c0-0.22 0.18-0.4 0.4-0.4h0.19c0.22 0 0.4 0.18 0.4 0.4v0.1c0 0.28 0.22 0.5 0.5 0.5s0.5-0.22 0.5-0.5v-1.94c0-0.86004-0.7-1.55-1.55-1.55h-0.04c-0.22 0-0.4 0.18001-0.4 0.40001v0.18998c0 0.22-0.18 0.40001-0.4 0.40001h-1.19c-0.22 0-0.4-0.18001-0.4-0.40001 0-0.33-0.27-0.59999-0.6-0.59999h-0.4c-0.55 0-1 0.45-1 1v0.03c0 0.11-0.05 0.22001-0.13 0.30001l-1.75 1.57c-0.07 0.07-0.17 0.1-0.27 0.1h-1.44c-0.22 0-0.4 0.18-0.4 0.4v0.19c0 0.22-0.18 0.4-0.4 0.4h-0.19c-0.22 0-0.4 0.18-0.4 0.4v1.19c0 0.22 0.18 0.4 0.4 0.4h0.19c0.22 0 0.4 0.18 0.4 0.4v0.19c0 0.22-0.18 0.4-0.4 0.4h-0.43c-0.09 0.04-0.19 0.08-0.27 0.15z" fill="url(#d)"/><path d="m10.525 22.485c0.28 0 0.5-0.22 0.5-0.5v-1.14c0-0.22 0.12-0.42 0.32-0.52l1.23-0.62c0.27-0.14 0.45-0.42 0.45-0.72 0-0.31-0.17-0.59-0.45-0.72l-1.17-0.58c-0.25-0.13-0.53-0.19-0.81-0.19h-0.44c-0.08 0-0.15995-0.03-0.21995-0.09l-1.82-1.82c-0.06-0.06-0.09-0.14-0.09-0.22v-0.56c0-0.17 0.13999-0.31 0.30999-0.31h0.38001c0.17 0 0.31 0.14 0.31 0.31v0.19c0 0.28 0.22 0.5 0.5 0.5s0.49995-0.22 0.49995-0.5v-0.19c0-0.17 0.14-0.31 0.31-0.31 0.44 0 0.87-0.18 1.18-0.49l0.29-0.29c0.12-0.12 0.12-0.32 0-0.44l-0.69-0.69c-0.06-0.06-0.09-0.14-0.09-0.22v-0.37c0-0.28-0.22-0.5-0.5-0.5s-0.5 0.22-0.5 0.5-0.21995 0.5-0.49995 0.5-0.5-0.22-0.5-0.5v-0.19c0-0.17 0.13999-0.31 0.30999-0.31 0.18 0 0.32001-0.15 0.31001-0.32l-0.02-0.35c-0.01-0.18 0.13-0.32 0.31-0.32h0.77995c0.17 0 0.31-0.14 0.31-0.31v-0.19c0-0.28002 0.22-0.50002 0.5-0.50002s0.5 0.22 0.5 0.50002v2c0 0.28 0.22 0.5 0.5 0.5s0.5-0.22 0.5-0.5v-0.37c0-0.08 0.03-0.16 0.09-0.22l0.41-0.41c0.32-0.32 0.5-0.75 0.5-1.2 0-0.72-0.58-1.3-1.3-1.3h-1.6c-0.7 0-1.37 0.28999-1.85 0.79999l-0.62001 0.67c-0.31 0.34003-0.74999 0.53003-1.21 0.53003h-0.1c-0.17 0-0.31-0.14-0.31-0.31 0-0.38003-0.31-0.69002-0.69-0.69002h-0.62001c-0.38 0-0.68999 0.30999-0.68999 0.69002v0.37c0 0.6-0.24 1.18-0.66 1.6l-0.24001 0.24c-0.06 0.06-0.09 0.14-0.09 0.22v0.13c0 0.28 0.33001 0.41 0.53001 0.22l1.26-1.26c0.13-0.13 0.31-0.21 0.5-0.21 0.39 0-0.29 0.32-0.29 0.71v2.36c0 0.6 1.24 1.17 1.66 1.59l1.25 1.25c0.06 0.06 0.09 0.14 0.09 0.22v1.12c0 0.48 0.19001 0.95 0.53001 1.29l0.37999 0.38c0.05996 0.06 0.08996 0.14 0.08996 0.22v1.37c-0.02 0.25 0.21 0.47 0.48 0.47z" fill="url(#c)"/><path d="m22.025 17.795v0.2101c0 0.31 0.11 0.6099 0.3 0.8499l0.21 0.25c0.3 0.37 0.79 0.5401 1.25 0.4301 0.14-0.03 0.24-0.1601 0.24-0.3001v-0.3699c0-0.16 0.12-0.2901 0.27-0.3101l0.15-0.0199c0.31-0.03 0.58 0.2099 0.58 0.5199 0 0.24 0.17 0.46 0.41 0.51l0.22 0.0501c0.19 0.04 0.37-0.1001 0.37-0.3001v-0.84c0-0.55-0.45-1-1-1h-0.86c-0.09 0-0.17 0.04-0.23 0.1l-0.37 0.41c-0.19 0.21-0.54 0.08-0.54-0.21 0-0.17-0.14-0.31-0.31-0.31h-0.38c-0.17 0.02-0.31 0.16-0.31 0.33z" fill="url(#b)"/><path d="m23.025 21.325v0.67c0 0.28 0.22 0.5 0.5 0.5h2c0.28 0 0.5-0.22 0.5-0.5v-0.95c0-0.31-0.25-0.56-0.56-0.56h-1.61c-0.46 0-0.83 0.38-0.83 0.84z" fill="url(#a)"/><g filter="url(#i)"><path d="m16.432 5.8215 6.4375-1.8906" stroke="#EAE4EE" stroke-linecap="round" stroke-width=".15"/></g><g filter="url(#h)"><path d="m2.6973 5.7656 6.1503-1.7844" stroke="#EAE4EE" stroke-linecap="round" stroke-width=".15"/></g><defs><filter id="k" x="2.055" y="3.2847" width="28.16" height="25.212" color-interpolation-filters="sRGB" filterUnits="userSpaceOnUse"><feFlood flood-opacity="0" result="BackgroundImageFix"/><feBlend in="SourceGraphic" in2="BackgroundImageFix" result="shape"/><feColorMatrix in="SourceAlpha" result="hardAlpha" values="0 0 0 0 0 0 0 0 0 0 0 0 0 0 0 0 0 0 127 0"/><feOffset dx="0.25" dy="-0.25"/><feGaussianBlur stdDeviation="0.25"/><feComposite in2="hardAlpha" k2="-1" k3="1" operator="arithmetic"/><feColorMatrix values="0 0 0 0 0.611765 0 0 0 0 0.564706 0 0 0 0 0.635294 0 0 0 1 0"/><feBlend in2="shape" result="effect1_innerShadow_18_4830"/></filter><filter id="j" x="2.055" y="3.3847" width="27.91" height="25.262" color-interpolation-filters="sRGB" filterUnits="userSpaceOnUse"><feFlood flood-opacity="0" result="BackgroundImageFix"/><feBlend in="SourceGraphic" in2="BackgroundImageFix" result="shape"/><feColorMatrix in="SourceAlpha" result="hardAlpha" values="0 0 0 0 0 0 0 0 0 0 0 0 0 0 0 0 0 0 127 0"/><feOffset dy="-0.15"/><feGaussianBlur stdDeviation="0.25"/><feComposite in2="hardAlpha" k2="-1" k3="1" operator="arithmetic"/><feColorMatrix values="0 0 0 0 0.67451 0 0 0 0 0.513726 0 0 0 0 0.784314 0 0 0 1 0"/><feBlend in2="shape" result="effect1_innerShadow_18_4830"/><feColorMatrix in="SourceAlpha" result="hardAlpha" values="0 0 0 0 0 0 0 0 0 0 0 0 0 0 0 0 0 0 127 0"/><feOffset dy="0.15"/><feGaussianBlur stdDeviation="0.075"/><feComposite in2="hardAlpha" k2="-1" k3="1" operator="arithmetic"/><feColorMatrix values="0 0 0 0 0.8 0 0 0 0 0.8 0 0 0 0 0.8 0 0 0 1 0"/><feBlend in2="effect1_innerShadow_18_4830" result="effect2_innerShadow_18_4830"/></filter><filter id="i" x="16.156" y="3.656" width="6.9876" height="2.4405" color-interpolation-filters="sRGB" filterUnits="userSpaceOnUse"><feFlood flood-opacity="0" result="BackgroundImageFix"/><feBlend in="SourceGraphic" in2="BackgroundImageFix" result="shape"/><feGaussianBlur result="effect1_foregroundBlur_18_4830" stdDeviation="0.1"/></filter><filter id="h" x="2.4222" y="3.7062" width="6.7004" height="2.3343" color-interpolation-filters="sRGB" filterUnits="userSpaceOnUse"><feFlood flood-opacity="0" result="BackgroundImageFix"/><feBlend in="SourceGraphic" in2="BackgroundImageFix" result="shape"/><feGaussianBlur result="effect1_foregroundBlur_18_4830" stdDeviation="0.1"/></filter><linearGradient id="g" x1="29.965" x2="2.055" y1="15.479" y2="15.479" gradientUnits="userSpaceOnUse"><stop stop-color="#BFB1CA" offset="0"/><stop stop-color="#C3B5CD" offset=".2377"/><stop stop-color="#DED3E5" offset=".25693"/><stop stop-color="#EBE1F1" offset=".48766"/><stop stop-color="#C5B9CD" offset=".50777"/><stop stop-color="#C7BCCE" offset=".74052"/><stop stop-color="#EFE3F3" offset=".76011"/><stop stop-color="#E3D7E9" offset="1"/></linearGradient><linearGradient id="f" x1="13.391" x2="13.391" y1="48.485" y2="2.895" gradientUnits="userSpaceOnUse"><stop stop-color="#C5B2D4" offset="0"/><stop stop-color="#C5B2D4" stop-opacity="0" offset="1"/></linearGradient><linearGradient id="e" x1="28.505" x2="3.4956" y1="16" y2="16.121" gradientUnits="userSpaceOnUse"><stop stop-color="#257AC5" offset="0"/><stop stop-color="#237BC8" offset=".20604"/><stop stop-color="#4190DB" offset=".22541"/><stop stop-color="#49A5F1" offset=".4853"/><stop stop-color="#2484D0" offset=".50904"/><stop stop-color="#2488D4" offset=".76394"/><stop stop-color="#4AA6F6" offset=".78768"/><stop stop-color="#4BABFC" offset="1"/></linearGradient><linearGradient id="d" x1="14.027" x2="26.024" y1="14.99" y2="14.99" gradientUnits="userSpaceOnUse"><stop stop-color="#46BF86" offset="0"/><stop stop-color="#46BF86" offset=".1417"/><stop stop-color="#5CE09B" offset=".18988"/><stop stop-color="#50CC8C" offset=".71734"/><stop stop-color="#43BE81" offset=".77725"/></linearGradient><linearGradient id="c" x1="4.0291" x2="14.027" y1="15.49" y2="15.49" gradientUnits="userSpaceOnUse"><stop stop-color="#61E7A1" offset="0"/><stop stop-color="#61E7A1" offset=".48082"/><stop stop-color="#46C687" offset=".53396"/><stop stop-color="#46C687" offset="1"/></linearGradient><linearGradient id="b" x1="22.025" x2="26.024" y1="18.563" y2="18.563" gradientUnits="userSpaceOnUse"><stop stop-color="#4EC88C" offset="0"/><stop stop-color="#4EC88C" offset=".32002"/><stop stop-color="#42B483" offset=".44114"/><stop stop-color="#45B683" offset="1"/></linearGradient><linearGradient id="a" x1="23.025" x2="26.024" y1="21.489" y2="21.489" gradientUnits="userSpaceOnUse"><stop stop-color="#4BBD8E" offset="0"/><stop stop-color="#4BBD8E" offset=".0621"/><stop stop-color="#43B385" offset=".1194"/></linearGradient></defs></svg>
