<svg fill="none" viewBox="0 0 32 32" xmlns="http://www.w3.org/2000/svg"><path d="M15.99 10.42V6" stroke="#8ECB1F" stroke-linecap="round" stroke-linejoin="round" stroke-miterlimit="10" stroke-width="2"/><path d="M15.99 10.42V6" stroke="url(#p)" stroke-linecap="round" stroke-linejoin="round" stroke-miterlimit="10" stroke-width="2"/><path d="m19.97 9.99h-7.97c-5.53 0-10 4.48-10 10 0 5.53 4.48 10 10 10h7.96c5.53 0 10-4.48 10-10 0.01-5.52-4.47-10-9.99-10z" fill="url(#i)"/><path d="m19.97 9.99h-7.97c-5.53 0-10 4.48-10 10 0 5.53 4.48 10 10 10h7.96c5.53 0 10-4.48 10-10 0.01-5.52-4.47-10-9.99-10z" fill="url(#h)"/><path d="m19.97 9.99h-7.97c-5.53 0-10 4.48-10 10 0 5.53 4.48 10 10 10h7.96c5.53 0 10-4.48 10-10 0.01-5.52-4.47-10-9.99-10z" fill="url(#g)"/><path d="m22.21 7h5.76c0 3.13-2.53 5.66-5.66 5.66h-5.76c0-3.13 2.53-5.66 5.66-5.66z" fill="#93CC2E"/><path d="m22.21 7h5.76c0 3.13-2.53 5.66-5.66 5.66h-5.76c0-3.13 2.53-5.66 5.66-5.66z" fill="url(#f)"/><path d="m22.21 7h5.76c0 3.13-2.53 5.66-5.66 5.66h-5.76c0-3.13 2.53-5.66 5.66-5.66z" fill="url(#e)"/><path d="m22.21 7h5.76c0 3.13-2.53 5.66-5.66 5.66h-5.76c0-3.13 2.53-5.66 5.66-5.66z" fill="url(#d)"/><g filter="url(#x)"><path d="m27.547 7.375c-0.1979 0.75-0.9844 3.625-3.4844 4.3125" stroke="url(#c)" stroke-width=".5"/></g><g filter="url(#w)"><path d="m27.406 7.5c-0.1979 0.75-1.2812 3.375-3.7812 4.0625" stroke="url(#b)" stroke-width=".5"/></g><path d="m9.64 12.66h5.76c0-3.13-2.53-5.66-5.66-5.66h-5.76c0 3.13 2.53 5.66 5.66 5.66z" fill="#85BA1F"/><path d="m9.64 12.66h5.76c0-3.13-2.53-5.66-5.66-5.66h-5.76c0 3.13 2.53 5.66 5.66 5.66z" fill="url(#a)"/><path d="m9.64 12.66h5.76c0-3.13-2.53-5.66-5.66-5.66h-5.76c0 3.13 2.53 5.66 5.66 5.66z" fill="url(#o)"/><g clip-rule="evenodd" fill-rule="evenodd" filter="url(#v)"><path d="m5.3438 15.406h5.7432c1.704 0 3.2343-0.7472 4.2667-1.6724 1.0165 0.705 2.7106 1.4536 4.6317 1.4536l5.7333 0.4687c0-1.5138-2.5282-2.9962-5.6337-2.9962h-3.8045c0.2793-0.4421 0.4327-0.8775 0.4302-1.2538l-5.7332 1.2538c-3.1155 0-5.6338 1.2276-5.6338 2.7463z" fill="#96CB36"/><path d="m5.3438 15.406h5.7432c1.704 0 3.2343-0.7472 4.2667-1.6724 1.0165 0.705 2.7106 1.4536 4.6317 1.4536l5.7333 0.4687c0-1.5138-2.5282-2.9962-5.6337-2.9962h-3.8045c0.2793-0.4421 0.4327-0.8775 0.4302-1.2538l-5.7332 1.2538c-3.1155 0-5.6338 1.2276-5.6338 2.7463z" fill="#B81D25"/></g><path d="m5.75 15.07h5.77c1.8145 0 3.4329-0.8557 4.4675-2.1875 1.0348 1.3318 2.6522 2.1875 4.4725 2.1875h5.76c0-3.12-2.54-5.66-5.66-5.66h-9.15c-3.13 0-5.66 2.53-5.66 5.66z" clip-rule="evenodd" fill="#80AF1F" fill-rule="evenodd"/><path d="m5.75 15.07h5.77c1.8145 0 3.4329-0.8557 4.4675-2.1875 1.0348 1.3318 2.6522 2.1875 4.4725 2.1875h5.76c0-3.12-2.54-5.66-5.66-5.66h-9.15c-3.13 0-5.66 2.53-5.66 5.66z" clip-rule="evenodd" fill="url(#n)" fill-rule="evenodd"/><path d="m5.75 15.07h5.77c1.8145 0 3.4329-0.8557 4.4675-2.1875 1.0348 1.3318 2.6522 2.1875 4.4725 2.1875h5.76c0-3.12-2.54-5.66-5.66-5.66h-9.15c-3.13 0-5.66 2.53-5.66 5.66z" clip-rule="evenodd" fill="url(#m)" fill-rule="evenodd"/><g filter="url(#u)"><path d="m16.406 5.625v4.1562" stroke="#BFF079" stroke-linecap="round" stroke-width=".3"/></g><g filter="url(#t)"><path d="m15.4 5.625v4.1562" stroke="#A2DA38" stroke-linecap="round" stroke-width=".2"/></g><g filter="url(#s)"><ellipse cx="16.33" cy="5.6475" rx=".33008" ry=".35254" fill="#CEFB8E"/></g><g clip-rule="evenodd" fill-rule="evenodd" filter="url(#r)"><path d="m17.281 13.828c-0.5357-0.4315-1.0156-0.9375-1.2343-1.3751v-0.9842c0.2639 0.2791 1.2285 1.3636 1.7449 1.7795 0.5216 0.4201 1.0774 0.793 1.5352 0.9532 0.216 0.0756 0.6173 0.1362 1.1526 0.1789 0.5268 0.042 1.1586 0.0651 1.8193 0.0751 1.3211 0.02 2.3711-0.0127 3.2792-0.049l0.4844 0.4996c-0.9147 0.0365-2.4386 0.0695-3.7711 0.0493-0.6661-0.01-1.27 0.0433-1.8118 0-0.5334-0.0425-1.055-0.1529-1.339-0.2523-0.5422-0.1898-1.3236-0.4435-1.8594-0.875z" fill="url(#l)"/><path d="m17.281 13.828c-0.5357-0.4315-1.0156-0.9375-1.2343-1.3751v-0.9842c0.2639 0.2791 1.2285 1.3636 1.7449 1.7795 0.5216 0.4201 1.0774 0.793 1.5352 0.9532 0.216 0.0756 0.6173 0.1362 1.1526 0.1789 0.5268 0.042 1.1586 0.0651 1.8193 0.0751 1.3211 0.02 2.3711-0.0127 3.2792-0.049l0.4844 0.4996c-0.9147 0.0365-2.4386 0.0695-3.7711 0.0493-0.6661-0.01-1.27 0.0433-1.8118 0-0.5334-0.0425-1.055-0.1529-1.339-0.2523-0.5422-0.1898-1.3236-0.4435-1.8594-0.875z" fill="url(#k)"/></g><g filter="url(#q)"><path d="m14.766 13.734c0.5357-0.4315 0.9366-0.9876 1.2144-1.2814v-0.8592c-0.2639 0.2791-1.0154 1.2386-1.5318 1.6545-0.5216 0.4201-1.0774 0.793-1.5351 0.9532-0.2161 0.0757-0.6174 0.1362-1.1527 0.1789-0.5268 0.042-1.1586 0.0651-1.8193 0.0751-1.3211 0.02-2.746-0.0127-3.6542-0.049l-0.36501 0.4996c0.91474 0.0366 2.6942 0.0695 4.0268 0.0494 0.66606-0.0101 1.3097-0.0335 1.8516-0.0767 0.5334-0.0425 0.9941-0.1059 1.278-0.2053 0.5423-0.1898 1.1569-0.5118 1.6874-0.9391z" clip-rule="evenodd" fill="url(#j)" fill-rule="evenodd"/></g><defs><filter id="x" x="23.596" y="6.9112" width="4.5924" height="5.4173" color-interpolation-filters="sRGB" filterUnits="userSpaceOnUse"><feFlood flood-opacity="0" result="BackgroundImageFix"/><feBlend in="SourceGraphic" in2="BackgroundImageFix" result="shape"/><feGaussianBlur result="effect1_foregroundBlur_18_27554" stdDeviation="0.2"/></filter><filter id="w" x="23.159" y="7.0362" width="4.8892" height="5.1673" color-interpolation-filters="sRGB" filterUnits="userSpaceOnUse"><feFlood flood-opacity="0" result="BackgroundImageFix"/><feBlend in="SourceGraphic" in2="BackgroundImageFix" result="shape"/><feGaussianBlur result="effect1_foregroundBlur_18_27554" stdDeviation="0.2"/></filter><filter id="v" x="4.3438" y="10.406" width="22.375" height="6.25" color-interpolation-filters="sRGB" filterUnits="userSpaceOnUse"><feFlood flood-opacity="0" result="BackgroundImageFix"/><feBlend in="SourceGraphic" in2="BackgroundImageFix" result="shape"/><feGaussianBlur result="effect1_foregroundBlur_18_27554" stdDeviation="0.5"/></filter><filter id="u" x="15.256" y="4.475" width="2.3" height="6.4562" color-interpolation-filters="sRGB" filterUnits="userSpaceOnUse"><feFlood flood-opacity="0" result="BackgroundImageFix"/><feBlend in="SourceGraphic" in2="BackgroundImageFix" result="shape"/><feGaussianBlur result="effect1_foregroundBlur_18_27554" stdDeviation="0.5"/></filter><filter id="t" x="14.8" y="5.025" height="5.3563" color-interpolation-filters="sRGB" filterUnits="userSpaceOnUse"><feFlood flood-opacity="0" result="BackgroundImageFix"/><feBlend in="SourceGraphic" in2="BackgroundImageFix" result="shape"/><feGaussianBlur result="effect1_foregroundBlur_18_27554" stdDeviation="0.25"/></filter><filter id="s" x="15.5" y="4.7949" width="1.6602" height="1.7051" color-interpolation-filters="sRGB" filterUnits="userSpaceOnUse"><feFlood flood-opacity="0" result="BackgroundImageFix"/><feBlend in="SourceGraphic" in2="BackgroundImageFix" result="shape"/><feGaussianBlur result="effect1_foregroundBlur_18_27554" stdDeviation="0.25"/></filter><filter id="r" x="15.847" y="11.269" width="10.416" height="3.9038" color-interpolation-filters="sRGB" filterUnits="userSpaceOnUse"><feFlood flood-opacity="0" result="BackgroundImageFix"/><feBlend in="SourceGraphic" in2="BackgroundImageFix" result="shape"/><feGaussianBlur result="effect1_foregroundBlur_18_27554" stdDeviation="0.1"/></filter><filter id="q" x="5.7219" y="11.394" width="10.458" height="3.7678" color-interpolation-filters="sRGB" filterUnits="userSpaceOnUse"><feFlood flood-opacity="0" result="BackgroundImageFix"/><feBlend in="SourceGraphic" in2="BackgroundImageFix" result="shape"/><feGaussianBlur result="effect1_foregroundBlur_18_27554" stdDeviation="0.1"/></filter><radialGradient id="p" cx="0" cy="0" r="1" gradientTransform="translate(16.438 7.375) rotate(90) scale(5.7812 2.6244)" gradientUnits="userSpaceOnUse"><stop stop-color="#98D31D" offset="0"/><stop stop-color="#7BB933" offset=".5816"/><stop stop-color="#9DD538" stop-opacity="0" offset="1"/></radialGradient><radialGradient id="i" cx="0" cy="0" r="1" gradientTransform="translate(20.625 14.375) rotate(137.7) scale(20.617)" gradientUnits="userSpaceOnUse"><stop stop-color="#FF738E" offset="0"/><stop stop-color="#E31B61" offset=".34015"/><stop stop-color="#DD456A" offset=".75606"/><stop stop-color="#EB307B" offset="1"/></radialGradient><radialGradient id="h" cx="0" cy="0" r="1" gradientTransform="translate(20.375 14.375) rotate(130.88) scale(24.636 14.189)" gradientUnits="userSpaceOnUse"><stop stop-color="#B91B46" stop-opacity="0" offset="0"/><stop stop-color="#B31E47" stop-opacity="0" offset=".73291"/><stop stop-color="#AC2248" offset="1"/></radialGradient><radialGradient id="g" cx="0" cy="0" r="1" gradientTransform="translate(11.812 16.562) rotate(67.051) scale(7.5338 7.7933)" gradientUnits="userSpaceOnUse"><stop stop-color="#D91253" offset="0"/><stop stop-color="#D81254" stop-opacity="0" offset="1"/></radialGradient><radialGradient id="f" cx="0" cy="0" r="1" gradientTransform="translate(18.688 11.188) rotate(7.5819) scale(11.16 3.0852)" gradientUnits="userSpaceOnUse"><stop stop-color="#BFF96A" offset="0"/><stop stop-color="#BCF56A" stop-opacity="0" offset="1"/></radialGradient><radialGradient id="e" cx="0" cy="0" r="1" gradientTransform="translate(23.5 9.0625) rotate(165.96) scale(7.7308 3.0293)" gradientUnits="userSpaceOnUse"><stop stop-color="#81B335" stop-opacity="0" offset="0"/><stop stop-color="#82B632" stop-opacity="0" offset=".57388"/><stop stop-color="#83BA2D" offset="1"/></radialGradient><radialGradient id="d" cx="0" cy="0" r="1" gradientTransform="translate(26.562 9) rotate(164.54) scale(6.0956 2.8568)" gradientUnits="userSpaceOnUse"><stop stop-color="#9ED347" offset=".33986"/><stop stop-color="#9DD43E" stop-opacity="0" offset="1"/></radialGradient><linearGradient id="c" x1="24.689" x2="30.125" y1="10.719" y2="3.0625" gradientUnits="userSpaceOnUse"><stop stop-color="#BFF079" offset="0"/><stop stop-color="#BFF079" stop-opacity="0" offset="1"/></linearGradient><linearGradient id="b" x1="24.408" x2="29.844" y1="10.598" y2="2.9412" gradientUnits="userSpaceOnUse"><stop stop-color="#BFF079" offset="0"/><stop stop-color="#BFF079" stop-opacity="0" offset="1"/></linearGradient><radialGradient id="a" cx="0" cy="0" r="1" gradientTransform="translate(10.25 9.83) rotate(-90) scale(6.955 21.668)" gradientUnits="userSpaceOnUse"><stop stop-color="#ADE742" offset="0"/><stop stop-color="#9BD03C" stop-opacity="0" offset=".82027"/></radialGradient><radialGradient id="o" cx="0" cy="0" r="1" gradientTransform="translate(9.69 7) rotate(65.857) scale(7.3286 6.919)" gradientUnits="userSpaceOnUse"><stop stop-color="#84B72D" stop-opacity="0" offset="0"/><stop stop-color="#86B837" stop-opacity="0" offset=".59747"/><stop stop-color="#87B93B" offset="1"/></radialGradient><radialGradient id="n" cx="0" cy="0" r="1" gradientTransform="translate(21.719 16.25) rotate(-56.348) scale(13.14 12.675)" gradientUnits="userSpaceOnUse"><stop stop-color="#BFF96A" offset=".2521"/><stop stop-color="#BDF66A" stop-opacity=".16957" offset=".61348"/></radialGradient><radialGradient id="m" cx="0" cy="0" r="1" gradientTransform="translate(12.594 13.062) rotate(47.372) scale(3.7376 3.4771)" gradientUnits="userSpaceOnUse"><stop stop-color="#97D121" offset="0"/><stop stop-color="#98D120" stop-opacity="0" offset="1"/></radialGradient><linearGradient id="l" x1="16.705" x2="17.889" y1="14.126" y2="11.045" gradientUnits="userSpaceOnUse"><stop stop-color="#84C21C" offset="0"/><stop stop-color="#9BDA3B" offset=".30378"/><stop stop-color="#95D432" offset=".66717"/><stop stop-color="#91CF21" offset="1"/></linearGradient><linearGradient id="k" x1="16.406" x2="25.906" y1="14.126" y2="14.126" gradientUnits="userSpaceOnUse"><stop stop-color="#82C11A" offset="0"/><stop stop-color="#9CDA3D" offset=".18092"/><stop stop-color="#9AD938" offset=".62829"/><stop stop-color="#91CF25" offset="1"/></linearGradient><linearGradient id="j" x1="15.625" x2="6.3337" y1="14.126" y2="14.126" gradientUnits="userSpaceOnUse"><stop stop-color="#AEDD79" offset="0"/><stop stop-color="#90C72E" offset=".30378"/><stop stop-color="#87AF45" offset=".66717"/><stop stop-color="#91CF21" offset="1"/></linearGradient></defs></svg>
