<?xml version="1.0" encoding="UTF-8"?>
<svg width="3300px" height="2200px" viewBox="0 0 3300 2200" version="1.1" xmlns="http://www.w3.org/2000/svg" xmlns:xlink="http://www.w3.org/1999/xlink">
    <title>threema.video.circle</title>
    <g id="Page-1" stroke="none" stroke-width="1" fill="none" fill-rule="evenodd">
        <g id="Notes">
            <rect id="artboard" fill="#FFFFFF" fill-rule="nonzero" x="0" y="0" width="3300" height="2200"></rect>
            <line x1="263" y1="292" x2="3036" y2="292" id="Path" stroke="#000000" stroke-width="0.5"></line>
            <text id="Weight/Scale-Variations" fill="#000000" fill-rule="nonzero" font-family="Helvetica" font-size="13" font-weight="normal">
                <tspan x="263" y="322">Weight/Scale Variations</tspan>
            </text>
            <text id="Ultralight" fill="#000000" fill-rule="nonzero" font-family="Helvetica" font-size="13" font-weight="normal">
                <tspan x="533.711" y="322">Ultralight</tspan>
            </text>
            <text id="Thin" fill="#000000" fill-rule="nonzero" font-family="Helvetica" font-size="13" font-weight="normal">
                <tspan x="843.422" y="322">Thin</tspan>
            </text>
            <text id="Light" fill="#000000" fill-rule="nonzero" font-family="Helvetica" font-size="13" font-weight="normal">
                <tspan x="1138.63" y="322">Light</tspan>
            </text>
            <text id="Regular" fill="#000000" fill-rule="nonzero" font-family="Helvetica" font-size="13" font-weight="normal">
                <tspan x="1426.84" y="322">Regular</tspan>
            </text>
            <text id="Medium" fill="#000000" fill-rule="nonzero" font-family="Helvetica" font-size="13" font-weight="normal">
                <tspan x="1723.06" y="322">Medium</tspan>
            </text>
            <text id="Semibold" fill="#000000" fill-rule="nonzero" font-family="Helvetica" font-size="13" font-weight="normal">
                <tspan x="2015.77" y="322">Semibold</tspan>
            </text>
            <text id="Bold" fill="#000000" fill-rule="nonzero" font-family="Helvetica" font-size="13" font-weight="normal">
                <tspan x="2326.48" y="322">Bold</tspan>
            </text>
            <text id="Heavy" fill="#000000" fill-rule="nonzero" font-family="Helvetica" font-size="13" font-weight="normal">
                <tspan x="2618.19" y="322">Heavy</tspan>
            </text>
            <text id="Black" fill="#000000" fill-rule="nonzero" font-family="Helvetica" font-size="13" font-weight="normal">
                <tspan x="2917.4" y="322">Black</tspan>
            </text>
            <line x1="263" y1="1903" x2="3036" y2="1903" id="Path" stroke="#000000" stroke-width="0.5"></line>
            <g id="Group" transform="translate(264.3672, 1918.0684)" fill="#000000" fill-rule="nonzero">
                <path d="M7.88088,15.76172 C12.18752,15.76172 15.7715,12.1875 15.7715,7.88086 C15.7715,3.57422 12.17774,0 7.8711,0 C3.57422,0 0,3.57422 0,7.88086 C0,12.1875 3.58398,15.76172 7.88086,15.76172 L7.88088,15.76172 Z M7.88088,14.277344 C4.33596,14.277344 1.50392,11.435544 1.50392,7.880864 C1.50392,4.326184 4.32618,1.484384 7.8711,1.484384 C11.42578,1.484384 14.27734,4.326184 14.27734,7.880864 C14.27734,11.435544 11.43554,14.277344 7.88086,14.277344 L7.88088,14.277344 Z M4.28712,7.880864 C4.28712,8.310552 4.589854,8.60352 5.039074,8.60352 L7.138674,8.60352 L7.138674,10.72266 C7.138674,11.162114 7.431642,11.464848 7.86133,11.464848 C8.310548,11.464848 8.603518,11.162114 8.603518,10.72266 L8.603518,8.60352 L10.722658,8.60352 C11.162112,8.60352 11.464846,8.310552 11.464846,7.880864 C11.464846,7.44141 11.162112,7.138676 10.722658,7.138676 L8.603518,7.138676 L8.603518,5.029296 C8.603518,4.580078 8.31055,4.277342 7.86133,4.277342 C7.431642,4.277342 7.138674,4.580076 7.138674,5.029296 L7.138674,7.138676 L5.039074,7.138676 C4.589856,7.138676 4.28712,7.44141 4.28712,7.880864 Z" id="Shape"></path>
            </g>
            <g id="Group" transform="translate(283.254, 1915.9883)" fill="#000000" fill-rule="nonzero">
                <path d="M9.96094,19.92188 C15.41016,19.92188 19.92188,15.4004 19.92188,9.96094 C19.92188,4.51172 15.4004,0 9.95118,0 C4.51172,0 0,4.51172 0,9.96094 C0,15.4004 4.52148,19.92188 9.96094,19.92188 Z M9.96094,18.261724 C5.35156,18.261724 1.66992,14.570324 1.66992,9.960944 C1.66992,5.351564 5.3418,1.660164 9.95116,1.660164 C14.56052,1.660164 18.2617,5.351564 18.2617,9.960944 C18.2617,14.570324 14.5703,18.261724 9.96092,18.261724 L9.96094,18.261724 Z M5.4297,9.960944 C5.4297,10.43946 5.761732,10.761726 6.259778,10.761726 L9.130878,10.761726 L9.130878,13.642586 C9.130878,14.130868 9.46291,14.472664 9.941424,14.472664 C10.4297,14.472664 10.771502,14.140632 10.771502,13.642586 L10.771502,10.761726 L13.652362,10.761726 C14.140644,10.761726 14.48244,10.43946 14.48244,9.960944 C14.48244,9.472662 14.140644,9.130866 13.652362,9.130866 L10.771502,9.130866 L10.771502,6.259766 C10.771502,5.76172 10.4297,5.419922 9.941424,5.419922 C9.462908,5.419922 9.130878,5.761718 9.130878,6.259766 L9.130878,9.130866 L6.259778,9.130866 C5.761732,9.130866 5.4297,9.472662 5.4297,9.960944 Z" id="Shape"></path>
            </g>
            <g id="Group" transform="translate(307.1798, 1913.2246)" fill="#000000" fill-rule="nonzero">
                <path d="M12.71486,25.43944 C19.67776,25.43944 25.43946,19.67772 25.43946,12.7246 C25.43946,5.7617 19.66798,0 12.70508,0 C5.75196,0 -1.42108547e-15,5.76172 -1.42108547e-15,12.7246 C-1.42108547e-15,19.67772 5.76172,25.43944 12.71484,25.43944 L12.71486,25.43944 Z M12.71486,23.623034 C6.6797,23.623034 1.82618,18.759754 1.82618,12.724594 C1.82618,6.679674 6.66994,1.826154 12.70508,1.826154 C18.75,1.826154 23.61328,6.679674 23.61328,12.724594 C23.61328,18.759754 18.75976,23.623034 12.71484,23.623034 L12.71486,23.623034 Z M6.94338,12.724594 C6.94338,13.242172 7.314474,13.6035 7.861348,13.6035 L11.806668,13.6035 L11.806668,17.55858 C11.806668,18.09569 12.177762,18.476548 12.69534,18.476548 C13.23245,18.476548 13.603544,18.105454 13.603544,17.55858 L13.603544,13.6035 L17.558624,13.6035 C18.095734,13.6035 18.476592,13.242172 18.476592,12.724594 C18.476592,12.177718 18.105498,11.806626 17.558624,11.806626 L13.603544,11.806626 L13.603544,7.861306 C13.603544,7.31443 13.23245,6.933572 12.69534,6.933572 C12.177762,6.933572 11.806668,7.314432 11.806668,7.861306 L11.806668,11.806626 L7.861348,11.806626 C7.314472,11.806626 6.94338,12.17772 6.94338,12.724594 Z" id="Shape"></path>
            </g>
            <text id="Design-Variations" fill="#000000" fill-rule="nonzero" font-family="Helvetica" font-size="13" font-weight="normal">
                <tspan x="263" y="1953">Design Variations</tspan>
            </text>
            <text id="Symbols-are-supported-in-up-to-nine-weights-and-three-scales." fill="#000000" fill-rule="nonzero" font-family="Helvetica" font-size="13" font-weight="normal">
                <tspan x="263" y="1971">Symbols are supported in up to nine weights and three scales.</tspan>
            </text>
            <text id="For-optimal-layout-with-text-and-other-symbols,-vertically-align" fill="#000000" fill-rule="nonzero" font-family="Helvetica" font-size="13" font-weight="normal">
                <tspan x="263" y="1989">For optimal layout with text and other symbols, vertically align</tspan>
            </text>
            <text id="symbols-with-the-adjacent-text." fill="#000000" fill-rule="nonzero" font-family="Helvetica" font-size="13" font-weight="normal">
                <tspan x="263" y="2007">symbols with the adjacent text.</tspan>
            </text>
            <line x1="776" y1="1919" x2="776" y2="1933" id="Path" stroke="#00AEEF" stroke-width="0.5"></line>
            <g id="Group" transform="translate(778.4902, 1918.7324)" fill="#000000" fill-rule="nonzero">
                <path d="M0.8203116,14.423832 C1.3378896,14.423832 1.5917956,14.2285116 1.7773436,13.681636 L3.0371096,10.234376 L8.7988296,10.234376 L10.0585956,13.681636 C10.2441424,14.228512 10.4980496,14.423832 11.0058616,14.423832 C11.5234396,14.423832 11.8554716,14.111324 11.8554716,13.623042 C11.8554716,13.4570264 11.8261748,13.300776 11.7480498,13.095698 L7.1679698,0.898438 C6.9433598,0.302734 6.5429698,0 5.9179698,0 C5.3125018,0 4.9023458,0.292968 4.6875018,0.888672 L0.1074218,13.105472 C0.0292968,13.31055 -3.55271368e-16,13.4668 -3.55271368e-16,13.632816 C-3.55271368e-16,14.121098 0.3125,14.423832 0.820312,14.423832 L0.8203116,14.423832 Z M3.5156316,8.750004 L5.8886716,2.177744 L5.9374998,2.177744 L8.3105398,8.750004 L3.5156316,8.750004 Z" id="Shape"></path>
            </g>
            <line x1="792.836" y1="1919" x2="792.836" y2="1933" id="Path" stroke="#00AEEF" stroke-width="0.5"></line>
            <text id="Margins" fill="#000000" fill-rule="nonzero" font-family="Helvetica" font-size="13" font-weight="normal">
                <tspan x="776" y="1953">Margins</tspan>
            </text>
            <text id="Leading-and-trailing-margins-on-the-left-and-right-side-of-each-symbol" fill="#000000" fill-rule="nonzero" font-family="Helvetica" font-size="13" font-weight="normal">
                <tspan x="776" y="1971">Leading and trailing margins on the left and right side of each symbol</tspan>
            </text>
            <text id="can-be-adjusted-by-modifying-the-x-location-of-the-margin-guidelines." fill="#000000" fill-rule="nonzero" font-family="Helvetica" font-size="13" font-weight="normal">
                <tspan x="776" y="1989">can be adjusted by modifying the x-location of the margin guidelines.</tspan>
            </text>
            <text id="Modifications-are-automatically-applied-proportionally-to-all" fill="#000000" fill-rule="nonzero" font-family="Helvetica" font-size="13" font-weight="normal">
                <tspan x="776" y="2007">Modifications are automatically applied proportionally to all</tspan>
            </text>
            <text id="scales-and-weights." fill="#000000" fill-rule="nonzero" font-family="Helvetica" font-size="13" font-weight="normal">
                <tspan x="776" y="2025">scales and weights.</tspan>
            </text>
            <g id="Group" transform="translate(1291.2481, 1914.5174)" fill="#000000" fill-rule="nonzero">
                <path d="M0.593687825,20.3477978 L2.29290583,22.0567818 C3.15228183,22.9259218 4.13860983,22.8673278 5.06634583,21.8419378 L15.7597058,10.0548378 L14.7929098,9.07827578 L4.17766983,20.7579558 C3.82610783,21.1583458 3.49407583,21.2560018 3.02532583,20.7872526 L1.85344983,19.6251426 C1.38469983,19.1661586 1.49212183,18.8243606 1.89251223,18.4630326 L13.3671122,7.66225258 L12.3905502,6.69545658 L0.798750225,17.5841366 C-0.187577775,18.5021046 -0.265703775,19.4786686 0.593672225,20.3478166 L0.593687825,20.3477978 Z M7.00970783,2.15443778 C6.58978583,2.56459378 6.56048983,3.14076578 6.79486383,3.53139178 C7.02923983,3.89271978 7.48822383,4.12709578 8.13275383,3.96107978 C9.59759783,3.61928378 11.1210338,3.56068978 12.5468138,4.49818978 L11.9608758,5.95326778 C11.6190798,6.78334578 11.7948602,7.36928378 12.3319698,7.91615778 L14.6268898,10.2306178 C15.1151718,10.7188998 15.5253278,10.7384298 16.0917338,10.6407738 L17.1561878,10.4454614 L17.8202498,11.1192894 L17.7811874,11.6759294 C17.742125,12.1739754 17.869078,12.5548354 18.3573594,13.0333514 L19.1190774,13.7755394 C19.5975934,14.2540554 20.2128274,14.2833514 20.6815774,13.8146018 L23.5917374,10.8946818 C24.0604874,10.4259318 24.0409554,9.83022778 23.5624406,9.35171378 L22.7909566,8.58999578 C22.3124406,8.11147978 21.9413466,7.95522978 21.4628326,7.99429178 L20.8866606,8.04311998 L20.2421286,7.40835398 L20.4862686,6.28530798 C20.6132218,5.71890198 20.4569718,5.27944798 19.8710346,4.69351198 L17.6737746,2.50601198 C14.3339346,-0.814308021 9.90033463,-0.736168021 7.00971463,2.15444998 L7.00970783,2.15443778 Z M8.50384783,2.52553178 C10.9354878,0.748187779 14.2265078,1.05092178 16.4530678,3.27748578 L18.8847078,5.68958578 C19.1190838,5.92396178 19.1581458,6.10950778 19.0897858,6.45130378 L18.7675198,7.93567978 L20.2714258,9.42005578 L21.2577538,9.36146198 C21.5116598,9.35169636 21.5897858,9.3712276 21.7850978,9.56653998 L22.3612698,10.142712 L19.9198698,12.584112 L19.3436978,12.00794 C19.1483854,11.8126276 19.1190878,11.734502 19.1288538,11.47083 L19.1972132,10.494268 L17.7030732,9.00989198 L16.1796352,9.26379798 C15.8573692,9.33215738 15.7108852,9.30286038 15.4667452,9.06848558 L13.4647852,7.06652558 C13.2108792,6.83214958 13.1815812,6.66613558 13.337832,6.29504158 L14.216738,4.20520158 C12.654238,2.75012358 10.622978,2.12512158 8.59173803,2.72082558 C8.43548803,2.75988798 8.37689403,2.63293498 8.50384743,2.52551318 L8.50384783,2.52553178 Z" id="Shape"></path>
            </g>
            <text id="Exporting" fill="#000000" fill-rule="nonzero" font-family="Helvetica" font-size="13" font-weight="normal">
                <tspan x="1289" y="1953">Exporting</tspan>
            </text>
            <text id="Symbols-should-be-outlined-when-exporting-to-ensure-the" fill="#000000" fill-rule="nonzero" font-family="Helvetica" font-size="13" font-weight="normal">
                <tspan x="1289" y="1971">Symbols should be outlined when exporting to ensure the</tspan>
            </text>
            <text id="design-is-preserved-when-submitting-to-Xcode." fill="#000000" fill-rule="nonzero" font-family="Helvetica" font-size="13" font-weight="normal">
                <tspan x="1289" y="1989">design is preserved when submitting to Xcode.</tspan>
            </text>
            <text id="template-version" fill="#000000" fill-rule="nonzero" font-family="Helvetica" font-size="13" font-weight="normal">
                <tspan x="2952" y="1933">Template v.5.0</tspan>
            </text>
            <text id="Requires-Xcode-15-or-greater" fill="#000000" fill-rule="nonzero" font-family="Helvetica" font-size="13" font-weight="normal">
                <tspan x="2865" y="1951">Requires Xcode 15 or greater</tspan>
            </text>
            <text id="descriptive-name" fill="#000000" fill-rule="nonzero" font-family="Helvetica" font-size="13" font-weight="normal">
                <tspan x="2864" y="1969">Generated from camera.circle</tspan>
            </text>
            <text id="Typeset-at-100.0-points" fill="#000000" fill-rule="nonzero" font-family="Helvetica" font-size="13" font-weight="normal">
                <tspan x="2901" y="1987">Typeset at 100.0 points</tspan>
            </text>
            <text id="Small" fill="#000000" fill-rule="nonzero" font-family="Helvetica" font-size="13" font-weight="normal">
                <tspan x="263" y="726">Small</tspan>
            </text>
            <text id="Medium" fill="#000000" fill-rule="nonzero" font-family="Helvetica" font-size="13" font-weight="normal">
                <tspan x="263" y="1156">Medium</tspan>
            </text>
            <text id="Large" fill="#000000" fill-rule="nonzero" font-family="Helvetica" font-size="13" font-weight="normal">
                <tspan x="263" y="1586">Large</tspan>
            </text>
        </g>
        <g id="Guides" transform="translate(263, 600.785)">
            <g id="H-reference" transform="translate(76.9937, 24.756)" fill="#27AAE1" fill-rule="nonzero">
                <path d="M0,70.459 L2.644096,70.459 L28.334446,3.3267 L29.036646,3.3267 L29.036646,0 L27.128946,0 L0,70.459 Z M10.694846,45.9791 L45.987846,45.9791 L45.237846,43.7305 L11.444846,43.7305 L10.694846,45.9791 Z M54.125946,70.459 L56.770046,70.459 L29.644546,0 L28.438946,0 L28.438946,3.3267 L54.125946,70.459 Z" id="Shape"></path>
            </g>
            <line x1="0" y1="95.215" x2="2773" y2="95.215" id="Baseline-S" stroke="#27AAE1" stroke-width="0.5"></line>
            <line x1="0" y1="24.756" x2="2773" y2="24.756" id="Capline-S" stroke="#27AAE1" stroke-width="0.5"></line>
            <g id="H-reference" transform="translate(76.9937, 454.756)" fill="#27AAE1" fill-rule="nonzero">
                <path d="M0,70.459 L2.644096,70.459 L28.334446,3.3267 L29.036646,3.3267 L29.036646,0 L27.128946,0 L0,70.459 Z M10.694846,45.9791 L45.987846,45.9791 L45.237846,43.7305 L11.444846,43.7305 L10.694846,45.9791 Z M54.125946,70.459 L56.770046,70.459 L29.644546,0 L28.438946,0 L28.438946,3.3267 L54.125946,70.459 Z" id="Shape"></path>
            </g>
            <line x1="0" y1="525.215" x2="2773" y2="525.215" id="Baseline-M" stroke="#27AAE1" stroke-width="0.5"></line>
            <line x1="0" y1="454.755" x2="2773" y2="454.755" id="Capline-M" stroke="#27AAE1" stroke-width="0.5"></line>
            <g id="H-reference" transform="translate(76.9937, 884.756)" fill="#27AAE1" fill-rule="nonzero">
                <path d="M0,70.459 L2.644096,70.459 L28.334446,3.3267 L29.036646,3.3267 L29.036646,0 L27.128946,0 L0,70.459 Z M10.694846,45.9791 L45.987846,45.9791 L45.237846,43.7305 L11.444846,43.7305 L10.694846,45.9791 Z M54.125946,70.459 L56.770046,70.459 L29.644546,0 L28.438946,0 L28.438946,3.3267 L54.125946,70.459 Z" id="Shape"></path>
            </g>
            <line x1="0" y1="955.215" x2="2773" y2="955.215" id="Baseline-L" stroke="#27AAE1" stroke-width="0.5"></line>
            <line x1="0" y1="884.755" x2="2773" y2="884.755" id="Capline-L" stroke="#27AAE1" stroke-width="0.5"></line>
            <line x1="252.649" y1="1.13686838e-13" x2="252.649" y2="119.336" id="left-margin-Ultralight-S" stroke="#00AEEF" stroke-width="0.5"></line>
            <line x1="340.773" y1="1.13686838e-13" x2="340.773" y2="119.336" id="right-margin-Ultralight-S" stroke="#00AEEF" stroke-width="0.5"></line>
            <line x1="1140.58" y1="1.13686838e-13" x2="1140.58" y2="119.336" id="left-margin-Regular-S" stroke="#00AEEF" stroke-width="0.5"></line>
            <line x1="1233.11" y1="1.13686838e-13" x2="1233.11" y2="119.336" id="right-margin-Regular-S" stroke="#00AEEF" stroke-width="0.5"></line>
            <line x1="2621.57" y1="1.13686838e-13" x2="2621.57" y2="119.336" id="left-margin-Black-S" stroke="#00AEEF" stroke-width="0.5"></line>
            <line x1="2719.23" y1="1.13686838e-13" x2="2719.23" y2="119.336" id="right-margin-Black-S" stroke="#00AEEF" stroke-width="0.5"></line>
        </g>
        <g id="Symbols" transform="translate(522.4849, 618.8027)" stroke="#000000" stroke-width="0.5">
            <g id="Black-S" transform="translate(2368.921, 0)">
                <path d="M41.99216,83.98441 C65.13676,83.98441 83.98436,65.1368 83.98436,41.9922 C83.98436,18.8477 65.13676,0 41.99216,0 C18.84766,0 0,18.8477 0,41.9922 C0,65.1368 18.84766,83.98441 41.99216,83.98441 Z M41.99216,69.82425 C26.61136,69.82425 14.16016,57.3731 14.16016,41.9922 C14.16016,26.6114 26.61136,14.1602 41.99216,14.1602 C57.37306,14.1602 69.82426,26.6114 69.82426,41.9922 C69.82426,57.3731 57.37306,69.82425 41.99216,69.82425 Z" id="Shape"></path>
                <path d="M47.59406,26.4473 C48.3534515,26.4473 49.0409515,26.7551042 49.5386036,27.2527564 C50.0362558,27.7504085 50.34406,28.4379085 50.34406,29.1973 L50.34406,54.1973 C50.34406,54.9566915 50.0362558,55.6441915 49.5386036,56.1418436 C49.0409515,56.6394958 48.3534515,56.9473 47.59406,56.9473 L24.59406,56.9473 C23.8346685,56.9473 23.1471685,56.6394958 22.6495164,56.1418436 C22.1518642,55.6441915 21.84406,54.9566915 21.84406,54.1973 L21.84406,29.1973 C21.84406,28.4379085 22.1518642,27.7504085 22.6495164,27.2527564 C23.1471685,26.7551042 23.8346685,26.4473 24.59406,26.4473 Z M59.5672778,30.6991035 C59.9586036,30.4155654 60.4278092,30.317486 60.8700678,30.3881225 C61.3123264,30.4587591 61.7276381,30.6981116 62.0111762,31.0894374 C62.2275551,31.3880733 62.34406,31.7474335 62.34406,32.1162197 L62.34406,49.2339259 C62.34406,49.717175 62.1481846,50.154675 61.8314969,50.4713628 C61.5148092,50.7880505 61.0773092,50.9839259 60.59406,50.9839259 C60.2198287,50.9839259 59.8554532,50.8639593 59.5544194,50.6416359 L52.5544194,45.4719031 C52.1076752,45.1419677 51.84406,44.6195648 51.84406,44.0641931 L51.84406,37.1881225 C51.84406,36.6271364 52.113002,36.1001552 52.5672778,35.7710063 Z" id="Shape"></path>
            </g>
            <g id="Regular-S" transform="translate(887.931, 2.5391)">
                <path d="M39.40426,78.80859 C60.93746,78.80859 78.85746,60.9375 78.85746,39.4043 C78.85746,17.8711 60.88866,0 39.35546,0 C17.87106,0 0,17.8711 0,39.4043 C0,60.9375 17.91996,78.80859 39.40426,78.80859 Z M39.40426,71.38672 C21.67966,71.38672 7.51956,57.1777 7.51956,39.4043 C7.51956,21.6309 21.63086,7.4219 39.35546,7.4219 C57.12886,7.4219 71.38676,21.6309 71.38676,39.4043 C71.38676,57.1777 57.17776,71.38672 39.40426,71.38672 Z" id="Shape"></path>
                <path d="M44.58406,23.9082 C45.3434515,23.9082 46.0309515,24.2160042 46.5286036,24.7136564 C47.0262558,25.2113085 47.33406,25.8988085 47.33406,26.6582 L47.33406,51.6582 C47.33406,52.4175915 47.0262558,53.1050915 46.5286036,53.6027436 C46.0309515,54.1003958 45.3434515,54.4082 44.58406,54.4082 L21.58406,54.4082 C20.8246685,54.4082 20.1371685,54.1003958 19.6395164,53.6027436 C19.1418642,53.1050915 18.83406,52.4175915 18.83406,51.6582 L18.83406,26.6582 C18.83406,25.8988085 19.1418642,25.2113085 19.6395164,24.7136564 C20.1371685,24.2160042 20.8246685,23.9082 21.58406,23.9082 Z M56.5572778,28.1600035 C56.9486036,27.8764654 57.4178092,27.778386 57.8600678,27.8490225 C58.3023264,27.9196591 58.7176381,28.1590116 59.0011762,28.5503374 C59.2175551,28.8489733 59.33406,29.2083335 59.33406,29.5771197 L59.33406,46.6948259 C59.33406,47.178075 59.1381846,47.615575 58.8214969,47.9322628 C58.5048092,48.2489505 58.0673092,48.4448259 57.58406,48.4448259 C57.2098287,48.4448259 56.8454532,48.3248593 56.5444194,48.1025359 L49.5444194,42.9328031 C49.0976752,42.6028677 48.83406,42.0804648 48.83406,41.5250931 L48.83406,34.6490225 C48.83406,34.0880364 49.103002,33.5610552 49.5572778,33.2319063 Z" id="Shape"></path>
            </g>
            <g id="Ultralight-S" transform="translate(0, 4.7188)">
                <path d="M37.22466,74.44922 C57.66796,74.44922 74.45266,57.668 74.45266,37.2246 C74.45266,16.7812 57.66456,0 37.22116,0 C16.73586,0 0,16.7812 0,37.2246 C0,57.668 16.73926,74.44922 37.22466,74.44922 Z M37.22466,72.204062 C17.91066,72.204062 2.20658,56.542 2.20658,37.2246 C2.20658,17.9072 17.90726,2.2451 37.22116,2.2451 C56.53856,2.2451 72.20406,17.9072 72.20406,37.2246 C72.20406,56.542 56.54196,72.204062 37.22466,72.204062 Z" id="Shape"></path>
                <path d="M42.51506,21.7285 C43.2744515,21.7285 43.9619515,22.0363042 44.4596036,22.5339564 C44.9572558,23.0316085 45.26506,23.7191085 45.26506,24.4785 L45.26506,49.4785 C45.26506,50.2378915 44.9572558,50.9253915 44.4596036,51.4230436 C43.9619515,51.9206958 43.2744515,52.2285 42.51506,52.2285 L19.51506,52.2285 C18.7556685,52.2285 18.0681685,51.9206958 17.5705164,51.4230436 C17.0728642,50.9253915 16.76506,50.2378915 16.76506,49.4785 L16.76506,24.4785 C16.76506,23.7191085 17.0728642,23.0316085 17.5705164,22.5339564 C18.0681685,22.0363042 18.7556685,21.7285 19.51506,21.7285 Z M54.4882778,25.9803035 C54.8796036,25.6967654 55.3488092,25.598686 55.7910678,25.6693225 C56.2333264,25.7399591 56.6486381,25.9793116 56.9321762,26.3706374 C57.1485551,26.6692733 57.26506,27.0286335 57.26506,27.3974197 L57.26506,44.5151259 C57.26506,44.998375 57.0691846,45.435875 56.7524969,45.7525628 C56.4358092,46.0692505 55.9983092,46.2651259 55.51506,46.2651259 C55.1408287,46.2651259 54.7764532,46.1451593 54.4754194,45.9228359 L47.4754194,40.7531031 C47.0286752,40.4231677 46.76506,39.9007648 46.76506,39.3453931 L46.76506,32.4693225 C46.76506,31.9083364 47.034002,31.3813552 47.4882778,31.0522063 Z" id="Shape"></path>
            </g>
        </g>
    </g>
</svg>