<svg fill="none" viewBox="0 0 32 32" xmlns="http://www.w3.org/2000/svg"><path d="m8.7263 3.2654c-0.71409 0.71409-1.1368 1.6139-1.2681 2.5425-0.12489 0.89021-0.81656 1.5819-1.7068 1.7068-0.93184 0.12809-1.8284 0.55078-2.5425 1.2681-0.02242 0.02242-0.04483 0.04483-0.06405 0.06725-2.1102 2.1967-1.1688 5.8536 1.7228 6.8143 2.0558 0.682 4.3198 0.1473 5.8504-1.3866l3.5033-3.5032c1.5306-1.5306 2.0686-3.7946 1.3865-5.8504-0.9639-2.8916-4.6208-3.833-6.8175-1.726-0.02241 0.02242-0.04483 0.04484-0.06404 0.06725z" fill="#7F3A38"/><path d="m8.7263 3.2654c-0.71409 0.71409-1.1368 1.6139-1.2681 2.5425-0.12489 0.89021-0.81656 1.5819-1.7068 1.7068-0.93184 0.12809-1.8284 0.55078-2.5425 1.2681-0.02242 0.02242-0.04483 0.04483-0.06405 0.06725-2.1102 2.1967-1.1688 5.8536 1.7228 6.8143 2.0558 0.682 4.3198 0.1473 5.8504-1.3866l3.5033-3.5032c1.5306-1.5306 2.0686-3.7946 1.3865-5.8504-0.9639-2.8916-4.6208-3.833-6.8175-1.726-0.02241 0.02242-0.04483 0.04484-0.06404 0.06725z" fill="url(#m)"/><path d="m8.7263 3.2654c-0.71409 0.71409-1.1368 1.6139-1.2681 2.5425-0.12489 0.89021-0.81656 1.5819-1.7068 1.7068-0.93184 0.12809-1.8284 0.55078-2.5425 1.2681-0.02242 0.02242-0.04483 0.04483-0.06405 0.06725-2.1102 2.1967-1.1688 5.8536 1.7228 6.8143 2.0558 0.682 4.3198 0.1473 5.8504-1.3866l3.5033-3.5032c1.5306-1.5306 2.0686-3.7946 1.3865-5.8504-0.9639-2.8916-4.6208-3.833-6.8175-1.726-0.02241 0.02242-0.04483 0.04484-0.06404 0.06725z" fill="url(#i)"/><path d="m8.7263 3.2654c-0.71409 0.71409-1.1368 1.6139-1.2681 2.5425-0.12489 0.89021-0.81656 1.5819-1.7068 1.7068-0.93184 0.12809-1.8284 0.55078-2.5425 1.2681-0.02242 0.02242-0.04483 0.04483-0.06405 0.06725-2.1102 2.1967-1.1688 5.8536 1.7228 6.8143 2.0558 0.682 4.3198 0.1473 5.8504-1.3866l3.5033-3.5032c1.5306-1.5306 2.0686-3.7946 1.3865-5.8504-0.9639-2.8916-4.6208-3.833-6.8175-1.726-0.02241 0.02242-0.04483 0.04484-0.06404 0.06725z" fill="url(#h)"/><path d="m8.5724 5.885c-0.1441-0.01921-0.285 0.02882-0.39067 0.13129-0.07045 0.07045-0.11528 0.16011-0.13129 0.26258-0.06724 0.47073-0.27539 0.89662-0.60521 1.2264-0.32983 0.32983-0.75572 0.54117-1.2264 0.60522-0.09927 0.0128-0.18893 0.05763-0.26258 0.13128-0.10247 0.10247-0.15051 0.24657-0.13129 0.39067 0.03522 0.24977 0.26898 0.42589 0.51875 0.39067 0.66926-0.09286 1.2745-0.39387 1.7484-0.86779 0.47393-0.47393 0.77493-1.0791 0.8678-1.7484 0.01601-0.12168-0.01602-0.24337-0.08967-0.33943-0.06724-0.10247-0.17612-0.16651-0.2978-0.18253z" fill="url(#g)"/><path d="m26.274 4.3669c0.4323 0.91583 0.5251 1.9021 0.333 2.8211-0.1857 0.88061 0.2338 1.7644 1.0279 2.1839 0.8326 0.4355 1.5339 1.1368 1.963 2.0526 0.0128 0.0288 0.0256 0.0544 0.0384 0.0833 1.2424 2.7827-0.8806 5.9016-3.9259 5.8279-2.1647-0.0544-4.1148-1.3257-5.0371-3.2822l-2.1102-4.4799c-0.9222-1.9598-0.6597-4.2717 0.6757-5.9753 1.8828-2.3952 5.639-2.043 6.9935 0.68527 0.0161 0.02882 0.0289 0.05444 0.0417 0.08326z" fill="url(#f)"/><path d="m26.274 4.3669c0.4323 0.91583 0.5251 1.9021 0.333 2.8211-0.1857 0.88061 0.2338 1.7644 1.0279 2.1839 0.8326 0.4355 1.5339 1.1368 1.963 2.0526 0.0128 0.0288 0.0256 0.0544 0.0384 0.0833 1.2424 2.7827-0.8806 5.9016-3.9259 5.8279-2.1647-0.0544-4.1148-1.3257-5.0371-3.2822l-2.1102-4.4799c-0.9222-1.9598-0.6597-4.2717 0.6757-5.9753 1.8828-2.3952 5.639-2.043 6.9935 0.68527 0.0161 0.02882 0.0289 0.05444 0.0417 0.08326z" fill="url(#e)"/><path d="m26.274 4.3669c0.4323 0.91583 0.5251 1.9021 0.333 2.8211-0.1857 0.88061 0.2338 1.7644 1.0279 2.1839 0.8326 0.4355 1.5339 1.1368 1.963 2.0526 0.0128 0.0288 0.0256 0.0544 0.0384 0.0833 1.2424 2.7827-0.8806 5.9016-3.9259 5.8279-2.1647-0.0544-4.1148-1.3257-5.0371-3.2822l-2.1102-4.4799c-0.9222-1.9598-0.6597-4.2717 0.6757-5.9753 1.8828-2.3952 5.639-2.043 6.9935 0.68527 0.0161 0.02882 0.0289 0.05444 0.0417 0.08326z" fill="url(#d)"/><path d="m26.274 4.3669c0.4323 0.91583 0.5251 1.9021 0.333 2.8211-0.1857 0.88061 0.2338 1.7644 1.0279 2.1839 0.8326 0.4355 1.5339 1.1368 1.963 2.0526 0.0128 0.0288 0.0256 0.0544 0.0384 0.0833 1.2424 2.7827-0.8806 5.9016-3.9259 5.8279-2.1647-0.0544-4.1148-1.3257-5.0371-3.2822l-2.1102-4.4799c-0.9222-1.9598-0.6597-4.2717 0.6757-5.9753 1.8828-2.3952 5.639-2.043 6.9935 0.68527 0.0161 0.02882 0.0289 0.05444 0.0417 0.08326z" fill="url(#c)"/><path d="m25.532 6.8834c0.1441 0.02882 0.2593 0.12168 0.3234 0.25617 0.0416 0.08966 0.0544 0.19213 0.0352 0.2914-0.0993 0.46752-0.0448 0.93504 0.1537 1.3609 0.1986 0.42269 0.5284 0.76533 0.9479 0.98628 0.0896 0.04803 0.1601 0.11848 0.2017 0.21135 0.0608 0.13126 0.0576 0.28176-0.0096 0.40986-0.1185 0.2242-0.3971 0.3106-0.6212 0.1921-0.5988-0.3138-1.0664-0.8005-1.3513-1.4089-0.285-0.60841-0.3651-1.2777-0.2242-1.9405 0.0256-0.12168 0.0961-0.22415 0.1985-0.2914 0.1025-0.06724 0.2242-0.08966 0.3459-0.06724z" fill="url(#b)"/><path d="m11.884 17.037c-0.3811 0.9382-0.4195 1.9277-0.1762 2.8371 0.2338 0.8678-0.1377 1.7772-0.9062 2.2384-0.80695 0.4803-1.4698 1.22-1.8477 2.1582-0.01281 0.0289-0.02241 0.0577-0.03522 0.0865-1.0888 2.8436 1.204 5.8472 4.2397 5.6039 2.1583-0.173 4.0348-1.5467 4.8514-3.5545l1.8604-4.5887c0.8134-2.0078 0.4259-4.3006-1.0023-5.9273-2.0109-2.2896-5.7447-1.7324-6.9455 1.0663-0.0128 0.0224-0.0256 0.0512-0.0384 0.0801z" fill="#7F3A38"/><path d="m11.884 17.037c-0.3811 0.9382-0.4195 1.9277-0.1762 2.8371 0.2338 0.8678-0.1377 1.7772-0.9062 2.2384-0.80695 0.4803-1.4698 1.22-1.8477 2.1582-0.01281 0.0289-0.02241 0.0577-0.03522 0.0865-1.0888 2.8436 1.204 5.8472 4.2397 5.6039 2.1583-0.173 4.0348-1.5467 4.8514-3.5545l1.8604-4.5887c0.8134-2.0078 0.4259-4.3006-1.0023-5.9273-2.0109-2.2896-5.7447-1.7324-6.9455 1.0663-0.0128 0.0224-0.0256 0.0512-0.0384 0.0801z" fill="url(#a)"/><path d="m11.884 17.037c-0.3811 0.9382-0.4195 1.9277-0.1762 2.8371 0.2338 0.8678-0.1377 1.7772-0.9062 2.2384-0.80695 0.4803-1.4698 1.22-1.8477 2.1582-0.01281 0.0289-0.02241 0.0577-0.03522 0.0865-1.0888 2.8436 1.204 5.8472 4.2397 5.6039 2.1583-0.173 4.0348-1.5467 4.8514-3.5545l1.8604-4.5887c0.8134-2.0078 0.4259-4.3006-1.0023-5.9273-2.0109-2.2896-5.7447-1.7324-6.9455 1.0663-0.0128 0.0224-0.0256 0.0512-0.0384 0.0801z" fill="url(#l)"/><path d="m11.884 17.037c-0.3811 0.9382-0.4195 1.9277-0.1762 2.8371 0.2338 0.8678-0.1377 1.7772-0.9062 2.2384-0.80695 0.4803-1.4698 1.22-1.8477 2.1582-0.01281 0.0289-0.02241 0.0577-0.03522 0.0865-1.0888 2.8436 1.204 5.8472 4.2397 5.6039 2.1583-0.173 4.0348-1.5467 4.8514-3.5545l1.8604-4.5887c0.8134-2.0078 0.4259-4.3006-1.0023-5.9273-2.0109-2.2896-5.7447-1.7324-6.9455 1.0663-0.0128 0.0224-0.0256 0.0512-0.0384 0.0801z" fill="url(#k)"/><path d="m11.884 17.037c-0.3811 0.9382-0.4195 1.9277-0.1762 2.8371 0.2338 0.8678-0.1377 1.7772-0.9062 2.2384-0.80695 0.4803-1.4698 1.22-1.8477 2.1582-0.01281 0.0289-0.02241 0.0577-0.03522 0.0865-1.0888 2.8436 1.204 5.8472 4.2397 5.6039 2.1583-0.173 4.0348-1.5467 4.8514-3.5545l1.8604-4.5887c0.8134-2.0078 0.4259-4.3006-1.0023-5.9273-2.0109-2.2896-5.7447-1.7324-6.9455 1.0663-0.0128 0.0224-0.0256 0.0512-0.0384 0.0801z" fill="url(#j)"/><path d="m12.767 19.51c-0.1409 0.0384-0.253 0.1376-0.3074 0.2721-0.0385 0.0929-0.0449 0.1954-0.0192 0.2914 0.1216 0.4612 0.096 0.9319-0.0801 1.3674-0.1761 0.4323-0.4835 0.7909-0.8934 1.0343-0.0865 0.0512-0.1537 0.1281-0.1889 0.2209-0.0545 0.1345-0.0449 0.285 0.032 0.4099 0.1313 0.2178 0.4131 0.2882 0.6308 0.1601 0.5796-0.3458 1.0183-0.8582 1.2713-1.4794s0.2946-1.2969 0.1185-1.9501c-0.032-0.1185-0.1089-0.2178-0.2146-0.2786-0.1088-0.0641-0.2305-0.0801-0.349-0.048z" fill="#DD9E85"/><defs><radialGradient id="m" cx="0" cy="0" r="1" gradientTransform="translate(6.3125 6.4688) rotate(135) scale(12.374 9.2461)" gradientUnits="userSpaceOnUse"><stop stop-color="#72413E" offset=".09404"/><stop stop-color="#813A3A" offset=".31786"/><stop stop-color="#954952" offset=".63929"/><stop stop-color="#83333B" offset=".93571"/></radialGradient><radialGradient id="i" cx="0" cy="0" r="1" gradientTransform="translate(13.875 4.8438) rotate(86.563) scale(4.1696 3.2801)" gradientUnits="userSpaceOnUse"><stop stop-color="#AF6C69" offset="0"/><stop stop-color="#AF6B67" stop-opacity="0" offset="1"/></radialGradient><radialGradient id="h" cx="0" cy="0" r="1" gradientTransform="translate(6.25 15.956) rotate(94.193) scale(4.2742 9.1495)" gradientUnits="userSpaceOnUse"><stop stop-color="#8A4264" offset="0"/><stop stop-color="#8A4168" stop-opacity="0" offset="1"/></radialGradient><linearGradient id="g" x1="5.8208" x2="9.8125" y1="8.5312" y2="7.0312" gradientUnits="userSpaceOnUse"><stop stop-color="#D2AB88" offset="0"/><stop stop-color="#C89971" offset=".67512"/></linearGradient><radialGradient id="f" cx="0" cy="0" r="1" gradientTransform="translate(27.5 8.2188) rotate(154) scale(8.5534 10.454)" gradientUnits="userSpaceOnUse"><stop stop-color="#9E534F" offset=".02508"/><stop stop-color="#A6605D" offset=".43767"/><stop stop-color="#7B353C" offset=".82647"/><stop stop-color="#682D32" offset="1"/></radialGradient><radialGradient id="e" cx="0" cy="0" r="1" gradientTransform="translate(24.875 16.969) rotate(28.227) scale(5.8143 4.5415)" gradientUnits="userSpaceOnUse"><stop stop-color="#8A416D" offset="0"/><stop stop-color="#8B4370" stop-opacity="0" offset="1"/></radialGradient><radialGradient id="d" cx="0" cy="0" r="1" gradientTransform="translate(25.062 4.5938) rotate(118.22) scale(2.9081 2.6645)" gradientUnits="userSpaceOnUse"><stop stop-color="#B26E6B" offset="0"/><stop stop-color="#B16E6A" stop-opacity="0" offset="1"/></radialGradient><radialGradient id="c" cx="0" cy="0" r="1" gradientTransform="translate(28.188 11.969) rotate(156.3) scale(2.7986 2.1859)" gradientUnits="userSpaceOnUse"><stop stop-color="#B26F6B" offset="0"/><stop stop-color="#B06D6A" stop-opacity="0" offset="1"/></radialGradient><linearGradient id="b" x1="25.312" x2="27.625" y1="7.4688" y2="10.645" gradientUnits="userSpaceOnUse"><stop stop-color="#F9CFA8" offset="0"/><stop stop-color="#F8CEA3" offset="1"/></linearGradient><radialGradient id="a" cx="0" cy="0" r="1" gradientTransform="translate(10.438 20.219) rotate(117.42) scale(10.992 8.452)" gradientUnits="userSpaceOnUse"><stop stop-color="#744040" offset=".23465"/><stop stop-color="#81393D" offset=".32358"/><stop stop-color="#9E4F59" offset=".60416"/><stop stop-color="#A2565B" offset=".77827"/><stop stop-color="#9D4C53" offset="1"/></radialGradient><radialGradient id="l" cx="0" cy="0" r="1" gradientTransform="translate(14.466 23.656) rotate(112.68) scale(12.396 7.035)" gradientUnits="userSpaceOnUse"><stop stop-color="#8B3D39" stop-opacity="0" offset=".57434"/><stop stop-color="#8D3E39" offset=".71838"/><stop stop-color="#6B2E2D" offset=".86685"/></radialGradient><radialGradient id="k" cx="0" cy="0" r="1" gradientTransform="translate(12.375 31.094) rotate(96.537) scale(6.0393 32.547)" gradientUnits="userSpaceOnUse"><stop stop-color="#96477B" offset=".21527"/><stop stop-color="#93395C" offset=".58338"/><stop stop-color="#93395D" stop-opacity="0" offset="1"/></radialGradient><radialGradient id="j" cx="0" cy="0" r="1" gradientTransform="translate(17.625 18.406) rotate(64.855) scale(3.3831 2.0021)" gradientUnits="userSpaceOnUse"><stop stop-color="#AA6766" offset="0"/><stop stop-color="#A96664" stop-opacity="0" offset="1"/></radialGradient></defs></svg>
