<svg fill="none" viewBox="0 0 32 32" xmlns="http://www.w3.org/2000/svg"><g filter="url(#w)"><path d="m20.415 2.3359c-0.1876-0.18753-0.4419-0.29289-0.7071-0.29289h-13.269c-0.7732 0-1.4 0.6268-1.4 1.4v25.114c0 0.7732 0.6268 1.4 1.4 1.4h19.122c0.7732 0 1.4-0.6268 1.4-1.4v-19.261c0-0.26521-0.1053-0.51957-0.2929-0.7071l-6.2532-6.2533z" fill="url(#t)"/></g><g filter="url(#v)"><path d="m19.751 2.457c0-0.2014 0.0578-0.33003-0.0518-0.35156 0.1042 0.00664 0.2557 0.04439 0.3516 0.08203 0.1232 0.04839-0.0289 0.15523 0.0675 0.24944 0.0029 0.00274 0.0057 0.0055 0.0084 0.0083l6.2533 6.2533c0.019 0.01907 0.0373 0.03882 0.0546 0.05921 0.0854 0.10035 0.1496 0.216 0.1897 0.33995 0.0319 0.09858 0.0486 0.2024 0.0486 0.30795v0.06314c0-0.2322-0.168-0.37109-0.2929-0.37109h-5.429c-0.6627 0-1.2-0.53727-1.2-1.2v-5.4406z" fill="#D2C5DF"/></g><g filter="url(#u)"><path d="m20.039 2.3476c0-0.2014-0.1581-0.28113-0.2677-0.30266 0.1042 0.00664 0.2059 0.0295 0.3018 0.06714 0.1232 0.04839 0.2367 0.12122 0.3332 0.21542 0.0028 0.00275 0.0056 0.00551 0.0084 0.0083l6.2532 6.2533c0.0191 0.01907 0.0373 0.03882 0.0547 0.0592 0.0853 0.10035 0.1495 0.21601 0.1897 0.33995 0.0319 0.09858 0.0485 0.20241 0.0485 0.30796v0.06314c0-0.2322-0.1679-0.3711-0.2929-0.3711h-5.4289c-0.6628 0-1.2-0.53726-1.2-1.2v-5.4406z" fill="url(#i)"/></g><path d="m20.039 2.3476c0-0.2014-0.1581-0.28113-0.2677-0.30266 0.1042 0.00664 0.2059 0.0295 0.3018 0.06714 0.1232 0.04839 0.2367 0.12122 0.3332 0.21542 0.0028 0.00275 0.0056 0.00551 0.0084 0.0083l6.2532 6.2533c0.0191 0.01907 0.0373 0.03882 0.0547 0.0592 0.0853 0.10035 0.1495 0.21601 0.1897 0.33995 0.0319 0.09858 0.0485 0.20241 0.0485 0.30796v0.06314c0-0.2322-0.1679-0.3711-0.2929-0.3711h-5.4289c-0.6628 0-1.2-0.53726-1.2-1.2v-5.4406z" fill="url(#h)"/><rect x="9.0391" y="11.996" width="13.914" height=".99219" rx=".49609" fill="url(#g)"/><rect x="9.0391" y="14.996" width="13.914" height=".99219" rx=".49609" fill="url(#f)"/><rect x="9.0391" y="17.996" width="13.914" height=".99219" rx=".49609" fill="url(#e)"/><rect x="9.0391" y="20.996" width="8.9844" height=".99219" rx=".49609" fill="url(#d)"/><path d="m25.073 13.498c0.6405-0.5254 1.5856-0.4322 2.111 0.2083l1.9506 2.3778c0.5255 0.6405 0.4322 1.5856-0.2083 2.1111l-14.138 11.598-3.8534-4.6972 14.138-11.598z" fill="url(#c)"/><path d="m25.073 13.498c0.6405-0.5254 1.5856-0.4322 2.111 0.2083l1.9506 2.3778c0.5255 0.6405 0.4322 1.5856-0.2083 2.1111l-14.138 11.598-3.8534-4.6972 14.138-11.598z" fill="url(#b)"/><path d="m25.073 13.498c0.6405-0.5254 1.5856-0.4322 2.111 0.2083l1.9506 2.3778c0.5255 0.6405 0.4322 1.5856-0.2083 2.1111l-14.138 11.598-3.8534-4.6972 14.138-11.598z" fill="url(#a)"/><path d="m25.073 13.498c0.6405-0.5254 1.5856-0.4322 2.111 0.2083l1.9506 2.3778c0.5255 0.6405 0.4322 1.5856-0.2083 2.1111l-14.138 11.598-3.8534-4.6972 14.138-11.598z" fill="url(#s)"/><path d="m9.8426 29.794c-0.01594 0.0817 0.04649 0.1577 0.12972 0.1579l4.3536 0.011c0.1252 3e-4 0.248-0.0349 0.3541-0.1015l0.1088-0.0684-3.8533-4.6972-0.0743 0.0738c-0.094 0.0935-0.1579 0.213-0.1832 0.3431l-0.83543 4.2813z" fill="url(#r)"/><path d="m9.8426 29.794c-0.01594 0.0817 0.04649 0.1577 0.12972 0.1579l4.3536 0.011c0.1252 3e-4 0.248-0.0349 0.3541-0.1015l0.1088-0.0684-3.8533-4.6972-0.0743 0.0738c-0.094 0.0935-0.1579 0.213-0.1832 0.3431l-0.83543 4.2813z" fill="url(#q)"/><path d="m9.8426 29.794c-0.01594 0.0817 0.04649 0.1577 0.12972 0.1579l4.3536 0.011c0.1252 3e-4 0.248-0.0349 0.3541-0.1015l0.1088-0.0684-3.8533-4.6972-0.0743 0.0738c-0.094 0.0935-0.1579 0.213-0.1832 0.3431l-0.83543 4.2813z" fill="url(#p)"/><path d="m27.013 19.765 2.3046-1.8907c0.4244-0.3481 0.4862-0.9743 0.1381-1.3986l-2.5928-3.1605c-0.3481-0.4244-0.9742-0.4862-1.3986-0.1381l-2.3046 1.8907 3.8533 4.6972z" fill="url(#o)"/><path d="m27.013 19.765 2.3046-1.8907c0.4244-0.3481 0.4862-0.9743 0.1381-1.3986l-2.5928-3.1605c-0.3481-0.4244-0.9742-0.4862-1.3986-0.1381l-2.3046 1.8907 3.8533 4.6972z" fill="url(#n)"/><path d="m27.013 19.765 2.3046-1.8907c0.4244-0.3481 0.4862-0.9743 0.1381-1.3986l-2.5928-3.1605c-0.3481-0.4244-0.9742-0.4862-1.3986-0.1381l-2.3046 1.8907 3.8533 4.6972z" fill="url(#m)"/><path d="m20.849 16.963 2.3106-1.8955 3.8533 4.6972-2.3106 1.8954-3.8533-4.6971z" fill="url(#l)"/><path d="m20.849 16.963 2.3106-1.8955 3.8533 4.6972-2.3106 1.8954-3.8533-4.6971z" fill="url(#k)"/><path d="m9.9723 29.952c-0.08324-2e-4 -0.14567-0.0762-0.12973-0.1579l0.29304-1.5018 1.3647 1.6636-1.528-0.0039z" fill="url(#j)"/><defs><filter id="w" x="4.9391" y="1.743" width="22.322" height="28.314" color-interpolation-filters="sRGB" filterUnits="userSpaceOnUse"><feFlood flood-opacity="0" result="BackgroundImageFix"/><feBlend in="SourceGraphic" in2="BackgroundImageFix" result="shape"/><feColorMatrix in="SourceAlpha" result="hardAlpha" values="0 0 0 0 0 0 0 0 0 0 0 0 0 0 0 0 0 0 127 0"/><feOffset dx="0.3" dy="-0.3"/><feGaussianBlur stdDeviation="0.3"/><feComposite in2="hardAlpha" k2="-1" k3="1" operator="arithmetic"/><feColorMatrix values="0 0 0 0 0.807843 0 0 0 0 0.768627 0 0 0 0 0.85098 0 0 0 1 0"/><feBlend in2="shape" result="effect1_innerShadow_18_22438"/><feColorMatrix in="SourceAlpha" result="hardAlpha" values="0 0 0 0 0 0 0 0 0 0 0 0 0 0 0 0 0 0 127 0"/><feOffset dx="0.1" dy="-0.1"/><feGaussianBlur stdDeviation="0.1"/><feComposite in2="hardAlpha" k2="-1" k3="1" operator="arithmetic"/><feColorMatrix values="0 0 0 0 0.709804 0 0 0 0 0.690196 0 0 0 0 0.733333 0 0 0 1 0"/><feBlend in2="effect1_innerShadow_18_22438" result="effect2_innerShadow_18_22438"/><feColorMatrix in="SourceAlpha" result="hardAlpha" values="0 0 0 0 0 0 0 0 0 0 0 0 0 0 0 0 0 0 127 0"/><feOffset dy="-0.1"/><feGaussianBlur stdDeviation="0.1"/><feComposite in2="hardAlpha" k2="-1" k3="1" operator="arithmetic"/><feColorMatrix values="0 0 0 0 0.72549 0 0 0 0 0.65098 0 0 0 0 0.8 0 0 0 1 0"/><feBlend in2="effect2_innerShadow_18_22438" result="effect3_innerShadow_18_22438"/><feColorMatrix in="SourceAlpha" result="hardAlpha" values="0 0 0 0 0 0 0 0 0 0 0 0 0 0 0 0 0 0 127 0"/><feOffset dx="-0.15" dy="0.15"/><feGaussianBlur stdDeviation="0.05"/><feComposite in2="hardAlpha" k2="-1" k3="1" operator="arithmetic"/><feColorMatrix values="0 0 0 0 0.952941 0 0 0 0 0.941176 0 0 0 0 0.964706 0 0 0 1 0"/><feBlend in2="effect3_innerShadow_18_22438" result="effect4_innerShadow_18_22438"/></filter><filter id="v" x="19.199" y="1.6055" width="7.9737" height="8.3633" color-interpolation-filters="sRGB" filterUnits="userSpaceOnUse"><feFlood flood-opacity="0" result="BackgroundImageFix"/><feBlend in="SourceGraphic" in2="BackgroundImageFix" result="shape"/><feGaussianBlur result="effect1_foregroundBlur_18_22438" stdDeviation="0.25"/></filter><filter id="u" x="19.771" y="1.9449" width="7.2895" height="7.4143" color-interpolation-filters="sRGB" filterUnits="userSpaceOnUse"><feFlood flood-opacity="0" result="BackgroundImageFix"/><feBlend in="SourceGraphic" in2="BackgroundImageFix" result="shape"/><feColorMatrix in="SourceAlpha" result="hardAlpha" values="0 0 0 0 0 0 0 0 0 0 0 0 0 0 0 0 0 0 127 0"/><feOffset dx="0.1"/><feGaussianBlur stdDeviation="0.075"/><feComposite in2="hardAlpha" k2="-1" k3="1" operator="arithmetic"/><feColorMatrix values="0 0 0 0 0.631373 0 0 0 0 0.611765 0 0 0 0 0.654902 0 0 0 1 0"/><feBlend in2="shape" result="effect1_innerShadow_18_22438"/><feColorMatrix in="SourceAlpha" result="hardAlpha" values="0 0 0 0 0 0 0 0 0 0 0 0 0 0 0 0 0 0 127 0"/><feOffset dy="-0.1"/><feGaussianBlur stdDeviation="0.075"/><feComposite in2="hardAlpha" k2="-1" k3="1" operator="arithmetic"/><feColorMatrix values="0 0 0 0 0.752941 0 0 0 0 0.67451 0 0 0 0 0.835294 0 0 0 1 0"/><feBlend in2="effect1_innerShadow_18_22438" result="effect2_innerShadow_18_22438"/></filter><linearGradient id="t" x1="16" x2="16" y1="2.043" y2="30.883" gradientUnits="userSpaceOnUse"><stop stop-color="#E4DCEA" offset="0"/><stop stop-color="#CEC1D5" offset="1"/></linearGradient><linearGradient id="i" x1="20.539" x2="23.18" y1="8.707" y2="6.0663" gradientUnits="userSpaceOnUse"><stop stop-color="#CAC2CE" offset="0"/><stop stop-color="#BDB4C1" offset="1"/></linearGradient><linearGradient id="h" x1="23.773" x2="22.516" y1="5.5507" y2="6.8204" gradientUnits="userSpaceOnUse"><stop stop-color="#DBDADC" offset=".11917"/><stop stop-color="#CBC7D0" stop-opacity="0" offset=".57731"/></linearGradient><linearGradient id="g" x1="9.0391" x2="22.953" y1="12.492" y2="12.492" gradientUnits="userSpaceOnUse"><stop stop-color="#9C96A2" offset="0"/><stop stop-color="#9A95A1" offset="1"/></linearGradient><linearGradient id="f" x1="9.0391" x2="22.953" y1="15.492" y2="15.492" gradientUnits="userSpaceOnUse"><stop stop-color="#9C96A2" offset="0"/><stop stop-color="#9A95A1" offset="1"/></linearGradient><linearGradient id="e" x1="9.0391" x2="22.953" y1="18.492" y2="18.492" gradientUnits="userSpaceOnUse"><stop stop-color="#9C96A2" offset="0"/><stop stop-color="#9A95A1" offset="1"/></linearGradient><linearGradient id="d" x1="9.0391" x2="18.023" y1="21.492" y2="21.492" gradientUnits="userSpaceOnUse"><stop stop-color="#9C96A2" offset="0"/><stop stop-color="#9A95A1" offset="1"/></linearGradient><radialGradient id="c" cx="0" cy="0" r="1" gradientTransform="translate(12.834 27.572) rotate(-40.007) scale(13.03 8.0826)" gradientUnits="userSpaceOnUse"><stop stop-color="#FF9130" offset="0"/><stop stop-color="#F3633D" offset="1"/></radialGradient><linearGradient id="b" x1="16.154" x2="17.087" y1="20.493" y2="21.584" gradientUnits="userSpaceOnUse"><stop stop-color="#EE9B6A" offset="0"/><stop stop-color="#EE9B6A" stop-opacity="0" offset="1"/></linearGradient><linearGradient id="a" x1="22.841" x2="21.707" y1="23.566" y2="22.414" gradientUnits="userSpaceOnUse"><stop stop-color="#E66A62" offset="0"/><stop stop-color="#E66A62" stop-opacity="0" offset="1"/></linearGradient><radialGradient id="s" cx="0" cy="0" r="1" gradientTransform="translate(12.682 27.432) rotate(-39.224) scale(12.034 2.691)" gradientUnits="userSpaceOnUse"><stop stop-color="#FF994D" offset="0"/><stop stop-color="#FF994D" stop-opacity="0" offset="1"/></radialGradient><linearGradient id="r" x1="11.304" x2="12.766" y1="27.483" y2="30.374" gradientUnits="userSpaceOnUse"><stop stop-color="#D8A587" offset="0"/><stop stop-color="#CE7A98" offset="1"/></linearGradient><linearGradient id="q" x1="13.331" x2="12.952" y1="27.809" y2="28.124" gradientUnits="userSpaceOnUse"><stop stop-color="#FFC09F" offset=".20741"/><stop stop-color="#FCB196" stop-opacity="0" offset="1"/></linearGradient><linearGradient id="p" x1="9.748" x2="11.137" y1="27.226" y2="27.487" gradientUnits="userSpaceOnUse"><stop stop-color="#DEBCA3" offset="0"/><stop stop-color="#DEBCA3" stop-opacity="0" offset="1"/></linearGradient><linearGradient id="o" x1="28.628" x2="25.644" y1="15.108" y2="17.518" gradientUnits="userSpaceOnUse"><stop stop-color="#FF6153" offset="0"/><stop stop-color="#FF6154" offset="1"/></linearGradient><linearGradient id="n" x1="23.831" x2="25.778" y1="14.385" y2="16.575" gradientUnits="userSpaceOnUse"><stop stop-color="#F1553E" offset="0"/><stop stop-color="#F1553E" stop-opacity="0" offset="1"/></linearGradient><radialGradient id="m" cx="0" cy="0" r="1" gradientTransform="translate(28.01 15.672) rotate(140.64) scale(.90766 2.0619)" gradientUnits="userSpaceOnUse"><stop stop-color="#FF786D" offset=".17742"/><stop stop-color="#FF786D" stop-opacity="0" offset="1"/></radialGradient><linearGradient id="l" x1="22.041" x2="24.516" y1="16.081" y2="18.822" gradientUnits="userSpaceOnUse"><stop stop-color="#C5C4CB" offset="0"/><stop stop-color="#E8DEFA" offset="1"/></linearGradient><linearGradient id="k" x1="25.871" x2="24.492" y1="21.119" y2="19.485" gradientUnits="userSpaceOnUse"><stop stop-color="#C9B9E0" offset="0"/><stop stop-color="#C9B9E0" stop-opacity="0" offset="1"/></linearGradient><linearGradient id="j" x1="10.053" x2="10.657" y1="28.982" y2="30.021" gradientUnits="userSpaceOnUse"><stop stop-color="#461E49" offset="0"/><stop stop-color="#450F51" offset="1"/></linearGradient></defs></svg>
