<?xml version="1.0" encoding="UTF-8"?>
<!-- Generated by Pixelmator Pro 3.6.17 -->
<svg width="500" height="500" viewBox="0 0 500 500" xmlns="http://www.w3.org/2000/svg">
    <g id="Neutral">
        <clipPath id="clipPath1">
            <path d="M 99.999992 0 L 400 0 C 455.228516 0 500 44.771484 500 100 L 500 400 C 500 455.228485 455.228516 500 400 500 L 99.999992 500 C 44.77153 500 0 455.228485 0 400 L 0 100 C 0 44.771484 44.77153 0 99.999992 0 Z"/>
        </clipPath>
        <path id="Path-copy" fill="#bb2e27" stroke="none" clip-path="url(#clipPath1)" d="M 0 0 L 500 0 L 500 500 L 0 500 Z"/>
        <path id="Shape-copy-copy-2" fill="#ffffff" fill-rule="evenodd" stroke="none" d="M 179.601242 334.325287 L 99.121094 354.445313 L 116.320732 285.64679 C 99.286705 263.207642 89.355469 236.238647 89.355469 207.228516 C 89.355469 129.158936 161.278473 65.871094 250 65.871094 C 338.721527 65.871094 410.644531 129.158936 410.644531 207.228516 C 410.644531 285.298035 338.721527 348.585938 250 348.585938 C 224.749496 348.585938 200.859634 343.459656 179.601242 334.325287 Z"/>
        <path id="path1" fill="#bb2e27" fill-rule="evenodd" stroke="none" d="M 189.702621 268.428711 C 186.328094 265.05835 184.059799 261.444641 182.897629 257.587433 C 181.735474 253.730194 181.701813 249.87323 182.7966 246.016357 C 183.891388 242.159485 186.101486 238.588715 189.426895 235.304016 C 191.323257 233.367676 193.726257 231.463806 196.636002 229.592407 C 199.545761 227.720978 202.612793 225.892181 205.837189 224.105988 C 209.0616 222.319794 212.196869 220.620453 215.243057 219.007904 C 218.289276 217.395355 220.896255 215.879089 223.064087 214.459137 L 207.953461 199.293762 C 205.491669 196.836212 204.259537 194.242004 204.257095 191.511139 C 204.254639 188.780304 205.439743 186.228912 207.812439 183.856903 L 213.221497 178.446808 C 215.598419 176.029907 218.148926 174.846039 220.873108 174.895142 C 223.597305 174.944244 226.188156 176.197601 228.645737 178.655182 L 279.475098 229.47821 C 281.93338 231.935791 283.186005 234.505463 283.233032 237.187164 C 283.280029 239.868896 282.097198 242.418213 279.684509 244.835098 L 274.268097 250.318878 C 271.940308 252.690857 269.390808 253.874756 266.619629 253.870544 C 263.84845 253.866333 261.254425 252.633331 258.837524 250.171555 L 243.725845 234.99881 C 242.2659 237.208038 240.729477 239.836823 239.116577 242.885101 C 237.503677 245.933395 235.804352 249.079712 234.018478 252.324127 C 232.232651 255.568527 230.404053 258.635559 228.532608 261.52533 C 226.661179 264.415039 224.757339 266.808105 222.820999 268.704407 C 219.49559 272.029846 215.915527 274.238892 212.08075 275.331543 C 208.246002 276.424255 204.400238 276.390564 200.543365 275.23053 C 196.686508 274.070496 193.072952 271.803253 189.702621 268.428711 Z M 206.883224 259.699493 C 209.008286 259.699493 210.834427 258.946014 212.361725 257.439026 C 213.889069 255.932083 214.652695 254.118195 214.652695 251.99736 C 214.652695 249.832336 213.889069 247.99617 212.361725 246.488861 C 210.834427 244.981552 209.008286 244.22789 206.883224 244.22789 C 204.758179 244.22789 202.932037 244.981552 201.404709 246.488861 C 199.877396 247.99617 199.113754 249.832336 199.113754 251.99736 C 199.113754 254.118195 199.877396 255.932083 201.404709 257.439026 C 202.932037 258.946014 204.758179 259.699493 206.883224 259.699493 Z M 287.378204 226.680023 L 229.139282 168.494781 C 230.350189 165.973358 231.575989 163.154114 232.816711 160.037048 C 234.057419 156.920013 235.308487 153.327484 236.569901 149.25946 C 237.831314 145.191437 239.148849 140.461334 240.522507 135.069092 C 241.508209 131.196472 243.188797 128.34198 245.564301 126.505646 C 247.939819 124.669281 250.512436 123.842316 253.282211 124.024719 C 256.052002 124.207123 258.488159 125.349976 260.590759 127.453278 L 293.316589 160.239105 C 292.912506 164.299072 292.098877 167.910706 290.875671 171.074066 C 289.652496 174.237427 288.072418 177.143646 286.135406 179.792755 C 284.198364 182.441864 281.956512 185.039398 279.409851 187.585388 C 278.960846 188.030151 278.738464 188.508636 278.742676 189.020782 C 278.746857 189.532928 278.904022 189.923676 279.214111 190.193085 C 280.10791 191.127563 281.796387 191.278229 284.279572 190.645081 C 286.762756 190.011902 289.5513 188.886078 292.645203 187.267578 C 295.739166 185.649048 298.709534 183.763245 301.556458 181.610168 C 304.403473 179.457062 306.65509 177.30957 308.311493 175.167694 L 311.727386 178.656219 C 315.433105 182.415894 317.320801 186.341461 317.390594 190.433014 C 317.460388 194.524567 315.687073 198.378601 312.070465 201.995148 Z"/>
        <path id="Dots-copy" fill="#ffffff" fill-rule="evenodd" stroke="none" d="M 277.319946 414.057709 C 277.319946 429.169861 265.091675 441.40625 249.975281 441.40625 C 234.884506 441.40625 222.65625 429.169861 222.65625 414.057709 C 222.65625 398.974365 234.884506 386.71875 249.975281 386.71875 C 265.091675 386.71875 277.319946 398.974365 277.319946 414.057709 Z M 178.710938 414.057709 C 178.710938 429.169861 166.482681 441.40625 151.366287 441.40625 C 136.275497 441.40625 124.047256 429.169861 124.047256 414.057709 C 124.047256 398.974365 136.275497 386.71875 151.366287 386.71875 C 166.482681 386.71875 178.710938 398.974365 178.710938 414.057709 Z M 375.928925 414.057709 C 375.928925 429.169861 363.700684 441.40625 348.584259 441.40625 C 333.4935 441.40625 321.265259 429.169861 321.265259 414.057709 C 321.265259 398.974365 333.4935 386.71875 348.584259 386.71875 C 363.700684 386.71875 375.928925 398.974365 375.928925 414.057709 Z"/>
    </g>
</svg>
