<svg fill="none" viewBox="0 0 32 32" xmlns="http://www.w3.org/2000/svg"><path d="m28.928 19h-2.14c-0.45 0-0.81-0.36-0.81-0.81v-7.77c0-3.09-1.42-6.27-3.82-8.18-0.19-0.16-0.44-0.24-0.69-0.24s-0.5 0.08-0.7 0.24c-1.75 1.4-2.97 3.6-3.5 5.76h-2.58c-0.53-2.16-1.75-4.36-3.5-5.76-0.19-0.16-0.44-0.24-0.69-0.24s-0.49996 0.08-0.69996 0.24c-2.39 1.91-3.81 5.08-3.81 8.18v7.77c0 0.45-0.36 0.81-0.81 0.81h-2.14c-0.41 0-0.71 0.4-0.6 0.8 1.66 5.88 7.06 10.2 13.48 10.2h0.07 0.07c6.41 0 11.82-4.31 13.48-10.2 0.11-0.4-0.19-0.8-0.61-0.8z" fill="url(#au)"/><path d="m28.928 19h-2.14c-0.45 0-0.81-0.36-0.81-0.81v-7.77c0-3.09-1.42-6.27-3.82-8.18-0.19-0.16-0.44-0.24-0.69-0.24s-0.5 0.08-0.7 0.24c-1.75 1.4-2.97 3.6-3.5 5.76h-2.58c-0.53-2.16-1.75-4.36-3.5-5.76-0.19-0.16-0.44-0.24-0.69-0.24s-0.49996 0.08-0.69996 0.24c-2.39 1.91-3.81 5.08-3.81 8.18v7.77c0 0.45-0.36 0.81-0.81 0.81h-2.14c-0.41 0-0.71 0.4-0.6 0.8 1.66 5.88 7.06 10.2 13.48 10.2h0.07 0.07c6.41 0 11.82-4.31 13.48-10.2 0.11-0.4-0.19-0.8-0.61-0.8z" fill="url(#aj)"/><path d="m28.928 19h-2.14c-0.45 0-0.81-0.36-0.81-0.81v-7.77c0-3.09-1.42-6.27-3.82-8.18-0.19-0.16-0.44-0.24-0.69-0.24s-0.5 0.08-0.7 0.24c-1.75 1.4-2.97 3.6-3.5 5.76h-2.58c-0.53-2.16-1.75-4.36-3.5-5.76-0.19-0.16-0.44-0.24-0.69-0.24s-0.49996 0.08-0.69996 0.24c-2.39 1.91-3.81 5.08-3.81 8.18v7.77c0 0.45-0.36 0.81-0.81 0.81h-2.14c-0.41 0-0.71 0.4-0.6 0.8 1.66 5.88 7.06 10.2 13.48 10.2h0.07 0.07c6.41 0 11.82-4.31 13.48-10.2 0.11-0.4-0.19-0.8-0.61-0.8z" fill="url(#y)"/><ellipse cx="15.988" cy="17.631" rx="9.7675" ry="9.6626" fill="url(#n)" fill-opacity=".5"/><g filter="url(#bj)"><path d="m20.424 3.8906c-0.4375 0.55209-1.7032 2.1406-2.0782 4.0781" stroke="url(#f)" stroke-linecap="round" stroke-width=".25"/></g><g filter="url(#bd)"><path d="m24.074 5.1936c0.75 1.0312 1.5 3.0625 1.5 6.875" stroke="#FFB160" stroke-linecap="round" stroke-width=".25"/></g><g filter="url(#bc)"><path d="m12.488 4.3498c0.4937 0.67872 1.3575 2.3533 1.5138 3.6033" stroke="#FFB160" stroke-linecap="round" stroke-width=".25"/></g><path d="m22.168 2.24c-0.2-0.16-0.45-0.24-0.7-0.24s-0.5 0.08-0.7 0.24c-1.2 0.97-2.16 2.31-2.81 3.76h7.07c-0.66-1.47-1.63-2.78-2.86-3.76z" fill="url(#e)"/><path d="m22.168 2.24c-0.2-0.16-0.45-0.24-0.7-0.24s-0.5 0.08-0.7 0.24c-1.2 0.97-2.16 2.31-2.81 3.76h7.07c-0.66-1.47-1.63-2.78-2.86-3.76z" fill="url(#d)"/><path d="m22.168 2.24c-0.2-0.16-0.45-0.24-0.7-0.24s-0.5 0.08-0.7 0.24c-1.2 0.97-2.16 2.31-2.81 3.76h7.07c-0.66-1.47-1.63-2.78-2.86-3.76z" fill="url(#c)"/><path d="m23.983 12.002c0.1509 0.2017 0.4956 0.0989 0.4956-0.153v-1.429c0-2.48-1.06-4.81-2.89-6.43-0.07-0.06-0.18-0.06-0.25 0-1.1647 1.0402-2.0133 2.3651-2.4753 3.834-0.0967 0.30749 0.0913 0.62388 0.3958 0.72958 1.9047 0.66105 3.5451 1.8728 4.7239 3.4484z" fill="url(#b)"/><path d="m23.983 12.002c0.1509 0.2017 0.4956 0.0989 0.4956-0.153v-1.429c0-2.48-1.06-4.81-2.89-6.43-0.07-0.06-0.18-0.06-0.25 0-1.1647 1.0402-2.0133 2.3651-2.4753 3.834-0.0967 0.30749 0.0913 0.62388 0.3958 0.72958 1.9047 0.66105 3.5451 1.8728 4.7239 3.4484z" fill="url(#a)"/><path d="m23.983 12.002c0.1509 0.2017 0.4956 0.0989 0.4956-0.153v-1.429c0-2.48-1.06-4.81-2.89-6.43-0.07-0.06-0.18-0.06-0.25 0-1.1647 1.0402-2.0133 2.3651-2.4753 3.834-0.0967 0.30749 0.0913 0.62388 0.3958 0.72958 1.9047 0.66105 3.5451 1.8728 4.7239 3.4484z" fill="url(#at)"/><path d="m23.983 12.002c0.1509 0.2017 0.4956 0.0989 0.4956-0.153v-1.429c0-2.48-1.06-4.81-2.89-6.43-0.07-0.06-0.18-0.06-0.25 0-1.1647 1.0402-2.0133 2.3651-2.4753 3.834-0.0967 0.30749 0.0913 0.62388 0.3958 0.72958 1.9047 0.66105 3.5451 1.8728 4.7239 3.4484z" fill="url(#as)"/><path d="m23.983 12.002c0.1509 0.2017 0.4956 0.0989 0.4956-0.153v-1.429c0-2.48-1.06-4.81-2.89-6.43-0.07-0.06-0.18-0.06-0.25 0-1.1647 1.0402-2.0133 2.3651-2.4753 3.834-0.0967 0.30749 0.0913 0.62388 0.3958 0.72958 1.9047 0.66105 3.5451 1.8728 4.7239 3.4484z" fill="url(#ar)"/><path d="m23.983 12.002c0.1509 0.2017 0.4956 0.0989 0.4956-0.153v-1.429c0-2.48-1.06-4.81-2.89-6.43-0.07-0.06-0.18-0.06-0.25 0-1.1647 1.0402-2.0133 2.3651-2.4753 3.834-0.0967 0.30749 0.0913 0.62388 0.3958 0.72958 1.9047 0.66105 3.5451 1.8728 4.7239 3.4484z" fill="url(#aq)"/><g filter="url(#bb)"><path d="m19.562 20.281c-0.41 0-0.75-0.34-0.75-0.75v-1.5c0-0.4099 0.34-0.75 0.75-0.75s0.75 0.3401 0.75 0.75v1.5c0 0.41-0.34 0.75-0.75 0.75z" fill="#CD5C25"/></g><g filter="url(#ba)"><path d="m11.982 20.281c-0.41 0-0.75-0.34-0.75-0.75v-1.5c0-0.4099 0.34-0.75 0.75-0.75s0.75 0.3401 0.75 0.75v1.5c0 0.41-0.33 0.75-0.75 0.75z" fill="#CD5C25"/></g><path d="m19.808 20c-0.41 0-0.75-0.34-0.75-0.75v-1.5c0-0.41 0.34-0.75 0.75-0.75s0.75 0.34 0.75 0.75v1.5c0 0.41-0.34 0.75-0.75 0.75z" fill="url(#ap)"/><path d="m19.808 20c-0.41 0-0.75-0.34-0.75-0.75v-1.5c0-0.41 0.34-0.75 0.75-0.75s0.75 0.34 0.75 0.75v1.5c0 0.41-0.34 0.75-0.75 0.75z" fill="url(#ao)"/><path d="m12.228 20c-0.41 0-0.75-0.34-0.75-0.75v-1.5c0-0.41 0.34-0.75 0.75-0.75s0.75 0.34 0.75 0.75v1.5c0 0.41-0.33 0.75-0.75 0.75z" fill="url(#an)"/><path d="m12.228 20c-0.41 0-0.75-0.34-0.75-0.75v-1.5c0-0.41 0.34-0.75 0.75-0.75s0.75 0.34 0.75 0.75v1.5c0 0.41-0.33 0.75-0.75 0.75z" fill="url(#am)"/><g filter="url(#az)"><path d="m8.7341 5.0781c-0.4375 0.55209-1.7656 2.5594-1.7656 4.9844v2.0313" stroke="url(#al)" stroke-linecap="round" stroke-width=".25"/></g><path d="m13.988 5.95c-0.65-1.43-1.6-2.75-2.79-3.71-0.2-0.16-0.45-0.24-0.7-0.24s-0.49999 0.08-0.69999 0.24c-1.21 0.97-2.18 2.26-2.83 3.71h7.02z" fill="url(#ak)"/><path d="m13.988 5.95c-0.65-1.43-1.6-2.75-2.79-3.71-0.2-0.16-0.45-0.24-0.7-0.24s-0.49999 0.08-0.69999 0.24c-1.21 0.97-2.18 2.26-2.83 3.71h7.02z" fill="url(#ai)"/><path d="m13.988 5.95c-0.65-1.43-1.6-2.75-2.79-3.71-0.2-0.16-0.45-0.24-0.7-0.24s-0.49999 0.08-0.69999 0.24c-1.21 0.97-2.18 2.26-2.83 3.71h7.02z" fill="url(#ah)"/><path d="m29.138 20.99h-6.46c-1.75 0-3.46 0.55-4.88 1.57l-1.81 1.29-1.81-1.29c-1.42-1.02-3.13-1.57-4.88-1.57h-6.47c2.01 5.27 7.11 9.01 13.08 9.01h0.07 0.07c5.98-0.01 11.08-3.75 13.09-9.01z" fill="url(#ag)"/><path d="m29.138 20.99h-6.46c-1.75 0-3.46 0.55-4.88 1.57l-1.81 1.29-1.81-1.29c-1.42-1.02-3.13-1.57-4.88-1.57h-6.47c2.01 5.27 7.11 9.01 13.08 9.01h0.07 0.07c5.98-0.01 11.08-3.75 13.09-9.01z" fill="url(#af)"/><path d="m29.138 20.99h-6.46c-1.75 0-3.46 0.55-4.88 1.57l-1.81 1.29-1.81-1.29c-1.42-1.02-3.13-1.57-4.88-1.57h-6.47c2.01 5.27 7.11 9.01 13.08 9.01h0.07 0.07c5.98-0.01 11.08-3.75 13.09-9.01z" fill="url(#ae)"/><path d="m29.138 20.99h-6.46c-1.75 0-3.46 0.55-4.88 1.57l-1.81 1.29-1.81-1.29c-1.42-1.02-3.13-1.57-4.88-1.57h-6.47c2.01 5.27 7.11 9.01 13.08 9.01h0.07 0.07c5.98-0.01 11.08-3.75 13.09-9.01z" fill="url(#ad)"/><path d="m29.138 20.99h-6.46c-1.75 0-3.46 0.55-4.88 1.57l-1.81 1.29-1.81-1.29c-1.42-1.02-3.13-1.57-4.88-1.57h-6.47c2.01 5.27 7.11 9.01 13.08 9.01h0.07 0.07c5.98-0.01 11.08-3.75 13.09-9.01z" fill="url(#ac)"/><path d="m29.138 20.99h-6.46c-1.75 0-3.46 0.55-4.88 1.57l-1.81 1.29-1.81-1.29c-1.42-1.02-3.13-1.57-4.88-1.57h-6.47c2.01 5.27 7.11 9.01 13.08 9.01h0.07 0.07c5.98-0.01 11.08-3.75 13.09-9.01z" fill="url(#ab)"/><g filter="url(#ay)"><path d="m15.171 23.953-1.1095-1.1095c-0.54-0.54-0.1571-1.4532 0.6088-1.4532h2.219c0.756 0 0.1375 0.4756-0.4025 1.0156l-0.1081 1.5471c-0.0304 0.0305-0.0626 0.0582-0.0962 0.0831 0.0227 1.1326 0.9429 2.0386 2.0811 2.0386 0.2712 0 0.491 0.2198 0.491 0.4909 0 0.2712-0.2198 0.491-0.491 0.491-1.0872 0-2.0403-0.5633-2.5838-1.4145-0.5435 0.8512-1.4965 1.4145-2.5838 1.4145-0.2712 0-0.491-0.2198-0.491-0.491 0-0.2711 0.2198-0.4909 0.491-0.4909 1.1358 0 2.0545-0.9022 2.081-2.0316-0.0371-0.0267-0.0726-0.0567-0.106-0.0901z" fill="#B66A7D"/></g><path d="m15.977 23.641c0 1.45-1.17 2.62-2.62 2.62" stroke="url(#aa)" stroke-linecap="round"/><path d="m15.977 23.641c0 1.45-1.17 2.62-2.62 2.62" stroke="url(#z)" stroke-linecap="round"/><path d="m15.977 23.641c0 1.45-1.17 2.62-2.62 2.62" stroke="url(#x)" stroke-linecap="round"/><path d="m16 23.641c0 1.45 1.17 2.62 2.62 2.62" stroke="url(#w)" stroke-linecap="round"/><path d="m16 23.641c0 1.45 1.17 2.62 2.62 2.62" stroke="url(#v)" stroke-linecap="round"/><path d="m14.238 22.47 1.13 1.13c0.34 0.34 0.89 0.34 1.23 0l1.13-1.13c0.55-0.55 0.16-1.48-0.61-1.48h-2.26c-0.78 0-1.17 0.93-0.62 1.48z" fill="url(#u)"/><path d="m14.238 22.47 1.13 1.13c0.34 0.34 0.89 0.34 1.23 0l1.13-1.13c0.55-0.55 0.16-1.48-0.61-1.48h-2.26c-0.78 0-1.17 0.93-0.62 1.48z" fill="url(#t)"/><path d="m14.238 22.47 1.13 1.13c0.34 0.34 0.89 0.34 1.23 0l1.13-1.13c0.55-0.55 0.16-1.48-0.61-1.48h-2.26c-0.78 0-1.17 0.93-0.62 1.48z" fill="url(#s)"/><path d="m14.238 22.47 1.13 1.13c0.34 0.34 0.89 0.34 1.23 0l1.13-1.13c0.55-0.55 0.16-1.48-0.61-1.48h-2.26c-0.78 0-1.17 0.93-0.62 1.48z" fill="url(#r)"/><path d="m12.689 8.5541c0.3041-0.10606 0.4918-0.42223 0.395-0.72942-0.4637-1.471-1.3203-2.8041-2.4853-3.8446-0.07-0.06-0.18-0.06-0.25 0-1.81 1.63-2.87 3.95-2.87 6.42v1.4611c0 0.2518 0.34392 0.3544 0.49458 0.1527 1.1832-1.5839 2.8176-2.7979 4.7157-3.4598z" fill="url(#q)"/><path d="m12.689 8.5541c0.3041-0.10606 0.4918-0.42223 0.395-0.72942-0.4637-1.471-1.3203-2.8041-2.4853-3.8446-0.07-0.06-0.18-0.06-0.25 0-1.81 1.63-2.87 3.95-2.87 6.42v1.4611c0 0.2518 0.34392 0.3544 0.49458 0.1527 1.1832-1.5839 2.8176-2.7979 4.7157-3.4598z" fill="url(#p)"/><path d="m12.689 8.5541c0.3041-0.10606 0.4918-0.42223 0.395-0.72942-0.4637-1.471-1.3203-2.8041-2.4853-3.8446-0.07-0.06-0.18-0.06-0.25 0-1.81 1.63-2.87 3.95-2.87 6.42v1.4611c0 0.2518 0.34392 0.3544 0.49458 0.1527 1.1832-1.5839 2.8176-2.7979 4.7157-3.4598z" fill="url(#o)"/><path d="m12.689 8.5541c0.3041-0.10606 0.4918-0.42223 0.395-0.72942-0.4637-1.471-1.3203-2.8041-2.4853-3.8446-0.07-0.06-0.18-0.06-0.25 0-1.81 1.63-2.87 3.95-2.87 6.42v1.4611c0 0.2518 0.34392 0.3544 0.49458 0.1527 1.1832-1.5839 2.8176-2.7979 4.7157-3.4598z" fill="url(#m)"/><path d="m12.689 8.5541c0.3041-0.10606 0.4918-0.42223 0.395-0.72942-0.4637-1.471-1.3203-2.8041-2.4853-3.8446-0.07-0.06-0.18-0.06-0.25 0-1.81 1.63-2.87 3.95-2.87 6.42v1.4611c0 0.2518 0.34392 0.3544 0.49458 0.1527 1.1832-1.5839 2.8176-2.7979 4.7157-3.4598z" fill="url(#l)"/><path d="m12.689 8.5541c0.3041-0.10606 0.4918-0.42223 0.395-0.72942-0.4637-1.471-1.3203-2.8041-2.4853-3.8446-0.07-0.06-0.18-0.06-0.25 0-1.81 1.63-2.87 3.95-2.87 6.42v1.4611c0 0.2518 0.34392 0.3544 0.49458 0.1527 1.1832-1.5839 2.8176-2.7979 4.7157-3.4598z" fill="url(#k)"/><g filter="url(#ax)"><circle cx="17.088" cy="21.836" r=".32031" fill="#6A6566"/></g><g filter="url(#aw)"><path d="m28.998 19.678c0.0377-0.0579 0.0212-0.1353-0.0367-0.1729-0.0578-0.0377-0.1353-0.0212-0.1729 0.0367l0.2096 0.1362zm-2.9498 1.608c-0.0666 0.018-0.1061 0.0866-0.0882 0.1532 0.018 0.0667 0.0866 0.1062 0.1532 0.0883l-0.065-0.2415zm2.7402-1.7442c-0.0163 0.025-0.0565 0.0701-0.1259 0.1343-0.0671 0.062-0.1544 0.1358-0.2578 0.2176-0.2065 0.1635-0.4726 0.3558-0.7584 0.5457-0.5769 0.3833-1.2138 0.7432-1.5981 0.8466l0.065 0.2415c0.4283-0.1154 1.096-0.4976 1.6715-0.8799 0.2904-0.193 0.5623-0.3893 0.7752-0.5579 0.1064-0.0842 0.1991-0.1623 0.2724-0.2301 0.0709-0.0657 0.1312-0.1285 0.1657-0.1816l-0.2096-0.1362z" fill="url(#j)"/></g><g filter="url(#av)"><path d="m3.1392 19.678c-0.03762-0.0579-0.0212-0.1353 0.03668-0.1729 0.05789-0.0377 0.13531-0.0212 0.17293 0.0367l-0.20961 0.1362zm2.9498 1.608c0.06667 0.018 0.10616 0.0866 0.08821 0.1532-0.01795 0.0667-0.08654 0.1062-0.1532 0.0883l0.06499-0.2415zm-2.7402-1.7442c0.0163 0.025 0.05656 0.0701 0.12595 0.1343 0.06702 0.062 0.15439 0.1358 0.25772 0.2176 0.20652 0.1635 0.47268 0.3558 0.75844 0.5457 0.57691 0.3833 1.2138 0.7432 1.5981 0.8466l-0.06499 0.2415c-0.42827-0.1154-1.096-0.4976-1.6714-0.8799-0.29042-0.193-0.56235-0.3893-0.77526-0.5579-0.10638-0.0842-0.19907-0.1623-0.27237-0.2301-0.07093-0.0657-0.13125-0.1285-0.16574-0.1816l0.20961-0.1362z" fill="url(#i)"/></g><g filter="url(#bi)"><path d="m23.408 15.188c0 0.219 0.0106 2.4597 0.0311 2.6595 0.213 2.0812 1.5 3.1218 3.1252 3.1218" stroke="#FFC177"/></g><g filter="url(#bh)"><path d="m21.676 2.6641c0.4453 0.39844 1.664 1.5703 2.3984 2.8984" stroke="#665D5F" stroke-linecap="round" stroke-width=".25"/></g><g filter="url(#bg)"><path d="m10.58 2.6641c0.4453 0.39844 1.664 1.5703 2.3984 2.8984" stroke="#665D5F" stroke-linecap="round" stroke-width=".25"/></g><g filter="url(#bf)"><path d="m21.511 2.6641c-0.4453 0.39844-1.664 1.5703-2.3984 2.8984" stroke="url(#h)" stroke-linecap="round" stroke-opacity=".5" stroke-width=".25"/></g><g filter="url(#be)"><path d="m10.416 2.6641c-0.4453 0.39844-1.664 1.5703-2.3984 2.8984" stroke="url(#g)" stroke-linecap="round" stroke-opacity=".5" stroke-width=".25"/></g><defs><filter id="bj" x="17.721" y="3.2656" width="3.3281" height="5.3281" color-interpolation-filters="sRGB" filterUnits="userSpaceOnUse"><feFlood flood-opacity="0" result="BackgroundImageFix"/><feBlend in="SourceGraphic" in2="BackgroundImageFix" result="shape"/><feGaussianBlur result="effect1_foregroundBlur_28327_1940" stdDeviation="0.25"/></filter><filter id="bd" x="23.449" y="4.5686" width="2.75" height="8.125" color-interpolation-filters="sRGB" filterUnits="userSpaceOnUse"><feFlood flood-opacity="0" result="BackgroundImageFix"/><feBlend in="SourceGraphic" in2="BackgroundImageFix" result="shape"/><feGaussianBlur result="effect1_foregroundBlur_28327_1940" stdDeviation="0.25"/></filter><filter id="bc" x="11.864" y="3.7248" width="2.7637" height="4.8533" color-interpolation-filters="sRGB" filterUnits="userSpaceOnUse"><feFlood flood-opacity="0" result="BackgroundImageFix"/><feBlend in="SourceGraphic" in2="BackgroundImageFix" result="shape"/><feGaussianBlur result="effect1_foregroundBlur_28327_1940" stdDeviation="0.25"/></filter><filter id="bb" x="18.062" y="16.531" width="3" height="4.5" color-interpolation-filters="sRGB" filterUnits="userSpaceOnUse"><feFlood flood-opacity="0" result="BackgroundImageFix"/><feBlend in="SourceGraphic" in2="BackgroundImageFix" result="shape"/><feGaussianBlur result="effect1_foregroundBlur_28327_1940" stdDeviation="0.375"/></filter><filter id="ba" x="10.482" y="16.531" width="3" height="4.5" color-interpolation-filters="sRGB" filterUnits="userSpaceOnUse"><feFlood flood-opacity="0" result="BackgroundImageFix"/><feBlend in="SourceGraphic" in2="BackgroundImageFix" result="shape"/><feGaussianBlur result="effect1_foregroundBlur_28327_1940" stdDeviation="0.375"/></filter><filter id="az" x="6.3435" y="4.4531" width="3.0156" height="8.231" color-interpolation-filters="sRGB" filterUnits="userSpaceOnUse"><feFlood flood-opacity="0" result="BackgroundImageFix"/><feBlend in="SourceGraphic" in2="BackgroundImageFix" result="shape"/><feGaussianBlur result="effect1_foregroundBlur_28327_1940" stdDeviation="0.25"/></filter><filter id="ay" x="11.955" y="20.641" width="7.6495" height="7.1663" color-interpolation-filters="sRGB" filterUnits="userSpaceOnUse"><feFlood flood-opacity="0" result="BackgroundImageFix"/><feBlend in="SourceGraphic" in2="BackgroundImageFix" result="shape"/><feGaussianBlur result="effect1_foregroundBlur_28327_1940" stdDeviation="0.375"/></filter><filter id="ax" x="16.268" y="21.016" width="1.6406" height="1.6406" color-interpolation-filters="sRGB" filterUnits="userSpaceOnUse"><feFlood flood-opacity="0" result="BackgroundImageFix"/><feBlend in="SourceGraphic" in2="BackgroundImageFix" result="shape"/><feGaussianBlur result="effect1_foregroundBlur_28327_1940" stdDeviation="0.25"/></filter><filter id="aw" x="25.455" y="18.984" width="4.0626" height="3.0469" color-interpolation-filters="sRGB" filterUnits="userSpaceOnUse"><feFlood flood-opacity="0" result="BackgroundImageFix"/><feBlend in="SourceGraphic" in2="BackgroundImageFix" result="shape"/><feGaussianBlur result="effect1_foregroundBlur_28327_1940" stdDeviation="0.25"/></filter><filter id="av" x="2.119" y="18.484" width="5.0626" height="4.0469" color-interpolation-filters="sRGB" filterUnits="userSpaceOnUse"><feFlood flood-opacity="0" result="BackgroundImageFix"/><feBlend in="SourceGraphic" in2="BackgroundImageFix" result="shape"/><feGaussianBlur result="effect1_foregroundBlur_28327_1940" stdDeviation="0.5"/></filter><filter id="bi" x="20.408" y="12.688" width="8.6562" height="11.281" color-interpolation-filters="sRGB" filterUnits="userSpaceOnUse"><feFlood flood-opacity="0" result="BackgroundImageFix"/><feBlend in="SourceGraphic" in2="BackgroundImageFix" result="shape"/><feGaussianBlur result="effect1_foregroundBlur_28327_1940" stdDeviation="1.25"/></filter><filter id="bh" x="21.05" y="2.0391" width="3.6484" height="4.1484" color-interpolation-filters="sRGB" filterUnits="userSpaceOnUse"><feFlood flood-opacity="0" result="BackgroundImageFix"/><feBlend in="SourceGraphic" in2="BackgroundImageFix" result="shape"/><feGaussianBlur result="effect1_foregroundBlur_28327_1940" stdDeviation="0.25"/></filter><filter id="bg" x="9.9551" y="2.0391" width="3.6484" height="4.1484" color-interpolation-filters="sRGB" filterUnits="userSpaceOnUse"><feFlood flood-opacity="0" result="BackgroundImageFix"/><feBlend in="SourceGraphic" in2="BackgroundImageFix" result="shape"/><feGaussianBlur result="effect1_foregroundBlur_28327_1940" stdDeviation="0.25"/></filter><filter id="bf" x="18.488" y="2.0391" width="3.6484" height="4.1484" color-interpolation-filters="sRGB" filterUnits="userSpaceOnUse"><feFlood flood-opacity="0" result="BackgroundImageFix"/><feBlend in="SourceGraphic" in2="BackgroundImageFix" result="shape"/><feGaussianBlur result="effect1_foregroundBlur_28327_1940" stdDeviation="0.25"/></filter><filter id="be" x="7.3926" y="2.0391" width="3.6484" height="4.1484" color-interpolation-filters="sRGB" filterUnits="userSpaceOnUse"><feFlood flood-opacity="0" result="BackgroundImageFix"/><feBlend in="SourceGraphic" in2="BackgroundImageFix" result="shape"/><feGaussianBlur result="effect1_foregroundBlur_28327_1940" stdDeviation="0.25"/></filter><radialGradient id="au" cx="0" cy="0" r="1" gradientTransform="translate(20.158 12.5) rotate(136.34) scale(20.821)" gradientUnits="userSpaceOnUse"><stop stop-color="#FFC177" offset="0"/><stop stop-color="#FF8D28" offset=".28463"/><stop stop-color="#F4763D" offset=".61086"/></radialGradient><radialGradient id="aj" cx="0" cy="0" r="1" gradientTransform="translate(29.221 18.125) rotate(134.43) scale(4.4638 3.0354)" gradientUnits="userSpaceOnUse"><stop stop-color="#E78327" offset="0"/><stop stop-color="#F4953D" stop-opacity="0" offset="1"/></radialGradient><radialGradient id="y" cx="0" cy="0" r="1" gradientTransform="translate(1.9397 19.688) rotate(32.638) scale(3.3028 1.7696)" gradientUnits="userSpaceOnUse"><stop stop-color="#C9510E" offset="0"/><stop stop-color="#C9510E" stop-opacity="0" offset="1"/></radialGradient><radialGradient id="n" cx="0" cy="0" r="1" gradientTransform="translate(15.988 19.875) rotate(-90) scale(13.438 12.982)" gradientUnits="userSpaceOnUse"><stop stop-color="#F46639" stop-opacity="0" offset=".79535"/><stop stop-color="#F46639" offset="1"/></radialGradient><linearGradient id="f" x1="20.474" x2="20.474" y1="7.4062" y2="-3.875" gradientUnits="userSpaceOnUse"><stop stop-color="#FFB444" offset="0"/><stop stop-color="#FFB444" stop-opacity="0" offset="1"/></linearGradient><linearGradient id="e" x1="21.494" x2="22.087" y1=".63924" y2="5.664" gradientUnits="userSpaceOnUse"><stop stop-color="#5F5254" offset=".19149"/><stop stop-color="#2E2127" offset="1"/></linearGradient><linearGradient id="d" x1="22.058" x2="21.957" y1="3.084" y2=".54435" gradientUnits="userSpaceOnUse"><stop stop-color="#34222C" stop-opacity="0" offset=".14655"/><stop stop-color="#34222C" offset=".87273"/></linearGradient><linearGradient id="c" x1="23.283" x2="23.283" y1="7.2848" y2="4.5" gradientUnits="userSpaceOnUse"><stop stop-color="#552D52" offset="0"/><stop stop-color="#552D52" stop-opacity="0" offset="1"/></linearGradient><linearGradient id="b" x1="23.346" x2="20.034" y1="13.75" y2="5.1875" gradientUnits="userSpaceOnUse"><stop stop-color="#FC5737" offset="0"/><stop stop-color="#EF7E3F" offset="1"/></linearGradient><linearGradient id="a" x1="25.034" x2="22.908" y1="12.73" y2="7.6875" gradientUnits="userSpaceOnUse"><stop stop-color="#E83525" offset="0"/><stop stop-color="#E83525" stop-opacity="0" offset="1"/></linearGradient><linearGradient id="at" x1="24.784" x2="22.627" y1="7.6875" y2="7.6875" gradientUnits="userSpaceOnUse"><stop stop-color="#E83525" offset="0"/><stop stop-color="#E83525" stop-opacity="0" offset="1"/></linearGradient><linearGradient id="as" x1="25.284" x2="22.346" y1="4.5625" y2="7.375" gradientUnits="userSpaceOnUse"><stop stop-color="#BF5733" offset="0"/><stop stop-color="#BF5733" stop-opacity="0" offset="1"/></linearGradient><radialGradient id="ar" cx="0" cy="0" r="1" gradientTransform="translate(18.708 9.375) rotate(-22.746) scale(2.1822 4.8172)" gradientUnits="userSpaceOnUse"><stop stop-color="#FF894C" offset="0"/><stop stop-color="#FF894C" stop-opacity="0" offset="1"/></radialGradient><linearGradient id="aq" x1="18.708" x2="20.034" y1="6.4062" y2="7.3438" gradientUnits="userSpaceOnUse"><stop stop-color="#FF894C" offset="0"/><stop stop-color="#FF894C" stop-opacity="0" offset="1"/></linearGradient><linearGradient id="ap" x1="20.471" x2="19.646" y1="18.5" y2="18.5" gradientUnits="userSpaceOnUse"><stop stop-color="#594C4F" offset=".225"/><stop stop-color="#392833" offset="1"/></linearGradient><linearGradient id="ao" x1="20.793" x2="20.793" y1="20.525" y2="18.935" gradientUnits="userSpaceOnUse"><stop stop-color="#552D52" offset="0"/><stop stop-color="#552D52" stop-opacity="0" offset="1"/></linearGradient><linearGradient id="an" x1="12.891" x2="12.066" y1="18.5" y2="18.5" gradientUnits="userSpaceOnUse"><stop stop-color="#594C4F" offset=".225"/><stop stop-color="#392833" offset="1"/></linearGradient><linearGradient id="am" x1="13.213" x2="13.213" y1="20.525" y2="18.935" gradientUnits="userSpaceOnUse"><stop stop-color="#552D52" offset="0"/><stop stop-color="#552D52" stop-opacity="0" offset="1"/></linearGradient><linearGradient id="al" x1="8.7341" x2="8.7341" y1="9.5625" y2="-1.7188" gradientUnits="userSpaceOnUse"><stop stop-color="#FFB444" offset="0"/><stop stop-color="#FFB444" stop-opacity="0" offset="1"/></linearGradient><linearGradient id="ak" x1="10.478" x2="11.062" y1=".65625" y2="5.619" gradientUnits="userSpaceOnUse"><stop stop-color="#5F5254" offset=".19149"/><stop stop-color="#2E2127" offset="1"/></linearGradient><linearGradient id="ai" x1="11.039" x2="10.94" y1="3.0704" y2=".5625" gradientUnits="userSpaceOnUse"><stop stop-color="#34222C" stop-opacity="0" offset=".14655"/><stop stop-color="#34222C" offset=".87273"/></linearGradient><linearGradient id="ah" x1="12.255" x2="12.255" y1="7.2188" y2="4.4688" gradientUnits="userSpaceOnUse"><stop stop-color="#552D52" offset="0"/><stop stop-color="#552D52" stop-opacity="0" offset="1"/></linearGradient><radialGradient id="ag" cx="0" cy="0" r="1" gradientTransform="translate(22.284 18.625) rotate(116.07) scale(14.334 20.017)" gradientUnits="userSpaceOnUse"><stop stop-color="#FFDFA1" offset=".084454"/><stop stop-color="#EBA582" offset="1"/></radialGradient><radialGradient id="af" cx="0" cy="0" r="1" gradientTransform="translate(15.984 20.99) rotate(90) scale(10.01 21.575)" gradientUnits="userSpaceOnUse"><stop stop-color="#D87DA0" stop-opacity="0" offset=".51299"/><stop stop-color="#D87DA0" offset="1"/></radialGradient><radialGradient id="ae" cx="0" cy="0" r="1" gradientTransform="translate(15.984 20.99) rotate(128.47) scale(13.583 44.338)" gradientUnits="userSpaceOnUse"><stop stop-color="#D87DA0" stop-opacity="0" offset=".58889"/><stop stop-color="#D87DA0" offset="1"/></radialGradient><radialGradient id="ad" cx="0" cy="0" r="1" gradientTransform="translate(15.984 20.99) rotate(90) scale(10.572 16.07)" gradientUnits="userSpaceOnUse"><stop stop-color="#C55188" stop-opacity="0" offset=".7921"/><stop stop-color="#C55188" offset="1"/></radialGradient><radialGradient id="ac" cx="0" cy="0" r="1" gradientTransform="translate(24.346 19.625) rotate(118.16) scale(5.0331 7.1265)" gradientUnits="userSpaceOnUse"><stop stop-color="#F9E58C" offset="0"/><stop stop-color="#F9E58C" stop-opacity="0" offset="1"/></radialGradient><radialGradient id="ab" cx="0" cy="0" r="1" gradientTransform="translate(9.721 31.188) rotate(-46.066) scale(9.026 11.259)" gradientUnits="userSpaceOnUse"><stop stop-color="#D87DA0" offset="0"/><stop stop-color="#D87DA0" stop-opacity="0" offset="1"/></radialGradient><radialGradient id="aa" cx="0" cy="0" r="1" gradientTransform="translate(13.748 24.202) rotate(54.392) scale(2.9788 3.739)" gradientUnits="userSpaceOnUse"><stop stop-color="#261317" offset="0"/><stop stop-color="#4E4647" offset=".58854"/><stop stop-color="#2F172A" offset=".74745"/></radialGradient><radialGradient id="z" cx="0" cy="0" r="1" gradientTransform="translate(14.561 25.264) rotate(231.48) scale(.97853 1.6211)" gradientUnits="userSpaceOnUse"><stop stop-color="#261317" offset="0"/><stop stop-color="#261317" stop-opacity="0" offset="1"/></radialGradient><linearGradient id="x" x1="15.842" x2="15.139" y1="24.53" y2="25.545" gradientUnits="userSpaceOnUse"><stop stop-color="#2F172A" offset="0"/><stop stop-color="#2F172A" stop-opacity="0" offset="1"/></linearGradient><radialGradient id="w" cx="0" cy="0" r="1" gradientTransform="translate(18.467 24.28) rotate(122.47) scale(3.0559 4.3536)" gradientUnits="userSpaceOnUse"><stop stop-color="#261317" offset="0"/><stop stop-color="#4E4647" offset=".58854"/><stop stop-color="#2F172A" offset=".74745"/></radialGradient><radialGradient id="v" cx="0" cy="0" r="1" gradientTransform="translate(17.686 24.498) rotate(135.99) scale(1.2818 2.1235)" gradientUnits="userSpaceOnUse"><stop stop-color="#261317" offset="0"/><stop stop-color="#261317" stop-opacity="0" offset="1"/></radialGradient><linearGradient id="u" x1="17.088" x2="14.555" y1="20.752" y2="22.993" gradientUnits="userSpaceOnUse"><stop stop-color="#5F5254" offset=".19149"/><stop stop-color="#2E2127" offset="1"/></linearGradient><radialGradient id="t" cx="0" cy="0" r="1" gradientTransform="translate(16.272 21.54) rotate(132.35) scale(1.8005 3.3013)" gradientUnits="userSpaceOnUse"><stop stop-color="#34222C" stop-opacity="0" offset=".46265"/><stop stop-color="#34222C" offset=".95561"/></radialGradient><linearGradient id="s" x1="16.303" x2="16.303" y1="21.766" y2="20.378" gradientUnits="userSpaceOnUse"><stop stop-color="#34222C" stop-opacity="0" offset=".14655"/><stop stop-color="#34222C" offset=".87273"/></linearGradient><linearGradient id="r" x1="16.997" x2="16.997" y1="24.096" y2="21.996" gradientUnits="userSpaceOnUse"><stop stop-color="#552D52" offset="0"/><stop stop-color="#552D52" stop-opacity="0" offset="1"/></linearGradient><linearGradient id="q" x1="12.108" x2="8.3261" y1="13.762" y2="6.3852" gradientUnits="userSpaceOnUse"><stop stop-color="#FC5737" offset="0"/><stop stop-color="#EF7E3F" offset="1"/></linearGradient><linearGradient id="p" x1="13.238" x2="10.348" y1="11.062" y2="7.4458" gradientUnits="userSpaceOnUse"><stop stop-color="#E83525" offset=".13921"/><stop stop-color="#E83525" stop-opacity="0" offset="1"/></linearGradient><linearGradient id="o" x1="13.543" x2="11.39" y1="7.6861" y2="7.6861" gradientUnits="userSpaceOnUse"><stop stop-color="#E83525" offset="0"/><stop stop-color="#E83525" stop-opacity="0" offset="1"/></linearGradient><linearGradient id="m" x1="13.238" x2="11.104" y1="5.875" y2="7.3644" gradientUnits="userSpaceOnUse"><stop stop-color="#BF5733" offset="0"/><stop stop-color="#BF5733" stop-opacity="0" offset="1"/></linearGradient><radialGradient id="l" cx="0" cy="0" r="1" gradientTransform="translate(6.096 7.125) rotate(10.62) scale(3.0523 12.77)" gradientUnits="userSpaceOnUse"><stop stop-color="#FF894C" offset="0"/><stop stop-color="#FF894C" stop-opacity="0" offset="1"/></radialGradient><linearGradient id="k" x1="7.4785" x2="9.6004" y1="6.402" y2="7.5545" gradientUnits="userSpaceOnUse"><stop stop-color="#FF894C" offset="0"/><stop stop-color="#FF894C" stop-opacity="0" offset="1"/></linearGradient><linearGradient id="j" x1="29.205" x2="26.783" y1="19.609" y2="21.125" gradientUnits="userSpaceOnUse"><stop stop-color="#FFCB8C" offset=".21104"/><stop stop-color="#FFCB8C" stop-opacity="0" offset="1"/></linearGradient><linearGradient id="i" x1="2.9315" x2="6.6272" y1="19.609" y2="21.875" gradientUnits="userSpaceOnUse"><stop stop-color="#FFD199" offset=".21104"/><stop stop-color="#FFCB8C" stop-opacity="0" offset="1"/></linearGradient><linearGradient id="h" x1="21.511" x2="19.246" y1="2.6641" y2="5.6719" gradientUnits="userSpaceOnUse"><stop stop-color="#665D5F" offset="0"/><stop stop-color="#665D5F" stop-opacity="0" offset="1"/></linearGradient><linearGradient id="g" x1="10.416" x2="8.1504" y1="2.6641" y2="5.6719" gradientUnits="userSpaceOnUse"><stop stop-color="#665D5F" offset="0"/><stop stop-color="#665D5F" stop-opacity="0" offset="1"/></linearGradient></defs></svg>
