<svg fill="none" viewBox="0 0 32 32" xmlns="http://www.w3.org/2000/svg"><g filter="url(#w)"><path d="m18.79 11.516c3.25 0.5156 7.0236 2.9634 7.1563 7.8906 0.125 4.6407-3.1719 6.8594-5.2656 8.1719" stroke="#B5B2BC" stroke-width="3"/></g><path d="m18.79 11.516c3.25 0.5156 7.0236 2.9634 7.1563 7.8906 0.125 4.6407-3.1719 6.8594-5.2656 8.1719" stroke="url(#q)" stroke-width="3"/><g filter="url(#v)"><path d="m19.118 11.516c3.25 0.5156 7.0235 2.9634 7.1562 7.8906 0.125 4.6407-3.1718 6.8594-5.2656 8.1719" stroke="url(#i)" stroke-width=".75"/></g><g filter="url(#u)"><path d="m11.749 13.088c0.6221-0.8742 1.835-1.0786 2.7092-0.4566 0.8742 0.6221 1.0787 1.835 0.4566 2.7092l-1.2999 1.8269c-0.622 0.8742-1.835 1.0787-2.7092 0.4566-0.8742-0.622-1.0786-1.835-0.4566-2.7092l1.2999-1.8269z" fill="url(#h)"/><path d="m11.749 13.088c0.6221-0.8742 1.835-1.0786 2.7092-0.4566 0.8742 0.6221 1.0787 1.835 0.4566 2.7092l-1.2999 1.8269c-0.622 0.8742-1.835 1.0787-2.7092 0.4566-0.8742-0.622-1.0786-1.835-0.4566-2.7092l1.2999-1.8269z" fill="url(#g)"/></g><g filter="url(#t)"><path d="m5 17.888c0.40387-0.5765 1.1987-0.7165 1.7752-0.3127l13.183 9.2345c0.5766 0.4038 0.7166 1.1986 0.3127 1.7752s-1.1987 0.7166-1.7752 0.3127l-13.183-9.2344c-0.57657-0.4039-0.71657-1.1987-0.31271-1.7753z" fill="url(#f)"/></g><g filter="url(#s)"><path d="m18.096 4.096c-1.4877-0.17267-3.0216 0.44909-3.9512 1.7556l-3.2049 4.5042c-1.3589 1.9098-0.9124 4.5597 0.9975 5.9186 1.9098 1.359 4.5597 0.9124 5.9186-0.9975l3.2049-4.5041c0.9296-1.3065 1.0143-2.9594 0.3636-4.3084l-3.3285-2.3684z" fill="url(#e)"/><path d="m18.096 4.096c-1.4877-0.17267-3.0216 0.44909-3.9512 1.7556l-3.2049 4.5042c-1.3589 1.9098-0.9124 4.5597 0.9975 5.9186 1.9098 1.359 4.5597 0.9124 5.9186-0.9975l3.2049-4.5041c0.9296-1.3065 1.0143-2.9594 0.3636-4.3084l-3.3285-2.3684z" fill="url(#d)"/><path d="m18.096 4.096c-1.4877-0.17267-3.0216 0.44909-3.9512 1.7556l-3.2049 4.5042c-1.3589 1.9098-0.9124 4.5597 0.9975 5.9186 1.9098 1.359 4.5597 0.9124 5.9186-0.9975l3.2049-4.5041c0.9296-1.3065 1.0143-2.9594 0.3636-4.3084l-3.3285-2.3684z" fill="url(#c)"/></g><path d="m18.096 4.096c-1.4877-0.17267-3.0216 0.44909-3.9512 1.7556l-3.2049 4.5042c-1.3589 1.9098-0.9124 4.5597 0.9975 5.9186 1.9098 1.359 4.5597 0.9124 5.9186-0.9975l3.2049-4.5041c0.9296-1.3065 1.0143-2.9594 0.3636-4.3084l-3.3285-2.3684z" fill="url(#b)"/><path d="m18.096 4.096c-1.4877-0.17267-3.0216 0.44909-3.9512 1.7556l-3.2049 4.5042c-1.3589 1.9098-0.9124 4.5597 0.9975 5.9186 1.9098 1.359 4.5597 0.9124 5.9186-0.9975l3.2049-4.5041c0.9296-1.3065 1.0143-2.9594 0.3636-4.3084l-3.3285-2.3684z" fill="url(#a)"/><path d="m19.078 2.714c0.3202-0.44999 0.9446-0.55522 1.3946-0.23503l1.7024 1.2077c0.45 0.3202 0.5552 0.94455 0.2351 1.3945l-0.9873 1.3876-3.3321-2.3672 0.9873-1.3876z" fill="url(#p)"/><path d="m19.078 2.714c0.3202-0.44999 0.9446-0.55522 1.3946-0.23503l1.7024 1.2077c0.45 0.3202 0.5552 0.94455 0.2351 1.3945l-0.9873 1.3876-3.3321-2.3672 0.9873-1.3876z" fill="url(#o)"/><path d="m19.078 2.714c0.3202-0.44999 0.9446-0.55522 1.3946-0.23503l1.7024 1.2077c0.45 0.3202 0.5552 0.94455 0.2351 1.3945l-0.9873 1.3876-3.3321-2.3672 0.9873-1.3876z" fill="url(#n)"/><g filter="url(#r)"><path d="m2.1338 28.516c0-1.6568 1.3431-3 3-3h21.813c1.6568 0 3 1.3432 3 3v0.05c0 0.6628-0.5373 1.2-1.2 1.2h-25.413c-0.66274 0-1.2-0.5372-1.2-1.2v-0.05z" fill="url(#m)"/></g><path d="m10.502 11.129c0.1161-0.2673 0.2617-0.5267 0.4374-0.7736l0.8057-1.1324 6.9162 4.9212-0.8058 1.1323c-0.1758 0.247-0.3731 0.4695-0.5875 0.6668l-6.766-4.8143z" fill="url(#l)"/><path d="m10.502 11.129c0.1161-0.2673 0.2617-0.5267 0.4374-0.7736l0.8057-1.1324 6.9162 4.9212-0.8058 1.1323c-0.1758 0.247-0.3731 0.4695-0.5875 0.6668l-6.766-4.8143z" fill="url(#k)"/><path d="m10.502 11.129c0.1161-0.2673 0.2617-0.5267 0.4374-0.7736l0.8057-1.1324 6.9162 4.9212-0.8058 1.1323c-0.1758 0.247-0.3731 0.4695-0.5875 0.6668l-6.766-4.8143z" fill="url(#j)"/><defs><filter id="w" x="18.555" y="10.034" width="8.8948" height="19.065" color-interpolation-filters="sRGB" filterUnits="userSpaceOnUse"><feFlood flood-opacity="0" result="BackgroundImageFix"/><feBlend in="SourceGraphic" in2="BackgroundImageFix" result="shape"/><feColorMatrix in="SourceAlpha" result="hardAlpha" values="0 0 0 0 0 0 0 0 0 0 0 0 0 0 0 0 0 0 127 0"/><feOffset dy="0.25"/><feGaussianBlur stdDeviation="0.5"/><feComposite in2="hardAlpha" k2="-1" k3="1" operator="arithmetic"/><feColorMatrix values="0 0 0 0 0.545098 0 0 0 0 0.541176 0 0 0 0 0.572549 0 0 0 1 0"/><feBlend in2="shape" result="effect1_innerShadow_18_25115"/></filter><filter id="v" x="18.309" y="10.395" width="9.0935" height="18.251" color-interpolation-filters="sRGB" filterUnits="userSpaceOnUse"><feFlood flood-opacity="0" result="BackgroundImageFix"/><feBlend in="SourceGraphic" in2="BackgroundImageFix" result="shape"/><feGaussianBlur result="effect1_foregroundBlur_18_25115" stdDeviation="0.375"/></filter><filter id="u" x="10.089" y="12.272" width="5.1857" height="5.7126" color-interpolation-filters="sRGB" filterUnits="userSpaceOnUse"><feFlood flood-opacity="0" result="BackgroundImageFix"/><feBlend in="SourceGraphic" in2="BackgroundImageFix" result="shape"/><feColorMatrix in="SourceAlpha" result="hardAlpha" values="0 0 0 0 0 0 0 0 0 0 0 0 0 0 0 0 0 0 127 0"/><feOffset/><feGaussianBlur stdDeviation="0.5"/><feComposite in2="hardAlpha" k2="-1" k3="1" operator="arithmetic"/><feColorMatrix values="0 0 0 0 0.286275 0 0 0 0 0.243137 0 0 0 0 0.415686 0 0 0 1 0"/><feBlend in2="shape" result="effect1_innerShadow_18_25115"/></filter><filter id="t" x="4.7193" y="17.294" width="15.833" height="11.884" color-interpolation-filters="sRGB" filterUnits="userSpaceOnUse"><feFlood flood-opacity="0" result="BackgroundImageFix"/><feBlend in="SourceGraphic" in2="BackgroundImageFix" result="shape"/><feColorMatrix in="SourceAlpha" result="hardAlpha" values="0 0 0 0 0 0 0 0 0 0 0 0 0 0 0 0 0 0 127 0"/><feOffset dx="0.05" dy="-0.05"/><feGaussianBlur stdDeviation="0.05"/><feComposite in2="hardAlpha" k2="-1" k3="1" operator="arithmetic"/><feColorMatrix values="0 0 0 0 0.121569 0 0 0 0 0.396078 0 0 0 0 0.721569 0 0 0 1 0"/><feBlend in2="shape" result="effect1_innerShadow_18_25115"/><feColorMatrix in="SourceAlpha" result="hardAlpha" values="0 0 0 0 0 0 0 0 0 0 0 0 0 0 0 0 0 0 127 0"/><feOffset dx="-0.05" dy="0.05"/><feGaussianBlur stdDeviation="0.05"/><feComposite in2="hardAlpha" k2="-1" k3="1" operator="arithmetic"/><feColorMatrix values="0 0 0 0 0.290196 0 0 0 0 0.741176 0 0 0 0 1 0 0 0 1 0"/><feBlend in2="effect1_innerShadow_18_25115" result="effect2_innerShadow_18_25115"/></filter><filter id="s" x="9.9531" y="4.0678" width="12.394" height="13.243" color-interpolation-filters="sRGB" filterUnits="userSpaceOnUse"><feFlood flood-opacity="0" result="BackgroundImageFix"/><feBlend in="SourceGraphic" in2="BackgroundImageFix" result="shape"/><feColorMatrix in="SourceAlpha" result="hardAlpha" values="0 0 0 0 0 0 0 0 0 0 0 0 0 0 0 0 0 0 127 0"/><feOffset dx="0.5" dy="0.25"/><feGaussianBlur stdDeviation="0.75"/><feComposite in2="hardAlpha" k2="-1" k3="1" operator="arithmetic"/><feColorMatrix values="0 0 0 0 0.54902 0 0 0 0 0.545098 0 0 0 0 0.54902 0 0 0 1 0"/><feBlend in2="shape" result="effect1_innerShadow_18_25115"/><feColorMatrix in="SourceAlpha" result="hardAlpha" values="0 0 0 0 0 0 0 0 0 0 0 0 0 0 0 0 0 0 127 0"/><feOffset dx="-0.2" dy="0.1"/><feGaussianBlur stdDeviation="0.15"/><feComposite in2="hardAlpha" k2="-1" k3="1" operator="arithmetic"/><feColorMatrix values="0 0 0 0 0.682353 0 0 0 0 0.639216 0 0 0 0 0.733333 0 0 0 1 0"/><feBlend in2="effect1_innerShadow_18_25115" result="effect2_innerShadow_18_25115"/></filter><filter id="r" x="1.4838" y="25.016" width="28.962" height="5.4" color-interpolation-filters="sRGB" filterUnits="userSpaceOnUse"><feFlood flood-opacity="0" result="BackgroundImageFix"/><feBlend in="SourceGraphic" in2="BackgroundImageFix" result="shape"/><feColorMatrix in="SourceAlpha" result="hardAlpha" values="0 0 0 0 0 0 0 0 0 0 0 0 0 0 0 0 0 0 127 0"/><feOffset dx="-0.65" dy="0.8"/><feGaussianBlur stdDeviation="0.325"/><feComposite in2="hardAlpha" k2="-1" k3="1" operator="arithmetic"/><feColorMatrix values="0 0 0 0 0.627451 0 0 0 0 0.596078 0 0 0 0 0.662745 0 0 0 1 0"/><feBlend in2="shape" result="effect1_innerShadow_18_25115"/><feColorMatrix in="SourceAlpha" result="hardAlpha" values="0 0 0 0 0 0 0 0 0 0 0 0 0 0 0 0 0 0 127 0"/><feOffset dx="0.5" dy="0.5"/><feGaussianBlur stdDeviation="0.325"/><feComposite in2="hardAlpha" k2="-1" k3="1" operator="arithmetic"/><feColorMatrix values="0 0 0 0 0.494118 0 0 0 0 0.501961 0 0 0 0 0.54902 0 0 0 1 0"/><feBlend in2="effect1_innerShadow_18_25115" result="effect2_innerShadow_18_25115"/><feColorMatrix in="SourceAlpha" result="hardAlpha" values="0 0 0 0 0 0 0 0 0 0 0 0 0 0 0 0 0 0 127 0"/><feOffset dy="-0.5"/><feGaussianBlur stdDeviation="0.325"/><feComposite in2="hardAlpha" k2="-1" k3="1" operator="arithmetic"/><feColorMatrix values="0 0 0 0 0.47451 0 0 0 0 0.286275 0 0 0 0 0.619608 0 0 0 1 0"/><feBlend in2="effect2_innerShadow_18_25115" result="effect3_innerShadow_18_25115"/></filter><radialGradient id="q" cx="0" cy="0" r="1" gradientTransform="translate(19.865 15.176) rotate(-49.982) scale(4.5341 7.9121)" gradientUnits="userSpaceOnUse"><stop stop-color="#765398" offset=".33861"/><stop stop-color="#A892C0" stop-opacity="0" offset="1"/></radialGradient><radialGradient id="i" cx="0" cy="0" r="1" gradientTransform="translate(27.563 16.552) rotate(168.66) scale(11.326 14.657)" gradientUnits="userSpaceOnUse"><stop stop-color="#D5CDDD" offset="0"/><stop stop-color="#D5CDDD" stop-opacity="0" offset="1"/></radialGradient><linearGradient id="h" x1="10.365" x2="13.051" y1="15.536" y2="17.666" gradientUnits="userSpaceOnUse"><stop stop-color="#6C6C73" offset="0"/><stop stop-color="#444060" offset="1"/></linearGradient><radialGradient id="g" cx="0" cy="0" r="1" gradientTransform="translate(12.429 16.028) rotate(127.12) scale(1.52 1.4902)" gradientUnits="userSpaceOnUse"><stop stop-color="#554170" offset="0"/><stop stop-color="#554170" stop-opacity="0" offset="1"/></radialGradient><linearGradient id="f" x1="5.2275" x2="18.228" y1="18.625" y2="27.5" gradientUnits="userSpaceOnUse"><stop stop-color="#43B6FF" offset="0"/><stop stop-color="#4184D5" offset="1"/></linearGradient><linearGradient id="e" x1="19.54" x2="14.009" y1="5.2188" y2="12.688" gradientUnits="userSpaceOnUse"><stop stop-color="#C4C2C7" offset="0"/><stop stop-color="#B3ABBD" offset="1"/></linearGradient><radialGradient id="d" cx="0" cy="0" r="1" gradientTransform="translate(14.54 15.25) rotate(-78.686) scale(4.7786 4.0081)" gradientUnits="userSpaceOnUse"><stop stop-color="#B699D4" offset="0"/><stop stop-color="#B699D4" stop-opacity="0" offset="1"/></radialGradient><radialGradient id="c" cx="0" cy="0" r="1" gradientTransform="translate(19.915 7.6562) rotate(130.37) scale(3.8172 4.3918)" gradientUnits="userSpaceOnUse"><stop stop-color="#DED8E5" offset=".11051"/><stop stop-color="#C4C1C7" stop-opacity="0" offset="1"/></radialGradient><linearGradient id="b" x1="19.758" x2="19.193" y1="4.8671" y2="5.7708" gradientUnits="userSpaceOnUse"><stop stop-color="#C5C3C7" offset="0"/><stop stop-color="#C5C3C7" stop-opacity="0" offset="1"/></linearGradient><radialGradient id="a" cx="0" cy="0" r="1" gradientTransform="translate(15.24 17.061) rotate(267.43) scale(1.8883 4.5773)" gradientUnits="userSpaceOnUse"><stop stop-color="#8167AE" offset=".083121"/><stop stop-color="#B29DC8" stop-opacity="0" offset="1"/></radialGradient><linearGradient id="p" x1="19.645" x2="22.243" y1="3.5681" y2="5.206" gradientUnits="userSpaceOnUse"><stop stop-color="#6E6B71" offset="0"/><stop stop-color="#61596A" offset="1"/></linearGradient><linearGradient id="o" x1="18.634" x2="19.54" y1="3.5" y2="4" gradientUnits="userSpaceOnUse"><stop stop-color="#585758" offset="0"/><stop stop-color="#585758" stop-opacity="0" offset="1"/></linearGradient><radialGradient id="n" cx="0" cy="0" r="1" gradientTransform="translate(21.415 3.7656) rotate(126.57) scale(.60313 1.7284)" gradientUnits="userSpaceOnUse"><stop stop-color="#8C8990" offset="0"/><stop stop-color="#8C8990" stop-opacity="0" offset="1"/></radialGradient><linearGradient id="m" x1="3.7275" x2="29.29" y1="29.188" y2="29.188" gradientUnits="userSpaceOnUse"><stop stop-color="#9A8DA8" offset="0"/><stop stop-color="#9688A5" offset="1"/></linearGradient><linearGradient id="l" x1="12.133" x2="17.245" y1="10.995" y2="14.638" gradientUnits="userSpaceOnUse"><stop stop-color="#E5DCEF" offset="0"/><stop stop-color="#F7E0FF" offset="1"/></linearGradient><linearGradient id="k" x1="18.177" x2="15.437" y1="15.626" y2="13.565" gradientUnits="userSpaceOnUse"><stop stop-color="#B5A1CB" offset=".088496"/><stop stop-color="#DFC9F7" stop-opacity="0" offset="1"/></linearGradient><linearGradient id="j" x1="10.891" x2="11.936" y1="10.261" y2="11.052" gradientUnits="userSpaceOnUse"><stop stop-color="#B6B5B7" offset="0"/><stop stop-color="#B6B5B7" stop-opacity="0" offset="1"/></linearGradient></defs></svg>
