<svg width="415" height="34" viewBox="0 0 415 34" fill="none" xmlns="http://www.w3.org/2000/svg">
<g clip-path="url(#clip0_115_157)">
<path d="M237.973 30.5C238.943 30.5 239.729 29.7165 239.729 28.75C239.729 27.7835 238.943 27 237.973 27C237.003 27 236.217 27.7835 236.217 28.75C236.217 29.7165 237.003 30.5 237.973 30.5Z" fill="#2CC47E"/>
<path d="M243.956 30.5C244.926 30.5 245.712 29.7165 245.712 28.75C245.712 27.7835 244.926 27 243.956 27C242.986 27 242.2 27.7835 242.2 28.75C242.2 29.7165 242.986 30.5 243.956 30.5Z" fill="#2CC47E"/>
<path d="M249.934 30.5C250.903 30.5 251.69 29.7165 251.69 28.75C251.69 27.7835 250.903 27 249.934 27C248.964 27 248.178 27.7835 248.178 28.75C248.178 29.7165 248.964 30.5 249.934 30.5Z" fill="#2CC47E"/>
<path d="M32.7883 8.39546H24V3.21436H47.9396V8.39546H39.1514V30.6877H32.7944V8.39546H32.7883Z" fill="black"/>
<path d="M76.5462 3.21436V30.6815H70.1892V19.4191H57.708V30.6815H51.3511V3.21436H57.708V14.0481H70.1892V3.21436H76.5462Z" fill="black"/>
<path d="M99.9464 30.6877L94.649 23.0324H88.8003V30.6877H82.4434V3.21436H94.3366C96.7679 3.21436 98.8808 3.61855 100.675 4.43308C102.47 5.24148 103.848 6.39283 104.815 7.88715C105.783 9.38146 106.267 11.1452 106.267 13.1846C106.267 15.224 105.777 16.9878 104.797 18.4637C103.817 19.9396 102.421 21.0726 100.62 21.8565L106.781 30.6877H99.9525H99.9464ZM98.3419 9.63255C97.3497 8.80578 95.8983 8.39546 93.9875 8.39546H88.8064V17.9676H93.9875C95.8983 17.9676 97.3497 17.5512 98.3419 16.7122C99.334 15.8731 99.8362 14.6973 99.8362 13.1785C99.8362 11.6597 99.3401 10.4532 98.3419 9.62643V9.63255Z" fill="black"/>
<path d="M132.559 25.5862V30.6877H111.289V3.21436H132.05V8.31584H117.609V14.2808H130.366V19.2231H117.609V25.5801H132.559V25.5862Z" fill="black"/>
<path d="M158.893 25.5862V30.6877H137.623V3.21436H158.384V8.31584H143.943V14.2808H156.7V19.2231H143.943V25.5801H158.893V25.5862Z" fill="black"/>
<path d="M188.95 30.6877L188.914 14.2074L180.83 27.7848H177.963L169.916 14.5626V30.6938H163.951V3.21436H169.212L179.494 20.2826L189.618 3.21436H194.836L194.915 30.6815H188.95V30.6877Z" fill="black"/>
<path d="M219.523 24.8023H206.766L204.335 30.6877H197.818L210.061 3.21436H216.338L228.623 30.6815H221.954L219.523 24.7962V24.8023ZM217.52 19.9764L213.166 9.46107L208.811 19.9764H217.52Z" fill="black"/>
<path d="M243.745 3C249.83 3 254.779 7.93423 254.779 14C254.779 20.0658 249.83 25 243.745 25C241.5 25 239.416 24.3317 237.673 23.1816L233.431 24.5361L234.808 20.4492C233.486 18.6375 232.705 16.4053 232.705 14C232.705 7.93423 237.655 3 243.739 3H243.745ZM243.948 8C242.221 8.00001 240.812 9.40872 240.812 11.1357V12.5996H240.715C240.17 12.5996 239.729 13.0401 239.729 13.585V17.542C239.729 18.0868 240.17 18.5273 240.715 18.5273H247.176C247.721 18.5273 248.162 18.0868 248.162 17.542V13.585C248.162 13.0401 247.721 12.5996 247.176 12.5996H247.084V11.1357C247.084 9.40871 245.675 8 243.948 8ZM243.948 9.28613C244.965 9.28613 245.798 10.1191 245.798 11.1357V12.5996H242.099V11.1357C242.099 10.113 242.932 9.28615 243.948 9.28613Z" fill="#2CC47E"/>
</g>
<path d="M274.667 31C272.547 31 270.586 30.6592 268.784 29.9775C267.009 29.2697 265.459 28.2865 264.134 27.0281C262.835 25.7697 261.815 24.2884 261.073 22.5843C260.358 20.8802 260 19.0187 260 17C260 14.9813 260.358 13.1198 261.073 11.4157C261.815 9.71161 262.849 8.23034 264.173 6.97191C265.498 5.71348 267.049 4.74345 268.824 4.0618C270.626 3.35393 272.587 3 274.706 3C276.826 3 278.761 3.32772 280.51 3.98315C282.285 4.63858 283.795 5.63483 285.041 6.97191L283.212 8.82022C282.046 7.66667 280.761 6.84082 279.357 6.3427C277.953 5.84457 276.442 5.5955 274.826 5.5955C273.103 5.5955 271.513 5.88389 270.056 6.46067C268.625 7.01124 267.366 7.81086 266.28 8.85955C265.22 9.88202 264.385 11.088 263.776 12.4775C263.193 13.8408 262.902 15.3483 262.902 17C262.902 18.6255 263.193 20.133 263.776 21.5225C264.385 22.912 265.22 24.1311 266.28 25.1798C267.366 26.2022 268.625 27.0019 270.056 27.5787C271.513 28.1292 273.09 28.4045 274.786 28.4045C276.376 28.4045 277.873 28.1685 279.277 27.6966C280.708 27.2247 282.02 26.4251 283.212 25.2978L284.882 27.5C283.557 28.6536 282.007 29.5318 280.231 30.1348C278.456 30.7116 276.601 31 274.667 31ZM282.06 27.1461V17H284.882V27.5L282.06 27.1461Z" fill="black"/>
<path d="M291.616 30.764V3.23595H302.03C304.389 3.23595 306.416 3.6161 308.112 4.37641C309.807 5.11049 311.106 6.18539 312.007 7.60112C312.934 8.99064 313.398 10.6816 313.398 12.6742C313.398 14.6142 312.934 16.2921 312.007 17.7079C311.106 19.0974 309.807 20.1723 308.112 20.9326C306.416 21.6667 304.389 22.0337 302.03 22.0337H293.246L294.558 20.6966V30.764H291.616ZM310.616 30.764L303.461 20.7753H306.641L313.835 30.764H310.616ZM294.558 20.9326L293.246 19.5562H301.951C304.733 19.5562 306.84 18.9532 308.271 17.7472C309.728 16.5412 310.457 14.8502 310.457 12.6742C310.457 10.4719 309.728 8.76779 308.271 7.5618C306.84 6.3558 304.733 5.75281 301.951 5.75281H293.246L294.558 4.37641V20.9326Z" fill="black"/>
<path d="M321.373 15.5449H336.08V18.0225H321.373V15.5449ZM321.691 28.2472H338.425V30.764H318.75V3.23595H337.829V5.75281H321.691V28.2472Z" fill="black"/>
<path d="M346.372 15.5449H361.079V18.0225H346.372V15.5449ZM346.69 28.2472H363.424V30.764H343.749V3.23595H362.828V5.75281H346.69V28.2472Z" fill="black"/>
<path d="M368.748 30.764V3.23595H371.172L390.37 27.1461H389.098V3.23595H392V30.764H389.575L370.417 6.85393H371.689V30.764H368.748Z" fill="black"/>
<defs>
<clipPath id="clip0_115_157">
<rect width="230.779" height="28" fill="white" transform="translate(24 3)"/>
</clipPath>
</defs>
</svg>
