<?xml version="1.0" encoding="UTF-8"?>
<!-- Generated by Pixelmator Pro 3.6.17 -->
<svg width="1557" height="186" viewBox="0 0 1557 186" xmlns="http://www.w3.org/2000/svg">
    <g id="Group-copy">
        <path id="Path" fill="#ffffff" stroke="none" d="M 884.940979 50 C 921.323975 50 940.063965 68.376999 940.434998 94.942993 L 940.440979 95.75 L 940.440979 182 L 911.190979 182 L 911.190979 168.75 C 903.440979 179.5 889.690979 186.25 869.940979 186.25 C 845.690979 186.25 824.190979 175.75 824.190979 149.75 C 824.190979 120.550003 849.919006 110.207001 878.57196 104.908997 L 909.440979 99.25 L 909.440979 96.25 C 909.440979 83.75 900.190979 76.75 885.440979 76.75 C 869.14801 76.75 860.222961 83.684998 848.375977 94.931 L 845.690979 97.5 L 825.190979 78.75 C 841.192993 59.75 859.692993 50 884.942993 50 Z M 558.127014 50 C 597.127014 50 617.877014 74.5 617.877014 113.75 L 617.877014 114.603996 L 617.857971 116.093002 L 617.836975 117.082001 C 617.761963 120.253998 617.601013 123.734001 617.437012 125.882004 L 617.385986 126.496002 L 525.635986 126.496002 C 528.385986 144.996002 539.385986 158.496002 561.635986 158.496002 C 576.445984 158.496002 584.435974 153.621994 599.070007 141.466995 L 599.635986 140.996002 L 617.885986 160.996002 C 599.135986 179.996002 581.635986 185.996002 560.885986 185.996002 C 519.635986 185.996002 493.885986 159.496002 493.885986 118.746002 C 493.878998 79.25 517.878967 50 558.128967 50 Z M 426.470001 50 C 465.470001 50 486.220001 74.5 486.220001 113.75 L 486.210999 115.099998 L 486.196991 116.056999 C 486.135986 119.472 485.958984 123.486 485.772003 125.874001 L 485.720001 126.5 L 393.971985 126.5 C 396.721985 145 407.721985 158.5 429.971985 158.5 C 444.781982 158.5 452.772003 153.626007 467.404999 141.470993 L 467.971985 141 L 486.221985 161 C 467.471985 180 449.971985 186 429.221985 186 C 387.971985 186 362.221985 159.5 362.221985 118.75 C 362.221985 79.25 386.221985 50 426.471985 50 Z M 992.10199 145.75 L 992.10199 182 L 956.60199 182 L 956.60199 145.75 Z M 345.065002 52.5 C 351.815002 52.5 357.634979 53.899994 364.541992 56.011993 L 365.315002 56.25 L 359.565002 84.75 C 354.273712 83.242493 348.814697 82.402649 343.315002 82.25 C 326.237 82.25 315.529999 95.725998 315.315002 118.313004 L 315.315002 119 L 315.315002 182 L 282.815002 182 L 282.815002 54.25 L 313.065002 54.25 L 313.065002 73 C 319.065002 60.75 329.315002 52.5 345.065002 52.5 Z M 185.906998 4.5 L 185.906998 65.75 C 193.906998 56 206.156998 50 222.156998 50 C 251.610001 50 267.585999 68.132004 267.902985 93.722 L 267.902985 94.5 L 267.902985 182 L 235.403 182 L 235.403 104.25 C 235.403 87.5 227.153 78 211.653 78 C 196.803009 78 186.119003 88.781006 185.906998 104.522003 L 185.906998 105 L 185.906998 182 L 153.406998 182 L 153.406998 4.5 Z M 143 4.5 L 143 34.5 L 89.501999 34.5 L 89.501999 182 L 54.502003 182 L 54.502003 34.5 L 1.002 34.5 L 1.002 4.5 Z M 770.539001 50 C 797.763977 50 812.739014 66.416992 813.039001 91.972992 L 813.039001 92.75 L 813.039001 182 L 780.539001 182 L 780.539001 102.5 C 780.539001 88.25 775.039001 78 760.289001 78 C 745.688965 78 737.945007 88.781006 737.789001 103.066002 L 737.789001 103.5 L 737.789001 182 L 705.289001 182 L 705.289001 102.5 C 705.289001 88.25 700.039001 78 685.039001 78 C 670.438965 78 662.695007 89.026001 662.539001 103.072998 L 662.539001 103.5 L 662.539001 182 L 630.039001 182 L 630.039001 54.25 L 660.289001 54.25 L 660.289001 68.5 C 667.039001 57.5 678.789001 50 696.789001 50 C 713.539001 50 725.539001 57 732.289001 68.75 C 739.786011 58 751.786011 50 770.536011 50 Z M 909.450012 122.5 L 886.802979 127.240997 L 885.69397 127.477997 C 867.709961 131.367996 855.950012 135.977997 855.950012 147.5 C 855.950012 155.5 863.200012 160.25 875.450012 160.25 C 891.784973 160.25 909.099976 152.408997 909.450012 130.662994 L 909.450012 130 Z M 425.479004 75.5 C 408.401001 75.5 398.428986 86.526001 394.835999 102.757004 L 394.729004 103.25 L 454.479004 103.25 C 453.221985 86.25 443.221985 75.5 425.471985 75.5 Z M 557.135986 75.5 C 540.057983 75.5 530.086975 86.526001 526.492981 102.757004 L 526.385986 103.25 L 586.135986 103.25 C 584.878967 86.25 574.878967 75.5 557.128967 75.5 Z"/>
        <g id="Group">
            <path id="Path-copy" fill="#ffffff" stroke="none" d="M 1082.761108 1.25 C 1110.976074 1.25 1132.330078 12.766006 1152.161011 34.343002 L 1152.761108 35 L 1144.261108 43.25 C 1125.011108 22.5 1108.261108 12 1082.011108 12 C 1040.261108 12 1012.510986 46.75 1012.510986 93.75 C 1012.510986 140.5 1038.011108 174.5 1080.761108 174.5 C 1113.678101 174.5 1139.48999 153.182999 1140.003052 116.612999 L 1140.011108 115.5 L 1140.011108 104.5 L 1077.761108 104.5 L 1077.761108 93.75 L 1152.511108 93.75 L 1152.511108 182 L 1142.761108 182 L 1140.761108 150.5 C 1129.761108 174.75 1106.511108 185.25 1080.761108 185.25 C 1030.261108 185.25 999.760986 147.5 999.760986 93.25 C 999.760986 40.25 1032.011108 1.25 1082.761108 1.25 Z M 992.10199 182"/>
            <path id="path1" fill="#ffffff" stroke="none" d="M 1211.91394 61.75 C 1218.24707 61.775238 1224.526978 62.907623 1230.469971 65.096008 L 1230.91394 65.25 L 1228.16394 75 C 1222.951416 73.104614 1217.459595 72.090744 1211.91394 72 C 1196.813965 72 1182.94397 85.966003 1182.667969 112.685997 L 1182.667969 113.5 L 1182.667969 130.976563 L 1182.667969 181.75 L 1170.667969 181.75 L 1170.667969 62.75 L 1181.917969 62.75 L 1181.917969 83 C 1187.161987 70 1198.911987 61.75 1211.911987 61.75 Z"/>
            <path id="Path-copy-2" fill="#ffffff" stroke="none" d="M 1281.482056 60 C 1313.482056 60 1332.982056 82 1332.982056 115.75 L 1332.977051 116.050003 C 1332.942017 117.295998 1332.732056 120.328003 1332.513062 121.796997 L 1332.482056 121.997002 L 1239.732056 121.997002 C 1239.982056 149.996994 1252.982056 174.996994 1283.982056 174.996994 C 1298.182007 174.996994 1309.26709 169.242004 1324.514038 153.035004 L 1325.482056 151.996994 L 1333.482056 158.996994 C 1316.232056 178.496994 1302.982056 184.996994 1282.982056 184.996994 C 1248.482056 184.996994 1227.232056 159.996994 1227.232056 123.497002 C 1227.232056 85.75 1248.982056 60 1281.482056 60 Z M 1281.489014 70 C 1260.204102 70 1243.575073 84.210999 1240.333008 111.664001 L 1240.239014 112.5 L 1321.239014 112.5 C 1320.482056 87.5 1305.732056 70 1281.482056 70 Z"/>
            <path id="Path-copy-3" fill="#ffffff" stroke="none" d="M 1397.482056 60 C 1429.482056 60 1448.982056 82 1448.982056 115.75 L 1448.977051 116.050003 C 1448.942017 117.295998 1448.732056 120.328003 1448.513062 121.796997 L 1448.482056 121.997002 L 1355.732056 121.997002 C 1355.982056 149.996994 1368.982056 174.996994 1399.982056 174.996994 C 1414.182007 174.996994 1425.26709 169.242004 1440.514038 153.035004 L 1441.482056 151.996994 L 1449.482056 158.996994 C 1432.232056 178.496994 1418.982056 184.996994 1398.982056 184.996994 C 1364.482056 184.996994 1343.232056 159.996994 1343.232056 123.497002 C 1343.232056 85.75 1364.982056 60 1397.482056 60 Z M 1397.489014 70 C 1376.204102 70 1359.575073 84.210999 1356.333008 111.664001 L 1356.239014 112.5 L 1437.239014 112.5 C 1436.482056 87.5 1421.732056 70 1397.482056 70 Z"/>
            <path id="Path-copy-4" fill="#ffffff" stroke="none" d="M 1512.76123 59.5 C 1542.213867 59.5 1555.004639 79.347015 1555.257568 99.392517 L 1555.26123 100 L 1555.26123 181.5 L 1543.26123 181.5 L 1543.26123 104.5 C 1543.26123 81.25 1531.51123 69.5 1511.01123 69.5 C 1490.963867 69.5 1474.591797 86.161713 1474.266357 105.173218 L 1474.26123 105.75 L 1474.26123 181.5 L 1462.26123 181.5 L 1462.26123 62.5 L 1473.51123 62.5 L 1473.51123 81.75 C 1480.76123 67.75 1494.51123 59.5 1512.76123 59.5 Z"/>
        </g>
    </g>
</svg>
