<?xml version="1.0" encoding="utf-8"?>
<!-- Generator: Adobe Illustrator 27.7.0, SVG Export Plug-In . SVG Version: 6.00 Build 0)  -->
<svg version="1.1" id="Ebene_1" xmlns="http://www.w3.org/2000/svg" xmlns:xlink="http://www.w3.org/1999/xlink" x="0px" y="0px"
	 viewBox="0 0 3300 2200" style="enable-background:new 0 0 3300 2200;" xml:space="preserve">
<style type="text/css">
	.st0{fill:none;stroke:#000000;stroke-width:0.5;}
	.st1{font-family:'Helvetica-Bold';}
	.st2{font-size:13px;}
	.st3{font-family:'Helvetica';}
	.st4{fill:none;stroke:#00AEEF;stroke-width:0.5;}
	.st5{fill:#27AAE1;}
	.st6{fill:none;stroke:#27AAE1;stroke-width:0.5;}
</style>
<g id="Notes">
	<path class="st0" d="M263,292h2773"/>
	<g>
		<text transform="matrix(1 0 0 1 263.0005 321.9993)" class="st1 st2">Weight/Scale Variations</text>
		<text transform="matrix(1 0 0 1 534.0637 321.9993)" class="st3 st2">Ultralight</text>
		<text transform="matrix(1 0 0 1 843.7778 321.9993)" class="st3 st2">Thin</text>
		<text transform="matrix(1 0 0 1 1139.0354 321.9993)" class="st3 st2">Light</text>
		<text transform="matrix(1 0 0 1 1427.0776 321.9993)" class="st3 st2">Regular</text>
		<text transform="matrix(1 0 0 1 1723.4423 321.9993)" class="st3 st2">Medium</text>
		<text transform="matrix(1 0 0 1 2016.1722 321.9993)" class="st3 st2">Semibold</text>
		<text transform="matrix(1 0 0 1 2326.9707 321.9993)" class="st3 st2">Bold</text>
		<text transform="matrix(1 0 0 1 2618.2661 321.9993)" class="st3 st2">Heavy</text>
		<text transform="matrix(1 0 0 1 2917.5059 321.9993)" class="st3 st2">Black</text>
	</g>
	<path class="st0" d="M263,1903h2773"/>
	<path d="M272.2,1933.8c4.3,0,7.9-3.6,7.9-7.9s-3.6-7.9-7.9-7.9s-7.9,3.6-7.9,7.9C264.4,1930.3,268,1933.8,272.2,1933.8z
		 M272.2,1932.3c-3.5,0-6.4-2.8-6.4-6.4s2.8-6.4,6.4-6.4s6.4,2.8,6.4,6.4S275.8,1932.3,272.2,1932.3z M268.7,1925.9
		c0,0.4,0.3,0.7,0.8,0.7h2.1v2.1c0,0.4,0.3,0.7,0.7,0.7c0.4,0,0.7-0.3,0.7-0.7v-2.1h2.1c0.4,0,0.7-0.3,0.7-0.7s-0.3-0.7-0.7-0.7H273
		v-2.1c0-0.4-0.3-0.8-0.7-0.8c-0.4,0-0.7,0.3-0.7,0.8v2.1h-2.2C269,1925.2,268.7,1925.5,268.7,1925.9z"/>
	<path d="M293.6,1935.9c5.4,0,10-4.5,10-10c0-5.4-4.5-10-10-10c-5.4,0-10,4.5-10,10S288.2,1935.9,293.6,1935.9z M293.6,1934.2
		c-4.6,0-8.3-3.7-8.3-8.3s3.7-8.3,8.3-8.3c4.6,0,8.3,3.7,8.3,8.3C301.9,1930.6,298.2,1934.2,293.6,1934.2z M289.1,1925.9
		c0,0.5,0.3,0.8,0.8,0.8h2.9v2.9c0,0.5,0.3,0.8,0.8,0.8s0.8-0.3,0.8-0.8v-2.9h2.9c0.5,0,0.8-0.3,0.8-0.8s-0.3-0.8-0.8-0.8h-2.9v-2.9
		c0-0.5-0.3-0.8-0.8-0.8s-0.8,0.3-0.8,0.8v2.9h-2.9C289.4,1925.1,289.1,1925.5,289.1,1925.9z"/>
	<path d="M320.6,1938.7c7,0,12.7-5.8,12.7-12.7c0-7-5.8-12.7-12.7-12.7c-7-0.1-12.7,5.7-12.7,12.6
		C307.9,1932.9,313.6,1938.7,320.6,1938.7z M320.6,1936.8c-6.1,0-10.9-4.8-10.9-10.9c0-6,4.8-10.9,10.9-10.9c6,0,10.9,4.9,10.9,10.9
		C331.5,1932,326.6,1936.8,320.6,1936.8z M314.8,1925.9c0,0.5,0.4,0.9,0.9,0.9h3.9v4c0,0.5,0.4,0.9,0.9,0.9s0.9-0.4,0.9-0.9v-4h4
		c0.5,0,0.9-0.4,0.9-0.9s-0.4-0.9-0.9-0.9h-4v-3.9c0-0.5-0.4-0.9-0.9-0.9s-0.9,0.4-0.9,0.9v3.9h-3.9
		C315.2,1925,314.8,1925.4,314.8,1925.9z"/>
	<text transform="matrix(1 0 0 1 263.0005 1952.9995)" class="st1 st2">Design Variations</text>
	<text transform="matrix(1 0 0 1 263.0005 1970.9995)" class="st3 st2">Symbols are supported in up to nine weights and three scales.</text>
	<text transform="matrix(1 0 0 1 263.0005 1988.9995)" class="st3 st2">For optimal layout with text and other symbols, vertically align</text>
	<text transform="matrix(1 0 0 1 263.0005 2006.9995)" class="st3 st2">symbols with the adjacent text.</text>
	<path class="st4" d="M776,1919v14"/>
	<path d="M779.3,1933.2c0.5,0,0.8-0.2,1-0.7l1.2-3.5h5.8l1.3,3.4c0.1,0.6,0.4,0.8,0.9,0.8s0.8-0.3,0.8-0.8c0-0.2,0-0.3-0.1-0.5
		l-4.5-12.3c-0.3-0.6-0.7-0.9-1.3-0.9s-1,0.3-1.2,0.9l-4.6,12.2c-0.1,0.2-0.1,0.4-0.1,0.6C778.5,1932.9,778.8,1933.2,779.3,1933.2z
		 M782,1927.5l2.4-6.6l2.4,6.6H782z"/>
	<path class="st4" d="M793.2,1919v14"/>
	<text transform="matrix(1 0 0 1 776.0004 1952.9995)" class="st1 st2">Margins</text>
	<text transform="matrix(1 0 0 1 776.0004 1970.9995)" class="st3 st2">Leading and trailing margins on the left and right side of each symbol</text>
	<text transform="matrix(1 0 0 1 776.0004 1988.9995)" class="st3 st2">can be adjusted by modifying the x-location of the margin guidelines.</text>
	<text transform="matrix(1 0 0 1 776.0004 2006.9995)" class="st3 st2">Modifications are automatically applied proportionally to all</text>
	<text transform="matrix(1 0 0 1 776.0004 2024.9993)" class="st3 st2">scales and weights.</text>
	<path d="M1291.8,1934.9l1.7,1.7c0.9,0.9,1.8,0.8,2.8-0.2l10.7-11.8l-1-1l-10.6,11.7c-0.4,0.4-0.7,0.5-1.2,0l-1.1-1.2
		c-0.5-0.4-0.4-0.8,0-1.1l11.5-10.8l-1-1l-11.6,10.9C1291.1,1933,1291,1934,1291.8,1934.9z M1298.3,1916.7c-0.4,0.4-0.4,1-0.2,1.4
		c0.2,0.4,0.7,0.6,1.3,0.4c1.5-0.3,3-0.4,4.4,0.5l-0.6,1.5c-0.3,0.8-0.2,1.4,0.4,2l2.3,2.3c0.5,0.5,0.9,0.5,1.5,0.4l1-0.2l0.7,0.7
		v0.6c0,0.5,0.1,0.9,0.6,1.4l0.8,0.7c0.5,0.5,1.1,0.5,1.6,0l2.9-2.9c0.5-0.5,0.4-1.1,0-1.5l-1-0.9c-0.5-0.5-0.8-0.6-1.3-0.6h-0.6
		l-0.6-0.6l0.2-1.1c0.1-0.6,0-1-0.6-1.6l-2.2-2.2C1305.6,1913.7,1301.1,1913.8,1298.3,1916.7z M1299.8,1917c2.4-1.8,5.7-1.5,7.9,0.8
		l2.4,2.4c0.2,0.2,0.3,0.4,0.2,0.8l-0.3,1.5l1.5,1.5l1-0.1c0.3,0,0.3,0,0.5,0.2l0.6,0.6l-2.4,2.4l-0.6-0.6c-0.2-0.2-0.2-0.3-0.2-0.5
		l0.1-1l-1.5-1.5l-1.5,0.3c-0.3,0.1-0.5,0-0.7-0.2l-2-2c-0.3-0.2-0.3-0.4-0.1-0.8l0.9-2.1c-1.6-1.5-3.6-2.1-5.6-1.5
		C1299.7,1917.3,1299.6,1917.1,1299.8,1917z"/>
	<text transform="matrix(1 0 0 1 1289.0004 1952.9995)" class="st1 st2">Exporting</text>
	<text transform="matrix(1 0 0 1 1289.0004 1970.9995)" class="st3 st2">Symbols should be outlined when exporting to ensure the</text>
	<text transform="matrix(1 0 0 1 1289.0004 1988.9995)" class="st3 st2">design is preserved when submitting to Xcode.</text>
	<text transform="matrix(1 0 0 1 2952.4146 1932.9995)" class="st3 st2">Template v.4.0</text>
	<text transform="matrix(1 0 0 1 2865.458 1950.9995)" class="st3 st2">Requires Xcode 14 or greater</text>
	<text transform="matrix(1 0 0 1 2834.418 1968.9995)" class="st3 st2">Generated from bookmark.slash.fill</text>
	<text transform="matrix(1 0 0 1 2912.4116 1986.9995)" class="st3 st2">Typeset at 100 points</text>
	<text transform="matrix(1 0 0 1 263.0005 725.9994)" class="st3 st2">Small</text>
	<text transform="matrix(1 0 0 1 263.0005 1155.9994)" class="st3 st2">Medium</text>
	<text transform="matrix(1 0 0 1 263.0005 1585.9994)" class="st3 st2">Large</text>
</g>
<g id="Guides_00000041992385199760718270000017857762855190565270_">
	<g id="H-reference" transform="matrix(1 0 0 1 339 696)">
		<path class="st5" d="M1-0.2h2.6l25.7-67.1H30v-3.3h-1.9L1-0.2z M11.7-24.7H47l-0.8-2.2H12.5L11.7-24.7z M55.1-0.2h2.6l-27-70.5
			h-1.2v3.3L55.1-0.2z"/>
	</g>
	<line id="Baseline-S" class="st6" x1="263" y1="695.8" x2="3036" y2="695.8"/>
	<line id="Capline-S" class="st6" x1="263" y1="625.3" x2="3036" y2="625.3"/>
	<g id="H-reference_00000075148540225691874320000004189111091699519108_" transform="matrix(1 0 0 1 339 1126)">
		<path class="st5" d="M1-0.2h2.6l25.7-67.1H30v-3.3h-1.9L1-0.2z M11.7-24.7H47l-0.8-2.2H12.5L11.7-24.7z M55.1-0.2h2.6l-27-70.5
			h-1.2v3.3L55.1-0.2z"/>
	</g>
	<line id="Baseline-M" class="st6" x1="263" y1="1125.8" x2="3036" y2="1125.8"/>
	<line id="Capline-M" class="st6" x1="263" y1="1055.3" x2="3036" y2="1055.3"/>
	<g id="H-reference_00000062192421249776060530000000663283028567505327_" transform="matrix(1 0 0 1 339 1556)">
		<path class="st5" d="M1-0.2h2.6l25.7-67.1H30v-3.3h-1.9L1-0.2z M11.7-24.7H47l-0.8-2.2H12.5L11.7-24.7z M55.1-0.2h2.6l-27-70.5
			h-1.2v3.3L55.1-0.2z"/>
	</g>
	<line id="Baseline-L" class="st6" x1="263" y1="1555.8" x2="3036" y2="1555.8"/>
	<line id="Capline-L" class="st6" x1="263" y1="1485.3" x2="3036" y2="1485.3"/>
	<line id="left-margin-Regular-M" class="st4" x1="1394.6" y1="1030.6" x2="1394.6" y2="1149.9"/>
	<line id="right-margin-Regular-M" class="st4" x1="1505.1" y1="1030.6" x2="1505.1" y2="1149.9"/>
</g>
<g id="Symbols">
	<g id="Black-L">
		<g>
		<path d="M3005.5,1478c-2,0-4,0.6-5.9,1.9l-18.5,13v-18.2
			c0-7.8-6.3-14.1-14.1-14.1h-95.6c-7.8,0-14.1,6.3-14.1,14.1v88.7c0,7.8,6.3,14.1,14.1,14.1h95.6c7.8,0,14.1-6.3,14.1-14.1v-17.2
			l18.7,12.5c2,1.3,4.2,2,6.2,2c4.3,0,8.1-2.9,8.1-8.2v-65.7C3014.1,1481.3,3010.1,1478,3005.5,1478z M2960.6,1559.6h-83
			c-1.4,0-2.5-1.1-2.5-2.5V1481c0-1.4,1.1-2.5,2.5-2.5h83c1.4,0,2.5,1.1,2.5,2.5v76.1C2963.1,1558.5,2962,1559.6,2960.6,1559.6z
			 M2995.5,1534.2l-14.4-9.6v-9.6l14.4-10.1c0.3-0.2,0.6,0,0.6,0.3v28.7C2996.1,1534.2,2995.7,1534.4,2995.5,1534.2z"/>
		</g>
	</g>
	<g id="Heavy-L">
		<g>
		<path id="Heavy-L" d="M2704.6,1479.2c-2,0-4.1,0.7-6,2l-19.1,13.9v-17.6
			c0-7.8-6.3-14.1-14.1-14.1h-89.8c-7.8,0-14.1,6.3-14.1,14.1v85.5c0,7.8,6.3,14.1,14.1,14.1h89.8c7.8,0,14.1-6.3,14.1-14.1v-16.8
			l19.3,13.3c2,1.4,4.2,2,6.2,2c4.1,0,7.6-2.7,7.6-8v-65.9C2712.6,1482.2,2708.8,1479.2,2704.6,1479.2z M2577.4,1558.9v-77.3
			c0-1.3,1-2.3,2.3-2.3h81.6c1.3,0,2.3,1,2.3,2.3v77.2c0,1.3-1,2.3-2.3,2.3h-81.6C2578.4,1561.1,2577.4,1560.1,2577.4,1558.9z
			 M2696,1538.1l-16.5-11.4v-11.9l16.5-12c0.2-0.2,0.6,0,0.6,0.3v34.7C2696.6,1538.1,2696.2,1538.3,2696,1538.1z"/>
		</g>
	</g>
	<g id="Bold-L">
		<g>
		<path id="Bold-L" d="M2406.4,1481.3c-2,0-4.1,0.7-6,2.2l-18,13.7v-18.6
			c0-7.8-6.3-14.1-14.1-14.1h-88.7c-7.8,0-14.1,6.3-14.1,14.1v81.8c0,7.8,6.3,14.1,14.1,14.1h88.7c7.8,0,14.1-6.3,14.1-14.1v-17.6
			l18.2,13.2c1.9,1.4,4.1,2.1,6.1,2.1c3.4,0,6.1-2.2,6.1-6.7v-63.2C2412.7,1483.6,2409.9,1481.3,2406.4,1481.3z M2369.4,1558.6
			c0,1.6-1.3,3-3,3h-85.1c-1.6,0-3-1.3-3-3v-78.2c0-1.6,1.3-3,3-3h85.1c1.6,0,3,1.3,3,3V1558.6z M2398.9,1538.8l-16.6-12v-13.2
			l16.5-12.6c0.3-0.3,0.8,0,0.8,0.4v37C2399.7,1538.8,2399.2,1539,2398.9,1538.8z"/>
		</g>
	</g>
	<g id="Semibold-L">
		<g>
		<path id="Semibold-L" d="M2108.7,1486.8c-1.6,0-3.3,0.5-4.9,1.6l-17.4,12.6
			v-20.1c0-7.8-6.3-14.1-14.1-14.1h-87.8c-7.8,0-14.1,6.3-14.1,14.1v79.4c0,7.8,6.3,14.1,14.1,14.1h87.8c7.8,0,14.1-6.3,14.1-14.1
			v-19.5l17.5,12.1c1.6,1.1,3.4,1.7,5.1,1.7c3.4,0,6.2-2.2,6.2-6.5v-54.2C2115.4,1489.3,2112.3,1486.8,2108.7,1486.8z
			 M2070.8,1562.9h-84.7c-2.2,0-4.1-1.8-4.1-4.1v-76.4c0-2.2,1.8-4.1,4.1-4.1h84.7c2.2,0,4.1,1.8,4.1,4.1v76.4
			C2074.9,1561,2073.1,1562.9,2070.8,1562.9z M2103.3,1538.3l-16.8-11.6v-11.4l16.8-12.2c0.2-0.1,0.5,0,0.5,0.2v34.6
			C2103.8,1538.3,2103.5,1538.4,2103.3,1538.3z"/>
		</g>
	</g>
	<g id="Medium-L">
		<g>
		<path id="Medium-L" d="M1809,1489.2c-1.6,0-3.3,0.5-4.9,1.7l-18,13v-20.8
			c0-7.8-6.3-14.1-14.1-14.1h-81.6c-7.8,0-14.1,6.3-14.1,14.1v77.1c0,7.8,6.3,14.1,14.1,14.1h81.6c7.8,0,14.1-6.3,14.1-14.1v-19.6
			l18.1,12.5c1.5,1.1,3.2,1.6,4.8,1.6c3.3,0,6.2-2.3,6.2-6.5v-52.4C1815.3,1491.5,1812.4,1489.2,1809,1489.2z M1772,1564.3h-81.6
			c-2.3,0-4.1-1.9-4.1-4.1v-77.1c0-2.3,1.9-4.1,4.1-4.1h81.6c2.3,0,4.1,1.9,4.1,4.1v77.1C1776.2,1562.4,1774.3,1564.3,1772,1564.3z
			 M1804.3,1540.9l-18.1-12.5v-12.2l18.1-13.1c0.4-0.3,1,0,1,0.5v36.7C1805.3,1540.9,1804.7,1541.2,1804.3,1540.9z"/>
		</g>
	</g>
	<g id="Regular-L">
		<g>
		<path id="Regular-L" d="M1508.9,1491.7c-1.3,0-2.6,0.4-3.8,1.3l-18.8,13.6
			v-20.2c0-7.8-6.3-14.1-14.1-14.1h-77.9c-7.8,0-14.1,6.3-14.1,14.1v74.6c0,7.8,6.3,14.1,14.1,14.1h77.9c7.8,0,14.1-6.3,14.1-14.1
			v-20.1l18.9,13c1.2,0.8,2.5,1.2,3.7,1.2c3.7,0,7-3.2,7-7.8v-47.9C1515.9,1494.9,1512.5,1491.7,1508.9,1491.7z M1477.6,1561
			c0,3.1-2.5,5.5-5.5,5.5h-77.9c-3.1,0-5.5-2.5-5.5-5.5v-74.6c0-3.1,2.5-5.5,5.5-5.5h77.9c3.1,0,5.5,2.5,5.5,5.5V1561z
			 M1506.8,1544.6l-20.5-14.1v-13.2l20.5-14.9c0.2-0.2,0.6,0,0.6,0.3v41.6C1507.3,1544.6,1507,1544.8,1506.8,1544.6z"/>
		</g>
	</g>
	<g id="Light-L">
		<g>
		<path id="Light-L" d="M1214.4,1491.4c-1.7,0-3.2,0.5-4.8,1.6l-21.2,15.4
			v-20.8c0-7.8-6.3-14.1-14.1-14.1h-72.4c-7.8,0-14.1,6.3-14.1,14.1v72.3c0,7.8,6.3,14.1,14.1,14.1h72.4c7.8,0,14.1-6.3,14.1-14.1
			v-20.6l21.3,14.7c1.8,1.2,3.2,1.8,4.9,1.8c2.9,0,5.8-2.8,5.8-6.6v-51.3C1220.5,1493.8,1217.5,1491.4,1214.4,1491.4z
			 M1182.2,1559.9c0,4.4-3.6,7.9-7.9,7.9h-72.4c-4.4,0-7.9-3.6-7.9-7.9v-72.3c0-4.4,3.6-7.9,7.9-7.9h72.4c4.4,0,7.9,3.6,7.9,7.9
			V1559.9z M1212.5,1548.3l-24.1-16.6V1516l24-17.4c0.8-0.6,1.8,0,1.8,0.9v47.8C1214.3,1548.3,1213.2,1548.8,1212.5,1548.3z"/>
		</g>
	</g>
	<g id="Thin-L">
		<g>
		<path id="Thin-L" d="M912.3,1493.8c-1.2,0-2.4,0.4-3.5,1.2l-21.5,15.6v-22.8
			c0-7.8-6.3-14.1-14.1-14.1h-67.1c-7.8,0-14.1,6.3-14.1,14.1v69.7c0,7.8,6.3,14.1,14.1,14.1h67.1c7.8,0,14.1-6.3,14.1-14.1v-21.6
			l21.6,14.9c1.1,0.7,2.3,1.1,3.4,1.1c3.4,0,6.4-1.7,6.4-5.9v-46C918.8,1495.8,915.7,1493.8,912.3,1493.8z M873.2,1568h-67.1
			c-5.8,0-10.5-4.7-10.5-10.5v-69.7c0-5.8,4.7-10.5,10.5-10.5h67.1c5.8,0,10.5,4.7,10.5,10.5v69.7C883.7,1563.3,879,1568,873.2,1568
			z M915.2,1545.6c0,2.2-1.5,2.7-2.8,2.7c-0.5,0-0.9-0.2-1.3-0.5l-23.7-16.3v-16.6l23.6-17.1c0.5-0.3,0.9-0.5,1.4-0.5
			c1.4,0,2.8,0.4,2.8,2.6V1545.6z"/>
		</g>
	</g>
	<g id="Ultralight-L">
		<g>
		<path id="Ultralight-L" d="M613.7,1496.9c-1.2,0-2.4,0.4-3.5,1.1l-23.1,16.3
			v-23.2c0-7.8-6.3-14.1-14.1-14.1h-62.1c-7.8,0-14.1,6.3-14.1,14.1v67.7c0,7.8,6.3,14.1,14.1,14.1H573c7.8,0,14.1-6.3,14.1-14.1
			v-22l23.2,15.5c1.1,0.7,2.3,1.1,3.4,1.1c3.4,0,6.4-2.9,6.4-6.9v-42.7C620.1,1499.8,617,1496.9,613.7,1496.9z M572.9,1570.9h-62.1
			c-6.7,0-12.1-5.4-12.1-12.1v-67.7c0-6.7,5.4-12.1,12.1-12.1h62.1c6.7,0,12.1,5.4,12.1,12.1v67.7
			C585.1,1565.5,579.6,1570.9,572.9,1570.9z M618.1,1546.5c0,3-2.3,4.9-4.4,4.9c-0.8,0-1.6-0.2-2.3-0.7l-24.3-16.3v-17.6l24.2-17.1
			c0.7-0.5,1.5-0.8,2.4-0.8c2.1,0,4.4,1.9,4.4,4.9L618.1,1546.5L618.1,1546.5z"/>
		</g>
	</g>
	<g id="Black-M">
		<g>
		<path id="Black-M" d="M2989,1056.3c-1.7,0-3.5,0.5-5.1,1.5l-17.9,11.5v-10.8
			c0-7.8-6.3-14.1-14.1-14.1h-67.1c-7.8,0-14.1,6.3-14.1,14.1v64.2c0,7.8,6.3,14.1,14.1,14.1h67.1c7.8,0,14.1-6.3,14.1-14.1v-11
			l18.1,11.1c1.8,1.1,3.8,1.7,5.7,1.7c3.9,0,7.2-2.3,7.2-6.7v-53.9C2996.9,1059.2,2993.2,1056.3,2989,1056.3z M2885.5,1119.6v-58
			c0-1.2,1-2.2,2.2-2.2h61c1.2,0,2.2,1,2.2,2.2v58c0,1.2-1,2.2-2.2,2.2h-61C2886.5,1121.8,2885.5,1120.8,2885.5,1119.6z
			 M2981.2,1103.5l-15.3-9.3v-7l15.3-9.8c0.3-0.2,0.7,0,0.7,0.4v25.3C2981.9,1103.4,2981.5,1103.7,2981.2,1103.5z"/>
		</g>
	</g>
	<g id="Heavy-M">
		<g>
		<path id="Heavy-M" d="M2688.4,1060.7c-1.4,0-2.9,0.4-4.2,1.3l-14.8,10.1
			v-11.8c0-7.8-6.3-14.1-14.1-14.1h-68.8c-7.8,0-14.1,6.3-14.1,14.1v61.7c0,7.8,6.3,14.1,14.1,14.1h68.8c7.8,0,14.1-6.3,14.1-14.1
			v-11.5l14.9,9.7c1.6,1,3.4,1.6,5,1.6c3.2,0,5.9-2,5.9-5.8v-48.3C2695.2,1063.4,2692,1060.7,2688.4,1060.7z M2653,1123.1h-64.2
			c-1.9,0-3.4-1.5-3.4-3.4v-57.2c0-1.9,1.5-3.4,3.4-3.4h64.2c1.9,0,3.4,1.5,3.4,3.4v57.2C2656.4,1121.6,2654.8,1123.1,2653,1123.1z
			 M2682.2,1103.3l-12.8-8.3v-7.2l12.8-8.7V1103.3z"/>
		</g>
	</g>
	<g id="Bold-M">
		<path id="Bold-M" d="M2391.2,1060.3c-1.6,0-3.2,0.5-4.7,1.6l-15.6,11.3
			v-11.3c0-7.8-6.3-14.1-14.1-14.1h-65.3c-7.8,0-14.1,6.3-14.1,14.1v58.6c0,7.8,6.3,14.1,14.1,14.1h65.3c7.8,0,14.1-6.3,14.1-14.1
			v-10.4l15.7,10.8c1.6,1.1,3.4,1.7,5,1.7c3,0,5.4-1.9,5.4-5.7v-50.5C2397.1,1062.4,2394.4,1060.3,2391.2,1060.3z M2359.9,1120.5
			c0,1.7-1.4,3.1-3.1,3.1h-65.3c-1.7,0-3.1-1.4-3.1-3.1v-58.6c0-1.7,1.4-3.1,3.1-3.1h65.3c1.7,0,3.1,1.4,3.1,3.1V1120.5z
			 M2385.4,1106.7l-14.4-9.9v-10l14.4-10.4c0.3-0.2,0.7,0,0.7,0.4v29.6C2386.1,1106.7,2385.7,1106.9,2385.4,1106.7z"/>
		</g>
	</g>
	<g id="Semibold-M">
		<g>
		<path id="Semibold-M" d="M2092.3,1063.4c-1.4,0-2.9,0.5-4.3,1.4l-16.1,11.4
			v-11.6c0-7.8-6.3-14.1-14.1-14.1H1997c-7.8,0-14.1,6.3-14.1,14.1v56.6c0,7.8,6.3,14.1,14.1,14.1h60.8c7.8,0,14.1-6.3,14.1-14.1
			v-10.8l16.2,10.9c1.6,1.1,3.3,1.6,4.9,1.6c2.9,0,5.3-1.8,5.3-5.4v-47.8C2098.3,1065.7,2095.5,1063.4,2092.3,1063.4z
			 M2057.7,1125.3h-60.8c-2.3,0-4.1-1.9-4.1-4.1v-56.6c0-2.3,1.9-4.1,4.1-4.1h60.8c2.3,0,4.1,1.9,4.1,4.1v56.6
			C2061.9,1123.4,2060,1125.3,2057.7,1125.3z M2087.5,1108.9l-15.6-10.5v-10l15.6-11c0.4-0.3,0.9,0,0.9,0.4v30.6
			C2088.3,1108.8,2087.9,1109.1,2087.5,1108.9z"/>
		</g>
	</g>
	<g id="Medium-M">
		<g>
		<path id="Medium-M" d="M1792,1065.2c-1.3,0-2.6,0.4-3.8,1.3l-14.8,10.4
			v-12.1c0-7.8-6.3-14.1-14.1-14.1h-58c-7.8,0-14.1,6.3-14.1,14.1v54.9c0,7.8,6.3,14.1,14.1,14.1h58c7.8,0,14.1-6.3,14.1-14.1V1108
			l14.9,10c1.2,0.8,2.6,1.2,3.9,1.2c2.9,0,5.4-2,5.4-5.6V1071C1797.7,1067.4,1795,1065.2,1792,1065.2z M1759.3,1124.9h-58
			c-2.8,0-5.1-2.3-5.1-5.1v-54.9c0-2.8,2.3-5.1,5.1-5.1h58c2.8,0,5.1,2.3,5.1,5.1v54.9C1764.4,1122.6,1762.1,1124.9,1759.3,1124.9z
			 M1788.2,1107.1l-14.8-9.9v-9.2l14.8-10.4c0.2-0.1,0.5,0,0.5,0.3v29C1788.7,1107.1,1788.4,1107.2,1788.2,1107.1z"/>
		</g>
	</g>
	<g id="Regular-M">
		<g>
		<path id="Regular-M" d="M1496.4,1064.3c-1.2,0-2.4,0.3-3.5,1.1l-16.8,11.7
			v-11.8c0-7.8-6.3-14.1-14.1-14.1h-55.8c-7.8,0-14.1,6.3-14.1,14.1v52.7c0,7.8,6.3,14.1,14.1,14.1h55.8c7.8,0,14.1-6.3,14.1-14.1
			v-10.8l16.9,11.2c1.1,0.7,2.2,1,3.4,1c3.3,0,6.4-2.8,6.4-6.8v-41.5C1502.7,1067.1,1499.7,1064.3,1496.4,1064.3z M1468.1,1118.1
			c0,3.4-2.8,6.1-6.1,6.1h-55.8c-3.4,0-6.1-2.8-6.1-6.1v-52.7c0-3.4,2.8-6.1,6.1-6.1h55.8c3.4,0,6.1,2.8,6.1,6.1V1118.1z
			 M1494,1109.6l-17.9-11.9v-10.8l17.9-12.5c0.3-0.2,0.8,0,0.8,0.4v34.4C1494.7,1109.6,1494.3,1109.8,1494,1109.6z"/>
		</g>
	</g>
	<g id="Light-M">
		<g>
		<path id="Light-M" d="M1196.1,1066.9c-1.1,0-2.2,0.3-3.3,1.1l-17.6,12.4
			v-12.9c0-7.8-6.3-14.1-14.1-14.1h-51.4c-7.8,0-14.1,6.3-14.1,14.1v50.8c0,7.8,6.3,14.1,14.1,14.1h51.4c7.8,0,14.1-6.3,14.1-14.1
			v-12l17.7,11.9c1,0.7,2.1,1,3.1,1c3.1,0,6-2.7,6-6.4v-39.5C1202.1,1069.5,1199.2,1066.9,1196.1,1066.9z M1169.7,1118.3
			c0,4.7-3.8,8.5-8.5,8.5h-51.4c-4.7,0-8.5-3.8-8.5-8.5v-50.8c0-4.7,3.8-8.5,8.5-8.5h51.4c4.7,0,8.5,3.8,8.5,8.5V1118.3z
			 M1196,1113.5l-20.8-13.9v-12.3l20.8-14.7c0.2-0.1,0.5,0,0.5,0.2v40.4C1196.5,1113.5,1196.2,1113.6,1196,1113.5z"/>
		</g>
	</g>
	<g id="Thin-M">
		<g>
		<path id="Thin-M" d="M898.8,1069.2c-1,0-2.1,0.3-3,1l-18.5,13.1v-13.8
			c0-7.8-6.3-14.1-14.1-14.1h-45.6c-7.8,0-14.1,6.3-14.1,14.1v48.1c0,7.8,6.3,14.1,14.1,14.1h45.6c7.8,0,14.1-6.3,14.1-14.1v-12.8
			l18.6,12.5c0.9,0.6,2,0.9,2.9,0.9c2.9,0,5.6-2.5,5.6-6v-37C904.4,1071.6,901.7,1069.2,898.8,1069.2z M863.1,1128.5h-45.6
			c-6,0-10.9-4.9-10.9-10.9v-48.1c0-6,4.9-10.9,10.9-10.9h45.6c6,0,10.9,4.9,10.9,10.9v48.1C874,1123.6,869.1,1128.5,863.1,1128.5z
			 M901.2,1112.1c0,1.7-1.2,2.8-2.4,2.8c-0.4,0-0.8-0.1-1.2-0.4l-20.4-13.7v-13.7l20.4-14.3c0.4-0.3,0.8-0.4,1.2-0.4
			c1.1,0,2.4,1.1,2.4,2.8V1112.1z"/>
		</g>
	</g>
	<g id="Ultralight-M">
		<g>
		<path id="Ultralight-M" d="M601.9,1068.6c-1,0-2.1,0.3-3,1l-19.7,13.9v-14c0-7.8-6.3-14.1-14.1-14.1h-45.6
			c-7.8,0-14.1,6.3-14.1,14.1v46.7c0,7.8,6.3,14.1,14.1,14.1h45.6c7.8,0,14.1-6.3,14.1-14.1v-13l19.9,13.3c0.9,0.6,2,0.9,2.9,0.9
			c2.9,0,5.6-2.5,5.6-6v-37C607.5,1071,604.8,1068.6,601.9,1068.6z M577.2,1116.2c0,6.7-5.4,12.1-12.1,12.1h-45.6
			c-6.7,0-12.1-5.4-12.1-12.1v-46.7c0-6.7,5.4-12.1,12.1-12.1h45.6c6.7,0,12.1,5.4,12.1,12.1V1116.2z M605.5,1111.5
			c0,2.5-1.9,4-3.6,4c-0.6,0-1.3-0.2-1.8-0.6l-21-14v-15l21-14.7c0.6-0.4,1.2-0.6,1.9-0.6c1.7,0,3.6,1.5,3.6,4L605.5,1111.5z"/>
		</g>
	</g>
	<g id="Black-S">
		<g>
		<path id="Black-S" d="M2975.3,632.5c-1.4,0-2.7,0.4-4,1.2l-16.5,10.3v-6.3
			c0-7.8-6.3-14.1-14.1-14.1h-46.9c-7.8,0-14.1,6.3-14.1,14.1v47.2c0,7.8,6.3,14.1,14.1,14.1h46.9c7.8,0,14.1-6.3,14.1-14.1v-6
			l16.6,9.9c1.2,0.7,2.6,1.1,3.9,1.1c3.8,0,7.4-2.9,7.4-7v-43.4C2982.6,635.4,2979.1,632.5,2975.3,632.5z M2942.6,684.9
			c0,1.1-0.9,1.9-1.9,1.9h-46.9c-1.1,0-1.9-0.9-1.9-1.9v-47.2c0-1.1,0.9-1.9,1.9-1.9h46.9c1.1,0,1.9,0.9,1.9,1.9V684.9z
			 M2969.4,673.4l-14.6-8.7v-6.3l14.6-9.1c0.5-0.3,1.1,0,1.1,0.6v23C2970.4,673.3,2969.8,673.7,2969.4,673.4z"/>
		</g>
	</g>
	<g id="Heavy-S">
		<g>
		<path id="Heavy-S" d="M2676.3,636.6c-1.2,0-2.5,0.3-3.7,1l-15.3,9.4v-7.4
			c0-7.8-6.3-14.1-14.1-14.1H2598c-7.8,0-14.1,6.3-14.1,14.1v45.8c0,7.8,6.3,14.1,14.1,14.1h45.2c7.8,0,14.1-6.3,14.1-14.1v-7.2
			l15.4,9c1.1,0.7,2.4,1,3.6,1c3.5,0,6.7-2.6,6.7-6.3v-39C2683,639.2,2679.8,636.6,2676.3,636.6z M2646.3,685.4
			c0,1.7-1.4,3.1-3.1,3.1H2598c-1.7,0-3.1-1.4-3.1-3.1v-45.8c0-1.7,1.4-3.1,3.1-3.1h45.2c1.7,0,3.1,1.4,3.1,3.1V685.4z
			 M2671.1,673.5l-13.7-8v-5.6l13.7-8.4c0.4-0.3,1,0,1,0.6V673C2672,673.5,2671.5,673.8,2671.1,673.5z"/>
		</g>
	</g>
	<g id="Bold-S">
		<g>
		<path id="Bold-S" d="M2377.3,636.4c-1.2,0-2.4,0.3-3.5,1.1l-15.5,10.2v-7.1
			c0-7.8-6.3-14.1-14.1-14.1h-41.9c-7.8,0-14.1,6.3-14.1,14.1v44.5c0,7.8,6.3,14.1,14.1,14.1h41.9c7.8,0,14.1-6.3,14.1-14.1v-6.8
			l15.6,9.7c1.1,0.7,2.3,1,3.4,1c3.4,0,6.4-2.7,6.4-6.4v-39.7C2383.8,639.1,2380.7,636.4,2377.3,636.4z M2348.7,685.1
			c0,2.5-2,4.5-4.5,4.5h-41.9c-2.5,0-4.5-2-4.5-4.5v-44.5c0-2.5,2-4.5,4.5-4.5h41.9c2.5,0,4.5,2,4.5,4.5V685.1z M2373.4,676.4
			l-15.1-9.4v-7.8l15-9.9c0.3-0.2,0.8,0,0.8,0.4V676C2374.2,676.4,2373.7,676.6,2373.4,676.4z"/>
		</g>
	</g>
	<g id="Semibold-S">
		<g>
		<path id="Semibold-S" d="M2080,637.6c-1.1,0-2.3,0.3-3.4,1l-15.7,10.3v-7.6
			c0-7.8-6.3-14.1-14.1-14.1h-41.5c-7.8,0-14.1,6.3-14.1,14.1v43.6c0,7.8,6.3,14.1,14.1,14.1h41.5c7.8,0,14.1-6.3,14.1-14.1v-7.1
			l15.8,9.9c1.1,0.7,2.2,1,3.3,1c3.2,0,6.2-2.6,6.2-6.2v-38.6C2086.3,640.2,2083.3,637.6,2080,637.6z M2052.3,684.9
			c0,3.1-2.5,5.5-5.5,5.5h-41.5c-3.1,0-5.5-2.5-5.5-5.5v-43.5c0-3.1,2.5-5.5,5.5-5.5h41.5c3.1,0,5.5,2.5,5.5,5.5V684.9z
			 M2076.9,677.6l-16-10v-8.4l16-10.5c0.3-0.2,0.8,0,0.8,0.4v28C2077.7,677.6,2077.2,677.8,2076.9,677.6z"/>
		</g>
	</g>
	<g id="Medium-S">
		<g>
		<path id="Medium-S" d="M1784.8,637.5c-1.3,0-2.7,0.4-4,1.2l-16.3,10.7v-7.5
			c0-7.8-6.3-14.1-14.1-14.1h-40.9c-7.8,0-14.1,6.3-14.1,14.1v42.6c0,7.8,6.3,14.1,14.1,14.1h40.9c7.8,0,14.1-6.3,14.1-14.1v-7
			l16.4,10.3c1.3,0.8,2.7,1.2,4,1.2c3,0,5.6-1.9,5.6-5.3V643C1790.4,639.5,1787.8,637.5,1784.8,637.5z M1756.5,684.5
			c0,3.4-2.8,6.1-6.1,6.1h-40.9c-3.4,0-6.1-2.8-6.1-6.1v-42.6c0-3.4,2.8-6.1,6.1-6.1h40.9c3.4,0,6.1,2.8,6.1,6.1V684.5z
			 M1781.6,678.7l-17.1-10.7v-9l17.1-11.2c0.4-0.2,0.9,0,0.9,0.5v30C1782.4,678.7,1781.9,679,1781.6,678.7z"/>
		</g>
	</g>
	<g id="Regular-S">
		<g>
		<path id="Regular-S" d="M1485.8,638.8c-1.3,0-2.6,0.4-3.8,1.2l-16.5,10.8
			v-8.1c0-7.8-6.3-14.1-14.1-14.1h-38.9c-7.8,0-14.1,6.3-14.1,14.1v41.7c0,7.8,6.3,14.1,14.1,14.1h38.9c7.8,0,14.1-6.3,14.1-14.1
			v-7.5l16.6,10.4c1.2,0.7,2.5,1.1,3.7,1.1c2.9,0,5.5-2,5.5-5.3v-39C1491.3,640.7,1488.7,638.8,1485.8,638.8z M1451.3,691.5h-38.9
			c-3.9,0-7.1-3.2-7.1-7.1v-41.7c0-3.9,3.2-7.1,7.1-7.1h38.9c3.9,0,7.1,3.2,7.1,7.1v41.7C1458.4,688.3,1455.2,691.5,1451.3,691.5z
			 M1483.5,680l-18.1-11.3v-9.5l18.1-11.9c0.3-0.2,0.8,0,0.8,0.4v31.8C1484.3,679.9,1483.8,680.2,1483.5,680z"/>
		</g>
	</g>
	<g id="Light-S">
		<g>
		<path id="Light-S" d="M1188.5,639.3c-1.1,0-2.2,0.3-3.2,1l-17.8,11.7v-8.8
			c0-7.8-6.3-14.1-14.1-14.1h-36c-7.8,0-14.1,6.3-14.1,14.1v40.2c0,7.8,6.3,14.1,14.1,14.1h36c7.8,0,14.1-6.3,14.1-14.1v-8
			l17.9,11.2c1,0.6,2.1,0.9,3.1,0.9c3.1,0,5.9-2.5,5.9-5.9v-36.5C1194.4,641.7,1191.5,639.3,1188.5,639.3z M1153.3,692.4h-36
			c-4.9,0-8.9-4-8.9-8.9v-40.2c0-4.9,4-8.9,8.9-8.9h36c4.9,0,8.9,4,8.9,8.9v40.2C1162.2,688.4,1158.2,692.4,1153.3,692.4z
			 M1189.2,681.6c0,0.6-0.6,0.7-0.7,0.7s-0.2,0-0.4-0.1l-20.7-12.9v-11.1l20.7-13.6c0.2-0.1,0.3-0.1,0.4-0.1c0,0,0.7,0,0.7,0.7
			V681.6z"/>
		</g>
	</g>
	<g id="Thin-S">
		<g>
		<path id="Thin-S" d="M891,639.8c-1,0-2,0.3-3,0.9l-18.4,12.6V644
			c0-7.8-6.3-14.1-14.1-14.1h-32.1c-7.8,0-14.1,6.3-14.1,14.1v38.1c0,7.8,6.3,14.1,14.1,14.1h32.1c7.8,0,14.1-6.3,14.1-14.1v-8.5
			l18.5,12c0.9,0.6,1.9,0.9,2.9,0.9c2.9,0,5.5-2.4,5.5-5.7v-35.3C896.5,642.2,893.9,639.8,891,639.8z M855.5,693.3h-32.1
			c-6.1,0-11.1-5-11.1-11.1v-38.1c0-6.1,5-11.1,11.1-11.1h32.1c6.1,0,11.1,5,11.1,11.1v38.1C866.6,688.3,861.6,693.3,855.5,693.3z
			 M893.5,680.9c0,1.7-1.3,2.7-2.5,2.7c-0.4,0-0.9-0.1-1.3-0.4l-20.2-13.1V657l20.1-13.8c0.4-0.3,0.9-0.4,1.3-0.4
			c1.2,0,2.5,1,2.5,2.7v35.4L893.5,680.9L893.5,680.9z"/>
		</g>
	</g>
	<g id="Ultralight-S">
		<g>
		<path id="Ultralight-S" d="M594.7,640.6c-1,0-2.1,0.3-3,0.9l-19.7,13v-9.6
			c0-7.8-6.3-14.1-14.1-14.1h-29.6c-7.8,0-14.1,6.3-14.1,14.1V682c0,7.8,6.3,14.1,14.1,14.1h29.6c7.8,0,14.1-6.3,14.1-14.1v-9.1
			l19.9,12.4c0.9,0.6,2,0.9,2.9,0.9c2.9,0,5.6-2.3,5.6-5.6v-34.4C600.3,642.9,597.6,640.6,594.7,640.6z M569.9,682.1
			c0,6.7-5.4,12.1-12.1,12.1h-29.6c-6.7,0-12.1-5.4-12.1-12.1V645c0-6.7,5.4-12.1,12.1-12.1h29.6c6.7,0,12.1,5.4,12.1,12.1V682.1z
			 M598.3,680.6c0,2.2-1.9,3.6-3.6,3.6c-0.7,0-1.3-0.2-1.9-0.6l-20.9-13.1v-13.7l20.8-13.7c0.6-0.4,1.3-0.6,1.9-0.6
			c1.7,0,3.6,1.4,3.6,3.6L598.3,680.6L598.3,680.6z"/>
		</g>
	</g>
</svg>
