<svg fill="none" viewBox="0 0 32 32" xmlns="http://www.w3.org/2000/svg"><g filter="url(#ab)"><path d="m28.719 6.3964c0.0976 0.09766 0.0976 0.25592 0 0.35358l-13.017 13.034c-0.0119 0.012-0.0235 0.0243-0.0348 0.0368-0.1557 0.1737-0.2462 0.3969-0.2547 0.631l-0.0116 0.3164c-0.0186 0.5048-0.2273 0.9839-0.5845 1.341l-7.0098 7.0098c-0.09765 0.0976-0.25586 0.0976-0.35351 0l-3.1777-3.1778c-0.09765-0.0976-0.09765-0.2559 0-0.3535l7.014-7.014c0.3547-0.3546 0.8295-0.5631 1.3306-0.584l0.3256-0.0137c0.2492-0.0104 0.4856-0.1136 0.6627-0.2894l0.256-0.2541 0.0019 0.0019 12.759-12.778c0.0977-0.09766 0.2559-0.09766 0.3535 0l1.7403 1.7402z" fill="#A3796E"/><path d="m28.719 6.3964c0.0976 0.09766 0.0976 0.25592 0 0.35358l-13.017 13.034c-0.0119 0.012-0.0235 0.0243-0.0348 0.0368-0.1557 0.1737-0.2462 0.3969-0.2547 0.631l-0.0116 0.3164c-0.0186 0.5048-0.2273 0.9839-0.5845 1.341l-7.0098 7.0098c-0.09765 0.0976-0.25586 0.0976-0.35351 0l-3.1777-3.1778c-0.09765-0.0976-0.09765-0.2559 0-0.3535l7.014-7.014c0.3547-0.3546 0.8295-0.5631 1.3306-0.584l0.3256-0.0137c0.2492-0.0104 0.4856-0.1136 0.6627-0.2894l0.256-0.2541 0.0019 0.0019 12.759-12.778c0.0977-0.09766 0.2559-0.09766 0.3535 0l1.7403 1.7402z" fill="url(#u)"/><path d="m28.719 6.3964c0.0976 0.09766 0.0976 0.25592 0 0.35358l-13.017 13.034c-0.0119 0.012-0.0235 0.0243-0.0348 0.0368-0.1557 0.1737-0.2462 0.3969-0.2547 0.631l-0.0116 0.3164c-0.0186 0.5048-0.2273 0.9839-0.5845 1.341l-7.0098 7.0098c-0.09765 0.0976-0.25586 0.0976-0.35351 0l-3.1777-3.1778c-0.09765-0.0976-0.09765-0.2559 0-0.3535l7.014-7.014c0.3547-0.3546 0.8295-0.5631 1.3306-0.584l0.3256-0.0137c0.2492-0.0104 0.4856-0.1136 0.6627-0.2894l0.256-0.2541 0.0019 0.0019 12.759-12.778c0.0977-0.09766 0.2559-0.09766 0.3535 0l1.7403 1.7402z" fill="url(#j)"/></g><path d="m28.719 6.3964c0.0976 0.09766 0.0976 0.25592 0 0.35358l-13.017 13.034c-0.0119 0.012-0.0235 0.0243-0.0348 0.0368-0.1557 0.1737-0.2462 0.3969-0.2547 0.631l-0.0116 0.3164c-0.0186 0.5048-0.2273 0.9839-0.5845 1.341l-7.0098 7.0098c-0.09765 0.0976-0.25586 0.0976-0.35351 0l-3.1777-3.1778c-0.09765-0.0976-0.09765-0.2559 0-0.3535l7.014-7.014c0.3547-0.3546 0.8295-0.5631 1.3306-0.584l0.3256-0.0137c0.2492-0.0104 0.4856-0.1136 0.6627-0.2894l0.256-0.2541 0.0019 0.0019 12.759-12.778c0.0977-0.09766 0.2559-0.09766 0.3535 0l1.7403 1.7402z" fill="url(#h)"/><path d="m28.719 6.3964c0.0976 0.09766 0.0976 0.25592 0 0.35358l-13.017 13.034c-0.0119 0.012-0.0235 0.0243-0.0348 0.0368-0.1557 0.1737-0.2462 0.3969-0.2547 0.631l-0.0116 0.3164c-0.0186 0.5048-0.2273 0.9839-0.5845 1.341l-7.0098 7.0098c-0.09765 0.0976-0.25586 0.0976-0.35351 0l-3.1777-3.1778c-0.09765-0.0976-0.09765-0.2559 0-0.3535l7.014-7.014c0.3547-0.3546 0.8295-0.5631 1.3306-0.584l0.3256-0.0137c0.2492-0.0104 0.4856-0.1136 0.6627-0.2894l0.256-0.2541 0.0019 0.0019 12.759-12.778c0.0977-0.09766 0.2559-0.09766 0.3535 0l1.7403 1.7402z" fill="url(#g)"/><path d="m28.719 6.3964c0.0976 0.09766 0.0976 0.25592 0 0.35358l-13.017 13.034c-0.0119 0.012-0.0235 0.0243-0.0348 0.0368-0.1557 0.1737-0.2462 0.3969-0.2547 0.631l-0.0116 0.3164c-0.0186 0.5048-0.2273 0.9839-0.5845 1.341l-7.0098 7.0098c-0.09765 0.0976-0.25586 0.0976-0.35351 0l-3.1777-3.1778c-0.09765-0.0976-0.09765-0.2559 0-0.3535l7.014-7.014c0.3547-0.3546 0.8295-0.5631 1.3306-0.584l0.3256-0.0137c0.2492-0.0104 0.4856-0.1136 0.6627-0.2894l0.256-0.2541 0.0019 0.0019 12.759-12.778c0.0977-0.09766 0.2559-0.09766 0.3535 0l1.7403 1.7402z" fill="url(#f)"/><path d="m28.719 6.3964c0.0976 0.09766 0.0976 0.25592 0 0.35358l-13.017 13.034c-0.0119 0.012-0.0235 0.0243-0.0348 0.0368-0.1557 0.1737-0.2462 0.3969-0.2547 0.631l-0.0116 0.3164c-0.0186 0.5048-0.2273 0.9839-0.5845 1.341l-7.0098 7.0098c-0.09765 0.0976-0.25586 0.0976-0.35351 0l-3.1777-3.1778c-0.09765-0.0976-0.09765-0.2559 0-0.3535l7.014-7.014c0.3547-0.3546 0.8295-0.5631 1.3306-0.584l0.3256-0.0137c0.2492-0.0104 0.4856-0.1136 0.6627-0.2894l0.256-0.2541 0.0019 0.0019 12.759-12.778c0.0977-0.09766 0.2559-0.09766 0.3535 0l1.7403 1.7402z" fill="url(#e)"/><path d="m28.719 6.3964c0.0976 0.09766 0.0976 0.25592 0 0.35358l-13.017 13.034c-0.0119 0.012-0.0235 0.0243-0.0348 0.0368-0.1557 0.1737-0.2462 0.3969-0.2547 0.631l-0.0116 0.3164c-0.0186 0.5048-0.2273 0.9839-0.5845 1.341l-7.0098 7.0098c-0.09765 0.0976-0.25586 0.0976-0.35351 0l-3.1777-3.1778c-0.09765-0.0976-0.09765-0.2559 0-0.3535l7.014-7.014c0.3547-0.3546 0.8295-0.5631 1.3306-0.584l0.3256-0.0137c0.2492-0.0104 0.4856-0.1136 0.6627-0.2894l0.256-0.2541 0.0019 0.0019 12.759-12.778c0.0977-0.09766 0.2559-0.09766 0.3535 0l1.7403 1.7402z" fill="url(#d)"/><g filter="url(#aa)"><path d="m23.591 2.6608c-0.4881-0.48816-1.2796-0.48816-1.7677-1e-5l-3.5057 3.5057c-0.4881 0.48815-0.4881 1.2796 0 1.7678l7.4366 7.4366c0.9755 0.9755 2.6437 0.4912 2.9451-0.855l0.5133-2.292c0.449-2.0052-0.1594-4.1008-1.6124-5.5538l-4.0092-4.0092z" fill="url(#c)"/><path d="m23.591 2.6608c-0.4881-0.48816-1.2796-0.48816-1.7677-1e-5l-3.5057 3.5057c-0.4881 0.48815-0.4881 1.2796 0 1.7678l7.4366 7.4366c0.9755 0.9755 2.6437 0.4912 2.9451-0.855l0.5133-2.292c0.449-2.0052-0.1594-4.1008-1.6124-5.5538l-4.0092-4.0092z" fill="url(#b)"/><path d="m23.591 2.6608c-0.4881-0.48816-1.2796-0.48816-1.7677-1e-5l-3.5057 3.5057c-0.4881 0.48815-0.4881 1.2796 0 1.7678l7.4366 7.4366c0.9755 0.9755 2.6437 0.4912 2.9451-0.855l0.5133-2.292c0.449-2.0052-0.1594-4.1008-1.6124-5.5538l-4.0092-4.0092z" fill="url(#a)"/></g><g filter="url(#z)"><path d="m4.0596 6.8154c-0.09766 0.09765-0.09766 0.25592 0 0.35358l12.454 12.452c0.012 0.012 0.0236 0.0242 0.0348 0.0368 0.1557 0.1736 0.2462 0.3968 0.2547 0.631l0.0116 0.3164c0.0186 0.5047 0.2273 0.9838 0.5845 1.341l7.0098 7.0097c0.0976 0.0976 0.2558 0.0976 0.3535 0l3.1777-3.1777c0.0977-0.0976 0.0977-0.2559 0-0.3536l-7.014-7.014c-0.3546-0.3545-0.8295-0.563-1.3306-0.584l-0.3255-0.0136c-0.2493-0.0105-0.4856-0.1137-0.6628-0.2894l-0.2559-0.2542-2e-3 2e-3 -12.196-12.196c-0.09766-0.09766-0.25586-0.09766-0.35352 0l-1.7402 1.7402z" fill="#A3796E"/><path d="m4.0596 6.8154c-0.09766 0.09765-0.09766 0.25592 0 0.35358l12.454 12.452c0.012 0.012 0.0236 0.0242 0.0348 0.0368 0.1557 0.1736 0.2462 0.3968 0.2547 0.631l0.0116 0.3164c0.0186 0.5047 0.2273 0.9838 0.5845 1.341l7.0098 7.0097c0.0976 0.0976 0.2558 0.0976 0.3535 0l3.1777-3.1777c0.0977-0.0976 0.0977-0.2559 0-0.3536l-7.014-7.014c-0.3546-0.3545-0.8295-0.563-1.3306-0.584l-0.3255-0.0136c-0.2493-0.0105-0.4856-0.1137-0.6628-0.2894l-0.2559-0.2542-2e-3 2e-3 -12.196-12.196c-0.09766-0.09766-0.25586-0.09766-0.35352 0l-1.7402 1.7402z" fill="url(#t)"/><path d="m4.0596 6.8154c-0.09766 0.09765-0.09766 0.25592 0 0.35358l12.454 12.452c0.012 0.012 0.0236 0.0242 0.0348 0.0368 0.1557 0.1736 0.2462 0.3968 0.2547 0.631l0.0116 0.3164c0.0186 0.5047 0.2273 0.9838 0.5845 1.341l7.0098 7.0097c0.0976 0.0976 0.2558 0.0976 0.3535 0l3.1777-3.1777c0.0977-0.0976 0.0977-0.2559 0-0.3536l-7.014-7.014c-0.3546-0.3545-0.8295-0.563-1.3306-0.584l-0.3255-0.0136c-0.2493-0.0105-0.4856-0.1137-0.6628-0.2894l-0.2559-0.2542-2e-3 2e-3 -12.196-12.196c-0.09766-0.09766-0.25586-0.09766-0.35352 0l-1.7402 1.7402z" fill="url(#s)"/></g><path d="m4.0596 6.8154c-0.09766 0.09765-0.09766 0.25592 0 0.35358l12.454 12.452c0.012 0.012 0.0236 0.0242 0.0348 0.0368 0.1557 0.1736 0.2462 0.3968 0.2547 0.631l0.0116 0.3164c0.0186 0.5047 0.2273 0.9838 0.5845 1.341l7.0098 7.0097c0.0976 0.0976 0.2558 0.0976 0.3535 0l3.1777-3.1777c0.0977-0.0976 0.0977-0.2559 0-0.3536l-7.014-7.014c-0.3546-0.3545-0.8295-0.563-1.3306-0.584l-0.3255-0.0136c-0.2493-0.0105-0.4856-0.1137-0.6628-0.2894l-0.2559-0.2542-2e-3 2e-3 -12.196-12.196c-0.09766-0.09766-0.25586-0.09766-0.35352 0l-1.7402 1.7402z" fill="url(#r)"/><path d="m4.0596 6.8154c-0.09766 0.09765-0.09766 0.25592 0 0.35358l12.454 12.452c0.012 0.012 0.0236 0.0242 0.0348 0.0368 0.1557 0.1736 0.2462 0.3968 0.2547 0.631l0.0116 0.3164c0.0186 0.5047 0.2273 0.9838 0.5845 1.341l7.0098 7.0097c0.0976 0.0976 0.2558 0.0976 0.3535 0l3.1777-3.1777c0.0977-0.0976 0.0977-0.2559 0-0.3536l-7.014-7.014c-0.3546-0.3545-0.8295-0.563-1.3306-0.584l-0.3255-0.0136c-0.2493-0.0105-0.4856-0.1137-0.6628-0.2894l-0.2559-0.2542-2e-3 2e-3 -12.196-12.196c-0.09766-0.09766-0.25586-0.09766-0.35352 0l-1.7402 1.7402z" fill="url(#q)"/><path d="m4.0596 6.8154c-0.09766 0.09765-0.09766 0.25592 0 0.35358l12.454 12.452c0.012 0.012 0.0236 0.0242 0.0348 0.0368 0.1557 0.1736 0.2462 0.3968 0.2547 0.631l0.0116 0.3164c0.0186 0.5047 0.2273 0.9838 0.5845 1.341l7.0098 7.0097c0.0976 0.0976 0.2558 0.0976 0.3535 0l3.1777-3.1777c0.0977-0.0976 0.0977-0.2559 0-0.3536l-7.014-7.014c-0.3546-0.3545-0.8295-0.563-1.3306-0.584l-0.3255-0.0136c-0.2493-0.0105-0.4856-0.1137-0.6628-0.2894l-0.2559-0.2542-2e-3 2e-3 -12.196-12.196c-0.09766-0.09766-0.25586-0.09766-0.35352 0l-1.7402 1.7402z" fill="url(#p)"/><g filter="url(#y)"><rect transform="rotate(-45 10.699 11.308)" x="10.699" y="11.308" width=".64082" height="10.104" fill="url(#o)"/></g><g filter="url(#x)"><rect transform="rotate(-45 18.875 20.234)" x="18.875" y="20.234" width="2.0992" height="9.8553" fill="url(#n)"/></g><g filter="url(#w)"><rect transform="matrix(-.70711 -.70711 -.70711 .70711 14.477 21.055)" width="2.0992" height="10.33" fill="url(#m)"/></g><g filter="url(#v)"><path d="m9.7859 2.2767c0.31237-0.31242 0.81897-0.31242 1.1314 0l4.142 4.142c0.3125 0.31242 0.3125 0.81896 0 1.1314l-8.4545 8.4546c-0.31242 0.3124-0.81895 0.3124-1.1314 0l-4.142-4.1421c-0.31242-0.3124-0.31242-0.8189 0-1.1314l8.4546-8.4545z" fill="url(#l)"/><path d="m9.7859 2.2767c0.31237-0.31242 0.81897-0.31242 1.1314 0l4.142 4.142c0.3125 0.31242 0.3125 0.81896 0 1.1314l-8.4545 8.4546c-0.31242 0.3124-0.81895 0.3124-1.1314 0l-4.142-4.1421c-0.31242-0.3124-0.31242-0.8189 0-1.1314l8.4546-8.4545z" fill="url(#k)"/><path d="m9.7859 2.2767c0.31237-0.31242 0.81897-0.31242 1.1314 0l4.142 4.142c0.3125 0.31242 0.3125 0.81896 0 1.1314l-8.4545 8.4546c-0.31242 0.3124-0.81895 0.3124-1.1314 0l-4.142-4.1421c-0.31242-0.3124-0.31242-0.8189 0-1.1314l8.4546-8.4545z" fill="url(#i)"/></g><defs><filter id="ab" x="4.2017" y="4.433" width="24.59" height="24.759" color-interpolation-filters="sRGB" filterUnits="userSpaceOnUse"><feFlood flood-opacity="0" result="BackgroundImageFix"/><feBlend in="SourceGraphic" in2="BackgroundImageFix" result="shape"/><feColorMatrix in="SourceAlpha" result="hardAlpha" values="0 0 0 0 0 0 0 0 0 0 0 0 0 0 0 0 0 0 127 0"/><feOffset dy="-0.15"/><feGaussianBlur stdDeviation="0.15"/><feComposite in2="hardAlpha" k2="-1" k3="1" operator="arithmetic"/><feColorMatrix values="0 0 0 0 0.643137 0 0 0 0 0.384314 0 0 0 0 0.737255 0 0 0 1 0"/><feBlend in2="shape" result="effect1_innerShadow_18_23875"/></filter><filter id="aa" x="17.452" y="2.2947" width="11.906" height="13.69" color-interpolation-filters="sRGB" filterUnits="userSpaceOnUse"><feFlood flood-opacity="0" result="BackgroundImageFix"/><feBlend in="SourceGraphic" in2="BackgroundImageFix" result="shape"/><feColorMatrix in="SourceAlpha" result="hardAlpha" values="0 0 0 0 0 0 0 0 0 0 0 0 0 0 0 0 0 0 127 0"/><feOffset dx="-0.5" dy="0.1"/><feGaussianBlur stdDeviation="0.375"/><feComposite in2="hardAlpha" k2="-1" k3="1" operator="arithmetic"/><feColorMatrix values="0 0 0 0 0.866667 0 0 0 0 0.847059 0 0 0 0 0.894118 0 0 0 1 0"/><feBlend in2="shape" result="effect1_innerShadow_18_23875"/></filter><filter id="z" x="3.9863" y="4.852" width="24.027" height="24.177" color-interpolation-filters="sRGB" filterUnits="userSpaceOnUse"><feFlood flood-opacity="0" result="BackgroundImageFix"/><feBlend in="SourceGraphic" in2="BackgroundImageFix" result="shape"/><feColorMatrix in="SourceAlpha" result="hardAlpha" values="0 0 0 0 0 0 0 0 0 0 0 0 0 0 0 0 0 0 127 0"/><feOffset dy="-0.15"/><feGaussianBlur stdDeviation="0.15"/><feComposite in2="hardAlpha" k2="-1" k3="1" operator="arithmetic"/><feColorMatrix values="0 0 0 0 0.643137 0 0 0 0 0.384314 0 0 0 0 0.737255 0 0 0 1 0"/><feBlend in2="shape" result="effect1_innerShadow_18_23875"/></filter><filter id="y" x="10.099" y="10.255" width="8.7978" height="8.7978" color-interpolation-filters="sRGB" filterUnits="userSpaceOnUse"><feFlood flood-opacity="0" result="BackgroundImageFix"/><feBlend in="SourceGraphic" in2="BackgroundImageFix" result="shape"/><feGaussianBlur result="effect1_foregroundBlur_18_23875" stdDeviation="0.3"/></filter><filter id="x" x="17.675" y="17.55" width="10.853" height="10.853" color-interpolation-filters="sRGB" filterUnits="userSpaceOnUse"><feFlood flood-opacity="0" result="BackgroundImageFix"/><feBlend in="SourceGraphic" in2="BackgroundImageFix" result="shape"/><feGaussianBlur result="effect1_foregroundBlur_18_23875" stdDeviation="0.6"/></filter><filter id="w" x="4.4875" y="18.37" width="11.189" height="11.189" color-interpolation-filters="sRGB" filterUnits="userSpaceOnUse"><feFlood flood-opacity="0" result="BackgroundImageFix"/><feBlend in="SourceGraphic" in2="BackgroundImageFix" result="shape"/><feGaussianBlur result="effect1_foregroundBlur_18_23875" stdDeviation="0.6"/></filter><filter id="v" x="1.097" y="1.5424" width="14.197" height="14.697" color-interpolation-filters="sRGB" filterUnits="userSpaceOnUse"><feFlood flood-opacity="0" result="BackgroundImageFix"/><feBlend in="SourceGraphic" in2="BackgroundImageFix" result="shape"/><feColorMatrix in="SourceAlpha" result="hardAlpha" values="0 0 0 0 0 0 0 0 0 0 0 0 0 0 0 0 0 0 127 0"/><feOffset dy="-0.5"/><feGaussianBlur stdDeviation="0.325"/><feComposite in2="hardAlpha" k2="-1" k3="1" operator="arithmetic"/><feColorMatrix values="0 0 0 0 0.690196 0 0 0 0 0.572549 0 0 0 0 0.8 0 0 0 1 0"/><feBlend in2="shape" result="effect1_innerShadow_18_23875"/></filter><linearGradient id="u" x1="2.9838" x2="7.8668" y1="26.778" y2="21.895" gradientUnits="userSpaceOnUse"><stop stop-color="#7F494F" offset=".064748"/><stop stop-color="#7F494F" stop-opacity="0" offset="1"/></linearGradient><linearGradient id="j" x1="17.176" x2="13.172" y1="19.717" y2="15.572" gradientUnits="userSpaceOnUse"><stop stop-color="#733464" offset=".057708"/><stop stop-color="#7C425A" stop-opacity="0" offset="1"/></linearGradient><radialGradient id="h" cx="0" cy="0" r="1" gradientTransform="translate(15.547 18.312) rotate(131.53) scale(2.9222 7.2446)" gradientUnits="userSpaceOnUse"><stop stop-color="#5C2E34" offset="0"/><stop stop-color="#5C2E34" stop-opacity="0" offset="1"/></radialGradient><linearGradient id="g" x1="29.109" x2="16.141" y1="5.0625" y2="18.25" gradientUnits="userSpaceOnUse"><stop stop-color="#603345" offset=".47062"/><stop stop-color="#603345" stop-opacity="0" offset="1"/></linearGradient><radialGradient id="f" cx="0" cy="0" r="1" gradientTransform="translate(4.0156 25.75) rotate(-45.16) scale(7.8887 1.4588)" gradientUnits="userSpaceOnUse"><stop stop-color="#A68B85" offset="0"/><stop stop-color="#A68B85" stop-opacity="0" offset="1"/></radialGradient><radialGradient id="e" cx="0" cy="0" r="1" gradientTransform="translate(13.875 20.047) rotate(132.27) scale(.46456 1.4974)" gradientUnits="userSpaceOnUse"><stop stop-color="#8D6A69" offset="0"/><stop stop-color="#8D6A69" stop-opacity="0" offset="1"/></radialGradient><radialGradient id="d" cx="0" cy="0" r="1" gradientTransform="translate(26.703 4.375) rotate(134.45) scale(13.878 1.8656)" gradientUnits="userSpaceOnUse"><stop stop-color="#715B5A" offset=".40675"/><stop stop-color="#715B5A" stop-opacity="0" offset="1"/></radialGradient><linearGradient id="c" x1="23.655" x2="26.256" y1="3.1611" y2="15.493" gradientUnits="userSpaceOnUse"><stop stop-color="#AA9EB8" offset="0"/><stop stop-color="#AF9FBF" offset="1"/></linearGradient><linearGradient id="b" x1="20.064" x2="21.575" y1="4.1678" y2="5.6276" gradientUnits="userSpaceOnUse"><stop stop-color="#9D99A1" offset="0"/><stop stop-color="#9D99A1" stop-opacity="0" offset="1"/></linearGradient><linearGradient id="a" x1="22.883" x2="24.041" y1="12.473" y2="11.316" gradientUnits="userSpaceOnUse"><stop stop-color="#906FAA" offset="0"/><stop stop-color="#AE98C3" stop-opacity="0" offset="1"/></linearGradient><linearGradient id="t" x1="29.232" x2="24.348" y1="26.616" y2="21.732" gradientUnits="userSpaceOnUse"><stop stop-color="#7F494F" offset=".064748"/><stop stop-color="#7F494F" stop-opacity="0" offset="1"/></linearGradient><linearGradient id="s" x1="15.039" x2="19.044" y1="19.554" y2="15.409" gradientUnits="userSpaceOnUse"><stop stop-color="#733464" offset=".057708"/><stop stop-color="#7C425A" stop-opacity="0" offset="1"/></linearGradient><radialGradient id="r" cx="0" cy="0" r="1" gradientTransform="translate(6.4531 5.002) rotate(110.87) scale(3.5094 3.0211)" gradientUnits="userSpaceOnUse"><stop stop-color="#603B37" offset="0"/><stop stop-color="#603B37" stop-opacity="0" offset="1"/></radialGradient><radialGradient id="q" cx="0" cy="0" r="1" gradientTransform="translate(10.203 11.156) rotate(45) scale(2.2318 5.679)" gradientUnits="userSpaceOnUse"><stop stop-color="#603B37" offset="0"/><stop stop-color="#603B37" stop-opacity="0" offset="1"/></radialGradient><radialGradient id="p" cx="0" cy="0" r="1" gradientTransform="translate(19.797 17.812) rotate(135) scale(3.403 1.5468)" gradientUnits="userSpaceOnUse"><stop stop-color="#794B41" offset="0"/><stop stop-color="#794B41" stop-opacity="0" offset="1"/></radialGradient><linearGradient id="o" x1="10.964" x2="11.02" y1="12.066" y2="21.413" gradientUnits="userSpaceOnUse"><stop stop-color="#8F6D6C" offset="0"/><stop stop-color="#926D6B" offset="1"/></linearGradient><linearGradient id="n" x1="19.744" x2="19.76" y1="20.973" y2="30.09" gradientUnits="userSpaceOnUse"><stop stop-color="#9A726D" offset="0"/><stop stop-color="#A0716E" offset="1"/></linearGradient><linearGradient id="m" x1=".49718" x2=".58766" y1="9.3471" y2=".17832" gradientUnits="userSpaceOnUse"><stop stop-color="#935C68" offset="0"/><stop stop-color="#8B5864" offset="1"/></linearGradient><linearGradient id="l" x1="8.1954" x2="8.1954" y1="4.875" y2="16.239" gradientUnits="userSpaceOnUse"><stop stop-color="#A99EB3" offset="0"/><stop stop-color="#BDA6D3" offset="1"/></linearGradient><linearGradient id="k" x1="5.0645" x2="5.8698" y1="7.037" y2="7.7416" gradientUnits="userSpaceOnUse"><stop stop-color="#9B95A2" offset="0"/><stop stop-color="#9B95A2" stop-opacity="0" offset="1"/></linearGradient><linearGradient id="i" x1="13.269" x2="12.59" y1="4.5705" y2="5.25" gradientUnits="userSpaceOnUse"><stop stop-color="#C4BDCC" offset=".10596"/><stop stop-color="#C4BDCC" stop-opacity="0" offset="1"/></linearGradient></defs></svg>
