<?xml version="1.0" encoding="UTF-8"?>
<!--Generator: Apple Native CoreSVG 232.5-->
<!DOCTYPE svg
PUBLIC "-//W3C//DTD SVG 1.1//EN"
       "http://www.w3.org/Graphics/SVG/1.1/DTD/svg11.dtd">
<svg version="1.1" xmlns="http://www.w3.org/2000/svg" xmlns:xlink="http://www.w3.org/1999/xlink" width="3300" height="2200">
 <!--glyph: "uni102102.medium", point size: 100.0, font version: "19.2d2e1", template writer version: "128"-->
 <style>.SFSymbolsPreviewWireframe {fill:none;opacity:1.0;stroke:black;stroke-width:0.5}
</style>
 <g id="Notes">
  <rect height="2200" id="artboard" style="fill:white;opacity:1" width="3300" x="0" y="0"/>
  <line style="fill:none;stroke:black;opacity:1;stroke-width:0.5;" x1="263" x2="3036" y1="292" y2="292"/>
  <text style="stroke:none;fill:black;font-family:sans-serif;font-size:13;font-weight:bold;" transform="matrix(1 0 0 1 263 322)">Weight/Scale Variations</text>
  <text style="stroke:none;fill:black;font-family:sans-serif;font-size:13;text-anchor:middle;" transform="matrix(1 0 0 1 559.711 322)">Ultralight</text>
  <text style="stroke:none;fill:black;font-family:sans-serif;font-size:13;text-anchor:middle;" transform="matrix(1 0 0 1 856.422 322)">Thin</text>
  <text style="stroke:none;fill:black;font-family:sans-serif;font-size:13;text-anchor:middle;" transform="matrix(1 0 0 1 1153.13 322)">Light</text>
  <text style="stroke:none;fill:black;font-family:sans-serif;font-size:13;text-anchor:middle;" transform="matrix(1 0 0 1 1449.84 322)">Regular</text>
  <text style="stroke:none;fill:black;font-family:sans-serif;font-size:13;text-anchor:middle;" transform="matrix(1 0 0 1 1746.56 322)">Medium</text>
  <text style="stroke:none;fill:black;font-family:sans-serif;font-size:13;text-anchor:middle;" transform="matrix(1 0 0 1 2043.27 322)">Semibold</text>
  <text style="stroke:none;fill:black;font-family:sans-serif;font-size:13;text-anchor:middle;" transform="matrix(1 0 0 1 2339.98 322)">Bold</text>
  <text style="stroke:none;fill:black;font-family:sans-serif;font-size:13;text-anchor:middle;" transform="matrix(1 0 0 1 2636.69 322)">Heavy</text>
  <text style="stroke:none;fill:black;font-family:sans-serif;font-size:13;text-anchor:middle;" transform="matrix(1 0 0 1 2933.4 322)">Black</text>
  <line style="fill:none;stroke:black;opacity:1;stroke-width:0.5;" x1="263" x2="3036" y1="1903" y2="1903"/>
  <g transform="matrix(0.2 0 0 0.2 263 1933)">
   <path d="m46.2402 4.15039c21.5332 0 39.4531-17.8711 39.4531-39.4043s-17.9688-39.4043-39.502-39.4043c-21.4844 0-39.3555 17.8711-39.3555 39.4043s17.9199 39.4043 39.4043 39.4043Zm0-7.42188c-17.7246 0-31.8848-14.209-31.8848-31.9824s14.1113-31.9824 31.8359-31.9824c17.7734 0 32.0312 14.209 32.0312 31.9824s-14.209 31.9824-31.9824 31.9824Zm-17.9688-31.9824c0 2.14844 1.51367 3.61328 3.75977 3.61328h10.498v10.5957c0 2.19727 1.46484 3.71094 3.61328 3.71094 2.24609 0 3.71094-1.51367 3.71094-3.71094v-10.5957h10.5957c2.19727 0 3.71094-1.46484 3.71094-3.61328 0-2.19727-1.51367-3.71094-3.71094-3.71094h-10.5957v-10.5469c0-2.24609-1.46484-3.75977-3.71094-3.75977-2.14844 0-3.61328 1.51367-3.61328 3.75977v10.5469h-10.498c-2.24609 0-3.75977 1.51367-3.75977 3.71094Z"/>
  </g>
  <g transform="matrix(0.2 0 0 0.2 281.506 1933)">
   <path d="m58.5449 14.5508c27.2461 0 49.8047-22.6074 49.8047-49.8047 0-27.2461-22.6074-49.8047-49.8535-49.8047-27.1973 0-49.7559 22.5586-49.7559 49.8047 0 27.1973 22.6074 49.8047 49.8047 49.8047Zm0-8.30078c-23.0469 0-41.4551-18.457-41.4551-41.5039s18.3594-41.5039 41.4062-41.5039 41.5527 18.457 41.5527 41.5039-18.457 41.5039-41.5039 41.5039Zm-22.6562-41.5039c0 2.39258 1.66016 4.00391 4.15039 4.00391h14.3555v14.4043c0 2.44141 1.66016 4.15039 4.05273 4.15039 2.44141 0 4.15039-1.66016 4.15039-4.15039v-14.4043h14.4043c2.44141 0 4.15039-1.61133 4.15039-4.00391 0-2.44141-1.70898-4.15039-4.15039-4.15039h-14.4043v-14.3555c0-2.49023-1.70898-4.19922-4.15039-4.19922-2.39258 0-4.05273 1.70898-4.05273 4.19922v14.3555h-14.3555c-2.49023 0-4.15039 1.70898-4.15039 4.15039Z"/>
  </g>
  <g transform="matrix(0.2 0 0 0.2 304.924 1933)">
   <path d="m74.8535 28.3203c34.8145 0 63.623-28.8086 63.623-63.5742 0-34.8145-28.8574-63.623-63.6719-63.623-34.7656 0-63.5254 28.8086-63.5254 63.623 0 34.7656 28.8086 63.5742 63.5742 63.5742Zm0-9.08203c-30.1758 0-54.4434-24.3164-54.4434-54.4922 0-30.2246 24.2188-54.4922 54.3945-54.4922 30.2246 0 54.541 24.2676 54.541 54.4922 0 30.1758-24.2676 54.4922-54.4922 54.4922Zm-28.8574-54.4922c0 2.58789 1.85547 4.39453 4.58984 4.39453h19.7266v19.7754c0 2.68555 1.85547 4.58984 4.44336 4.58984 2.68555 0 4.54102-1.85547 4.54102-4.58984v-19.7754h19.7754c2.68555 0 4.58984-1.80664 4.58984-4.39453 0-2.73438-1.85547-4.58984-4.58984-4.58984h-19.7754v-19.7266c0-2.73438-1.85547-4.63867-4.54102-4.63867-2.58789 0-4.44336 1.9043-4.44336 4.63867v19.7266h-19.7266c-2.73438 0-4.58984 1.85547-4.58984 4.58984Z"/>
  </g>
  <text style="stroke:none;fill:black;font-family:sans-serif;font-size:13;font-weight:bold;" transform="matrix(1 0 0 1 263 1953)">Design Variations</text>
  <text style="stroke:none;fill:black;font-family:sans-serif;font-size:13;" transform="matrix(1 0 0 1 263 1971)">Symbols are supported in up to nine weights and three scales.</text>
  <text style="stroke:none;fill:black;font-family:sans-serif;font-size:13;" transform="matrix(1 0 0 1 263 1989)">For optimal layout with text and other symbols, vertically align</text>
  <text style="stroke:none;fill:black;font-family:sans-serif;font-size:13;" transform="matrix(1 0 0 1 263 2007)">symbols with the adjacent text.</text>
  <line style="fill:none;stroke:#00AEEF;stroke-width:0.5;opacity:1.0;" x1="776" x2="776" y1="1919" y2="1933"/>
  <g transform="matrix(0.2 0 0 0.2 776 1933)">
   <path d="m16.5527 0.78125c2.58789 0 3.85742-0.976562 4.78516-3.71094l6.29883-17.2363h28.8086l6.29883 17.2363c0.927734 2.73438 2.19727 3.71094 4.73633 3.71094 2.58789 0 4.24805-1.5625 4.24805-4.00391 0-0.830078-0.146484-1.61133-0.537109-2.63672l-22.9004-60.9863c-1.12305-2.97852-3.125-4.49219-6.25-4.49219-3.02734 0-5.07812 1.46484-6.15234 4.44336l-22.9004 61.084c-0.390625 1.02539-0.537109 1.80664-0.537109 2.63672 0 2.44141 1.5625 3.95508 4.10156 3.95508Zm13.4766-28.3691 11.8652-32.8613h0.244141l11.8652 32.8613Z"/>
  </g>
  <line style="fill:none;stroke:#00AEEF;stroke-width:0.5;opacity:1.0;" x1="792.836" x2="792.836" y1="1919" y2="1933"/>
  <text style="stroke:none;fill:black;font-family:sans-serif;font-size:13;font-weight:bold;" transform="matrix(1 0 0 1 776 1953)">Margins</text>
  <text style="stroke:none;fill:black;font-family:sans-serif;font-size:13;" transform="matrix(1 0 0 1 776 1971)">Leading and trailing margins on the left and right side of each symbol</text>
  <text style="stroke:none;fill:black;font-family:sans-serif;font-size:13;" transform="matrix(1 0 0 1 776 1989)">can be adjusted by modifying the x-location of the margin guidelines.</text>
  <text style="stroke:none;fill:black;font-family:sans-serif;font-size:13;" transform="matrix(1 0 0 1 776 2007)">Modifications are automatically applied proportionally to all</text>
  <text style="stroke:none;fill:black;font-family:sans-serif;font-size:13;" transform="matrix(1 0 0 1 776 2025)">scales and weights.</text>
  <g transform="matrix(0.2 0 0 0.2 1289 1933)">
   <path d="m14.209 9.32617 8.49609 8.54492c4.29688 4.3457 9.22852 4.05273 13.8672-1.07422l53.4668-58.9355-4.83398-4.88281-53.0762 58.3984c-1.75781 2.00195-3.41797 2.49023-5.76172 0.146484l-5.85938-5.81055c-2.34375-2.29492-1.80664-4.00391 0.195312-5.81055l57.373-54.0039-4.88281-4.83398-57.959 54.4434c-4.93164 4.58984-5.32227 9.47266-1.02539 13.8184Zm32.0801-90.9668c-2.09961 2.05078-2.24609 4.93164-1.07422 6.88477 1.17188 1.80664 3.4668 2.97852 6.68945 2.14844 7.32422-1.70898 14.9414-2.00195 22.0703 2.68555l-2.92969 7.27539c-1.70898 4.15039-0.830078 7.08008 1.85547 9.81445l11.4746 11.5723c2.44141 2.44141 4.49219 2.53906 7.32422 2.05078l5.32227-0.976562 3.32031 3.36914-0.195312 2.7832c-0.195312 2.49023 0.439453 4.39453 2.88086 6.78711l3.80859 3.71094c2.39258 2.39258 5.46875 2.53906 7.8125 0.195312l14.5508-14.5996c2.34375-2.34375 2.24609-5.32227-0.146484-7.71484l-3.85742-3.80859c-2.39258-2.39258-4.24805-3.17383-6.64062-2.97852l-2.88086 0.244141-3.22266-3.17383 1.2207-5.61523c0.634766-2.83203-0.146484-5.0293-3.07617-7.95898l-10.9863-10.9375c-16.6992-16.6016-38.8672-16.2109-53.3203-1.75781Zm7.4707 1.85547c12.1582-8.88672 28.6133-7.37305 39.7461 3.75977l12.1582 12.0605c1.17188 1.17188 1.36719 2.09961 1.02539 3.80859l-1.61133 7.42188 7.51953 7.42188 4.93164-0.292969c1.26953-0.0488281 1.66016 0.0488281 2.63672 1.02539l2.88086 2.88086-12.207 12.207-2.88086-2.88086c-0.976562-0.976562-1.12305-1.36719-1.07422-2.68555l0.341797-4.88281-7.4707-7.42188-7.61719 1.26953c-1.61133 0.341797-2.34375 0.195312-3.56445-0.976562l-10.0098-10.0098c-1.26953-1.17188-1.41602-2.00195-0.634766-3.85742l4.39453-10.4492c-7.8125-7.27539-17.9688-10.4004-28.125-7.42188-0.78125 0.195312-1.07422-0.439453-0.439453-0.976562Z"/>
  </g>
  <text style="stroke:none;fill:black;font-family:sans-serif;font-size:13;font-weight:bold;" transform="matrix(1 0 0 1 1289 1953)">Exporting</text>
  <text style="stroke:none;fill:black;font-family:sans-serif;font-size:13;" transform="matrix(1 0 0 1 1289 1971)">Symbols should be outlined when exporting to ensure the</text>
  <text style="stroke:none;fill:black;font-family:sans-serif;font-size:13;" transform="matrix(1 0 0 1 1289 1989)">design is preserved when submitting to Xcode.</text>
  <text id="template-version" style="stroke:none;fill:black;font-family:sans-serif;font-size:13;text-anchor:end;" transform="matrix(1 0 0 1 3036 1933)">Template v.5.0</text>
  <text style="stroke:none;fill:black;font-family:sans-serif;font-size:13;text-anchor:end;" transform="matrix(1 0 0 1 3036 1951)">Requires Xcode 15 or greater</text>
  <text id="descriptive-name" style="stroke:none;fill:black;font-family:sans-serif;font-size:13;text-anchor:end;" transform="matrix(1 0 0 1 3036 1969)">Generated from wifi.exclamationmark.circle.fill</text>
  <text style="stroke:none;fill:black;font-family:sans-serif;font-size:13;text-anchor:end;" transform="matrix(1 0 0 1 3036 1987)">Typeset at 100.0 points</text>
  <text style="stroke:none;fill:black;font-family:sans-serif;font-size:13;" transform="matrix(1 0 0 1 263 726)">Small</text>
  <text style="stroke:none;fill:black;font-family:sans-serif;font-size:13;" transform="matrix(1 0 0 1 263 1156)">Medium</text>
  <text style="stroke:none;fill:black;font-family:sans-serif;font-size:13;" transform="matrix(1 0 0 1 263 1586)">Large</text>
 </g>
 <g id="Guides">
  <g id="H-reference" style="fill:#27AAE1;stroke:none;" transform="matrix(1 0 0 1 339 696)">
   <path d="M0.993654 0L3.63775 0L29.3281-67.1323L30.0303-67.1323L30.0303-70.459L28.1226-70.459ZM11.6885-24.4799L46.9815-24.4799L46.2315-26.7285L12.4385-26.7285ZM55.1196 0L57.7637 0L30.6382-70.459L29.4326-70.459L29.4326-67.1323Z"/>
  </g>
  <line id="Baseline-S" style="fill:none;stroke:#27AAE1;opacity:1;stroke-width:0.5;" x1="263" x2="3036" y1="696" y2="696"/>
  <line id="Capline-S" style="fill:none;stroke:#27AAE1;opacity:1;stroke-width:0.5;" x1="263" x2="3036" y1="625.541" y2="625.541"/>
  <g id="H-reference" style="fill:#27AAE1;stroke:none;" transform="matrix(1 0 0 1 339 1126)">
   <path d="M0.993654 0L3.63775 0L29.3281-67.1323L30.0303-67.1323L30.0303-70.459L28.1226-70.459ZM11.6885-24.4799L46.9815-24.4799L46.2315-26.7285L12.4385-26.7285ZM55.1196 0L57.7637 0L30.6382-70.459L29.4326-70.459L29.4326-67.1323Z"/>
  </g>
  <line id="Baseline-M" style="fill:none;stroke:#27AAE1;opacity:1;stroke-width:0.5;" x1="263" x2="3036" y1="1126" y2="1126"/>
  <line id="Capline-M" style="fill:none;stroke:#27AAE1;opacity:1;stroke-width:0.5;" x1="263" x2="3036" y1="1055.54" y2="1055.54"/>
  <g id="H-reference" style="fill:#27AAE1;stroke:none;" transform="matrix(1 0 0 1 339 1556)">
   <path d="M0.993654 0L3.63775 0L29.3281-67.1323L30.0303-67.1323L30.0303-70.459L28.1226-70.459ZM11.6885-24.4799L46.9815-24.4799L46.2315-26.7285L12.4385-26.7285ZM55.1196 0L57.7637 0L30.6382-70.459L29.4326-70.459L29.4326-67.1323Z"/>
  </g>
  <line id="Baseline-L" style="fill:none;stroke:#27AAE1;opacity:1;stroke-width:0.5;" x1="263" x2="3036" y1="1556" y2="1556"/>
  <line id="Capline-L" style="fill:none;stroke:#27AAE1;opacity:1;stroke-width:0.5;" x1="263" x2="3036" y1="1485.54" y2="1485.54"/>
  <line id="left-margin-Regular-M" style="fill:none;stroke:#00AEEF;stroke-width:0.5;opacity:1.0;" x1="1391.32" x2="1391.32" y1="1030.79" y2="1150.12"/>
  <line id="right-margin-Regular-M" style="fill:none;stroke:#00AEEF;stroke-width:0.5;opacity:1.0;" x1="1508.37" x2="1508.37" y1="1030.79" y2="1150.12"/>
 </g>
 <g id="Symbols">
  <g id="Black-L" transform="matrix(1 0 0 1 2854.19 1556)">
   <path class="SFSymbolsPreviewWireframe" d="M79.1958 32.8061C116.56 32.8061 147.154 2.23301 147.154-35.1309C147.154-72.4948 116.539-103.068 79.175-103.068C41.8307-103.068 11.2588-72.4948 11.2588-35.1309C11.2588 2.23301 41.8515 32.8061 79.1958 32.8061ZM39.1226-47.0402C45.5643-55.0927 55.9129-60.9649 67.201-63.5576C66.7337-62.3186 66.5585-61.0629 66.5585-59.7279C66.5793-57.7935 66.6961-54.0092 66.7754-49.9138C59.8391-47.8961 53.6003-44.0683 48.3769-38.5609C47.0842-37.2461 45.2542-37.2449 44.0823-38.4804L39.3031-43.4193C38.3076-44.4744 38.2272-45.9643 39.1226-47.0402ZM119.269-47.0402C120.164-45.9643 120.085-44.4744 119.089-43.4193L114.308-38.5013C113.058-37.3658 111.307-37.3462 110.115-38.4816C104.933-44.0707 98.6509-47.8961 91.5746-49.9138C91.6538-54.0092 91.7914-57.7727 91.7914-59.7071C91.7914-61.0421 91.6162-62.3186 91.149-63.5576C102.458-60.9858 112.826-55.0915 119.269-47.0402ZM52.664-33.4524C56.1693-37.5319 61.2955-40.6896 67.0882-42.5917C67.2258-38.8287 67.2842-35.3797 67.3635-33.1561C67.4219-31.617 67.5971-30.1364 68.0059-28.9685C66.0054-27.8946 64.1733-26.5147 62.6421-24.8994C61.3858-23.6819 59.6581-23.6223 58.3862-24.8178L52.9612-29.8923C51.849-30.8878 51.7697-32.3777 52.664-33.4524ZM105.707-33.4524C106.622-32.3974 106.543-30.867 105.451-29.8923L100.005-24.8178C98.7919-23.6627 97.0839-23.6235 95.9079-24.8786C94.3183-26.5355 92.4446-27.9155 90.3648-28.9894C90.7737-30.2364 90.9489-31.6795 91.0073-33.1978C91.0657-35.4202 91.1449-38.8495 91.2617-42.5917C97.0765-40.7116 102.203-37.5319 105.707-33.4524ZM79.1958-25.0487C75.0566-25.0487 72.9213-27.4212 72.7837-31.6748C72.6252-38.5151 71.9995-54.5293 71.9371-60.0847C71.9371-64.0747 74.7449-67.2821 79.175-67.2821C83.6842-67.2821 86.4337-64.0747 86.4337-60.0847C86.3712-54.5293 85.7664-38.5151 85.6079-31.6748C85.4703-27.4212 83.335-25.0487 79.1958-25.0487ZM79.175-5.09048C74.7632-5.09048 71.1624-8.49405 71.1624-12.6722C71.1624-16.8931 74.7632-20.2759 79.175-20.2759C83.6284-20.2759 87.1499-16.8919 87.1499-12.6722C87.1499-8.49405 83.6284-5.09048 79.175-5.09048Z"/>
  </g>
  <g id="Heavy-L" transform="matrix(1 0 0 1 2558.42 1556)">
   <path class="SFSymbolsPreviewWireframe" d="M78.2532 31.8498C115.056 31.8498 145.278 1.65836 145.278-35.1447C145.278-71.9477 115.026-102.139 78.2231-102.139C41.4446-102.139 11.2588-71.9477 11.2588-35.1447C11.2588 1.65836 41.4748 31.8498 78.2532 31.8498ZM37.9159-47.0805C44.5357-55.3199 55.3162-61.3196 67.0091-63.7942C66.6521-62.7719 66.5182-61.7653 66.5182-60.684C66.5484-58.356 66.6376-54.5955 66.7125-50.6165C59.1894-48.6667 52.4553-44.6751 46.9092-38.8218C45.6888-37.5656 43.958-37.56 42.8728-38.7414L38.1013-43.6681C37.1555-44.6641 37.0751-46.0543 37.9159-47.0805ZM118.591-47.0805C119.431-46.0543 119.357-44.6641 118.405-43.6681L113.628-38.7716C112.474-37.6951 110.818-37.6706 109.702-38.747C104.187-44.6863 97.3874-48.6667 89.7337-50.6165C89.8085-54.5955 89.9279-58.3258 89.9279-60.6538C89.9279-61.7351 89.794-62.7719 89.437-63.7942C101.16-61.3498 111.965-55.3143 118.591-47.0805ZM51.6249-33.2886C55.3183-37.6245 60.7997-40.9145 66.9658-42.7807C67.0852-39.0796 67.1298-35.6373 67.2046-33.1266C67.2492-31.7893 67.3831-30.4966 67.6955-29.4573C65.3-28.3189 63.1281-26.7431 61.3421-24.8598C60.1305-23.6682 58.5159-23.618 57.3256-24.7738L51.8996-29.9321C50.8645-30.8779 50.7897-32.268 51.6249-33.2886ZM104.851-33.2886C105.717-32.2926 105.642-30.8477 104.637-29.9321L99.1809-24.7738C98.0352-23.6727 96.4452-23.6236 95.314-24.8296C93.4834-26.7733 91.2511-28.3491 88.7808-29.4875C89.0932-30.6016 89.2271-31.8798 89.2717-33.1869C89.3163-35.6921 89.3911-39.1098 89.4804-42.7807C95.6823-40.9503 101.164-37.6245 104.851-33.2886ZM78.2532-24.346C74.6489-24.346 72.7276-26.4626 72.6082-30.1449C72.4586-38.5668 71.952-54.0403 71.8615-61.4805C71.8615-65.0327 74.4012-67.7873 78.2231-67.7873C82.1197-67.7873 84.6149-65.0327 84.6149-61.4805C84.5243-54.0403 84.0479-38.5668 83.8983-30.1449C83.7788-26.4626 81.8576-24.346 78.2532-24.346ZM78.2231-5.11819C74.1499-5.11819 70.7912-8.30724 70.7912-12.2019C70.7912-16.1626 74.1499-19.3214 78.2231-19.3214C82.3566-19.3214 85.6405-16.157 85.6405-12.2019C85.6405-8.30724 82.3566-5.11819 78.2231-5.11819Z"/>
  </g>
  <g id="Bold-L" transform="matrix(1 0 0 1 2262.89 1556)">
   <path class="SFSymbolsPreviewWireframe" d="M77.0704 30.6515C113.182 30.6515 142.92 0.951291 142.92-35.1601C142.92-71.2714 113.144-100.972 77.0324-100.972C40.9458-100.972 11.2588-71.2714 11.2588-35.1601C11.2588 0.951291 40.9838 30.6515 77.0704 30.6515ZM36.4027-47.1416C43.2378-55.6116 54.571-61.7725 66.7783-64.0936C66.5447-63.303 66.4571-62.5591 66.4571-61.7481C66.4951-59.0253 66.5535-55.3478 66.6207-51.5445C58.3528-49.6866 50.9817-45.4877 45.0212-39.1967C43.9003-38.0246 42.3074-38.0114 41.3297-39.1163L36.5883-44.0053C35.7114-44.9246 35.631-46.1843 36.4027-47.1416ZM117.738-47.1416C118.51-46.1843 118.443-44.9246 117.552-44.0053L112.798-39.1543C111.766-38.1546 110.24-38.1298 109.225-39.1296C103.295-45.5141 95.8348-49.6866 87.4441-51.5445C87.5113-55.3478 87.6077-58.9873 87.6077-61.7101C87.6077-62.5212 87.5201-63.303 87.2865-64.0936C99.5318-61.8105 110.89-55.5983 117.738-47.1416ZM50.3341-33.0813C54.2432-37.7174 60.17-41.1689 66.8047-42.9816C66.9011-39.3871 66.9303-35.9898 66.9975-33.1925C67.0267-32.0864 67.1143-31.0094 67.3187-30.1164C64.4092-28.9085 61.7849-27.087 59.6764-24.8583C58.5335-23.7199 57.0722-23.6774 55.9893-24.7647L50.5781-30.0006C49.6429-30.8775 49.5757-32.1372 50.3341-33.0813ZM103.769-33.0813C104.565-32.162 104.498-30.8395 103.601-30.0006L98.1515-24.7647C97.0978-23.7402 95.6612-23.6907 94.5988-24.8203C92.461-27.125 89.7608-28.9465 86.7841-30.1544C86.9885-31.1146 87.0761-32.2003 87.1053-33.2685C87.1345-36.0525 87.2017-39.425 87.2601-42.9816C93.946-41.2201 99.8728-37.7174 103.769-33.0813ZM77.0704-23.418C74.1046-23.418 72.4521-25.227 72.3557-28.2247C72.2214-38.5389 71.8534-53.5228 71.7394-63.1945C71.7394-66.2086 73.9338-68.4248 77.0324-68.4248C80.1982-68.4248 82.3634-66.2086 82.3634-63.1945C82.2494-53.5228 81.9194-38.5389 81.785-28.2247C81.6887-25.227 80.0362-23.418 77.0704-23.418ZM77.0324-5.21611C73.3594-5.21611 70.2929-8.14376 70.2929-11.7C70.2929-15.3454 73.3594-18.235 77.0324-18.235C80.7814-18.235 83.7807-15.3321 83.7807-11.7C83.7807-8.14376 80.7814-5.21611 77.0324-5.21611Z"/>
  </g>
  <g id="Semibold-L" transform="matrix(1 0 0 1 1966.99 1556)">
   <path class="SFSymbolsPreviewWireframe" d="M76.2549 29.8254C111.889 29.8254 141.294 0.463842 141.294-35.1707C141.294-70.8053 111.846-100.167 76.2116-100.167C40.6019-100.167 11.2588-70.8053 11.2588-35.1707C11.2588 0.463842 40.6453 29.8254 76.2549 29.8254ZM35.3595-47.1837C42.3431-55.8126 54.0573-62.0848 66.6193-64.3001C66.4707-63.6692 66.415-63.1064 66.415-62.4817C66.4583-59.4868 66.4955-55.8663 66.5574-52.1842C57.7761-50.3897 49.9658-46.0479 43.7196-39.4552C42.6673-38.3411 41.1694-38.3226 40.2659-39.3748L35.5453-44.2378C34.7159-45.1042 34.6355-46.274 35.3595-47.1837ZM117.15-47.1837C117.874-46.274 117.812-45.1042 116.965-44.2378L112.226-39.4181C111.279-38.4713 109.843-38.4464 108.896-39.3933C102.68-46.0849 94.7645-50.3897 85.8657-52.1842C85.9277-55.8663 86.0082-59.4434 86.0082-62.4383C86.0082-63.063 85.9525-63.6692 85.8039-64.3001C98.4092-62.1281 110.148-55.7942 117.15-47.1837ZM49.4443-32.9384C53.502-37.7815 59.736-41.3442 66.6936-43.12C66.7742-39.599 66.7927-36.2327 66.8547-33.238C66.8732-32.2912 66.929-31.3629 67.059-30.5709C63.7951-29.3151 60.859-27.3241 58.5281-24.8573C57.4326-23.7555 56.077-23.7184 55.0681-24.7584L49.6672-30.0479C48.8006-30.8773 48.7387-32.0471 49.4443-32.9384ZM103.022-32.9384C103.771-32.0719 103.709-30.8339 102.886-30.0479L97.4418-24.7584C96.4515-23.7867 95.1208-23.7369 94.1057-24.8139C91.7562-27.3674 88.7334-29.3584 85.4075-30.6142C85.5376-31.4682 85.5933-32.4213 85.6119-33.3247C85.6304-36.301 85.6924-39.6424 85.7295-43.12C92.749-41.406 98.983-37.7815 103.022-32.9384ZM76.2549-22.7783C73.7293-22.7783 72.2622-24.3752 72.1817-26.9009C72.0578-38.5197 71.7853-53.166 71.6552-64.3761C71.6552-67.0193 73.6116-68.8642 76.2116-68.8642C78.8735-68.8642 80.8113-67.0193 80.8113-64.3761C80.6812-53.166 80.4521-38.5197 80.3282-26.9009C80.2477-24.3752 78.7806-22.7783 76.2549-22.7783ZM76.2116-5.28361C72.8144-5.28361 69.9494-8.03107 69.9494-11.3539C69.9494-14.782 72.8144-17.4861 76.2116-17.4861C79.6954-17.4861 82.4985-14.7635 82.4985-11.3539C82.4985-8.03107 79.6954-5.28361 76.2116-5.28361Z"/>
  </g>
  <g id="Medium-L" transform="matrix(1 0 0 1 1670.9 1556)">
   <path class="SFSymbolsPreviewWireframe" d="M75.6366 29.1991C110.91 29.1991 140.062 0.0942366 140.062-35.1788C140.062-70.4518 110.862-99.5566 75.5892-99.5566C40.3412-99.5566 11.2588-70.4518 11.2588-35.1788C11.2588 0.0942366 40.3886 29.1991 75.6366 29.1991ZM34.5686-47.2157C41.6647-55.9651 53.6678-62.3215 66.4987-64.4566C66.4145-63.9468 66.383-63.5213 66.383-63.0379C66.4305-59.8367 66.4515-56.2595 66.5094-52.6693C57.3388-50.9229 49.1955-46.4727 42.7326-39.6512C41.7324-38.5811 40.3066-38.5586 39.4593-39.5708L34.7544-44.414C33.9611-45.2403 33.8806-46.3419 34.5686-47.2157ZM116.705-47.2157C117.393-46.3419 117.335-45.2403 116.519-44.414L111.792-39.6182C110.909-38.7115 109.541-38.6865 108.646-39.5932C102.214-46.5176 93.953-50.9229 84.6689-52.6693C84.7269-56.2595 84.7954-59.7892 84.7954-62.9905C84.7954-63.4739 84.7638-63.9468 84.6797-64.4566C97.558-62.369 109.586-55.9426 116.705-47.2157ZM48.7696-32.83C52.9401-37.83 59.4069-41.4771 66.6094-43.225C66.6779-39.7597 66.6884-36.417 66.7464-33.2725C66.7569-32.4464 66.7884-31.6309 66.862-30.9154C63.3294-29.6233 60.1568-27.5038 57.6574-24.8565C56.5978-23.7825 55.3223-23.7495 54.3696-24.7536L48.9764-30.0837C48.162-30.8771 48.1041-31.9787 48.7696-32.83ZM102.456-32.83C103.169-32.0037 103.111-30.8296 102.344-30.0837L96.9037-24.7536C95.9615-23.8219 94.711-23.772 93.7318-24.8091C91.2218-27.5513 87.9544-29.6707 84.3638-30.9629C84.4374-31.7363 84.4689-32.5888 84.4794-33.3674C84.49-36.4894 84.5479-39.8072 84.5689-43.225C91.8414-41.547 98.3082-37.83 102.456-32.83ZM75.6366-22.2932C73.4448-22.2932 72.1182-23.7293 72.0497-25.8972C71.9338-38.5051 71.7338-52.8954 71.5914-65.272C71.5914-67.6341 73.3672-69.1974 75.5892-69.1974C77.8691-69.1974 79.6344-67.6341 79.6344-65.272C79.4921-52.8954 79.3395-38.5051 79.2236-25.8972C79.1551-23.7293 77.8285-22.2932 75.6366-22.2932ZM75.5892-5.33479C72.4012-5.33479 69.689-7.94561 69.689-11.0915C69.689-14.3548 72.4012-16.9182 75.5892-16.9182C78.872-16.9182 81.5264-14.3323 81.5264-11.0915C81.5264-7.94561 78.872-5.33479 75.5892-5.33479Z"/>
  </g>
  <g id="Regular-L" transform="matrix(1 0 0 1 1374.99 1556)">
   <path class="SFSymbolsPreviewWireframe" d="M74.8301 28.3821C109.632 28.3821 138.454-0.387857 138.454-35.1893C138.454-69.9907 109.579-98.7606 74.7774-98.7606C40.0011-98.7606 11.2588-69.9907 11.2588-35.1893C11.2588-0.387857 40.0538 28.3821 74.8301 28.3821ZM33.5369-47.2574C40.7798-56.164 53.1597-62.6303 66.3413-64.6608C66.3413-64.3089 66.3413-64.0626 66.3413-63.7635C66.3941-60.293 66.3941-56.7724 66.4469-53.302C56.7684-51.6183 48.1908-47.0267 41.4453-39.9068C40.513-38.8941 39.1812-38.8664 38.4072-39.8264L33.7228-44.6439C32.9765-45.4179 32.8961-46.4306 33.5369-47.2574ZM116.123-47.2574C116.764-46.4306 116.711-45.4179 115.937-44.6439L111.225-39.8791C110.426-39.0247 109.147-38.9996 108.321-39.854C101.605-47.082 92.8944-51.6183 83.1079-53.302C83.1607-56.7724 83.2134-60.2403 83.2134-63.7107C83.2134-64.0098 83.2134-64.3089 83.2134-64.6608C96.4478-62.6831 108.853-56.1363 116.123-47.2574ZM47.8895-32.6886C52.207-37.8934 58.9776-41.6505 66.4996-43.3619C66.5524-39.9694 66.5524-36.6572 66.6052-33.3175C66.6052-32.649 66.6052-31.9805 66.6052-31.3648C62.722-30.0253 59.241-27.7383 56.5217-24.8555C55.509-23.8177 54.338-23.7901 53.4585-24.7474L48.0754-30.1305C47.3291-30.8768 47.2763-31.8895 47.8895-32.6886ZM101.718-32.6886C102.384-31.9146 102.331-30.824 101.638-30.1305L96.2018-24.7474C95.3223-23.8679 94.1764-23.8177 93.2442-24.8028C90.5248-27.791 86.9382-30.0781 83.0024-31.4176C83.0024-32.0861 83.0024-32.8073 83.0024-33.423C83.0024-36.7351 83.0551-40.0221 83.0551-43.3619C90.6576-41.731 97.4281-37.8934 101.718-32.6886ZM74.8301-21.6605C73.0737-21.6605 71.9303-22.8868 71.8776-24.588C71.772-38.4861 71.6665-52.5425 71.5082-66.4407C71.5082-68.4359 73.0486-69.632 74.7774-69.632C76.559-69.632 78.0993-68.4359 78.0993-66.4407C77.941-52.5425 77.8883-38.4861 77.7827-24.588C77.73-22.8868 76.5866-21.6605 74.8301-21.6605ZM74.7774-5.40155C71.8623-5.40155 69.3492-7.83415 69.3492-10.7493C69.3492-13.7976 71.8623-16.1774 74.7774-16.1774C77.798-16.1774 80.2583-13.7699 80.2583-10.7493C80.2583-7.83415 77.798-5.40155 74.7774-5.40155Z"/>
  </g>
  <g id="Light-L" transform="matrix(1 0 0 1 1079.2 1556)">
   <path class="SFSymbolsPreviewWireframe" d="M73.9141 27.466C108.257 27.466 136.603-0.845903 136.603-35.1893C136.603-69.5327 108.224-97.8445 73.8804-97.8445C39.5239-97.8445 11.2588-69.5327 11.2588-35.1893C11.2588-0.845903 39.5576 27.466 73.9141 27.466ZM32.3727-47.3719C39.7301-56.4312 52.6063-63.0311 66.2268-64.9089C66.2268-64.4807 66.2268-64.1198 66.2268-63.7253C66.2605-60.5793 66.2605-57.4595 66.2942-54.3135C55.9859-52.7443 46.8166-47.981 39.6894-40.4984C38.8908-39.6193 37.7498-39.5726 37.0521-40.418L32.5204-45.0638C31.8695-45.7614 31.7891-46.6406 32.3727-47.3719ZM115.455-47.3719C116.039-46.6406 116.005-45.7614 115.308-45.0638L110.729-40.4517C110.045-39.6736 108.937-39.6867 108.206-40.4648C101.185-48.0745 91.902-52.7443 81.4666-54.3135C81.5002-57.4595 81.5339-60.5456 81.5339-63.6916C81.5339-64.0862 81.5339-64.4807 81.5339-64.9089C95.1882-63.0648 108.051-56.3844 115.455-47.3719ZM46.9734-32.5168C51.3291-37.817 58.4432-41.6696 66.3279-43.2856C66.3615-40.1602 66.3615-37.1153 66.3952-34.0236C66.3952-33.3933 66.3952-32.763 66.3952-32.1664C61.9968-30.846 58.0005-28.3681 55.0139-25.1609C54.1348-24.2948 53.1547-24.2481 52.3897-25.0337L47.1212-30.3022C46.4702-30.9532 46.4366-31.8323 46.9734-32.5168ZM100.821-32.5168C101.392-31.8192 101.358-30.9195 100.741-30.3022L95.4384-25.0337C94.6734-24.2687 93.6802-24.2948 92.8815-25.1272C89.895-28.4018 85.8313-30.8797 81.3992-32.2001C81.3992-32.8304 81.3992-33.4944 81.3992-34.091C81.3992-37.1359 81.4329-40.1939 81.4329-43.2856C89.3979-41.75 96.5121-37.817 100.821-32.5168ZM73.9141-20.649C72.4438-20.649 71.5104-21.7226 71.4768-23.0993C71.4094-37.8754 71.3421-52.7525 71.241-67.5285C71.241-69.1802 72.4569-70.1473 73.8804-70.1473C75.3375-70.1473 76.5534-69.1802 76.5534-67.5285C76.4524-52.7525 76.4187-37.8754 76.3513-23.0993C76.3177-21.7226 75.3843-20.649 73.9141-20.649ZM73.8804-5.87868C71.1179-5.87868 68.7576-8.1586 68.7576-10.921C68.7576-13.7976 71.1179-16.0438 73.8804-16.0438C76.7102-16.0438 79.0368-13.7508 79.0368-10.921C79.0368-8.1586 76.7102-5.87868 73.8804-5.87868Z"/>
  </g>
  <g id="Thin-L" transform="matrix(1 0 0 1 783.716 1556)">
   <path class="SFSymbolsPreviewWireframe" d="M72.7024 26.2544C106.44 26.2544 134.155-1.45171 134.155-35.1893C134.155-68.9269 106.432-96.6329 72.694-96.6329C38.8929-96.6329 11.2588-68.9269 11.2588-35.1893C11.2588-1.45171 38.9013 26.2544 72.7024 26.2544ZM30.8329-47.5233C38.3418-56.7846 51.8742-63.5612 66.0754-65.2371C66.0754-64.7079 66.0754-64.1956 66.0754-63.6748C66.0838-60.958 66.0838-58.3682 66.0922-55.6513C54.951-54.2336 44.9992-49.2431 37.3672-41.2809C36.7452-40.5785 35.8566-40.5065 35.26-41.2005L30.9302-45.6191C30.4055-46.2158 30.3251-46.9182 30.8329-47.5233ZM114.572-47.5233C115.08-46.9182 115.071-46.2158 114.475-45.6191L110.073-41.209C109.54-40.5318 108.66-40.5954 108.055-41.2725C100.63-49.387 90.5894-54.2336 79.2958-55.6513C79.3042-58.3682 79.3126-60.9495 79.3126-63.6664C79.3126-64.1871 79.3126-64.7079 79.3126-65.2371C93.5222-63.5696 106.991-56.7126 114.572-47.5233ZM45.7618-32.2897C50.168-37.716 57.7365-41.6949 66.1007-43.1846C66.1091-40.4126 66.1091-37.7211 66.1176-34.9576C66.1176-34.3778 66.1176-33.7979 66.1176-33.2266C61.0376-31.9314 56.3598-29.2011 53.0198-25.5648C52.3174-24.9259 51.5897-24.8539 50.9761-25.4123L45.8591-30.5294C45.3344-31.0541 45.3259-31.7565 45.7618-32.2897ZM99.6347-32.2897C100.079-31.693 100.071-31.0457 99.5543-30.5294L94.4288-25.4123C93.8152-24.7988 93.0239-24.9259 92.4019-25.5563C89.062-29.2095 84.3673-31.9398 79.2789-33.235C79.2789-33.8148 79.2789-34.4031 79.2789-34.9744C79.2789-37.666 79.2873-40.4211 79.2873-43.1846C87.732-41.7753 95.3004-37.716 99.6347-32.2897ZM72.7024-19.3112C71.6109-19.3112 70.9551-20.1828 70.9467-21.1305C70.9298-37.0676 70.9129-53.0301 70.8876-68.9673C70.8876-70.1646 71.6744-70.8288 72.694-70.8288C73.722-70.8288 74.5088-70.1646 74.5088-68.9673C74.4835-53.0301 74.4751-37.0676 74.4582-21.1305C74.4498-20.1828 73.794-19.3112 72.7024-19.3112ZM72.694-6.50973C70.1335-6.50973 67.9751-8.58771 67.9751-11.1482C67.9751-13.7976 70.1335-15.8671 72.694-15.8671C75.2714-15.8671 77.4214-13.7256 77.4214-11.1482C77.4214-8.58771 75.2714-6.50973 72.694-6.50973Z"/>
  </g>
  <g id="Ultralight-L" transform="matrix(1 0 0 1 487.631 1556)">
   <path class="SFSymbolsPreviewWireframe" d="M72.0819 25.6338C105.509 25.6338 132.9-1.762 132.9-35.1893C132.9-68.6166 105.514-96.0124 72.0864-96.0124C38.5697-96.0124 11.2588-68.6166 11.2588-35.1893C11.2588-1.762 38.5652 25.6338 72.0819 25.6338ZM30.0443-47.6009C37.6307-56.9656 51.4993-63.8327 65.9978-65.4052C65.9978-64.8242 65.9978-64.2344 65.9978-63.6489C65.9933-61.1519 65.9933-58.8336 65.9888-56.3366C54.4209-54.9964 44.0683-49.8895 36.1777-41.6817C35.6463-41.0698 34.887-40.9849 34.342-41.6013L30.1157-45.9035C29.6556-46.4485 29.5752-47.0604 30.0443-47.6009ZM114.119-47.6009C114.589-47.0604 114.593-46.4485 114.048-45.9035L109.737-41.5968C109.281-40.9714 108.517-41.0608 107.977-41.6862C100.346-50.0593 89.9171-54.9964 78.1839-56.3366C78.1794-58.8336 78.1749-61.1564 78.1749-63.6534C78.1749-64.2388 78.1749-64.8242 78.1749-65.4052C92.6689-63.8282 106.448-56.8806 114.119-47.6009ZM45.1412-32.1733C49.5733-37.6643 57.3745-41.7078 65.9843-43.1329C65.9798-40.5419 65.9798-38.0314 65.9753-35.4359C65.9753-34.882 65.9753-34.328 65.9753-33.7696C60.5463-32.4873 55.5194-29.6277 51.9985-25.7716C51.3865-25.2491 50.7881-25.1642 50.2521-25.6063L45.2126-30.6458C44.7526-31.1058 44.7571-31.7177 45.1412-32.1733ZM99.027-32.1733C99.4067-31.6283 99.4112-31.1103 98.9466-30.6458L93.9116-25.6063C93.3756-25.0703 92.6878-25.2491 92.1563-25.7761C88.6353-29.6232 83.6174-32.4829 78.1929-33.7651C78.1929-34.319 78.1929-34.8685 78.1929-35.4269C78.1929-37.9375 78.1884-40.5374 78.1884-43.1329C86.8787-41.7882 94.6799-37.6643 99.027-32.1733ZM72.0819-18.6259C71.1842-18.6259 70.6707-19.3942 70.6752-20.122C70.6842-36.6539 70.6932-53.1723 70.7066-69.7042C70.7066-70.6688 71.2736-71.1779 72.0864-71.1779C72.8946-71.1779 73.4616-70.6688 73.4616-69.7042C73.4751-53.1723 73.4796-36.6539 73.4885-20.122C73.493-19.3942 72.9795-18.6259 72.0819-18.6259ZM72.0864-6.83294C69.6293-6.83294 67.5743-8.8075 67.5743-11.2646C67.5743-13.7976 69.6293-15.7766 72.0864-15.7766C74.5345-15.7766 76.5939-13.7127 76.5939-11.2646C76.5939-8.8075 74.5345-6.83294 72.0864-6.83294Z"/>
  </g>
  <g id="Black-M" transform="matrix(1 0 0 1 2871.36 1126)">
   <path class="SFSymbolsPreviewWireframe" d="M62.0422 18.1783C91.4096 18.1783 115.367-5.7739 115.367-35.1412C115.367-64.5086 91.4041-88.4608 62.0367-88.4608C32.6752-88.4608 8.72266-64.5086 8.72266-35.1412C8.72266-5.7739 32.6807 18.1783 62.0422 18.1783ZM31.1893-44.3606C36.0423-50.4592 43.7559-54.9173 52.2128-57.0067C51.7561-55.8503 51.5848-54.6478 51.5848-53.3826C51.5903-52.2662 51.7045-49.3682 51.767-46.1391C46.8123-44.5331 42.3243-41.6851 38.5031-37.6663C37.4576-36.6156 35.9803-36.6159 35.0083-37.604L31.3197-41.4176C30.5187-42.2753 30.4564-43.4974 31.1893-44.3606ZM92.8952-44.3606C93.6281-43.4974 93.5655-42.2753 92.7648-41.4176L89.0764-37.6095C88.0416-36.6894 86.6269-36.6837 85.6494-37.6037C81.879-41.6845 77.3803-44.5331 72.3064-46.1391C72.369-49.3682 72.4887-52.2607 72.4887-53.3771C72.4887-54.6423 72.3174-55.8503 71.8607-57.0067C80.323-54.9228 88.0424-50.4595 92.8952-44.3606ZM41.5698-33.9702C44.1292-36.9234 47.8419-39.2689 52.058-40.7604C52.1777-37.8281 52.2348-35.1865 52.2974-33.7442C52.3545-32.3836 52.5258-31.08 52.9254-30.0674C51.6451-29.2935 50.448-28.3667 49.4444-27.3018C48.4508-26.3594 47.041-26.3026 46.0009-27.2397L41.8144-31.0837C40.8993-31.8846 40.8367-33.1067 41.5698-33.9702ZM82.5091-33.9702C83.2478-33.1125 83.1852-31.8792 82.2755-31.0837L78.0835-27.2397C77.1006-26.3139 75.6966-26.3023 74.7652-27.2963C73.7046-28.3722 72.4964-29.299 71.1535-30.0729C71.5532-31.1481 71.7245-32.4001 71.7816-33.7552C71.8387-35.1978 71.9013-37.8336 72.0155-40.7604C76.2368-39.2741 79.9495-36.9234 82.5091-33.9702ZM62.0422-27.8089C58.4145-27.8089 56.6047-29.8462 56.485-33.5887C56.3599-37.6479 55.7779-50.6306 55.7614-53.4336C55.7614-56.8547 58.1232-59.6977 62.0367-59.6977C66.0128-59.6977 68.3175-56.8547 68.3175-53.4336C68.301-50.6306 67.7246-37.6479 67.5994-33.5887C67.4797-29.8462 65.67-27.8089 62.0422-27.8089ZM62.0367-11.9204C58.3485-11.9204 55.3714-14.7209 55.3714-18.1808C55.3714-21.6514 58.3485-24.4465 62.0367-24.4465C65.736-24.4465 68.6505-21.6517 68.6505-18.1808C68.6505-14.7209 65.736-11.9204 62.0367-11.9204Z"/>
  </g>
  <g id="Heavy-M" transform="matrix(1 0 0 1 2575.48 1126)">
   <path class="SFSymbolsPreviewWireframe" d="M61.2053 17.328C90.0667 17.328 113.704-6.29341 113.704-35.1547C113.704-64.016 90.0502-87.6374 61.1889-87.6374C32.3418-87.6374 8.72266-64.016 8.72266-35.1547C8.72266-6.29341 32.3582 17.328 61.2053 17.328ZM30.117-44.3895C35.1336-50.6567 43.2236-55.227 52.0358-57.2151C51.6868-56.2775 51.556-55.3292 51.556-54.3207C51.5724-52.7896 51.6596-49.8779 51.7196-46.7328C46.2493-45.1826 41.3317-42.1902 37.2303-37.8669C36.2431-36.861 34.8453-36.8587 33.9509-37.8046L30.2558-41.622C29.4945-42.4292 29.4322-43.5659 30.117-44.3895ZM92.2937-44.3895C92.9784-43.5659 92.9184-42.4292 92.1549-41.622L88.4575-37.821C87.5054-36.9515 86.1676-36.9374 85.2568-37.8068C81.1895-42.1948 76.2368-45.1826 70.6582-46.7328C70.7183-49.8779 70.8219-52.7732 70.8219-54.3043C70.8219-55.3127 70.691-56.2775 70.3421-57.2151C79.1706-55.2435 87.2748-50.6544 92.2937-44.3895ZM40.6386-33.8259C43.3782-37.0209 47.4065-39.487 51.9542-40.9523C52.0578-38.0558 52.1014-35.3961 52.1615-33.6502C52.2051-32.4833 52.3359-31.36 52.6413-30.4713C51.0225-29.6325 49.5407-28.532 48.3127-27.2349C47.3504-26.3021 46.0336-26.2562 45.0627-27.1703L40.8646-31.1067C40.0161-31.8679 39.9561-33.0047 40.6386-33.8259ZM81.7557-33.8259C82.4546-33.0188 82.3945-31.8515 81.5625-31.1067L77.3479-27.1703C76.4208-26.2867 75.118-26.2585 74.2181-27.2185C72.9465-28.5484 71.4319-29.6489 69.753-30.4877C70.0583-31.4365 70.1892-32.5325 70.2328-33.683C70.2764-35.4267 70.3365-38.0722 70.4237-40.9523C74.99-39.5057 79.0183-37.0209 81.7557-33.8259ZM61.2053-27.2153C58.0741-27.2153 56.4542-29.0165 56.3505-32.2305C56.2304-37.7547 55.7614-50.1332 55.7122-54.6978C55.7122-57.7225 57.8418-60.144 61.1889-60.144C64.5961-60.144 66.6821-57.7225 66.6821-54.6978C66.6329-50.1332 66.1802-37.7547 66.0602-32.2305C65.9565-29.0165 64.3366-27.2153 61.2053-27.2153ZM61.1889-11.9034C57.8176-11.9034 55.0631-14.5084 55.0631-17.7053C55.0631-20.9372 57.8176-23.5258 61.1889-23.5258C64.5931-23.5258 67.2876-20.935 67.2876-17.7053C67.2876-14.5084 64.5931-11.9034 61.1889-11.9034Z"/>
  </g>
  <g id="Bold-M" transform="matrix(1 0 0 1 2279.69 1126)">
   <path class="SFSymbolsPreviewWireframe" d="M60.2692 16.3767C88.5644 16.3767 111.844-6.87455 111.844-35.1698C111.844-63.465 88.5358-86.7163 60.2405-86.7163C31.9688-86.7163 8.72266-63.465 8.72266-35.1698C8.72266-6.87455 31.9974 16.3767 60.2692 16.3767ZM28.9176-44.4217C34.1171-50.8776 42.6282-55.5735 51.8378-57.4483C51.6094-56.7555 51.5237-56.0914 51.5237-55.3702C51.5523-53.3752 51.6094-50.4482 51.6666-47.3969C45.6195-45.909 40.2214-42.7553 35.8065-38.0912C34.8846-37.1355 33.5756-37.1303 32.7681-38.0289L29.0657-41.8508C28.3489-42.6012 28.2866-43.6426 28.9176-44.4217ZM91.6208-44.4217C92.2518-43.6426 92.1946-42.6012 91.4727-41.8508L87.7651-38.0575C86.9055-37.2447 85.6537-37.2212 84.8176-38.034C80.4181-42.7656 74.9575-45.909 68.8145-47.3969C68.8716-50.4482 68.9574-53.3465 68.9574-55.3415C68.9574-56.0628 68.8717-56.7555 68.6433-57.4483C77.8815-55.6021 86.416-50.8725 91.6208-44.4217ZM39.5969-33.6645C42.5382-37.1301 46.9194-39.7311 51.838-41.167C51.9237-38.3105 51.9522-35.6306 52.0094-33.545C52.038-32.5949 52.1236-31.6733 52.3234-30.923C50.3259-30.0117 48.5257-28.7168 47.0467-27.16C46.1195-26.2379 44.9066-26.2042 44.0132-27.0926L39.8021-31.1324C39.0282-31.8492 38.9711-32.8906 39.5969-33.6645ZM80.9128-33.6645C81.5672-32.9141 81.5101-31.8206 80.7648-31.1324L76.5251-27.0926C75.6603-26.2563 74.4709-26.2094 73.606-27.1314C72.0984-28.7454 70.241-30.0403 68.1863-30.9516C68.3861-31.759 68.4717-32.6807 68.5003-33.6022C68.5288-35.6827 68.586-38.3391 68.6431-41.167C73.5954-39.7648 77.9766-37.1301 80.9128-33.6645ZM60.2692-26.5512C57.6933-26.5512 56.2857-28.0884 56.2-30.711C56.0857-37.8742 55.7429-49.5768 55.6571-56.1119C55.6571-58.6932 57.5271-60.6433 60.2405-60.6433C63.0112-60.6433 64.8526-58.6932 64.8526-56.1119C64.7668-49.5768 64.4527-37.8742 64.3383-30.711C64.2526-28.0884 62.845-26.5512 60.2692-26.5512ZM60.2405-11.8845C57.2237-11.8845 54.7182-14.2706 54.7182-17.1733C54.7182-20.1383 57.2237-22.4958 60.2405-22.4958C63.3147-22.4958 65.763-20.1332 65.763-17.1733C65.763-14.2706 63.3147-11.8845 60.2405-11.8845Z"/>
  </g>
  <g id="Semibold-M" transform="matrix(1 0 0 1 1983.62 1126)">
   <path class="SFSymbolsPreviewWireframe" d="M59.6238 15.7209C87.5288 15.7209 110.562-7.27519 110.562-35.1802C110.562-63.0852 87.4917-86.0813 59.5867-86.0813C31.7117-86.0813 8.72266-63.0852 8.72266-35.1802C8.72266-7.27519 31.7487 15.7209 59.6238 15.7209ZM28.0907-44.4439C33.4164-51.0299 42.2177-55.8124 51.7012-57.609C51.556-57.085 51.5015-56.6169 51.5015-56.0936C51.5385-53.7788 51.5749-50.8413 51.6301-47.8547C45.1854-46.4098 39.4559-43.1449 34.825-38.2458C33.948-37.3247 32.7003-37.3176 31.9526-38.1835L28.2452-42.0085C27.5591-42.7199 27.4968-43.6955 28.0907-44.4439ZM91.1569-44.4439C91.7508-43.6955 91.6956-42.7199 91.0023-42.0085L87.2878-38.2206C86.492-37.4469 85.2995-37.4169 84.5148-38.1906C79.8863-43.1591 74.0756-46.4098 67.5434-47.8547C67.5986-50.8413 67.6719-53.7418 67.6719-56.0566C67.6719-56.5799 67.6175-57.085 67.4722-57.609C76.9928-55.8494 85.824-51.0228 91.1569-44.4439ZM38.8788-33.5533C41.9591-37.2053 46.5836-39.8993 51.7579-41.3149C51.8312-38.4861 51.8494-35.7922 51.9046-33.4725C51.9227-32.6718 51.9772-31.8892 52.1043-31.2344C49.8457-30.2732 47.826-28.8442 46.1739-27.1085C45.2709-26.1937 44.1297-26.1684 43.2897-27.039L39.0696-31.1502C38.3472-31.8363 38.292-32.8119 38.8788-33.5533ZM80.3317-33.5533C80.9555-32.8419 80.9003-31.7993 80.2149-31.1502L75.9578-27.039C75.136-26.2354 74.0247-26.1755 73.1841-27.0714C71.5138-28.8812 69.42-30.3102 67.1062-31.2715C67.2333-31.9814 67.2877-32.7829 67.3059-33.5466C67.3241-35.8592 67.3792-38.5232 67.4156-41.3149C72.6339-39.9435 77.2585-37.2053 80.3317-33.5533ZM59.6238-26.0934C57.4308-26.0934 56.1696-27.4485 56.0962-29.6636C55.9858-37.9566 55.7302-49.1932 55.6191-57.0868C55.6191-59.3624 57.3101-60.9875 59.5867-60.9875C61.9186-60.9875 63.5914-59.3624 63.5914-57.0868C63.4803-49.1932 63.2617-37.9566 63.1513-29.6636C63.0779-27.4485 61.8167-26.0934 59.6238-26.0934ZM59.5867-11.8714C56.8142-11.8714 54.4804-14.1067 54.4804-16.8065C54.4804-19.5876 56.8142-21.7858 59.5867-21.7858C62.4333-21.7858 64.712-19.5805 64.712-16.8065C64.712-14.1067 62.4333-11.8714 59.5867-11.8714Z"/>
  </g>
  <g id="Medium-M" transform="matrix(1 0 0 1 1687.4 1126)">
   <path class="SFSymbolsPreviewWireframe" d="M59.1344 15.2237C86.7435 15.2237 109.59-7.57896 109.59-35.1881C109.59-62.7972 86.7001-85.5998 59.091-85.5998C31.5167-85.5998 8.72266-62.7972 8.72266-35.1881C8.72266-7.57896 31.5601 15.2237 59.1344 15.2237ZM27.4637-44.4608C32.885-51.1454 41.9064-55.9935 51.5977-57.7308C51.5155-57.3348 51.4846-57.0154 51.4846-56.6422C51.5281-54.0849 51.5486-51.1394 51.6023-48.2018C44.8562-46.7896 38.8755-43.4402 34.0807-38.3631C33.2378-37.4682 32.0367-37.4596 31.3343-38.3008L27.6231-42.128C26.9602-42.8098 26.8979-43.7356 27.4637-44.4608ZM90.8051-44.4608C91.3709-43.7356 91.3172-42.8098 90.6457-42.128L86.9259-38.3442C86.1784-37.6001 85.0309-37.5653 84.2852-38.3094C79.4831-43.4574 73.407-46.7896 66.5796-48.2018C66.6333-51.1394 66.6973-54.0415 66.6973-56.5988C66.6973-56.9719 66.6665-57.3348 66.5842-57.7308C76.3189-56.0369 85.3752-51.1368 90.8051-44.4608ZM38.3343-33.4689C41.52-37.2624 46.329-40.0269 51.6971-41.4272C51.7611-38.6193 51.7714-35.9148 51.8251-33.4175C51.8354-32.7301 51.8662-32.0529 51.9382-31.4706C49.4816-30.4714 47.2955-28.9408 45.5121-27.0693C44.6274-26.1602 43.5406-26.1413 42.7411-26.9984L38.5143-31.1636C37.8308-31.8265 37.7771-32.7523 38.3343-33.4689ZM79.8911-33.4689C80.4917-32.7871 80.438-31.7831 79.798-31.1636L75.5277-26.9984C74.7385-26.2195 73.6864-26.1499 72.8641-27.0259C71.0705-28.9842 68.7975-30.5148 66.2872-31.514C66.3591-32.15 66.39-32.8603 66.4003-33.5043C66.4105-35.993 66.4642-38.6627 66.4848-41.4272C71.9049-40.0789 76.714-37.2624 79.8911-33.4689ZM59.1344-25.7462C57.2318-25.7462 56.0815-26.9633 56.0176-28.8693C55.9102-38.0191 55.7205-48.9024 55.5903-57.826C55.5903-59.8698 57.1455-61.2485 59.091-61.2485C61.0901-61.2485 62.6351-59.8698 62.6351-57.826C62.5048-48.9024 62.3586-38.0191 62.2512-28.8693C62.1872-26.9633 61.037-25.7462 59.1344-25.7462ZM59.091-11.8615C56.5038-11.8615 54.3001-13.9824 54.3001-16.5285C54.3001-19.17 56.5038-21.2474 59.091-21.2474C61.765-21.2474 63.915-19.1614 63.915-16.5285C63.915-13.9824 61.765-11.8615 59.091-11.8615Z"/>
  </g>
  <g id="Regular-M" transform="matrix(1 0 0 1 1391.32 1126)">
   <path class="SFSymbolsPreviewWireframe" d="M58.4961 14.5751C85.7192 14.5751 108.321-7.9752 108.321-35.1983C108.321-62.4215 85.6675-84.9718 58.4443-84.9718C31.2624-84.9718 8.72266-62.4215 8.72266-35.1983C8.72266-7.9752 31.3141 14.5751 58.4961 14.5751ZM26.6458-44.4827C32.192-51.2961 41.5005-56.2297 51.4627-57.8898C51.4627-57.6607 51.4627-57.5351 51.4627-57.3577C51.5144-54.4841 51.5144-51.5282 51.5662-48.6546C44.4268-47.2849 38.1185-43.8255 33.11-38.516C32.3116-37.6553 31.171-37.6448 30.5278-38.4537L26.8117-42.284C26.1791-42.9271 26.1168-43.7878 26.6458-44.4827ZM90.3463-44.4827C90.8754-43.7878 90.8237-42.9271 90.1805-42.284L86.4538-38.5055C85.7694-37.8 84.6806-37.7588 83.9857-38.4643C78.9571-43.8466 72.5347-47.2849 65.3225-48.6546C65.3742-51.5282 65.426-54.4324 65.426-57.306C65.426-57.4833 65.426-57.6607 65.426-57.8898C75.44-56.2814 84.7897-51.2855 90.3463-44.4827ZM37.624-33.3588C40.9473-37.3368 45.997-40.1933 51.6179-41.5735C51.6697-38.7929 51.6697-36.0746 51.7214-33.3458C51.7214-32.8061 51.7214-32.2665 51.7214-31.7786C49.0067-30.73 46.6034-29.0668 44.6489-27.0183C43.7882-26.1164 42.7722-26.1059 42.0255-26.9455L37.7898-31.1812C37.1572-31.8138 37.1055-32.6745 37.624-33.3588ZM79.3164-33.3588C79.8867-32.7157 79.8349-31.762 79.2541-31.1812L74.9666-26.9455C74.22-26.1988 73.2452-26.1164 72.4468-26.9666C70.4922-29.1186 67.9855-30.7817 65.219-31.8303C65.219-32.37 65.219-32.9614 65.219-33.4493C65.219-36.1676 65.2707-38.8447 65.2707-41.5735C70.954-40.2556 76.0037-37.3368 79.3164-33.3588ZM58.4961-25.2934C56.9721-25.2934 55.9667-26.3305 55.915-27.8334C55.8114-38.1006 55.7079-48.523 55.5527-58.7902C55.5527-60.5317 56.9309-61.5889 58.4443-61.5889C60.0095-61.5889 61.3877-60.5317 61.3877-58.7902C61.2325-48.523 61.1807-38.1006 61.0772-27.8334C61.0255-26.3305 60.0201-25.2934 58.4961-25.2934ZM58.4443-11.8486C56.0989-11.8486 54.0649-13.8203 54.0649-16.1658C54.0649-18.6253 56.0989-20.5452 58.4443-20.5452C60.8933-20.5452 62.8755-18.6147 62.8755-16.1658C62.8755-13.8203 60.8933-11.8486 58.4443-11.8486Z"/>
  </g>
  <g id="Light-M" transform="matrix(1 0 0 1 1095.44 1126)">
   <path class="SFSymbolsPreviewWireframe" d="M57.6748 13.7538C84.4872 13.7538 106.662-8.38586 106.662-35.1983C106.662-62.0108 84.4526-84.1504 57.6401-84.1504C30.8346-84.1504 8.72266-62.0108 8.72266-35.1983C8.72266-8.38586 30.8693 13.7538 57.6748 13.7538ZM25.6021-44.5854C31.2509-51.5356 41.0042-56.589 51.36-58.1122C51.36-57.8147 51.36-57.5864 51.36-57.3235C51.3946-54.7408 51.3946-52.1442 51.4293-49.5615C43.7252-48.2945 36.8865-44.681 31.5358-39.0465C30.8571-38.3055 29.8877-38.2779 29.313-38.9842L25.7337-42.6604C25.1866-43.2351 25.1243-43.9761 25.6021-44.5854ZM89.7475-44.5854C90.2252-43.9761 90.1906-43.2351 89.6159-42.6604L86.0089-39.0188C85.4272-38.3818 84.4924-38.3748 83.8831-39.0118C78.5807-44.7364 71.645-48.2945 63.851-49.5615C63.8856-52.1442 63.9202-54.7062 63.9202-57.2888C63.9202-57.5518 63.9202-57.8147 63.9202-58.1122C74.3106-56.6236 84.071-51.5079 89.7475-44.5854ZM36.8027-33.2049C40.1602-37.2684 45.5178-40.2104 51.4639-41.5051C51.4986-38.964 51.4986-36.4853 51.5332-33.9789C51.5332-33.4734 51.5332-32.968 51.5332-32.4973C48.3565-31.4657 45.4912-29.6315 43.2971-27.2921C42.5562-26.5442 41.7113-26.5165 41.0673-27.2021L36.9343-31.3352C36.3872-31.8822 36.3526-32.6232 36.8027-33.2049ZM78.5122-33.2049C78.9969-32.6301 78.9623-31.8476 78.4499-31.3352L74.2822-27.2021C73.6382-26.5581 72.8003-26.5442 72.1217-27.2575C69.9276-29.6661 66.9931-31.5004 63.7817-32.5319C63.7817-33.0373 63.7817-33.5774 63.7817-34.0481C63.7817-36.5269 63.8163-38.9987 63.8163-41.5051C69.8247-40.2727 75.1824-37.2684 78.5122-33.2049ZM57.6748-24.3866C56.4075-24.3866 55.5903-25.2867 55.5556-26.4987C55.4863-37.553 55.4171-48.7112 55.3131-59.7655C55.3131-61.199 56.4005-62.0509 57.6401-62.0509C58.9144-62.0509 60.0018-61.199 60.0018-59.7655C59.8978-48.7112 59.8632-37.553 59.7939-26.4987C59.7593-25.2867 58.9421-24.3866 57.6748-24.3866ZM57.6401-12.2764C55.4315-12.2764 53.5345-14.1112 53.5345-16.3198C53.5345-18.6253 55.4315-20.4254 57.6401-20.4254C59.918-20.4254 61.7804-18.5976 61.7804-16.3198C61.7804-14.1112 59.918-12.2764 57.6401-12.2764Z"/>
  </g>
  <g id="Thin-M" transform="matrix(1 0 0 1 799.828 1126)">
   <path class="SFSymbolsPreviewWireframe" d="M56.5885 12.6675C82.8578 12.6675 104.466-8.92899 104.466-35.1983C104.466-61.4677 82.8458-83.0642 56.5765-83.0642C30.2689-83.0642 8.72266-61.4677 8.72266-35.1983C8.72266-8.92899 30.2809 12.6675 56.5885 12.6675ZM24.2216-44.7212C30.0062-51.8524 40.348-57.0642 51.2242-58.4064C51.2242-58.0184 51.2242-57.6543 51.2242-57.2782C51.2362-55.0803 51.2362-52.9589 51.2482-50.7609C42.7974-49.6297 35.2571-45.8126 29.4537-39.748C28.9335-39.1655 28.1904-39.1152 27.7062-39.6857L24.3079-43.1583C23.874-43.6425 23.8117-44.225 24.2216-44.7212ZM88.9554-44.7212C89.3652-44.225 89.3532-43.6425 88.8691-43.1583L85.4205-39.6977C84.9746-39.1513 84.2435-39.1895 83.7473-39.736C78.0828-45.9132 70.4682-49.6297 61.9047-50.7609C61.9167-52.9589 61.9287-55.0683 61.9287-57.2662C61.9287-57.6423 61.9287-58.0184 61.9287-58.4064C72.817-57.0763 83.1205-51.8021 88.9554-44.7212ZM35.7164-33.0012C39.1192-37.1778 44.8842-40.233 51.2603-41.4146C51.2723-39.1903 51.2723-37.0284 51.2843-34.8162C51.2843-34.356 51.2843-33.8959 51.2843-33.4477C47.4965-32.4389 44.0202-30.3783 41.5093-27.6542C40.9268-27.11 40.3082-27.0597 39.8-27.5416L35.8028-31.5389C35.3689-31.9728 35.3569-32.5553 35.7164-33.0012ZM77.4486-33.0012C77.8201-32.517 77.8081-31.9607 77.3862-31.5389L73.377-27.5416C72.8688-27.0334 72.2119-27.11 71.6917-27.6422C69.1808-30.3903 65.6805-32.4509 61.8807-33.4597C61.8807-33.9199 61.8807-34.3921 61.8807-34.8402C61.8807-37.0021 61.8927-39.2023 61.8927-41.4146C68.3311-40.2953 74.0961-37.1778 77.4486-33.0012ZM56.5885-23.1871C55.6607-23.1871 55.0924-23.9063 55.0804-24.7335C55.0564-36.8288 55.0323-48.9602 54.9963-61.0554C54.9963-62.0816 55.6989-62.6619 56.5765-62.6619C57.466-62.6619 58.1687-62.0816 58.1687-61.0554C58.1326-48.9602 58.1206-36.8288 58.0966-24.7335C58.0846-23.9063 57.5163-23.1871 56.5885-23.1871ZM56.5765-12.8422C54.5489-12.8422 52.8329-14.4959 52.8329-16.5234C52.8329-18.6253 54.5489-20.267 56.5765-20.267C58.628-20.267 60.3321-18.575 60.3321-16.5234C60.3321-14.4959 58.628-12.8422 56.5765-12.8422Z"/>
  </g>
  <g id="Ultralight-M" transform="matrix(1 0 0 1 503.679 1126)">
   <path class="SFSymbolsPreviewWireframe" d="M56.0321 12.1111C82.0233 12.1111 103.342-9.20719 103.342-35.1983C103.342-61.1895 82.0228-82.5078 56.0317-82.5078C29.9791-82.5078 8.72266-61.1895 8.72266-35.1983C8.72266-9.20719 29.9795 12.1111 56.0321 12.1111ZM23.5145-44.7907C29.3687-52.0147 40.0118-57.3077 51.1547-58.5571C51.1547-58.1227 51.1547-57.6891 51.1547-57.255C51.1551-55.2541 51.1551-53.3762 51.1555-51.3753C42.3221-50.3135 34.4225-46.3921 28.3873-40.1074C27.9483-39.606 27.321-39.5441 26.8832-40.0451L23.5777-43.4133C23.2018-43.8511 23.1394-44.3525 23.5145-44.7907ZM88.5497-44.7907C88.9248-44.3525 88.9244-43.8511 88.4865-43.4133L85.1191-40.0455C84.7428-39.5454 84.116-39.6068 83.6777-40.1069C77.8278-46.5159 69.8654-50.3135 60.9079-51.3753C60.9083-53.3762 60.9087-55.2537 60.9087-57.2546C60.9087-57.6886 60.9087-58.1227 60.9087-58.5571C72.052-57.3081 82.6337-51.9528 88.5497-44.7907ZM35.16-32.8969C38.586-37.1315 44.5596-40.2446 51.1559-41.3682C51.1564-39.3062 51.1564-37.3066 51.1568-35.2451C51.1568-34.8081 51.1568-34.3711 51.1568-33.9346C47.056-32.9373 43.2668-30.7608 40.5936-27.8397C40.0922-27.3997 39.5896-27.3378 39.1509-27.7155L35.2232-31.6432C34.8473-32.0191 34.8468-32.5205 35.16-32.8969ZM76.9038-32.8969C77.2174-32.459 77.217-32.0187 76.8415-31.6432L72.9133-27.7155C72.4747-27.2768 71.9106-27.3997 71.4715-27.8392C68.7983-30.7612 65.0082-32.9377 60.907-33.935C60.907-34.372 60.907-34.8094 60.907-35.2459C60.907-37.2456 60.9075-39.3067 60.9075-41.3682C67.5661-40.3069 73.5397-37.1315 76.9038-32.8969ZM56.0321-22.5728C55.2781-22.5728 54.8374-23.1992 54.837-23.8294C54.8361-36.4579 54.8353-49.0877 54.834-61.7161C54.834-62.5337 55.3396-62.9749 56.0317-62.9749C56.7242-62.9749 57.2298-62.5337 57.2298-61.7161C57.2285-49.0877 57.2281-36.4579 57.2273-23.8294C57.2268-23.1992 56.7861-22.5728 56.0321-22.5728ZM56.0317-13.132C54.0969-13.132 52.4736-14.6929 52.4736-16.6278C52.4736-18.6253 54.0969-20.1859 56.0317-20.1859C57.9673-20.1859 59.5902-18.5634 59.5902-16.6278C59.5902-14.6929 57.9673-13.132 56.0317-13.132Z"/>
  </g>
  <g id="Black-S" transform="matrix(1 0 0 1 2884.57 696)">
   <path class="SFSymbolsPreviewWireframe" d="M48.8281 6.83594C71.9727 6.83594 90.8203-12.0117 90.8203-35.1562C90.8203-58.3008 71.9727-77.1484 48.8281-77.1484C25.6836-77.1484 6.83594-58.3008 6.83594-35.1562C6.83594-12.0117 25.6836 6.83594 48.8281 6.83594ZM24.707-42.3828C28.4668-47.1191 34.4238-50.5859 40.9668-52.2461C40.5762-51.2695 40.4297-50.2441 40.4297-49.1699C40.4297-48.4375 40.5273-46.1914 40.5762-43.6523C36.8164-42.3828 33.3984-40.1855 30.4688-37.1094C29.6387-36.2793 28.4668-36.2793 27.6855-37.0605L24.8047-40.0391C24.1699-40.7227 24.1211-41.6992 24.707-42.3828ZM72.9492-42.3828C73.5352-41.6992 73.4863-40.7227 72.8516-40.0391L69.9707-37.0605C69.1406-36.3281 68.0176-36.3281 67.2363-37.0605C64.3555-40.1855 60.9375-42.3828 57.0801-43.6523C57.1289-46.1914 57.2266-48.4375 57.2266-49.1699C57.2266-50.2441 57.0801-51.2695 56.6895-52.2461C63.2324-50.5859 69.1895-47.1191 72.9492-42.3828ZM32.8125-34.2773C34.7656-36.5234 37.5977-38.3301 40.8203-39.502C40.918-37.207 40.9668-35.1562 41.0156-34.1309C41.0645-33.0078 41.2109-31.9336 41.5527-31.1035C40.625-30.5176 39.7461-29.834 39.0137-29.0527C38.2324-28.3203 37.1094-28.2715 36.2793-29.0039L33.0078-31.9824C32.2754-32.6172 32.2266-33.5938 32.8125-34.2773ZM64.8438-34.2773C65.4297-33.5938 65.3809-32.6172 64.6484-31.9824L61.377-29.0039C60.5957-28.2715 59.4727-28.2715 58.7402-29.0527C57.959-29.834 57.0801-30.5176 56.1035-31.1035C56.4453-31.9824 56.5918-33.0078 56.6406-34.1309C56.6895-35.1562 56.7383-37.207 56.8359-39.502C60.0586-38.3301 62.8906-36.5234 64.8438-34.2773ZM48.8281-29.541C45.8496-29.541 44.3848-31.2012 44.2871-34.2773C44.1895-37.0605 43.7012-47.4609 43.7012-49.1699C43.7012-51.9531 45.6055-54.2969 48.8281-54.2969C52.0996-54.2969 53.9551-51.9531 53.9551-49.1699C53.9551-47.4609 53.4668-37.0605 53.3691-34.2773C53.2715-31.2012 51.8066-29.541 48.8281-29.541ZM48.8281-16.9922C45.8496-16.9922 43.457-19.2383 43.457-22.0215C43.457-24.8047 45.8496-27.0508 48.8281-27.0508C51.8066-27.0508 54.1504-24.8047 54.1504-22.0215C54.1504-19.2383 51.8066-16.9922 48.8281-16.9922Z"/>
  </g>
  <g id="Heavy-S" transform="matrix(1 0 0 1 2588.47 696)">
   <path class="SFSymbolsPreviewWireframe" d="M48.2173 6.21362C70.9816 6.21362 89.6102-12.4036 89.6102-35.1678C89.6102-57.932 70.97-76.5492 48.2058-76.5492C25.4531-76.5492 6.83594-57.932 6.83594-35.1678C6.83594-12.4036 25.4646 6.21362 48.2173 6.21362ZM23.9234-42.3943C27.8099-47.2574 34.032-50.8049 40.8285-52.3959C40.5301-51.6153 40.4182-50.8204 40.4182-49.9766C40.4297-48.8524 40.5043-46.5487 40.5531-44.0442C36.4246-42.8092 32.707-40.5082 29.5814-37.2131C28.7859-36.4061 27.6601-36.4061 26.9365-37.1643L24.0325-40.1658C23.4208-40.8149 23.372-41.7338 23.9234-42.3943ZM72.5113-42.3943C73.0627-41.7338 73.0138-40.8149 72.4021-40.1658L69.4982-37.1758C68.7257-36.4779 67.6488-36.4664 66.9136-37.1643C63.8138-40.5082 60.0732-42.8092 55.8585-44.0442C55.9073-46.5487 55.9934-48.8409 55.9934-49.9651C55.9934-50.8088 55.8815-51.6153 55.5831-52.3959C62.3911-50.8164 68.6248-47.2574 72.5113-42.3943ZM32.121-34.1736C34.224-36.6156 37.2865-38.5145 40.7512-39.6748C40.8373-37.3799 40.8746-35.283 40.9234-33.9695C40.9607-33.0078 41.0726-32.0834 41.3338-31.3571C40.1755-30.7135 39.1122-29.9031 38.2185-28.9605C37.4488-28.2166 36.3833-28.1793 35.5994-28.9117L32.3048-31.9824C31.6185-32.5941 31.5697-33.5131 32.121-34.1736ZM64.3021-34.1736C64.865-33.5246 64.8162-32.5826 64.1414-31.9824L60.8353-28.9117C60.0886-28.2023 59.0347-28.1793 58.3138-28.949C57.3828-29.9147 56.2964-30.725 55.0894-31.3686C55.3505-32.1438 55.4624-33.0424 55.4997-33.9926C55.537-35.3061 55.5858-37.3914 55.6604-39.6748C59.1366-38.526 62.1992-36.6156 64.3021-34.1736ZM48.2173-29.1492C45.6306-29.1492 44.3041-30.6249 44.218-33.2862C44.1203-37.2219 43.7242-47.0115 43.6896-50.1265C43.6896-52.61 45.4326-54.6196 48.2058-54.6196C51.0278-54.6196 52.7335-52.61 52.7335-50.1265C52.6989-47.0115 52.3144-37.2219 52.2167-33.2862C52.1306-30.6249 50.804-29.1492 48.2173-29.1492ZM48.2058-16.923C45.4808-16.923 43.2611-19.0193 43.2611-21.5951C43.2611-24.1939 45.4808-26.2786 48.2058-26.2786C50.9538-26.2786 53.1247-24.1939 53.1247-21.5951C53.1247-19.0193 50.9538-16.923 48.2058-16.923Z"/>
  </g>
  <g id="Bold-S" transform="matrix(1 0 0 1 2292.43 696)">
   <path class="SFSymbolsPreviewWireframe" d="M47.5342 5.51758C69.873 5.51758 88.2568-12.8418 88.2568-35.1807C88.2568-57.5195 69.8486-75.8789 47.5098-75.8789C25.1953-75.8789 6.83594-57.5195 6.83594-35.1807C6.83594-12.8418 25.2197 5.51758 47.5342 5.51758ZM23.0469-42.4072C27.0752-47.4121 33.5938-51.0498 40.6738-52.5635C40.4785-52.002 40.4053-51.4648 40.4053-50.8789C40.4297-49.3164 40.4785-46.9482 40.5273-44.4824C35.9863-43.2861 31.9336-40.8691 28.5889-37.3291C27.832-36.5479 26.7578-36.5479 26.0986-37.2803L23.1689-40.3076C22.583-40.918 22.5342-41.7725 23.0469-42.4072ZM72.0215-42.4072C72.5342-41.7725 72.4854-40.918 71.8994-40.3076L68.9697-37.3047C68.2617-36.6455 67.2363-36.6211 66.5527-37.2803C63.208-40.8691 59.1064-43.2861 54.4922-44.4824C54.541-46.9482 54.6143-49.292 54.6143-50.8545C54.6143-51.4404 54.541-52.002 54.3457-52.5635C61.4502-51.0742 67.9932-47.4121 72.0215-42.4072ZM31.3477-34.0576C33.6182-36.7188 36.9385-38.7207 40.6738-39.8682C40.7471-37.5732 40.7715-35.4248 40.8203-33.7891C40.8447-33.0078 40.918-32.251 41.0889-31.6406C39.6729-30.9326 38.4033-29.9805 37.3291-28.8574C36.5723-28.1006 35.5713-28.0762 34.8389-28.8086L31.5186-31.9824C30.8838-32.5684 30.835-33.4229 31.3477-34.0576ZM63.6963-34.0576C64.2334-33.4473 64.1846-32.5439 63.5742-31.9824L60.2295-28.8086C59.5215-28.125 58.5449-28.0762 57.8369-28.833C56.7383-30.0049 55.4199-30.957 53.9551-31.665C54.126-32.3242 54.1992-33.0811 54.2236-33.8379C54.248-35.4736 54.2969-37.5977 54.3457-39.8682C58.1055-38.7451 61.4258-36.7188 63.6963-34.0576ZM47.5342-28.7109C45.3857-28.7109 44.2139-29.9805 44.1406-32.1777C44.043-37.4023 43.75-46.5088 43.6768-51.1963C43.6768-53.3447 45.2393-54.9805 47.5098-54.9805C49.8291-54.9805 51.3672-53.3447 51.3672-51.1963C51.2939-46.5088 51.0254-37.4023 50.9277-32.1777C50.8545-29.9805 49.6826-28.7109 47.5342-28.7109ZM47.5098-16.8457C45.0684-16.8457 43.042-18.7744 43.042-21.1182C43.042-23.5107 45.0684-25.415 47.5098-25.415C50-25.415 51.9775-23.5107 51.9775-21.1182C51.9775-18.7744 50-16.8457 47.5098-16.8457Z"/>
  </g>
  <g id="Semibold-S" transform="matrix(1 0 0 1 1996.19 696)">
   <path class="SFSymbolsPreviewWireframe" d="M47.0632 5.0377C69.1088 5.0377 87.3237-13.1439 87.3237-35.1896C87.3237-57.2352 69.0755-75.4168 47.0299-75.4168C25.0176-75.4168 6.83594-57.2352 6.83594-35.1896C6.83594-13.1439 25.0509 5.0377 47.0632 5.0377ZM22.4426-42.4161C26.5687-47.5187 33.2916-51.2187 40.5672-52.679C40.443-52.2686 40.3964-51.9092 40.3964-51.501C40.4297-49.6363 40.4607-47.2237 40.5096-44.7846C35.6842-43.6149 31.4004-41.118 27.9046-37.4091C27.1744-36.6456 26.1357-36.6456 25.521-37.3603L22.5735-40.4054C22.0054-40.9891 21.9565-41.7991 22.4426-42.4161ZM71.6838-42.4161C72.1698-41.7991 72.121-40.9891 71.5528-40.4054L68.6054-37.3936C67.9418-36.761 66.952-36.7277 66.3039-37.3603C62.7903-41.118 58.4399-43.6149 53.5502-44.7846C53.599-47.2237 53.6634-49.603 53.6634-51.4677C53.6634-51.8759 53.6168-52.2686 53.4926-52.679C60.8015-51.252 67.5577-47.5187 71.6838-42.4161ZM30.8145-33.9776C33.2005-36.7898 36.6985-38.8629 40.6205-40.0015C40.6849-37.7065 40.7004-35.5226 40.7492-33.6646C40.7647-33.0078 40.8113-32.3665 40.92-31.8361C39.3263-31.0837 37.9146-30.0338 36.7159-28.7863C35.968-28.0206 35.0114-28.0051 34.3146-28.7375L30.9765-31.9824C30.3772-32.5506 30.3284-33.3606 30.8145-33.9776ZM63.2786-33.9776C63.7979-33.3939 63.7491-32.5173 63.1832-31.9824L59.8118-28.7375C59.1305-28.0717 58.2072-28.0051 57.5081-28.753C56.2939-30.0671 54.8156-31.117 53.173-31.8694C53.2817-32.4486 53.3283-33.1077 53.3438-33.7313C53.3594-35.5892 53.4082-37.7398 53.4393-40.0015C57.3945-38.8962 60.8926-36.7898 63.2786-33.9776ZM47.0632-28.4088C45.2169-28.4088 44.1517-29.5361 44.0873-31.4135C43.9896-37.5268 43.7678-46.1622 43.6679-51.9339C43.6679-53.8513 45.106-55.2293 47.0299-55.2293C49.0026-55.2293 50.4252-53.8513 50.4252-51.9339C50.3253-46.1622 50.1367-37.5268 50.0391-31.4135C49.9747-29.5361 48.9095-28.4088 47.0632-28.4088ZM47.0299-16.7924C44.784-16.7924 42.8909-18.6056 42.8909-20.7894C42.8909-23.0397 44.784-24.8196 47.0299-24.8196C49.3424-24.8196 51.1866-23.0397 51.1866-20.7894C51.1866-18.6056 49.3424-16.7924 47.0299-16.7924Z"/>
  </g>
  <g id="Medium-S" transform="matrix(1 0 0 1 1699.83 696)">
   <path class="SFSymbolsPreviewWireframe" d="M46.7061 4.67383C68.5293 4.67383 86.6162-13.373 86.6162-35.1963C86.6162-57.0195 68.4893-75.0664 46.666-75.0664C24.8828-75.0664 6.83594-57.0195 6.83594-35.1963C6.83594-13.373 24.9229 4.67383 46.7061 4.67383ZM21.9844-42.4229C26.1846-47.5996 33.0625-51.3467 40.4863-52.7666C40.416-52.4707 40.3896-52.2461 40.3896-51.9727C40.4297-49.8789 40.4473-47.4326 40.4961-45.0137C35.4551-43.8643 30.9961-41.3066 27.3857-37.4697C26.6758-36.7197 25.6641-36.7197 25.083-37.4209L22.1221-40.4795C21.5674-41.043 21.5186-41.8193 21.9844-42.4229ZM71.4277-42.4229C71.8936-41.8193 71.8447-41.043 71.29-40.4795L68.3291-37.4609C67.6992-36.8486 66.7363-36.8086 66.1152-37.4209C62.4736-41.3066 57.9346-43.8643 52.8359-45.0137C52.8848-47.4326 52.9424-49.8389 52.9424-51.9326C52.9424-52.2061 52.916-52.4707 52.8457-52.7666C60.3096-51.3867 67.2275-47.5996 71.4277-42.4229ZM30.4102-33.917C32.8838-36.8438 36.5166-38.9707 40.5801-40.1025C40.6377-37.8076 40.6465-35.5967 40.6953-33.5703C40.7041-33.0078 40.7305-32.4541 40.792-31.9844C39.0635-31.1982 37.5439-30.0742 36.251-28.7324C35.5098-27.96 34.5869-27.9512 33.917-28.6836L30.5654-31.9824C29.9932-32.5371 29.9443-33.3135 30.4102-33.917ZM62.9619-33.917C63.4678-33.3535 63.4189-32.4971 62.8867-31.9824L59.4951-28.6836C58.834-28.0312 57.9512-27.9512 57.2588-28.6924C55.957-30.1143 54.3574-31.2383 52.5801-32.0244C52.6416-32.543 52.668-33.1279 52.6768-33.6504C52.6855-35.6768 52.7344-37.8477 52.752-40.1025C56.8555-39.0107 60.4883-36.8438 62.9619-33.917ZM46.7061-28.1797C45.0889-28.1797 44.1045-29.1992 44.0469-30.834C43.9492-37.6211 43.7812-45.8994 43.6611-52.4932C43.6611-54.2354 45.0049-55.418 46.666-55.418C48.376-55.418 49.7109-54.2354 49.7109-52.4932C49.5908-45.8994 49.4629-37.6211 49.3652-30.834C49.3076-29.1992 48.3232-28.1797 46.7061-28.1797ZM46.666-16.752C44.5684-16.752 42.7764-18.4775 42.7764-20.54C42.7764-22.6826 44.5684-24.3682 46.666-24.3682C48.8438-24.3682 50.5869-22.6826 50.5869-20.54C50.5869-18.4775 48.8438-16.752 46.666-16.752Z"/>
  </g>
  <g id="Regular-S" transform="matrix(1 0 0 1 1403.58 696)">
   <path class="SFSymbolsPreviewWireframe" d="M46.2402 4.19922C67.7734 4.19922 85.6934-13.6719 85.6934-35.2051C85.6934-56.7383 67.7246-74.6094 46.1914-74.6094C24.707-74.6094 6.83594-56.7383 6.83594-35.2051C6.83594-13.6719 24.7559 4.19922 46.2402 4.19922ZM21.3867-42.4316C25.6836-47.7051 32.7637-51.5137 40.3809-52.8809C40.3809-52.7344 40.3809-52.6855 40.3809-52.5879C40.4297-50.1953 40.4297-47.7051 40.4785-45.3125C35.1562-44.1895 30.4688-41.5527 26.709-37.5488C26.0254-36.8164 25.0488-36.8164 24.5117-37.5L21.5332-40.5762C20.9961-41.1133 20.9473-41.8457 21.3867-42.4316ZM71.0938-42.4316C71.5332-41.8457 71.4844-41.1133 70.9473-40.5762L67.9688-37.5488C67.3828-36.9629 66.4551-36.9141 65.8691-37.5C62.0605-41.5527 57.2754-44.1895 51.9043-45.3125C51.9531-47.7051 52.002-50.1465 52.002-52.5391C52.002-52.6367 52.002-52.7344 52.002-52.8809C59.668-51.5625 66.7969-47.7051 71.0938-42.4316ZM29.8828-33.8379C32.4707-36.9141 36.2793-39.1113 40.5273-40.2344C40.5762-37.9395 40.5762-35.6934 40.625-33.4473C40.625-33.0078 40.625-32.5684 40.625-32.1777C38.7207-31.3477 37.0605-30.127 35.6445-28.6621C34.9121-27.8809 34.0332-27.8809 33.3984-28.6133L30.0293-31.9824C29.4922-32.5195 29.4434-33.252 29.8828-33.8379ZM62.5488-33.8379C63.0371-33.3008 62.9883-32.4707 62.5-31.9824L59.082-28.6133C58.4473-27.9785 57.6172-27.8809 56.9336-28.6133C55.5176-30.1758 53.7598-31.3965 51.8066-32.2266C51.8066-32.666 51.8066-33.1543 51.8066-33.5449C51.8066-35.791 51.8555-37.9883 51.8555-40.2344C56.1523-39.1602 59.9609-36.9141 62.5488-33.8379ZM46.2402-27.8809C44.9219-27.8809 44.043-28.7598 43.9941-30.0781C43.8965-37.7441 43.7988-45.5566 43.6523-53.2227C43.6523-54.7363 44.873-55.6641 46.1914-55.6641C47.5586-55.6641 48.7793-54.7363 48.7793-53.2227C48.6328-45.5566 48.584-37.7441 48.4863-30.0781C48.4375-28.7598 47.5586-27.8809 46.2402-27.8809ZM46.1914-16.6992C44.2871-16.6992 42.627-18.3105 42.627-20.2148C42.627-22.2168 44.2871-23.7793 46.1914-23.7793C48.1934-23.7793 49.8047-22.2168 49.8047-20.2148C49.8047-18.3105 48.1934-16.6992 46.1914-16.6992Z"/>
  </g>
  <g id="Light-S" transform="matrix(1 0 0 1 1107.6 696)">
   <path class="SFSymbolsPreviewWireframe" d="M45.5137 3.47266C66.6836 3.47266 84.2251-14.0352 84.2251-35.2051C84.2251-56.375 66.6499-73.8828 45.48-73.8828C24.3286-73.8828 6.83594-56.375 6.83594-35.2051C6.83594-14.0352 24.3623 3.47266 45.5137 3.47266ZM20.4634-42.5225C24.8511-47.917 32.3247-51.8315 40.29-53.0776C40.29-52.8706 40.29-52.731 40.29-52.5576C40.3237-50.4224 40.3237-48.25 40.3574-46.1147C34.5356-45.0825 29.3789-42.3096 25.3164-38.0181C24.7388-37.3916 23.9136-37.3765 23.437-37.9692L20.5796-40.9092C20.1182-41.3857 20.0693-42.0122 20.4634-42.5225ZM70.564-42.5225C70.958-42.0122 70.9243-41.3857 70.4478-40.9092L67.5752-38.0029C67.0801-37.4775 66.2886-37.459 65.7783-37.9844C61.7275-42.3398 56.4883-45.0825 50.6025-46.1147C50.6362-48.25 50.6699-50.3887 50.6699-52.5239C50.6699-52.6973 50.6699-52.8706 50.6699-53.0776C58.669-51.8652 66.1611-47.9019 70.564-42.5225ZM29.1563-33.7017C31.7744-36.8535 35.8555-39.1265 40.3911-40.1738C40.4248-38.0908 40.4248-36.0566 40.4585-34.0073C40.4585-33.5981 40.4585-33.189 40.4585-32.8135C38.1455-31.9985 36.0767-30.6265 34.4487-28.9043C33.8223-28.2593 33.0947-28.2441 32.5508-28.8403L29.2725-32.1187C28.811-32.5801 28.7773-33.2065 29.1563-33.7017ZM61.8374-33.7017C62.25-33.2251 62.2163-32.5464 61.7886-32.1187L58.4766-28.8403C57.9326-28.2964 57.2236-28.2593 56.646-28.8706C55.0181-30.6602 52.8818-32.0322 50.5352-32.8472C50.5352-33.2563 50.5352-33.6992 50.5352-34.0747C50.5352-36.1089 50.5689-38.1245 50.5689-40.1738C55.1533-39.1753 59.2344-36.8535 61.8374-33.7017ZM45.5137-27.0786C44.4224-27.0786 43.71-27.8364 43.6763-28.8975C43.6089-37.2598 43.5415-45.7231 43.4404-54.0854C43.4404-55.3267 44.4038-56.0728 45.48-56.0728C46.5899-56.0728 47.5532-55.3267 47.5532-54.0854C47.4522-45.7231 47.4185-37.2598 47.3511-28.8975C47.3174-27.8364 46.605-27.0786 45.5137-27.0786ZM45.48-17.0776C43.6968-17.0776 42.1577-18.5679 42.1577-20.3511C42.1577-22.2168 43.6968-23.6733 45.48-23.6733C47.3306-23.6733 48.8359-22.2017 48.8359-20.3511C48.8359-18.5679 47.3306-17.0776 45.48-17.0776Z"/>
  </g>
  <g id="Thin-S" transform="matrix(1 0 0 1 811.863 696)">
   <path class="SFSymbolsPreviewWireframe" d="M44.5527 2.51173C65.2422 2.51173 82.2832-14.5156 82.2832-35.2051C82.2832-55.8945 65.2285-72.9219 44.5391-72.9219C23.8281-72.9219 6.83594-55.8945 6.83594-35.2051C6.83594-14.5156 23.8418 2.51173 44.5527 2.51173ZM19.2422-42.6426C23.75-48.1973 31.7441-52.2519 40.1699-53.3379C40.1699-53.0508 40.1699-52.791 40.1699-52.5176C40.1836-50.7227 40.1836-48.9707 40.1973-47.1758C33.7149-46.2637 27.9375-43.3105 23.4746-38.6387C23.0371-38.1523 22.4121-38.1172 22.0156-38.5898L19.3184-41.3496C18.957-41.7461 18.9082-42.2324 19.2422-42.6426ZM69.8633-42.6426C70.1973-42.2324 70.1836-41.7461 69.7871-41.3496L67.0547-38.6035C66.6797-38.1582 66.0684-38.1797 65.6582-38.625C61.2871-43.3808 55.4473-46.2637 48.8809-47.1758C48.8946-48.9707 48.9082-50.709 48.9082-52.5039C48.9082-52.7773 48.9082-53.0508 48.9082-53.3379C57.3477-52.2656 65.3203-48.1621 69.8633-42.6426ZM28.1953-33.5215C30.8535-36.7734 35.2949-39.1465 40.2109-40.0938C40.2246-38.291 40.2246-36.5371 40.2383-34.748C40.2383-34.3789 40.2383-34.0098 40.2383-33.6543C37.3848-32.8594 34.7754-31.2871 32.8672-29.2246C32.3809-28.7598 31.8535-28.7246 31.4297-29.1406L28.2715-32.2988C27.9102-32.6602 27.8965-33.1465 28.1953-33.5215ZM60.8965-33.5215C61.209-33.125 61.1953-32.6465 60.8477-32.2988L57.6758-29.1406C57.252-28.7168 56.7031-28.7598 56.2656-29.2109C54.3574-31.3008 51.7207-32.873 48.8535-33.668C48.8535-34.0371 48.8535-34.4199 48.8535-34.7754C48.8535-36.5293 48.8672-38.3047 48.8672-40.0938C53.832-39.1953 58.2735-36.7734 60.8965-33.5215ZM44.5527-26.0176C43.7617-26.0176 43.2695-26.6153 43.2559-27.336C43.2285-36.6191 43.2012-45.9434 43.1602-55.2265C43.1602-56.1074 43.7832-56.6133 44.5391-56.6133C45.3086-56.6133 45.9317-56.1074 45.9317-55.2265C45.8906-45.9434 45.877-36.6191 45.8496-27.336C45.836-26.6153 45.3438-26.0176 44.5527-26.0176ZM44.5391-17.5781C42.916-17.5781 41.5371-18.9082 41.5371-20.5312C41.5371-22.2168 42.916-23.5332 44.5391-23.5332C46.1895-23.5332 47.5547-22.1816 47.5547-20.5312C47.5547-18.9082 46.1895-17.5781 44.5391-17.5781Z"/>
  </g>
  <g id="Ultralight-S" transform="matrix(1 0 0 1 515.649 696)">
   <path class="SFSymbolsPreviewWireframe" d="M44.0606 2.01955C64.5039 2.01955 81.2886-14.7617 81.2886-35.2051C81.2886-55.6484 64.5005-72.4297 44.0571-72.4297C23.5718-72.4297 6.83594-55.6484 6.83594-35.2051C6.83594-14.7617 23.5752 2.01955 44.0606 2.01955ZM18.6167-42.7041C23.1861-48.3408 31.4468-52.4673 40.1084-53.4712C40.1084-53.1431 40.1084-52.8218 40.1084-52.4971C40.1118-50.8765 40.1118-49.3398 40.1152-47.7192C33.2944-46.8686 27.1992-43.8232 22.5313-38.9565C22.1656-38.542 21.6431-38.4966 21.2876-38.9077L18.6724-41.5752C18.3623-41.9307 18.3135-42.3452 18.6167-42.7041ZM69.5044-42.7041C69.8076-42.3452 69.8042-41.9307 69.4487-41.5752L66.7881-38.9111C66.4746-38.5068 65.9556-38.5488 65.5967-38.9531C61.0615-43.914 54.9141-46.8686 47.9991-47.7192C48.0025-49.3398 48.0059-50.873 48.0059-52.4937C48.0059-52.8184 48.0059-53.1431 48.0059-53.4712C56.6709-52.4707 64.8897-48.2954 69.5044-42.7041ZM27.7031-33.4292C30.3819-36.7324 35.0078-39.1567 40.1187-40.0527C40.1221-38.3936 40.1221-36.7832 40.1255-35.1274C40.1255-34.7788 40.1255-34.4302 40.1255-34.0849C36.9951-33.3003 34.1089-31.6255 32.0572-29.3887C31.6426-29.0161 31.2178-28.9707 30.8555-29.2944L27.7588-32.3911C27.4487-32.7012 27.4453-33.1157 27.7031-33.4292ZM60.4146-33.4292C60.6758-33.0737 60.6724-32.6978 60.3657-32.3911L57.2656-29.2944C56.9033-28.9321 56.4365-29.0161 56.0708-29.3852C54.0191-31.6289 51.126-33.3037 47.9922-34.0884C47.9922-34.437 47.9922-34.789 47.9922-35.1343C47.9922-36.7446 47.9956-38.397 47.9956-40.0527C53.1553-39.2056 57.7813-36.7324 60.4146-33.4292ZM44.0606-25.4741C43.4234-25.4741 43.044-25.9898 43.0405-26.5362C43.0337-36.291 43.0269-46.0561 43.0166-55.811C43.0166-56.5073 43.4653-56.8901 44.0571-56.8901C44.6524-56.8901 45.1011-56.5073 45.1011-55.811C45.0908-46.0561 45.0874-36.291 45.0806-26.5362C45.0772-25.9898 44.6978-25.4741 44.0606-25.4741ZM44.0571-17.8345C42.5161-17.8345 41.2192-19.0825 41.2192-20.6235C41.2192-22.2168 42.5161-23.4614 44.0571-23.4614C45.605-23.4614 46.8985-22.1714 46.8985-20.6235C46.8985-19.0825 45.605-17.8345 44.0571-17.8345Z"/>
  </g>
 </g>
</svg>
