<svg fill="none" viewBox="0 0 32 32" xmlns="http://www.w3.org/2000/svg"><path d="m15.024 20.789-2.4766-1.1563c-0.0118-0.5358 0.3088-0.7794 0.5018-0.8309l2.2899 1.0614c0.1687 0.4437-0.1328 0.7852-0.3151 0.9258z" fill="url(#l)"/><path d="m14.107 21.262c0.2005-0.3306 0.0951-0.7611-0.2355-0.9616-0.3305-0.2005-0.761-0.095-0.9615 0.2355l1.197 0.7261zm-1.4735 2.2932 0.6949 0.0844-0.6949-0.0844zm-0.8125 4.2656-0.5896-0.3773 0.5896 0.3773zm-4.5752 0.7237c-0.38562-0.0275-0.7205 0.2628-0.74798 0.6484-0.02747 0.3857 0.26286 0.7205 0.64848 0.748l0.0995-1.3964zm5.6642-8.0086c-0.2276 0.3753-0.7936 1.4712-0.9714 2.9349l1.3898 0.1688c0.1472-1.2113 0.6208-2.1175 0.7786-2.3776l-1.197-0.7261zm-0.9714 2.9349c-0.1051 0.8651-0.1829 1.7047-0.2982 2.4546-0.1193 0.7763-0.2578 1.2819-0.409 1.5181l1.1792 0.7546c0.3321-0.5188 0.4983-1.3101 0.6136-2.0599 0.1193-0.7762 0.2062-1.6919 0.3042-2.4986l-1.3898-0.1688zm-0.7072 3.9727c-0.2996 0.4681-0.5793 0.7469-1.0715 0.9234-0.54335 0.1948-1.4041 0.2851-2.9141 0.1776l-0.0995 1.3964c1.5602 0.1112 2.6604 0.0399 3.4862-0.2562 0.8769-0.3144 1.3745-0.8559 1.7781-1.4866l-1.1792-0.7546z" fill="#1E86F5"/><path d="m14.107 21.262c0.2005-0.3306 0.0951-0.7611-0.2355-0.9616-0.3305-0.2005-0.761-0.095-0.9615 0.2355l1.197 0.7261zm-1.4735 2.2932 0.6949 0.0844-0.6949-0.0844zm-0.8125 4.2656-0.5896-0.3773 0.5896 0.3773zm-4.5752 0.7237c-0.38562-0.0275-0.7205 0.2628-0.74798 0.6484-0.02747 0.3857 0.26286 0.7205 0.64848 0.748l0.0995-1.3964zm5.6642-8.0086c-0.2276 0.3753-0.7936 1.4712-0.9714 2.9349l1.3898 0.1688c0.1472-1.2113 0.6208-2.1175 0.7786-2.3776l-1.197-0.7261zm-0.9714 2.9349c-0.1051 0.8651-0.1829 1.7047-0.2982 2.4546-0.1193 0.7763-0.2578 1.2819-0.409 1.5181l1.1792 0.7546c0.3321-0.5188 0.4983-1.3101 0.6136-2.0599 0.1193-0.7762 0.2062-1.6919 0.3042-2.4986l-1.3898-0.1688zm-0.7072 3.9727c-0.2996 0.4681-0.5793 0.7469-1.0715 0.9234-0.54335 0.1948-1.4041 0.2851-2.9141 0.1776l-0.0995 1.3964c1.5602 0.1112 2.6604 0.0399 3.4862-0.2562 0.8769-0.3144 1.3745-0.8559 1.7781-1.4866l-1.1792-0.7546z" fill="url(#i)"/><path d="m14.107 21.262c0.2005-0.3306 0.0951-0.7611-0.2355-0.9616-0.3305-0.2005-0.761-0.095-0.9615 0.2355l1.197 0.7261zm-1.4735 2.2932 0.6949 0.0844-0.6949-0.0844zm-0.8125 4.2656-0.5896-0.3773 0.5896 0.3773zm-4.5752 0.7237c-0.38562-0.0275-0.7205 0.2628-0.74798 0.6484-0.02747 0.3857 0.26286 0.7205 0.64848 0.748l0.0995-1.3964zm5.6642-8.0086c-0.2276 0.3753-0.7936 1.4712-0.9714 2.9349l1.3898 0.1688c0.1472-1.2113 0.6208-2.1175 0.7786-2.3776l-1.197-0.7261zm-0.9714 2.9349c-0.1051 0.8651-0.1829 1.7047-0.2982 2.4546-0.1193 0.7763-0.2578 1.2819-0.409 1.5181l1.1792 0.7546c0.3321-0.5188 0.4983-1.3101 0.6136-2.0599 0.1193-0.7762 0.2062-1.6919 0.3042-2.4986l-1.3898-0.1688zm-0.7072 3.9727c-0.2996 0.4681-0.5793 0.7469-1.0715 0.9234-0.54335 0.1948-1.4041 0.2851-2.9141 0.1776l-0.0995 1.3964c1.5602 0.1112 2.6604 0.0399 3.4862-0.2562 0.8769-0.3144 1.3745-0.8559 1.7781-1.4866l-1.1792-0.7546z" fill="url(#h)"/><g clip-rule="evenodd" fill-rule="evenodd" filter="url(#n)"><path d="m11.604 19.807c0.2016-0.4392 0.721-0.6319 1.1603-0.4303l2.2812 1.0469c0.4392 0.2015 0.6319 0.721 0.4303 1.1602-0.2015 0.4392-0.721 0.6318-1.1602 0.4303l-2.2812-1.0469c-0.4393-0.2016-0.6319-0.721-0.4304-1.1602z" fill="#A50641"/><path d="m11.604 19.807c0.2016-0.4392 0.721-0.6319 1.1603-0.4303l2.2812 1.0469c0.4392 0.2015 0.6319 0.721 0.4303 1.1602-0.2015 0.4392-0.721 0.6318-1.1602 0.4303l-2.2812-1.0469c-0.4393-0.2016-0.6319-0.721-0.4304-1.1602z" fill="url(#g)"/><path d="m11.604 19.807c0.2016-0.4392 0.721-0.6319 1.1603-0.4303l2.2812 1.0469c0.4392 0.2015 0.6319 0.721 0.4303 1.1602-0.2015 0.4392-0.721 0.6318-1.1602 0.4303l-2.2812-1.0469c-0.4393-0.2016-0.6319-0.721-0.4304-1.1602z" fill="url(#f)"/></g><circle cx="17.863" cy="11.137" r="9.1367" fill="url(#e)"/><circle cx="17.863" cy="11.137" r="9.1367" fill="url(#d)"/><circle cx="17.863" cy="11.137" r="9.1367" fill="url(#c)"/><circle cx="17.863" cy="11.137" r="9.1367" fill="url(#b)"/><circle cx="17.863" cy="11.137" r="9.1367" fill="url(#a)"/><ellipse transform="rotate(-37.086 23.372 7.7546)" cx="23.372" cy="7.7546" rx="1.6834" ry="2.1401" fill="url(#k)"/><g filter="url(#m)"><path d="m13.087 22.352c-0.1354 0.3854-0.425 1.5-0.5 2.875-0.1169 2.1444-0.9062 4.4375-4.4062 4.1562" stroke="url(#j)" stroke-width=".25"/></g><defs><filter id="n" x="11.524" y="19.297" width="4.0316" height="3.0473" color-interpolation-filters="sRGB" filterUnits="userSpaceOnUse"><feFlood flood-opacity="0" result="BackgroundImageFix"/><feBlend in="SourceGraphic" in2="BackgroundImageFix" result="shape"/><feColorMatrix in="SourceAlpha" result="hardAlpha" values="0 0 0 0 0 0 0 0 0 0 0 0 0 0 0 0 0 0 127 0"/><feOffset dy="0.25"/><feGaussianBlur stdDeviation="0.25"/><feComposite in2="hardAlpha" k2="-1" k3="1" operator="arithmetic"/><feColorMatrix values="0 0 0 0 0.576471 0 0 0 0 0.101961 0 0 0 0 0.294118 0 0 0 1 0"/><feBlend in2="shape" result="effect1_innerShadow_18_470"/></filter><filter id="m" x="7.7708" y="21.91" width="5.8342" height="8.0212" color-interpolation-filters="sRGB" filterUnits="userSpaceOnUse"><feFlood flood-opacity="0" result="BackgroundImageFix"/><feBlend in="SourceGraphic" in2="BackgroundImageFix" result="shape"/><feGaussianBlur result="effect1_foregroundBlur_18_470" stdDeviation="0.2"/></filter><radialGradient id="l" cx="0" cy="0" r="1" gradientTransform="translate(14.346 20.44) rotate(204.8) scale(1.3393 .65455)" gradientUnits="userSpaceOnUse"><stop stop-color="#236FDE" offset="0"/><stop stop-color="#245CAD" offset="1"/></radialGradient><linearGradient id="i" x1="6.7433" x2="8.5558" y1="29.29" y2="29.29" gradientUnits="userSpaceOnUse"><stop stop-color="#1F67FF" offset="0"/><stop stop-color="#1F67FF" stop-opacity="0" offset="1"/></linearGradient><linearGradient id="h" x1="12.837" x2="13.118" y1="21.227" y2="22.57" gradientUnits="userSpaceOnUse"><stop stop-color="#1F67FF" offset="0"/><stop stop-color="#1F67FF" stop-opacity="0" offset="1"/></linearGradient><linearGradient id="g" x1="12.645" x2="13.094" y1="21.509" y2="20.518" gradientUnits="userSpaceOnUse"><stop stop-color="#994CA1" offset="0"/><stop stop-color="#994CA1" stop-opacity="0" offset="1"/></linearGradient><radialGradient id="f" cx="0" cy="0" r="1" gradientTransform="translate(13.914 20.695) rotate(116.16) scale(.52676 2.1633)" gradientUnits="userSpaceOnUse"><stop stop-color="#BE4369" offset="0"/><stop stop-color="#BE4369" stop-opacity="0" offset=".70206"/></radialGradient><radialGradient id="e" cx="0" cy="0" r="1" gradientTransform="translate(24.336 6.8398) rotate(140.85) scale(14.749 15.927)" gradientUnits="userSpaceOnUse"><stop stop-color="#FF3C47" offset="0"/><stop stop-color="#AC2146" offset="1"/></radialGradient><radialGradient id="d" cx="0" cy="0" r="1" gradientTransform="translate(19.135 2.8478) rotate(99.176) scale(18.883)" gradientUnits="userSpaceOnUse"><stop stop-color="#8A4BB7" stop-opacity="0" offset=".7186"/><stop stop-color="#8A4BB7" offset=".94609"/></radialGradient><radialGradient id="c" cx="0" cy="0" r="1" gradientTransform="translate(14.355 21.632) rotate(-84.668) scale(10.801 11.986)" gradientUnits="userSpaceOnUse"><stop stop-color="#A52082" offset="0"/><stop stop-color="#A52082" stop-opacity="0" offset="1"/></radialGradient><radialGradient id="b" cx="0" cy="0" r="1" gradientTransform="translate(19.9 11.852) rotate(195.33) scale(11.585 15.278)" gradientUnits="userSpaceOnUse"><stop stop-color="#8C4972" stop-opacity="0" offset=".74125"/><stop stop-color="#8C4972" offset="1"/></radialGradient><radialGradient id="a" cx="0" cy="0" r="1" gradientTransform="translate(23.65 .039062) rotate(107.21) scale(11.618 16.282)" gradientUnits="userSpaceOnUse"><stop stop-color="#EE4952" offset="0"/><stop stop-color="#EE4952" stop-opacity="0" offset="1"/></radialGradient><radialGradient id="k" cx="0" cy="0" r="1" gradientTransform="translate(24.199 6.0839) rotate(117.54) scale(3.8432 8.4242)" gradientUnits="userSpaceOnUse"><stop stop-color="#FFFBFC" offset=".12079"/><stop stop-color="#FFFBFC" stop-opacity="0" offset="1"/></radialGradient><linearGradient id="j" x1="13.274" x2="9.2589" y1="23.242" y2="29.898" gradientUnits="userSpaceOnUse"><stop stop-color="#5CB2FF" stop-opacity="0" offset="0"/><stop stop-color="#5CB2FF" offset=".29793"/><stop stop-color="#5CB2FF" offset=".81229"/><stop stop-color="#5CB2FF" stop-opacity="0" offset="1"/></linearGradient></defs></svg>
