<svg fill="none" viewBox="0 0 32 32" xmlns="http://www.w3.org/2000/svg"><path d="m26.394 2.0627c-0.5491 0.01113-0.8182 0.44846-0.8518 0.6726l2.2191 1.67 1.5355 2.0959c0.2858-0.10645 0.566-0.37552 0.6165-0.64446 0.0784-0.52115-0.0617-0.75098-0.2578-0.94708s-0.3587-0.24662-0.8798-0.25218c0.4371-0.25218 0.7173-0.71175 0.5996-1.2665 0 0-0.1233-0.56045-0.6893-0.72292-0.4875-0.15135-1.0199 0-1.3394 0.58842 0.0225-0.26904-0.0504-0.62759-0.1064-0.70611-0.0561-0.07851-0.297-0.49875-0.8462-0.48762z" fill="#7A63B4"/><path d="m26.394 2.0627c-0.5491 0.01113-0.8182 0.44846-0.8518 0.6726l2.2191 1.67 1.5355 2.0959c0.2858-0.10645 0.566-0.37552 0.6165-0.64446 0.0784-0.52115-0.0617-0.75098-0.2578-0.94708s-0.3587-0.24662-0.8798-0.25218c0.4371-0.25218 0.7173-0.71175 0.5996-1.2665 0 0-0.1233-0.56045-0.6893-0.72292-0.4875-0.15135-1.0199 0-1.3394 0.58842 0.0225-0.26904-0.0504-0.62759-0.1064-0.70611-0.0561-0.07851-0.297-0.49875-0.8462-0.48762z" fill="url(#o)"/><path d="m26.394 2.0627c-0.5491 0.01113-0.8182 0.44846-0.8518 0.6726l2.2191 1.67 1.5355 2.0959c0.2858-0.10645 0.566-0.37552 0.6165-0.64446 0.0784-0.52115-0.0617-0.75098-0.2578-0.94708s-0.3587-0.24662-0.8798-0.25218c0.4371-0.25218 0.7173-0.71175 0.5996-1.2665 0 0-0.1233-0.56045-0.6893-0.72292-0.4875-0.15135-1.0199 0-1.3394 0.58842 0.0225-0.26904-0.0504-0.62759-0.1064-0.70611-0.0561-0.07851-0.297-0.49875-0.8462-0.48762z" fill="url(#i)"/><path d="m26.394 2.0627c-0.5491 0.01113-0.8182 0.44846-0.8518 0.6726l2.2191 1.67 1.5355 2.0959c0.2858-0.10645 0.566-0.37552 0.6165-0.64446 0.0784-0.52115-0.0617-0.75098-0.2578-0.94708s-0.3587-0.24662-0.8798-0.25218c0.4371-0.25218 0.7173-0.71175 0.5996-1.2665 0 0-0.1233-0.56045-0.6893-0.72292-0.4875-0.15135-1.0199 0-1.3394 0.58842 0.0225-0.26904-0.0504-0.62759-0.1064-0.70611-0.0561-0.07851-0.297-0.49875-0.8462-0.48762z" fill="url(#h)"/><path d="m22.655 16.68c4.0538 0 7.34-3.2862 7.34-7.34 0-4.0538-3.2862-7.34-7.34-7.34-4.0537 0-7.34 3.2862-7.34 7.34 0 4.0538 3.2863 7.34 7.34 7.34z" fill="url(#g)"/><path d="m22.655 16.68c4.0538 0 7.34-3.2862 7.34-7.34 0-4.0538-3.2862-7.34-7.34-7.34-4.0537 0-7.34 3.2862-7.34 7.34 0 4.0538 3.2863 7.34 7.34 7.34z" fill="url(#f)"/><path d="m9.985 19.14c4.4072 0 7.98-3.5728 7.98-7.98 0-4.4072-3.5728-7.98-7.98-7.98-4.4072 0-7.98 3.5728-7.98 7.98 0 4.4072 3.5728 7.98 7.98 7.98z" fill="url(#e)"/><path d="m9.985 19.14c4.4072 0 7.98-3.5728 7.98-7.98 0-4.4072-3.5728-7.98-7.98-7.98-4.4072 0-7.98 3.5728-7.98 7.98 0 4.4072 3.5728 7.98 7.98 7.98z" fill="url(#d)"/><path d="m10.296 7.0515c-0.2266-0.40549-0.1316-1.4416-1.1933-1.9262-1.0617-0.48459-1.5997 0.13556-2.0607 0.25808-0.46103 0.12251-1.51-0.27795-2.2214 0.57326s-0.33569 1.522-0.39436 2.1194c-0.05868 0.59744-0.57362 1.0851-0.1856 2.035 0.38801 0.9498 1.5267 0.9368 1.9857 1.1519 0.45899 0.2152 1.1939 1.1193 2.0618 0.823 0.86791-0.2964 1.2197-1.1859 1.5285-1.4837 0.30882-0.2978 1.5643-0.69905 1.4381-1.9298-0.1262-1.2308-0.7322-1.2154-0.9588-1.6209z" fill="#A97DE4"/><path d="m7.285 10.89c1.342 0 2.43-1.088 2.43-2.43s-1.088-2.43-2.43-2.43-2.43 1.088-2.43 2.43 1.088 2.43 2.43 2.43z" fill="url(#c)"/><path d="m18.695 30c4.954 0 8.97-4.016 8.97-8.97s-4.016-8.97-8.97-8.97-8.97 4.016-8.97 8.97 4.016 8.97 8.97 8.97z" fill="url(#b)"/><path d="m18.695 30c4.954 0 8.97-4.016 8.97-8.97s-4.016-8.97-8.97-8.97-8.97 4.016-8.97 8.97 4.016 8.97 8.97 8.97z" fill="url(#a)"/><path d="m18.695 30c4.954 0 8.97-4.016 8.97-8.97s-4.016-8.97-8.97-8.97-8.97 4.016-8.97 8.97 4.016 8.97 8.97 8.97z" fill="url(#n)"/><path d="m23.741 14.838c-0.5623-0.404-1.0896-1.8627-2.8292-1.8452-1.7397 0.0175-2.0736 1.1949-2.6184 1.6519s-2.2141 0.58-2.6358 2.179c-0.4218 1.599 0.5096 2.2668 0.8083 3.1103 0.2988 0.8436-0.0878 1.8276 1.0368 2.8642 1.1246 1.0367 2.6534 0.2988 3.4091 0.2989 0.7556 1e-4 2.3195 0.7556 3.3036-0.1934 0.9841-0.9491 0.8963-2.3723 1.1247-2.9697 0.2284-0.5973 1.6693-1.9331 0.7204-3.5146s-1.7572-1.1774-2.3195-1.5814z" fill="url(#m)"/><path d="m20.965 22.06c1.9937 0 3.61-1.6163 3.61-3.61 0-1.9938-1.6163-3.61-3.61-3.61-1.9938 0-3.61 1.6162-3.61 3.61 0 1.9937 1.6162 3.61 3.61 3.61z" fill="url(#l)"/><g filter="url(#q)"><path d="m21.477 13.227c0.625 0.1269 1.6441 1.2206 1.7812 1.4843s0.414 0.4944 0.589 0.4944c0.2188 0 1.4423 0.1463 2.036 1.2791 0.1932 0.3686 0.3922 1.3422 0.086 2.0547" stroke="url(#k)" stroke-linecap="round" stroke-width=".2"/></g><g filter="url(#p)"><path d="m9.3018 5.23c0.35112 0.28265 0.63017 1.3199 0.62913 1.5352-0.00103 0.21528 0.09681 0.45386 0.20691 0.50991 0.1375 0.07007 0.8587 0.55702 0.8573 1.4834-5e-4 0.30146-0.1975 0.99784-0.6259 1.3628" stroke="url(#j)" stroke-linecap="round" stroke-width=".2"/></g><defs><filter id="q" x="21.177" y="12.927" width="5.2505" height="5.9125" color-interpolation-filters="sRGB" filterUnits="userSpaceOnUse"><feFlood flood-opacity="0" result="BackgroundImageFix"/><feBlend in="SourceGraphic" in2="BackgroundImageFix" result="shape"/><feGaussianBlur result="effect1_foregroundBlur_18_32653" stdDeviation="0.1"/></filter><filter id="p" x="9.0018" y="4.93" width="2.2933" height="5.4912" color-interpolation-filters="sRGB" filterUnits="userSpaceOnUse"><feFlood flood-opacity="0" result="BackgroundImageFix"/><feBlend in="SourceGraphic" in2="BackgroundImageFix" result="shape"/><feGaussianBlur result="effect1_foregroundBlur_18_32653" stdDeviation="0.1"/></filter><radialGradient id="o" cx="0" cy="0" r="1" gradientTransform="translate(28.969 3.2812) rotate(139.93) scale(2.5728 2.5464)" gradientUnits="userSpaceOnUse"><stop stop-color="#8F7EBF" offset="0"/><stop stop-color="#755CAF" offset=".67572"/><stop stop-color="#8672B9" stop-opacity="0" offset="1"/></radialGradient><radialGradient id="i" cx="0" cy="0" r="1" gradientTransform="translate(26.844 2.6875) rotate(100.01) scale(1.0789 1.0679)" gradientUnits="userSpaceOnUse"><stop stop-color="#8978B8" offset="0"/><stop stop-color="#8A79B9" stop-opacity="0" offset="1"/></radialGradient><radialGradient id="h" cx="0" cy="0" r="1" gradientTransform="translate(29.594 5.2812) rotate(173.83) scale(1.163 1.1511)" gradientUnits="userSpaceOnUse"><stop stop-color="#9280C3" offset="0"/><stop stop-color="#9483C4" stop-opacity="0" offset="1"/></radialGradient><radialGradient id="g" cx="0" cy="0" r="1" gradientTransform="translate(31.847 .6381) scale(19.098)" gradientUnits="userSpaceOnUse"><stop stop-color="#8C65C9" offset="0"/><stop stop-color="#625996" offset="1"/></radialGradient><radialGradient id="f" cx="0" cy="0" r="1" gradientTransform="translate(26.25 6.25) rotate(141.23) scale(10.581)" gradientUnits="userSpaceOnUse"><stop stop-color="#A38DD9" offset=".095331"/><stop stop-color="#7E65B8" offset=".588"/><stop stop-color="#4D348E" offset="1"/></radialGradient><radialGradient id="e" cx="0" cy="0" r="1" gradientTransform="translate(15.5 8.25) rotate(135.43) scale(11.844)" gradientUnits="userSpaceOnUse"><stop stop-color="#A38DD9" offset="0"/><stop stop-color="#714BB3" offset="1"/></radialGradient><radialGradient id="d" cx="0" cy="0" r="1" gradientTransform="translate(15 18.125) rotate(72.45) scale(9.8327)" gradientUnits="userSpaceOnUse"><stop stop-color="#532EA8" offset=".11729"/><stop stop-color="#573A9C" stop-opacity=".58126" offset=".50138"/><stop stop-color="#583B9C" stop-opacity=".25195" offset=".63085"/><stop stop-color="#583B9C" stop-opacity="0" offset=".96338"/></radialGradient><radialGradient id="c" cx="0" cy="0" r="1" gradientTransform="translate(5.4995 9.8399) rotate(-42.064) scale(4.6468)" gradientUnits="userSpaceOnUse"><stop stop-color="#716380" offset=".0055866"/><stop stop-color="#4B2E68" offset=".62529"/><stop stop-color="#351A50" offset="1"/></radialGradient><radialGradient id="b" cx="0" cy="0" r="1" gradientTransform="translate(29.522 12.444) scale(25.387)" gradientUnits="userSpaceOnUse"><stop stop-color="#8C65C9" offset="0"/><stop stop-color="#625996" offset="1"/></radialGradient><radialGradient id="a" cx="0" cy="0" r="1" gradientTransform="translate(23.75 17.375) rotate(133.56) scale(14.058)" gradientUnits="userSpaceOnUse"><stop stop-color="#9E87D8" offset="0"/><stop stop-color="#8D65DA" offset=".46717"/><stop stop-color="#7F58CA" offset=".69666"/><stop stop-color="#7B48CA" offset="1"/></radialGradient><radialGradient id="n" cx="0" cy="0" r="1" gradientTransform="translate(22.812 25.438) rotate(219.02) scale(23.329)" gradientUnits="userSpaceOnUse"><stop stop-opacity="0" offset=".26544"/><stop stop-color="#715BA7" stop-opacity="0" offset=".40247"/><stop stop-color="#7862AD" offset=".61458"/></radialGradient><radialGradient id="m" cx="0" cy="0" r="1" gradientTransform="translate(20.965 18.812) rotate(-1.1331) scale(3.1606 3.2949)" gradientUnits="userSpaceOnUse"><stop stop-color="#B382F3" offset="0"/><stop stop-color="#AF7FF0" offset="1"/></radialGradient><radialGradient id="l" cx="0" cy="0" r="1" gradientTransform="translate(18.312 20.5) rotate(-42.064) scale(6.9034)" gradientUnits="userSpaceOnUse"><stop stop-color="#716380" offset=".0055866"/><stop stop-color="#4B2E68" offset=".62529"/><stop stop-color="#351A50" offset="1"/></radialGradient><linearGradient id="k" x1="21.781" x2="26.281" y1="13.453" y2="18.031" gradientUnits="userSpaceOnUse"><stop stop-color="#B993F4" stop-opacity="0" offset="0"/><stop stop-color="#C7A7F9" offset=".16859"/><stop stop-color="#AE97F6" stop-opacity="0" offset=".41275"/><stop stop-color="#CDAEFF" offset=".71811"/><stop stop-color="#C19CFA" stop-opacity="0" offset="1"/></linearGradient><linearGradient id="j" x1="9.4184" x2="10.876" y1="5.4748" y2="9.8437" gradientUnits="userSpaceOnUse"><stop stop-color="#B993F4" stop-opacity="0" offset="0"/><stop stop-color="#C7A7F9" offset=".16859"/><stop stop-color="#AE97F6" stop-opacity="0" offset=".41275"/><stop stop-color="#CDAEFF" offset=".71811"/><stop stop-color="#C19CFA" stop-opacity="0" offset="1"/></linearGradient></defs></svg>
