<svg fill="none" viewBox="0 0 32 32" xmlns="http://www.w3.org/2000/svg"><path d="m10.5 13.013h11c0.83 0 1.5-0.67 1.5-1.5s-0.67-1.5-1.5-1.5h-11c-0.83 0-1.5 0.67-1.5 1.5s0.67 1.5 1.5 1.5z" fill="url(#n)"/><path d="m10.5 13.013h11c0.83 0 1.5-0.67 1.5-1.5s-0.67-1.5-1.5-1.5h-11c-0.83 0-1.5 0.67-1.5 1.5s0.67 1.5 1.5 1.5z" fill="url(#i)"/><path d="m10.5 13.013h11c0.83 0 1.5-0.67 1.5-1.5s-0.67-1.5-1.5-1.5h-11c-0.83 0-1.5 0.67-1.5 1.5s0.67 1.5 1.5 1.5z" fill="url(#h)"/><path d="m10.5 13.013h11c0.83 0 1.5-0.67 1.5-1.5s-0.67-1.5-1.5-1.5h-11c-0.83 0-1.5 0.67-1.5 1.5s0.67 1.5 1.5 1.5z" fill="url(#g)"/><path d="m10.5 13.013h11c0.83 0 1.5-0.67 1.5-1.5s-0.67-1.5-1.5-1.5h-11c-0.83 0-1.5 0.67-1.5 1.5s0.67 1.5 1.5 1.5z" fill="url(#f)"/><path d="m14 7.0132h4v20h-4v-20z" fill="url(#e)"/><path d="m14 7.0132h4v20h-4v-20z" fill="url(#d)"/><g filter="url(#r)"><path d="m27.98 22.013h-3.96c-0.87 0-1.34-1.02-0.77-1.68l3.39-3.96c0.57-0.67 1.66-0.35 1.78 0.52l0.57 3.96c0.09 0.61-0.39 1.16-1.01 1.16z" fill="url(#c)"/><path d="m27.98 22.013h-3.96c-0.87 0-1.34-1.02-0.77-1.68l3.39-3.96c0.57-0.67 1.66-0.35 1.78 0.52l0.57 3.96c0.09 0.61-0.39 1.16-1.01 1.16z" fill="url(#b)"/></g><g filter="url(#q)"><path d="m4.02 22.013h3.96c0.87 0 1.34-1.0223 0.77-1.6838l-3.39-3.9691c-0.57-0.6715-1.66-0.3508-1.78 0.5212l-0.57 3.9691c-0.09 0.6114 0.39 1.1626 1.01 1.1626z" fill="url(#a)"/></g><g filter="url(#p)"><path d="m4.69 22.013c1.64 4.66 6.08 8 11.31 8s9.67-3.34 11.31-8h-3.25c-1.47 2.96-4.53 5-8.06 5s-6.59-2.04-8.06-5h-3.25z" fill="url(#m)"/><path d="m4.69 22.013c1.64 4.66 6.08 8 11.31 8s9.67-3.34 11.31-8h-3.25c-1.47 2.96-4.53 5-8.06 5s-6.59-2.04-8.06-5h-3.25z" fill="url(#l)"/></g><g filter="url(#o)"><path d="m13 5.0132c0 1.66 1.34 3 3 3s3-1.34 3-3-1.34-3-3-3-3 1.34-3 3zm2 0c0-0.55 0.45-1 1-1s1 0.45 1 1-0.45 1-1 1-1-0.45-1-1z" fill="url(#k)"/><path d="m13 5.0132c0 1.66 1.34 3 3 3s3-1.34 3-3-1.34-3-3-3-3 1.34-3 3zm2 0c0-0.55 0.45-1 1-1s1 0.45 1 1-0.45 1-1 1-1-0.45-1-1z" fill="url(#j)"/></g><defs><filter id="r" x="22.75" y="16.013" width="6.5504" height="6.2495" color-interpolation-filters="sRGB" filterUnits="userSpaceOnUse"><feFlood flood-opacity="0" result="BackgroundImageFix"/><feBlend in="SourceGraphic" in2="BackgroundImageFix" result="shape"/><feColorMatrix in="SourceAlpha" result="hardAlpha" values="0 0 0 0 0 0 0 0 0 0 0 0 0 0 0 0 0 0 127 0"/><feOffset dx="-0.25" dy="0.25"/><feGaussianBlur stdDeviation="0.125"/><feComposite in2="hardAlpha" k2="-1" k3="1" operator="arithmetic"/><feColorMatrix values="0 0 0 0 0.407843 0 0 0 0 0.952941 0 0 0 0 1 0 0 0 1 0"/><feBlend in2="shape" result="effect1_innerShadow_18_12108"/><feColorMatrix in="SourceAlpha" result="hardAlpha" values="0 0 0 0 0 0 0 0 0 0 0 0 0 0 0 0 0 0 127 0"/><feOffset dx="0.3"/><feGaussianBlur stdDeviation="0.175"/><feComposite in2="hardAlpha" k2="-1" k3="1" operator="arithmetic"/><feColorMatrix values="0 0 0 0 0.176471 0 0 0 0 0.47451 0 0 0 0 0.752941 0 0 0 1 0"/><feBlend in2="effect1_innerShadow_18_12108" result="effect2_innerShadow_18_12108"/></filter><filter id="q" x="2.7492" y="15.75" width="6.5004" height="6.5132" color-interpolation-filters="sRGB" filterUnits="userSpaceOnUse"><feFlood flood-opacity="0" result="BackgroundImageFix"/><feBlend in="SourceGraphic" in2="BackgroundImageFix" result="shape"/><feColorMatrix in="SourceAlpha" result="hardAlpha" values="0 0 0 0 0 0 0 0 0 0 0 0 0 0 0 0 0 0 127 0"/><feOffset dx="-0.25" dy="0.25"/><feGaussianBlur stdDeviation="0.125"/><feComposite in2="hardAlpha" k2="-1" k3="1" operator="arithmetic"/><feColorMatrix values="0 0 0 0 0.407843 0 0 0 0 0.952941 0 0 0 0 1 0 0 0 1 0"/><feBlend in2="shape" result="effect1_innerShadow_18_12108"/><feColorMatrix in="SourceAlpha" result="hardAlpha" values="0 0 0 0 0 0 0 0 0 0 0 0 0 0 0 0 0 0 127 0"/><feOffset dx="0.25" dy="-0.25"/><feGaussianBlur stdDeviation="0.125"/><feComposite in2="hardAlpha" k2="-1" k3="1" operator="arithmetic"/><feColorMatrix values="0 0 0 0 0.176471 0 0 0 0 0.47451 0 0 0 0 0.752941 0 0 0 1 0"/><feBlend in2="effect1_innerShadow_18_12108" result="effect2_innerShadow_18_12108"/></filter><filter id="p" x="4.69" y="21.513" width="23.12" height="8.5" color-interpolation-filters="sRGB" filterUnits="userSpaceOnUse"><feFlood flood-opacity="0" result="BackgroundImageFix"/><feBlend in="SourceGraphic" in2="BackgroundImageFix" result="shape"/><feColorMatrix in="SourceAlpha" result="hardAlpha" values="0 0 0 0 0 0 0 0 0 0 0 0 0 0 0 0 0 0 127 0"/><feOffset dx="0.5" dy="-0.5"/><feGaussianBlur stdDeviation="0.75"/><feComposite in2="hardAlpha" k2="-1" k3="1" operator="arithmetic"/><feColorMatrix values="0 0 0 0 0.227451 0 0 0 0 0.47451 0 0 0 0 0.780392 0 0 0 1 0"/><feBlend in2="shape" result="effect1_innerShadow_18_12108"/></filter><filter id="o" x="12.75" y="1.6132" width="6.65" height="6.65" color-interpolation-filters="sRGB" filterUnits="userSpaceOnUse"><feFlood flood-opacity="0" result="BackgroundImageFix"/><feBlend in="SourceGraphic" in2="BackgroundImageFix" result="shape"/><feColorMatrix in="SourceAlpha" result="hardAlpha" values="0 0 0 0 0 0 0 0 0 0 0 0 0 0 0 0 0 0 127 0"/><feOffset dx="-0.25" dy="0.25"/><feGaussianBlur stdDeviation="0.4"/><feComposite in2="hardAlpha" k2="-1" k3="1" operator="arithmetic"/><feColorMatrix values="0 0 0 0 0.4 0 0 0 0 0.933333 0 0 0 0 1 0 0 0 1 0"/><feBlend in2="shape" result="effect1_innerShadow_18_12108"/><feColorMatrix in="SourceAlpha" result="hardAlpha" values="0 0 0 0 0 0 0 0 0 0 0 0 0 0 0 0 0 0 127 0"/><feOffset dx="0.4" dy="-0.4"/><feGaussianBlur stdDeviation="0.4"/><feComposite in2="hardAlpha" k2="-1" k3="1" operator="arithmetic"/><feColorMatrix values="0 0 0 0 0.137255 0 0 0 0 0.490196 0 0 0 0 0.811765 0 0 0 1 0"/><feBlend in2="effect1_innerShadow_18_12108" result="effect2_innerShadow_18_12108"/></filter><linearGradient id="n" x1="23.002" x2="11.631" y1="11.515" y2="11.515" gradientUnits="userSpaceOnUse"><stop stop-color="#55E3FF" offset="0"/><stop stop-color="#2890E1" offset="1"/></linearGradient><linearGradient id="i" x1="16" x2="16" y1="13.462" y2="12.014" gradientUnits="userSpaceOnUse"><stop stop-color="#3875C8" offset="0"/><stop stop-color="#3875C8" stop-opacity="0" offset="1"/></linearGradient><linearGradient id="h" x1="23" x2="21.625" y1="12.125" y2="12.125" gradientUnits="userSpaceOnUse"><stop stop-color="#71FBFF" offset="0"/><stop stop-color="#71FBFF" stop-opacity="0" offset="1"/></linearGradient><linearGradient id="g" x1="9" x2="10.338" y1="12.014" y2="12.014" gradientUnits="userSpaceOnUse"><stop stop-color="#3875C8" offset="0"/><stop stop-color="#3875C8" stop-opacity="0" offset="1"/></linearGradient><radialGradient id="f" cx="0" cy="0" r="1" gradientTransform="translate(14.385 12.014) rotate(250.16) scale(3.8286 2.2095)" gradientUnits="userSpaceOnUse"><stop stop-color="#3875C8" offset=".30779"/><stop stop-color="#3875C8" stop-opacity="0" offset="1"/></radialGradient><linearGradient id="e" x1="17.626" x2="14.308" y1="17.015" y2="17.015" gradientUnits="userSpaceOnUse"><stop stop-color="#53DDFF" offset="0"/><stop stop-color="#2F80C2" offset="1"/></linearGradient><radialGradient id="d" cx="0" cy="0" r="1" gradientTransform="translate(15.653 6.4972) rotate(76.139) scale(2.5117 3.1824)" gradientUnits="userSpaceOnUse"><stop stop-color="#287BBD" offset=".62717"/><stop stop-color="#287BBD" stop-opacity="0" offset="1"/></radialGradient><linearGradient id="c" x1="29.004" x2="23.003" y1="19.015" y2="19.015" gradientUnits="userSpaceOnUse"><stop stop-color="#5AD7FF" offset="0"/><stop stop-color="#31A5F4" offset="1"/></linearGradient><linearGradient id="b" x1="26.001" x2="26.001" y1="22.013" y2="21.56" gradientUnits="userSpaceOnUse"><stop stop-color="#2884E2" offset="0"/><stop stop-color="#2884E2" stop-opacity="0" offset="1"/></linearGradient><linearGradient id="a" x1="9.0021" x2="3.002" y1="19.009" y2="19.009" gradientUnits="userSpaceOnUse"><stop stop-color="#5AD7FF" offset="0"/><stop stop-color="#31A5F4" offset="1"/></linearGradient><linearGradient id="m" x1="27.312" x2="6.4031" y1="26.015" y2="26.015" gradientUnits="userSpaceOnUse"><stop stop-color="#5BDAFF" offset="0"/><stop stop-color="#41B2FF" offset="1"/></linearGradient><linearGradient id="l" x1="7.1242" x2="7.7492" y1="20.388" y2="23.076" gradientUnits="userSpaceOnUse"><stop stop-color="#2274D1" offset=".26886"/><stop stop-color="#2274D1" stop-opacity="0" offset="1"/></linearGradient><linearGradient id="k" x1="19" x2="14.156" y1="3.4998" y2="7.3357" gradientUnits="userSpaceOnUse"><stop stop-color="#4FCAFF" offset="0"/><stop stop-color="#2EA3EF" offset="1"/></linearGradient><radialGradient id="j" cx="0" cy="0" r="1" gradientTransform="translate(19.392 2.3429) rotate(135.86) scale(2.8849)" gradientUnits="userSpaceOnUse"><stop stop-color="#6ef" offset="0"/><stop stop-color="#6ef" stop-opacity="0" offset="1"/></radialGradient></defs></svg>
