<svg fill="none" viewBox="0 0 32 32" xmlns="http://www.w3.org/2000/svg"><path d="m16.094 30c7.732 0 14-6.268 14-14 0-7.732-6.268-14-14-14-7.732 0-14 6.268-14 14 0 7.732 6.268 14 14 14z" fill="url(#d)"/><path d="m16.094 30c7.732 0 14-6.268 14-14 0-7.732-6.268-14-14-14-7.732 0-14 6.268-14 14 0 7.732 6.268 14 14 14z" fill="url(#c)"/><path d="m16.094 30c7.732 0 14-6.268 14-14 0-7.732-6.268-14-14-14-7.732 0-14 6.268-14 14 0 7.732 6.268 14 14 14z" fill="url(#b)"/><path d="m16.094 30c7.732 0 14-6.268 14-14 0-7.732-6.268-14-14-14-7.732 0-14 6.268-14 14 0 7.732 6.268 14 14 14z" fill="url(#a)"/><g filter="url(#e)"><path d="m2.1231 15.09c-0.0193 0.3008-0.02911 0.6043-0.02911 0.9101 0 0.0596 3.8e-4 0.1192 0.00112 0.1786 0.28868-0.1116 0.63787-0.2558 1.0281-0.4353 1.0968-0.5044 2.5309-1.2927 3.8579-2.4255 0.96918-0.8274 1.8894-1.8456 2.5763-3.0785 0.79885 0.4169 1.5624 0.8493 2.292 1.2936-1.9341 2.2838-3.2302 4.6204-4.0946 6.7814-1.0209 2.5523-1.4361 4.8502-1.596 6.5128-0.03375 0.351-0.05614 0.6739-0.07044 0.9651 0.31127 0.318 0.63758 0.6212 0.97779 0.9085-9.6e-4 -0.4331 0.01694-1.0383 0.08806-1.7779 0.15263-1.5873 0.54996-3.7894 1.529-6.2371 0.83858-2.0965 2.1065-4.3801 4.0225-6.616 1.0514 0.6783 2.0278 1.3802 2.9334 2.0937-0.6394 0.7124-1.1783 1.5081-1.6149 2.3582-2.1547 4.196-1.8516 9.8204 1.2653 13.456 0.2662 0.0151 0.5345 0.0228 0.8045 0.0228 0.1956 0 0.3903-4e-3 0.5839-0.012-3.3813-3.2184-3.9091-8.8326-1.7641-13.01 0.4072-0.793 0.9091-1.5298 1.5035-2.1849 2.0183 1.6793 3.6584 3.4035 4.9765 5.0222 1.7568 2.1575 2.9419 4.1283 3.6865 5.5561 0.1834 0.3516 0.34 0.6701 0.4718 0.9503 0.26-0.2384 0.5111-0.4865 0.7525-0.7438-0.1013-0.2078-0.2136-0.4312-0.3376-0.6689-0.771-1.4784-1.9921-3.5076-3.7978-5.7251-1.3397-1.6453-3.0009-3.3938-5.038-5.0974 0.9349-0.8299 2.0514-1.4786 3.3436-1.8745 2.437-0.7466 5.5553-0.611 9.3399 0.9915-0.0824-0.4067-0.1824-0.8069-0.2993-1.2-3.6512-1.4106-6.7807-1.5297-9.3335-0.7476-1.496 0.4583-2.7766 1.2209-3.8353 2.1917-0.9168-0.7268-1.9044-1.4418-2.9671-2.1333 2.4041-2.587 5.7199-5.0734 10.292-7.0885-0.343-0.22124-0.6963-0.4279-1.059-0.6191-4.4445 2.0541-7.7045 4.5575-10.092 7.164-0.8002-0.4922-1.6405-0.97038-2.5227-1.4301 0.07746-0.18202 0.14976-0.36814 0.21656-0.55841 0.5589-1.594 0.7143-3.4526 0.2307-5.5962-0.3148 0.13903-0.62364 0.28932-0.92584 0.45036 0.38332 1.8733 0.22452 3.4658-0.24856 4.815-0.05197 0.14821-0.10784 0.29378-0.16735 0.43675-1.2233-0.60062-2.523-1.1651-3.9032-1.6825-0.21834 0.27014-0.42683 0.54856-0.62494 0.83473 1.4521 0.53342 2.8136 1.1199 4.0894 1.7464-0.61437 1.0911-1.4404 2.0084-2.3326 2.7701-1.2354 1.0546-2.5827 1.7976-3.6265 2.2776-0.20776 0.0955-0.40299 0.1804-0.58231 0.2551z" fill="#4D3A45"/></g><defs><filter id="e" x="2.094" y="3.0864" width="27.721" height="27.014" color-interpolation-filters="sRGB" filterUnits="userSpaceOnUse"><feFlood flood-opacity="0" result="BackgroundImageFix"/><feBlend in="SourceGraphic" in2="BackgroundImageFix" result="shape"/><feColorMatrix in="SourceAlpha" result="hardAlpha" values="0 0 0 0 0 0 0 0 0 0 0 0 0 0 0 0 0 0 127 0"/><feOffset dy="0.2"/><feGaussianBlur stdDeviation="0.05"/><feComposite in2="hardAlpha" k2="-1" k3="1" operator="arithmetic"/><feColorMatrix values="0 0 0 0 0.266667 0 0 0 0 0.172549 0 0 0 0 0.25098 0 0 0 1 0"/><feBlend in2="shape" result="effect1_innerShadow_18_2214"/><feColorMatrix in="SourceAlpha" result="hardAlpha" values="0 0 0 0 0 0 0 0 0 0 0 0 0 0 0 0 0 0 127 0"/><feOffset dy="-0.2"/><feGaussianBlur stdDeviation="0.05"/><feComposite in2="hardAlpha" k2="-1" k3="1" operator="arithmetic"/><feColorMatrix values="0 0 0 0 0.356863 0 0 0 0 0.294118 0 0 0 0 0.305882 0 0 0 1 0"/><feBlend in2="effect1_innerShadow_18_2214" result="effect2_innerShadow_18_2214"/></filter><radialGradient id="d" cx="0" cy="0" r="1" gradientTransform="translate(24.202 10.359) rotate(138.69) scale(18.679)" gradientUnits="userSpaceOnUse"><stop stop-color="#FFA167" offset="0"/><stop stop-color="#FF7D31" offset=".55399"/><stop stop-color="#EC5B36" offset="1"/></radialGradient><radialGradient id="c" cx="0" cy="0" r="1" gradientTransform="translate(18.462 12.06) rotate(99.462) scale(19.397 25.58)" gradientUnits="userSpaceOnUse"><stop stop-color="#D73853" stop-opacity="0" offset=".46618"/><stop stop-color="#D73853" offset=".9999"/><stop stop-color="#D75B8F" offset="1"/></radialGradient><radialGradient id="b" cx="0" cy="0" r="1" gradientTransform="translate(16.094 11.153) rotate(90) scale(18.847)" gradientUnits="userSpaceOnUse"><stop stop-color="#D85C90" stop-opacity="0" offset=".89457"/><stop stop-color="#D85C90" offset="1"/></radialGradient><radialGradient id="a" cx="0" cy="0" r="1" gradientTransform="translate(17.801 18.227) rotate(215.67) scale(16.752 19.704)" gradientUnits="userSpaceOnUse"><stop stop-color="#E07162" stop-opacity="0" offset=".858"/><stop stop-color="#E07162" offset="1"/></radialGradient></defs></svg>
