<svg fill="none" viewBox="0 0 32 32" xmlns="http://www.w3.org/2000/svg"><g filter="url(#x)"><path d="m29.92 16.29c0.02-0.03 0.05-0.07 0.06-0.11v-0.01c0.01-0.02 0.01-0.04 0.02-0.06 0-0.02 0.01-0.04 0.01-0.07v-0.01-0.01-0.02-0.03-0.01c0-0.02-0.01-0.04-0.01-0.06v-0.01c0-0.02-0.01-0.04-0.02-0.05v-0.01l-0.03-0.06c-0.01-0.02-0.02-0.03-0.03-0.05l-0.01-0.01c-0.01-0.02-0.03-0.03-0.04-0.05-0.01-0.01-0.03-0.03-0.05-0.04l-0.01-0.01c-0.02-0.01-0.04-0.02-0.06-0.04-2.58-1.39-4-3.3-4.2-5.67-0.16-1.81 0.46-3.23 0.46-3.24v-0.01c0.01-0.02 0.02-0.04 0.02-0.06v-0.01c0.01-0.02 0.01-0.04 0.01-0.06v-0.02-0.06-0.01-0.06-0.01c0-0.03-0.01-0.07-0.03-0.11 0 0 0-0.01-0.01-0.01-0.01-0.02-0.02-0.04-0.03-0.05-0.01-0.02-0.03-0.04-0.04-0.05v-0.01l-0.06-0.06c-0.02-0.01-0.03-0.03-0.05-0.04 0 0-0.01 0-0.01-0.01-0.01 0-0.03-0.01-0.04-0.02 0 0-0.01 0-0.01-0.01-0.02-0.01-0.04-0.02-0.06-0.02h-0.01c-0.02-0.01-0.04-0.01-0.06-0.01h-0.02-0.06-0.01-0.06-0.02c-0.02 0-0.04 0.01-0.06 0.01-2.81 0.84-5.16 0.5-6.98-1.04-1.38-1.16-1.95-2.6-1.95-2.61l-0.03-0.06c-0.01-0.02-0.02-0.03-0.03-0.05l-0.01-0.01c-0.01-0.02-0.03-0.03-0.04-0.05l-0.05-0.05c-0.03-0.02-0.07-0.05-0.11-0.06h-0.01c-0.02-0.01-0.04-0.01-0.06-0.02-0.04-0.01-0.06-0.02-0.08-0.02h-0.01-0.01-0.02-0.03-0.02c-0.02 0-0.04 0.01-0.06 0.01h-0.01c-0.02 0-0.03 0.01-0.05 0.02 0 0-0.01 0-0.01 0.01l-0.06 0.03h-0.01c-0.02 0.01-0.03 0.02-0.05 0.03l-0.01 0.01c-0.02 0.01-0.03 0.03-0.05 0.04l-0.05 0.05c-0.01 0.02-0.02 0.04-0.03 0.05-1.39 2.58-3.3 4-5.67 4.2-1.8 0.18-3.22-0.45-3.23-0.45h-0.01l-0.06-0.03h-0.01c-0.02 0-0.04-0.01-0.05-0.01h-0.02-0.06-0.01-0.05-0.02c-0.04 0.01-0.08 0.02-0.12 0.04 0 0-0.01 0-0.01 0.01-0.02 0-0.04 0.01-0.05 0.02-0.03 0.02-0.04 0.03-0.06 0.04h-0.01l-0.01 0.01c0 0.01 0 0.02-0.01 0.02-0.01 0.01-0.01 0.02-0.02 0.02l-0.01 0.01c-0.01 0.02-0.03 0.04-0.04 0.06 0 0 0 0.01-0.01 0.01 0 0.01-0.01 0.03-0.02 0.04 0 0 0 0.01-0.01 0.01 0 0.02-0.01 0.04-0.02 0.07 0 0.02-0.01 0.04-0.01 0.06v0.02 0.06 0.06 0.01c0 0.02 0.01 0.04 0.01 0.06 0.84 2.81 0.5 5.16-1.04 6.98-1.16 1.38-2.59 1.94-2.62 1.95l-0.06 0.03h-0.01c-0.02 0.01-0.03 0.02-0.05 0.03l-0.01 0.01c-0.02 0.01-0.03 0.03-0.05 0.04l-0.01 0.01c-0.01 0.01-0.02 0.03-0.04 0.04l-0.01 0.01c-0.02 0.03-0.04 0.07-0.06 0.11v0.01c-0.01 0.02-0.01 0.04-0.02 0.06 0 0.02-0.01 0.04-0.01 0.06v0.01 0.01 0.02 0.03 0.01c0 0.02 0.01 0.04 0.01 0.06v0.01c0 0.02 0.01 0.04 0.02 0.05v0.01l0.03 0.06c0.01 0.02 0.02 0.03 0.03 0.05l0.01 0.01c0.01 0.02 0.03 0.03 0.04 0.05 0.01 0.01 0.03 0.03 0.05 0.04l0.01 0.01c0.02 0.01 0.04 0.02 0.06 0.04 2.58 1.39 4 3.3 4.2 5.67 0.18 1.84-0.44 3.26-0.44 3.27v0.01c-0.01 0.02-0.02 0.04-0.02 0.06v0.01c-0.01 0.02-0.01 0.04-0.01 0.06v0.02 0.06 0.01 0.06 0.01c0.01 0.04 0.02 0.08 0.04 0.12 0 0 0 0.01 0.01 0.01 0.01 0.02 0.02 0.04 0.03 0.05 0.01 0.02 0.03 0.04 0.04 0.05v0.01l0.06 0.06c0.02 0.01 0.03 0.03 0.05 0.04 0 0 0.01 0 0.01 0.01 0.02 0.01 0.03 0.02 0.05 0.03 0 0 0.01 0 0.01 0.01 0.02 0.01 0.04 0.02 0.06 0.02h0.01c0.02 0.01 0.04 0.01 0.06 0.01h0.02 0.06 0.06 0.01c0.02 0 0.04-0.01 0.06-0.01 2.81-0.85 5.16-0.5 6.98 1.04 1.38 1.16 1.95 2.6 1.95 2.61l0.03 0.06c0.01 0.02 0.02 0.03 0.03 0.05l0.01 0.01c0.01 0.02 0.03 0.03 0.04 0.05l0.05 0.05c0.03 0.02 0.07 0.05 0.11 0.06h0.01c0.02 0.01 0.04 0.01 0.06 0.02 0.02 0 0.04 0.01 0.06 0.01h0.01 0.03 0.06 0.02c0.02 0 0.03-0.01 0.05-0.01h0.01c0.04-0.01 0.08-0.03 0.11-0.05l0.01-0.01c0.01-0.01 0.03-0.02 0.04-0.03l0.01-0.01c0.02-0.01 0.03-0.03 0.04-0.04l0.01-0.01c0.01-0.01 0.02-0.02 0.03-0.04l0.01-0.01c0.01-0.02 0.02-0.03 0.03-0.05 1.39-2.58 3.3-4 5.67-4.2 1.8-0.16 3.22 0.46 3.23 0.47 0.02 0.01 0.04 0.02 0.06 0.02h0.01c0.02 0.01 0.04 0.01 0.06 0.01h0.02 0.06 0.01 0.06 0.02c0.04-0.01 0.08-0.02 0.12-0.04 0 0 0.01 0 0.01-0.01 0.02-0.01 0.04-0.02 0.05-0.03 0.02-0.01 0.04-0.03 0.05-0.04h0.01l0.06-0.06c0.01-0.02 0.03-0.03 0.04-0.05 0 0 0-0.01 0.01-0.01 0.01-0.02 0.02-0.03 0.03-0.05 0 0 0-0.01 0.01-0.01 0.01-0.02 0.02-0.04 0.02-0.06 0.01-0.02 0.01-0.04 0.01-0.06v-0.02-0.06-0.06-0.01c0-0.02-0.01-0.04-0.01-0.06-0.84-2.81-0.5-5.16 1.04-6.98 1.16-1.38 2.6-1.95 2.61-1.95l0.06-0.03h0.01c0.02-0.01 0.03-0.02 0.05-0.03l0.01-0.01c0.02-0.01 0.03-0.03 0.05-0.04l0.04-0.04c0.01-0.04 0.01-0.04 0.02-0.05zm-2.13-0.79h-4.15c-2.84-1.6-2.08-4.05-1.9-4.52l2.86-2.86c-0.08 0.53-0.11 1.15-0.06 1.81 0.21 2.61 1.68 4.39 3.25 5.57zm-16.3 3.86c-0.07-0.82-0.39-1.9-1.41-2.86h4.73l-3.3 3.3c0-0.14-0.01-0.29-0.02-0.44zm5.02-9.23c0.1 0.1 0.21 0.2 0.32 0.3 0.6 0.51 1.53 1.02 2.85 1.02h0.17l-3.34 3.34v-4.66zm-1 4.66-3.3-3.3c0.14 0 0.29 0 0.44-0.01 0.82-0.07 1.9-0.39 2.86-1.41v4.72zm-0.71 0.71h-4.66c0.1-0.1 0.2-0.21 0.3-0.32 0.53-0.63 1.07-1.61 1.02-3.02l3.34 3.34zm0.71 1.71v4.67c-0.1-0.1-0.21-0.2-0.32-0.3-0.6-0.51-1.53-1.02-2.85-1.02h-0.17l3.34-3.35zm1 0 3.3 3.3c-0.14 0-0.29 0-0.44 0.01-0.82 0.07-1.9 0.39-2.86 1.41v-4.72zm0.71-0.71h4.67c-0.1 0.1-0.2 0.21-0.3 0.32-0.53 0.63-1.07 1.61-1.02 3.02l-3.35-3.34zm0-1 3.3-3.3c0 0.14 0 0.29 0.01 0.44 0.07 0.82 0.39 1.9 1.41 2.86h-4.72zm0.53-9.83c1.99 1.7 4.29 1.92 6.24 1.64l-2.94 2.94c-3.14 0.88-4.33-1.39-4.54-1.85v-4.05c0.32 0.43 0.73 0.89 1.24 1.32zm-7.81 1.8c2.61-0.21 4.39-1.68 5.57-3.25v4.15c-1.6 2.84-4.05 2.08-4.52 1.9l-2.86-2.86c0.53 0.07 1.14 0.11 1.81 0.06zm-4.26 6.79c1.7-1.99 1.92-4.29 1.64-6.24l2.94 2.94c0.88 3.13-1.39 4.33-1.85 4.54h-4.05c0.43-0.32 0.89-0.73 1.32-1.24zm-1.45 2.24h4.15c2.84 1.6 2.08 4.05 1.9 4.52l-2.86 2.86c0.08-0.53 0.11-1.15 0.06-1.81-0.21-2.61-1.68-4.39-3.25-5.57zm10.04 9.83c-1.54-1.31-3.27-1.74-4.87-1.74-0.47 0-0.93 0.04-1.37 0.1l2.94-2.94c3.14-0.88 4.33 1.39 4.54 1.85v4.05c-0.32-0.43-0.73-0.89-1.24-1.32zm7.81-1.8c-2.61 0.21-4.39 1.68-5.57 3.25v-4.15c1.6-2.84 4.05-2.08 4.52-1.9l2.86 2.86c-0.53-0.07-1.14-0.11-1.81-0.06zm4.26-6.79c-1.7 1.99-1.92 4.29-1.64 6.24l-2.94-2.94c-0.88-3.14 1.39-4.33 1.85-4.54h4.05c-0.43 0.32-0.89 0.73-1.32 1.24z" fill="url(#g)"/></g><g filter="url(#p)"><path d="m6.99 6.7812 8.5469 8.5626" stroke="#C1BAC8" stroke-linecap="round" stroke-width=".4"/></g><g filter="url(#o)"><path d="m16.17 3.0894-0.0111 12.098" stroke="#C1BAC8" stroke-linecap="round" stroke-width=".4"/></g><g filter="url(#n)"><path d="m16.175 16.951-0.011 12.098" stroke="#C1BAC8" stroke-linecap="round" stroke-width=".4"/></g><g filter="url(#m)"><path d="m16.678 16.529 8.5469 8.5625" stroke="#C1BAC8" stroke-linecap="round" stroke-width=".4"/></g><g filter="url(#l)"><path d="m3.3397 15.88h12.088" stroke="#C1B7CB" stroke-linecap="round" stroke-width=".4"/></g><g filter="url(#k)"><path d="m16.678 15.88h12.088" stroke="#C1B7CB" stroke-linecap="round" stroke-width=".4"/></g><g filter="url(#j)"><path d="m16.677 15.344 8.5473-8.5474" stroke="#C1B7CB" stroke-linecap="round" stroke-width=".4"/></g><g filter="url(#i)"><path d="m6.99 25.091 8.5473-8.5474" stroke="#C1B7CB" stroke-linecap="round" stroke-width=".4"/></g><g filter="url(#h)"><path d="m2.8025 16.016c2.3281 1.1719 5.35 4.3656 3.875 9.2656" stroke="#C1B7CB" stroke-linecap="round" stroke-width=".4"/></g><g filter="url(#w)"><path d="m6.8337 25.375c1.8646-0.6563 6.625-0.8313 9 3.5937" stroke="#C1B7CB" stroke-linecap="round" stroke-width=".4"/></g><g filter="url(#v)"><path d="m16.615 28.594c0.7812-1.5625 3.55-4.425 8.375-3.375" stroke="#C1B7CB" stroke-linecap="round" stroke-width=".4"/></g><g filter="url(#u)"><path d="m28.771 16.25c-1.6354 0.8646-4.6406 4.1031-3.3906 8.9531" stroke="url(#f)" stroke-linecap="round" stroke-width=".4"/></g><g filter="url(#t)"><path d="m25.209 6.9375c-0.4896 1.8333-0.5 6.0781 3.75 8.7969" stroke="#C1B7CB" stroke-linecap="round" stroke-width=".4"/></g><g filter="url(#s)"><path d="m16.021 2.8594c0.9219 1.625 3.5813 5.0656 9.0313 3.8906" stroke="url(#e)" stroke-linecap="round" stroke-width=".4"/></g><g filter="url(#r)"><path d="m7.115 6.75c1.7969 0.64062 6.375 0.45312 8.5937-3.5625" stroke="url(#d)" stroke-linecap="round" stroke-width=".4"/></g><path d="m29.92 16.29c0.02-0.03 0.05-0.07 0.06-0.11v-0.01c0.01-0.02 0.01-0.04 0.02-0.06 0-0.02 0.01-0.04 0.01-0.07v-0.01-0.01-0.02-0.03-0.01c0-0.02-0.01-0.04-0.01-0.06v-0.01c0-0.02-0.01-0.04-0.02-0.05v-0.01l-0.03-0.06c-0.01-0.02-0.02-0.03-0.03-0.05l-0.01-0.01c-0.01-0.02-0.03-0.03-0.04-0.05-0.01-0.01-0.03-0.03-0.05-0.04l-0.01-0.01c-0.02-0.01-0.04-0.02-0.06-0.04-2.58-1.39-4-3.3-4.2-5.67-0.16-1.81 0.46-3.23 0.46-3.24v-0.01c0.01-0.02 0.02-0.04 0.02-0.06v-0.01c0.01-0.02 0.01-0.04 0.01-0.06v-0.02-0.06-0.01-0.06-0.01c0-0.03-0.01-0.07-0.03-0.11 0 0 0-0.01-0.01-0.01-0.01-0.02-0.02-0.04-0.03-0.05-0.01-0.02-0.03-0.04-0.04-0.05v-0.01l-0.06-0.06c-0.02-0.01-0.03-0.03-0.05-0.04 0 0-0.01 0-0.01-0.01-0.01 0-0.03-0.01-0.04-0.02 0 0-0.01 0-0.01-0.01-0.02-0.01-0.04-0.02-0.06-0.02h-0.01c-0.02-0.01-0.04-0.01-0.06-0.01h-0.02-0.06-0.01-0.06-0.02c-0.02 0-0.04 0.01-0.06 0.01-2.81 0.84-5.16 0.5-6.98-1.04-1.38-1.16-1.95-2.6-1.95-2.61l-0.03-0.06c-0.01-0.02-0.02-0.03-0.03-0.05l-0.01-0.01c-0.01-0.02-0.03-0.03-0.04-0.05l-0.05-0.05c-0.03-0.02-0.07-0.05-0.11-0.06h-0.01c-0.02-0.01-0.04-0.01-0.06-0.02-0.04-0.01-0.06-0.02-0.08-0.02h-0.01-0.01-0.02-0.03-0.02c-0.02 0-0.04 0.01-0.06 0.01h-0.01c-0.02 0-0.03 0.01-0.05 0.02 0 0-0.01 0-0.01 0.01l-0.06 0.03h-0.01c-0.02 0.01-0.03 0.02-0.05 0.03l-0.01 0.01c-0.02 0.01-0.03 0.03-0.05 0.04l-0.05 0.05c-0.01 0.02-0.02 0.04-0.03 0.05-1.39 2.58-3.3 4-5.67 4.2-1.8 0.18-3.22-0.45-3.23-0.45h-0.01l-0.06-0.03h-0.01c-0.02 0-0.04-0.01-0.05-0.01h-0.02-0.06-0.01-0.05-0.02c-0.04 0.01-0.08 0.02-0.12 0.04 0 0-0.01 0-0.01 0.01-0.02 0-0.04 0.01-0.05 0.02-0.03 0.02-0.04 0.03-0.06 0.04h-0.01l-0.01 0.01c0 0.01 0 0.02-0.01 0.02-0.01 0.01-0.01 0.02-0.02 0.02l-0.01 0.01c-0.01 0.02-0.03 0.04-0.04 0.06 0 0 0 0.01-0.01 0.01 0 0.01-0.01 0.03-0.02 0.04 0 0 0 0.01-0.01 0.01 0 0.02-0.01 0.04-0.02 0.07 0 0.02-0.01 0.04-0.01 0.06v0.02 0.06 0.06 0.01c0 0.02 0.01 0.04 0.01 0.06 0.84 2.81 0.5 5.16-1.04 6.98-1.16 1.38-2.59 1.94-2.62 1.95l-0.06 0.03h-0.01c-0.02 0.01-0.03 0.02-0.05 0.03l-0.01 0.01c-0.02 0.01-0.03 0.03-0.05 0.04l-0.01 0.01c-0.01 0.01-0.02 0.03-0.04 0.04l-0.01 0.01c-0.02 0.03-0.04 0.07-0.06 0.11v0.01c-0.01 0.02-0.01 0.04-0.02 0.06 0 0.02-0.01 0.04-0.01 0.06v0.01 0.01 0.02 0.03 0.01c0 0.02 0.01 0.04 0.01 0.06v0.01c0 0.02 0.01 0.04 0.02 0.05v0.01l0.03 0.06c0.01 0.02 0.02 0.03 0.03 0.05l0.01 0.01c0.01 0.02 0.03 0.03 0.04 0.05 0.01 0.01 0.03 0.03 0.05 0.04l0.01 0.01c0.02 0.01 0.04 0.02 0.06 0.04 2.58 1.39 4 3.3 4.2 5.67 0.18 1.84-0.44 3.26-0.44 3.27v0.01c-0.01 0.02-0.02 0.04-0.02 0.06v0.01c-0.01 0.02-0.01 0.04-0.01 0.06v0.02 0.06 0.01 0.06 0.01c0.01 0.04 0.02 0.08 0.04 0.12 0 0 0 0.01 0.01 0.01 0.01 0.02 0.02 0.04 0.03 0.05 0.01 0.02 0.03 0.04 0.04 0.05v0.01l0.06 0.06c0.02 0.01 0.03 0.03 0.05 0.04 0 0 0.01 0 0.01 0.01 0.02 0.01 0.03 0.02 0.05 0.03 0 0 0.01 0 0.01 0.01 0.02 0.01 0.04 0.02 0.06 0.02h0.01c0.02 0.01 0.04 0.01 0.06 0.01h0.02 0.06 0.06 0.01c0.02 0 0.04-0.01 0.06-0.01 2.81-0.85 5.16-0.5 6.98 1.04 1.38 1.16 1.95 2.6 1.95 2.61l0.03 0.06c0.01 0.02 0.02 0.03 0.03 0.05l0.01 0.01c0.01 0.02 0.03 0.03 0.04 0.05l0.05 0.05c0.03 0.02 0.07 0.05 0.11 0.06h0.01c0.02 0.01 0.04 0.01 0.06 0.02 0.02 0 0.04 0.01 0.06 0.01h0.01 0.03 0.06 0.02c0.02 0 0.03-0.01 0.05-0.01h0.01c0.04-0.01 0.08-0.03 0.11-0.05l0.01-0.01c0.01-0.01 0.03-0.02 0.04-0.03l0.01-0.01c0.02-0.01 0.03-0.03 0.04-0.04l0.01-0.01c0.01-0.01 0.02-0.02 0.03-0.04l0.01-0.01c0.01-0.02 0.02-0.03 0.03-0.05 1.39-2.58 3.3-4 5.67-4.2 1.8-0.16 3.22 0.46 3.23 0.47 0.02 0.01 0.04 0.02 0.06 0.02h0.01c0.02 0.01 0.04 0.01 0.06 0.01h0.02 0.06 0.01 0.06 0.02c0.04-0.01 0.08-0.02 0.12-0.04 0 0 0.01 0 0.01-0.01 0.02-0.01 0.04-0.02 0.05-0.03 0.02-0.01 0.04-0.03 0.05-0.04h0.01l0.06-0.06c0.01-0.02 0.03-0.03 0.04-0.05 0 0 0-0.01 0.01-0.01 0.01-0.02 0.02-0.03 0.03-0.05 0 0 0-0.01 0.01-0.01 0.01-0.02 0.02-0.04 0.02-0.06 0.01-0.02 0.01-0.04 0.01-0.06v-0.02-0.06-0.06-0.01c0-0.02-0.01-0.04-0.01-0.06-0.84-2.81-0.5-5.16 1.04-6.98 1.16-1.38 2.6-1.95 2.61-1.95l0.06-0.03h0.01c0.02-0.01 0.03-0.02 0.05-0.03l0.01-0.01c0.02-0.01 0.03-0.03 0.05-0.04l0.04-0.04c0.01-0.04 0.01-0.04 0.02-0.05zm-2.13-0.79h-4.15c-2.84-1.6-2.08-4.05-1.9-4.52l2.86-2.86c-0.08 0.53-0.11 1.15-0.06 1.81 0.21 2.61 1.68 4.39 3.25 5.57zm-16.3 3.86c-0.07-0.82-0.39-1.9-1.41-2.86h4.73l-3.3 3.3c0-0.14-0.01-0.29-0.02-0.44zm5.02-9.23c0.1 0.1 0.21 0.2 0.32 0.3 0.6 0.51 1.53 1.02 2.85 1.02h0.17l-3.34 3.34v-4.66zm-1 4.66-3.3-3.3c0.14 0 0.29 0 0.44-0.01 0.82-0.07 1.9-0.39 2.86-1.41v4.72zm-0.71 0.71h-4.66c0.1-0.1 0.2-0.21 0.3-0.32 0.53-0.63 1.07-1.61 1.02-3.02l3.34 3.34zm0.71 1.71v4.67c-0.1-0.1-0.21-0.2-0.32-0.3-0.6-0.51-1.53-1.02-2.85-1.02h-0.17l3.34-3.35zm1 0 3.3 3.3c-0.14 0-0.29 0-0.44 0.01-0.82 0.07-1.9 0.39-2.86 1.41v-4.72zm0.71-0.71h4.67c-0.1 0.1-0.2 0.21-0.3 0.32-0.53 0.63-1.07 1.61-1.02 3.02l-3.35-3.34zm0-1 3.3-3.3c0 0.14 0 0.29 0.01 0.44 0.07 0.82 0.39 1.9 1.41 2.86h-4.72zm0.53-9.83c1.99 1.7 4.29 1.92 6.24 1.64l-2.94 2.94c-3.14 0.88-4.33-1.39-4.54-1.85v-4.05c0.32 0.43 0.73 0.89 1.24 1.32zm-7.81 1.8c2.61-0.21 4.39-1.68 5.57-3.25v4.15c-1.6 2.84-4.05 2.08-4.52 1.9l-2.86-2.86c0.53 0.07 1.14 0.11 1.81 0.06zm-4.26 6.79c1.7-1.99 1.92-4.29 1.64-6.24l2.94 2.94c0.88 3.13-1.39 4.33-1.85 4.54h-4.05c0.43-0.32 0.89-0.73 1.32-1.24zm-1.45 2.24h4.15c2.84 1.6 2.08 4.05 1.9 4.52l-2.86 2.86c0.08-0.53 0.11-1.15 0.06-1.81-0.21-2.61-1.68-4.39-3.25-5.57zm10.04 9.83c-1.54-1.31-3.27-1.74-4.87-1.74-0.47 0-0.93 0.04-1.37 0.1l2.94-2.94c3.14-0.88 4.33 1.39 4.54 1.85v4.05c-0.32-0.43-0.73-0.89-1.24-1.32zm7.81-1.8c-2.61 0.21-4.39 1.68-5.57 3.25v-4.15c1.6-2.84 4.05-2.08 4.52-1.9l2.86 2.86c-0.53-0.07-1.14-0.11-1.81-0.06zm4.26-6.79c-1.7 1.99-1.92 4.29-1.64 6.24l-2.94-2.94c-0.88-3.14 1.39-4.33 1.85-4.54h4.05c-0.43 0.32-0.89 0.73-1.32 1.24z" fill="url(#c)"/><path d="m29.92 16.29c0.02-0.03 0.05-0.07 0.06-0.11v-0.01c0.01-0.02 0.01-0.04 0.02-0.06 0-0.02 0.01-0.04 0.01-0.07v-0.01-0.01-0.02-0.03-0.01c0-0.02-0.01-0.04-0.01-0.06v-0.01c0-0.02-0.01-0.04-0.02-0.05v-0.01l-0.03-0.06c-0.01-0.02-0.02-0.03-0.03-0.05l-0.01-0.01c-0.01-0.02-0.03-0.03-0.04-0.05-0.01-0.01-0.03-0.03-0.05-0.04l-0.01-0.01c-0.02-0.01-0.04-0.02-0.06-0.04-2.58-1.39-4-3.3-4.2-5.67-0.16-1.81 0.46-3.23 0.46-3.24v-0.01c0.01-0.02 0.02-0.04 0.02-0.06v-0.01c0.01-0.02 0.01-0.04 0.01-0.06v-0.02-0.06-0.01-0.06-0.01c0-0.03-0.01-0.07-0.03-0.11 0 0 0-0.01-0.01-0.01-0.01-0.02-0.02-0.04-0.03-0.05-0.01-0.02-0.03-0.04-0.04-0.05v-0.01l-0.06-0.06c-0.02-0.01-0.03-0.03-0.05-0.04 0 0-0.01 0-0.01-0.01-0.01 0-0.03-0.01-0.04-0.02 0 0-0.01 0-0.01-0.01-0.02-0.01-0.04-0.02-0.06-0.02h-0.01c-0.02-0.01-0.04-0.01-0.06-0.01h-0.02-0.06-0.01-0.06-0.02c-0.02 0-0.04 0.01-0.06 0.01-2.81 0.84-5.16 0.5-6.98-1.04-1.38-1.16-1.95-2.6-1.95-2.61l-0.03-0.06c-0.01-0.02-0.02-0.03-0.03-0.05l-0.01-0.01c-0.01-0.02-0.03-0.03-0.04-0.05l-0.05-0.05c-0.03-0.02-0.07-0.05-0.11-0.06h-0.01c-0.02-0.01-0.04-0.01-0.06-0.02-0.04-0.01-0.06-0.02-0.08-0.02h-0.01-0.01-0.02-0.03-0.02c-0.02 0-0.04 0.01-0.06 0.01h-0.01c-0.02 0-0.03 0.01-0.05 0.02 0 0-0.01 0-0.01 0.01l-0.06 0.03h-0.01c-0.02 0.01-0.03 0.02-0.05 0.03l-0.01 0.01c-0.02 0.01-0.03 0.03-0.05 0.04l-0.05 0.05c-0.01 0.02-0.02 0.04-0.03 0.05-1.39 2.58-3.3 4-5.67 4.2-1.8 0.18-3.22-0.45-3.23-0.45h-0.01l-0.06-0.03h-0.01c-0.02 0-0.04-0.01-0.05-0.01h-0.02-0.06-0.01-0.05-0.02c-0.04 0.01-0.08 0.02-0.12 0.04 0 0-0.01 0-0.01 0.01-0.02 0-0.04 0.01-0.05 0.02-0.03 0.02-0.04 0.03-0.06 0.04h-0.01l-0.01 0.01c0 0.01 0 0.02-0.01 0.02-0.01 0.01-0.01 0.02-0.02 0.02l-0.01 0.01c-0.01 0.02-0.03 0.04-0.04 0.06 0 0 0 0.01-0.01 0.01 0 0.01-0.01 0.03-0.02 0.04 0 0 0 0.01-0.01 0.01 0 0.02-0.01 0.04-0.02 0.07 0 0.02-0.01 0.04-0.01 0.06v0.02 0.06 0.06 0.01c0 0.02 0.01 0.04 0.01 0.06 0.84 2.81 0.5 5.16-1.04 6.98-1.16 1.38-2.59 1.94-2.62 1.95l-0.06 0.03h-0.01c-0.02 0.01-0.03 0.02-0.05 0.03l-0.01 0.01c-0.02 0.01-0.03 0.03-0.05 0.04l-0.01 0.01c-0.01 0.01-0.02 0.03-0.04 0.04l-0.01 0.01c-0.02 0.03-0.04 0.07-0.06 0.11v0.01c-0.01 0.02-0.01 0.04-0.02 0.06 0 0.02-0.01 0.04-0.01 0.06v0.01 0.01 0.02 0.03 0.01c0 0.02 0.01 0.04 0.01 0.06v0.01c0 0.02 0.01 0.04 0.02 0.05v0.01l0.03 0.06c0.01 0.02 0.02 0.03 0.03 0.05l0.01 0.01c0.01 0.02 0.03 0.03 0.04 0.05 0.01 0.01 0.03 0.03 0.05 0.04l0.01 0.01c0.02 0.01 0.04 0.02 0.06 0.04 2.58 1.39 4 3.3 4.2 5.67 0.18 1.84-0.44 3.26-0.44 3.27v0.01c-0.01 0.02-0.02 0.04-0.02 0.06v0.01c-0.01 0.02-0.01 0.04-0.01 0.06v0.02 0.06 0.01 0.06 0.01c0.01 0.04 0.02 0.08 0.04 0.12 0 0 0 0.01 0.01 0.01 0.01 0.02 0.02 0.04 0.03 0.05 0.01 0.02 0.03 0.04 0.04 0.05v0.01l0.06 0.06c0.02 0.01 0.03 0.03 0.05 0.04 0 0 0.01 0 0.01 0.01 0.02 0.01 0.03 0.02 0.05 0.03 0 0 0.01 0 0.01 0.01 0.02 0.01 0.04 0.02 0.06 0.02h0.01c0.02 0.01 0.04 0.01 0.06 0.01h0.02 0.06 0.06 0.01c0.02 0 0.04-0.01 0.06-0.01 2.81-0.85 5.16-0.5 6.98 1.04 1.38 1.16 1.95 2.6 1.95 2.61l0.03 0.06c0.01 0.02 0.02 0.03 0.03 0.05l0.01 0.01c0.01 0.02 0.03 0.03 0.04 0.05l0.05 0.05c0.03 0.02 0.07 0.05 0.11 0.06h0.01c0.02 0.01 0.04 0.01 0.06 0.02 0.02 0 0.04 0.01 0.06 0.01h0.01 0.03 0.06 0.02c0.02 0 0.03-0.01 0.05-0.01h0.01c0.04-0.01 0.08-0.03 0.11-0.05l0.01-0.01c0.01-0.01 0.03-0.02 0.04-0.03l0.01-0.01c0.02-0.01 0.03-0.03 0.04-0.04l0.01-0.01c0.01-0.01 0.02-0.02 0.03-0.04l0.01-0.01c0.01-0.02 0.02-0.03 0.03-0.05 1.39-2.58 3.3-4 5.67-4.2 1.8-0.16 3.22 0.46 3.23 0.47 0.02 0.01 0.04 0.02 0.06 0.02h0.01c0.02 0.01 0.04 0.01 0.06 0.01h0.02 0.06 0.01 0.06 0.02c0.04-0.01 0.08-0.02 0.12-0.04 0 0 0.01 0 0.01-0.01 0.02-0.01 0.04-0.02 0.05-0.03 0.02-0.01 0.04-0.03 0.05-0.04h0.01l0.06-0.06c0.01-0.02 0.03-0.03 0.04-0.05 0 0 0-0.01 0.01-0.01 0.01-0.02 0.02-0.03 0.03-0.05 0 0 0-0.01 0.01-0.01 0.01-0.02 0.02-0.04 0.02-0.06 0.01-0.02 0.01-0.04 0.01-0.06v-0.02-0.06-0.06-0.01c0-0.02-0.01-0.04-0.01-0.06-0.84-2.81-0.5-5.16 1.04-6.98 1.16-1.38 2.6-1.95 2.61-1.95l0.06-0.03h0.01c0.02-0.01 0.03-0.02 0.05-0.03l0.01-0.01c0.02-0.01 0.03-0.03 0.05-0.04l0.04-0.04c0.01-0.04 0.01-0.04 0.02-0.05zm-2.13-0.79h-4.15c-2.84-1.6-2.08-4.05-1.9-4.52l2.86-2.86c-0.08 0.53-0.11 1.15-0.06 1.81 0.21 2.61 1.68 4.39 3.25 5.57zm-16.3 3.86c-0.07-0.82-0.39-1.9-1.41-2.86h4.73l-3.3 3.3c0-0.14-0.01-0.29-0.02-0.44zm5.02-9.23c0.1 0.1 0.21 0.2 0.32 0.3 0.6 0.51 1.53 1.02 2.85 1.02h0.17l-3.34 3.34v-4.66zm-1 4.66-3.3-3.3c0.14 0 0.29 0 0.44-0.01 0.82-0.07 1.9-0.39 2.86-1.41v4.72zm-0.71 0.71h-4.66c0.1-0.1 0.2-0.21 0.3-0.32 0.53-0.63 1.07-1.61 1.02-3.02l3.34 3.34zm0.71 1.71v4.67c-0.1-0.1-0.21-0.2-0.32-0.3-0.6-0.51-1.53-1.02-2.85-1.02h-0.17l3.34-3.35zm1 0 3.3 3.3c-0.14 0-0.29 0-0.44 0.01-0.82 0.07-1.9 0.39-2.86 1.41v-4.72zm0.71-0.71h4.67c-0.1 0.1-0.2 0.21-0.3 0.32-0.53 0.63-1.07 1.61-1.02 3.02l-3.35-3.34zm0-1 3.3-3.3c0 0.14 0 0.29 0.01 0.44 0.07 0.82 0.39 1.9 1.41 2.86h-4.72zm0.53-9.83c1.99 1.7 4.29 1.92 6.24 1.64l-2.94 2.94c-3.14 0.88-4.33-1.39-4.54-1.85v-4.05c0.32 0.43 0.73 0.89 1.24 1.32zm-7.81 1.8c2.61-0.21 4.39-1.68 5.57-3.25v4.15c-1.6 2.84-4.05 2.08-4.52 1.9l-2.86-2.86c0.53 0.07 1.14 0.11 1.81 0.06zm-4.26 6.79c1.7-1.99 1.92-4.29 1.64-6.24l2.94 2.94c0.88 3.13-1.39 4.33-1.85 4.54h-4.05c0.43-0.32 0.89-0.73 1.32-1.24zm-1.45 2.24h4.15c2.84 1.6 2.08 4.05 1.9 4.52l-2.86 2.86c0.08-0.53 0.11-1.15 0.06-1.81-0.21-2.61-1.68-4.39-3.25-5.57zm10.04 9.83c-1.54-1.31-3.27-1.74-4.87-1.74-0.47 0-0.93 0.04-1.37 0.1l2.94-2.94c3.14-0.88 4.33 1.39 4.54 1.85v4.05c-0.32-0.43-0.73-0.89-1.24-1.32zm7.81-1.8c-2.61 0.21-4.39 1.68-5.57 3.25v-4.15c1.6-2.84 4.05-2.08 4.52-1.9l2.86 2.86c-0.53-0.07-1.14-0.11-1.81-0.06zm4.26-6.79c-1.7 1.99-1.92 4.29-1.64 6.24l-2.94-2.94c-0.88-3.14 1.39-4.33 1.85-4.54h4.05c-0.43 0.32-0.89 0.73-1.32 1.24z" fill="url(#b)"/><g filter="url(#q)"><path d="m6.74 6.8125c0.65625 1.9896 0.84375 6.5625-3.6562 8.9375" stroke="url(#a)" stroke-linecap="round" stroke-width=".4"/></g><defs><filter id="x" x="1.99" y="1.6" width="28.27" height="28.61" color-interpolation-filters="sRGB" filterUnits="userSpaceOnUse"><feFlood flood-opacity="0" result="BackgroundImageFix"/><feBlend in="SourceGraphic" in2="BackgroundImageFix" result="shape"/><feColorMatrix in="SourceAlpha" result="hardAlpha" values="0 0 0 0 0 0 0 0 0 0 0 0 0 0 0 0 0 0 127 0"/><feOffset dx="0.25" dy="-0.25"/><feGaussianBlur stdDeviation="0.125"/><feComposite in2="hardAlpha" k2="-1" k3="1" operator="arithmetic"/><feColorMatrix values="0 0 0 0 0.65098 0 0 0 0 0.611765 0 0 0 0 0.694118 0 0 0 1 0"/><feBlend in2="shape" result="effect1_innerShadow_28327_6675"/><feColorMatrix in="SourceAlpha" result="hardAlpha" values="0 0 0 0 0 0 0 0 0 0 0 0 0 0 0 0 0 0 127 0"/><feOffset dy="-0.4"/><feGaussianBlur stdDeviation="0.2"/><feComposite in2="hardAlpha" k2="-1" k3="1" operator="arithmetic"/><feColorMatrix values="0 0 0 0 0.639216 0 0 0 0 0.576471 0 0 0 0 0.701961 0 0 0 1 0"/><feBlend in2="effect1_innerShadow_28327_6675" result="effect2_innerShadow_28327_6675"/><feColorMatrix in="SourceAlpha" result="hardAlpha" values="0 0 0 0 0 0 0 0 0 0 0 0 0 0 0 0 0 0 127 0"/><feOffset dx="0.2" dy="0.2"/><feGaussianBlur stdDeviation="0.125"/><feComposite in2="hardAlpha" k2="-1" k3="1" operator="arithmetic"/><feColorMatrix values="0 0 0 0 0.654902 0 0 0 0 0.639216 0 0 0 0 0.670588 0 0 0 1 0"/><feBlend in2="effect2_innerShadow_28327_6675" result="effect3_innerShadow_28327_6675"/></filter><filter id="p" x="6.49" y="6.2813" width="9.5469" height="9.5624" color-interpolation-filters="sRGB" filterUnits="userSpaceOnUse"><feFlood flood-opacity="0" result="BackgroundImageFix"/><feBlend in="SourceGraphic" in2="BackgroundImageFix" result="shape"/><feGaussianBlur result="effect1_foregroundBlur_28327_6675" stdDeviation="0.15"/></filter><filter id="o" x="15.659" y="2.5894" width="1.0111" height="13.098" color-interpolation-filters="sRGB" filterUnits="userSpaceOnUse"><feFlood flood-opacity="0" result="BackgroundImageFix"/><feBlend in="SourceGraphic" in2="BackgroundImageFix" result="shape"/><feGaussianBlur result="effect1_foregroundBlur_28327_6675" stdDeviation="0.15"/></filter><filter id="n" x="15.664" y="16.451" width="1.0111" height="13.098" color-interpolation-filters="sRGB" filterUnits="userSpaceOnUse"><feFlood flood-opacity="0" result="BackgroundImageFix"/><feBlend in="SourceGraphic" in2="BackgroundImageFix" result="shape"/><feGaussianBlur result="effect1_foregroundBlur_28327_6675" stdDeviation="0.15"/></filter><filter id="m" x="16.178" y="16.029" width="9.5469" height="9.5624" color-interpolation-filters="sRGB" filterUnits="userSpaceOnUse"><feFlood flood-opacity="0" result="BackgroundImageFix"/><feBlend in="SourceGraphic" in2="BackgroundImageFix" result="shape"/><feGaussianBlur result="effect1_foregroundBlur_28327_6675" stdDeviation="0.15"/></filter><filter id="l" x="2.8397" y="15.38" width="13.088" height=".9999" color-interpolation-filters="sRGB" filterUnits="userSpaceOnUse"><feFlood flood-opacity="0" result="BackgroundImageFix"/><feBlend in="SourceGraphic" in2="BackgroundImageFix" result="shape"/><feGaussianBlur result="effect1_foregroundBlur_28327_6675" stdDeviation="0.15"/></filter><filter id="k" x="16.178" y="15.38" width="13.088" height=".9999" color-interpolation-filters="sRGB" filterUnits="userSpaceOnUse"><feFlood flood-opacity="0" result="BackgroundImageFix"/><feBlend in="SourceGraphic" in2="BackgroundImageFix" result="shape"/><feGaussianBlur result="effect1_foregroundBlur_28327_6675" stdDeviation="0.15"/></filter><filter id="j" x="16.177" y="6.2964" width="9.5474" height="9.5473" color-interpolation-filters="sRGB" filterUnits="userSpaceOnUse"><feFlood flood-opacity="0" result="BackgroundImageFix"/><feBlend in="SourceGraphic" in2="BackgroundImageFix" result="shape"/><feGaussianBlur result="effect1_foregroundBlur_28327_6675" stdDeviation="0.15"/></filter><filter id="i" x="6.49" y="16.044" width="9.5474" height="9.5473" color-interpolation-filters="sRGB" filterUnits="userSpaceOnUse"><feFlood flood-opacity="0" result="BackgroundImageFix"/><feBlend in="SourceGraphic" in2="BackgroundImageFix" result="shape"/><feGaussianBlur result="effect1_foregroundBlur_28327_6675" stdDeviation="0.15"/></filter><filter id="h" x="2.3024" y="15.516" width="5.2655" height="10.266" color-interpolation-filters="sRGB" filterUnits="userSpaceOnUse"><feFlood flood-opacity="0" result="BackgroundImageFix"/><feBlend in="SourceGraphic" in2="BackgroundImageFix" result="shape"/><feGaussianBlur result="effect1_foregroundBlur_28327_6675" stdDeviation="0.15"/></filter><filter id="w" x="6.3337" y="24.526" width="10" height="4.9433" color-interpolation-filters="sRGB" filterUnits="userSpaceOnUse"><feFlood flood-opacity="0" result="BackgroundImageFix"/><feBlend in="SourceGraphic" in2="BackgroundImageFix" result="shape"/><feGaussianBlur result="effect1_foregroundBlur_28327_6675" stdDeviation="0.15"/></filter><filter id="v" x="16.115" y="24.492" width="9.3751" height="4.6013" color-interpolation-filters="sRGB" filterUnits="userSpaceOnUse"><feFlood flood-opacity="0" result="BackgroundImageFix"/><feBlend in="SourceGraphic" in2="BackgroundImageFix" result="shape"/><feGaussianBlur result="effect1_foregroundBlur_28327_6675" stdDeviation="0.15"/></filter><filter id="u" x="24.584" y="15.75" width="4.6875" height="9.9533" color-interpolation-filters="sRGB" filterUnits="userSpaceOnUse"><feFlood flood-opacity="0" result="BackgroundImageFix"/><feBlend in="SourceGraphic" in2="BackgroundImageFix" result="shape"/><feGaussianBlur result="effect1_foregroundBlur_28327_6675" stdDeviation="0.15"/></filter><filter id="t" x="24.491" y="6.4374" width="4.9679" height="9.797" color-interpolation-filters="sRGB" filterUnits="userSpaceOnUse"><feFlood flood-opacity="0" result="BackgroundImageFix"/><feBlend in="SourceGraphic" in2="BackgroundImageFix" result="shape"/><feGaussianBlur result="effect1_foregroundBlur_28327_6675" stdDeviation="0.15"/></filter><filter id="s" x="15.521" y="2.3593" width="10.031" height="5.1305" color-interpolation-filters="sRGB" filterUnits="userSpaceOnUse"><feFlood flood-opacity="0" result="BackgroundImageFix"/><feBlend in="SourceGraphic" in2="BackgroundImageFix" result="shape"/><feGaussianBlur result="effect1_foregroundBlur_28327_6675" stdDeviation="0.15"/></filter><filter id="r" x="6.615" y="2.6874" width="9.5938" height="4.8416" color-interpolation-filters="sRGB" filterUnits="userSpaceOnUse"><feFlood flood-opacity="0" result="BackgroundImageFix"/><feBlend in="SourceGraphic" in2="BackgroundImageFix" result="shape"/><feGaussianBlur result="effect1_foregroundBlur_28327_6675" stdDeviation="0.15"/></filter><filter id="q" x="2.5837" y="6.3124" width="5.0065" height="9.9376" color-interpolation-filters="sRGB" filterUnits="userSpaceOnUse"><feFlood flood-opacity="0" result="BackgroundImageFix"/><feBlend in="SourceGraphic" in2="BackgroundImageFix" result="shape"/><feGaussianBlur result="effect1_foregroundBlur_28327_6675" stdDeviation="0.15"/></filter><radialGradient id="g" cx="0" cy="0" r="1" gradientTransform="translate(5.9275 27.938) rotate(-43.194) scale(23.832)" gradientUnits="userSpaceOnUse"><stop stop-color="#B9ADC5" offset="0"/><stop stop-color="#B3A9BE" offset="1"/></radialGradient><linearGradient id="f" x1="25.99" x2="31.834" y1="24.469" y2="9.9375" gradientUnits="userSpaceOnUse"><stop stop-color="#BFB8C8" offset="0"/><stop stop-color="#BFB8C8" stop-opacity="0" offset="1"/></linearGradient><linearGradient id="e" x1="16.646" x2="19.769" y1="4.2812" y2=".9039" gradientUnits="userSpaceOnUse"><stop stop-color="#BFB8C8" offset="0"/><stop stop-color="#BFB8C8" stop-opacity="0" offset="1"/></linearGradient><linearGradient id="d" x1="9.2263" x2="9.691" y1="6.4781" y2="-.24868" gradientUnits="userSpaceOnUse"><stop stop-color="#BFB8C8" offset="0"/><stop stop-color="#BFB8C8" stop-opacity="0" offset="1"/></linearGradient><radialGradient id="c" cx="0" cy="0" r="1" gradientTransform="translate(26.24 5.9062) rotate(131.38) scale(1.7492 1.3399)" gradientUnits="userSpaceOnUse"><stop stop-color="#C6C4C8" offset="0"/><stop stop-color="#C6C4C8" stop-opacity="0" offset="1"/></radialGradient><radialGradient id="b" cx="0" cy="0" r="1" gradientTransform="translate(30.146 15.688) rotate(180) scale(1.7188 1.5469)" gradientUnits="userSpaceOnUse"><stop stop-color="#C6C4C8" offset="0"/><stop stop-color="#C6C4C8" stop-opacity="0" offset="1"/></radialGradient><linearGradient id="a" x1="5.9587" x2="3.4597" y1="7.6875" y2="18.334" gradientUnits="userSpaceOnUse"><stop stop-color="#BFB8C8" offset="0"/><stop stop-color="#BFB8C8" stop-opacity="0" offset="1"/></linearGradient></defs></svg>
