<svg width="452" height="34" viewBox="0 0 452 34" fill="none" xmlns="http://www.w3.org/2000/svg">
<g clip-path="url(#clip0_115_151)">
<path d="M234.107 30.5C235.073 30.5 235.857 29.7165 235.857 28.75C235.857 27.7835 235.073 27 234.107 27C233.14 27 232.357 27.7835 232.357 28.75C232.357 29.7165 233.14 30.5 234.107 30.5Z" fill="#0E9061"/>
<path d="M240.07 30.5C241.037 30.5 241.82 29.7165 241.82 28.75C241.82 27.7835 241.037 27 240.07 27C239.104 27 238.32 27.7835 238.32 28.75C238.32 29.7165 239.104 30.5 240.07 30.5Z" fill="#0E9061"/>
<path d="M246.027 30.5C246.994 30.5 247.777 29.7165 247.777 28.75C247.777 27.7835 246.994 27 246.027 27C245.061 27 244.277 27.7835 244.277 28.75C244.277 29.7165 245.061 30.5 246.027 30.5Z" fill="#0E9061"/>
<path d="M29.6155 8.39546H20.8569V3.21436H44.7157V8.39546H35.9571V30.6877H29.6216V8.39546H29.6155Z" fill="black"/>
<path d="M73.2252 3.21436V30.6815H66.8898V19.4191H54.4507V30.6815H48.1152V3.21436H54.4507V14.0481H66.8898V3.21436H73.2252Z" fill="black"/>
<path d="M96.547 30.6877L91.2674 23.0324H85.4385V30.6877H79.103V3.21436H90.9561C93.3792 3.21436 95.4849 3.61855 97.2733 4.43308C99.0616 5.24148 100.435 6.39283 101.399 7.88715C102.364 9.38146 102.846 11.1452 102.846 13.1846C102.846 15.224 102.358 16.9878 101.381 18.4637C100.404 19.9396 99.0128 21.0726 97.2184 21.8565L103.359 30.6877H96.5531H96.547ZM94.9478 9.63255C93.9591 8.80578 92.5125 8.39546 90.6082 8.39546H85.4446V17.9676H90.6082C92.5125 17.9676 93.9591 17.5512 94.9478 16.7122C95.9366 15.8731 96.4371 14.6973 96.4371 13.1785C96.4371 11.6597 95.9427 10.4532 94.9478 9.62643V9.63255Z" fill="black"/>
<path d="M129.048 25.5862V30.6877H107.851V3.21436H128.542V8.31584H114.149V14.2808H126.863V19.2231H114.149V25.5801H129.048V25.5862Z" fill="black"/>
<path d="M155.294 25.5862V30.6877H134.096V3.21436H154.787V8.31584H140.395V14.2808H153.109V19.2231H140.395V25.5801H155.294V25.5862Z" fill="black"/>
<path d="M185.25 30.6877L185.214 14.2074L177.157 27.7848H174.3L166.28 14.5626V30.6938H160.335V3.21436H165.578L175.826 20.2826L185.915 3.21436H191.116L191.195 30.6815H185.25V30.6877Z" fill="black"/>
<path d="M215.719 24.8023H203.005L200.582 30.6877H194.088L206.289 3.21436H212.545L224.789 30.6815H218.142L215.719 24.7962V24.8023ZM213.723 19.9764L209.383 9.46107L205.044 19.9764H213.723Z" fill="black"/>
<path d="M239.86 3C245.924 3 250.857 7.93423 250.857 14C250.857 20.0658 245.924 25 239.86 25C237.622 25 235.545 24.3317 233.808 23.1816L229.581 24.5361L230.953 20.4492C229.636 18.6375 228.857 16.4053 228.857 14C228.857 7.93423 233.79 3 239.854 3H239.86ZM240.062 8C238.341 8.00015 236.937 9.4088 236.937 11.1357V12.5996H236.839C236.296 12.5997 235.857 13.0401 235.857 13.585V17.542C235.857 18.0868 236.296 18.5272 236.839 18.5273H243.279C243.822 18.5273 244.261 18.0868 244.261 17.542V13.585C244.261 13.0401 243.822 12.5996 243.279 12.5996H243.187V11.1357C243.187 9.40871 241.783 8 240.062 8ZM240.062 9.28613C241.075 9.28613 241.906 10.1191 241.906 11.1357V12.5996H238.219V11.1357C238.219 10.1131 239.049 9.28628 240.062 9.28613Z" fill="black"/>
</g>
<path d="M255.857 30.8V3.2H266.187C268.527 3.2 270.538 3.58114 272.22 4.34343C273.902 5.07943 275.19 6.15714 276.084 7.57657C277.004 8.96971 277.464 10.6651 277.464 12.6629C277.464 14.608 277.004 16.2903 276.084 17.7097C275.19 19.1029 273.902 20.1806 272.22 20.9429C270.538 21.7051 268.527 22.0863 266.187 22.0863H257.474L258.775 20.7063V30.8H255.857ZM258.775 20.9429L257.474 19.5234H266.108C268.868 19.5234 270.958 18.932 272.378 17.7491C273.823 16.54 274.546 14.8446 274.546 12.6629C274.546 10.4549 273.823 8.74628 272.378 7.53714C270.958 6.328 268.868 5.72343 266.108 5.72343H257.474L258.775 4.34343V20.9429Z" fill="black"/>
<path d="M284.561 30.8V3.2H294.892C297.231 3.2 299.242 3.58114 300.924 4.34343C302.606 5.07943 303.894 6.15714 304.788 7.57657C305.708 8.96971 306.168 10.6651 306.168 12.6629C306.168 14.608 305.708 16.2903 304.788 17.7097C303.894 19.1029 302.606 20.1806 300.924 20.9429C299.242 21.6789 297.231 22.0469 294.892 22.0469H286.178L287.479 20.7063V30.8H284.561ZM303.408 30.8L296.311 20.7851H299.465L306.602 30.8H303.408ZM287.479 20.9429L286.178 19.5629H294.813C297.573 19.5629 299.662 18.9583 301.082 17.7491C302.528 16.54 303.25 14.8446 303.25 12.6629C303.25 10.4549 302.528 8.74628 301.082 7.53714C299.662 6.328 297.573 5.72343 294.813 5.72343H286.178L287.479 4.34343V20.9429Z" fill="black"/>
<path d="M313.843 30.8V3.2H316.761V30.8H313.843Z" fill="black"/>
<path d="M334.068 30.8L321.845 3.2H324.999L336.434 29.1834H334.699L346.212 3.2H349.169L336.946 30.8H334.068Z" fill="black"/>
<path d="M348.7 30.8L361.317 3.2H364.196L376.813 30.8H373.737L362.145 4.89543H363.328L351.736 30.8H348.7ZM353.668 23.4269L354.536 21.0611H370.583L371.45 23.4269H353.668Z" fill="black"/>
<path d="M386.143 30.8V5.72343H376.444V3.2H398.76V5.72343H389.061V30.8H386.143Z" fill="black"/>
<path d="M406.812 15.5411H421.401V18.0251H406.812V15.5411ZM407.128 28.2766H423.727V30.8H404.21V3.2H423.136V5.72343H407.128V28.2766Z" fill="black"/>
<defs>
<clipPath id="clip0_115_151">
<rect width="230" height="28" fill="white" transform="translate(20.8569 3)"/>
</clipPath>
</defs>
</svg>
