<?xml version="1.0" encoding="UTF-8"?>
<!-- Generated by Pixelmator Pro 3.6.17 -->
<svg width="993" height="183" viewBox="0 0 993 183" xmlns="http://www.w3.org/2000/svg">
    <g id="Threema-Logo">
        <g id="Threema-Wortmarke">
            <path id="Path" fill="#ffffff" stroke="none" d="M 884.892944 46.214996 C 921.276001 46.214996 940.015991 64.59201 940.386963 91.15799 L 940.392944 91.964996 L 940.392944 178.215027 L 911.142944 178.215027 L 911.142944 164.965027 C 903.392944 175.715027 889.642944 182.465027 869.892944 182.465027 C 845.642944 182.465027 824.142944 171.965027 824.142944 145.965027 C 824.142944 116.76001 849.870972 106.421997 878.524048 101.124023 L 909.392944 95.465027 L 909.392944 92.464996 C 909.392944 79.964996 900.142944 72.964996 885.392944 72.964996 C 869.099976 72.964996 860.175049 79.899994 848.328003 91.145996 L 845.642944 93.715027 L 825.142944 74.964996 C 841.142944 55.964996 859.642944 46.214996 884.892944 46.214996 Z M 426.421021 46.214996 C 465.421021 46.214996 486.171021 70.714996 486.171021 109.965027 L 486.163025 111.315002 C 486.120972 114.90802 485.929016 119.473022 485.723999 122.088989 L 485.671021 122.715027 L 393.921021 122.715027 C 396.671021 141.215027 407.671021 154.715027 429.921021 154.715027 C 444.731018 154.715027 452.71698 149.841003 467.35498 137.685974 L 467.921021 137.215027 L 486.171021 157.215027 C 467.421021 176.215027 449.921021 182.215027 429.171021 182.215027 C 387.921021 182.215027 362.171021 155.715027 362.171021 114.965027 C 362.171021 75.464996 386.171021 46.214996 426.421021 46.214996 Z M 558.078979 46.214996 C 597.078979 46.214996 617.828979 70.714996 617.828979 109.965027 L 617.825989 110.81897 L 617.80603 112.307983 C 617.744019 115.721008 617.567017 119.723022 617.380981 122.101013 L 617.328979 122.715027 L 525.578979 122.715027 C 528.328979 141.215027 539.328979 154.715027 561.578979 154.715027 C 576.388977 154.715027 584.375 149.841003 599.013 137.685974 L 599.578979 137.215027 L 617.828979 157.215027 C 599.078979 176.215027 581.578979 182.215027 560.828979 182.215027 C 519.578979 182.215027 493.828979 155.715027 493.828979 114.965027 C 493.828979 75.464996 517.828979 46.214996 558.078979 46.214996 Z M 770.485962 46.214996 C 797.71106 46.214996 812.685059 62.631989 812.980957 88.187988 L 812.985962 88.964996 L 812.985962 178.215027 L 780.485962 178.215027 L 780.485962 98.715027 C 780.485962 84.464996 774.985962 74.214996 760.235962 74.214996 C 745.633057 74.214996 737.891968 84.996002 737.738037 99.281006 L 737.735962 99.715027 L 737.735962 178.215027 L 705.235962 178.215027 L 705.235962 98.715027 C 705.235962 84.464996 699.985962 74.214996 684.985962 74.214996 C 670.383057 74.214996 662.641968 85.240997 662.488037 99.288025 L 662.485962 99.715027 L 662.485962 178.215027 L 629.986023 178.215027 L 629.986023 50.464996 L 660.235962 50.464996 L 660.235962 64.714996 C 666.985962 53.714996 678.735962 46.214996 696.735962 46.214996 C 713.485962 46.214996 725.485962 53.214996 732.235962 64.964996 C 739.735962 54.214996 751.735962 46.214996 770.485962 46.214996 Z M 142.950012 0.714996 L 142.950012 30.714996 L 89.450012 30.714996 L 89.450012 178.215027 L 54.450012 178.215027 L 54.450012 30.714996 L 0.950012 30.714996 L 0.950012 0.714996 L 142.950012 0.714996 Z M 185.856995 0.714996 L 185.856995 61.964996 C 193.856995 52.214996 206.106995 46.214996 222.106995 46.214996 C 251.559998 46.214996 267.536011 64.346985 267.85199 89.937012 L 267.856995 90.714996 L 267.856995 178.215027 L 235.356995 178.215027 L 235.356995 100.465027 C 235.356995 83.714996 227.106995 74.214996 211.606995 74.214996 C 196.757019 74.214996 186.072021 84.996002 185.859985 100.737 L 185.856995 101.216003 L 185.856995 178.216003 L 153.356995 178.216003 L 153.356995 0.716003 L 185.856995 0.716003 Z M 345.013977 48.714996 C 351.763977 48.714996 357.583984 50.109985 364.492004 52.22699 L 365.263977 52.464996 L 359.513977 80.964996 C 352.763977 79.214996 347.513977 78.464996 343.263977 78.464996 C 326.185974 78.464996 315.47998 91.94101 315.267029 114.528015 L 315.263977 115.215027 L 315.263977 178.215027 L 282.763977 178.215027 L 282.763977 50.464996 L 313.013977 50.464996 L 313.013977 69.214996 C 319.013977 56.964996 329.263977 48.714996 345.013977 48.714996 Z M 992.050049 141.965027 L 992.050049 178.215027 L 956.550049 178.215027 L 956.550049 141.965027 L 992.050049 141.965027 Z M 909.392944 118.715027 L 886.745972 123.455994 L 885.636963 123.692993 C 867.652954 127.583008 855.892944 132.190002 855.892944 143.715027 C 855.892944 151.715027 863.142944 156.465027 875.392944 156.465027 C 891.728027 156.465027 909.042969 148.624023 909.387939 126.877991 L 909.392944 126.215027 L 909.392944 118.715027 Z M 425.421021 71.714996 C 408.343018 71.714996 398.372009 82.740997 394.778015 98.971985 L 394.671021 99.465027 L 454.421021 99.465027 C 453.171021 82.464996 443.171021 71.714996 425.421021 71.714996 Z M 557.078979 71.714996 C 540.002014 71.714996 530.030029 82.740997 526.435974 98.971985 L 526.328979 99.465027 L 586.078979 99.465027 C 584.828979 82.464996 574.828979 71.714996 557.078979 71.714996 Z"/>
        </g>
    </g>
</svg>
