<svg fill="none" viewBox="0 0 32 32" xmlns="http://www.w3.org/2000/svg"><g clip-path="url(#s)"><g filter="url(#r)"><path d="m28.104 4.4447c-3.0465-3.0465-7.9859-3.0465-11.032 0l-4.0625 4.0625c-0.7033 0.7033-1.2443 1.5075-1.6228 2.3659 1.4072-0.6478 2.9677-0.8544 4.4727-0.6196l3.5107-3.5107c1.7773-1.7773 4.6589-1.7773 6.4362 0 1.7774 1.7773 1.7774 4.6589 1e-4 6.4363l-4.0626 4.0625c-1.7773 1.7773-4.6589 1.7773-6.4362 0-1.0336-1.0336-1.4661-2.4406-1.2976-3.7868-0.943 0.1334-1.8522 0.5627-2.5774 1.288l-0.5968 0.5968c0.2619 1.5381 0.9864 3.0128 2.1737 4.2001 3.0465 3.0465 7.9859 3.0465 11.032 0l4.0625-4.0625c3.0466-3.0466 3.0466-7.986 0-11.033z" fill="#C8BDCD"/></g><path d="m28.104 4.4447c-3.0465-3.0465-7.9859-3.0465-11.032 0l-4.0625 4.0625c-0.7033 0.7033-1.2443 1.5075-1.6228 2.3659 1.4072-0.6478 2.9677-0.8544 4.4727-0.6196l3.5107-3.5107c1.7773-1.7773 4.6589-1.7773 6.4362 0 1.7774 1.7773 1.7774 4.6589 1e-4 6.4363l-4.0626 4.0625c-1.7773 1.7773-4.6589 1.7773-6.4362 0-1.0336-1.0336-1.4661-2.4406-1.2976-3.7868-0.943 0.1334-1.8522 0.5627-2.5774 1.288l-0.5968 0.5968c0.2619 1.5381 0.9864 3.0128 2.1737 4.2001 3.0465 3.0465 7.9859 3.0465 11.032 0l4.0625-4.0625c3.0466-3.0466 3.0466-7.986 0-11.033z" fill="url(#n)"/><path d="m28.104 4.4447c-3.0465-3.0465-7.9859-3.0465-11.032 0l-4.0625 4.0625c-0.7033 0.7033-1.2443 1.5075-1.6228 2.3659 1.4072-0.6478 2.9677-0.8544 4.4727-0.6196l3.5107-3.5107c1.7773-1.7773 4.6589-1.7773 6.4362 0 1.7774 1.7773 1.7774 4.6589 1e-4 6.4363l-4.0626 4.0625c-1.7773 1.7773-4.6589 1.7773-6.4362 0-1.0336-1.0336-1.4661-2.4406-1.2976-3.7868-0.943 0.1334-1.8522 0.5627-2.5774 1.288l-0.5968 0.5968c0.2619 1.5381 0.9864 3.0128 2.1737 4.2001 3.0465 3.0465 7.9859 3.0465 11.032 0l4.0625-4.0625c3.0466-3.0466 3.0466-7.986 0-11.033z" fill="url(#i)"/><path d="m28.104 4.4447c-3.0465-3.0465-7.9859-3.0465-11.032 0l-4.0625 4.0625c-0.7033 0.7033-1.2443 1.5075-1.6228 2.3659 1.4072-0.6478 2.9677-0.8544 4.4727-0.6196l3.5107-3.5107c1.7773-1.7773 4.6589-1.7773 6.4362 0 1.7774 1.7773 1.7774 4.6589 1e-4 6.4363l-4.0626 4.0625c-1.7773 1.7773-4.6589 1.7773-6.4362 0-1.0336-1.0336-1.4661-2.4406-1.2976-3.7868-0.943 0.1334-1.8522 0.5627-2.5774 1.288l-0.5968 0.5968c0.2619 1.5381 0.9864 3.0128 2.1737 4.2001 3.0465 3.0465 7.9859 3.0465 11.032 0l4.0625-4.0625c3.0466-3.0466 3.0466-7.986 0-11.033z" fill="url(#h)"/><path d="m28.104 4.4447c-3.0465-3.0465-7.9859-3.0465-11.032 0l-4.0625 4.0625c-0.7033 0.7033-1.2443 1.5075-1.6228 2.3659 1.4072-0.6478 2.9677-0.8544 4.4727-0.6196l3.5107-3.5107c1.7773-1.7773 4.6589-1.7773 6.4362 0 1.7774 1.7773 1.7774 4.6589 1e-4 6.4363l-4.0626 4.0625c-1.7773 1.7773-4.6589 1.7773-6.4362 0-1.0336-1.0336-1.4661-2.4406-1.2976-3.7868-0.943 0.1334-1.8522 0.5627-2.5774 1.288l-0.5968 0.5968c0.2619 1.5381 0.9864 3.0128 2.1737 4.2001 3.0465 3.0465 7.9859 3.0465 11.032 0l4.0625-4.0625c3.0466-3.0466 3.0466-7.986 0-11.033z" fill="url(#g)"/><path d="m28.104 4.4447c-3.0465-3.0465-7.9859-3.0465-11.032 0l-4.0625 4.0625c-0.7033 0.7033-1.2443 1.5075-1.6228 2.3659 1.4072-0.6478 2.9677-0.8544 4.4727-0.6196l3.5107-3.5107c1.7773-1.7773 4.6589-1.7773 6.4362 0 1.7774 1.7773 1.7774 4.6589 1e-4 6.4363l-4.0626 4.0625c-1.7773 1.7773-4.6589 1.7773-6.4362 0-1.0336-1.0336-1.4661-2.4406-1.2976-3.7868-0.943 0.1334-1.8522 0.5627-2.5774 1.288l-0.5968 0.5968c0.2619 1.5381 0.9864 3.0128 2.1737 4.2001 3.0465 3.0465 7.9859 3.0465 11.032 0l4.0625-4.0625c3.0466-3.0466 3.0466-7.986 0-11.033z" fill="url(#f)"/><g filter="url(#q)" stroke-width="1.25"><rect transform="rotate(45 23.026 .84341)" x="23.026" y=".84341" width="12.691" height="18.639" rx="6.3454" stroke="url(#e)"/><rect transform="rotate(45 23.026 .84341)" x="23.026" y=".84341" width="12.691" height="18.639" rx="6.3454" stroke="url(#d)"/></g><g filter="url(#p)"><path d="m15.859 10.253c1.5768 0.246 3.0927 0.9764 4.3075 2.1913 1.1873 1.1872 1.9118 2.6619 2.1737 4.2001l-0.5968 0.5968c-0.7253 0.7253-1.6344 1.1546-2.5774 1.2879 0.1685-1.3461-0.264-2.7531-1.2976-3.7867-1.052-1.0521-2.491-1.4814-3.8588-1.288-0.8251 0.1167-1.6243 0.46-2.2971 1.0299-0.0962 0.0814-0.1897 0.1674-0.2804 0.2581l-4.0624 4.0625c-1.7773 1.7773-1.7773 4.6589 0 6.4363 1.7773 1.7773 4.659 1.7773 6.4362 0l3.5107-3.5107c1.505 0.2348 3.0655 0.0282 4.4727-0.6197-0.3785 0.8585-0.9195 1.6627-1.6228 2.366l-4.0625 4.0625c-3.0465 3.0465-7.9859 3.0465-11.032 0-3.0465-3.0466-3.0465-7.986-1e-5 -11.032l4.0625-4.0625c0.67214-0.6722 1.4364-1.196 2.2521-1.5716 1.4073-0.6478 2.9678-0.8544 4.4728-0.6197z" fill="#C8BDCD"/></g><path d="m15.859 10.253c1.5768 0.246 3.0927 0.9764 4.3075 2.1913 1.1873 1.1872 1.9118 2.6619 2.1737 4.2001l-0.5968 0.5968c-0.7253 0.7253-1.6344 1.1546-2.5774 1.2879 0.1685-1.3461-0.264-2.7531-1.2976-3.7867-1.052-1.0521-2.491-1.4814-3.8588-1.288-0.8251 0.1167-1.6243 0.46-2.2971 1.0299-0.0962 0.0814-0.1897 0.1674-0.2804 0.2581l-4.0624 4.0625c-1.7773 1.7773-1.7773 4.6589 0 6.4363 1.7773 1.7773 4.659 1.7773 6.4362 0l3.5107-3.5107c1.505 0.2348 3.0655 0.0282 4.4727-0.6197-0.3785 0.8585-0.9195 1.6627-1.6228 2.366l-4.0625 4.0625c-3.0465 3.0465-7.9859 3.0465-11.032 0-3.0465-3.0466-3.0465-7.986-1e-5 -11.032l4.0625-4.0625c0.67214-0.6722 1.4364-1.196 2.2521-1.5716 1.4073-0.6478 2.9678-0.8544 4.4728-0.6197z" fill="url(#c)"/><path d="m15.859 10.253c1.5768 0.246 3.0927 0.9764 4.3075 2.1913 1.1873 1.1872 1.9118 2.6619 2.1737 4.2001l-0.5968 0.5968c-0.7253 0.7253-1.6344 1.1546-2.5774 1.2879 0.1685-1.3461-0.264-2.7531-1.2976-3.7867-1.052-1.0521-2.491-1.4814-3.8588-1.288-0.8251 0.1167-1.6243 0.46-2.2971 1.0299-0.0962 0.0814-0.1897 0.1674-0.2804 0.2581l-4.0624 4.0625c-1.7773 1.7773-1.7773 4.6589 0 6.4363 1.7773 1.7773 4.659 1.7773 6.4362 0l3.5107-3.5107c1.505 0.2348 3.0655 0.0282 4.4727-0.6197-0.3785 0.8585-0.9195 1.6627-1.6228 2.366l-4.0625 4.0625c-3.0465 3.0465-7.9859 3.0465-11.032 0-3.0465-3.0466-3.0465-7.986-1e-5 -11.032l4.0625-4.0625c0.67214-0.6722 1.4364-1.196 2.2521-1.5716 1.4073-0.6478 2.9678-0.8544 4.4728-0.6197z" fill="url(#b)"/><path d="m15.859 10.253c1.5768 0.246 3.0927 0.9764 4.3075 2.1913 1.1873 1.1872 1.9118 2.6619 2.1737 4.2001l-0.5968 0.5968c-0.7253 0.7253-1.6344 1.1546-2.5774 1.2879 0.1685-1.3461-0.264-2.7531-1.2976-3.7867-1.052-1.0521-2.491-1.4814-3.8588-1.288-0.8251 0.1167-1.6243 0.46-2.2971 1.0299-0.0962 0.0814-0.1897 0.1674-0.2804 0.2581l-4.0624 4.0625c-1.7773 1.7773-1.7773 4.6589 0 6.4363 1.7773 1.7773 4.659 1.7773 6.4362 0l3.5107-3.5107c1.505 0.2348 3.0655 0.0282 4.4727-0.6197-0.3785 0.8585-0.9195 1.6627-1.6228 2.366l-4.0625 4.0625c-3.0465 3.0465-7.9859 3.0465-11.032 0-3.0465-3.0466-3.0465-7.986-1e-5 -11.032l4.0625-4.0625c0.67214-0.6722 1.4364-1.196 2.2521-1.5716 1.4073-0.6478 2.9678-0.8544 4.4728-0.6197z" fill="url(#a)"/><path d="m15.859 10.253c1.5768 0.246 3.0927 0.9764 4.3075 2.1913 1.1873 1.1872 1.9118 2.6619 2.1737 4.2001l-0.5968 0.5968c-0.7253 0.7253-1.6344 1.1546-2.5774 1.2879 0.1685-1.3461-0.264-2.7531-1.2976-3.7867-1.052-1.0521-2.491-1.4814-3.8588-1.288-0.8251 0.1167-1.6243 0.46-2.2971 1.0299-0.0962 0.0814-0.1897 0.1674-0.2804 0.2581l-4.0624 4.0625c-1.7773 1.7773-1.7773 4.6589 0 6.4363 1.7773 1.7773 4.659 1.7773 6.4362 0l3.5107-3.5107c1.505 0.2348 3.0655 0.0282 4.4727-0.6197-0.3785 0.8585-0.9195 1.6627-1.6228 2.366l-4.0625 4.0625c-3.0465 3.0465-7.9859 3.0465-11.032 0-3.0465-3.0466-3.0465-7.986-1e-5 -11.032l4.0625-4.0625c0.67214-0.6722 1.4364-1.196 2.2521-1.5716 1.4073-0.6478 2.9678-0.8544 4.4728-0.6197z" fill="url(#m)"/><path d="m15.859 10.253c1.5768 0.246 3.0927 0.9764 4.3075 2.1913 1.1873 1.1872 1.9118 2.6619 2.1737 4.2001l-0.5968 0.5968c-0.7253 0.7253-1.6344 1.1546-2.5774 1.2879 0.1685-1.3461-0.264-2.7531-1.2976-3.7867-1.052-1.0521-2.491-1.4814-3.8588-1.288-0.8251 0.1167-1.6243 0.46-2.2971 1.0299-0.0962 0.0814-0.1897 0.1674-0.2804 0.2581l-4.0624 4.0625c-1.7773 1.7773-1.7773 4.6589 0 6.4363 1.7773 1.7773 4.659 1.7773 6.4362 0l3.5107-3.5107c1.505 0.2348 3.0655 0.0282 4.4727-0.6197-0.3785 0.8585-0.9195 1.6627-1.6228 2.366l-4.0625 4.0625c-3.0465 3.0465-7.9859 3.0465-11.032 0-3.0465-3.0466-3.0465-7.986-1e-5 -11.032l4.0625-4.0625c0.67214-0.6722 1.4364-1.196 2.2521-1.5716 1.4073-0.6478 2.9678-0.8544 4.4728-0.6197z" fill="url(#l)"/><g filter="url(#o)" stroke-width="1.25"><rect transform="rotate(45 14.747 8.834)" x="14.747" y="8.834" width="12.691" height="17.864" rx="6.3454" stroke="url(#k)"/><rect transform="rotate(45 14.747 8.834)" x="14.747" y="8.834" width="12.691" height="17.864" rx="6.3454" stroke="url(#j)"/></g></g><defs><filter id="r" x="10.835" y="1.5098" width="20.204" height="20.315" color-interpolation-filters="sRGB" filterUnits="userSpaceOnUse"><feFlood flood-opacity="0" result="BackgroundImageFix"/><feBlend in="SourceGraphic" in2="BackgroundImageFix" result="shape"/><feColorMatrix in="SourceAlpha" result="hardAlpha" values="0 0 0 0 0 0 0 0 0 0 0 0 0 0 0 0 0 0 127 0"/><feOffset dx="0.65" dy="-0.65"/><feGaussianBlur stdDeviation="0.6"/><feComposite in2="hardAlpha" k2="-1" k3="1" operator="arithmetic"/><feColorMatrix values="0 0 0 0 0.65098 0 0 0 0 0.588235 0 0 0 0 0.701961 0 0 0 1 0"/><feBlend in2="shape" result="effect1_innerShadow_18_24636"/></filter><filter id="q" x="10.85" y="1.8468" width="20.147" height="20.147" color-interpolation-filters="sRGB" filterUnits="userSpaceOnUse"><feFlood flood-opacity="0" result="BackgroundImageFix"/><feBlend in="SourceGraphic" in2="BackgroundImageFix" result="shape"/><feGaussianBlur result="effect1_foregroundBlur_18_24636" stdDeviation="0.5"/></filter><filter id="p" x="2.7862" y="9.5098" width="20.204" height="20.315" color-interpolation-filters="sRGB" filterUnits="userSpaceOnUse"><feFlood flood-opacity="0" result="BackgroundImageFix"/><feBlend in="SourceGraphic" in2="BackgroundImageFix" result="shape"/><feColorMatrix in="SourceAlpha" result="hardAlpha" values="0 0 0 0 0 0 0 0 0 0 0 0 0 0 0 0 0 0 127 0"/><feOffset dx="0.65" dy="-0.65"/><feGaussianBlur stdDeviation="0.6"/><feComposite in2="hardAlpha" k2="-1" k3="1" operator="arithmetic"/><feColorMatrix values="0 0 0 0 0.65098 0 0 0 0 0.588235 0 0 0 0 0.701961 0 0 0 1 0"/><feBlend in2="shape" result="effect1_innerShadow_18_24636"/></filter><filter id="o" x="3.1193" y="9.8374" width="19.599" height="19.599" color-interpolation-filters="sRGB" filterUnits="userSpaceOnUse"><feFlood flood-opacity="0" result="BackgroundImageFix"/><feBlend in="SourceGraphic" in2="BackgroundImageFix" result="shape"/><feGaussianBlur result="effect1_foregroundBlur_18_24636" stdDeviation="0.5"/></filter><radialGradient id="n" cx="0" cy="0" r="1" gradientTransform="translate(19.321 9.167) rotate(89.324) scale(13.777 14.02)" gradientUnits="userSpaceOnUse"><stop stop-color="#A08FAF" stop-opacity="0" offset=".77359"/><stop stop-color="#8C72A5" offset=".96931"/></radialGradient><radialGradient id="i" cx="0" cy="0" r="1" gradientTransform="translate(14.566 10.792) rotate(-71.288) scale(2.6602 7.5311)" gradientUnits="userSpaceOnUse"><stop stop-color="#CDC4D3" offset="0"/><stop stop-color="#CDC4D3" stop-opacity="0" offset="1"/></radialGradient><linearGradient id="h" x1="12.25" x2="13.753" y1="8.3949" y2="9.9391" gradientUnits="userSpaceOnUse"><stop stop-color="#DED6E0" offset=".29877"/><stop stop-color="#DED6E0" stop-opacity="0" offset="1"/></linearGradient><radialGradient id="g" cx="0" cy="0" r="1" gradientTransform="translate(23.385 7.8666) rotate(-77.988) scale(3.9055 5.0438)" gradientUnits="userSpaceOnUse"><stop stop-color="#9378A9" offset="0"/><stop stop-color="#AB9FB5" stop-opacity="0" offset="1"/></radialGradient><radialGradient id="f" cx="0" cy="0" r="1" gradientTransform="translate(12.087 14.044) rotate(71.288) scale(2.6602 6.7749)" gradientUnits="userSpaceOnUse"><stop stop-color="#9789A3" offset=".16079"/><stop stop-color="#9789A3" stop-opacity="0" offset="1"/></radialGradient><linearGradient id="e" x1="34.798" x2="30.376" y1="-1.0868" y2="6.6894" gradientUnits="userSpaceOnUse"><stop stop-color="#F1E9F5" offset=".27241"/><stop stop-color="#F1E9F5" stop-opacity="0" offset="1"/></linearGradient><linearGradient id="d" x1="23.332" x2="27.87" y1="17.079" y2="14.58" gradientUnits="userSpaceOnUse"><stop stop-color="#C9BDD2" offset=".14306"/><stop stop-color="#F1E9F5" stop-opacity="0" offset="1"/><stop stop-color="#C9BDD2" stop-opacity="0" offset="1"/></linearGradient><radialGradient id="c" cx="0" cy="0" r="1" gradientTransform="translate(11.272 17.167) rotate(89.324) scale(13.777 14.02)" gradientUnits="userSpaceOnUse"><stop stop-color="#A08FAF" stop-opacity="0" offset=".77359"/><stop stop-color="#8C72A5" offset=".96931"/></radialGradient><radialGradient id="b" cx="0" cy="0" r="1" gradientTransform="translate(6.5174 18.792) rotate(-71.288) scale(2.6602 7.5311)" gradientUnits="userSpaceOnUse"><stop stop-color="#CDC4D3" offset="0"/><stop stop-color="#CDC4D3" stop-opacity="0" offset="1"/></radialGradient><linearGradient id="a" x1="4.201" x2="5.7047" y1="16.395" y2="17.939" gradientUnits="userSpaceOnUse"><stop stop-color="#DED6E0" offset="0"/><stop stop-color="#DED6E0" stop-opacity="0" offset="1"/></linearGradient><radialGradient id="m" cx="0" cy="0" r="1" gradientTransform="translate(15.336 15.867) rotate(-77.988) scale(3.9055 5.0438)" gradientUnits="userSpaceOnUse"><stop stop-color="#9378A9" offset=".3733"/><stop stop-color="#AB9FB5" stop-opacity="0" offset="1"/></radialGradient><radialGradient id="l" cx="0" cy="0" r="1" gradientTransform="translate(21.515 19.042) rotate(140.84) scale(6.2104 3.6158)" gradientUnits="userSpaceOnUse"><stop stop-color="#92889C" offset=".24885"/><stop stop-color="#92889C" stop-opacity="0" offset="1"/></radialGradient><linearGradient id="k" x1="18.676" x2="21.719" y1="7.2468" y2="14.473" gradientUnits="userSpaceOnUse"><stop stop-color="#F1E9F5" offset="0"/><stop stop-color="#F1E9F5" stop-opacity="0" offset="1"/></linearGradient><linearGradient id="j" x1="21.924" x2="19.812" y1="26.752" y2="21.97" gradientUnits="userSpaceOnUse"><stop stop-color="#E3D8EA" offset=".14306"/><stop stop-color="#F1E9F5" stop-opacity="0" offset="1"/><stop stop-color="#E3D8EA" stop-opacity="0" offset="1"/></linearGradient><clipPath id="s"><rect width="32" height="32" fill="#fff"/></clipPath></defs></svg>
