<svg fill="none" viewBox="0 0 32 32" xmlns="http://www.w3.org/2000/svg"><g filter="url(#ab)"><path d="m5.5584 4.8c0-1.5464 1.2536-2.8 2.8-2.8h14.306c1.5464 0 2.8 1.2536 2.8 2.8v17.392c0 1.5464-1.2536 2.8-2.8 2.8h-14.306c-1.5464 0-2.8-1.2536-2.8-2.8v-17.392z" fill="url(#s)"/></g><g filter="url(#aa)"><path d="m9.0272 5.1022c0-0.21329 0.17291-0.38621 0.38621-0.38621h12.243c0.2133 0 0.3862 0.17292 0.3862 0.38621 0 0.2133-0.1729 0.38622-0.3862 0.38622h-12.243c-0.2133 0-0.38621-0.17292-0.38621-0.38622z" fill="url(#i)"/></g><path d="m9.0272 5.1022c0-0.21329 0.17291-0.38621 0.38621-0.38621h12.243c0.2133 0 0.3862 0.17292 0.3862 0.38621 0 0.2133-0.1729 0.38622-0.3862 0.38622h-12.243c-0.2133 0-0.38621-0.17292-0.38621-0.38622z" fill="url(#h)"/><g filter="url(#z)"><rect x="9.0272" y="13.595" width="13.015" height="7.8737" rx="1" fill="#C13965"/><rect x="9.0272" y="13.595" width="13.015" height="7.8737" rx="1" fill="url(#g)"/></g><g filter="url(#y)"><path d="m11.691 9.875h5.6404c0.3932 0 0.6801 0.372 0.5803 0.7523l-1.5034 5.7278c-0.0692 0.2638-0.3076 0.4477-0.5803 0.4477h-5.7179c-0.39638 0-0.68383-0.3776-0.57837-0.7597l1.5809-5.7277c0.0718-0.2602 0.3085-0.4404 0.5784-0.4404z" fill="url(#f)"/></g><g filter="url(#x)"><rect x="9.0272" y="6.9503" width="13.015" height="4.0028" rx="2.0014" fill="#3B2A4C"/></g><rect x="12.433" y="24.992" width="6.2113" height="4.8828" fill="url(#e)"/><rect x="12.433" y="24.992" width="6.2113" height="4.8828" fill="url(#d)"/><rect x="12.433" y="24.992" width="6.2113" height="4.8828" fill="url(#c)"/><g filter="url(#w)"><path d="m23.308 3.358c0.3198 0.07614 0.9593 0.47509 0.9593 1.4618v17.404" stroke="url(#b)" stroke-linecap="round"/></g><g filter="url(#v)"><path d="m13.344 6.9503h5.8203l-1.4922 4.5235h-4.3281v-4.5235z" fill="#D4CCD8"/><path d="m13.344 6.9503h5.8203l-1.4922 4.5235h-4.3281v-4.5235z" fill="url(#a)"/></g><path d="m17.352 16.232h-6.4141c0.3-1.2867 2.9063-4.2237 4.1719-5.5313l2.2422 5.5313z" fill="#D9CFE2"/><path d="m17.352 16.232h-6.4141c0.3-1.2867 2.9063-4.2237 4.1719-5.5313l2.2422 5.5313z" fill="url(#r)"/><path d="m17.352 16.232h-6.4141c0.3-1.2867 2.9063-4.2237 4.1719-5.5313l2.2422 5.5313z" fill="url(#q)"/><g filter="url(#u)"><path d="m15.062 10.728c0.9625-1.1566 3.2656-3.4965 3.75-3.7778h1.3516l-2.0201 8.6783c-0.0843 0.3622-0.4072 0.6186-0.7792 0.6186h-0.2086c-0.414-1.3215-1.6445-4.1043-2.1757-5.2703l0.082-0.2488z" fill="#DAD3E1"/><path d="m15.062 10.728c0.9625-1.1566 3.2656-3.4965 3.75-3.7778h1.3516l-2.0201 8.6783c-0.0843 0.3622-0.4072 0.6186-0.7792 0.6186h-0.2086c-0.414-1.3215-1.6445-4.1043-2.1757-5.2703l0.082-0.2488z" fill="url(#p)"/><path d="m15.062 10.728c0.9625-1.1566 3.2656-3.4965 3.75-3.7778h1.3516l-2.0201 8.6783c-0.0843 0.3622-0.4072 0.6186-0.7792 0.6186h-0.2086c-0.414-1.3215-1.6445-4.1043-2.1757-5.2703l0.082-0.2488z" fill="url(#o)"/></g><path d="m15.062 10.728c0.9625-1.1566 3.2656-3.4965 3.75-3.7778h1.3516l-2.0201 8.6783c-0.0843 0.3622-0.4072 0.6186-0.7792 0.6186h-0.2086c-0.414-1.3215-1.6445-4.1043-2.1757-5.2703l0.082-0.2488z" fill="url(#n)"/><path d="m15.062 10.728c0.9625-1.1566 3.2656-3.4965 3.75-3.7778h1.3516l-2.0201 8.6783c-0.0843 0.3622-0.4072 0.6186-0.7792 0.6186h-0.2086c-0.414-1.3215-1.6445-4.1043-2.1757-5.2703l0.082-0.2488z" fill="url(#m)"/><g filter="url(#t)"><path d="m10.395 15.617 2.0426-8.6666h1.3203l1.8017 3.708c0.0148 0.0306 0.0226 0.0642 0.0226 0.0981 0 0.0591-0.0216 0.114-0.0628 0.1563-0.4368 0.4477-3.0422 3.1494-4.3366 5.201-0.0464 0.0735-0.1263 0.1179-0.2132 0.1179h-0.0879c-0.3225 0-0.5607-0.3008-0.4867-0.6147z" fill="#D5CEDC"/><path d="m10.395 15.617 2.0426-8.6666h1.3203l1.8017 3.708c0.0148 0.0306 0.0226 0.0642 0.0226 0.0981 0 0.0591-0.0216 0.114-0.0628 0.1563-0.4368 0.4477-3.0422 3.1494-4.3366 5.201-0.0464 0.0735-0.1263 0.1179-0.2132 0.1179h-0.0879c-0.3225 0-0.5607-0.3008-0.4867-0.6147z" fill="url(#l)"/><path d="m10.395 15.617 2.0426-8.6666h1.3203l1.8017 3.708c0.0148 0.0306 0.0226 0.0642 0.0226 0.0981 0 0.0591-0.0216 0.114-0.0628 0.1563-0.4368 0.4477-3.0422 3.1494-4.3366 5.201-0.0464 0.0735-0.1263 0.1179-0.2132 0.1179h-0.0879c-0.3225 0-0.5607-0.3008-0.4867-0.6147z" fill="url(#k)"/><path d="m10.395 15.617 2.0426-8.6666h1.3203l1.8017 3.708c0.0148 0.0306 0.0226 0.0642 0.0226 0.0981 0 0.0591-0.0216 0.114-0.0628 0.1563-0.4368 0.4477-3.0422 3.1494-4.3366 5.201-0.0464 0.0735-0.1263 0.1179-0.2132 0.1179h-0.0879c-0.3225 0-0.5607-0.3008-0.4867-0.6147z" fill="url(#j)"/></g><defs><filter id="ab" x="5.5584" y="1" width="20.906" height="24.992" color-interpolation-filters="sRGB" filterUnits="userSpaceOnUse"><feFlood flood-opacity="0" result="BackgroundImageFix"/><feBlend in="SourceGraphic" in2="BackgroundImageFix" result="shape"/><feColorMatrix in="SourceAlpha" result="hardAlpha" values="0 0 0 0 0 0 0 0 0 0 0 0 0 0 0 0 0 0 127 0"/><feOffset dx="1"/><feGaussianBlur stdDeviation="0.75"/><feComposite in2="hardAlpha" k2="-1" k3="1" operator="arithmetic"/><feColorMatrix values="0 0 0 0 0.764706 0 0 0 0 0.196078 0 0 0 0 0.321569 0 0 0 1 0"/><feBlend in2="shape" result="effect1_innerShadow_18_22169"/><feColorMatrix in="SourceAlpha" result="hardAlpha" values="0 0 0 0 0 0 0 0 0 0 0 0 0 0 0 0 0 0 127 0"/><feOffset dy="1"/><feGaussianBlur stdDeviation="0.75"/><feComposite in2="hardAlpha" k2="-1" k3="1" operator="arithmetic"/><feColorMatrix values="0 0 0 0 0.972549 0 0 0 0 0.219608 0 0 0 0 0.545098 0 0 0 1 0"/><feBlend in2="effect1_innerShadow_18_22169" result="effect2_innerShadow_18_22169"/><feColorMatrix in="SourceAlpha" result="hardAlpha" values="0 0 0 0 0 0 0 0 0 0 0 0 0 0 0 0 0 0 127 0"/><feOffset dy="-1"/><feGaussianBlur stdDeviation="0.75"/><feComposite in2="hardAlpha" k2="-1" k3="1" operator="arithmetic"/><feColorMatrix values="0 0 0 0 0.913725 0 0 0 0 0.160784 0 0 0 0 0.368627 0 0 0 1 0"/><feBlend in2="effect2_innerShadow_18_22169" result="effect3_innerShadow_18_22169"/></filter><filter id="aa" x="8.9272" y="4.6159" width="13.215" height=".97246" color-interpolation-filters="sRGB" filterUnits="userSpaceOnUse"><feFlood flood-opacity="0" result="BackgroundImageFix"/><feBlend in="SourceGraphic" in2="BackgroundImageFix" result="shape"/><feColorMatrix in="SourceAlpha" result="hardAlpha" values="0 0 0 0 0 0 0 0 0 0 0 0 0 0 0 0 0 0 127 0"/><feOffset dx="0.1" dy="-0.1"/><feGaussianBlur stdDeviation="0.075"/><feComposite in2="hardAlpha" k2="-1" k3="1" operator="arithmetic"/><feColorMatrix values="0 0 0 0 0.701961 0 0 0 0 0.109804 0 0 0 0 0.254902 0 0 0 1 0"/><feBlend in2="shape" result="effect1_innerShadow_18_22169"/><feColorMatrix in="SourceAlpha" result="hardAlpha" values="0 0 0 0 0 0 0 0 0 0 0 0 0 0 0 0 0 0 127 0"/><feOffset dx="-0.1" dy="0.1"/><feGaussianBlur stdDeviation="0.075"/><feComposite in2="hardAlpha" k2="-1" k3="1" operator="arithmetic"/><feColorMatrix values="0 0 0 0 0.701961 0 0 0 0 0.109804 0 0 0 0 0.254902 0 0 0 1 0"/><feBlend in2="effect1_innerShadow_18_22169" result="effect2_innerShadow_18_22169"/></filter><filter id="z" x="8.8272" y="13.395" width="13.415" height="8.2737" color-interpolation-filters="sRGB" filterUnits="userSpaceOnUse"><feFlood flood-opacity="0" result="BackgroundImageFix"/><feBlend in="SourceGraphic" in2="BackgroundImageFix" result="shape"/><feColorMatrix in="SourceAlpha" result="hardAlpha" values="0 0 0 0 0 0 0 0 0 0 0 0 0 0 0 0 0 0 127 0"/><feOffset dx="0.2" dy="0.2"/><feGaussianBlur stdDeviation="0.15"/><feComposite in2="hardAlpha" k2="-1" k3="1" operator="arithmetic"/><feColorMatrix values="0 0 0 0 0.556863 0 0 0 0 0.109804 0 0 0 0 0.211765 0 0 0 1 0"/><feBlend in2="shape" result="effect1_innerShadow_18_22169"/><feColorMatrix in="SourceAlpha" result="hardAlpha" values="0 0 0 0 0 0 0 0 0 0 0 0 0 0 0 0 0 0 127 0"/><feOffset dy="-0.2"/><feGaussianBlur stdDeviation="0.15"/><feComposite in2="hardAlpha" k2="-1" k3="1" operator="arithmetic"/><feColorMatrix values="0 0 0 0 0.729412 0 0 0 0 0.0941176 0 0 0 0 0.364706 0 0 0 1 0"/><feBlend in2="effect1_innerShadow_18_22169" result="effect2_innerShadow_18_22169"/><feColorMatrix in="SourceAlpha" result="hardAlpha" values="0 0 0 0 0 0 0 0 0 0 0 0 0 0 0 0 0 0 127 0"/><feOffset dx="-0.2"/><feGaussianBlur stdDeviation="0.15"/><feComposite in2="hardAlpha" k2="-1" k3="1" operator="arithmetic"/><feColorMatrix values="0 0 0 0 0.811765 0 0 0 0 0.317647 0 0 0 0 0.435294 0 0 0 1 0"/><feBlend in2="effect2_innerShadow_18_22169" result="effect3_innerShadow_18_22169"/></filter><filter id="y" x="8.01" y="8.375" width="11.422" height="9.9277" color-interpolation-filters="sRGB" filterUnits="userSpaceOnUse"><feFlood flood-opacity="0" result="BackgroundImageFix"/><feBlend in="SourceGraphic" in2="BackgroundImageFix" result="shape"/><feGaussianBlur result="effect1_foregroundBlur_18_22169" stdDeviation="0.75"/></filter><filter id="x" x="8.0272" y="6.9503" width="14.015" height="5.0028" color-interpolation-filters="sRGB" filterUnits="userSpaceOnUse"><feFlood flood-opacity="0" result="BackgroundImageFix"/><feBlend in="SourceGraphic" in2="BackgroundImageFix" result="shape"/><feColorMatrix in="SourceAlpha" result="hardAlpha" values="0 0 0 0 0 0 0 0 0 0 0 0 0 0 0 0 0 0 127 0"/><feOffset dx="-1" dy="1"/><feGaussianBlur stdDeviation="0.75"/><feComposite in2="hardAlpha" k2="-1" k3="1" operator="arithmetic"/><feColorMatrix values="0 0 0 0 0.12549 0 0 0 0 0.0627451 0 0 0 0 0.196078 0 0 0 1 0"/><feBlend in2="shape" result="effect1_innerShadow_18_22169"/></filter><filter id="w" x="21.558" y="1.6079" width="4.4595" height="22.366" color-interpolation-filters="sRGB" filterUnits="userSpaceOnUse"><feFlood flood-opacity="0" result="BackgroundImageFix"/><feBlend in="SourceGraphic" in2="BackgroundImageFix" result="shape"/><feGaussianBlur result="effect1_foregroundBlur_18_22169" stdDeviation="0.625"/></filter><filter id="v" x="12.344" y="6.9503" width="6.8203" height="4.7734" color-interpolation-filters="sRGB" filterUnits="userSpaceOnUse"><feFlood flood-opacity="0" result="BackgroundImageFix"/><feBlend in="SourceGraphic" in2="BackgroundImageFix" result="shape"/><feColorMatrix in="SourceAlpha" result="hardAlpha" values="0 0 0 0 0 0 0 0 0 0 0 0 0 0 0 0 0 0 127 0"/><feOffset dx="-1" dy="0.25"/><feGaussianBlur stdDeviation="0.5"/><feComposite in2="hardAlpha" k2="-1" k3="1" operator="arithmetic"/><feColorMatrix values="0 0 0 0 0.596078 0 0 0 0 0.54902 0 0 0 0 0.639216 0 0 0 1 0"/><feBlend in2="shape" result="effect1_innerShadow_18_22169"/></filter><filter id="u" x="14.98" y="6.8503" width="5.2836" height="9.3969" color-interpolation-filters="sRGB" filterUnits="userSpaceOnUse"><feFlood flood-opacity="0" result="BackgroundImageFix"/><feBlend in="SourceGraphic" in2="BackgroundImageFix" result="shape"/><feColorMatrix in="SourceAlpha" result="hardAlpha" values="0 0 0 0 0 0 0 0 0 0 0 0 0 0 0 0 0 0 127 0"/><feOffset dx="0.1" dy="-0.1"/><feGaussianBlur stdDeviation="0.15"/><feComposite in2="hardAlpha" k2="-1" k3="1" operator="arithmetic"/><feColorMatrix values="0 0 0 0 0.788235 0 0 0 0 0.741176 0 0 0 0 0.835294 0 0 0 1 0"/><feBlend in2="shape" result="effect1_innerShadow_18_22169"/></filter><filter id="t" x="10.381" y="6.8503" width="5.2007" height="9.3812" color-interpolation-filters="sRGB" filterUnits="userSpaceOnUse"><feFlood flood-opacity="0" result="BackgroundImageFix"/><feBlend in="SourceGraphic" in2="BackgroundImageFix" result="shape"/><feColorMatrix in="SourceAlpha" result="hardAlpha" values="0 0 0 0 0 0 0 0 0 0 0 0 0 0 0 0 0 0 127 0"/><feOffset dy="-0.1"/><feGaussianBlur stdDeviation="0.075"/><feComposite in2="hardAlpha" k2="-1" k3="1" operator="arithmetic"/><feColorMatrix values="0 0 0 0 0.709804 0 0 0 0 0.584314 0 0 0 0 0.819608 0 0 0 1 0"/><feBlend in2="shape" result="effect1_innerShadow_18_22169"/></filter><linearGradient id="s" x1="15.512" x2="15.512" y1="2" y2="24.992" gradientUnits="userSpaceOnUse"><stop stop-color="#E93D8F" offset="0"/><stop stop-color="#FE3F5E" offset="1"/></linearGradient><linearGradient id="i" x1="9.0272" x2="22.203" y1="5.1022" y2="5.1022" gradientUnits="userSpaceOnUse"><stop stop-color="#BA3961" offset="0"/><stop stop-color="#BD3961" offset="1"/></linearGradient><radialGradient id="h" cx="0" cy="0" r="1" gradientTransform="translate(21.961 4.7912) rotate(149.3) scale(.42501 .37653)" gradientUnits="userSpaceOnUse"><stop stop-color="#C8506D" offset="0"/><stop stop-color="#C8506D" stop-opacity="0" offset="1"/></radialGradient><linearGradient id="g" x1="9.6042" x2="11.294" y1="13.157" y2="17.702" gradientUnits="userSpaceOnUse"><stop stop-color="#93224A" offset="0"/><stop stop-color="#93224A" stop-opacity="0" offset="1"/></linearGradient><linearGradient id="f" x1="12.828" x2="11.797" y1="11.281" y2="16.803" gradientUnits="userSpaceOnUse"><stop stop-color="#BF2657" offset="0"/><stop stop-color="#971C4A" offset="1"/></linearGradient><linearGradient id="e" x1="14.401" x2="17.279" y1="28.391" y2="28.391" gradientUnits="userSpaceOnUse"><stop stop-color="#B399C4" offset="0"/><stop stop-color="#D8C5E7" offset="1"/></linearGradient><linearGradient id="d" x1="18.644" x2="17.37" y1="24.6" y2="27.204" gradientUnits="userSpaceOnUse"><stop stop-color="#9F799F" offset=".24095"/><stop stop-color="#C2A5CC" stop-opacity="0" offset="1"/></linearGradient><linearGradient id="c" x1="12.433" x2="14.858" y1="28.3" y2="28.3" gradientUnits="userSpaceOnUse"><stop stop-color="#916593" offset="0"/><stop stop-color="#AA8EBA" stop-opacity="0" offset="1"/></linearGradient><linearGradient id="b" x1="23.308" x2="23.308" y1="3.9062" y2="26.016" gradientUnits="userSpaceOnUse"><stop stop-color="#FF6A9F" offset="0"/><stop stop-color="#FF5769" offset="1"/></linearGradient><linearGradient id="a" x1="16.75" x2="16.254" y1="9.0441" y2="8.5909" gradientUnits="userSpaceOnUse"><stop stop-color="#CAC5CD" offset="0"/><stop stop-color="#CAC5CD" stop-opacity="0" offset="1"/></linearGradient><linearGradient id="r" x1="16.953" x2="16.344" y1="15.122" y2="15.357" gradientUnits="userSpaceOnUse"><stop stop-color="#BBAEC9" offset="0"/><stop stop-color="#CDC2D8" stop-opacity="0" offset="1"/></linearGradient><linearGradient id="q" x1="15.266" x2="15.266" y1="16.388" y2="14.982" gradientUnits="userSpaceOnUse"><stop stop-color="#B17FCC" offset="0"/><stop stop-color="#CBB1E5" stop-opacity="0" offset="1"/></linearGradient><linearGradient id="p" x1="18.844" x2="16.656" y1="13.122" y2="12.622" gradientUnits="userSpaceOnUse"><stop stop-color="#F3EAFA" offset=".081749"/><stop stop-color="#DED7E5" stop-opacity="0" offset="1"/></linearGradient><linearGradient id="o" x1="18.109" x2="18.109" y1="16.247" y2="15.247" gradientUnits="userSpaceOnUse"><stop stop-color="#B587CD" offset="0"/><stop stop-color="#DDCEEE" stop-opacity="0" offset="1"/></linearGradient><radialGradient id="n" cx="0" cy="0" r="1" gradientTransform="translate(16.391 12.778) rotate(-54.091) scale(6.98 10.326)" gradientUnits="userSpaceOnUse"><stop stop-color="#A49AB0" stop-opacity="0" offset=".83656"/><stop stop-color="#867994" offset="1"/></radialGradient><linearGradient id="m" x1="16.062" x2="16.25" y1="13.625" y2="13.547" gradientUnits="userSpaceOnUse"><stop stop-color="#AC9CBC" offset="0"/><stop stop-color="#AC9CBC" stop-opacity="0" offset="1"/></linearGradient><linearGradient id="l" x1="10.734" x2="12.406" y1="11.466" y2="11.903" gradientUnits="userSpaceOnUse"><stop stop-color="#A499A6" offset="0"/><stop stop-color="#BDB5C3" stop-opacity="0" offset="1"/></linearGradient><radialGradient id="k" cx="0" cy="0" r="1" gradientTransform="translate(13.062 13.771) rotate(219.92) scale(.49914 4.8799)" gradientUnits="userSpaceOnUse"><stop stop-color="#E2D7EE" offset=".23065"/><stop stop-color="#E2D7EE" stop-opacity="0" offset="1"/></radialGradient><linearGradient id="j" x1="15.156" x2="13.797" y1="9.5753" y2="10.044" gradientUnits="userSpaceOnUse"><stop stop-color="#DCD5DE" offset="0"/><stop stop-color="#DCD5DE" stop-opacity="0" offset="1"/></linearGradient></defs></svg>
