<svg fill="none" viewBox="0 0 32 32" xmlns="http://www.w3.org/2000/svg"><g filter="url(#f)"><path d="m18.247 3.3706c-0.9904-1.85-3.6617-1.85-4.6422 0l-6.273 11.8c-3.8418 6.58 0.95046 14.81 8.6141 14.81h0.2101c7.5537 0 12.266-8.1 8.4941-14.58l-6.4031-12.03z" fill="url(#d)"/></g><path d="m18.247 3.3706c-0.9904-1.85-3.6617-1.85-4.6422 0l-6.273 11.8c-3.8418 6.58 0.95046 14.81 8.6141 14.81h0.2101c7.5537 0 12.266-8.1 8.4941-14.58l-6.4031-12.03z" fill="url(#c)"/><path d="m18.247 3.3706c-0.9904-1.85-3.6617-1.85-4.6422 0l-6.273 11.8c-3.8418 6.58 0.95046 14.81 8.6141 14.81h0.2101c7.5537 0 12.266-8.1 8.4941-14.58l-6.4031-12.03z" fill="url(#b)"/><g filter="url(#e)"><path d="m23.46 14.917-6.6005-11.924v21.054l5.4505-3.956c1.6352-1.1868 2.1286-3.4068 1.15-5.1745z" fill="url(#a)"/></g><defs><filter id="f" x="5.978" y=".98315" width="22" height="28.998" color-interpolation-filters="sRGB" filterUnits="userSpaceOnUse"><feFlood flood-opacity="0" result="BackgroundImageFix"/><feBlend in="SourceGraphic" in2="BackgroundImageFix" result="shape"/><feColorMatrix in="SourceAlpha" result="hardAlpha" values="0 0 0 0 0 0 0 0 0 0 0 0 0 0 0 0 0 0 127 0"/><feOffset dx="2" dy="-1"/><feGaussianBlur stdDeviation="1.5"/><feComposite in2="hardAlpha" k2="-1" k3="1" operator="arithmetic"/><feColorMatrix values="0 0 0 0 0.423529 0 0 0 0 0.572549 0 0 0 0 0.729412 0 0 0 1 0"/><feBlend in2="shape" result="effect1_innerShadow_18_15832"/></filter><filter id="e" x="14.61" y=".74377" width="11.601" height="25.554" color-interpolation-filters="sRGB" filterUnits="userSpaceOnUse"><feFlood flood-opacity="0" result="BackgroundImageFix"/><feBlend in="SourceGraphic" in2="BackgroundImageFix" result="shape"/><feGaussianBlur result="effect1_foregroundBlur_18_15832" stdDeviation="1.125"/></filter><radialGradient id="d" cx="0" cy="0" r="1" gradientTransform="translate(21.911 5.6757) rotate(112.43) scale(28.822 18.082)" gradientUnits="userSpaceOnUse"><stop stop-color="#7ADEFF" offset="0"/><stop stop-color="#6CCEFF" offset=".47892"/><stop stop-color="#6E99FF" offset="1"/></radialGradient><radialGradient id="c" cx="0" cy="0" r="1" gradientTransform="translate(19.728 8.4732) rotate(109.96) scale(23.886 18.213)" gradientUnits="userSpaceOnUse"><stop stop-color="#7778FF" stop-opacity="0" offset=".57233"/><stop stop-color="#7778FF" offset="1"/></radialGradient><radialGradient id="b" cx="0" cy="0" r="1" gradientTransform="translate(23.699 18.818) rotate(137.2) scale(9.8691 11.874)" gradientUnits="userSpaceOnUse"><stop stop-color="#84C8FF" offset="0"/><stop stop-color="#84C8FF" stop-opacity="0" offset="1"/></radialGradient><linearGradient id="a" x1="21.732" x2="12.569" y1="9.3413" y2="13.946" gradientUnits="userSpaceOnUse"><stop stop-color="#8BEFFF" offset=".20973"/><stop stop-color="#8BEFFF" stop-opacity="0" offset="1"/></linearGradient></defs></svg>
