<svg fill="none" viewBox="0 0 32 32" xmlns="http://www.w3.org/2000/svg"><rect x="2" y="8" width="15" height="22" rx="7.5" fill="#D3D3D3"/><rect x="2" y="8" width="15" height="22" rx="7.5" fill="url(#p)"/><rect x="2" y="8" width="15" height="22" rx="7.5" fill="url(#i)"/><rect x="2" y="8" width="15" height="22" rx="7.5" fill="url(#h)"/><rect x="2" y="8" width="15" height="22" rx="7.5" fill="url(#g)"/><rect x="2" y="8" width="15" height="22" rx="7.5" fill="url(#f)"/><rect x="2" y="8" width="15" height="22" rx="7.5" fill="url(#e)"/><rect x="2" y="8" width="15" height="22" rx="7.5" fill="url(#d)"/><g filter="url(#q)"><rect x="14.638" y="12.679" width="1.7357" height="11.666" rx=".86784" fill="#6F6873"/></g><rect x="15" y="8" width="15" height="22" rx="7.5" fill="url(#c)"/><rect x="15" y="8" width="15" height="22" rx="7.5" fill="url(#b)"/><rect x="15" y="8" width="15" height="22" rx="7.5" fill="url(#a)"/><rect x="16" y="13" width="7" height="12" rx="3.5" fill="url(#o)"/><rect x="16" y="13" width="7" height="12" rx="3.5" fill="url(#n)"/><rect x="3.0625" y="13" width="7" height="12" rx="3.5" fill="url(#m)"/><rect x="3.0625" y="13" width="7" height="12" rx="3.5" fill="url(#l)"/><ellipse transform="rotate(-39.774 8.0276 16.007)" cx="8.0276" cy="16.007" rx=".87509" ry="1.1113" fill="url(#k)"/><ellipse transform="rotate(-39.774 21.024 16.007)" cx="21.024" cy="16.007" rx=".87509" ry="1.1113" fill="url(#j)"/><defs><filter id="q" x="13.438" y="11.479" width="4.1357" height="14.066" color-interpolation-filters="sRGB" filterUnits="userSpaceOnUse"><feFlood flood-opacity="0" result="BackgroundImageFix"/><feBlend in="SourceGraphic" in2="BackgroundImageFix" result="shape"/><feGaussianBlur result="effect1_foregroundBlur_20020_5140" stdDeviation="0.6"/></filter><radialGradient id="p" cx="0" cy="0" r="1" gradientTransform="translate(12.031 13.5) rotate(101.08) scale(21.144 16.351)" gradientUnits="userSpaceOnUse"><stop stop-color="#FAF7FC" offset="0"/><stop stop-color="#D8D0DD" offset=".45685"/><stop stop-color="#D0B3E3" offset=".70788"/><stop stop-color="#CFABE4" offset="1"/></radialGradient><linearGradient id="i" x1="-1.1562" x2="8.483" y1="20.625" y2="21.931" gradientUnits="userSpaceOnUse"><stop stop-color="#9B969E" offset=".39948"/><stop stop-color="#9A959E" stop-opacity="0" offset="1"/></linearGradient><radialGradient id="h" cx="0" cy="0" r="1" gradientTransform="translate(15.885 23.54) rotate(226.21) scale(20.063 21.716)" gradientUnits="userSpaceOnUse"><stop stop-color="#9A959E" stop-opacity="0" offset=".8443"/><stop stop-color="#949296" offset=".94859"/></radialGradient><radialGradient id="g" cx="0" cy="0" r="1" gradientTransform="translate(19.103 22.575) rotate(204.61) scale(8.584 20.872)" gradientUnits="userSpaceOnUse"><stop stop-color="#D1AFE5" offset=".021659"/><stop stop-color="#D1AFE5" stop-opacity="0" offset="1"/></radialGradient><radialGradient id="f" cx="0" cy="0" r="1" gradientTransform="translate(16.287 21.207) rotate(180) scale(5.5514 15.769)" gradientUnits="userSpaceOnUse"><stop stop-color="#ABA5B0" offset="0"/><stop stop-color="#ABA5B0" stop-opacity="0" offset="1"/></radialGradient><radialGradient id="e" cx="0" cy="0" r="1" gradientTransform="translate(18.781 23.46) rotate(222.85) scale(7.5717 20.862)" gradientUnits="userSpaceOnUse"><stop stop-color="#B689D0" offset="0"/><stop stop-color="#B689D0" stop-opacity="0" offset="1"/></radialGradient><radialGradient id="d" cx="0" cy="0" r="1" gradientTransform="translate(14.458 12.069) rotate(140.96) scale(3.5148 6.6857)" gradientUnits="userSpaceOnUse"><stop stop-color="#F3F2F4" offset="0"/><stop stop-color="#F3F2F4" stop-opacity="0" offset="1"/></radialGradient><radialGradient id="c" cx="0" cy="0" r="1" gradientTransform="translate(25.594 15) rotate(103.51) scale(19.798 15.31)" gradientUnits="userSpaceOnUse"><stop stop-color="#FAF7FC" offset="0"/><stop stop-color="#D8D0DD" offset=".45685"/><stop stop-color="#D0B3E3" offset=".70788"/><stop stop-color="#CFABE4" offset="1"/></radialGradient><linearGradient id="b" x1="11.844" x2="21.344" y1="20.625" y2="21.5" gradientUnits="userSpaceOnUse"><stop stop-color="#9B969E" offset=".21202"/><stop stop-color="#9A959E" stop-opacity="0" offset="1"/></linearGradient><radialGradient id="a" cx="0" cy="0" r="1" gradientTransform="translate(27.458 12.069) rotate(140.96) scale(3.5148 6.6857)" gradientUnits="userSpaceOnUse"><stop stop-color="#F3F2F4" offset="0"/><stop stop-color="#F3F2F4" stop-opacity="0" offset="1"/></radialGradient><linearGradient id="o" x1="19.5" x2="19.5" y1="13" y2="25" gradientUnits="userSpaceOnUse"><stop stop-color="#232224" offset=".35417"/><stop stop-color="#623C86" offset="1"/></linearGradient><radialGradient id="n" cx="0" cy="0" r="1" gradientTransform="translate(20.406 18.375) rotate(90) scale(6.625 2.1738)" gradientUnits="userSpaceOnUse"><stop stop-color="#443753" offset=".35417"/><stop stop-color="#433750" stop-opacity="0" offset="1"/></radialGradient><linearGradient id="m" x1="6.5625" x2="6.5625" y1="13" y2="25" gradientUnits="userSpaceOnUse"><stop stop-color="#232224" offset=".35417"/><stop stop-color="#623C86" offset="1"/></linearGradient><radialGradient id="l" cx="0" cy="0" r="1" gradientTransform="translate(7.4688 18.375) rotate(90) scale(6.625 2.1738)" gradientUnits="userSpaceOnUse"><stop stop-color="#443753" offset=".35417"/><stop stop-color="#433750" stop-opacity="0" offset="1"/></radialGradient><radialGradient id="k" cx="0" cy="0" r="1" gradientTransform="translate(8.0464 15.16) rotate(127.51) scale(2.3768 2.5014)" gradientUnits="userSpaceOnUse"><stop stop-color="#fff" offset="0"/><stop stop-color="#F4F4F4" stop-opacity="0" offset="1"/></radialGradient><radialGradient id="j" cx="0" cy="0" r="1" gradientTransform="translate(21.043 15.16) rotate(127.51) scale(2.3768 2.5014)" gradientUnits="userSpaceOnUse"><stop stop-color="#fff" offset="0"/><stop stop-color="#F4F4F4" stop-opacity="0" offset="1"/></radialGradient></defs></svg>
