<svg fill="none" viewBox="0 0 32 32" xmlns="http://www.w3.org/2000/svg"><path d="m29.547 16c0 7.732-6.268 14-14 14-7.732 0-14-6.268-14-14 0-7.732 6.268-14 14-14 7.732 0 14 6.268 14 14z" fill="url(#e)"/><path d="m29.547 16c0 7.732-6.268 14-14 14-7.732 0-14-6.268-14-14 0-7.732 6.268-14 14-14 7.732 0 14 6.268 14 14z" fill="url(#d)"/><path d="m29.547 16c0 7.732-6.268 14-14 14-7.732 0-14-6.268-14-14 0-7.732 6.268-14 14-14 7.732 0 14 6.268 14 14z" fill="url(#c)"/><path d="m29.547 16c0 7.732-6.268 14-14 14-7.732 0-14-6.268-14-14 0-7.732 6.268-14 14-14 7.732 0 14 6.268 14 14z" fill="url(#b)"/><path d="m29.547 16c0 7.732-6.268 14-14 14-7.732 0-14-6.268-14-14 0-7.732 6.268-14 14-14 7.732 0 14 6.268 14 14z" fill="url(#a)"/><defs><radialGradient id="e" cx="0" cy="0" r="1" gradientTransform="translate(23.727 8.75) rotate(130.17) scale(27.809)" gradientUnits="userSpaceOnUse"><stop stop-color="#645B70" offset="0"/><stop stop-color="#33293D" offset=".66175"/></radialGradient><linearGradient id="d" x1="15.547" x2="15.547" y1="2" y2="8.5" gradientUnits="userSpaceOnUse"><stop stop-color="#554A63" offset="0"/><stop stop-color="#554A63" stop-opacity="0" offset="1"/></linearGradient><radialGradient id="c" cx="0" cy="0" r="1" gradientTransform="translate(24.227 10.75) rotate(137.28) scale(12.898 11.91)" gradientUnits="userSpaceOnUse"><stop stop-color="#6A6571" offset=".11278"/><stop stop-color="#49474C" stop-opacity="0" offset="1"/></radialGradient><radialGradient id="b" cx="0" cy="0" r="1" gradientTransform="translate(20.039 16) rotate(180) scale(19.25 20)" gradientUnits="userSpaceOnUse"><stop stop-color="#434344" stop-opacity="0" offset=".62013"/><stop stop-color="#8C8B8D" offset=".9513"/></radialGradient><radialGradient id="a" cx="0" cy="0" r="1" gradientTransform="translate(15.547 9) rotate(90) scale(21.884 24.302)" gradientUnits="userSpaceOnUse"><stop stop-color="#352343" stop-opacity="0" offset=".853"/><stop stop-color="#50405F" offset="1"/></radialGradient></defs></svg>
