<svg fill="none" viewBox="0 0 32 32" xmlns="http://www.w3.org/2000/svg"><path d="m10.25 2h-6.03c0 3.27 2.65 5.92 5.92 5.92h6.03c0.01-3.26-2.65-5.92-5.92-5.92z" fill="url(#h)"/><g filter="url(#j)"><path d="m10.14 7.42c-2.8252 0-5.145-2.1606-5.3972-4.92h5.5072c2.826 0 5.1531 2.1698 5.3987 4.92h-5.5087z" fill="url(#g)"/></g><g filter="url(#i)"><path d="m6.9578 2.5h3.2921c2.826 0 5.1531 2.1698 5.3986 4.92-2.2747-3.9293-3.1662-3.7787-8.6907-4.92z" fill="url(#f)"/></g><path d="m18.09 7.3801c-1.34 0.57-2.86 0.57-4.2 0-4.2-1.77-9.04 0.26001-10.72 4.51-1.56 3.95-1.56 8.34 0 12.29 1.74 4.39 6.51 6.76 11.06 5.49 1.15-0.32 2.37-0.32 3.52 0 4.55 1.28 9.33-1.09 11.06-5.49 1.56-3.95 1.56-8.34 0-12.29-1.67-4.25-6.51-6.28-10.72-4.51z" fill="url(#e)"/><path d="m18.09 7.3801c-1.34 0.57-2.86 0.57-4.2 0-4.2-1.77-9.04 0.26001-10.72 4.51-1.56 3.95-1.56 8.34 0 12.29 1.74 4.39 6.51 6.76 11.06 5.49 1.15-0.32 2.37-0.32 3.52 0 4.55 1.28 9.33-1.09 11.06-5.49 1.56-3.95 1.56-8.34 0-12.29-1.67-4.25-6.51-6.28-10.72-4.51z" fill="url(#d)"/><path d="m18.09 7.3801c-1.34 0.57-2.86 0.57-4.2 0-4.2-1.77-9.04 0.26001-10.72 4.51-1.56 3.95-1.56 8.34 0 12.29 1.74 4.39 6.51 6.76 11.06 5.49 1.15-0.32 2.37-0.32 3.52 0 4.55 1.28 9.33-1.09 11.06-5.49 1.56-3.95 1.56-8.34 0-12.29-1.67-4.25-6.51-6.28-10.72-4.51z" fill="url(#c)"/><path d="m18.09 7.3801c-1.34 0.57-2.86 0.57-4.2 0-4.2-1.77-9.04 0.26001-10.72 4.51-1.56 3.95-1.56 8.34 0 12.29 1.74 4.39 6.51 6.76 11.06 5.49 1.15-0.32 2.37-0.32 3.52 0 4.55 1.28 9.33-1.09 11.06-5.49 1.56-3.95 1.56-8.34 0-12.29-1.67-4.25-6.51-6.28-10.72-4.51z" fill="url(#b)"/><path d="m18.09 7.3801c-1.34 0.57-2.86 0.57-4.2 0-4.2-1.77-9.04 0.26001-10.72 4.51-1.56 3.95-1.56 8.34 0 12.29 1.74 4.39 6.51 6.76 11.06 5.49 1.15-0.32 2.37-0.32 3.52 0 4.55 1.28 9.33-1.09 11.06-5.49 1.56-3.95 1.56-8.34 0-12.29-1.67-4.25-6.51-6.28-10.72-4.51z" fill="url(#a)"/><defs><filter id="j" x="4.2427" y="2" width="11.906" height="5.92" color-interpolation-filters="sRGB" filterUnits="userSpaceOnUse"><feFlood flood-opacity="0" result="BackgroundImageFix"/><feBlend in="SourceGraphic" in2="BackgroundImageFix" result="shape"/><feGaussianBlur result="effect1_foregroundBlur_18_28992" stdDeviation="0.25"/></filter><filter id="i" x="6.2078" y="1.75" width="10.191" height="6.42" color-interpolation-filters="sRGB" filterUnits="userSpaceOnUse"><feFlood flood-opacity="0" result="BackgroundImageFix"/><feBlend in="SourceGraphic" in2="BackgroundImageFix" result="shape"/><feGaussianBlur result="effect1_foregroundBlur_18_28992" stdDeviation="0.375"/></filter><linearGradient id="h" x1="4.22" x2="16.17" y1="2" y2="7.92" gradientUnits="userSpaceOnUse"><stop stop-color="#77B725" offset="0"/><stop stop-color="#A3DA32" offset="1"/></linearGradient><linearGradient id="g" x1="4.22" x2="16.17" y1="2" y2="7.92" gradientUnits="userSpaceOnUse"><stop stop-color="#8FCD20" offset="0"/><stop stop-color="#AEE137" offset="1"/></linearGradient><linearGradient id="f" x1="6.9578" x2="16.062" y1="2.5" y2="7.0002" gradientUnits="userSpaceOnUse"><stop stop-color="#CDFF7A" stop-opacity="0" offset=".26042"/><stop stop-color="#CDFF7A" stop-opacity=".8" offset=".73958"/><stop stop-color="#CDFF7A" stop-opacity="0" offset="1"/></linearGradient><radialGradient id="e" cx="0" cy="0" r="1" gradientTransform="translate(4.9518 27.187) rotate(-40.012) scale(28.235)" gradientUnits="userSpaceOnUse"><stop stop-color="#992D56" offset="0"/><stop stop-color="#FB3E4F" offset=".52791"/><stop stop-color="#FA3D3C" offset="1"/></radialGradient><radialGradient id="d" cx="0" cy="0" r="1" gradientTransform="translate(21.731 14.891) rotate(124.01) scale(21.464 25.802)" gradientUnits="userSpaceOnUse"><stop stop-color="#FF787A" stop-opacity=".8" offset="0"/><stop stop-color="#FF787A" stop-opacity="0" offset=".38633"/></radialGradient><radialGradient id="c" cx="0" cy="0" r="1" gradientTransform="translate(12.196 14.348) rotate(62.774) scale(22.897 27.525)" gradientUnits="userSpaceOnUse"><stop stop-color="#F24961" offset="0"/><stop stop-color="#F24961" stop-opacity="0" offset=".36713"/></radialGradient><linearGradient id="b" x1="15.99" x2="15.99" y1="6.7402" y2="30.016" gradientUnits="userSpaceOnUse"><stop stop-color="#CB2568" stop-opacity="0" offset=".58333"/><stop stop-color="#B13591" offset="1"/></linearGradient><radialGradient id="a" cx="0" cy="0" r="1" gradientTransform="translate(2 9.6839) rotate(26.433) scale(25.508 30.664)" gradientUnits="userSpaceOnUse"><stop stop-color="#88424B" offset="0"/><stop stop-color="#D02953" stop-opacity="0" offset=".38956"/></radialGradient></defs></svg>
