<svg fill="none" viewBox="0 0 32 32" xmlns="http://www.w3.org/2000/svg"><g filter="url(#q)"><path d="m13.632 8.935c0-3-2.46-3.42-5.5-3.42s-5.43 0.38-5.49 3.31v11.11c-0.00155 0.7077 0.16383 1.4057 0.48271 2.0375 0.31889 0.6318 0.78229 1.1795 1.3526 1.5986 0.57028 0.419 1.2314 0.6977 1.9296 0.8133s1.4138 0.0649 2.0887-0.148c0.67493-0.2128 1.2901-0.5819 1.7956-1.0772 0.5055-0.4952 0.8871-1.1027 1.1138-1.7732 0.2266-0.6704 0.292-1.3848 0.1907-2.0852s-0.3664-1.3671-0.7737-1.9458c-0.3239-0.6897-0.42-1.4645-0.2744-2.2123 0.1457-0.7479 0.5254-1.43 1.0844-1.9477 0.6283-0.5174 1.1337-1.1681 1.4796-1.9049 0.3459-0.7367 0.5237-1.5412 0.5204-2.3551z" fill="#20142B"/><path d="m13.632 8.935c0-3-2.46-3.42-5.5-3.42s-5.43 0.38-5.49 3.31v11.11c-0.00155 0.7077 0.16383 1.4057 0.48271 2.0375 0.31889 0.6318 0.78229 1.1795 1.3526 1.5986 0.57028 0.419 1.2314 0.6977 1.9296 0.8133s1.4138 0.0649 2.0887-0.148c0.67493-0.2128 1.2901-0.5819 1.7956-1.0772 0.5055-0.4952 0.8871-1.1027 1.1138-1.7732 0.2266-0.6704 0.292-1.3848 0.1907-2.0852s-0.3664-1.3671-0.7737-1.9458c-0.3239-0.6897-0.42-1.4645-0.2744-2.2123 0.1457-0.7479 0.5254-1.43 1.0844-1.9477 0.6283-0.5174 1.1337-1.1681 1.4796-1.9049 0.3459-0.7367 0.5237-1.5412 0.5204-2.3551z" fill="url(#o)"/><path d="m13.632 8.935c0-3-2.46-3.42-5.5-3.42s-5.43 0.38-5.49 3.31v11.11c-0.00155 0.7077 0.16383 1.4057 0.48271 2.0375 0.31889 0.6318 0.78229 1.1795 1.3526 1.5986 0.57028 0.419 1.2314 0.6977 1.9296 0.8133s1.4138 0.0649 2.0887-0.148c0.67493-0.2128 1.2901-0.5819 1.7956-1.0772 0.5055-0.4952 0.8871-1.1027 1.1138-1.7732 0.2266-0.6704 0.292-1.3848 0.1907-2.0852s-0.3664-1.3671-0.7737-1.9458c-0.3239-0.6897-0.42-1.4645-0.2744-2.2123 0.1457-0.7479 0.5254-1.43 1.0844-1.9477 0.6283-0.5174 1.1337-1.1681 1.4796-1.9049 0.3459-0.7367 0.5237-1.5412 0.5204-2.3551z" fill="url(#i)"/></g><path d="m15.407 4.1353c0.1812-0.93248-0.4256-1.8349-1.3553-2.0156-0.9298-0.18072-1.8305 0.42869-2.0117 1.3612l-0.1641 0.8442c-0.1813 0.93247 0.4255 1.8349 1.3553 2.0156 0.9297 0.18073 1.8304-0.42868 2.0117-1.3612l0.1641-0.8442z" fill="url(#h)"/><path d="m11.567 3.4084c0.0787-0.68585-0.4134-1.3057-1.0993-1.3844-0.68584-0.07875-1.3057 0.41341-1.3844 1.0993l-0.07187 0.62588c-0.07875 0.68585 0.4134 1.3057 1.0993 1.3844 0.6858 0.07875 1.3057-0.4134 1.3844-1.0992l0.0719-0.62589z" fill="url(#g)"/><path d="m8.6423 3.445c0-0.62408-0.50591-1.13-1.13-1.13-0.62408 0-1.13 0.50592-1.13 1.13v0.57c0 0.62408 0.50592 1.13 1.13 1.13 0.62409 0 1.13-0.50592 1.13-1.13v-0.57z" fill="url(#f)"/><path d="m5.9803 3.7819c-0.06489-0.56514-0.5734-0.97093-1.1358-0.90635-0.5624 0.06457-0.96571 0.57506-0.90082 1.1402l0.05932 0.5166c0.06489 0.56514 0.57341 0.97093 1.1358 0.90636 0.5624-0.06458 0.96571-0.57506 0.90082-1.1402l-0.05932-0.51661z" fill="url(#e)"/><path d="m2.6431 4.1066-0.00971 0.00236c-0.46686 0.11364-0.7532 0.58422-0.63957 1.0511l0.10642 0.43724c0.11364 0.46686 0.58422 0.7532 1.0511 0.63956l0.00971-0.00236c0.46686-0.11364 0.7532-0.58422 0.63957-1.0511l-0.10642-0.43724c-0.11364-0.46686-0.58422-0.7532-1.0511-0.63956z" fill="url(#d)"/><g filter="url(#p)"><path d="m18.363 13.835c0-3 2.47-3.42 5.5-3.42s5.44 0.38 5.5 3.31v11.12c0 1.1935-0.4741 2.3381-1.318 3.182s-1.9885 1.318-3.182 1.318-2.3381-0.4741-3.182-1.318-1.318-1.9885-1.318-3.182c3e-4 -0.9256 0.2906-1.8278 0.83-2.58 0.3223-0.69 0.4176-1.4644 0.272-2.2118-0.1455-0.7475-0.5243-1.4296-1.082-1.9482-0.6327-0.517-1.1423-1.1685-1.4918-1.9071-0.3494-0.7386-0.5298-1.5458-0.5282-2.3629z" fill="#20142B"/><path d="m18.363 13.835c0-3 2.47-3.42 5.5-3.42s5.44 0.38 5.5 3.31v11.12c0 1.1935-0.4741 2.3381-1.318 3.182s-1.9885 1.318-3.182 1.318-2.3381-0.4741-3.182-1.318-1.318-1.9885-1.318-3.182c3e-4 -0.9256 0.2906-1.8278 0.83-2.58 0.3223-0.69 0.4176-1.4644 0.272-2.2118-0.1455-0.7475-0.5243-1.4296-1.082-1.9482-0.6327-0.517-1.1423-1.1685-1.4918-1.9071-0.3494-0.7386-0.5298-1.5458-0.5282-2.3629z" fill="url(#c)"/><path d="m18.363 13.835c0-3 2.47-3.42 5.5-3.42s5.44 0.38 5.5 3.31v11.12c0 1.1935-0.4741 2.3381-1.318 3.182s-1.9885 1.318-3.182 1.318-2.3381-0.4741-3.182-1.318-1.318-1.9885-1.318-3.182c3e-4 -0.9256 0.2906-1.8278 0.83-2.58 0.3223-0.69 0.4176-1.4644 0.272-2.2118-0.1455-0.7475-0.5243-1.4296-1.082-1.9482-0.6327-0.517-1.1423-1.1685-1.4918-1.9071-0.3494-0.7386-0.5298-1.5458-0.5282-2.3629z" fill="url(#b)"/><path d="m18.363 13.835c0-3 2.47-3.42 5.5-3.42s5.44 0.38 5.5 3.31v11.12c0 1.1935-0.4741 2.3381-1.318 3.182s-1.9885 1.318-3.182 1.318-2.3381-0.4741-3.182-1.318-1.318-1.9885-1.318-3.182c3e-4 -0.9256 0.2906-1.8278 0.83-2.58 0.3223-0.69 0.4176-1.4644 0.272-2.2118-0.1455-0.7475-0.5243-1.4296-1.082-1.9482-0.6327-0.517-1.1423-1.1685-1.4918-1.9071-0.3494-0.7386-0.5298-1.5458-0.5282-2.3629z" fill="url(#a)"/></g><path d="m16.761 9.8833c0.1812 0.93244 1.0819 1.5418 2.0117 1.3611 0.9297-0.1807 1.5365-1.0831 1.3553-2.0156l-0.1641-0.8442c-0.1813-0.93247-1.0819-1.5419-2.0117-1.3612-0.9298 0.18073-1.5366 1.0832-1.3553 2.0156l0.1641 0.8442z" fill="url(#n)"/><path d="m20.498 8.9294c0.0788 0.68585 0.6986 1.178 1.3845 1.0992 0.6858-0.07875 1.178-0.69858 1.0992-1.3844l-0.0718-0.62589c-0.0788-0.68585-0.6986-1.178-1.3845-1.0993-0.6858 0.07875-1.178 0.69858-1.0992 1.3844l0.0718 0.62589z" fill="url(#m)"/><path d="m23.363 8.9249c0 0.62408 0.506 1.13 1.13 1.13 0.6241 0 1.13-0.50588 1.13-1.13v-0.57c0-0.62408-0.5059-1.13-1.13-1.13-0.624 0-1.13 0.50592-1.13 1.13v0.57z" fill="url(#l)"/><path d="m25.956 9.1866c-0.0649 0.56514 0.3384 1.0756 0.9008 1.1402 0.5624 0.0645 1.0709-0.34126 1.1358-0.9064l0.0593-0.51661c0.0649-0.56514-0.3384-1.0756-0.9008-1.1402s-1.0709 0.34122-1.1358 0.90636l-0.0593 0.5166z" fill="url(#k)"/><path d="m28.839 11.124 0.0097 0.0024c0.4669 0.1136 0.9375-0.1727 1.0511-0.6396l0.1064-0.4372c0.1137-0.46689-0.1727-0.93748-0.6395-1.0511l-0.0098-0.00237c-0.4668-0.11363-0.9374 0.17271-1.051 0.63957l-0.1065 0.43721c-0.1136 0.4669 0.1728 0.9375 0.6396 1.0511z" fill="url(#j)"/><defs><filter id="q" x="2.1421" y="5.015" width="11.49" height="19.43" color-interpolation-filters="sRGB" filterUnits="userSpaceOnUse"><feFlood flood-opacity="0" result="BackgroundImageFix"/><feBlend in="SourceGraphic" in2="BackgroundImageFix" result="shape"/><feColorMatrix in="SourceAlpha" result="hardAlpha" values="0 0 0 0 0 0 0 0 0 0 0 0 0 0 0 0 0 0 127 0"/><feOffset dx="-0.5" dy="-0.5"/><feGaussianBlur stdDeviation="0.5"/><feComposite in2="hardAlpha" k2="-1" k3="1" operator="arithmetic"/><feColorMatrix values="0 0 0 0 0.109804 0 0 0 0 0.0784314 0 0 0 0 0.133333 0 0 0 1 0"/><feBlend in2="shape" result="effect1_innerShadow_5559_20992"/></filter><filter id="p" x="17.863" y="9.915" width="11.5" height="19.43" color-interpolation-filters="sRGB" filterUnits="userSpaceOnUse"><feFlood flood-opacity="0" result="BackgroundImageFix"/><feBlend in="SourceGraphic" in2="BackgroundImageFix" result="shape"/><feColorMatrix in="SourceAlpha" result="hardAlpha" values="0 0 0 0 0 0 0 0 0 0 0 0 0 0 0 0 0 0 127 0"/><feOffset dx="-0.5" dy="-0.5"/><feGaussianBlur stdDeviation="0.5"/><feComposite in2="hardAlpha" k2="-1" k3="1" operator="arithmetic"/><feColorMatrix values="0 0 0 0 0.109804 0 0 0 0 0.0784314 0 0 0 0 0.133333 0 0 0 1 0"/><feBlend in2="shape" result="effect1_innerShadow_5559_20992"/></filter><radialGradient id="o" cx="0" cy="0" r="1" gradientTransform="translate(9.2849 21.327) rotate(227.6) scale(7.7862 7.6297)" gradientUnits="userSpaceOnUse"><stop stop-color="#3C3840" offset="0"/><stop stop-color="#3C3840" stop-opacity="0" offset="1"/></radialGradient><radialGradient id="i" cx="0" cy="0" r="1" gradientTransform="translate(12.66 6.8274) rotate(139.48) scale(5.0979 7.4937)" gradientUnits="userSpaceOnUse"><stop stop-color="#463E51" offset="0"/><stop stop-color="#463E51" stop-opacity="0" offset="1"/></radialGradient><radialGradient id="h" cx="0" cy="0" r="1" gradientTransform="translate(14.785 3.0462) rotate(115.71) scale(3.7458 2.988)" gradientUnits="userSpaceOnUse"><stop stop-color="#493F56" offset="0"/><stop stop-color="#11051C" offset="1"/></radialGradient><radialGradient id="g" cx="0" cy="0" r="1" gradientTransform="translate(10.847 3.2337) rotate(94.375) scale(2.0484 1.498)" gradientUnits="userSpaceOnUse"><stop stop-color="#42374E" offset=".17564"/><stop stop-color="#10041D" offset="1"/></radialGradient><radialGradient id="f" cx="0" cy="0" r="1" gradientTransform="translate(8.1091 3.2962) rotate(90) scale(1.7266 1.2148)" gradientUnits="userSpaceOnUse"><stop stop-color="#41364D" offset="0"/><stop stop-color="#150623" offset="1"/></radialGradient><radialGradient id="e" cx="0" cy="0" r="1" gradientTransform="translate(5.5662 3.8197) rotate(80.981) scale(1.495 1.0911)" gradientUnits="userSpaceOnUse"><stop stop-color="#41364D" offset=".15713"/><stop stop-color="#1D1229" offset="1"/></radialGradient><radialGradient id="d" cx="0" cy="0" r="1" gradientTransform="translate(3.3396 4.9134) rotate(73.028) scale(1.2579 .76654)" gradientUnits="userSpaceOnUse"><stop stop-color="#40354B" offset=".095118"/><stop stop-color="#1A0E25" offset="1"/></radialGradient><radialGradient id="c" cx="0" cy="0" r="1" gradientTransform="translate(25.012 26.228) rotate(227.58) scale(7.7894 7.6335)" gradientUnits="userSpaceOnUse"><stop stop-color="#3C3840" offset="0"/><stop stop-color="#3C3840" stop-opacity="0" offset="1"/></radialGradient><radialGradient id="b" cx="0" cy="0" r="1" gradientTransform="translate(28.39 11.728) rotate(139.5) scale(5.1006 7.4966)" gradientUnits="userSpaceOnUse"><stop stop-color="#463E51" offset="0"/><stop stop-color="#463E51" stop-opacity="0" offset="1"/></radialGradient><radialGradient id="a" cx="0" cy="0" r="1" gradientTransform="translate(21.097 21.265) rotate(2.7927) scale(7.6966 23.458)" gradientUnits="userSpaceOnUse"><stop stop-color="#2D2832" stop-opacity="0" offset=".71256"/><stop stop-color="#2D2832" offset="1"/></radialGradient><radialGradient id="n" cx="0" cy="0" r="1" gradientTransform="translate(19.191 8.14) rotate(78.671) scale(3.4999 2.7918)" gradientUnits="userSpaceOnUse"><stop stop-color="#493F56" offset=".078989"/><stop stop-color="#11051C" offset="1"/></radialGradient><radialGradient id="m" cx="0" cy="0" r="1" gradientTransform="translate(22.66 8.14) rotate(171.44) scale(2.2437 2.1448)" gradientUnits="userSpaceOnUse"><stop stop-color="#42374E" offset=".16334"/><stop stop-color="#10041D" offset="1"/></radialGradient><radialGradient id="l" cx="0" cy="0" r="1" gradientTransform="translate(25.347 8.3274) rotate(175.99) scale(1.7856 1.7657)" gradientUnits="userSpaceOnUse"><stop stop-color="#41364D" offset=".23782"/><stop stop-color="#150623" offset="1"/></radialGradient><radialGradient id="k" cx="0" cy="0" r="1" gradientTransform="translate(27.66 8.6712) rotate(184.9) scale(1.8277 1.7529)" gradientUnits="userSpaceOnUse"><stop stop-color="#41364D" offset=".15713"/><stop stop-color="#1D1229" offset="1"/></radialGradient><radialGradient id="j" cx="0" cy="0" r="1" gradientTransform="translate(29.754 10.061) rotate(196.33) scale(1.4979 1.3243)" gradientUnits="userSpaceOnUse"><stop stop-color="#40354B" offset=".23495"/><stop stop-color="#1A0E25" offset="1"/></radialGradient></defs></svg>
