<svg fill="none" viewBox="0 0 32 32" xmlns="http://www.w3.org/2000/svg"><path d="m3.3325 18.635 2.15 3.36c0.27 0.42 0.88 0.41 1.14-0.01l0.29-0.47c0.08-0.12 0.25-0.14 0.35-0.04l0.74 0.8v-3.27l-4.67-0.37z" fill="url(#ba)"/><path d="m3.3325 18.635 2.15 3.36c0.27 0.42 0.88 0.41 1.14-0.01l0.29-0.47c0.08-0.12 0.25-0.14 0.35-0.04l0.74 0.8v-3.27l-4.67-0.37z" fill="url(#ap)"/><path d="m21.35 20.34h2.0039l-2.5418 9.5505c-0.0582 0.219-0.2565 0.3714-0.4831 0.3714h-1.2944c-0.1642 0-0.2838-0.1556-0.2416-0.3143l2.557-9.6076z" fill="#784748"/><path d="m21.35 20.34h2.0039l-2.5418 9.5505c-0.0582 0.219-0.2565 0.3714-0.4831 0.3714h-1.2944c-0.1642 0-0.2838-0.1556-0.2416-0.3143l2.557-9.6076z" fill="url(#ae)"/><path d="m21.35 20.34h2.0039l-2.5418 9.5505c-0.0582 0.219-0.2565 0.3714-0.4831 0.3714h-1.2944c-0.1642 0-0.2838-0.1556-0.2416-0.3143l2.557-9.6076z" fill="url(#t)"/><path d="m12.782 30.275h-1.38c-0.17 0-0.31-0.14-0.31-0.31v-3.67h2v3.67c0 0.17-0.14 0.31-0.31 0.31z" fill="url(#i)"/><path d="m12.782 30.275h-1.38c-0.17 0-0.31-0.14-0.31-0.31v-3.67h2v3.67c0 0.17-0.14 0.31-0.31 0.31z" fill="url(#e)"/><path d="m27.022 11.965c1.84 0.79 3.04 2.61 3.04 4.62v8.69h-0.9063v-3.0754h-0.1137v-2.6946c-0.28 0.35-0.61 0.66-0.98 0.92v1.7746h-5.781l-0.051-0.0313c-0.3047 0.5938-1.478 1.1067-2.298 1.1067h-8.84c-1.71 0-3.09-1.38-3.09-3.09v-9.91h13.46c1.06 0 2.1 0.21 3.07 0.62l2.49 1.07z" fill="url(#d)"/><path d="m27.022 11.965c1.84 0.79 3.04 2.61 3.04 4.62v8.69h-0.9063v-3.0754h-0.1137v-2.6946c-0.28 0.35-0.61 0.66-0.98 0.92v1.7746h-5.781l-0.051-0.0313c-0.3047 0.5938-1.478 1.1067-2.298 1.1067h-8.84c-1.71 0-3.09-1.38-3.09-3.09v-9.91h13.46c1.06 0 2.1 0.21 3.07 0.62l2.49 1.07z" fill="url(#c)"/><path d="m27.022 11.965c1.84 0.79 3.04 2.61 3.04 4.62v8.69h-0.9063v-3.0754h-0.1137v-2.6946c-0.28 0.35-0.61 0.66-0.98 0.92v1.7746h-5.781l-0.051-0.0313c-0.3047 0.5938-1.478 1.1067-2.298 1.1067h-8.84c-1.71 0-3.09-1.38-3.09-3.09v-9.91h13.46c1.06 0 2.1 0.21 3.07 0.62l2.49 1.07z" fill="url(#b)"/><path d="m27.022 11.965c1.84 0.79 3.04 2.61 3.04 4.62v8.69h-0.9063v-3.0754h-0.1137v-2.6946c-0.28 0.35-0.61 0.66-0.98 0.92v1.7746h-5.781l-0.051-0.0313c-0.3047 0.5938-1.478 1.1067-2.298 1.1067h-8.84c-1.71 0-3.09-1.38-3.09-3.09v-9.91h13.46c1.06 0 2.1 0.21 3.07 0.62l2.49 1.07z" fill="url(#a)"/><path d="m27.022 11.965c1.84 0.79 3.04 2.61 3.04 4.62v8.69h-0.9063v-3.0754h-0.1137v-2.6946c-0.28 0.35-0.61 0.66-0.98 0.92v1.7746h-5.781l-0.051-0.0313c-0.3047 0.5938-1.478 1.1067-2.298 1.1067h-8.84c-1.71 0-3.09-1.38-3.09-3.09v-9.91h13.46c1.06 0 2.1 0.21 3.07 0.62l2.49 1.07z" fill="url(#az)"/><path d="m25.725 16.725c-1.9313 0-3.4969 1.5656-3.4969 3.4969v2.5558c0 1.933 1.567 3.5 3.5 3.5h0.1563c0.138 0 0.25 0.1119 0.25 0.25v3.2422c0 0.2761 0.2238 0.5 0.5 0.5h0.9218c0.2762 0 0.5-0.2239 0.5-0.5v-10.714c0-1.2875-1.0437-2.3312-2.3312-2.3312z" fill="url(#ay)"/><path d="m25.725 16.725c-1.9313 0-3.4969 1.5656-3.4969 3.4969v2.5558c0 1.933 1.567 3.5 3.5 3.5h0.1563c0.138 0 0.25 0.1119 0.25 0.25v3.2422c0 0.2761 0.2238 0.5 0.5 0.5h0.9218c0.2762 0 0.5-0.2239 0.5-0.5v-10.714c0-1.2875-1.0437-2.3312-2.3312-2.3312z" fill="url(#ax)"/><path d="m4.0625 13.275v2.11c0 0.5-0.21 0.98-0.56 1.34-0.27 0.26-0.44 0.64-0.44 1.05 0 0.83 0.67 1.5 1.5 1.5h4.5v-6h-5z" fill="url(#aw)"/><path d="m4.0625 13.275v2.11c0 0.5-0.21 0.98-0.56 1.34-0.27 0.26-0.44 0.64-0.44 1.05 0 0.83 0.67 1.5 1.5 1.5h4.5v-6h-5z" fill="url(#av)"/><path d="m4.0625 13.275v2.11c0 0.5-0.21 0.98-0.56 1.34-0.27 0.26-0.44 0.64-0.44 1.05 0 0.83 0.67 1.5 1.5 1.5h4.5v-6h-5z" fill="url(#au)"/><path d="m9.0325 20.872v3.3736c0 1.67 1.36 3.03 3.03 3.03s3.03-1.36 3.03-3.03v-1.63c0-0.5265-0.2076-1.0317-0.5778-1.4061l-0.9053-0.9157-4.5769 0.5782z" fill="url(#at)"/><path d="m9.0325 20.872v3.3736c0 1.67 1.36 3.03 3.03 3.03s3.03-1.36 3.03-3.03v-1.63c0-0.5265-0.2076-1.0317-0.5778-1.4061l-0.9053-0.9157-4.5769 0.5782z" fill="url(#as)"/><path d="m9.0325 20.872v3.3736c0 1.67 1.36 3.03 3.03 3.03s3.03-1.36 3.03-3.03v-1.63c0-0.5265-0.2076-1.0317-0.5778-1.4061l-0.9053-0.9157-4.5769 0.5782z" fill="url(#ar)"/><path d="m30.062 16.85c-0.0828 1.2233-0.8016 2.3744-1.1718 2.8181-0.0036 0.0097-0.0072 0.0194-0.0107 0.0291 0.0559-0.0626 0.1101-0.1268 0.1625-0.1923v5.77h1.02v-8.4249z" fill="url(#aq)"/><path d="m30.062 16.85c-0.0828 1.2233-0.8016 2.3744-1.1718 2.8181-0.0036 0.0097-0.0072 0.0194-0.0107 0.0291 0.0559-0.0626 0.1101-0.1268 0.1625-0.1923v5.77h1.02v-8.4249z" fill="url(#ao)"/><path d="m11.752 30.275h-1.38c-0.17 0-0.31-0.14-0.31-0.31v-3.67h2v3.67c0 0.17-0.14 0.31-0.31 0.31z" fill="url(#an)"/><path d="m11.752 30.275h-1.38c-0.17 0-0.31-0.14-0.31-0.31v-3.67h2v3.67c0 0.17-0.14 0.31-0.31 0.31z" fill="url(#am)"/><path d="m11.752 30.275h-1.38c-0.17 0-0.31-0.14-0.31-0.31v-3.67h2v3.67c0 0.17-0.14 0.31-0.31 0.31z" fill="url(#al)"/><path d="m11.752 30.275h-1.38c-0.17 0-0.31-0.14-0.31-0.31v-3.67h2v3.67c0 0.17-0.14 0.31-0.31 0.31z" fill="url(#ak)"/><path d="m30.062 26.605v-4c-1.1 0-2 0.9-2 2s0.9 2 2 2z" fill="url(#aj)"/><path d="m30.062 26.605v-4c-1.1 0-2 0.9-2 2s0.9 2 2 2z" fill="url(#ai)"/><path d="m4.6725 16.725h-1.1764c-0.27 0.27-0.43359 0.64-0.43359 1.05 0 0.83 0.67 1.5 1.5 1.5h1.5v-1.16c0-0.77-0.62-1.39-1.39-1.39z" fill="url(#ah)"/><path d="m4.6725 16.725h-1.1764c-0.27 0.27-0.43359 0.64-0.43359 1.05 0 0.83 0.67 1.5 1.5 1.5h1.5v-1.16c0-0.77-0.62-1.39-1.39-1.39z" fill="url(#ag)"/><path d="m4.5625 18.275c0.27614 0 0.5-0.2238 0.5-0.5 0-0.2761-0.22386-0.5-0.5-0.5s-0.5 0.2239-0.5 0.5c0 0.2762 0.22386 0.5 0.5 0.5z" fill="url(#af)"/><path d="m4.5625 18.275c0.27614 0 0.5-0.2238 0.5-0.5 0-0.2761-0.22386-0.5-0.5-0.5s-0.5 0.2239-0.5 0.5c0 0.2762 0.22386 0.5 0.5 0.5z" fill="url(#ad)"/><path d="m21.142 8.885-4.92-2.11c-0.68-0.3-1.42-0.47-2.17-0.5-2.28-0.07-4.28 1.16-5.31 3h-0.05c-0.3-0.59-0.92-1-1.63-1-0.56 0-1.07 0.26-1.4 0.66-0.18 0.21-0.44 0.34-0.72 0.34h-0.88c-1.1 0-2 0.9-2 2v1.36c0 0.91 0.73 1.64 1.64 1.64h1.49c0.2 0 0.37-0.17 0.37-0.37v-0.45c0-0.1 0.08-0.18 0.18-0.18h1.65c0.34 0 0.61 0.27 0.61 0.61v10.39c0 1.67 1.36 3.03 3.03 3.03s3.03-1.36 3.03-3.03v-8.14c0-1.14 0.64-2.18 1.66-2.69l6.34-3.1478c0-0.60999-0.36-1.1722-0.92-1.4122z" fill="url(#ac)"/><path d="m21.142 8.885-4.92-2.11c-0.68-0.3-1.42-0.47-2.17-0.5-2.28-0.07-4.28 1.16-5.31 3h-0.05c-0.3-0.59-0.92-1-1.63-1-0.56 0-1.07 0.26-1.4 0.66-0.18 0.21-0.44 0.34-0.72 0.34h-0.88c-1.1 0-2 0.9-2 2v1.36c0 0.91 0.73 1.64 1.64 1.64h1.49c0.2 0 0.37-0.17 0.37-0.37v-0.45c0-0.1 0.08-0.18 0.18-0.18h1.65c0.34 0 0.61 0.27 0.61 0.61v10.39c0 1.67 1.36 3.03 3.03 3.03s3.03-1.36 3.03-3.03v-8.14c0-1.14 0.64-2.18 1.66-2.69l6.34-3.1478c0-0.60999-0.36-1.1722-0.92-1.4122z" fill="url(#ab)"/><path d="m21.142 8.885-4.92-2.11c-0.68-0.3-1.42-0.47-2.17-0.5-2.28-0.07-4.28 1.16-5.31 3h-0.05c-0.3-0.59-0.92-1-1.63-1-0.56 0-1.07 0.26-1.4 0.66-0.18 0.21-0.44 0.34-0.72 0.34h-0.88c-1.1 0-2 0.9-2 2v1.36c0 0.91 0.73 1.64 1.64 1.64h1.49c0.2 0 0.37-0.17 0.37-0.37v-0.45c0-0.1 0.08-0.18 0.18-0.18h1.65c0.34 0 0.61 0.27 0.61 0.61v10.39c0 1.67 1.36 3.03 3.03 3.03s3.03-1.36 3.03-3.03v-8.14c0-1.14 0.64-2.18 1.66-2.69l6.34-3.1478c0-0.60999-0.36-1.1722-0.92-1.4122z" fill="url(#aa)"/><path d="m21.142 8.885-4.92-2.11c-0.68-0.3-1.42-0.47-2.17-0.5-2.28-0.07-4.28 1.16-5.31 3h-0.05c-0.3-0.59-0.92-1-1.63-1-0.56 0-1.07 0.26-1.4 0.66-0.18 0.21-0.44 0.34-0.72 0.34h-0.88c-1.1 0-2 0.9-2 2v1.36c0 0.91 0.73 1.64 1.64 1.64h1.49c0.2 0 0.37-0.17 0.37-0.37v-0.45c0-0.1 0.08-0.18 0.18-0.18h1.65c0.34 0 0.61 0.27 0.61 0.61v10.39c0 1.67 1.36 3.03 3.03 3.03s3.03-1.36 3.03-3.03v-8.14c0-1.14 0.64-2.18 1.66-2.69l6.34-3.1478c0-0.60999-0.36-1.1722-0.92-1.4122z" fill="url(#z)"/><path d="m21.142 8.885-4.92-2.11c-0.68-0.3-1.42-0.47-2.17-0.5-2.28-0.07-4.28 1.16-5.31 3h-0.05c-0.3-0.59-0.92-1-1.63-1-0.56 0-1.07 0.26-1.4 0.66-0.18 0.21-0.44 0.34-0.72 0.34h-0.88c-1.1 0-2 0.9-2 2v1.36c0 0.91 0.73 1.64 1.64 1.64h1.49c0.2 0 0.37-0.17 0.37-0.37v-0.45c0-0.1 0.08-0.18 0.18-0.18h1.65c0.34 0 0.61 0.27 0.61 0.61v10.39c0 1.67 1.36 3.03 3.03 3.03s3.03-1.36 3.03-3.03v-8.14c0-1.14 0.64-2.18 1.66-2.69l6.34-3.1478c0-0.60999-0.36-1.1722-0.92-1.4122z" fill="url(#y)"/><path d="m21.142 8.885-4.92-2.11c-0.68-0.3-1.42-0.47-2.17-0.5-2.28-0.07-4.28 1.16-5.31 3h-0.05c-0.3-0.59-0.92-1-1.63-1-0.56 0-1.07 0.26-1.4 0.66-0.18 0.21-0.44 0.34-0.72 0.34h-0.88c-1.1 0-2 0.9-2 2v1.36c0 0.91 0.73 1.64 1.64 1.64h1.49c0.2 0 0.37-0.17 0.37-0.37v-0.45c0-0.1 0.08-0.18 0.18-0.18h1.65c0.34 0 0.61 0.27 0.61 0.61v10.39c0 1.67 1.36 3.03 3.03 3.03s3.03-1.36 3.03-3.03v-8.14c0-1.14 0.64-2.18 1.66-2.69l6.34-3.1478c0-0.60999-0.36-1.1722-0.92-1.4122z" fill="url(#x)"/><path d="m21.142 8.885-4.92-2.11c-0.68-0.3-1.42-0.47-2.17-0.5-2.28-0.07-4.28 1.16-5.31 3h-0.05c-0.3-0.59-0.92-1-1.63-1-0.56 0-1.07 0.26-1.4 0.66-0.18 0.21-0.44 0.34-0.72 0.34h-0.88c-1.1 0-2 0.9-2 2v1.36c0 0.91 0.73 1.64 1.64 1.64h1.49c0.2 0 0.37-0.17 0.37-0.37v-0.45c0-0.1 0.08-0.18 0.18-0.18h1.65c0.34 0 0.61 0.27 0.61 0.61v10.39c0 1.67 1.36 3.03 3.03 3.03s3.03-1.36 3.03-3.03v-8.14c0-1.14 0.64-2.18 1.66-2.69l6.34-3.1478c0-0.60999-0.36-1.1722-0.92-1.4122z" fill="url(#w)"/><path d="m21.142 8.885-4.92-2.11c-0.68-0.3-1.42-0.47-2.17-0.5-2.28-0.07-4.28 1.16-5.31 3h-0.05c-0.3-0.59-0.92-1-1.63-1-0.56 0-1.07 0.26-1.4 0.66-0.18 0.21-0.44 0.34-0.72 0.34h-0.88c-1.1 0-2 0.9-2 2v1.36c0 0.91 0.73 1.64 1.64 1.64h1.49c0.2 0 0.37-0.17 0.37-0.37v-0.45c0-0.1 0.08-0.18 0.18-0.18h1.65c0.34 0 0.61 0.27 0.61 0.61v10.39c0 1.67 1.36 3.03 3.03 3.03s3.03-1.36 3.03-3.03v-8.14c0-1.14 0.64-2.18 1.66-2.69l6.34-3.1478c0-0.60999-0.36-1.1722-0.92-1.4122z" fill="url(#v)"/><path d="m7.2658 6.2507c-0.17-0.00982-0.23 0.19635-0.1 0.28471 0.62 0.36326 1.01 1.0505 0.96 1.8065-0.07 1.0505-1.0789 1.6741-2.0945 1.7678-0.54941 0.0508-0.9375 0.6094-0.9375 1.0157 0 1.0914 1.0974 1.2094 2.072 1.125 1.4436-0.125 2.78-1.3068 2.89-2.858 0.11-1.6199-0.9933-3.2201-2.79-3.1417z" fill="url(#u)"/><path d="m7.2658 6.2507c-0.17-0.00982-0.23 0.19635-0.1 0.28471 0.62 0.36326 1.01 1.0505 0.96 1.8065-0.07 1.0505-1.0789 1.6741-2.0945 1.7678-0.54941 0.0508-0.9375 0.6094-0.9375 1.0157 0 1.0914 1.0974 1.2094 2.072 1.125 1.4436-0.125 2.78-1.3068 2.89-2.858 0.11-1.6199-0.9933-3.2201-2.79-3.1417z" fill="url(#s)"/><path d="m7.2658 6.2507c-0.17-0.00982-0.23 0.19635-0.1 0.28471 0.62 0.36326 1.01 1.0505 0.96 1.8065-0.07 1.0505-1.0789 1.6741-2.0945 1.7678-0.54941 0.0508-0.9375 0.6094-0.9375 1.0157 0 1.0914 1.0974 1.2094 2.072 1.125 1.4436-0.125 2.78-1.3068 2.89-2.858 0.11-1.6199-0.9933-3.2201-2.79-3.1417z" fill="url(#r)"/><path d="m7.2658 6.2507c-0.17-0.00982-0.23 0.19635-0.1 0.28471 0.62 0.36326 1.01 1.0505 0.96 1.8065-0.07 1.0505-1.0789 1.6741-2.0945 1.7678-0.54941 0.0508-0.9375 0.6094-0.9375 1.0157 0 1.0914 1.0974 1.2094 2.072 1.125 1.4436-0.125 2.78-1.3068 2.89-2.858 0.11-1.6199-0.9933-3.2201-2.79-3.1417z" fill="url(#q)"/><rect x="6.0312" y="14.332" width="1.0312" height="2.0016" rx=".51562" fill="url(#p)"/><rect x="6.0312" y="14.332" width="1.0312" height="2.0016" rx=".51562" fill="url(#o)"/><rect x="6.0312" y="14.332" width="1.0312" height="2.0016" rx=".51562" fill="url(#n)"/><g filter="url(#bl)"><path d="m8.1328 6.8168c0.5 0.15625 1.2297 0.86094 1.3047 1.8359s-0.32812 2.0469-1.5 2.5313" stroke="url(#m)" stroke-linecap="round" stroke-width=".25"/></g><g filter="url(#bj)"><path d="m29.609 23.137v2.6562" stroke="url(#l)" stroke-linecap="round" stroke-width=".1"/></g><g filter="url(#bi)"><path d="m10.969 14.872 10.062-5.0652-5.4256-2.1131c-1.0622-0.41366-2.2547 0.14262-2.6202 1.2222l-2.0166 5.9561z" fill="url(#k)"/></g><g filter="url(#bh)"><path d="m9.4462 15.123c0-1.1367 0.92143-2.0582 2.0581-2.0582s2.0582 0.9215 2.0582 2.0582v8.5728c0 1.1367-0.9215 2.0581-2.0582 2.0581s-2.0581-0.9214-2.0581-2.0581v-8.5728z" fill="url(#j)"/></g><g filter="url(#bg)"><path d="m21.844 24.215-1.4532 5.4063" stroke="url(#h)" stroke-linecap="round" stroke-width=".25"/></g><g filter="url(#bf)"><rect x="11.147" y="27.496" width=".57812" height="2.3594" rx=".28906" fill="#866061" fill-opacity=".6"/></g><g filter="url(#be)"><rect x="23.85" y="17.496" width="3.9314" height="7.4688" fill="url(#g)" fill-opacity=".75"/></g><g filter="url(#bd)"><rect x="26.859" y="23.137" width=".35937" height="6.2895" fill="#BC8A7E"/></g><g filter="url(#bc)"><ellipse cx="22.998" cy="15.077" rx="6.0962" ry="2.0128" fill="url(#f)" fill-opacity=".75"/></g><g filter="url(#bb)"><path d="m9.4462 13.684v11.279" stroke="#724F4D" stroke-linecap="round" stroke-width="1.25"/></g><g filter="url(#bk)"><path d="m2.7266 10.897v1.75c0 0.5522 0.44772 1 1 1h1.0391" stroke="#7B5553" stroke-linecap="round" stroke-width=".25"/></g><defs><filter id="bl" x="7.3124" y="6.1917" width="2.7587" height="5.6173" color-interpolation-filters="sRGB" filterUnits="userSpaceOnUse"><feFlood flood-opacity="0" result="BackgroundImageFix"/><feBlend in="SourceGraphic" in2="BackgroundImageFix" result="shape"/><feGaussianBlur result="effect1_foregroundBlur_28327_2709" stdDeviation="0.25"/></filter><filter id="bj" x="29.159" y="22.687" width=".89998" height="3.5562" color-interpolation-filters="sRGB" filterUnits="userSpaceOnUse"><feFlood flood-opacity="0" result="BackgroundImageFix"/><feBlend in="SourceGraphic" in2="BackgroundImageFix" result="shape"/><feGaussianBlur result="effect1_foregroundBlur_28327_2709" stdDeviation="0.2"/></filter><filter id="bi" x="9.9688" y="6.5562" width="12.062" height="9.3153" color-interpolation-filters="sRGB" filterUnits="userSpaceOnUse"><feFlood flood-opacity="0" result="BackgroundImageFix"/><feBlend in="SourceGraphic" in2="BackgroundImageFix" result="shape"/><feGaussianBlur result="effect1_foregroundBlur_28327_2709" stdDeviation="0.5"/></filter><filter id="bh" x="8.4462" y="12.065" width="6.1163" height="14.689" color-interpolation-filters="sRGB" filterUnits="userSpaceOnUse"><feFlood flood-opacity="0" result="BackgroundImageFix"/><feBlend in="SourceGraphic" in2="BackgroundImageFix" result="shape"/><feGaussianBlur result="effect1_foregroundBlur_28327_2709" stdDeviation="0.5"/></filter><filter id="bg" x="19.766" y="23.59" width="2.7032" height="6.6564" color-interpolation-filters="sRGB" filterUnits="userSpaceOnUse"><feFlood flood-opacity="0" result="BackgroundImageFix"/><feBlend in="SourceGraphic" in2="BackgroundImageFix" result="shape"/><feGaussianBlur result="effect1_foregroundBlur_28327_2709" stdDeviation="0.25"/></filter><filter id="bf" x="10.797" y="27.146" width="1.2781" height="3.0594" color-interpolation-filters="sRGB" filterUnits="userSpaceOnUse"><feFlood flood-opacity="0" result="BackgroundImageFix"/><feBlend in="SourceGraphic" in2="BackgroundImageFix" result="shape"/><feGaussianBlur result="effect1_foregroundBlur_28327_2709" stdDeviation="0.175"/></filter><filter id="be" x="21.85" y="15.496" width="7.9314" height="11.469" color-interpolation-filters="sRGB" filterUnits="userSpaceOnUse"><feFlood flood-opacity="0" result="BackgroundImageFix"/><feBlend in="SourceGraphic" in2="BackgroundImageFix" result="shape"/><feGaussianBlur result="effect1_foregroundBlur_28327_2709" stdDeviation="1"/></filter><filter id="bd" x="25.859" y="22.137" width="2.3594" height="8.2895" color-interpolation-filters="sRGB" filterUnits="userSpaceOnUse"><feFlood flood-opacity="0" result="BackgroundImageFix"/><feBlend in="SourceGraphic" in2="BackgroundImageFix" result="shape"/><feGaussianBlur result="effect1_foregroundBlur_28327_2709" stdDeviation="0.5"/></filter><filter id="bc" x="14.901" y="11.065" width="16.192" height="8.0256" color-interpolation-filters="sRGB" filterUnits="userSpaceOnUse"><feFlood flood-opacity="0" result="BackgroundImageFix"/><feBlend in="SourceGraphic" in2="BackgroundImageFix" result="shape"/><feGaussianBlur result="effect1_foregroundBlur_28327_2709" stdDeviation="1"/></filter><filter id="bb" x="7.3212" y="11.559" width="4.25" height="15.529" color-interpolation-filters="sRGB" filterUnits="userSpaceOnUse"><feFlood flood-opacity="0" result="BackgroundImageFix"/><feBlend in="SourceGraphic" in2="BackgroundImageFix" result="shape"/><feGaussianBlur result="effect1_foregroundBlur_28327_2709" stdDeviation="0.75"/></filter><filter id="bk" x="2.0016" y="10.172" width="3.4891" height="4.2" color-interpolation-filters="sRGB" filterUnits="userSpaceOnUse"><feFlood flood-opacity="0" result="BackgroundImageFix"/><feBlend in="SourceGraphic" in2="BackgroundImageFix" result="shape"/><feGaussianBlur result="effect1_foregroundBlur_28327_2709" stdDeviation="0.3"/></filter><radialGradient id="ba" cx="0" cy="0" r="1" gradientTransform="translate(4.6562 19.403) rotate(61.366) scale(3.0976 1.7678)" gradientUnits="userSpaceOnUse"><stop stop-color="#69494D" offset="0"/><stop stop-color="#4F2535" offset="1"/></radialGradient><radialGradient id="ap" cx="0" cy="0" r="1" gradientTransform="translate(7.375 21.668) rotate(67.659) scale(1.2332 .71598)" gradientUnits="userSpaceOnUse"><stop stop-color="#69494D" offset="0"/><stop stop-color="#69494D" stop-opacity="0" offset=".86338"/></radialGradient><linearGradient id="ae" x1="20.656" x2="19.438" y1="23.122" y2="27.684" gradientUnits="userSpaceOnUse"><stop stop-color="#41242E" offset="0"/><stop stop-color="#41242E" stop-opacity="0" offset="1"/></linearGradient><linearGradient id="t" x1="20.766" x2="20.906" y1="30.575" y2="28.996" gradientUnits="userSpaceOnUse"><stop stop-color="#88485E" offset="0"/><stop stop-color="#88485E" stop-opacity="0" offset=".51899"/></linearGradient><linearGradient id="i" x1="13.188" x2="12.092" y1="29.028" y2="29.028" gradientUnits="userSpaceOnUse"><stop stop-color="#563836" offset="0"/><stop stop-color="#715055" offset="1"/></linearGradient><linearGradient id="e" x1="11.978" x2="11.967" y1="30.4" y2="29.504" gradientUnits="userSpaceOnUse"><stop stop-color="#88485E" offset="0"/><stop stop-color="#88485E" stop-opacity="0" offset=".51899"/></linearGradient><radialGradient id="d" cx="0" cy="0" r="1" gradientTransform="translate(26.812 12.809) rotate(156.74) scale(16.462 14.479)" gradientUnits="userSpaceOnUse"><stop stop-color="#BC8A7E" offset="0"/><stop stop-color="#78424A" offset=".72808"/><stop stop-color="#6B3757" offset="1"/></radialGradient><radialGradient id="c" cx="0" cy="0" r="1" gradientTransform="translate(27.688 19.746) rotate(-90) scale(2.7812 4.1875)" gradientUnits="userSpaceOnUse"><stop stop-color="#A76C61" offset="0"/><stop stop-color="#A76C61" stop-opacity="0" offset="1"/></radialGradient><radialGradient id="b" cx="0" cy="0" r="1" gradientTransform="translate(27.859 20.621) rotate(-65.462) scale(2.3703 3.2187)" gradientUnits="userSpaceOnUse"><stop stop-color="#6E312E" offset="0"/><stop stop-color="#6E312E" stop-opacity="0" offset="1"/></radialGradient><radialGradient id="a" cx="0" cy="0" r="1" gradientTransform="translate(22.781 22.156) rotate(242.22) scale(1.978 2.5943)" gradientUnits="userSpaceOnUse"><stop stop-color="#502220" offset="0"/><stop stop-color="#6E312E" stop-opacity="0" offset="1"/></radialGradient><radialGradient id="az" cx="0" cy="0" r="1" gradientTransform="translate(19.032 25.275) rotate(255.94) scale(5.0228 9.9342)" gradientUnits="userSpaceOnUse"><stop stop-color="#993E76" offset="0"/><stop stop-color="#6B3757" stop-opacity="0" offset="1"/></radialGradient><radialGradient id="ay" cx="0" cy="0" r="1" gradientTransform="translate(25.969 17.153) rotate(105.36) scale(8.8473 8.1932)" gradientUnits="userSpaceOnUse"><stop stop-color="#A5726D" offset="0"/><stop stop-color="#8A5558" offset=".69116"/></radialGradient><radialGradient id="ax" cx="0" cy="0" r="1" gradientTransform="translate(23.75 26.871) rotate(-61.321) scale(4.1675 3.2349)" gradientUnits="userSpaceOnUse"><stop stop-color="#993E76" offset="0"/><stop stop-color="#6B3757" stop-opacity="0" offset="1"/></radialGradient><radialGradient id="aw" cx="0" cy="0" r="1" gradientTransform="translate(4.1562 17.434) rotate(-59.594) scale(6.051 8.2864)" gradientUnits="userSpaceOnUse"><stop stop-color="#9C6C65" offset="0"/><stop stop-color="#794244" offset="1"/></radialGradient><linearGradient id="av" x1="6.0625" x2="6.0625" y1="20.09" y2="18.09" gradientUnits="userSpaceOnUse"><stop stop-color="#6C334E" offset="0"/><stop stop-color="#6C334E" stop-opacity="0" offset="1"/></linearGradient><linearGradient id="au" x1="9.9062" x2="6.8438" y1="18.09" y2="18.09" gradientUnits="userSpaceOnUse"><stop stop-color="#6C334E" offset="0"/><stop stop-color="#6C334E" stop-opacity="0" offset="1"/></linearGradient><radialGradient id="at" cx="0" cy="0" r="1" gradientTransform="translate(12.969 23.434) rotate(49.332) scale(2.9252 5.0044)" gradientUnits="userSpaceOnUse"><stop stop-color="#96625F" offset=".067136"/><stop stop-color="#7E4A47" offset="1"/></radialGradient><linearGradient id="as" x1="12.062" x2="12.062" y1="29.028" y2="24.028" gradientUnits="userSpaceOnUse"><stop stop-color="#6B3757" offset="0"/><stop stop-color="#6B3757" stop-opacity="0" offset="1"/></linearGradient><radialGradient id="ar" cx="0" cy="0" r="1" gradientTransform="translate(10.516 25.418) rotate(-44.894) scale(5.9994 5.2714)" gradientUnits="userSpaceOnUse"><stop stop-color="#7E5153" stop-opacity="0" offset=".81027"/><stop stop-color="#976365" offset=".94515"/><stop stop-color="#703B53" offset="1"/></radialGradient><linearGradient id="aq" x1="29.062" x2="30.062" y1="21.063" y2="21.063" gradientUnits="userSpaceOnUse"><stop stop-color="#743E3B" offset=".35937"/><stop stop-color="#936D69" offset="1"/></linearGradient><linearGradient id="ao" x1="30.062" x2="29.75" y1="20.168" y2="20.168" gradientUnits="userSpaceOnUse"><stop stop-color="#875B50" offset="0"/><stop stop-color="#875B50" stop-opacity="0" offset="1"/></linearGradient><linearGradient id="an" x1="12.438" x2="9.625" y1="27.715" y2="27.715" gradientUnits="userSpaceOnUse"><stop stop-color="#785353" offset="0"/><stop stop-color="#7A514E" offset="1"/></linearGradient><linearGradient id="am" x1="13.141" x2="9.6406" y1="29.347" y2="29.347" gradientUnits="userSpaceOnUse"><stop stop-color="#6B3757" offset="0"/><stop stop-color="#6B3757" stop-opacity="0" offset="1"/></linearGradient><linearGradient id="al" x1="10.948" x2="10.94" y1="30.4" y2="29.715" gradientUnits="userSpaceOnUse"><stop stop-color="#88485E" offset="0"/><stop stop-color="#88485E" stop-opacity="0" offset=".51899"/></linearGradient><linearGradient id="ak" x1="10.906" x2="10.439" y1="26.295" y2="28.076" gradientUnits="userSpaceOnUse"><stop stop-color="#41242E" offset="0"/><stop stop-color="#41242E" stop-opacity="0" offset="1"/></linearGradient><radialGradient id="aj" cx="0" cy="0" r="1" gradientTransform="translate(30.594 24.605) rotate(180) scale(1.9688 2.7179)" gradientUnits="userSpaceOnUse"><stop stop-color="#685C5D" offset="0"/><stop stop-color="#392525" offset=".84921"/></radialGradient><radialGradient id="ai" cx="0" cy="0" r="1" gradientTransform="translate(30.469 22.856) rotate(123.24) scale(3.9047 3.7715)" gradientUnits="userSpaceOnUse"><stop stop-color="#4F254B" stop-opacity="0" offset=".81013"/><stop stop-color="#4F254B" offset="1"/></radialGradient><radialGradient id="ah" cx="0" cy="0" r="1" gradientTransform="translate(3.7969 17.137) rotate(53.028) scale(2.676 2.9955)" gradientUnits="userSpaceOnUse"><stop stop-color="#735150" offset=".38486"/><stop stop-color="#582B41" offset="1"/></radialGradient><linearGradient id="ag" x1="3.3906" x2="4.0234" y1="16.684" y2="17.27" gradientUnits="userSpaceOnUse"><stop stop-color="#5F3D39" offset="0"/><stop stop-color="#5F3D39" stop-opacity="0" offset="1"/></linearGradient><radialGradient id="af" cx="0" cy="0" r="1" gradientTransform="translate(4.4766 17.629) rotate(57.426) scale(.6675 .60933)" gradientUnits="userSpaceOnUse"><stop stop-color="#5B4044" offset="0"/><stop stop-color="#3F2925" offset="1"/></radialGradient><linearGradient id="ad" x1="4.1484" x2="4.5625" y1="17.275" y2="17.871" gradientUnits="userSpaceOnUse"><stop stop-color="#562D36" offset="0"/><stop stop-color="#562D36" stop-opacity="0" offset="1"/></linearGradient><linearGradient id="ac" x1="6.6875" x2="16.375" y1="17.59" y2="17.59" gradientUnits="userSpaceOnUse"><stop stop-color="#6C434A" offset="0"/><stop stop-color="#6B3A38" offset="1"/></linearGradient><radialGradient id="ab" cx="0" cy="0" r="1" gradientTransform="translate(11 27.305) rotate(-90) scale(4.9023 4.2188)" gradientUnits="userSpaceOnUse"><stop stop-color="#6B3757" offset="0"/><stop stop-color="#6B3757" stop-opacity="0" offset="1"/></radialGradient><radialGradient id="aa" cx="0" cy="0" r="1" gradientTransform="translate(5.6875 11.84) rotate(56.842) scale(1.3998)" gradientUnits="userSpaceOnUse"><stop stop-color="#542C45" offset="0"/><stop stop-color="#542C45" stop-opacity="0" offset="1"/></radialGradient><radialGradient id="z" cx="0" cy="0" r="1" gradientTransform="translate(8.5 10.668) rotate(117.93) scale(2.6351 1.5964)" gradientUnits="userSpaceOnUse"><stop stop-color="#512423" offset=".23948"/><stop stop-color="#512423" stop-opacity="0" offset="1"/></radialGradient><linearGradient id="y" x1="15.125" x2="13.188" y1="5.0589" y2="9.3402" gradientUnits="userSpaceOnUse"><stop stop-color="#7C6460" offset="0"/><stop stop-color="#7C6460" stop-opacity="0" offset=".41082"/></linearGradient><radialGradient id="x" cx="0" cy="0" r="1" gradientTransform="translate(17 16.184) rotate(211.81) scale(5.8102 7.6942)" gradientUnits="userSpaceOnUse"><stop stop-color="#633250" offset="0"/><stop stop-color="#6B3757" stop-opacity="0" offset="1"/></radialGradient><radialGradient id="w" cx="0" cy="0" r="1" gradientTransform="translate(4.0625 14.965) rotate(-74.954) scale(3.0094 5.6684)" gradientUnits="userSpaceOnUse"><stop stop-color="#572D2F" offset="0"/><stop stop-color="#572D2F" stop-opacity="0" offset="1"/></radialGradient><radialGradient id="v" cx="0" cy="0" r="1" gradientTransform="translate(5.0156 8.2933) rotate(70.56) scale(3.0985 4.7485)" gradientUnits="userSpaceOnUse"><stop stop-color="#8D6B67" offset=".12082"/><stop stop-color="#8D6B67" stop-opacity="0" offset=".4961"/></radialGradient><radialGradient id="u" cx="0" cy="0" r="1" gradientTransform="translate(9.1875 6.9652) rotate(109.16) scale(5.6181 5.9098)" gradientUnits="userSpaceOnUse"><stop stop-color="#F5BD93" offset=".0055866"/><stop stop-color="#F5A678" offset="1"/></radialGradient><radialGradient id="s" cx="0" cy="0" r="1" gradientTransform="translate(10.438 7.3402) rotate(139.6) scale(1.9287 8.0372)" gradientUnits="userSpaceOnUse"><stop stop-color="#FFDFA9" offset="0"/><stop stop-color="#FFDFA9" stop-opacity="0" offset="1"/></radialGradient><radialGradient id="r" cx="0" cy="0" r="1" gradientTransform="translate(7.5785 12.7) rotate(-90) scale(1.7969 4.2809)" gradientUnits="userSpaceOnUse"><stop stop-color="#C87554" offset="0"/><stop stop-color="#C87554" stop-opacity="0" offset="1"/></radialGradient><radialGradient id="q" cx="0" cy="0" r="1" gradientTransform="translate(6.5156 8.309) rotate(11.079) scale(2.2768 2.5339)" gradientUnits="userSpaceOnUse"><stop stop-color="#C78D62" offset=".60585"/><stop stop-color="#C78D62" stop-opacity="0" offset=".83231"/></radialGradient><linearGradient id="p" x1="6.0312" x2="7.0625" y1="15.333" y2="15.333" gradientUnits="userSpaceOnUse"><stop stop-color="#594C4F" offset="0"/><stop stop-color="#31232C" offset=".85606"/></linearGradient><linearGradient id="o" x1="7.2236" x2="7.2236" y1="16.559" y2="15.832" gradientUnits="userSpaceOnUse"><stop stop-color="#552D52" offset="0"/><stop stop-color="#552D52" stop-opacity="0" offset="1"/></linearGradient><radialGradient id="n" cx="0" cy="0" r="1" gradientTransform="translate(6.3984 16.27) rotate(-90) scale(2.125 1.0665)" gradientUnits="userSpaceOnUse"><stop stop-color="#392833" stop-opacity="0" offset=".77574"/><stop stop-color="#2B1B25" offset="1"/></radialGradient><linearGradient id="m" x1="9.0156" x2="9.0156" y1="9.0004" y2="12.981" gradientUnits="userSpaceOnUse"><stop stop-color="#FFDFA9" offset="0"/><stop stop-color="#FFDFA9" stop-opacity="0" offset="1"/></linearGradient><linearGradient id="l" x1="30.109" x2="30.109" y1="23.137" y2="25.34" gradientUnits="userSpaceOnUse"><stop stop-color="#998C8C" offset="0"/><stop stop-color="#998C8C" stop-opacity="0" offset="1"/></linearGradient><linearGradient id="k" x1="20.375" x2="10.688" y1="10.809" y2="10.809" gradientUnits="userSpaceOnUse"><stop stop-color="#8D6B67" offset="0"/><stop stop-color="#8D6B67" stop-opacity="0" offset=".86875"/></linearGradient><linearGradient id="j" x1="15.226" x2="8.9298" y1="19.968" y2="19.968" gradientUnits="userSpaceOnUse"><stop stop-color="#8D6B67" offset="0"/><stop stop-color="#8D6B67" stop-opacity="0" offset=".72549"/></linearGradient><linearGradient id="h" x1="22" x2="19.281" y1="24.215" y2="33.34" gradientUnits="userSpaceOnUse"><stop stop-color="#745155" offset="0"/><stop stop-color="#987176" stop-opacity="0" offset="1"/></linearGradient><linearGradient id="g" x1="25.816" x2="22.367" y1="24.965" y2="17.776" gradientUnits="userSpaceOnUse"><stop stop-color="#BC8A7E" offset=".52297"/><stop stop-color="#BC8A7E" stop-opacity="0" offset="1"/></linearGradient><radialGradient id="f" cx="0" cy="0" r="1" gradientTransform="translate(27.385 13.996) rotate(180) scale(7.738 4.5625)" gradientUnits="userSpaceOnUse"><stop stop-color="#BC8A7E" offset=".0007533"/><stop stop-color="#BC8A7E" stop-opacity="0" offset="1"/></radialGradient></defs></svg>
