<svg fill="none" viewBox="0 0 32 32" xmlns="http://www.w3.org/2000/svg"><path d="m17.875 22.713c-0.1825-0.5725-0.8905-1.0244-1.8125-0.9159-1.4468 0.1702-2.7146 0.4677-3.7656 0.9159-0.3683 0.1571-0.9135-0.2391-0.6549-0.5448l1.7266-2.0416c0.4006-0.4499 0.3891-1.1391-0.047-1.5477-0.447-0.4114-0.9917-0.3576-1.5535 0.0687-0.22 0.1669-1.0962 0.9933-1.7369 1.587-0.37244 0.3453-0.9687 0.3594-0.9687-0.3906l0.4931-3.7245c0.12266-0.5831-0.25581-1.1621-0.83898-1.2848s-1.2033-0.1051-1.326 0.4781l-0.73088 4.0362c-0.32321 1.5406-1.1578 2.9967-2.2066 4.1669-1.0469 0.9844-2.3282 2.625-1.3282 3.8594l2.4062 2.2305c1.2344 1.082 2.9087-0.7854 3.8227-1.8076 1.0517-1.1811 2.2511-1.9986 3.7554-2.4876l4-1.0448c0.5726-0.1825 0.959-0.9772 0.7656-1.5528z" fill="#7FCF71"/><path d="m17.875 22.713c-0.1825-0.5725-0.8905-1.0244-1.8125-0.9159-1.4468 0.1702-2.7146 0.4677-3.7656 0.9159-0.3683 0.1571-0.9135-0.2391-0.6549-0.5448l1.7266-2.0416c0.4006-0.4499 0.3891-1.1391-0.047-1.5477-0.447-0.4114-0.9917-0.3576-1.5535 0.0687-0.22 0.1669-1.0962 0.9933-1.7369 1.587-0.37244 0.3453-0.9687 0.3594-0.9687-0.3906l0.4931-3.7245c0.12266-0.5831-0.25581-1.1621-0.83898-1.2848s-1.2033-0.1051-1.326 0.4781l-0.73088 4.0362c-0.32321 1.5406-1.1578 2.9967-2.2066 4.1669-1.0469 0.9844-2.3282 2.625-1.3282 3.8594l2.4062 2.2305c1.2344 1.082 2.9087-0.7854 3.8227-1.8076 1.0517-1.1811 2.2511-1.9986 3.7554-2.4876l4-1.0448c0.5726-0.1825 0.959-0.9772 0.7656-1.5528z" fill="url(#x)"/><path d="m17.875 22.713c-0.1825-0.5725-0.8905-1.0244-1.8125-0.9159-1.4468 0.1702-2.7146 0.4677-3.7656 0.9159-0.3683 0.1571-0.9135-0.2391-0.6549-0.5448l1.7266-2.0416c0.4006-0.4499 0.3891-1.1391-0.047-1.5477-0.447-0.4114-0.9917-0.3576-1.5535 0.0687-0.22 0.1669-1.0962 0.9933-1.7369 1.587-0.37244 0.3453-0.9687 0.3594-0.9687-0.3906l0.4931-3.7245c0.12266-0.5831-0.25581-1.1621-0.83898-1.2848s-1.2033-0.1051-1.326 0.4781l-0.73088 4.0362c-0.32321 1.5406-1.1578 2.9967-2.2066 4.1669-1.0469 0.9844-2.3282 2.625-1.3282 3.8594l2.4062 2.2305c1.2344 1.082 2.9087-0.7854 3.8227-1.8076 1.0517-1.1811 2.2511-1.9986 3.7554-2.4876l4-1.0448c0.5726-0.1825 0.959-0.9772 0.7656-1.5528z" fill="url(#m)"/><path d="m17.875 22.713c-0.1825-0.5725-0.8905-1.0244-1.8125-0.9159-1.4468 0.1702-2.7146 0.4677-3.7656 0.9159-0.3683 0.1571-0.9135-0.2391-0.6549-0.5448l1.7266-2.0416c0.4006-0.4499 0.3891-1.1391-0.047-1.5477-0.447-0.4114-0.9917-0.3576-1.5535 0.0687-0.22 0.1669-1.0962 0.9933-1.7369 1.587-0.37244 0.3453-0.9687 0.3594-0.9687-0.3906l0.4931-3.7245c0.12266-0.5831-0.25581-1.1621-0.83898-1.2848s-1.2033-0.1051-1.326 0.4781l-0.73088 4.0362c-0.32321 1.5406-1.1578 2.9967-2.2066 4.1669-1.0469 0.9844-2.3282 2.625-1.3282 3.8594l2.4062 2.2305c1.2344 1.082 2.9087-0.7854 3.8227-1.8076 1.0517-1.1811 2.2511-1.9986 3.7554-2.4876l4-1.0448c0.5726-0.1825 0.959-0.9772 0.7656-1.5528z" fill="url(#h)"/><path d="m17.875 22.713c-0.1825-0.5725-0.8905-1.0244-1.8125-0.9159-1.4468 0.1702-2.7146 0.4677-3.7656 0.9159-0.3683 0.1571-0.9135-0.2391-0.6549-0.5448l1.7266-2.0416c0.4006-0.4499 0.3891-1.1391-0.047-1.5477-0.447-0.4114-0.9917-0.3576-1.5535 0.0687-0.22 0.1669-1.0962 0.9933-1.7369 1.587-0.37244 0.3453-0.9687 0.3594-0.9687-0.3906l0.4931-3.7245c0.12266-0.5831-0.25581-1.1621-0.83898-1.2848s-1.2033-0.1051-1.326 0.4781l-0.73088 4.0362c-0.32321 1.5406-1.1578 2.9967-2.2066 4.1669-1.0469 0.9844-2.3282 2.625-1.3282 3.8594l2.4062 2.2305c1.2344 1.082 2.9087-0.7854 3.8227-1.8076 1.0517-1.1811 2.2511-1.9986 3.7554-2.4876l4-1.0448c0.5726-0.1825 0.959-0.9772 0.7656-1.5528z" fill="url(#g)"/><path d="m17.875 22.713c-0.1825-0.5725-0.8905-1.0244-1.8125-0.9159-1.4468 0.1702-2.7146 0.4677-3.7656 0.9159-0.3683 0.1571-0.9135-0.2391-0.6549-0.5448l1.7266-2.0416c0.4006-0.4499 0.3891-1.1391-0.047-1.5477-0.447-0.4114-0.9917-0.3576-1.5535 0.0687-0.22 0.1669-1.0962 0.9933-1.7369 1.587-0.37244 0.3453-0.9687 0.3594-0.9687-0.3906l0.4931-3.7245c0.12266-0.5831-0.25581-1.1621-0.83898-1.2848s-1.2033-0.1051-1.326 0.4781l-0.73088 4.0362c-0.32321 1.5406-1.1578 2.9967-2.2066 4.1669-1.0469 0.9844-2.3282 2.625-1.3282 3.8594l2.4062 2.2305c1.2344 1.082 2.9087-0.7854 3.8227-1.8076 1.0517-1.1811 2.2511-1.9986 3.7554-2.4876l4-1.0448c0.5726-0.1825 0.959-0.9772 0.7656-1.5528z" fill="url(#f)"/><g filter="url(#ah)"><path d="m9.2811 14.951c0.00755-0.2761-0.21011-0.506-0.48615-0.5135-0.27604-0.0076-0.50593 0.2101-0.51347 0.4861l0.99962 0.0274zm-2.2027 6.3926c-0.069 0.2674 0.09182 0.5401 0.3592 0.6091s0.54008-0.0918 0.60908-0.3592l-0.96828-0.2499zm1.2031-6.42c-0.02469 0.9036-0.25779 2.2549-0.52471 3.5283-0.26469 1.2628-0.55424 2.4107-0.67837 2.8917l0.96828 0.2499c0.12587-0.4878 0.41965-1.6523 0.68882-2.9364 0.26693-1.2735 0.51821-2.7035 0.5456-3.7061l-0.99962-0.0274z" fill="url(#e)"/></g><g filter="url(#ag)"><path d="m13.419 17.911c0.17-0.2176 0.4843-0.256 0.7018-0.086 0.2176 0.1701 0.2561 0.4844 0.086 0.7019l-0.7878-0.6159zm-3.0891 5.1496c-0.1714 0.2165-0.48587 0.253-0.70237 0.0816s-0.25305-0.4859-0.08164-0.7024l0.78401 0.6208zm3.8769-4.5337c-0.6818 0.872-1.5107 1.827-2.2376 2.6516-0.7367 0.8358-1.3533 1.5209-1.6393 1.8821l-0.78401-0.6208c0.30781-0.3887 0.95681-1.1099 1.6732-1.9226 0.7262-0.8238 1.5379-1.7595 2.1999-2.6062l0.7878 0.6159z" fill="url(#d)"/></g><path d="m27.847 15.648c-0.1201-0.1705-0.1335-0.3956-0.0319-0.5778 0.7011-1.2569 1.1006-2.705 1.1006-4.2465 0-4.8212-3.9083-8.7296-8.7296-8.7296-1.8786 0-3.6187 0.59344-5.0429 1.6031-0.1699 0.12046-0.3948 0.13148-0.5772 0.03087-0.9712-0.53572-2.0876-0.84057-3.2752-0.84057-3.7504 0-6.7908 3.0403-6.7908 6.7908 0 3.174 2.1774 5.8392 5.12 6.5838 0.25367 0.0641 0.42981 0.2996 0.42711 0.5613-1e-4 0.0167-2e-4 0.0335-2e-4 0.0503 0 2.6924 2.1826 4.875 4.875 4.875 0.1611 0 0.3203-0.0078 0.4774-0.0231 0.2502-0.0243 0.4915 0.1177 0.585 0.351 1.0015 2.501 3.4477 4.2676 6.3065 4.2676 3.7505 0 6.7908-3.0404 6.7908-6.7909 0-1.4536-0.4568-2.8006-1.2346-3.9053z" clip-rule="evenodd" fill="url(#c)" fill-rule="evenodd"/><circle cx="11.291" cy="9.678" r="6.7908" fill="#1BAA74"/><circle cx="11.291" cy="9.678" r="6.7908" fill="url(#b)"/><circle cx="11.291" cy="9.678" r="6.7908" fill="url(#a)"/><circle cx="11.291" cy="9.678" r="6.7908" fill="url(#w)"/><circle cx="11.291" cy="9.678" r="6.7908" fill="url(#v)"/><circle cx="22.291" cy="19.553" r="6.7908" fill="#1EA392"/><circle cx="22.291" cy="19.553" r="6.7908" fill="url(#u)"/><circle cx="22.291" cy="19.553" r="6.7908" fill="url(#t)"/><circle cx="22.291" cy="19.553" r="6.7908" fill="url(#s)"/><circle cx="22.291" cy="19.553" r="6.7908" fill="url(#r)"/><path d="m28.916 10.823c0 1.6621-0.4645 3.2157-1.2707 4.538l-10.84 2.8418c-1.4219-1.0312-2.5781-1.9843-3.7813-3.0937l1.7578-11.266c1.4798-1.1535 3.3834-1.75 5.405-1.75 4.8212 0 8.7296 3.9084 8.7296 8.7296z" fill="#1EB776"/><path d="m28.916 10.823c0 1.6621-0.4645 3.2157-1.2707 4.538l-10.84 2.8418c-1.4219-1.0312-2.5781-1.9843-3.7813-3.0937l1.7578-11.266c1.4798-1.1535 3.3834-1.75 5.405-1.75 4.8212 0 8.7296 3.9084 8.7296 8.7296z" fill="url(#q)"/><path d="m28.916 10.823c0 1.6621-0.4645 3.2157-1.2707 4.538l-10.84 2.8418c-1.4219-1.0312-2.5781-1.9843-3.7813-3.0937l1.7578-11.266c1.4798-1.1535 3.3834-1.75 5.405-1.75 4.8212 0 8.7296 3.9084 8.7296 8.7296z" fill="url(#p)"/><path d="m16.797 18.219-0.9522 3.4423c-0.2988 0.0572-0.6073 0.0872-0.9228 0.0872-2.6924 0-4.875-2.1826-4.875-4.875 0-0.0913 0.0025-0.1821 0.0074-0.2722l2.9613-1.5073c1.3125 0.8437 2.7509 2.0468 3.7813 3.125z" fill="#1A8B87"/><path d="m16.797 18.219-0.9522 3.4423c-0.2988 0.0572-0.6073 0.0872-0.9228 0.0872-2.6924 0-4.875-2.1826-4.875-4.875 0-0.0913 0.0025-0.1821 0.0074-0.2722l2.9613-1.5073c1.3125 0.8437 2.7509 2.0468 3.7813 3.125z" fill="url(#o)"/><path d="m16.797 18.219-0.9522 3.4423c-0.2988 0.0572-0.6073 0.0872-0.9228 0.0872-2.6924 0-4.875-2.1826-4.875-4.875 0-0.0913 0.0025-0.1821 0.0074-0.2722l2.9613-1.5073c1.3125 0.8437 2.7509 2.0468 3.7813 3.125z" fill="url(#n)"/><path d="m16.797 18.219-0.9522 3.4423c-0.2988 0.0572-0.6073 0.0872-0.9228 0.0872-2.6924 0-4.875-2.1826-4.875-4.875 0-0.0913 0.0025-0.1821 0.0074-0.2722l2.9613-1.5073c1.3125 0.8437 2.7509 2.0468 3.7813 3.125z" fill="url(#l)"/><g filter="url(#af)"><path d="m17.156 18.219 9.8126-2.6719" stroke="url(#k)" stroke-linecap="round"/></g><g filter="url(#ae)"><path d="m13.188 14.75 1.75-10.281" stroke="url(#j)" stroke-linecap="round"/></g><g filter="url(#ad)"><path d="m16.812 18.031-3.5624-2.9375" stroke="#157A7E" stroke-linecap="round"/></g><g filter="url(#ac)"><path d="m13.219 15.219-2.6875 0.9688" stroke="#0C8184" stroke-linecap="round"/></g><g filter="url(#ab)"><path d="m16.125 21.188 0.7812-2.6562" stroke="#14786C" stroke-linecap="round"/></g><g filter="url(#aa)"><path d="m20.25 17.375 7.3125-1.9531s-2.1875 0.875-3.5078 1.2109c-1.3203 0.336-3.8047 0.7422-3.8047 0.7422z" fill="url(#i)"/></g><g filter="url(#z)"><path d="m8.1719 22.047 0.3125-1.1563 0.54687 0.2188-0.85937 0.9375z" fill="#4FCC88"/></g><g filter="url(#y)"><path d="m10.735 24.163 0.867-0.584-0.3357-0.4316-0.5313 1.0156z" fill="#76CD7D"/></g><defs><filter id="ah" x="6.0624" y="13.438" width="4.2189" height="9.5314" color-interpolation-filters="sRGB" filterUnits="userSpaceOnUse"><feFlood flood-opacity="0" result="BackgroundImageFix"/><feBlend in="SourceGraphic" in2="BackgroundImageFix" result="shape"/><feGaussianBlur result="effect1_foregroundBlur_18_32465" stdDeviation="0.5"/></filter><filter id="ag" x="8.4375" y="16.719" width="6.875" height="7.5313" color-interpolation-filters="sRGB" filterUnits="userSpaceOnUse"><feFlood flood-opacity="0" result="BackgroundImageFix"/><feBlend in="SourceGraphic" in2="BackgroundImageFix" result="shape"/><feGaussianBlur result="effect1_foregroundBlur_18_32465" stdDeviation="0.5"/></filter><filter id="af" x="15.656" y="14.047" width="12.813" height="5.6721" color-interpolation-filters="sRGB" filterUnits="userSpaceOnUse"><feFlood flood-opacity="0" result="BackgroundImageFix"/><feBlend in="SourceGraphic" in2="BackgroundImageFix" result="shape"/><feGaussianBlur result="effect1_foregroundBlur_18_32465" stdDeviation="0.5"/></filter><filter id="ae" x="11.687" y="2.9687" width="4.7501" height="13.281" color-interpolation-filters="sRGB" filterUnits="userSpaceOnUse"><feFlood flood-opacity="0" result="BackgroundImageFix"/><feBlend in="SourceGraphic" in2="BackgroundImageFix" result="shape"/><feGaussianBlur result="effect1_foregroundBlur_18_32465" stdDeviation="0.5"/></filter><filter id="ad" x="11.75" y="13.594" width="6.5624" height="5.9376" color-interpolation-filters="sRGB" filterUnits="userSpaceOnUse"><feFlood flood-opacity="0" result="BackgroundImageFix"/><feBlend in="SourceGraphic" in2="BackgroundImageFix" result="shape"/><feGaussianBlur result="effect1_foregroundBlur_18_32465" stdDeviation="0.5"/></filter><filter id="ac" x="9.0311" y="13.719" width="5.6877" height="3.9691" color-interpolation-filters="sRGB" filterUnits="userSpaceOnUse"><feFlood flood-opacity="0" result="BackgroundImageFix"/><feBlend in="SourceGraphic" in2="BackgroundImageFix" result="shape"/><feGaussianBlur result="effect1_foregroundBlur_18_32465" stdDeviation="0.5"/></filter><filter id="ab" x="14.625" y="17.031" width="3.7815" height="5.6565" color-interpolation-filters="sRGB" filterUnits="userSpaceOnUse"><feFlood flood-opacity="0" result="BackgroundImageFix"/><feBlend in="SourceGraphic" in2="BackgroundImageFix" result="shape"/><feGaussianBlur result="effect1_foregroundBlur_18_32465" stdDeviation="0.5"/></filter><filter id="aa" x="20" y="15.172" width="7.8125" height="2.4531" color-interpolation-filters="sRGB" filterUnits="userSpaceOnUse"><feFlood flood-opacity="0" result="BackgroundImageFix"/><feBlend in="SourceGraphic" in2="BackgroundImageFix" result="shape"/><feGaussianBlur result="effect1_foregroundBlur_18_32465" stdDeviation="0.125"/></filter><filter id="z" x="7.6719" y="20.391" width="1.8594" height="2.1562" color-interpolation-filters="sRGB" filterUnits="userSpaceOnUse"><feFlood flood-opacity="0" result="BackgroundImageFix"/><feBlend in="SourceGraphic" in2="BackgroundImageFix" result="shape"/><feGaussianBlur result="effect1_foregroundBlur_18_32465" stdDeviation="0.25"/></filter><filter id="y" x="10.235" y="22.647" width="1.8669" height="2.0156" color-interpolation-filters="sRGB" filterUnits="userSpaceOnUse"><feFlood flood-opacity="0" result="BackgroundImageFix"/><feBlend in="SourceGraphic" in2="BackgroundImageFix" result="shape"/><feGaussianBlur result="effect1_foregroundBlur_18_32465" stdDeviation="0.25"/></filter><linearGradient id="x" x1="14.875" x2="4.5" y1="17.125" y2="29.932" gradientUnits="userSpaceOnUse"><stop stop-color="#288742" offset=".2726"/><stop stop-color="#45BD6C" offset=".47359"/><stop stop-color="#7ED071" offset=".67659"/><stop stop-color="#85CE6E" offset="1"/></linearGradient><linearGradient id="m" x1=".25" x2="5.375" y1="30.625" y2="25.188" gradientUnits="userSpaceOnUse"><stop stop-color="#6BA871" offset=".048598"/><stop stop-color="#417E4A" offset=".4243"/><stop stop-color="#68AC62" stop-opacity="0" offset=".81216"/></linearGradient><radialGradient id="h" cx="0" cy="0" r="1" gradientTransform="translate(11.062 27.625) rotate(137) scale(6.3236 2.7155)" gradientUnits="userSpaceOnUse"><stop stop-color="#85C671" offset="0"/><stop stop-color="#6EAC66" stop-opacity="0" offset="1"/></radialGradient><radialGradient id="g" cx="0" cy="0" r="1" gradientTransform="translate(16.812 24.875) rotate(155.12) scale(7.13 3.2697)" gradientUnits="userSpaceOnUse"><stop stop-color="#43AE9E" offset="0"/><stop stop-color="#379C89" stop-opacity="0" offset="1"/></radialGradient><radialGradient id="f" cx="0" cy="0" r="1" gradientTransform="translate(4.6875 21.375) rotate(121.88) scale(8.7583 3.8009)" gradientUnits="userSpaceOnUse"><stop stop-color="#1C790D" offset="0"/><stop stop-color="#6BAA55" stop-opacity="0" offset="1"/></radialGradient><linearGradient id="e" x1="8.1719" x2="8.1719" y1="14.938" y2="21.469" gradientUnits="userSpaceOnUse"><stop stop-color="#27A682" offset="0"/><stop stop-color="#37BA83" offset="1"/></linearGradient><linearGradient id="d" x1="14.003" x2="9.7468" y1="18.415" y2="22.554" gradientUnits="userSpaceOnUse"><stop stop-color="#27A2A6" offset="0"/><stop stop-color="#4DBF85" offset="1"/></linearGradient><linearGradient id="c" x1="25.562" x2="12.156" y1="4.8125" y2="21.5" gradientUnits="userSpaceOnUse"><stop stop-color="#20BF72" offset="0"/><stop stop-color="#17836E" offset="1"/></linearGradient><radialGradient id="b" cx="0" cy="0" r="1" gradientTransform="translate(14.5 6.625) rotate(145.22) scale(8.218)" gradientUnits="userSpaceOnUse"><stop stop-color="#49C88A" offset="0"/><stop stop-color="#1BAB6D" offset="1"/></radialGradient><radialGradient id="a" cx="0" cy="0" r="1" gradientTransform="translate(12.75 6.375) rotate(169.88) scale(8.8884)" gradientUnits="userSpaceOnUse"><stop stop-color="#29C675" offset=".43288"/><stop stop-color="#278259" offset=".91054"/></radialGradient><radialGradient id="w" cx="0" cy="0" r="1" gradientTransform="translate(14.25 8.0625) rotate(109.25) scale(4.1707)" gradientUnits="userSpaceOnUse"><stop stop-color="#73DCAA" offset="0"/><stop stop-color="#50C78F" stop-opacity="0" offset="1"/></radialGradient><radialGradient id="v" cx="0" cy="0" r="1" gradientTransform="translate(10.625 17.438) rotate(88.516) scale(12.066)" gradientUnits="userSpaceOnUse"><stop stop-color="#0B777C" offset="0"/><stop stop-color="#179693" offset=".48887"/><stop stop-color="#189B93" stop-opacity="0" offset="1"/></radialGradient><radialGradient id="u" cx="0" cy="0" r="1" gradientTransform="translate(24.688 17.938) rotate(100.34) scale(9.4027)" gradientUnits="userSpaceOnUse"><stop stop-color="#5AD299" offset="0"/><stop stop-color="#33B784" stop-opacity="0" offset="1"/></radialGradient><radialGradient id="t" cx="0" cy="0" r="1" gradientTransform="translate(26.188 18.688) rotate(115.02) scale(13.449)" gradientUnits="userSpaceOnUse"><stop stop-color="#3272A6" stop-opacity="0" offset=".27709"/><stop stop-color="#2572A1" offset=".79023"/></radialGradient><radialGradient id="s" cx="0" cy="0" r="1" gradientTransform="translate(23.625 22.188) rotate(48.062) scale(10.754 41.516)" gradientUnits="userSpaceOnUse"><stop stop-color="#157A6A" stop-opacity="0" offset=".2994"/><stop stop-color="#187A51" offset=".84922"/></radialGradient><radialGradient id="r" cx="0" cy="0" r="1" gradientTransform="translate(26.25 16.938) rotate(128.29) scale(4.5389)" gradientUnits="userSpaceOnUse"><stop stop-color="#52D292" offset="0"/><stop stop-color="#58D196" stop-opacity="0" offset="1"/></radialGradient><radialGradient id="q" cx="0" cy="0" r="1" gradientTransform="translate(24.375 7.6875) rotate(141.04) scale(13.021 12.846)" gradientUnits="userSpaceOnUse"><stop stop-color="#52E691" offset="0"/><stop stop-color="#20C376" offset=".53414"/><stop stop-color="#1DA860" offset="1"/></radialGradient><radialGradient id="p" cx="0" cy="0" r="1" gradientTransform="translate(12.5 20.562) rotate(-20.788) scale(14.44 14.246)" gradientUnits="userSpaceOnUse"><stop stop-color="#117B7F" offset=".28106"/><stop stop-color="#189D96" offset=".61045"/><stop stop-color="#179C95" stop-opacity="0" offset="1"/></radialGradient><radialGradient id="o" cx="0" cy="0" r="1" gradientTransform="translate(14.938 16.969) rotate(136.32) scale(3.8459 3.9011)" gradientUnits="userSpaceOnUse"><stop stop-color="#208A83" offset="0"/><stop stop-color="#208C82" stop-opacity="0" offset="1"/></radialGradient><radialGradient id="n" cx="0" cy="0" r="1" gradientTransform="translate(15.062 16.812) rotate(93.331) scale(11.832 14.095)" gradientUnits="userSpaceOnUse"><stop stop-color="#09687D" stop-opacity="0" offset=".21082"/><stop stop-color="#187796" offset=".47433"/><stop stop-color="#146B89" offset=".56925"/></radialGradient><linearGradient id="l" x1="11.688" x2="13" y1="15.625" y2="17.125" gradientUnits="userSpaceOnUse"><stop stop-color="#17836D" offset="0"/><stop stop-color="#158185" stop-opacity="0" offset="1"/></linearGradient><linearGradient id="k" x1="17.344" x2="27.156" y1="18.094" y2="15.5" gradientUnits="userSpaceOnUse"><stop stop-color="#157A7E" offset="0"/><stop stop-color="#2DC47F" offset="1"/></linearGradient><linearGradient id="j" x1="13.043" x2="14.583" y1="14.512" y2="4.4801" gradientUnits="userSpaceOnUse"><stop stop-color="#157A7E" offset="0"/><stop stop-color="#2DC47F" offset="1"/></linearGradient><linearGradient id="i" x1="27.125" x2="21.406" y1="15.781" y2="17.375" gradientUnits="userSpaceOnUse"><stop stop-color="#64D9A1" offset="0"/><stop stop-color="#57CD97" stop-opacity="0" offset="1"/></linearGradient></defs></svg>
