<svg fill="none" viewBox="0 0 32 32" xmlns="http://www.w3.org/2000/svg"><g filter="url(#at)"><path d="m25.421 22.004v-1.9037h-3.1407v3.4844l2.4372 2.2143c0.1907 0.1733 0.3072 0.4136 0.3251 0.6707l0.2183 3.1327c0.0109 0.1572 0.1417 0.2792 0.2993 0.2792h1.2771c0.154 0 0.283-0.1166 0.2985-0.2698l0.3676-3.623c0.0956-0.9425-0.2596-1.8749-0.9582-2.5149l-0.7997-0.7326c-0.2068-0.1894-0.3245-0.4569-0.3245-0.7373z" fill="#E16B3C"/><path d="m25.421 22.004v-1.9037h-3.1407v3.4844l2.4372 2.2143c0.1907 0.1733 0.3072 0.4136 0.3251 0.6707l0.2183 3.1327c0.0109 0.1572 0.1417 0.2792 0.2993 0.2792h1.2771c0.154 0 0.283-0.1166 0.2985-0.2698l0.3676-3.623c0.0956-0.9425-0.2596-1.8749-0.9582-2.5149l-0.7997-0.7326c-0.2068-0.1894-0.3245-0.4569-0.3245-0.7373z" fill="url(#an)"/></g><path d="m25.421 22.004v-1.9037h-3.1407v3.4844l2.4372 2.2143c0.1907 0.1733 0.3072 0.4136 0.3251 0.6707l0.2183 3.1327c0.0109 0.1572 0.1417 0.2792 0.2993 0.2792h1.2771c0.154 0 0.283-0.1166 0.2985-0.2698l0.3676-3.623c0.0956-0.9425-0.2596-1.8749-0.9582-2.5149l-0.7997-0.7326c-0.2068-0.1894-0.3245-0.4569-0.3245-0.7373z" fill="url(#ac)"/><path d="m17.03 30h-1.5c-0.14 0-0.25-0.11-0.25-0.25v-4.17c0-0.14-0.05-0.28-0.14-0.4l-2.63-3.2 1.55-1.27 2.87 3.5c0.22 0.28 0.35 0.63 0.35 0.99v4.55c0 0.14-0.11 0.25-0.25 0.25z" fill="url(#r)"/><path d="m12.19 14h9.34c1.8796 0 3.9146 1.3851 4.273 3.1897 0.0336 0.1688 0.1352 0.319 0.2873 0.3997 0.8272 0.439 1.9375 1.1928 2.6714 2.5193 0.3542 0.64 0.4558 1.3546 0.4558 2.0155v2.4757c0 0.2762-0.2239 0.5-0.5 0.5-0.2762 0-0.5-0.2238-0.5-0.5v-2.4757c0-0.5692-0.0894-1.0952-0.3307-1.5314-0.503-0.9091-1.2261-1.5013-1.8795-1.9003-0.0657-0.0401-0.1488 0.0079-0.1488 0.0849v0.7444c0 1.4219-1.2985 2.4782-2.1985 2.4782-0.21 0-0.38 0.17-0.38 0.38v2.79c0 0.54-0.18 1.07-0.5 1.5l-2.35 3.13c-0.09 0.13-0.24 0.2-0.4 0.2h-1.35c-0.18 0-0.3-0.2-0.22-0.37l1.69-3.37c0.08-0.17 0.13-0.37 0.13-0.56v-3.39c0-0.17-0.14-0.31-0.31-0.31h-6.38c-0.17 0-0.31 0.14-0.31 0.31v2.2c0 0.32-0.06 0.64-0.18 0.94l-1.79 4.39c-0.04 0.1-0.13 0.16-0.23 0.16h-1.64c-0.17 0-0.29001-0.18-0.23001-0.35l2-4.89c0.05-0.11 0.07-0.23 0.07-0.35v-2.24c0-0.14-0.1-0.26-0.24-0.3-1.45-0.37-2.58-1.55-2.9-3.02l-2.97-13.35h4.13l1.67 7.52c0.13 0.57 0.63 0.98 1.22 0.98z" fill="#E09435"/><path d="m12.19 14h9.34c1.8796 0 3.9146 1.3851 4.273 3.1897 0.0336 0.1688 0.1352 0.319 0.2873 0.3997 0.8272 0.439 1.9375 1.1928 2.6714 2.5193 0.3542 0.64 0.4558 1.3546 0.4558 2.0155v2.4757c0 0.2762-0.2239 0.5-0.5 0.5-0.2762 0-0.5-0.2238-0.5-0.5v-2.4757c0-0.5692-0.0894-1.0952-0.3307-1.5314-0.503-0.9091-1.2261-1.5013-1.8795-1.9003-0.0657-0.0401-0.1488 0.0079-0.1488 0.0849v0.7444c0 1.4219-1.2985 2.4782-2.1985 2.4782-0.21 0-0.38 0.17-0.38 0.38v2.79c0 0.54-0.18 1.07-0.5 1.5l-2.35 3.13c-0.09 0.13-0.24 0.2-0.4 0.2h-1.35c-0.18 0-0.3-0.2-0.22-0.37l1.69-3.37c0.08-0.17 0.13-0.37 0.13-0.56v-3.39c0-0.17-0.14-0.31-0.31-0.31h-6.38c-0.17 0-0.31 0.14-0.31 0.31v2.2c0 0.32-0.06 0.64-0.18 0.94l-1.79 4.39c-0.04 0.1-0.13 0.16-0.23 0.16h-1.64c-0.17 0-0.29001-0.18-0.23001-0.35l2-4.89c0.05-0.11 0.07-0.23 0.07-0.35v-2.24c0-0.14-0.1-0.26-0.24-0.3-1.45-0.37-2.58-1.55-2.9-3.02l-2.97-13.35h4.13l1.67 7.52c0.13 0.57 0.63 0.98 1.22 0.98z" fill="url(#g)"/><path d="m12.19 14h9.34c1.8796 0 3.9146 1.3851 4.273 3.1897 0.0336 0.1688 0.1352 0.319 0.2873 0.3997 0.8272 0.439 1.9375 1.1928 2.6714 2.5193 0.3542 0.64 0.4558 1.3546 0.4558 2.0155v2.4757c0 0.2762-0.2239 0.5-0.5 0.5-0.2762 0-0.5-0.2238-0.5-0.5v-2.4757c0-0.5692-0.0894-1.0952-0.3307-1.5314-0.503-0.9091-1.2261-1.5013-1.8795-1.9003-0.0657-0.0401-0.1488 0.0079-0.1488 0.0849v0.7444c0 1.4219-1.2985 2.4782-2.1985 2.4782-0.21 0-0.38 0.17-0.38 0.38v2.79c0 0.54-0.18 1.07-0.5 1.5l-2.35 3.13c-0.09 0.13-0.24 0.2-0.4 0.2h-1.35c-0.18 0-0.3-0.2-0.22-0.37l1.69-3.37c0.08-0.17 0.13-0.37 0.13-0.56v-3.39c0-0.17-0.14-0.31-0.31-0.31h-6.38c-0.17 0-0.31 0.14-0.31 0.31v2.2c0 0.32-0.06 0.64-0.18 0.94l-1.79 4.39c-0.04 0.1-0.13 0.16-0.23 0.16h-1.64c-0.17 0-0.29001-0.18-0.23001-0.35l2-4.89c0.05-0.11 0.07-0.23 0.07-0.35v-2.24c0-0.14-0.1-0.26-0.24-0.3-1.45-0.37-2.58-1.55-2.9-3.02l-2.97-13.35h4.13l1.67 7.52c0.13 0.57 0.63 0.98 1.22 0.98z" fill="url(#f)"/><path d="m12.19 14h9.34c1.8796 0 3.9146 1.3851 4.273 3.1897 0.0336 0.1688 0.1352 0.319 0.2873 0.3997 0.8272 0.439 1.9375 1.1928 2.6714 2.5193 0.3542 0.64 0.4558 1.3546 0.4558 2.0155v2.4757c0 0.2762-0.2239 0.5-0.5 0.5-0.2762 0-0.5-0.2238-0.5-0.5v-2.4757c0-0.5692-0.0894-1.0952-0.3307-1.5314-0.503-0.9091-1.2261-1.5013-1.8795-1.9003-0.0657-0.0401-0.1488 0.0079-0.1488 0.0849v0.7444c0 1.4219-1.2985 2.4782-2.1985 2.4782-0.21 0-0.38 0.17-0.38 0.38v2.79c0 0.54-0.18 1.07-0.5 1.5l-2.35 3.13c-0.09 0.13-0.24 0.2-0.4 0.2h-1.35c-0.18 0-0.3-0.2-0.22-0.37l1.69-3.37c0.08-0.17 0.13-0.37 0.13-0.56v-3.39c0-0.17-0.14-0.31-0.31-0.31h-6.38c-0.17 0-0.31 0.14-0.31 0.31v2.2c0 0.32-0.06 0.64-0.18 0.94l-1.79 4.39c-0.04 0.1-0.13 0.16-0.23 0.16h-1.64c-0.17 0-0.29001-0.18-0.23001-0.35l2-4.89c0.05-0.11 0.07-0.23 0.07-0.35v-2.24c0-0.14-0.1-0.26-0.24-0.3-1.45-0.37-2.58-1.55-2.9-3.02l-2.97-13.35h4.13l1.67 7.52c0.13 0.57 0.63 0.98 1.22 0.98z" fill="url(#e)"/><path d="m12.19 14h9.34c1.8796 0 3.9146 1.3851 4.273 3.1897 0.0336 0.1688 0.1352 0.319 0.2873 0.3997 0.8272 0.439 1.9375 1.1928 2.6714 2.5193 0.3542 0.64 0.4558 1.3546 0.4558 2.0155v2.4757c0 0.2762-0.2239 0.5-0.5 0.5-0.2762 0-0.5-0.2238-0.5-0.5v-2.4757c0-0.5692-0.0894-1.0952-0.3307-1.5314-0.503-0.9091-1.2261-1.5013-1.8795-1.9003-0.0657-0.0401-0.1488 0.0079-0.1488 0.0849v0.7444c0 1.4219-1.2985 2.4782-2.1985 2.4782-0.21 0-0.38 0.17-0.38 0.38v2.79c0 0.54-0.18 1.07-0.5 1.5l-2.35 3.13c-0.09 0.13-0.24 0.2-0.4 0.2h-1.35c-0.18 0-0.3-0.2-0.22-0.37l1.69-3.37c0.08-0.17 0.13-0.37 0.13-0.56v-3.39c0-0.17-0.14-0.31-0.31-0.31h-6.38c-0.17 0-0.31 0.14-0.31 0.31v2.2c0 0.32-0.06 0.64-0.18 0.94l-1.79 4.39c-0.04 0.1-0.13 0.16-0.23 0.16h-1.64c-0.17 0-0.29001-0.18-0.23001-0.35l2-4.89c0.05-0.11 0.07-0.23 0.07-0.35v-2.24c0-0.14-0.1-0.26-0.24-0.3-1.45-0.37-2.58-1.55-2.9-3.02l-2.97-13.35h4.13l1.67 7.52c0.13 0.57 0.63 0.98 1.22 0.98z" fill="url(#d)"/><path d="m12.19 14h9.34c1.8796 0 3.9146 1.3851 4.273 3.1897 0.0336 0.1688 0.1352 0.319 0.2873 0.3997 0.8272 0.439 1.9375 1.1928 2.6714 2.5193 0.3542 0.64 0.4558 1.3546 0.4558 2.0155v2.4757c0 0.2762-0.2239 0.5-0.5 0.5-0.2762 0-0.5-0.2238-0.5-0.5v-2.4757c0-0.5692-0.0894-1.0952-0.3307-1.5314-0.503-0.9091-1.2261-1.5013-1.8795-1.9003-0.0657-0.0401-0.1488 0.0079-0.1488 0.0849v0.7444c0 1.4219-1.2985 2.4782-2.1985 2.4782-0.21 0-0.38 0.17-0.38 0.38v2.79c0 0.54-0.18 1.07-0.5 1.5l-2.35 3.13c-0.09 0.13-0.24 0.2-0.4 0.2h-1.35c-0.18 0-0.3-0.2-0.22-0.37l1.69-3.37c0.08-0.17 0.13-0.37 0.13-0.56v-3.39c0-0.17-0.14-0.31-0.31-0.31h-6.38c-0.17 0-0.31 0.14-0.31 0.31v2.2c0 0.32-0.06 0.64-0.18 0.94l-1.79 4.39c-0.04 0.1-0.13 0.16-0.23 0.16h-1.64c-0.17 0-0.29001-0.18-0.23001-0.35l2-4.89c0.05-0.11 0.07-0.23 0.07-0.35v-2.24c0-0.14-0.1-0.26-0.24-0.3-1.45-0.37-2.58-1.55-2.9-3.02l-2.97-13.35h4.13l1.67 7.52c0.13 0.57 0.63 0.98 1.22 0.98z" fill="url(#c)"/><path d="m12.19 14h9.34c1.8796 0 3.9146 1.3851 4.273 3.1897 0.0336 0.1688 0.1352 0.319 0.2873 0.3997 0.8272 0.439 1.9375 1.1928 2.6714 2.5193 0.3542 0.64 0.4558 1.3546 0.4558 2.0155v2.4757c0 0.2762-0.2239 0.5-0.5 0.5-0.2762 0-0.5-0.2238-0.5-0.5v-2.4757c0-0.5692-0.0894-1.0952-0.3307-1.5314-0.503-0.9091-1.2261-1.5013-1.8795-1.9003-0.0657-0.0401-0.1488 0.0079-0.1488 0.0849v0.7444c0 1.4219-1.2985 2.4782-2.1985 2.4782-0.21 0-0.38 0.17-0.38 0.38v2.79c0 0.54-0.18 1.07-0.5 1.5l-2.35 3.13c-0.09 0.13-0.24 0.2-0.4 0.2h-1.35c-0.18 0-0.3-0.2-0.22-0.37l1.69-3.37c0.08-0.17 0.13-0.37 0.13-0.56v-3.39c0-0.17-0.14-0.31-0.31-0.31h-6.38c-0.17 0-0.31 0.14-0.31 0.31v2.2c0 0.32-0.06 0.64-0.18 0.94l-1.79 4.39c-0.04 0.1-0.13 0.16-0.23 0.16h-1.64c-0.17 0-0.29001-0.18-0.23001-0.35l2-4.89c0.05-0.11 0.07-0.23 0.07-0.35v-2.24c0-0.14-0.1-0.26-0.24-0.3-1.45-0.37-2.58-1.55-2.9-3.02l-2.97-13.35h4.13l1.67 7.52c0.13 0.57 0.63 0.98 1.22 0.98z" fill="url(#b)"/><path d="m12.19 14h9.34c1.8796 0 3.9146 1.3851 4.273 3.1897 0.0336 0.1688 0.1352 0.319 0.2873 0.3997 0.8272 0.439 1.9375 1.1928 2.6714 2.5193 0.3542 0.64 0.4558 1.3546 0.4558 2.0155v2.4757c0 0.2762-0.2239 0.5-0.5 0.5-0.2762 0-0.5-0.2238-0.5-0.5v-2.4757c0-0.5692-0.0894-1.0952-0.3307-1.5314-0.503-0.9091-1.2261-1.5013-1.8795-1.9003-0.0657-0.0401-0.1488 0.0079-0.1488 0.0849v0.7444c0 1.4219-1.2985 2.4782-2.1985 2.4782-0.21 0-0.38 0.17-0.38 0.38v2.79c0 0.54-0.18 1.07-0.5 1.5l-2.35 3.13c-0.09 0.13-0.24 0.2-0.4 0.2h-1.35c-0.18 0-0.3-0.2-0.22-0.37l1.69-3.37c0.08-0.17 0.13-0.37 0.13-0.56v-3.39c0-0.17-0.14-0.31-0.31-0.31h-6.38c-0.17 0-0.31 0.14-0.31 0.31v2.2c0 0.32-0.06 0.64-0.18 0.94l-1.79 4.39c-0.04 0.1-0.13 0.16-0.23 0.16h-1.64c-0.17 0-0.29001-0.18-0.23001-0.35l2-4.89c0.05-0.11 0.07-0.23 0.07-0.35v-2.24c0-0.14-0.1-0.26-0.24-0.3-1.45-0.37-2.58-1.55-2.9-3.02l-2.97-13.35h4.13l1.67 7.52c0.13 0.57 0.63 0.98 1.22 0.98z" fill="url(#a)"/><g filter="url(#as)"><path d="m24.841 17.547c0.1154-0.2509 0.4123-0.3607 0.6632-0.2453 0.7981 0.3671 2.3288 1.1288 3.2572 2.8067 0.3542 0.6401 0.4557 1.3546 0.4557 2.0155v2.4758c0 0.2762-0.2238 0.5-0.5 0.5-0.2761 0-0.5-0.2238-0.5-0.5v-2.4758c0-0.5691-0.0893-1.0951-0.3307-1.5313-0.764-1.3809-2.0357-2.0308-2.8001-2.3824-0.2509-0.1154-0.3607-0.4123-0.2453-0.6632z" clip-rule="evenodd" fill="#E29739" fill-rule="evenodd"/></g><path d="m24.841 17.547c0.1154-0.2509 0.4123-0.3607 0.6632-0.2453 0.7981 0.3671 2.3288 1.1288 3.2572 2.8067 0.3542 0.6401 0.4557 1.3546 0.4557 2.0155v2.4758c0 0.2762-0.2238 0.5-0.5 0.5-0.2761 0-0.5-0.2238-0.5-0.5v-2.4758c0-0.5691-0.0893-1.0951-0.3307-1.5313-0.764-1.3809-2.0357-2.0308-2.8001-2.3824-0.2509-0.1154-0.3607-0.4123-0.2453-0.6632z" clip-rule="evenodd" fill="url(#am)" fill-rule="evenodd"/><g filter="url(#ar)"><path d="m25.983 18.014c0.8515 0.2109 2.9218 2.1172 2.9218 3.8672v1.6562" stroke="#FBB95F" stroke-width=".1"/></g><path d="m19.97 22c0.17 0 0.31 0.14 0.31 0.31v3.39c0 0.19-0.05 0.39-0.13 0.56l-1.69 3.37c-0.08 0.17 0.04 0.37 0.22 0.37h1.35c0.16 0 0.31-0.07 0.4-0.2l2.35-3.13c0.32-0.43 0.5-0.96 0.5-1.5v-2.79c0-0.21 0.17-0.38 0.38-0.38-0.5363-0.625-1.88-1.75-3.69 0z" fill="url(#al)"/><path d="m19.97 22c0.17 0 0.31 0.14 0.31 0.31v3.39c0 0.19-0.05 0.39-0.13 0.56l-1.69 3.37c-0.08 0.17 0.04 0.37 0.22 0.37h1.35c0.16 0 0.31-0.07 0.4-0.2l2.35-3.13c0.32-0.43 0.5-0.96 0.5-1.5v-2.79c0-0.21 0.17-0.38 0.38-0.38-0.5363-0.625-1.88-1.75-3.69 0z" fill="url(#ak)"/><path d="m19.97 22c0.17 0 0.31 0.14 0.31 0.31v3.39c0 0.19-0.05 0.39-0.13 0.56l-1.69 3.37c-0.08 0.17 0.04 0.37 0.22 0.37h1.35c0.16 0 0.31-0.07 0.4-0.2l2.35-3.13c0.32-0.43 0.5-0.96 0.5-1.5v-2.79c0-0.21 0.17-0.38 0.38-0.38-0.5363-0.625-1.88-1.75-3.69 0z" fill="url(#aj)"/><path d="m11.04 21.87c0.14 0.04 0.24 0.16 0.24 0.3v2.24c0 0.12-0.02 0.24-0.07 0.35l-2 4.89c-0.06 0.17 0.06 0.35 0.23 0.35h1.64c0.1 0 0.19-0.06 0.23-0.16l1.79-4.39c0.12-0.3 0.18-0.62 0.18-0.94v-2.2c0-0.17 0.31-0.31 0.31-0.31s-1.1147-1.5313-2.55-0.13z" fill="#E3953D"/><path d="m11.04 21.87c0.14 0.04 0.24 0.16 0.24 0.3v2.24c0 0.12-0.02 0.24-0.07 0.35l-2 4.89c-0.06 0.17 0.06 0.35 0.23 0.35h1.64c0.1 0 0.19-0.06 0.23-0.16l1.79-4.39c0.12-0.3 0.18-0.62 0.18-0.94v-2.2c0-0.17 0.31-0.31 0.31-0.31s-1.1147-1.5313-2.55-0.13z" fill="url(#ai)"/><path d="m11.04 21.87c0.14 0.04 0.24 0.16 0.24 0.3v2.24c0 0.12-0.02 0.24-0.07 0.35l-2 4.89c-0.06 0.17 0.06 0.35 0.23 0.35h1.64c0.1 0 0.19-0.06 0.23-0.16l1.79-4.39c0.12-0.3 0.18-0.62 0.18-0.94v-2.2c0-0.17 0.31-0.31 0.31-0.31s-1.1147-1.5313-2.55-0.13z" fill="url(#ah)"/><path d="m7.28 4.38h-1v-1.88c0-0.28 0.23-0.5 0.5-0.5 0.28 0 0.5 0.22 0.5 0.5v1.88z" fill="url(#ag)"/><path d="m6.78 2c-0.27 0-0.5 0.22-0.5 0.5v0.5h1v-0.5c0-0.28-0.22-0.5-0.5-0.5z" fill="#716D70"/><path d="m6.78 2c-0.27 0-0.5 0.22-0.5 0.5v0.5h1v-0.5c0-0.28-0.22-0.5-0.5-0.5z" fill="url(#af)"/><path d="m9.28 4.38h-1v-1.88c0-0.28 0.22-0.5 0.5-0.5 0.27 0 0.5 0.22 0.5 0.5v1.88z" fill="url(#ae)"/><path d="m8.78 2c-0.28 0-0.5 0.22-0.5 0.5v0.5h1v-0.5c0-0.28-0.23-0.5-0.5-0.5z" fill="url(#ad)"/><path d="m6.87 4c-0.94 0-1.75 0.64-1.97 1.54-0.07 0.27-0.32 0.46-0.59 0.46h-0.03c-0.55 0-1 0.45-1 1s0.45 1 1 1h1.8594 1.6875c1.4531 0 1.4531-2.25 1.4531-4h-2.41z" fill="#E09435"/><path d="m6.87 4c-0.94 0-1.75 0.64-1.97 1.54-0.07 0.27-0.32 0.46-0.59 0.46h-0.03c-0.55 0-1 0.45-1 1s0.45 1 1 1h1.8594 1.6875c1.4531 0 1.4531-2.25 1.4531-4h-2.41z" fill="url(#ab)"/><path d="m6.87 4c-0.94 0-1.75 0.64-1.97 1.54-0.07 0.27-0.32 0.46-0.59 0.46h-0.03c-0.55 0-1 0.45-1 1s0.45 1 1 1h1.8594 1.6875c1.4531 0 1.4531-2.25 1.4531-4h-2.41z" fill="url(#aa)"/><g filter="url(#aq)"><path d="m8.4299 6.1624 1.625 7.625" stroke="#FBB95F"/></g><path d="m7.4753 4s0.0625 1.5 1.0547 1.5h1.25c0.65997 0 1.23-0.43 1.42-1.03 0.08-0.23-0.09-0.47-0.34-0.47h-3.3847z" fill="#E09435"/><path d="m7.4753 4s0.0625 1.5 1.0547 1.5h1.25c0.65997 0 1.23-0.43 1.42-1.03 0.08-0.23-0.09-0.47-0.34-0.47h-3.3847z" fill="url(#z)"/><path d="m7.4753 4s0.0625 1.5 1.0547 1.5h1.25c0.65997 0 1.23-0.43 1.42-1.03 0.08-0.23-0.09-0.47-0.34-0.47h-3.3847z" fill="url(#y)"/><path d="m4.28 6c-0.55 0-1 0.45-1 1s0.45 1 1 1v-2z" fill="#AC6E3D"/><path d="m4.28 6c-0.55 0-1 0.45-1 1s0.45 1 1 1v-2z" fill="url(#x)"/><path d="m4.28 6c-0.55 0-1 0.45-1 1s0.45 1 1 1v-2z" fill="url(#w)"/><circle cx="6.7878" cy="5.4922" r=".50781" fill="url(#v)"/><path d="m17.28 15.25v2.5c0 0.14 0.11 0.25 0.25 0.25h2.5c0.14 0 0.25-0.11 0.25-0.25v-0.65c0-0.07-0.03-0.13-0.07-0.18l-1.85-1.85c-0.05-0.04-0.12-0.07-0.18-0.07h-0.65c-0.14 0-0.25 0.11-0.25 0.25z" fill="url(#u)"/><path d="m19.88 15h2.15c0.14 0 0.25 0.11 0.25 0.25v2.15c0 0.22-0.27 0.33-0.43 0.18l-2.15-2.15c-0.15-0.16-0.04-0.43 0.18-0.43z" fill="url(#t)"/><path d="m22.03 18.67h-4.5c-0.14 0-0.25 0.11-0.25 0.25v1.86c0 0.17 0.17 0.29 0.33 0.24l2.62-0.88c0.03-0.01 0.05-0.01 0.08-0.01h1.73c0.14 0 0.25-0.11 0.25-0.25v-0.95c-0.01-0.15-0.12-0.26-0.26-0.26z" fill="url(#s)"/><path d="m9.27 9.2 0.77997 3.52c0.03 0.16-0.07997 0.3-0.23997 0.3h-1.28c-0.14 0-0.25-0.11-0.25-0.25v-3.52c0-0.14 0.11-0.25 0.25-0.25h0.5c0.12 0 0.22 0.08 0.24 0.2z" fill="url(#q)"/><path d="m10.27 19.38c-0.29002 0-0.54002-0.2-0.61002-0.47-0.21-0.86-0.66-3.03-0.82-3.67-0.03-0.13 0.06-0.24 0.18-0.24h1.05c0.13 0 0.24 0.08 0.29 0.2l0.27 0.69c0.03 0.06 0.1 0.11 0.18 0.11h2.27c0.13 0 0.26 0.05 0.35 0.15l0.71 0.71c0.09 0.09 0.15 0.22 0.15 0.35v1.98c0 0.1-0.08 0.19-0.19 0.19h-3.83z" fill="url(#p)"/><path d="m14.35 16.07 0.85 0.85c0.05 0.05 0.12 0.08 0.18 0.08h1.08c0.14 0 0.25-0.11 0.25-0.25v-1.5c0-0.14-0.11-0.25-0.25-0.25h-1.94c-0.13 0-0.24 0.11-0.24 0.25v0.65c0 0.06 0.03 0.13 0.07 0.17z" fill="#BC7D40"/><path d="m13.28 14h-1.09c-0.35 0-0.68-0.15-0.91-0.4v1.5c0 0.14 0.11 0.25 0.25 0.25h1.5c0.14 0 0.25-0.11 0.25-0.25v-1.1z" fill="url(#o)"/><path d="m16.47 20.99h-0.94c-0.14 0-0.25-0.11-0.25-0.25v-2.49c0-0.14 0.11-0.25 0.25-0.25h0.94c0.14 0 0.25 0.11 0.25 0.25v2.49c0 0.14-0.11 0.25-0.25 0.25z" fill="url(#n)"/><path d="M6.77 9.3L7.13 10.9C7.14 10.96 7.19 11 7.25 11H7.68C7.75 11 7.8 10.94 7.8 10.88V9.25C7.81 9.11 7.69 9 7.56 9H7.02C6.86 9 6.74 9.15 6.77 9.3Z" fill="#AD6839"/><path d="m10.09 14.49h-1.62c-0.1 0-0.19-0.08-0.19-0.19v-0.57c0-0.1 0.08-0.19 0.19-0.19h1.62c0.1 0 0.19 0.08 0.19 0.19v0.57c0 0.11-0.08 0.19-0.19 0.19z" fill="url(#m)"/><path d="m10.74 20h3.36c0.1 0 0.19 0.08 0.19 0.19v0.62c0 0.1-0.08 0.19-0.19 0.19h-2.67c-0.1 0-0.19-0.04-0.26-0.11l-0.57-0.56c-0.12-0.13-0.03-0.33 0.14-0.33z" fill="#AD6050"/><path d="m8.12 8.34c0.22644 0 0.41-0.18356 0.41-0.41s-0.18356-0.41-0.41-0.41-0.41 0.18356-0.41 0.41 0.18356 0.41 0.41 0.41z" fill="#C78A5D"/><path d="m22.99 19.86v-1.27c0-0.21 0.24-0.33 0.4-0.2l0.79 0.62c0.06 0.05 0.1 0.12 0.1 0.2v0.65c0 0.14-0.11 0.25-0.25 0.25h-0.79c-0.14 0-0.25-0.11-0.25-0.25z" fill="url(#l)"/><path d="m21.88 22.4c0.4087 0 0.74-0.3313 0.74-0.74 0-0.4086-0.3313-0.74-0.74-0.74s-0.74 0.3314-0.74 0.74c0 0.4087 0.3313 0.74 0.74 0.74z" fill="url(#k)"/><path d="m23.45 17.58c0.2154 0 0.39-0.1746 0.39-0.39 0-0.2153-0.1746-0.39-0.39-0.39s-0.39 0.1747-0.39 0.39c0 0.2154 0.1746 0.39 0.39 0.39z" fill="url(#j)"/><g filter="url(#ap)"><path d="m27.854 25.723v-1.3907c0-0.3313 0.2687-0.6 0.6-0.6h0.5266c0.3314 0 0.6 0.2687 0.6 0.6v0.5205c0 0.1841-0.0677 0.3617-0.1902 0.4991l-0.5085 0.5703c-0.1139 0.1277-0.2768 0.2008-0.4479 0.2008h-0.18c-0.2209 0-0.4-0.1791-0.4-0.4z" fill="#B8744C"/><path d="m27.854 25.723v-1.3907c0-0.3313 0.2687-0.6 0.6-0.6h0.5266c0.3314 0 0.6 0.2687 0.6 0.6v0.5205c0 0.1841-0.0677 0.3617-0.1902 0.4991l-0.5085 0.5703c-0.1139 0.1277-0.2768 0.2008-0.4479 0.2008h-0.18c-0.2209 0-0.4-0.1791-0.4-0.4z" fill="url(#i)"/></g><g filter="url(#ao)"><path d="m25.796 23.428 0.8125 1.0351c0.3207 0.4084 0.4699 0.9256 0.4161 1.4421l-0.3536 3.3978" stroke="url(#h)" stroke-width=".25"/></g><defs><filter id="at" x="22.28" y="20.05" width="5.3384" height="9.8312" color-interpolation-filters="sRGB" filterUnits="userSpaceOnUse"><feFlood flood-opacity="0" result="BackgroundImageFix"/><feBlend in="SourceGraphic" in2="BackgroundImageFix" result="shape"/><feColorMatrix in="SourceAlpha" result="hardAlpha" values="0 0 0 0 0 0 0 0 0 0 0 0 0 0 0 0 0 0 127 0"/><feOffset dx="0.1" dy="-0.05"/><feGaussianBlur stdDeviation="0.375"/><feComposite in2="hardAlpha" k2="-1" k3="1" operator="arithmetic"/><feColorMatrix values="0 0 0 0 0.825 0 0 0 0 0.304919 0 0 0 0 0.171875 0 0 0 1 0"/><feBlend in2="shape" result="effect1_innerShadow_28327_3399"/></filter><filter id="as" x="24.796" y="17.056" width="4.522" height="8.0439" color-interpolation-filters="sRGB" filterUnits="userSpaceOnUse"><feFlood flood-opacity="0" result="BackgroundImageFix"/><feBlend in="SourceGraphic" in2="BackgroundImageFix" result="shape"/><feColorMatrix in="SourceAlpha" result="hardAlpha" values="0 0 0 0 0 0 0 0 0 0 0 0 0 0 0 0 0 0 127 0"/><feOffset dx="0.1" dy="-0.2"/><feGaussianBlur stdDeviation="0.3"/><feComposite in2="hardAlpha" k2="-1" k3="1" operator="arithmetic"/><feColorMatrix values="0 0 0 0 0.825 0 0 0 0 0.463572 0 0 0 0 0.055 0 0 0 1 0"/><feBlend in2="shape" result="effect1_innerShadow_28327_3399"/></filter><filter id="ar" x="25.721" y="17.716" width="3.4839" height="6.072" color-interpolation-filters="sRGB" filterUnits="userSpaceOnUse"><feFlood flood-opacity="0" result="BackgroundImageFix"/><feBlend in="SourceGraphic" in2="BackgroundImageFix" result="shape"/><feGaussianBlur result="effect1_foregroundBlur_28327_3399" stdDeviation="0.125"/></filter><filter id="aq" x="6.9409" y="5.0582" width="4.603" height="9.8334" color-interpolation-filters="sRGB" filterUnits="userSpaceOnUse"><feFlood flood-opacity="0" result="BackgroundImageFix"/><feBlend in="SourceGraphic" in2="BackgroundImageFix" result="shape"/><feGaussianBlur result="effect1_foregroundBlur_28327_3399" stdDeviation="0.5"/></filter><filter id="ap" x="27.854" y="23.533" width="1.9766" height="2.5906" color-interpolation-filters="sRGB" filterUnits="userSpaceOnUse"><feFlood flood-opacity="0" result="BackgroundImageFix"/><feBlend in="SourceGraphic" in2="BackgroundImageFix" result="shape"/><feColorMatrix in="SourceAlpha" result="hardAlpha" values="0 0 0 0 0 0 0 0 0 0 0 0 0 0 0 0 0 0 127 0"/><feOffset dx="0.25" dy="-0.2"/><feGaussianBlur stdDeviation="0.2"/><feComposite in2="hardAlpha" k2="-1" k3="1" operator="arithmetic"/><feColorMatrix values="0 0 0 0 0.604167 0 0 0 0 0.336302 0 0 0 0 0.171181 0 0 0 1 0"/><feBlend in2="shape" result="effect1_innerShadow_28327_3399"/></filter><filter id="ao" x="25.197" y="22.851" width="2.4628" height="6.9652" color-interpolation-filters="sRGB" filterUnits="userSpaceOnUse"><feFlood flood-opacity="0" result="BackgroundImageFix"/><feBlend in="SourceGraphic" in2="BackgroundImageFix" result="shape"/><feGaussianBlur result="effect1_foregroundBlur_28327_3399" stdDeviation="0.25"/></filter><linearGradient id="an" x1="23.874" x2="25.999" y1="22.475" y2="24.412" gradientUnits="userSpaceOnUse"><stop stop-color="#D24E2C" offset="0"/><stop stop-color="#D24E2C" stop-opacity="0" offset="1"/></linearGradient><linearGradient id="ac" x1="28.186" x2="26.405" y1="25.162" y2="24.99" gradientUnits="userSpaceOnUse"><stop stop-color="#F0915F" offset="0"/><stop stop-color="#F0915F" stop-opacity="0" offset="1"/></linearGradient><linearGradient id="r" x1="14.03" x2="15.78" y1="21.938" y2="30" gradientUnits="userSpaceOnUse"><stop stop-color="#CB4B24" offset="0"/><stop stop-color="#D6603C" offset="1"/></linearGradient><radialGradient id="g" cx="0" cy="0" r="1" gradientTransform="translate(24.124 17.069) rotate(166.94) scale(3.0155 3.6)" gradientUnits="userSpaceOnUse"><stop stop-color="#FBB95F" offset="0"/><stop stop-color="#FBB95F" stop-opacity="0" offset="1"/></radialGradient><radialGradient id="f" cx="0" cy="0" r="1" gradientTransform="translate(26.061 13.662) rotate(147.4) scale(4.1177 4.9158)" gradientUnits="userSpaceOnUse"><stop stop-color="#FBB95F" offset="0"/><stop stop-color="#FBB95F" stop-opacity="0" offset="1"/></radialGradient><radialGradient id="e" cx="0" cy="0" r="1" gradientTransform="translate(16.218 23.569) rotate(-90) scale(3.4062 11.281)" gradientUnits="userSpaceOnUse"><stop stop-color="#C4409F" offset="0"/><stop stop-color="#C3409F" stop-opacity="0" offset="1"/></radialGradient><linearGradient id="d" x1="7.7175" x2="11.968" y1="18.787" y2="17.75" gradientUnits="userSpaceOnUse"><stop stop-color="#D18121" offset="0"/><stop stop-color="#D18121" stop-opacity="0" offset="1"/></linearGradient><linearGradient id="c" x1="7.7175" x2="9.28" y1="19.412" y2="19.069" gradientUnits="userSpaceOnUse"><stop stop-color="#F2BA8A" offset="0"/><stop stop-color="#F2BA8A" stop-opacity="0" offset="1"/></linearGradient><radialGradient id="b" cx="0" cy="0" r="1" gradientTransform="translate(6.9831 18.334) rotate(-34.842) scale(5.3878 1.2554)" gradientUnits="userSpaceOnUse"><stop stop-color="#F2BA8A" offset="0"/><stop stop-color="#F2BA8A" stop-opacity="0" offset="1"/></radialGradient><radialGradient id="a" cx="0" cy="0" r="1" gradientTransform="translate(23.389 21.85) rotate(232.94) scale(1.8406 1.4844)" gradientUnits="userSpaceOnUse"><stop stop-color="#EDA84F" offset="0"/><stop stop-color="#EDA84F" stop-opacity="0" offset="1"/></radialGradient><linearGradient id="am" x1="24.796" x2="28.592" y1="17.819" y2="18.756" gradientUnits="userSpaceOnUse"><stop stop-color="#F5B156" offset="0"/><stop stop-color="#E29739" stop-opacity="0" offset="1"/></linearGradient><linearGradient id="al" x1="21.749" x2="18.435" y1="27.256" y2="26.506" gradientUnits="userSpaceOnUse"><stop stop-color="#E3953C" offset="0"/><stop stop-color="#D6852B" offset="1"/></linearGradient><linearGradient id="ak" x1="21.047" x2="21.047" y1="21.168" y2="25.668" gradientUnits="userSpaceOnUse"><stop stop-color="#DE8E3D" offset="0"/><stop stop-color="#D87C54" stop-opacity="0" offset="1"/></linearGradient><linearGradient id="aj" x1="23.405" x2="22.139" y1="25.225" y2="25.241" gradientUnits="userSpaceOnUse"><stop stop-color="#EDA84F" offset="0"/><stop stop-color="#EDA84F" stop-opacity="0" offset="1"/></linearGradient><linearGradient id="ai" x1="13.376" x2="12.495" y1="25.34" y2="25.34" gradientUnits="userSpaceOnUse"><stop stop-color="#EDA84F" offset="0"/><stop stop-color="#EDA84F" stop-opacity="0" offset="1"/></linearGradient><linearGradient id="ah" x1="11.392" x2="11.392" y1="21.381" y2="25.772" gradientUnits="userSpaceOnUse"><stop stop-color="#D77958" offset="0"/><stop stop-color="#D87C54" stop-opacity="0" offset="1"/></linearGradient><linearGradient id="ag" x1="6.28" x2="7.28" y1="3.4062" y2="3.4062" gradientUnits="userSpaceOnUse"><stop stop-color="#DF6D28" offset="0"/><stop stop-color="#E98452" offset=".48785"/><stop stop-color="#DF8450" offset="1"/></linearGradient><linearGradient id="af" x1="7.28" x2="6.78" y1="3" y2="3" gradientUnits="userSpaceOnUse"><stop stop-color="#8E8A8D" offset="0"/><stop stop-color="#8E8A8D" stop-opacity="0" offset="1"/></linearGradient><linearGradient id="ae" x1="8.6394" x2="9.28" y1="3.4062" y2="3.4062" gradientUnits="userSpaceOnUse"><stop stop-color="#C97C36" offset="0"/><stop stop-color="#D49361" offset="1"/></linearGradient><linearGradient id="ad" x1="8.28" x2="9.28" y1="2.5" y2="2.5" gradientUnits="userSpaceOnUse"><stop stop-color="#716D70" offset="0"/><stop stop-color="#969495" offset="1"/></linearGradient><radialGradient id="ab" cx="0" cy="0" r="1" gradientTransform="translate(4.2332 9.0687) rotate(-38.339) scale(3.0479 1.5362)" gradientUnits="userSpaceOnUse"><stop stop-color="#D1699B" offset="0"/><stop stop-color="#D1699B" stop-opacity="0" offset="1"/></radialGradient><radialGradient id="aa" cx="0" cy="0" r="1" gradientTransform="translate(7.375 8.4688) rotate(208.22) scale(1.454 2.1811)" gradientUnits="userSpaceOnUse"><stop stop-color="#D8892A" offset=".19215"/><stop stop-color="#D8892A" stop-opacity="0" offset="1"/></radialGradient><radialGradient id="z" cx="0" cy="0" r="1" gradientTransform="translate(9.7488 5.7406) rotate(212.22) scale(2.1978 1.6772)" gradientUnits="userSpaceOnUse"><stop stop-color="#DD832B" offset="0"/><stop stop-color="#DD832B" stop-opacity="0" offset="1"/></radialGradient><radialGradient id="y" cx="0" cy="0" r="1" gradientTransform="translate(11.178 4.2484) rotate(168.35) scale(1.2763 .50206)" gradientUnits="userSpaceOnUse"><stop stop-color="#F2AF5D" offset="0"/><stop stop-color="#F2AF5D" stop-opacity="0" offset=".54056"/></radialGradient><radialGradient id="x" cx="0" cy="0" r="1" gradientTransform="translate(4.28 7.0452) rotate(111.09) scale(1.2811 1.2661)" gradientUnits="userSpaceOnUse"><stop stop-color="#CAA48C" stop-opacity="0" offset=".49851"/><stop stop-color="#D7A98C" offset=".90223"/></radialGradient><linearGradient id="w" x1="3.5456" x2="3.5456" y1="8.3812" y2="6.7874" gradientUnits="userSpaceOnUse"><stop stop-color="#A65B58" offset="0"/><stop stop-color="#A65B58" stop-opacity="0" offset="1"/></linearGradient><radialGradient id="v" cx="0" cy="0" r="1" gradientTransform="translate(6.9814 5.3468) rotate(118.12) scale(.74062 .64455)" gradientUnits="userSpaceOnUse"><stop stop-color="#605255" offset="0"/><stop stop-color="#3C273A" offset="1"/></radialGradient><linearGradient id="u" x1="18.78" x2="18.78" y1="15" y2="18" gradientUnits="userSpaceOnUse"><stop stop-color="#BD7F41" offset="0"/><stop stop-color="#BE7D4F" offset="1"/></linearGradient><linearGradient id="t" x1="20.956" x2="20.956" y1="15" y2="17.649" gradientUnits="userSpaceOnUse"><stop stop-color="#C28141" offset="0"/><stop stop-color="#C88855" offset="1"/></linearGradient><linearGradient id="s" x1="19.785" x2="19.785" y1="18.67" y2="21.032" gradientUnits="userSpaceOnUse"><stop stop-color="#B8724B" offset="0"/><stop stop-color="#AE6051" offset="1"/></linearGradient><linearGradient id="q" x1="8.28" x2="10.055" y1="12.069" y2="11.381" gradientUnits="userSpaceOnUse"><stop stop-color="#BA7649" offset=".33333"/><stop stop-color="#D29768" offset="1"/></linearGradient><linearGradient id="p" x1="11.562" x2="11.562" y1="15.287" y2="19.38" gradientUnits="userSpaceOnUse"><stop stop-color="#B47539" offset="0"/><stop stop-color="#B56E4E" offset="1"/></linearGradient><linearGradient id="o" x1="12.28" x2="12.28" y1="14.475" y2="15.881" gradientUnits="userSpaceOnUse"><stop stop-color="#BE8455" offset="0"/><stop stop-color="#B8793E" offset="1"/></linearGradient><linearGradient id="n" x1="16" x2="16" y1="18" y2="20.99" gradientUnits="userSpaceOnUse"><stop stop-color="#BC7B4E" offset="0"/><stop stop-color="#AE6052" offset="1"/></linearGradient><linearGradient id="m" x1="8.53" x2="9.9988" y1="13.725" y2="14.75" gradientUnits="userSpaceOnUse"><stop stop-color="#B46F44" offset="0"/><stop stop-color="#CC9160" offset="1"/></linearGradient><linearGradient id="l" x1="23.635" x2="23.635" y1="18.178" y2="19.772" gradientUnits="userSpaceOnUse"><stop stop-color="#CB8958" offset="0"/><stop stop-color="#C17648" offset="1"/></linearGradient><radialGradient id="k" cx="0" cy="0" r="1" gradientTransform="translate(22.62 22.053) rotate(197.61) scale(1.2993 1.9974)" gradientUnits="userSpaceOnUse"><stop stop-color="#C07E51" offset="0"/><stop stop-color="#B7704D" offset=".6729"/></radialGradient><linearGradient id="j" x1="23.702" x2="22.975" y1="17.35" y2="17.35" gradientUnits="userSpaceOnUse"><stop stop-color="#DCA171" offset="0"/><stop stop-color="#D69A6B" offset="1"/></linearGradient><radialGradient id="i" cx="0" cy="0" r="1" gradientTransform="translate(29.296 24.303) rotate(72.812) scale(.96497 .52161)" gradientUnits="userSpaceOnUse"><stop stop-color="#CD996F" offset=".041738"/><stop stop-color="#CD996F" stop-opacity="0" offset=".52929"/></radialGradient><linearGradient id="h" x1="27.749" x2="25.796" y1="29.303" y2="21.444" gradientUnits="userSpaceOnUse"><stop stop-color="#F0915F" stop-opacity="0" offset="0"/><stop stop-color="#FFA575" offset=".47917"/><stop stop-color="#F0915F" stop-opacity="0" offset="1"/></linearGradient></defs></svg>
