<svg fill="none" viewBox="0 0 32 32" xmlns="http://www.w3.org/2000/svg"><path d="M10 10H6.09C3.83 10 2 8.17 2 5.91V4.62C2 4.28 2.28 4 2.62 4H5.9C8.17 4 10 5.83 10 8.09V10Z" fill="url(#al)"/><path d="M10 10H6.09C3.83 10 2 8.17 2 5.91V4.62C2 4.28 2.28 4 2.62 4H5.9C8.17 4 10 5.83 10 8.09V10Z" fill="url(#aa)"/><path d="M10 10H6.09C3.83 10 2 8.17 2 5.91V4.62C2 4.28 2.28 4 2.62 4H5.9C8.17 4 10 5.83 10 8.09V10Z" fill="url(#p)"/><path d="m16 29.99c3.1204 0 5.65-2.5296 5.65-5.65s-2.5296-5.65-5.65-5.65-5.65 2.5296-5.65 5.65 2.5296 5.65 5.65 5.65z" fill="url(#g)"/><path d="m14.13 6.24c-0.68-1.18-0.69-2.56-0.15-3.7 0.14-0.31-0.16-0.63-0.47-0.51-0.25 0.1-0.49 0.22-0.72 0.38-1.7 1.12-2.28 3.38-1.34 5.18 1.06 2.03 3.58 2.75 5.55 1.61 0.46-0.27 0.85-0.61 1.15-1-1.57 0.22-3.18-0.51-4.02-1.96z" fill="url(#f)"/><path d="m14.13 6.24c-0.68-1.18-0.69-2.56-0.15-3.7 0.14-0.31-0.16-0.63-0.47-0.51-0.25 0.1-0.49 0.22-0.72 0.38-1.7 1.12-2.28 3.38-1.34 5.18 1.06 2.03 3.58 2.75 5.55 1.61 0.46-0.27 0.85-0.61 1.15-1-1.57 0.22-3.18-0.51-4.02-1.96z" fill="url(#e)"/><path d="m14.13 6.24c-0.68-1.18-0.69-2.56-0.15-3.7 0.14-0.31-0.16-0.63-0.47-0.51-0.25 0.1-0.49 0.22-0.72 0.38-1.7 1.12-2.28 3.38-1.34 5.18 1.06 2.03 3.58 2.75 5.55 1.61 0.46-0.27 0.85-0.61 1.15-1-1.57 0.22-3.18-0.51-4.02-1.96z" fill="url(#d)" fill-opacity=".75"/><g filter="url(#ar)"><path d="m13.609 2.5062c-0.4584 0.54688-1.1656 2.0656-0.3281 3.7656" stroke="url(#c)" stroke-linecap="round" stroke-width=".25"/></g><path d="m18.87 6.24c0.68-1.18 0.69-2.56 0.15-3.7-0.14-0.31 0.16-0.63 0.47-0.51 0.25 0.1 0.49 0.22 0.72 0.38 1.7 1.12 2.28 3.38 1.34 5.18-1.06 2.03-3.58 2.75-5.55 1.61-0.46-0.27-0.85-0.61-1.15-1 1.57 0.22 3.18-0.51 4.02-1.96z" fill="url(#b)"/><path d="m18.87 6.24c0.68-1.18 0.69-2.56 0.15-3.7-0.14-0.31 0.16-0.63 0.47-0.51 0.25 0.1 0.49 0.22 0.72 0.38 1.7 1.12 2.28 3.38 1.34 5.18-1.06 2.03-3.58 2.75-5.55 1.61-0.46-0.27-0.85-0.61-1.15-1 1.57 0.22 3.18-0.51 4.02-1.96z" fill="url(#a)"/><g filter="url(#aq)"><path d="m19.766 2.5843c0.6406 0.29687 1.8282 2.3125 1.3125 3.875" stroke="url(#ak)" stroke-linecap="round" stroke-width=".25"/></g><path d="M19.7237 6H11.3125C8.74252 6 7 8.4375 7 10.69V22.47H25V10.69C25 8.1 22.6375 6 19.7237 6Z" fill="url(#aj)"/><path d="M19.7237 6H11.3125C8.74252 6 7 8.4375 7 10.69V22.47H25V10.69C25 8.1 22.6375 6 19.7237 6Z" fill="url(#ai)"/><path d="M19.7237 6H11.3125C8.74252 6 7 8.4375 7 10.69V22.47H25V10.69C25 8.1 22.6375 6 19.7237 6Z" fill="url(#ah)"/><path d="M19.7237 6H11.3125C8.74252 6 7 8.4375 7 10.69V22.47H25V10.69C25 8.1 22.6375 6 19.7237 6Z" fill="url(#ag)"/><path d="m5.91 5.5c1.17 0 2.17 0.78 2.48 1.85-0.34 0.34-0.62 0.73-0.85 1.15h-1.45c-1.43 0-2.59-1.16-2.59-2.59v-0.2c0-0.12 0.09-0.21 0.21-0.21h2.2z" fill="url(#af)"/><path d="m5.91 5.5c1.17 0 2.17 0.78 2.48 1.85-0.34 0.34-0.62 0.73-0.85 1.15h-1.45c-1.43 0-2.59-1.16-2.59-2.59v-0.2c0-0.12 0.09-0.21 0.21-0.21h2.2z" fill="url(#ae)"/><path d="M22 10H25.91C28.17 10 30 8.17 30 5.91V4.62C30 4.28 29.72 4 29.37 4H26.09C23.83 4 22 5.83 22 8.09V10Z" fill="url(#ad)"/><path d="M22 10H25.91C28.17 10 30 8.17 30 5.91V4.62C30 4.28 29.72 4 29.37 4H26.09C23.83 4 22 5.83 22 8.09V10Z" fill="url(#ac)"/><path d="M22 10H25.91C28.17 10 30 8.17 30 5.91V4.62C30 4.28 29.72 4 29.37 4H26.09C23.83 4 22 5.83 22 8.09V10Z" fill="url(#ab)"/><path d="M22.3 10H24.95C24.62 7.74 22.67 6 20.31 6H16L18.38 8.38C19.42 9.42 20.83 10 22.3 10Z" fill="url(#z)"/><path d="M16 18.46V13.95C16 10.6738 12.2305 6.45502 9.4805 6.45502C8.36331 6.99448 7 8.50188 7 10.51V20L16 18.46Z" fill="url(#y)"/><path d="M16 18.46V13.95C16 10.6738 12.2305 6.45502 9.4805 6.45502C8.36331 6.99448 7 8.50188 7 10.51V20L16 18.46Z" fill="url(#x)"/><path d="m26 22.421c-0.04-3.01-2.53-5.43-5.52-5.42h-8.76-0.11c-3.03-0.06-5.57 2.39-5.61 5.42-0.04 3.08 2.44 5.58 5.5 5.58h9c3.06 0 5.54-2.5 5.5-5.58z" fill="url(#w)"/><path d="m26 22.421c-0.04-3.01-2.53-5.43-5.52-5.42h-8.76-0.11c-3.03-0.06-5.57 2.39-5.61 5.42-0.04 3.08 2.44 5.58 5.5 5.58h9c3.06 0 5.54-2.5 5.5-5.58z" fill="url(#v)"/><path d="m26 22.421c-0.04-3.01-2.53-5.43-5.52-5.42h-8.76-0.11c-3.03-0.06-5.57 2.39-5.61 5.42-0.04 3.08 2.44 5.58 5.5 5.58h9c3.06 0 5.54-2.5 5.5-5.58z" fill="url(#u)"/><path d="m26 22.421c-0.04-3.01-2.53-5.43-5.52-5.42h-8.76-0.11c-3.03-0.06-5.57 2.39-5.61 5.42-0.04 3.08 2.44 5.58 5.5 5.58h9c3.06 0 5.54-2.5 5.5-5.58z" fill="url(#t)"/><path d="m26.09 5.5c-1.17 0-2.17 0.78-2.48 1.85 0.34 0.33 0.63 0.72 0.85 1.15h1.45c1.43 0 2.59-1.16 2.59-2.59v-0.2c0-0.12-0.09-0.21-0.21-0.21h-2.2z" fill="#F4B9A8"/><g filter="url(#ap)"><path d="m26.09 5.5c-1.17 0-2.17 0.78-2.48 1.85 0.34 0.33 0.63 0.72 0.85 1.15h1.45c1.43 0 2.59-1.16 2.59-2.59v-0.2c0-0.12-0.09-0.21-0.21-0.21h-2.2z" fill="url(#s)"/></g><path d="m13 22c0.5523 0 1-0.4477 1-1s-0.4477-1-1-1-1 0.4477-1 1 0.4477 1 1 1z" fill="url(#r)"/><path d="m19 22c0.5523 0 1-0.4477 1-1s-0.4477-1-1-1-1 0.4477-1 1 0.4477 1 1 1z" fill="url(#q)"/><g filter="url(#ao)"><rect x="11.095" y="13.155" width="1.6554" height="2.6892" rx=".82771" fill="#4E4854"/></g><rect x="11.25" y="13" width="1.5" height="3" rx=".75" fill="url(#o)"/><rect x="11.25" y="13" width="1.5" height="3" rx=".75" fill="url(#n)"/><rect x="11.25" y="13" width="1.5" height="3" rx=".75" fill="url(#m)"/><g filter="url(#an)"><rect x="19.045" y="13.155" width="1.3446" height="2.6892" rx=".67229" fill="#BBB1BB"/></g><rect x="19.25" y="13" width="1.5" height="3" rx=".75" fill="url(#l)"/><rect x="19.25" y="13" width="1.5" height="3" rx=".75" fill="url(#k)"/><rect x="19.25" y="13" width="1.5" height="3" rx=".75" fill="url(#j)"/><rect x="19.25" y="13" width="1.5" height="3" rx=".75" fill="url(#i)"/><g filter="url(#am)"><ellipse transform="rotate(47.966 22.226 21)" cx="22.226" cy="21" rx="3.6541" ry="2.9881" fill="url(#h)"/></g><defs><filter id="ar" x="12.017" y="1.6312" width="2.4674" height="5.5156" color-interpolation-filters="sRGB" filterUnits="userSpaceOnUse"><feFlood flood-opacity="0" result="BackgroundImageFix"/><feBlend in="SourceGraphic" in2="BackgroundImageFix" result="shape"/><feGaussianBlur result="effect1_foregroundBlur_28327_2767" stdDeviation="0.375"/></filter><filter id="aq" x="18.891" y="1.7093" width="3.1889" height="5.6251" color-interpolation-filters="sRGB" filterUnits="userSpaceOnUse"><feFlood flood-opacity="0" result="BackgroundImageFix"/><feBlend in="SourceGraphic" in2="BackgroundImageFix" result="shape"/><feGaussianBlur result="effect1_foregroundBlur_28327_2767" stdDeviation="0.375"/></filter><filter id="ap" x="23.61" y="5.5" width="4.89" height="3.3" color-interpolation-filters="sRGB" filterUnits="userSpaceOnUse"><feFlood flood-opacity="0" result="BackgroundImageFix"/><feBlend in="SourceGraphic" in2="BackgroundImageFix" result="shape"/><feColorMatrix in="SourceAlpha" result="hardAlpha" values="0 0 0 0 0 0 0 0 0 0 0 0 0 0 0 0 0 0 127 0"/><feOffset dy="0.3"/><feGaussianBlur stdDeviation="0.25"/><feComposite in2="hardAlpha" k2="-1" k3="1" operator="arithmetic"/><feColorMatrix values="0 0 0 0 0.890196 0 0 0 0 0.486275 0 0 0 0 0.490196 0 0 0 1 0"/><feBlend in2="shape" result="effect1_innerShadow_28327_2767"/></filter><filter id="ao" x="10.595" y="12.655" width="2.6554" height="3.6892" color-interpolation-filters="sRGB" filterUnits="userSpaceOnUse"><feFlood flood-opacity="0" result="BackgroundImageFix"/><feBlend in="SourceGraphic" in2="BackgroundImageFix" result="shape"/><feGaussianBlur result="effect1_foregroundBlur_28327_2767" stdDeviation="0.25"/></filter><filter id="an" x="18.545" y="12.655" width="2.3446" height="3.6892" color-interpolation-filters="sRGB" filterUnits="userSpaceOnUse"><feFlood flood-opacity="0" result="BackgroundImageFix"/><feBlend in="SourceGraphic" in2="BackgroundImageFix" result="shape"/><feGaussianBlur result="effect1_foregroundBlur_28327_2767" stdDeviation="0.25"/></filter><filter id="am" x="17.922" y="16.628" width="8.6068" height="8.7441" color-interpolation-filters="sRGB" filterUnits="userSpaceOnUse"><feFlood flood-opacity="0" result="BackgroundImageFix"/><feBlend in="SourceGraphic" in2="BackgroundImageFix" result="shape"/><feGaussianBlur result="effect1_foregroundBlur_28327_2767" stdDeviation="0.5"/></filter><linearGradient id="al" x1="4.7812" x2="7.0938" y1="8.2874" y2="5.6312" gradientUnits="userSpaceOnUse"><stop stop-color="#626061" offset="0"/><stop stop-color="#727273" offset="1"/></linearGradient><linearGradient id="aa" x1="6.3125" x2="6.3125" y1="10.631" y2="7.5687" gradientUnits="userSpaceOnUse"><stop stop-color="#5F4478" offset="0"/><stop stop-color="#5C4C69" stop-opacity="0" offset="1"/></linearGradient><radialGradient id="p" cx="0" cy="0" r="1" gradientTransform="translate(8.625 5.5999) rotate(144.58) scale(1.7256 3.0906)" gradientUnits="userSpaceOnUse"><stop stop-color="#878688" offset="0"/><stop stop-color="#878688" stop-opacity="0" offset="1"/></radialGradient><radialGradient id="g" cx="0" cy="0" r="1" gradientTransform="translate(16 28.375) rotate(90) scale(1.0625 4.5295)" gradientUnits="userSpaceOnUse"><stop stop-color="#D04568" offset="0"/><stop stop-color="#DA6585" offset="1"/></radialGradient><linearGradient id="f" x1="17.776" x2="17.776" y1="2.0042" y2="8.0999" gradientUnits="userSpaceOnUse"><stop stop-color="#F6D4AD" offset="0"/><stop stop-color="#D9AE7F" offset="1"/></linearGradient><linearGradient id="e" x1="13.094" x2="14.219" y1="8.4437" y2="5.8726" gradientUnits="userSpaceOnUse"><stop stop-color="#CB9964" offset="0"/><stop stop-color="#CB9964" stop-opacity="0" offset="1"/></linearGradient><radialGradient id="d" cx="0" cy="0" r="1" gradientTransform="translate(13.281 4.6624) rotate(201.72) scale(2.1529 3.8327)" gradientUnits="userSpaceOnUse"><stop stop-color="#CB9964" stop-opacity="0" offset=".68744"/><stop stop-color="#CB9964" offset="1"/></radialGradient><linearGradient id="c" x1="13.391" x2="13.609" y1="3.0843" y2="8.553" gradientUnits="userSpaceOnUse"><stop stop-color="#FFF5E8" offset="0"/><stop stop-color="#FFE3BF" stop-opacity="0" offset="1"/></linearGradient><linearGradient id="b" x1="21.625" x2="21.625" y1="-.15009" y2="7.7249" gradientUnits="userSpaceOnUse"><stop stop-color="#F6D4AD" offset="0"/><stop stop-color="#D9AE7F" offset="1"/></linearGradient><linearGradient id="a" x1="22.375" x2="20.469" y1="7.4124" y2="5.8726" gradientUnits="userSpaceOnUse"><stop stop-color="#CB9964" offset="0"/><stop stop-color="#CB9964" stop-opacity="0" offset="1"/></linearGradient><linearGradient id="ak" x1="20.236" x2="20.017" y1="3.0843" y2="8.553" gradientUnits="userSpaceOnUse"><stop stop-color="#FFF5E8" offset="0"/><stop stop-color="#FFE3BF" stop-opacity="0" offset="1"/></linearGradient><linearGradient id="aj" x1="11.625" x2="28.375" y1="18.787" y2="18.787" gradientUnits="userSpaceOnUse"><stop stop-color="#D4D1D7" offset="0"/><stop stop-color="#FBF6FF" offset="1"/></linearGradient><linearGradient id="ai" x1="23" x2="25.75" y1="18.787" y2="18.787" gradientUnits="userSpaceOnUse"><stop stop-color="#D4D1D7" stop-opacity="0" offset="0"/><stop stop-color="#D4D1D7" offset="1"/></linearGradient><linearGradient id="ah" x1="14.844" x2="12.406" y1="8.8812" y2="5.4749" gradientUnits="userSpaceOnUse"><stop stop-color="#C3C0C7" stop-opacity="0" offset="0"/><stop stop-color="#BCB7C0" offset="1"/></linearGradient><radialGradient id="ag" cx="0" cy="0" r="1" gradientTransform="translate(10.812 7.0374) rotate(45.924) scale(5.4808 4.692)" gradientUnits="userSpaceOnUse"><stop stop-color="#D4D1D7" offset="0"/><stop stop-color="#D4D1D7" stop-opacity="0" offset="1"/></radialGradient><radialGradient id="af" cx="0" cy="0" r="1" gradientTransform="translate(5.1094 7.9593) rotate(209.37) scale(3.2812 2.2199)" gradientUnits="userSpaceOnUse"><stop stop-color="#FFB6AE" offset="0"/><stop stop-color="#E58082" offset="1"/></radialGradient><radialGradient id="ae" cx="0" cy="0" r="1" gradientTransform="translate(6.1875 5.2249) rotate(97.779) scale(1.7916 2.8964)" gradientUnits="userSpaceOnUse"><stop stop-color="#DB7376" offset="0"/><stop stop-color="#DB7376" stop-opacity="0" offset="1"/></radialGradient><linearGradient id="ad" x1="24.781" x2="27.094" y1="8.2874" y2="5.6312" gradientUnits="userSpaceOnUse"><stop stop-color="#626061" offset="0"/><stop stop-color="#727273" offset="1"/></linearGradient><linearGradient id="ac" x1="26.312" x2="26.312" y1="10.381" y2="7.5062" gradientUnits="userSpaceOnUse"><stop stop-color="#5C4C69" offset="0"/><stop stop-color="#5C4C69" stop-opacity="0" offset="1"/></linearGradient><radialGradient id="ab" cx="0" cy="0" r="1" gradientTransform="translate(28.828 5.2874) rotate(141.02) scale(4.3217 1.466)" gradientUnits="userSpaceOnUse"><stop stop-color="#878688" offset="0"/><stop stop-color="#878688" stop-opacity="0" offset="1"/></radialGradient><radialGradient id="z" cx="0" cy="0" r="1" gradientTransform="translate(20.875 10) rotate(-82.925) scale(3.5521 4.1063)" gradientUnits="userSpaceOnUse"><stop stop-color="#8C8B8D" offset="0"/><stop stop-color="#747474" offset="1"/></radialGradient><linearGradient id="y" x1="16.375" x2="9.5625" y1="11.705" y2="11.705" gradientUnits="userSpaceOnUse"><stop stop-color="#706973" offset="0"/><stop stop-color="#6B696D" offset="1"/></linearGradient><linearGradient id="x" x1="8.75" x2="5.4375" y1="16.972" y2="16.972" gradientUnits="userSpaceOnUse"><stop stop-color="#828183" stop-opacity="0" offset="0"/><stop stop-color="#828183" offset=".89583"/><stop stop-color="#828183" offset="1"/></linearGradient><linearGradient id="w" x1="6.5625" x2="20.312" y1="21.1" y2="21.1" gradientUnits="userSpaceOnUse"><stop stop-color="#E7A8A9" offset="0"/><stop stop-color="#F3B9AD" offset="1"/></linearGradient><radialGradient id="v" cx="0" cy="0" r="1" gradientTransform="translate(17.125 19.975) rotate(93.281) scale(9.8286 20.818)" gradientUnits="userSpaceOnUse"><stop stop-color="#D17DAE" stop-opacity="0" offset=".43152"/><stop stop-color="#CE79AD" offset="1"/></radialGradient><linearGradient id="u" x1="16.562" x2="16.562" y1="23.975" y2="29.412" gradientUnits="userSpaceOnUse"><stop stop-color="#D17DAE" stop-opacity="0" offset=".43152"/><stop stop-color="#AD618F" offset="1"/></linearGradient><linearGradient id="t" x1="16.562" x2="16.562" y1="23.975" y2="14.037" gradientUnits="userSpaceOnUse"><stop stop-color="#DE9E8F" stop-opacity="0" offset=".60377"/><stop stop-color="#DE9E8F" offset="1"/></linearGradient><radialGradient id="s" cx="0" cy="0" r="1" gradientTransform="translate(24.062 8.0374) rotate(-31.404) scale(4.8696 1.8381)" gradientUnits="userSpaceOnUse"><stop stop-color="#FFB6AE" offset="0"/><stop stop-color="#E58082" offset=".93092"/></radialGradient><radialGradient id="r" cx="0" cy="0" r="1" gradientTransform="translate(12.344 21) scale(1.1562)" gradientUnits="userSpaceOnUse"><stop stop-color="#FFA0A8" offset="0"/><stop stop-color="#FE7883" offset="1"/></radialGradient><radialGradient id="q" cx="0" cy="0" r="1" gradientTransform="translate(18.484 21) scale(1.1094)" gradientUnits="userSpaceOnUse"><stop stop-color="#FFA0A8" offset="0"/><stop stop-color="#FE7883" offset="1"/></radialGradient><linearGradient id="o" x1="12.75" x2="11.882" y1="14.5" y2="14.5" gradientUnits="userSpaceOnUse"><stop stop-color="#615154" offset=".30729"/><stop stop-color="#392833" offset="1"/></linearGradient><linearGradient id="n" x1="12.984" x2="12.984" y1="16.044" y2="14.634" gradientUnits="userSpaceOnUse"><stop stop-color="#552D52" offset="0"/><stop stop-color="#552D52" stop-opacity="0" offset="1"/></linearGradient><linearGradient id="m" x1="10.754" x2="11.551" y1="15.207" y2="15.207" gradientUnits="userSpaceOnUse"><stop stop-color="#594C4F" offset="0"/><stop stop-color="#594C4F" stop-opacity="0" offset="1"/></linearGradient><linearGradient id="l" x1="20.75" x2="19.882" y1="14.5" y2="14.5" gradientUnits="userSpaceOnUse"><stop stop-color="#594C4F" offset=".225"/><stop stop-color="#392833" offset="1"/></linearGradient><linearGradient id="k" x1="20.984" x2="20.984" y1="16.044" y2="14.634" gradientUnits="userSpaceOnUse"><stop stop-color="#552D52" offset="0"/><stop stop-color="#552D52" stop-opacity="0" offset="1"/></linearGradient><linearGradient id="j" x1="18.754" x2="19.787" y1="15.207" y2="15.207" gradientUnits="userSpaceOnUse"><stop stop-color="#594C4F" offset="0"/><stop stop-color="#594C4F" stop-opacity="0" offset="1"/></linearGradient><radialGradient id="i" cx="0" cy="0" r="1" gradientTransform="translate(20.292 14.68) rotate(250.52) scale(1.7347 1.6863)" gradientUnits="userSpaceOnUse"><stop stop-color="#594C4F" stop-opacity="0" offset=".81395"/><stop stop-color="#594C4F" offset="1"/></radialGradient><radialGradient id="h" cx="0" cy="0" r="1" gradientTransform="translate(22.271 19.326) rotate(90.557) scale(4.6629 4.4844)" gradientUnits="userSpaceOnUse"><stop stop-color="#FFD9CF" offset="0"/><stop stop-color="#FFD9CF" stop-opacity="0" offset="1"/></radialGradient></defs></svg>
