<svg fill="none" viewBox="0 0 32 32" xmlns="http://www.w3.org/2000/svg"><path d="m4.6912 29.774 16.511-4.8858c4.7278-1.3986 6.3175-7.4104 2.9231-10.982l-5.269-5.5442c-3.3944-3.5717-9.382-2.1768-11.019 2.4634l-5.7194 16.241c-0.57181 1.6189 0.92782 3.1968 2.5737 2.7081z" fill="#FF8C4C"/><path d="m4.6912 29.774 16.511-4.8858c4.7278-1.3986 6.3175-7.4104 2.9231-10.982l-5.269-5.5442c-3.3944-3.5717-9.382-2.1768-11.019 2.4634l-5.7194 16.241c-0.57181 1.6189 0.92782 3.1968 2.5737 2.7081z" fill="url(#n)"/><path d="m4.6912 29.774 16.511-4.8858c4.7278-1.3986 6.3175-7.4104 2.9231-10.982l-5.269-5.5442c-3.3944-3.5717-9.382-2.1768-11.019 2.4634l-5.7194 16.241c-0.57181 1.6189 0.92782 3.1968 2.5737 2.7081z" fill="url(#i)"/><path d="m4.6912 29.774 16.511-4.8858c4.7278-1.3986 6.3175-7.4104 2.9231-10.982l-5.269-5.5442c-3.3944-3.5717-9.382-2.1768-11.019 2.4634l-5.7194 16.241c-0.57181 1.6189 0.92782 3.1968 2.5737 2.7081z" fill="url(#h)"/><path d="m4.6912 29.774 16.511-4.8858c4.7278-1.3986 6.3175-7.4104 2.9231-10.982l-5.269-5.5442c-3.3944-3.5717-9.382-2.1768-11.019 2.4634l-5.7194 16.241c-0.57181 1.6189 0.92782 3.1968 2.5737 2.7081z" fill="url(#g)"/><path d="m13.006 19.082c0.5224-0.4965 0.5433-1.3179 0.0471-1.8507l-5.4514-5.7361-0.97549 2.7634 4.5292 4.7659c0.4963 0.5328 1.3281 0.554 1.8505 0.0575z" fill="url(#f)" opacity=".5"/><path d="m8.9551 23.713c-0.52244 0.4965-0.54334 1.3179-0.04711 1.8508l2.1988 2.3136 2.8095-0.8337-3.1208-3.2838c-0.4965-0.5225-1.3179-0.5434-1.8404-0.0469z" fill="url(#e)" opacity=".5"/><path d="m17.098 16.887c-0.5224 0.4965-0.5433 1.3178-0.0471 1.8507l5.3804 5.6615c0.8016-0.427 1.4818-0.9923 2.0192-1.6653l-5.502-5.7894c-0.5067-0.5331-1.3281-0.554-1.8505-0.0575z" fill="url(#d)" opacity=".5"/><path d="m18.132 3.0191c-1.7919 1.4685-1.3015 3.5173-0.6161 4.2835 1.5441 1.5651 3.7493 3.7442 3.7493 3.7442 0.3817 0.2594 0.6551 0.2084 0.8871 0.1614 0.1727-0.035 0.3277-0.1678 0.4543-0.3801 0.1058-0.1773 0.0059-3.0103 0.2404-5.5889 0.1749-1.9231-2.6754-3.8917-4.715-2.2202z" fill="#AAD248"/><path d="m18.132 3.0191c-1.7919 1.4685-1.3015 3.5173-0.6161 4.2835 1.5441 1.5651 3.7493 3.7442 3.7493 3.7442 0.3817 0.2594 0.6551 0.2084 0.8871 0.1614 0.1727-0.035 0.3277-0.1678 0.4543-0.3801 0.1058-0.1773 0.0059-3.0103 0.2404-5.5889 0.1749-1.9231-2.6754-3.8917-4.715-2.2202z" fill="url(#c)"/><path d="m18.132 3.0191c-1.7919 1.4685-1.3015 3.5173-0.6161 4.2835 1.5441 1.5651 3.7493 3.7442 3.7493 3.7442 0.3817 0.2594 0.6551 0.2084 0.8871 0.1614 0.1727-0.035 0.3277-0.1678 0.4543-0.3801 0.1058-0.1773 0.0059-3.0103 0.2404-5.5889 0.1749-1.9231-2.6754-3.8917-4.715-2.2202z" fill="url(#b)"/><path d="m29.312 14.437c-1.51 1.757-3.5468 1.2188-4.2968 0.5157-1.5285-1.5802-3.3281-3.4219-3.3281-3.4219-0.2504-0.3876-0.1931-0.6598-0.1406-0.8906 0.039-0.1718 0.1754-0.3237 0.3906-0.4453 0.1797-0.1015 2.6821-0.34945 5.2655-0.5236 1.9266-0.12988 3.8281 2.7657 2.1094 4.7657z" fill="#AAD248"/><path d="m29.312 14.437c-1.51 1.757-3.5468 1.2188-4.2968 0.5157-1.5285-1.5802-3.3281-3.4219-3.3281-3.4219-0.2504-0.3876-0.1931-0.6598-0.1406-0.8906 0.039-0.1718 0.1754-0.3237 0.3906-0.4453 0.1797-0.1015 2.6821-0.34945 5.2655-0.5236 1.9266-0.12988 3.8281 2.7657 2.1094 4.7657z" fill="url(#a)"/><path d="m29.312 14.437c-1.51 1.757-3.5468 1.2188-4.2968 0.5157-1.5285-1.5802-3.3281-3.4219-3.3281-3.4219-0.2504-0.3876-0.1931-0.6598-0.1406-0.8906 0.039-0.1718 0.1754-0.3237 0.3906-0.4453 0.1797-0.1015 2.6821-0.34945 5.2655-0.5236 1.9266-0.12988 3.8281 2.7657 2.1094 4.7657z" fill="url(#m)"/><path d="m29.312 14.437c-1.51 1.757-3.5468 1.2188-4.2968 0.5157-1.5285-1.5802-3.3281-3.4219-3.3281-3.4219-0.2504-0.3876-0.1931-0.6598-0.1406-0.8906 0.039-0.1718 0.1754-0.3237 0.3906-0.4453 0.1797-0.1015 2.6821-0.34945 5.2655-0.5236 1.9266-0.12988 3.8281 2.7657 2.1094 4.7657z" fill="url(#l)"/><path d="m28.094 3.7656c2.5335 1.8563 1.2188 5.4999-0.8906 5.9062-1.5048 0.28982-5.0702 0.43765-5.0702 0.43765s0.2886-3.5837 0.6952-4.797c0.9844-2.9375 3.6875-2.7031 5.2656-1.5468z" fill="#AAD248"/><path d="m28.094 3.7656c2.5335 1.8563 1.2188 5.4999-0.8906 5.9062-1.5048 0.28982-5.0702 0.43765-5.0702 0.43765s0.2886-3.5837 0.6952-4.797c0.9844-2.9375 3.6875-2.7031 5.2656-1.5468z" fill="url(#k)"/><path d="m28.094 3.7656c2.5335 1.8563 1.2188 5.4999-0.8906 5.9062-1.5048 0.28982-5.0702 0.43765-5.0702 0.43765s0.2886-3.5837 0.6952-4.797c0.9844-2.9375 3.6875-2.7031 5.2656-1.5468z" fill="url(#j)"/><defs><linearGradient id="n" x1="-2.5" x2="11.562" y1="12.5" y2="20.312" gradientUnits="userSpaceOnUse"><stop stop-color="#B3734C" offset=".5411"/><stop stop-color="#EA842A" offset=".76943"/><stop stop-color="#FD9434" offset="1"/></linearGradient><linearGradient id="i" x1="20.5" x2="15.062" y1="32.375" y2="18.562" gradientUnits="userSpaceOnUse"><stop stop-color="#FF7CB4" offset=".40356"/><stop stop-color="#FF717B" stop-opacity="0" offset="1"/></linearGradient><radialGradient id="h" cx="0" cy="0" r="1" gradientTransform="translate(21.625 14.875) rotate(131.01) scale(7.6199 15.321)" gradientUnits="userSpaceOnUse"><stop stop-color="#FFD769" offset="0"/><stop stop-color="#FFA427" offset=".53012"/><stop stop-color="#FCA328" stop-opacity="0" offset="1"/></radialGradient><radialGradient id="g" cx="0" cy="0" r="1" gradientTransform="translate(8.5625 24) rotate(139.81) scale(22.663 22.6)" gradientUnits="userSpaceOnUse"><stop stop-color="#FF9243" stop-opacity="0" offset=".052917"/><stop stop-color="#F28B3A" stop-opacity="0" offset=".77251"/><stop stop-color="#CB751F" offset=".84876"/></radialGradient><linearGradient id="f" x1="7.1875" x2="12.938" y1="13.688" y2="19.125" gradientUnits="userSpaceOnUse"><stop stop-color="#6E482A" offset=".099732"/><stop stop-color="#AC5E3B" offset="1"/></linearGradient><linearGradient id="e" x1="8.947" x2="11.585" y1="24.012" y2="28.798" gradientUnits="userSpaceOnUse"><stop stop-color="#9E5044" offset=".099732"/><stop stop-color="#C95D82" offset="1"/></linearGradient><linearGradient id="d" x1="17.25" x2="22.278" y1="17.688" y2="24.414" gradientUnits="userSpaceOnUse"><stop stop-color="#AA6147" offset=".099732"/><stop stop-color="#CB747C" offset="1"/></linearGradient><radialGradient id="c" cx="0" cy="0" r="1" gradientTransform="translate(21.312 4.625) rotate(152.1) scale(2.4044 2.257)" gradientUnits="userSpaceOnUse"><stop stop-color="#C1F26B" offset="0"/><stop stop-color="#BCEF62" stop-opacity="0" offset="1"/></radialGradient><radialGradient id="b" cx="0" cy="0" r="1" gradientTransform="translate(21.688 6.25) rotate(170.62) scale(4.9827 7.0376)" gradientUnits="userSpaceOnUse"><stop stop-color="#AFDC52" stop-opacity="0" offset="0"/><stop stop-color="#8BC028" offset=".71283"/><stop stop-color="#81AA56" offset="1"/></radialGradient><radialGradient id="a" cx="0" cy="0" r="1" gradientTransform="translate(28.438 11.75) rotate(139.27) scale(2.9692 2.7872)" gradientUnits="userSpaceOnUse"><stop stop-color="#C1F26B" offset="0"/><stop stop-color="#BCEF62" stop-opacity="0" offset="1"/></radialGradient><radialGradient id="m" cx="0" cy="0" r="1" gradientTransform="translate(25.782 11.562) rotate(77.097) scale(4.6166 12.085)" gradientUnits="userSpaceOnUse"><stop stop-color="#A7D029" stop-opacity="0" offset="0"/><stop stop-color="#B3BA74" offset="1"/></radialGradient><linearGradient id="l" x1="27.719" x2="27.625" y1="9.125" y2="10.688" gradientUnits="userSpaceOnUse"><stop stop-color="#8ACE17" offset=".27621"/><stop stop-color="#91D212" stop-opacity="0" offset="1"/></linearGradient><radialGradient id="k" cx="0" cy="0" r="1" gradientTransform="translate(27.545 4.857) rotate(112) scale(2.7593 2.1108)" gradientUnits="userSpaceOnUse"><stop stop-color="#C1F26B" offset="0"/><stop stop-color="#BCEF62" stop-opacity="0" offset="1"/></radialGradient><radialGradient id="j" cx="0" cy="0" r="1" gradientTransform="translate(27.125 5.9375) rotate(135) scale(11.137 5.3501)" gradientUnits="userSpaceOnUse"><stop stop-color="#AFDC52" stop-opacity="0" offset="0"/><stop stop-color="#6FB909" offset=".84712"/></radialGradient></defs></svg>
