<?xml version="1.0" encoding="UTF-8"?>
<!-- Generated by Pixelmator Pro 3.7 -->
<svg width="251" height="20" viewBox="0 0 251 20" xmlns="http://www.w3.org/2000/svg">
    <clipPath id="clipPath1">
        <path d="M 10.014963 1.25 L 154.467658 1.25 L 154.467658 18.75 L 10.014963 18.75 Z"/>
    </clipPath>
    <g id="Group" clip-path="url(#clipPath1)">
        <path id="Path" fill="#ffffff" stroke="none" d="M 143.948196 18.4375 C 144.555344 18.4375 145.047333 17.947811 145.047333 17.34375 C 145.047333 16.739689 144.555344 16.25 143.948196 16.25 C 143.341034 16.25 142.849045 16.739689 142.849045 17.34375 C 142.849045 17.947811 143.341034 18.4375 143.948196 18.4375 Z"/>
        <path id="path1" fill="#ffffff" stroke="none" d="M 147.693146 18.4375 C 148.300308 18.4375 148.792297 17.947811 148.792297 17.34375 C 148.792297 16.739689 148.300308 16.25 147.693146 16.25 C 147.085999 16.25 146.594009 16.739689 146.594009 17.34375 C 146.594009 17.947811 147.085999 18.4375 147.693146 18.4375 Z"/>
        <path id="path2" fill="#ffffff" stroke="none" d="M 151.434372 18.4375 C 152.041534 18.4375 152.533508 17.947811 152.533508 17.34375 C 152.533508 16.739689 152.041534 16.25 151.434372 16.25 C 150.82785 16.25 150.335236 16.739689 150.335236 17.34375 C 150.335236 17.947811 150.82785 18.4375 151.434372 18.4375 Z"/>
        <path id="path3" fill="#ffffff" stroke="none" d="M 15.515868 4.622163 L 10.014962 4.622163 L 10.014962 1.383974 L 24.999601 1.383974 L 24.999601 4.622163 L 19.498756 4.622163 L 19.498756 18.554813 L 15.519687 18.554813 L 15.519687 4.622163 L 15.515868 4.622163 Z"/>
        <path id="path4" fill="#ffffff" stroke="none" d="M 42.905289 1.383974 L 42.905289 18.550938 L 38.926281 18.550938 L 38.926281 11.511937 L 31.113861 11.511937 L 31.113861 18.550938 L 27.13479 18.550938 L 27.13479 1.383974 L 31.113861 1.383974 L 31.113861 8.155062 L 38.926281 8.155062 L 38.926281 1.383974 L 42.905289 1.383974 Z"/>
        <path id="path5" fill="#ffffff" stroke="none" d="M 57.552673 18.554813 L 54.236782 13.77025 L 50.575935 13.77025 L 50.575935 18.554813 L 46.59687 18.554813 L 46.59687 1.383974 L 54.041302 1.383974 C 55.563141 1.383974 56.885612 1.636593 58.008793 2.145676 C 59.131973 2.650925 59.994511 3.37052 60.600163 4.304469 C 61.205879 5.238413 61.508709 6.34075 61.508709 7.615376 C 61.508709 8.889999 61.202 9.992375 60.588707 10.914812 C 59.975353 11.83725 59.10136 12.545375 57.974304 13.035313 L 61.830692 18.554813 L 57.556488 18.554813 L 57.552673 18.554813 Z M 56.548298 5.395344 C 55.927307 4.878613 55.018761 4.622163 53.822788 4.622163 L 50.579758 4.622163 L 50.579758 10.60475 L 53.822788 10.60475 C 55.018761 10.60475 55.927307 10.344501 56.548298 9.820126 C 57.169285 9.295688 57.483635 8.560813 57.483635 7.611564 C 57.483635 6.662313 57.173168 5.908251 56.548298 5.39152 L 56.548298 5.395344 Z"/>
        <path id="path6" fill="#ffffff" stroke="none" d="M 77.965233 15.366375 L 77.965233 18.554813 L 64.652222 18.554813 L 64.652222 1.383974 L 77.647263 1.383974 L 77.647263 4.5724 L 68.608131 4.5724 L 68.608131 8.3005 L 76.593178 8.3005 L 76.593178 11.389438 L 68.608131 11.389438 L 68.608131 15.362562 L 77.965233 15.362562 L 77.965233 15.366375 Z"/>
        <path id="path7" fill="#ffffff" stroke="none" d="M 94.448608 15.366375 L 94.448608 18.554813 L 81.135597 18.554813 L 81.135597 1.383974 L 94.130638 1.383974 L 94.130638 4.5724 L 85.091499 4.5724 L 85.091499 8.3005 L 93.076553 8.3005 L 93.076553 11.389438 L 85.091499 11.389438 L 85.091499 15.362562 L 94.448608 15.362562 L 94.448608 15.366375 Z"/>
        <path id="path8" fill="#ffffff" stroke="none" d="M 113.262962 18.554813 L 113.239807 8.254626 L 108.179749 16.740499 L 106.385818 16.740499 L 101.348915 8.476624 L 101.348915 18.558624 L 97.615219 18.558624 L 97.615219 1.383974 L 100.908264 1.383974 L 107.344124 12.051625 L 113.681091 1.383974 L 116.946602 1.383974 L 116.996666 18.550938 L 113.262962 18.550938 L 113.262962 18.554813 Z"/>
        <path id="path9" fill="#ffffff" stroke="none" d="M 132.399063 14.876437 L 124.414635 14.876437 L 122.892357 18.554813 L 118.813759 18.554813 L 126.476456 1.383974 L 130.406082 1.383974 L 138.095688 18.550938 L 133.921326 18.550938 L 132.399063 14.872625 L 132.399063 14.876437 Z M 131.145935 11.86025 L 128.419983 5.28817 L 125.694672 11.86025 L 131.145935 11.86025 Z"/>
        <path id="path10" fill="#ffffff" stroke="none" d="M 147.561081 1.25 C 151.369904 1.25 154.467651 4.333895 154.467651 8.125 C 154.467651 11.916124 151.369904 15 147.561081 15 C 146.155853 15 144.85141 14.582312 143.760406 13.863501 L 141.105194 14.710063 L 141.967102 12.15575 C 141.139618 11.023438 140.650757 9.628313 140.650757 8.125 C 140.650757 4.333895 143.749146 1.25 147.557327 1.25 L 147.561081 1.25 Z M 147.688141 4.375 C 146.607162 4.375006 145.72522 5.25545 145.72522 6.334812 L 145.72522 7.24975 L 145.664505 7.24975 C 145.323364 7.24975 145.047333 7.525063 145.047333 7.865624 L 145.047333 10.33875 C 145.047333 10.67925 145.323364 10.954562 145.664505 10.954562 L 149.708664 10.954562 C 150.049805 10.954562 150.325836 10.67925 150.325836 10.33875 L 150.325836 7.865624 C 150.325836 7.525063 150.049805 7.24975 149.708664 7.24975 L 149.651077 7.24975 L 149.651077 6.334812 C 149.651077 5.255444 148.769135 4.375 147.688141 4.375 Z M 147.688141 5.178831 C 148.324722 5.178831 148.84613 5.69945 148.84613 6.334812 L 148.84613 7.24975 L 146.530792 7.24975 L 146.530792 6.334812 C 146.530792 5.695624 147.0522 5.178843 147.688141 5.178831 Z"/>
    </g>
    <path id="path11" fill="#ffffff" stroke="none" d="M 167.40387 18.75 C 166.076859 18.75 164.850037 18.537001 163.722107 18.110939 C 162.610443 17.668562 161.640244 17.054064 160.810883 16.267563 C 159.998413 15.481062 159.35997 14.55525 158.895523 13.490187 C 158.447342 12.425125 158.223892 11.261687 158.223892 10 C 158.223892 8.738313 158.447342 7.574938 158.895523 6.509811 C 159.35997 5.444756 160.006561 4.518962 160.835922 3.732445 C 161.665298 2.945925 162.635483 2.339657 163.746521 1.913626 C 164.874451 1.471207 166.101913 1.25 167.428894 1.25 C 168.755875 1.25 169.966446 1.454826 171.061203 1.86447 C 172.172852 2.274113 173.118027 2.896769 173.897308 3.732445 L 172.753098 4.887638 C 172.023254 4.166669 171.218918 3.650513 170.339478 3.339188 C 169.460678 3.027857 168.515503 2.872189 167.503387 2.872189 C 166.425522 2.872189 165.430283 3.052431 164.518295 3.412918 C 163.622574 3.757025 162.834534 4.256787 162.154755 4.912219 C 161.491272 5.551262 160.968628 6.305 160.587418 7.173438 C 160.222504 8.025501 160.039734 8.967688 160.039734 10 C 160.039734 11.015938 160.222504 11.958124 160.587418 12.826562 C 160.968628 13.695001 161.491272 14.456938 162.154755 15.112375 C 162.834534 15.751375 163.622574 16.251186 164.518295 16.611687 C 165.430283 16.95575 166.417374 17.127811 167.478973 17.127811 C 168.473572 17.127811 169.41124 16.980312 170.290039 16.685375 C 171.18576 16.390438 172.006973 15.890688 172.753098 15.186125 L 173.797791 16.5625 C 172.968414 17.283501 171.99823 17.832375 170.887177 18.209249 C 169.776138 18.56975 168.615051 18.75 167.40387 18.75 Z M 172.031387 16.341312 L 172.031387 10 L 173.797791 10 L 173.797791 16.5625 L 172.031387 16.341312 Z"/>
    <path id="path12" fill="#ffffff" stroke="none" d="M 178.013458 18.602501 L 178.013458 1.397469 L 184.531937 1.397469 C 186.007904 1.397469 187.276672 1.635063 188.338257 2.110256 C 189.399841 2.569056 190.212311 3.24087 190.776276 4.1257 C 191.357132 4.99415 191.646957 6.051031 191.646957 7.296375 C 191.646957 8.508876 191.357132 9.557562 190.776276 10.442437 C 190.212311 11.310876 189.399841 11.982688 188.338257 12.457875 C 187.276672 12.916688 186.007904 13.146063 184.531937 13.146063 L 179.033737 13.146063 L 179.85434 12.310375 L 179.85434 18.602501 L 178.013458 18.602501 Z M 189.905594 18.602501 L 185.427658 12.359562 L 187.417511 12.359562 L 191.921097 18.602501 L 189.905594 18.602501 Z M 179.85434 12.457875 L 179.033737 11.597625 L 184.481873 11.597625 C 186.223846 11.597625 187.542053 11.22075 188.437775 10.467 C 189.349762 9.713249 189.806076 8.656376 189.806076 7.296375 C 189.806076 5.919944 189.349762 4.854869 188.437775 4.101125 C 187.542053 3.347376 186.223846 2.970507 184.481873 2.970507 L 179.033737 2.970507 L 179.85434 2.110256 L 179.85434 12.457875 Z"/>
    <path id="path13" fill="#ffffff" stroke="none" d="M 196.63942 9.090562 L 205.845032 9.090562 L 205.845032 10.639062 L 196.63942 10.639062 L 196.63942 9.090562 Z M 196.838455 17.029499 L 207.312851 17.029499 L 207.312851 18.602501 L 194.997574 18.602501 L 194.997574 1.397469 L 206.939178 1.397469 L 206.939178 2.970507 L 196.838455 2.970507 L 196.838455 17.029499 Z"/>
    <path id="path14" fill="#ffffff" stroke="none" d="M 212.28717 9.090562 L 221.492172 9.090562 L 221.492172 10.639062 L 212.28717 10.639062 L 212.28717 9.090562 Z M 212.486206 17.029499 L 222.959991 17.029499 L 222.959991 18.602501 L 210.645325 18.602501 L 210.645325 1.397469 L 222.586929 1.397469 L 222.586929 2.970507 L 212.486206 2.970507 L 212.486206 17.029499 Z"/>
    <path id="path15" fill="#ffffff" stroke="none" d="M 226.292465 18.602501 L 226.292465 1.397469 L 227.810349 1.397469 L 239.827057 16.341312 L 239.030869 16.341312 L 239.030869 1.397469 L 240.847336 1.397469 L 240.847336 18.602501 L 239.329453 18.602501 L 227.337769 3.658707 L 228.133957 3.658707 L 228.133957 18.602501 L 226.292465 18.602501 Z"/>
</svg>
