<svg fill="none" viewBox="0 0 32 32" xmlns="http://www.w3.org/2000/svg"><path d="m11.758 6.757c1.5549-2.0451 8.6516-2.6631 5.6016 0.29688-1.81 1.76-2.9466 3.6813-5.2666 4.6813-3.9062 1.4843-5.0888-1.6187-4.6202-2.0876 0.4687-0.4688 1.3091 0.49475 2.4141 0.03125 0.77889-0.32675 0.83269-1.5561 1.8711-2.9219z" fill="url(#bc)"/><path d="m11.758 6.757c1.5549-2.0451 8.6516-2.6631 5.6016 0.29688-1.81 1.76-2.9466 3.6813-5.2666 4.6813-3.9062 1.4843-5.0888-1.6187-4.6202-2.0876 0.4687-0.4688 1.3091 0.49475 2.4141 0.03125 0.77889-0.32675 0.83269-1.5561 1.8711-2.9219z" fill="url(#as)"/><path d="m11.758 6.757c1.5549-2.0451 8.6516-2.6631 5.6016 0.29688-1.81 1.76-2.9466 3.6813-5.2666 4.6813-3.9062 1.4843-5.0888-1.6187-4.6202-2.0876 0.4687-0.4688 1.3091 0.49475 2.4141 0.03125 0.77889-0.32675 0.83269-1.5561 1.8711-2.9219z" fill="url(#aj)"/><g filter="url(#bm)"><path d="m9.3273 10.05c0.09139 0.2568 0.30859 0.4727 0.86093 0.4727 0.6333 0 1.0126-0.4954 1.3594-1.4453 0.3468-0.94992 1.1498-2.1062 2.5521-2.3625l-0.1229-1.0122c-0.9111 0.30169-1.7261 0.74737-2.1429 1.2956-0.4647 0.61113-0.7322 1.1949-0.9557 1.6828-0.2761 0.60243-0.4851 1.0585-0.91544 1.2391-0.22289 0.09348-0.43501 0.12898-0.63549 0.12978z" fill="url(#ai)"/></g><path d="m15.673 20.735c-3.3711 3.5574-4.2344 7.6462-4.4197 8.814-0.0277 0.1751 0.1088 0.3267 0.2861 0.3267h14.999c2.14 0 3.82-2.0821 3.62-4.2221-0.6-6.34-2.8-18.03-10.91-18.03-3.49 0-1.2555 10.671-3.5755 13.111z" fill="url(#ae)"/><path d="m15.673 20.735c-3.3711 3.5574-4.2344 7.6462-4.4197 8.814-0.0277 0.1751 0.1088 0.3267 0.2861 0.3267h14.999c2.14 0 3.82-2.0821 3.62-4.2221-0.6-6.34-2.8-18.03-10.91-18.03-3.49 0-1.2555 10.671-3.5755 13.111z" fill="url(#t)"/><path d="m15.673 20.735c-3.3711 3.5574-4.2344 7.6462-4.4197 8.814-0.0277 0.1751 0.1088 0.3267 0.2861 0.3267h14.999c2.14 0 3.82-2.0821 3.62-4.2221-0.6-6.34-2.8-18.03-10.91-18.03-3.49 0-1.2555 10.671-3.5755 13.111z" fill="url(#n)"/><path d="m15.673 20.735c-3.3711 3.5574-4.2344 7.6462-4.4197 8.814-0.0277 0.1751 0.1088 0.3267 0.2861 0.3267h14.999c2.14 0 3.82-2.0821 3.62-4.2221-0.6-6.34-2.8-18.03-10.91-18.03-3.49 0-1.2555 10.671-3.5755 13.111z" fill="url(#m)"/><path d="m15.673 20.735c-3.3711 3.5574-4.2344 7.6462-4.4197 8.814-0.0277 0.1751 0.1088 0.3267 0.2861 0.3267h14.999c2.14 0 3.82-2.0821 3.62-4.2221-0.6-6.34-2.8-18.03-10.91-18.03-3.49 0-1.2555 10.671-3.5755 13.111z" fill="url(#l)"/><path d="m30.266 16.86c0-3.6562-2.323-4.2084-3.2188-4.1875 0.1979 0.7917 0.2813 3.3-0.9687 7s-0.2188 8.4688 0.4687 10.219c2.6719 0 3.7188-0.3438 3.7188-2.2813v-10.75z" fill="url(#k)"/><path d="m30.266 16.86c0-3.6562-2.323-4.2084-3.2188-4.1875 0.1979 0.7917 0.2813 3.3-0.9687 7s-0.2188 8.4688 0.4687 10.219c2.6719 0 3.7188-0.3438 3.7188-2.2813v-10.75z" fill="url(#bb)"/><path d="m30.266 16.86c0-3.6562-2.323-4.2084-3.2188-4.1875 0.1979 0.7917 0.2813 3.3-0.9687 7s-0.2188 8.4688 0.4687 10.219c2.6719 0 3.7188-0.3438 3.7188-2.2813v-10.75z" fill="url(#ba)"/><path d="m30.266 16.86c0-3.6562-2.323-4.2084-3.2188-4.1875 0.1979 0.7917 0.2813 3.3-0.9687 7s-0.2188 8.4688 0.4687 10.219c2.6719 0 3.7188-0.3438 3.7188-2.2813v-10.75z" fill="url(#az)"/><path d="m30.266 16.86c0-3.6562-2.323-4.2084-3.2188-4.1875 0.1979 0.7917 0.2813 3.3-0.9687 7s-0.2188 8.4688 0.4687 10.219c2.6719 0 3.7188-0.3438 3.7188-2.2813v-10.75z" fill="url(#ay)"/><path d="m30.266 16.86c0-3.6562-2.323-4.2084-3.2188-4.1875 0.1979 0.7917 0.2813 3.3-0.9687 7s-0.2188 8.4688 0.4687 10.219c2.6719 0 3.7188-0.3438 3.7188-2.2813v-10.75z" fill="url(#ax)"/><path d="m30.266 16.86c0-3.6562-2.323-4.2084-3.2188-4.1875 0.1979 0.7917 0.2813 3.3-0.9687 7s-0.2188 8.4688 0.4687 10.219c2.6719 0 3.7188-0.3438 3.7188-2.2813v-10.75z" fill="url(#aw)"/><g filter="url(#bl)"><path d="m27.563 14.891c0.1033 0.4321 0.4936 1.281-0.3276 4.3814-0.7656 2.8907-1.3281 5.4688-0.2031 9.8438" stroke="#786D6D" stroke-linecap="round" stroke-width=".25"/></g><path d="m27.735 17.173c1.0625-4-1.875-8.1562-4.1875-8.1562 0.8125 1.8541 1.3125 6.2187 0 8.3437-1.4957 2.4216-1.7344 9.0313-0.9844 12.531h4.75c-1.7-4.825-0.6406-8.7188 0.4219-12.719z" fill="url(#av)"/><path d="m27.735 17.173c1.0625-4-1.875-8.1562-4.1875-8.1562 0.8125 1.8541 1.3125 6.2187 0 8.3437-1.4957 2.4216-1.7344 9.0313-0.9844 12.531h4.75c-1.7-4.825-0.6406-8.7188 0.4219-12.719z" fill="url(#au)"/><path d="m27.735 17.173c1.0625-4-1.875-8.1562-4.1875-8.1562 0.8125 1.8541 1.3125 6.2187 0 8.3437-1.4957 2.4216-1.7344 9.0313-0.9844 12.531h4.75c-1.7-4.825-0.6406-8.7188 0.4219-12.719z" fill="url(#at)"/><path d="m27.735 17.173c1.0625-4-1.875-8.1562-4.1875-8.1562 0.8125 1.8541 1.3125 6.2187 0 8.3437-1.4957 2.4216-1.7344 9.0313-0.9844 12.531h4.75c-1.7-4.825-0.6406-8.7188 0.4219-12.719z" fill="url(#j)"/><path d="m27.735 17.173c1.0625-4-1.875-8.1562-4.1875-8.1562 0.8125 1.8541 1.3125 6.2187 0 8.3437-1.4957 2.4216-1.7344 9.0313-0.9844 12.531h4.75c-1.7-4.825-0.6406-8.7188 0.4219-12.719z" fill="url(#j)"/><path d="m27.735 17.173c1.0625-4-1.875-8.1562-4.1875-8.1562 0.8125 1.8541 1.3125 6.2187 0 8.3437-1.4957 2.4216-1.7344 9.0313-0.9844 12.531h4.75c-1.7-4.825-0.6406-8.7188 0.4219-12.719z" fill="url(#ar)"/><g filter="url(#bk)"><path d="m24.516 11.288c1.3907 2.6719 0.356 4.4887-0.9062 8.2032-1.0938 3.2187-1.5313 5.5937-0.5313 10.062" stroke="#6B6060" stroke-linecap="round" stroke-width=".5"/></g><path d="m3.8236 18.994 11.967-12.873h2.625l6.0938 5.5-0.7976 1.9829c-1.5943 3.9634-5.0342 6.8905-9.2017 7.8301l-8.2183 1.8529c-1.3096 0.2952-2.6279-0.4584-3.0378-1.7368-0.28614-0.8923-0.06831-1.8696 0.5697-2.5559z" fill="url(#aq)"/><path d="m3.8236 18.994 11.967-12.873h2.625l6.0938 5.5-0.7976 1.9829c-1.5943 3.9634-5.0342 6.8905-9.2017 7.8301l-8.2183 1.8529c-1.3096 0.2952-2.6279-0.4584-3.0378-1.7368-0.28614-0.8923-0.06831-1.8696 0.5697-2.5559z" fill="url(#ap)"/><path d="m3.8236 18.994 11.967-12.873h2.625l6.0938 5.5-0.7976 1.9829c-1.5943 3.9634-5.0342 6.8905-9.2017 7.8301l-8.2183 1.8529c-1.3096 0.2952-2.6279-0.4584-3.0378-1.7368-0.28614-0.8923-0.06831-1.8696 0.5697-2.5559z" fill="url(#ao)"/><path d="m3.8236 18.994 11.967-12.873h2.625l6.0938 5.5-0.7976 1.9829c-1.5943 3.9634-5.0342 6.8905-9.2017 7.8301l-8.2183 1.8529c-1.3096 0.2952-2.6279-0.4584-3.0378-1.7368-0.28614-0.8923-0.06831-1.8696 0.5697-2.5559z" fill="url(#an)"/><path d="m3.8236 18.994 11.967-12.873h2.625l6.0938 5.5-0.7976 1.9829c-1.5943 3.9634-5.0342 6.8905-9.2017 7.8301l-8.2183 1.8529c-1.3096 0.2952-2.6279-0.4584-3.0378-1.7368-0.28614-0.8923-0.06831-1.8696 0.5697-2.5559z" fill="url(#am)"/><g filter="url(#bj)"><path d="m3.7299 18.958 11.967-12.873h2.625l6.0937 5.5-0.7976 1.9829c-1.5943 3.9634-5.0341 6.8905-9.2016 7.8301l-8.2184 1.8529c-1.3096 0.2952-2.6279-0.4584-3.0378-1.7368-0.28614-0.8923-0.06831-1.8696 0.5697-2.5559z" fill="url(#al)"/></g><g filter="url(#bi)"><path d="m17.548 10.179-11.848 10.081c-0.3503 0.2981-0.41174 0.8157-0.14094 1.1875 0.2545 0.3494 0.7252 0.462 1.1103 0.2657l12.691-6.4716-1.8125-5.0625z" fill="url(#ak)"/></g><path d="m23.157 29.876h-6.625c-1.59-6.76 3.7962-11.262 4.1562-16.302 0.4-5.73-3.74-6.79-3.74-6.79-1.32 0.33 1.01 1.25-1.58 1.25l-0.68-1.45-0.6875-1.1299c1.64-0.45 3.8422-0.82697 6.3594 0.40632 3.0994 1.5185 5.7531 5.4881 4.6875 9.5625-1.0625 4.0625-3.5781 6.9921-1.8906 14.453z" fill="url(#i)"/><path d="m23.157 29.876h-6.625c-1.59-6.76 3.7962-11.262 4.1562-16.302 0.4-5.73-3.74-6.79-3.74-6.79-1.32 0.33 1.01 1.25-1.58 1.25l-0.68-1.45-0.6875-1.1299c1.64-0.45 3.8422-0.82697 6.3594 0.40632 3.0994 1.5185 5.7531 5.4881 4.6875 9.5625-1.0625 4.0625-3.5781 6.9921-1.8906 14.453z" fill="url(#h)"/><path d="m23.157 29.876h-6.625c-1.59-6.76 3.7962-11.262 4.1562-16.302 0.4-5.73-3.74-6.79-3.74-6.79-1.32 0.33 1.01 1.25-1.58 1.25l-0.68-1.45-0.6875-1.1299c1.64-0.45 3.8422-0.82697 6.3594 0.40632 3.0994 1.5185 5.7531 5.4881 4.6875 9.5625-1.0625 4.0625-3.5781 6.9921-1.8906 14.453z" fill="url(#g)"/><path d="m23.157 29.876h-6.625c-1.59-6.76 3.7962-11.262 4.1562-16.302 0.4-5.73-3.74-6.79-3.74-6.79-1.32 0.33 1.01 1.25-1.58 1.25l-0.68-1.45-0.6875-1.1299c1.64-0.45 3.8422-0.82697 6.3594 0.40632 3.0994 1.5185 5.7531 5.4881 4.6875 9.5625-1.0625 4.0625-3.5781 6.9921-1.8906 14.453z" fill="url(#f)"/><path d="m23.157 29.876h-6.625c-1.59-6.76 3.7962-11.262 4.1562-16.302 0.4-5.73-3.74-6.79-3.74-6.79-1.32 0.33 1.01 1.25-1.58 1.25l-0.68-1.45-0.6875-1.1299c1.64-0.45 3.8422-0.82697 6.3594 0.40632 3.0994 1.5185 5.7531 5.4881 4.6875 9.5625-1.0625 4.0625-3.5781 6.9921-1.8906 14.453z" fill="url(#e)"/><path d="m23.157 29.876h-6.625c-1.59-6.76 3.7962-11.262 4.1562-16.302 0.4-5.73-3.74-6.79-3.74-6.79-1.32 0.33 1.01 1.25-1.58 1.25l-0.68-1.45-0.6875-1.1299c1.64-0.45 3.8422-0.82697 6.3594 0.40632 3.0994 1.5185 5.7531 5.4881 4.6875 9.5625-1.0625 4.0625-3.5781 6.9921-1.8906 14.453z" fill="url(#d)"/><path d="m23.157 29.876h-6.625c-1.59-6.76 3.7962-11.262 4.1562-16.302 0.4-5.73-3.74-6.79-3.74-6.79-1.32 0.33 1.01 1.25-1.58 1.25l-0.68-1.45-0.6875-1.1299c1.64-0.45 3.8422-0.82697 6.3594 0.40632 3.0994 1.5185 5.7531 5.4881 4.6875 9.5625-1.0625 4.0625-3.5781 6.9921-1.8906 14.453z" fill="url(#c)"/><path d="m23.157 29.876h-6.625c-1.59-6.76 3.7962-11.262 4.1562-16.302 0.4-5.73-3.74-6.79-3.74-6.79-1.32 0.33 1.01 1.25-1.58 1.25l-0.68-1.45-0.6875-1.1299c1.64-0.45 3.8422-0.82697 6.3594 0.40632 3.0994 1.5185 5.7531 5.4881 4.6875 9.5625-1.0625 4.0625-3.5781 6.9921-1.8906 14.453z" fill="url(#b)" fill-opacity=".75"/><path d="m23.157 29.876h-6.625c-1.59-6.76 3.7962-11.262 4.1562-16.302 0.4-5.73-3.74-6.79-3.74-6.79-1.32 0.33 1.01 1.25-1.58 1.25l-0.68-1.45-0.6875-1.1299c1.64-0.45 3.8422-0.82697 6.3594 0.40632 3.0994 1.5185 5.7531 5.4881 4.6875 9.5625-1.0625 4.0625-3.5781 6.9921-1.8906 14.453z" fill="url(#a)" fill-opacity=".75"/><path d="m23.157 29.876h-6.625c-1.59-6.76 3.7962-11.262 4.1562-16.302 0.4-5.73-3.74-6.79-3.74-6.79-1.32 0.33 1.01 1.25-1.58 1.25l-0.68-1.45-0.6875-1.1299c1.64-0.45 3.8422-0.82697 6.3594 0.40632 3.0994 1.5185 5.7531 5.4881 4.6875 9.5625-1.0625 4.0625-3.5781 6.9921-1.8906 14.453z" fill="url(#i)"/><path d="m23.157 29.876h-6.625c-1.59-6.76 3.7962-11.262 4.1562-16.302 0.4-5.73-3.74-6.79-3.74-6.79-1.32 0.33 1.01 1.25-1.58 1.25l-0.68-1.45-0.6875-1.1299c1.64-0.45 3.8422-0.82697 6.3594 0.40632 3.0994 1.5185 5.7531 5.4881 4.6875 9.5625-1.0625 4.0625-3.5781 6.9921-1.8906 14.453z" fill="url(#h)"/><path d="m23.157 29.876h-6.625c-1.59-6.76 3.7962-11.262 4.1562-16.302 0.4-5.73-3.74-6.79-3.74-6.79-1.32 0.33 1.01 1.25-1.58 1.25l-0.68-1.45-0.6875-1.1299c1.64-0.45 3.8422-0.82697 6.3594 0.40632 3.0994 1.5185 5.7531 5.4881 4.6875 9.5625-1.0625 4.0625-3.5781 6.9921-1.8906 14.453z" fill="url(#g)"/><path d="m23.157 29.876h-6.625c-1.59-6.76 3.7962-11.262 4.1562-16.302 0.4-5.73-3.74-6.79-3.74-6.79-1.32 0.33 1.01 1.25-1.58 1.25l-0.68-1.45-0.6875-1.1299c1.64-0.45 3.8422-0.82697 6.3594 0.40632 3.0994 1.5185 5.7531 5.4881 4.6875 9.5625-1.0625 4.0625-3.5781 6.9921-1.8906 14.453z" fill="url(#f)"/><path d="m23.157 29.876h-6.625c-1.59-6.76 3.7962-11.262 4.1562-16.302 0.4-5.73-3.74-6.79-3.74-6.79-1.32 0.33 1.01 1.25-1.58 1.25l-0.68-1.45-0.6875-1.1299c1.64-0.45 3.8422-0.82697 6.3594 0.40632 3.0994 1.5185 5.7531 5.4881 4.6875 9.5625-1.0625 4.0625-3.5781 6.9921-1.8906 14.453z" fill="url(#e)"/><path d="m23.157 29.876h-6.625c-1.59-6.76 3.7962-11.262 4.1562-16.302 0.4-5.73-3.74-6.79-3.74-6.79-1.32 0.33 1.01 1.25-1.58 1.25l-0.68-1.45-0.6875-1.1299c1.64-0.45 3.8422-0.82697 6.3594 0.40632 3.0994 1.5185 5.7531 5.4881 4.6875 9.5625-1.0625 4.0625-3.5781 6.9921-1.8906 14.453z" fill="url(#d)"/><path d="m23.157 29.876h-6.625c-1.59-6.76 3.7962-11.262 4.1562-16.302 0.4-5.73-3.74-6.79-3.74-6.79-1.32 0.33 1.01 1.25-1.58 1.25l-0.68-1.45-0.6875-1.1299c1.64-0.45 3.8422-0.82697 6.3594 0.40632 3.0994 1.5185 5.7531 5.4881 4.6875 9.5625-1.0625 4.0625-3.5781 6.9921-1.8906 14.453z" fill="url(#c)"/><path d="m23.157 29.876h-6.625c-1.59-6.76 3.7962-11.262 4.1562-16.302 0.4-5.73-3.74-6.79-3.74-6.79-1.32 0.33 1.01 1.25-1.58 1.25l-0.68-1.45-0.6875-1.1299c1.64-0.45 3.8422-0.82697 6.3594 0.40632 3.0994 1.5185 5.7531 5.4881 4.6875 9.5625-1.0625 4.0625-3.5781 6.9921-1.8906 14.453z" fill="url(#ah)"/><path d="m23.157 29.876h-6.625c-1.59-6.76 3.7962-11.262 4.1562-16.302 0.4-5.73-3.74-6.79-3.74-6.79-1.32 0.33 1.01 1.25-1.58 1.25l-0.68-1.45-0.6875-1.1299c1.64-0.45 3.8422-0.82697 6.3594 0.40632 3.0994 1.5185 5.7531 5.4881 4.6875 9.5625-1.0625 4.0625-3.5781 6.9921-1.8906 14.453z" fill="url(#ag)"/><path d="m23.157 29.876h-6.625c-1.59-6.76 3.7962-11.262 4.1562-16.302 0.4-5.73-3.74-6.79-3.74-6.79-1.32 0.33 1.01 1.25-1.58 1.25l-0.68-1.45-0.6875-1.1299c1.64-0.45 3.8422-0.82697 6.3594 0.40632 3.0994 1.5185 5.7531 5.4881 4.6875 9.5625-1.0625 4.0625-3.5781 6.9921-1.8906 14.453z" fill="url(#b)" fill-opacity=".75"/><path d="m23.157 29.876h-6.625c-1.59-6.76 3.7962-11.262 4.1562-16.302 0.4-5.73-3.74-6.79-3.74-6.79-1.32 0.33 1.01 1.25-1.58 1.25l-0.68-1.45-0.6875-1.1299c1.64-0.45 3.8422-0.82697 6.3594 0.40632 3.0994 1.5185 5.7531 5.4881 4.6875 9.5625-1.0625 4.0625-3.5781 6.9921-1.8906 14.453z" fill="url(#a)" fill-opacity=".75"/><g filter="url(#bh)"><path d="m18.884 29.876h-2.1039c-0.8313-3.5344 0.1604-6.1142 1.4277-8.8138l0.6762 8.8138z" fill="url(#af)"/><path d="m18.884 29.876h-2.1039c-0.8313-3.5344 0.1604-6.1142 1.4277-8.8138l0.6762 8.8138z" fill="url(#ad)" fill-opacity=".65"/></g><path d="m15.892 9.1477c-2.0625 0-2.4718-0.97656-2.5875-2.7266-0.1156-1.75 0-2.2109 0-2.2109 0-0.34 0.41-0.57432 0.65-0.33432 0 0 2.8672 2.3265 3.4219 3.5312 0.5547 1.2047-0.4687 1.7406-1.4844 1.7406z" fill="url(#ac)"/><path d="m15.892 9.1477c-2.0625 0-2.4718-0.97656-2.5875-2.7266-0.1156-1.75 0-2.2109 0-2.2109 0-0.34 0.41-0.57432 0.65-0.33432 0 0 2.8672 2.3265 3.4219 3.5312 0.5547 1.2047-0.4687 1.7406-1.4844 1.7406z" fill="url(#ab)"/><path d="m15.892 9.1477c-2.0625 0-2.4718-0.97656-2.5875-2.7266-0.1156-1.75 0-2.2109 0-2.2109 0-0.34 0.41-0.57432 0.65-0.33432 0 0 2.8672 2.3265 3.4219 3.5312 0.5547 1.2047-0.4687 1.7406-1.4844 1.7406z" fill="url(#aa)"/><path d="m15.892 9.1477c-2.0625 0-2.4718-0.97656-2.5875-2.7266-0.1156-1.75 0-2.2109 0-2.2109 0-0.34 0.41-0.57432 0.65-0.33432 0 0 2.8672 2.3265 3.4219 3.5312 0.5547 1.2047-0.4687 1.7406-1.4844 1.7406z" fill="url(#z)" fill-opacity=".6"/><g filter="url(#bg)"><path d="m12.706 14.8c-0.402 0.0906-0.8052-0.1642-0.8958-0.5662l-0.3111-1.3798c-0.0907-0.402 0.1641-0.8051 0.5661-0.8958 0.4021-0.0906 0.8052 0.1642 0.8959 0.5662l0.3111 1.3797c0.0906 0.4021-0.1642 0.8052-0.5662 0.8959z" fill="url(#y)"/></g><path d="m12.807 14.835c-0.4122 0-0.7494-0.3372-0.7494-0.7494v-1.4143c0-0.4122 0.3372-0.7494 0.7494-0.7494 0.4121 0 0.7493 0.3372 0.7493 0.7494v1.4143c0 0.4122-0.3372 0.7494-0.7493 0.7494z" fill="url(#x)"/><path d="m12.807 14.835c-0.4122 0-0.7494-0.3372-0.7494-0.7494v-1.4143c0-0.4122 0.3372-0.7494 0.7494-0.7494 0.4121 0 0.7493 0.3372 0.7493 0.7494v1.4143c0 0.4122-0.3372 0.7494-0.7493 0.7494z" fill="url(#w)"/><path d="m12.807 14.835c-0.4122 0-0.7494-0.3372-0.7494-0.7494v-1.4143c0-0.4122 0.3372-0.7494 0.7494-0.7494 0.4121 0 0.7493 0.3372 0.7493 0.7494v1.4143c0 0.4122-0.3372 0.7494-0.7493 0.7494z" fill="url(#v)"/><path d="m12.807 14.835c-0.4122 0-0.7494-0.3372-0.7494-0.7494v-1.4143c0-0.4122 0.3372-0.7494 0.7494-0.7494 0.4121 0 0.7493 0.3372 0.7493 0.7494v1.4143c0 0.4122-0.3372 0.7494-0.7493 0.7494z" fill="url(#u)"/><path d="m5.6356 20.183c-0.26098 0.261-0.69596 0.261-0.95694 0l0.95694-0.957c0.26098 0.2697 0.26098 0.696 0 0.957z" fill="url(#s)"/><path d="m9.0468 22.608-1.864 0.4065c0.77466-0.3012 1.2605-1.119 1.114-1.972-0.04788-0.2786 0.13917-0.5433 0.41777-0.5911 0.2786-0.0479 0.54327 0.1391 0.59114 0.4177 0.10578 0.6157 0.00225 1.2197-0.25885 1.7389z" fill="url(#r)"/><g filter="url(#bf)"><path d="m14.391 8.8665c0.2969 0.25 0.988 0.38458 1.7031 0.25 0.7151-0.13459 1.2518-0.66518 1.4004-0.85284" stroke="url(#q)" stroke-linecap="round" stroke-width=".5"/></g><g filter="url(#be)"><path d="m26.485 13.304c0.2084 0.5208 0.4125 2.35-0.4375 5.5-1.0625 3.9375-1.25 5.875-0.625 8.875" stroke="url(#p)" stroke-linecap="round" stroke-width=".75"/></g><g filter="url(#bd)"><path d="m23.391 10.335c0.2083 0.5208 1.1875 3.8438-1.0612 8.4688-1.7833 3.6678-2.0326 6.0625-1.5951 10.25" stroke="url(#o)" stroke-linecap="round" stroke-width=".75"/></g><defs><filter id="bm" x="8.8273" y="5.2026" width="5.7724" height="5.82" color-interpolation-filters="sRGB" filterUnits="userSpaceOnUse"><feFlood flood-opacity="0" result="BackgroundImageFix"/><feBlend in="SourceGraphic" in2="BackgroundImageFix" result="shape"/><feGaussianBlur result="effect1_foregroundBlur_28327_2421" stdDeviation="0.25"/></filter><filter id="bl" x="25.772" y="14.266" width="2.5991" height="15.475" color-interpolation-filters="sRGB" filterUnits="userSpaceOnUse"><feFlood flood-opacity="0" result="BackgroundImageFix"/><feBlend in="SourceGraphic" in2="BackgroundImageFix" result="shape"/><feGaussianBlur result="effect1_foregroundBlur_28327_2421" stdDeviation="0.25"/></filter><filter id="bk" x="21.768" y="10.538" width="4.1616" height="19.766" color-interpolation-filters="sRGB" filterUnits="userSpaceOnUse"><feFlood flood-opacity="0" result="BackgroundImageFix"/><feBlend in="SourceGraphic" in2="BackgroundImageFix" result="shape"/><feGaussianBlur result="effect1_foregroundBlur_28327_2421" stdDeviation="0.25"/></filter><filter id="bj" x="2.0363" y="5.0852" width="23.379" height="19.23" color-interpolation-filters="sRGB" filterUnits="userSpaceOnUse"><feFlood flood-opacity="0" result="BackgroundImageFix"/><feBlend in="SourceGraphic" in2="BackgroundImageFix" result="shape"/><feGaussianBlur result="effect1_foregroundBlur_28327_2421" stdDeviation="0.5"/></filter><filter id="bi" x="3.3903" y="8.179" width="17.97" height="15.63" color-interpolation-filters="sRGB" filterUnits="userSpaceOnUse"><feFlood flood-opacity="0" result="BackgroundImageFix"/><feBlend in="SourceGraphic" in2="BackgroundImageFix" result="shape"/><feGaussianBlur result="effect1_foregroundBlur_28327_2421" stdDeviation="1"/></filter><filter id="bh" x="15.974" y="20.562" width="3.4099" height="9.8137" color-interpolation-filters="sRGB" filterUnits="userSpaceOnUse"><feFlood flood-opacity="0" result="BackgroundImageFix"/><feBlend in="SourceGraphic" in2="BackgroundImageFix" result="shape"/><feGaussianBlur result="effect1_foregroundBlur_28327_2421" stdDeviation="0.25"/></filter><filter id="bg" x="10.731" y="11.19" width="3.3098" height="4.3783" color-interpolation-filters="sRGB" filterUnits="userSpaceOnUse"><feFlood flood-opacity="0" result="BackgroundImageFix"/><feBlend in="SourceGraphic" in2="BackgroundImageFix" result="shape"/><feGaussianBlur result="effect1_foregroundBlur_28327_2421" stdDeviation="0.375"/></filter><filter id="bf" x="13.641" y="7.5136" width="4.6036" height="2.4061" color-interpolation-filters="sRGB" filterUnits="userSpaceOnUse"><feFlood flood-opacity="0" result="BackgroundImageFix"/><feBlend in="SourceGraphic" in2="BackgroundImageFix" result="shape"/><feGaussianBlur result="effect1_foregroundBlur_28327_2421" stdDeviation="0.25"/></filter><filter id="be" x="22.69" y="10.929" width="6.3527" height="19.125" color-interpolation-filters="sRGB" filterUnits="userSpaceOnUse"><feFlood flood-opacity="0" result="BackgroundImageFix"/><feBlend in="SourceGraphic" in2="BackgroundImageFix" result="shape"/><feGaussianBlur result="effect1_foregroundBlur_28327_2421" stdDeviation="1"/></filter><filter id="bd" x="18.173" y="7.9601" width="7.9848" height="23.469" color-interpolation-filters="sRGB" filterUnits="userSpaceOnUse"><feFlood flood-opacity="0" result="BackgroundImageFix"/><feBlend in="SourceGraphic" in2="BackgroundImageFix" result="shape"/><feGaussianBlur result="effect1_foregroundBlur_28327_2421" stdDeviation="1"/></filter><linearGradient id="bc" x1="11.985" x2="10.891" y1="11.21" y2="9.4602" gradientUnits="userSpaceOnUse"><stop stop-color="#321D24" offset="0"/><stop stop-color="#3C302E" offset="1"/></linearGradient><linearGradient id="as" x1="11.907" x2="12.29" y1="13.944" y2="9.8769" gradientUnits="userSpaceOnUse"><stop stop-color="#65255C" offset=".19942"/><stop stop-color="#65255C" stop-opacity="0" offset=".56313"/></linearGradient><radialGradient id="aj" cx="0" cy="0" r="1" gradientTransform="translate(14.141 9.007) rotate(196.78) scale(2.0563 1.9444)" gradientUnits="userSpaceOnUse"><stop stop-color="#1B0907" offset="0"/><stop stop-color="#1B0907" stop-opacity="0" offset="1"/></radialGradient><linearGradient id="ai" x1="7.9538" x2="14.1" y1="11.648" y2="6.3664" gradientUnits="userSpaceOnUse"><stop stop-color="#6D6C6C" offset="0"/><stop stop-color="#948F8E" stop-opacity="0" offset="1"/></linearGradient><radialGradient id="ae" cx="0" cy="0" r="1" gradientTransform="translate(11.208 24.554) rotate(45.427) scale(9.3001)" gradientUnits="userSpaceOnUse"><stop stop-color="#926059" offset="0"/><stop stop-color="#6B3351" offset="1"/></radialGradient><radialGradient id="t" cx="0" cy="0" r="1" gradientTransform="translate(20.235 27.429) rotate(188.2) scale(7.4511 10.628)" gradientUnits="userSpaceOnUse"><stop stop-color="#7B2B70" offset=".21713"/><stop stop-color="#7B2B70" stop-opacity="0" offset=".85246"/></radialGradient><radialGradient id="n" cx="0" cy="0" r="1" gradientTransform="translate(21.173 19.866) rotate(114.07) scale(13.485 12.844)" gradientUnits="userSpaceOnUse"><stop stop-color="#320811" offset="0"/><stop stop-color="#320811" stop-opacity="0" offset=".65293"/><stop stop-color="#320811" stop-opacity="0" offset=".96894"/></radialGradient><radialGradient id="m" cx="0" cy="0" r="1" gradientTransform="translate(20.691 28.429) rotate(197.1) scale(10.416 32.664)" gradientUnits="userSpaceOnUse"><stop stop-color="#B17E72" stop-opacity="0" offset=".73886"/><stop stop-color="#B17E72" offset="1"/></radialGradient><radialGradient id="l" cx="0" cy="0" r="1" gradientTransform="translate(11.923 23.179) rotate(24.444) scale(4.5311 7.0709)" gradientUnits="userSpaceOnUse"><stop stop-color="#A08986" offset="0"/><stop stop-color="#A08986" stop-opacity="0" offset=".6318"/></radialGradient><linearGradient id="k" x1="30.266" x2="29.26" y1="13.429" y2="29.365" gradientUnits="userSpaceOnUse"><stop stop-color="#504340" offset="0"/><stop stop-color="#504449" offset="1"/></linearGradient><radialGradient id="bb" cx="0" cy="0" r="1" gradientTransform="translate(28.923 19.304) rotate(90) scale(5.25 1.3438)" gradientUnits="userSpaceOnUse"><stop stop-color="#776F6E" offset="0"/><stop stop-color="#847B7A" stop-opacity="0" offset="1"/></radialGradient><linearGradient id="ba" x1="25.11" x2="29.423" y1="25.554" y2="25.554" gradientUnits="userSpaceOnUse"><stop stop-color="#3C253D" offset=".24638"/><stop stop-color="#805887" stop-opacity="0" offset="1"/></linearGradient><linearGradient id="az" x1="29.423" x2="29.423" y1="31.679" y2="25.554" gradientUnits="userSpaceOnUse"><stop stop-color="#573158" offset=".24638"/><stop stop-color="#3C253D" stop-opacity="0" offset="1"/></linearGradient><radialGradient id="ay" cx="0" cy="0" r="1" gradientTransform="translate(27.173 14.023) rotate(51.34) scale(3.2016 3.8101)" gradientUnits="userSpaceOnUse"><stop stop-color="#443835" offset="0"/><stop stop-color="#4F413E" stop-opacity="0" offset="1"/></radialGradient><radialGradient id="ax" cx="0" cy="0" r="1" gradientTransform="translate(32.61 28.804) rotate(217.75) scale(4.9006 5.832)" gradientUnits="userSpaceOnUse"><stop stop-color="#443835" offset="0"/><stop stop-color="#2F2624" stop-opacity="0" offset="1"/></radialGradient><radialGradient id="aw" cx="0" cy="0" r="1" gradientTransform="translate(25.492 23.429) rotate(-90) scale(10.757 3.1183)" gradientUnits="userSpaceOnUse"><stop stop-color="#3B282D" offset=".19174"/><stop stop-color="#3B282D" stop-opacity="0" offset="1"/></radialGradient><linearGradient id="av" x1="27.959" x2="26.743" y1="9.9339" y2="29.254" gradientUnits="userSpaceOnUse"><stop stop-color="#504340" offset="0"/><stop stop-color="#504449" offset="1"/></linearGradient><linearGradient id="au" x1="21.36" x2="26.798" y1="25.304" y2="25.304" gradientUnits="userSpaceOnUse"><stop stop-color="#3C253D" offset=".24638"/><stop stop-color="#623769" stop-opacity="0" offset="1"/></linearGradient><radialGradient id="at" cx="0" cy="0" r="1" gradientTransform="translate(24.195 10.654) rotate(47.621) scale(4.6029 5.4821)" gradientUnits="userSpaceOnUse"><stop stop-color="#443835" offset="0"/><stop stop-color="#4F413E" stop-opacity="0" offset="1"/></radialGradient><radialGradient id="j" cx="0" cy="0" r="1" gradientTransform="translate(27.959 24.241) rotate(-86.021) scale(11.183 4.3819)" gradientUnits="userSpaceOnUse"><stop stop-color="#3B282D" offset=".43882"/><stop stop-color="#3B282D" stop-opacity="0" offset=".84319"/></radialGradient><radialGradient id="ar" cx="0" cy="0" r="1" gradientTransform="translate(24.256 11.2) rotate(91.048) scale(6.1626 2.8246)" gradientUnits="userSpaceOnUse"><stop stop-color="#3B282D" offset=".43882"/><stop stop-color="#3B282D" stop-opacity="0" offset=".84319"/></radialGradient><linearGradient id="aq" x1="9.4538" x2="6.2856" y1="17.152" y2="12.71" gradientUnits="userSpaceOnUse"><stop stop-color="#895950" offset="0"/><stop stop-color="#A46E6D" offset="1"/></linearGradient><linearGradient id="ap" x1="12.954" x2="12.391" y1="23.808" y2="18.152" gradientUnits="userSpaceOnUse"><stop stop-color="#89327C" offset=".15694"/><stop stop-color="#89327C" stop-opacity="0" offset=".48019"/></linearGradient><radialGradient id="ao" cx="0" cy="0" r="1" gradientTransform="translate(16.641 24.589) rotate(-80.87) scale(7.0898 12.298)" gradientUnits="userSpaceOnUse"><stop stop-color="#89327C" offset=".15666"/><stop stop-color="#A55299" stop-opacity="0" offset="1"/></radialGradient><radialGradient id="an" cx="0" cy="0" r="1" gradientTransform="translate(-.48369 10.152) rotate(23.046) scale(23.059 20.639)" gradientUnits="userSpaceOnUse"><stop stop-color="#724A4D" stop-opacity="0" offset=".70061"/><stop stop-color="#724A4D" offset="1"/></radialGradient><linearGradient id="am" x1="7.5319" x2="9.2976" y1="12.925" y2="14.589" gradientUnits="userSpaceOnUse"><stop stop-color="#B17E72" offset=".37888"/><stop stop-color="#B17E72" stop-opacity="0" offset="1"/></linearGradient><radialGradient id="al" cx="0" cy="0" r="1" gradientTransform="translate(4.4226 10.429) rotate(32.897) scale(21.289 19.055)" gradientUnits="userSpaceOnUse"><stop stop-color="#320811" stop-opacity="0" offset=".66072"/><stop stop-color="#341419" offset=".84239"/></radialGradient><linearGradient id="ak" x1="5.0789" x2="16.285" y1="21.554" y2="10.265" gradientUnits="userSpaceOnUse"><stop stop-color="#BE827E" offset="0"/><stop stop-color="#BE827E" stop-opacity="0" offset="1"/></linearGradient><linearGradient id="i" x1="25.287" x2="24.398" y1="6.1179" y2="29.174" gradientUnits="userSpaceOnUse"><stop stop-color="#504340" offset="0"/><stop stop-color="#504449" offset="1"/></linearGradient><linearGradient id="h" x1="15.923" x2="23.423" y1="24.415" y2="24.415" gradientUnits="userSpaceOnUse"><stop stop-color="#3C253D" offset=".24638"/><stop stop-color="#623769" stop-opacity="0" offset="1"/></linearGradient><radialGradient id="g" cx="0" cy="0" r="1" gradientTransform="translate(17.974 6.9748) rotate(33.88) scale(7.2609 8.0381)" gradientUnits="userSpaceOnUse"><stop stop-color="#443835" offset="0"/><stop stop-color="#4F413E" stop-opacity="0" offset="1"/></radialGradient><radialGradient id="f" cx="0" cy="0" r="1" gradientTransform="translate(25.287 23.15) rotate(-83.523) scale(13.366 8.48)" gradientUnits="userSpaceOnUse"><stop stop-color="#3B282D" offset=".44143"/><stop stop-color="#3B282D" stop-opacity="0" offset=".84111"/></radialGradient><radialGradient id="e" cx="0" cy="0" r="1" gradientTransform="translate(25.287 23.15) rotate(-80.395) scale(8.2332 4.7083)" gradientUnits="userSpaceOnUse"><stop stop-color="#3B282D" offset=".44143"/><stop stop-color="#3B282D" stop-opacity="0" offset=".84111"/></radialGradient><radialGradient id="d" cx="0" cy="0" r="1" gradientTransform="translate(11.548 15.741) rotate(-7.7532) scale(13.435 11.757)" gradientUnits="userSpaceOnUse"><stop stop-color="#3B282D" offset=".61291"/><stop stop-color="#3B282D" stop-opacity="0" offset=".84319"/></radialGradient><radialGradient id="c" cx="0" cy="0" r="1" gradientTransform="translate(14.86 12.554) rotate(-46.548) scale(8.9968 7.1203)" gradientUnits="userSpaceOnUse"><stop stop-color="#3B282D" offset=".66384"/><stop stop-color="#3B282D" stop-opacity="0" offset=".88003"/></radialGradient><radialGradient id="b" cx="0" cy="0" r="1" gradientTransform="translate(18.396 10.787) rotate(62.853) scale(4.3741 2.7007)" gradientUnits="userSpaceOnUse"><stop stop-color="#827876" offset="0"/><stop stop-color="#C2BCBB" stop-opacity="0" offset="1"/></radialGradient><radialGradient id="a" cx="0" cy="0" r="1" gradientTransform="translate(18.884 12.891) rotate(93.039) scale(4.2514 2.625)" gradientUnits="userSpaceOnUse"><stop stop-color="#827876" offset="0"/><stop stop-color="#C2BCBB" stop-opacity="0" offset="1"/></radialGradient><radialGradient id="ah" cx="0" cy="0" r="1" gradientTransform="translate(13.662 7.4805) rotate(60.61) scale(8.5841 6.4182)" gradientUnits="userSpaceOnUse"><stop stop-color="#3B282D" offset=".40677"/><stop stop-color="#3B282D" stop-opacity="0" offset=".84319"/></radialGradient><radialGradient id="ag" cx="0" cy="0" r="1" gradientTransform="translate(18.396 9.096) rotate(48.552) scale(3.8595 2.4807)" gradientUnits="userSpaceOnUse"><stop stop-color="#3B282D" offset=".62859"/><stop stop-color="#3B282D" stop-opacity="0" offset="1"/></radialGradient><radialGradient id="af" cx="0" cy="0" r="1" gradientTransform="translate(17.456 19.09) rotate(98.6) scale(12.311 1.378)" gradientUnits="userSpaceOnUse"><stop stop-color="#9B9799" offset="0"/><stop stop-color="#878284" stop-opacity="0" offset="1"/></radialGradient><radialGradient id="ad" cx="0" cy="0" r="1" gradientTransform="translate(17.081 18.15) rotate(87.372) scale(13.051 1.4608)" gradientUnits="userSpaceOnUse"><stop stop-color="#9B9799" offset="0"/><stop stop-color="#878284" stop-opacity="0" offset=".98908"/></radialGradient><radialGradient id="ac" cx="0" cy="0" r="1" gradientTransform="translate(12.798 7.0539) rotate(-10.714) scale(3.1804 3.5295)" gradientUnits="userSpaceOnUse"><stop stop-color="#7D4750" offset="0"/><stop stop-color="#A46E6D" offset=".92082"/></radialGradient><radialGradient id="ab" cx="0" cy="0" r="1" gradientTransform="translate(14.126 9.3664) rotate(-52.422) scale(3.6639 3.5203)" gradientUnits="userSpaceOnUse"><stop stop-color="#773D4A" offset=".15666"/><stop stop-color="#985665" stop-opacity="0" offset="1"/></radialGradient><radialGradient id="aa" cx="0" cy="0" r="1" gradientTransform="translate(15.579 6.7727) rotate(172.4) scale(2.8374 9.2804)" gradientUnits="userSpaceOnUse"><stop stop-color="#B17E72" stop-opacity="0" offset=".61863"/><stop stop-color="#B17E72" offset="1"/></radialGradient><radialGradient id="z" cx="0" cy="0" r="1" gradientTransform="translate(14.204 7.5539) rotate(-38.853) scale(2.8892 15.162)" gradientUnits="userSpaceOnUse"><stop stop-color="#B17E72" stop-opacity="0" offset=".51053"/><stop stop-color="#B17E72" offset="1"/></radialGradient><linearGradient id="y" x1="12.798" x2="12.141" y1="14.726" y2="12.101" gradientUnits="userSpaceOnUse"><stop stop-color="#5E2926" offset="0"/><stop stop-color="#5E2926" stop-opacity="0" offset="1"/></linearGradient><linearGradient id="x" x1="13.556" x2="12.689" y1="13.379" y2="13.379" gradientUnits="userSpaceOnUse"><stop stop-color="#594C4F" offset=".225"/><stop stop-color="#392833" offset="1"/></linearGradient><linearGradient id="w" x1="13.79" x2="13.79" y1="14.878" y2="13.509" gradientUnits="userSpaceOnUse"><stop stop-color="#552D52" offset="0"/><stop stop-color="#552D52" stop-opacity="0" offset="1"/></linearGradient><linearGradient id="v" x1="11.562" x2="12.594" y1="14.065" y2="14.065" gradientUnits="userSpaceOnUse"><stop stop-color="#594C4F" offset="0"/><stop stop-color="#594C4F" stop-opacity="0" offset="1"/></linearGradient><radialGradient id="u" cx="0" cy="0" r="1" gradientTransform="translate(13.099 13.553) rotate(250) scale(1.6899 1.6793)" gradientUnits="userSpaceOnUse"><stop stop-color="#594C4F" stop-opacity="0" offset=".81395"/><stop stop-color="#594C4F" offset="1"/></radialGradient><linearGradient id="s" x1="4.7741" x2="5.7272" y1="20.023" y2="19.937" gradientUnits="userSpaceOnUse"><stop stop-color="#382A32" offset="0"/><stop stop-color="#2A1927" offset="1"/></linearGradient><linearGradient id="r" x1="9.032" x2="9.032" y1="23.304" y2="21.163" gradientUnits="userSpaceOnUse"><stop stop-color="#562C54" offset="0"/><stop stop-color="#694259" offset="1"/></linearGradient><linearGradient id="q" x1="17.573" x2="13.813" y1="8.2558" y2="9.3508" gradientUnits="userSpaceOnUse"><stop stop-color="#AB7670" offset="0"/><stop stop-color="#AB7670" stop-opacity="0" offset="1"/></linearGradient><linearGradient id="p" x1="27.204" x2="25.867" y1="12.179" y2="27.679" gradientUnits="userSpaceOnUse"><stop stop-color="#928784" stop-opacity="0" offset="0"/><stop stop-color="#A39592" offset=".23438"/><stop stop-color="#928784" stop-opacity="0" offset="1"/></linearGradient><linearGradient id="o" x1="23.486" x2="22.423" y1="12.179" y2="33.148" gradientUnits="userSpaceOnUse"><stop stop-color="#C2BCBB" offset="0"/><stop stop-color="#908483" stop-opacity="0" offset="1"/><stop stop-color="#C2BCBB" stop-opacity="0" offset="1"/></linearGradient></defs></svg>
