<svg fill="none" viewBox="0 0 32 32" xmlns="http://www.w3.org/2000/svg"><g clip-path="url(#af)"><path d="m10.582 13.718c1.2005-0.4419 2.3677 0.7253 1.9258 1.9258l-2.6188 7.1144c-0.25214 0.685-1.1294 0.8778-1.6456 0.3616l-5.1375-5.1375c-0.51613-0.5161-0.32332-1.3934 0.36166-1.6455l7.1144-2.6188z" fill="url(#aa)"/><path d="m10.582 13.718c1.2005-0.4419 2.3677 0.7253 1.9258 1.9258l-2.6188 7.1144c-0.25214 0.685-1.1294 0.8778-1.6456 0.3616l-5.1375-5.1375c-0.51613-0.5161-0.32332-1.3934 0.36166-1.6455l7.1144-2.6188z" fill="url(#p)"/><path d="m10.582 13.718c1.2005-0.4419 2.3677 0.7253 1.9258 1.9258l-2.6188 7.1144c-0.25214 0.685-1.1294 0.8778-1.6456 0.3616l-5.1375-5.1375c-0.51613-0.5161-0.32332-1.3934 0.36166-1.6455l7.1144-2.6188z" fill="url(#h)"/><path d="m16.582 19.718c1.2005-0.4419 2.3677 0.7253 1.9258 1.9258l-2.6188 7.1144c-0.2521 0.685-1.1294 0.8778-1.6455 0.3616l-5.1375-5.1375c-0.51613-0.5161-0.32332-1.3934 0.36166-1.6455l7.1144-2.6188z" fill="url(#g)"/><path d="m16.582 19.718c1.2005-0.4419 2.3677 0.7253 1.9258 1.9258l-2.6188 7.1144c-0.2521 0.685-1.1294 0.8778-1.6455 0.3616l-5.1375-5.1375c-0.51613-0.5161-0.32332-1.3934 0.36166-1.6455l7.1144-2.6188z" fill="url(#f)"/><path d="m16.582 19.718c1.2005-0.4419 2.3677 0.7253 1.9258 1.9258l-2.6188 7.1144c-0.2521 0.685-1.1294 0.8778-1.6455 0.3616l-5.1375-5.1375c-0.51613-0.5161-0.32332-1.3934 0.36166-1.6455l7.1144-2.6188z" fill="url(#e)"/><g filter="url(#ae)"><path d="m22.399 3.5509c0.0559-0.02276 0.1198-0.00948 0.1624 0.0334l5.8859 5.9303c0.0423 0.04261 0.0552 0.10613 0.0326 0.16173-1.4094 3.4594-3.3526 7.1394-5.9545 9.7414-2.5338 2.5337-6.8195 4.6933-10.689 6.2813l-5.4917-5.4916c1.588-3.8697 3.7476-8.1554 6.2814-10.689 2.6099-2.6099 6.3044-4.5569 9.7731-5.9673z" fill="url(#d)"/><path d="m22.399 3.5509c0.0559-0.02276 0.1198-0.00948 0.1624 0.0334l5.8859 5.9303c0.0423 0.04261 0.0552 0.10613 0.0326 0.16173-1.4094 3.4594-3.3526 7.1394-5.9545 9.7414-2.5338 2.5337-6.8195 4.6933-10.689 6.2813l-5.4917-5.4916c1.588-3.8697 3.7476-8.1554 6.2814-10.689 2.6099-2.6099 6.3044-4.5569 9.7731-5.9673z" fill="url(#c)"/><path d="m22.399 3.5509c0.0559-0.02276 0.1198-0.00948 0.1624 0.0334l5.8859 5.9303c0.0423 0.04261 0.0552 0.10613 0.0326 0.16173-1.4094 3.4594-3.3526 7.1394-5.9545 9.7414-2.5338 2.5337-6.8195 4.6933-10.689 6.2813l-5.4917-5.4916c1.588-3.8697 3.7476-8.1554 6.2814-10.689 2.6099-2.6099 6.3044-4.5569 9.7731-5.9673z" fill="url(#b)"/><path d="m22.399 3.5509c0.0559-0.02276 0.1198-0.00948 0.1624 0.0334l5.8859 5.9303c0.0423 0.04261 0.0552 0.10613 0.0326 0.16173-1.4094 3.4594-3.3526 7.1394-5.9545 9.7414-2.5338 2.5337-6.8195 4.6933-10.689 6.2813l-5.4917-5.4916c1.588-3.8697 3.7476-8.1554 6.2814-10.689 2.6099-2.6099 6.3044-4.5569 9.7731-5.9673z" fill="url(#a)"/><path d="m22.399 3.5509c0.0559-0.02276 0.1198-0.00948 0.1624 0.0334l5.8859 5.9303c0.0423 0.04261 0.0552 0.10613 0.0326 0.16173-1.4094 3.4594-3.3526 7.1394-5.9545 9.7414-2.5338 2.5337-6.8195 4.6933-10.689 6.2813l-5.4917-5.4916c1.588-3.8697 3.7476-8.1554 6.2814-10.689 2.6099-2.6099 6.3044-4.5569 9.7731-5.9673z" fill="url(#z)"/></g><g filter="url(#ad)"><path d="m24.5 11.062c0 1.8553-1.504 3.3594-3.3594 3.3594-1.8553 0-3.3593-1.5041-3.3593-3.3594 0-1.8554 1.504-3.3594 3.3593-3.3594 1.8554 0 3.3594 1.504 3.3594 3.3594z" fill="url(#y)"/><path d="m24.5 11.062c0 1.8553-1.504 3.3594-3.3594 3.3594-1.8553 0-3.3593-1.5041-3.3593-3.3594 0-1.8554 1.504-3.3594 3.3593-3.3594 1.8554 0 3.3594 1.504 3.3594 3.3594z" fill="url(#x)"/></g><path d="m23.466 11.062c0 1.2845-1.0413 2.3257-2.3258 2.3257-1.2844 0-2.3257-1.0412-2.3257-2.3257 0-1.2844 1.0413-2.3257 2.3257-2.3257 1.2845 0 2.3258 1.0413 2.3258 2.3257z" fill="url(#w)"/><g filter="url(#ac)"><path d="m2.4234 29.533c-0.70711-0.7071-0.42343-5.6109 2.0766-6.6109 0 0 2.5-1 4.111 0.6006 1.611 1.6006 0.88899 3.3994 0.88899 3.3994-0.70709 2.1213-3.7174 2.9645-4.071 2.611-0.19526-0.1953 0.15636-0.5508 1e-5 -0.7071-0.15635-0.1564-0.39776 0.0221-1.0607 0.3535-0.4714 0.2357-1.6621 0.6364-1.9449 0.3535z" fill="url(#v)"/><path d="m2.4234 29.533c-0.70711-0.7071-0.42343-5.6109 2.0766-6.6109 0 0 2.5-1 4.111 0.6006 1.611 1.6006 0.88899 3.3994 0.88899 3.3994-0.70709 2.1213-3.7174 2.9645-4.071 2.611-0.19526-0.1953 0.15636-0.5508 1e-5 -0.7071-0.15635-0.1564-0.39776 0.0221-1.0607 0.3535-0.4714 0.2357-1.6621 0.6364-1.9449 0.3535z" fill="url(#u)"/></g><path d="m6.0606 20.982c0.58579-0.5858 1.5355-0.5858 2.1213 0l3.5355 3.5355c0.5858 0.5858 0.5858 1.5356 0 2.1214s-1.5355 0.5858-2.1213 0l-3.5355-3.5356c-0.58578-0.5858-0.58578-1.5355 0-2.1213z" fill="url(#t)"/><path d="m6.0606 20.982c0.58579-0.5858 1.5355-0.5858 2.1213 0l3.5355 3.5355c0.5858 0.5858 0.5858 1.5356 0 2.1214s-1.5355 0.5858-2.1213 0l-3.5355-3.5356c-0.58578-0.5858-0.58578-1.5355 0-2.1213z" fill="url(#s)"/><path d="m6.0606 20.982c0.58579-0.5858 1.5355-0.5858 2.1213 0l3.5355 3.5355c0.5858 0.5858 0.5858 1.5356 0 2.1214s-1.5355 0.5858-2.1213 0l-3.5355-3.5356c-0.58578-0.5858-0.58578-1.5355 0-2.1213z" fill="url(#r)"/><path d="m29.172 2.8715c-0.9471-0.94709-2.608-0.83988-3.8184-0.42425-0.869 0.29841-1.7823 0.63312-2.7142 1.0066-0.0664 0.02659-0.084 0.11226-0.0336 0.16299l5.809 5.8489c0.0505 0.05091 0.1367 0.03354 0.1634-0.03305 0.3781-0.94181 0.7166-1.8649 1.0181-2.7428 0.41-1.1942 0.7398-2.6543-0.4243-3.8184z" fill="url(#q)"/><path d="m29.172 2.8715c-0.9471-0.94709-2.608-0.83988-3.8184-0.42425-0.869 0.29841-1.7823 0.63312-2.7142 1.0066-0.0664 0.02659-0.084 0.11226-0.0336 0.16299l5.809 5.8489c0.0505 0.05091 0.1367 0.03354 0.1634-0.03305 0.3781-0.94181 0.7166-1.8649 1.0181-2.7428 0.41-1.1942 0.7398-2.6543-0.4243-3.8184z" fill="url(#o)"/><path d="m29.172 2.8715c-0.9471-0.94709-2.608-0.83988-3.8184-0.42425-0.869 0.29841-1.7823 0.63312-2.7142 1.0066-0.0664 0.02659-0.084 0.11226-0.0336 0.16299l5.809 5.8489c0.0505 0.05091 0.1367 0.03354 0.1634-0.03305 0.3781-0.94181 0.7166-1.8649 1.0181-2.7428 0.41-1.1942 0.7398-2.6543-0.4243-3.8184z" fill="url(#n)"/><path d="m13.582 16.718c1.2005-0.4419 2.3677 0.7253 1.9258 1.9258l-2.6188 7.1144c-0.2521 0.685-1.1294 0.8778-1.6455 0.3616l-5.1375-5.1375c-0.51613-0.5161-0.32332-1.3934 0.36166-1.6455l7.1144-2.6188z" fill="url(#m)"/><path d="m13.582 16.718c1.2005-0.4419 2.3677 0.7253 1.9258 1.9258l-2.6188 7.1144c-0.2521 0.685-1.1294 0.8778-1.6455 0.3616l-5.1375-5.1375c-0.51613-0.5161-0.32332-1.3934 0.36166-1.6455l7.1144-2.6188z" fill="url(#l)"/><path d="m13.582 16.718c1.2005-0.4419 2.3677 0.7253 1.9258 1.9258l-2.6188 7.1144c-0.2521 0.685-1.1294 0.8778-1.6455 0.3616l-5.1375-5.1375c-0.51613-0.5161-0.32332-1.3934 0.36166-1.6455l7.1144-2.6188z" fill="url(#k)"/><path d="m13.582 16.718c1.2005-0.4419 2.3677 0.7253 1.9258 1.9258l-2.6188 7.1144c-0.2521 0.685-1.1294 0.8778-1.6455 0.3616l-5.1375-5.1375c-0.51613-0.5161-0.32332-1.3934 0.36166-1.6455l7.1144-2.6188z" fill="url(#j)"/><g filter="url(#ab)"><path d="m9.2046 22.047 5.625-4.4063-3.625 6.4375-2-2.0312z" fill="url(#i)"/></g></g><defs><filter id="ae" x="6.0946" y="3.0399" width="22.396" height="22.659" color-interpolation-filters="sRGB" filterUnits="userSpaceOnUse"><feFlood flood-opacity="0" result="BackgroundImageFix"/><feBlend in="SourceGraphic" in2="BackgroundImageFix" result="shape"/><feColorMatrix in="SourceAlpha" result="hardAlpha" values="0 0 0 0 0 0 0 0 0 0 0 0 0 0 0 0 0 0 127 0"/><feOffset dx="-0.25" dy="-0.5"/><feGaussianBlur stdDeviation="0.75"/><feComposite in2="hardAlpha" k2="-1" k3="1" operator="arithmetic"/><feColorMatrix values="0 0 0 0 0.745098 0 0 0 0 0.772549 0 0 0 0 0.952941 0 0 0 1 0"/><feBlend in2="shape" result="effect1_innerShadow_18_13076"/></filter><filter id="ad" x="16.781" y="6.953" width="8.7188" height="8.7188" color-interpolation-filters="sRGB" filterUnits="userSpaceOnUse"><feFlood flood-opacity="0" result="BackgroundImageFix"/><feColorMatrix in="SourceAlpha" result="hardAlpha" values="0 0 0 0 0 0 0 0 0 0 0 0 0 0 0 0 0 0 127 0"/><feOffset dy="0.25"/><feGaussianBlur stdDeviation="0.5"/><feComposite in2="hardAlpha" operator="out"/><feColorMatrix values="0 0 0 0 0.866667 0 0 0 0 0.764706 0 0 0 0 0.847059 0 0 0 1 0"/><feBlend in2="BackgroundImageFix" result="effect1_dropShadow_18_13076"/><feBlend in="SourceGraphic" in2="effect1_dropShadow_18_13076" result="shape"/><feColorMatrix in="SourceAlpha" result="hardAlpha" values="0 0 0 0 0 0 0 0 0 0 0 0 0 0 0 0 0 0 127 0"/><feOffset dx="-0.1" dy="0.1"/><feGaussianBlur stdDeviation="0.05"/><feComposite in2="hardAlpha" k2="-1" k3="1" operator="arithmetic"/><feColorMatrix values="0 0 0 0 0.721569 0 0 0 0 0.690196 0 0 0 0 0.701961 0 0 0 1 0"/><feBlend in2="shape" result="effect2_innerShadow_18_13076"/><feColorMatrix in="SourceAlpha" result="hardAlpha" values="0 0 0 0 0 0 0 0 0 0 0 0 0 0 0 0 0 0 127 0"/><feOffset dx="0.1" dy="-0.1"/><feGaussianBlur stdDeviation="0.05"/><feComposite in2="hardAlpha" k2="-1" k3="1" operator="arithmetic"/><feColorMatrix values="0 0 0 0 0.615686 0 0 0 0 0.560784 0 0 0 0 0.65098 0 0 0 1 0"/><feBlend in2="effect2_innerShadow_18_13076" result="effect3_innerShadow_18_13076"/></filter><filter id="ac" x="2.0876" y="22.413" width="7.5737" height="7.2167" color-interpolation-filters="sRGB" filterUnits="userSpaceOnUse"><feFlood flood-opacity="0" result="BackgroundImageFix"/><feBlend in="SourceGraphic" in2="BackgroundImageFix" result="shape"/><feColorMatrix in="SourceAlpha" result="hardAlpha" values="0 0 0 0 0 0 0 0 0 0 0 0 0 0 0 0 0 0 127 0"/><feOffset dy="-0.2"/><feGaussianBlur stdDeviation="0.2"/><feComposite in2="hardAlpha" k2="-1" k3="1" operator="arithmetic"/><feColorMatrix values="0 0 0 0 0.847059 0 0 0 0 0.505882 0 0 0 0 0.360784 0 0 0 1 0"/><feBlend in2="shape" result="effect1_innerShadow_18_13076"/></filter><filter id="ab" x="8.2046" y="16.64" width="7.625" height="8.4375" color-interpolation-filters="sRGB" filterUnits="userSpaceOnUse"><feFlood flood-opacity="0" result="BackgroundImageFix"/><feBlend in="SourceGraphic" in2="BackgroundImageFix" result="shape"/><feGaussianBlur result="effect1_foregroundBlur_18_13076" stdDeviation="0.5"/></filter><linearGradient id="aa" x1="8.1109" x2="3.1109" y1="17.308" y2="16.484" gradientUnits="userSpaceOnUse"><stop stop-color="#EE2452" offset="0"/><stop stop-color="#F63E7A" offset="1"/></linearGradient><radialGradient id="p" cx="0" cy="0" r="1" gradientTransform="translate(2.3976 17.063) rotate(-19.958) scale(8.0017 1.3604)" gradientUnits="userSpaceOnUse"><stop stop-color="#FF8DB0" offset=".16387"/><stop stop-color="#FF8DB0" stop-opacity="0" offset="1"/></radialGradient><linearGradient id="h" x1="4.9048" x2="5.72" y1="19.733" y2="18.938" gradientUnits="userSpaceOnUse"><stop stop-color="#DD467C" offset=".49119"/><stop stop-color="#DD467C" stop-opacity="0" offset="1"/></linearGradient><linearGradient id="g" x1="17.892" x2="11.674" y1="21.672" y2="26.551" gradientUnits="userSpaceOnUse"><stop stop-color="#F83267" offset="0"/><stop stop-color="#FF3190" offset="1"/></linearGradient><radialGradient id="f" cx="0" cy="0" r="1" gradientTransform="translate(14.58 22.203) rotate(86.482) scale(7.6391 6.5861)" gradientUnits="userSpaceOnUse"><stop stop-color="#E76CBE" stop-opacity="0" offset=".75656"/><stop stop-color="#E76CBE" offset=".9513"/></radialGradient><radialGradient id="e" cx="0" cy="0" r="1" gradientTransform="translate(13.455 26.234) rotate(-57.346) scale(5.2705 2.3151)" gradientUnits="userSpaceOnUse"><stop stop-color="#FF5898" offset="0"/><stop stop-color="#FF5898" stop-opacity="0" offset="1"/></radialGradient><linearGradient id="d" x1="13.486" x2="22.298" y1="8.6717" y2="17.547" gradientUnits="userSpaceOnUse"><stop stop-color="#CCBBC0" offset="0"/><stop stop-color="#EAD2EC" offset="1"/></linearGradient><radialGradient id="c" cx="0" cy="0" r="1" gradientTransform="translate(23.969 21.577) rotate(217.55) scale(16.677 31.348)" gradientUnits="userSpaceOnUse"><stop stop-color="#E7E5E5" stop-opacity="0" offset=".81114"/><stop stop-color="#E7E5E5" offset="1"/></radialGradient><radialGradient id="b" cx="0" cy="0" r="1" gradientTransform="translate(9.1814 21.31) rotate(-56.929) scale(9.8038 4.6077)" gradientUnits="userSpaceOnUse"><stop stop-color="#B5A3A5" offset=".28101"/><stop stop-color="#B5A3A5" stop-opacity="0" offset="1"/></radialGradient><radialGradient id="a" cx="0" cy="0" r="1" gradientTransform="translate(6.3446 20.091) rotate(-73.625) scale(8.6912 1.4727)" gradientUnits="userSpaceOnUse"><stop stop-color="#B28F96" offset=".20788"/><stop stop-color="#B28F96" stop-opacity="0" offset="1"/></radialGradient><radialGradient id="z" cx="0" cy="0" r="1" gradientTransform="translate(27.111 7.1092) rotate(137.28) scale(13.175 4.0907)" gradientUnits="userSpaceOnUse"><stop stop-color="#FAECF1" offset="0"/><stop stop-color="#FAECF1" stop-opacity="0" offset="1"/></radialGradient><linearGradient id="y" x1="17.781" x2="24.5" y1="10.491" y2="11.062" gradientUnits="userSpaceOnUse"><stop stop-color="#A796A0" offset="0"/><stop stop-color="#A5959F" offset="1"/></linearGradient><radialGradient id="x" cx="0" cy="0" r="1" gradientTransform="translate(21.141 11.062) rotate(90) scale(3.3594)" gradientUnits="userSpaceOnUse"><stop stop-color="#93859B" offset=".58654"/><stop stop-color="#93859B" stop-opacity="0" offset="1"/></radialGradient><radialGradient id="w" cx="0" cy="0" r="1" gradientTransform="translate(21.141 13.388) rotate(-90) scale(4.8456 4.4563)" gradientUnits="userSpaceOnUse"><stop stop-color="#72CDFF" offset="0"/><stop stop-color="#66ACFF" offset=".73802"/><stop stop-color="#3B57F4" offset="1"/></radialGradient><radialGradient id="v" cx="0" cy="0" r="1" gradientTransform="translate(8.1911 24.246) rotate(135) scale(5.8064 4.564)" gradientUnits="userSpaceOnUse"><stop stop-color="#D46213" offset="0"/><stop stop-color="#FF9542" offset="1"/></radialGradient><radialGradient id="u" cx="0" cy="0" r="1" gradientTransform="translate(8.3036 28.97) rotate(228.81) scale(7.1745 7.5608)" gradientUnits="userSpaceOnUse"><stop stop-color="#FFC484" stop-opacity="0" offset=".87094"/><stop stop-color="#FFC484" offset="1"/></radialGradient><linearGradient id="t" x1="5.7984" x2="11.298" y1="21.953" y2="27.359" gradientUnits="userSpaceOnUse"><stop stop-color="#452860" offset="0"/><stop stop-color="#51509F" offset="1"/></linearGradient><radialGradient id="s" cx="0" cy="0" r="1" gradientTransform="translate(6.8296 21.453) rotate(77.828) scale(1.6304 1.4405)" gradientUnits="userSpaceOnUse"><stop stop-color="#8E839A" offset="0"/><stop stop-color="#8E839A" stop-opacity="0" offset="1"/></radialGradient><radialGradient id="r" cx="0" cy="0" r="1" gradientTransform="translate(7.2069 22.418) rotate(47.936) scale(6.2123 3.2564)" gradientUnits="userSpaceOnUse"><stop stop-color="#6175B9" stop-opacity="0" offset=".86049"/><stop stop-color="#6175B9" offset="1"/></radialGradient><linearGradient id="q" x1="29.177" x2="25.501" y1="2.8759" y2="6.552" gradientUnits="userSpaceOnUse"><stop stop-color="#FF3745" offset="0"/><stop stop-color="#ED224B" offset="1"/></linearGradient><radialGradient id="o" cx="0" cy="0" r="1" gradientTransform="translate(28.738 4.3474) rotate(135) scale(8.2468 1.9797)" gradientUnits="userSpaceOnUse"><stop stop-color="#FF5971" offset=".18939"/><stop stop-color="#FF5971" stop-opacity="0" offset="1"/></radialGradient><linearGradient id="n" x1="25.822" x2="26.189" y1="6.7968" y2="6.414" gradientUnits="userSpaceOnUse"><stop stop-color="#D2575E" offset="0"/><stop stop-color="#F93251" stop-opacity="0" offset="1"/></linearGradient><linearGradient id="m" x1="15.16" x2="8.6742" y1="17.065" y2="23.551" gradientUnits="userSpaceOnUse"><stop stop-color="#FF2644" offset="0"/><stop stop-color="#FF2982" offset="1"/></linearGradient><radialGradient id="l" cx="0" cy="0" r="1" gradientTransform="translate(6.2359 19.422) rotate(-20.865) scale(7.4578 1.9524)" gradientUnits="userSpaceOnUse"><stop stop-color="#FF95AF" offset="0"/><stop stop-color="#FF95AF" stop-opacity="0" offset="1"/></radialGradient><radialGradient id="k" cx="0" cy="0" r="1" gradientTransform="translate(5.3976 20.308) rotate(44.704) scale(4.6102 1.3618)" gradientUnits="userSpaceOnUse"><stop stop-color="#E14678" offset=".38187"/><stop stop-color="#E14678" stop-opacity="0" offset="1"/></radialGradient><radialGradient id="j" cx="0" cy="0" r="1" gradientTransform="translate(11.58 19.14) rotate(84.674) scale(7.407 7.8932)" gradientUnits="userSpaceOnUse"><stop stop-color="#E67BC7" stop-opacity="0" offset=".83179"/><stop stop-color="#E67BC7" offset="1"/></radialGradient><linearGradient id="i" x1="13.986" x2="9.8609" y1="18.109" y2="22.422" gradientUnits="userSpaceOnUse"><stop stop-color="#FF5970" offset="0"/><stop stop-color="#FF5794" offset="1"/></linearGradient><clipPath id="af"><rect width="32" height="32" fill="#fff"/></clipPath></defs></svg>
