<svg fill="none" viewBox="0 0 32 32" xmlns="http://www.w3.org/2000/svg"><g filter="url(#aq)"><circle cx="8.5078" cy="10.5" r="6.5" fill="url(#am)"/><circle cx="8.5078" cy="10.5" r="6.5" fill="url(#ab)"/><circle cx="8.5078" cy="10.5" r="6.5" fill="url(#q)"/></g><circle cx="8.0078" cy="11" r="5" fill="url(#g)"/><circle cx="8.0078" cy="11" r="5" fill="url(#f)"/><g filter="url(#ap)"><circle cx="23.508" cy="10.5" r="6.5" fill="url(#e)"/><circle cx="23.508" cy="10.5" r="6.5" fill="url(#d)"/><circle cx="23.508" cy="10.5" r="6.5" fill="url(#c)"/><circle cx="23.508" cy="10.5" r="6.5" fill="url(#b)"/></g><g filter="url(#ao)"><circle cx="24.008" cy="11" r="5" fill="url(#a)"/><circle cx="24.008" cy="11" r="5" fill="url(#al)"/></g><path d="m24.977 18c0 4.8232-4.4275 8.2411-7.8012 9.3216-0.7595 0.2433-1.5737 0.2348-2.3387 0.0093-3.5667-1.0513-7.7351-4.1048-7.7351-9.3309 0-3.975 3.7187-7.9688 8.9062-7.9688 6.425 0 8.9688 5.3438 8.9688 7.9688z" fill="url(#ak)"/><path d="m24.977 18c0 4.8232-4.4275 8.2411-7.8012 9.3216-0.7595 0.2433-1.5737 0.2348-2.3387 0.0093-3.5667-1.0513-7.7351-4.1048-7.7351-9.3309 0-3.975 3.7187-7.9688 8.9062-7.9688 6.425 0 8.9688 5.3438 8.9688 7.9688z" fill="url(#aj)"/><path d="m24.977 18c0 4.8232-4.4275 8.2411-7.8012 9.3216-0.7595 0.2433-1.5737 0.2348-2.3387 0.0093-3.5667-1.0513-7.7351-4.1048-7.7351-9.3309 0-3.975 3.7187-7.9688 8.9062-7.9688 6.425 0 8.9688 5.3438 8.9688 7.9688z" fill="url(#ai)"/><path d="m24.977 18c0 4.8232-4.4275 8.2411-7.8012 9.3216-0.7595 0.2433-1.5737 0.2348-2.3387 0.0093-3.5667-1.0513-7.7351-4.1048-7.7351-9.3309 0-3.975 3.7187-7.9688 8.9062-7.9688 6.425 0 8.9688 5.3438 8.9688 7.9688z" fill="url(#ah)"/><path d="m24.977 18c0 4.8232-4.4275 8.2411-7.8012 9.3216-0.7595 0.2433-1.5737 0.2348-2.3387 0.0093-3.5667-1.0513-7.7351-4.1048-7.7351-9.3309 0-3.975 3.7187-7.9688 8.9062-7.9688 6.425 0 8.9688 5.3438 8.9688 7.9688z" fill="url(#ag)"/><g filter="url(#an)"><rect x="18.802" y="19.188" width="1.4844" height="3" rx=".74219" fill="#B9A8CE"/></g><rect x="19.227" y="19" width="1.4844" height="3" rx=".74219" fill="url(#af)"/><rect x="19.227" y="19" width="1.4844" height="3" rx=".74219" fill="url(#ae)"/><rect x="19.227" y="19" width="1.4844" height="3" rx=".74219" fill="url(#ad)"/><rect x="11.289" y="19" width="1.4844" height="3" rx=".74219" fill="url(#ac)"/><rect x="11.289" y="19" width="1.4844" height="3" rx=".74219" fill="url(#aa)"/><rect x="11.289" y="19" width="1.4844" height="3" rx=".74219" fill="url(#z)"/><path d="m17.977 23.859c0 0.375-0.7422 2.1094-1.9375 2.1094s-2.0157-1.7891-2.0157-2.1094c0-0.4375 0.1875-0.8594 2.0157-0.8594 1.6125 0 1.9375 0.4844 1.9375 0.8594z" fill="#FF80B1"/><path d="m17.977 23.859c0 0.375-0.7422 2.1094-1.9375 2.1094s-2.0157-1.7891-2.0157-2.1094c0-0.4375 0.1875-0.8594 2.0157-0.8594 1.6125 0 1.9375 0.4844 1.9375 0.8594z" fill="url(#y)"/><path d="m19.394 25.375 5.1719 2.1797" stroke="url(#x)" stroke-linecap="round" stroke-width=".8"/><path d="m19.394 25.375 5.1719 2.1797" stroke="url(#w)" stroke-linecap="round" stroke-width=".8"/><path d="m19.394 25.375 5.1719 2.1797" stroke="url(#v)" stroke-linecap="round" stroke-width=".8"/><path d="m19.394 25.375 5.1719 2.1797" stroke="url(#u)" stroke-linecap="round" stroke-width=".8"/><path d="m20.379 24.477h5.1797" stroke="url(#t)" stroke-linecap="round" stroke-width=".8"/><path d="m20.379 24.477h5.1797" stroke="url(#s)" stroke-linecap="round" stroke-width=".8"/><path d="m20.379 24.477h5.1797" stroke="url(#r)" stroke-linecap="round" stroke-width=".8"/><path d="m20.379 24.477h5.1797" stroke="url(#p)" stroke-linecap="round" stroke-width=".8"/><path d="m12.606 25.375-5.1719 2.1797" stroke="url(#o)" stroke-linecap="round" stroke-width=".8"/><path d="m12.606 25.375-5.1719 2.1797" stroke="url(#n)" stroke-linecap="round" stroke-width=".8"/><path d="m12.606 25.375-5.1719 2.1797" stroke="url(#m)" stroke-linecap="round" stroke-width=".8"/><path d="m12.606 25.375-5.1719 2.1797" stroke="url(#l)" stroke-linecap="round" stroke-width=".8"/><path d="m11.621 24.077c0.2209 0 0.4 0.179 0.4 0.4 0 0.2209-0.1791 0.4-0.4 0.4v-0.8zm-5.1797 0.8c-0.22092 0-0.4-0.1791-0.4-0.4 0-0.221 0.17908-0.4 0.4-0.4v0.8zm5.1797 0h-5.1797v-0.8h5.1797v0.8z" fill="url(#k)"/><path d="m11.621 24.077c0.2209 0 0.4 0.179 0.4 0.4 0 0.2209-0.1791 0.4-0.4 0.4v-0.8zm-5.1797 0.8c-0.22092 0-0.4-0.1791-0.4-0.4 0-0.221 0.17908-0.4 0.4-0.4v0.8zm5.1797 0h-5.1797v-0.8h5.1797v0.8z" fill="url(#j)"/><path d="m11.621 24.077c0.2209 0 0.4 0.179 0.4 0.4 0 0.2209-0.1791 0.4-0.4 0.4v-0.8zm-5.1797 0.8c-0.22092 0-0.4-0.1791-0.4-0.4 0-0.221 0.17908-0.4 0.4-0.4v0.8zm5.1797 0h-5.1797v-0.8h5.1797v0.8z" fill="url(#i)"/><path d="m11.621 24.077c0.2209 0 0.4 0.179 0.4 0.4 0 0.2209-0.1791 0.4-0.4 0.4v-0.8zm-5.1797 0.8c-0.22092 0-0.4-0.1791-0.4-0.4 0-0.221 0.17908-0.4 0.4-0.4v0.8zm5.1797 0h-5.1797v-0.8h5.1797v0.8z" fill="url(#h)"/><defs><filter id="aq" x="1.9078" y="4" width="13.1" height="13.1" color-interpolation-filters="sRGB" filterUnits="userSpaceOnUse"><feFlood flood-opacity="0" result="BackgroundImageFix"/><feBlend in="SourceGraphic" in2="BackgroundImageFix" result="shape"/><feColorMatrix in="SourceAlpha" result="hardAlpha" values="0 0 0 0 0 0 0 0 0 0 0 0 0 0 0 0 0 0 127 0"/><feOffset dx="-0.1" dy="0.1"/><feGaussianBlur stdDeviation="0.25"/><feComposite in2="hardAlpha" k2="-1" k3="1" operator="arithmetic"/><feColorMatrix values="0 0 0 0 0.647059 0 0 0 0 0.639216 0 0 0 0 0.662745 0 0 0 0.5 0"/><feBlend in2="shape" result="effect1_innerShadow_28327_3650"/></filter><filter id="ap" x="17.008" y="4" width="13.1" height="13.1" color-interpolation-filters="sRGB" filterUnits="userSpaceOnUse"><feFlood flood-opacity="0" result="BackgroundImageFix"/><feBlend in="SourceGraphic" in2="BackgroundImageFix" result="shape"/><feColorMatrix in="SourceAlpha" result="hardAlpha" values="0 0 0 0 0 0 0 0 0 0 0 0 0 0 0 0 0 0 127 0"/><feOffset dx="0.1" dy="0.1"/><feGaussianBlur stdDeviation="0.5"/><feComposite in2="hardAlpha" k2="-1" k3="1" operator="arithmetic"/><feColorMatrix values="0 0 0 0 0.647059 0 0 0 0 0.639216 0 0 0 0 0.662745 0 0 0 0.75 0"/><feBlend in2="shape" result="effect1_innerShadow_28327_3650"/></filter><filter id="ao" x="18.908" y="6" width="10.1" height="10.1" color-interpolation-filters="sRGB" filterUnits="userSpaceOnUse"><feFlood flood-opacity="0" result="BackgroundImageFix"/><feBlend in="SourceGraphic" in2="BackgroundImageFix" result="shape"/><feColorMatrix in="SourceAlpha" result="hardAlpha" values="0 0 0 0 0 0 0 0 0 0 0 0 0 0 0 0 0 0 127 0"/><feOffset dx="-0.1" dy="0.1"/><feGaussianBlur stdDeviation="0.25"/><feComposite in2="hardAlpha" k2="-1" k3="1" operator="arithmetic"/><feColorMatrix values="0 0 0 0 0.898039 0 0 0 0 0.470588 0 0 0 0 0.580392 0 0 0 0.75 0"/><feBlend in2="shape" result="effect1_innerShadow_28327_3650"/></filter><filter id="an" x="18.302" y="18.688" width="2.4844" height="4" color-interpolation-filters="sRGB" filterUnits="userSpaceOnUse"><feFlood flood-opacity="0" result="BackgroundImageFix"/><feBlend in="SourceGraphic" in2="BackgroundImageFix" result="shape"/><feGaussianBlur result="effect1_foregroundBlur_28327_3650" stdDeviation="0.25"/></filter><linearGradient id="am" x1="7.3828" x2="5.5703" y1="6.625" y2="17" gradientUnits="userSpaceOnUse"><stop stop-color="#C1B8C6" offset="0"/><stop stop-color="#A183B2" offset="1"/></linearGradient><radialGradient id="ab" cx="0" cy="0" r="1" gradientTransform="translate(2.8582 4.9004) rotate(51.843) scale(4.3204 5.9899)" gradientUnits="userSpaceOnUse"><stop stop-color="#A9A4AE" offset="0"/><stop stop-color="#A9A4AE" stop-opacity="0" offset="1"/></radialGradient><radialGradient id="q" cx="0" cy="0" r="1" gradientTransform="translate(13.778 5.9317) rotate(132.98) scale(3.6484 6.3688)" gradientUnits="userSpaceOnUse"><stop stop-color="#E3E0E7" offset="0"/><stop stop-color="#E3E0E7" stop-opacity="0" offset="1"/></radialGradient><radialGradient id="g" cx="0" cy="0" r="1" gradientTransform="translate(3.0078 11.875) rotate(13.291) scale(8.156)" gradientUnits="userSpaceOnUse"><stop stop-color="#F3758E" offset="0"/><stop stop-color="#E7626E" offset="1"/></radialGradient><radialGradient id="f" cx="0" cy="0" r="1" gradientTransform="translate(5.2578 13.25) rotate(-40.956) scale(4.3862 6.124)" gradientUnits="userSpaceOnUse"><stop stop-color="#FF9CA9" offset="0"/><stop stop-color="#FF9CA9" stop-opacity="0" offset=".82863"/></radialGradient><radialGradient id="e" cx="0" cy="0" r="1" gradientTransform="translate(18.32 7.6875) rotate(52.431) scale(10.251)" gradientUnits="userSpaceOnUse"><stop stop-color="#A6A2AC" offset="0"/><stop stop-color="#D3CBDA" offset="1"/></radialGradient><radialGradient id="d" cx="0" cy="0" r="1" gradientTransform="translate(27.195 17) rotate(249.6) scale(5.201 12.891)" gradientUnits="userSpaceOnUse"><stop stop-color="#C5AED9" offset="0"/><stop stop-color="#C5AED9" stop-opacity="0" offset="1"/></radialGradient><radialGradient id="c" cx="0" cy="0" r="1" gradientTransform="translate(30.383 11.438) rotate(194.16) scale(13.794 9.0204)" gradientUnits="userSpaceOnUse"><stop stop-color="#A4A2A9" stop-opacity="0" offset=".85039"/><stop stop-color="#A4A2A9" offset="1"/></radialGradient><radialGradient id="b" cx="0" cy="0" r="1" gradientTransform="translate(29.445 7.5) rotate(147.1) scale(3.7966 5.4572)" gradientUnits="userSpaceOnUse"><stop stop-color="#E7E1ED" offset="0"/><stop stop-color="#E7E1ED" stop-opacity="0" offset=".94054"/></radialGradient><radialGradient id="a" cx="0" cy="0" r="1" gradientTransform="translate(22.852 13.031) rotate(-47.472) scale(6.1487 8.2063)" gradientUnits="userSpaceOnUse"><stop stop-color="#FFABB3" offset="0"/><stop stop-color="#FA91AF" offset="1"/></radialGradient><radialGradient id="al" cx="0" cy="0" r="1" gradientTransform="translate(24.008 11.438) rotate(-33.917) scale(4.3683 4.455)" gradientUnits="userSpaceOnUse"><stop stop-color="#F5BBD5" offset="0"/><stop stop-color="#F5BBD5" stop-opacity="0" offset="1"/></radialGradient><linearGradient id="ak" x1="20.07" x2="5.8203" y1="14.25" y2="36.5" gradientUnits="userSpaceOnUse"><stop stop-color="#D4CCE2" offset=".23726"/><stop stop-color="#BB8AE9" offset="1"/></linearGradient><radialGradient id="aj" cx="0" cy="0" r="1" gradientTransform="translate(12.133 28.25) rotate(-57.355) scale(9.5008 15.744)" gradientUnits="userSpaceOnUse"><stop stop-color="#B583E3" offset="0"/><stop stop-color="#B583E3" stop-opacity="0" offset="1"/></radialGradient><radialGradient id="ai" cx="0" cy="0" r="1" gradientTransform="translate(3.6953 14.125) rotate(23.841) scale(11.616 13.367)" gradientUnits="userSpaceOnUse"><stop stop-color="#9B90A2" offset=".12067"/><stop stop-color="#9B90A2" stop-opacity="0" offset="1"/></radialGradient><radialGradient id="ah" cx="0" cy="0" r="1" gradientTransform="translate(20.445 15.562) rotate(141.04) scale(9.2437 11.86)" gradientUnits="userSpaceOnUse"><stop stop-color="#F6F1FE" offset="0"/><stop stop-color="#F6F1FE" stop-opacity="0" offset=".5728"/></radialGradient><radialGradient id="ag" cx="0" cy="0" r="1" gradientTransform="translate(16.039 27.609) rotate(-90) scale(18.922 13.469)" gradientUnits="userSpaceOnUse"><stop stop-color="#C1C0C3" stop-opacity="0" offset=".87779"/><stop stop-color="#C1C0C3" offset="1"/></radialGradient><linearGradient id="af" x1="20.711" x2="19.852" y1="20.5" y2="20.5" gradientUnits="userSpaceOnUse"><stop stop-color="#594C4F" offset=".225"/><stop stop-color="#392833" offset="1"/></linearGradient><linearGradient id="ae" x1="20.943" x2="20.943" y1="22.257" y2="21.183" gradientUnits="userSpaceOnUse"><stop stop-color="#552D52" offset="0"/><stop stop-color="#552D52" stop-opacity="0" offset="1"/></linearGradient><radialGradient id="ad" cx="0" cy="0" r="1" gradientTransform="translate(20.258 20.68) rotate(250.7) scale(1.7327 1.6706)" gradientUnits="userSpaceOnUse"><stop stop-color="#594C4F" stop-opacity="0" offset=".81395"/><stop stop-color="#594C4F" offset="1"/></radialGradient><linearGradient id="ac" x1="12.773" x2="11.914" y1="20.5" y2="20.5" gradientUnits="userSpaceOnUse"><stop stop-color="#594C4F" offset=".225"/><stop stop-color="#392833" offset="1"/></linearGradient><linearGradient id="aa" x1="13.005" x2="13.005" y1="22.257" y2="21.183" gradientUnits="userSpaceOnUse"><stop stop-color="#552D52" offset="0"/><stop stop-color="#552D52" stop-opacity="0" offset="1"/></linearGradient><radialGradient id="z" cx="0" cy="0" r="1" gradientTransform="translate(12.32 20.68) rotate(250.7) scale(1.7327 1.6706)" gradientUnits="userSpaceOnUse"><stop stop-color="#594C4F" stop-opacity="0" offset=".81395"/><stop stop-color="#594C4F" offset="1"/></radialGradient><radialGradient id="y" cx="0" cy="0" r="1" gradientTransform="translate(17.977 23.25) rotate(143.67) scale(3.9564 4.4258)" gradientUnits="userSpaceOnUse"><stop stop-color="#E1589F" stop-opacity="0" offset=".72694"/><stop stop-color="#E1589F" offset="1"/></radialGradient><linearGradient id="x" x1="22.414" x2="21.883" y1="26.078" y2="27.375" gradientUnits="userSpaceOnUse"><stop stop-color="#978BA4" offset="0"/><stop stop-color="#B5A8C7" offset=".3432"/><stop stop-color="#9877BA" offset=".83333"/></linearGradient><linearGradient id="w" x1="25.117" x2="24.711" y1="27.797" y2="27.555" gradientUnits="userSpaceOnUse"><stop stop-color="#B5A8C7" offset="0"/><stop stop-color="#B5A8C7" stop-opacity="0" offset="1"/></linearGradient><linearGradient id="v" x1="19.023" x2="19.961" y1="25.297" y2="25.812" gradientUnits="userSpaceOnUse"><stop stop-color="#A18BBA" offset="0"/><stop stop-color="#A18BBA" stop-opacity="0" offset="1"/></linearGradient><radialGradient id="u" cx="0" cy="0" r="1" gradientTransform="translate(24.695 27.438) rotate(206.56) scale(.4542 .78428)" gradientUnits="userSpaceOnUse"><stop stop-color="#C1B1D8" offset="0"/><stop stop-color="#B5A8C7" stop-opacity="0" offset="1"/></radialGradient><linearGradient id="t" x1="22.969" x2="22.969" y1="23.961" y2="25.281" gradientUnits="userSpaceOnUse"><stop stop-color="#978BA4" offset="0"/><stop stop-color="#B5A8C7" offset=".3432"/><stop stop-color="#9877BA" offset=".83333"/></linearGradient><linearGradient id="s" x1="26.148" x2="25.559" y1="24.781" y2="24.781" gradientUnits="userSpaceOnUse"><stop stop-color="#B5A8C7" offset="0"/><stop stop-color="#B5A8C7" stop-opacity="0" offset="1"/></linearGradient><linearGradient id="r" x1="20.102" x2="20.727" y1="24.859" y2="24.859" gradientUnits="userSpaceOnUse"><stop stop-color="#A18BBA" offset="0"/><stop stop-color="#A18BBA" stop-opacity="0" offset="1"/></linearGradient><radialGradient id="p" cx="0" cy="0" r="1" gradientTransform="translate(25.559 24.312) rotate(180) scale(.41016 .32487)" gradientUnits="userSpaceOnUse"><stop stop-color="#C1B1D8" offset="0"/><stop stop-color="#B5A8C7" stop-opacity="0" offset="1"/></radialGradient><linearGradient id="o" x1="9.5859" x2="10.117" y1="26.078" y2="27.375" gradientUnits="userSpaceOnUse"><stop stop-color="#978BA4" offset="0"/><stop stop-color="#B5A8C7" offset=".3432"/><stop stop-color="#9877BA" offset=".83333"/></linearGradient><linearGradient id="n" x1="13.102" x2="12.562" y1="25.57" y2="25.828" gradientUnits="userSpaceOnUse"><stop stop-color="#B5A8C7" offset="0"/><stop stop-color="#B5A8C7" stop-opacity="0" offset="1"/></linearGradient><linearGradient id="m" x1="6.9609" x2="7.7109" y1="27.453" y2="27.07" gradientUnits="userSpaceOnUse"><stop stop-color="#A18BBA" offset="0"/><stop stop-color="#A18BBA" stop-opacity="0" offset="1"/></linearGradient><radialGradient id="l" cx="0" cy="0" r="1" gradientTransform="translate(12.656 25.25) rotate(162.58) scale(.41758 .72105)" gradientUnits="userSpaceOnUse"><stop stop-color="#C1B1D8" offset="0"/><stop stop-color="#B5A8C7" stop-opacity="0" offset="1"/></radialGradient><linearGradient id="k" x1="9.0312" x2="9.0312" y1="23.961" y2="25.281" gradientUnits="userSpaceOnUse"><stop stop-color="#978BA4" offset="0"/><stop stop-color="#B5A8C7" offset=".3432"/><stop stop-color="#9877BA" offset=".83333"/></linearGradient><linearGradient id="j" x1="11.93" x2="11.109" y1="24.781" y2="24.781" gradientUnits="userSpaceOnUse"><stop stop-color="#B5A8C7" offset="0"/><stop stop-color="#B5A8C7" stop-opacity="0" offset="1"/></linearGradient><linearGradient id="i" x1="5.8906" x2="6.7266" y1="24.75" y2="24.75" gradientUnits="userSpaceOnUse"><stop stop-color="#A18BBA" offset="0"/><stop stop-color="#A18BBA" stop-opacity="0" offset="1"/></linearGradient><radialGradient id="h" cx="0" cy="0" r="1" gradientTransform="translate(11.621 24.414) rotate(178.91) scale(.41023 .32493)" gradientUnits="userSpaceOnUse"><stop stop-color="#C1B1D8" offset="0"/><stop stop-color="#B5A8C7" stop-opacity="0" offset="1"/></radialGradient></defs></svg>
