<svg fill="none" viewBox="0 0 32 32" xmlns="http://www.w3.org/2000/svg"><g filter="url(#ah)"><path d="m2.0582 19.329 3.37-6.41c0.29-0.55 0.86-0.89 1.48-0.89h6.84c0.0828 0 0.15 0.0672 0.15 0.15v9.7875l-12-1.8475c0-0.27 0.05-0.54 0.16-0.79z" fill="url(#y)"/></g><path d="m2.0582 19.329 3.37-6.41c0.29-0.55 0.86-0.89 1.48-0.89h6.84c0.0828 0 0.15 0.0672 0.15 0.15v9.7875l-12-1.8475c0-0.27 0.05-0.54 0.16-0.79z" fill="url(#n)"/><path d="m2.0582 19.329 3.37-6.41c0.29-0.55 0.86-0.89 1.48-0.89h6.84c0.0828 0 0.15 0.0672 0.15 0.15v9.7875l-12-1.8475c0-0.27 0.05-0.54 0.16-0.79z" fill="url(#h)"/><g filter="url(#ag)"><path d="m26.898 7.0289h-10c-1.66 0-3 1.34-3 3v11.251h16v-11.251c0-1.66-1.34-3-3-3z" fill="url(#g)"/></g><path d="m26.898 7.0289h-10c-1.66 0-3 1.34-3 3v11.251h16v-11.251c0-1.66-1.34-3-3-3z" fill="url(#f)"/><path d="m26.898 7.0289h-10c-1.66 0-3 1.34-3 3v11.251h16v-11.251c0-1.66-1.34-3-3-3z" fill="url(#e)"/><path d="m2.2082 19.029h6.59c0.61 0 1.1-0.49 1.1-1.1v-3.79c0-0.61-0.49-1.1-1.1-1.1h-3.42l-3.17 5.99z" fill="url(#d)"/><path d="m2.2082 19.029h6.59c0.61 0 1.1-0.49 1.1-1.1v-3.79c0-0.61-0.49-1.1-1.1-1.1h-3.42l-3.17 5.99z" fill="url(#c)"/><path d="m2.2082 19.029h6.59c0.61 0 1.1-0.49 1.1-1.1v-3.79c0-0.61-0.49-1.1-1.1-1.1h-3.42l-3.17 5.99z" fill="url(#b)"/><path d="m13.898 27.034v-7.01h16v5.21c0 0.99-0.81 1.8-1.8 1.8h-14.2z" fill="url(#a)"/><path d="m13.898 27.034v-7.01h16v5.21c0 0.99-0.81 1.8-1.8 1.8h-14.2z" fill="url(#x)"/><path d="m13.898 27.034v-7.01h16v5.21c0 0.99-0.81 1.8-1.8 1.8h-14.2z" fill="url(#w)"/><g filter="url(#af)"><path d="m23.398 28.029c0.8284 0 1.5-0.6715 1.5-1.5 0-0.8284-0.6716-1.5-1.5-1.5s-1.5 0.6716-1.5 1.5c0 0.8285 0.6716 1.5 1.5 1.5z" fill="#D9C3F0"/></g><path d="m29.898 22.029h-0.5c-0.85 0-1.54 0.71-1.5 1.57 0.04 0.81 0.74 1.43 1.55 1.43h0.45v-3z" fill="url(#v)"/><path d="m13.898 20.029h-12v5.23c0 0.98 0.79999 1.78 1.78 1.78h10.22v-7.01z" fill="url(#u)"/><path d="m13.898 20.029h-12v5.23c0 0.98 0.79999 1.78 1.78 1.78h10.22v-7.01z" fill="url(#t)"/><path d="m13.898 20.029h-12v5.23c0 0.98 0.79999 1.78 1.78 1.78h10.22v-7.01z" fill="url(#s)"/><path d="m13.898 20.029h-12v5.23c0 0.98 0.79999 1.78 1.78 1.78h10.22v-7.01z" fill="url(#r)"/><path d="m12.479 27.039c0.0217-0.1669 0.0329-0.3371 0.0329-0.51 0-2.161-1.7519-3.9129-3.9129-3.9129-2.161 0-3.9129 1.7519-3.9129 3.9129 0 0.1729 0.01121 0.3431 0.03294 0.51h7.76z" clip-rule="evenodd" fill="url(#q)" fill-rule="evenodd"/><path d="m27.278 27.039c0.0217-0.1669 0.0329-0.3371 0.0329-0.51 0-2.161-1.7519-3.9129-3.9129-3.9129s-3.9129 1.7519-3.9129 3.9129c0 0.1729 0.0112 0.3431 0.0329 0.51h7.76z" clip-rule="evenodd" fill="url(#p)" fill-rule="evenodd"/><g filter="url(#ae)"><path d="m23.427 30c1.9171 0 3.4711-1.5541 3.4711-3.4711s-1.554-3.4711-3.4711-3.4711c-1.917 0-3.471 1.5541-3.471 3.4711s1.554 3.4711 3.471 3.4711z" fill="url(#o)"/><path d="m23.427 30c1.9171 0 3.4711-1.5541 3.4711-3.4711s-1.554-3.4711-3.4711-3.4711c-1.917 0-3.471 1.5541-3.471 3.4711s1.554 3.4711 3.471 3.4711z" fill="url(#m)"/></g><g filter="url(#ad)"><path d="m23.429 27.81c0.7076 0 1.2812-0.5736 1.2812-1.2812 0-0.7075-0.5736-1.2811-1.2812-1.2811-0.7075 0-1.2811 0.5736-1.2811 1.2811 0 0.7076 0.5736 1.2812 1.2811 1.2812z" fill="#D9C3F0"/></g><path d="m2.8082 25.029h-0.91v-4h0.91c0.6 0 1.09 0.49 1.09 1.09v1.82c0 0.6-0.49 1.09-1.09 1.09z" fill="#F8DA4B"/><g filter="url(#ac)"><path d="m8.5988 30c1.9171 0 3.4711-1.5541 3.4711-3.4711s-1.554-3.4711-3.4711-3.4711c-1.917 0-3.4711 1.5541-3.4711 3.4711s1.554 3.4711 3.4711 3.4711z" fill="url(#l)"/><path d="m8.5988 30c1.9171 0 3.4711-1.5541 3.4711-3.4711s-1.554-3.4711-3.4711-3.4711c-1.917 0-3.4711 1.5541-3.4711 3.4711s1.554 3.4711 3.4711 3.4711z" fill="url(#k)"/></g><g filter="url(#ab)"><path d="m8.601 27.81c0.70756 0 1.2812-0.5736 1.2812-1.2812 0-0.7075-0.57359-1.2811-1.2812-1.2811s-1.2811 0.5736-1.2811 1.2811c0 0.7076 0.57358 1.2812 1.2811 1.2812z" fill="#D9C3F0"/></g><g filter="url(#aa)"><circle cx="8.7556" cy="26.188" r="2.3965" stroke="url(#j)" stroke-width=".85"/></g><g filter="url(#z)"><circle cx="23.627" cy="26.188" r="2.3965" stroke="url(#i)" stroke-width=".85"/></g><defs><filter id="ah" x="1.3982" y="12.029" width="13" height="10.138" color-interpolation-filters="sRGB" filterUnits="userSpaceOnUse"><feFlood flood-opacity="0" result="BackgroundImageFix"/><feBlend in="SourceGraphic" in2="BackgroundImageFix" result="shape"/><feColorMatrix in="SourceAlpha" result="hardAlpha" values="0 0 0 0 0 0 0 0 0 0 0 0 0 0 0 0 0 0 127 0"/><feOffset dx="-1" dy="0.2"/><feGaussianBlur stdDeviation="0.25"/><feComposite in2="hardAlpha" k2="-1" k3="1" operator="arithmetic"/><feColorMatrix values="0 0 0 0 1 0 0 0 0 0.945098 0 0 0 0 0.996078 0 0 0 1 0"/><feBlend in2="shape" result="effect1_innerShadow_18_10756"/><feColorMatrix in="SourceAlpha" result="hardAlpha" values="0 0 0 0 0 0 0 0 0 0 0 0 0 0 0 0 0 0 127 0"/><feOffset dx="0.5"/><feGaussianBlur stdDeviation="0.25"/><feComposite in2="hardAlpha" k2="-1" k3="1" operator="arithmetic"/><feColorMatrix values="0 0 0 0 0.678431 0 0 0 0 0.639216 0 0 0 0 0.643137 0 0 0 1 0"/><feBlend in2="effect1_innerShadow_18_10756" result="effect2_innerShadow_18_10756"/></filter><filter id="ag" x="13.398" y="7.0289" width="17" height="14.251" color-interpolation-filters="sRGB" filterUnits="userSpaceOnUse"><feFlood flood-opacity="0" result="BackgroundImageFix"/><feBlend in="SourceGraphic" in2="BackgroundImageFix" result="shape"/><feColorMatrix in="SourceAlpha" result="hardAlpha" values="0 0 0 0 0 0 0 0 0 0 0 0 0 0 0 0 0 0 127 0"/><feOffset dx="0.8"/><feGaussianBlur stdDeviation="0.25"/><feComposite in2="hardAlpha" k2="-1" k3="1" operator="arithmetic"/><feColorMatrix values="0 0 0 0 0.784314 0 0 0 0 0.615686 0 0 0 0 0.258824 0 0 0 1 0"/><feBlend in2="shape" result="effect1_innerShadow_18_10756"/><feColorMatrix in="SourceAlpha" result="hardAlpha" values="0 0 0 0 0 0 0 0 0 0 0 0 0 0 0 0 0 0 127 0"/><feOffset dx="-1"/><feGaussianBlur stdDeviation="0.25"/><feComposite in2="hardAlpha" k2="-1" k3="1" operator="arithmetic"/><feColorMatrix values="0 0 0 0 0.909804 0 0 0 0 0.756863 0 0 0 0 0.27451 0 0 0 1 0"/><feBlend in2="effect1_innerShadow_18_10756" result="effect2_innerShadow_18_10756"/></filter><filter id="af" x="21.848" y="24.979" width="3.1" height="3.1" color-interpolation-filters="sRGB" filterUnits="userSpaceOnUse"><feFlood flood-opacity="0" result="BackgroundImageFix"/><feBlend in="SourceGraphic" in2="BackgroundImageFix" result="shape"/><feColorMatrix in="SourceAlpha" result="hardAlpha" values="0 0 0 0 0 0 0 0 0 0 0 0 0 0 0 0 0 0 127 0"/><feOffset dx="0.05" dy="-0.05"/><feGaussianBlur stdDeviation="0.05"/><feComposite in2="hardAlpha" k2="-1" k3="1" operator="arithmetic"/><feColorMatrix values="0 0 0 0 0.478431 0 0 0 0 0.364706 0 0 0 0 0.584314 0 0 0 1 0"/><feBlend in2="shape" result="effect1_innerShadow_18_10756"/><feColorMatrix in="SourceAlpha" result="hardAlpha" values="0 0 0 0 0 0 0 0 0 0 0 0 0 0 0 0 0 0 127 0"/><feOffset dx="-0.05" dy="0.05"/><feGaussianBlur stdDeviation="0.05"/><feComposite in2="hardAlpha" k2="-1" k3="1" operator="arithmetic"/><feColorMatrix values="0 0 0 0 0.807843 0 0 0 0 0.764706 0 0 0 0 0.858824 0 0 0 1 0"/><feBlend in2="effect1_innerShadow_18_10756" result="effect2_innerShadow_18_10756"/></filter><filter id="ae" x="19.956" y="23.058" width="6.9421" height="7.0922" color-interpolation-filters="sRGB" filterUnits="userSpaceOnUse"><feFlood flood-opacity="0" result="BackgroundImageFix"/><feBlend in="SourceGraphic" in2="BackgroundImageFix" result="shape"/><feColorMatrix in="SourceAlpha" result="hardAlpha" values="0 0 0 0 0 0 0 0 0 0 0 0 0 0 0 0 0 0 127 0"/><feOffset/><feGaussianBlur stdDeviation="0.5"/><feComposite in2="hardAlpha" k2="-1" k3="1" operator="arithmetic"/><feColorMatrix values="0 0 0 0 0.145098 0 0 0 0 0.0823529 0 0 0 0 0.215686 0 0 0 1 0"/><feBlend in2="shape" result="effect1_innerShadow_18_10756"/><feColorMatrix in="SourceAlpha" result="hardAlpha" values="0 0 0 0 0 0 0 0 0 0 0 0 0 0 0 0 0 0 127 0"/><feOffset dy="0.15"/><feGaussianBlur stdDeviation="0.125"/><feComposite in2="hardAlpha" k2="-1" k3="1" operator="arithmetic"/><feColorMatrix values="0 0 0 0 0.207843 0 0 0 0 0.0313726 0 0 0 0 0.235294 0 0 0 1 0"/><feBlend in2="effect1_innerShadow_18_10756" result="effect2_innerShadow_18_10756"/></filter><filter id="ad" x="22.098" y="25.198" width="2.6623" height="2.6623" color-interpolation-filters="sRGB" filterUnits="userSpaceOnUse"><feFlood flood-opacity="0" result="BackgroundImageFix"/><feBlend in="SourceGraphic" in2="BackgroundImageFix" result="shape"/><feColorMatrix in="SourceAlpha" result="hardAlpha" values="0 0 0 0 0 0 0 0 0 0 0 0 0 0 0 0 0 0 127 0"/><feOffset dx="0.05" dy="-0.05"/><feGaussianBlur stdDeviation="0.05"/><feComposite in2="hardAlpha" k2="-1" k3="1" operator="arithmetic"/><feColorMatrix values="0 0 0 0 0.478431 0 0 0 0 0.364706 0 0 0 0 0.584314 0 0 0 1 0"/><feBlend in2="shape" result="effect1_innerShadow_18_10756"/><feColorMatrix in="SourceAlpha" result="hardAlpha" values="0 0 0 0 0 0 0 0 0 0 0 0 0 0 0 0 0 0 127 0"/><feOffset dx="-0.05" dy="0.05"/><feGaussianBlur stdDeviation="0.05"/><feComposite in2="hardAlpha" k2="-1" k3="1" operator="arithmetic"/><feColorMatrix values="0 0 0 0 0.807843 0 0 0 0 0.764706 0 0 0 0 0.858824 0 0 0 1 0"/><feBlend in2="effect1_innerShadow_18_10756" result="effect2_innerShadow_18_10756"/></filter><filter id="ac" x="5.1278" y="23.058" width="6.9421" height="7.0922" color-interpolation-filters="sRGB" filterUnits="userSpaceOnUse"><feFlood flood-opacity="0" result="BackgroundImageFix"/><feBlend in="SourceGraphic" in2="BackgroundImageFix" result="shape"/><feColorMatrix in="SourceAlpha" result="hardAlpha" values="0 0 0 0 0 0 0 0 0 0 0 0 0 0 0 0 0 0 127 0"/><feOffset/><feGaussianBlur stdDeviation="0.5"/><feComposite in2="hardAlpha" k2="-1" k3="1" operator="arithmetic"/><feColorMatrix values="0 0 0 0 0.145098 0 0 0 0 0.0823529 0 0 0 0 0.215686 0 0 0 1 0"/><feBlend in2="shape" result="effect1_innerShadow_18_10756"/><feColorMatrix in="SourceAlpha" result="hardAlpha" values="0 0 0 0 0 0 0 0 0 0 0 0 0 0 0 0 0 0 127 0"/><feOffset dy="0.15"/><feGaussianBlur stdDeviation="0.125"/><feComposite in2="hardAlpha" k2="-1" k3="1" operator="arithmetic"/><feColorMatrix values="0 0 0 0 0.207843 0 0 0 0 0.0313726 0 0 0 0 0.235294 0 0 0 1 0"/><feBlend in2="effect1_innerShadow_18_10756" result="effect2_innerShadow_18_10756"/></filter><filter id="ab" x="7.2699" y="25.198" width="2.6623" height="2.6623" color-interpolation-filters="sRGB" filterUnits="userSpaceOnUse"><feFlood flood-opacity="0" result="BackgroundImageFix"/><feBlend in="SourceGraphic" in2="BackgroundImageFix" result="shape"/><feColorMatrix in="SourceAlpha" result="hardAlpha" values="0 0 0 0 0 0 0 0 0 0 0 0 0 0 0 0 0 0 127 0"/><feOffset dx="0.05" dy="-0.05"/><feGaussianBlur stdDeviation="0.05"/><feComposite in2="hardAlpha" k2="-1" k3="1" operator="arithmetic"/><feColorMatrix values="0 0 0 0 0.478431 0 0 0 0 0.364706 0 0 0 0 0.584314 0 0 0 1 0"/><feBlend in2="shape" result="effect1_innerShadow_18_10756"/><feColorMatrix in="SourceAlpha" result="hardAlpha" values="0 0 0 0 0 0 0 0 0 0 0 0 0 0 0 0 0 0 127 0"/><feOffset dx="-0.05" dy="0.05"/><feGaussianBlur stdDeviation="0.05"/><feComposite in2="hardAlpha" k2="-1" k3="1" operator="arithmetic"/><feColorMatrix values="0 0 0 0 0.807843 0 0 0 0 0.764706 0 0 0 0 0.858824 0 0 0 1 0"/><feBlend in2="effect1_innerShadow_18_10756" result="effect2_innerShadow_18_10756"/></filter><filter id="aa" x="5.1841" y="22.616" width="7.1431" height="7.1431" color-interpolation-filters="sRGB" filterUnits="userSpaceOnUse"><feFlood flood-opacity="0" result="BackgroundImageFix"/><feBlend in="SourceGraphic" in2="BackgroundImageFix" result="shape"/><feGaussianBlur result="effect1_foregroundBlur_18_10756" stdDeviation="0.375"/></filter><filter id="z" x="20.055" y="22.616" width="7.1431" height="7.1431" color-interpolation-filters="sRGB" filterUnits="userSpaceOnUse"><feFlood flood-opacity="0" result="BackgroundImageFix"/><feBlend in="SourceGraphic" in2="BackgroundImageFix" result="shape"/><feGaussianBlur result="effect1_foregroundBlur_18_10756" stdDeviation="0.375"/></filter><linearGradient id="y" x1="2.4607" x2="13.898" y1="16.073" y2="16.073" gradientUnits="userSpaceOnUse"><stop stop-color="#C9BDD1" offset="0"/><stop stop-color="#EBDDF3" offset="1"/></linearGradient><linearGradient id="n" x1="8.5014" x2="8.5014" y1="11.865" y2="12.632" gradientUnits="userSpaceOnUse"><stop stop-color="#C8C6C5" offset="0"/><stop stop-color="#C8C6C5" stop-opacity="0" offset=".49504"/></linearGradient><linearGradient id="h" x1="13.898" x2="13.692" y1="15.81" y2="15.81" gradientUnits="userSpaceOnUse"><stop stop-color="#604114" offset="0"/><stop stop-color="#604114" stop-opacity="0" offset="1"/></linearGradient><linearGradient id="g" x1="14.659" x2="29.898" y1="21.026" y2="12.585" gradientUnits="userSpaceOnUse"><stop stop-color="#F1C147" offset="0"/><stop stop-color="#E0B343" offset="1"/></linearGradient><linearGradient id="f" x1="21.898" x2="21.898" y1="7.0289" y2="9.119" gradientUnits="userSpaceOnUse"><stop stop-color="#EAC439" offset="0"/><stop stop-color="#EAC439" stop-opacity="0" offset="1"/></linearGradient><linearGradient id="e" x1="29.898" x2="29.609" y1="15.154" y2="15.154" gradientUnits="userSpaceOnUse"><stop stop-color="#DDBE7A" offset="0"/><stop stop-color="#DDBE7A" stop-opacity="0" offset="1"/></linearGradient><linearGradient id="d" x1="9.3357" x2="3.2732" y1="13.904" y2="19.029" gradientUnits="userSpaceOnUse"><stop stop-color="#35A5E2" offset="0"/><stop stop-color="#4AD3F9" offset="1"/></linearGradient><linearGradient id="c" x1="6.0532" x2="6.0532" y1="13.039" y2="16.869" gradientUnits="userSpaceOnUse"><stop stop-color="#1D95DD" offset="0"/><stop stop-color="#1D95DD" stop-opacity="0" offset="1"/></linearGradient><linearGradient id="b" x1="10.312" x2="8.8835" y1="16.552" y2="16.552" gradientUnits="userSpaceOnUse"><stop stop-color="#48B8E6" offset="0"/><stop stop-color="#48B8E6" stop-opacity="0" offset="1"/></linearGradient><linearGradient id="a" x1="18.728" x2="18.773" y1="20.024" y2="26.091" gradientUnits="userSpaceOnUse"><stop stop-color="#FD6E33" offset="0"/><stop stop-color="#EB3C3D" offset="1"/></linearGradient><linearGradient id="x" x1="13.898" x2="14.999" y1="22.614" y2="22.614" gradientUnits="userSpaceOnUse"><stop stop-color="#EA3A0C" offset=".51255"/><stop stop-color="#EA3A0C" stop-opacity="0" offset="1"/></linearGradient><linearGradient id="w" x1="21.898" x2="21.898" y1="27.899" y2="25.336" gradientUnits="userSpaceOnUse"><stop stop-color="#BC2447" offset="0"/><stop stop-color="#BC2447" stop-opacity="0" offset="1"/></linearGradient><linearGradient id="v" x1="27.896" x2="29.492" y1="22.591" y2="24.435" gradientUnits="userSpaceOnUse"><stop stop-color="#BD0663" offset="0"/><stop stop-color="#C8166A" offset="1"/></linearGradient><linearGradient id="u" x1="7.8982" x2="7.8982" y1="19.591" y2="27.039" gradientUnits="userSpaceOnUse"><stop stop-color="#FF7233" offset="0"/><stop stop-color="#EE3124" offset="1"/></linearGradient><linearGradient id="t" x1="13.898" x2="12.054" y1="23.685" y2="23.685" gradientUnits="userSpaceOnUse"><stop stop-color="#FF7B3D" offset="0"/><stop stop-color="#FF7B3D" stop-opacity="0" offset="1"/></linearGradient><linearGradient id="s" x1="7.8982" x2="7.8982" y1="27.039" y2="25.341" gradientUnits="userSpaceOnUse"><stop stop-color="#BC2447" offset="0"/><stop stop-color="#BC2447" stop-opacity="0" offset="1"/></linearGradient><linearGradient id="r" x1="13.898" x2="13.692" y1="22.696" y2="22.696" gradientUnits="userSpaceOnUse"><stop stop-color="#BC2303" offset="0"/><stop stop-color="#BC2303" stop-opacity="0" offset="1"/></linearGradient><linearGradient id="q" x1="8.5988" x2="8.5988" y1="22.616" y2="27.039" gradientUnits="userSpaceOnUse"><stop stop-color="#99160C" offset="0"/><stop stop-color="#AC0819" offset="1"/></linearGradient><linearGradient id="p" x1="23.398" x2="23.398" y1="22.616" y2="27.039" gradientUnits="userSpaceOnUse"><stop stop-color="#99160C" offset="0"/><stop stop-color="#AC0819" offset="1"/></linearGradient><linearGradient id="o" x1="21.827" x2="27.04" y1="25.656" y2="25.656" gradientUnits="userSpaceOnUse"><stop stop-color="#34214F" offset=".23904"/><stop stop-color="#241337" offset="1"/></linearGradient><radialGradient id="m" cx="0" cy="0" r="1" gradientTransform="translate(23.427 26.218) rotate(-65.537) scale(1.8939 1.9781)" gradientUnits="userSpaceOnUse"><stop stop-color="#2D114D" offset=".52313"/><stop stop-color="#2B1249" stop-opacity="0" offset="1"/></radialGradient><linearGradient id="l" x1="6.9983" x2="12.212" y1="25.656" y2="25.656" gradientUnits="userSpaceOnUse"><stop stop-color="#34214F" offset=".23904"/><stop stop-color="#241337" offset="1"/></linearGradient><radialGradient id="k" cx="0" cy="0" r="1" gradientTransform="translate(8.5988 26.218) rotate(-65.537) scale(1.8939 1.9781)" gradientUnits="userSpaceOnUse"><stop stop-color="#2D114D" offset=".52313"/><stop stop-color="#2B1249" stop-opacity="0" offset="1"/></radialGradient><linearGradient id="j" x1="10.061" x2="7.1498" y1="24.286" y2="28.307" gradientUnits="userSpaceOnUse"><stop stop-color="#615B6B" offset=".083012"/><stop stop-color="#615B6B" stop-opacity="0" offset=".39077"/><stop stop-color="#615B6B" stop-opacity="0" offset=".69239"/><stop stop-color="#615B6B" offset=".93498"/></linearGradient><linearGradient id="i" x1="24.932" x2="22.021" y1="24.286" y2="28.307" gradientUnits="userSpaceOnUse"><stop stop-color="#615B6B" offset=".083012"/><stop stop-color="#615B6B" stop-opacity="0" offset=".39077"/><stop stop-color="#615B6B" stop-opacity="0" offset=".69239"/><stop stop-color="#615B6B" offset=".93498"/></linearGradient></defs></svg>
