<svg fill="none" viewBox="0 0 32 32" xmlns="http://www.w3.org/2000/svg"><rect x="11.057" y="7.8672" width="1.9297" height="7.3438" fill="url(#q)"/><rect x="11.057" y="7.8672" width="1.9297" height="7.3438" fill="url(#i)"/><rect x="11.057" y="7.8672" width="1.9297" height="7.3438" fill="url(#h)"/><rect x="18.994" y="7.8672" width="1.9297" height="7.3438" fill="url(#g)"/><rect x="18.994" y="7.8672" width="1.9297" height="7.3438" fill="url(#f)"/><rect x="18.994" y="7.8672" width="1.9297" height="7.3438" fill="url(#e)"/><path d="m8.9785 4.6562c0-0.9665 0.7835-1.75 1.75-1.75h10.562c0.9665 0 1.75 0.7835 1.75 1.75v1.2969c0 1.7949-1.4551 3.25-3.25 3.25h-7.5625c-1.7949 0-3.25-1.4551-3.25-3.25v-1.2969z" fill="url(#d)"/><path d="m10.978 20.188h2.0703l-0.5911 6.2675c-0.0325 0.3444-0.3216 0.6075-0.6675 0.6075-0.3644 0-0.662-0.291-0.6703-0.6552l-0.1414-6.2198z" fill="url(#c)"/><path d="m10.978 20.188h2.0703l-0.5911 6.2675c-0.0325 0.3444-0.3216 0.6075-0.6675 0.6075-0.3644 0-0.662-0.291-0.6703-0.6552l-0.1414-6.2198z" fill="url(#b)"/><g filter="url(#u)"><path d="m8.2392 29.337 3.0082-8.7897h-2.8437l-1.758 8.3436c-0.10859 0.5154 0.28463 1.0001 0.81134 1.0001 0.35188 0 0.66543-0.2221 0.78218-0.554z" fill="#803F44"/><path d="m8.2392 29.337 3.0082-8.7897h-2.8437l-1.758 8.3436c-0.10859 0.5154 0.28463 1.0001 0.81134 1.0001 0.35188 0 0.66543-0.2221 0.78218-0.554z" fill="url(#a)"/></g><path d="m21.002 20.188h-2.0704l0.5912 6.2675c0.0325 0.3444 0.3216 0.6075 0.6675 0.6075 0.3643 0 0.662-0.291 0.6703-0.6552l0.1414-6.2198z" fill="url(#p)"/><path d="m21.002 20.188h-2.0704l0.5912 6.2675c0.0325 0.3444 0.3216 0.6075 0.6675 0.6075 0.3643 0 0.662-0.291 0.6703-0.6552l0.1414-6.2198z" fill="url(#o)"/><g filter="url(#t)"><path d="m23.761 29.337-3.0082-8.7897h2.8437l1.758 8.3436c0.1086 0.5154-0.2846 1.0001-0.8113 1.0001-0.3519 0-0.6654-0.2221-0.7822-0.554z" fill="#803F44"/><path d="m23.761 29.337-3.0082-8.7897h2.8437l1.758 8.3436c0.1086 0.5154-0.2846 1.0001-0.8113 1.0001-0.3519 0-0.6654-0.2221-0.7822-0.554z" fill="url(#n)"/></g><g filter="url(#s)"><path d="m22.475 21.023 0.8088-2e-4 1.7416 7.7128c0.0297 0.1317-0.0511 0.263-0.1821 0.2958-0.1319 0.0329-0.2658-0.0462-0.3005-0.1776l-2.0678-7.8308z" fill="#9D6C67"/></g><g filter="url(#r)"><path d="m10.344 21.437-0.80876-2e-4 -2.1779 7.5649c-0.03883 0.1348 0.04195 0.275 0.17812 0.3091 0.12631 0.0316 0.25552-0.0399 0.29586-0.1637l2.5126-7.7101z" fill="url(#m)"/></g><path d="m9.4999 14.63c0.28021-0.4044 0.74099-0.6457 1.233-0.6457h10.434c0.4806 0 0.932 0.2302 1.2142 0.6191l2.2206 3.0609c1.0551 1.4544 0.0161 3.4919-1.7808 3.4919h-13.642c-1.775 0-2.8192-1.9939-1.8084-3.4529l2.1292-3.0733z" fill="url(#l)"/><path d="m6.9816 18.785c-0.0918 1.2025 0.83874 2.371 2.1976 2.371h13.641c1.3625 0 2.2894-1.1715 2.1977-2.372-0.0817 1.0771-0.9599 2.0439-2.1977 2.0439h-13.641c-1.2346 0-2.1157-0.9646-2.1976-2.0429z" fill="#903F64"/><path d="m6.9816 18.785c-0.0918 1.2025 0.83874 2.371 2.1976 2.371h13.641c1.3625 0 2.2894-1.1715 2.1977-2.372-0.0817 1.0771-0.9599 2.0439-2.1977 2.0439h-13.641c-1.2346 0-2.1157-0.9646-2.1976-2.0429z" fill="url(#k)"/><path d="m6.9816 18.785c0.08191 1.0783 0.96301 2.0429 2.1976 2.0429h13.642c1.2378 0 2.1159-0.9668 2.1977-2.0439" stroke="url(#j)" stroke-width=".1"/><defs><filter id="u" x="6.6276" y="20.297" width="5.1199" height="9.5938" color-interpolation-filters="sRGB" filterUnits="userSpaceOnUse"><feFlood flood-opacity="0" result="BackgroundImageFix"/><feBlend in="SourceGraphic" in2="BackgroundImageFix" result="shape"/><feColorMatrix in="SourceAlpha" result="hardAlpha" values="0 0 0 0 0 0 0 0 0 0 0 0 0 0 0 0 0 0 127 0"/><feOffset dx="0.5" dy="-0.25"/><feGaussianBlur stdDeviation="0.25"/><feComposite in2="hardAlpha" k2="-1" k3="1" operator="arithmetic"/><feColorMatrix values="0 0 0 0 0.458824 0 0 0 0 0.254902 0 0 0 0 0.286275 0 0 0 1 0"/><feBlend in2="shape" result="effect1_innerShadow_18_25742"/></filter><filter id="t" x="20.753" y="20.297" width="4.8699" height="9.5938" color-interpolation-filters="sRGB" filterUnits="userSpaceOnUse"><feFlood flood-opacity="0" result="BackgroundImageFix"/><feBlend in="SourceGraphic" in2="BackgroundImageFix" result="shape"/><feColorMatrix in="SourceAlpha" result="hardAlpha" values="0 0 0 0 0 0 0 0 0 0 0 0 0 0 0 0 0 0 127 0"/><feOffset dx="0.25" dy="-0.25"/><feGaussianBlur stdDeviation="0.25"/><feComposite in2="hardAlpha" k2="-1" k3="1" operator="arithmetic"/><feColorMatrix values="0 0 0 0 0.458824 0 0 0 0 0.254902 0 0 0 0 0.286275 0 0 0 1 0"/><feBlend in2="shape" result="effect1_innerShadow_18_25742"/></filter><filter id="s" x="21.875" y="20.423" width="3.7564" height="9.216" color-interpolation-filters="sRGB" filterUnits="userSpaceOnUse"><feFlood flood-opacity="0" result="BackgroundImageFix"/><feBlend in="SourceGraphic" in2="BackgroundImageFix" result="shape"/><feGaussianBlur result="effect1_foregroundBlur_18_25742" stdDeviation="0.3"/></filter><filter id="r" x="6.7473" y="20.837" width="4.1963" height="9.0815" color-interpolation-filters="sRGB" filterUnits="userSpaceOnUse"><feFlood flood-opacity="0" result="BackgroundImageFix"/><feBlend in="SourceGraphic" in2="BackgroundImageFix" result="shape"/><feGaussianBlur result="effect1_foregroundBlur_18_25742" stdDeviation="0.3"/></filter><linearGradient id="q" x1="11.369" x2="12.619" y1="11.539" y2="11.539" gradientUnits="userSpaceOnUse"><stop stop-color="#7D4240" offset="0"/><stop stop-color="#905B58" offset="1"/></linearGradient><linearGradient id="i" x1="11.057" x2="11.588" y1="12.797" y2="12.797" gradientUnits="userSpaceOnUse"><stop stop-color="#6F4239" offset="0"/><stop stop-color="#6F4239" stop-opacity="0" offset="1"/></linearGradient><radialGradient id="h" cx="0" cy="0" r="1" gradientTransform="translate(12.291 8.6719) rotate(95.412) scale(1.491 3.6804)" gradientUnits="userSpaceOnUse"><stop stop-color="#4C1D28" offset=".25255"/><stop stop-color="#7A4145" stop-opacity="0" offset="1"/></radialGradient><linearGradient id="g" x1="19.307" x2="20.557" y1="11.539" y2="11.539" gradientUnits="userSpaceOnUse"><stop stop-color="#7D4240" offset="0"/><stop stop-color="#905B58" offset=".8125"/></linearGradient><linearGradient id="f" x1="18.994" x2="19.525" y1="12.797" y2="12.797" gradientUnits="userSpaceOnUse"><stop stop-color="#6F4239" offset="0"/><stop stop-color="#6F4239" stop-opacity="0" offset="1"/></linearGradient><radialGradient id="e" cx="0" cy="0" r="1" gradientTransform="translate(19.76 8.5625) rotate(78.366) scale(1.6272 4.0165)" gradientUnits="userSpaceOnUse"><stop stop-color="#4C1D28" offset=".3325"/><stop stop-color="#7A4145" stop-opacity="0" offset="1"/></radialGradient><linearGradient id="d" x1="16.01" x2="16.01" y1="2.9062" y2="9.2031" gradientUnits="userSpaceOnUse"><stop stop-color="#925253" offset="0"/><stop stop-color="#9D5C5A" offset="1"/></linearGradient><radialGradient id="c" cx="0" cy="0" r="1" gradientTransform="translate(11.838 26.5) rotate(-86.367) scale(5.9181 3.4795)" gradientUnits="userSpaceOnUse"><stop stop-color="#602E49" offset="0"/><stop stop-color="#3E1531" offset="1"/></radialGradient><linearGradient id="b" x1="10.978" x2="11.807" y1="22.453" y2="22.484" gradientUnits="userSpaceOnUse"><stop stop-color="#554344" offset="0"/><stop stop-color="#554344" stop-opacity="0" offset="1"/></linearGradient><radialGradient id="a" cx="0" cy="0" r="1" gradientTransform="translate(9.9491 20.547) rotate(110.37) scale(2.9064 4.6918)" gradientUnits="userSpaceOnUse"><stop stop-color="#531C30" offset=".3889"/><stop stop-color="#804044" stop-opacity="0" offset="1"/></radialGradient><radialGradient id="p" cx="0" cy="0" r="1" gradientTransform="translate(20.143 26.5) rotate(266.37) scale(5.9181 3.4795)" gradientUnits="userSpaceOnUse"><stop stop-color="#602E49" offset="0"/><stop stop-color="#3E1531" offset="1"/></radialGradient><linearGradient id="o" x1="21.002" x2="20.174" y1="22.453" y2="22.484" gradientUnits="userSpaceOnUse"><stop stop-color="#554344" offset="0"/><stop stop-color="#554344" stop-opacity="0" offset="1"/></linearGradient><radialGradient id="n" cx="0" cy="0" r="1" gradientTransform="translate(21.627 20.786) rotate(67.141) scale(2.1835 3.5248)" gradientUnits="userSpaceOnUse"><stop stop-color="#531C30" offset=".28263"/><stop stop-color="#804044" stop-opacity="0" offset="1"/></radialGradient><linearGradient id="m" x1="7.4638" x2="9.7913" y1="28.932" y2="20.825" gradientUnits="userSpaceOnUse"><stop stop-color="#9D6C67" offset=".48726"/><stop stop-color="#9D6C67" stop-opacity="0" offset="1"/></linearGradient><linearGradient id="l" x1="16" x2="16" y1="13.984" y2="21.156" gradientUnits="userSpaceOnUse"><stop stop-color="#8A4C40" offset=".22004"/><stop stop-color="#9B5C4C" offset=".878"/></linearGradient><linearGradient id="k" x1="6.9753" x2="9.6816" y1="19.97" y2="19.97" gradientUnits="userSpaceOnUse"><stop stop-color="#825257" offset="0"/><stop stop-color="#825257" stop-opacity="0" offset="1"/></linearGradient><linearGradient id="j" x1="3.4004" x2="26.932" y1="20.626" y2="20.626" gradientUnits="userSpaceOnUse"><stop stop-color="#AF736C" stop-opacity="0" offset=".13612"/><stop stop-color="#AF736C" offset=".4206"/><stop stop-color="#AF736C" offset=".80544"/><stop stop-color="#AF736C" stop-opacity="0" offset=".90073"/></linearGradient></defs></svg>
