<?xml version="1.0" encoding="UTF-8"?>
<!-- Generated by Pixelmator Pro 3.6.17 -->
<svg width="1767" height="188" viewBox="0 0 1767 188" xmlns="http://www.w3.org/2000/svg">
    <g id="ThreemaOnPremWortmarke-copy">
        <path id="Shape" fill="#000000" stroke="none" d="M 884.942871 51 C 921.325317 51 940.06604 69.376831 940.437256 95.942505 L 940.442871 96.75 L 940.442871 183 L 911.192871 183 L 911.192871 169.75 C 903.442871 180.5 889.692871 187.25 869.942871 187.25 C 845.692871 187.25 824.192871 176.75 824.192871 150.75 C 824.192871 123.315002 846.896484 112.529297 873.401367 106.930908 L 875.116455 106.576782 C 876.263062 106.345337 877.416016 106.123047 878.57373 105.908997 L 909.442871 100.25 L 909.442871 97.25 C 909.442871 84.75 900.192871 77.75 885.442871 77.75 C 874.983032 77.75 867.559937 80.607971 860.450928 85.629944 L 859.631836 86.218994 L 859.631836 86.218994 L 858.814697 86.826965 L 858.814697 86.826965 L 857.998413 87.453735 L 857.998413 87.453735 L 857.182129 88.098938 C 856.637817 88.535156 856.092773 88.983643 855.546021 89.443909 L 854.724121 90.143188 C 854.586914 90.26123 854.449463 90.380005 854.31189 90.499451 L 853.484131 91.224976 L 853.484131 91.224976 L 852.651245 91.967712 L 852.651245 91.967712 L 851.812378 92.727417 L 851.812378 92.727417 L 850.966553 93.503784 L 850.966553 93.503784 L 850.112793 94.296631 L 850.112793 94.296631 L 848.377808 95.930908 L 848.377808 95.930908 L 845.692871 98.5 L 825.192871 79.75 C 841.192871 60.75 859.692871 51 884.942871 51 Z M 426.471436 51 C 465.471436 51 486.221436 75.5 486.221436 114.75 L 486.219788 115.331909 L 486.219788 115.331909 L 486.20697 116.563171 C 486.203857 116.77478 486.200256 116.989197 486.196167 117.205872 L 486.166504 118.528503 L 486.166504 118.528503 L 486.127136 119.878479 L 486.093262 120.862061 L 486.019104 122.677979 L 486.019104 122.677979 L 485.956299 123.975037 L 485.956299 123.975037 L 485.865601 125.562561 L 485.865601 125.562561 L 485.818237 126.276184 L 485.818237 126.276184 L 485.77002 126.924866 L 485.77002 126.924866 L 485.721436 127.5 L 393.971436 127.5 C 396.721436 146 407.721436 159.5 429.971436 159.5 C 439.844849 159.5 446.685425 157.333679 454.485779 152.288086 L 455.390259 151.693054 C 456.2995 151.085205 457.223572 150.43866 458.168579 149.752319 L 459.120789 149.052612 L 459.120789 149.052612 L 460.088379 148.326172 L 460.088379 148.326172 L 461.072632 147.572754 L 461.072632 147.572754 L 462.074951 146.792053 C 462.243591 146.659607 462.413025 146.526062 462.583313 146.391357 L 463.615295 145.569336 L 463.615295 145.569336 L 464.668701 144.719421 L 464.668701 144.719421 L 465.744995 143.84137 L 465.744995 143.84137 L 467.405151 142.471069 L 467.405151 142.471069 L 467.971436 142 L 486.221436 162 C 467.471436 181 449.971436 187 429.221436 187 C 387.971436 187 362.221436 160.5 362.221436 119.75 C 362.221436 80.25 386.221436 51 426.471436 51 Z M 556.128601 51 C 595.128601 51 615.878601 75.5 615.878601 114.75 L 615.87207 115.937378 L 615.87207 115.937378 L 615.853271 117.205872 L 615.853271 117.205872 L 615.823608 118.528503 C 615.817871 118.751953 615.811646 118.976563 615.805115 119.201721 L 615.784302 119.878479 L 615.733032 121.322083 L 615.733032 121.322083 L 615.676208 122.677979 L 615.676208 122.677979 L 615.613464 123.975037 L 615.613464 123.975037 L 615.546021 125.184082 L 615.546021 125.184082 L 615.475403 126.276184 L 615.475403 126.276184 L 615.427185 126.924866 L 615.427185 126.924866 L 615.378601 127.5 L 523.628601 127.5 C 526.378601 146 537.378601 159.5 559.628601 159.5 C 571.210876 159.5 578.619629 156.518921 588.299988 149.405823 L 589.259766 148.692749 C 589.421021 148.571716 589.582886 148.449524 589.745544 148.326172 L 590.729797 147.572754 L 590.729797 147.572754 L 591.732117 146.792053 L 591.732117 146.792053 L 592.753845 145.983826 C 592.925842 145.846802 593.098694 145.708679 593.2724 145.569336 L 594.325867 144.719421 L 594.325867 144.719421 L 595.4021 143.84137 L 595.4021 143.84137 L 597.062317 142.471069 L 597.062317 142.471069 L 597.628601 142 L 615.878601 162 C 597.128601 181 579.628601 187 558.878601 187 C 517.628601 187 491.878601 160.5 491.878601 119.75 C 491.878601 80.25 515.878601 51 556.128601 51 Z M 1075.75 2 C 1126 2 1157.5 41.25 1157.5 94.25 C 1157.5 147.25 1126 186.5 1075.75 186.5 C 1025.5 186.5 994.25 147.25 994.25 94.25 C 994.25 41.25 1025.5 2 1075.75 2 Z M 1540.130005 61 C 1572.130005 61 1591.630005 83 1591.630005 116.75 L 1591.618774 117.244141 L 1591.618774 117.244141 L 1591.587036 117.9375 L 1591.587036 117.9375 L 1591.53772 118.771484 L 1591.53772 118.771484 L 1591.473755 119.6875 L 1591.473755 119.6875 L 1591.398071 120.626953 L 1591.398071 120.626953 L 1591.313599 121.53125 L 1591.313599 121.53125 L 1591.253784 122.085632 C 1591.243774 122.173584 1591.233521 122.259094 1591.223267 122.341797 L 1591.161255 122.801147 L 1591.161255 122.801147 L 1591.130005 123 L 1498.380005 123 C 1498.630005 151 1511.630005 176 1542.630005 176 C 1552.047485 176 1560.094116 173.468994 1568.893066 167.03717 L 1569.733398 166.412781 C 1570.295166 165.988647 1570.860352 165.548523 1571.429321 165.092224 L 1572.285767 164.395447 C 1572.715454 164.040955 1573.147461 163.677246 1573.582031 163.304077 L 1574.454712 162.545288 C 1575.038818 162.030945 1575.627808 161.499817 1576.222046 160.951477 L 1577.117432 160.115967 C 1577.417358 159.83313 1577.718628 159.545959 1578.021362 159.254333 L 1578.934082 158.366394 L 1578.934082 158.366394 L 1579.855957 157.451843 L 1579.855957 157.451843 L 1580.787598 156.510437 C 1580.943726 156.351257 1581.10022 156.190979 1581.25708 156.029541 L 1582.203979 155.047302 L 1582.203979 155.047302 L 1583.161499 154.037537 L 1583.161499 154.037537 L 1584.130005 153 L 1592.130005 160 L 1591.613647 160.581116 L 1591.613647 160.581116 L 1590.588013 161.720093 C 1589.737061 162.656372 1588.895264 163.560669 1588.061279 164.433716 L 1587.064209 165.466492 C 1585.739624 166.82373 1584.433716 168.101868 1583.141113 169.304321 L 1582.17395 170.192017 C 1569.310059 181.840027 1557.630005 186 1541.630005 186 C 1507.130005 186 1485.880005 161 1485.880005 124.5 C 1485.880005 86.75 1507.630005 61 1540.130005 61 Z M 1725.089966 61 C 1752.067505 61 1764.833496 79.131836 1765.086182 99.38562 L 1765.089966 100 L 1765.089966 183 L 1753.089966 183 L 1753.089966 103.25 C 1753.089966 82.25 1743.089966 71 1724.589966 71 C 1705.285034 71 1691.860596 85.211426 1691.593994 106.114563 L 1691.589966 106.75 L 1691.589966 183 L 1679.589966 183 L 1679.589966 103.25 C 1679.589966 82.75 1669.839966 71 1651.089966 71 C 1633.765015 71 1618.890259 83.496277 1618.594482 106.063049 L 1618.589966 106.75 L 1618.589966 183 L 1606.589966 183 L 1606.589966 64 L 1617.839966 64 L 1617.839966 80.25 C 1625.339966 66.5 1637.339966 61 1652.339966 61 C 1670.339966 61 1682.589966 70.25 1687.589966 82.75 C 1695.339966 69.75 1706.839966 61 1725.089966 61 Z M 143 5.5 L 143 35.5 L 89.5 35.5 L 89.5 183 L 54.5 183 L 54.5 35.5 L 1 35.5 L 1 5.5 L 143 5.5 Z M 185.907135 5.5 L 185.907135 66.75 C 193.907135 57 206.157135 51 222.157135 51 C 251.60965 51 267.585754 69.131836 267.902344 94.72229 L 267.907166 95.5 L 267.907166 183 L 235.407135 183 L 235.407135 105.25 C 235.407135 88.5 227.157135 79 211.657135 79 C 196.807129 79 186.122559 89.781128 185.91037 105.521484 L 185.907135 106 L 185.907135 183 L 153.407135 183 L 153.407135 5.5 L 185.907135 5.5 Z M 1470.130005 63 C 1476.953491 63 1482.322021 64.273132 1486.856079 65.733521 L 1487.782471 66.037964 L 1487.782471 66.037964 L 1488.686157 66.345642 L 1488.686157 66.345642 L 1489.130005 66.5 L 1486.380005 76.25 C 1480.380005 74.25 1475.380005 73.25 1470.130005 73.25 C 1455.032471 73.25 1441.160156 87.216431 1440.884155 113.936401 L 1440.880005 114.75 L 1440.880005 183 L 1428.880005 183 L 1428.880005 64 L 1440.130005 64 L 1440.130005 84.25 C 1445.380005 71.25 1457.130005 63 1470.130005 63 Z M 348.06427 53.5 C 354.81427 53.5 360.63446 54.894775 367.542175 57.011841 L 368.31427 57.25 L 362.56427 85.75 C 355.81427 84 350.56427 83.25 346.31427 83.25 C 329.236816 83.25 318.529907 96.726379 318.317505 119.312805 L 318.31427 120 L 318.31427 183 L 285.81427 183 L 285.81427 55.25 L 316.06427 55.25 L 316.06427 74 C 322.06427 61.75 332.31427 53.5 348.06427 53.5 Z M 1360.170044 5.5 C 1393.170044 5.5 1416.920044 22.5 1416.920044 56.25 C 1416.920044 89.662476 1393.642578 106.658325 1361.157227 106.994873 L 1360.170044 107 L 1304.670044 107 L 1304.670044 183 L 1291.670044 183 L 1291.670044 5.5 L 1360.170044 5.5 Z M 768.535706 51 C 795.760742 51 810.734497 67.416687 811.03125 92.972778 L 811.035767 93.75 L 811.035767 183 L 778.535767 183 L 778.535767 103.5 C 778.535767 103.215027 778.533569 102.93158 778.529053 102.649841 L 778.509033 101.80957 L 778.509033 101.80957 L 778.475464 100.979553 C 778.455322 100.567139 778.429932 100.15863 778.399292 99.754272 L 778.331055 98.950989 C 777.213745 87.119019 771.413208 79 758.285706 79 C 743.683228 79 735.941406 89.781128 735.788025 104.06604 L 735.785706 104.5 L 735.785706 183 L 703.285706 183 L 703.285706 103.5 C 703.285706 102.929993 703.277344 102.366394 703.260254 101.80957 L 703.228027 100.979553 L 703.228027 100.979553 L 703.182617 100.159973 C 702.383301 87.675598 696.835693 79 683.035706 79 C 668.433228 79 660.691406 90.026123 660.538025 104.073425 L 660.535706 104.5 L 660.535706 183 L 628.035706 183 L 628.035706 55.25 L 658.285706 55.25 L 658.285706 69.5 C 665.035706 58.5 676.785706 51 694.785706 51 C 711.535706 51 723.535706 58 730.285706 69.75 C 731.274719 68.332397 732.34198 66.962646 733.492676 65.65271 L 734.074951 65.002808 C 741.637756 56.727783 752.670349 51 768.535706 51 Z M 1223.709961 61 C 1253.162476 61 1265.953247 80.847046 1266.206177 100.892517 L 1266.209961 101.5 L 1266.209961 183 L 1254.209961 183 L 1254.209961 106 C 1254.209961 82.75 1242.459961 71 1221.959961 71 C 1201.912476 71 1185.540405 87.661743 1185.214966 106.673218 L 1185.209961 107.25 L 1185.209961 183 L 1173.209961 183 L 1173.209961 64 L 1184.459961 64 L 1184.459961 83.25 C 1191.709961 69.25 1205.459961 61 1223.709961 61 Z M 992.099976 146.75 L 992.099976 183 L 956.599976 183 L 956.599976 146.75 L 992.099976 146.75 Z M 1075.75 12.75 C 1034.5 12.75 1007 47.5 1007 94.25 C 1007 141.75 1034.5 175.75 1075.75 175.75 C 1117 175.75 1144.75 141.75 1144.75 94.25 C 1144.75 47 1117 12.75 1075.75 12.75 Z M 909.442871 131 L 909.442871 123.5 L 886.795654 128.240662 L 886.795654 128.240662 L 885.664429 128.482849 L 885.664429 128.482849 L 884.549438 128.726929 L 884.549438 128.726929 L 882.907837 129.097229 L 882.907837 129.097229 L 881.834595 129.347473 L 881.834595 129.347473 L 880.778687 129.600708 L 880.778687 129.600708 L 879.740234 129.857361 L 879.740234 129.857361 L 878.719604 130.117737 L 878.719604 130.117737 L 877.2229 130.515991 C 877.058838 130.560791 876.89563 130.605774 876.733154 130.651001 L 875.767944 130.9245 L 875.767944 130.9245 L 874.821777 131.203125 C 874.665649 131.25 874.510376 131.297119 874.355957 131.344421 L 873.438843 131.631287 C 873.136475 131.727844 872.837402 131.825378 872.541626 131.924011 L 871.664429 132.222961 C 870.797485 132.525208 869.96106 132.83728 869.156616 133.160706 L 868.362915 133.487976 C 860.532837 136.799988 855.942871 141.299988 855.942871 148.5 C 855.942871 156.5 863.192871 161.25 875.442871 161.25 C 891.777832 161.25 909.093018 153.40918 909.437622 131.663208 L 909.442871 131 Z M 1540.130005 71 C 1518.844971 71 1502.215454 85.211426 1498.974121 112.664063 L 1498.880005 113.5 L 1579.880005 113.5 C 1579.130005 88.5 1564.380005 71 1540.130005 71 Z M 425.471436 76.5 C 408.393921 76.5 398.42218 87.526123 394.828369 103.756592 L 394.721436 104.25 L 454.471436 104.25 C 453.221436 87.25 443.221436 76.5 425.471436 76.5 Z M 555.128601 76.5 C 538.051086 76.5 528.079285 87.526123 524.485535 103.756592 L 524.378601 104.25 L 584.128601 104.25 C 582.878601 87.25 572.878601 76.5 555.128601 76.5 Z M 1359.670044 16.25 L 1304.420044 16.25 L 1304.420044 96.25 L 1359.670044 96.25 C 1386.920044 96.25 1404.170044 82.75 1404.170044 56.25 C 1404.170044 29.767456 1387.263306 16.516357 1360.484497 16.253967 L 1359.670044 16.25 Z"/>
    </g>
</svg>
