<svg width="718" height="808" viewBox="0 0 718 808" fill="none" xmlns="http://www.w3.org/2000/svg">
<path d="M193.248 806.688C222.347 806.688 245.936 783.099 245.936 754C245.936 724.901 222.347 701.311 193.248 701.311C164.149 701.311 140.56 724.901 140.56 754C140.56 783.099 164.149 806.688 193.248 806.688Z" fill="white"/>
<path d="M365.234 806.688C394.333 806.688 417.922 783.099 417.922 754C417.922 724.901 394.333 701.311 365.234 701.311C336.135 701.311 312.546 724.901 312.546 754C312.546 783.099 336.135 806.688 365.234 806.688Z" fill="white"/>
<path d="M537.396 806.688C566.495 806.688 590.085 783.099 590.085 754C590.085 724.901 566.495 701.311 537.396 701.311C508.297 701.311 484.708 724.901 484.708 754C484.708 783.099 508.297 806.688 537.396 806.688Z" fill="white"/>
<path d="M358.361 1.03212C531.228 1.03212 672.024 141.652 672.024 314.518C672.024 487.385 531.405 628.006 358.538 628.006C294.748 628.006 235.54 608.974 186.023 576.198L65.4922 614.79L104.612 498.311C67.0785 446.68 44.875 383.066 44.875 314.518C44.8752 141.652 185.495 1.0323 358.361 1.03212ZM358.186 148.524C308.493 148.524 267.964 189.054 267.964 238.746V280.862H265.144C249.461 280.862 236.774 293.549 236.773 309.232V423.067C236.773 438.75 249.461 451.438 265.144 451.438H451.051C466.734 451.438 479.422 438.75 479.422 423.067V309.232C479.422 293.549 466.734 280.862 451.051 280.862H448.408V238.746C448.408 189.054 407.878 148.524 358.186 148.524ZM358.362 185.529C387.614 185.529 411.579 209.495 411.579 238.746V280.862H305.145V238.746C305.145 209.318 329.111 185.529 358.362 185.529Z" fill="white"/>
</svg>
