<?xml version="1.0" encoding="UTF-8"?>
<!-- Generated by Pixelmator Pro 3.6.17 -->
<svg width="500" height="500" viewBox="0 0 500 500" xmlns="http://www.w3.org/2000/svg">
    <path id="Dots-copy-copy" fill="#ffffff" fill-rule="evenodd" stroke="none" d="M 289.585693 463.196594 C 289.585693 483.757782 272.948273 500.40625 252.381332 500.40625 C 231.849258 500.40625 215.211838 483.757782 215.211838 463.196594 C 215.211838 442.674652 231.849258 426 252.381332 426 C 272.948273 426 289.585693 442.674652 289.585693 463.196594 Z M 155.421097 463.196594 C 155.421097 483.757782 138.783676 500.40625 118.216751 500.40625 C 97.684654 500.40625 81.047256 483.757782 81.047256 463.196594 C 81.047256 442.674652 97.684654 426 118.216751 426 C 138.783676 426 155.421097 442.674652 155.421097 463.196594 Z M 423.750244 463.196594 C 423.750244 483.757782 407.112854 500.40625 386.545898 500.40625 C 366.013824 500.40625 349.376434 483.757782 349.376434 463.196594 C 349.376434 442.674652 366.013824 426 386.545898 426 C 407.112854 426 423.750244 442.674652 423.750244 463.196594 Z"/>
    <path id="Shape-copy-copy" fill="#ffffff" fill-rule="evenodd" stroke="none" d="M 50.433144 386.445313 L 158.20845 359.501495 C 186.676712 371.733826 218.668915 378.598694 252.483231 378.598694 C 371.295013 378.598694 467.610992 293.846466 467.610992 189.299347 C 467.610992 84.752167 371.295013 0 252.483231 0 C 133.671448 0 37.355469 84.752167 37.355469 189.299347 C 37.355469 228.148376 50.654922 264.264038 73.46611 294.313477 L 50.433144 386.445313 Z M 186.702682 292.618896 C 189.074326 293.503113 192.977753 293.894592 197.099579 293.661621 C 201.972488 293.386169 205.072403 292.541138 208.947922 290.431824 C 211.834747 288.860626 216.174973 285.374756 218.59288 282.685486 C 221.010788 279.996185 225.171204 274.129272 227.838272 269.647919 C 230.505341 265.166565 234.384186 258.350006 236.457947 254.5 C 238.531708 250.649994 241.347366 245.753616 242.714981 243.619171 C 243.546967 242.320679 244.100571 241.456635 244.837418 241.251831 C 246.302826 240.844482 248.492981 243.044342 255.038788 249.619156 C 260.44928 255.053619 266.320465 260.512512 268.085907 261.75 C 270.152527 263.198639 272.756805 263.998657 275.397888 263.996277 C 277.675507 263.994202 280.83432 263.156616 282.5 262.113098 C 284.149994 261.079407 287.512726 258.149414 289.972748 255.60202 C 292.432739 253.054626 295.004303 249.964554 295.687317 248.735184 C 296.3703 247.505829 296.94339 244.699997 296.960815 242.5 C 296.978699 240.246094 296.165283 237.19043 295.097473 235.5 C 294.055206 233.850006 277.888397 217.200012 259.171234 198.5 C 240.454056 179.799988 223.691971 163.487488 221.922134 162.25 C 219.849319 160.800659 217.244492 160.00235 214.602112 160.006592 C 212.315887 160.010254 209.272278 160.822723 207.726563 161.841949 C 206.201172 162.847778 203.555725 164.9823 201.847794 166.585358 C 200.139862 168.188416 197.450409 171.255005 195.871231 173.400024 C 193.783859 176.235352 193 178.447266 193 181.502167 C 193 184.242126 193.782883 186.821106 195.25 188.914093 C 196.487503 190.679535 202 196.609253 207.5 202.091278 C 215.609283 210.174042 217.216385 212.2453 216 213.046204 C 215.175003 213.589417 209.100006 217.006561 202.5 220.639832 C 195.899994 224.273132 186.761932 229.71109 182.193176 232.724213 C 177.478485 235.833588 172.18956 240.349213 169.962509 243.166626 C 167.804398 245.896851 165.35498 250.432938 164.519333 253.246826 C 163.683701 256.06073 163 260.064453 163 262.143982 C 163 264.223511 163.915009 268.370544 165.03334 271.359589 C 166.151688 274.348633 168.929825 278.910828 171.207001 281.497803 C 173.484161 284.084839 177.047867 287.326843 179.126328 288.702301 C 181.204788 290.077759 184.614151 291.84021 186.702682 292.618896 Z M 203.07692 269.076904 C 200.784424 271.369415 199.257767 272 196 272 C 192.742233 272 191.215576 271.369415 188.92308 269.076904 C 186.630585 266.784424 186 265.257751 186 262 C 186 258.742249 186.630585 257.215576 188.92308 254.92308 C 191.215576 252.630585 192.742233 252 196 252 C 199.257767 252 200.784424 252.630585 203.07692 254.92308 C 205.369415 257.215576 206 258.742249 206 262 C 206 265.257751 205.369415 266.784424 203.07692 269.076904 Z M 237.530823 118.295319 C 235.560211 125.332733 232.130753 135.651703 225.87175 151.362091 L 264.18222 189.682281 C 285.252991 210.758362 302.827423 227.889374 303.236572 227.751221 C 303.645691 227.613037 311.231781 220.299988 320.094543 211.5 C 328.957306 202.700012 337.489716 193.77536 339.05545 191.66745 C 340.655396 189.513489 342.198883 185.856598 342.579559 183.317932 C 342.972626 180.696899 342.771301 177.180023 342.099915 174.939178 C 341.463562 172.815216 338.78717 168.732941 336.152374 165.867493 L 331.361816 160.657562 L 324.572296 166.257904 C 320.838043 169.338074 314.11911 173.710541 309.641357 175.974457 C 304.285492 178.682373 299.973022 180.160706 297.037018 180.295349 C 293.745178 180.446289 292.491577 180.103485 292.259735 178.989014 C 292.086853 178.157959 294.243713 174.782959 297.052734 171.489014 C 299.861755 168.195038 303.502747 162.868439 305.143829 159.6521 C 306.784943 156.43576 308.837555 150.927429 309.705231 147.411346 C 310.061981 145.965698 310.338043 144.846954 310.311798 143.735352 C 310.221954 139.931366 306.591644 136.210999 290.538086 119.759247 C 279.12851 108.066681 267.702362 96.992188 265.146698 95.149292 C 261.076202 92.214081 259.916229 91.85437 255.79216 92.248444 C 252.816833 92.532776 249.853088 93.637421 247.738678 95.250153 C 245.898575 96.653687 243.655197 99.534058 242.753403 101.651001 C 241.851608 103.767944 239.50145 111.257874 237.530823 118.295319 Z"/>
</svg>
