<svg fill="none" viewBox="0 0 32 32" xmlns="http://www.w3.org/2000/svg"><g filter="url(#s)"><path d="m24.306 21.273c0-2.7656 1.4531-3.5 2.2656-3.6562h-13.531l-6.2928 11.424c-0.36712 0.6665 0.11501 1.4825 0.8759 1.4825h14.682c1.1046 0 2-0.8945 2-1.9991v-7.2509z" fill="url(#q)"/><path d="m24.306 21.273c0-2.7656 1.4531-3.5 2.2656-3.6562h-13.531l-6.2928 11.424c-0.36712 0.6665 0.11501 1.4825 0.8759 1.4825h14.682c1.1046 0 2-0.8945 2-1.9991v-7.2509z" fill="url(#i)"/><path d="m24.306 21.273c0-2.7656 1.4531-3.5 2.2656-3.6562h-13.531l-6.2928 11.424c-0.36712 0.6665 0.11501 1.4825 0.8759 1.4825h14.682c1.1046 0 2-0.8945 2-1.9991v-7.2509z" fill="url(#h)"/><path d="m24.306 21.273c0-2.7656 1.4531-3.5 2.2656-3.6562h-13.531l-6.2928 11.424c-0.36712 0.6665 0.11501 1.4825 0.8759 1.4825h14.682c1.1046 0 2-0.8945 2-1.9991v-7.2509z" fill="url(#g)"/></g><path d="m3.2176 16.805c0.51233 5.0075 4.7428 8.9141 9.8854 8.9141 5.1427 0 9.3732-3.9066 9.8855-8.9141h-19.771z" fill="#BBA8D2"/><path d="m3.2176 16.805c0.51233 5.0075 4.7428 8.9141 9.8854 8.9141 5.1427 0 9.3732-3.9066 9.8855-8.9141h-19.771z" fill="url(#f)"/><path d="m3.2176 16.805c0.51233 5.0075 4.7428 8.9141 9.8854 8.9141 5.1427 0 9.3732-3.9066 9.8855-8.9141h-19.771z" fill="url(#e)"/><path d="m3.2176 16.805c0.51233 5.0075 4.7428 8.9141 9.8854 8.9141 5.1427 0 9.3732-3.9066 9.8855-8.9141h-19.771z" fill="url(#d)"/><path d="m3.2176 16.805c0.51233 5.0075 4.7428 8.9141 9.8854 8.9141 5.1427 0 9.3732-3.9066 9.8855-8.9141h-19.771z" fill="url(#c)"/><path d="m3.2176 16.805c0.51233 5.0075 4.7428 8.9141 9.8854 8.9141 5.1427 0 9.3732-3.9066 9.8855-8.9141h-19.771z" fill="url(#b)"/><path d="m2.9469 15.758c0-0.5523 0.44771-1 1-1h19.609v2.4844h-20.259c-0.1933 0-0.35-0.1567-0.35-0.35v-1.1344z" fill="#BEB0CD"/><path d="m2.9469 15.758c0-0.5523 0.44771-1 1-1h19.609v2.4844h-20.259c-0.1933 0-0.35-0.1567-0.35-0.35v-1.1344z" fill="url(#a)"/><path d="m2.9469 15.758c0-0.5523 0.44771-1 1-1h19.609v2.4844h-20.259c-0.1933 0-0.35-0.1567-0.35-0.35v-1.1344z" fill="url(#p)"/><path d="m2.9469 15.758c0-0.5523 0.44771-1 1-1h19.609v2.4844h-20.259c-0.1933 0-0.35-0.1567-0.35-0.35v-1.1344z" fill="url(#o)"/><path d="m2.9469 15.758c0-0.5523 0.44771-1 1-1h19.609v2.4844h-20.259c-0.1933 0-0.35-0.1567-0.35-0.35v-1.1344z" fill="url(#n)"/><path d="m19.978 3.0016c0-0.35898 0.2911-0.65 0.65-0.65h7.1375c0.359 0 0.65 0.29102 0.65 0.65v12.241c0 1.3807-1.1192 2.5-2.5 2.5h-3.4375c-1.3807 0-2.5-1.1193-2.5-2.5v-12.241z" fill="url(#m)"/><path d="m19.978 3.0016c0-0.35898 0.2911-0.65 0.65-0.65h7.1375c0.359 0 0.65 0.29102 0.65 0.65v12.241c0 1.3807-1.1192 2.5-2.5 2.5h-3.4375c-1.3807 0-2.5-1.1193-2.5-2.5v-12.241z" fill="url(#l)"/><path d="m19.978 3.0016c0-0.35898 0.2911-0.65 0.65-0.65h7.1375c0.359 0 0.65 0.29102 0.65 0.65v12.241c0 1.3807-1.1192 2.5-2.5 2.5h-3.4375c-1.3807 0-2.5-1.1193-2.5-2.5v-12.241z" fill="url(#k)"/><g filter="url(#r)"><path d="m19.978 3.0016c0-0.35898 0.2911-0.65 0.65-0.65h7.1375c0.359 0 0.65 0.29102 0.65 0.65v12.241c0 1.3807-1.1192 2.5-2.5 2.5h-3.4375c-1.3807 0-2.5-1.1193-2.5-2.5v-12.241z" fill="url(#j)"/></g><defs><filter id="s" x="6.6223" y="17.217" width="20.15" height="13.306" color-interpolation-filters="sRGB" filterUnits="userSpaceOnUse"><feFlood flood-opacity="0" result="BackgroundImageFix"/><feBlend in="SourceGraphic" in2="BackgroundImageFix" result="shape"/><feColorMatrix in="SourceAlpha" result="hardAlpha" values="0 0 0 0 0 0 0 0 0 0 0 0 0 0 0 0 0 0 127 0"/><feOffset dx="0.2" dy="-0.4"/><feGaussianBlur stdDeviation="0.25"/><feComposite in2="hardAlpha" k2="-1" k3="1" operator="arithmetic"/><feColorMatrix values="0 0 0 0 0.752941 0 0 0 0 0.662745 0 0 0 0 0.854902 0 0 0 1 0"/><feBlend in2="shape" result="effect1_innerShadow_18_25789"/></filter><filter id="r" x="18.978" y="1.6016" width="10.938" height="16.141" color-interpolation-filters="sRGB" filterUnits="userSpaceOnUse"><feFlood flood-opacity="0" result="BackgroundImageFix"/><feBlend in="SourceGraphic" in2="BackgroundImageFix" result="shape"/><feColorMatrix in="SourceAlpha" result="hardAlpha" values="0 0 0 0 0 0 0 0 0 0 0 0 0 0 0 0 0 0 127 0"/><feOffset dx="1.5"/><feGaussianBlur stdDeviation="0.75"/><feComposite in2="hardAlpha" k2="-1" k3="1" operator="arithmetic"/><feColorMatrix values="0 0 0 0 0.752941 0 0 0 0 0.721569 0 0 0 0 0.8 0 0 0 1 0"/><feBlend in2="shape" result="effect1_innerShadow_18_25789"/><feColorMatrix in="SourceAlpha" result="hardAlpha" values="0 0 0 0 0 0 0 0 0 0 0 0 0 0 0 0 0 0 127 0"/><feOffset dy="-0.75"/><feGaussianBlur stdDeviation="0.75"/><feComposite in2="hardAlpha" k2="-1" k3="1" operator="arithmetic"/><feColorMatrix values="0 0 0 0 0.721569 0 0 0 0 0.615686 0 0 0 0 0.835294 0 0 0 1 0"/><feBlend in2="effect1_innerShadow_18_25789" result="effect2_innerShadow_18_25789"/><feColorMatrix in="SourceAlpha" result="hardAlpha" values="0 0 0 0 0 0 0 0 0 0 0 0 0 0 0 0 0 0 127 0"/><feOffset dx="-1"/><feGaussianBlur stdDeviation="0.5"/><feComposite in2="hardAlpha" k2="-1" k3="1" operator="arithmetic"/><feColorMatrix values="0 0 0 0 0.917647 0 0 0 0 0.882353 0 0 0 0 0.964706 0 0 0 1 0"/><feBlend in2="effect2_innerShadow_18_25789" result="effect3_innerShadow_18_25789"/></filter><radialGradient id="q" cx="0" cy="0" r="1" gradientTransform="translate(24.634 24.07) rotate(180) scale(11.374 17.581)" gradientUnits="userSpaceOnUse"><stop stop-color="#DECFF0" offset="0"/><stop stop-color="#CDBAE4" offset="1"/></radialGradient><linearGradient id="i" x1="24.906" x2="22.318" y1="16.745" y2="25.19" gradientUnits="userSpaceOnUse"><stop stop-color="#BAA6D0" offset="0"/><stop stop-color="#BAA6D0" stop-opacity="0" offset="1"/></linearGradient><radialGradient id="h" cx="0" cy="0" r="1" gradientTransform="translate(10.263 22.329) rotate(73.413) scale(6.68 10.325)" gradientUnits="userSpaceOnUse"><stop stop-color="#BAA2D5" offset=".20353"/><stop stop-color="#BAA2D5" stop-opacity="0" offset="1"/></radialGradient><radialGradient id="g" cx="0" cy="0" r="1" gradientTransform="translate(24.513 24.759) rotate(90) scale(5.7643 .82347)" gradientUnits="userSpaceOnUse"><stop stop-color="#EBE0F8" offset="0"/><stop stop-color="#EBE0F8" stop-opacity="0" offset="1"/></radialGradient><radialGradient id="f" cx="0" cy="0" r="1" gradientTransform="translate(16.166 17.898) rotate(111.19) scale(6.5693 6.567)" gradientUnits="userSpaceOnUse"><stop stop-color="#CCBAE0" offset="0"/><stop stop-color="#CCBAE0" stop-opacity="0" offset="1"/></radialGradient><radialGradient id="e" cx="0" cy="0" r="1" gradientTransform="translate(12.478 25.719) rotate(-90) scale(5.9453 9.1875)" gradientUnits="userSpaceOnUse"><stop stop-color="#B492D6" offset=".1211"/><stop stop-color="#B494D5" stop-opacity="0" offset="1"/></radialGradient><radialGradient id="d" cx="0" cy="0" r="1" gradientTransform="translate(22.478 15.273) rotate(90) scale(6.8125 10.9)" gradientUnits="userSpaceOnUse"><stop stop-color="#9F8CB4" offset=".38824"/><stop stop-color="#CAB8DF" stop-opacity="0" offset="1"/></radialGradient><radialGradient id="c" cx="0" cy="0" r="1" gradientTransform="translate(4.9782 15.398) rotate(90) scale(3.4375 7.6242)" gradientUnits="userSpaceOnUse"><stop stop-color="#A79BB6" offset="0"/><stop stop-color="#A79BB6" stop-opacity="0" offset="1"/></radialGradient><radialGradient id="b" cx="0" cy="0" r="1" gradientTransform="translate(15.791 17.898) rotate(163.65) scale(13.103 16.134)" gradientUnits="userSpaceOnUse"><stop stop-color="#D0CBD8" stop-opacity="0" offset=".71386"/><stop stop-color="#D0CBD8" offset="1"/></radialGradient><radialGradient id="a" cx="0" cy="0" r="1" gradientTransform="translate(17.166 17.242) rotate(-90) scale(3.5938 11.044)" gradientUnits="userSpaceOnUse"><stop stop-color="#D0C4DE" offset=".20479"/><stop stop-color="#D0C4DE" stop-opacity="0" offset="1"/></radialGradient><radialGradient id="p" cx="0" cy="0" r="1" gradientTransform="translate(3.3532 15.273) scale(1.375 3.1565)" gradientUnits="userSpaceOnUse"><stop stop-color="#D0C4DE" offset="0"/><stop stop-color="#D0C4DE" stop-opacity="0" offset="1"/></radialGradient><linearGradient id="o" x1="15.303" x2="15.303" y1="17.242" y2="16.779" gradientUnits="userSpaceOnUse"><stop stop-color="#B5ADC0" offset="0"/><stop stop-color="#B5ADC0" stop-opacity="0" offset="1"/></linearGradient><radialGradient id="n" cx="0" cy="0" r="1" gradientTransform="translate(19.866 14.361) rotate(131.1) scale(4.2478 16.158)" gradientUnits="userSpaceOnUse"><stop stop-color="#A89EB5" offset=".18123"/><stop stop-color="#A89EB5" stop-opacity="0" offset="1"/></radialGradient><linearGradient id="m" x1="24.197" x2="24.197" y1="2.1172" y2="3.5234" gradientUnits="userSpaceOnUse"><stop stop-color="#D7D5DB" offset="0"/><stop stop-color="#D7D5DB" stop-opacity="0" offset="1"/></linearGradient><radialGradient id="l" cx="0" cy="0" r="1" gradientTransform="translate(28.416 2.6172) rotate(146.98) scale(1.4909 .44608)" gradientUnits="userSpaceOnUse"><stop stop-color="#F2EFF7" offset="0"/><stop stop-color="#EBE2F7" stop-opacity="0" offset="1"/></radialGradient><linearGradient id="k" x1="26.197" x2="26.197" y1="18.023" y2="16.68" gradientUnits="userSpaceOnUse"><stop stop-color="#B99FD5" offset="0"/><stop stop-color="#B99FD5" stop-opacity="0" offset="1"/></linearGradient><linearGradient id="j" x1="24.197" x2="24.197" y1="2.3516" y2="17.742" gradientUnits="userSpaceOnUse"><stop stop-color="#D8CFE5" offset="0"/><stop stop-color="#D2C4E4" offset="1"/></linearGradient></defs></svg>
