<svg fill="none" viewBox="0 0 32 32" xmlns="http://www.w3.org/2000/svg"><path d="m20.742 18.941-1.7971-1.2482-0.5097 0.7338 1.797 1.2482 0.5098-0.7338z" fill="url(#ad)"/><path d="m21.559 13.082-5.4087-3.7567c-0.3302-0.22938-0.4109-0.67708-0.1815-1.0073l0.6983-1.0054c0.2294-0.33024 0.6771-0.41093 1.0073-0.18154l5.4087 3.7568c0.3302 0.2293 0.4109 0.677 0.1815 1.0073l-0.6983 1.0054c-0.222 0.3353-0.6771 0.4109-1.0073 0.1815z" fill="url(#s)"/><path d="m21.559 13.082-5.4087-3.7567c-0.3302-0.22938-0.4109-0.67708-0.1815-1.0073l0.6983-1.0054c0.2294-0.33024 0.6771-0.41093 1.0073-0.18154l5.4087 3.7568c0.3302 0.2293 0.4109 0.677 0.1815 1.0073l-0.6983 1.0054c-0.222 0.3353-0.6771 0.4109-1.0073 0.1815z" fill="url(#h)"/><g filter="url(#af)"><path d="m20.408 28.5-3.7061-2.5742c-0.3963-0.2752-0.4949-0.8224-0.2196-1.2187l7.6664-11.038c0.2752-0.3963 0.8224-0.4949 1.2187-0.2196l3.706 2.5741c0.3963 0.2753 0.495 0.8225 0.2197 1.2188l-7.6715 11.045c-0.2752 0.3962-0.8173 0.4875-1.2136 0.2123z" fill="url(#g)"/></g><path d="m20.408 28.5-3.7061-2.5742c-0.3963-0.2752-0.4949-0.8224-0.2196-1.2187l7.6664-11.038c0.2752-0.3963 0.8224-0.4949 1.2187-0.2196l3.706 2.5741c0.3963 0.2753 0.495 0.8225 0.2197 1.2188l-7.6715 11.045c-0.2752 0.3962-0.8173 0.4875-1.2136 0.2123z" fill="url(#f)"/><path d="m20.408 28.5-3.7061-2.5742c-0.3963-0.2752-0.4949-0.8224-0.2196-1.2187l7.6664-11.038c0.2752-0.3963 0.8224-0.4949 1.2187-0.2196l3.706 2.5741c0.3963 0.2753 0.495 0.8225 0.2197 1.2188l-7.6715 11.045c-0.2752 0.3962-0.8173 0.4875-1.2136 0.2123z" fill="url(#e)"/><path d="m13.606 19.435-0.7338-0.5097-1.5292 2.2016 0.7338 0.5097 1.5292-2.2016z" fill="url(#d)"/><path d="m21.508 12.945-5.2839-3.67-1.3188 1.8986 5.2839 3.6701 1.3188-1.8987z" fill="url(#c)"/><path d="m21.508 12.945-5.2839-3.67-1.3188 1.8986 5.2839 3.6701 1.3188-1.8987z" fill="url(#b)"/><path d="m21.508 12.945-5.2839-3.67-1.3188 1.8986 5.2839 3.6701 1.3188-1.8987z" fill="url(#a)"/><path d="m10.057 24.575-0.74124-0.5149-1.5292 2.2017 0.74121 0.5148 1.5292-2.2016z" fill="url(#ac)"/><path d="m7.1417 27.989c0.60796 0.4223 1.4431 0.2718 1.8654-0.3362 0.42228-0.6079 0.27175-1.4431-0.33621-1.8654-0.60796-0.4222-1.4431-0.2717-1.8654 0.3362-0.42228 0.608-0.27175 1.4432 0.33621 1.8654z" fill="url(#ab)"/><path d="m7.1417 27.989c0.60796 0.4223 1.4431 0.2718 1.8654-0.3362 0.42228-0.6079 0.27175-1.4431-0.33621-1.8654-0.60796-0.4222-1.4431-0.2717-1.8654 0.3362-0.42228 0.608-0.27175 1.4432 0.33621 1.8654z" fill="url(#aa)"/><path d="m12.376 26.186-5.3793-3.7363c-0.57242-0.3976-0.59599-1.2408-0.05-1.6667 1.5044-1.1635 3.6408-1.2789 5.2847-0.1371 1.6438 1.1418 2.2815 3.184 1.7165 5-0.2062 0.6727-0.9995 0.9377-1.5719 0.5401z" fill="url(#z)"/><path d="m12.376 26.186-5.3793-3.7363c-0.57242-0.3976-0.59599-1.2408-0.05-1.6667 1.5044-1.1635 3.6408-1.2789 5.2847-0.1371 1.6438 1.1418 2.2815 3.184 1.7165 5-0.2062 0.6727-0.9995 0.9377-1.5719 0.5401z" fill="url(#y)"/><path d="m12.376 26.186-5.3793-3.7363c-0.57242-0.3976-0.59599-1.2408-0.05-1.6667 1.5044-1.1635 3.6408-1.2789 5.2847-0.1371 1.6438 1.1418 2.2815 3.184 1.7165 5-0.2062 0.6727-0.9995 0.9377-1.5719 0.5401z" fill="url(#x)"/><path d="m12.376 26.186-5.3793-3.7363c-0.57242-0.3976-0.59599-1.2408-0.05-1.6667 1.5044-1.1635 3.6408-1.2789 5.2847-0.1371 1.6438 1.1418 2.2815 3.184 1.7165 5-0.2062 0.6727-0.9995 0.9377-1.5719 0.5401z" fill="url(#w)"/><path d="m27.1 16.83-1.7909-1.244c-0.1134-0.0788-0.2692-0.0507-0.348 0.0627l-1.2439 1.791c-0.0788 0.1134-0.0507 0.2692 0.0627 0.3479l1.7909 1.244c0.1134 0.0788 0.2692 0.0507 0.348-0.0627l1.244-1.791c0.0787-0.1134 0.0506-0.2692-0.0628-0.3479z" fill="url(#v)"/><path d="m24.551 20.499-1.791-1.244c-0.1134-0.0787-0.2692-0.0506-0.3479 0.0628l-1.244 1.7909c-0.0788 0.1134-0.0507 0.2692 0.0627 0.348l1.791 1.2439c0.1134 0.0788 0.2691 0.0507 0.3479-0.0627l1.244-1.7909c0.0787-0.1134 0.0507-0.2692-0.0627-0.348z" fill="url(#u)"/><path d="m22.002 24.168-1.7909-1.244c-0.1134-0.0788-0.2692-0.0507-0.348 0.0627l-1.244 1.791c-0.0787 0.1134-0.0506 0.2692 0.0628 0.3479l1.7909 1.244c0.1134 0.0788 0.2692 0.0507 0.348-0.0627l1.2439-1.791c0.0788-0.1134 0.0507-0.2692-0.0627-0.3479z" fill="url(#t)"/><path d="m11.03 12.195 1.4677 1.0195-0.5097 0.7339-1.4678-1.0195 0.5098-0.7339z" fill="url(#r)"/><g filter="url(#ae)"><path d="m10.682 3.2504 3.706 2.5742c0.3963 0.27525 0.495 0.82244 0.2197 1.2187l-7.6715 11.045c-0.27526 0.3963-0.82244 0.4949-1.2187 0.2196l-3.7061-2.5741c-0.39629-0.2753-0.49491-0.8225-0.21966-1.2187l7.6715-11.045c0.28259-0.3912 0.82246-0.49491 1.2188-0.21966z" fill="url(#q)"/></g><path d="m10.682 3.2504 3.706 2.5742c0.3963 0.27525 0.495 0.82244 0.2197 1.2187l-7.6715 11.045c-0.27526 0.3963-0.82244 0.4949-1.2187 0.2196l-3.7061-2.5741c-0.39629-0.2753-0.49491-0.8225-0.21966-1.2187l7.6715-11.045c0.28259-0.3912 0.82246-0.49491 1.2188-0.21966z" fill="url(#p)"/><path d="m5.1787 12.788c0.07877-0.1134 0.23455-0.1415 0.34795-0.0627l1.791 1.2439c0.1134 0.0788 0.14148 0.2346 0.06271 0.348l-1.244 1.7909c-0.07877 0.1134-0.23455 0.1415-0.34795 0.0628l-1.791-1.244c-0.1134-0.0788-0.14148-0.2346-0.06271-0.348l1.244-1.7909z" fill="url(#o)"/><path d="m7.7274 9.1182c0.07876-0.1134 0.23455-0.14148 0.34795-0.06271l1.791 1.2439c0.1134 0.0788 0.14145 0.2346 0.06271 0.348l-1.244 1.7909c-0.07876 0.1134-0.23454 0.1415-0.34794 0.0627l-1.791-1.2439c-0.1134-0.0788-0.14147-0.2346-0.06271-0.348l1.244-1.7909z" fill="url(#n)"/><path d="m10.276 5.4484c0.0788-0.1134 0.2346-0.14148 0.348-0.06271l1.7909 1.244c0.1134 0.07876 0.1415 0.23454 0.0627 0.34794l-1.2439 1.791c-0.0788 0.1134-0.2346 0.14147-0.348 0.06271l-1.7909-1.244c-0.1134-0.07876-0.14148-0.23455-0.06271-0.34795l1.2439-1.791z" fill="url(#m)"/><path d="m15.959 21.059-5.4087-3.7568c-0.3302-0.2294-0.4109-0.6771-0.1815-1.0073l3.7567-5.4087c0.2294-0.3302 0.6771-0.4109 1.0073-0.1815l5.4087 3.7567c0.3302 0.2294 0.4109 0.6771 0.1815 1.0074l-3.7567 5.4086c-0.2221 0.3353-0.6771 0.4109-1.0073 0.1816z" fill="url(#l)"/><path d="m15.959 21.059-5.4087-3.7568c-0.3302-0.2294-0.4109-0.6771-0.1815-1.0073l3.7567-5.4087c0.2294-0.3302 0.6771-0.4109 1.0073-0.1815l5.4087 3.7567c0.3302 0.2294 0.4109 0.6771 0.1815 1.0074l-3.7567 5.4086c-0.2221 0.3353-0.6771 0.4109-1.0073 0.1816z" fill="url(#k)"/><path d="m15.959 21.059-5.4087-3.7568c-0.3302-0.2294-0.4109-0.6771-0.1815-1.0073l3.7567-5.4087c0.2294-0.3302 0.6771-0.4109 1.0073-0.1815l5.4087 3.7567c0.3302 0.2294 0.4109 0.6771 0.1815 1.0074l-3.7567 5.4086c-0.2221 0.3353-0.6771 0.4109-1.0073 0.1816z" fill="url(#j)"/><path d="m15.959 21.059-5.4087-3.7568c-0.3302-0.2294-0.4109-0.6771-0.1815-1.0073l3.7567-5.4087c0.2294-0.3302 0.6771-0.4109 1.0073-0.1815l5.4087 3.7567c0.3302 0.2294 0.4109 0.6771 0.1815 1.0074l-3.7567 5.4086c-0.2221 0.3353-0.6771 0.4109-1.0073 0.1816z" fill="url(#i)"/><defs><filter id="af" x="16.026" y="12.794" width="13.723" height="16.364" color-interpolation-filters="sRGB" filterUnits="userSpaceOnUse"><feFlood flood-opacity="0" result="BackgroundImageFix"/><feBlend in="SourceGraphic" in2="BackgroundImageFix" result="shape"/><feColorMatrix in="SourceAlpha" result="hardAlpha" values="0 0 0 0 0 0 0 0 0 0 0 0 0 0 0 0 0 0 127 0"/><feOffset dx="-0.3" dy="0.5"/><feGaussianBlur stdDeviation="0.375"/><feComposite in2="hardAlpha" k2="-1" k3="1" operator="arithmetic"/><feColorMatrix values="0 0 0 0 0.447059 0 0 0 0 0.384314 0 0 0 0 0.505882 0 0 0 1 0"/><feBlend in2="shape" result="effect1_innerShadow_18_12983"/><feColorMatrix in="SourceAlpha" result="hardAlpha" values="0 0 0 0 0 0 0 0 0 0 0 0 0 0 0 0 0 0 127 0"/><feOffset dx="0.3" dy="-0.5"/><feGaussianBlur stdDeviation="0.375"/><feComposite in2="hardAlpha" k2="-1" k3="1" operator="arithmetic"/><feColorMatrix values="0 0 0 0 0.235294 0 0 0 0 0.176471 0 0 0 0 0.290196 0 0 0 1 0"/><feBlend in2="effect1_innerShadow_18_12983" result="effect2_innerShadow_18_12983"/></filter><filter id="ae" x="1.336" y="2.5957" width="13.728" height="16.368" color-interpolation-filters="sRGB" filterUnits="userSpaceOnUse"><feFlood flood-opacity="0" result="BackgroundImageFix"/><feBlend in="SourceGraphic" in2="BackgroundImageFix" result="shape"/><feColorMatrix in="SourceAlpha" result="hardAlpha" values="0 0 0 0 0 0 0 0 0 0 0 0 0 0 0 0 0 0 127 0"/><feOffset dx="-0.3" dy="0.5"/><feGaussianBlur stdDeviation="0.375"/><feComposite in2="hardAlpha" k2="-1" k3="1" operator="arithmetic"/><feColorMatrix values="0 0 0 0 0.352941 0 0 0 0 0.352941 0 0 0 0 0.352941 0 0 0 1 0"/><feBlend in2="shape" result="effect1_innerShadow_18_12983"/><feColorMatrix in="SourceAlpha" result="hardAlpha" values="0 0 0 0 0 0 0 0 0 0 0 0 0 0 0 0 0 0 127 0"/><feOffset dx="0.3" dy="-0.5"/><feGaussianBlur stdDeviation="0.375"/><feComposite in2="hardAlpha" k2="-1" k3="1" operator="arithmetic"/><feColorMatrix values="0 0 0 0 0.294118 0 0 0 0 0.211765 0 0 0 0 0.380392 0 0 0 1 0"/><feBlend in2="effect1_innerShadow_18_12983" result="effect2_innerShadow_18_12983"/></filter><linearGradient id="ad" x1="19.448" x2="19.837" y1="18.872" y2="18.317" gradientUnits="userSpaceOnUse"><stop stop-color="#281E30" offset="0"/><stop stop-color="#515152" offset="1"/></linearGradient><linearGradient id="s" x1="20.378" x2="18.843" y1="9.0099" y2="11.218" gradientUnits="userSpaceOnUse"><stop stop-color="#C0C0C1" offset="0"/><stop stop-color="#92899B" offset=".20323"/><stop stop-color="#92899B" offset=".7839"/><stop stop-color="#6E5286" offset="1"/></linearGradient><linearGradient id="h" x1="16.109" x2="20.14" y1="7.8902" y2="11.046" gradientUnits="userSpaceOnUse"><stop stop-color="#838284" offset="0"/><stop stop-color="#838284" stop-opacity="0" offset="1"/></linearGradient><linearGradient id="g" x1="18.56" x2="27.22" y1="27.211" y2="14.742" gradientUnits="userSpaceOnUse"><stop stop-color="#312D37" offset="0"/><stop stop-color="#473855" offset="1"/></linearGradient><linearGradient id="f" x1="26.553" x2="25.834" y1="21.46" y2="20.976" gradientUnits="userSpaceOnUse"><stop stop-color="#252229" offset="0"/><stop stop-color="#252229" stop-opacity="0" offset="1"/></linearGradient><linearGradient id="e" x1="20.806" x2="21.677" y1="18.325" y2="18.828" gradientUnits="userSpaceOnUse"><stop stop-color="#252229" offset="0"/><stop stop-color="#252229" stop-opacity="0" offset="1"/></linearGradient><linearGradient id="d" x1="11.705" x2="13.234" y1="21.382" y2="19.181" gradientUnits="userSpaceOnUse"><stop stop-color="#28202F" offset="0"/><stop stop-color="#21122F" offset="1"/></linearGradient><linearGradient id="c" x1="18.585" x2="21.116" y1="13.388" y2="11.388" gradientUnits="userSpaceOnUse"><stop stop-color="#939195" offset="0"/><stop stop-color="#7A6D87" offset="1"/></linearGradient><linearGradient id="b" x1="14.905" x2="17.46" y1="10.075" y2="11.825" gradientUnits="userSpaceOnUse"><stop stop-color="#70667A" offset="0"/><stop stop-color="#949494" stop-opacity="0" offset="1"/></linearGradient><linearGradient id="a" x1="21.101" x2="20.726" y1="12.481" y2="12.919" gradientUnits="userSpaceOnUse"><stop stop-color="#58406E" offset="0"/><stop stop-color="#58406E" stop-opacity="0" offset="1"/></linearGradient><linearGradient id="ac" x1="8.1532" x2="9.6824" y1="26.52" y2="24.318" gradientUnits="userSpaceOnUse"><stop stop-color="#28202F" offset="0"/><stop stop-color="#21122F" offset="1"/></linearGradient><radialGradient id="ab" cx="0" cy="0" r="1" gradientTransform="translate(7.9064 26.36) rotate(90) scale(1.8133 2.9695)" gradientUnits="userSpaceOnUse"><stop stop-color="#A99EB4" offset=".38356"/><stop stop-color="#A27FC3" offset="1"/></radialGradient><radialGradient id="aa" cx="0" cy="0" r="1" gradientTransform="translate(7.8038 28.575) rotate(-88.139) scale(3.1579 2.7848)" gradientUnits="userSpaceOnUse"><stop stop-color="#8F8898" stop-opacity="0" offset=".73174"/><stop stop-color="#8F8898" offset=".95283"/></radialGradient><radialGradient id="z" cx="0" cy="0" r="1" gradientTransform="translate(12.241 22.763) rotate(124.82) scale(3.5022 5.5751)" gradientUnits="userSpaceOnUse"><stop stop-color="#CFC9D6" offset="0"/><stop stop-color="#AAA9AB" offset="1"/></radialGradient><radialGradient id="y" cx="0" cy="0" r="1" gradientTransform="translate(13.321 26.775) rotate(214.76) scale(9.848 1.0654)" gradientUnits="userSpaceOnUse"><stop stop-color="#9A71BE" offset=".16097"/><stop stop-color="#9A71BE" stop-opacity="0" offset="1"/></radialGradient><radialGradient id="x" cx="0" cy="0" r="1" gradientTransform="translate(12.441 26.775) rotate(236.41) scale(8.4791 7.7613)" gradientUnits="userSpaceOnUse"><stop stop-color="#97949B" stop-opacity="0" offset=".71845"/><stop stop-color="#97949B" offset="1"/></radialGradient><linearGradient id="w" x1="11.773" x2="12.496" y1="21.346" y2="20.294" gradientUnits="userSpaceOnUse"><stop stop-color="#67616E" stop-opacity="0" offset="0"/><stop stop-color="#67616E" offset=".79738"/></linearGradient><linearGradient id="v" x1="26.2" x2="24.671" y1="16.21" y2="18.411" gradientUnits="userSpaceOnUse"><stop stop-color="#7048B7" offset="0"/><stop stop-color="#66559F" offset="1"/></linearGradient><linearGradient id="u" x1="23.652" x2="22.123" y1="19.879" y2="22.081" gradientUnits="userSpaceOnUse"><stop stop-color="#7048B7" offset="0"/><stop stop-color="#66559F" offset="1"/></linearGradient><linearGradient id="t" x1="21.103" x2="19.574" y1="23.548" y2="25.75" gradientUnits="userSpaceOnUse"><stop stop-color="#7048B7" offset="0"/><stop stop-color="#66559F" offset="1"/></linearGradient><linearGradient id="r" x1="11.248" x2="11.758" y1="13.44" y2="12.706" gradientUnits="userSpaceOnUse"><stop stop-color="#281E30" offset="0"/><stop stop-color="#515152" offset="1"/></linearGradient><linearGradient id="q" x1="3.8696" x2="12.535" y1="17.018" y2="4.5422" gradientUnits="userSpaceOnUse"><stop stop-color="#4A385C" offset="0"/><stop stop-color="#38363A" offset="1"/></linearGradient><linearGradient id="p" x1="11.866" x2="11.148" y1="11.263" y2="10.779" gradientUnits="userSpaceOnUse"><stop stop-color="#252229" offset="0"/><stop stop-color="#252229" stop-opacity="0" offset="1"/></linearGradient><linearGradient id="o" x1="6.4182" x2="4.889" y1="13.349" y2="15.551" gradientUnits="userSpaceOnUse"><stop stop-color="#6A5BA1" offset="0"/><stop stop-color="#8554E1" offset="1"/></linearGradient><linearGradient id="n" x1="8.967" x2="7.4378" y1="9.6796" y2="11.881" gradientUnits="userSpaceOnUse"><stop stop-color="#6A5CA1" offset="0"/><stop stop-color="#8656E2" offset="1"/></linearGradient><linearGradient id="m" x1="11.516" x2="9.9863" y1="6.0098" y2="8.2114" gradientUnits="userSpaceOnUse"><stop stop-color="#6D5FA4" offset="0"/><stop stop-color="#8858E2" offset="1"/></linearGradient><linearGradient id="l" x1="13.253" x2="17.84" y1="19.184" y2="12.579" gradientUnits="userSpaceOnUse"><stop stop-color="#8A64AA" offset="0"/><stop stop-color="#A9A0B2" offset=".09034"/><stop stop-color="#A9A0B2" offset=".90912"/><stop stop-color="#C3C0C6" offset="1"/></linearGradient><linearGradient id="k" x1="11.841" x2="15.546" y1="13.11" y2="15.483" gradientUnits="userSpaceOnUse"><stop stop-color="#8E8D8F" offset="0"/><stop stop-color="#8E8D8F" stop-opacity="0" offset="1"/></linearGradient><radialGradient id="j" cx="0" cy="0" r="1" gradientTransform="translate(22.304 20.356) rotate(206.68) scale(7.2393 7.2394)" gradientUnits="userSpaceOnUse"><stop stop-color="#9689A1" offset="0"/><stop stop-color="#9689A1" stop-opacity="0" offset="1"/></radialGradient><radialGradient id="i" cx="0" cy="0" r="1" gradientTransform="translate(22.023 15.45) rotate(213.58) scale(4.689 .61116)" gradientUnits="userSpaceOnUse"><stop stop-color="#C5C3C7" offset="0"/><stop stop-color="#C5C3C7" stop-opacity="0" offset="1"/></radialGradient></defs></svg>
