<svg fill="none" viewBox="0 0 32 32" xmlns="http://www.w3.org/2000/svg"><g filter="url(#n)"><path d="m10.953 14.141v-5.5625c0-2.77 2.2456-5.0156 5.0157-5.0156 2.77 0 5.0156 2.2456 5.0156 5.0156v5.5625" stroke="#C2C2C6" stroke-width="2.75"/></g><path d="m10.953 14.141v-5.5625c0-2.77 2.2456-5.0156 5.0157-5.0156 2.77 0 5.0156 2.2456 5.0156 5.0156v5.5625" stroke="url(#j)" stroke-width="2.75"/><g filter="url(#m)"><path d="m11.344 14.141v-5.7597c0-2.8682 2.2945-5.1934 5.1249-5.1934 2.8305 0 5.125 2.3252 5.125 5.1934v5.7597" stroke="url(#i)"/><path d="m11.344 14.141v-5.7597c0-2.8682 2.2945-5.1934 5.1249-5.1934 2.8305 0 5.125 2.3252 5.125 5.1934v5.7597" stroke="url(#h)"/></g><g filter="url(#l)"><rect x="5.0312" y="11.125" width="21.938" height="18.844" rx="3" fill="url(#g)"/></g><rect x="5.0312" y="11.125" width="21.938" height="18.844" rx="3" fill="url(#f)"/><rect x="5.0312" y="11.125" width="21.938" height="18.844" rx="3" fill="url(#e)"/><rect x="5.0312" y="11.125" width="21.938" height="18.844" rx="3" fill="url(#d)"/><g filter="url(#k)" stroke-width="1.75"><path d="m17.398 20.462c0.7192-0.4642 1.1954-1.2727 1.1954-2.1924 0-1.44-1.1674-2.6074-2.6075-2.6074-1.44 0-2.6074 1.1674-2.6074 2.6074 0 0.9313 0.4882 1.7485 1.2227 2.2098v3.2942c0 0.7723 0.6261 1.3984 1.3984 1.3984s1.3984-0.6261 1.3984-1.3984v-3.3116z" stroke="url(#c)"/><path d="m17.398 20.462c0.7192-0.4642 1.1954-1.2727 1.1954-2.1924 0-1.44-1.1674-2.6074-2.6075-2.6074-1.44 0-2.6074 1.1674-2.6074 2.6074 0 0.9313 0.4882 1.7485 1.2227 2.2098v3.2942c0 0.7723 0.6261 1.3984 1.3984 1.3984s1.3984-0.6261 1.3984-1.3984v-3.3116z" stroke="url(#b)"/></g><path d="m17.398 20.462c0.7192-0.4642 1.1954-1.2727 1.1954-2.1924 0-1.44-1.1674-2.6074-2.6075-2.6074-1.44 0-2.6074 1.1674-2.6074 2.6074 0 0.9313 0.4882 1.7485 1.2227 2.2098v3.2942c0 0.7723 0.6261 1.3984 1.3984 1.3984s1.3984-0.6261 1.3984-1.3984v-3.3116z" fill="url(#a)"/><defs><filter id="n" x="9.5781" y="2.1875" width="13.781" height="11.953" color-interpolation-filters="sRGB" filterUnits="userSpaceOnUse"><feFlood flood-opacity="0" result="BackgroundImageFix"/><feBlend in="SourceGraphic" in2="BackgroundImageFix" result="shape"/><feColorMatrix in="SourceAlpha" result="hardAlpha" values="0 0 0 0 0 0 0 0 0 0 0 0 0 0 0 0 0 0 127 0"/><feOffset dx="1"/><feGaussianBlur stdDeviation="0.5"/><feComposite in2="hardAlpha" k2="-1" k3="1" operator="arithmetic"/><feColorMatrix values="0 0 0 0 0.560784 0 0 0 0 0.556863 0 0 0 0 0.576471 0 0 0 1 0"/><feBlend in2="shape" result="effect1_innerShadow_18_23511"/></filter><filter id="m" x="10.094" y="1.9375" width="12.75" height="12.953" color-interpolation-filters="sRGB" filterUnits="userSpaceOnUse"><feFlood flood-opacity="0" result="BackgroundImageFix"/><feBlend in="SourceGraphic" in2="BackgroundImageFix" result="shape"/><feGaussianBlur result="effect1_foregroundBlur_18_23511" stdDeviation="0.375"/></filter><filter id="l" x="4.2812" y="10.375" width="23.438" height="20.344" color-interpolation-filters="sRGB" filterUnits="userSpaceOnUse"><feFlood flood-opacity="0" result="BackgroundImageFix"/><feBlend in="SourceGraphic" in2="BackgroundImageFix" result="shape"/><feColorMatrix in="SourceAlpha" result="hardAlpha" values="0 0 0 0 0 0 0 0 0 0 0 0 0 0 0 0 0 0 127 0"/><feOffset dy="-0.75"/><feGaussianBlur stdDeviation="0.375"/><feComposite in2="hardAlpha" k2="-1" k3="1" operator="arithmetic"/><feColorMatrix values="0 0 0 0 0.898039 0 0 0 0 0.364706 0 0 0 0 0.423529 0 0 0 1 0"/><feBlend in2="shape" result="effect1_innerShadow_18_23511"/><feColorMatrix in="SourceAlpha" result="hardAlpha" values="0 0 0 0 0 0 0 0 0 0 0 0 0 0 0 0 0 0 127 0"/><feOffset dx="-1"/><feGaussianBlur stdDeviation="0.375"/><feComposite in2="hardAlpha" k2="-1" k3="1" operator="arithmetic"/><feColorMatrix values="0 0 0 0 1 0 0 0 0 0.772549 0 0 0 0 0.364706 0 0 0 1 0"/><feBlend in2="effect1_innerShadow_18_23511" result="effect2_innerShadow_18_23511"/><feColorMatrix in="SourceAlpha" result="hardAlpha" values="0 0 0 0 0 0 0 0 0 0 0 0 0 0 0 0 0 0 127 0"/><feOffset dy="1"/><feGaussianBlur stdDeviation="0.375"/><feComposite in2="hardAlpha" k2="-1" k3="1" operator="arithmetic"/><feColorMatrix values="0 0 0 0 1 0 0 0 0 0.843137 0 0 0 0 0.266667 0 0 0 1 0"/><feBlend in2="effect2_innerShadow_18_23511" result="effect3_innerShadow_18_23511"/><feColorMatrix in="SourceAlpha" result="hardAlpha" values="0 0 0 0 0 0 0 0 0 0 0 0 0 0 0 0 0 0 127 0"/><feOffset dx="0.75"/><feGaussianBlur stdDeviation="0.375"/><feComposite in2="hardAlpha" k2="-1" k3="1" operator="arithmetic"/><feColorMatrix values="0 0 0 0 0.729412 0 0 0 0 0.478431 0 0 0 0 0.207843 0 0 0 1 0"/><feBlend in2="effect3_innerShadow_18_23511" result="effect4_innerShadow_18_23511"/></filter><filter id="k" x="12.004" y="14.287" width="7.9648" height="12.26" color-interpolation-filters="sRGB" filterUnits="userSpaceOnUse"><feFlood flood-opacity="0" result="BackgroundImageFix"/><feBlend in="SourceGraphic" in2="BackgroundImageFix" result="shape"/><feGaussianBlur result="effect1_foregroundBlur_18_23511" stdDeviation="0.25"/></filter><radialGradient id="j" cx="0" cy="0" r="1" gradientTransform="translate(15.969 7.6562) rotate(-90) scale(4.8438 5.2886)" gradientUnits="userSpaceOnUse"><stop stop-color="#AB83C0" offset=".53061"/><stop stop-color="#CBBBDC" stop-opacity="0" offset="1"/></radialGradient><radialGradient id="i" cx="0" cy="0" r="1" gradientTransform="translate(21.899 4.5938) rotate(136.74) scale(5.244 7.2033)" gradientUnits="userSpaceOnUse"><stop stop-color="#EDECF3" offset=".21577"/><stop stop-color="#EDECF3" stop-opacity="0" offset="1"/></radialGradient><radialGradient id="h" cx="0" cy="0" r="1" gradientTransform="translate(12.55 12.656) rotate(-90) scale(7.125 5.1632)" gradientUnits="userSpaceOnUse"><stop stop-color="#EDECF3" offset="0"/><stop stop-color="#EDECF3" stop-opacity="0" offset="1"/></radialGradient><linearGradient id="g" x1="10.156" x2="17.094" y1="14.188" y2="29.969" gradientUnits="userSpaceOnUse"><stop stop-color="#FFC74E" offset="0"/><stop stop-color="#F7864E" offset="1"/></linearGradient><radialGradient id="f" cx="0" cy="0" r="1" gradientTransform="translate(26.406 29.969) rotate(227.73) scale(3.252 7.576)" gradientUnits="userSpaceOnUse"><stop stop-color="#FF8650" offset="0"/><stop stop-color="#FF8650" stop-opacity="0" offset="1"/></radialGradient><linearGradient id="e" x1="16" x2="16" y1="10.812" y2="12.312" gradientUnits="userSpaceOnUse"><stop stop-color="#F3D04E" offset="0"/><stop stop-color="#F3D04E" stop-opacity="0" offset="1"/></linearGradient><radialGradient id="d" cx="0" cy="0" r="1" gradientTransform="translate(26.656 11.125) rotate(126.25) scale(2.3251 5.2517)" gradientUnits="userSpaceOnUse"><stop stop-color="#FFF760" offset="0"/><stop stop-color="#FFF760" stop-opacity="0" offset="1"/></radialGradient><linearGradient id="c" x1="19.125" x2="15.25" y1="21.75" y2="21.75" gradientUnits="userSpaceOnUse"><stop stop-color="#D98A40" offset=".33064"/><stop stop-color="#D98A40" stop-opacity="0" offset="1"/></linearGradient><linearGradient id="b" x1="12.875" x2="15.594" y1="20.812" y2="20.812" gradientUnits="userSpaceOnUse"><stop stop-color="#FFCD63" offset="0"/><stop stop-color="#FFCD63" stop-opacity="0" offset="1"/></linearGradient><radialGradient id="a" cx="0" cy="0" r="1" gradientTransform="translate(13.379 18.688) rotate(34.061) scale(5.6912 7.8272)" gradientUnits="userSpaceOnUse"><stop stop-color="#564F80" offset=".21669"/><stop stop-color="#473154" offset="1"/></radialGradient></defs></svg>
