<?xml version="1.0" encoding="UTF-8"?>
<svg width="3300px" height="2200px" viewBox="0 0 3300 2200" version="1.1" xmlns="http://www.w3.org/2000/svg" xmlns:xlink="http://www.w3.org/1999/xlink">
    <title>threema.phone.fill.arrow.bend.right</title>
    <g id="Page-1" stroke="none" stroke-width="1" fill="none" fill-rule="evenodd">
        <g id="threema.phone.fill.arrow.bend.right">
            <g id="Notes">
                <line x1="263" y1="292" x2="3036" y2="292" id="Path" stroke="#000000" stroke-width="0.5"></line>
                <text id="Weight/Scale-Variations" fill="#000000" fill-rule="nonzero" font-family="Helvetica" font-size="13" font-weight="normal">
                    <tspan x="263" y="322">Weight/Scale Variations</tspan>
                </text>
                <text id="Ultralight" fill="#000000" fill-rule="nonzero" font-family="Helvetica" font-size="13" font-weight="normal">
                    <tspan x="534.0633" y="322">Ultralight</tspan>
                </text>
                <text id="Thin" fill="#000000" fill-rule="nonzero" font-family="Helvetica" font-size="13" font-weight="normal">
                    <tspan x="843.7775" y="322">Thin</tspan>
                </text>
                <text id="Light" fill="#000000" fill-rule="nonzero" font-family="Helvetica" font-size="13" font-weight="normal">
                    <tspan x="1139.035" y="322">Light</tspan>
                </text>
                <text id="Regular" fill="#000000" fill-rule="nonzero" font-family="Helvetica" font-size="13" font-weight="normal">
                    <tspan x="1427.0773" y="322">Regular</tspan>
                </text>
                <text id="Medium" fill="#000000" fill-rule="nonzero" font-family="Helvetica" font-size="13" font-weight="normal">
                    <tspan x="1723.4419" y="322">Medium</tspan>
                </text>
                <text id="Semibold" fill="#000000" fill-rule="nonzero" font-family="Helvetica" font-size="13" font-weight="normal">
                    <tspan x="2016.1719" y="322">Semibold</tspan>
                </text>
                <text id="Bold" fill="#000000" fill-rule="nonzero" font-family="Helvetica" font-size="13" font-weight="normal">
                    <tspan x="2326.9705" y="322">Bold</tspan>
                </text>
                <text id="Heavy" fill="#000000" fill-rule="nonzero" font-family="Helvetica" font-size="13" font-weight="normal">
                    <tspan x="2618.2659" y="322">Heavy</tspan>
                </text>
                <text id="Black" fill="#000000" fill-rule="nonzero" font-family="Helvetica" font-size="13" font-weight="normal">
                    <tspan x="2917.5054" y="322">Black</tspan>
                </text>
                <line x1="263" y1="1903" x2="3036" y2="1903" id="Path" stroke="#000000" stroke-width="0.5"></line>
                <g id="Group" transform="translate(264.300000, 1918.000000)" fill="#000000" fill-rule="nonzero">
                    <path d="M7.9,15.8 C12.2,15.8 15.8,12.2 15.8,7.9 C15.8,3.6 12.2,0 7.9,0 C3.6,0 1.77635684e-15,3.6 1.77635684e-15,7.9 C0.1,12.3 3.7,15.8 7.9,15.8 Z M7.9,14.3 C4.4,14.3 1.5,11.5 1.5,7.9 C1.5,4.3 4.3,1.5 7.9,1.5 C11.5,1.5 14.3,4.3 14.3,7.9 C14.3,11.5 11.5,14.3 7.9,14.3 Z M4.4,7.9 C4.4,8.3 4.7,8.6 5.2,8.6 L7.3,8.6 L7.3,10.7 C7.3,11.1 7.6,11.4 8,11.4 C8.4,11.4 8.7,11.1 8.7,10.7 L8.7,8.6 L10.8,8.6 C11.2,8.6 11.5,8.3 11.5,7.9 C11.5,7.5 11.2,7.2 10.8,7.2 L8.7,7.2 L8.7,5.1 C8.7,4.7 8.4,4.3 8,4.3 C7.6,4.3 7.3,4.6 7.3,5.1 L7.3,7.2 L5.1,7.2 C4.7,7.2 4.4,7.5 4.4,7.9 Z" id="Shape"></path>
                </g>
                <g id="Group" transform="translate(283.567000, 1915.900000)" fill="#000000" fill-rule="nonzero">
                    <path d="M10,20 C15.4,20 20,15.5 20,10 C20,4.6 15.5,0 10,0 C4.6,0 0,4.5 0,10 C0,15.5 4.6,20 10,20 Z M10,18.3 C5.4,18.3 1.7,14.6 1.7,10 C1.7,5.4 5.4,1.7 10,1.7 C14.6,1.7 18.3,5.4 18.3,10 C18.3,14.7 14.6,18.3 10,18.3 Z M5.5,10 C5.5,10.5 5.8,10.8 6.3,10.8 L9.2,10.8 L9.2,13.7 C9.2,14.2 9.5,14.5 10,14.5 C10.5,14.5 10.8,14.2 10.8,13.7 L10.8,10.8 L13.7,10.8 C14.2,10.8 14.5,10.5 14.5,10 C14.5,9.5 14.2,9.2 13.7,9.2 L10.8,9.2 L10.8,6.3 C10.8,5.8 10.5,5.5 10,5.5 C9.5,5.5 9.2,5.8 9.2,6.3 L9.2,9.2 L6.3,9.2 C5.8,9.2 5.5,9.6 5.5,10 Z" id="Shape"></path>
                </g>
                <g id="Group" transform="translate(307.946000, 1913.298726)" fill="#000000" fill-rule="nonzero">
                    <path d="M12.7,25.4012741 C19.7,25.4012741 25.4,19.6012741 25.4,12.7012741 C25.4,5.70127412 19.6,0.00127412308 12.7,0.00127412308 C5.7,-0.0987258769 0,5.70127412 0,12.6012741 C0,19.6012741 5.7,25.4012741 12.7,25.4012741 Z M12.7,23.5012741 C6.6,23.5012741 1.8,18.7012741 1.8,12.6012741 C1.8,6.60127412 6.6,1.70127412 12.7,1.70127412 C18.7,1.70127412 23.6,6.60127412 23.6,12.6012741 C23.6,18.7012741 18.7,23.5012741 12.7,23.5012741 Z M6.9,12.6012741 C6.9,13.1012741 7.3,13.5012741 7.8,13.5012741 L11.7,13.5012741 L11.7,17.5012741 C11.7,18.0012741 12.1,18.4012741 12.6,18.4012741 C13.1,18.4012741 13.5,18.0012741 13.5,17.5012741 L13.5,13.5012741 L17.5,13.5012741 C18,13.5012741 18.4,13.1012741 18.4,12.6012741 C18.4,12.1012741 18,11.7012741 17.5,11.7012741 L13.5,11.7012741 L13.5,7.80127412 C13.5,7.30127412 13.1,6.90127412 12.6,6.90127412 C12.1,6.90127412 11.7,7.30127412 11.7,7.80127412 L11.7,11.7012741 L7.8,11.7012741 C7.3,11.7012741 6.9,12.1012741 6.9,12.6012741 Z" id="Shape"></path>
                </g>
                <text id="Design-Variations" fill="#000000" fill-rule="nonzero" font-family="Helvetica" font-size="13" font-weight="normal">
                    <tspan x="263" y="1953">Design Variations</tspan>
                </text>
                <text id="Symbols-are-supported-in-up-to-nine-weights-and-three-scales." fill="#000000" fill-rule="nonzero" font-family="Helvetica" font-size="13" font-weight="normal">
                    <tspan x="263" y="1971">Symbols are supported in up to nine weights and three scales.</tspan>
                </text>
                <text id="For-optimal-layout-with-text-and-other-symbols,-vertically-align" fill="#000000" fill-rule="nonzero" font-family="Helvetica" font-size="13" font-weight="normal">
                    <tspan x="263" y="1989">For optimal layout with text and other symbols, vertically align</tspan>
                </text>
                <text id="symbols-with-the-adjacent-text." fill="#000000" fill-rule="nonzero" font-family="Helvetica" font-size="13" font-weight="normal">
                    <tspan x="263" y="2007">symbols with the adjacent text.</tspan>
                </text>
                <line x1="776" y1="1919" x2="776" y2="1933" id="Path" stroke="#00AEEF" stroke-width="0.5"></line>
                <g id="Group" transform="translate(778.500000, 1918.700000)" fill="#000000" fill-rule="nonzero">
                    <path d="M0.8,14.5 C1.3,14.5 1.6,14.3 1.8,13.8 L3,10.3 L8.8,10.3 L10.1,13.7 C10.2,14.3 10.5,14.5 11,14.5 C11.5,14.5 11.8,14.2 11.8,13.7 C11.8,13.5 11.8,13.4 11.7,13.2 L7.2,0.9 C6.9,0.3 6.5,0 5.9,0 C5.3,0 4.9,0.3 4.7,0.9 L0.1,13.1 C0,13.3 0,13.5 0,13.7 C0,14.2 0.3,14.5 0.8,14.5 Z M3.5,8.8 L5.9,2.2 L5.9,2.2 L8.3,8.8 C8.3,8.8 3.5,8.8 3.5,8.8 Z" id="Shape"></path>
                </g>
                <line x1="793.2" y1="1919" x2="793.2" y2="1933" id="Path" stroke="#00AEEF" stroke-width="0.5"></line>
                <text id="Margins" fill="#000000" fill-rule="nonzero" font-family="Helvetica" font-size="13" font-weight="normal">
                    <tspan x="776" y="1953">Margins</tspan>
                </text>
                <text id="Leading-and-trailing-margins-on-the-left-and-right-side-of-each-symbol" fill="#000000" fill-rule="nonzero" font-family="Helvetica" font-size="13" font-weight="normal">
                    <tspan x="776" y="1971">Leading and trailing margins on the left and right side of each symbol</tspan>
                </text>
                <text id="can-be-adjusted-by-modifying-the-x-location-of-the-margin-guidelines." fill="#000000" fill-rule="nonzero" font-family="Helvetica" font-size="13" font-weight="normal">
                    <tspan x="776" y="1989">can be adjusted by modifying the x-location of the margin guidelines.</tspan>
                </text>
                <text id="Modifications-are-automatically-applied-proportionally-to-all" fill="#000000" fill-rule="nonzero" font-family="Helvetica" font-size="13" font-weight="normal">
                    <tspan x="776" y="2007">Modifications are automatically applied proportionally to all</tspan>
                </text>
                <text id="scales-and-weights." fill="#000000" fill-rule="nonzero" font-family="Helvetica" font-size="13" font-weight="normal">
                    <tspan x="776" y="2025">scales and weights.</tspan>
                </text>
                <g id="Group" transform="translate(1291.257545, 1914.524395)" fill="#000000" fill-rule="nonzero">
                    <path d="M0.542454682,20.3756052 L2.24245468,22.0756052 C3.14245468,22.9756052 4.04245468,22.8756052 5.04245468,21.8756052 L15.7424547,10.0756052 L14.7424547,9.07560515 L4.14245468,20.7756052 C3.74245468,21.1756052 3.44245468,21.2756052 2.94245468,20.7756052 L1.84245468,19.5756052 C1.34245468,19.1756052 1.44245468,18.7756052 1.84245468,18.4756052 L13.3424547,7.67560515 L12.3424547,6.67560515 L0.742454682,17.5756052 C-0.157545318,18.4756052 -0.257545318,19.4756052 0.542454682,20.3756052 Z M7.04245468,2.17560515 C6.64245468,2.57560515 6.64245468,3.17560515 6.84245468,3.57560515 C7.04245468,3.97560515 7.54245468,4.17560515 8.14245468,3.97560515 C9.64245468,3.67560515 11.1424547,3.57560515 12.5424547,4.47560515 L11.9424547,5.97560515 C11.6424547,6.77560515 11.7424547,7.37560515 12.3424547,7.97560515 L14.6424547,10.2756052 C15.1424547,10.7756052 15.5424547,10.7756052 16.1424547,10.6756052 L17.1424547,10.4756052 L17.8424547,11.1756052 L17.8424547,11.7756052 C17.8424547,12.2756052 17.9424547,12.6756052 18.4424547,13.1756052 L19.2424547,13.8756052 C19.7424547,14.3756052 20.3424547,14.3756052 20.8424547,13.8756052 L23.7424547,10.9756052 C24.2424547,10.4756052 24.1424547,9.87560515 23.7424547,9.47560515 L22.7424547,8.57560515 C22.2424547,8.07560515 21.9424547,7.97560515 21.4424547,7.97560515 L20.8424547,7.97560515 L20.2424547,7.37560515 L20.4424547,6.27560515 C20.5424547,5.67560515 20.4424547,5.27560515 19.8424547,4.67560515 L17.6424547,2.47560515 C14.3424547,-0.824394846 9.84245468,-0.724394846 7.04245468,2.17560515 Z M8.54245468,2.47560515 C10.9424547,0.675605154 14.2424547,0.975605154 16.4424547,3.27560515 L18.8424547,5.67560515 C19.0424547,5.87560515 19.1424547,6.07560515 19.0424547,6.47560515 L18.7424547,7.97560515 L20.2424547,9.47560515 L21.2424547,9.37560515 C21.5424547,9.37560515 21.5424547,9.37560515 21.7424547,9.57560515 L22.3424547,10.1756052 L19.9424547,12.5756052 L19.3424547,11.9756052 C19.1424547,11.7756052 19.1424547,11.6756052 19.1424547,11.4756052 L19.2424547,10.4756052 L17.7424547,8.97560515 L16.2424547,9.27560515 C15.9424547,9.37560515 15.7424547,9.27560515 15.5424547,9.07560515 L13.5424547,7.07560515 C13.2424547,6.87560515 13.2424547,6.67560515 13.4424547,6.27560515 L14.3424547,4.17560515 C12.7424547,2.67560515 10.7424547,2.07560515 8.74245468,2.67560515 C8.44245468,2.77560515 8.34245468,2.67560515 8.54245468,2.47560515 Z" id="Shape"></path>
                </g>
                <text id="Exporting" fill="#000000" fill-rule="nonzero" font-family="Helvetica" font-size="13" font-weight="normal">
                    <tspan x="1289" y="1953">Exporting</tspan>
                </text>
                <text id="Symbols-should-be-outlined-when-exporting-to-ensure-the" fill="#000000" fill-rule="nonzero" font-family="Helvetica" font-size="13" font-weight="normal">
                    <tspan x="1289" y="1971">Symbols should be outlined when exporting to ensure the</tspan>
                </text>
                <text id="design-is-preserved-when-submitting-to-Xcode." fill="#000000" fill-rule="nonzero" font-family="Helvetica" font-size="13" font-weight="normal">
                    <tspan x="1289" y="1989">design is preserved when submitting to Xcode.</tspan>
                </text>
                <text id="template-version" fill="#000000" fill-rule="nonzero" font-family="Helvetica" font-size="13" font-weight="normal">
                    <tspan x="2952.4141" y="1933">Template v.4.0</tspan>
                </text>
                <text id="Requires-Xcode-14-or-greater" fill="#000000" fill-rule="nonzero" font-family="Helvetica" font-size="13" font-weight="normal">
                    <tspan x="2865.4575" y="1951">Requires Xcode 14 or greater</tspan>
                </text>
                <text id="descriptive-name" fill="#000000" fill-rule="nonzero" font-family="Helvetica" font-size="13" font-weight="normal">
                    <tspan x="2792.4658" y="1969">Generated from phone.fill.arrow.bend.right</tspan>
                </text>
                <text id="Typeset-at-100-points" fill="#000000" fill-rule="nonzero" font-family="Helvetica" font-size="13" font-weight="normal">
                    <tspan x="2912.4111" y="1987">Typeset at 100 points</tspan>
                </text>
                <text id="Small" fill="#000000" fill-rule="nonzero" font-family="Helvetica" font-size="13" font-weight="normal">
                    <tspan x="263" y="726">Small</tspan>
                </text>
                <text id="Medium" fill="#000000" fill-rule="nonzero" font-family="Helvetica" font-size="13" font-weight="normal">
                    <tspan x="263" y="1156">Medium</tspan>
                </text>
                <text id="Large" fill="#000000" fill-rule="nonzero" font-family="Helvetica" font-size="13" font-weight="normal">
                    <tspan x="263" y="1586">Large</tspan>
                </text>
            </g>
            <g id="Guides" transform="translate(263.000000, 600.800000)">
                <g id="H-reference" transform="translate(77.000000, 24.700000)" fill="#27AAE1" fill-rule="nonzero">
                    <path d="M0,70.5 L2.6,70.5 L28.3,3.4 L29,3.4 L29,0.1 L27.1,0.1 L0,70.5 Z M10.7,46 L46,46 L45.2,43.8 L11.4,43.8 L10.7,46 Z M54.1,70.5 L56.7,70.5 L29.6,0 L28.4,0 L28.4,3.3 L54.1,70.5 Z" id="Shape"></path>
                </g>
                <line x1="0" y1="95.2" x2="2773" y2="95.2" id="Baseline-S" stroke="#27AAE1" stroke-width="0.5"></line>
                <line x1="0" y1="24.7" x2="2773" y2="24.7" id="Capline-S" stroke="#27AAE1" stroke-width="0.5"></line>
                <g id="H-reference" transform="translate(77.000000, 454.700000)" fill="#27AAE1" fill-rule="nonzero">
                    <path d="M0,70.5 L2.6,70.5 L28.3,3.4 L29,3.4 L29,0.1 L27.1,0.1 L0,70.5 Z M10.7,46 L46,46 L45.2,43.8 L11.4,43.8 L10.7,46 Z M54.1,70.5 L56.7,70.5 L29.6,0 L28.4,0 L28.4,3.3 L54.1,70.5 Z" id="Shape"></path>
                </g>
                <line x1="0" y1="525.2" x2="2773" y2="525.2" id="Baseline-M" stroke="#27AAE1" stroke-width="0.5"></line>
                <line x1="0" y1="454.7" x2="2773" y2="454.7" id="Capline-M" stroke="#27AAE1" stroke-width="0.5"></line>
                <g id="H-reference" transform="translate(77.000000, 884.700000)" fill="#27AAE1" fill-rule="nonzero">
                    <path d="M0,70.5 L2.6,70.5 L28.3,3.4 L29,3.4 L29,0.1 L27.1,0.1 L0,70.5 Z M10.7,46 L46,46 L45.2,43.8 L11.4,43.8 L10.7,46 Z M54.1,70.5 L56.7,70.5 L29.6,0 L28.4,0 L28.4,3.3 L54.1,70.5 Z" id="Shape"></path>
                </g>
                <line x1="0" y1="955.2" x2="2773" y2="955.2" id="Baseline-L" stroke="#27AAE1" stroke-width="0.5"></line>
                <line x1="0" y1="884.7" x2="2773" y2="884.7" id="Capline-L" stroke="#27AAE1" stroke-width="0.5"></line>
                <line x1="1136.8" y1="0" x2="1136.8" y2="119.3" id="left-margin-Regular-S" stroke="#00AEEF" stroke-width="0.5"></line>
                <line x1="1236.9" y1="0" x2="1236.9" y2="119.3" id="right-margin-Regular-S" stroke="#00AEEF" stroke-width="0.5"></line>
                <line x1="1128.7" y1="430" x2="1128.7" y2="549.3" id="left-margin-Regular-M" stroke="#00AEEF" stroke-width="0.5"></line>
                <line x1="1245" y1="430" x2="1245" y2="549.3" id="right-margin-Regular-M" stroke="#00AEEF" stroke-width="0.5"></line>
                <line x1="1114.2" y1="860" x2="1114.2" y2="979.3" id="left-margin-Regular-L" stroke="#00AEEF" stroke-width="0.5"></line>
                <line x1="1259.5" y1="860" x2="1259.5" y2="979.3" id="right-margin-Regular-L" stroke="#00AEEF" stroke-width="0.5"></line>
            </g>
            <g id="Black-L" transform="translate(2863.950000, 1461.100000)" fill="#000000" fill-rule="nonzero">
                <path d="M22,0 C24.1,0 26.1,0.4 28,1.3 C29.9,2.2 31.5,3.6 32.9,5.5 L46.2,24.2 C48.4,27.3 49.5,30 49.5,32.5 C49.5,34.2 49,35.6 48.2,37 C47.4,38.4 46.1,40 44.7,41.4 L40,46.1 C39.4,46.9 39.1,47.7 39.1,48.6 C39.1,49.3 39.2,49.7 39.4,50.2 C39.5,50.7 39.8,51.2 40,51.5 C41.3,53.5 43.2,56.2 46,59.3 C48.8,62.6 51.8,65.8 54.9,68.9 C58.1,72.2 61.4,75 64.5,77.8 C67.6,80.7 70.3,82.7 72.3,83.8 C72.7,84.1 73.1,84.2 73.6,84.4 C74.3,84.5 74.7,84.7 75.2,84.7 C76.3,84.7 77.1,84.4 77.7,83.8 L82.4,79.1 C84,77.6 85.4,76.4 86.8,75.6 C88.2,74.8 89.7,74.3 91.3,74.3 C93.6,74.3 96.5,75.4 99.6,77.6 L118.3,90.9 C120.1,92.3 121.6,94 122.5,95.9 C123.4,97.8 123.9,99.9 123.9,101.9 C123.9,104.1 123.5,106.3 122.6,108.3 C121.7,110.4 120.4,112.4 118.7,114.3 C115.8,117.6 112.5,119.9 108.7,121.5 C105,123.1 101,123.9 96.8,123.9 C90.5,123.9 83.8,122.4 76.7,119.4 C69.7,116.3 62.5,112.2 55.4,107 C48.2,101.8 41.5,96 34.9,89.4 C28.3,82.9 22.5,76.1 16.9,68.5 C11.6,61.3 7.4,54.3 4.5,47.2 C1.6,40.1 0,33.4 0,27.1 C0,22.9 0.8,19 2.4,15.2 C3.8,11.5 6.3,8.2 9.6,5.2 C13.4,1.7 17.5,0 22,0 Z M125.6,1.4 C132.5,1.4 136.5,5.4 136.5,12.4 L136.5,40.5 C136.5,44.7 133,47.9 128.5,47.9 C124,47.9 120.6,44.7 120.6,40.4 L120.6,36.6 L121.7,27 L116.3,33.2 L101.8,47.6 C100.3,49.1 98.2,50 96,50 C93.4,50 91.3,49 89.8,47.5 L62.9,20.5 C61.4,19 60.5,16.9 60.5,14.7 C60.5,9.9 63.8,6.5 68.2,6.5 C70.6,6.5 72.7,7.4 74.4,9.1 L95.9,30.7 L104.8,21.7 L111.3,16.3 L101.2,17.4 L97,17.4 C92.8,17.4 89.5,14 89.5,9.5 C89.4,4.9 92.6,1.4 96.9,1.4 Z" id="Shape"></path>
            </g>
            <g id="Heavy-L" transform="translate(2569.190000, 1462.500000)" fill="#000000" fill-rule="nonzero">
                <path d="M21.8,0.1 C23.7,0.1 25.4,0.4 26.9,1.1 C28.6,1.8 29.8,3 31,4.5 L45.1,24.4 C47.3,27.5 48.5,30.2 48.5,32.6 C48.5,34.2 47.9,35.5 47.1,36.9 C46.3,38.3 45.1,39.7 43.7,41.2 L39.1,45.8 C38.4,46.5 38.1,47.4 38.1,48.4 C38.1,48.9 38.1,49.6 38.3,49.9 C38.5,50.2 38.6,50.8 38.8,51.1 C40,53.1 41.9,55.8 44.6,58.9 C47.5,62 50.4,65.1 53.5,68.3 C56.6,71.6 59.9,74.5 62.9,77.2 C65.9,79.9 68.7,81.8 70.7,83 C71,83.2 71.4,83.3 71.9,83.5 C72.4,83.7 72.9,83.7 73.4,83.7 C74.5,83.7 75.3,83.4 76,82.7 L80.6,78.1 C82.2,76.7 83.5,75.6 84.9,74.7 C86.2,73.8 87.8,73.5 89.3,73.5 C91.5,73.5 94.3,74.7 97.5,76.9 L117.6,91.2 C119.3,92.2 120.3,93.6 121,95.1 C121.7,96.6 122,98.3 122,100 C122,102.2 121.6,104.4 120.6,106.6 C119.6,108.8 118.2,110.9 116.5,112.9 C113.6,116.3 110.2,118.7 106.6,120.2 C102.8,121.7 98.9,122.4 94.8,122.4 C88.5,122.4 81.9,121.1 74.9,118 C67.9,114.9 60.8,110.8 53.8,105.7 C46.6,100.6 40,94.8 33.5,88.3 C27.2,81.8 21.5,75.1 16.5,68.4 C11.4,61.4 7.3,54.4 4.4,47.4 C1.5,40.6 0,33.9 0,27.6 C0,23.5 0.8,19.6 2.2,15.8 C3.6,12 6,8.8 9.2,5.7 C13.1,2 17.2,0.1 21.8,0.1 Z M126,0 C132.9,0 136.8,3.9 136.8,10.8 L136.8,38.6 C136.8,42.8 133.3,45.9 128.9,45.9 C124.4,45.8 121.1,42.6 121.1,38.4 L121.1,34.7 L122.2,25.2 L116.8,31.3 L102.5,45.5 C101,47.1 99,47.9 96.8,47.9 C94.3,47.9 92.2,47 90.7,45.5 L64.1,18.9 C62.5,17.4 61.7,15.4 61.7,13.2 C61.7,8.5 65,5.1 69.3,5.1 C71.7,5.1 73.8,5.9 75.5,7.6 L96.7,28.8 L105.5,20 L111.9,14.7 L102,15.8 L97.9,15.8 C93.6,15.8 90.4,12.5 90.4,8 C90.3,3.5 93.5,0 97.7,0 Z" id="Shape"></path>
            </g>
            <g id="Bold-L" transform="translate(2271.390000, 1461.600000)" fill="#000000" fill-rule="nonzero">
                <path d="M21.8,0 C23.7,0 25.4,0.3 26.9,1 C28.6,1.7 29.8,2.9 31,4.4 L45.2,24.4 C47.4,27.5 48.6,30.2 48.6,32.6 C48.6,34.2 48.1,35.5 47.2,36.9 C46.4,38.3 45.2,39.7 43.8,41.2 L39.2,45.8 C38.5,46.5 38.2,47.4 38.2,48.4 C38.2,48.9 38.2,49.6 38.4,49.9 C38.6,50.2 38.7,50.8 38.9,51.1 C40.1,53.2 42,55.9 44.7,59 C47.6,62.1 50.5,65.2 53.6,68.4 C56.7,71.7 59.9,74.6 63,77.3 C66.1,80 68.8,81.9 70.9,83.1 C71.2,83.3 71.6,83.4 72.1,83.6 C72.6,83.8 73.1,83.8 73.6,83.8 C74.7,83.8 75.5,83.5 76.2,82.8 L80.8,78.2 C82.4,76.9 83.7,75.7 85.1,74.8 C86.4,73.9 88,73.6 89.5,73.6 C91.7,73.6 94.5,74.8 97.7,77 L117.9,91.4 C119.6,92.4 120.6,93.7 121.3,95.3 C122,96.9 122.3,98.6 122.3,100.3 C122.3,102.6 121.9,104.8 120.9,107 C119.9,109.2 118.5,111.2 116.8,113.3 C113.9,116.7 110.5,119.1 106.9,120.6 C103.1,122.1 99.2,122.8 95.1,122.8 C88.8,122.8 82.1,121.5 75.1,118.4 C68.1,115.3 60.9,111.2 53.9,106.1 C46.8,101 40.1,95.2 33.6,88.7 C27.2,82.2 21.6,75.5 16.5,68.3 C11.4,61.3 7.3,54.3 4.4,47.3 C1.5,40.5 0,33.8 0,27.5 C0,23.4 0.8,19.5 2.2,15.7 C3.6,11.9 6,8.7 9.2,5.6 C13.1,1.9 17.2,0 21.8,0 Z M129.6,0.8 C135.4,0.8 138.6,4 138.6,9.9 L138.6,43 C138.6,46.7 135.5,49.6 131.6,49.5 C127.7,49.5 124.8,46.6 124.8,42.9 L124.8,35.1 L125.9,22.6 L119.1,30.2 L104.3,45 C103,46.4 101.2,47.1 99.3,47.1 C97.3,47.1 95.7,46.5 94.4,45.4 L66.6,17.7 C65.2,16.4 64.5,14.6 64.5,12.7 C64.5,8.6 67.4,5.6 71.2,5.6 C73.3,5.6 75.1,6.3 76.6,7.8 L99.2,30.3 L109.2,20.3 L117,13.5 L104.2,14.7 L96.2,14.7 C92.5,14.7 89.6,11.8 89.6,7.9 C89.5,3.9 92.4,0.8 96.1,0.8 Z" id="Shape"></path>
            </g>
            <g id="Semibold-L" transform="translate(1975.190000, 1462.200000)" fill="#000000" fill-rule="nonzero">
                <path d="M21.5,0.8 C23.3,0.8 25,1.1 26.5,1.8 C28.1,2.5 29.3,3.7 30.5,5.2 L44.5,24.9 C46.7,28 47.9,30.6 47.9,33 C47.9,34.5 47.5,35.9 46.6,37.2 C45.7,38.5 44.5,39.9 43.2,41.4 L38.7,45.9 C38,46.6 37.7,47.4 37.7,48.4 C37.7,48.9 37.7,49.5 37.9,49.9 C38.1,50.3 38.2,50.8 38.4,51.1 C39.6,53.1 41.4,55.8 44.1,58.8 C46.9,61.8 49.8,64.8 52.8,68 C55.8,71.2 59,74 62,76.7 C65,79.4 67.7,81.2 69.7,82.4 C70.1,82.6 70.4,82.7 70.9,82.9 C71.4,83.1 71.9,83.1 72.4,83.1 C73.4,83.1 74.2,82.8 74.9,82.1 L79.4,77.6 C80.9,76.2 82.2,75.1 83.6,74.2 C85,73.3 86.5,73 88,73 C90.2,73 92.9,74.2 96.1,76.4 L115.9,90.5 C117.6,91.5 118.6,92.9 119.3,94.4 C120,95.9 120.3,97.6 120.3,99.3 C120.3,101.5 120,103.7 119,105.9 C118,108.1 116.7,110.1 115,112.1 C112.1,115.4 108.7,117.8 105.2,119.3 C101.5,120.8 97.6,121.5 93.6,121.5 C87.4,121.5 80.8,120.1 73.9,117.1 C67,114.1 59.9,110 53,105 C45.9,99.9 39.4,94.2 33,87.8 C26.8,81.4 21.2,74.8 16.3,68 C11.3,61.1 7.3,54.2 4.4,47.3 C1.5,40.6 0,34 0,27.8 C0,23.8 0.9,19.9 2.2,16.2 C3.6,12.5 5.9,9.3 9.1,6.3 C12.9,2.6 17,0.8 21.5,0.8 Z M129.7,0 C134.8,0 137.5,2.8 137.5,7.9 L137.5,41.9 C137.5,45.3 134.7,48 131.2,47.9 C127.7,47.9 125.1,45.3 125.1,41.9 L125.1,34.1 L126.2,19.6 L118.4,28.3 L103.1,43.6 C101.9,44.9 100.3,45.5 98.6,45.5 C96.7,45.5 95.1,44.8 93.9,43.7 L66.1,15.9 C64.8,14.7 64.2,13.1 64.2,11.4 C64.2,7.8 66.8,5 70.2,5 C72,5 73.6,5.6 75,7 L98.4,30 L109.4,19 L118.2,11.2 L103.5,12.4 L95.5,12.4 C92.2,12.4 89.6,9.9 89.5,6.4 C89.4,2.8 92.1,0 95.5,0 Z" id="Shape"></path>
            </g>
            <g id="Medium-L" transform="translate(1677.790000, 1462.700000)" fill="#000000" fill-rule="nonzero">
                <path d="M21.3,1.3 C23.2,1.3 24.8,1.6 26.3,2.3 C28,2.9 29.1,4.1 30.3,5.6 L44.1,25 C46.2,28 47.4,30.7 47.4,33 C47.4,34.4 46.9,35.8 46.1,37.1 C45.3,38.4 44.1,39.7 42.8,41.2 L38.3,45.7 C37.6,46.4 37.3,47.2 37.3,48.2 C37.3,48.7 37.3,49.3 37.5,49.7 C37.7,50.1 37.8,50.6 38,50.9 C39.1,52.9 40.9,55.5 43.6,58.5 C46.4,61.5 49.2,64.5 52.2,67.6 C55.2,70.7 58.3,73.5 61.3,76.2 C64.3,78.8 66.9,80.6 68.9,81.8 C69.3,82 69.6,82.1 70.1,82.3 C70.6,82.5 71.1,82.5 71.6,82.5 C72.6,82.5 73.4,82.2 74.1,81.5 L78.6,77 C80,75.7 81.4,74.5 82.7,73.7 C84,72.8 85.5,72.5 87,72.5 C89.2,72.5 91.9,73.6 95,75.8 L114.5,89.7 C116.1,90.7 117.1,92 117.8,93.5 C118.5,95 118.8,96.6 118.8,98.3 C118.8,100.5 118.5,102.6 117.5,104.8 C116.5,106.9 115.2,108.9 113.5,110.9 C110.7,114.2 107.4,116.5 103.9,118 C100.3,119.5 96.5,120.2 92.5,120.2 C86.4,120.2 79.9,118.9 73.1,115.9 C66.4,112.9 59.4,109 52.6,104 C45.7,99 39.2,93.4 32.9,87.1 C26.8,80.8 21.3,74.4 16.1,67.6 C11.1,60.8 7.1,54 4.3,47.2 C1.5,40.6 0,34.1 0,28 C0,24.1 0.9,20.2 2.2,16.6 C3.5,12.9 5.9,9.8 9,6.8 C12.8,3.1 16.8,1.3 21.3,1.3 Z M130.3,0 C134.8,0 137.1,2.3 137.1,6.9 L137.1,41.5 C137.1,44.7 134.4,47.2 131.2,47.1 C128,47 125.6,44.6 125.6,41.5 L125.6,33.7 L126.8,17.6 L118.2,27.1 L102.2,43.1 C101,44.2 99.6,44.8 98,44.8 C96.4,44.8 95,44.3 94,43.4 L65.4,14.9 C64.3,13.7 63.7,12.3 63.7,10.7 C63.7,7.4 66.2,4.8 69.3,4.8 C71,4.8 72.4,5.4 73.7,6.7 L97.9,30.8 L110,18.9 L119.6,10.3 L103.4,11.5 L95.5,11.5 C92.4,11.5 90,9.2 89.9,6 C89.8,2.6 92.3,0 95.5,0 Z" id="Shape"></path>
            </g>
            <g id="Regular-L" transform="translate(1388.290000, 1462.500000)" fill="#000000" fill-rule="nonzero">
                <path d="M32.2,86.2 C38.4,92.4 44.7,97.9 51.6,102.8 C58.3,107.7 65.1,111.6 71.8,114.5 C78.5,117.4 84.8,118.7 90.9,118.7 C94.8,118.7 98.6,118 102.1,116.6 C105.5,115.1 108.8,112.9 111.5,109.6 C113.1,107.6 114.4,105.7 115.4,103.6 C116.4,101.5 116.7,99.4 116.7,97.2 C116.7,95.6 116.4,93.9 115.7,92.5 C115,91.1 114.1,89.7 112.4,88.8 L93.2,75.1 C90.1,73 87.5,71.8 85.4,71.8 C83.9,71.8 82.5,72.1 81.2,72.9 C79.9,73.7 78.6,74.9 77.1,76.2 L72.7,80.6 C72,81.3 71.2,81.6 70.3,81.6 C69.8,81.6 69.3,81.6 68.8,81.4 C68.3,81.2 68,81.1 67.7,80.9 C65.7,79.8 63.1,78 60.2,75.4 C57.3,72.8 54.2,70 51.2,66.9 C48.3,63.8 45.5,60.9 42.7,57.9 C40.1,55 38.3,52.4 37.2,50.4 C37,50.1 36.9,49.6 36.7,49.3 C36.5,49 36.5,48.3 36.5,47.8 C36.5,46.8 36.8,46 37.5,45.4 L41.9,41 C43.2,39.5 44.3,38.2 45.2,36.9 C46.1,35.6 46.5,34.3 46.5,32.8 C46.5,30.5 45.4,27.9 43.2,25 L29.7,5.9 C28.6,4.4 27.4,3.3 25.8,2.6 C24.3,1.9 22.7,1.6 20.9,1.6 C16.5,1.6 12.6,3.4 8.8,7 C5.7,9.9 3.4,13 2.1,16.6 C0.8,20.2 1.10440527e-29,23.9 1.10440527e-29,27.8 C1.10440527e-29,33.8 1.5,40.2 4.2,46.7 C7,53.4 10.9,60.1 15.8,66.7 C20.8,73.6 26.2,80 32.2,86.2 Z M117.9,0.8 C117.1,0 115.7,0 114.2,0 L83.9,0 C82.8,0 81.8,0.4 81,1.3 C80.2,2.2 79.9,3.1 79.9,4.2 C79.9,5.2 80.3,6.1 81.2,6.8 C82,7.4 82.8,7.8 84,7.8 L93,7.8 L106.9,6.9 L98.8,14.3 L82,31.1 L60.5,9.6 C59.6,8.7 58.6,8.3 57.5,8.3 C56.5,8.3 55.5,8.7 54.9,9.4 C54.3,10.2 53.8,11.2 53.8,12.3 C53.8,13.4 54.2,14.3 55.1,15.2 L79.3,39.4 C80.1,40.2 81.1,40.5 82.2,40.5 C83.3,40.5 84.2,40.1 85.1,39.2 L104.5,19.8 L111.9,11.8 L110.9,25.7 L110.9,34.7 C110.9,35.7 111.3,36.7 112,37.3 C112.8,37.9 113.6,38.4 114.6,38.4 C115.7,38.5 116.6,38.1 117.5,37.4 C118.4,36.6 118.8,35.6 118.8,34.6 L118.8,4.5 C118.8,2.5 118.6,1.6 117.9,0.8 Z" id="Shape"></path>
            </g>
            <g id="Light-L" transform="translate(1085.611000, 1462.400000)" fill="#000000" fill-rule="nonzero">
                <path d="M20.6,3.6 C22.3,3.6 23.8,4.1 25.3,4.8 C26.9,5.6 28.2,6.8 29.4,8.5 L42.3,26.9 C44,29.3 44.8,31.5 44.8,33.5 C44.8,34.8 44.5,36.2 43.8,37.7 C43.1,39.2 42,40.7 40.6,42.4 L36,47.5 C35.5,48.2 35.2,48.9 35.2,49.7 C35.2,50 35.4,50.4 35.4,50.7 C35.4,51 35.5,51.4 35.7,51.7 C36.5,53.5 38.2,56.1 40.6,59.3 C43,62.5 45.8,65.7 49.4,69.3 C52.9,72.7 56.3,75.7 59.5,78.1 C62.7,80.6 65.2,82.2 66.9,83 C67.4,83.1 67.8,83.1 68.1,83.3 C68.6,83.5 69,83.5 69.3,83.5 C70.3,83.5 71.1,83.2 71.8,82.5 L76.5,77.9 C78.2,76.4 79.7,75.4 81.1,74.7 C82.5,74 83.8,73.7 85.2,73.7 C87.2,73.7 89.4,74.6 91.8,76.1 L111.4,89.8 C112.9,91 114.1,92.1 114.8,93.5 C115.5,94.9 115.8,96.2 115.8,97.6 C115.8,99.8 115.3,101.8 113.9,104 C112.6,106 111.2,107.9 109.7,109.4 C106.6,112.6 103.3,114.8 99.7,116.3 C96,117.8 92.1,118.5 87.7,118.5 C81.6,118.5 75.2,117.1 68.4,114.4 C61.6,111.7 55,108 48.6,103.4 C42.2,98.7 36.1,93.6 30.5,88 C24.9,82.3 19.5,76.4 15.1,70 C10.5,63.4 6.8,56.8 4.1,50.2 C1.4,43.6 0,37.2 0,30.9 C0,26.8 0.6,23.1 2,19.4 C3.4,15.8 5.6,12.4 8.6,9.4 C12.5,5.5 16.5,3.6 20.6,3.6 Z M133.589,0 C135.889,0 137.089,1.3 137.089,3.6 L137.089,34.5 C137.089,36.3 135.589,37.8 133.789,37.7 C131.989,37.6 130.689,36.3 130.689,34.5 L130.689,24.7 L131.389,9.8 L123.689,18.1 L103.289,38.6 C102.689,39.3 101.889,39.6 100.989,39.6 C99.989,39.6 99.189,39.3 98.589,38.7 L73.689,13.9 C72.989,13.3 72.689,12.5 72.689,11.6 C72.689,9.8 73.989,8.3 75.789,8.3 C76.689,8.3 77.489,8.6 78.289,9.4 L100.689,31.8 L118.989,13.5 L127.389,5.8 L112.489,6.5 L102.689,6.5 C100.989,6.5 99.489,5.2 99.489,3.4 C99.389,1.5 100.889,0 102.689,0 Z" id="Shape"></path>
            </g>
            <g id="Thin-L" transform="translate(789.711000, 1462.800000)" fill="#000000" fill-rule="nonzero">
                <path d="M20.1,3.8 C21.7,3.8 23.2,4.3 24.7,5 C26.2,5.8 27.5,6.9 28.7,8.6 L41.3,26.6 C43,28.9 43.8,31 43.8,33 C43.8,34.3 43.4,35.6 42.8,37.1 C42.2,38.6 41,40 39.7,41.7 L35.2,46.7 C34.7,47.3 34.4,48 34.4,48.8 C34.4,49.1 34.6,49.5 34.6,49.8 C34.6,50.1 34.7,50.5 34.9,50.8 C35.7,52.6 37.4,55 39.7,58.2 C42,61.4 44.8,64.5 48.3,68 C51.8,71.3 55.1,74.3 58.2,76.6 C61.4,79.1 63.8,80.6 65.5,81.4 C66,81.5 66.4,81.5 66.7,81.7 C67.2,81.9 67.6,81.9 67.9,81.9 C68.9,81.9 69.7,81.6 70.4,80.9 L75,76.4 C76.7,75 78.2,74 79.5,73.3 C80.9,72.6 82.2,72.3 83.5,72.3 C85.4,72.3 87.6,73.1 89.9,74.6 L109.1,88 C110.6,89.1 111.7,90.2 112.4,91.6 C113.1,93 113.4,94.3 113.4,95.6 C113.4,97.8 112.9,99.8 111.6,101.9 C110.3,103.9 109,105.7 107.5,107.2 C104.5,110.4 101.2,112.5 97.7,114 C94.1,115.4 90.3,116.1 86,116.1 C80.1,116.1 73.8,114.7 67.2,112.1 C60.6,109.5 54.2,105.9 47.9,101.4 C41.6,96.8 35.7,91.9 30.2,86.4 C24.7,80.8 19.5,75 14.7,68.5 C10.3,62.1 6.6,55.6 4,49.2 C1.3,42.8 0,36.5 0,30.4 C0,26.5 0.7,22.8 2,19.2 C3.3,15.7 5.4,12.4 8.4,9.4 C12.2,5.6 16.1,3.8 20.1,3.8 Z M134.6,0 C136,0 136.7,0.8 136.7,2.1 L136.7,33.1 C136.7,34.2 135.8,35.1 134.7,35.1 C133.7,35 132.8,34.2 132.8,33.1 L132.8,21 L133.2,6.1 L125.7,13.9 L103.1,36.5 C102.7,36.9 102.1,37.1 101.6,37.1 C101.1,37.1 100.6,36.9 100.2,36.6 L74.8,11.3 C74.4,10.9 74.2,10.3 74.2,9.8 C74.2,8.7 75,7.8 76.1,7.8 C76.7,7.8 77.2,8 77.7,8.5 L101.5,32.4 L122.8,11.1 L130.6,3.6 L115.8,4 L104.3,4 C103.3,4 102.3,3.2 102.3,2.1 C102.3,1 103.2,0 104.3,0 Z" id="Shape"></path>
            </g>
            <g id="Ultralight-L" transform="translate(496.761000, 1463.000000)" fill="#000000" fill-rule="nonzero">
                <path d="M29.8,84 C35.2,89.4 41.1,94.3 47.3,98.9 C53.5,103.3 59.9,106.9 66.4,109.5 C72.9,112.1 79.2,113.4 85,113.4 C89.3,113.4 93,112.7 96.6,111.3 C100,109.8 103.3,107.7 106.2,104.6 C107.7,103.1 109,101.3 110.3,99.4 C111.6,97.3 112.1,95.3 112.1,93.2 C112.1,91.9 111.8,90.6 111.1,89.3 C110.4,88 109.3,86.8 107.8,85.7 L88.8,72.5 C86.5,71 84.4,70.2 82.4,70.2 C81.1,70.2 79.8,70.5 78.5,71.2 C77.2,71.9 75.7,72.8 74.1,74.3 L69.5,78.7 C68.8,79.4 68,79.7 67,79.7 C66.7,79.7 66.3,79.7 65.9,79.5 C65.6,79.3 65.2,79.3 64.8,79.2 C63.2,78.4 60.7,76.9 57.6,74.5 C54.5,72.2 51.2,69.3 47.8,66 C44.4,62.6 41.6,59.5 39.3,56.4 C37,53.3 35.4,50.8 34.6,49 C34.4,48.7 34.3,48.3 34.3,48 C34.3,47.7 34.1,47.3 34.1,47 C34.1,46.2 34.4,45.5 34.9,44.9 L39.3,40 C40.6,38.4 41.8,36.9 42.4,35.4 C43.1,33.9 43.4,32.6 43.4,31.3 C43.4,29.3 42.6,27.2 40.9,24.9 L28.5,7.1 C27.4,5.5 26,4.3 24.6,3.5 C23.1,2.8 21.7,2.4 20,2.4 C16.1,2.4 12.2,4.2 8.4,8 C5.5,10.9 3.3,14.2 2,17.6 C0.7,21.2 0,24.8 0,28.7 C0,34.8 1.3,41 3.9,47.3 C6.5,53.7 10.1,60.1 14.5,66.4 C19.1,72.7 24.4,78.4 29.8,84 Z M65.9,11.8 C66.4,11.3 67.3,11.3 67.8,11.8 L88.7,32.7 L104.8,16.6 L119,2.7 L103.8,2.8 L91.4,2.8 C91,2.8 90.8,2.7 90.4,2.4 C90.1,2.1 90,1.8 90,1.4 C90,1 90.1,0.8 90.4,0.4 C90.7,0.1 91,0 91.4,0 L122.1,0 C122.5,0 122.9,0.1 123.1,0.4 C123.4,0.7 123.5,1 123.5,1.6 L123.5,32.7 C123.5,33.1 123.4,33.5 123.1,33.7 C122.8,34 122.5,34.1 122.1,34.1 C121.7,34.1 121.3,34 121.1,33.7 C120.8,33.4 120.7,33.1 120.7,32.7 L120.7,19.8 L121,4.6 L107.1,18.7 L90.1,35.7 L90,35.8 L90,35.8 C90,35.8 90,35.8 89.9,35.8 C89.8,35.9 89.6,36.1 89.5,36.1 L89.4,36.1 C89.3,36.1 89.1,36.2 89,36.2 C88.7,36.2 88.6,36.2 88.5,36.1 C88.4,36 88.1,36 88,35.8 L66.1,13.9 C65.4,13.3 65.4,12.4 65.9,11.8 Z" id="Shape"></path>
            </g>
            <g id="Black-M" transform="translate(2878.800000, 1043.900000)" fill="#000000" fill-rule="nonzero">
                <path d="M27.5,70.4 C32.7,75.6 38,80.2 43.7,84.2 C49.3,88.3 54.9,91.5 60.5,94 C66.1,96.3 71.4,97.6 76.3,97.6 C79.6,97.6 82.7,97 85.7,95.7 C88.7,94.5 91.3,92.6 93.6,90 C95,88.5 95.9,86.9 96.7,85.3 C97.4,83.7 97.7,82 97.7,80.2 C97.7,78.6 97.3,77 96.6,75.5 C95.9,74 94.7,72.7 93.3,71.5 L78.5,61.1 C76,59.4 73.8,58.5 72,58.5 C70.8,58.5 69.5,58.9 68.4,59.5 C67.3,60.1 66.2,61.1 64.9,62.2 L61.2,65.9 C60.7,66.4 60.1,66.6 59.2,66.6 C58.8,66.6 58.5,66.5 58,66.4 C57.6,66.3 57.3,66.2 57,65.9 C55.4,65 53.3,63.4 50.8,61.2 C48.3,59 45.7,56.8 43.3,54.2 C40.8,51.7 38.5,49.3 36.3,46.7 C34.1,44.2 32.6,42.1 31.6,40.5 C31.5,40.3 31.2,39.9 31.1,39.5 C31,39.1 30.9,38.8 30.9,38.3 C30.9,37.6 31.1,36.9 31.6,36.3 L35.3,32.6 C36.4,31.5 37.4,30.3 38,29.1 C38.6,28 39,26.9 39,25.5 C39,23.5 38.1,21.4 36.4,19 L25.9,4.3 C24.8,2.8 23.6,1.7 22.1,1 C20.6,0.3 19,0 17.4,0 C13.8,0 10.6,1.4 7.6,4.1 C5,6.4 3,9 1.9,12 C0.7,15 -1.77635684e-15,18 -1.77635684e-15,21.4 C-1.77635684e-15,26.3 1.2,31.6 3.6,37.2 C5.9,42.8 9.2,48.3 13.4,54 C17.7,59.9 22.3,65.2 27.5,70.4 Z M50.6,10.2 C52.9,7.9 56.8,7.9 59.3,10.2 L74.7,25.6 L84.3,16 L87.5,13.2 L82.8,13.9 L77.6,13.9 C76,13.9 74.7,13.3 73.6,12.2 C72.5,11.1 72,9.6 72,8 C72,6.3 72.6,4.9 73.6,3.8 C74.6,2.7 75.9,2.1 77.5,2.1 L98.4,2.1 C101.1,2.1 103.2,2.9 104.6,4.3 C106,5.7 106.8,7.9 106.8,10.5 L106.8,31.8 C106.8,33.4 106.2,34.7 105.1,35.7 C104,36.7 102.5,37.3 100.9,37.3 C99.2,37.3 97.8,36.7 96.7,35.7 C95.6,34.6 95,33.3 95,31.7 L95,26.1 L95.8,21.1 L93.1,24.5 L79.3,38.3 C79,38.6 78.6,39 78.2,39.2 C77.2,39.9 76,40.2 74.8,40.2 C74.6,40.2 74.5,40.2 74.2,40.2 C73,40.1 71.9,39.6 70.9,38.9 C70.7,38.8 70.6,38.7 70.3,38.5 L50.6,18.8 C48.2,16.4 48.2,12.5 50.6,10.2 Z" id="Shape"></path>
            </g>
            <g id="Heavy-M" transform="translate(2581.990000, 1044.300000)" fill="#000000" fill-rule="nonzero">
                <path d="M17.3,0 C18.7,0 20.1,0.3 21.3,0.8 C22.6,1.3 23.6,2.3 24.5,3.5 L35.7,19.3 C37.5,21.8 38.4,23.9 38.4,25.8 C38.4,27 38,28.1 37.3,29.2 C36.6,30.3 35.7,31.4 34.6,32.6 L31,36.2 C30.5,36.7 30.2,37.4 30.2,38.2 C30.2,38.6 30.2,39.1 30.3,39.4 C30.4,39.6 30.6,40 30.7,40.3 C31.7,41.9 33.1,44.1 35.3,46.5 C37.6,48.9 39.9,51.3 42.3,53.9 C44.7,56.5 47.3,58.7 49.7,60.9 C52.1,63.1 54.3,64.6 55.9,65.5 C56.1,65.6 56.4,65.8 56.8,65.9 C57.2,66 57.6,66 58,66 C58.8,66 59.5,65.7 60,65.2 L63.6,61.6 C64.8,60.5 65.9,59.6 67,58.9 C68.1,58.3 69.3,58 70.5,58 C72.3,58 74.4,58.9 77,60.7 L92.9,72 C94.3,72.8 95.1,73.9 95.6,75.1 C96.1,76.3 96.4,77.7 96.4,79 C96.4,80.8 96.1,82.5 95.3,84.3 C94.5,86.1 93.4,87.7 92.1,89.3 C89.8,92 87.1,93.9 84.3,95.1 C81.3,96.4 78.2,96.9 75,96.9 C70,96.9 64.7,95.8 59.2,93.4 C53.7,91 48,87.7 42.5,83.7 C36.9,79.7 31.6,75.1 26.5,70 C21.5,64.8 17.1,59.6 13.1,53.8 C9,48.2 5.8,42.7 3.5,37.2 C1.2,31.8 0,26.6 0,21.6 C0,18.4 0.7,15.3 1.8,12.3 C2.9,9.4 4.7,6.8 7.3,4.4 C10.4,1.5 13.7,0 17.3,0 Z M100.2,2 C105.1,2 107.9,4.8 107.9,9.7 L107.9,32.2 C107.9,35.2 105.4,37.4 102.3,37.4 C99.1,37.4 96.7,35.1 96.7,32.1 L96.7,26.6 L97.5,19.9 L93.7,24.3 L80.2,37.7 C79.1,38.8 77.6,39.4 76.1,39.4 C74.4,39.4 72.8,38.8 71.8,37.7 L52.5,18.4 C51.4,17.3 50.8,15.8 50.8,14.3 C50.8,10.9 53.1,8.5 56.2,8.5 C57.9,8.5 59.4,9.1 60.6,10.3 L76.1,25.8 L85.7,16.2 L90.2,12.4 L83.1,13.2 L77.3,13.2 C74.3,13.2 72,10.8 72,7.6 C72,4.5 74.2,2 77.2,2 Z" id="Shape"></path>
            </g>
            <g id="Bold-M" transform="translate(2287.590000, 1045.900000)" fill="#000000" fill-rule="nonzero">
                <path d="M16.8,0 C18.2,0 19.5,0.3 20.7,0.8 C22.1,1.3 23,2.2 23.9,3.4 L34.8,18.8 C36.5,21.2 37.4,23.3 37.4,25.1 C37.4,26.3 37,27.3 36.3,28.4 C35.7,29.5 34.8,30.5 33.7,31.7 L30.2,35.2 C29.7,35.8 29.4,36.4 29.4,37.2 C29.4,37.6 29.4,38.1 29.5,38.4 C29.6,38.6 29.8,39 29.9,39.3 C30.9,40.8 32.3,42.9 34.4,45.3 C36.6,47.6 38.8,50 41.2,52.5 C43.5,55 46,57.2 48.4,59.3 C50.7,61.4 52.8,62.9 54.4,63.8 C54.6,63.9 54.9,64.1 55.3,64.2 C55.7,64.3 56.1,64.3 56.5,64.3 C57.3,64.3 58,64 58.5,63.5 L62,60 C63.2,59 64.2,58.1 65.3,57.4 C66.3,56.8 67.5,56.5 68.7,56.5 C70.4,56.5 72.5,57.4 75,59.1 L90.5,70.1 C91.8,70.9 92.6,71.9 93.1,73.1 C93.6,74.3 93.9,75.6 93.9,76.9 C93.9,78.6 93.6,80.3 92.8,82 C92,83.7 90.9,85.3 89.6,86.9 C87.4,89.6 84.8,91.4 82,92.6 C79.1,93.8 76.1,94.3 72.9,94.3 C68,94.3 62.9,93.3 57.5,90.9 C52.1,88.5 46.6,85.3 41.2,81.4 C35.7,77.5 30.6,73 25.6,68 C20.7,63 16.4,57.8 12.7,52.6 C8.8,47.2 5.6,41.8 3.4,36.4 C1.2,31.2 0,26.1 0,21.2 C0,18 0.6,15 1.7,12.1 C2.8,9.2 4.6,6.7 7.1,4.3 C10.1,1.4 13.3,0 16.8,0 Z M99.3,0.4 C103.7,0.4 106.2,2.9 106.2,7.4 L106.2,32.8 C106.2,35.7 103.8,37.9 100.8,37.8 C97.8,37.8 95.6,35.6 95.6,32.7 L95.6,26.7 L96.5,17.1 L91.3,23 L78.5,35.8 C77.4,36.8 76.1,37.4 74.6,37.4 C73.2,37.4 71.9,36.9 70.9,36.1 L49.6,14.8 C48.6,13.7 48,12.4 48,10.9 C48,7.7 50.2,5.4 53.1,5.4 C54.7,5.4 56,5.9 57.2,7.1 L74.6,24.5 L83.7,15.3 L89.7,10.1 L79.9,11 L73.7,11 C70.8,11 68.6,8.8 68.6,5.8 C68.5,2.8 70.7,0.4 73.6,0.4 Z" id="Shape"></path>
            </g>
            <g id="Semibold-M" transform="translate(1990.790000, 1046.400000)" fill="#000000" fill-rule="nonzero">
                <path d="M16.6,0.3 C18,0.3 19.3,0.6 20.5,1.1 C21.8,1.6 22.7,2.5 23.6,3.7 L34.3,18.8 C36,21.1 36.9,23.2 36.9,25 C36.9,26.1 36.5,27.2 35.9,28.2 C35.2,29.2 34.3,30.2 33.3,31.4 L29.8,34.9 C29.3,35.4 29,36 29,36.8 C29,37.2 29,37.7 29.1,38 C29.2,38.3 29.4,38.6 29.5,38.9 C30.4,40.4 31.8,42.5 33.9,44.8 C36.1,47.1 38.3,49.5 40.6,51.9 C42.9,54.3 45.4,56.5 47.7,58.6 C50,60.7 52,62.1 53.6,63 C53.9,63.1 54.1,63.3 54.5,63.4 C54.9,63.5 55.3,63.5 55.7,63.5 C56.4,63.5 57.1,63.2 57.6,62.7 L61.1,59.2 C62.2,58.2 63.3,57.2 64.3,56.6 C65.4,56 66.5,55.7 67.7,55.7 C69.4,55.7 71.4,56.6 73.9,58.3 L89.2,69.2 C90.5,70 91.3,71 91.8,72.2 C92.3,73.4 92.6,74.7 92.6,76 C92.6,77.6 92.4,79.3 91.6,81 C90.8,82.7 89.8,84.2 88.5,85.8 C86.3,88.4 83.7,90.2 81,91.4 C78.2,92.6 75.2,93.1 72.1,93.1 C67.3,93.1 62.3,92 57,89.7 C51.7,87.4 46.3,84.3 41,80.4 C35.6,76.5 30.5,72.1 25.6,67.2 C20.8,62.3 16.6,57.2 12.6,52 C8.7,46.7 5.6,41.4 3.4,36.1 C1.2,30.9 0,25.9 0,21.1 C0,18 0.7,15 1.7,12.2 C2.7,9.4 4.5,6.9 7,4.6 C10,1.7 13.1,0.3 16.6,0.3 Z M100,0 C103.9,0 106,2.1 106,6 L106,32.3 C106,34.9 103.8,37 101.1,36.9 C98.4,36.9 96.4,34.9 96.4,32.3 L96.4,26.1 L97.3,14.9 L91.3,21.6 L78.5,34.4 C77.5,35.3 76.3,35.8 75,35.8 C73.6,35.8 72.3,35.3 71.4,34.4 L50,13 C49.1,12 48.6,10.8 48.6,9.5 C48.6,6.6 50.6,4.5 53.2,4.5 C54.6,4.5 55.8,5 56.9,6.1 L74.8,24.2 L84.3,14.7 L91.1,8.7 L79.8,9.6 L73.3,9.6 C70.8,9.6 68.7,7.6 68.7,4.9 C68.6,2.2 70.7,0 73.3,0 Z" id="Shape"></path>
            </g>
            <g id="Medium-M" transform="translate(1694.000000, 1046.300000)" fill="#000000" fill-rule="nonzero">
                <path d="M16.3,1.2 C17.7,1.2 19,1.5 20.1,2 C21.4,2.5 22.3,3.4 23.2,4.5 L33.8,19.4 C35.4,21.7 36.3,23.7 36.3,25.5 C36.3,26.7 35.9,27.7 35.3,28.7 C34.7,29.7 33.8,30.8 32.8,31.9 L29.4,35.3 C28.9,35.8 28.6,36.4 28.6,37.2 C28.6,37.5 28.6,38 28.7,38.3 C28.8,38.6 29,38.9 29.1,39.2 C30,40.8 31.4,42.8 33.4,45.1 C35.5,47.4 37.7,49.7 40,52.1 C42.3,54.5 44.7,56.7 47,58.7 C49.3,60.7 51.4,62.1 52.9,63 C53.2,63.1 53.4,63.3 53.8,63.4 C54.1,63.5 54.5,63.5 54.9,63.5 C55.7,63.5 56.3,63.2 56.8,62.7 L60.2,59.3 C61.4,58.3 62.4,57.4 63.4,56.8 C64.4,56.2 65.6,55.9 66.7,55.9 C68.3,55.9 70.4,56.7 72.8,58.4 L87.8,69.1 C89,69.8 89.8,70.8 90.3,72 C90.8,73.2 91.1,74.4 91.1,75.7 C91.1,77.4 90.9,79 90.1,80.7 C89.3,82.3 88.3,83.9 87,85.4 C84.8,88 82.3,89.8 79.6,90.9 C76.8,92.1 73.9,92.6 70.8,92.6 C66.1,92.6 61.1,91.6 55.9,89.3 C50.7,87 45.3,83.9 40.1,80.1 C34.7,76.3 29.7,71.9 24.9,67.1 C20.2,62.3 16,57.3 12.4,52.2 C8.5,47 5.5,41.7 3.3,36.5 C1.1,31.4 0,26.4 0,21.7 C0,18.6 0.7,15.7 1.7,12.9 C2.7,10.1 4.5,7.7 6.9,5.4 C9.8,2.6 12.9,1.2 16.3,1.2 Z M99.7,0 C103.1,0 104.9,1.8 104.9,5.3 L104.9,32.3 C104.9,34.8 102.8,36.7 100.4,36.6 C97.9,36.6 96.1,34.7 96.1,32.3 L96.1,26 L97,13.6 L90.4,20.9 L77.4,34 C76.5,34.9 75.4,35.3 74.2,35.3 C73,35.3 71.9,34.9 71.1,34.2 L49.1,12.3 C48.2,11.4 47.8,10.3 47.8,9.1 C47.8,6.5 49.7,4.5 52.1,4.5 C53.4,4.5 54.5,4.9 55.5,5.9 L74.1,24.5 L84.1,14.5 L91.5,7.9 L79,8.8 L72.4,8.8 C70,8.8 68.2,7.1 68.1,4.6 C68,2 70,0 72.4,0 Z" id="Shape"></path>
            </g>
            <g id="Regular-M" transform="translate(1401.290000, 1046.100000)" fill="#000000" fill-rule="nonzero">
                <path d="M24.9,66.7 C29.7,71.5 34.6,75.8 39.9,79.5 C45.1,83.3 50.4,86.3 55.5,88.6 C60.7,90.9 65.6,91.9 70.2,91.9 C73.2,91.9 76.1,91.4 78.9,90.3 C81.5,89.2 84.1,87.4 86.2,84.9 C87.5,83.4 88.5,81.9 89.2,80.2 C89.9,78.5 90.2,76.9 90.2,75.3 C90.2,74 89.9,72.8 89.4,71.6 C88.9,70.5 88.1,69.5 86.9,68.7 L72,58.1 C69.6,56.5 67.6,55.6 66,55.6 C64.9,55.6 63.7,55.9 62.7,56.5 C61.7,57.1 60.7,58 59.6,59 L56.2,62.4 C55.7,62.9 55.1,63.2 54.3,63.2 C53.9,63.2 53.5,63.2 53.2,63.1 C52.8,63 52.6,62.8 52.3,62.7 C50.8,61.8 48.8,60.4 46.5,58.4 C44.2,56.4 41.8,54.2 39.6,51.8 C37.3,49.4 35.2,47.1 33,44.9 C31,42.6 29.6,40.6 28.7,39.1 C28.6,38.8 28.4,38.5 28.3,38.2 C28.2,37.9 28.2,37.4 28.2,37.1 C28.2,36.3 28.5,35.7 29,35.2 L32.4,31.8 C33.4,30.7 34.3,29.7 34.9,28.7 C35.5,27.7 35.9,26.7 35.9,25.6 C35.9,23.8 35,21.8 33.4,19.6 L22.9,4.9 C22,3.8 21.1,2.9 19.9,2.4 C18.8,1.9 17.5,1.6 16.1,1.6 C12.7,1.6 9.7,3 6.8,5.8 C4.4,8.1 2.6,10.5 1.6,13.2 C0.6,15.9 -1.77635684e-15,18.9 -1.77635684e-15,21.9 C-1.77635684e-15,26.6 1.1,31.5 3.3,36.5 C5.4,41.7 8.5,46.8 12.2,52 C16,57 20.2,61.9 24.9,66.7 Z M93.6,1 C92.9,0.3 92,0 90.7,0 L64.2,0 C63.2,0 62.3,0.3 61.6,1.1 C60.9,1.9 60.6,2.7 60.6,3.7 C60.6,4.6 60.9,5.4 61.7,6.1 C62.4,6.7 63.2,7 64.2,7 L71.6,7 L84.1,6.2 L76.8,12.8 L65.8,23.9 L48.7,6.8 C47.9,6 47,5.7 46,5.7 C45.1,5.7 44.2,6 43.6,6.7 C43,7.4 42.6,8.3 42.6,9.3 C42.6,10.3 42.9,11.1 43.7,11.9 C43.7,11.9 62.5,30.7 63.3,31.5 C64.1,32.3 64.9,32.5 65.9,32.5 C66.9,32.5 67.7,32.2 68.5,31.4 L81.9,17.9 L88.5,10.7 L87.6,23.2 L87.6,30.6 C87.6,31.5 87.9,32.4 88.6,33 C89.3,33.6 90.1,34 91,34 C92,34.1 92.8,33.8 93.6,33.1 C94.4,32.4 94.7,31.5 94.7,30.6 L94.7,4.1 C94.5,2.7 94.3,1.7 93.6,1 Z" id="Shape"></path>
            </g>
            <g id="Light-M" transform="translate(1101.311000, 1046.100000)" fill="#000000" fill-rule="nonzero">
                <path d="M15.9,2.4 C17.2,2.4 18.3,2.8 19.5,3.3 C20.6,4 21.7,4.9 22.6,6.2 L32.5,20.4 C33.8,22.2 34.5,23.9 34.5,25.5 C34.5,26.6 34.2,27.6 33.7,28.8 C33.2,29.9 32.2,31.1 31.2,32.4 L27.7,36.3 C27.3,36.8 27,37.3 27,38 C27,38.3 27.1,38.5 27.1,38.8 C27.1,39.1 27.3,39.3 27.4,39.6 C28.1,41.1 29.4,43 31.2,45.5 C33.1,48 35.3,50.5 38,53.2 C40.7,55.8 43.3,58.2 45.8,60 C48.2,62 50.2,63.1 51.5,63.8 C51.9,64 52.1,64 52.4,64.1 C52.8,64.2 53,64.2 53.3,64.2 C54.1,64.2 54.8,63.9 55.3,63.4 L58.9,59.9 C60.2,58.7 61.4,57.9 62.4,57.4 C63.4,56.9 64.5,56.6 65.5,56.6 C67.1,56.6 68.8,57.2 70.6,58.4 L85.7,68.9 C86.9,69.8 87.8,70.8 88.3,71.8 C88.8,72.8 89.1,73.9 89.1,74.9 C89.1,76.5 88.7,78.1 87.7,79.8 C86.6,81.4 85.6,82.8 84.4,84 C82,86.4 79.4,88.1 76.7,89.3 C73.9,90.5 70.9,91 67.5,91 C62.8,91 57.9,90 52.7,87.9 C47.5,85.8 42.4,82.9 37.5,79.4 C32.6,75.8 27.9,71.9 23.6,67.6 C19.3,63.2 15.1,58.6 11.6,53.3 C8,48.2 5.2,43.2 3.1,38.1 C1,33.1 0,28.1 0,23.3 C0,20.2 0.6,17.4 1.6,14.5 C2.7,11.7 4.4,9.1 6.7,6.8 C9.7,3.8 12.8,2.4 15.9,2.4 Z M102.489,0 C104.689,0 105.789,1.2 105.789,3.4 L105.789,31.9 C105.789,33.6 104.289,35 102.589,34.9 C100.989,34.9 99.689,33.6 99.689,31.9 L99.689,23.6 L100.389,9.4 L92.989,17.3 L79.189,31.1 C78.589,31.7 77.889,32 76.989,32 C76.189,32 75.389,31.6 74.789,31.1 L56.989,13.5 C56.389,12.9 56.089,12.2 56.089,11.3 C56.089,9.5 57.389,8.1 59.089,8.1 C59.989,8.1 60.789,8.4 61.489,9.1 L76.889,24.5 L88.589,12.8 L96.589,5.4 L82.389,6.1 L73.489,6.1 C71.889,6.1 70.489,4.9 70.489,3.2 C70.389,1.5 71.789,0 73.489,0 Z" id="Shape"></path>
            </g>
            <g id="Thin-M" transform="translate(805.511000, 1046.300000)" fill="#000000" fill-rule="nonzero">
                <path d="M15.5,2.6 C16.8,2.6 18,3 19.1,3.5 C20.3,4.1 21.3,5 22.2,6.3 L31.9,20.2 C33.2,22 33.8,23.7 33.8,25.2 C33.8,26.2 33.5,27.2 33,28.4 C32.5,29.6 31.6,30.7 30.6,32 L27.2,35.8 C26.9,36.4 26.6,36.9 26.6,37.5 C26.6,37.8 26.7,38 26.7,38.3 C26.7,38.6 26.9,38.8 27,39.1 C27.6,40.5 28.9,42.4 30.7,44.8 C32.5,47.2 34.6,49.6 37.3,52.3 C39.9,54.8 42.5,57.1 44.9,58.9 C47.3,60.8 49.2,62 50.5,62.6 C50.9,62.8 51.1,62.8 51.4,62.9 C51.8,63 52,63 52.3,63 C53.1,63 53.7,62.7 54.2,62.2 L57.8,58.8 C59,57.7 60.2,56.9 61.2,56.4 C62.3,55.9 63.3,55.6 64.3,55.6 C65.9,55.6 67.5,56.3 69.3,57.4 L84.1,67.7 C85.2,68.6 86.1,69.4 86.6,70.5 C87.1,71.6 87.4,72.6 87.4,73.6 C87.4,75.2 87,76.7 86,78.4 C85,80 83.9,81.4 82.8,82.5 C80.5,84.9 78,86.6 75.3,87.7 C72.5,88.9 69.6,89.4 66.3,89.4 C61.7,89.4 56.9,88.3 51.8,86.3 C46.7,84.2 41.7,81.4 36.9,78 C32.1,74.4 27.5,70.6 23.3,66.4 C19.1,62 14.9,57.4 11.4,52.4 C7.9,47.4 5.2,42.5 3.1,37.5 C1,32.5 0,27.7 0,23 C0,20 0.5,17.2 1.5,14.4 C2.6,11.7 4.2,9.2 6.5,6.9 C9.4,4 12.4,2.6 15.5,2.6 Z M103.3,0 C104.7,0 105.4,0.7 105.4,2 L105.4,30.9 C105.4,31.9 104.5,32.8 103.4,32.8 C102.3,32.8 101.5,31.9 101.5,30.9 L101.5,20.5 L101.8,5.9 L94.4,13.6 L76.6,31.4 C76.2,31.8 75.6,32 75.1,32 C74.6,32 74.1,31.8 73.7,31.5 L55.4,13.3 C55,12.9 54.8,12.3 54.8,11.8 C54.8,10.7 55.7,9.8 56.7,9.8 C57.3,9.8 57.8,10 58.3,10.5 L75.1,27.3 L91.7,10.9 L99.4,3.5 L84.8,3.9 L74.4,3.9 C73.3,3.9 72.4,3.1 72.4,2 C72.4,1 73.3,0 74.4,0 Z" id="Shape"></path>
            </g>
            <g id="Ultralight-M" transform="translate(510.311000, 1045.900000)" fill="#000000" fill-rule="nonzero">
                <path d="M23.3,65.4 C27.5,69.6 32.1,73.4 36.9,77 C41.7,80.4 46.7,83.2 51.8,85.3 C56.9,87.4 61.7,88.4 66.3,88.4 C69.6,88.4 72.5,87.9 75.3,86.7 C78,85.6 80.5,83.9 82.8,81.5 C83.9,80.4 85,79 86,77.4 C87,75.7 87.4,74.2 87.4,72.6 C87.4,71.6 87.1,70.6 86.6,69.5 C86.1,68.4 85.2,67.6 84.1,66.7 L69.3,56.4 C67.5,55.3 65.9,54.6 64.3,54.6 C63.3,54.6 62.3,54.9 61.2,55.4 C60.2,55.9 59,56.7 57.8,57.8 L54.2,61.2 C53.7,61.7 53.1,62 52.3,62 C52,62 51.8,62 51.4,61.9 C51.1,61.8 50.9,61.8 50.5,61.6 C49.2,61 47.3,59.8 44.9,57.9 C42.5,56.1 39.9,53.8 37.3,51.3 C34.6,48.6 32.5,46.2 30.7,43.8 C28.9,41.4 27.6,39.5 27,38.1 C26.9,37.8 26.7,37.6 26.7,37.3 C26.7,37 26.6,36.8 26.6,36.5 C26.6,35.9 26.9,35.4 27.2,34.8 L30.6,31 C31.6,29.7 32.5,28.6 33,27.4 C33.5,26.2 33.8,25.2 33.8,24.2 C33.8,22.7 33.2,21 31.9,19.2 L22.2,5.3 C21.3,4 20.3,3.1 19.1,2.5 C18,2 16.8,1.6 15.5,1.6 C12.4,1.6 9.4,3 6.5,5.9 C4.2,8.2 2.6,10.7 1.5,13.4 C0.5,16.2 -3.55271368e-15,19 -3.55271368e-15,22.1 C-3.55271368e-15,26.8 1,31.7 3.1,36.6 C5.2,41.5 7.9,46.5 11.4,51.5 C15,56.6 19.1,61.1 23.3,65.4 Z M44.2,10.8 C44.7,10.3 45.5,10.3 46,10.8 L64.9,29.7 L79.5,15.1 L92.3,2.5 L78.5,2.6 L67.3,2.6 C66.9,2.6 66.7,2.5 66.4,2.2 C66.2,2 66,1.6 66,1.3 C66,1 66.1,0.7 66.4,0.4 C66.6,0.2 67,0 67.3,0 L95.1,0 C95.5,0 95.8,0.1 96,0.4 C96.2,0.7 96.4,1 96.4,1.5 L96.4,29.6 C96.4,30 96.3,30.3 96,30.5 C95.8,30.7 95.4,30.9 95.1,30.9 C94.7,30.9 94.4,30.8 94.2,30.5 C94,30.3 93.8,29.9 93.8,29.6 L93.8,17.9 L94,4.1 L81.4,16.8 L66,32.2 L65.9,32.3 L65.9,32.3 C65.9,32.3 65.9,32.3 65.8,32.3 C65.7,32.4 65.6,32.5 65.4,32.5 L65.3,32.5 C65.2,32.5 65.1,32.6 64.9,32.6 C64.7,32.6 64.5,32.6 64.4,32.5 C64.3,32.4 64,32.4 63.9,32.3 L44.1,12.5 C43.7,12.1 43.7,11.3 44.2,10.8 Z" id="Shape"></path>
            </g>
            <g id="Black-S" transform="translate(2888.350000, 622.400000)" fill="#000000" fill-rule="nonzero">
                <path d="M78.1,61.2 C78.7,62.4 79,63.7 79,65 C79,66.4 78.8,67.8 78.2,69.1 C77.6,70.4 76.8,71.7 75.7,72.9 C73.8,75 71.7,76.5 69.3,77.5 C66.9,78.5 64.4,79 61.7,79 C57.7,79 53.4,78 48.9,76.1 C44.4,74.1 39.8,71.5 35.3,68.2 C30.7,64.9 26.4,61.2 22.2,57 C18,52.8 14.3,48.5 10.8,43.7 C7.4,39.1 4.8,34.6 2.9,30.1 C1,25.6 0,21.3 0,17.3 C0,14.6 0.5,12.1 1.5,9.7 C2.4,7.3 4,5.2 6.1,3.3 C8.5,1.1 11.1,0 14,0 C15.3,0 16.6,0.2 17.8,0.8 C19,1.4 20,2.3 20.9,3.5 L29.4,15.4 C30.8,17.4 31.5,19.1 31.5,20.7 C31.5,21.8 31.2,22.7 30.7,23.6 C30.2,24.5 29.4,25.5 28.5,26.4 L25.5,29.4 C25.1,29.9 24.9,30.4 24.9,31 C24.9,31.4 25,31.7 25.1,32 C25.2,32.3 25.4,32.6 25.5,32.8 C26.3,34.1 27.5,35.8 29.3,37.8 C31.1,39.9 33,41.9 35,43.9 C37,46 39.1,47.8 41.1,49.6 C43.1,51.4 44.8,52.7 46.1,53.4 C46.3,53.6 46.6,53.7 46.9,53.8 C47.3,53.9 47.6,54 47.9,54 C48.6,54 49.1,53.8 49.5,53.4 L52.5,50.4 C53.5,49.5 54.4,48.7 55.3,48.2 C56.2,47.7 57.2,47.4 58.2,47.4 C59.7,47.4 61.5,48.1 63.5,49.5 L75.4,58 C76.6,58.9 77.5,60 78.1,61.2 Z M44.5,10.8 C46.6,8.7 50.1,8.7 52.3,10.8 L62.1,20.6 L67.4,15.3 L70.3,12.8 L66.1,13.4 L61.4,13.4 C60,13.4 58.8,12.9 57.8,11.9 C56.8,10.9 56.4,9.6 56.4,8.1 C56.4,6.6 56.9,5.3 57.8,4.3 C58.7,3.3 59.9,2.8 61.3,2.8 L80.1,2.8 C82.5,2.8 84.4,3.5 85.7,4.8 C87,6.1 87.7,8 87.7,10.4 L87.7,29.6 C87.7,31 87.2,32.2 86.2,33.1 C85.2,34 83.9,34.5 82.4,34.5 C80.9,34.5 79.6,34 78.6,33.1 C77.6,32.1 77.1,30.9 77.1,29.5 L77.1,24.5 L77.8,20 L75.4,23.1 L66.3,32.2 C66,32.5 65.7,32.8 65.3,33 C64.4,33.6 63.3,33.9 62.2,33.9 C62,33.9 61.9,33.9 61.7,33.9 C60.6,33.8 59.6,33.4 58.7,32.7 C58.5,32.6 58.4,32.5 58.2,32.3 L44.5,18.6 C42.4,16.4 42.4,12.9 44.5,10.8 Z" id="Shape"></path>
            </g>
            <g id="Heavy-S" transform="translate(2593.190000, 623.600000)" fill="#000000" fill-rule="nonzero">
                <path d="M13.7,0 C14.9,0 15.9,0.2 16.9,0.6 C18,1 18.7,1.7 19.5,2.7 L28.4,15.3 C29.7,17.2 30.5,18.9 30.5,20.4 C30.5,21.4 30.1,22.2 29.6,23.1 C29.1,24 28.4,24.8 27.5,25.8 L24.6,28.7 C24.2,29.1 24,29.7 24,30.3 C24,30.7 24,31 24.1,31.3 C24.2,31.6 24.3,31.9 24.4,32.1 C25.1,33.4 26.3,35.1 28,37 C29.8,38.9 31.7,40.8 33.6,42.9 C35.5,45 37.6,46.8 39.5,48.5 C41.4,50.2 43.1,51.3 44.4,52.1 C44.7,52.2 44.9,52.3 45.2,52.4 C45.6,52.5 45.9,52.5 46.2,52.5 C46.8,52.5 47.4,52.3 47.8,51.9 L50.7,49 C51.7,48.2 52.5,47.4 53.4,46.9 C54.3,46.3 55.2,46.1 56.2,46.1 C57.5,46.1 59.3,46.8 61.3,48.2 L74,57.2 C75,57.9 75.7,58.7 76.1,59.7 C76.5,60.7 76.7,61.7 76.7,62.8 C76.7,64.2 76.5,65.6 75.8,67 C75.1,68.4 74.3,69.7 73.2,71 C71.4,73.1 69.3,74.6 67,75.6 C64.6,76.6 62.2,77 59.6,77 C55.6,77 51.4,76.1 47,74.2 C42.6,72.3 38.1,69.7 33.7,66.5 C29.2,63.3 25,59.7 20.9,55.6 C16.9,51.5 13.4,47.3 10.4,42.8 C7.2,38.4 4.6,34 2.8,29.6 C1,25.4 0,21.2 0,17.2 C0,14.6 0.5,12.2 1.4,9.8 C2.3,7.5 3.8,5.4 5.8,3.5 C8.2,1.2 10.8,0 13.7,0 Z M79,1.4 C83.2,1.4 85.6,3.8 85.6,8 L85.6,27.5 C85.6,30.1 83.5,32 80.8,32 C78.1,32 76,30 76,27.4 L76,22.7 L76.7,16.9 L73.4,20.7 L63.6,30.5 C62.7,31.4 61.4,31.9 60.1,31.9 C58.6,31.9 57.3,31.3 56.4,30.4 L41.5,15.5 C40.5,14.6 40,13.3 40,12 C40,9.1 42,7 44.6,7 C46.1,7 47.4,7.5 48.4,8.5 L60,20.1 L66.5,13.6 L70.4,10.4 L64.3,11.1 L59.3,11.1 C56.7,11.1 54.7,9.1 54.7,6.3 C54.7,3.5 56.6,1.4 59.2,1.4 Z" id="Shape"></path>
            </g>
            <g id="Bold-S" transform="translate(2298.290000, 624.600000)" fill="#000000" fill-rule="nonzero">
                <path d="M13.4,0 C14.5,0 15.6,0.2 16.5,0.6 C17.5,1 18.3,1.8 19,2.7 L27.7,15 C29.1,16.9 29.8,18.5 29.8,20 C29.8,20.9 29.5,21.8 29,22.6 C28.5,23.4 27.7,24.3 26.9,25.2 L24.1,28 C23.7,28.4 23.5,29 23.5,29.6 C23.5,29.9 23.5,30.3 23.6,30.5 C23.7,30.7 23.8,31 23.9,31.2 C24.7,32.4 25.8,34.1 27.5,36 C29.2,37.9 31,39.8 32.9,41.8 C34.8,43.7 36.8,45.5 38.7,47.2 C40.6,48.9 42.2,50.1 43.5,50.8 C43.7,50.9 43.9,51 44.2,51.1 C44.5,51.2 44.8,51.2 45.1,51.2 C45.8,51.2 46.3,51 46.7,50.6 L49.5,47.8 C50.4,47 51.3,46.2 52.1,45.7 C52.9,45.2 53.9,45 54.8,45 C56.1,45 57.8,45.7 59.8,47.1 L72.2,55.9 C73.3,56.5 73.9,57.4 74.3,58.3 C74.7,59.2 74.9,60.3 74.9,61.3 C74.9,62.7 74.7,64 74.1,65.4 C73.5,66.8 72.6,68 71.6,69.3 C69.8,71.4 67.7,72.9 65.5,73.8 C63.2,74.8 60.8,75.2 58.3,75.2 C54.4,75.2 50.3,74.3 46,72.5 C41.7,70.7 37.3,68.1 33,65 C28.6,61.8 24.5,58.3 20.5,54.3 C16.6,50.3 13.1,46.2 10.1,41.9 C7,37.6 4.5,33.3 2.7,29 C0.9,24.9 0,20.8 0,16.9 C0,14.4 0.6,12 1.4,9.7 C2.2,7.4 3.7,5.4 5.7,3.5 C8.1,1.2 10.6,0 13.4,0 Z M79.5,0.3 C83,0.3 85,2.3 85,5.9 L85,26.2 C85,28.5 83.1,30.2 80.7,30.2 C78.3,30.1 76.5,28.4 76.5,26.1 L76.5,21.3 L77.2,13.7 L73,18.4 L62.6,28.7 C61.7,29.6 60.7,30 59.5,30 C58.3,30 57.3,29.7 56.5,29 L40,12.3 C39.1,11.4 38.7,10.4 38.7,9.2 C38.7,6.7 40.5,4.8 42.8,4.8 C44.1,4.8 45.2,5.3 46.1,6.2 L59.6,19.7 L67,12.3 L71.8,8.1 L64,8.8 L59.1,8.8 C56.8,8.8 55,7 55,4.6 C54.9,2.2 56.7,0.3 59,0.3 Z" id="Shape"></path>
            </g>
            <g id="Semibold-S" transform="translate(2001.790000, 625.200000)" fill="#000000" fill-rule="nonzero">
                <path d="M13.1,0.1 C14.2,0.1 15.3,0.3 16.2,0.7 C17.3,1.2 18,1.9 18.7,2.8 L27.3,14.9 C28.7,16.7 29.4,18.4 29.4,19.8 C29.4,20.8 29.1,21.6 28.6,22.4 C28,23.2 27.3,24.1 26.5,25 L23.7,27.8 C23.3,28.2 23.1,28.7 23.1,29.3 C23.1,29.6 23.1,30 23.2,30.2 C23.3,30.4 23.4,30.7 23.5,30.9 C24.2,32.1 25.4,33.7 27,35.6 C28.8,37.5 30.5,39.3 32.4,41.3 C34.3,43.3 36.2,45.1 38.1,46.7 C39.9,48.3 41.6,49.5 42.8,50.2 C43,50.3 43.2,50.4 43.5,50.5 C43.8,50.6 44.1,50.6 44.4,50.6 C45,50.6 45.5,50.4 45.9,50 L48.7,47.2 C49.7,46.3 50.5,45.6 51.3,45.1 C52.1,44.6 53.1,44.4 54,44.4 C55.3,44.4 56.9,45.2 58.9,46.5 L71.1,55.2 C72.2,55.8 72.8,56.7 73.2,57.6 C73.6,58.5 73.8,59.6 73.8,60.6 C73.8,61.9 73.6,63.3 73,64.6 C72.4,65.9 71.5,67.2 70.5,68.4 C68.7,70.4 66.7,71.9 64.5,72.8 C62.2,73.7 59.9,74.1 57.4,74.1 C53.5,74.1 49.5,73.3 45.3,71.4 C41.1,69.6 36.7,67.1 32.5,64 C28.1,60.9 24.1,57.4 20.2,53.5 C16.4,49.5 13,45.5 10,41.4 C6.9,37.2 4.5,32.9 2.7,28.7 C0.9,24.5 0,20.5 0,16.7 C0,14.2 0.5,11.9 1.3,9.6 C2.1,7.3 3.5,5.4 5.5,3.5 C7.8,1.2 10.3,0.1 13.1,0.1 Z M79.3,0 C82.4,0 84.1,1.7 84.1,4.8 L84.1,25.6 C84.1,27.7 82.3,29.4 80.2,29.3 C78.1,29.3 76.5,27.7 76.5,25.6 L76.5,20.8 L77.2,11.9 L72.4,17.2 L63,26.6 C62.2,27.3 61.3,27.7 60.2,27.7 C59,27.7 58,27.3 57.3,26.6 L40.3,9.6 C39.6,8.8 39.2,7.9 39.2,6.8 C39.2,4.5 40.8,2.8 42.9,2.8 C44.1,2.8 45,3.1 45.9,4 L60.1,18.5 L66.8,11.7 L72.2,6.9 L63.2,7.6 L58.3,7.6 C56.2,7.6 54.6,6 54.6,3.9 C54.6,1.7 56.2,0 58.3,0 Z" id="Shape"></path>
            </g>
            <g id="Medium-S" transform="translate(1704.490000, 624.800000)" fill="#000000" fill-rule="nonzero">
                <path d="M13,1.1 C14.1,1.1 15.1,1.3 16,1.7 C17,2.1 17.7,2.8 18.4,3.7 L26.8,15.6 C28.1,17.5 28.8,19.1 28.8,20.5 C28.8,21.4 28.5,22.2 28,23 C27.5,23.8 26.8,24.6 26,25.5 L23.3,28.2 C22.9,28.6 22.7,29.1 22.7,29.7 C22.7,30 22.7,30.4 22.8,30.6 C22.9,30.8 23,31.1 23.1,31.3 C23.9,32.5 25,34.2 26.6,36 C28.3,37.8 30.1,39.7 31.9,41.6 C33.7,43.5 35.7,45.3 37.5,46.9 C39.4,48.6 41,49.7 42.2,50.4 C42.4,50.5 42.6,50.6 42.9,50.7 C43.2,50.8 43.5,50.8 43.8,50.8 C44.4,50.8 44.9,50.6 45.3,50.2 L48.1,47.5 C49,46.7 49.8,46 50.6,45.5 C51.4,45 52.3,44.8 53.2,44.8 C54.5,44.8 56.2,45.5 58.1,46.8 L70.1,55.3 C71.1,55.9 71.7,56.7 72.1,57.6 C72.5,58.5 72.7,59.5 72.7,60.5 C72.7,61.9 72.5,63.1 71.9,64.5 C71.3,65.9 70.5,67.1 69.5,68.3 C67.8,70.4 65.7,71.8 63.6,72.7 C61.4,73.6 59,74 56.6,74 C52.8,74 48.9,73.2 44.7,71.4 C40.5,69.6 36.3,67.1 32.1,64.1 C27.8,61 23.9,57.6 20,53.7 C16.2,49.8 12.8,46 9.8,41.8 C6.8,37.6 4.3,33.5 2.6,29.3 C0.9,25.2 0,21.3 0,17.5 C0,15.1 0.5,12.7 1.3,10.5 C2.1,8.3 3.6,6.3 5.5,4.5 C7.8,2.2 10.3,1.1 13,1.1 Z M79.6,0 C82.4,0 83.8,1.5 83.8,4.3 L83.8,25.5 C83.8,27.4 82.1,29 80.2,28.9 C78.3,28.9 76.8,27.4 76.8,25.5 L76.8,20.7 L77.5,10.9 L72.2,16.7 L62.4,26.5 C61.7,27.3 60.9,27.6 59.9,27.6 C59,27.6 58.1,27.3 57.5,26.8 L40,9.3 C39.2,8.6 38.9,7.8 38.9,6.8 C38.9,4.8 40.4,3.2 42.3,3.2 C43.3,3.2 44.2,3.5 45,4.3 L59.8,19.1 L67.1,11.5 L73,6.3 L63.1,7 L58.2,7 C56.3,7 54.8,5.6 54.8,3.6 C54.7,1.6 56.2,0 58.2,0 Z" id="Shape"></path>
            </g>
            <g id="Regular-S" transform="translate(1407.690000, 625.000000)" fill="#000000" fill-rule="nonzero">
                <path d="M19.7,53.3 C23.5,57.1 27.4,60.5 31.6,63.5 C35.7,66.5 39.9,68.9 44,70.7 C48.1,72.5 52,73.3 55.7,73.3 C58.1,73.3 60.4,72.9 62.6,72 C64.7,71.1 66.7,69.7 68.4,67.7 C69.4,66.5 70.2,65.3 70.8,64 C71.4,62.7 71.6,61.4 71.6,60.1 C71.6,59.1 71.4,58.1 71,57.2 C70.6,56.3 70,55.5 69,54.9 L57.2,46.5 C55.3,45.2 53.7,44.5 52.4,44.5 C51.5,44.5 50.6,44.7 49.8,45.2 C49,45.7 48.2,46.4 47.3,47.2 L44.6,49.9 C44.2,50.3 43.7,50.5 43.1,50.5 C42.8,50.5 42.5,50.5 42.2,50.4 C41.9,50.3 41.7,50.2 41.5,50.1 C40.3,49.4 38.7,48.3 36.9,46.7 C35.1,45.1 33.2,43.4 31.4,41.5 C29.6,39.6 27.9,37.8 26.2,36 C24.6,34.2 23.5,32.6 22.8,31.4 C22.7,31.2 22.6,30.9 22.5,30.7 C22.4,30.5 22.4,30.1 22.4,29.8 C22.4,29.2 22.6,28.7 23,28.3 L25.7,25.6 C26.5,24.7 27.2,23.9 27.7,23.1 C28.2,22.3 28.5,21.5 28.5,20.6 C28.5,19.2 27.8,17.6 26.5,15.8 L18.2,4.1 C17.5,3.2 16.8,2.5 15.8,2.1 C14.9,1.7 13.9,1.5 12.8,1.5 C10.1,1.5 7.7,2.6 5.4,4.8 C3.5,6.6 2.1,8.5 1.3,10.7 C0.5,12.9 8.8817842e-16,15.2 8.8817842e-16,17.6 C8.8817842e-16,21.3 0.9,25.2 2.6,29.2 C4.3,33.3 6.7,37.4 9.7,41.5 C12.7,45.6 16,49.5 19.7,53.3 Z M81.3,0.9 C80.7,0.3 79.9,0 78.7,0 L56.9,0 C56,0 55.2,0.3 54.6,1 C54,1.7 53.7,2.4 53.7,3.3 C53.7,4.1 54,4.8 54.7,5.4 C55.3,5.9 56,6.2 56.9,6.2 L61.7,6.2 L72.8,5.5 L66.3,11.4 L58.2,19.5 L42.8,4.1 C42.1,3.4 41.3,3.1 40.4,3.1 C39.6,3.1 38.8,3.4 38.3,4 C37.8,4.6 37.4,5.4 37.4,6.3 C37.4,7.2 37.7,7.9 38.4,8.6 L56,26.2 L56,26.2 L56,26.2 C56.6,26.8 57.4,27.1 58.3,27.1 C59.2,27.1 59.9,26.8 60.6,26.1 L70.8,15.9 L76.7,9.5 L75.9,20.6 L75.9,25.4 C75.9,26.2 76.2,27 76.8,27.5 C77.4,28 78.1,28.4 78.9,28.4 C79.8,28.5 80.5,28.2 81.2,27.6 C81.9,27 82.2,26.2 82.2,25.4 L82.2,3.6 C82.1,2.4 81.9,1.5 81.3,0.9 Z" id="Shape"></path>
            </g>
            <g id="Light-S" transform="translate(1112.011000, 624.900000)" fill="#000000" fill-rule="nonzero">
                <path d="M12.6,1.8 C13.6,1.8 14.6,2.1 15.5,2.5 C16.4,3 17.3,3.8 18,4.8 L25.9,16.1 C27,17.5 27.5,18.9 27.5,20.1 C27.5,20.9 27.3,21.8 26.9,22.7 C26.5,23.6 25.7,24.6 24.9,25.6 L22.1,28.7 C21.8,29.1 21.6,29.5 21.6,30 C21.6,30.2 21.7,30.4 21.7,30.6 L21.7112,30.72 C21.74,30.88 21.82,31.04 21.9,31.2 C22.4,32.4 23.4,33.9 24.9,35.9 C26.4,37.9 28.1,39.8 30.3,42 C32.5,44.1 34.5,45.9 36.5,47.4 C38.5,48.9 40.1,49.9 41.1,50.4 C41.4,50.5 41.6,50.5 41.8,50.6 C42.1,50.7 42.3,50.7 42.5,50.7 C43.2,50.7 43.7,50.5 44.1,50.1 L47,47.3 C48,46.3 49,45.7 49.8,45.3 C50.6,44.9 51.5,44.7 52.3,44.7 C53.5,44.7 54.8,45.3 56.3,46.2 L68.3,54.6 C69.3,55.3 70,56.1 70.4,56.9 C70.8,57.7 71,58.6 71,59.4 C71,60.7 70.7,62 69.9,63.3 C69.1,64.5 68.2,65.7 67.3,66.6 C65.5,68.6 63.4,70 61.2,70.9 C58.9,71.8 56.5,72.2 53.8,72.2 C50.1,72.2 46.1,71.4 42,69.7 C37.9,68.1 33.8,65.8 29.9,63 C26,60.1 22.2,57 18.8,53.6 C15.4,50.1 12,46.3 9.2,42.3 C6.4,38.3 4.2,34.2 2.5,30.2 C0.8,26.2 0,22.2 0,18.4 C0,16 0.4,13.7 1.2,11.4 C2,9.2 3.3,7.2 5.2,5.3 C7.6,2.9 10.1,1.8 12.6,1.8 Z M81,0 C82.8,0 83.7,0.9 83.7,2.7 L83.7,26.2 C83.7,27.6 82.5,28.7 81.2,28.6 C79.9,28.6 78.9,27.5 78.9,26.2 L78.9,18.8 L79.4,7.5 L73.5,13.8 L59.8,27.5 C59.3,28 58.7,28.2 58,28.2 C57.3,28.2 56.7,27.9 56.2,27.5 L38.9,10.2 C38.4,9.7 38.2,9.1 38.2,8.4 C38.2,7 39.3,5.9 40.6,5.9 C41.3,5.9 41.9,6.1 42.5,6.7 L58,22.2 L70,10.2 L76.3,4.3 L65,4.9 L57.3,4.9 C56,4.9 54.9,3.9 54.9,2.6 C54.8,1.2 55.9,0 57.3,0 Z" id="Shape"></path>
            </g>
            <g id="Thin-S" transform="translate(816.511000, 625.100000)" fill="#000000" fill-rule="nonzero">
                <path d="M12.4,1.9 C13.4,1.9 14.3,2.2 15.2,2.6 C16.1,3.1 16.9,3.8 17.6,4.8 L25.3,15.8 C26.3,17.3 26.8,18.6 26.8,19.8 C26.8,20.6 26.6,21.4 26.2,22.3 C25.8,23.2 25.1,24.1 24.3,25.1 L21.6,28.1 C21.3,28.5 21.1,28.9 21.1,29.4 C21.1,29.6 21.2,29.8 21.2,30 C21.2,30.2 21.3,30.4 21.4,30.6 C21.9,31.8 22.9,33.3 24.3,35.2 C25.7,37.1 27.5,39.1 29.6,41.2 C31.7,43.3 33.8,45.1 35.7,46.5 C37.7,48 39.2,48.9 40.2,49.4 C40.5,49.5 40.7,49.5 40.9,49.6 C41.2,49.7 41.4,49.7 41.6,49.7 C42.2,49.7 42.7,49.5 43.1,49.1 L45.9,46.4 C46.9,45.5 47.8,44.9 48.6,44.5 C49.4,44.1 50.2,43.9 51,43.9 C52.3,43.9 53.6,44.4 55,45.3 L66.8,53.5 C67.7,54.2 68.4,54.9 68.8,55.7 C69.2,56.5 69.4,57.3 69.4,58.1 C69.4,59.5 69.1,60.7 68.3,62 C67.5,63.2 66.7,64.3 65.8,65.2 C64,67.2 61.9,68.5 59.8,69.4 C57.6,70.3 55.2,70.7 52.6,70.7 C48.9,70.7 45.1,69.9 41,68.3 C36.9,66.7 33,64.4 29.1,61.7 C25.3,58.9 21.6,55.8 18.3,52.5 C14.9,49 11.7,45.7 9,41.7 C6.3,37.7 4,33.8 2.4,29.8 C0.8,25.8 0,21.9 0,18.2 C0,15.8 0.4,13.5 1.2,11.3 C2.1,9.2 3.4,7.1 5.2,5.3 C7.5,3 10,1.9 12.4,1.9 Z M81.9,0 C83,0 83.6,0.6 83.6,1.6 L83.6,25.9 C83.6,26.7 82.9,27.4 82,27.4 C81.2,27.4 80.5,26.7 80.5,25.9 L80.5,16.4 L80.8,4.8 L74.9,10.9 L57.2,28.6 C56.8,28.9 56.4,29.1 56,29.1 C55.6,29.1 55.2,28.9 54.9,28.7 L35.8,9.6 C35.5,9.2 35.3,8.8 35.3,8.4 C35.3,7.5 36,6.8 36.8,6.8 C37.3,6.8 37.7,7 38.1,7.4 L56,25.4 L72.7,8.7 L78.8,2.8 L67.2,3.1 L58.2,3.1 C57.3,3.1 56.6,2.5 56.6,1.6 C56.6,0.8 57.4,0 58.2,0 Z" id="Shape"></path>
            </g>
            <g id="Ultralight-S" transform="translate(517.211000, 625.100000)" fill="#000000" fill-rule="nonzero">
                <path d="M18.1,51.8 C21.4,55.1 25,58.1 28.8,60.9 C32.6,63.6 36.5,65.8 40.5,67.4 C44.5,69 48.3,69.8 51.9,69.8 C54.5,69.8 56.8,69.4 59,68.5 C61.1,67.6 63.1,66.3 64.9,64.4 C65.8,63.5 66.6,62.4 67.4,61.2 C68.2,59.9 68.5,58.7 68.5,57.4 C68.5,56.6 68.3,55.8 67.9,55 C67.5,54.2 66.8,53.5 65.9,52.8 L54.3,44.7 C52.9,43.8 51.6,43.3 50.4,43.3 C49.6,43.3 48.8,43.5 48,43.9 C47.2,44.3 46.3,44.9 45.3,45.8 L42.5,48.5 C42.1,48.9 41.6,49.1 41,49.1 C40.8,49.1 40.6,49.1 40.3,49 C40.1,48.9 39.9,48.9 39.6,48.8 C38.6,48.3 37.1,47.4 35.2,45.9 C33.3,44.5 31.3,42.7 29.2,40.7 C27.1,38.6 25.4,36.7 24,34.8 C22.6,32.9 21.6,31.4 21.1,30.3 C21,30.1 20.9,29.9 20.9,29.7 C20.9,29.5 20.8,29.3 20.8,29.1 C20.8,28.6 21,28.2 21.3,27.8 L24,24.8 C24.8,23.8 25.5,22.9 25.9,22 C26.3,21.1 26.5,20.3 26.5,19.5 C26.5,18.3 26,17 25,15.6 L17.4,4.7 C16.7,3.7 15.9,3 15,2.5 C14.1,2.1 13.2,1.8 12.2,1.8 C9.8,1.8 7.4,2.9 5.1,5.2 C3.3,7 2,9 1.2,11.1 C0.4,13.3 -1.77635684e-15,15.5 -1.77635684e-15,17.9 C-1.77635684e-15,21.6 0.8,25.4 2.4,29.3 C4,33.2 6.2,37.1 8.9,41 C11.6,44.9 14.8,48.4 18.1,51.8 Z M54.7,29 C54.4,29 54.1,28.9 53.9,28.7 L34.3,9.2 C33.9,8.8 33.9,8.1 34.3,7.7 C34.7,7.3 35.4,7.3 35.8,7.7 L54.6,26.5 L68.1,12.9 L79.1,2.1 L67.3,2.2 L57.7,2.2 C57.4,2.2 57.2,2.1 56.9,1.9 C56.7,1.7 56.6,1.4 56.6,1.1 C56.6,0.8 56.7,0.6 56.9,0.3 C57.1,0.1 57.4,0 57.7,0 L81.5,0 C81.8,0 82.1,0.1 82.3,0.3 C82.5,0.5 82.6,0.8 82.6,1.2 L82.6,25.3 C82.6,25.6 82.5,25.9 82.3,26.1 C82.1,26.3 81.8,26.4 81.5,26.4 C81.2,26.4 80.9,26.3 80.7,26.1 C80.5,25.9 80.4,25.6 80.4,25.3 L80.4,15.3 L80.6,3.5 L69.8,14.4 L55.6,28.6 C55.4,28.8 55,29 54.7,29 Z" id="Shape"></path>
            </g>
        </g>
    </g>
</svg>