<svg fill="none" viewBox="0 0 32 32" xmlns="http://www.w3.org/2000/svg"><path d="m9.8436 28.714 12.3-23.57c0.22-0.41 0.65-0.67 1.11-0.67 0.97 0 1.58 1.05 1.1 1.9l-12.98 23.19c-0.16 0.27-0.45 0.44-0.76 0.44-0.66001 0-1.08-0.7-0.77001-1.29z" fill="url(#f)"/><path d="m21.884 10.794 2.47-4.41c0.49-0.84-0.12-1.9-1.1-1.9-0.47 0-0.89 0.26-1.11 0.67l-2.45 4.7c0.74 0.28001 1.47 0.60001 2.19 0.94001z" fill="url(#e)"/><path d="m21.884 10.794 2.47-4.41c0.49-0.84-0.12-1.9-1.1-1.9-0.47 0-0.89 0.26-1.11 0.67l-2.45 4.7c0.74 0.28001 1.47 0.60001 2.19 0.94001z" fill="url(#d)"/><path d="m7.0236 28.934 5.78-25.95c0.11-0.45 0.45-0.81 0.9-0.93 0.94-0.25 1.8 0.61 1.55 1.55l-6.54 25.75c-0.08 0.3-0.32 0.54-0.62 0.62-0.63 0.17-1.22-0.4-1.07-1.04z" fill="url(#c)"/><path d="m14.094 8.1638 1.16-4.57c0.25-0.94-0.61-1.8-1.55-1.55-0.45 0.12-0.8 0.48-0.9 0.93l-1.06 4.78c0.79 0.11 1.58 0.25 2.35 0.41z" fill="url(#b)"/><path d="m14.094 8.1638 1.16-4.57c0.25-0.94-0.61-1.8-1.55-1.55-0.45 0.12-0.8 0.48-0.9 0.93l-1.06 4.78c0.79 0.11 1.58 0.25 2.35 0.41z" fill="url(#a)"/><defs><linearGradient id="f" x1="15.094" x2="18.219" y1="16.656" y2="18.312" gradientUnits="userSpaceOnUse"><stop stop-color="#B12A3C" offset=".32404"/><stop stop-color="#D32C5D" offset=".60938"/><stop stop-color="#DE254C" offset=".88009"/></linearGradient><linearGradient id="e" x1="20.891" x2="23.309" y1="7.4219" y2="8.7864" gradientUnits="userSpaceOnUse"><stop stop-color="#35303C" offset=".27222"/><stop stop-color="#544A61" offset=".61458"/><stop stop-color="#443C4F" offset=".9638"/></linearGradient><radialGradient id="d" cx="0" cy="0" r="1" gradientTransform="translate(24.047 5.4531) rotate(95.711) scale(.78515 .92662)" gradientUnits="userSpaceOnUse"><stop stop-color="#655F6C" offset="0"/><stop stop-color="#5E5865" stop-opacity="0" offset="1"/></radialGradient><linearGradient id="c" x1="9.625" x2="12.125" y1="16.007" y2="16.625" gradientUnits="userSpaceOnUse"><stop stop-color="#B12A3C" offset=".32404"/><stop stop-color="#D32C5D" offset=".60938"/><stop stop-color="#DE254C" offset=".88009"/></linearGradient><linearGradient id="b" x1="12.312" x2="14.891" y1="5.0819" y2="5.6719" gradientUnits="userSpaceOnUse"><stop stop-color="#35303C" offset=".27222"/><stop stop-color="#544A62" offset=".61458"/><stop stop-color="#443C4F" offset=".9638"/></linearGradient><radialGradient id="a" cx="0" cy="0" r="1" gradientTransform="translate(14.734 2.7969) rotate(92.726) scale(.65699 .78569)" gradientUnits="userSpaceOnUse"><stop stop-color="#605B68" offset="0"/><stop stop-color="#625D69" stop-opacity="0" offset="1"/></radialGradient></defs></svg>
