<svg fill="none" viewBox="0 0 32 32" xmlns="http://www.w3.org/2000/svg"><g filter="url(#ah)"><path d="m23.604 18.889 5.0719-1.3494c0.5534-0.15 1.137 0.15 1.288 0.71 0.1509 0.56-0.1812 1.12-0.7346 1.27l-2.8742 0.7672c-0.0863 0.0231-0.1014 0.1392-0.0238 0.1835l2.0125 1.1493c0.483 0.28 0.6541 0.89 0.3723 1.37-0.2817 0.48-0.8955 0.65-1.3785 0.37l-2.0149-1.1507c-0.0773-0.0441-0.1694 0.027-0.1462 0.1129l0.7724 2.8578c0.151 0.56-0.171 1.12-0.7345 1.27s-1.127-0.18-1.278-0.73l-1.3577-5.04c-0.0069-0.0256-0.0237-0.0474-0.0467-0.0607l-2.2085-1.2691c-0.0408-0.0235-0.0924-0.0152-0.1244 0.0192-0.6899 0.7404-1.5866 1.2879-2.6125 1.5137-0.0465 0.0102-0.0801 0.0511-0.0801 0.0987v2.5066c0 0.0266 0.0107 0.0522 0.0296 0.0709l3.7137 3.6907c0.4025 0.4 0.4025 1.06 0 1.46s-1.0666 0.4-1.4691 0l-2.1037-2.0906c-0.0631-0.0627-0.1705-0.018-0.1705 0.071v2.3096c0 0.55-0.4528 1-1.0062 1s-1.0062-0.45-1.0062-1v-2.2996c0-0.089-0.1075-0.1337-0.1705-0.071l-2.1037 2.0906c-0.4025 0.4-1.0666 0.4-1.4691 0s-0.4025-1.06 0-1.46l3.7137-3.6907c0.0189-0.0187 0.0296-0.0443 0.0296-0.0709v-2.5065c0-0.0476-0.0337-0.0885-0.0803-0.0987-1.0348-0.2257-1.9228-0.7733-2.6124-1.5139-0.032-0.0344-0.0835-0.0426-0.1243-0.0193l-2.1983 1.2594c-0.0231 0.0132-0.04 0.035-0.0469 0.0607l-1.3577 5.0399c-0.15093 0.55-0.72449 0.88-1.2779 0.73-0.55343-0.15-0.88549-0.72-0.73456-1.27l0.77212-2.8567c0.02325-0.086-0.06918-0.1572-0.14642-0.1127l-2.0143 1.1594c-0.48299 0.27-1.0968 0.11-1.3786-0.37s-0.11069-1.09 0.36225-1.35l2.0139-1.1592c0.07731-0.0445 0.06209-0.1603-0.02409-0.1833l-2.8753-0.7675c-0.55343-0.15-0.88549-0.72-0.73456-1.27 0.15094-0.55 0.7245-0.88 1.2779-0.73l5.0719 1.3494c0.02551 0.0068 0.05266 0.0032 0.07554-0.0099l2.2067-1.2682c0.0417-0.0239 0.0604-0.0742 0.0452-0.1198-0.1558-0.4679-0.255-0.9707-0.255-1.4915 0-0.5193 0.0987-1.0208 0.2537-1.4708 0.0158-0.0459-0.0027-0.0969-0.0448-0.1211l-2.2058-1.2676c-0.02288-0.0131-0.05003-0.0167-0.07554-0.0099l-5.0719 1.3494c-0.56349 0.15-1.127-0.18-1.2779-0.73-0.15093-0.56 0.18113-1.12 0.73456-1.27l2.8753-0.7675c0.08618-0.023 0.1014-0.1388 0.02409-0.1833l-2.0139-1.1592c-0.47294-0.28-0.644-0.89-0.36225-1.37 0.27169-0.48 0.89556-0.64 1.3685-0.37l2.0247 1.1602c0.07725 0.04426 0.16948-0.02691 0.14625-0.11286l-0.77229-2.8573c-0.15093-0.55 0.18113-1.11 0.73456-1.26 0.55344-0.15 1.1169 0.18 1.2679 0.73l1.3576 5.0399c7e-3 0.0257 0.0238 0.0475 0.0469 0.0607l2.1984 1.2594c0.0408 0.0233 0.0922 0.0151 0.1243-0.0193 0.6899-0.7405 1.5866-1.288 2.6125-1.5138 0.0465-0.0102 0.0801-0.0511 0.0801-0.0987v-2.5066c0-0.02663-0.0106-0.05216-0.0295-0.07093l-3.7137-3.6907c-0.4025-0.4-0.4025-1.06 0-1.46s1.0666-0.4 1.4691 0l2.1036 2.0906c0.0631 0.06269 0.1705 0.01801 0.1705-0.07093v-2.3096c0-0.55 0.4528-1 1.0062-1 0.5535 0 1.0063 0.45 1.0063 1v2.3096c0 0.08894 0.1074 0.13362 0.1705 0.07093l2.1036-2.0906c0.4025-0.4 1.0666-0.4 1.4691 0s0.4025 1.06 0 1.46l-3.7137 3.6907c-0.0189 0.01877-0.0295 0.0443-0.0295 0.07093v2.5066c0 0.0476 0.0336 0.0885 0.08 0.0987 1.0256 0.2257 1.9218 0.7726 2.6024 1.5036 0.0321 0.0345 0.0837 0.0428 0.1245 0.0193l2.2085-1.2691c0.023-0.0133 0.0398-0.0351 0.0467-0.0607l1.3577-5.04c0.151-0.55 0.7245-0.88 1.278-0.73 0.5534 0.15 0.8855 0.72 0.7345 1.27l-0.7724 2.8578c-0.0232 0.08589 0.0689 0.15705 0.1461 0.11293l2.0149-1.1507c0.483-0.27 1.0968-0.11 1.3786 0.37 0.2717 0.48 0.1107 1.09-0.3623 1.36l-2.0124 1.1493c-0.0776 0.0443-0.0626 0.1604 0.0238 0.1835l2.8741 0.7672c0.5535 0.15 0.8855 0.72 0.7346 1.27s-0.7245 0.88-1.2779 0.73l-5.0719-1.3494c-0.0256-0.0068-0.0527-0.0032-0.0756 0.0099l-2.2067 1.2682c-0.0417 0.0239-0.0603 0.0742-0.0452 0.1198 0.1558 0.4679 0.255 0.9707 0.255 1.4915 0 0.5214-0.0995 1.0158-0.2555 1.4918-0.015 0.0455 0.0037 0.0954 0.0452 0.1193l2.2072 1.2684c0.0229 0.0131 0.05 0.0167 0.0756 0.0099zm-4.095-2.8894c0 1.6569-1.3515 3-3.0187 3s-3.0188-1.3431-3.0188-3 1.3516-3 3.0188-3 3.0187 1.3431 3.0187 3z" clip-rule="evenodd" fill="url(#s)" fill-rule="evenodd"/></g><path d="m23.604 18.889 5.0719-1.3494c0.5534-0.15 1.137 0.15 1.288 0.71 0.1509 0.56-0.1812 1.12-0.7346 1.27l-2.8742 0.7672c-0.0863 0.0231-0.1014 0.1392-0.0238 0.1835l2.0125 1.1493c0.483 0.28 0.6541 0.89 0.3723 1.37-0.2817 0.48-0.8955 0.65-1.3785 0.37l-2.0149-1.1507c-0.0773-0.0441-0.1694 0.027-0.1462 0.1129l0.7724 2.8578c0.151 0.56-0.171 1.12-0.7345 1.27s-1.127-0.18-1.278-0.73l-1.3577-5.04c-0.0069-0.0256-0.0237-0.0474-0.0467-0.0607l-2.2085-1.2691c-0.0408-0.0235-0.0924-0.0152-0.1244 0.0192-0.6899 0.7404-1.5866 1.2879-2.6125 1.5137-0.0465 0.0102-0.0801 0.0511-0.0801 0.0987v2.5066c0 0.0266 0.0107 0.0522 0.0296 0.0709l3.7137 3.6907c0.4025 0.4 0.4025 1.06 0 1.46s-1.0666 0.4-1.4691 0l-2.1037-2.0906c-0.0631-0.0627-0.1705-0.018-0.1705 0.071v2.3096c0 0.55-0.4528 1-1.0062 1s-1.0062-0.45-1.0062-1v-2.2996c0-0.089-0.1075-0.1337-0.1705-0.071l-2.1037 2.0906c-0.4025 0.4-1.0666 0.4-1.4691 0s-0.4025-1.06 0-1.46l3.7137-3.6907c0.0189-0.0187 0.0296-0.0443 0.0296-0.0709v-2.5065c0-0.0476-0.0337-0.0885-0.0803-0.0987-1.0348-0.2257-1.9228-0.7733-2.6124-1.5139-0.032-0.0344-0.0835-0.0426-0.1243-0.0193l-2.1983 1.2594c-0.0231 0.0132-0.04 0.035-0.0469 0.0607l-1.3577 5.0399c-0.15093 0.55-0.72449 0.88-1.2779 0.73-0.55343-0.15-0.88549-0.72-0.73456-1.27l0.77212-2.8567c0.02325-0.086-0.06918-0.1572-0.14642-0.1127l-2.0143 1.1594c-0.48299 0.27-1.0968 0.11-1.3786-0.37s-0.11069-1.09 0.36225-1.35l2.0139-1.1592c0.07731-0.0445 0.06209-0.1603-0.02409-0.1833l-2.8753-0.7675c-0.55343-0.15-0.88549-0.72-0.73456-1.27 0.15094-0.55 0.7245-0.88 1.2779-0.73l5.0719 1.3494c0.02551 0.0068 0.05266 0.0032 0.07554-0.0099l2.2067-1.2682c0.0417-0.0239 0.0604-0.0742 0.0452-0.1198-0.1558-0.4679-0.255-0.9707-0.255-1.4915 0-0.5193 0.0987-1.0208 0.2537-1.4708 0.0158-0.0459-0.0027-0.0969-0.0448-0.1211l-2.2058-1.2676c-0.02288-0.0131-0.05003-0.0167-0.07554-0.0099l-5.0719 1.3494c-0.56349 0.15-1.127-0.18-1.2779-0.73-0.15093-0.56 0.18113-1.12 0.73456-1.27l2.8753-0.7675c0.08618-0.023 0.1014-0.1388 0.02409-0.1833l-2.0139-1.1592c-0.47294-0.28-0.644-0.89-0.36225-1.37 0.27169-0.48 0.89556-0.64 1.3685-0.37l2.0247 1.1602c0.07725 0.04426 0.16948-0.02691 0.14625-0.11286l-0.77229-2.8573c-0.15093-0.55 0.18113-1.11 0.73456-1.26 0.55344-0.15 1.1169 0.18 1.2679 0.73l1.3576 5.0399c7e-3 0.0257 0.0238 0.0475 0.0469 0.0607l2.1984 1.2594c0.0408 0.0233 0.0922 0.0151 0.1243-0.0193 0.6899-0.7405 1.5866-1.288 2.6125-1.5138 0.0465-0.0102 0.0801-0.0511 0.0801-0.0987v-2.5066c0-0.02663-0.0106-0.05216-0.0295-0.07093l-3.7137-3.6907c-0.4025-0.4-0.4025-1.06 0-1.46s1.0666-0.4 1.4691 0l2.1036 2.0906c0.0631 0.06269 0.1705 0.01801 0.1705-0.07093v-2.3096c0-0.55 0.4528-1 1.0062-1 0.5535 0 1.0063 0.45 1.0063 1v2.3096c0 0.08894 0.1074 0.13362 0.1705 0.07093l2.1036-2.0906c0.4025-0.4 1.0666-0.4 1.4691 0s0.4025 1.06 0 1.46l-3.7137 3.6907c-0.0189 0.01877-0.0295 0.0443-0.0295 0.07093v2.5066c0 0.0476 0.0336 0.0885 0.08 0.0987 1.0256 0.2257 1.9218 0.7726 2.6024 1.5036 0.0321 0.0345 0.0837 0.0428 0.1245 0.0193l2.2085-1.2691c0.023-0.0133 0.0398-0.0351 0.0467-0.0607l1.3577-5.04c0.151-0.55 0.7245-0.88 1.278-0.73 0.5534 0.15 0.8855 0.72 0.7345 1.27l-0.7724 2.8578c-0.0232 0.08589 0.0689 0.15705 0.1461 0.11293l2.0149-1.1507c0.483-0.27 1.0968-0.11 1.3786 0.37 0.2717 0.48 0.1107 1.09-0.3623 1.36l-2.0124 1.1493c-0.0776 0.0443-0.0626 0.1604 0.0238 0.1835l2.8741 0.7672c0.5535 0.15 0.8855 0.72 0.7346 1.27s-0.7245 0.88-1.2779 0.73l-5.0719-1.3494c-0.0256-0.0068-0.0527-0.0032-0.0756 0.0099l-2.2067 1.2682c-0.0417 0.0239-0.0603 0.0742-0.0452 0.1198 0.1558 0.4679 0.255 0.9707 0.255 1.4915 0 0.5214-0.0995 1.0158-0.2555 1.4918-0.015 0.0455 0.0037 0.0954 0.0452 0.1193l2.2072 1.2684c0.0229 0.0131 0.05 0.0167 0.0756 0.0099zm-4.095-2.8894c0 1.6569-1.3515 3-3.0187 3s-3.0188-1.3431-3.0188-3 1.3516-3 3.0188-3 3.0187 1.3431 3.0187 3z" clip-rule="evenodd" fill="url(#i)" fill-rule="evenodd"/><path d="m23.604 18.889 5.0719-1.3494c0.5534-0.15 1.137 0.15 1.288 0.71 0.1509 0.56-0.1812 1.12-0.7346 1.27l-2.8742 0.7672c-0.0863 0.0231-0.1014 0.1392-0.0238 0.1835l2.0125 1.1493c0.483 0.28 0.6541 0.89 0.3723 1.37-0.2817 0.48-0.8955 0.65-1.3785 0.37l-2.0149-1.1507c-0.0773-0.0441-0.1694 0.027-0.1462 0.1129l0.7724 2.8578c0.151 0.56-0.171 1.12-0.7345 1.27s-1.127-0.18-1.278-0.73l-1.3577-5.04c-0.0069-0.0256-0.0237-0.0474-0.0467-0.0607l-2.2085-1.2691c-0.0408-0.0235-0.0924-0.0152-0.1244 0.0192-0.6899 0.7404-1.5866 1.2879-2.6125 1.5137-0.0465 0.0102-0.0801 0.0511-0.0801 0.0987v2.5066c0 0.0266 0.0107 0.0522 0.0296 0.0709l3.7137 3.6907c0.4025 0.4 0.4025 1.06 0 1.46s-1.0666 0.4-1.4691 0l-2.1037-2.0906c-0.0631-0.0627-0.1705-0.018-0.1705 0.071v2.3096c0 0.55-0.4528 1-1.0062 1s-1.0062-0.45-1.0062-1v-2.2996c0-0.089-0.1075-0.1337-0.1705-0.071l-2.1037 2.0906c-0.4025 0.4-1.0666 0.4-1.4691 0s-0.4025-1.06 0-1.46l3.7137-3.6907c0.0189-0.0187 0.0296-0.0443 0.0296-0.0709v-2.5065c0-0.0476-0.0337-0.0885-0.0803-0.0987-1.0348-0.2257-1.9228-0.7733-2.6124-1.5139-0.032-0.0344-0.0835-0.0426-0.1243-0.0193l-2.1983 1.2594c-0.0231 0.0132-0.04 0.035-0.0469 0.0607l-1.3577 5.0399c-0.15093 0.55-0.72449 0.88-1.2779 0.73-0.55343-0.15-0.88549-0.72-0.73456-1.27l0.77212-2.8567c0.02325-0.086-0.06918-0.1572-0.14642-0.1127l-2.0143 1.1594c-0.48299 0.27-1.0968 0.11-1.3786-0.37s-0.11069-1.09 0.36225-1.35l2.0139-1.1592c0.07731-0.0445 0.06209-0.1603-0.02409-0.1833l-2.8753-0.7675c-0.55343-0.15-0.88549-0.72-0.73456-1.27 0.15094-0.55 0.7245-0.88 1.2779-0.73l5.0719 1.3494c0.02551 0.0068 0.05266 0.0032 0.07554-0.0099l2.2067-1.2682c0.0417-0.0239 0.0604-0.0742 0.0452-0.1198-0.1558-0.4679-0.255-0.9707-0.255-1.4915 0-0.5193 0.0987-1.0208 0.2537-1.4708 0.0158-0.0459-0.0027-0.0969-0.0448-0.1211l-2.2058-1.2676c-0.02288-0.0131-0.05003-0.0167-0.07554-0.0099l-5.0719 1.3494c-0.56349 0.15-1.127-0.18-1.2779-0.73-0.15093-0.56 0.18113-1.12 0.73456-1.27l2.8753-0.7675c0.08618-0.023 0.1014-0.1388 0.02409-0.1833l-2.0139-1.1592c-0.47294-0.28-0.644-0.89-0.36225-1.37 0.27169-0.48 0.89556-0.64 1.3685-0.37l2.0247 1.1602c0.07725 0.04426 0.16948-0.02691 0.14625-0.11286l-0.77229-2.8573c-0.15093-0.55 0.18113-1.11 0.73456-1.26 0.55344-0.15 1.1169 0.18 1.2679 0.73l1.3576 5.0399c7e-3 0.0257 0.0238 0.0475 0.0469 0.0607l2.1984 1.2594c0.0408 0.0233 0.0922 0.0151 0.1243-0.0193 0.6899-0.7405 1.5866-1.288 2.6125-1.5138 0.0465-0.0102 0.0801-0.0511 0.0801-0.0987v-2.5066c0-0.02663-0.0106-0.05216-0.0295-0.07093l-3.7137-3.6907c-0.4025-0.4-0.4025-1.06 0-1.46s1.0666-0.4 1.4691 0l2.1036 2.0906c0.0631 0.06269 0.1705 0.01801 0.1705-0.07093v-2.3096c0-0.55 0.4528-1 1.0062-1 0.5535 0 1.0063 0.45 1.0063 1v2.3096c0 0.08894 0.1074 0.13362 0.1705 0.07093l2.1036-2.0906c0.4025-0.4 1.0666-0.4 1.4691 0s0.4025 1.06 0 1.46l-3.7137 3.6907c-0.0189 0.01877-0.0295 0.0443-0.0295 0.07093v2.5066c0 0.0476 0.0336 0.0885 0.08 0.0987 1.0256 0.2257 1.9218 0.7726 2.6024 1.5036 0.0321 0.0345 0.0837 0.0428 0.1245 0.0193l2.2085-1.2691c0.023-0.0133 0.0398-0.0351 0.0467-0.0607l1.3577-5.04c0.151-0.55 0.7245-0.88 1.278-0.73 0.5534 0.15 0.8855 0.72 0.7345 1.27l-0.7724 2.8578c-0.0232 0.08589 0.0689 0.15705 0.1461 0.11293l2.0149-1.1507c0.483-0.27 1.0968-0.11 1.3786 0.37 0.2717 0.48 0.1107 1.09-0.3623 1.36l-2.0124 1.1493c-0.0776 0.0443-0.0626 0.1604 0.0238 0.1835l2.8741 0.7672c0.5535 0.15 0.8855 0.72 0.7346 1.27s-0.7245 0.88-1.2779 0.73l-5.0719-1.3494c-0.0256-0.0068-0.0527-0.0032-0.0756 0.0099l-2.2067 1.2682c-0.0417 0.0239-0.0603 0.0742-0.0452 0.1198 0.1558 0.4679 0.255 0.9707 0.255 1.4915 0 0.5214-0.0995 1.0158-0.2555 1.4918-0.015 0.0455 0.0037 0.0954 0.0452 0.1193l2.2072 1.2684c0.0229 0.0131 0.05 0.0167 0.0756 0.0099zm-4.095-2.8894c0 1.6569-1.3515 3-3.0187 3s-3.0188-1.3431-3.0188-3 1.3516-3 3.0188-3 3.0187 1.3431 3.0187 3z" clip-rule="evenodd" fill="url(#h)" fill-rule="evenodd"/><path d="m23.604 18.889 5.0719-1.3494c0.5534-0.15 1.137 0.15 1.288 0.71 0.1509 0.56-0.1812 1.12-0.7346 1.27l-2.8742 0.7672c-0.0863 0.0231-0.1014 0.1392-0.0238 0.1835l2.0125 1.1493c0.483 0.28 0.6541 0.89 0.3723 1.37-0.2817 0.48-0.8955 0.65-1.3785 0.37l-2.0149-1.1507c-0.0773-0.0441-0.1694 0.027-0.1462 0.1129l0.7724 2.8578c0.151 0.56-0.171 1.12-0.7345 1.27s-1.127-0.18-1.278-0.73l-1.3577-5.04c-0.0069-0.0256-0.0237-0.0474-0.0467-0.0607l-2.2085-1.2691c-0.0408-0.0235-0.0924-0.0152-0.1244 0.0192-0.6899 0.7404-1.5866 1.2879-2.6125 1.5137-0.0465 0.0102-0.0801 0.0511-0.0801 0.0987v2.5066c0 0.0266 0.0107 0.0522 0.0296 0.0709l3.7137 3.6907c0.4025 0.4 0.4025 1.06 0 1.46s-1.0666 0.4-1.4691 0l-2.1037-2.0906c-0.0631-0.0627-0.1705-0.018-0.1705 0.071v2.3096c0 0.55-0.4528 1-1.0062 1s-1.0062-0.45-1.0062-1v-2.2996c0-0.089-0.1075-0.1337-0.1705-0.071l-2.1037 2.0906c-0.4025 0.4-1.0666 0.4-1.4691 0s-0.4025-1.06 0-1.46l3.7137-3.6907c0.0189-0.0187 0.0296-0.0443 0.0296-0.0709v-2.5065c0-0.0476-0.0337-0.0885-0.0803-0.0987-1.0348-0.2257-1.9228-0.7733-2.6124-1.5139-0.032-0.0344-0.0835-0.0426-0.1243-0.0193l-2.1983 1.2594c-0.0231 0.0132-0.04 0.035-0.0469 0.0607l-1.3577 5.0399c-0.15093 0.55-0.72449 0.88-1.2779 0.73-0.55343-0.15-0.88549-0.72-0.73456-1.27l0.77212-2.8567c0.02325-0.086-0.06918-0.1572-0.14642-0.1127l-2.0143 1.1594c-0.48299 0.27-1.0968 0.11-1.3786-0.37s-0.11069-1.09 0.36225-1.35l2.0139-1.1592c0.07731-0.0445 0.06209-0.1603-0.02409-0.1833l-2.8753-0.7675c-0.55343-0.15-0.88549-0.72-0.73456-1.27 0.15094-0.55 0.7245-0.88 1.2779-0.73l5.0719 1.3494c0.02551 0.0068 0.05266 0.0032 0.07554-0.0099l2.2067-1.2682c0.0417-0.0239 0.0604-0.0742 0.0452-0.1198-0.1558-0.4679-0.255-0.9707-0.255-1.4915 0-0.5193 0.0987-1.0208 0.2537-1.4708 0.0158-0.0459-0.0027-0.0969-0.0448-0.1211l-2.2058-1.2676c-0.02288-0.0131-0.05003-0.0167-0.07554-0.0099l-5.0719 1.3494c-0.56349 0.15-1.127-0.18-1.2779-0.73-0.15093-0.56 0.18113-1.12 0.73456-1.27l2.8753-0.7675c0.08618-0.023 0.1014-0.1388 0.02409-0.1833l-2.0139-1.1592c-0.47294-0.28-0.644-0.89-0.36225-1.37 0.27169-0.48 0.89556-0.64 1.3685-0.37l2.0247 1.1602c0.07725 0.04426 0.16948-0.02691 0.14625-0.11286l-0.77229-2.8573c-0.15093-0.55 0.18113-1.11 0.73456-1.26 0.55344-0.15 1.1169 0.18 1.2679 0.73l1.3576 5.0399c7e-3 0.0257 0.0238 0.0475 0.0469 0.0607l2.1984 1.2594c0.0408 0.0233 0.0922 0.0151 0.1243-0.0193 0.6899-0.7405 1.5866-1.288 2.6125-1.5138 0.0465-0.0102 0.0801-0.0511 0.0801-0.0987v-2.5066c0-0.02663-0.0106-0.05216-0.0295-0.07093l-3.7137-3.6907c-0.4025-0.4-0.4025-1.06 0-1.46s1.0666-0.4 1.4691 0l2.1036 2.0906c0.0631 0.06269 0.1705 0.01801 0.1705-0.07093v-2.3096c0-0.55 0.4528-1 1.0062-1 0.5535 0 1.0063 0.45 1.0063 1v2.3096c0 0.08894 0.1074 0.13362 0.1705 0.07093l2.1036-2.0906c0.4025-0.4 1.0666-0.4 1.4691 0s0.4025 1.06 0 1.46l-3.7137 3.6907c-0.0189 0.01877-0.0295 0.0443-0.0295 0.07093v2.5066c0 0.0476 0.0336 0.0885 0.08 0.0987 1.0256 0.2257 1.9218 0.7726 2.6024 1.5036 0.0321 0.0345 0.0837 0.0428 0.1245 0.0193l2.2085-1.2691c0.023-0.0133 0.0398-0.0351 0.0467-0.0607l1.3577-5.04c0.151-0.55 0.7245-0.88 1.278-0.73 0.5534 0.15 0.8855 0.72 0.7345 1.27l-0.7724 2.8578c-0.0232 0.08589 0.0689 0.15705 0.1461 0.11293l2.0149-1.1507c0.483-0.27 1.0968-0.11 1.3786 0.37 0.2717 0.48 0.1107 1.09-0.3623 1.36l-2.0124 1.1493c-0.0776 0.0443-0.0626 0.1604 0.0238 0.1835l2.8741 0.7672c0.5535 0.15 0.8855 0.72 0.7346 1.27s-0.7245 0.88-1.2779 0.73l-5.0719-1.3494c-0.0256-0.0068-0.0527-0.0032-0.0756 0.0099l-2.2067 1.2682c-0.0417 0.0239-0.0603 0.0742-0.0452 0.1198 0.1558 0.4679 0.255 0.9707 0.255 1.4915 0 0.5214-0.0995 1.0158-0.2555 1.4918-0.015 0.0455 0.0037 0.0954 0.0452 0.1193l2.2072 1.2684c0.0229 0.0131 0.05 0.0167 0.0756 0.0099zm-4.095-2.8894c0 1.6569-1.3515 3-3.0187 3s-3.0188-1.3431-3.0188-3 1.3516-3 3.0188-3 3.0187 1.3431 3.0187 3z" clip-rule="evenodd" fill="url(#g)" fill-rule="evenodd"/><path d="m23.604 18.889 5.0719-1.3494c0.5534-0.15 1.137 0.15 1.288 0.71 0.1509 0.56-0.1812 1.12-0.7346 1.27l-2.8742 0.7672c-0.0863 0.0231-0.1014 0.1392-0.0238 0.1835l2.0125 1.1493c0.483 0.28 0.6541 0.89 0.3723 1.37-0.2817 0.48-0.8955 0.65-1.3785 0.37l-2.0149-1.1507c-0.0773-0.0441-0.1694 0.027-0.1462 0.1129l0.7724 2.8578c0.151 0.56-0.171 1.12-0.7345 1.27s-1.127-0.18-1.278-0.73l-1.3577-5.04c-0.0069-0.0256-0.0237-0.0474-0.0467-0.0607l-2.2085-1.2691c-0.0408-0.0235-0.0924-0.0152-0.1244 0.0192-0.6899 0.7404-1.5866 1.2879-2.6125 1.5137-0.0465 0.0102-0.0801 0.0511-0.0801 0.0987v2.5066c0 0.0266 0.0107 0.0522 0.0296 0.0709l3.7137 3.6907c0.4025 0.4 0.4025 1.06 0 1.46s-1.0666 0.4-1.4691 0l-2.1037-2.0906c-0.0631-0.0627-0.1705-0.018-0.1705 0.071v2.3096c0 0.55-0.4528 1-1.0062 1s-1.0062-0.45-1.0062-1v-2.2996c0-0.089-0.1075-0.1337-0.1705-0.071l-2.1037 2.0906c-0.4025 0.4-1.0666 0.4-1.4691 0s-0.4025-1.06 0-1.46l3.7137-3.6907c0.0189-0.0187 0.0296-0.0443 0.0296-0.0709v-2.5065c0-0.0476-0.0337-0.0885-0.0803-0.0987-1.0348-0.2257-1.9228-0.7733-2.6124-1.5139-0.032-0.0344-0.0835-0.0426-0.1243-0.0193l-2.1983 1.2594c-0.0231 0.0132-0.04 0.035-0.0469 0.0607l-1.3577 5.0399c-0.15093 0.55-0.72449 0.88-1.2779 0.73-0.55343-0.15-0.88549-0.72-0.73456-1.27l0.77212-2.8567c0.02325-0.086-0.06918-0.1572-0.14642-0.1127l-2.0143 1.1594c-0.48299 0.27-1.0968 0.11-1.3786-0.37s-0.11069-1.09 0.36225-1.35l2.0139-1.1592c0.07731-0.0445 0.06209-0.1603-0.02409-0.1833l-2.8753-0.7675c-0.55343-0.15-0.88549-0.72-0.73456-1.27 0.15094-0.55 0.7245-0.88 1.2779-0.73l5.0719 1.3494c0.02551 0.0068 0.05266 0.0032 0.07554-0.0099l2.2067-1.2682c0.0417-0.0239 0.0604-0.0742 0.0452-0.1198-0.1558-0.4679-0.255-0.9707-0.255-1.4915 0-0.5193 0.0987-1.0208 0.2537-1.4708 0.0158-0.0459-0.0027-0.0969-0.0448-0.1211l-2.2058-1.2676c-0.02288-0.0131-0.05003-0.0167-0.07554-0.0099l-5.0719 1.3494c-0.56349 0.15-1.127-0.18-1.2779-0.73-0.15093-0.56 0.18113-1.12 0.73456-1.27l2.8753-0.7675c0.08618-0.023 0.1014-0.1388 0.02409-0.1833l-2.0139-1.1592c-0.47294-0.28-0.644-0.89-0.36225-1.37 0.27169-0.48 0.89556-0.64 1.3685-0.37l2.0247 1.1602c0.07725 0.04426 0.16948-0.02691 0.14625-0.11286l-0.77229-2.8573c-0.15093-0.55 0.18113-1.11 0.73456-1.26 0.55344-0.15 1.1169 0.18 1.2679 0.73l1.3576 5.0399c7e-3 0.0257 0.0238 0.0475 0.0469 0.0607l2.1984 1.2594c0.0408 0.0233 0.0922 0.0151 0.1243-0.0193 0.6899-0.7405 1.5866-1.288 2.6125-1.5138 0.0465-0.0102 0.0801-0.0511 0.0801-0.0987v-2.5066c0-0.02663-0.0106-0.05216-0.0295-0.07093l-3.7137-3.6907c-0.4025-0.4-0.4025-1.06 0-1.46s1.0666-0.4 1.4691 0l2.1036 2.0906c0.0631 0.06269 0.1705 0.01801 0.1705-0.07093v-2.3096c0-0.55 0.4528-1 1.0062-1 0.5535 0 1.0063 0.45 1.0063 1v2.3096c0 0.08894 0.1074 0.13362 0.1705 0.07093l2.1036-2.0906c0.4025-0.4 1.0666-0.4 1.4691 0s0.4025 1.06 0 1.46l-3.7137 3.6907c-0.0189 0.01877-0.0295 0.0443-0.0295 0.07093v2.5066c0 0.0476 0.0336 0.0885 0.08 0.0987 1.0256 0.2257 1.9218 0.7726 2.6024 1.5036 0.0321 0.0345 0.0837 0.0428 0.1245 0.0193l2.2085-1.2691c0.023-0.0133 0.0398-0.0351 0.0467-0.0607l1.3577-5.04c0.151-0.55 0.7245-0.88 1.278-0.73 0.5534 0.15 0.8855 0.72 0.7345 1.27l-0.7724 2.8578c-0.0232 0.08589 0.0689 0.15705 0.1461 0.11293l2.0149-1.1507c0.483-0.27 1.0968-0.11 1.3786 0.37 0.2717 0.48 0.1107 1.09-0.3623 1.36l-2.0124 1.1493c-0.0776 0.0443-0.0626 0.1604 0.0238 0.1835l2.8741 0.7672c0.5535 0.15 0.8855 0.72 0.7346 1.27s-0.7245 0.88-1.2779 0.73l-5.0719-1.3494c-0.0256-0.0068-0.0527-0.0032-0.0756 0.0099l-2.2067 1.2682c-0.0417 0.0239-0.0603 0.0742-0.0452 0.1198 0.1558 0.4679 0.255 0.9707 0.255 1.4915 0 0.5214-0.0995 1.0158-0.2555 1.4918-0.015 0.0455 0.0037 0.0954 0.0452 0.1193l2.2072 1.2684c0.0229 0.0131 0.05 0.0167 0.0756 0.0099zm-4.095-2.8894c0 1.6569-1.3515 3-3.0187 3s-3.0188-1.3431-3.0188-3 1.3516-3 3.0188-3 3.0187 1.3431 3.0187 3z" clip-rule="evenodd" fill="url(#f)" fill-rule="evenodd"/><path d="m23.604 18.889 5.0719-1.3494c0.5534-0.15 1.137 0.15 1.288 0.71 0.1509 0.56-0.1812 1.12-0.7346 1.27l-2.8742 0.7672c-0.0863 0.0231-0.1014 0.1392-0.0238 0.1835l2.0125 1.1493c0.483 0.28 0.6541 0.89 0.3723 1.37-0.2817 0.48-0.8955 0.65-1.3785 0.37l-2.0149-1.1507c-0.0773-0.0441-0.1694 0.027-0.1462 0.1129l0.7724 2.8578c0.151 0.56-0.171 1.12-0.7345 1.27s-1.127-0.18-1.278-0.73l-1.3577-5.04c-0.0069-0.0256-0.0237-0.0474-0.0467-0.0607l-2.2085-1.2691c-0.0408-0.0235-0.0924-0.0152-0.1244 0.0192-0.6899 0.7404-1.5866 1.2879-2.6125 1.5137-0.0465 0.0102-0.0801 0.0511-0.0801 0.0987v2.5066c0 0.0266 0.0107 0.0522 0.0296 0.0709l3.7137 3.6907c0.4025 0.4 0.4025 1.06 0 1.46s-1.0666 0.4-1.4691 0l-2.1037-2.0906c-0.0631-0.0627-0.1705-0.018-0.1705 0.071v2.3096c0 0.55-0.4528 1-1.0062 1s-1.0062-0.45-1.0062-1v-2.2996c0-0.089-0.1075-0.1337-0.1705-0.071l-2.1037 2.0906c-0.4025 0.4-1.0666 0.4-1.4691 0s-0.4025-1.06 0-1.46l3.7137-3.6907c0.0189-0.0187 0.0296-0.0443 0.0296-0.0709v-2.5065c0-0.0476-0.0337-0.0885-0.0803-0.0987-1.0348-0.2257-1.9228-0.7733-2.6124-1.5139-0.032-0.0344-0.0835-0.0426-0.1243-0.0193l-2.1983 1.2594c-0.0231 0.0132-0.04 0.035-0.0469 0.0607l-1.3577 5.0399c-0.15093 0.55-0.72449 0.88-1.2779 0.73-0.55343-0.15-0.88549-0.72-0.73456-1.27l0.77212-2.8567c0.02325-0.086-0.06918-0.1572-0.14642-0.1127l-2.0143 1.1594c-0.48299 0.27-1.0968 0.11-1.3786-0.37s-0.11069-1.09 0.36225-1.35l2.0139-1.1592c0.07731-0.0445 0.06209-0.1603-0.02409-0.1833l-2.8753-0.7675c-0.55343-0.15-0.88549-0.72-0.73456-1.27 0.15094-0.55 0.7245-0.88 1.2779-0.73l5.0719 1.3494c0.02551 0.0068 0.05266 0.0032 0.07554-0.0099l2.2067-1.2682c0.0417-0.0239 0.0604-0.0742 0.0452-0.1198-0.1558-0.4679-0.255-0.9707-0.255-1.4915 0-0.5193 0.0987-1.0208 0.2537-1.4708 0.0158-0.0459-0.0027-0.0969-0.0448-0.1211l-2.2058-1.2676c-0.02288-0.0131-0.05003-0.0167-0.07554-0.0099l-5.0719 1.3494c-0.56349 0.15-1.127-0.18-1.2779-0.73-0.15093-0.56 0.18113-1.12 0.73456-1.27l2.8753-0.7675c0.08618-0.023 0.1014-0.1388 0.02409-0.1833l-2.0139-1.1592c-0.47294-0.28-0.644-0.89-0.36225-1.37 0.27169-0.48 0.89556-0.64 1.3685-0.37l2.0247 1.1602c0.07725 0.04426 0.16948-0.02691 0.14625-0.11286l-0.77229-2.8573c-0.15093-0.55 0.18113-1.11 0.73456-1.26 0.55344-0.15 1.1169 0.18 1.2679 0.73l1.3576 5.0399c7e-3 0.0257 0.0238 0.0475 0.0469 0.0607l2.1984 1.2594c0.0408 0.0233 0.0922 0.0151 0.1243-0.0193 0.6899-0.7405 1.5866-1.288 2.6125-1.5138 0.0465-0.0102 0.0801-0.0511 0.0801-0.0987v-2.5066c0-0.02663-0.0106-0.05216-0.0295-0.07093l-3.7137-3.6907c-0.4025-0.4-0.4025-1.06 0-1.46s1.0666-0.4 1.4691 0l2.1036 2.0906c0.0631 0.06269 0.1705 0.01801 0.1705-0.07093v-2.3096c0-0.55 0.4528-1 1.0062-1 0.5535 0 1.0063 0.45 1.0063 1v2.3096c0 0.08894 0.1074 0.13362 0.1705 0.07093l2.1036-2.0906c0.4025-0.4 1.0666-0.4 1.4691 0s0.4025 1.06 0 1.46l-3.7137 3.6907c-0.0189 0.01877-0.0295 0.0443-0.0295 0.07093v2.5066c0 0.0476 0.0336 0.0885 0.08 0.0987 1.0256 0.2257 1.9218 0.7726 2.6024 1.5036 0.0321 0.0345 0.0837 0.0428 0.1245 0.0193l2.2085-1.2691c0.023-0.0133 0.0398-0.0351 0.0467-0.0607l1.3577-5.04c0.151-0.55 0.7245-0.88 1.278-0.73 0.5534 0.15 0.8855 0.72 0.7345 1.27l-0.7724 2.8578c-0.0232 0.08589 0.0689 0.15705 0.1461 0.11293l2.0149-1.1507c0.483-0.27 1.0968-0.11 1.3786 0.37 0.2717 0.48 0.1107 1.09-0.3623 1.36l-2.0124 1.1493c-0.0776 0.0443-0.0626 0.1604 0.0238 0.1835l2.8741 0.7672c0.5535 0.15 0.8855 0.72 0.7346 1.27s-0.7245 0.88-1.2779 0.73l-5.0719-1.3494c-0.0256-0.0068-0.0527-0.0032-0.0756 0.0099l-2.2067 1.2682c-0.0417 0.0239-0.0603 0.0742-0.0452 0.1198 0.1558 0.4679 0.255 0.9707 0.255 1.4915 0 0.5214-0.0995 1.0158-0.2555 1.4918-0.015 0.0455 0.0037 0.0954 0.0452 0.1193l2.2072 1.2684c0.0229 0.0131 0.05 0.0167 0.0756 0.0099zm-4.095-2.8894c0 1.6569-1.3515 3-3.0187 3s-3.0188-1.3431-3.0188-3 1.3516-3 3.0188-3 3.0187 1.3431 3.0187 3z" clip-rule="evenodd" fill="url(#e)" fill-rule="evenodd"/><g filter="url(#ab)"><circle cx="16.726" cy="15.801" r="3.9702" stroke="url(#d)" stroke-width=".5"/></g><g filter="url(#aa)"><path d="m16.727 11.83v-9.2724" stroke="url(#c)" stroke-width=".5"/></g><g filter="url(#z)"><path d="m20.67 17.984 7.4156 4.4114" stroke="#5ACEFA" stroke-linecap="round" stroke-width=".5"/></g><g filter="url(#y)"><path d="m23.701 19.933 1.3803 5.7105" stroke="url(#b)" stroke-linecap="round" stroke-width=".5"/></g><g filter="url(#x)"><path d="m29.162 18.388-5.4667 1.322" stroke="url(#a)" stroke-linecap="round" stroke-width=".5"/></g><g filter="url(#w)"><path d="m24.928 12.029 4.1803 1.1076" stroke="url(#r)" stroke-linecap="round" stroke-width=".5"/></g><g filter="url(#v)"><path d="m28.108 9.0989-4.1089 2.3938" stroke="url(#q)" stroke-linecap="round" stroke-width=".5"/></g><g filter="url(#u)"><path d="m25.178 6.3833-1.322 4.7877" stroke="url(#p)" stroke-linecap="round" stroke-width=".5"/></g><g filter="url(#t)"><path d="m5.25 9.3052 7.8125 4.375" stroke="url(#o)" stroke-linecap="round" stroke-width=".5"/></g><g filter="url(#ag)"><path d="m8.3125 6.3035 1.4375 5.375" stroke="url(#n)" stroke-linecap="round" stroke-width=".5"/></g><g filter="url(#af)"><path d="m3.9688 18.225 4.5 1.2969" stroke="url(#m)" stroke-linecap="round" stroke-width=".5"/></g><g filter="url(#ae)"><path d="m12.503 3.706 3.0028 2.9154" stroke="url(#l)" stroke-linecap="round" stroke-width=".5"/></g><g filter="url(#ad)"><path d="m16.727 29.099v-8.2505" stroke="url(#k)" stroke-linecap="round" stroke-width=".4"/></g><g filter="url(#ac)"><path d="m16.727 23.895 3.7899 3.8192" stroke="url(#j)" stroke-linecap="round" stroke-width=".4"/></g><defs><filter id="ah" x="3" y="1.85" width="27.15" height="28.15" color-interpolation-filters="sRGB" filterUnits="userSpaceOnUse"><feFlood flood-opacity="0" result="BackgroundImageFix"/><feBlend in="SourceGraphic" in2="BackgroundImageFix" result="shape"/><feColorMatrix in="SourceAlpha" result="hardAlpha" values="0 0 0 0 0 0 0 0 0 0 0 0 0 0 0 0 0 0 127 0"/><feOffset dx="0.15" dy="-0.15"/><feGaussianBlur stdDeviation="0.4"/><feComposite in2="hardAlpha" k2="-1" k3="1" operator="arithmetic"/><feColorMatrix values="0 0 0 0 0.294118 0 0 0 0 0.392157 0 0 0 0 0.741176 0 0 0 1 0"/><feBlend in2="shape" result="effect1_innerShadow_18_15548"/></filter><filter id="ab" x="12.006" y="11.08" width="9.4403" height="9.4403" color-interpolation-filters="sRGB" filterUnits="userSpaceOnUse"><feFlood flood-opacity="0" result="BackgroundImageFix"/><feBlend in="SourceGraphic" in2="BackgroundImageFix" result="shape"/><feGaussianBlur result="effect1_foregroundBlur_18_15548" stdDeviation="0.25"/></filter><filter id="aa" x="16.077" y="2.1581" width="1.3" height="10.072" color-interpolation-filters="sRGB" filterUnits="userSpaceOnUse"><feFlood flood-opacity="0" result="BackgroundImageFix"/><feBlend in="SourceGraphic" in2="BackgroundImageFix" result="shape"/><feGaussianBlur result="effect1_foregroundBlur_18_15548" stdDeviation="0.2"/></filter><filter id="z" x="20.02" y="17.334" width="8.7156" height="5.7114" color-interpolation-filters="sRGB" filterUnits="userSpaceOnUse"><feFlood flood-opacity="0" result="BackgroundImageFix"/><feBlend in="SourceGraphic" in2="BackgroundImageFix" result="shape"/><feGaussianBlur result="effect1_foregroundBlur_18_15548" stdDeviation="0.2"/></filter><filter id="y" x="23.051" y="19.283" width="2.6804" height="7.0106" color-interpolation-filters="sRGB" filterUnits="userSpaceOnUse"><feFlood flood-opacity="0" result="BackgroundImageFix"/><feBlend in="SourceGraphic" in2="BackgroundImageFix" result="shape"/><feGaussianBlur result="effect1_foregroundBlur_18_15548" stdDeviation="0.2"/></filter><filter id="x" x="23.045" y="17.738" width="6.7668" height="2.622" color-interpolation-filters="sRGB" filterUnits="userSpaceOnUse"><feFlood flood-opacity="0" result="BackgroundImageFix"/><feBlend in="SourceGraphic" in2="BackgroundImageFix" result="shape"/><feGaussianBlur result="effect1_foregroundBlur_18_15548" stdDeviation="0.2"/></filter><filter id="w" x="24.278" y="11.378" width="5.4804" height="2.4078" color-interpolation-filters="sRGB" filterUnits="userSpaceOnUse"><feFlood flood-opacity="0" result="BackgroundImageFix"/><feBlend in="SourceGraphic" in2="BackgroundImageFix" result="shape"/><feGaussianBlur result="effect1_foregroundBlur_18_15548" stdDeviation="0.2"/></filter><filter id="v" x="23.349" y="8.4489" width="5.409" height="3.6939" color-interpolation-filters="sRGB" filterUnits="userSpaceOnUse"><feFlood flood-opacity="0" result="BackgroundImageFix"/><feBlend in="SourceGraphic" in2="BackgroundImageFix" result="shape"/><feGaussianBlur result="effect1_foregroundBlur_18_15548" stdDeviation="0.2"/></filter><filter id="u" x="23.206" y="5.7332" width="2.6221" height="6.088" color-interpolation-filters="sRGB" filterUnits="userSpaceOnUse"><feFlood flood-opacity="0" result="BackgroundImageFix"/><feBlend in="SourceGraphic" in2="BackgroundImageFix" result="shape"/><feGaussianBlur result="effect1_foregroundBlur_18_15548" stdDeviation="0.2"/></filter><filter id="t" x="4.4999" y="8.5552" width="9.3126" height="5.875" color-interpolation-filters="sRGB" filterUnits="userSpaceOnUse"><feFlood flood-opacity="0" result="BackgroundImageFix"/><feBlend in="SourceGraphic" in2="BackgroundImageFix" result="shape"/><feGaussianBlur result="effect1_foregroundBlur_18_15548" stdDeviation="0.25"/></filter><filter id="ag" x="7.5624" y="5.5533" width="2.9376" height="6.8752" color-interpolation-filters="sRGB" filterUnits="userSpaceOnUse"><feFlood flood-opacity="0" result="BackgroundImageFix"/><feBlend in="SourceGraphic" in2="BackgroundImageFix" result="shape"/><feGaussianBlur result="effect1_foregroundBlur_18_15548" stdDeviation="0.25"/></filter><filter id="af" x="3.3187" y="17.575" width="5.8001" height="2.5971" color-interpolation-filters="sRGB" filterUnits="userSpaceOnUse"><feFlood flood-opacity="0" result="BackgroundImageFix"/><feBlend in="SourceGraphic" in2="BackgroundImageFix" result="shape"/><feGaussianBlur result="effect1_foregroundBlur_18_15548" stdDeviation="0.2"/></filter><filter id="ae" x="11.753" y="2.956" width="4.5028" height="4.4154" color-interpolation-filters="sRGB" filterUnits="userSpaceOnUse"><feFlood flood-opacity="0" result="BackgroundImageFix"/><feBlend in="SourceGraphic" in2="BackgroundImageFix" result="shape"/><feGaussianBlur result="effect1_foregroundBlur_18_15548" stdDeviation="0.25"/></filter><filter id="ad" x="16.127" y="20.248" height="9.4505" color-interpolation-filters="sRGB" filterUnits="userSpaceOnUse"><feFlood flood-opacity="0" result="BackgroundImageFix"/><feBlend in="SourceGraphic" in2="BackgroundImageFix" result="shape"/><feGaussianBlur result="effect1_foregroundBlur_18_15548" stdDeviation="0.2"/></filter><filter id="ac" x="16.127" y="23.295" width="4.99" height="5.0191" color-interpolation-filters="sRGB" filterUnits="userSpaceOnUse"><feFlood flood-opacity="0" result="BackgroundImageFix"/><feBlend in="SourceGraphic" in2="BackgroundImageFix" result="shape"/><feGaussianBlur result="effect1_foregroundBlur_18_15548" stdDeviation="0.2"/></filter><linearGradient id="s" x1="21.644" x2="10.908" y1="20.506" y2="20.572" gradientUnits="userSpaceOnUse"><stop stop-color="#43C4F5" offset=".27224"/><stop stop-color="#3D8DF3" offset="1"/></linearGradient><linearGradient id="i" x1="24.783" x2="16.5" y1="20.506" y2="20.557" gradientUnits="userSpaceOnUse"><stop stop-color="#43C4F5" offset="0"/><stop stop-color="#43C4F5" stop-opacity="0" offset="1"/></linearGradient><radialGradient id="h" cx="0" cy="0" r="1" gradientTransform="translate(30.399 18.282) rotate(165.72) scale(1.536 1.632)" gradientUnits="userSpaceOnUse"><stop stop-color="#76E4FF" offset="0"/><stop stop-color="#76E4FF" stop-opacity="0" offset="1"/></radialGradient><radialGradient id="g" cx="0" cy="0" r="1" gradientTransform="translate(26.071 5.5795) rotate(114.94) scale(2.5416 2.2174)" gradientUnits="userSpaceOnUse"><stop stop-color="#6EECFF" offset="0"/><stop stop-color="#6EECFF" stop-opacity="0" offset="1"/></radialGradient><radialGradient id="f" cx="0" cy="0" r="1" gradientTransform="translate(28.906 8.741) rotate(146.98) scale(1.4909 1.3007)" gradientUnits="userSpaceOnUse"><stop stop-color="#6EECFF" offset="0"/><stop stop-color="#6EECFF" stop-opacity="0" offset="1"/></radialGradient><radialGradient id="e" cx="0" cy="0" r="1" gradientTransform="translate(21.424 2.948) rotate(136.17) scale(2.0207 2.0602)" gradientUnits="userSpaceOnUse"><stop stop-color="#78E5FF" offset="0"/><stop stop-color="#78E5FF" stop-opacity="0" offset="1"/></radialGradient><linearGradient id="d" x1="20.99" x2="12.756" y1="13.678" y2="18.845" gradientUnits="userSpaceOnUse"><stop stop-color="#BDE9FF" offset="0"/><stop stop-color="#6DBCFF" stop-opacity="0" offset=".29811"/><stop stop-color="#6DBCFF" stop-opacity="0" offset=".75238"/><stop stop-color="#BCE0FF" offset="1"/></linearGradient><linearGradient id="c" x1="17.227" x2="17.206" y1="2.8994" y2="12.599" gradientUnits="userSpaceOnUse"><stop stop-color="#75D5FF" offset="0"/><stop stop-color="#75D5FF" stop-opacity="0" offset="1"/></linearGradient><linearGradient id="b" x1="25.081" x2="24.106" y1="23.676" y2="18.531" gradientUnits="userSpaceOnUse"><stop stop-color="#5ACEFA" offset="0"/><stop stop-color="#5ACEFA" stop-opacity="0" offset="1"/></linearGradient><linearGradient id="a" x1="28.715" x2="27.65" y1="18.281" y2="16.984" gradientUnits="userSpaceOnUse"><stop stop-color="#5ACEFA" offset="0"/><stop stop-color="#5ACEFA" stop-opacity="0" offset="1"/></linearGradient><linearGradient id="r" x1="29.108" x2="29.096" y1="12.755" y2="11.721" gradientUnits="userSpaceOnUse"><stop stop-color="#5ACEFA" offset="0"/><stop stop-color="#5ACEFA" stop-opacity="0" offset="1"/></linearGradient><linearGradient id="q" x1="27.501" x2="24.838" y1="9.0989" y2="8.1032" gradientUnits="userSpaceOnUse"><stop stop-color="#5ACEFA" offset="0"/><stop stop-color="#5ACEFA" stop-opacity="0" offset="1"/></linearGradient><linearGradient id="p" x1="26" x2="24.306" y1="4.3347" y2="4.2488" gradientUnits="userSpaceOnUse"><stop stop-color="#63E1FD" offset=".17062"/><stop stop-color="#5ACEFA" stop-opacity="0" offset="1"/></linearGradient><linearGradient id="o" x1="5.625" x2="6.5715" y1="9.6177" y2="14.936" gradientUnits="userSpaceOnUse"><stop stop-color="#5A9CFF" offset="0"/><stop stop-color="#5BADFF" offset="1"/></linearGradient><linearGradient id="n" x1="8.3815" x2="11.702" y1="6.6874" y2="9.4816" gradientUnits="userSpaceOnUse"><stop stop-color="#5A9CFF" offset="0"/><stop stop-color="#5BADFF" offset="1"/></linearGradient><linearGradient id="m" x1="4.4212" x2="4.5542" y1="18.486" y2="19.426" gradientUnits="userSpaceOnUse"><stop stop-color="#5299FD" stop-opacity="0" offset="0"/><stop stop-color="#5299FD" offset=".76217"/></linearGradient><linearGradient id="l" x1="15.389" x2="14.312" y1="5.6594" y2="2.8022" gradientUnits="userSpaceOnUse"><stop stop-color="#65BFFF" offset="0"/><stop stop-color="#69BCFF" offset="1"/></linearGradient><linearGradient id="k" x1="16.727" x2="13.441" y1="28.545" y2="26.968" gradientUnits="userSpaceOnUse"><stop stop-color="#6ABFFF" offset="0"/><stop stop-color="#65BCFF" offset="1"/></linearGradient><linearGradient id="j" x1="20.75" x2="16.144" y1="27.714" y2="25.064" gradientUnits="userSpaceOnUse"><stop stop-color="#65C9FF" offset="0"/><stop stop-color="#60BEFF" offset="1"/></linearGradient></defs></svg>
