<svg fill="none" viewBox="0 0 32 32" xmlns="http://www.w3.org/2000/svg"><circle cx="3.0547" cy="19.945" r="1.0547" fill="url(#y)"/><circle cx="3.0547" cy="17.945" r="1.0547" fill="url(#n)"/><g filter="url(#ab)"><rect x="3" y="10.688" width="22" height="17.312" rx="8.6562" fill="url(#h)"/><rect x="3" y="10.688" width="22" height="17.312" rx="8.6562" fill="url(#g)"/></g><rect x="3" y="10.688" width="22" height="17.312" rx="8.6562" fill="url(#f)"/><rect x="3" y="10.688" width="22" height="17.312" rx="8.6562" fill="url(#e)"/><g filter="url(#aa)"><path d="m12.43 14.125c-0.2116-0.1774-0.527-0.1496-0.7043 0.0621-0.1774 0.2116-0.1496 0.527 0.062 0.7043l0.6423-0.7664zm-0.6844 9.7115c-0.1897 0.2006-0.1809 0.5171 0.0197 0.7068 0.2006 0.1898 0.5171 0.181 0.7069-0.0196l-0.7266-0.6872zm0.0421-8.9451c2.5447 2.1324 2.7895 5.9513-0.0421 8.9451l0.7266 0.6872c3.1684-3.35 3.0069-7.8436-0.0422-10.399l-0.6423 0.7664z" fill="#3A94E7"/></g><g filter="url(#z)"><path d="m12.43 14.125c-0.2116-0.1774-0.527-0.1496-0.7043 0.0621-0.1774 0.2116-0.1496 0.527 0.062 0.7043l0.6423-0.7664zm-0.6844 9.7115c-0.1897 0.2006-0.1809 0.5171 0.0197 0.7068 0.2006 0.1898 0.5171 0.181 0.7069-0.0196l-0.7266-0.6872zm0.0421-8.9451c2.5447 2.1324 2.7895 5.9513-0.0421 8.9451l0.7266 0.6872c3.1684-3.35 3.0069-7.8436-0.0422-10.399l-0.6423 0.7664z" fill="#3F61E7"/><path d="m12.43 14.125c-0.2116-0.1774-0.527-0.1496-0.7043 0.0621-0.1774 0.2116-0.1496 0.527 0.062 0.7043l0.6423-0.7664zm-0.6844 9.7115c-0.1897 0.2006-0.1809 0.5171 0.0197 0.7068 0.2006 0.1898 0.5171 0.181 0.7069-0.0196l-0.7266-0.6872zm0.0421-8.9451c2.5447 2.1324 2.7895 5.9513-0.0421 8.9451l0.7266 0.6872c3.1684-3.35 3.0069-7.8436-0.0422-10.399l-0.6423 0.7664z" fill="url(#d)"/><path d="m12.43 14.125c-0.2116-0.1774-0.527-0.1496-0.7043 0.0621-0.1774 0.2116-0.1496 0.527 0.062 0.7043l0.6423-0.7664zm-0.6844 9.7115c-0.1897 0.2006-0.1809 0.5171 0.0197 0.7068 0.2006 0.1898 0.5171 0.181 0.7069-0.0196l-0.7266-0.6872zm0.0421-8.9451c2.5447 2.1324 2.7895 5.9513-0.0421 8.9451l0.7266 0.6872c3.1684-3.35 3.0069-7.8436-0.0422-10.399l-0.6423 0.7664z" fill="url(#c)"/><path d="m12.43 14.125c-0.2116-0.1774-0.527-0.1496-0.7043 0.0621-0.1774 0.2116-0.1496 0.527 0.062 0.7043l0.6423-0.7664zm-0.6844 9.7115c-0.1897 0.2006-0.1809 0.5171 0.0197 0.7068 0.2006 0.1898 0.5171 0.181 0.7069-0.0196l-0.7266-0.6872zm0.0421-8.9451c2.5447 2.1324 2.7895 5.9513-0.0421 8.9451l0.7266 0.6872c3.1684-3.35 3.0069-7.8436-0.0422-10.399l-0.6423 0.7664z" fill="url(#b)"/></g><circle cx="8.6797" cy="17.48" r=".5" fill="url(#a)"/><circle cx="8.6797" cy="17.48" r=".5" fill="url(#x)"/><circle cx="8.6797" cy="17.48" r=".5" fill="url(#w)"/><path d="m25 24.125c0 2.2091 1.7909 4 4 4h0.2188c0.2761 0 0.5-0.2239 0.5-0.5v-4.25c0-2.2091-1.7909-4-4-4h-0.7188v4.75z" fill="url(#v)"/><path d="m25 24.125c0 2.2091 1.7909 4 4 4h0.2188c0.2761 0 0.5-0.2239 0.5-0.5v-4.25c0-2.2091-1.7909-4-4-4h-0.7188v4.75z" fill="url(#u)"/><path d="m25 24.125c0 2.2091 1.7909 4 4 4h0.2188c0.2761 0 0.5-0.2239 0.5-0.5v-4.25c0-2.2091-1.7909-4-4-4h-0.7188v4.75z" fill="url(#t)"/><path d="m25 24.125c0 2.2091 1.7909 4 4 4h0.2188c0.2761 0 0.5-0.2239 0.5-0.5v-4.25c0-2.2091-1.7909-4-4-4h-0.7188v4.75z" fill="url(#s)"/><path d="m25 14.625c0-2.2091 1.7909-4 4-4h0.2188c0.2761 0 0.5 0.2239 0.5 0.5v4.25c0 2.2091-1.7909 4-4 4h-0.7188v-4.75z" fill="url(#r)"/><path d="m25 14.625c0-2.2091 1.7909-4 4-4h0.2188c0.2761 0 0.5 0.2239 0.5 0.5v4.25c0 2.2091-1.7909 4-4 4h-0.7188v-4.75z" fill="url(#q)"/><path d="m25 14.625c0-2.2091 1.7909-4 4-4h0.2188c0.2761 0 0.5 0.2239 0.5 0.5v4.25c0 2.2091-1.7909 4-4 4h-0.7188v-4.75z" fill="url(#p)"/><path d="m15.171 28c0.9758 0 1.7669 0.791 1.7669 1.7668 0 0.122-0.0989 0.2209-0.2209 0.2209h-1.7605c-1.0978 0-1.9877-0.8899-1.9877-1.9877h2.2022z" fill="url(#o)"/><path d="m15.171 28c0.9758 0 1.7669 0.791 1.7669 1.7668 0 0.122-0.0989 0.2209-0.2209 0.2209h-1.7605c-1.0978 0-1.9877-0.8899-1.9877-1.9877h2.2022z" fill="url(#m)"/><path d="m15.171 28c0.9758 0 1.7669 0.791 1.7669 1.7668 0 0.122-0.0989 0.2209-0.2209 0.2209h-1.7605c-1.0978 0-1.9877-0.8899-1.9877-1.9877h2.2022z" fill="url(#l)"/><path d="m17.75 10.688c2.2091 0 4-1.7909 4-4v-0.32813c0-0.27614-0.2239-0.5-0.5-0.5h-5.141c-2.2091 0-4 1.7909-4 4v0.82813h5.641z" fill="url(#k)"/><path d="m17.75 10.688c2.2091 0 4-1.7909 4-4v-0.32813c0-0.27614-0.2239-0.5-0.5-0.5h-5.141c-2.2091 0-4 1.7909-4 4v0.82813h5.641z" fill="url(#j)"/><path d="m17.75 10.688c2.2091 0 4-1.7909 4-4v-0.32813c0-0.27614-0.2239-0.5-0.5-0.5h-5.141c-2.2091 0-4 1.7909-4 4v0.82813h5.641z" fill="url(#i)"/><defs><filter id="ab" x="2.5" y="10.188" width="22.5" height="17.812" color-interpolation-filters="sRGB" filterUnits="userSpaceOnUse"><feFlood flood-opacity="0" result="BackgroundImageFix"/><feBlend in="SourceGraphic" in2="BackgroundImageFix" result="shape"/><feColorMatrix in="SourceAlpha" result="hardAlpha" values="0 0 0 0 0 0 0 0 0 0 0 0 0 0 0 0 0 0 127 0"/><feOffset dx="-0.5" dy="-0.5"/><feGaussianBlur stdDeviation="1"/><feComposite in2="hardAlpha" k2="-1" k3="1" operator="arithmetic"/><feColorMatrix values="0 0 0 0 0.364706 0 0 0 0 0.407843 0 0 0 0 1 0 0 0 1 0"/><feBlend in2="shape" result="effect1_innerShadow_28327_5956"/><feColorMatrix in="SourceAlpha" result="hardAlpha" values="0 0 0 0 0 0 0 0 0 0 0 0 0 0 0 0 0 0 127 0"/><feOffset dx="-0.25"/><feGaussianBlur stdDeviation="0.25"/><feComposite in2="hardAlpha" k2="-1" k3="1" operator="arithmetic"/><feColorMatrix values="0 0 0 0 0.164706 0 0 0 0 0.411765 0 0 0 0 0.823529 0 0 0 1 0"/><feBlend in2="effect1_innerShadow_28327_5956" result="effect2_innerShadow_28327_5956"/></filter><filter id="aa" x="9.6092" y="12.008" width="7.1744" height="14.672" color-interpolation-filters="sRGB" filterUnits="userSpaceOnUse"><feFlood flood-opacity="0" result="BackgroundImageFix"/><feBlend in="SourceGraphic" in2="BackgroundImageFix" result="shape"/><feGaussianBlur result="effect1_foregroundBlur_28327_5956" stdDeviation="1"/></filter><filter id="z" x="11.609" y="14.008" width="3.1744" height="10.672" color-interpolation-filters="sRGB" filterUnits="userSpaceOnUse"><feFlood flood-opacity="0" result="BackgroundImageFix"/><feBlend in="SourceGraphic" in2="BackgroundImageFix" result="shape"/><feColorMatrix in="SourceAlpha" result="hardAlpha" values="0 0 0 0 0 0 0 0 0 0 0 0 0 0 0 0 0 0 127 0"/><feOffset/><feGaussianBlur stdDeviation="0.3"/><feComposite in2="hardAlpha" k2="-1" k3="1" operator="arithmetic"/><feColorMatrix values="0 0 0 0 0.133333 0 0 0 0 0.439216 0 0 0 0 0.941176 0 0 0 1 0"/><feBlend in2="shape" result="effect1_innerShadow_28327_5956"/></filter><radialGradient id="y" cx="0" cy="0" r="1" gradientTransform="translate(3.2188 19.602) rotate(150.68) scale(1.1648 1.5939)" gradientUnits="userSpaceOnUse"><stop stop-color="#3AAEE7" offset="0"/><stop stop-color="#45A5E8" offset="1"/></radialGradient><radialGradient id="n" cx="0" cy="0" r="1" gradientTransform="translate(3.2188 17.602) rotate(150.68) scale(1.1648 1.5939)" gradientUnits="userSpaceOnUse"><stop stop-color="#3AAEE7" offset="0"/><stop stop-color="#45A5E8" offset="1"/></radialGradient><radialGradient id="h" cx="0" cy="0" r="1" gradientTransform="translate(11 16) rotate(52.125) scale(18.528 24.344)" gradientUnits="userSpaceOnUse"><stop stop-color="#50CAFF" offset="0"/><stop stop-color="#4D7FFF" offset="1"/></radialGradient><linearGradient id="g" x1="14" x2="14" y1="29.375" y2="24.438" gradientUnits="userSpaceOnUse"><stop stop-color="#508BFF" offset="0"/><stop stop-color="#508BFF" stop-opacity="0" offset="1"/></linearGradient><radialGradient id="f" cx="0" cy="0" r="1" gradientTransform="translate(5.75 11.5) rotate(54.3) scale(12.853 14.71)" gradientUnits="userSpaceOnUse"><stop stop-color="#50CAFF" offset="0"/><stop stop-color="#50CAFF" stop-opacity="0" offset="1"/></radialGradient><radialGradient id="e" cx="0" cy="0" r="1" gradientTransform="translate(26 29.188) rotate(215.71) scale(26.555 22.416)" gradientUnits="userSpaceOnUse"><stop stop-color="#59C0E7" stop-opacity="0" offset=".93528"/><stop stop-color="#59C0E7" offset="1"/></radialGradient><radialGradient id="d" cx="0" cy="0" r="1" gradientTransform="translate(11.906 24.508) rotate(-51.994) scale(1.4972 .84392)" gradientUnits="userSpaceOnUse"><stop stop-color="#4A8CFF" offset="0"/><stop stop-color="#4A8CFF" stop-opacity="0" offset=".60916"/></radialGradient><radialGradient id="c" cx="0" cy="0" r="1" gradientTransform="translate(12.047 14.43) rotate(46.736) scale(1.2767 .761)" gradientUnits="userSpaceOnUse"><stop stop-color="#4A8CFF" offset="0"/><stop stop-color="#4A8CFF" stop-opacity="0" offset=".60916"/></radialGradient><radialGradient id="b" cx="0" cy="0" r="1" gradientTransform="translate(13.196 19.344) scale(1.6473 3.3438)" gradientUnits="userSpaceOnUse"><stop stop-color="#4F7FE6" offset=".20325"/><stop stop-color="#4F7FE6" stop-opacity="0" offset="1"/></radialGradient><radialGradient id="a" cx="0" cy="0" r="1" gradientTransform="translate(8.8281 17.32) rotate(125.84) scale(.69386 .61861)" gradientUnits="userSpaceOnUse"><stop stop-color="#433437" offset=".0055866"/><stop stop-color="#3B2838" offset="1"/></radialGradient><radialGradient id="x" cx="0" cy="0" r="1" gradientTransform="translate(8.8666 17.356) rotate(137.64) scale(.35946 .31624)" gradientUnits="userSpaceOnUse"><stop stop-color="#5C5051" offset="0"/><stop stop-color="#5C5051" stop-opacity="0" offset="1"/></radialGradient><linearGradient id="w" x1="8.5814" x2="8.2376" y1="17.088" y2="16.869" gradientUnits="userSpaceOnUse"><stop stop-color="#5C5051" stop-opacity="0" offset="0"/><stop stop-color="#5C5051" offset="1"/></linearGradient><radialGradient id="v" cx="0" cy="0" r="1" gradientTransform="translate(28.375 20.75) rotate(89.029) scale(7.3761 7.4702)" gradientUnits="userSpaceOnUse"><stop stop-color="#46AAFF" offset="0"/><stop stop-color="#368AFF" offset="1"/></radialGradient><radialGradient id="u" cx="0" cy="0" r="1" gradientTransform="translate(32.812 20.688) rotate(135.27) scale(9.5018 15.613)" gradientUnits="userSpaceOnUse"><stop stop-color="#3184E6" stop-opacity="0" offset=".80054"/><stop stop-color="#3184E6" offset="1"/></radialGradient><linearGradient id="t" x1="38.438" x2="25" y1="25.562" y2="25.562" gradientUnits="userSpaceOnUse"><stop stop-color="#3184E6" stop-opacity="0" offset=".84889"/><stop stop-color="#3184E6" offset="1"/></linearGradient><radialGradient id="s" cx="0" cy="0" r="1" gradientTransform="translate(29.719 21.125) rotate(90) scale(7 2.9629)" gradientUnits="userSpaceOnUse"><stop stop-color="#54BDFF" offset="0"/><stop stop-color="#54BDFF" stop-opacity="0" offset=".92268"/></radialGradient><radialGradient id="r" cx="0" cy="0" r="1" gradientTransform="translate(28.726 11.59) rotate(109.4) scale(8.5853 6.2735)" gradientUnits="userSpaceOnUse"><stop stop-color="#46AAFF" offset="0"/><stop stop-color="#368AFF" offset="1"/></radialGradient><radialGradient id="q" cx="0" cy="0" r="1" gradientTransform="translate(33.188 16) rotate(194.8) scale(9.0504 14.871)" gradientUnits="userSpaceOnUse"><stop stop-color="#3184E6" stop-opacity="0" offset=".72557"/><stop stop-color="#3184E6" offset="1"/></radialGradient><radialGradient id="p" cx="0" cy="0" r="1" gradientTransform="translate(29.719 11.094) rotate(90) scale(6.3125 1.1654)" gradientUnits="userSpaceOnUse"><stop stop-color="#54BDFF" offset="0"/><stop stop-color="#54BDFF" stop-opacity="0" offset=".92268"/></radialGradient><radialGradient id="o" cx="0" cy="0" r="1" gradientTransform="translate(15.688 29.5) rotate(203.38) scale(2.5195 1.7877)" gradientUnits="userSpaceOnUse"><stop stop-color="#4286FF" offset="0"/><stop stop-color="#3170FF" offset="1"/></radialGradient><linearGradient id="m" x1="15.188" x2="15.219" y1="27.531" y2="28.516" gradientUnits="userSpaceOnUse"><stop stop-color="#0E66FD" offset="0"/><stop stop-color="#0E66FD" stop-opacity="0" offset="1"/></linearGradient><radialGradient id="l" cx="0" cy="0" r="1" gradientTransform="translate(17.234 29.812) rotate(206) scale(2.8511 1.1271)" gradientUnits="userSpaceOnUse"><stop stop-color="#519DFF" offset="0"/><stop stop-color="#519DFF" stop-opacity="0" offset=".96941"/></radialGradient><radialGradient id="k" cx="0" cy="0" r="1" gradientTransform="translate(20.688 6.875) rotate(156.04) scale(9.3874 4.6555)" gradientUnits="userSpaceOnUse"><stop stop-color="#46AAFF" offset="0"/><stop stop-color="#2B86D9" offset="1"/></radialGradient><linearGradient id="j" x1="12.109" x2="12.109" y1="11.469" y2="9.4688" gradientUnits="userSpaceOnUse"><stop stop-color="#0A75CC" offset=".10938"/><stop stop-color="#0A75CC" stop-opacity="0" offset="1"/></linearGradient><radialGradient id="i" cx="0" cy="0" r="1" gradientTransform="translate(22.25 5.5) rotate(143.27) scale(5.225 1.6455)" gradientUnits="userSpaceOnUse"><stop stop-color="#54BDFF" offset="0"/><stop stop-color="#54BDFF" stop-opacity="0" offset=".64409"/></radialGradient></defs></svg>
