<svg fill="none" viewBox="0 0 32 32" xmlns="http://www.w3.org/2000/svg"><path d="m25.58 20.33c0.16-1.89-0.33-3.72 1.01-5.06l0.83-0.83c2.36-2.36 2.36-6.2 0-8.56l-1.86-1.86-1.34 1.34c-1.49 0.04-2.97 0.63-4.11 1.77l-0.21 0.2c-1.34 1.34-3.11 2.16-4.99 2.32-2.5 0.21-4.84 1.3-6.62 3.08-2.97 2.97-3.78 7.28-2.42 10.98l-0.68 0.68 2.55 2.55c4.08 4.08 10.69 4.08 14.77 0 1.77-1.77 2.86-4.11 3.07-6.61z" fill="url(#c)"/><path d="m20.66 3.47c1.39 0 2.78 0.53 3.84 1.59 2.12 2.12 2.12 5.56 0 7.68l-0.19 0.19c-1.2 1.2-1.94 2.79-2.08 4.48-0.19 2.24-1.17 4.35-2.76 5.94-1.83 1.83-4.23 2.75-6.63 2.75s-4.8-0.92-6.63-2.75c-3.66-3.66-3.66-9.59 0-13.25 1.59-1.59 3.69-2.57 5.94-2.76 1.69-0.14 3.28-0.88 4.48-2.08l0.19-0.19c1.06-1.07 2.45-1.6 3.84-1.6zm0-1.47c-1.84 0-3.58 0.72-4.88 2.02l-0.18 0.19c-0.95 0.95-2.22 1.54-3.57 1.66-2.59 0.22-5.02 1.35-6.85 3.18-2.05 2.05-3.18 4.78-3.18 7.67 0 2.9 1.13 5.62 3.18 7.67s4.77 3.18 7.67 3.18 5.62-1.13 7.67-3.18c1.83-1.83 2.97-4.27 3.19-6.85 0.11-1.35 0.7-2.61 1.66-3.57l0.19-0.19c1.3-1.3 2.02-3.04 2.02-4.88s-0.72-3.58-2.02-4.88c-1.32-1.3-3.05-2.02-4.9-2.02z" fill="#337D63"/><path d="m24.32 12.93 0.19-0.19c2.12-2.12 2.12-5.56 0-7.68s-5.56-2.12-7.68 0l-0.19 0.19c-1.2 1.2-2.79 1.94-4.48 2.08-2.25 0.19-4.35 1.17-5.94 2.76-3.66 3.66-3.66 9.59 0 13.25s9.59 3.66 13.25 0c1.59-1.59 2.57-3.69 2.76-5.94 0.15-1.68 0.89-3.27 2.09-4.47z" fill="#89BA4F"/><path d="m24.32 12.93 0.19-0.19c2.12-2.12 2.12-5.56 0-7.68s-5.56-2.12-7.68 0l-0.19 0.19c-1.2 1.2-2.79 1.94-4.48 2.08-2.25 0.19-4.35 1.17-5.94 2.76-3.66 3.66-3.66 9.59 0 13.25s9.59 3.66 13.25 0c1.59-1.59 2.57-3.69 2.76-5.94 0.15-1.68 0.89-3.27 2.09-4.47z" fill="url(#b)"/><g filter="url(#d)"><path d="m12.205 21.745c2.4079 0 4.36-1.952 4.36-4.36 0-2.4079-1.9521-4.36-4.36-4.36-2.408 0-4.36 1.9521-4.36 4.36 0 2.408 1.952 4.36 4.36 4.36z" fill="#6A8729"/></g><path d="m13.29 20.69c2.408 0 4.36-1.9521 4.36-4.36 0-2.408-1.952-4.36-4.36-4.36-2.4079 0-4.36 1.952-4.36 4.36 0 2.4079 1.9521 4.36 4.36 4.36z" fill="url(#a)"/><defs><filter id="d" x="3.845" y="9.025" width="16.72" height="16.72" color-interpolation-filters="sRGB" filterUnits="userSpaceOnUse"><feFlood flood-opacity="0" result="BackgroundImageFix"/><feBlend in="SourceGraphic" in2="BackgroundImageFix" result="shape"/><feGaussianBlur result="effect1_foregroundBlur_18_33347" stdDeviation="2"/></filter><linearGradient id="c" x1="29.19" x2="11" y1="9.25" y2="28.75" gradientUnits="userSpaceOnUse"><stop stop-color="#A9EC4A" offset=".0112"/><stop stop-color="#88C83E" offset=".1303"/><stop stop-color="#578546" offset=".25687"/><stop stop-color="#55A052" offset=".37978"/><stop stop-color="#275B57" offset=".60054"/><stop stop-color="#294F59" offset=".75112"/><stop stop-color="#395468" offset="1"/></linearGradient><radialGradient id="b" cx="0" cy="0" r="1" gradientTransform="translate(7.375 9.25) rotate(56.839) scale(20.11 54.537)" gradientUnits="userSpaceOnUse"><stop stop-color="#D9F650" offset=".35146"/><stop stop-color="#DEFB4F" stop-opacity="0" offset=".81486"/></radialGradient><radialGradient id="a" cx="0" cy="0" r="1" gradientTransform="translate(15.188 14.75) rotate(140.5) scale(7.3702)" gradientUnits="userSpaceOnUse"><stop stop-color="#D5A891" offset=".12908"/><stop stop-color="#A07751" offset=".44369"/><stop stop-color="#57463C" offset=".79171"/><stop stop-color="#5B5830" offset=".98264"/></radialGradient></defs></svg>
