<svg fill="none" viewBox="0 0 32 32" xmlns="http://www.w3.org/2000/svg"><rect x="15.141" y="9.25" width="1.7188" height="3.8594" fill="url(#v)"/><rect x="15.141" y="9.25" width="1.7188" height="3.8594" fill="url(#k)"/><rect x="15.141" y="9.25" width="1.7188" height="3.8594" fill="url(#h)"/><g filter="url(#ac)"><path d="m13.389 5.6946 1.6934-3.0928c0.4152-0.77887 1.4089-0.78085 1.8203 0l1.6817 3.0446c0.0228 0.03919 0.0448 0.07889 0.0658 0.11917l0.0064 0.01166c0.2125 0.41064 0.3321 0.87686 0.3321 1.3711 0 1.6504-1.3379 2.9883-2.9883 2.9883s-2.9883-1.3379-2.9883-2.9883c0-0.52774 0.1368-1.0235 0.3769-1.4538z" fill="url(#g)"/><path d="m13.389 5.6946 1.6934-3.0928c0.4152-0.77887 1.4089-0.78085 1.8203 0l1.6817 3.0446c0.0228 0.03919 0.0448 0.07889 0.0658 0.11917l0.0064 0.01166c0.2125 0.41064 0.3321 0.87686 0.3321 1.3711 0 1.6504-1.3379 2.9883-2.9883 2.9883s-2.9883-1.3379-2.9883-2.9883c0-0.52774 0.1368-1.0235 0.3769-1.4538z" fill="url(#f)"/><path d="m13.389 5.6946 1.6934-3.0928c0.4152-0.77887 1.4089-0.78085 1.8203 0l1.6817 3.0446c0.0228 0.03919 0.0448 0.07889 0.0658 0.11917l0.0064 0.01166c0.2125 0.41064 0.3321 0.87686 0.3321 1.3711 0 1.6504-1.3379 2.9883-2.9883 2.9883s-2.9883-1.3379-2.9883-2.9883c0-0.52774 0.1368-1.0235 0.3769-1.4538z" fill="url(#e)"/><path d="m13.389 5.6946 1.6934-3.0928c0.4152-0.77887 1.4089-0.78085 1.8203 0l1.6817 3.0446c0.0228 0.03919 0.0448 0.07889 0.0658 0.11917l0.0064 0.01166c0.2125 0.41064 0.3321 0.87686 0.3321 1.3711 0 1.6504-1.3379 2.9883-2.9883 2.9883s-2.9883-1.3379-2.9883-2.9883c0-0.52774 0.1368-1.0235 0.3769-1.4538z" fill="url(#d)"/></g><path d="m14.404 6.0864 1.0354-1.891c0.2537-0.47597 0.861-0.47719 1.1124 0l1.0273 1.8599c0.0142 0.02437 0.0279 0.04909 0.041 0.07416l0.0035 0.00646c0.1299 0.25095 0.203 0.53585 0.203 0.83788 0 1.0086-0.8176 1.8262-1.8262 1.8262s-1.8262-0.8176-1.8262-1.8262c0-0.3221 0.0834-0.62472 0.2298-0.88746z" fill="url(#c)"/><path d="m14.404 6.0864 1.0354-1.891c0.2537-0.47597 0.861-0.47719 1.1124 0l1.0273 1.8599c0.0142 0.02437 0.0279 0.04909 0.041 0.07416l0.0035 0.00646c0.1299 0.25095 0.203 0.53585 0.203 0.83788 0 1.0086-0.8176 1.8262-1.8262 1.8262s-1.8262-0.8176-1.8262-1.8262c0-0.3221 0.0834-0.62472 0.2298-0.88746z" fill="url(#b)"/><path d="m14.404 6.0864 1.0354-1.891c0.2537-0.47597 0.861-0.47719 1.1124 0l1.0273 1.8599c0.0142 0.02437 0.0279 0.04909 0.041 0.07416l0.0035 0.00646c0.1299 0.25095 0.203 0.53585 0.203 0.83788 0 1.0086-0.8176 1.8262-1.8262 1.8262s-1.8262-0.8176-1.8262-1.8262c0-0.3221 0.0834-0.62472 0.2298-0.88746z" fill="url(#a)"/><path d="m11.031 14.712c0-0.7732 0.6269-1.4 1.4-1.4h7.1376c0.7731 0 1.4 0.6268 1.4 1.4v13.778c0 0.7732-0.6269 1.4-1.4 1.4h-7.1376c-0.7731 0-1.4-0.6268-1.4-1.4v-13.778z" fill="url(#u)"/><path d="m11.031 14.712c0-0.7732 0.6269-1.4 1.4-1.4h7.1376c0.7731 0 1.4 0.6268 1.4 1.4v13.778c0 0.7732-0.6269 1.4-1.4 1.4h-7.1376c-0.7731 0-1.4-0.6268-1.4-1.4v-13.778z" fill="url(#t)"/><path d="m11.031 14.712c0-0.7732 0.6269-1.4 1.4-1.4h7.1376c0.7731 0 1.4 0.6268 1.4 1.4v13.778c0 0.7732-0.6269 1.4-1.4 1.4h-7.1376c-0.7731 0-1.4-0.6268-1.4-1.4v-13.778z" fill="url(#s)"/><path d="m11.031 14.712c0-0.7732 0.6269-1.4 1.4-1.4h7.1376c0.7731 0 1.4 0.6268 1.4 1.4v13.778c0 0.7732-0.6269 1.4-1.4 1.4h-7.1376c-0.7731 0-1.4-0.6268-1.4-1.4v-13.778z" fill="url(#r)"/><path d="m11.031 14.712c0-0.7732 0.6269-1.4 1.4-1.4h7.1376c0.7731 0 1.4 0.6268 1.4 1.4v13.778c0 0.7732-0.6269 1.4-1.4 1.4h-7.1376c-0.7731 0-1.4-0.6268-1.4-1.4v-13.778z" fill="url(#q)"/><g filter="url(#ab)"><rect x="15.547" y="17.656" width="4.875" height="11.281" fill="url(#p)"/></g><g filter="url(#aa)"><path d="m20.969 21.104v-6.1575c0-0.7732-0.6121-1.4-1.367-1.4h-6.9692c-0.755 0-1.367 0.6268-1.367 1.4v4.2295c0.6058-0.046 1.0832-0.5638 1.0832-1.1959v-2.0508c0-0.2762 0.2186-0.5 0.4882-0.5h2.5479c0.2696 0 0.4882 0.2238 0.4882 0.5v0.4687c0 0.6861 0.543 1.2422 1.2129 1.2422 0.6698 0 1.2129-0.5561 1.2129-1.2422v-0.5354c0-0.2393 0.1894-0.4333 0.4231-0.4333 0.2336 0 0.4231 0.194 0.4229 0.4333-5e-4 0.6103-2e-3 1.2279-0.0034 1.8459-0.0017 0.7637-0.0035 1.5279-0.0035 2.2794 0 0.7011 0.555 1.2695 1.2396 1.2695 0.214 0 0.4154-0.0556 0.5912-0.1534z" fill="url(#o)"/></g><g filter="url(#z)"><path d="m13.055 12.094c-1.6569 0-3 1.3431-3 3v2.6523c0 0.6623 0.5369 1.1992 1.1992 1.1992s1.1992-0.5369 1.1992-1.1992v-2.0508c0-0.2762 0.2239-0.5 0.5-0.5h2.6094c0.2761 0 0.5 0.2239 0.5 0.5v0.4688c0 0.686 0.5562 1.2421 1.2422 1.2421s1.2422-0.5561 1.2422-1.2421v-0.5355c0-0.2393 0.194-0.4333 0.4333-0.4333s0.4333 0.194 0.4331 0.4333c-0.0011 1.3647-0.0071 2.7657-0.0071 4.1253 0 0.7011 0.5684 1.2695 1.2696 1.2695 0.7011 0 1.2695-0.5684 1.2695-1.2695v-4.6601c0-1.6569-1.3431-3-3-3h-5.8906z" fill="url(#n)"/><path d="m13.055 12.094c-1.6569 0-3 1.3431-3 3v2.6523c0 0.6623 0.5369 1.1992 1.1992 1.1992s1.1992-0.5369 1.1992-1.1992v-2.0508c0-0.2762 0.2239-0.5 0.5-0.5h2.6094c0.2761 0 0.5 0.2239 0.5 0.5v0.4688c0 0.686 0.5562 1.2421 1.2422 1.2421s1.2422-0.5561 1.2422-1.2421v-0.5355c0-0.2393 0.194-0.4333 0.4333-0.4333s0.4333 0.194 0.4331 0.4333c-0.0011 1.3647-0.0071 2.7657-0.0071 4.1253 0 0.7011 0.5684 1.2695 1.2696 1.2695 0.7011 0 1.2695-0.5684 1.2695-1.2695v-4.6601c0-1.6569-1.3431-3-3-3h-5.8906z" fill="url(#m)"/></g><path d="m13.055 12.094c-1.6569 0-3 1.3431-3 3v2.6523c0 0.6623 0.5369 1.1992 1.1992 1.1992s1.1992-0.5369 1.1992-1.1992v-2.0508c0-0.2762 0.2239-0.5 0.5-0.5h2.6094c0.2761 0 0.5 0.2239 0.5 0.5v0.4688c0 0.686 0.5562 1.2421 1.2422 1.2421s1.2422-0.5561 1.2422-1.2421v-0.5355c0-0.2393 0.194-0.4333 0.4333-0.4333s0.4333 0.194 0.4331 0.4333c-0.0011 1.3647-0.0071 2.7657-0.0071 4.1253 0 0.7011 0.5684 1.2695 1.2696 1.2695 0.7011 0 1.2695-0.5684 1.2695-1.2695v-4.6601c0-1.6569-1.3431-3-3-3h-5.8906z" fill="url(#l)"/><path d="m13.055 12.094c-1.6569 0-3 1.3431-3 3v2.6523c0 0.6623 0.5369 1.1992 1.1992 1.1992s1.1992-0.5369 1.1992-1.1992v-2.0508c0-0.2762 0.2239-0.5 0.5-0.5h2.6094c0.2761 0 0.5 0.2239 0.5 0.5v0.4688c0 0.686 0.5562 1.2421 1.2422 1.2421s1.2422-0.5561 1.2422-1.2421v-0.5355c0-0.2393 0.194-0.4333 0.4333-0.4333s0.4333 0.194 0.4331 0.4333c-0.0011 1.3647-0.0071 2.7657-0.0071 4.1253 0 0.7011 0.5684 1.2695 1.2696 1.2695 0.7011 0 1.2695-0.5684 1.2695-1.2695v-4.6601c0-1.6569-1.3431-3-3-3h-5.8906z" fill="url(#j)"/><g filter="url(#y)"><rect x="20.109" y="14.891" width="1" height="5.1875" rx=".5" fill="#FFEFD1"/></g><g filter="url(#x)"><rect x="17.188" y="14.219" width="1" height="2.5371" rx=".5" fill="url(#i)"/></g><g filter="url(#w)"><rect x="12.125" y="15.106" width=".14062" height="2.9062" fill="#F0CDC0"/></g><defs><filter id="ac" x="13.012" y="2.017" width="6.2266" height="8.1198" color-interpolation-filters="sRGB" filterUnits="userSpaceOnUse"><feFlood flood-opacity="0" result="BackgroundImageFix"/><feBlend in="SourceGraphic" in2="BackgroundImageFix" result="shape"/><feColorMatrix in="SourceAlpha" result="hardAlpha" values="0 0 0 0 0 0 0 0 0 0 0 0 0 0 0 0 0 0 127 0"/><feOffset dx="0.25"/><feGaussianBlur stdDeviation="0.25"/><feComposite in2="hardAlpha" k2="-1" k3="1" operator="arithmetic"/><feColorMatrix values="0 0 0 0 1 0 0 0 0 0.619608 0 0 0 0 0.298039 0 0 0 1 0"/><feBlend in2="shape" result="effect1_innerShadow_18_20489"/></filter><filter id="ab" x="13.547" y="15.656" width="8.875" height="15.281" color-interpolation-filters="sRGB" filterUnits="userSpaceOnUse"><feFlood flood-opacity="0" result="BackgroundImageFix"/><feBlend in="SourceGraphic" in2="BackgroundImageFix" result="shape"/><feGaussianBlur result="effect1_foregroundBlur_18_20489" stdDeviation="1"/></filter><filter id="aa" x="10.766" y="13.047" width="10.703" height="8.7109" color-interpolation-filters="sRGB" filterUnits="userSpaceOnUse"><feFlood flood-opacity="0" result="BackgroundImageFix"/><feBlend in="SourceGraphic" in2="BackgroundImageFix" result="shape"/><feGaussianBlur result="effect1_foregroundBlur_18_20489" stdDeviation="0.25"/></filter><filter id="z" x="10.055" y="11.844" width="12.141" height="9.1797" color-interpolation-filters="sRGB" filterUnits="userSpaceOnUse"><feFlood flood-opacity="0" result="BackgroundImageFix"/><feBlend in="SourceGraphic" in2="BackgroundImageFix" result="shape"/><feColorMatrix in="SourceAlpha" result="hardAlpha" values="0 0 0 0 0 0 0 0 0 0 0 0 0 0 0 0 0 0 127 0"/><feOffset dx="0.25"/><feGaussianBlur stdDeviation="0.125"/><feComposite in2="hardAlpha" k2="-1" k3="1" operator="arithmetic"/><feColorMatrix values="0 0 0 0 0.960784 0 0 0 0 0.768627 0 0 0 0 0.690196 0 0 0 1 0"/><feBlend in2="shape" result="effect1_innerShadow_18_20489"/><feColorMatrix in="SourceAlpha" result="hardAlpha" values="0 0 0 0 0 0 0 0 0 0 0 0 0 0 0 0 0 0 127 0"/><feOffset dy="-0.25"/><feGaussianBlur stdDeviation="0.25"/><feComposite in2="hardAlpha" k2="-1" k3="1" operator="arithmetic"/><feColorMatrix values="0 0 0 0 0.843137 0 0 0 0 0.611765 0 0 0 0 0.627451 0 0 0 1 0"/><feBlend in2="effect1_innerShadow_18_20489" result="effect2_innerShadow_18_20489"/></filter><filter id="y" x="19.109" y="13.891" width="3" height="7.1875" color-interpolation-filters="sRGB" filterUnits="userSpaceOnUse"><feFlood flood-opacity="0" result="BackgroundImageFix"/><feBlend in="SourceGraphic" in2="BackgroundImageFix" result="shape"/><feGaussianBlur result="effect1_foregroundBlur_18_20489" stdDeviation="0.5"/></filter><filter id="x" x="16.188" y="13.219" width="3" height="4.5371" color-interpolation-filters="sRGB" filterUnits="userSpaceOnUse"><feFlood flood-opacity="0" result="BackgroundImageFix"/><feBlend in="SourceGraphic" in2="BackgroundImageFix" result="shape"/><feGaussianBlur result="effect1_foregroundBlur_18_20489" stdDeviation="0.5"/></filter><filter id="w" x="11.725" y="14.706" width=".94062" height="3.7062" color-interpolation-filters="sRGB" filterUnits="userSpaceOnUse"><feFlood flood-opacity="0" result="BackgroundImageFix"/><feBlend in="SourceGraphic" in2="BackgroundImageFix" result="shape"/><feGaussianBlur result="effect1_foregroundBlur_18_20489" stdDeviation="0.2"/></filter><linearGradient id="v" x1="15.391" x2="16.75" y1="11.797" y2="11.797" gradientUnits="userSpaceOnUse"><stop stop-color="#8D7A77" offset="0"/><stop stop-color="#C4B4B4" offset="1"/></linearGradient><linearGradient id="k" x1="17.016" x2="16.578" y1="12.109" y2="12.109" gradientUnits="userSpaceOnUse"><stop stop-color="#A69495" offset="0"/><stop stop-color="#A69495" stop-opacity="0" offset="1"/></linearGradient><radialGradient id="h" cx="0" cy="0" r="1" gradientTransform="translate(16 9.8281) rotate(90) scale(.96875 1.0508)" gradientUnits="userSpaceOnUse"><stop stop-color="#AA6772" offset=".11864"/><stop stop-color="#AA6772" stop-opacity="0" offset="1"/></radialGradient><linearGradient id="g" x1="16" x2="16" y1="2.017" y2="9.9062" gradientUnits="userSpaceOnUse"><stop stop-color="#FED873" offset="0"/><stop stop-color="#FFA03C" offset=".79204"/></linearGradient><radialGradient id="f" cx="0" cy="0" r="1" gradientTransform="translate(17.312 6.6875) rotate(90) scale(1.9688)" gradientUnits="userSpaceOnUse"><stop stop-color="#FCD381" offset=".24603"/><stop stop-color="#FCD381" stop-opacity="0" offset="1"/></radialGradient><radialGradient id="e" cx="0" cy="0" r="1" gradientTransform="translate(15.156 6.75) rotate(90) scale(1.8438 2.1445)" gradientUnits="userSpaceOnUse"><stop stop-color="#FCB276" offset=".48305"/><stop stop-color="#FCB276" stop-opacity="0" offset="1"/></radialGradient><radialGradient id="d" cx="0" cy="0" r="1" gradientTransform="translate(16.719 2.2656) rotate(61.032) scale(4.0005 1.7306)" gradientUnits="userSpaceOnUse"><stop stop-color="#FFEF50" offset=".13775"/><stop stop-color="#FFEF50" stop-opacity="0" offset="1"/></radialGradient><radialGradient id="c" cx="0" cy="0" r="1" gradientTransform="translate(17.234 6.7656) rotate(179.68) scale(2.8438 2.2021)" gradientUnits="userSpaceOnUse"><stop stop-color="#FFC25E" offset="0"/><stop stop-color="#FFB236" offset=".54717"/><stop stop-color="#FFB236" stop-opacity="0" offset="1"/></radialGradient><linearGradient id="b" x1="15.797" x2="15.797" y1="9.0468" y2="7.6406" gradientUnits="userSpaceOnUse"><stop stop-color="#FFA03D" offset="0"/><stop stop-color="#FFA03D" stop-opacity="0" offset="1"/></linearGradient><radialGradient id="a" cx="0" cy="0" r="1" gradientTransform="translate(13.922 7.1718) scale(2.0781 3.2344)" gradientUnits="userSpaceOnUse"><stop stop-color="#FF9335" offset="0"/><stop stop-color="#FF9335" stop-opacity="0" offset="1"/></radialGradient><linearGradient id="u" x1="11.797" x2="20.969" y1="25.781" y2="25.781" gradientUnits="userSpaceOnUse"><stop stop-color="#E4BFBA" offset="0"/><stop stop-color="#FDD7CE" offset="1"/></linearGradient><linearGradient id="t" x1="16" x2="16" y1="14.781" y2="26.312" gradientUnits="userSpaceOnUse"><stop stop-color="#EAB18C" offset="0"/><stop stop-color="#F6C6B0" stop-opacity="0" offset="1"/></linearGradient><linearGradient id="s" x1="10.578" x2="12.797" y1="25.875" y2="25.875" gradientUnits="userSpaceOnUse"><stop stop-color="#BA9D88" offset="0"/><stop stop-color="#D2AFA6" stop-opacity="0" offset="1"/></linearGradient><linearGradient id="r" x1="21.188" x2="20.016" y1="26.438" y2="26.438" gradientUnits="userSpaceOnUse"><stop stop-color="#F6E0BB" offset="0"/><stop stop-color="#F6E0BB" stop-opacity="0" offset="1"/></linearGradient><linearGradient id="q" x1="17.047" x2="17.047" y1="30.016" y2="28.469" gradientUnits="userSpaceOnUse"><stop stop-color="#C477BF" offset="0"/><stop stop-color="#E3A7C9" stop-opacity="0" offset="1"/></linearGradient><linearGradient id="p" x1="20.852" x2="15.547" y1="25.772" y2="25.772" gradientUnits="userSpaceOnUse"><stop stop-color="#FFF1D4" offset=".13254"/><stop stop-color="#FFF1D4" stop-opacity="0" offset="1"/></linearGradient><linearGradient id="o" x1="14.781" x2="16.117" y1="14.625" y2="21.258" gradientUnits="userSpaceOnUse"><stop stop-color="#D38665" offset="0"/><stop stop-color="#FFD0A5" offset="1"/></linearGradient><linearGradient id="n" x1="21.047" x2="14.672" y1="20.781" y2="15.156" gradientUnits="userSpaceOnUse"><stop stop-color="#FFEED0" offset="0"/><stop stop-color="#FFD3B0" offset="1"/></linearGradient><linearGradient id="m" x1="10.055" x2="16.391" y1="14.812" y2="14.812" gradientUnits="userSpaceOnUse"><stop stop-color="#CCA99B" offset="0"/><stop stop-color="#CCA99B" stop-opacity="0" offset="1"/></linearGradient><linearGradient id="l" x1="16" x2="16" y1="12.094" y2="12.547" gradientUnits="userSpaceOnUse"><stop stop-color="#FFBD7E" offset="0"/><stop stop-color="#FFBD7E" stop-opacity="0" offset="1"/></linearGradient><radialGradient id="j" cx="0" cy="0" r="1" gradientTransform="translate(19.359 16.844) rotate(188.22) scale(9.4012 8.8373)" gradientUnits="userSpaceOnUse"><stop stop-color="#CEA794" stop-opacity="0" offset=".79775"/><stop stop-color="#B79B81" offset="1"/></radialGradient><linearGradient id="i" x1="17.688" x2="17.688" y1="16.125" y2="13.906" gradientUnits="userSpaceOnUse"><stop stop-color="#FFEFD1" offset="0"/><stop stop-color="#FFEFD1" stop-opacity="0" offset="1"/></linearGradient></defs></svg>
