<svg fill="none" viewBox="0 0 32 32" xmlns="http://www.w3.org/2000/svg"><g filter="url(#i)"><rect x="2.5003" y="1.6875" width="27.875" height="27.875" rx="3.6" fill="url(#d)"/><rect x="2.5003" y="1.6875" width="27.875" height="27.875" rx="3.6" fill="url(#c)"/></g><g filter="url(#h)"><path d="m28.688 4.1875v22.875" stroke="url(#b)" stroke-linecap="round" stroke-width="1.5"/></g><g filter="url(#g)"><path d="m5.9642 3.5h21.781" stroke="url(#a)" stroke-linecap="round" stroke-width="1.5"/></g><g fill="#579FFF" filter="url(#f)"><path d="m24.304 26.625h2.25c0.49 0 0.88-0.39 0.88-0.87v-20.25c0-0.49-0.39-0.88-0.87-0.88h-2.25c-0.49 0-0.88 0.39-0.88 0.88v20.24c0 0.49 0.39 0.88 0.87 0.88z"/><path d="m20.554 26.625h-2.25c-0.48 0-0.87-0.39-0.87-0.88v-16.24c0-0.49 0.39-0.88 0.88-0.88h2.25c0.48 0 0.87 0.39 0.87 0.88v16.25c0 0.48-0.39 0.87-0.88 0.87z"/><path d="m12.314 26.625h2.24c0.49 0 0.88-0.39 0.89-0.87v-11.25c0-0.49-0.4-0.88-0.88-0.88h-2.25c-0.49 0-0.88 0.39-0.88 0.88v11.24c0 0.49 0.39 0.88 0.88 0.88z"/><path d="m6.3143 26.625h2.24c0.49 0 0.88-0.39 0.88-0.87v-5.25c0-0.49-0.39-0.88-0.87-0.88h-2.25c-0.49 0-0.88 0.39-0.88 0.87v5.25c0 0.49 0.39 0.88 0.88 0.88z"/></g><g fill="#FCF2FF" filter="url(#e)"><path d="m24.304 26.625h2.25c0.49 0 0.88-0.39 0.88-0.87v-20.25c0-0.49-0.39-0.88-0.87-0.88h-2.25c-0.49 0-0.88 0.39-0.88 0.88v20.24c0 0.49 0.39 0.88 0.87 0.88z"/><path d="m20.554 26.625h-2.25c-0.48 0-0.87-0.39-0.87-0.88v-16.24c0-0.49 0.39-0.88 0.88-0.88h2.25c0.48 0 0.87 0.39 0.87 0.88v16.25c0 0.48-0.39 0.87-0.88 0.87z"/><path d="m12.314 26.625h2.24c0.49 0 0.88-0.39 0.89-0.87v-11.25c0-0.49-0.4-0.88-0.88-0.88h-2.25c-0.49 0-0.88 0.39-0.88 0.88v11.24c0 0.49 0.39 0.88 0.88 0.88z"/><path d="m6.3143 26.625h2.24c0.49 0 0.88-0.39 0.88-0.87v-5.25c0-0.49-0.39-0.88-0.87-0.88h-2.25c-0.49 0-0.88 0.39-0.88 0.87v5.25c0 0.49 0.39 0.88 0.88 0.88z"/></g><defs><filter id="i" x="2.5003" y=".6875" width="28.875" height="28.875" color-interpolation-filters="sRGB" filterUnits="userSpaceOnUse"><feFlood flood-opacity="0" result="BackgroundImageFix"/><feBlend in="SourceGraphic" in2="BackgroundImageFix" result="shape"/><feColorMatrix in="SourceAlpha" result="hardAlpha" values="0 0 0 0 0 0 0 0 0 0 0 0 0 0 0 0 0 0 127 0"/><feOffset dx="1" dy="-1"/><feGaussianBlur stdDeviation="1.5"/><feComposite in2="hardAlpha" k2="-1" k3="1" operator="arithmetic"/><feColorMatrix values="0 0 0 0 0.188235 0 0 0 0 0.470588 0 0 0 0 0.843137 0 0 0 1 0"/><feBlend in2="shape" result="effect1_innerShadow_18590_1624"/><feColorMatrix in="SourceAlpha" result="hardAlpha" values="0 0 0 0 0 0 0 0 0 0 0 0 0 0 0 0 0 0 127 0"/><feOffset dy="-1"/><feGaussianBlur stdDeviation="1.5"/><feComposite in2="hardAlpha" k2="-1" k3="1" operator="arithmetic"/><feColorMatrix values="0 0 0 0 0.27451 0 0 0 0 0.34902 0 0 0 0 0.8 0 0 0 1 0"/><feBlend in2="effect1_innerShadow_18590_1624" result="effect2_innerShadow_18590_1624"/></filter><filter id="h" x="25.938" y="1.4375" width="5.5" height="28.375" color-interpolation-filters="sRGB" filterUnits="userSpaceOnUse"><feFlood flood-opacity="0" result="BackgroundImageFix"/><feBlend in="SourceGraphic" in2="BackgroundImageFix" result="shape"/><feGaussianBlur result="effect1_foregroundBlur_18590_1624" stdDeviation="1"/></filter><filter id="g" x="3.2142" y=".75" width="27.281" height="5.5" color-interpolation-filters="sRGB" filterUnits="userSpaceOnUse"><feFlood flood-opacity="0" result="BackgroundImageFix"/><feBlend in="SourceGraphic" in2="BackgroundImageFix" result="shape"/><feGaussianBlur result="effect1_foregroundBlur_18590_1624" stdDeviation="1"/></filter><filter id="f" x="4.4343" y="3.625" width="24" height="24" color-interpolation-filters="sRGB" filterUnits="userSpaceOnUse"><feFlood flood-opacity="0" result="BackgroundImageFix"/><feBlend in="SourceGraphic" in2="BackgroundImageFix" result="shape"/><feGaussianBlur result="effect1_foregroundBlur_18590_1624" stdDeviation="0.5"/></filter><filter id="e" x="4.4343" y="4.225" width="23.4" height="23.4" color-interpolation-filters="sRGB" filterUnits="userSpaceOnUse"><feFlood flood-opacity="0" result="BackgroundImageFix"/><feBlend in="SourceGraphic" in2="BackgroundImageFix" result="shape"/><feColorMatrix in="SourceAlpha" result="hardAlpha" values="0 0 0 0 0 0 0 0 0 0 0 0 0 0 0 0 0 0 127 0"/><feOffset dx="-1" dy="1"/><feGaussianBlur stdDeviation="1"/><feComposite in2="hardAlpha" k2="-1" k3="1" operator="arithmetic"/><feColorMatrix values="0 0 0 0 0.866667 0 0 0 0 0.819608 0 0 0 0 0.941176 0 0 0 1 0"/><feBlend in2="shape" result="effect1_innerShadow_18590_1624"/><feColorMatrix in="SourceAlpha" result="hardAlpha" values="0 0 0 0 0 0 0 0 0 0 0 0 0 0 0 0 0 0 127 0"/><feOffset dx="0.4" dy="-0.4"/><feGaussianBlur stdDeviation="0.5"/><feComposite in2="hardAlpha" k2="-1" k3="1" operator="arithmetic"/><feColorMatrix values="0 0 0 0 1 0 0 0 0 0.988235 0 0 0 0 1 0 0 0 1 0"/><feBlend in2="effect1_innerShadow_18590_1624" result="effect2_innerShadow_18590_1624"/></filter><linearGradient id="d" x1="16.438" x2="16.438" y1="5.262" y2="38.515" gradientUnits="userSpaceOnUse"><stop stop-color="#5CB7FF" offset="0"/><stop stop-color="#4878DD" offset="1"/></linearGradient><radialGradient id="c" cx="0" cy="0" r="1" gradientTransform="translate(28.157 3.7812) rotate(136.77) scale(2.1444 2.5047)" gradientUnits="userSpaceOnUse"><stop stop-color="#7BD7FF" offset="0"/><stop stop-color="#7BD7FF" stop-opacity="0" offset="1"/></radialGradient><linearGradient id="b" x1="29.188" x2="29.188" y1="4.1875" y2="27.062" gradientUnits="userSpaceOnUse"><stop stop-color="#7FD9FF" offset="0"/><stop stop-color="#639DF4" offset="1"/></linearGradient><linearGradient id="a" x1="28.902" x2="3.3704" y1="3.75" y2="3.75" gradientUnits="userSpaceOnUse"><stop stop-color="#7DD8FF" offset="0"/><stop stop-color="#5DB6FF" offset="1"/></linearGradient></defs></svg>
