<svg width="448" height="64" viewBox="0 0 448 64" fill="none" xmlns="http://www.w3.org/2000/svg">
<g clip-path="url(#clip0_114_450)">
<path d="M235.25 45.5C236.217 45.5 237 44.7165 237 43.75C237 42.7835 236.217 42 235.25 42C234.284 42 233.5 42.7835 233.5 43.75C233.5 44.7165 234.284 45.5 235.25 45.5Z" fill="white"/>
<path d="M241.213 45.5C242.18 45.5 242.963 44.7165 242.963 43.75C242.963 42.7835 242.18 42 241.213 42C240.247 42 239.463 42.7835 239.463 43.75C239.463 44.7165 240.247 45.5 241.213 45.5Z" fill="white"/>
<path d="M247.17 45.5C248.137 45.5 248.92 44.7165 248.92 43.75C248.92 42.7835 248.137 42 247.17 42C246.204 42 245.42 42.7835 245.42 43.75C245.42 44.7165 246.204 45.5 247.17 45.5Z" fill="white"/>
<path d="M30.7586 23.3955H22V18.2144H45.8588V23.3955H37.1002V45.6877H30.7647V23.3955H30.7586Z" fill="white"/>
<path d="M74.3685 18.2144V45.6815H68.0331V34.4191H55.594V45.6815H49.2585V18.2144H55.594V29.0481H68.0331V18.2144H74.3685Z" fill="white"/>
<path d="M97.69 45.6877L92.4105 38.0324H86.5816V45.6877H80.2461V18.2144H92.0992C94.5223 18.2144 96.628 18.6186 98.4164 19.4331C100.205 20.2415 101.578 21.3928 102.542 22.8871C103.507 24.3815 103.989 26.1452 103.989 28.1846C103.989 30.224 103.501 31.9878 102.524 33.4637C101.547 34.9396 100.156 36.0726 98.3614 36.8565L104.502 45.6877H97.6961H97.69ZM96.0909 24.6326C95.1021 23.8058 93.6556 23.3955 91.7513 23.3955H86.5877V32.9676H91.7513C93.6556 32.9676 95.1021 32.5512 96.0909 31.7122C97.0797 30.8731 97.5802 29.6973 97.5802 28.1785C97.5802 26.6597 97.0858 25.4532 96.0909 24.6264V24.6326Z" fill="white"/>
<path d="M130.192 40.5862V45.6877H108.994V18.2144H129.685V23.3158H115.293V29.2808H128.006V34.2231H115.293V40.5801H130.192V40.5862Z" fill="white"/>
<path d="M156.437 40.5862V45.6877H135.239V18.2144H155.93V23.3158H141.538V29.2808H154.252V34.2231H141.538V40.5801H156.437V40.5862Z" fill="white"/>
<path d="M186.393 45.6877L186.356 29.2074L178.3 42.7848H175.443L167.423 29.5626V45.6938H161.478V18.2144H166.721L176.969 35.2826L187.058 18.2144H192.258L192.338 45.6815H186.393V45.6877Z" fill="white"/>
<path d="M216.862 39.8023H204.148L201.725 45.6877H195.231L207.432 18.2144H213.688L225.932 45.6815H219.285L216.862 39.7962V39.8023ZM214.866 34.9764L210.526 24.4611L206.187 34.9764H214.866Z" fill="white"/>
<path d="M241.003 18C247.067 18 252 22.9342 252 29C252 35.0658 247.067 40 241.003 40C238.765 40 236.688 39.3317 234.951 38.1816L230.724 39.5361L232.096 35.4492C230.779 33.6375 230 31.4053 230 29C230 22.9342 234.933 18 240.997 18H241.003ZM241.205 23C239.484 23.0002 238.08 24.4088 238.08 26.1357V27.5996H237.982C237.439 27.5997 237 28.0401 237 28.585V32.542C237 33.0868 237.439 33.5272 237.982 33.5273H244.422C244.965 33.5273 245.404 33.0868 245.404 32.542V28.585C245.404 28.0401 244.965 27.5996 244.422 27.5996H244.33V26.1357C244.33 24.4087 242.926 23 241.205 23ZM241.205 24.2861C242.218 24.2861 243.049 25.1191 243.049 26.1357V27.5996H239.362V26.1357C239.362 25.1131 240.192 24.2863 241.205 24.2861Z" fill="white"/>
</g>
<path d="M257 45.8V18.2H267.33C269.67 18.2 271.681 18.5812 273.363 19.3434C275.045 20.0794 276.333 21.1572 277.227 22.5766C278.147 23.9697 278.607 25.6652 278.607 27.6629C278.607 29.608 278.147 31.2903 277.227 32.7097C276.333 34.1029 275.045 35.1806 273.363 35.9429C271.681 36.7052 269.67 37.0863 267.33 37.0863H258.617L259.918 35.7063V45.8H257ZM259.918 35.9429L258.617 34.5234H267.251C270.011 34.5234 272.101 33.932 273.521 32.7492C274.966 31.54 275.689 29.8446 275.689 27.6629C275.689 25.4549 274.966 23.7463 273.521 22.5372C272.101 21.328 270.011 20.7234 267.251 20.7234H258.617L259.918 19.3434V35.9429Z" fill="white"/>
<path d="M285.704 45.8V18.2H296.035C298.374 18.2 300.385 18.5812 302.067 19.3434C303.749 20.0794 305.037 21.1572 305.931 22.5766C306.851 23.9697 307.311 25.6652 307.311 27.6629C307.311 29.608 306.851 31.2903 305.931 32.7097C305.037 34.1029 303.749 35.1806 302.067 35.9429C300.385 36.6789 298.374 37.0469 296.035 37.0469H287.321L288.622 35.7063V45.8H285.704ZM304.551 45.8L297.454 35.7852H300.608L307.745 45.8H304.551ZM288.622 35.9429L287.321 34.5629H295.956C298.716 34.5629 300.805 33.9583 302.225 32.7492C303.671 31.54 304.393 29.8446 304.393 27.6629C304.393 25.4549 303.671 23.7463 302.225 22.5372C300.805 21.328 298.716 20.7234 295.956 20.7234H287.321L288.622 19.3434V35.9429Z" fill="white"/>
<path d="M314.986 45.8V18.2H317.904V45.8H314.986Z" fill="white"/>
<path d="M335.211 45.8L322.988 18.2H326.142L337.577 44.1834H335.842L347.355 18.2H350.312L338.089 45.8H335.211Z" fill="white"/>
<path d="M349.843 45.8L362.46 18.2H365.339L377.956 45.8H374.88L363.288 19.8954H364.471L352.879 45.8H349.843ZM354.811 38.4269L355.679 36.0612H371.726L372.594 38.4269H354.811Z" fill="white"/>
<path d="M387.286 45.8V20.7234H377.587V18.2H399.903V20.7234H390.204V45.8H387.286Z" fill="white"/>
<path d="M407.955 30.5412H422.544V33.0252H407.955V30.5412ZM408.271 43.2766H424.87V45.8H405.353V18.2H424.279V20.7234H408.271V43.2766Z" fill="white"/>
<defs>
<clipPath id="clip0_114_450">
<rect width="230" height="28" fill="white" transform="translate(22 18)"/>
</clipPath>
</defs>
</svg>
