<svg fill="none" viewBox="0 0 32 32" xmlns="http://www.w3.org/2000/svg"><path d="m19.181 29.961h-6.3117c-0.5358 0-0.943-0.6084-0.8251-1.2427l0.5143-2.7573h6.9333l0.5143 2.7573c0.1072 0.6343-0.2893 1.2427-0.8251 1.2427z" fill="#795556"/><path d="m19.181 29.961h-6.3117c-0.5358 0-0.943-0.6084-0.8251-1.2427l0.5143-2.7573h6.9333l0.5143 2.7573c0.1072 0.6343-0.2893 1.2427-0.8251 1.2427z" fill="url(#ae)"/><path d="m19.181 29.961h-6.3117c-0.5358 0-0.943-0.6084-0.8251-1.2427l0.5143-2.7573h6.9333l0.5143 2.7573c0.1072 0.6343-0.2893 1.2427-0.8251 1.2427z" fill="url(#t)"/><path d="m19.181 29.961h-6.3117c-0.5358 0-0.943-0.6084-0.8251-1.2427l0.5143-2.7573h6.9333l0.5143 2.7573c0.1072 0.6343-0.2893 1.2427-0.8251 1.2427z" fill="url(#i)"/><path d="m19.181 29.961h-6.3117c-0.5358 0-0.943-0.6084-0.8251-1.2427l0.5143-2.7573h6.9333l0.5143 2.7573c0.1072 0.6343-0.2893 1.2427-0.8251 1.2427z" fill="url(#g)"/><path d="m19.181 29.961h-6.3117c-0.5358 0-0.943-0.6084-0.8251-1.2427l0.5143-2.7573h6.9333l0.5143 2.7573c0.1072 0.6343-0.2893 1.2427-0.8251 1.2427z" fill="url(#f)"/><path d="m19.181 29.961h-6.3117c-0.5358 0-0.943-0.6084-0.8251-1.2427l0.5143-2.7573h6.9333l0.5143 2.7573c0.1072 0.6343-0.2893 1.2427-0.8251 1.2427z" fill="url(#e)"/><g filter="url(#aj)"><path d="m12.378 19.258h7.2912c2.0888 0 2.936 0.3029 4.0341 1.4687 0.6797 0.8099 1.3437 1.6802 1.2656 3.2813-0.0937 1.9218-1.203 2.8906-3.4999 2.8906h-10.891c-2.2968 0-3.4062-0.9688-3.4999-2.8906-0.07808-1.6011 0.58588-2.4714 1.2656-3.2813 1.0981-1.1658 1.9453-1.4687 4.0341-1.4687z" fill="url(#d)"/><path d="m12.378 19.258h7.2912c2.0888 0 2.936 0.3029 4.0341 1.4687 0.6797 0.8099 1.3437 1.6802 1.2656 3.2813-0.0937 1.9218-1.203 2.8906-3.4999 2.8906h-10.891c-2.2968 0-3.4062-0.9688-3.4999-2.8906-0.07808-1.6011 0.58588-2.4714 1.2656-3.2813 1.0981-1.1658 1.9453-1.4687 4.0341-1.4687z" fill="url(#c)"/><path d="m12.378 19.258h7.2912c2.0888 0 2.936 0.3029 4.0341 1.4687 0.6797 0.8099 1.3437 1.6802 1.2656 3.2813-0.0937 1.9218-1.203 2.8906-3.4999 2.8906h-10.891c-2.2968 0-3.4062-0.9688-3.4999-2.8906-0.07808-1.6011 0.58588-2.4714 1.2656-3.2813 1.0981-1.1658 1.9453-1.4687 4.0341-1.4687z" fill="url(#b)"/><path d="m12.378 19.258h7.2912c2.0888 0 2.936 0.3029 4.0341 1.4687 0.6797 0.8099 1.3437 1.6802 1.2656 3.2813-0.0937 1.9218-1.203 2.8906-3.4999 2.8906h-10.891c-2.2968 0-3.4062-0.9688-3.4999-2.8906-0.07808-1.6011 0.58588-2.4714 1.2656-3.2813 1.0981-1.1658 1.9453-1.4687 4.0341-1.4687z" fill="url(#a)"/></g><path d="m12.378 19.258h7.2912c2.0888 0 2.936 0.3029 4.0341 1.4687 0.6797 0.8099 1.3437 1.6802 1.2656 3.2813-0.0937 1.9218-1.203 2.8906-3.4999 2.8906h-10.891c-2.2968 0-3.4062-0.9688-3.4999-2.8906-0.07808-1.6011 0.58588-2.4714 1.2656-3.2813 1.0981-1.1658 1.9453-1.4687 4.0341-1.4687z" fill="url(#ad)"/><path d="m13.65 13.804c-0.9962 0-1.8491 0.3477-2.5639 1.1797-0.0278 0.0364-0.0559 0.0728-0.0841 0.1094-0.4208 0.5458-0.8762 1.1366-1.041 2.1839-0.07034 1.3317 0.58295 1.9802 1.6876 1.9802h8.7188c1.1045 0 1.7579-0.6485 1.6875-1.9802-0.1647-1.0473-0.6201-1.6381-1.0409-2.1839-0.0283-0.0366-0.0563-0.073-0.0841-0.1094-0.7149-0.832-1.5677-1.1797-2.5639-1.1797h-4.716z" fill="url(#ac)"/><path d="m13.65 13.804c-0.9962 0-1.8491 0.3477-2.5639 1.1797-0.0278 0.0364-0.0559 0.0728-0.0841 0.1094-0.4208 0.5458-0.8762 1.1366-1.041 2.1839-0.07034 1.3317 0.58295 1.9802 1.6876 1.9802h8.7188c1.1045 0 1.7579-0.6485 1.6875-1.9802-0.1647-1.0473-0.6201-1.6381-1.0409-2.1839-0.0283-0.0366-0.0563-0.073-0.0841-0.1094-0.7149-0.832-1.5677-1.1797-2.5639-1.1797h-4.716z" fill="url(#ab)"/><path d="m13.65 13.804c-0.9962 0-1.8491 0.3477-2.5639 1.1797-0.0278 0.0364-0.0559 0.0728-0.0841 0.1094-0.4208 0.5458-0.8762 1.1366-1.041 2.1839-0.07034 1.3317 0.58295 1.9802 1.6876 1.9802h8.7188c1.1045 0 1.7579-0.6485 1.6875-1.9802-0.1647-1.0473-0.6201-1.6381-1.0409-2.1839-0.0283-0.0366-0.0563-0.073-0.0841-0.1094-0.7149-0.832-1.5677-1.1797-2.5639-1.1797h-4.716z" fill="url(#aa)"/><path d="m13.65 13.804c-0.9962 0-1.8491 0.3477-2.5639 1.1797-0.0278 0.0364-0.0559 0.0728-0.0841 0.1094-0.4208 0.5458-0.8762 1.1366-1.041 2.1839-0.07034 1.3317 0.58295 1.9802 1.6876 1.9802h8.7188c1.1045 0 1.7579-0.6485 1.6875-1.9802-0.1647-1.0473-0.6201-1.6381-1.0409-2.1839-0.0283-0.0366-0.0563-0.073-0.0841-0.1094-0.7149-0.832-1.5677-1.1797-2.5639-1.1797h-4.716z" fill="url(#z)"/><path d="m13.65 13.804c-0.9962 0-1.8491 0.3477-2.5639 1.1797-0.0278 0.0364-0.0559 0.0728-0.0841 0.1094-0.4208 0.5458-0.8762 1.1366-1.041 2.1839-0.07034 1.3317 0.58295 1.9802 1.6876 1.9802h8.7188c1.1045 0 1.7579-0.6485 1.6875-1.9802-0.1647-1.0473-0.6201-1.6381-1.0409-2.1839-0.0283-0.0366-0.0563-0.073-0.0841-0.1094-0.7149-0.832-1.5677-1.1797-2.5639-1.1797h-4.716z" fill="url(#y)"/><path d="m13.65 13.804c-0.9962 0-1.8491 0.3477-2.5639 1.1797-0.0278 0.0364-0.0559 0.0728-0.0841 0.1094-0.4208 0.5458-0.8762 1.1366-1.041 2.1839-0.07034 1.3317 0.58295 1.9802 1.6876 1.9802h8.7188c1.1045 0 1.7579-0.6485 1.6875-1.9802-0.1647-1.0473-0.6201-1.6381-1.0409-2.1839-0.0283-0.0366-0.0563-0.073-0.0841-0.1094-0.7149-0.832-1.5677-1.1797-2.5639-1.1797h-4.716z" fill="url(#x)"/><path d="m13.65 13.804c-0.9962 0-1.8491 0.3477-2.5639 1.1797-0.0278 0.0364-0.0559 0.0728-0.0841 0.1094-0.4208 0.5458-0.8762 1.1366-1.041 2.1839-0.07034 1.3317 0.58295 1.9802 1.6876 1.9802h8.7188c1.1045 0 1.7579-0.6485 1.6875-1.9802-0.1647-1.0473-0.6201-1.6381-1.0409-2.1839-0.0283-0.0366-0.0563-0.073-0.0841-0.1094-0.7149-0.832-1.5677-1.1797-2.5639-1.1797h-4.716z" fill="url(#w)"/><path d="m14.708 7.1685c0.5696-1.0375 2.0602-1.0376 2.6298-1e-5l2.586 4.7105c0.4756 0.8664-0.1513 1.9256-1.1396 1.9256h-5.5225c-0.9884 0-1.6152-1.0592-1.1396-1.9256l2.5859-4.7105z" fill="url(#v)"/><path d="m14.708 7.1685c0.5696-1.0375 2.0602-1.0376 2.6298-1e-5l2.586 4.7105c0.4756 0.8664-0.1513 1.9256-1.1396 1.9256h-5.5225c-0.9884 0-1.6152-1.0592-1.1396-1.9256l2.5859-4.7105z" fill="url(#u)"/><path d="m14.708 7.1685c0.5696-1.0375 2.0602-1.0376 2.6298-1e-5l2.586 4.7105c0.4756 0.8664-0.1513 1.9256-1.1396 1.9256h-5.5225c-0.9884 0-1.6152-1.0592-1.1396-1.9256l2.5859-4.7105z" fill="url(#s)"/><path d="m14.708 7.1685c0.5696-1.0375 2.0602-1.0376 2.6298-1e-5l2.586 4.7105c0.4756 0.8664-0.1513 1.9256-1.1396 1.9256h-5.5225c-0.9884 0-1.6152-1.0592-1.1396-1.9256l2.5859-4.7105z" fill="url(#r)"/><path d="m14.708 7.1685c0.5696-1.0375 2.0602-1.0376 2.6298-1e-5l2.586 4.7105c0.4756 0.8664-0.1513 1.9256-1.1396 1.9256h-5.5225c-0.9884 0-1.6152-1.0592-1.1396-1.9256l2.5859-4.7105z" fill="url(#q)"/><path d="m14.708 7.1685c0.5696-1.0375 2.0602-1.0376 2.6298-1e-5l2.586 4.7105c0.4756 0.8664-0.1513 1.9256-1.1396 1.9256h-5.5225c-0.9884 0-1.6152-1.0592-1.1396-1.9256l2.5859-4.7105z" fill="url(#p)"/><path d="m14.708 7.1685c0.5696-1.0375 2.0602-1.0376 2.6298-1e-5l2.586 4.7105c0.4756 0.8664-0.1513 1.9256-1.1396 1.9256h-5.5225c-0.9884 0-1.6152-1.0592-1.1396-1.9256l2.5859-4.7105z" fill="url(#o)"/><g filter="url(#ai)"><ellipse cx="18.424" cy="23.078" rx="5.5967" ry="2.5941" fill="url(#n)"/><ellipse cx="18.424" cy="23.078" rx="5.5967" ry="2.5941" fill="url(#m)"/></g><g filter="url(#ah)"><ellipse cx="16.772" cy="16.531" rx="4.4365" ry="1.5859" fill="url(#l)"/><ellipse cx="16.772" cy="16.531" rx="4.4365" ry="1.5859" fill="url(#k)"/></g><g filter="url(#ag)"><path d="m15.109 12.283c0.6912-0.3125 2.5135-0.7344 4.2734 0.0781-0.7573 0.2448-2.6723 0.5719-4.2734-0.0781z" fill="url(#j)"/></g><g filter="url(#af)"><path d="m16.6 6.8713v5.6733h3.1526l-3.1526-5.6733z" fill="url(#h)"/></g><defs><filter id="aj" x="7.0717" y="19.258" width="18.153" height="7.6406" color-interpolation-filters="sRGB" filterUnits="userSpaceOnUse"><feFlood flood-opacity="0" result="BackgroundImageFix"/><feBlend in="SourceGraphic" in2="BackgroundImageFix" result="shape"/><feColorMatrix in="SourceAlpha" result="hardAlpha" values="0 0 0 0 0 0 0 0 0 0 0 0 0 0 0 0 0 0 127 0"/><feOffset dx="0.25"/><feGaussianBlur stdDeviation="0.375"/><feComposite in2="hardAlpha" k2="-1" k3="1" operator="arithmetic"/><feColorMatrix values="0 0 0 0 0.486275 0 0 0 0 0.6 0 0 0 0 0.513726 0 0 0 1 0"/><feBlend in2="shape" result="effect1_innerShadow_28327_7648"/></filter><filter id="ai" x="10.827" y="18.484" width="15.193" height="9.1882" color-interpolation-filters="sRGB" filterUnits="userSpaceOnUse"><feFlood flood-opacity="0" result="BackgroundImageFix"/><feBlend in="SourceGraphic" in2="BackgroundImageFix" result="shape"/><feGaussianBlur result="effect1_foregroundBlur_28327_7648" stdDeviation="1"/></filter><filter id="ah" x="10.335" y="12.945" width="12.873" height="7.1719" color-interpolation-filters="sRGB" filterUnits="userSpaceOnUse"><feFlood flood-opacity="0" result="BackgroundImageFix"/><feBlend in="SourceGraphic" in2="BackgroundImageFix" result="shape"/><feGaussianBlur result="effect1_foregroundBlur_28327_7648" stdDeviation="1"/></filter><filter id="ag" x="14.109" y="10.891" width="6.2734" height="2.773" color-interpolation-filters="sRGB" filterUnits="userSpaceOnUse"><feFlood flood-opacity="0" result="BackgroundImageFix"/><feBlend in="SourceGraphic" in2="BackgroundImageFix" result="shape"/><feGaussianBlur result="effect1_foregroundBlur_28327_7648" stdDeviation="0.5"/></filter><filter id="af" x="15.6" y="5.8713" width="5.1525" height="7.6733" color-interpolation-filters="sRGB" filterUnits="userSpaceOnUse"><feFlood flood-opacity="0" result="BackgroundImageFix"/><feBlend in="SourceGraphic" in2="BackgroundImageFix" result="shape"/><feGaussianBlur result="effect1_foregroundBlur_28327_7648" stdDeviation="0.5"/></filter><radialGradient id="ae" cx="0" cy="0" r="1" gradientTransform="translate(17.251 25.961) rotate(70.328) scale(3.0399 1.9549)" gradientUnits="userSpaceOnUse"><stop stop-color="#5F2F2E" offset=".34016"/><stop stop-color="#5F2F2E" stop-opacity="0" offset="1"/></radialGradient><radialGradient id="t" cx="0" cy="0" r="1" gradientTransform="translate(15.245 25.516) rotate(102.42) scale(5.3513 2.9967)" gradientUnits="userSpaceOnUse"><stop stop-color="#5F2F2E" offset=".48072"/><stop stop-color="#5F2F2E" stop-opacity="0" offset=".96728"/></radialGradient><linearGradient id="i" x1="16.023" x2="15.875" y1="30.076" y2="28.858" gradientUnits="userSpaceOnUse"><stop stop-color="#7B4064" offset="0"/><stop stop-color="#7B4064" stop-opacity="0" offset="1"/></linearGradient><linearGradient id="g" x1="11.56" x2="12.983" y1="27.798" y2="27.961" gradientUnits="userSpaceOnUse"><stop stop-color="#826C6A" offset="0"/><stop stop-color="#826C6A" stop-opacity="0" offset="1"/></linearGradient><linearGradient id="f" x1="20.179" x2="19.282" y1="27.603" y2="27.961" gradientUnits="userSpaceOnUse"><stop stop-color="#826C6A" offset="0"/><stop stop-color="#826C6A" stop-opacity="0" offset="1"/></linearGradient><linearGradient id="e" x1="16.023" x2="16.023" y1="29.722" y2="30.024" gradientUnits="userSpaceOnUse"><stop stop-color="#8F5790" stop-opacity="0" offset="0"/><stop stop-color="#8F5790" offset="1"/></linearGradient><radialGradient id="d" cx="0" cy="0" r="1" gradientTransform="translate(24.294 23.078) rotate(180) scale(16.458 9.1748)" gradientUnits="userSpaceOnUse"><stop stop-color="#80C156" offset="0"/><stop stop-color="#52915C" offset="1"/></radialGradient><radialGradient id="c" cx="0" cy="0" r="1" gradientTransform="translate(16.023 18.067) rotate(90) scale(5.0111 22.698)" gradientUnits="userSpaceOnUse"><stop stop-color="#57A22C" offset="0"/><stop stop-color="#57A22C" stop-opacity="0" offset="1"/></radialGradient><radialGradient id="b" cx="0" cy="0" r="1" gradientTransform="translate(10.317 26.898) scale(10.041 1.5893)" gradientUnits="userSpaceOnUse"><stop stop-color="#7F779B" offset="0"/><stop stop-color="#7F779B" stop-opacity="0" offset="1"/></radialGradient><linearGradient id="a" x1="17.114" x2="17.114" y1="27.175" y2="26.434" gradientUnits="userSpaceOnUse"><stop stop-color="#7F779B" offset="0"/><stop stop-color="#7F779B" stop-opacity="0" offset="1"/></linearGradient><radialGradient id="ad" cx="0" cy="0" r="1" gradientTransform="translate(16.547 18.898) rotate(173.7) scale(9.5331 2.1718)" gradientUnits="userSpaceOnUse"><stop stop-color="#105B0D" offset="0"/><stop stop-color="#105B0D" stop-opacity="0" offset="1"/></radialGradient><radialGradient id="ac" cx="0" cy="0" r="1" gradientTransform="translate(21.599 16.531) rotate(180) scale(11.128 6.5481)" gradientUnits="userSpaceOnUse"><stop stop-color="#80C156" offset="0"/><stop stop-color="#52915C" offset="1"/></radialGradient><linearGradient id="ab" x1="11.094" x2="17.019" y1="16.531" y2="16.531" gradientUnits="userSpaceOnUse"><stop stop-color="#529257" offset="0"/><stop stop-color="#529257" stop-opacity="0" offset="1"/></linearGradient><radialGradient id="aa" cx="0" cy="0" r="1" gradientTransform="translate(16.008 12.955) rotate(90) scale(3.5764 15.346)" gradientUnits="userSpaceOnUse"><stop stop-color="#57A22C" offset="0"/><stop stop-color="#57A22C" stop-opacity="0" offset="1"/></radialGradient><radialGradient id="z" cx="0" cy="0" r="1" gradientTransform="translate(16.008 19.646) rotate(-90) scale(1.8012 9.0037)" gradientUnits="userSpaceOnUse"><stop stop-color="#479820" offset="0"/><stop stop-color="#479820" stop-opacity="0" offset="1"/></radialGradient><radialGradient id="y" cx="0" cy="0" r="1" gradientTransform="translate(16.008 19.398) rotate(-90) scale(.84375 7.4374)" gradientUnits="userSpaceOnUse"><stop stop-color="#15600B" offset="0"/><stop stop-color="#15600B" stop-opacity="0" offset="1"/></radialGradient><radialGradient id="x" cx="0" cy="0" r="1" gradientTransform="translate(22.06 19.491) rotate(195.18) scale(12.542 6.6444)" gradientUnits="userSpaceOnUse"><stop stop-color="#75947D" stop-opacity="0" offset=".8708"/><stop stop-color="#75947D" offset="1"/></radialGradient><radialGradient id="w" cx="0" cy="0" r="1" gradientTransform="translate(15.07 13.273) rotate(90) scale(1.0781 7.3989)" gradientUnits="userSpaceOnUse"><stop stop-color="#15600B" offset="0"/><stop stop-color="#15600B" stop-opacity="0" offset="1"/></radialGradient><linearGradient id="v" x1="14.648" x2="19.398" y1="11.049" y2="11.049" gradientUnits="userSpaceOnUse"><stop stop-color="#5A9D57" offset="0"/><stop stop-color="#7FC43A" offset="1"/></linearGradient><radialGradient id="u" cx="0" cy="0" r="1" gradientTransform="translate(16.023 14.117) rotate(-90) scale(1.8125 8.0625)" gradientUnits="userSpaceOnUse"><stop stop-color="#3B9017" offset="0"/><stop stop-color="#3B9017" stop-opacity="0" offset="1"/></radialGradient><radialGradient id="s" cx="0" cy="0" r="1" gradientTransform="translate(11.516 13.425) rotate(-11.411) scale(3.9715 4.7209)" gradientUnits="userSpaceOnUse"><stop stop-color="#608371" offset="0"/><stop stop-color="#608371" stop-opacity="0" offset="1"/></radialGradient><linearGradient id="r" x1="11.96" x2="13.606" y1="10.098" y2="10.714" gradientUnits="userSpaceOnUse"><stop stop-color="#608371" offset="0"/><stop stop-color="#608371" stop-opacity="0" offset="1"/></linearGradient><radialGradient id="q" cx="0" cy="0" r="1" gradientTransform="translate(12.401 14.256) rotate(-47.77) scale(1.2902 2.5119)" gradientUnits="userSpaceOnUse"><stop stop-color="#637374" offset="0"/><stop stop-color="#637374" stop-opacity="0" offset="1"/></radialGradient><radialGradient id="p" cx="0" cy="0" r="1" gradientTransform="translate(11.651 14.315) rotate(-4.9954) scale(4.3886 .99344)" gradientUnits="userSpaceOnUse"><stop stop-color="#15600B" offset="0"/><stop stop-color="#15600B" stop-opacity="0" offset="1"/></radialGradient><linearGradient id="o" x1="16.023" x2="16.023" y1="6.3904" y2="7.5738" gradientUnits="userSpaceOnUse"><stop stop-color="#639E52" offset="0"/><stop stop-color="#70A960" stop-opacity="0" offset="1"/></linearGradient><radialGradient id="n" cx="0" cy="0" r="1" gradientTransform="translate(24.489 23.078) rotate(180) scale(9.7415 1.769)" gradientUnits="userSpaceOnUse"><stop stop-color="#A2E070" offset="0"/><stop stop-color="#A2E070" stop-opacity="0" offset="1"/></radialGradient><radialGradient id="m" cx="0" cy="0" r="1" gradientTransform="translate(10.711 23.078) scale(13.147 4.0372)" gradientUnits="userSpaceOnUse"><stop stop-color="#9FDF6B" stop-opacity="0" offset=".88235"/><stop stop-color="#9FDF6B" offset="1"/></radialGradient><radialGradient id="l" cx="0" cy="0" r="1" gradientTransform="translate(21.579 16.531) rotate(180) scale(7.722 1.0815)" gradientUnits="userSpaceOnUse"><stop stop-color="#A2E070" offset="0"/><stop stop-color="#A2E070" stop-opacity="0" offset="1"/></radialGradient><radialGradient id="k" cx="0" cy="0" r="1" gradientTransform="translate(10.657 16.531) scale(10.422 2.4682)" gradientUnits="userSpaceOnUse"><stop stop-color="#9FDF6B" stop-opacity="0" offset=".88235"/><stop stop-color="#9FDF6B" offset="1"/></radialGradient><linearGradient id="j" x1="18.663" x2="15.326" y1="12.277" y2="12.277" gradientUnits="userSpaceOnUse"><stop stop-color="#9DD573" offset="0"/><stop stop-color="#9DD573" stop-opacity="0" offset="1"/></linearGradient><linearGradient id="h" x1="18.553" x2="16.61" y1="9.8419" y2="10.362" gradientUnits="userSpaceOnUse"><stop stop-color="#9AD869" offset="0"/><stop stop-color="#9AD869" stop-opacity="0" offset="1"/></linearGradient></defs></svg>
