<?xml version="1.0" encoding="UTF-8"?>
<!-- Generated by Pixelmator Pro 3.7 -->
<svg width="283" height="20" viewBox="0 0 283 20" xmlns="http://www.w3.org/2000/svg">
    <g id="Group">
        <path id="Path" fill="#ffffff" stroke="none" d="M 156.922607 18.67111 C 156.922607 19.405037 156.326935 20 155.592163 20 C 154.857361 20 154.261688 19.405037 154.261688 18.67111 C 154.261688 17.937187 154.857361 17.342222 155.592163 17.342222 C 156.326935 17.342222 156.922607 17.937187 156.922607 18.67111 Z"/>
        <path id="path1" fill="#ffffff" stroke="none" d="M 161.269943 18.67111 C 161.269943 19.405037 160.674286 20 159.939499 20 C 159.204712 20 158.609039 19.405037 158.609039 18.67111 C 158.609039 17.937187 159.204712 17.342222 159.939499 17.342222 C 160.674286 17.342222 161.269943 17.937187 161.269943 18.67111 Z"/>
        <path id="path2" fill="#ffffff" stroke="none" d="M 165.612854 18.67111 C 165.612854 19.405037 165.017181 20 164.282394 20 C 163.547607 20 162.951935 19.405037 162.951935 18.67111 C 162.951935 17.937187 163.547607 17.342222 164.282394 17.342222 C 165.017181 17.342222 165.612854 17.937187 165.612854 18.67111 Z"/>
    </g>
    <path id="path3" fill="#ffffff" stroke="none" d="M 6.385299 3.595556 L -0 3.595556 L -0 -0.164444 L 17.393822 -0.164444 L 17.393822 3.595556 L 11.008522 3.595556 L 11.008522 19.773335 L 6.389748 19.773335 L 6.389748 3.595556 Z"/>
    <path id="path4" fill="#ffffff" stroke="none" d="M 38.178303 -0.164444 L 38.178303 19.768888 L 33.559528 19.768888 L 33.559528 11.595555 L 24.49107 11.595555 L 24.49107 19.768888 L 19.872295 19.768888 L 19.872295 -0.164444 L 24.49107 -0.164444 L 24.49107 7.697778 L 33.559528 7.697778 L 33.559528 -0.164444 L 38.178303 -0.164444 Z"/>
    <path id="path5" fill="#ffffff" stroke="none" d="M 55.18055 19.773335 L 51.331573 14.217779 L 47.082123 14.217779 L 47.082123 19.773335 L 42.463348 19.773335 L 42.463348 -0.164444 L 51.104637 -0.164444 C 52.871162 -0.164444 54.406303 0.128889 55.71006 0.719999 C 57.013824 1.306665 58.015003 2.142221 58.718052 3.226667 C 59.421097 4.311111 59.772625 5.591112 59.772625 7.071111 C 59.772625 8.551111 59.416649 9.831112 58.704697 10.902223 C 57.992752 11.973333 56.978226 12.795556 55.670017 13.364445 L 60.1464 19.773335 L 55.184998 19.773335 Z M 54.014732 4.493334 C 53.29388 3.893333 52.239307 3.595556 50.851006 3.595556 L 47.086571 3.595556 L 47.086571 10.542222 L 50.851006 10.542222 C 52.239307 10.542222 53.29388 10.240001 54.014732 9.631111 C 54.735584 9.022222 55.100456 8.168888 55.100456 7.066667 C 55.100456 5.964444 54.740028 5.088889 54.014732 4.488888 Z"/>
    <path id="path6" fill="#ffffff" stroke="none" d="M 78.875122 16.071112 L 78.875122 19.773335 L 63.421368 19.773335 L 63.421368 -0.164444 L 78.505798 -0.164444 L 78.505798 3.537777 L 68.013443 3.537777 L 68.013443 7.866667 L 77.282135 7.866667 L 77.282135 11.453334 L 68.013443 11.453334 L 68.013443 16.066668 L 78.875122 16.066668 Z"/>
    <path id="path7" fill="#ffffff" stroke="none" d="M 98.008774 16.071112 L 98.008774 19.773335 L 82.555016 19.773335 L 82.555016 -0.164444 L 97.63945 -0.164444 L 97.63945 3.537777 L 87.147095 3.537777 L 87.147095 7.866667 L 96.415779 7.866667 L 96.415779 11.453334 L 87.147095 11.453334 L 87.147095 16.066668 L 98.008774 16.066668 Z"/>
    <path id="path8" fill="#ffffff" stroke="none" d="M 119.847832 19.773335 L 119.821129 7.813334 L 113.94754 17.666666 L 111.865089 17.666666 L 106.018204 8.071111 L 106.018204 19.777779 L 101.684219 19.777779 L 101.684219 -0.164444 L 105.506493 -0.164444 L 112.977516 12.222222 L 120.33284 -0.164444 L 124.123985 -0.164444 L 124.181816 19.768888 L 119.847832 19.768888 Z"/>
    <path id="path9" fill="#ffffff" stroke="none" d="M 142.060669 15.502222 L 132.791962 15.502222 L 131.025436 19.773335 L 126.290977 19.773335 L 135.185898 -0.164444 L 139.746826 -0.164444 L 148.672897 19.768888 L 143.827194 19.768888 L 142.060669 15.497778 Z M 140.605606 12 L 137.441895 4.36889 L 134.278152 12 L 140.605606 12 Z"/>
    <g id="g1">
        <path id="path10" fill="#ffffff" stroke="none" d="M 159.76152 4.333333 C 159.018417 4.333333 158.417694 4.937778 158.417694 5.675556 L 158.417694 6.737778 L 161.105316 6.737778 L 161.105316 5.675556 C 161.105316 4.933332 160.500168 4.333333 159.76152 4.333333 Z"/>
        <path id="path11" fill="#ffffff" stroke="none" d="M 159.76152 -0.32 C 155.396378 -0.32 151.84552 3.226667 151.84552 7.586666 C 151.84552 9.315556 152.406189 10.92 153.353973 12.222222 L 152.366135 15.16 L 155.409714 14.186666 C 156.66008 15.013332 158.155167 15.493334 159.765961 15.493334 C 164.131088 15.493334 167.681946 11.946667 167.681946 7.586666 C 167.681946 3.226667 164.126648 -0.32 159.76152 -0.32 Z M 162.827347 10.324444 C 162.827347 10.72 162.506958 11.04 162.110947 11.04 L 157.416519 11.04 C 157.020508 11.04 156.700134 10.72 156.700134 10.324444 L 156.700134 7.453334 C 156.700134 7.057777 157.020508 6.737778 157.416519 6.737778 L 157.487717 6.737778 L 157.487717 5.675556 C 157.487717 4.422222 158.511154 3.400002 159.765961 3.400002 C 161.020767 3.400002 162.044205 4.422222 162.044205 5.675556 L 162.044205 6.737778 L 162.115387 6.737778 C 162.511414 6.737778 162.831787 7.057777 162.831787 7.453334 L 162.831787 10.324444 Z"/>
    </g>
    <g id="g2">
        <path id="path12" fill="#ffffff" stroke="none" d="M 186.7444 1.688889 C 188.190552 2.902222 188.911392 4.573334 188.911392 6.702222 C 188.911392 8.831112 188.190552 10.493334 186.7444 11.702222 C 185.298248 12.906668 183.304794 13.51111 180.755127 13.51111 L 175.393265 13.51111 L 175.393265 19.804445 L 173.284103 19.804445 L 173.284103 -0.133333 L 180.755127 -0.133333 C 183.300354 -0.133333 185.298248 0.475555 186.7444 1.688889 Z M 185.231506 10.36 C 186.277191 9.497778 186.797791 8.275556 186.797791 6.702222 C 186.797791 5.128889 186.272736 3.848888 185.231506 2.986668 C 184.185837 2.124443 182.672943 1.688889 180.697281 1.688889 L 175.393265 1.688889 L 175.393265 11.657778 L 180.697281 11.657778 C 182.672943 11.657778 184.185837 11.226666 185.231506 10.36 Z"/>
        <path id="path13" fill="#ffffff" stroke="none" d="M 205.677826 19.799999 L 201.116898 13.391111 C 200.605164 13.448889 200.071213 13.475555 199.519455 13.475555 L 194.157578 13.475555 L 194.157578 19.799999 L 192.048431 19.799999 L 192.048431 -0.133333 L 199.519455 -0.133333 C 202.064667 -0.133333 204.062576 0.475555 205.508728 1.688889 C 206.95488 2.902222 207.67572 4.573334 207.67572 6.702222 C 207.67572 8.257778 207.279694 9.573334 206.492111 10.644444 C 205.704514 11.715556 204.578751 12.493334 203.114792 12.964445 L 207.991653 19.799999 L 205.682266 19.799999 Z M 203.995834 10.373333 C 205.041504 9.502222 205.562119 8.275556 205.562119 6.697778 C 205.562119 5.12 205.037064 3.844444 203.995834 2.982222 C 202.950165 2.120001 201.437271 1.684444 199.461609 1.684444 L 194.157578 1.684444 L 194.157578 11.68 L 199.461609 11.68 C 201.437271 11.68 202.950165 11.244444 203.995834 10.368889 Z"/>
        <path id="path14" fill="#ffffff" stroke="none" d="M 211.805038 -0.133333 L 213.914185 -0.133333 L 213.914185 19.799999 L 211.805038 19.799999 L 211.805038 -0.133333 Z"/>
        <path id="path15" fill="#ffffff" stroke="none" d="M 236.496338 -0.133333 L 227.659256 19.799999 L 225.576813 19.799999 L 216.739731 -0.133333 L 219.022415 -0.133333 L 226.662537 17.182222 L 234.360489 -0.133333 L 236.500793 -0.133333 Z"/>
        <path id="path16" fill="#ffffff" stroke="none" d="M 248.728516 14.475555 L 237.608749 14.475555 L 235.214813 19.799999 L 233.021133 19.799999 L 242.14299 -0.133333 L 244.225433 -0.133333 L 253.34729 19.799999 L 251.122452 19.799999 L 248.728516 14.475555 Z M 247.958725 12.768888 L 243.166412 2.062222 L 238.37854 12.768888 L 247.958725 12.768888 Z"/>
        <path id="path17" fill="#ffffff" stroke="none" d="M 257.53891 1.688889 L 250.526199 1.688889 L 250.526199 -0.133333 L 266.665192 -0.133333 L 266.665192 1.688889 L 259.652527 1.688889 L 259.652527 19.799999 L 257.543335 19.799999 L 257.543335 1.688889 Z"/>
        <path id="path18" fill="#ffffff" stroke="none" d="M 283.28479 17.977777 L 283.28479 19.799999 L 269.17038 19.799999 L 269.17038 -0.133333 L 282.857605 -0.133333 L 282.857605 1.688889 L 271.27951 1.688889 L 271.27951 8.782223 L 281.602783 8.782223 L 281.602783 10.577778 L 271.27951 10.577778 L 271.27951 17.982222 L 283.28479 17.982222 Z"/>
    </g>
</svg>
