<svg fill="none" viewBox="0 0 32 32" xmlns="http://www.w3.org/2000/svg"><g filter="url(#c)"><path d="m19.064 17.393c2.8706 1.163 6.283 0.5805 8.6109-1.7474 3.1047-3.1047 3.1047-8.1385 0-11.243-3.1048-3.1048-8.1385-3.1047-11.243 0-2.3352 2.3352-2.914 5.7616-1.7364 8.6378l-3.448 3.448c-0.2519 0.2519-0.396 0.5918-0.4019 0.948l-0.0172 1.0329c-0.0055 0.3342-0.1468 0.6516-0.3914 0.8793-0.1975 0.1839-0.45005 0.2977-0.71865 0.3238l-0.53668 0.0522c-0.26782 0.0261-0.51834 0.1443-0.70864 0.3346-0.18684 0.1868-0.30433 0.4319-0.33311 0.6945l-0.05835 0.5322c-0.03167 0.2887-0.16082 0.558-0.36618 0.7633-0.25105 0.2511-0.59532 0.3862-0.95011 0.3729l-0.80042-0.03c-0.3817-0.0143-0.75209 0.1311-1.0222 0.4011l-1.8586 1.8586c-1.2042 1.2042-1.2042 3.1566 0 4.3608 1.2042 1.2041 3.1566 1.2042 4.3608 0l11.619-11.619zm7.1604-9.0185c-0.6963 0.69634-1.8253 0.69633-2.5216 0-0.6964-0.69634-0.6964-1.8253 0-2.5217 0.6963-0.69635 1.8253-0.69634 2.5216 0 0.6964 0.69633 0.6964 1.8253 0 2.5217z" clip-rule="evenodd" fill="url(#b)" fill-rule="evenodd"/></g><path d="m19.064 17.393c2.8706 1.163 6.283 0.5805 8.6109-1.7474 3.1047-3.1047 3.1047-8.1385 0-11.243-3.1048-3.1048-8.1385-3.1047-11.243 0-2.3352 2.3352-2.914 5.7616-1.7364 8.6378l-3.448 3.448c-0.2519 0.2519-0.396 0.5918-0.4019 0.948l-0.0172 1.0329c-0.0055 0.3342-0.1468 0.6516-0.3914 0.8793-0.1975 0.1839-0.45005 0.2977-0.71865 0.3238l-0.53668 0.0522c-0.26782 0.0261-0.51834 0.1443-0.70864 0.3346-0.18684 0.1868-0.30433 0.4319-0.33311 0.6945l-0.05835 0.5322c-0.03167 0.2887-0.16082 0.558-0.36618 0.7633-0.25105 0.2511-0.59532 0.3862-0.95011 0.3729l-0.80042-0.03c-0.3817-0.0143-0.75209 0.1311-1.0222 0.4011l-1.8586 1.8586c-1.2042 1.2042-1.2042 3.1566 0 4.3608 1.2042 1.2041 3.1566 1.2042 4.3608 0l11.619-11.619zm7.1604-9.0185c-0.6963 0.69634-1.8253 0.69633-2.5216 0-0.6964-0.69634-0.6964-1.8253 0-2.5217 0.6963-0.69635 1.8253-0.69634 2.5216 0 0.6964 0.69633 0.6964 1.8253 0 2.5217z" clip-rule="evenodd" fill="url(#a)" fill-rule="evenodd"/><defs><filter id="c" x="1.7811" y="1.9242" width="28.573" height="28.392" color-interpolation-filters="sRGB" filterUnits="userSpaceOnUse"><feFlood flood-opacity="0" result="BackgroundImageFix"/><feBlend in="SourceGraphic" in2="BackgroundImageFix" result="shape"/><feColorMatrix in="SourceAlpha" result="hardAlpha" values="0 0 0 0 0 0 0 0 0 0 0 0 0 0 0 0 0 0 127 0"/><feOffset dx="0.35" dy="-0.1"/><feGaussianBlur stdDeviation="0.3"/><feComposite in2="hardAlpha" k2="-1" k3="1" operator="arithmetic"/><feColorMatrix values="0 0 0 0 0.803922 0 0 0 0 0.623529 0 0 0 0 0.294118 0 0 0 1 0"/><feBlend in2="shape" result="effect1_innerShadow_18_23714"/><feColorMatrix in="SourceAlpha" result="hardAlpha" values="0 0 0 0 0 0 0 0 0 0 0 0 0 0 0 0 0 0 127 0"/><feOffset dy="-0.15"/><feGaussianBlur stdDeviation="0.3"/><feComposite in2="hardAlpha" k2="-1" k3="1" operator="arithmetic"/><feColorMatrix values="0 0 0 0 0.796078 0 0 0 0 0.505882 0 0 0 0 0.411765 0 0 0 1 0"/><feBlend in2="effect1_innerShadow_18_23714" result="effect2_innerShadow_18_23714"/><feColorMatrix in="SourceAlpha" result="hardAlpha" values="0 0 0 0 0 0 0 0 0 0 0 0 0 0 0 0 0 0 127 0"/><feOffset dx="-0.4" dy="0.4"/><feGaussianBlur stdDeviation="0.2"/><feComposite in2="hardAlpha" k2="-1" k3="1" operator="arithmetic"/><feColorMatrix values="0 0 0 0 0.996078 0 0 0 0 0.996078 0 0 0 0 0.423529 0 0 0 1 0"/><feBlend in2="effect2_innerShadow_18_23714" result="effect3_innerShadow_18_23714"/></filter><linearGradient id="b" x1="17.864" x2="17.493" y1="7.4571" y2="29.939" gradientUnits="userSpaceOnUse"><stop stop-color="#FFDC46" offset="0"/><stop stop-color="#F38E4A" offset="1"/></linearGradient><radialGradient id="a" cx="0" cy="0" r="1" gradientTransform="translate(19.328 13.719) rotate(136.35) scale(22.457 11.436)" gradientUnits="userSpaceOnUse"><stop stop-color="#F18849" stop-opacity="0" offset=".93494"/><stop stop-color="#CC6946" offset="1"/></radialGradient></defs></svg>
