<?xml version="1.0" encoding="utf-8"?>
<!-- Generator: Adobe Illustrator 27.8.1, SVG Export Plug-In . SVG Version: 6.00 Build 0)  -->
<svg version="1.1" id="Ebene_1" xmlns="http://www.w3.org/2000/svg" xmlns:xlink="http://www.w3.org/1999/xlink" x="0px" y="0px"
	 viewBox="0 0 3300 2200" style="enable-background:new 0 0 3300 2200;" xml:space="preserve">
<style type="text/css">
	.st0{fill:#FFFFFF;}
	.st1{fill:none;stroke:#000000;stroke-width:0.5;}
	.st2{font-family:'Helvetica-Bold';}
	.st3{font-size:13px;}
	.st4{font-family:'Helvetica';}
	.st5{fill:none;stroke:#00AEEF;stroke-width:0.5;}
	.st6{fill:#27AAE1;}
	.st7{fill:none;stroke:#27AAE1;stroke-width:0.5;}
</style>
<g id="Notes">
	<rect id="artboard" y="0" class="st0" width="3300" height="2200"/>
	<line class="st1" x1="263" y1="292" x2="3036" y2="292"/>
	<text transform="matrix(1 0 0 1 263 321.9999)" class="st2 st3">Weight/Scale Variations</text>
	<text transform="matrix(1 0 0 1 534.0633 321.9999)" class="st4 st3">Ultralight</text>
	<text transform="matrix(1 0 0 1 843.7775 321.9999)" class="st4 st3">Thin</text>
	<text transform="matrix(1 0 0 1 1139.035 321.9999)" class="st4 st3">Light</text>
	<text transform="matrix(1 0 0 1 1427.0773 321.9999)" class="st4 st3">Regular</text>
	<text transform="matrix(1 0 0 1 1723.4419 321.9999)" class="st4 st3">Medium</text>
	<text transform="matrix(1 0 0 1 2016.1719 321.9999)" class="st4 st3">Semibold</text>
	<text transform="matrix(1 0 0 1 2326.9705 321.9999)" class="st4 st3">Bold</text>
	<text transform="matrix(1 0 0 1 2618.2659 321.9999)" class="st4 st3">Heavy</text>
	<text transform="matrix(1 0 0 1 2917.5054 321.9999)" class="st4 st3">Black</text>
	<line class="st1" x1="263" y1="1903" x2="3036" y2="1903"/>
	<g transform="matrix(1 0 0 1 263 1933)">
		<path d="M9.2,0.8c4.3,0,7.9-3.6,7.9-7.9c0-4.3-3.6-7.9-7.9-7.9c-4.3,0-7.9,3.6-7.9,7.9C1.4-2.7,5,0.8,9.2,0.8z M9.2-0.7
			c-3.5,0-6.4-2.8-6.4-6.4c0-3.6,2.8-6.4,6.4-6.4c3.6,0,6.4,2.8,6.4,6.4C15.6-3.5,12.8-0.7,9.2-0.7z M5.7-7.1c0,0.4,0.3,0.7,0.8,0.7
			h2.1v2.1c0,0.4,0.3,0.7,0.7,0.7c0.4,0,0.7-0.3,0.7-0.7v-2.1h2.1c0.4,0,0.7-0.3,0.7-0.7c0-0.4-0.3-0.7-0.7-0.7H10v-2.1
			c0-0.4-0.3-0.8-0.7-0.8c-0.4,0-0.7,0.3-0.7,0.8v2.1H6.4C6-7.8,5.7-7.5,5.7-7.1z"/>
	</g>
	<g transform="matrix(1 0 0 1 281.867 1933)">
		<path d="M11.7,2.9c5.4,0,10-4.5,10-10c0-5.4-4.5-10-10-10c-5.4,0-10,4.5-10,10C1.7-1.6,6.3,2.9,11.7,2.9z M11.7,1.2
			c-4.6,0-8.3-3.7-8.3-8.3c0-4.6,3.7-8.3,8.3-8.3c4.6,0,8.3,3.7,8.3,8.3C20-2.4,16.3,1.2,11.7,1.2z M7.2-7.1c0,0.5,0.3,0.8,0.8,0.8
			h2.9v2.9c0,0.5,0.3,0.8,0.8,0.8c0.5,0,0.8-0.3,0.8-0.8v-2.9h2.9c0.5,0,0.8-0.3,0.8-0.8c0-0.5-0.3-0.8-0.8-0.8h-2.9v-2.9
			c0-0.5-0.3-0.8-0.8-0.8c-0.5,0-0.8,0.3-0.8,0.8v2.9H8C7.5-7.9,7.2-7.5,7.2-7.1z"/>
	</g>
	<g transform="matrix(1 0 0 1 305.646 1933)">
		<path d="M15,5.7c7,0,12.7-5.8,12.7-12.7c0-7-5.8-12.7-12.7-12.7C8-19.8,2.3-14,2.3-7.1C2.3-0.1,8,5.7,15,5.7z M15,3.8
			C8.9,3.8,4.1-1,4.1-7.1c0-6,4.8-10.9,10.9-10.9c6,0,10.9,4.9,10.9,10.9C25.9-1,21,3.8,15,3.8z M9.2-7.1c0,0.5,0.4,0.9,0.9,0.9h3.9
			v4c0,0.5,0.4,0.9,0.9,0.9c0.5,0,0.9-0.4,0.9-0.9v-4h4c0.5,0,0.9-0.4,0.9-0.9c0-0.5-0.4-0.9-0.9-0.9h-4v-3.9c0-0.5-0.4-0.9-0.9-0.9
			c-0.5,0-0.9,0.4-0.9,0.9V-8h-3.9C9.6-8,9.2-7.6,9.2-7.1z"/>
	</g>
	<text transform="matrix(1 0 0 1 263 1953)" class="st2 st3">Design Variations</text>
	<text transform="matrix(1 0 0 1 263 1971)" class="st4 st3">Symbols are supported in up to nine weights and three scales.</text>
	<text transform="matrix(1 0 0 1 263 1989)" class="st4 st3">For optimal layout with text and other symbols, vertically align</text>
	<text transform="matrix(1 0 0 1 263 2007)" class="st4 st3">symbols with the adjacent text.</text>
	<line class="st5" x1="776" y1="1919" x2="776" y2="1933"/>
	<g transform="matrix(1 0 0 1 776 1933)">
		<path d="M3.3,0.2c0.5,0,0.8-0.2,1-0.7L5.5-4h5.8l1.3,3.4C12.7,0,13,0.2,13.5,0.2c0.5,0,0.8-0.3,0.8-0.8c0-0.2,0-0.3-0.1-0.5
			L9.7-13.4C9.4-14,9-14.3,8.4-14.3c-0.6,0-1,0.3-1.2,0.9L2.6-1.2C2.5-1,2.5-0.8,2.5-0.6C2.5-0.1,2.8,0.2,3.3,0.2z M6-5.5l2.4-6.6h0
			l2.4,6.6H6z"/>
	</g>
	<line class="st5" x1="793.2" y1="1919" x2="793.2" y2="1933"/>
	<text transform="matrix(1 0 0 1 776 1953)" class="st2 st3">Margins</text>
	<text transform="matrix(1 0 0 1 776 1971)" class="st4 st3">Leading and trailing margins on the left and right side of each symbol</text>
	<text transform="matrix(1 0 0 1 776 1989)" class="st4 st3">can be adjusted by modifying the x-location of the margin guidelines.</text>
	<text transform="matrix(1 0 0 1 776 2007)" class="st4 st3">Modifications are automatically applied proportionally to all</text>
	<text transform="matrix(1 0 0 1 776 2025)" class="st4 st3">scales and weights.</text>
	<g transform="matrix(1 0 0 1 1289 1933)">
		<path d="M2.8,1.9l1.7,1.7c0.9,0.9,1.8,0.8,2.8-0.2L18-8.4l-1-1L6.4,2.3c-0.4,0.4-0.7,0.5-1.2,0L4.1,1.1C3.6,0.7,3.7,0.3,4.1,0
			l11.5-10.8l-1-1L3-0.9C2.1,0,2,1,2.8,1.9z M9.3-16.3c-0.4,0.4-0.4,1-0.2,1.4c0.2,0.4,0.7,0.6,1.3,0.4c1.5-0.3,3-0.4,4.4,0.5
			l-0.6,1.5c-0.3,0.8-0.2,1.4,0.4,2l2.3,2.3c0.5,0.5,0.9,0.5,1.5,0.4L19.4-8l0.7,0.7l0,0.6c0,0.5,0.1,0.9,0.6,1.4l0.8,0.7
			c0.5,0.5,1.1,0.5,1.6,0l2.9-2.9c0.5-0.5,0.4-1.1,0-1.5L25-9.9c-0.5-0.5-0.8-0.6-1.3-0.6l-0.6,0l-0.6-0.6l0.2-1.1
			c0.1-0.6,0-1-0.6-1.6L19.9-16C16.6-19.3,12.1-19.2,9.3-16.3z M10.8-16c2.4-1.8,5.7-1.5,7.9,0.8l2.4,2.4c0.2,0.2,0.3,0.4,0.2,0.8
			L21-10.5l1.5,1.5l1-0.1c0.3,0,0.3,0,0.5,0.2l0.6,0.6l-2.4,2.4l-0.6-0.6c-0.2-0.2-0.2-0.3-0.2-0.5l0.1-1L20-9.5l-1.5,0.3
			c-0.3,0.1-0.5,0-0.7-0.2l-2-2c-0.3-0.2-0.3-0.4-0.1-0.8l0.9-2.1c-1.6-1.5-3.6-2.1-5.6-1.5C10.7-15.7,10.6-15.8,10.8-16z"/>
	</g>
	<text transform="matrix(1 0 0 1 1289 1953)" class="st2 st3">Exporting</text>
	<text transform="matrix(1 0 0 1 1289 1971)" class="st4 st3">Symbols should be outlined when exporting to ensure the</text>
	<text transform="matrix(1 0 0 1 1289 1989)" class="st4 st3">design is preserved when submitting to Xcode.</text>
	<text id="template-version" transform="matrix(1 0 0 1 2952.4141 1933)" class="st4 st3">Template v.4.0</text>
	<text transform="matrix(1 0 0 1 2865.4575 1951)" class="st4 st3">Requires Xcode 14 or greater</text>
	<text id="descriptive-name" transform="matrix(1 0 0 1 2819.9321 1969)" class="st4 st3">Generated from phone.and.waveform</text>
	<text transform="matrix(1 0 0 1 2912.4111 1987)" class="st4 st3">Typeset at 100 points</text>
	<text transform="matrix(1 0 0 1 263 726)" class="st4 st3">Small</text>
	<text transform="matrix(1 0 0 1 263 1156)" class="st4 st3">Medium</text>
	<text transform="matrix(1 0 0 1 263 1586)" class="st4 st3">Large</text>
</g>
<g id="Guides">
	<g id="H-reference" transform="matrix(1 0 0 1 339 696)">
		<path class="st6" d="M1,0h2.6l25.7-67.1H30v-3.3h-1.9L1,0z M11.7-24.5H47l-0.8-2.2H12.4L11.7-24.5z M55.1,0h2.6L30.6-70.5h-1.2
			v3.3L55.1,0z"/>
	</g>
	<line id="Baseline-S" class="st7" x1="263" y1="696" x2="3036" y2="696"/>
	<line id="Capline-S" class="st7" x1="263" y1="625.5" x2="3036" y2="625.5"/>
	<g id="H-reference_00000093877462848943214390000015182913694599513745_" transform="matrix(1 0 0 1 339 1126)">
		<path class="st6" d="M1,0h2.6l25.7-67.1H30v-3.3h-1.9L1,0z M11.7-24.5H47l-0.8-2.2H12.4L11.7-24.5z M55.1,0h2.6L30.6-70.5h-1.2
			v3.3L55.1,0z"/>
	</g>
	<line id="Baseline-M" class="st7" x1="263" y1="1126" x2="3036" y2="1126"/>
	<line id="Capline-M" class="st7" x1="263" y1="1055.5" x2="3036" y2="1055.5"/>
	<g id="H-reference_00000132071455686686511520000004859028469004421807_" transform="matrix(1 0 0 1 339 1556)">
		<path class="st6" d="M1,0h2.6l25.7-67.1H30v-3.3h-1.9L1,0z M11.7-24.5H47l-0.8-2.2H12.4L11.7-24.5z M55.1,0h2.6L30.6-70.5h-1.2
			v3.3L55.1,0z"/>
	</g>
	<line id="Baseline-L" class="st7" x1="263" y1="1556" x2="3036" y2="1556"/>
	<line id="Capline-L" class="st7" x1="263" y1="1485.5" x2="3036" y2="1485.5"/>
	<line id="left-margin-Regular-M" class="st5" x1="1390.9" y1="1030.8" x2="1390.9" y2="1150.1"/>
	<line id="right-margin-Regular-M" class="st5" x1="1508.8" y1="1030.8" x2="1508.8" y2="1150.1"/>
</g>
<g id="Black-L" transform="matrix(1 0 0 1 2852.56 1556)">
	<path d="M113.2,31.2c11.2,0,19.4-3.9,27.2-11.9c0.4-0.5,0.9-0.9,1.3-1.4c3.4-4,5.5-9,5.5-13.2c0-5.3-2.3-9.8-8-13.8l-20.2-14
		c-6.8-4.7-14.2-4.8-19.5,0.7l-4.2,4.2c-2.3,2.3-4.7,2.5-8-0.2c-3.5-2.7-8.6-7.3-12.2-10.9c-3.1-3.1-7.1-7.5-9.5-10.8
		c-2.6-3.3-2.5-5.6-0.2-8l4.2-4.2c5.4-5.3,5.5-12.8,0.7-19.5L55.2-93.1c-3.5-4.9-8.7-7.5-14-7.5c-4.3,0-8.8,1.6-12.9,4.9
		c-0.5,0.4-1,0.8-1.2,1.1c-8.6,8.3-12.6,16.1-12.6,29.2c0,20.5,9.7,42.4,32.7,64.9C70.1,21.9,90.9,31.2,113.2,31.2z M112.9,17.8
		c-16,0.1-34.3-8.6-55.3-29.1C36.5-31.9,28.2-50.8,28.3-66.8c0-6.3,2.4-11.9,6.6-15.6c0.6-0.5,1.2-1,1.8-1.5
		c1.4-1.1,2.9-1.7,4.4-1.7c1.8,0,3.4,0.8,4.8,2.7l10.7,15.8c1.9,2.8,1.8,6.1-1,8.6L52-55.1c-6.1,5.7-5.5,11.5-2.7,16.1
		c2.8,4.5,9.6,12.3,16.5,19c8.3,8.1,16.6,15.5,20.3,17.8c4.5,2.8,10.4,3.4,16.1-2.7l3.4-3.6c2.6-2.7,5.8-2.8,8.6-1l14.6,9.5
		c2,1.3,2.7,3,2.7,4.7c0,1.5-0.5,3-1.7,4.4c-0.4,0.6-0.9,1.2-1.4,1.8C124.8,15.4,119.1,17.7,112.9,17.8z
		M100.7-76c4.3,0,7.5-3.6,7.5-8.4c0-4.4-3.3-8.2-7.5-8.2c-4.2,0-7.6,3.8-7.5,8.2C93.2-79.6,96.4-76,100.7-76z M110.8-69.3
		c-2.4-1.9-5.7-3.3-10.2-3.3c-9.9,0-16.1,7.1-16.1,13.4c0,2,1.1,2.7,3,2.7h18.6c-0.5-0.8-0.7-1.7-0.7-2.7
		C105.3-62.3,107.3-66.2,110.8-69.3z M126.5-76.4c4.9,0,8.6-4.2,8.6-9.6c0-5.1-3.8-9.4-8.6-9.4c-4.8,0-8.7,4.3-8.7,9.4
		C117.7-80.6,121.6-76.4,126.5-76.4z M152-75.9c4.3,0,7.5-3.6,7.5-8.4c0-4.4-3.3-8.2-7.5-8.2c-4.2,0-7.5,3.7-7.6,8.2
		C144.5-79.5,147.8-75.9,152-75.9z M152-72.4c-4.4,0-7.8,1.4-10.2,3.3c3.5,3.1,5.4,7,5.4,10.2c0,1-0.3,2-0.7,2.7h18.6
		c1.9,0,3-0.8,3-2.7C168-65.3,162-72.4,152-72.4z M126.3-71.6c-10.9,0-17.9,7.4-17.9,12.5c0,1.2,0.8,2,2.1,2l31.4,0.1
		c1.3,0,2.1-0.7,2.1-2C144.1-64.1,137.1-71.6,126.3-71.6z"/>
</g>
<g id="Heavy-L" transform="matrix(1 0 0 1 2557.09 1556)">
	<path d="M111.4,30c11.1,0,19.1-3.6,26.6-11.5c0.4-0.5,0.9-1,1.3-1.4c3.5-4,5.5-8.8,5.5-13c0-5.1-2.3-9.5-8-13.4L117-23.1
		c-6.5-4.5-13.6-4.6-19,0.8L93.7-18c-2.1,2.1-4.2,2.3-7.1,0c-3.5-2.6-9-7.5-12.9-11.4C70.1-32.9,66-37.5,63.5-41
		c-2.2-2.9-2.1-5,0-7.1l4.4-4.3c5.4-5.3,5.3-12.6,0.7-19L54.1-92c-3.5-5-8.5-7.6-13.6-7.6c-4.2,0-8.6,1.6-12.7,5.1
		c-0.5,0.4-1,0.8-1.3,1.1c-8.2,7.9-12,15.5-12,28c0,19.9,10,41.8,32.4,63.7C69.1,20.2,90.1,30,111.4,30z M111.1,17.6
		c-16,0.1-34.9-9.4-54.7-28.9c-20-19.6-29.4-39-29.2-55.1c0.1-6.4,2.4-12.2,6.8-16c0.5-0.5,1.1-0.9,1.7-1.3c1.5-1.2,3.2-1.9,4.7-1.9
		c1.8,0,3.5,0.8,4.8,2.7l11.1,16.4c1.8,2.7,1.7,5.7-0.9,8.1l-4,3.9c-5.6,5.3-5.1,11-2.2,15.5C52-34.6,58.7-27,65.2-20.7
		c7.5,7.4,15.7,14.6,19.6,17.2c4.4,2.8,10.1,3.4,15.4-2.3l3.9-4c2.5-2.6,5.5-2.6,8.1-0.9l15.5,10.2c2,1.3,2.7,2.9,2.7,4.7
		c0,1.6-0.6,3.2-1.9,4.8c-0.4,0.5-0.8,1.1-1.3,1.6C123.3,15.2,117.5,17.5,111.1,17.6z
		M100.8-74.9c4,0,7.1-3.4,7.1-7.9c0-4.2-3.1-7.7-7.1-7.8c-3.9,0-7.1,3.5-7.1,7.7C93.6-78.3,96.8-74.9,100.8-74.9z
		 M110.3-68.5c-2.3-1.8-5.4-3.1-9.6-3.1c-9.3,0-15.2,6.7-15.2,12.6c0,1.9,1,2.6,2.8,2.6h17.5c-0.4-0.7-0.7-1.6-0.7-2.6
		C105.1-62,107-65.6,110.3-68.5z M125-75.3c4.6,0,8.1-3.9,8.1-9.1c0-4.8-3.6-8.9-8.1-8.9s-8.2,4-8.2,8.9
		C117-79.2,120.4-75.3,125-75.3z M149.1-74.7c4,0,7.1-3.4,7.1-7.9c0-4.2-3.1-7.7-7-7.8c-3.9,0-7.1,3.5-7.1,7.7
		C142.1-78.2,145.1-74.7,149.1-74.7z M149.3-71.5c-4.2,0-7.3,1.3-9.6,3.1c3.3,2.9,5.1,6.6,5.1,9.6c0,1-0.3,1.8-0.7,2.6h17.5
		c1.8,0,2.8-0.7,2.8-2.6C164.3-64.8,158.6-71.5,149.3-71.5z M125-70.8c-10.3,0-16.9,7-16.9,11.8c0,1.2,0.7,1.9,2,1.9l29.6,0.1
		c1.3,0,2-0.7,2-1.8C141.8-63.7,135.3-70.7,125-70.8z"/>
</g>
<g id="Bold-L" transform="matrix(1 0 0 1 2261.99 1556)">
	<path d="M109,28.4c10.9,0,18.6-3.4,25.7-10.9c0.4-0.5,0.8-1,1.3-1.4c3.6-4.1,5.5-8.7,5.5-12.7c0-4.8-2.3-9.1-7.8-12.8l-19.2-13.4
		c-6.1-4.2-13-4.5-18.3,0.9l-4.4,4.4c-1.9,1.9-3.7,2-6.2,0.2c-3.4-2.4-9.4-7.6-13.7-11.9c-4.3-4.3-8.5-9-10.9-12.7
		c-1.7-2.4-1.6-4.3,0.2-6.2l4.5-4.5c5.4-5.3,5.1-12.3,0.8-18.3L52.5-90.6c-3.5-5.1-8.1-7.5-13-7.6c-4.1-0.1-8.4,1.7-12.5,5.2
		c-0.5,0.4-0.9,0.8-1.3,1.2c-7.8,7.3-11.2,14.9-11.2,26.6C14.5-46,25-24.2,46.4-3C67.8,18,89,28.4,109,28.4z M108.9,17.4
		c-16,0.2-35.4-10.3-54.1-28.8C36-29.9,25.5-49.8,25.7-65.9c0.1-6.6,2.5-12.5,7.1-16.6c0.5-0.4,1-0.8,1.5-1.2
		c1.7-1.5,3.6-2.3,5.3-2.3c1.8,0,3.5,0.8,4.8,2.8l11.5,17c1.7,2.5,1.7,5.3-0.8,7.7l-4.5,4.4c-5.1,4.9-4.6,10.3-1.8,14.6
		c3,4.6,9.4,11.9,15.6,17.9c6.8,6.7,14.7,13.7,18.8,16.5c4.3,2.8,9.7,3.3,14.6-1.8l4.3-4.5c2.4-2.5,5.3-2.5,7.8-0.8l16.4,10.9
		c2,1.3,2.7,2.9,2.7,4.8c0,1.7-0.7,3.6-2.3,5.4c-0.4,0.5-0.7,1-1.1,1.4C121.4,14.9,115.5,17.3,108.9,17.4z
		M99.4-74.8c3.9,0,6.9-3.3,6.9-7.6c0-4.1-3-7.5-6.8-7.5c-3.8,0-6.9,3.4-6.9,7.5C92.7-78.1,95.7-74.8,99.4-74.8z M108.7-68.6
		c-2.2-1.8-5.2-3-9.3-3c-9.1,0-14.7,6.5-14.7,12.2c0,1.8,1,2.5,2.7,2.5h17c-0.4-0.7-0.7-1.6-0.7-2.5
		C103.8-62.3,105.4-65.8,108.7-68.6z M123-75.2c4.5,0,7.9-3.8,7.9-8.8c0-4.7-3.5-8.6-7.8-8.6c-4.4,0-8,3.9-7.9,8.6
		C115.2-79,118.5-75.2,123-75.2z M146.3-74.7c3.9,0,6.8-3.3,6.9-7.6c0-4.1-3-7.5-6.8-7.5c-3.8,0-6.9,3.4-6.9,7.5
		C139.5-78,142.5-74.7,146.3-74.7z M146.5-71.5c-4.1,0-7.1,1.2-9.3,3c3.2,2.8,4.9,6.4,4.9,9.3c0,0.9-0.3,1.8-0.7,2.5h16.9
		c1.8,0,2.7-0.7,2.7-2.5C161-65,155.5-71.5,146.5-71.5z M122.9-70.8c-10,0-16.3,6.8-16.3,11.5c0,1.1,0.7,1.8,2,1.8l28.7,0.1
		c1.2,0,1.9-0.6,1.9-1.8C139.2-64,132.9-70.8,122.9-70.8z"/>
</g>
<g id="Semibold-L" transform="matrix(1 0 0 1 1966.39 1556)">
	<path d="M107.4,27.3c10.7,0,18.3-3.2,25.1-10.5c0.4-0.5,0.8-1,1.2-1.4c3.6-4.1,5.5-8.5,5.5-12.5c0-4.6-2.4-8.8-7.7-12.4l-18.9-13.1
		c-5.8-4-12.5-4.4-17.9,1l-4.5,4.5c-1.7,1.7-3.4,1.9-5.5,0.4C81.4-19,75.1-24.4,70.5-29c-4.7-4.7-9-9.5-11.5-13.5
		c-1.4-2.1-1.3-3.8,0.4-5.5l4.5-4.5c5.4-5.4,5-12.1,0.9-17.9L51.5-89.7c-3.5-5.1-7.9-7.5-12.5-7.6c-4-0.1-8.3,1.7-12.4,5.3
		c-0.5,0.4-0.9,0.8-1.3,1.2C17.8-83.7,14.5-76.3,14.5-65c0,18.6,10.8,40.4,31.7,61C66.9,16.5,88.2,27.3,107.4,27.3z M107.3,17.3
		c-16,0.2-35.7-10.9-53.6-28.6c-18-17.8-29.3-38.1-29.1-54.1c0.1-6.8,2.5-12.7,7.2-16.9c0.4-0.4,0.9-0.7,1.3-1.1
		c1.9-1.6,3.9-2.5,5.7-2.5c1.9,0,3.6,0.8,4.9,2.8l11.7,17.5c1.6,2.4,1.7,5.1-0.8,7.4l-4.8,4.7c-4.6,4.5-4.3,9.9-1.5,14
		c3.1,4.6,9.3,11.7,15.2,17.5c6.3,6.2,14,13,18.3,16c4.2,2.8,9.5,3.2,14-1.5l4.7-4.8c2.4-2.4,5.1-2.3,7.5-0.7l17.1,11.4
		c2,1.3,2.8,2.9,2.8,4.8c0,1.8-0.8,3.8-2.6,5.8c-0.3,0.4-0.6,0.8-1,1.3C120.1,14.8,114.1,17.2,107.3,17.3z
		M98.5-74c3.8,0,6.8-3.2,6.8-7.5c0-4-3-7.4-6.7-7.4c-3.8,0-6.8,3.4-6.8,7.4C91.7-77.3,94.7-74,98.5-74z M107.6-68
		c-2.2-1.7-5.2-3-9.1-3C89.6-71,84-64.6,84-58.9c0,1.8,0.9,2.5,2.7,2.5h16.7c-0.4-0.7-0.7-1.5-0.7-2.5
		C102.7-61.7,104.5-65.2,107.6-68z M121.7-74.4c4.4,0,7.8-3.8,7.8-8.7c0-4.6-3.4-8.5-7.7-8.5c-4.3,0-7.8,3.9-7.8,8.5
		C114-78.2,117.2-74.4,121.7-74.4z M144.8-73.9c3.8,0,6.7-3.2,6.8-7.5c0-4-3-7.4-6.7-7.4c-3.8,0-6.8,3.4-6.8,7.4
		C138-77.2,140.8-73.9,144.8-73.9z M144.8-70.8c-4,0-7,1.2-9.2,2.9c3.1,2.8,4.9,6.3,4.9,9.2c0,0.9-0.2,1.8-0.7,2.5h16.7
		c1.7,0,2.7-0.7,2.7-2.5C159.3-64.4,153.8-70.8,144.8-70.8z M121.7-70.1c-9.8,0-16.1,6.7-16.1,11.3c0,1.1,0.7,1.8,1.9,1.8l28.3,0.1
		c1.2,0,1.9-0.6,1.9-1.8C137.7-63.4,131.5-70.1,121.7-70.1z"/>
</g>
<g id="Medium-L" transform="matrix(1 0 0 1 1670.52 1556)">
	<path d="M106.2,26.5c10.6,0,18-3.1,24.7-10.2c0.4-0.5,0.8-1,1.2-1.4c3.7-4.1,5.5-8.4,5.5-12.4c0-4.4-2.4-8.5-7.6-12.1l-18.6-12.9
		c-5.6-3.9-12.1-4.3-17.5,1l-4.6,4.6c-1.6,1.6-3.2,1.7-5,0.5c-3.3-2.1-9.9-7.7-14.7-12.5c-5.1-5-9.4-9.9-11.9-14
		c-1.2-1.9-1.1-3.5,0.5-5l4.6-4.6c5.3-5.4,4.9-11.9,1-17.5L50.7-89c-3.5-5.1-7.7-7.5-12.2-7.6c-3.9-0.1-8.2,1.8-12.3,5.4
		c-0.5,0.4-0.9,0.8-1.3,1.2C17.6-83.2,14.5-75.8,14.5-65c0,18.3,11,39.9,31.4,60.2C66.2,15.4,87.6,26.5,106.2,26.5z M106.1,17.2
		c-16.1,0.2-36-11.4-53.3-28.6c-17.4-17.2-29.3-37.8-29-53.8c0.1-6.9,2.5-12.9,7.4-17.2c0.4-0.4,0.8-0.7,1.2-1c2-1.8,4.1-2.7,6-2.7
		c1.9,0,3.6,0.9,4.9,2.8l12,17.8c1.6,2.3,1.7,4.9-0.8,7.2l-5,5c-4.3,4.3-4.1,9.5-1.3,13.6c3.2,4.6,9.3,11.6,15,17.2
		C69.1-16.7,76.6-10.1,81.1-7c4.1,2.8,9.3,3.1,13.5-1.3l4.9-5c2.4-2.4,5-2.3,7.3-0.7l17.6,11.7c2,1.3,2.8,2.9,2.8,4.8
		c0,1.9-0.9,4-2.7,6c-0.3,0.4-0.6,0.8-0.9,1.1C119.1,14.7,113,17.1,106.1,17.2z
		M97.9-73.7c3.8,0,6.7-3.2,6.7-7.4c0-3.9-2.9-7.3-6.6-7.3c-3.7,0-6.7,3.3-6.7,7.2C91.2-76.9,94.1-73.7,97.9-73.7z
		 M106.8-67.8c-2.1-1.7-5.1-2.9-9-2.9c-8.8,0-14.2,6.3-14.2,11.9c0,1.7,0.9,2.4,2.6,2.4h16.4c-0.4-0.7-0.7-1.5-0.7-2.4
		C102-61.6,103.7-65,106.8-67.8z M120.7-74.1c4.3,0,7.6-3.7,7.6-8.5c0-4.5-3.4-8.3-7.6-8.3c-4.3,0-7.7,3.8-7.7,8.3
		C113-77.8,116.3-74.1,120.7-74.1z M143.3-73.6c3.8,0,6.6-3.2,6.6-7.4c0-3.9-2.9-7.3-6.6-7.3s-6.7,3.3-6.7,7.2
		C136.6-76.8,139.5-73.6,143.3-73.6z M143.3-70.6c-3.9,0-6.9,1.2-9,2.9c3.1,2.7,4.8,6.2,4.8,9c0,0.9-0.2,1.7-0.7,2.4h16.4
		c1.7,0,2.6-0.7,2.6-2.4C157.5-64.3,152.1-70.6,143.3-70.6z M120.6-69.9c-9.6,0-15.8,6.6-15.8,11.1c0,1.1,0.7,1.7,1.9,1.7l27.8,0.1
		c1.2,0,1.9-0.6,1.9-1.7C136.3-63.2,130.2-69.9,120.6-69.9z"/>
</g>
<g id="Regular-L" transform="matrix(1 0 0 1 1374.91 1556)">
	<path d="M104.6,25.4c10.4,0,17.7-2.9,24.1-9.8c0.4-0.5,0.8-1,1.2-1.4c3.8-4.1,5.5-8.3,5.5-12.2c0-4.2-2.4-8.2-7.5-11.7l-18.3-12.7
		c-5.4-3.7-11.7-4.2-17.1,1.1l-4.7,4.6c-1.4,1.4-2.8,1.6-4.4,0.7c-3.2-2-10.2-7.8-15.3-12.9c-5.5-5.5-9.9-10.5-12.4-14.7
		c-0.9-1.6-0.7-3,0.7-4.4l4.7-4.7c5.3-5.4,4.8-11.7,1.1-17.1L49.6-88c-3.5-5.1-7.5-7.5-11.8-7.5c-3.9-0.1-8,1.8-12.2,5.5
		c-0.5,0.4-0.9,0.8-1.3,1.2c-6.9,6.3-9.9,13.6-9.9,24c0,17.8,11.3,39.3,31.2,59.1C65.3,13.9,86.8,25.4,104.6,25.4z M104.6,17
		C88.6,17.2,68.3,5,51.8-11.4c-16.6-16.5-29.2-37.4-29-53.5c0.1-7,2.5-13.1,7.5-17.6c0.4-0.3,0.7-0.6,1.1-0.9c2.1-1.9,4.4-3,6.3-3
		c1.9,0,3.6,0.9,4.9,2.8l12.2,18.3c1.5,2.2,1.7,4.6-0.7,7L48.9-53c-3.9,4-3.8,9-0.9,13c3.2,4.6,9.2,11.4,14.6,16.8
		C68-17.8,75.3-11.3,79.9-8.1c4,2.8,9,3,12.9-1l5.3-5.3c2.4-2.3,4.8-2.1,7.1-0.7l18.2,12.2c2,1.3,2.8,2.9,2.8,4.9c0,2-1,4.3-3,6.4
		c-0.3,0.4-0.5,0.7-0.8,1C117.8,14.5,111.6,16.9,104.6,17z
		M97.4-73.2c3.6,0,6.4-3.1,6.4-7.2c0-3.8-2.8-7-6.4-7s-6.5,3.2-6.4,7C91-76.3,93.8-73.2,97.4-73.2z M106-67.4
		c-2-1.6-4.9-2.8-8.7-2.8c-8.5,0-13.8,6.1-13.8,11.5c0,1.7,0.9,2.3,2.5,2.4h15.9c-0.4-0.7-0.6-1.5-0.6-2.3
		C101.4-61.5,103-64.8,106-67.4z M119.4-73.5c4.2,0,7.4-3.6,7.4-8.2c0-4.4-3.2-8.1-7.4-8.1c-4.1,0-7.5,3.7-7.4,8
		C112-77.1,115.3-73.5,119.4-73.5z M141.3-73c3.6,0,6.4-3.1,6.4-7.2c0-3.8-2.8-7-6.4-7c-3.6,0-6.5,3.2-6.5,7
		C135-76.2,137.8-73.1,141.3-73z M141.4-70.1c-3.8,0-6.6,1.2-8.7,2.8c3,2.7,4.6,6,4.6,8.7c0,0.9-0.2,1.7-0.6,2.3h15.9
		c1.7,0,2.5-0.7,2.5-2.3C155.1-64,149.8-70.1,141.4-70.1z M119.4-69.4c-9.3,0-15.3,6.3-15.3,10.7c0,1.1,0.7,1.7,1.8,1.7l26.9,0.1
		c1.1,0,1.8-0.6,1.8-1.7C134.6-63,128.6-69.4,119.4-69.4z"/>
</g>
<g id="Light-L" transform="matrix(1 0 0 1 1079.76 1556)">
	<path d="M102.5,23.8c9.6,0,17-2.8,23.4-9.5c0.3-0.4,0.6-0.7,0.9-1c3.8-4,5.5-8.2,5.5-12c0-3.8-2.1-7.5-6.4-10.4l-18.2-12.5
		c-5-3.4-10.8-4-16.4,1.4l-4.4,4.4c-1.4,1.4-3,1.7-4.9,0.7c-3-1.7-10-7.3-15.7-13C59.8-34.5,56-39,53.4-43.6c-1-1.8-0.7-3.5,0.7-4.9
		l4.4-4.5c5.4-5.5,4.8-11.4,1.3-16.4L47.4-87.5c-3-4.4-6.6-6.4-10.5-6.5c-3.8-0.1-8,1.8-12,5.5c-0.4,0.3-0.6,0.6-1,0.9
		c-6.7,6.3-9.5,13.7-9.5,23.2c0,17.5,11.6,38.5,30.7,57.5C64.2,12.1,85,23.8,102.5,23.8z M102.5,17.2c-16,0.1-35.9-11.9-52.6-28.5
		c-16.7-16.7-29-37-28.9-53.1c0.1-7.1,2.5-13.4,7.6-18.2c0.3-0.3,0.6-0.5,0.9-0.8c2.5-2.4,5.1-3.6,7.2-3.6c2,0,3.8,1,5.2,3.1
		l12.2,18.2c1.7,2.5,2,5.3-0.9,8.2l-5,4.9c-3.4,3.4-3.4,8.1-1.1,11.7c2.7,4.2,8.4,10.9,14.5,17c6.2,6.3,13.2,12.2,17.4,14.9
		c3.6,2.3,8.2,2.4,11.7-1.1l4.9-5c2.9-2.9,5.8-2.6,8.3-0.9l18.1,12.2c2.1,1.4,3.1,3.1,3.1,5.2c0,2.2-1.1,4.8-3.6,7.3
		c-0.2,0.3-0.4,0.5-0.7,0.8C116,14.8,109.7,17.2,102.5,17.2z
		M95.5-72.8c3.6,0,6.3-3,6.3-7c0-3.7-2.8-6.9-6.3-6.9s-6.3,3.1-6.3,6.9C89.2-75.8,91.9-72.8,95.5-72.8z M103.9-67.2
		c-2-1.6-4.8-2.8-8.5-2.8c-8.3,0-13.5,5.9-13.5,11.2c0,1.6,0.9,2.3,2.5,2.3h15.5c-0.4-0.7-0.6-1.4-0.6-2.3
		C99.4-61.4,101-64.6,103.9-67.2z M117.1-73.1c4.1,0,7.2-3.5,7.2-8c0-4.3-3.2-7.9-7.2-7.9c-4,0-7.3,3.6-7.3,7.9
		C109.8-76.7,113-73.1,117.1-73.1z M138.5-72.7c3.6,0,6.3-3,6.3-7c0-3.7-2.7-6.9-6.2-6.9s-6.3,3.1-6.3,6.9
		C132.2-75.7,134.9-72.7,138.5-72.7z M138.5-69.8c-3.7,0-6.5,1.1-8.5,2.7c2.9,2.6,4.5,5.8,4.5,8.5c0,0.9-0.2,1.6-0.6,2.3h15.5
		c1.6,0,2.5-0.6,2.5-2.3C151.9-63.8,146.8-69.8,138.5-69.8z M117-69.1c-9.1,0-15,6.2-15,10.5c0,1,0.7,1.6,1.8,1.6l26.3,0.1
		c1.1,0,1.8-0.6,1.8-1.6C131.9-62.9,126.1-69.1,117-69.1z"/>
</g>
<g id="Thin-L" transform="matrix(1 0 0 1 785.122 1556)">
	<path d="M99.7,21.7c8.6,0,16.1-2.6,22.4-9c0.2-0.2,0.4-0.4,0.5-0.6c3.8-3.8,5.5-7.9,5.5-11.7c0-3.3-1.7-6.4-5.1-8.8l-18.1-12.4
		c-4.4-3-9.7-3.8-15.5,1.7l-4.1,4.1c-1.4,1.4-3.2,1.8-5.4,0.7c-2.6-1.4-9.8-6.7-16.3-13.1C56-34.7,53-38.5,50.3-43.6
		c-1.1-2.2-0.7-4.1,0.7-5.4l4.1-4.1c5.6-5.7,4.8-11.1,1.7-15.4L44.5-86.7c-2.4-3.5-5.5-5.1-8.8-5.2C32-92,27.8-90.1,24-86.4
		c-0.2,0.2-0.3,0.3-0.5,0.5c-6.3,6.2-9.1,13.7-9.1,22.1c0,17.1,11.9,37.3,30.2,55.4C62.7,9.6,82.6,21.7,99.7,21.7z M99.7,17.5
		c-16,0-35.3-11.8-52.2-28.7c-17-17-28.8-36.4-28.8-52.5c0-7.3,2.4-13.8,7.8-19c0.2-0.2,0.4-0.4,0.6-0.6c3-2.9,6-4.4,8.4-4.4
		c2.2,0,4,1.2,5.6,3.5l12.2,18.1c1.9,2.8,2.5,6.3-1.2,9.9l-4.6,4.5c-2.8,2.7-3,6.8-1.3,9.9c2.1,3.7,7.3,10.1,14.4,17.3
		C67.8-17.1,74.4-12,78-10c3.1,1.7,7.2,1.5,10-1.3l4.4-4.6c3.6-3.6,7.1-3.1,10-1.2l18,12.2c2.3,1.6,3.4,3.4,3.4,5.6
		c0,2.6-1.4,5.4-4.5,8.5c-0.2,0.2-0.3,0.3-0.5,0.5C113.6,15.1,107,17.5,99.7,17.5z
		M93.7-73.4c3.4,0,6-2.9,6-6.7c0-3.6-2.7-6.6-6-6.6c-3.4,0-6.1,3-6,6.6C87.5-76.3,90.2-73.4,93.7-73.4z M101.8-68
		c-1.9-1.5-4.6-2.6-8.2-2.6c-8,0-12.9,5.7-12.9,10.8c0,1.6,0.9,2.2,2.4,2.2H98c-0.4-0.6-0.6-1.4-0.6-2.2
		C97.3-62.4,98.9-65.5,101.8-68z M114.3-73.7c3.9,0,6.9-3.4,6.9-7.8c0-4.1-3.1-7.6-6.9-7.6c-3.9,0-7,3.5-7,7.6
		C107.4-77.1,110.4-73.7,114.3-73.7z M134.9-73.4c3.4,0,6-2.9,6-6.7c0-3.6-2.7-6.6-6-6.6c-3.4,0-6.1,3-6.1,6.6
		C128.9-76.3,131.5-73.4,134.9-73.4z M135-70.6c-3.6,0-6.2,1.1-8.2,2.6c2.8,2.5,4.4,5.6,4.4,8.2c0,0.8-0.2,1.6-0.6,2.2h14.9
		c1.6,0,2.4-0.6,2.4-2.2C148-64.9,143-70.6,135-70.6z M114.3-69.9c-8.8,0-14.4,6-14.4,10.1c0,1,0.6,1.6,1.7,1.6h25.3
		c1.1,0,1.7-0.6,1.7-1.6C128.7-63.9,123-69.9,114.3-69.9z"/>
</g>
<g id="Ultralight-L" transform="matrix(1 0 0 1 489.471 1556)">
	<path d="M98.3,20.7c8,0,15.6-2.5,21.9-8.8c0.1-0.1,0.3-0.3,0.2-0.3C124.2,7.8,126,3.7,126,0c0-3-1.5-5.9-4.4-7.9l-18.1-12.3
		c-4.2-2.8-9.1-3.7-15,1.9l-4,3.9c-1.4,1.4-3.3,1.9-5.7,0.7c-2.4-1.2-9.7-6.4-16.6-13.2c-8.1-8-10.8-11.4-13.4-16.8
		c-1.1-2.3-0.6-4.4,0.7-5.7l3.9-4c5.7-5.8,4.7-10.9,1.9-15L43.1-86.4c-2.1-3.1-4.9-4.4-8-4.5c-3.7-0.1-7.9,1.9-11.5,5.5
		c-0.1,0.1-0.2,0.2-0.2,0.2c-6.1,6.2-8.8,13.8-8.8,21.6c0,16.9,12.1,36.7,29.9,54.3C61.9,8.3,81.4,20.7,98.3,20.7z M98.3,17.6
		c-16,0-35-11.7-52.1-28.7C29.1-28.2,17.5-47.3,17.5-63.4c0-7.3,2.4-14,7.8-19.4c0.1-0.1,0.3-0.3,0.4-0.4c3.2-3.2,6.4-4.8,9-4.8
		c2.3,0,4.1,1.3,5.8,3.7l12.2,18c2.1,3,2.7,6.8-1.3,10.8l-4.3,4.3c-2.5,2.4-2.7,6.2-1.4,9c1.7,3.4,6.7,9.7,14.4,17.5
		c7.7,7.9,14.1,12.7,17.5,14.3c2.9,1.4,6.7,1.1,9.1-1.4l4.2-4.3c4-4,7.7-3.4,10.8-1.3l18,12.2c2.4,1.6,3.6,3.5,3.6,5.8
		c0,2.7-1.5,5.7-4.9,9.1c-0.2,0.1-0.2,0.2-0.4,0.4C112.4,15.3,105.7,17.6,98.3,17.6z
		M89.4-73c3.3,0,5.9-2.8,5.9-6.6c0-3.5-2.6-6.4-5.9-6.4c-3.3,0-5.9,2.9-5.9,6.4C83.5-75.8,86.1-73,89.4-73z M97.4-67.7
		c-1.9-1.5-4.5-2.6-7.9-2.6c-7.8,0-12.6,5.6-12.6,10.5c0,1.5,0.8,2.1,2.3,2.1h14.5c-0.4-0.6-0.6-1.3-0.6-2.1
		C93.1-62.3,94.6-65.3,97.4-67.7z M109.6-73.3c3.8,0,6.7-3.3,6.7-7.5c0-4-3-7.4-6.7-7.4c-3.8,0-6.8,3.4-6.8,7.4
		C102.9-76.6,105.8-73.3,109.6-73.3z M129.6-73c3.3,0,5.9-2.8,5.9-6.6c0-3.5-2.6-6.4-5.9-6.4c-3.3,0-5.9,2.9-5.9,6.4
		C123.8-75.8,126.3-73,129.6-73z M129.6-70.3c-3.5,0-6.1,1.1-7.9,2.6c2.7,2.4,4.2,5.4,4.2,8c0,0.8-0.2,1.5-0.6,2.1h14.5
		c1.5,0,2.3-0.6,2.3-2.1C142.3-64.7,137.4-70.3,129.6-70.3z M109.5-69.6c-8.5,0-14,5.8-14,9.8c0,1,0.6,1.5,1.7,1.5h24.6
		c1,0,1.6-0.6,1.6-1.5C123.4-63.8,118-69.6,109.5-69.6z"/>
</g>
<g id="Black-M" transform="matrix(1 0 0 1 2869.91 1126)">
	<path d="M89,17c8.7,0,15.2-3.2,21.6-9.6c0.3-0.3,0.6-0.7,1-1c2.5-3,4.2-7.1,4.2-10.4c0-4.3-1.7-7.8-6.1-10.8l-16-11.1
		c-5.5-3.8-11.3-3.8-15.5,0.5l-3.1,3.1c-2,2-4,2.1-7-0.3c-2.7-2.2-6.3-5.5-8.9-8.1c-2.1-2.1-4.9-5.3-6.9-7.7c-2.3-2.9-2.3-5-0.3-7
		l3.1-3.1c4.3-4.2,4.4-10,0.5-15.5L43.4-81c-2.6-3.6-6.7-5.6-11.1-5.6c-3.5,0-7,1.2-10.1,3.7c-0.3,0.3-0.7,0.6-0.9,0.7
		c-6.9,6.9-10.2,13-10.2,23.5c0,16.4,7.2,33.3,25.5,51.1C55,10.2,70.9,17,89,17z M88.7,6C76.2,6,62.6,0.1,45.4-16.7
		C28.1-33.5,22.6-47.6,22.6-60c0-4.7,1.8-9.1,5-11.8c0.5-0.4,1-0.8,1.5-1.2c1-0.8,2.1-1.2,3.2-1.2c1.4,0,2.7,0.7,3.7,2.2l8,11.7
		c1.6,2.4,1.4,5.1-0.9,7.3l-2.3,2.2c-5,4.7-4.5,9.3-2.4,12.8c2,3.4,7.3,9.5,13.2,15.2c7.2,6.9,13.7,12.8,16.4,14.3
		C71.4-6.5,76-6,80.7-11l2.2-2.3c2.2-2.3,4.9-2.4,7.3-0.9l10.6,6.8c1.6,1,2.2,2.3,2.2,3.7c0,1.1-0.3,2.2-1.2,3.2
		c-0.4,0.5-0.8,1-1.2,1.5C97.8,4.2,93.4,6,88.7,6z
		M78.6-71.8c3.8,0,6.7-3.2,6.7-7.5c0-4-3-7.3-6.7-7.3c-3.7,0-6.7,3.4-6.7,7.3C71.9-75.1,74.8-71.8,78.6-71.8z M87.6-65.9
		c-2.1-1.7-5.1-2.9-9-2.9c-8.8,0-14.3,6.3-14.3,12c0,1.8,0.9,2.4,2.6,2.4h16.5c-0.4-0.7-0.7-1.5-0.7-2.4
		C82.8-59.7,84.5-63.1,87.6-65.9z M101.6-72.3c4.3,0,7.7-3.7,7.7-8.6c0-4.5-3.4-8.4-7.7-8.4c-4.3,0-7.7,3.8-7.7,8.4
		C93.9-76,97.2-72.3,101.6-72.3z M124.4-71.8c3.8,0,6.7-3.2,6.7-7.5c0-4-2.9-7.3-6.7-7.3c-3.7,0-6.7,3.4-6.7,7.3
		C117.6-75.1,120.6-71.8,124.4-71.8z M124.4-68.8c-4,0-6.9,1.2-9.1,2.9c3.1,2.8,4.8,6.2,4.8,9.1c0,0.9-0.2,1.7-0.7,2.4h16.5
		c1.7,0,2.6-0.7,2.6-2.4C138.7-62.5,133.2-68.8,124.4-68.8z M101.5-68c-9.7,0-15.9,6.6-15.9,11.2c0,1.1,0.7,1.7,1.9,1.7h28
		c1.2,0,1.9-0.6,1.9-1.7C117.4-61.4,111.2-68,101.5-68z"/>
</g>
<g id="Heavy-M" transform="matrix(1 0 0 1 2574.27 1126)">
	<path d="M87.4,16c8.7,0,15-3,21-9.2c0.3-0.4,0.7-0.7,1-1.1c2.6-3.1,4.3-6.9,4.3-10.2c0-4.1-1.8-7.5-6.2-10.6L91.9-25.8
		c-5.2-3.6-10.9-3.7-15,0.5L73.6-22c-1.8,1.8-3.6,1.9-6.1-0.1c-2.7-2.1-6.7-5.7-9.6-8.5c-2.5-2.5-5.6-5.9-7.5-8.5
		c-1.9-2.5-1.9-4.3-0.1-6.1l3.3-3.2c4.2-4.1,4.2-9.9,0.5-15L42.5-79.9c-2.7-3.8-6.6-5.7-10.8-5.8c-3.4,0-6.8,1.2-9.9,3.8
		c-0.4,0.3-0.7,0.6-1,0.8c-6.6,6.4-9.7,12.4-9.7,22.4c0,15.8,7.5,32.8,25.3,50.1C54.1,8.7,70.3,16,87.4,16z M87.1,5.8
		C74.7,5.9,60.5-0.9,44.4-16.7c-16.2-15.8-22.8-30.5-22.7-43c0-4.9,1.9-9.3,5.2-12.2c0.5-0.4,0.9-0.8,1.4-1.1
		c1.1-0.9,2.3-1.3,3.5-1.3c1.4,0,2.7,0.6,3.7,2.1l8.3,12.3c1.5,2.2,1.4,4.7-0.8,6.7l-2.8,2.7c-4.6,4.4-4.2,8.8-2,12.3
		c2.2,3.5,7.4,9.5,12.7,14.7c6.4,6.2,12.8,11.9,15.7,13.7c3.5,2.1,8,2.6,12.3-2l2.7-2.8c2-2.1,4.5-2.2,6.7-0.8l11.4,7.5
		c1.6,1,2.1,2.3,2.1,3.6c0,1.2-0.4,2.4-1.3,3.5c-0.3,0.5-0.7,0.9-1.1,1.4C96.5,4,92,5.8,87.1,5.8z
		M77.9-71.3c3.7,0,6.5-3.1,6.5-7.2c0-3.8-2.9-7.1-6.5-7.1s-6.5,3.3-6.5,7.1C71.5-74.5,74.3-71.3,77.9-71.3z M86.6-65.5
		c-2.1-1.7-5-2.8-8.8-2.8c-8.6,0-13.9,6.2-13.9,11.6c0,1.7,0.9,2.4,2.6,2.4h16.1C82.2-55,82-55.8,82-56.7
		C82-59.5,83.6-62.9,86.6-65.5z M100.3-71.7c4.2,0,7.5-3.6,7.5-8.3c0-4.4-3.3-8.1-7.5-8.1c-4.2,0-7.5,3.7-7.5,8.1
		C92.8-75.4,96-71.7,100.3-71.7z M122.4-71.3c3.7,0,6.5-3.1,6.5-7.2c0-3.8-2.9-7.1-6.5-7.1s-6.5,3.3-6.5,7.1
		C115.9-74.5,118.6-71.3,122.4-71.3z M122.5-68.4c-3.8,0-6.7,1.2-8.8,2.8c3,2.7,4.7,6,4.7,8.8c0,0.9-0.2,1.7-0.6,2.4h16
		c1.7,0,2.6-0.7,2.6-2.4C136.3-62.2,130.9-68.4,122.5-68.4z M100.1-67.6c-9.4,0-15.4,6.4-15.4,10.9c0,1.1,0.7,1.7,1.9,1.7h27.2
		c1.2,0,1.8-0.6,1.8-1.7C115.5-61.2,109.5-67.6,100.1-67.6z"/>
</g>
<g id="Bold-M" transform="matrix(1 0 0 1 2278.76 1126)">
	<path d="M85.6,14.8c8.6,0,14.7-2.7,20.3-8.7c0.4-0.4,0.7-0.8,1-1.1c2.7-3.2,4.3-6.8,4.3-10c0-3.9-1.8-7.3-6.2-10.3L89.9-25.8
		c-4.9-3.4-10.4-3.6-14.5,0.6l-3.4,3.4c-1.5,1.5-3.1,1.7-5.1,0.1c-2.7-1.9-7.1-5.9-10.3-9c-3-3-6.2-6.6-8.1-9.4
		c-1.5-2-1.4-3.5,0.1-5.1l3.5-3.4c4.2-4.1,4-9.6,0.6-14.5l-11-15.6c-2.8-4-6.5-6-10.4-6c-3.2,0-6.6,1.3-9.8,4
		c-0.4,0.3-0.8,0.7-1,0.9c-6.2,5.9-9,11.8-9,21.3c0,15.1,7.9,32.1,25,48.9C53.1,7.1,69.6,14.8,85.6,14.8z M85.5,5.6
		C73,5.7,58.2-2.1,43.3-16.7c-15-14.7-22.8-30.1-22.6-42.5c0.1-5,1.9-9.5,5.4-12.6c0.4-0.4,0.8-0.7,1.2-1c1.2-1,2.6-1.6,3.8-1.6
		c1.4,0,2.7,0.6,3.7,2.1l8.7,13c1.3,2,1.3,4.2-0.7,6l-3.3,3.2c-4.2,4-3.8,8.4-1.5,11.8c2.4,3.6,7.4,9.4,12.3,14.1
		c5.5,5.4,11.7,10.9,14.9,13.1c3.4,2.2,7.8,2.6,11.8-1.6l3.2-3.3c1.8-1.9,4-1.9,6-0.6l12.4,8.2c1.5,1,2.1,2.3,2.1,3.6
		c0,1.3-0.5,2.6-1.6,3.9c-0.3,0.4-0.6,0.8-1,1.2C95,3.7,90.5,5.5,85.5,5.6z
		M77.4-70.7c3.6,0,6.3-3,6.3-7c0-3.7-2.8-6.8-6.3-6.8s-6.3,3.1-6.3,6.8C71.2-73.8,73.9-70.7,77.4-70.7z M85.9-65.1
		c-2-1.6-4.8-2.7-8.5-2.7c-8.3,0-13.4,5.9-13.4,11.2c0,1.6,0.9,2.3,2.5,2.3H82c-0.4-0.6-0.6-1.4-0.6-2.3
		C81.3-59.4,82.9-62.6,85.9-65.1z M98.9-71.1c4.1,0,7.2-3.5,7.2-8c0-4.3-3.2-7.8-7.2-7.8s-7.3,3.6-7.2,7.8
		C91.8-74.6,94.9-71.1,98.9-71.1z M120.3-70.7c3.6,0,6.2-3,6.2-7c0-3.7-2.8-6.8-6.2-6.8c-3.5,0-6.3,3.1-6.3,6.8
		C114.1-73.8,116.8-70.7,120.3-70.7z M120.3-67.9c-3.7,0-6.5,1.1-8.5,2.7c2.9,2.6,4.5,5.8,4.5,8.5c0,0.9-0.2,1.6-0.6,2.3h15.5
		c1.6,0,2.5-0.6,2.5-2.3C133.8-61.9,128.7-67.9,120.3-67.9z M98.9-67.2C89.8-67.2,84-61,84-56.7c0,1,0.7,1.6,1.8,1.6H112
		c1.1,0,1.7-0.6,1.7-1.6C113.8-60.9,107.9-67.2,98.9-67.2z"/>
</g>
<g id="Semibold-M" transform="matrix(1 0 0 1 1982.87 1126)">
	<path d="M84.4,14c8.6,0,14.5-2.6,19.9-8.4c0.4-0.4,0.7-0.8,1-1.2c2.8-3.2,4.3-6.7,4.3-9.8c0-3.8-1.9-7.1-6.3-10.1L88.5-25.8
		c-4.7-3.3-10.1-3.5-14.2,0.6l-3.5,3.5c-1.4,1.4-2.7,1.5-4.4,0.3c-2.7-1.8-7.4-6-10.7-9.3c-3.3-3.3-6.7-7.1-8.6-10
		c-1.2-1.7-1.1-3,0.3-4.4l3.6-3.6c4.1-4.1,3.9-9.5,0.6-14.2L40.9-77.9C38-82,34.4-84,30.6-84c-3.2,0-6.5,1.3-9.7,4.1
		c-0.4,0.3-0.8,0.7-1.1,1c-6,5.5-8.6,11.3-8.6,20.4c0,14.7,8.2,31.7,24.7,48.1C52.5,5.9,69.1,14,84.4,14z M84.3,5.4
		C71.9,5.6,56.6-2.8,42.5-16.8C28.3-30.7,19.8-46.5,20-59c0.1-5.2,1.9-9.7,5.5-12.8c0.4-0.3,0.7-0.6,1.1-0.9c1.3-1.1,2.7-1.7,4-1.7
		c1.4,0,2.7,0.6,3.7,2.1l9,13.4c1.2,1.8,1.2,3.8-0.6,5.5L39-49.8c-3.9,3.8-3.6,8.1-1.2,11.4c2.5,3.7,7.5,9.3,11.9,13.6
		c4.8,4.8,11,10.2,14.4,12.7c3.4,2.3,7.6,2.7,11.4-1.3l3.6-3.7c1.7-1.8,3.7-1.7,5.6-0.5l13,8.6c1.5,1,2.1,2.2,2.1,3.6
		c0,1.3-0.6,2.7-1.7,4.1c-0.3,0.4-0.6,0.7-0.9,1.1C94,3.5,89.5,5.4,84.3,5.4z
		M76.9-70.4c3.5,0,6.1-3,6.1-6.8c0-3.6-2.7-6.7-6.1-6.7s-6.2,3.1-6.1,6.7C70.8-73.3,73.4-70.4,76.9-70.4z M85.2-64.9
		c-2-1.6-4.7-2.7-8.3-2.7c-8.1,0-13.1,5.8-13.1,11c0,1.6,0.9,2.2,2.4,2.2h15.2c-0.4-0.6-0.6-1.4-0.6-2.2
		C80.8-59.3,82.3-62.4,85.2-64.9z M97.9-70.8c4,0,7-3.4,7-7.9c0-4.2-3.1-7.7-7-7.7s-7.1,3.5-7.1,7.7C90.9-74.2,93.9-70.8,97.9-70.8z
		 M118.9-70.4c3.5,0,6.1-3,6.1-6.8c0-3.6-2.7-6.7-6.1-6.7s-6.2,3.1-6.2,6.7C112.7-73.3,115.3-70.4,118.9-70.4z M118.9-67.6
		c-3.6,0-6.3,1.1-8.3,2.7c2.9,2.5,4.4,5.7,4.4,8.3c0,0.8-0.2,1.6-0.6,2.2h15.2c1.6,0,2.4-0.6,2.4-2.2
		C131.9-61.8,126.9-67.6,118.9-67.6z M97.9-66.9c-8.9,0-14.6,6.1-14.6,10.3c0,1,0.6,1.6,1.8,1.6h25.7c1.1,0,1.7-0.6,1.7-1.6
		C112.4-60.8,106.8-66.9,97.9-66.9z"/>
</g>
<g id="Medium-M" transform="matrix(1 0 0 1 1686.79 1126)">
	<path d="M83.4,13.4c8.6,0,14.3-2.5,19.5-8.2c0.4-0.4,0.7-0.8,1.1-1.2c2.9-3.2,4.3-6.6,4.3-9.7c0-3.7-2-7-6.3-10L87.5-25.7
		c-4.6-3.2-9.8-3.4-14,0.7l-3.6,3.6c-1.3,1.3-2.4,1.3-3.9,0.4c-2.7-1.8-7.7-6.1-11.1-9.6c-3.5-3.5-7-7.5-9-10.4
		c-1-1.4-0.9-2.6,0.4-3.9l3.7-3.7c4.1-4.1,3.8-9.4,0.6-14L40.3-77.3c-2.9-4.2-6.4-6.2-10.1-6.3c-3.1-0.1-6.4,1.3-9.6,4.2
		c-0.4,0.4-0.8,0.7-1.2,1.1c-5.8,5.3-8.3,11-8.3,19.8c0,14.4,8.4,31.4,24.6,47.5C51.9,5.1,68.8,13.4,83.4,13.4z M83.4,5.3
		C71,5.5,55.4-3.4,42-16.8c-13.6-13.4-22.8-29.5-22.5-42c0.1-5.2,1.9-9.8,5.6-13c0.4-0.3,0.7-0.6,1-0.9c1.4-1.2,2.9-1.8,4.2-1.8
		c1.4,0,2.7,0.6,3.7,2l9.2,13.8c1.1,1.7,1.2,3.5-0.5,5.2l-3.9,3.9c-3.6,3.6-3.4,7.8-1,11.2c2.6,3.7,7.5,9.3,11.7,13.3
		c4.4,4.3,10.4,9.7,13.9,12.3c3.3,2.4,7.5,2.7,11.1-1l3.9-3.9c1.7-1.6,3.5-1.6,5.2-0.5l13.5,9c1.5,1,2,2.2,2,3.6
		c0,1.4-0.6,2.9-1.8,4.2c-0.3,0.4-0.5,0.7-0.8,1C93.3,3.4,88.7,5.2,83.4,5.3z
		M76.5-70.1c3.4,0,6-2.9,6-6.7c0-3.6-2.7-6.6-6-6.6c-3.4,0-6.1,3-6,6.6C70.4-73,73.1-70.1,76.5-70.1z M84.6-64.7
		c-1.9-1.5-4.6-2.6-8.1-2.6c-8,0-12.9,5.7-12.9,10.8c0,1.6,0.8,2.2,2.4,2.2h14.9c-0.4-0.6-0.6-1.4-0.6-2.2
		C80.3-59.2,81.9-62.3,84.6-64.7z M97.1-70.5c3.9,0,6.9-3.4,6.9-7.7c0-4.1-3.1-7.5-6.9-7.5c-3.9,0-7,3.5-6.9,7.5
		C90.3-73.9,93.3-70.5,97.1-70.5z M117.8-70.1c3.4,0,6-2.9,6-6.7c0-3.6-2.6-6.6-6-6.6s-6,3-6,6.6C111.6-73,114.4-70.1,117.8-70.1z
		 M117.8-67.4c-3.6,0-6.2,1.1-8.2,2.6c2.8,2.5,4.4,5.6,4.4,8.2c0,0.8-0.2,1.6-0.6,2.2h14.9c1.6,0,2.4-0.6,2.4-2.2
		C130.6-61.7,125.8-67.4,117.8-67.4z M97.1-66.7c-8.7,0-14.3,6-14.3,10.1c0,1,0.6,1.6,1.7,1.6h25.2c1.1,0,1.7-0.6,1.7-1.6
		C111.4-60.7,105.9-66.7,97.1-66.7z"/>
</g>
<g id="Regular-M" transform="matrix(1 0 0 1 1390.9 1126)">
	<path d="M70.9,12.6c8.5,0,14.1-2.3,19.1-7.8c0.4-0.4,0.7-0.9,1.1-1.2C94,0.3,95.3-3,95.3-6c0-3.5-2-6.8-6.4-9.8l-14.2-9.9
		c-4.4-3-9.5-3.3-13.6,0.7l-3.7,3.7c-1.1,1.1-2.1,1.2-3.2,0.5c-2.7-1.7-8-6.3-11.6-9.9c-3.8-3.8-7.5-8-9.4-11
		c-0.7-1.1-0.6-2.1,0.5-3.2l3.8-3.8c4.1-4.1,3.7-9.2,0.7-13.6l-9.8-14.2c-3-4.4-6.3-6.4-9.8-6.4c-3-0.1-6.3,1.4-9.5,4.3
		c-0.4,0.4-0.8,0.8-1.2,1.1c-5.5,4.9-7.8,10.6-7.8,19c0,13.9,8.6,31,24.4,46.7C39.9,3.9,56.9,12.6,70.9,12.6z M70.9,5.2
		c-12.5,0.2-28.4-9.4-41-22C17.1-29.5,7.1-46,7.4-58.5c0.1-5.4,2-10,5.8-13.3c0.3-0.3,0.6-0.5,0.9-0.8c1.4-1.2,3-2,4.4-2
		c1.4,0,2.7,0.6,3.6,2l9.5,14.2c1,1.5,1.1,3.2-0.4,4.7l-4.3,4.3c-3.3,3.4-3.1,7.5-0.6,10.8c2.8,3.8,7.6,9.2,11.4,12.9
		c3.7,3.8,9.7,9.1,13.4,11.9c3.3,2.4,7.4,2.7,10.8-0.7l4.3-4.3c1.5-1.5,3.2-1.4,4.7-0.4L85-9.6c1.5,0.9,2,2.2,2,3.6
		c0,1.4-0.7,3-2,4.5c-0.2,0.3-0.4,0.6-0.7,0.9C80.9,3.2,76.3,5.1,70.9,5.2z
		M64.9-69.7c3.3,0,5.9-2.8,5.9-6.6c0-3.5-2.6-6.4-5.9-6.4c-3.3,0-5.9,3-5.9,6.4C58.9-72.6,61.4-69.7,64.9-69.7z M72.8-64.5
		c-1.9-1.5-4.5-2.6-8-2.6c-7.8,0-12.6,5.6-12.6,10.5c0,1.5,0.8,2.1,2.3,2.1H69c-0.4-0.6-0.6-1.3-0.6-2.1
		C68.4-59.1,69.9-62.1,72.8-64.5z M84.9-70.1c3.8,0,6.7-3.3,6.7-7.5c0-4-3-7.4-6.7-7.4c-3.8,0-6.8,3.4-6.8,7.4
		C78.3-73.4,81.2-70.1,84.9-70.1z M105-69.7c3.3,0,5.9-2.8,5.9-6.6c0-3.5-2.6-6.4-5.9-6.4c-3.3,0-5.9,2.9-5.9,6.4
		C99.2-72.6,101.7-69.7,105-69.7z M105-67.1c-3.5,0-6.1,1.1-8,2.6c2.7,2.4,4.3,5.4,4.3,8c0,0.8-0.2,1.5-0.6,2.1h14.5
		c1.5,0,2.3-0.6,2.3-2.1C117.7-61.5,112.9-67.1,105-67.1z M84.9-66.4c-8.5,0-14,5.8-14,9.9c0,1,0.6,1.5,1.7,1.5h24.6
		c1,0,1.6-0.6,1.6-1.5C98.9-60.5,93.4-66.4,84.9-66.4z"/>
</g>
<g id="Light-M" transform="matrix(1 0 0 1 1095.59 1126)">
	<path d="M80.3,11.2c7.8,0,13.5-2.2,18.5-7.5c0.3-0.3,0.6-0.7,0.8-0.9c2.9-3.2,4.3-6.4,4.3-9.4c0-3.2-1.7-6.1-5.5-8.6L84.3-25
		c-4-2.8-8.8-3.2-13,0.9l-3.5,3.5c-1.1,1.1-2.2,1.3-3.6,0.5c-2.4-1.4-7.8-5.9-12-10c-4.5-4.5-7.8-8.2-9.7-11.6
		c-0.7-1.3-0.6-2.5,0.5-3.6l3.5-3.6c4.2-4.2,3.7-9,0.9-13L37.7-76c-2.6-3.7-5.5-5.4-8.7-5.5c-3-0.1-6.2,1.4-9.4,4.3
		c-0.3,0.3-0.6,0.6-0.9,0.8c-5.3,4.9-7.5,10.6-7.5,18.3c0,13.7,8.9,30.2,24,45.3C50.2,2.2,66.7,11.2,80.3,11.2z M80.4,5.3
		c-12.4,0.1-28-9.3-40.8-22.1C26.6-29.6,16.9-45.6,17.1-58c0.1-5.5,1.9-10.2,5.9-13.8c0.3-0.2,0.5-0.4,0.8-0.7
		c1.8-1.6,3.6-2.5,5.2-2.5c1.5,0,2.9,0.7,3.9,2.3l9.5,14.1c1.2,1.8,1.4,3.8-0.6,5.8l-4,4c-2.9,2.9-2.8,6.7-0.8,9.6
		c2.3,3.4,6.8,8.7,11.3,13.1c4.4,4.5,10,9.3,13.5,11.6c3,2,6.7,2.1,9.6-0.8l4-4c2-2,4.1-1.8,5.9-0.6l14.1,9.5c1.6,1,2.3,2.3,2.3,3.9
		c0,1.6-0.8,3.5-2.5,5.3c-0.2,0.3-0.4,0.5-0.6,0.7C90.7,3.4,85.8,5.3,80.4,5.3z
		M74.3-69.5c3.3,0,5.8-2.8,5.8-6.5c0-3.4-2.6-6.3-5.8-6.3c-3.2,0-5.8,2.9-5.8,6.4C68.5-72.3,71-69.5,74.3-69.5z M82.1-64.4
		c-1.9-1.5-4.4-2.5-7.9-2.5c-7.7,0-12.4,5.5-12.4,10.4c0,1.5,0.8,2.1,2.3,2.1h14.4c-0.4-0.6-0.6-1.3-0.6-2.1
		C77.9-59,79.4-62,82.1-64.4z M94.2-69.9c3.8,0,6.7-3.2,6.7-7.5c0-3.9-3-7.3-6.7-7.3s-6.7,3.3-6.7,7.3
		C87.5-73.2,90.5-69.9,94.2-69.9z M114-69.5c3.3,0,5.8-2.8,5.8-6.5c0-3.4-2.6-6.4-5.8-6.4s-5.8,2.9-5.8,6.3
		C108.2-72.3,110.7-69.5,114-69.5z M114.1-66.9c-3.4,0-6,1.1-7.9,2.5c2.7,2.4,4.2,5.4,4.2,7.9c0,0.8-0.2,1.5-0.6,2.1h14.4
		c1.5,0,2.3-0.6,2.3-2.1C126.5-61.4,121.7-66.9,114.1-66.9z M94.2-66.2c-8.4,0-13.8,5.8-13.8,9.7c0,1,0.6,1.5,1.7,1.5h24.3
		c1,0,1.6-0.6,1.6-1.5C108-60.5,102.6-66.2,94.2-66.2z"/>
</g>
<g id="Thin-M" transform="matrix(1 0 0 1 800.734 1126)">
	<path d="M77.8,9.3c6.9,0,12.7-2.1,17.6-7.1c0.2-0.2,0.4-0.4,0.4-0.5c2.9-3,4.3-6.2,4.3-9.1c0-2.7-1.4-5.2-4.3-7.1l-14.1-9.6
		c-3.6-2.4-7.8-3-12.2,1.3l-3.3,3.2c-1.1,1.1-2.4,1.4-4.1,0.5c-2.1-1.2-7.6-5.3-12.5-10.1c-5.6-5.5-8.1-8.6-10.1-12.5
		c-0.8-1.6-0.5-3,0.5-4.1l3.2-3.3c4.3-4.4,3.7-8.7,1.3-12.2l-9.6-14.1c-2-2.9-4.5-4.3-7.2-4.3c-2.9-0.1-6.1,1.4-9.1,4.3
		c-0.2,0.2-0.3,0.3-0.5,0.5c-5,4.8-7.1,10.6-7.1,17.4c0,13.3,9.2,29.2,23.5,43.4C48.9,0,64.5,9.3,77.8,9.3z M77.8,5.6
		c-12.4,0-27.5-9.2-40.5-22.2C24.2-29.7,15-45,15-57.4C15-63,16.9-68,21-72c0.2-0.2,0.3-0.3,0.5-0.5c2.2-2.2,4.4-3.2,6.2-3.2
		c1.7,0,3.1,0.9,4.2,2.6l9.5,14c1.4,2.1,1.8,4.7-0.9,7.3L37-48.2c-2.3,2.3-2.4,5.6-1,8.1c1.7,3,5.9,8,11.2,13.4
		c5.4,5.5,10.6,9.6,13.5,11.3c2.5,1.5,5.8,1.3,8.1-1l3.5-3.6c2.7-2.6,5.2-2.3,7.4-0.9l14,9.5c1.7,1.2,2.6,2.6,2.6,4.2
		c0,1.9-1,4-3.3,6.3c-0.1,0.2-0.2,0.3-0.4,0.4C88.5,3.7,83.5,5.5,77.8,5.6z
		M72.1-69.3c3.2,0,5.7-2.8,5.7-6.4c0-3.4-2.5-6.2-5.7-6.2c-3.2,0-5.7,2.9-5.7,6.2C66.4-72,68.9-69.3,72.1-69.3z M79.8-64.2
		c-1.8-1.5-4.4-2.5-7.7-2.5c-7.5,0-12.2,5.4-12.2,10.2c0,1.5,0.8,2.1,2.3,2.1h14.1c-0.4-0.6-0.6-1.3-0.6-2.1
		C75.6-58.9,77.1-61.8,79.8-64.2z M91.8-69.7c3.7,0,6.6-3.2,6.6-7.3c0-3.9-2.9-7.2-6.6-7.2c-3.7,0-6.6,3.3-6.6,7.2
		C85.1-72.8,88-69.7,91.8-69.7z M111.1-69.3c3.2,0,5.7-2.8,5.7-6.4c0-3.4-2.5-6.2-5.7-6.2c-3.2,0-5.7,2.9-5.7,6.2
		C105.4-72,108-69.3,111.1-69.3z M111.3-66.7c-3.4,0-5.9,1-7.7,2.5c2.7,2.3,4.1,5.3,4.1,7.7c0,0.8-0.2,1.5-0.6,2.1h14.1
		c1.5,0,2.3-0.6,2.3-2.1C123.4-61.3,118.8-66.7,111.3-66.7z M91.6-66C83.3-66,78-60.3,78-56.4c0,0.9,0.6,1.5,1.6,1.5h23.9
		c1,0,1.6-0.5,1.6-1.5C105.1-60.4,100-66,91.6-66z"/>
</g>
<g id="Ultralight-M" transform="matrix(1 0 0 1 504.973 1126)">
	<path d="M76.6,8.4c6.4,0,12.2-2,17.1-6.9C93.8,1.4,94,1.3,94,1.2c2.9-2.9,4.3-6.1,4.3-9c0-2.4-1.2-4.8-3.6-6.4l-14-9.5
		c-3.3-2.2-7.2-2.9-11.8,1.4l-3.1,3.1c-1.1,1.1-2.6,1.4-4.4,0.6c-1.9-1-7.5-5.1-12.8-10.2c-6.1-6-8.3-8.8-10.3-12.9
		c-0.9-1.7-0.5-3.3,0.6-4.4l3.1-3.1c4.4-4.5,3.7-8.5,1.4-11.7l-9.5-14c-1.7-2.5-3.9-3.6-6.4-3.7c-2.9-0.1-6.1,1.4-9,4.3
		c-0.1,0.1-0.2,0.2-0.3,0.3c-4.8,4.8-6.9,10.7-6.9,16.9c0,13.2,9.3,28.6,23.2,42.4C48.2-1.1,63.4,8.4,76.6,8.4z M76.6,5.7
		c-12.4,0-27.2-9.1-40.4-22.2C23-29.8,13.9-44.7,13.9-57.1c0-5.7,1.9-10.8,6-14.9c0.1-0.1,0.3-0.3,0.4-0.4c2.4-2.4,4.8-3.6,6.8-3.6
		c1.7,0,3.2,1,4.4,2.8l9.5,14c1.6,2.3,2,5.1-1,8.1l-3.4,3.4c-2,1.9-2.2,5-1.1,7.3c1.4,2.7,5.4,7.6,11.2,13.5
		c5.8,6,10.8,9.8,13.5,11.2c2.3,1.2,5.3,0.9,7.3-1.1l3.3-3.4c3-3,5.8-2.5,8.1-1l14,9.5c1.8,1.2,2.7,2.7,2.7,4.4
		c0,2.1-1.1,4.4-3.7,6.8c-0.1,0.1-0.2,0.2-0.3,0.3C87.5,3.9,82.3,5.7,76.6,5.7z
		M71.3-69c3.2,0,5.6-2.7,5.6-6.2c0-3.3-2.5-6.1-5.6-6.1s-5.6,2.8-5.6,6.1C65.7-71.7,68.2-69,71.3-69z M78.8-64
		c-1.8-1.4-4.3-2.4-7.6-2.4c-7.4,0-12,5.3-12,10c0,1.5,0.8,2,2.2,2h13.8c-0.3-0.6-0.6-1.3-0.6-2C74.8-58.8,76.2-61.7,78.8-64z
		 M90.6-69.4c3.6,0,6.4-3.1,6.4-7.2c0-3.8-2.8-7-6.4-7s-6.5,3.2-6.4,7C84.1-72.5,87-69.4,90.6-69.4z M109.6-69
		c3.2,0,5.6-2.7,5.6-6.2c0-3.3-2.5-6.1-5.6-6.1s-5.6,2.8-5.6,6.1C104-71.7,106.5-69,109.6-69z M109.6-66.4c-3.3,0-5.8,1-7.6,2.4
		c2.6,2.3,4,5.2,4,7.6c0,0.8-0.2,1.5-0.5,2h13.8c1.4,0,2.2-0.6,2.2-2C121.6-61.1,117.1-66.4,109.6-66.4z M90.5-65.8
		c-8.1,0-13.3,5.6-13.3,9.4c0,0.9,0.6,1.5,1.6,1.5h23.4c1,0,1.6-0.5,1.6-1.5C103.7-60.2,98.6-65.8,90.5-65.8z"/>
</g>
<g id="Black-S" transform="matrix(1 0 0 1 2883.4 696)">
	<path d="M70.1,6c6.8,0,12-2.5,17-7.6c0.2-0.2,0.5-0.5,0.7-0.8c2-2.3,3.3-5.6,3.3-8.2c0-3.4-1.3-6.1-4.7-8.5l-12.6-8.8
		c-4.3-3-8.9-3-12.2,0.4l-2.3,2.4c-1.6,1.6-3.3,1.8-5.8-0.3c-2.1-1.8-4.8-4.2-6.8-6.2c-1.6-1.6-3.7-4-5.2-5.9
		c-2-2.4-1.9-4.2-0.3-5.8l2.4-2.3c3.4-3.3,3.5-7.9,0.4-12.2l-9.8-13.6c-2-2.7-5.3-4.2-8.7-4.2c-2.7,0-5.5,0.9-7.9,2.8
		c-0.2,0.2-0.5,0.4-0.6,0.5c-5.5,5.5-8.2,10.4-8.2,18.7c0,13,5.6,26.2,20.1,40.3C43.3,0.7,55.7,6,70.1,6z M69.8-2.8
		c-9.7,0-20.3-4.4-34.1-17.8C21.9-34.1,17.9-45,17.9-54.7c0-3.7,1.4-7.1,3.9-9.2c0.4-0.3,0.8-0.7,1.2-1c0.8-0.6,1.6-0.9,2.4-0.9
		c1.1,0,2.1,0.5,2.9,1.7l6.2,9c1.3,2,1.2,4.2-0.7,6l-1.7,1.5c-4.1,3.7-3.6,7.3-2.1,10.1c1.5,2.6,5.7,7.5,10.4,12.1
		c5.9,5.7,11.1,10.3,13,11.4c2.8,1.6,6.4,2,10.1-2.1l1.5-1.7c1.8-1.9,4-2,6-0.7l8,5.2c1.3,0.8,1.7,1.9,1.7,2.9
		c0,0.8-0.2,1.7-0.9,2.5c-0.3,0.4-0.6,0.8-1,1.2C76.9-4.2,73.5-2.8,69.8-2.8z
		M62.6-62.9c3.2,0,5.7-2.8,5.7-6.4c0-3.4-2.5-6.2-5.7-6.2c-3.2,0-5.8,2.9-5.7,6.3C57-65.7,59.5-62.9,62.6-62.9z M70.4-57.8
		c-1.8-1.5-4.4-2.5-7.7-2.5c-7.5,0-12.2,5.4-12.2,10.2c0,1.5,0.8,2.1,2.3,2.1h14.1c-0.4-0.6-0.6-1.3-0.6-2.1
		C66.3-52.5,67.6-55.5,70.4-57.8z M82.2-63.3c3.7,0,6.6-3.2,6.6-7.3c0-3.9-2.9-7.2-6.6-7.2c-3.7,0-6.6,3.3-6.6,7.2
		C75.6-66.5,78.5-63.3,82.2-63.3z M101.7-62.9c3.2,0,5.7-2.8,5.7-6.4c0-3.4-2.5-6.3-5.7-6.3c-3.2,0-5.7,2.9-5.7,6.2
		C96.1-65.7,98.5-62.9,101.7-62.9z M101.9-60.3c-3.4,0-5.9,1-7.7,2.5c2.7,2.4,4.1,5.3,4.1,7.7c0,0.8-0.2,1.5-0.6,2.1h14.1
		c1.5,0,2.3-0.6,2.3-2.1C114.1-54.9,109.4-60.3,101.9-60.3z M82.2-59.6c-8.3,0-13.6,5.7-13.6,9.6c0,0.9,0.6,1.5,1.6,1.5h23.9
		c1,0,1.6-0.5,1.6-1.5C95.7-54,90.5-59.6,82.2-59.6z"/>
</g>
<g id="Heavy-S" transform="matrix(1 0 0 1 2587.43 696)">
	<path d="M69,5.3c6.8,0,11.8-2.4,16.6-7.3c0.3-0.3,0.5-0.6,0.8-0.9c2-2.4,3.3-5.5,3.3-8c0-3.3-1.4-6-4.9-8.4l-12.3-8.6
		c-4.2-2.9-8.7-2.9-11.9,0.4L58.1-25c-1.4,1.4-2.9,1.6-4.9-0.1c-2.1-1.7-5.2-4.4-7.3-6.6c-1.8-1.8-4.2-4.5-5.7-6.4
		c-1.6-2-1.6-3.5-0.1-4.9l2.6-2.5c3.3-3.2,3.3-7.8,0.4-11.9l-9.3-13c-2.1-3-5.3-4.5-8.6-4.5c-2.7,0-5.4,1-7.8,3
		c-0.3,0.2-0.6,0.5-0.8,0.7c-5.3,5.1-7.7,9.9-7.7,17.9C8.8-41,14.6-27.7,28.7-14C42.7-0.3,55.3,5.3,69,5.3z M68.8-3
		C59-3,48-8.1,35.1-20.7C22.2-33.3,17.3-44.8,17.3-54.5c0-3.8,1.5-7.2,4-9.4c0.4-0.3,0.8-0.6,1.1-0.9c0.8-0.6,1.7-1,2.6-1
		c1.1,0,2.1,0.5,2.9,1.7l6.5,9.5c1.2,1.7,1.1,3.7-0.6,5.3l-2.1,2c-3.8,3.5-3.4,7.1-1.7,9.9c1.7,2.8,5.8,7.5,10.1,11.6
		c5.1,5,10.2,9.5,12.4,10.9c2.8,1.7,6.3,2.1,9.8-1.7l2-2.1c1.6-1.7,3.6-1.7,5.3-0.6l8.7,5.7c1.2,0.8,1.7,1.8,1.7,2.8
		c0,0.9-0.3,1.8-1,2.6c-0.3,0.4-0.6,0.8-0.9,1.1C76-4.5,72.6-3.1,68.8-3z
		M62.2-62.5c3.2,0,5.6-2.7,5.6-6.2c0-3.3-2.5-6.1-5.6-6.1c-3.1,0-5.6,2.8-5.6,6.1C56.6-65.2,59.1-62.5,62.2-62.5z
		 M69.7-57.6C67.9-59,65.4-60,62.2-60c-7.4,0-11.9,5.3-11.9,10c0,1.5,0.8,2,2.2,2h13.9c-0.3-0.6-0.6-1.3-0.6-2
		C65.6-52.4,67.2-55.3,69.7-57.6z M81.3-62.9c3.6,0,6.4-3.1,6.4-7.2c0-3.8-2.8-7-6.4-7c-3.6,0-6.5,3.2-6.4,7
		C75-66,77.7-62.9,81.3-62.9z M100.3-62.5c3.2,0,5.6-2.7,5.6-6.2c0-3.3-2.5-6.1-5.6-6.1c-3.1,0-5.6,2.8-5.6,6.1
		C94.7-65.2,97.2-62.5,100.3-62.5z M100.5-60c-3.3,0-5.8,1-7.5,2.4c2.6,2.3,4,5.2,4,7.6c0,0.8-0.2,1.5-0.5,2h13.8
		c1.4,0,2.2-0.6,2.2-2C112.3-54.7,107.7-60,100.5-60z M81.3-59.4c-8.1,0-13.3,5.5-13.3,9.3c0,0.9,0.6,1.5,1.6,1.5h23.3
		c1,0,1.6-0.5,1.6-1.5C94.6-53.8,89.3-59.4,81.3-59.4z"/>
</g>
<g id="Bold-S" transform="matrix(1 0 0 1 2291.54 696)">
	<path d="M67.7,4.5c6.9,0,11.7-2.2,16.2-7c0.3-0.3,0.6-0.6,0.9-1c2.1-2.5,3.3-5.4,3.3-7.9c0-3.1-1.5-5.9-5.1-8.3L71.1-28
		c-4-2.8-8.4-2.8-11.6,0.4l-2.7,2.7c-1.2,1.2-2.4,1.3-4,0c-2.1-1.6-5.6-4.7-7.9-7c-2.1-2.1-4.7-5-6.2-7.1c-1.2-1.6-1.2-2.8,0-4
		l2.7-2.7c3.2-3.2,3.2-7.6,0.4-11.6l-8.8-12.4c-2.3-3.2-5.3-4.8-8.5-4.9c-2.6,0-5.2,1-7.7,3.1c-0.3,0.3-0.6,0.6-0.9,0.8
		c-5,4.7-7.2,9.3-7.2,17c0,12,6.1,25.4,19.7,38.8C42-1.5,55,4.5,67.7,4.5z M67.6-3.2c-9.7,0.1-21.4-5.9-33.2-17.5
		C22.5-32.4,16.6-44.5,16.7-54.2c0-3.9,1.5-7.4,4.2-9.7c0.3-0.3,0.7-0.6,1-0.8c0.9-0.7,1.9-1.1,2.8-1.1c1.1,0,2.1,0.5,2.8,1.6
		l6.8,10.1c1,1.5,1,3.2-0.5,4.5L31.2-47c-3.4,3.3-3.1,6.8-1.2,9.6c1.9,2.9,6,7.5,9.7,11.1c4.2,4.2,9.2,8.6,11.8,10.4
		c2.8,1.8,6.3,2.2,9.5-1.3l2.5-2.6c1.4-1.4,3.1-1.5,4.6-0.5l9.6,6.3c1.2,0.8,1.6,1.7,1.6,2.8c0,0.9-0.3,1.9-1.1,2.8
		c-0.2,0.3-0.5,0.7-0.8,1C75-4.7,71.5-3.3,67.6-3.2z
		M62.6-62.5c3,0,5.2-2.5,5.2-5.8c0-3.1-2.3-5.7-5.2-5.7c-2.9,0-5.3,2.6-5.2,5.7C57.4-65.1,59.8-62.5,62.6-62.5z M69.7-57.9
		c-1.8-1.3-4.1-2.3-7.1-2.3c-6.9,0-11.2,4.9-11.2,9.3c0,1.4,0.7,1.9,2.1,1.9h12.9c-0.3-0.5-0.5-1.2-0.5-1.9
		C65.9-53.1,67.3-55.7,69.7-57.9z M80.5-62.9c3.4,0,6-2.9,6-6.7c0-3.5-2.7-6.5-6-6.5c-3.3,0-6,3-6,6.5
		C74.5-65.8,77.2-62.9,80.5-62.9z M98.4-62.5c3,0,5.2-2.5,5.2-5.8c0-3.1-2.3-5.7-5.2-5.7s-5.2,2.6-5.2,5.7
		C93.2-65.1,95.4-62.5,98.4-62.5z M98.4-60.2c-3.1,0-5.4,1-7.1,2.3c2.4,2.1,3.8,4.8,3.8,7.1c0,0.7-0.2,1.4-0.5,1.9h12.9
		c1.3,0,2.1-0.5,2.1-1.9C109.5-55.2,105.4-60.2,98.4-60.2z M80.5-59.6c-7.6,0-12.4,5.2-12.4,8.7c0,0.9,0.5,1.4,1.5,1.4h21.8
		c0.9,0,1.5-0.5,1.5-1.4C92.9-54.4,88-59.6,80.5-59.6z"/>
</g>
<g id="Semibold-S" transform="matrix(1 0 0 1 1995.4 696)">
	<path d="M66.9,3.9c7,0,11.6-2.1,15.8-6.7c0.3-0.3,0.6-0.7,0.9-1c2.2-2.5,3.4-5.3,3.4-7.8c0-3.1-1.6-5.8-5.2-8.3L70.1-28
		c-3.8-2.7-8.2-2.8-11.4,0.4l-2.8,2.8c-1.1,1.1-2.1,1.2-3.4,0.2c-2.2-1.5-5.8-4.8-8.2-7.2c-2.3-2.3-5.1-5.4-6.6-7.6
		c-1-1.3-0.9-2.3,0.2-3.4l2.9-2.8c3.2-3.2,3.1-7.5,0.4-11.4l-8.4-11.9c-2.4-3.4-5.3-5-8.4-5.1c-2.5,0-5.1,1-7.7,3.2
		c-0.3,0.3-0.7,0.6-1,0.9c-4.8,4.4-6.9,8.9-6.9,16.3c0,11.7,6.3,25.2,19.5,38.3C41.5-2.3,54.7,3.9,66.9,3.9z M66.8-3.4
		C57-3.3,45-9.8,33.9-20.8C22.8-31.8,16.1-44.3,16.2-54c0.1-4,1.5-7.5,4.3-9.8c0.3-0.3,0.6-0.5,1-0.8c0.9-0.7,1.9-1.1,2.9-1.1
		c1.1,0,2.1,0.4,2.8,1.5l7,10.5c0.9,1.4,0.9,2.8-0.4,4l-2.9,2.9c-3.2,3.1-2.9,6.6-1,9.4c2.1,3,6.1,7.5,9.4,10.7
		c3.6,3.6,8.6,8,11.3,10c2.7,1.9,6.2,2.3,9.3-1l2.9-2.9c1.2-1.2,2.7-1.3,4.1-0.4L77-14.3c1.2,0.7,1.5,1.7,1.5,2.7c0,1-0.4,2-1.1,2.9
		c-0.2,0.3-0.5,0.6-0.7,0.9C74.3-4.9,70.8-3.5,66.8-3.4z
		M62.5-62.4c2.9,0,5-2.4,5-5.6c0-3-2.2-5.5-5-5.5s-5.1,2.5-5,5.5C57.5-64.8,59.7-62.4,62.5-62.4z M69.3-57.9
		c-1.6-1.3-3.8-2.2-6.8-2.2c-6.7,0-10.8,4.8-10.8,9c0,1.3,0.7,1.8,2,1.8h12.5c-0.3-0.5-0.5-1.1-0.5-1.8C65.7-53.2,67-55.8,69.3-57.9
		z M79.8-62.7c3.3,0,5.8-2.8,5.8-6.5c0-3.4-2.6-6.3-5.8-6.3c-3.2,0-5.8,2.9-5.8,6.3C74-65.5,76.6-62.7,79.8-62.7z M97-62.4
		c2.9,0,5-2.4,5-5.6c0-3-2.2-5.5-5-5.5c-2.8,0-5.1,2.5-5.1,5.5C92-64.8,94.2-62.4,97-62.4z M97.1-60.1c-3,0-5.2,0.9-6.8,2.2
		c2.3,2.1,3.6,4.7,3.6,6.8c0,0.7-0.2,1.3-0.5,1.8h12.5c1.3,0,2-0.5,2-1.8C107.8-55.3,103.7-60.1,97.1-60.1z M79.8-59.5
		c-7.3,0-12,5-12,8.4c0,0.8,0.5,1.3,1.4,1.3h21.1c0.9,0,1.4-0.5,1.4-1.3C91.7-54.5,87.1-59.5,79.8-59.5z"/>
</g>
<g id="Medium-S" transform="matrix(1 0 0 1 1699.12 696)">
	<path d="M66.2,3.5c7,0,11.5-2,15.6-6.5c0.3-0.4,0.6-0.7,0.9-1.1c2.2-2.6,3.4-5.2,3.4-7.7c0-3-1.6-5.7-5.3-8.3l-11.4-8
		c-3.7-2.6-8-2.7-11.2,0.4l-2.9,2.9c-1,1-1.9,1-2.9,0.3c-2.2-1.5-6-5-8.5-7.4c-2.4-2.4-5.4-5.7-6.9-7.9c-0.8-1.1-0.7-1.9,0.3-2.9
		l3-2.9c3.2-3.2,3-7.5,0.4-11.2l-8.1-11.6c-2.5-3.5-5.3-5.2-8.3-5.2c-2.5,0-5,1-7.6,3.3c-0.4,0.3-0.7,0.6-1,0.9
		c-4.6,4.2-6.6,8.6-6.6,15.9c0,11.4,6.4,24.9,19.4,37.8C41.1-2.9,54.5,3.5,66.2,3.5z M66.2-3.5c-9.8,0.2-22.1-6.8-32.6-17.3
		C23-31.3,15.7-44.1,15.9-53.9c0.1-4.1,1.5-7.6,4.4-10c0.3-0.3,0.6-0.5,0.9-0.7c0.9-0.7,2-1.2,3-1.2c1.1,0,2.1,0.4,2.8,1.5l7.2,10.8
		c0.8,1.2,0.8,2.6-0.3,3.6l-3.2,3.2c-3.1,3-2.8,6.5-0.7,9.2c2.2,3,6.2,7.5,9.2,10.4c3.2,3.2,8,7.6,11,9.8c2.7,2,6.2,2.3,9.2-0.8
		l3.2-3.2c1.1-1.1,2.4-1.1,3.7-0.3l10.6,7c1.1,0.7,1.5,1.7,1.5,2.7c0,1-0.4,2.1-1.2,3c-0.2,0.3-0.4,0.6-0.7,0.9
		C73.8-5,70.2-3.6,66.2-3.5z
		M62.9-62.5c2.7,0,4.8-2.3,4.8-5.4c0-2.9-2.1-5.3-4.8-5.3s-4.9,2.4-4.8,5.3C58.1-64.8,60.1-62.5,62.9-62.5z M69.4-58.1
		c-1.5-1.2-3.7-2.1-6.5-2.1c-6.4-0.1-10.4,4.5-10.4,8.6c0,1.3,0.7,1.8,1.9,1.8h12c-0.3-0.5-0.5-1.1-0.5-1.8
		C65.9-53.7,67.1-56.2,69.4-58.1z M79.5-62.8c3.1,0,5.6-2.7,5.6-6.2c0-3.3-2.5-6.1-5.6-6.1s-5.6,2.8-5.6,6.1
		C73.8-65.5,76.3-62.8,79.5-62.8z M96-62.5c2.7,0,4.8-2.3,4.8-5.4c0-2.9-2.1-5.3-4.8-5.3c-2.7,0-4.9,2.4-4.9,5.3
		C91.1-64.8,93.2-62.5,96-62.5z M96-60.3c-2.9,0-5,0.9-6.6,2.1c2.3,2,3.5,4.5,3.5,6.6c0,0.7-0.2,1.3-0.5,1.8h12
		c1.2,0,1.9-0.5,1.9-1.8C106.3-55.7,102.3-60.3,96-60.3z M79.5-59.7c-7,0-11.5,4.8-11.5,8.1c0,0.8,0.5,1.3,1.4,1.3h20.3
		c0.9,0,1.4-0.5,1.4-1.3C90.8-54.9,86.5-59.7,79.5-59.7z"/>
</g>
<g id="Regular-S" transform="matrix(1 0 0 1 1402.97 696)">
	<path d="M65.3,3c7,0,11.4-1.9,15.3-6.3c0.3-0.4,0.6-0.8,1-1.1c2.3-2.6,3.4-5.2,3.4-7.6c0-2.9-1.7-5.7-5.4-8.2l-11.2-7.8
		c-3.6-2.5-7.8-2.7-11,0.4l-3,3c-0.9,0.9-1.6,0.9-2.3,0.4c-2.2-1.4-6.3-5.1-8.9-7.7c-2.6-2.6-5.8-6.1-7.2-8.3
		c-0.5-0.8-0.5-1.4,0.4-2.3l3.1-3.1c3.1-3.1,2.9-7.4,0.4-11L32-67.8c-2.6-3.7-5.3-5.4-8.3-5.5c-2.4,0-4.9,1.1-7.6,3.4
		c-0.4,0.3-0.7,0.7-1.1,1c-4.4,3.9-6.3,8.3-6.3,15.2c0,11,6.6,24.7,19.3,37.3C40.7-3.7,54.3,3,65.3,3z M65.4-3.7
		C55.6-3.5,42.9-11,33.1-20.8c-9.9-9.8-17.9-23-17.7-32.8c0.1-4.2,1.6-7.7,4.5-10.2c0.3-0.2,0.5-0.4,0.8-0.7c1-0.8,2.1-1.3,3.1-1.3
		c1.1,0,2.1,0.4,2.7,1.5L34-53.1c0.7,1.1,0.7,2.2-0.2,3.1l-3.5,3.5c-2.8,2.9-2.6,6.3-0.4,9c2.4,3.1,6.3,7.5,8.9,10
		c2.6,2.6,7.4,7,10.5,9.4c2.7,2.1,6.2,2.4,9-0.5l3.5-3.5c1-0.9,2.1-0.9,3.2-0.2L76-14.8c1.1,0.7,1.5,1.6,1.5,2.7
		c0,1-0.4,2.1-1.3,3.1c-0.2,0.3-0.4,0.5-0.6,0.8C73.1-5.2,69.5-3.8,65.4-3.7z
		M62.3-61.9c2.7,0,4.8-2.3,4.8-5.4c0-2.8-2.1-5.2-4.8-5.2c-2.7,0-4.8,2.4-4.8,5.2C57.5-64.3,59.5-61.9,62.3-61.9z
		 M68.7-57.7c-1.5-1.2-3.7-2.1-6.5-2.1c-6.3,0-10.3,4.5-10.3,8.6c0,1.3,0.7,1.7,1.9,1.7h11.9c-0.3-0.4-0.5-1-0.5-1.7
		C65.2-53.2,66.5-55.7,68.7-57.7z M78.7-62.2c3.1,0,5.5-2.7,5.5-6.2c0-3.3-2.4-6-5.5-6c-3.1,0-5.6,2.8-5.5,6
		C73.2-64.9,75.6-62.2,78.7-62.2z M95-61.9c2.7,0,4.8-2.3,4.8-5.3c0-2.8-2.1-5.2-4.8-5.2c-2.7,0-4.8,2.4-4.8,5.2
		C90.2-64.3,92.3-61.9,95-61.9z M95.1-59.8c-2.8,0-4.9,0.9-6.5,2.1c2.2,2,3.5,4.4,3.5,6.5c0,0.7-0.2,1.3-0.5,1.7h11.8
		c1.2,0,1.9-0.5,1.9-1.7C105.3-55.2,101.4-59.8,95.1-59.8z M78.7-59.2c-7,0-11.4,4.8-11.4,8c0,0.8,0.5,1.3,1.4,1.3h20.1
		c0.9,0,1.3-0.5,1.3-1.3C90-54.5,85.6-59.2,78.7-59.2z"/>
</g>
<g id="Light-S" transform="matrix(1 0 0 1 1107.5 696)">
	<path d="M63.7,1.7c6.4,0,10.8-1.8,14.7-6c0.3-0.3,0.5-0.6,0.7-0.9c2.3-2.5,3.4-5.1,3.4-7.4c0-2.6-1.5-5.1-4.6-7.2l-11.1-7.7
		c-3.3-2.3-7.1-2.6-10.4,0.7L53.5-24c-0.9,0.9-1.7,1-2.6,0.4c-2-1.2-6.2-4.8-9.2-7.8c-3.3-3.3-6-6.3-7.5-8.9c-0.5-1-0.5-1.8,0.4-2.6
		l2.9-2.9c3.2-3.2,2.9-7.1,0.6-10.4l-7.7-11.1c-2.2-3.2-4.6-4.6-7.3-4.7c-2.3,0-4.9,1.1-7.4,3.4c-0.3,0.3-0.6,0.5-0.8,0.8
		c-4.2,3.8-6,8.3-6,14.6c0,10.8,6.9,24,19,36C39.8-5.2,52.9,1.7,63.7,1.7z M63.7-3.5C54-3.4,41.6-10.8,31.6-20.8
		c-10-10-17.8-22.7-17.6-32.5c0.1-4.2,1.5-7.9,4.6-10.6c0.2-0.2,0.4-0.4,0.7-0.6c1.3-1.1,2.6-1.8,3.8-1.8c1.2,0,2.2,0.5,3,1.7
		l7.4,11.1c0.9,1.3,1,2.8-0.4,4.1l-3.3,3.2c-2.4,2.5-2.3,5.6-0.6,8c2,2.8,5.6,7,8.9,10.2c3.2,3.2,7.7,7.2,10.5,9.2
		c2.4,1.7,5.5,1.9,8-0.6l3.2-3.3c1.4-1.4,2.9-1.3,4.2-0.4L75-15.5c1.2,0.8,1.7,1.8,1.7,2.9c0,1.2-0.6,2.5-1.8,3.8
		c-0.2,0.2-0.3,0.4-0.5,0.6C71.7-5,68-3.6,63.7-3.5z
		M60.7-61.8c2.7,0,4.7-2.3,4.7-5.3c0-2.8-2.1-5.2-4.7-5.2c-2.6,0-4.8,2.4-4.7,5.2C55.9-64.1,58-61.8,60.7-61.8z M67.1-57.6
		c-1.5-1.2-3.6-2.1-6.4-2.1c-6.3,0-10.2,4.5-10.2,8.5c0,1.2,0.7,1.7,1.9,1.7h11.7c-0.3-0.5-0.5-1.1-0.5-1.7
		C63.6-53.2,64.9-55.6,67.1-57.6z M77-62.1c3.1,0,5.5-2.7,5.5-6.1c0-3.2-2.4-5.9-5.5-5.9c-3,0-5.5,2.7-5.5,6
		C71.5-64.8,73.9-62.1,77-62.1z M93.2-61.8c2.7,0,4.7-2.3,4.7-5.3c0-2.8-2.1-5.2-4.7-5.2c-2.6,0-4.8,2.4-4.8,5.2
		C88.4-64.1,90.5-61.8,93.2-61.8z M93.2-59.7c-2.8,0-4.9,0.9-6.4,2.1c2.2,2,3.4,4.4,3.4,6.4c0,0.7-0.2,1.2-0.5,1.7h11.8
		c1.2,0,1.9-0.5,1.9-1.7C103.3-55.2,99.5-59.7,93.2-59.7z M76.9-59.1c-6.9,0-11.3,4.7-11.3,8c0,0.8,0.5,1.2,1.4,1.2h19.9
		c0.8,0,1.3-0.5,1.3-1.2C88.2-54.4,83.8-59.1,76.9-59.1z"/>
</g>
<g id="Thin-S" transform="matrix(1 0 0 1 812.43 696)">
	<path d="M61.5,0.1c5.6,0,10.1-1.6,13.9-5.6c0.2-0.2,0.3-0.4,0.4-0.5c2.3-2.4,3.4-4.9,3.4-7.2c0-2.2-1.1-4.3-3.6-5.9l-11-7.6
		c-2.9-2-6.3-2.4-9.7,0.9l-2.6,2.6c-0.8,0.8-1.9,1.1-3.1,0.4c-1.7-1-6-4.3-9.7-7.9c-4.2-4.1-6.3-6.7-7.9-9.6
		c-0.6-1.2-0.4-2.3,0.4-3.1l2.6-2.6c3.3-3.4,2.9-6.8,0.9-9.7l-7.5-11c-1.7-2.4-3.7-3.6-5.9-3.6c-2.3,0-4.8,1.1-7.2,3.4
		c-0.2,0.2-0.3,0.3-0.5,0.4c-4,3.8-5.7,8.3-5.7,13.8c0,10.5,7.1,23,18.5,34.4C38.6-7.2,51,0.1,61.5,0.1z M61.5-3.3
		c-9.7,0.1-21.7-7.2-31.8-17.4C19.4-30.9,12.1-43,12.2-52.7c0-4.4,1.5-8.2,4.7-11.3c0.2-0.1,0.3-0.3,0.4-0.4
		c1.6-1.6,3.3-2.4,4.7-2.4c1.3,0,2.4,0.7,3.3,2l7.4,11c1.1,1.6,1.4,3.5-0.6,5.4l-2.9,2.9c-1.9,1.9-2,4.6-0.7,6.6
		c1.5,2.4,4.8,6.4,8.8,10.4c4,4.1,8.2,7.5,10.6,8.9c2.1,1.3,4.7,1.2,6.6-0.7l2.8-2.9c2-1.9,3.9-1.7,5.5-0.6l11,7.4
		c1.3,0.9,2,2,2,3.2c0,1.4-0.8,3.1-2.4,4.7C73.1-8.2,73-8.1,72.9-8C69.8-4.8,65.9-3.3,61.5-3.3z
		M58.5-61.6c2.7,0,4.8-2.3,4.8-5.3c0-2.8-2.1-5.2-4.8-5.2c-2.7,0-4.8,2.4-4.8,5.2C53.8-63.9,55.8-61.6,58.5-61.6z M65-57.4
		c-1.5-1.2-3.6-2.1-6.4-2.1c-6.3,0-10.2,4.5-10.2,8.5c0,1.2,0.7,1.7,1.9,1.7H62c-0.3-0.5-0.5-1.1-0.5-1.7C61.5-53,62.7-55.4,65-57.4
		z M74.8-61.9c3.1,0,5.5-2.7,5.5-6.1c0-3.2-2.4-6-5.5-6c-3,0-5.5,2.7-5.5,6C69.3-64.6,71.8-61.9,74.8-61.9z M91.1-61.6
		c2.7,0,4.7-2.3,4.7-5.3c0-2.8-2.1-5.2-4.7-5.2c-2.7,0-4.8,2.4-4.8,5.2C86.3-63.9,88.3-61.6,91.1-61.6z M91.2-59.4
		c-2.8,0-4.9,0.9-6.5,2.1c2.2,2,3.4,4.4,3.4,6.5c0,0.7-0.2,1.2-0.5,1.7h11.8c1.2,0,1.9-0.5,1.9-1.7C101.3-54.9,97.4-59.4,91.2-59.4z
		 M74.8-58.9c-6.9,0-11.3,4.7-11.3,8c0,0.8,0.5,1.2,1.4,1.2h19.9c0.8,0,1.3-0.5,1.3-1.2C86.2-54.2,81.8-58.9,74.8-58.9z"/>
</g>
<g id="Ultralight-S" transform="matrix(1 0 0 1 516.56 696)">
	<path d="M60.3-0.8c5.1,0,9.7-1.6,13.6-5.4c0.1-0.1,0.2-0.2,0.2-0.3c2.3-2.3,3.4-4.8,3.4-7.1c0-2-1-3.8-3-5.2l-11-7.5
		c-2.7-1.8-5.8-2.3-9.4,1.1l-2.5,2.4c-0.8,0.8-2,1.1-3.3,0.4c-1.6-0.8-5.9-4-9.9-8c-4.6-4.6-6.4-6.8-8-10c-0.7-1.3-0.4-2.5,0.4-3.3
		l2.4-2.5c3.4-3.5,2.9-6.7,1.1-9.3l-7.4-11c-1.4-2.1-3.2-3-5.3-3.1c-2.3,0-4.8,1.1-7.1,3.4c-0.1,0.1-0.2,0.2-0.3,0.3
		c-3.8,3.8-5.5,8.3-5.5,13.4C8.8-42.2,16.1-30,27.1-19C37.9-8.2,50-0.8,60.3-0.8z M60.3-3.2c-9.7,0-21.4-7.1-31.7-17.4
		C18.3-30.9,11.2-42.7,11.2-52.5c0-4.4,1.5-8.4,4.7-11.6c0.1-0.1,0.2-0.2,0.3-0.3c1.8-1.8,3.7-2.7,5.2-2.7c1.3,0,2.5,0.8,3.4,2.1
		l7.4,11c1.2,1.8,1.5,3.9-0.7,6.1l-2.7,2.7c-1.7,1.6-1.8,4.1-0.8,5.9c1.2,2.2,4.3,6.1,8.8,10.6c4.4,4.5,8.4,7.6,10.6,8.8
		c1.9,1,4.3,0.8,5.9-0.8l2.7-2.7c2.2-2.2,4.4-1.9,6.2-0.7l11,7.4c1.4,1,2.1,2.1,2.1,3.4c0,1.6-0.8,3.3-2.8,5.2
		c-0.1,0.1-0.2,0.2-0.3,0.3C68.8-4.6,64.8-3.2,60.3-3.2z
		M57-61c2.6,0,4.7-2.2,4.7-5.2c0-2.7-2-5.1-4.7-5.1c-2.6,0-4.7,2.3-4.7,5.1C52.4-63.2,54.4-61,57-61z M63.3-56.9
		c-1.5-1.2-3.5-2-6.2-2c-6.1,0-9.9,4.4-9.9,8.3c0,1.2,0.7,1.7,1.9,1.7h11.5c-0.3-0.5-0.5-1.1-0.5-1.7C59.9-52.6,61.1-54.9,63.3-56.9
		z M72.9-61.3c3,0,5.4-2.6,5.4-5.9c0-3.1-2.3-5.8-5.4-5.8c-2.9,0-5.4,2.6-5.4,5.8C67.6-63.9,69.9-61.3,72.9-61.3z M88.7-61
		c2.6,0,4.6-2.2,4.6-5.2c0-2.7-2-5.1-4.6-5.1S84-69,84-66.2C84.1-63.2,86.1-61,88.7-61z M88.8-58.8c-2.7,0-4.8,0.9-6.3,2
		c2.1,1.9,3.3,4.3,3.3,6.3c0,0.7-0.2,1.2-0.5,1.7h11.5c1.2,0,1.9-0.5,1.9-1.7C98.8-54.5,95-58.8,88.8-58.8z M72.9-58.4
		c-6.7,0-11,4.6-11,7.8c0,0.8,0.5,1.2,1.4,1.2h19.4c0.8,0,1.3-0.5,1.3-1.2C84-53.8,79.7-58.4,72.9-58.4z"/>
</g>
</svg>
