<?xml version="1.0" encoding="UTF-8"?>
<!-- Generated by Pixelmator Pro 3.6.17 -->
<svg width="500" height="500" viewBox="0 0 500 500" xmlns="http://www.w3.org/2000/svg">
    <g id="Neutral">
        <clipPath id="clipPath1">
            <path d="M 99.999996 -0 L 399.999985 -0 C 455.228512 -0 500 44.771488 500 100.000015 L 500 400.000004 C 500 455.228471 455.228512 500 399.999985 500 L 99.999996 500 C 44.771529 500 -0 455.228471 -0 400.000004 L -0 100.000015 C -0 44.771488 44.771529 -0 99.999996 -0 Z"/>
        </clipPath>
        <path id="Path-copy" fill="#ffffff" stroke="none" clip-path="url(#clipPath1)" d="M 0 0 L 500 0 L 500 500 L 0 500 Z"/>
        <path id="Dots-copy" fill="#027a22" fill-rule="evenodd" stroke="none" d="M 277.319946 414.057709 C 277.319946 429.169861 265.091675 441.40625 249.975281 441.40625 C 234.884506 441.40625 222.65625 429.169861 222.65625 414.057709 C 222.65625 398.974365 234.884506 386.71875 249.975281 386.71875 C 265.091675 386.71875 277.319946 398.974365 277.319946 414.057709 Z M 178.710938 414.057709 C 178.710938 429.169861 166.482681 441.40625 151.366287 441.40625 C 136.275497 441.40625 124.047256 429.169861 124.047256 414.057709 C 124.047256 398.974365 136.275497 386.71875 151.366287 386.71875 C 166.482681 386.71875 178.710938 398.974365 178.710938 414.057709 Z M 375.928925 414.057709 C 375.928925 429.169861 363.700684 441.40625 348.584259 441.40625 C 333.4935 441.40625 321.265259 429.169861 321.265259 414.057709 C 321.265259 398.974365 333.4935 386.71875 348.584259 386.71875 C 363.700684 386.71875 375.928925 398.974365 375.928925 414.057709 Z"/>
        <g id="Group-copy">
            <linearGradient id="linearGradient1" x1="233.675414" y1="157.557" x2="263.862561" y2="206.068053" gradientUnits="userSpaceOnUse">
                <stop offset="1e-05" stop-color="#8bd4a5" stop-opacity="1"/>
                <stop offset="0.5" stop-color="#61bf80" stop-opacity="1"/>
                <stop offset="0.97" stop-color="#46b269" stop-opacity="1"/>
            </linearGradient>
            <path id="Path-copy-5" fill="url(#linearGradient1)" stroke="none" d="M 250.404877 152.003265 C 235.328369 152.003265 223.114059 164.227325 223.114059 179.269714 L 223.114059 197.442474 L 277.724945 197.442474 L 277.724945 179.269714 C 277.724945 164.227325 265.510651 152.003265 250.404877 152.003265 Z"/>
            <linearGradient id="linearGradient2" x1="242.739847" y1="96.105115" x2="372.752785" y2="305.021045" gradientUnits="userSpaceOnUse">
                <stop offset="1e-05" stop-color="#98dbb0" stop-opacity="1"/>
                <stop offset="1" stop-color="#039030" stop-opacity="1"/>
            </linearGradient>
            <path id="Path-copy-4" fill="url(#linearGradient2)" stroke="none" d="M 405.899658 174.281586 C 386.132477 169.400726 365.336426 161.555298 343.179993 152.003265 C 288.07666 128.247528 251.931061 113.648865 217.696854 120.158295 C 202.66423 123.020477 192.210144 127.7258 187.76326 130.324677 C 183.311493 132.923584 174.622513 144.113953 174.622513 155.401825 C 174.622513 171.531525 179.937317 185.949799 198.651306 198.983276 C 199.889801 198.022705 201.440353 197.447357 203.127441 197.447357 L 204.916916 197.447357 L 204.916916 179.269714 C 204.916916 154.197449 225.278992 133.830505 250.404877 133.830505 C 275.530762 133.830505 295.936707 154.197449 295.936707 179.269714 L 295.936707 197.447357 L 297.726196 197.447357 C 301.763489 197.447357 305.040131 200.723999 305.040131 204.761292 L 305.040131 248.313477 C 330.955963 264.097015 352.419983 285.302612 355.916046 315.504395 C 389.579773 289.627625 410.848755 251.580383 410.848755 209.159424 C 410.848755 197.120636 409.132416 185.437836 405.909393 174.281586 Z"/>
            <linearGradient id="linearGradient3" x1="222.95315" y1="130.324692" x2="222.95315" y2="356.169999" gradientUnits="userSpaceOnUse">
                <stop offset="1e-05" stop-color="#38b967" stop-opacity="1"/>
                <stop offset="1" stop-color="#027a22" stop-opacity="1"/>
            </linearGradient>
            <path id="Path-copy-3" fill="url(#linearGradient3)" stroke="none" d="M 305.030396 248.308609 L 305.030396 268.890076 C 305.030396 272.927399 301.753754 276.204041 297.716431 276.204041 L 203.122574 276.204041 C 199.085266 276.204041 195.808609 272.927399 195.808609 268.890076 L 195.808609 204.756409 C 195.808609 202.406189 196.925201 200.319275 198.646423 198.978394 C 179.932449 185.944916 174.61763 171.531525 174.61763 155.396973 C 174.61763 144.10907 183.30661 132.918701 187.758377 130.319794 C 158.283127 147.556396 132.908554 172.95047 91.657829 188.851013 C 90.570488 195.48233 90 202.259918 90 209.159424 C 90 238.127594 99.917732 265.062439 116.925125 287.46756 L 99.751945 356.169983 L 180.117737 336.076111 C 201.347717 345.199066 225.200974 350.318848 250.41951 350.318848 C 290.80719 350.318848 327.703674 337.178101 355.906311 315.499512 C 352.410217 285.297729 330.946198 264.097015 305.030396 248.313477 Z"/>
            <path id="Path-copy-2" fill="#c2ead0" stroke="none" d="M 405.899658 174.276703 C 388.248627 113.190521 325.333954 68 250.41951 68 C 169.658768 68 102.84819 120.514221 91.657829 188.851013 C 132.903687 172.95047 158.283127 147.556396 187.758377 130.319794 C 192.210144 127.720947 202.659348 123.015594 217.691971 120.153412 C 251.926178 113.63913 288.071777 128.242676 343.17511 151.998383 C 365.331543 161.550446 386.132477 169.395874 405.899658 174.276703 L 405.899658 174.276703 Z"/>
        </g>
    </g>
</svg>
