<svg fill="none" viewBox="0 0 32 32" xmlns="http://www.w3.org/2000/svg"><path d="m9.231 9.9115c-0.07424-0.02287-0.11874-0.09863-0.10255-0.17461l1.4687-6.8945c0.0162-0.07632 0.0883-0.12743 0.1657-0.11753l3.9817 0.50908c0.087 0.01113 0.146 0.09424 0.1277 0.18004l-1.6121 7.5676c-0.0183 0.0862-0.1066 0.1381-0.1908 0.1121l-3.8384-1.1822z" fill="#E93764"/><path d="m9.231 9.9115c-0.07424-0.02287-0.11874-0.09863-0.10255-0.17461l1.4687-6.8945c0.0162-0.07632 0.0883-0.12743 0.1657-0.11753l3.9817 0.50908c0.087 0.01113 0.146 0.09424 0.1277 0.18004l-1.6121 7.5676c-0.0183 0.0862-0.1066 0.1381-0.1908 0.1121l-3.8384-1.1822z" fill="url(#o)"/><path d="m9.231 9.9115c-0.07424-0.02287-0.11874-0.09863-0.10255-0.17461l1.4687-6.8945c0.0162-0.07632 0.0883-0.12743 0.1657-0.11753l3.9817 0.50908c0.087 0.01113 0.146 0.09424 0.1277 0.18004l-1.6121 7.5676c-0.0183 0.0862-0.1066 0.1381-0.1908 0.1121l-3.8384-1.1822z" fill="url(#j)"/><path d="m9.231 9.9115c-0.07424-0.02287-0.11874-0.09863-0.10255-0.17461l1.4687-6.8945c0.0162-0.07632 0.0883-0.12743 0.1657-0.11753l3.9817 0.50908c0.087 0.01113 0.146 0.09424 0.1277 0.18004l-1.6121 7.5676c-0.0183 0.0862-0.1066 0.1381-0.1908 0.1121l-3.8384-1.1822z" fill="url(#f)"/><path d="m9.231 9.9115c-0.07424-0.02287-0.11874-0.09863-0.10255-0.17461l1.4687-6.8945c0.0162-0.07632 0.0883-0.12743 0.1657-0.11753l3.9817 0.50908c0.087 0.01113 0.146 0.09424 0.1277 0.18004l-1.6121 7.5676c-0.0183 0.0862-0.1066 0.1381-0.1908 0.1121l-3.8384-1.1822z" fill="url(#e)"/><path d="m9.0154 2.6652c0.01828-0.08581-0.04066-0.16892-0.12768-0.18004l-2.0999-0.26849c-0.0774-0.0099-0.14947 0.04121-0.16573 0.11754l-1.3255 6.2225c-0.01619 0.07597 0.02831 0.15174 0.10255 0.1746l2.0243 0.6235c0.0842 0.02593 0.17251-0.02594 0.19087-0.1121l1.4011-6.5775z" fill="#F9BF3D"/><path d="m9.0154 2.6652c0.01828-0.08581-0.04066-0.16892-0.12768-0.18004l-2.0999-0.26849c-0.0774-0.0099-0.14947 0.04121-0.16573 0.11754l-1.3255 6.2225c-0.01619 0.07597 0.02831 0.15174 0.10255 0.1746l2.0243 0.6235c0.0842 0.02593 0.17251-0.02594 0.19087-0.1121l1.4011-6.5775z" fill="url(#d)"/><path d="m9.0154 2.6652c0.01828-0.08581-0.04066-0.16892-0.12768-0.18004l-2.0999-0.26849c-0.0774-0.0099-0.14947 0.04121-0.16573 0.11754l-1.3255 6.2225c-0.01619 0.07597 0.02831 0.15174 0.10255 0.1746l2.0243 0.6235c0.0842 0.02593 0.17251-0.02594 0.19087-0.1121l1.4011-6.5775z" fill="url(#c)"/><g fill="#DB9057" filter="url(#q)"><path d="m5.7409 2.0828 0.74829 0.09567c0.08703 0.01113 0.14597 0.09424 0.12769 0.18005l-1.3148 6.172c-0.01836 0.08616-0.10667 0.13803-0.19087 0.1121l-0.72351-0.22285c-1.6008-0.4864-2.5712-2.1082-2.2431-3.7488 0.33448-1.6724 1.9043-2.8021 3.5963-2.5882z"/><path d="m9.1863 2.5234c-0.07741-0.0099-0.14948 0.04121-0.16574 0.11754l-1.4119 6.628c-0.01618 0.07597 0.02832 0.15174 0.10256 0.1746l1.232 0.37946c0.0842 0.02594 0.17251-0.02593 0.19086-0.1121l1.4579-6.844c0.0183-0.0858-0.0407-0.16891-0.1277-0.18004l-1.278-0.1634z"/><path d="m16.012 12-2.6544-0.8176c-0.0742-0.0229-0.1187-0.0986-0.1025-0.1746l1.6228-7.6182c0.0162-0.07632 0.0883-0.12743 0.1657-0.11754l4.2262 0.54035c5.0156 0.65625 8.2031 3.7344 8.9063 8.9375l0.5241 4.1185c0.0098 0.0768-0.0406 0.1485-0.1162 0.1653l-7.5997 1.6922c-0.0764 0.017-0.1531-0.0276-0.176-0.1025l-0.8226-2.6911c-0.669-2.0262-1.8721-3.2918-3.9737-3.9324z"/><path d="m23.439 26.677c-0.0853 0.019-0.1364 0.1067-0.1108 0.1903l0.2253 0.7371c0.46 1.5048 1.9308 2.4648 3.4934 2.2802 1.7935-0.2118 3.0714-1.8437 2.847-3.6357l-0.1041-0.8181c-0.0112-0.0876-0.0952-0.1467-0.1814-0.1275l-6.1694 1.3737z"/><path d="m22.533 24.268c0.0229 0.075 0.0996 0.1196 0.1761 0.1026l6.6203-1.4741c0.0756-0.0169 0.126-0.0885 0.1162-0.1654l-0.1628-1.2791c-0.0111-0.0877-0.0952-0.1467-0.1814-0.1275l-6.834 1.5217c-0.0853 0.019-0.1364 0.1067-0.1109 0.1903l0.3765 1.2315z"/></g><path d="m5.7409 2.0828 0.74829 0.09567c0.08703 0.01113 0.14597 0.09424 0.12769 0.18005l-1.3148 6.172c-0.01836 0.08616-0.10667 0.13803-0.19087 0.1121l-0.72351-0.22285c-1.6008-0.4864-2.5712-2.1082-2.2431-3.7488 0.33448-1.6724 1.9043-2.8021 3.5963-2.5882z" fill="url(#b)"/><path d="m5.7409 2.0828 0.74829 0.09567c0.08703 0.01113 0.14597 0.09424 0.12769 0.18005l-1.3148 6.172c-0.01836 0.08616-0.10667 0.13803-0.19087 0.1121l-0.72351-0.22285c-1.6008-0.4864-2.5712-2.1082-2.2431-3.7488 0.33448-1.6724 1.9043-2.8021 3.5963-2.5882z" fill="url(#a)"/><path d="m9.1863 2.5234c-0.07741-0.0099-0.14948 0.04121-0.16574 0.11754l-1.4119 6.628c-0.01618 0.07597 0.02832 0.15174 0.10256 0.1746l1.232 0.37946c0.0842 0.02594 0.17251-0.02593 0.19086-0.1121l1.4579-6.844c0.0183-0.0858-0.0407-0.16891-0.1277-0.18004l-1.278-0.1634z" fill="url(#b)"/><path d="m9.1863 2.5234c-0.07741-0.0099-0.14948 0.04121-0.16574 0.11754l-1.4119 6.628c-0.01618 0.07597 0.02832 0.15174 0.10256 0.1746l1.232 0.37946c0.0842 0.02594 0.17251-0.02593 0.19086-0.1121l1.4579-6.844c0.0183-0.0858-0.0407-0.16891-0.1277-0.18004l-1.278-0.1634z" fill="url(#a)"/><path d="m16.012 12-2.6544-0.8176c-0.0742-0.0229-0.1187-0.0986-0.1025-0.1746l1.6228-7.6182c0.0162-0.07632 0.0883-0.12743 0.1657-0.11754l4.2262 0.54035c5.0156 0.65625 8.2031 3.7344 8.9063 8.9375l0.5241 4.1185c0.0098 0.0768-0.0406 0.1485-0.1162 0.1653l-7.5997 1.6922c-0.0764 0.017-0.1531-0.0276-0.176-0.1025l-0.8226-2.6911c-0.669-2.0262-1.8721-3.2918-3.9737-3.9324z" fill="url(#b)"/><path d="m16.012 12-2.6544-0.8176c-0.0742-0.0229-0.1187-0.0986-0.1025-0.1746l1.6228-7.6182c0.0162-0.07632 0.0883-0.12743 0.1657-0.11754l4.2262 0.54035c5.0156 0.65625 8.2031 3.7344 8.9063 8.9375l0.5241 4.1185c0.0098 0.0768-0.0406 0.1485-0.1162 0.1653l-7.5997 1.6922c-0.0764 0.017-0.1531-0.0276-0.176-0.1025l-0.8226-2.6911c-0.669-2.0262-1.8721-3.2918-3.9737-3.9324z" fill="url(#a)"/><path d="m23.439 26.677c-0.0853 0.019-0.1364 0.1067-0.1108 0.1903l0.2253 0.7371c0.46 1.5048 1.9308 2.4648 3.4934 2.2802 1.7935-0.2118 3.0714-1.8437 2.847-3.6357l-0.1041-0.8181c-0.0112-0.0876-0.0952-0.1467-0.1814-0.1275l-6.1694 1.3737z" fill="url(#b)"/><path d="m23.439 26.677c-0.0853 0.019-0.1364 0.1067-0.1108 0.1903l0.2253 0.7371c0.46 1.5048 1.9308 2.4648 3.4934 2.2802 1.7935-0.2118 3.0714-1.8437 2.847-3.6357l-0.1041-0.8181c-0.0112-0.0876-0.0952-0.1467-0.1814-0.1275l-6.1694 1.3737z" fill="url(#a)"/><path d="m22.533 24.268c0.0229 0.075 0.0996 0.1196 0.1761 0.1026l6.6203-1.4741c0.0756-0.0169 0.126-0.0885 0.1162-0.1654l-0.1628-1.2791c-0.0111-0.0877-0.0952-0.1467-0.1814-0.1275l-6.834 1.5217c-0.0853 0.019-0.1364 0.1067-0.1109 0.1903l0.3765 1.2315z" fill="url(#b)"/><path d="m22.533 24.268c0.0229 0.075 0.0996 0.1196 0.1761 0.1026l6.6203-1.4741c0.0756-0.0169 0.126-0.0885 0.1162-0.1654l-0.1628-1.2791c-0.0111-0.0877-0.0952-0.1467-0.1814-0.1275l-6.834 1.5217c-0.0853 0.019-0.1364 0.1067-0.1109 0.1903l0.3765 1.2315z" fill="url(#a)"/><g filter="url(#p)"><path d="m20.676 5.9976-6.5891-1.4038c0.1979 0 2.6042 0 7.147 0.62255 4.3731 0.59928 5.75 4.2212 6.2546 7.2188l1.9157 14.565c0.0313 0.2375-0.1018 0.4662-0.3238 0.5564-0.3169 0.1287-0.6701-0.0725-0.7177-0.4111-0.5451-3.8732-1.4373-10.914-2.0975-14.711-0.7-4.025-4.11-6.198-5.5892-6.4376z" fill="#FBB97D"/></g><path d="m22.245 22.851c-0.0764 0.017-0.1531-0.0277-0.176-0.1026l-1.173-3.8372c-0.0255-0.0836 0.0255-0.1712 0.1109-0.1902l7.5497-1.6811c0.0862-0.0192 0.1703 0.0399 0.1814 0.1275l0.5072 3.9854c0.0098 0.0768-0.0406 0.1485-0.1162 0.1653l-6.884 1.5329z" fill="#E93764"/><path d="m22.245 22.851c-0.0764 0.017-0.1531-0.0277-0.176-0.1026l-1.173-3.8372c-0.0255-0.0836 0.0255-0.1712 0.1109-0.1902l7.5497-1.6811c0.0862-0.0192 0.1703 0.0399 0.1814 0.1275l0.5072 3.9854c0.0098 0.0768-0.0406 0.1485-0.1162 0.1653l-6.884 1.5329z" fill="url(#n)"/><path d="m22.245 22.851c-0.0764 0.017-0.1531-0.0277-0.176-0.1026l-1.173-3.8372c-0.0255-0.0836 0.0255-0.1712 0.1109-0.1902l7.5497-1.6811c0.0862-0.0192 0.1703 0.0399 0.1814 0.1275l0.5072 3.9854c0.0098 0.0768-0.0406 0.1485-0.1162 0.1653l-6.884 1.5329z" fill="url(#m)"/><path d="m22.245 22.851c-0.0764 0.017-0.1531-0.0277-0.176-0.1026l-1.173-3.8372c-0.0255-0.0836 0.0255-0.1712 0.1109-0.1902l7.5497-1.6811c0.0862-0.0192 0.1703 0.0399 0.1814 0.1275l0.5072 3.9854c0.0098 0.0768-0.0406 0.1485-0.1162 0.1653l-6.884 1.5329z" fill="url(#l)"/><path d="m22.245 22.851c-0.0764 0.017-0.1531-0.0277-0.176-0.1026l-1.173-3.8372c-0.0255-0.0836 0.0255-0.1712 0.1109-0.1902l7.5497-1.6811c0.0862-0.0192 0.1703 0.0399 0.1814 0.1275l0.5072 3.9854c0.0098 0.0768-0.0406 0.1485-0.1162 0.1653l-6.884 1.5329z" fill="url(#k)"/><path d="m23.416 26.682c-0.0764 0.017-0.1531-0.0277-0.176-0.1026l-0.6186-2.0237c-0.0256-0.0836 0.0255-0.1713 0.1108-0.1903l6.5704-1.463c0.0862-0.0192 0.1703 0.0399 0.1814 0.1275l0.2675 2.1019c0.0098 0.0768-0.0406 0.1485-0.1162 0.1653l-6.2193 1.3849z" fill="#FFC641"/><path d="m23.416 26.682c-0.0764 0.017-0.1531-0.0277-0.176-0.1026l-0.6186-2.0237c-0.0256-0.0836 0.0255-0.1713 0.1108-0.1903l6.5704-1.463c0.0862-0.0192 0.1703 0.0399 0.1814 0.1275l0.2675 2.1019c0.0098 0.0768-0.0406 0.1485-0.1162 0.1653l-6.2193 1.3849z" fill="url(#i)"/><path d="m23.416 26.682c-0.0764 0.017-0.1531-0.0277-0.176-0.1026l-0.6186-2.0237c-0.0256-0.0836 0.0255-0.1713 0.1108-0.1903l6.5704-1.463c0.0862-0.0192 0.1703 0.0399 0.1814 0.1275l0.2675 2.1019c0.0098 0.0768-0.0406 0.1485-0.1162 0.1653l-6.2193 1.3849z" fill="url(#h)"/><path d="m23.416 26.682c-0.0764 0.017-0.1531-0.0277-0.176-0.1026l-0.6186-2.0237c-0.0256-0.0836 0.0255-0.1713 0.1108-0.1903l6.5704-1.463c0.0862-0.0192 0.1703 0.0399 0.1814 0.1275l0.2675 2.1019c0.0098 0.0768-0.0406 0.1485-0.1162 0.1653l-6.2193 1.3849z" fill="url(#g)"/><defs><filter id="q" x="2.081" y="1.5569" width="28.338" height="28.35" color-interpolation-filters="sRGB" filterUnits="userSpaceOnUse"><feFlood flood-opacity="0" result="BackgroundImageFix"/><feBlend in="SourceGraphic" in2="BackgroundImageFix" result="shape"/><feColorMatrix in="SourceAlpha" result="hardAlpha" values="0 0 0 0 0 0 0 0 0 0 0 0 0 0 0 0 0 0 127 0"/><feOffset dx="0.5" dy="-0.5"/><feGaussianBlur stdDeviation="0.5"/><feComposite in2="hardAlpha" k2="-1" k3="1" operator="arithmetic"/><feColorMatrix values="0 0 0 0 0.756863 0 0 0 0 0.423529 0 0 0 0 0.388235 0 0 0 1 0"/><feBlend in2="shape" result="effect1_innerShadow_18_24135"/></filter><filter id="p" x="12.587" y="3.0938" width="18.322" height="26.002" color-interpolation-filters="sRGB" filterUnits="userSpaceOnUse"><feFlood flood-opacity="0" result="BackgroundImageFix"/><feBlend in="SourceGraphic" in2="BackgroundImageFix" result="shape"/><feGaussianBlur result="effect1_foregroundBlur_18_24135" stdDeviation="0.75"/></filter><linearGradient id="o" x1="13.941" x2="12.71" y1="3.0312" y2="5.9927" gradientUnits="userSpaceOnUse"><stop stop-color="#FC5978" offset="0"/><stop stop-color="#FC5978" stop-opacity="0" offset="1"/></linearGradient><linearGradient id="j" x1="9.4725" x2="9.9413" y1="7.9062" y2="7.9687" gradientUnits="userSpaceOnUse"><stop stop-color="#D4345F" offset=".087393"/><stop stop-color="#D4345F" stop-opacity="0" offset="1"/></linearGradient><linearGradient id="f" x1="13.66" x2="13.371" y1="9.3984" y2="9.3389" gradientUnits="userSpaceOnUse"><stop stop-color="#E12462" offset="0"/><stop stop-color="#E12462" stop-opacity="0" offset="1"/></linearGradient><linearGradient id="e" x1="11.035" x2="12" y1="10.594" y2="7.2187" gradientUnits="userSpaceOnUse"><stop stop-color="#BE397A" offset="0"/><stop stop-color="#E12462" stop-opacity="0" offset="1"/></linearGradient><linearGradient id="d" x1="6.2225" x2="6.8788" y1="9.1875" y2="6.8125" gradientUnits="userSpaceOnUse"><stop stop-color="#D48B5E" offset="0"/><stop stop-color="#D48B5E" stop-opacity="0" offset="1"/></linearGradient><radialGradient id="c" cx="0" cy="0" r="1" gradientTransform="translate(6.41 3.375) rotate(11.56) scale(4.2104 1.6776)" gradientUnits="userSpaceOnUse"><stop stop-color="#FFCD34" offset="0"/><stop stop-color="#FFCD34" stop-opacity="0" offset="1"/></radialGradient><radialGradient id="b" cx="0" cy="0" r="1" gradientTransform="translate(27.879 17.656) rotate(167.98) scale(6.4539 3.6672)" gradientUnits="userSpaceOnUse"><stop stop-color="#D88B59" offset=".50142"/><stop stop-color="#D88B59" stop-opacity="0" offset="1"/></radialGradient><radialGradient id="a" cx="0" cy="0" r="1" gradientTransform="translate(14.941 3.5626) rotate(103.55) scale(7.2005 2.9582)" gradientUnits="userSpaceOnUse"><stop stop-color="#D88B59" offset=".34687"/><stop stop-color="#D88B59" stop-opacity="0" offset="1"/></radialGradient><linearGradient id="n" x1="29.246" x2="27.348" y1="20.531" y2="20.75" gradientUnits="userSpaceOnUse"><stop stop-color="#FC5978" offset="0"/><stop stop-color="#FC5978" stop-opacity="0" offset="1"/></linearGradient><linearGradient id="m" x1="21.66" x2="24.504" y1="21.969" y2="21.281" gradientUnits="userSpaceOnUse"><stop stop-color="#D4345F" offset=".087393"/><stop stop-color="#D4345F" stop-opacity="0" offset="1"/></linearGradient><linearGradient id="l" x1="27.137" x2="27.09" y1="21.773" y2="21.562" gradientUnits="userSpaceOnUse"><stop stop-color="#E12462" offset="0"/><stop stop-color="#E12462" stop-opacity="0" offset="1"/></linearGradient><linearGradient id="k" x1="26.722" x2="26.816" y1="17.406" y2="17.781" gradientUnits="userSpaceOnUse"><stop stop-color="#E12462" offset="0"/><stop stop-color="#E12462" stop-opacity="0" offset="1"/></linearGradient><linearGradient id="i" x1="29.752" x2="27.191" y1="24.531" y2="24.792" gradientUnits="userSpaceOnUse"><stop stop-color="#FFE85A" offset="0"/><stop stop-color="#FFE85A" stop-opacity="0" offset="1"/></linearGradient><linearGradient id="h" x1="23.16" x2="27.191" y1="26.469" y2="25.406" gradientUnits="userSpaceOnUse"><stop stop-color="#E5A64C" offset="0"/><stop stop-color="#E5A64C" stop-opacity="0" offset="1"/></linearGradient><linearGradient id="g" x1="27.441" x2="27.316" y1="25.953" y2="25.406" gradientUnits="userSpaceOnUse"><stop stop-color="#FFB242" offset="0"/><stop stop-color="#FFB242" stop-opacity="0" offset="1"/></linearGradient></defs></svg>
