<svg fill="none" viewBox="0 0 32 32" xmlns="http://www.w3.org/2000/svg"><g filter="url(#ab)"><path d="m7.6875 25.453-3.625-7.6562 9.2031-3.7032 0.683 5.856c0.0293 0.2513 0.2422 0.4409 0.4953 0.4409 0.2765 0 0.5002-0.2249 0.4987-0.5014l-0.0364-6.6392c-0.0572-2.0209 0.2469-6.5657 1.9219-8.5782 2.7031-2.8537 9.1797-2.7443 10.352-2.5255 0.6875 0.17969 2.4765 0.52341 2.4141 1.5234-0.0626 1-1.3438 1.0859-4.8282 1.625-2.9687 0.54688-4.1797 0.79688-5.0547 2.0938-0.7 1.0375-0.8567 2.7625-0.8515 3.549 0.0573 3.1823 0.1718 10.009 0.1718 11.859 0 2.3125-0.0859 5.9979-4.5546 7.0291-3.575 0.825-6.0391-2.5916-6.7891-4.3729z" fill="url(#u)"/><path d="m7.6875 25.453-3.625-7.6562 9.2031-3.7032 0.683 5.856c0.0293 0.2513 0.2422 0.4409 0.4953 0.4409 0.2765 0 0.5002-0.2249 0.4987-0.5014l-0.0364-6.6392c-0.0572-2.0209 0.2469-6.5657 1.9219-8.5782 2.7031-2.8537 9.1797-2.7443 10.352-2.5255 0.6875 0.17969 2.4765 0.52341 2.4141 1.5234-0.0626 1-1.3438 1.0859-4.8282 1.625-2.9687 0.54688-4.1797 0.79688-5.0547 2.0938-0.7 1.0375-0.8567 2.7625-0.8515 3.549 0.0573 3.1823 0.1718 10.009 0.1718 11.859 0 2.3125-0.0859 5.9979-4.5546 7.0291-3.575 0.825-6.0391-2.5916-6.7891-4.3729z" fill="url(#j)"/></g><g filter="url(#aa)"><circle cx="15.07" cy="11.272" r="1.0859" fill="url(#h)"/><circle cx="15.07" cy="11.272" r="1.0859" fill="url(#g)"/><circle cx="15.07" cy="11.272" r="1.0859" fill="url(#f)"/></g><g filter="url(#z)"><circle cx="15.305" cy="7.8027" r="1.0859" fill="url(#e)"/><circle cx="15.305" cy="7.8027" r="1.0859" fill="url(#d)"/><circle cx="15.305" cy="7.8027" r="1.0859" fill="url(#c)"/></g><g filter="url(#y)"><circle cx="16.633" cy="4.9824" r="1.0859" fill="url(#b)"/><circle cx="16.633" cy="4.9824" r="1.0859" fill="url(#a)"/><circle cx="16.633" cy="4.9824" r="1.0859" fill="url(#t)"/></g><path d="m23.215 5.5917c0.4567-0.09427 0.97-0.18985 1.5505-0.29678 0.3424-0.05298 0.6636-0.10159 0.9644-0.14713 2.76-0.41766 3.8074-0.57614 3.8637-1.4779 0.057-0.91129-1.4237-1.2776-2.2072-1.4714-0.0762-0.01886-0.1459-0.0361-0.2069-0.05203-0.5515-0.10296-2.2782-0.18167-4.2336 0.06137 0.0702 0.71344 0.1761 1.9268 0.2691 3.3838z" fill="#C3B9CC"/><path d="m23.215 5.5917c0.4567-0.09427 0.97-0.18985 1.5505-0.29678 0.3424-0.05298 0.6636-0.10159 0.9644-0.14713 2.76-0.41766 3.8074-0.57614 3.8637-1.4779 0.057-0.91129-1.4237-1.2776-2.2072-1.4714-0.0762-0.01886-0.1459-0.0361-0.2069-0.05203-0.5515-0.10296-2.2782-0.18167-4.2336 0.06137 0.0702 0.71344 0.1761 1.9268 0.2691 3.3838z" fill="url(#s)"/><path d="m23.215 5.5917c0.4567-0.09427 0.97-0.18985 1.5505-0.29678 0.3424-0.05298 0.6636-0.10159 0.9644-0.14713 2.76-0.41766 3.8074-0.57614 3.8637-1.4779 0.057-0.91129-1.4237-1.2776-2.2072-1.4714-0.0762-0.01886-0.1459-0.0361-0.2069-0.05203-0.5515-0.10296-2.2782-0.18167-4.2336 0.06137 0.0702 0.71344 0.1761 1.9268 0.2691 3.3838z" fill="url(#r)"/><path d="m24.425 5.3578c0.1108-0.02056 0.2242-0.04147 0.3403-0.06286 0.3424-0.05298 0.6636-0.10159 0.9644-0.14713 2.76-0.41766 3.8073-0.57614 3.8637-1.4779 0.0625-0.99999-1.5234-1.4062-2.4141-1.5234-0.4332-0.08087-1.5915-0.14679-3.0161-0.05356 0.068 0.69001 0.1703 1.8577 0.2618 3.2648z" fill="url(#q)"/><path d="m24.425 5.3578c0.1108-0.02056 0.2242-0.04147 0.3403-0.06286 0.3424-0.05298 0.6636-0.10159 0.9644-0.14713 2.76-0.41766 3.8073-0.57614 3.8637-1.4779 0.0625-0.99999-1.5234-1.4062-2.4141-1.5234-0.4332-0.08087-1.5915-0.14679-3.0161-0.05356 0.068 0.69001 0.1703 1.8577 0.2618 3.2648z" fill="url(#p)"/><g filter="url(#x)"><path d="m12.875 25.022-4.5938-8.75 4.375-1.875 1.125 7.0937-0.9062 3.5313z" fill="url(#o)"/></g><g filter="url(#w)"><path d="m2.0971 17.459c-0.25932-0.7171 0.11179-1.5087 0.8289-1.768l9.5602-3.4573c0.7172-0.2593 1.5087 0.1118 1.768 0.8289 0.2594 0.7172-0.1117 1.5087-0.8288 1.768l-9.5603 3.4573c-0.71711 0.2593-1.5087-0.1118-1.768-0.8289z" fill="url(#n)"/><path d="m2.0971 17.459c-0.25932-0.7171 0.11179-1.5087 0.8289-1.768l9.5602-3.4573c0.7172-0.2593 1.5087 0.1118 1.768 0.8289 0.2594 0.7172-0.1117 1.5087-0.8288 1.768l-9.5603 3.4573c-0.71711 0.2593-1.5087-0.1118-1.768-0.8289z" fill="url(#m)"/><path d="m2.0971 17.459c-0.25932-0.7171 0.11179-1.5087 0.8289-1.768l9.5602-3.4573c0.7172-0.2593 1.5087 0.1118 1.768 0.8289 0.2594 0.7172-0.1117 1.5087-0.8288 1.768l-9.5603 3.4573c-0.71711 0.2593-1.5087-0.1118-1.768-0.8289z" fill="url(#l)"/><path d="m2.0971 17.459c-0.25932-0.7171 0.11179-1.5087 0.8289-1.768l9.5602-3.4573c0.7172-0.2593 1.5087 0.1118 1.768 0.8289 0.2594 0.7172-0.1117 1.5087-0.8288 1.768l-9.5603 3.4573c-0.71711 0.2593-1.5087-0.1118-1.768-0.8289z" fill="url(#k)"/></g><g filter="url(#v)"><path d="m17.562 7.584c0.8-2.9 3.5-3.7292 4.75-3.7812v0.5625c-2.125 0.3125-3.6563 1.4375-4.0313 3.5938-0.75 3.75 0 8.2187 0 12.781 0 3.65-0.7083 5.5-1.0624 5.9688l-1.2188-2.9063c0.2604-0.3437 0.8063-1.3125 0.9063-2.4375 0.125-1.4062-0.3438-10.156 0.6562-13.781z" fill="url(#i)"/></g><defs><filter id="ab" x="4.0625" y="1.5474" width="26.183" height="28.405" color-interpolation-filters="sRGB" filterUnits="userSpaceOnUse"><feFlood flood-opacity="0" result="BackgroundImageFix"/><feBlend in="SourceGraphic" in2="BackgroundImageFix" result="shape"/><feColorMatrix in="SourceAlpha" result="hardAlpha" values="0 0 0 0 0 0 0 0 0 0 0 0 0 0 0 0 0 0 127 0"/><feOffset dx="0.5" dy="-0.5"/><feGaussianBlur stdDeviation="1"/><feComposite in2="hardAlpha" k2="-1" k3="1" operator="arithmetic"/><feColorMatrix values="0 0 0 0 0.807843 0 0 0 0 0.498039 0 0 0 0 0.439216 0 0 0 1 0"/><feBlend in2="shape" result="effect1_innerShadow_18_18496"/><feColorMatrix in="SourceAlpha" result="hardAlpha" values="0 0 0 0 0 0 0 0 0 0 0 0 0 0 0 0 0 0 127 0"/><feOffset dx="0.65"/><feGaussianBlur stdDeviation="0.45"/><feComposite in2="hardAlpha" k2="-1" k3="1" operator="arithmetic"/><feColorMatrix values="0 0 0 0 0.866667 0 0 0 0 0.741176 0 0 0 0 0.541176 0 0 0 1 0"/><feBlend in2="effect1_innerShadow_18_18496" result="effect2_innerShadow_18_18496"/></filter><filter id="aa" x="13.984" y="10.186" width="2.1719" height="2.1719" color-interpolation-filters="sRGB" filterUnits="userSpaceOnUse"><feFlood flood-opacity="0" result="BackgroundImageFix"/><feBlend in="SourceGraphic" in2="BackgroundImageFix" result="shape"/><feColorMatrix in="SourceAlpha" result="hardAlpha" values="0 0 0 0 0 0 0 0 0 0 0 0 0 0 0 0 0 0 127 0"/><feOffset/><feGaussianBlur stdDeviation="0.15"/><feComposite in2="hardAlpha" k2="-1" k3="1" operator="arithmetic"/><feColorMatrix values="0 0 0 0 0.713726 0 0 0 0 0.65098 0 0 0 0 0.639216 0 0 0 1 0"/><feBlend in2="shape" result="effect1_innerShadow_18_18496"/></filter><filter id="z" x="14.219" y="6.7168" width="2.1719" height="2.1719" color-interpolation-filters="sRGB" filterUnits="userSpaceOnUse"><feFlood flood-opacity="0" result="BackgroundImageFix"/><feBlend in="SourceGraphic" in2="BackgroundImageFix" result="shape"/><feColorMatrix in="SourceAlpha" result="hardAlpha" values="0 0 0 0 0 0 0 0 0 0 0 0 0 0 0 0 0 0 127 0"/><feOffset/><feGaussianBlur stdDeviation="0.15"/><feComposite in2="hardAlpha" k2="-1" k3="1" operator="arithmetic"/><feColorMatrix values="0 0 0 0 0.713726 0 0 0 0 0.65098 0 0 0 0 0.639216 0 0 0 1 0"/><feBlend in2="shape" result="effect1_innerShadow_18_18496"/></filter><filter id="y" x="15.547" y="3.8965" width="2.1719" height="2.1719" color-interpolation-filters="sRGB" filterUnits="userSpaceOnUse"><feFlood flood-opacity="0" result="BackgroundImageFix"/><feBlend in="SourceGraphic" in2="BackgroundImageFix" result="shape"/><feColorMatrix in="SourceAlpha" result="hardAlpha" values="0 0 0 0 0 0 0 0 0 0 0 0 0 0 0 0 0 0 127 0"/><feOffset/><feGaussianBlur stdDeviation="0.15"/><feComposite in2="hardAlpha" k2="-1" k3="1" operator="arithmetic"/><feColorMatrix values="0 0 0 0 0.713726 0 0 0 0 0.65098 0 0 0 0 0.639216 0 0 0 1 0"/><feBlend in2="shape" result="effect1_innerShadow_18_18496"/></filter><filter id="x" x="6.2812" y="12.396" width="9.5" height="14.625" color-interpolation-filters="sRGB" filterUnits="userSpaceOnUse"><feFlood flood-opacity="0" result="BackgroundImageFix"/><feBlend in="SourceGraphic" in2="BackgroundImageFix" result="shape"/><feGaussianBlur result="effect1_foregroundBlur_18_18496" stdDeviation="1"/></filter><filter id="w" x="1.8144" y="12.151" width="12.522" height="6.4195" color-interpolation-filters="sRGB" filterUnits="userSpaceOnUse"><feFlood flood-opacity="0" result="BackgroundImageFix"/><feBlend in="SourceGraphic" in2="BackgroundImageFix" result="shape"/><feColorMatrix in="SourceAlpha" result="hardAlpha" values="0 0 0 0 0 0 0 0 0 0 0 0 0 0 0 0 0 0 127 0"/><feOffset dx="-0.2" dy="0.2"/><feGaussianBlur stdDeviation="0.3"/><feComposite in2="hardAlpha" k2="-1" k3="1" operator="arithmetic"/><feColorMatrix values="0 0 0 0 0.811765 0 0 0 0 0.72549 0 0 0 0 0.223529 0 0 0 1 0"/><feBlend in2="shape" result="effect1_innerShadow_18_18496"/></filter><filter id="v" x="14.5" y="2.3027" width="9.3125" height="25.906" color-interpolation-filters="sRGB" filterUnits="userSpaceOnUse"><feFlood flood-opacity="0" result="BackgroundImageFix"/><feBlend in="SourceGraphic" in2="BackgroundImageFix" result="shape"/><feGaussianBlur result="effect1_foregroundBlur_18_18496" stdDeviation="0.75"/></filter><linearGradient id="u" x1="10.938" x2="24.812" y1="25.709" y2="6.8965" gradientUnits="userSpaceOnUse"><stop stop-color="#D59F41" offset="0"/><stop stop-color="#D8A534" offset="1"/></linearGradient><radialGradient id="j" cx="0" cy="0" r="1" gradientTransform="translate(14.812 13.584) rotate(85.537) scale(12.852 6.0976)" gradientUnits="userSpaceOnUse"><stop stop-color="#DFA61B" offset="0"/><stop stop-color="#DFA61B" stop-opacity=".89591" offset=".76249"/><stop stop-color="#DFA61B" stop-opacity="0" offset="1"/></radialGradient><radialGradient id="h" cx="0" cy="0" r="1" gradientTransform="translate(15.07 12.225) rotate(-76.833) scale(1.7491 2.0851)" gradientUnits="userSpaceOnUse"><stop stop-color="#BCA6BE" offset="0"/><stop stop-color="#B8ACBB" offset="1"/></radialGradient><radialGradient id="g" cx="0" cy="0" r="1" gradientTransform="translate(15.609 11.522) rotate(200.73) scale(1.8544 1.5453)" gradientUnits="userSpaceOnUse"><stop stop-color="#CFC9CC" stop-opacity="0" offset=".71864"/><stop stop-color="#CFC9CC" offset="1"/></radialGradient><radialGradient id="f" cx="0" cy="0" r="1" gradientTransform="translate(15.812 10.975) rotate(160.62) scale(.89445 .95095)" gradientUnits="userSpaceOnUse"><stop stop-color="#D3C9D5" offset=".11978"/><stop stop-color="#BCAEC1" stop-opacity="0" offset="1"/></radialGradient><radialGradient id="e" cx="0" cy="0" r="1" gradientTransform="translate(15.305 8.7559) rotate(-76.833) scale(1.7491 2.0851)" gradientUnits="userSpaceOnUse"><stop stop-color="#BCA6BE" offset="0"/><stop stop-color="#B8ACBB" offset="1"/></radialGradient><radialGradient id="d" cx="0" cy="0" r="1" gradientTransform="translate(15.844 8.0527) rotate(200.73) scale(1.8544 1.5453)" gradientUnits="userSpaceOnUse"><stop stop-color="#CFC9CC" stop-opacity="0" offset=".71864"/><stop stop-color="#CFC9CC" offset="1"/></radialGradient><radialGradient id="c" cx="0" cy="0" r="1" gradientTransform="translate(16.047 7.5059) rotate(160.62) scale(.89445 .95095)" gradientUnits="userSpaceOnUse"><stop stop-color="#D3C9D5" offset=".11978"/><stop stop-color="#BCAEC1" stop-opacity="0" offset="1"/></radialGradient><radialGradient id="b" cx="0" cy="0" r="1" gradientTransform="translate(16.633 5.9356) rotate(-76.833) scale(1.7491 2.0851)" gradientUnits="userSpaceOnUse"><stop stop-color="#BCA6BE" offset="0"/><stop stop-color="#B8ACBB" offset="1"/></radialGradient><radialGradient id="a" cx="0" cy="0" r="1" gradientTransform="translate(17.172 5.2324) rotate(200.73) scale(1.8544 1.5453)" gradientUnits="userSpaceOnUse"><stop stop-color="#CFC9CC" stop-opacity="0" offset=".71864"/><stop stop-color="#CFC9CC" offset="1"/></radialGradient><radialGradient id="t" cx="0" cy="0" r="1" gradientTransform="translate(17.375 4.6856) rotate(160.62) scale(.89445 .95095)" gradientUnits="userSpaceOnUse"><stop stop-color="#D3C9D5" offset=".11978"/><stop stop-color="#BCAEC1" stop-opacity="0" offset="1"/></radialGradient><linearGradient id="s" x1="24.078" x2="23.891" y1="5.5059" y2="3.8195" gradientUnits="userSpaceOnUse"><stop stop-color="#AD90C5" offset="0"/><stop stop-color="#AD90C5" stop-opacity="0" offset="1"/></linearGradient><linearGradient id="r" x1="23.531" x2="23.594" y1="2.0474" y2="2.8184" gradientUnits="userSpaceOnUse"><stop stop-color="#BBB7BD" offset="0"/><stop stop-color="#BBB7BD" stop-opacity="0" offset="1"/></linearGradient><linearGradient id="q" x1="29.312" x2="24.164" y1="4.1153" y2="4.4903" gradientUnits="userSpaceOnUse"><stop stop-color="#4A4351" offset="0"/><stop stop-color="#412856" offset="1"/></linearGradient><radialGradient id="p" cx="0" cy="0" r="1" gradientTransform="translate(29.595 3.1778) rotate(178.08) scale(6.5366 .84438)" gradientUnits="userSpaceOnUse"><stop stop-color="#5E5864" offset="0"/><stop stop-color="#5E5864" stop-opacity="0" offset="1"/></radialGradient><linearGradient id="o" x1="9.75" x2="18.091" y1="12.022" y2="25.769" gradientUnits="userSpaceOnUse"><stop stop-color="#FDCD6B" offset="0"/><stop stop-color="#FDCD6B" stop-opacity="0" offset="1"/></linearGradient><linearGradient id="n" x1="12.313" x2="3.0626" y1="12.522" y2="19.146" gradientUnits="userSpaceOnUse"><stop stop-color="#DBC733" offset="0"/><stop stop-color="#C4A147" offset="1"/></linearGradient><radialGradient id="m" cx="0" cy="0" r="1" gradientTransform="translate(11.25 14.146) rotate(160.81) scale(5.2281 1.3167)" gradientUnits="userSpaceOnUse"><stop stop-color="#F0DD6A" offset="0"/><stop stop-color="#DAC537" stop-opacity="0" offset="1"/></radialGradient><radialGradient id="l" cx="0" cy="0" r="1" gradientTransform="translate(8.6876 17.209) rotate(185.37) scale(7.3448 8.9405)" gradientUnits="userSpaceOnUse"><stop stop-color="#E8D99D" stop-opacity="0" offset=".79325"/><stop stop-color="#E8D99D" offset=".95496"/></radialGradient><radialGradient id="k" cx="0" cy="0" r="1" gradientTransform="translate(2.0144 16.115) rotate(-20.793) scale(5.6338 1.4058)" gradientUnits="userSpaceOnUse"><stop stop-color="#E6D597" offset="0"/><stop stop-color="#C8AE3D" stop-opacity="0" offset="1"/></radialGradient><linearGradient id="i" x1="16" x2="21.312" y1="30.959" y2="3.084" gradientUnits="userSpaceOnUse"><stop stop-color="#FDCD6B" offset="0"/><stop stop-color="#FDCD6B" stop-opacity="0" offset="1"/></linearGradient></defs></svg>
