<svg fill="none" viewBox="0 0 32 32" xmlns="http://www.w3.org/2000/svg"><path d="m21.174 18.895c4.6103 0 8.3477-3.7374 8.3477-8.3477 0-4.6104-3.7374-8.3478-8.3477-8.3478s-8.3477 3.7374-8.3477 8.3478c0 4.6103 3.7374 8.3477 8.3477 8.3477z" fill="url(#r)"/><path d="m21.174 18.895c4.6103 0 8.3477-3.7374 8.3477-8.3477 0-4.6104-3.7374-8.3478-8.3477-8.3478s-8.3477 3.7374-8.3477 8.3478c0 4.6103 3.7374 8.3477 8.3477 8.3477z" fill="url(#i)"/><g filter="url(#v)"><path d="m21.174 17.841c4.028 0 7.2933-3.2653 7.2933-7.2933 0-4.0279-3.2653-7.2932-7.2933-7.2932-4.0279 0-7.2932 3.2653-7.2932 7.2932 0 4.028 3.2653 7.2933 7.2932 7.2933z" fill="url(#h)"/><path d="m21.174 17.841c4.028 0 7.2933-3.2653 7.2933-7.2933 0-4.0279-3.2653-7.2932-7.2933-7.2932-4.0279 0-7.2932 3.2653-7.2932 7.2932 0 4.028 3.2653 7.2933 7.2932 7.2933z" fill="url(#g)"/></g><g filter="url(#u)"><path d="m21.174 17.525c3.8535 0 6.9774-3.1239 6.9774-6.9774s-3.1239-6.9774-6.9774-6.9774c-3.8536 0-6.9774 3.1239-6.9774 6.9774s3.1238 6.9774 6.9774 6.9774z" fill="url(#f)"/><path d="m21.174 17.525c3.8535 0 6.9774-3.1239 6.9774-6.9774s-3.1239-6.9774-6.9774-6.9774c-3.8536 0-6.9774 3.1239-6.9774 6.9774s3.1238 6.9774 6.9774 6.9774z" fill="url(#e)"/></g><path d="m6.2091 19.595c2.4985 0 4.5239-2.0254 4.5239-4.5239s-2.0254-4.5239-4.5239-4.5239c-2.4985 0-4.5239 2.0254-4.5239 4.5239s2.0254 4.5239 4.5239 4.5239z" fill="url(#d)"/><path d="m6.2091 19.595c2.4985 0 4.5239-2.0254 4.5239-4.5239s-2.0254-4.5239-4.5239-4.5239c-2.4985 0-4.5239 2.0254-4.5239 4.5239s2.0254 4.5239 4.5239 4.5239z" fill="url(#c)"/><path d="m14.376 30.232c3.2201 0 5.8306-2.6104 5.8306-5.8305 0-3.2202-2.6105-5.8306-5.8306-5.8306s-5.8306 2.6104-5.8306 5.8306c0 3.2201 2.6105 5.8305 5.8306 5.8305z" fill="url(#b)"/><path d="m14.376 30.232c3.2201 0 5.8306-2.6104 5.8306-5.8305 0-3.2202-2.6105-5.8306-5.8306-5.8306s-5.8306 2.6104-5.8306 5.8306c0 3.2201 2.6105 5.8305 5.8306 5.8305z" fill="url(#a)"/><path d="m14.376 30.232c3.2201 0 5.8306-2.6104 5.8306-5.8305 0-3.2202-2.6105-5.8306-5.8306-5.8306s-5.8306 2.6104-5.8306 5.8306c0 3.2201 2.6105 5.8305 5.8306 5.8305z" fill="url(#q)"/><path d="m23.119 11.553c2.2043 0 3.9912-1.787 3.9912-3.9913 0-2.2043-1.7869-3.9913-3.9912-3.9913-2.2044 0-3.9913 1.787-3.9913 3.9913 0 2.2043 1.7869 3.9913 3.9913 3.9913z" fill="url(#p)"/><g filter="url(#t)"><path d="m14.376 29.027c2.5547 0 4.6257-2.071 4.6257-4.6257s-2.071-4.6256-4.6257-4.6256c-2.5546 0-4.6256 2.0709-4.6256 4.6256s2.071 4.6257 4.6256 4.6257z" fill="url(#o)"/><path d="m14.376 29.027c2.5547 0 4.6257-2.071 4.6257-4.6257s-2.071-4.6256-4.6257-4.6256c-2.5546 0-4.6256 2.0709-4.6256 4.6256s2.071 4.6257 4.6256 4.6257z" fill="url(#n)"/></g><g filter="url(#s)"><path d="m6.2091 18.59c1.9434 0 3.5188-1.5754 3.5188-3.5187 0-1.9434-1.5754-3.5188-3.5188-3.5188-1.9434 0-3.5188 1.5754-3.5188 3.5188 0 1.9433 1.5754 3.5187 3.5188 3.5187z" fill="url(#m)"/><path d="m6.2091 18.59c1.9434 0 3.5188-1.5754 3.5188-3.5187 0-1.9434-1.5754-3.5188-3.5188-3.5188-1.9434 0-3.5188 1.5754-3.5188 3.5188 0 1.9433 1.5754 3.5187 3.5188 3.5187z" fill="url(#l)"/></g><path d="m7.263 15.616c1.1946 0 2.163-0.9684 2.163-2.163s-0.96841-2.163-2.163-2.163c-1.1946 0-2.163 0.9684-2.163 2.163s0.96841 2.163 2.163 2.163z" fill="url(#k)"/><path d="m15.734 25.104c1.5397 0 2.7878-1.2481 2.7878-2.7878 0-1.5396-1.2481-2.7877-2.7878-2.7877-1.5396 0-2.7877 1.2481-2.7877 2.7877 0 1.5397 1.2481 2.7878 2.7877 2.7878z" fill="url(#j)"/><defs><filter id="v" x="11.881" y="1.2544" width="18.586" height="18.586" color-interpolation-filters="sRGB" filterUnits="userSpaceOnUse"><feFlood flood-opacity="0" result="BackgroundImageFix"/><feBlend in="SourceGraphic" in2="BackgroundImageFix" result="shape"/><feGaussianBlur result="effect1_foregroundBlur_4793_1042" stdDeviation="1"/></filter><filter id="u" x="12.197" y="1.5703" width="17.955" height="17.955" color-interpolation-filters="sRGB" filterUnits="userSpaceOnUse"><feFlood flood-opacity="0" result="BackgroundImageFix"/><feBlend in="SourceGraphic" in2="BackgroundImageFix" result="shape"/><feGaussianBlur result="effect1_foregroundBlur_4793_1042" stdDeviation="1"/></filter><filter id="t" x="8.0005" y="18.026" width="12.751" height="12.751" color-interpolation-filters="sRGB" filterUnits="userSpaceOnUse"><feFlood flood-opacity="0" result="BackgroundImageFix"/><feBlend in="SourceGraphic" in2="BackgroundImageFix" result="shape"/><feGaussianBlur result="effect1_foregroundBlur_4793_1042" stdDeviation="0.875"/></filter><filter id="s" x="1.4403" y="10.303" width="9.5375" height="9.5375" color-interpolation-filters="sRGB" filterUnits="userSpaceOnUse"><feFlood flood-opacity="0" result="BackgroundImageFix"/><feBlend in="SourceGraphic" in2="BackgroundImageFix" result="shape"/><feGaussianBlur result="effect1_foregroundBlur_4793_1042" stdDeviation="0.625"/></filter><linearGradient id="r" x1="14.988" x2="28.8" y1="3.9768" y2="14.601" gradientUnits="userSpaceOnUse"><stop stop-color="#55EBFF" offset="0"/><stop stop-color="#83C9F0" offset=".06069"/><stop stop-color="#AFA8E1" offset=".11479"/><stop stop-color="#CA5BC0" offset=".21846"/><stop stop-color="#CA5BC0" offset=".53255"/><stop stop-color="#FF99A9" offset=".6944"/><stop stop-color="#FADF9E" offset="1"/></linearGradient><radialGradient id="i" cx="0" cy="0" r="1" gradientTransform="translate(25.818 3.6683) rotate(114.8) scale(4.9835 12.443)" gradientUnits="userSpaceOnUse"><stop stop-color="#FF9CEA" offset="0"/><stop stop-color="#FF9CEA" stop-opacity="0" offset="1"/></radialGradient><radialGradient id="h" cx="0" cy="0" r="1" gradientTransform="translate(17.48 16.059) rotate(-45) scale(11.132 8.4987)" gradientUnits="userSpaceOnUse"><stop stop-color="#D893FF" offset=".41524"/><stop stop-color="#E8EEFE" offset="1"/></radialGradient><radialGradient id="g" cx="0" cy="0" r="1" gradientTransform="translate(24.813 12.852) rotate(221.39) scale(11.599 13.374)" gradientUnits="userSpaceOnUse"><stop stop-color="#9FD2F5" stop-opacity="0" offset=".72322"/><stop stop-color="#9FD2F5" offset="1"/></radialGradient><radialGradient id="f" cx="0" cy="0" r="1" gradientTransform="translate(17.64 15.821) rotate(-45) scale(10.65 8.1307)" gradientUnits="userSpaceOnUse"><stop stop-color="#D893FF" offset=".41524"/><stop stop-color="#E8EEFE" offset="1"/></radialGradient><radialGradient id="e" cx="0" cy="0" r="1" gradientTransform="translate(24.655 12.753) rotate(221.39) scale(11.096 12.795)" gradientUnits="userSpaceOnUse"><stop stop-color="#9FD2F5" stop-opacity="0" offset=".72322"/><stop stop-color="#9FD2F5" offset="1"/></radialGradient><linearGradient id="d" x1="2.8568" x2="10.342" y1="11.51" y2="17.268" gradientUnits="userSpaceOnUse"><stop stop-color="#55EBFF" offset="0"/><stop stop-color="#83C9F0" offset=".06069"/><stop stop-color="#AFA8E1" offset=".11479"/><stop stop-color="#CA5BC0" offset=".21846"/><stop stop-color="#CA5BC0" offset=".53255"/><stop stop-color="#FF99A9" offset=".6944"/><stop stop-color="#FADF9E" offset="1"/></linearGradient><radialGradient id="c" cx="0" cy="0" r="1" gradientTransform="translate(8.7258 11.343) rotate(114.8) scale(2.7007 6.7434)" gradientUnits="userSpaceOnUse"><stop stop-color="#FF9CEA" offset="0"/><stop stop-color="#FF9CEA" stop-opacity="0" offset="1"/></radialGradient><linearGradient id="b" x1="10.056" x2="19.702" y1="19.812" y2="27.232" gradientUnits="userSpaceOnUse"><stop stop-color="#55EBFF" offset="0"/><stop stop-color="#83C9F0" offset=".06069"/><stop stop-color="#AFA8E1" offset=".11479"/><stop stop-color="#CA5BC0" offset=".21846"/><stop stop-color="#CA5BC0" offset=".53255"/><stop stop-color="#FF99A9" offset=".6944"/><stop stop-color="#FADF9E" offset="1"/></linearGradient><radialGradient id="a" cx="0" cy="0" r="1" gradientTransform="translate(17.62 19.596) rotate(114.8) scale(3.4808 8.6911)" gradientUnits="userSpaceOnUse"><stop stop-color="#FF9CEA" offset="0"/><stop stop-color="#FF9CEA" stop-opacity="0" offset="1"/></radialGradient><radialGradient id="q" cx="0" cy="0" r="1" gradientTransform="translate(16.016 17.651) rotate(106.03) scale(3.1022 6.3775)" gradientUnits="userSpaceOnUse"><stop stop-color="#A876BA" offset=".15362"/><stop stop-color="#A876BA" stop-opacity="0" offset="1"/></radialGradient><radialGradient id="p" cx="0" cy="0" r="1" gradientTransform="translate(20.507 9.4887) rotate(-52.892) scale(6.4675 9.574)" gradientUnits="userSpaceOnUse"><stop stop-color="#FFFFF0" stop-opacity="0" offset=".43474"/><stop stop-color="#fff" offset="1"/></radialGradient><radialGradient id="o" cx="0" cy="0" r="1" gradientTransform="translate(12.033 27.897) rotate(-45) scale(7.0601 5.3902)" gradientUnits="userSpaceOnUse"><stop stop-color="#D893FF" offset=".41524"/><stop stop-color="#E8EEFE" offset="1"/></radialGradient><radialGradient id="n" cx="0" cy="0" r="1" gradientTransform="translate(16.684 25.863) rotate(221.39) scale(7.3562 8.4822)" gradientUnits="userSpaceOnUse"><stop stop-color="#9FD2F5" stop-opacity="0" offset=".72322"/><stop stop-color="#9FD2F5" offset="1"/></radialGradient><radialGradient id="m" cx="0" cy="0" r="1" gradientTransform="translate(4.4265 17.731) rotate(-45) scale(5.3706 4.1004)" gradientUnits="userSpaceOnUse"><stop stop-color="#D893FF" offset=".41524"/><stop stop-color="#E8EEFE" offset="1"/></radialGradient><radialGradient id="l" cx="0" cy="0" r="1" gradientTransform="translate(7.9645 16.184) rotate(221.39) scale(5.5959 6.4525)" gradientUnits="userSpaceOnUse"><stop stop-color="#9FD2F5" stop-opacity="0" offset=".72322"/><stop stop-color="#9FD2F5" offset="1"/></radialGradient><radialGradient id="k" cx="0" cy="0" r="1" gradientTransform="translate(5.8474 14.498) rotate(-52.892) scale(3.505 5.1885)" gradientUnits="userSpaceOnUse"><stop stop-color="#FFFFF0" stop-opacity="0" offset=".43474"/><stop stop-color="#fff" offset="1"/></radialGradient><radialGradient id="j" cx="0" cy="0" r="1" gradientTransform="translate(13.91 23.662) rotate(-52.892) scale(4.5173 6.6871)" gradientUnits="userSpaceOnUse"><stop stop-color="#FFFFF0" stop-opacity="0" offset=".43474"/><stop stop-color="#fff" offset="1"/></radialGradient></defs></svg>
