<svg fill="none" viewBox="0 0 32 32" xmlns="http://www.w3.org/2000/svg"><path d="m23.744 12.255-7.17 6.84 10.29 10.8c3.96-3.77 4.11-10.05 0.34-14.01l-3.46-3.63z" fill="url(#v)"/><path d="m23.744 12.255-7.17 6.84 10.29 10.8c3.96-3.77 4.11-10.05 0.34-14.01l-3.46-3.63z" fill="url(#k)"/><path d="m23.744 12.255-7.17 6.84 10.29 10.8c3.96-3.77 4.11-10.05 0.34-14.01l-3.46-3.63z" fill="url(#h)"/><path d="m23.744 12.255-7.17 6.84 10.29 10.8c3.96-3.77 4.11-10.05 0.34-14.01l-3.46-3.63z" fill="url(#g)"/><path d="m23.744 12.255-7.17 6.84 10.29 10.8c3.96-3.77 4.11-10.05 0.34-14.01l-3.46-3.63z" fill="url(#f)"/><path d="m22.933 14.174-5.79 5.51 8.3 8.71c3.2-3.05 3.32-8.11 0.27-11.3l-2.78-2.92z" fill="url(#e)"/><g filter="url(#w)"><path d="m12.743 9.1944-4 3.81c-3.92 3.74-4.07 9.9499-0.34001 13.87 1.86 1.95 4.43 3.0501 7.12 3.0401l11.34-0.02-3.9-4.09c-1.55-1.62-1.48-4.19 0.14-5.74 3.01-2.86 3.12-7.62 0.26-10.63-2.85-2.99-7.61-3.1-10.62-0.24002z" fill="url(#d)"/><path d="m12.743 9.1944-4 3.81c-3.92 3.74-4.07 9.9499-0.34001 13.87 1.86 1.95 4.43 3.0501 7.12 3.0401l11.34-0.02-3.9-4.09c-1.55-1.62-1.48-4.19 0.14-5.74 3.01-2.86 3.12-7.62 0.26-10.63-2.85-2.99-7.61-3.1-10.62-0.24002z" fill="url(#c)"/><path d="m12.743 9.1944-4 3.81c-3.92 3.74-4.07 9.9499-0.34001 13.87 1.86 1.95 4.43 3.0501 7.12 3.0401l11.34-0.02-3.9-4.09c-1.55-1.62-1.48-4.19 0.14-5.74 3.01-2.86 3.12-7.62 0.26-10.63-2.85-2.99-7.61-3.1-10.62-0.24002z" fill="url(#b)"/></g><path d="m12.743 9.1944-4 3.81c-3.92 3.74-4.07 9.9499-0.34001 13.87 1.86 1.95 4.43 3.0501 7.12 3.0401l11.34-0.02-3.9-4.09c-1.55-1.62-1.48-4.19 0.14-5.74 3.01-2.86 3.12-7.62 0.26-10.63-2.85-2.99-7.61-3.1-10.62-0.24002z" fill="url(#a)"/><path d="m12.743 9.1944-4 3.81c-3.92 3.74-4.07 9.9499-0.34001 13.87 1.86 1.95 4.43 3.0501 7.12 3.0401l11.34-0.02-3.9-4.09c-1.55-1.62-1.48-4.19 0.14-5.74 3.01-2.86 3.12-7.62 0.26-10.63-2.85-2.99-7.61-3.1-10.62-0.24002z" fill="url(#u)"/><path d="m12.743 9.1944-4 3.81c-3.92 3.74-4.07 9.9499-0.34001 13.87 1.86 1.95 4.43 3.0501 7.12 3.0401l11.34-0.02-3.9-4.09c-1.55-1.62-1.48-4.19 0.14-5.74 3.01-2.86 3.12-7.62 0.26-10.63-2.85-2.99-7.61-3.1-10.62-0.24002z" fill="url(#t)"/><path d="m4.6534 8.1244c1.3476 0 2.44-1.0924 2.44-2.44 0-1.3476-1.0924-2.44-2.44-2.44-1.3476 0-2.44 1.0924-2.44 2.44 0 1.3476 1.0924 2.44 2.44 2.44z" fill="url(#s)"/><path d="m4.6534 8.1244c1.3476 0 2.44-1.0924 2.44-2.44 0-1.3476-1.0924-2.44-2.44-2.44-1.3476 0-2.44 1.0924-2.44 2.44 0 1.3476 1.0924 2.44 2.44 2.44z" fill="url(#r)"/><path d="m4.6534 8.1244c1.3476 0 2.44-1.0924 2.44-2.44 0-1.3476-1.0924-2.44-2.44-2.44-1.3476 0-2.44 1.0924-2.44 2.44 0 1.3476 1.0924 2.44 2.44 2.44z" fill="url(#q)"/><path d="m6.7733 3.6144-4.08 3.88c-0.89 0.85-0.93001 2.26-0.08001 3.15l1.763 1.823 7.3-6.96-1.763-1.823c-0.84-0.88-2.25-0.92001-3.14-0.07001z" fill="url(#p)"/><path d="m6.7733 3.6144-4.08 3.88c-0.89 0.85-0.93001 2.26-0.08001 3.15l1.763 1.823 7.3-6.96-1.763-1.823c-0.84-0.88-2.25-0.92001-3.14-0.07001z" fill="url(#o)"/><path d="m6.7733 3.6144-4.08 3.88c-0.89 0.85-0.93001 2.26-0.08001 3.15l1.763 1.823 7.3-6.96-1.763-1.823c-0.84-0.88-2.25-0.92001-3.14-0.07001z" fill="url(#n)"/><path d="m6.7733 3.6144-4.08 3.88c-0.89 0.85-0.93001 2.26-0.08001 3.15l1.763 1.823 7.3-6.96-1.763-1.823c-0.84-0.88-2.25-0.92001-3.14-0.07001z" fill="url(#m)"/><path d="m10.613 5.3244-6.4 6.1c-1.4 1.33-1.45 3.55-0.12001 4.95l1.79 1.88 11.257-11.083-1.5873-1.7175c-1.33-1.41-3.55-1.47-4.94-0.13001z" fill="url(#l)"/><path d="m10.613 5.3244-6.4 6.1c-1.4 1.33-1.45 3.55-0.12001 4.95l1.79 1.88 11.257-11.083-1.5873-1.7175c-1.33-1.41-3.55-1.47-4.94-0.13001z" fill="url(#j)"/><path d="m10.613 5.3244-6.4 6.1c-1.4 1.33-1.45 3.55-0.12001 4.95l1.79 1.88 11.257-11.083-1.5873-1.7175c-1.33-1.41-3.55-1.47-4.94-0.13001z" fill="url(#i)"/><defs><filter id="w" x="5.7017" y="7.1186" width="21.162" height="23.046" color-interpolation-filters="sRGB" filterUnits="userSpaceOnUse"><feFlood flood-opacity="0" result="BackgroundImageFix"/><feBlend in="SourceGraphic" in2="BackgroundImageFix" result="shape"/><feColorMatrix in="SourceAlpha" result="hardAlpha" values="0 0 0 0 0 0 0 0 0 0 0 0 0 0 0 0 0 0 127 0"/><feOffset dy="0.25"/><feGaussianBlur stdDeviation="0.125"/><feComposite in2="hardAlpha" k2="-1" k3="1" operator="arithmetic"/><feColorMatrix values="0 0 0 0 0.780392 0 0 0 0 0.760784 0 0 0 0 0.831373 0 0 0 1 0"/><feBlend in2="shape" result="effect1_innerShadow_28327_6169"/></filter><linearGradient id="v" x1="27.106" x2="28.106" y1="19.043" y2="29.895" gradientUnits="userSpaceOnUse"><stop stop-color="#C8C8CE" offset=".0055866"/><stop stop-color="#BDB3CF" offset="1"/></linearGradient><linearGradient id="k" x1="26.012" x2="29.23" y1="14.887" y2="17.168" gradientUnits="userSpaceOnUse"><stop stop-color="#C8C8CE" offset="0"/><stop stop-color="#C8C8CE" stop-opacity="0" offset="1"/></linearGradient><radialGradient id="h" cx="0" cy="0" r="1" gradientTransform="translate(25.496 28.074) rotate(25.959) scale(1.3208 3.1589)" gradientUnits="userSpaceOnUse"><stop stop-color="#A29FAF" offset="0"/><stop stop-color="#A29FAF" stop-opacity="0" offset=".91197"/></radialGradient><radialGradient id="g" cx="0" cy="0" r="1" gradientTransform="translate(26.219 29.203) rotate(-44.174) scale(1.1492 5.6547)" gradientUnits="userSpaceOnUse"><stop stop-color="#C3BED0" offset="0"/><stop stop-color="#C3BED0" stop-opacity="0" offset=".25302"/></radialGradient><radialGradient id="f" cx="0" cy="0" r="1" gradientTransform="translate(23.906 22.062) rotate(2.7006) scale(6.6324 10.268)" gradientUnits="userSpaceOnUse"><stop stop-color="#CAC4D9" stop-opacity="0" offset=".84047"/><stop stop-color="#CAC4D9" offset="1"/></radialGradient><radialGradient id="e" cx="0" cy="0" r="1" gradientTransform="translate(21.719 22.562) rotate(-1.3639) scale(5.2515 6.0678)" gradientUnits="userSpaceOnUse"><stop stop-color="#3E3763" offset="0"/><stop stop-color="#271F4B" offset="1"/></radialGradient><linearGradient id="d" x1="12.75" x2="29.5" y1="18.062" y2="34.875" gradientUnits="userSpaceOnUse"><stop stop-color="#C2C2C9" offset="0"/><stop stop-color="#B196D3" offset="1"/></linearGradient><radialGradient id="c" cx="0" cy="0" r="1" gradientTransform="translate(20 32.125) rotate(215.3) scale(17.52 11.185)" gradientUnits="userSpaceOnUse"><stop stop-color="#A382C8" offset="0"/><stop stop-color="#A382C8" stop-opacity="0" offset="1"/></radialGradient><radialGradient id="b" cx="0" cy="0" r="1" gradientTransform="translate(22 31.5) rotate(206.04) scale(12.243 5.2086)" gradientUnits="userSpaceOnUse"><stop stop-color="#9D7BC2" offset="0"/><stop stop-color="#9D7BC2" stop-opacity="0" offset="1"/></radialGradient><linearGradient id="a" x1="10.25" x2="13.062" y1="13" y2="15.812" gradientUnits="userSpaceOnUse"><stop stop-color="#B6B1C2" offset="0"/><stop stop-color="#B6B1C2" stop-opacity="0" offset="1"/></linearGradient><radialGradient id="u" cx="0" cy="0" r="1" gradientTransform="translate(23.75 13.625) rotate(156.45) scale(10.636 8.0863)" gradientUnits="userSpaceOnUse"><stop stop-color="#E3E1EB" offset="0"/><stop stop-color="#E3E1EB" stop-opacity="0" offset="1"/></radialGradient><radialGradient id="t" cx="0" cy="0" r="1" gradientTransform="translate(3.5 21.375) rotate(6.6929) scale(12.87 11.948)" gradientUnits="userSpaceOnUse"><stop stop-color="#ACA7B8" offset="0"/><stop stop-color="#ACA7B8" stop-opacity="0" offset="1"/></radialGradient><radialGradient id="s" cx="0" cy="0" r="1" gradientTransform="translate(5.6875 4.875) rotate(178.7) scale(2.7507 2.747)" gradientUnits="userSpaceOnUse"><stop stop-color="#E2E0EA" offset=".0055866"/><stop stop-color="#ACAAB4" offset="1"/></radialGradient><linearGradient id="r" x1="5.2344" x2="4.5312" y1="5.8984" y2="5.1094" gradientUnits="userSpaceOnUse"><stop stop-color="#B2B2B9" offset="0"/><stop stop-color="#B2B2B9" stop-opacity="0" offset="1"/></linearGradient><radialGradient id="q" cx="0" cy="0" r="1" gradientTransform="translate(4.6534 5.6844) rotate(227.39) scale(2.6497 3.5426)" gradientUnits="userSpaceOnUse"><stop stop-color="#A3A3A8" stop-opacity="0" offset=".71028"/><stop stop-color="#95959A" offset=".95374"/></radialGradient><linearGradient id="p" x1="7.1219" x2="4.9522" y1="7.9203" y2="5.7209" gradientUnits="userSpaceOnUse"><stop stop-color="#C7C7CE" offset="0"/><stop stop-color="#A6A5AF" offset="1"/></linearGradient><radialGradient id="o" cx="0" cy="0" r="1" gradientTransform="translate(9.5312 4.5) rotate(138.43) scale(4.4274 1.7563)" gradientUnits="userSpaceOnUse"><stop stop-color="#E2E1E9" offset="0"/><stop stop-color="#E2E1E9" stop-opacity="0" offset="1"/></radialGradient><radialGradient id="n" cx="0" cy="0" r="1" gradientTransform="translate(5.5625 12) rotate(-58.851) scale(6.6456 6.7495)" gradientUnits="userSpaceOnUse"><stop stop-color="#B4A8C7" offset="0"/><stop stop-color="#B4A8C7" stop-opacity="0" offset="1"/></radialGradient><linearGradient id="m" x1="7.5" x2="6.5625" y1="9.1562" y2="8.1875" gradientUnits="userSpaceOnUse"><stop stop-color="#B1ADBC" offset="0"/><stop stop-color="#B1ADBC" stop-opacity="0" offset="1"/></linearGradient><linearGradient id="l" x1="10.545" x2="7.3601" y1="11.58" y2="8.3943" gradientUnits="userSpaceOnUse"><stop stop-color="#C7C7CE" offset="0"/><stop stop-color="#A6A5AF" offset="1"/></linearGradient><radialGradient id="j" cx="0" cy="0" r="1" gradientTransform="translate(15.125 7.75) rotate(135.86) scale(5.9227 4.1525)" gradientUnits="userSpaceOnUse"><stop stop-color="#E2E1E9" offset="0"/><stop stop-color="#E2E1E9" stop-opacity="0" offset="1"/></radialGradient><radialGradient id="i" cx="0" cy="0" r="1" gradientTransform="translate(7.625 16.5) rotate(-45) scale(10.341 10.504)" gradientUnits="userSpaceOnUse"><stop stop-color="#B4A8C7" offset="0"/><stop stop-color="#B4A8C7" stop-opacity="0" offset="1"/></radialGradient></defs></svg>
