<svg fill="none" viewBox="0 0 32 32" xmlns="http://www.w3.org/2000/svg"><rect x="3.9688" y="5" width="24" height="22" rx="4" fill="url(#am)"/><rect x="3.9688" y="5" width="24" height="22" rx="4" fill="url(#ab)"/><rect x="3.9688" y="5" width="24" height="22" rx="4" fill="url(#q)"/><rect x="3.9688" y="5" width="24" height="22" rx="4" fill="url(#g)"/><rect x="3.9688" y="5" width="24" height="22" rx="4" fill="url(#f)"/><rect x="3.9688" y="5" width="24" height="22" rx="4" fill="url(#e)"/><rect x="3.9688" y="5" width="24" height="22" rx="4" fill="url(#d)"/><rect x="3.9688" y="5" width="24" height="22" rx="4" fill="url(#c)"/><rect x="3.9688" y="5" width="24" height="22" rx="4" fill="url(#b)"/><rect x="3.9688" y="5" width="24" height="22" rx="4" fill="url(#a)"/><g filter="url(#ax)"><path d="m24.688 10.319h2.2187v12.047c0 0.6127-0.4966 1.1094-1.1093 1.1094s-1.1094-0.4967-1.1094-1.1094v-12.047z" fill="url(#al)" fill-opacity=".75"/></g><g filter="url(#av)"><path d="m26.219 21.475-6.7466-13.959c-0.4185-0.86582 0.2566-1.8601 1.2157-1.7907l2.3378 0.16929c2.5097 0.18174 4.3827 2.3862 4.1568 4.8923l-0.9637 10.688z" fill="#D89475"/></g><path d="m24.031 21.844c0-4.475-4.3124-5.875-8-5.875-4.125 0-8.0624 1.5624-8.0624 5.875 0 3.9499 4.3124 7.3437 8.0624 7.3437 4.5 0 8-4.6563 8-7.3437z" fill="url(#ak)"/><path d="m24.031 21.844c0-4.475-4.3124-5.875-8-5.875-4.125 0-8.0624 1.5624-8.0624 5.875 0 3.9499 4.3124 7.3437 8.0624 7.3437 4.5 0 8-4.6563 8-7.3437z" fill="url(#aj)"/><path d="m24.031 21.844c0-4.475-4.3124-5.875-8-5.875-4.125 0-8.0624 1.5624-8.0624 5.875 0 3.9499 4.3124 7.3437 8.0624 7.3437 4.5 0 8-4.6563 8-7.3437z" fill="url(#ai)"/><g filter="url(#au)"><path d="m12.961 24.656 3.0079-2.25 3.0078 2.25v2.3438c0 1.6569-1.351 3-3.0078 3-1.6569 0-3.0079-1.3431-3.0079-3v-2.3438z" fill="url(#ah)"/></g><g filter="url(#at)"><path d="m15.594 22.406v7.4219c2.5669-0.125 3.2187-2.2656 3.2187-3.0937v-2.2656c-1.8905-0.375-2.9335-1.5313-3.2187-2.0626z" fill="url(#ag)"/></g><g filter="url(#as)"><path d="m16.623 22.896-0.6543-0.4895-0.6685 0.5001c-0.3943 0.9827-1.2162 1.167-1.937 1.3148v0.8893c0.9594-0.0926 2.0207-0.4526 2.6005-1.5886 0.5819 1.1399 1.6484 1.499 2.6104 1.5896v-0.8883c-0.7257-0.1454-1.5567-0.3334-1.9511-1.3274z" fill="#BD1836"/></g><path d="m12.5 23.984c-0.2761 0-0.5 0.2238-0.5 0.5 0 0.2761 0.2239 0.5 0.5 0.5v-1zm3.9688-3.4688c0-0.2761-0.2239-0.5-0.5-0.5-0.2762 0-0.5 0.2239-0.5 0.5h1zm-3.9688 4.4688c1.7085 0 3.9688-1.4848 3.9688-4.4688h-1c0 2.391-1.771 3.4688-2.9688 3.4688v1z" fill="url(#af)"/><path d="m12.5 23.984c-0.2761 0-0.5 0.2238-0.5 0.5 0 0.2761 0.2239 0.5 0.5 0.5v-1zm3.9688-3.4688c0-0.2761-0.2239-0.5-0.5-0.5-0.2762 0-0.5 0.2239-0.5 0.5h1zm-3.9688 4.4688c1.7085 0 3.9688-1.4848 3.9688-4.4688h-1c0 2.391-1.771 3.4688-2.9688 3.4688v1z" fill="url(#ae)"/><path d="m19.426 24.484c-1.4531 0-3.4688-1.2813-3.4688-3.9688" stroke="url(#ad)" stroke-linecap="round"/><path d="m19.426 24.484c-1.4531 0-3.4688-1.2813-3.4688-3.9688" stroke="url(#ac)" stroke-linecap="round"/><path d="m16.474 20.516c0-0.2761-0.2238-0.5-0.5-0.5l-0.0057 1e-4 -0.0057-1e-4c-0.2761 0-0.5 0.2239-0.5 0.5 0 0.0824 0.0018 0.1637 0.0051 0.2438-0.1157 2.2206-1.8061 3.225-2.9624 3.225-0.2762 0-0.5 0.2238-0.5 0.5 0 0.2761 0.2238 0.5 0.5 0.5 1.2109 0 2.699-0.7459 3.463-2.2427 0.7641 1.4968 2.2522 2.2427 3.4631 2.2427 0.2761 0 0.5-0.2239 0.5-0.5 0-0.2762-0.2239-0.5-0.5-0.5-1.1563 0-2.8468-1.0044-2.9625-3.225 0.0034-0.0801 0.0051-0.1614 0.0051-0.2438z" fill="url(#aa)"/><path d="m4.3947 16.362 7.3-10.295c0.5869-0.82777-0.0049-1.973-1.0197-1.973h-4.05c-2.4853 0-4.5 2.0147-4.5 4.5v7.045c0 1.2182 1.565 1.7168 2.2697 0.723z" fill="url(#z)"/><path d="m4.3947 16.362 7.3-10.295c0.5869-0.82777-0.0049-1.973-1.0197-1.973h-4.05c-2.4853 0-4.5 2.0147-4.5 4.5v7.045c0 1.2182 1.565 1.7168 2.2697 0.723z" fill="url(#y)"/><path d="m4.3947 16.362 7.3-10.295c0.5869-0.82777-0.0049-1.973-1.0197-1.973h-4.05c-2.4853 0-4.5 2.0147-4.5 4.5v7.045c0 1.2182 1.565 1.7168 2.2697 0.723z" fill="url(#x)"/><path d="m4.3947 16.362 7.3-10.295c0.5869-0.82777-0.0049-1.973-1.0197-1.973h-4.05c-2.4853 0-4.5 2.0147-4.5 4.5v7.045c0 1.2182 1.565 1.7168 2.2697 0.723z" fill="url(#w)"/><path d="m4.3947 16.362 7.3-10.295c0.5869-0.82777-0.0049-1.973-1.0197-1.973h-4.05c-2.4853 0-4.5 2.0147-4.5 4.5v7.045c0 1.2182 1.565 1.7168 2.2697 0.723z" fill="url(#v)"/><path d="m27.512 16.362-7.3-10.295c-0.587-0.82777 0.0049-1.973 1.0196-1.973h4.05c2.4853 0 4.5 2.0147 4.5 4.5v7.045c0 1.2182-1.5649 1.7168-2.2696 0.723z" fill="url(#u)"/><path d="m27.512 16.362-7.3-10.295c-0.587-0.82777 0.0049-1.973 1.0196-1.973h4.05c2.4853 0 4.5 2.0147 4.5 4.5v7.045c0 1.2182-1.5649 1.7168-2.2696 0.723z" fill="url(#t)"/><path d="m27.512 16.362-7.3-10.295c-0.587-0.82777 0.0049-1.973 1.0196-1.973h4.05c2.4853 0 4.5 2.0147 4.5 4.5v7.045c0 1.2182-1.5649 1.7168-2.2696 0.723z" fill="url(#s)"/><path d="m27.512 16.362-7.3-10.295c-0.587-0.82777 0.0049-1.973 1.0196-1.973h4.05c2.4853 0 4.5 2.0147 4.5 4.5v7.045c0 1.2182-1.5649 1.7168-2.2696 0.723z" fill="url(#r)"/><g filter="url(#ar)"><rect x="11.762" y="12.228" width="1.477" height="2.9772" rx=".73848" fill="#DC9868"/></g><rect x="12.227" y="12.01" width="1.477" height="2.9772" rx=".73848" fill="url(#p)"/><rect x="12.227" y="12.01" width="1.477" height="2.9772" rx=".73848" fill="url(#o)"/><g filter="url(#aq)"><path d="m13.221 12.463v1.5932" stroke="#725F62" stroke-linecap="round" stroke-width=".2"/></g><rect x="18.211" y="12.01" width="1.477" height="2.9772" rx=".73848" fill="url(#n)"/><rect x="18.211" y="12.01" width="1.477" height="2.9772" rx=".73848" fill="url(#m)"/><g filter="url(#ap)"><path d="m19.205 12.463v1.5932" stroke="#725F62" stroke-linecap="round" stroke-width=".2"/></g><path d="m16.97 16.998h-1.9067c-0.6768 0-1.0478 0.7882-0.6165 1.3098l0.6748 0.816c0.4941 0.5974 1.4166 0.5765 1.8831-0.0426l0.6042-0.8018c0.3972-0.5271 0.0211-1.2814-0.6389-1.2814z" fill="url(#l)"/><path d="m16.97 16.998h-1.9067c-0.6768 0-1.0478 0.7882-0.6165 1.3098l0.6748 0.816c0.4941 0.5974 1.4166 0.5765 1.8831-0.0426l0.6042-0.8018c0.3972-0.5271 0.0211-1.2814-0.6389-1.2814z" fill="url(#k)"/><path d="m16.97 16.998h-1.9067c-0.6768 0-1.0478 0.7882-0.6165 1.3098l0.6748 0.816c0.4941 0.5974 1.4166 0.5765 1.8831-0.0426l0.6042-0.8018c0.3972-0.5271 0.0211-1.2814-0.6389-1.2814z" fill="url(#j)"/><g filter="url(#ao)"><ellipse transform="rotate(-41.998 17.112 17.647)" cx="17.112" cy="17.647" rx=".21595" ry=".37038" fill="#786366"/></g><g filter="url(#an)"><path d="m28.875 7.2874v8.25" stroke="url(#i)" stroke-width=".2"/></g><g filter="url(#aw)"><path d="m11.281 5.4748-3.5781 5.1562" stroke="url(#h)" stroke-width=".2"/></g><defs><filter id="ax" x="22.188" y="7.8186" width="7.2188" height="18.156" color-interpolation-filters="sRGB" filterUnits="userSpaceOnUse"><feFlood flood-opacity="0" result="BackgroundImageFix"/><feBlend in="SourceGraphic" in2="BackgroundImageFix" result="shape"/><feGaussianBlur result="effect1_foregroundBlur_28327_1654" stdDeviation="1.25"/></filter><filter id="av" x="17.346" y="3.7214" width="11.855" height="19.753" color-interpolation-filters="sRGB" filterUnits="userSpaceOnUse"><feFlood flood-opacity="0" result="BackgroundImageFix"/><feBlend in="SourceGraphic" in2="BackgroundImageFix" result="shape"/><feGaussianBlur result="effect1_foregroundBlur_28327_1654" stdDeviation="1"/></filter><filter id="au" x="12.961" y="21.906" width="6.0156" height="8.0938" color-interpolation-filters="sRGB" filterUnits="userSpaceOnUse"><feFlood flood-opacity="0" result="BackgroundImageFix"/><feBlend in="SourceGraphic" in2="BackgroundImageFix" result="shape"/><feColorMatrix in="SourceAlpha" result="hardAlpha" values="0 0 0 0 0 0 0 0 0 0 0 0 0 0 0 0 0 0 127 0"/><feOffset dy="-0.5"/><feGaussianBlur stdDeviation="0.25"/><feComposite in2="hardAlpha" k2="-1" k3="1" operator="arithmetic"/><feColorMatrix values="0 0 0 0 0.841667 0 0 0 0 0.164826 0 0 0 0 0.552771 0 0 0 1 0"/><feBlend in2="shape" result="effect1_innerShadow_28327_1654"/></filter><filter id="at" x="15.194" y="22.006" width="4.0188" height="8.2219" color-interpolation-filters="sRGB" filterUnits="userSpaceOnUse"><feFlood flood-opacity="0" result="BackgroundImageFix"/><feBlend in="SourceGraphic" in2="BackgroundImageFix" result="shape"/><feGaussianBlur result="effect1_foregroundBlur_28327_1654" stdDeviation="0.2"/></filter><filter id="as" x="12.863" y="21.906" width="6.2109" height="3.7051" color-interpolation-filters="sRGB" filterUnits="userSpaceOnUse"><feFlood flood-opacity="0" result="BackgroundImageFix"/><feBlend in="SourceGraphic" in2="BackgroundImageFix" result="shape"/><feGaussianBlur result="effect1_foregroundBlur_28327_1654" stdDeviation="0.25"/></filter><filter id="ar" x="10.962" y="11.428" width="3.0769" height="4.577" color-interpolation-filters="sRGB" filterUnits="userSpaceOnUse"><feFlood flood-opacity="0" result="BackgroundImageFix"/><feBlend in="SourceGraphic" in2="BackgroundImageFix" result="shape"/><feGaussianBlur result="effect1_foregroundBlur_28327_1654" stdDeviation="0.4"/></filter><filter id="aq" x="12.821" y="12.063" width=".79995" height="2.3935" color-interpolation-filters="sRGB" filterUnits="userSpaceOnUse"><feFlood flood-opacity="0" result="BackgroundImageFix"/><feBlend in="SourceGraphic" in2="BackgroundImageFix" result="shape"/><feGaussianBlur result="effect1_foregroundBlur_28327_1654" stdDeviation="0.15"/></filter><filter id="ap" x="18.805" y="12.063" width=".79995" height="2.3935" color-interpolation-filters="sRGB" filterUnits="userSpaceOnUse"><feFlood flood-opacity="0" result="BackgroundImageFix"/><feBlend in="SourceGraphic" in2="BackgroundImageFix" result="shape"/><feGaussianBlur result="effect1_foregroundBlur_28327_1654" stdDeviation="0.15"/></filter><filter id="ao" x="16.317" y="16.836" width="1.5906" height="1.6218" color-interpolation-filters="sRGB" filterUnits="userSpaceOnUse"><feFlood flood-opacity="0" result="BackgroundImageFix"/><feBlend in="SourceGraphic" in2="BackgroundImageFix" result="shape"/><feGaussianBlur result="effect1_foregroundBlur_28327_1654" stdDeviation="0.25"/></filter><filter id="an" x="28.025" y="6.5374" width="1.7" height="9.75" color-interpolation-filters="sRGB" filterUnits="userSpaceOnUse"><feFlood flood-opacity="0" result="BackgroundImageFix"/><feBlend in="SourceGraphic" in2="BackgroundImageFix" result="shape"/><feGaussianBlur result="effect1_foregroundBlur_28327_1654" stdDeviation="0.375"/></filter><filter id="aw" x="7.121" y="4.9177" width="4.7424" height="6.2705" color-interpolation-filters="sRGB" filterUnits="userSpaceOnUse"><feFlood flood-opacity="0" result="BackgroundImageFix"/><feBlend in="SourceGraphic" in2="BackgroundImageFix" result="shape"/><feGaussianBlur result="effect1_foregroundBlur_28327_1654" stdDeviation="0.25"/></filter><linearGradient id="am" x1="15.969" x2="15.969" y1="6.0374" y2="31.443" gradientUnits="userSpaceOnUse"><stop stop-color="#F7C5A1" offset="0"/><stop stop-color="#E28454" offset="1"/></linearGradient><linearGradient id="ab" x1="2.8438" x2="7.6562" y1="27" y2="27" gradientUnits="userSpaceOnUse"><stop stop-color="#BD8465" offset="0"/><stop stop-color="#BD8465" stop-opacity="0" offset="1"/></linearGradient><linearGradient id="q" x1="31.781" x2="24.156" y1="27" y2="27" gradientUnits="userSpaceOnUse"><stop stop-color="#FFC390" offset="0"/><stop stop-color="#FFC390" stop-opacity="0" offset="1"/></linearGradient><linearGradient id="g" x1="15.969" x2="15.969" y1="21.287" y2="31.475" gradientUnits="userSpaceOnUse"><stop stop-color="#89254F" stop-opacity="0" offset="0"/><stop stop-color="#98335E" offset="1"/></linearGradient><linearGradient id="f" x1="15.969" x2="15.969" y1="26.537" y2="27.319" gradientUnits="userSpaceOnUse"><stop stop-color="#E273A2" stop-opacity="0" offset="0"/><stop stop-color="#E273A2" offset="1"/></linearGradient><radialGradient id="e" cx="0" cy="0" r="1" gradientTransform="translate(2.0312 12.162) rotate(76.072) scale(8.0492 7.1934)" gradientUnits="userSpaceOnUse"><stop stop-color="#BD8465" offset="0"/><stop stop-color="#BD8465" stop-opacity="0" offset="1"/></radialGradient><radialGradient id="d" cx="0" cy="0" r="1" gradientTransform="translate(15.969 23.037) rotate(180) scale(10.812 8.2874)" gradientUnits="userSpaceOnUse"><stop stop-color="#AD5C30" offset="0"/><stop stop-color="#AD5C30" stop-opacity="0" offset="1"/></radialGradient><radialGradient id="c" cx="0" cy="0" r="1" gradientTransform="translate(14.844 24.662) rotate(87.745) scale(7.9436 6.9459)" gradientUnits="userSpaceOnUse"><stop stop-color="#AD5C30" offset="0"/><stop stop-color="#AD5C30" stop-opacity="0" offset="1"/></radialGradient><radialGradient id="b" cx="0" cy="0" r="1" gradientTransform="translate(12.469 5) rotate(70.748) scale(8.1942 18.816)" gradientUnits="userSpaceOnUse"><stop stop-color="#FFD6B3" offset="0"/><stop stop-color="#FFC390" stop-opacity="0" offset="1"/></radialGradient><linearGradient id="a" x1="15.171" x2="15.171" y1="3.7334" y2="6.415" gradientUnits="userSpaceOnUse"><stop stop-color="#FFE0C6" offset="0"/><stop stop-color="#FFC390" stop-opacity="0" offset="1"/></linearGradient><linearGradient id="al" x1="27.375" x2="27.775" y1="21.723" y2="4.7448" gradientUnits="userSpaceOnUse"><stop stop-color="#FFC390" offset="0"/><stop stop-color="#FFC390" stop-opacity="0" offset="1"/></linearGradient><radialGradient id="ak" cx="0" cy="0" r="1" gradientTransform="translate(16 18.537) rotate(90) scale(11.625 24.031)" gradientUnits="userSpaceOnUse"><stop stop-color="#FFE3B6" offset="0"/><stop stop-color="#F5C19B" offset=".31771"/><stop stop-color="#BE625B" offset=".89583"/></radialGradient><radialGradient id="aj" cx="0" cy="0" r="1" gradientTransform="translate(18.469 19.975) rotate(140.6) scale(13.588 13.904)" gradientUnits="userSpaceOnUse"><stop stop-color="#BE625B" stop-opacity="0" offset=".59508"/><stop stop-color="#BE625B" offset="1"/></radialGradient><radialGradient id="ai" cx="0" cy="0" r="1" gradientTransform="translate(23.094 16.975) rotate(125.78) scale(5.2384 6.835)" gradientUnits="userSpaceOnUse"><stop stop-color="#FFE9BE" offset="0"/><stop stop-color="#FFE9BE" stop-opacity="0" offset="1"/></radialGradient><linearGradient id="ah" x1="14.219" x2="14.219" y1="21.225" y2="28.412" gradientUnits="userSpaceOnUse"><stop stop-color="#B41D4E" offset="0"/><stop stop-color="#C9297C" offset="1"/></linearGradient><linearGradient id="ag" x1="20.253" x2="15.594" y1="29.594" y2="29.693" gradientUnits="userSpaceOnUse"><stop stop-color="#F26D9E" offset=".4375"/><stop stop-color="#EF6A9A" stop-opacity="0" offset=".94792"/></linearGradient><radialGradient id="af" cx="0" cy="0" r="1" gradientTransform="translate(14.234 22.756) rotate(48.013) scale(1.6817 3.8205)" gradientUnits="userSpaceOnUse"><stop stop-color="#261317" offset="0"/><stop stop-color="#65484A" offset=".65264"/><stop stop-color="#3C1534" offset="1"/></radialGradient><linearGradient id="ae" x1="12.5" x2="14.345" y1="24.256" y2="23.838" gradientUnits="userSpaceOnUse"><stop stop-color="#4A3435" offset="0"/><stop stop-color="#473132" stop-opacity="0" offset="1"/></linearGradient><radialGradient id="ad" cx="0" cy="0" r="1" gradientTransform="translate(17.836 22.592) rotate(132.56) scale(1.8136 4.3476)" gradientUnits="userSpaceOnUse"><stop stop-color="#261317" offset="0"/><stop stop-color="#65484A" offset=".50789"/><stop stop-color="#3C1534" offset=".90158"/></radialGradient><linearGradient id="ac" x1="16.156" x2="16.596" y1="19.522" y2="21.124" gradientUnits="userSpaceOnUse"><stop stop-color="#65484A" offset="0"/><stop stop-color="#65484A" stop-opacity="0" offset="1"/></linearGradient><radialGradient id="aa" cx="0" cy="0" r="1" gradientTransform="translate(14.75 21.178) rotate(134) scale(3.7792 1.8994)" gradientUnits="userSpaceOnUse"><stop stop-color="#392930" offset="0"/><stop stop-color="#392930" stop-opacity="0" offset="1"/></radialGradient><linearGradient id="z" x1="7.6094" x2="2.8125" y1="4.0938" y2="15.6" gradientUnits="userSpaceOnUse"><stop stop-color="#9F6C5B" offset="0"/><stop stop-color="#683C44" offset="1"/></linearGradient><linearGradient id="y" x1=".71875" x2="4.4062" y1="11.35" y2="11.35" gradientUnits="userSpaceOnUse"><stop stop-color="#5F333B" offset="0"/><stop stop-color="#683C44" stop-opacity="0" offset="1"/></linearGradient><linearGradient id="x" x1="7.9688" x2="6.875" y1="12.537" y2="11.694" gradientUnits="userSpaceOnUse"><stop stop-color="#5F333B" offset=".20829"/><stop stop-color="#683C44" stop-opacity="0" offset="1"/></linearGradient><linearGradient id="w" x1="3.75" x2="5.0625" y1="18.35" y2="12.662" gradientUnits="userSpaceOnUse"><stop stop-color="#50212A" offset="0"/><stop stop-color="#683C44" stop-opacity="0" offset="1"/></linearGradient><radialGradient id="v" cx="0" cy="0" r="1" gradientTransform="translate(11.219 .97494) rotate(125.22) scale(9.1038 9.646)" gradientUnits="userSpaceOnUse"><stop stop-color="#BF867C" offset="0"/><stop stop-color="#BF867C" stop-opacity="0" offset="1"/></radialGradient><linearGradient id="u" x1="24.297" x2="29.094" y1="4.0938" y2="15.6" gradientUnits="userSpaceOnUse"><stop stop-color="#9F6C5B" offset="0"/><stop stop-color="#683C44" offset="1"/></linearGradient><linearGradient id="t" x1="22.719" x2="25.969" y1="13.537" y2="11.35" gradientUnits="userSpaceOnUse"><stop stop-color="#5F333B" offset="0"/><stop stop-color="#683C44" stop-opacity="0" offset="1"/></linearGradient><linearGradient id="s" x1="28.156" x2="26.844" y1="18.35" y2="12.662" gradientUnits="userSpaceOnUse"><stop stop-color="#50212A" offset="0"/><stop stop-color="#683C44" stop-opacity="0" offset="1"/></linearGradient><radialGradient id="r" cx="0" cy="0" r="1" gradientTransform="translate(32.969 10.662) rotate(186.1) scale(6.4741 6.8597)" gradientUnits="userSpaceOnUse"><stop stop-color="#BF867C" offset="0"/><stop stop-color="#BF867C" stop-opacity="0" offset="1"/></radialGradient><linearGradient id="p" x1="14.202" x2="11.995" y1="13.498" y2="13.498" gradientUnits="userSpaceOnUse"><stop stop-color="#5F5254" offset=".0055866"/><stop stop-color="#2E2127" offset="1"/></linearGradient><linearGradient id="o" x1="11.995" x2="11.995" y1="15.092" y2="14.254" gradientUnits="userSpaceOnUse"><stop stop-color="#34222C" offset=".0055866"/><stop stop-color="#34222C" stop-opacity="0" offset="1"/></linearGradient><linearGradient id="n" x1="20.186" x2="17.98" y1="13.498" y2="13.498" gradientUnits="userSpaceOnUse"><stop stop-color="#5F5254" offset=".0055866"/><stop stop-color="#2E2127" offset="1"/></linearGradient><linearGradient id="m" x1="17.98" x2="17.98" y1="15.092" y2="14.254" gradientUnits="userSpaceOnUse"><stop stop-color="#34222C" offset=".0055866"/><stop stop-color="#34222C" stop-opacity="0" offset="1"/></linearGradient><linearGradient id="l" x1="17.406" x2="14.469" y1="16.725" y2="19.662" gradientUnits="userSpaceOnUse"><stop stop-color="#5F5254" offset=".19149"/><stop stop-color="#2E2127" offset="1"/></linearGradient><radialGradient id="k" cx="0" cy="0" r="1" gradientTransform="translate(16.344 17.631) rotate(135.86) scale(2.1989 4.0473)" gradientUnits="userSpaceOnUse"><stop stop-color="#34222C" stop-opacity="0" offset=".46265"/><stop stop-color="#34222C" offset=".95561"/></radialGradient><linearGradient id="j" x1="16.375" x2="16.375" y1="18.147" y2="16.428" gradientUnits="userSpaceOnUse"><stop stop-color="#34222C" stop-opacity="0" offset=".14655"/><stop stop-color="#34222C" offset=".87273"/></linearGradient><linearGradient id="i" x1="30.75" x2="30.75" y1="8.8811" y2="16.381" gradientUnits="userSpaceOnUse"><stop stop-color="#B3887F" offset="0"/><stop stop-color="#B3887F" stop-opacity="0" offset="1"/></linearGradient><linearGradient id="h" x1="11.266" x2="7.3906" y1="6.4592" y2="12.209" gradientUnits="userSpaceOnUse"><stop stop-color="#D3B4AE" offset="0"/><stop stop-color="#D3B4AE" stop-opacity="0" offset="1"/></linearGradient></defs></svg>
