<svg fill="none" viewBox="0 0 32 32" xmlns="http://www.w3.org/2000/svg"><path d="m2 16c0 9.29 6.27 14 14 14s14-4.74 14-14c0-9.43-6.27-14-14-14s-14 4.43-14 14z" fill="#DDB78F"/><path d="m2 16c0 9.29 6.27 14 14 14s14-4.74 14-14c0-9.43-6.27-14-14-14s-14 4.43-14 14z" fill="url(#k)"/><path d="m2 16c0 9.29 6.27 14 14 14s14-4.74 14-14c0-9.43-6.27-14-14-14s-14 4.43-14 14z" fill="url(#i)"/><path d="m2 16c0 9.29 6.27 14 14 14s14-4.74 14-14c0-9.43-6.27-14-14-14s-14 4.43-14 14z" fill="url(#h)"/><path d="m26.92 14.61 0.04-0.62c0.04-0.57-0.44-1.05-1.01-1.01l-0.61 0.04c-0.24 0.01-0.49 0.09-0.71 0.22-0.62 0.39-0.87 1.18-0.59 1.85 0.34 0.8 1.28 1.14 2.05 0.76 0.5-0.23 0.79-0.72 0.83-1.24z" fill="#6F434A"/><g filter="url(#r)"><path d="m26.734 13.875c0.0344-0.4903-0.2813-0.625-0.7188-0.625s-0.8503 0.2133-1.2031 0.4218c-0.5333 0.3355-0.817 0.7582-0.5761 1.3345 0.2924 0.6881 0.8513 0.6956 1.5136 0.3687 0.6126-0.2818 0.8301-0.9351 0.9844-1.5z" fill="url(#g)"/></g><path d="m19.89 8.32 0.62 0.04c0.57 0.04 1.05-0.44 1.01-1.01l-0.04-0.61c-0.01-0.24-0.09-0.49-0.22-0.71-0.39-0.62-1.18-0.87-1.85-0.59-0.8 0.34-1.14 1.28-0.76 2.05 0.23 0.5 0.72 0.79 1.24 0.83z" fill="#6F434A"/><g filter="url(#q)"><path d="m20 7.6883 0.4807 0.02875c0.4419 0.02875 0.814-0.31624 0.783-0.72592l-0.031-0.43842c-0.0077-0.1725-0.0698-0.35218-0.1706-0.5103-0.3023-0.44562-0.9148-0.6253-1.4343-0.42406-0.6202 0.24437-0.8838 0.91998-0.5892 1.4734 0.1783 0.35936 0.5582 0.56779 0.9614 0.59654z" fill="url(#f)"/></g><path d="m10.67 23.75-0.05 0.77c-0.05 0.71 0.54 1.3 1.25 1.25l0.76-0.05c0.3-0.02 0.6-0.11 0.88-0.28 0.77-0.48 1.08-1.46 0.73-2.3-0.42-1-1.59-1.42-2.54-0.94-0.62 0.31-0.99 0.91-1.03 1.55z" fill="#6F434A"/><g filter="url(#p)"><path d="m10.982 23.765-0.0417 0.6421c-0.0417 0.592 0.4503 1.084 1.0423 1.0423l0.6337-0.0417c0.2502-0.0166 0.5003-0.0917 0.7338-0.2334 0.6421-0.4003 0.9006-1.2175 0.6087-1.9179-0.3502-0.8339-1.3258-1.1841-2.118-0.7838-0.5169 0.2585-0.8255 0.7588-0.8588 1.2924z" fill="url(#e)"/></g><path d="m20.4 15.19 0.03-0.46c0.1-1.51-1.15-2.76-2.67-2.67l-0.45 0.03c-0.45 0.02-0.9 0.15-1.32 0.4-1.24 0.73-1.77 2.29-1.22 3.62 0.65 1.59 2.5 2.26 4.01 1.51 0.98-0.47 1.56-1.42 1.62-2.43z" fill="#6F434A"/><g filter="url(#o)"><path d="m20.024 14.984 0.0243-0.3737c0.0813-1.2266-0.9341-2.2419-2.1688-2.1688l-0.3655 0.0244c-0.3655 0.0162-0.7311 0.1218-1.0722 0.3249-1.0073 0.5929-1.4378 1.8601-0.991 2.9405 0.528 1.2915 2.0307 1.8357 3.2573 1.2265 0.796-0.3818 1.2671-1.1534 1.3159-1.9738z" fill="url(#d)"/></g><path d="m7.68 9.4199-0.03-0.42c-0.08-1.37 1.05-2.51 2.42-2.42l0.41 0.03c0.41 0.02 0.82 0.14 1.2 0.36 1.13 0.66 1.6 2.08 1.11 3.29-0.59 1.44-2.27 2.05-3.64 1.37-0.88-0.44-1.41-1.3-1.47-2.21z" fill="url(#c)"/><g filter="url(#n)"><path d="m8.1566 9.3876-0.02457-0.34401c-0.06552-1.1221 0.86003-2.0559 1.9821-1.9822l0.3358 0.02457c0.3359 0.01638 0.8325-0.01623 1.1438 0.16397 0.9255 0.54059 1.2138 1.6964 0.8124 2.6875-0.4832 1.1795-1.9234 1.8173-3.0455 1.2603-0.72079-0.3604-1.1549-1.0648-1.204-1.8102z" fill="url(#b)"/></g><path d="m24.26 22.82 0.02 0.36c0.08 1.17-0.9 2.15-2.07 2.07l-0.35-0.02c-0.35-0.02-0.7-0.12-1.03-0.31-0.97-0.57-1.37-1.78-0.95-2.81 0.51-1.23 1.94-1.76 3.12-1.17 0.76 0.36 1.21 1.09 1.26 1.88z" fill="#6F434A"/><g filter="url(#m)"><path d="m24.026 22.72 0.0168 0.3027c0.0673 0.984-0.7569 1.8082-1.7409 1.7409l-0.2943-0.0168c-0.2944-0.0168-0.5887-0.1009-0.8663-0.2607-0.8157-0.4794-1.1522-1.497-0.7989-2.3632 0.4289-1.0345 1.6315-1.4802 2.6239-0.984 0.6392 0.3027 1.0177 0.9167 1.0597 1.5811z" fill="url(#a)"/></g><path d="m5.91 17.54-0.04-0.62c-0.04-0.57 0.44-1.05 1.01-1.01l0.61 0.04c0.24 0.01 0.49 0.09 0.71 0.22 0.62 0.39 0.87 1.18 0.59 1.85-0.34 0.8-1.28 1.14-2.05 0.76-0.5-0.23-0.8-0.72-0.83-1.24z" fill="#6F434A"/><g filter="url(#l)"><path d="m6.2117 17.516-0.03182-0.4932c-0.03182-0.4535 0.35006-0.8354 0.80355-0.8036l0.48532 0.0318c0.19094 8e-3 0.38984 0.0716 0.56487 0.1751 0.49327 0.3103 0.69217 0.9388 0.4694 1.4718-0.2705 0.6365-1.0184 0.907-1.631 0.6047-0.3978-0.183-0.63648-0.5728-0.66035-0.9866z" fill="url(#j)"/></g><defs><filter id="r" x="23.65" y="12.75" width="3.5872" height="3.3346" color-interpolation-filters="sRGB" filterUnits="userSpaceOnUse"><feFlood flood-opacity="0" result="BackgroundImageFix"/><feBlend in="SourceGraphic" in2="BackgroundImageFix" result="shape"/><feGaussianBlur result="effect1_foregroundBlur_18_31720" stdDeviation="0.25"/></filter><filter id="q" x="18.418" y="5.0364" width="3.3475" height="3.1824" color-interpolation-filters="sRGB" filterUnits="userSpaceOnUse"><feFlood flood-opacity="0" result="BackgroundImageFix"/><feBlend in="SourceGraphic" in2="BackgroundImageFix" result="shape"/><feGaussianBlur result="effect1_foregroundBlur_18_31720" stdDeviation="0.25"/></filter><filter id="p" x="10.438" y="21.807" width="4.1404" height="4.1449" color-interpolation-filters="sRGB" filterUnits="userSpaceOnUse"><feFlood flood-opacity="0" result="BackgroundImageFix"/><feBlend in="SourceGraphic" in2="BackgroundImageFix" result="shape"/><feGaussianBlur result="effect1_foregroundBlur_18_31720" stdDeviation="0.25"/></filter><filter id="o" x="14.775" y="11.937" width="5.7781" height="5.7694" color-interpolation-filters="sRGB" filterUnits="userSpaceOnUse"><feFlood flood-opacity="0" result="BackgroundImageFix"/><feBlend in="SourceGraphic" in2="BackgroundImageFix" result="shape"/><feGaussianBlur result="effect1_foregroundBlur_18_31720" stdDeviation="0.25"/></filter><filter id="n" x="7.6288" y="6.5574" width="5.454" height="5.3444" color-interpolation-filters="sRGB" filterUnits="userSpaceOnUse"><feFlood flood-opacity="0" result="BackgroundImageFix"/><feBlend in="SourceGraphic" in2="BackgroundImageFix" result="shape"/><feGaussianBlur result="effect1_foregroundBlur_18_31720" stdDeviation="0.25"/></filter><filter id="m" x="19.703" y="20.436" width="4.8438" height="4.8317" color-interpolation-filters="sRGB" filterUnits="userSpaceOnUse"><feFlood flood-opacity="0" result="BackgroundImageFix"/><feBlend in="SourceGraphic" in2="BackgroundImageFix" result="shape"/><feGaussianBlur result="effect1_foregroundBlur_18_31720" stdDeviation="0.25"/></filter><filter id="l" x="5.678" y="15.717" width="3.4158" height="3.4089" color-interpolation-filters="sRGB" filterUnits="userSpaceOnUse"><feFlood flood-opacity="0" result="BackgroundImageFix"/><feBlend in="SourceGraphic" in2="BackgroundImageFix" result="shape"/><feGaussianBlur result="effect1_foregroundBlur_18_31720" stdDeviation="0.25"/></filter><radialGradient id="k" cx="0" cy="0" r="1" gradientTransform="translate(23.438 7.8125) rotate(119.55) scale(20.908)" gradientUnits="userSpaceOnUse"><stop stop-color="#FFDAAE" offset="0"/><stop stop-color="#D59077" stop-opacity="0" offset="1"/></radialGradient><radialGradient id="i" cx="0" cy="0" r="1" gradientTransform="translate(17.375 16) rotate(83.29) scale(17.117 16.27)" gradientUnits="userSpaceOnUse"><stop stop-color="#BF9E7A" stop-opacity="0" offset=".77207"/><stop stop-color="#C4A47E" offset="1"/></radialGradient><radialGradient id="h" cx="0" cy="0" r="1" gradientTransform="translate(19.375 6.5) rotate(92.681) scale(37.416)" gradientUnits="userSpaceOnUse"><stop stop-color="#E9AB8B" stop-opacity="0" offset=".32498"/><stop stop-color="#DE9A80" offset=".50503"/><stop stop-color="#D07067" offset=".65602"/></radialGradient><radialGradient id="g" cx="0" cy="0" r="1" gradientTransform="translate(26.612 13.359) rotate(140.1) scale(2.7528 2.6118)" gradientUnits="userSpaceOnUse"><stop stop-color="#886562" offset=".17544"/><stop stop-color="#8E6C67" stop-opacity="0" offset="1"/></radialGradient><radialGradient id="f" cx="0" cy="0" r="1" gradientTransform="translate(21.266 7.4104) rotate(210.1) scale(2.9004 2.7916)" gradientUnits="userSpaceOnUse"><stop stop-color="#886562" offset=".17544"/><stop stop-color="#8E6C67" stop-opacity="0" offset="1"/></radialGradient><radialGradient id="e" cx="0" cy="0" r="1" gradientTransform="translate(11.129 25.258) rotate(-41.016) scale(3.9083 4.0004)" gradientUnits="userSpaceOnUse"><stop stop-color="#896764" stop-opacity="0" offset=".46985"/><stop stop-color="#896763" offset=".93514"/></radialGradient><radialGradient id="d" cx="0" cy="0" r="1" gradientTransform="translate(15.275 16) rotate(-21.777) scale(5.5594 5.6924)" gradientUnits="userSpaceOnUse"><stop stop-color="#896764" stop-opacity="0" offset=".38827"/><stop stop-color="#896763" offset=".93514"/></radialGradient><radialGradient id="c" cx="0" cy="0" r="1" gradientTransform="translate(11.125 8.875) rotate(123.4) scale(3.6329 3.6356)" gradientUnits="userSpaceOnUse"><stop stop-color="#7D5755" offset="0"/><stop stop-color="#60383B" offset="1"/></radialGradient><radialGradient id="b" cx="0" cy="0" r="1" gradientTransform="translate(8.1288 9.5625) rotate(-3.9609) scale(4.8202 4.8238)" gradientUnits="userSpaceOnUse"><stop stop-color="#896764" stop-opacity="0" offset=".59653"/><stop stop-color="#896763" offset=".93514"/></radialGradient><radialGradient id="a" cx="0" cy="0" r="1" gradientTransform="translate(20.438 24.531) rotate(-40.886) scale(4.7742 4.8836)" gradientUnits="userSpaceOnUse"><stop stop-color="#896764" stop-opacity="0" offset=".46985"/><stop stop-color="#896763" offset=".93514"/></radialGradient><radialGradient id="j" cx="0" cy="0" r="1" gradientTransform="translate(6.3253 18.478) rotate(-40.896) scale(3.001 3.0699)" gradientUnits="userSpaceOnUse"><stop stop-color="#896764" stop-opacity="0" offset=".46985"/><stop stop-color="#896763" offset=".93514"/></radialGradient></defs></svg>
