<svg fill="none" viewBox="0 0 32 32" xmlns="http://www.w3.org/2000/svg"><path d="m26.55 18.9c1.9054 0 3.45-1.5446 3.45-3.45s-1.5446-3.45-3.45-3.45-3.45 1.5446-3.45 3.45 1.5446 3.45 3.45 3.45z" fill="url(#am)"/><g filter="url(#au)"><path d="m27.5 13c-1.38 0-2.5 1.12-2.5 2.5v1.5h1.4844l0.5156 2.02c0 0.72 0.41 1.38 1.05 1.7l0.49 0.25c0.21 0.11 0.46-0.05 0.46-0.28v-1.2c0-0.32 0.07-0.63 0.22-0.92l0.11-0.23c0.44-0.88 0.67-1.85 0.67-2.84 0-1.38-1.12-2.5-2.5-2.5z" fill="url(#ab)"/></g><path d="m27.5 13c-1.38 0-2.5 1.12-2.5 2.5v1.5h1.4844l0.5156 2.02c0 0.72 0.41 1.38 1.05 1.7l0.49 0.25c0.21 0.11 0.46-0.05 0.46-0.28v-1.2c0-0.32 0.07-0.63 0.22-0.92l0.11-0.23c0.44-0.88 0.67-1.85 0.67-2.84 0-1.38-1.12-2.5-2.5-2.5z" fill="url(#q)"/><path d="M17.06 27H14.94C14.42 27 14 26.58 14 26.06V23H18V26.06C18 26.58 17.58 27 17.06 27Z" fill="#A682AD"/><path d="M17.06 27H14.94C14.42 27 14 26.58 14 26.06V23H18V26.06C18 26.58 17.58 27 17.06 27Z" fill="url(#g)"/><path d="M17.06 27H14.94C14.42 27 14 26.58 14 26.06V23H18V26.06C18 26.58 17.58 27 17.06 27Z" fill="url(#f)"/><path d="m17.99 29h-0.7c-0.1657 0-0.3-0.1343-0.3-0.3v-1.7h-2v1.7c0 0.1657-0.1343 0.3-0.3 0.3h-1.7c-0.4992 0-0.9161 0.3708-0.9888 0.8505-0.0124 0.0819 0.0559 0.1495 0.1388 0.1495h6.85c0-0.55-0.45-1-1-1z" fill="#FFA739"/><path d="m17.99 29h-0.7c-0.1657 0-0.3-0.1343-0.3-0.3v-1.7h-2v1.7c0 0.1657-0.1343 0.3-0.3 0.3h-1.7c-0.4992 0-0.9161 0.3708-0.9888 0.8505-0.0124 0.0819 0.0559 0.1495 0.1388 0.1495h6.85c0-0.55-0.45-1-1-1z" fill="url(#e)"/><path d="m17.99 29h-0.7c-0.1657 0-0.3-0.1343-0.3-0.3v-1.7h-2v1.7c0 0.1657-0.1343 0.3-0.3 0.3h-1.7c-0.4992 0-0.9161 0.3708-0.9888 0.8505-0.0124 0.0819 0.0559 0.1495 0.1388 0.1495h6.85c0-0.55-0.45-1-1-1z" fill="url(#d)"/><path d="m17.99 29h-0.7c-0.1657 0-0.3-0.1343-0.3-0.3v-1.7h-2v1.7c0 0.1657-0.1343 0.3-0.3 0.3h-1.7c-0.4992 0-0.9161 0.3708-0.9888 0.8505-0.0124 0.0819 0.0559 0.1495 0.1388 0.1495h6.85c0-0.55-0.45-1-1-1z" fill="url(#c)"/><path d="m22 29h-0.7c-0.1657 0-0.3-0.1343-0.3-0.3v-1.7h-2v1.7c0 0.1657-0.1343 0.3-0.3 0.3h-1.7c-0.4992 0-0.9161 0.3708-0.9888 0.8505-0.0124 0.0819 0.056 0.1495 0.1388 0.1495h6.7c0.0828 0 0.1512-0.0676 0.1388-0.1495-0.0727-0.4797-0.4896-0.8505-0.9888-0.8505z" fill="#FFB244"/><path d="m22 29h-0.7c-0.1657 0-0.3-0.1343-0.3-0.3v-1.7h-2v1.7c0 0.1657-0.1343 0.3-0.3 0.3h-1.7c-0.4992 0-0.9161 0.3708-0.9888 0.8505-0.0124 0.0819 0.056 0.1495 0.1388 0.1495h6.7c0.0828 0 0.1512-0.0676 0.1388-0.1495-0.0727-0.4797-0.4896-0.8505-0.9888-0.8505z" fill="url(#b)"/><path d="m22 29h-0.7c-0.1657 0-0.3-0.1343-0.3-0.3v-1.7h-2v1.7c0 0.1657-0.1343 0.3-0.3 0.3h-1.7c-0.4992 0-0.9161 0.3708-0.9888 0.8505-0.0124 0.0819 0.056 0.1495 0.1388 0.1495h6.7c0.0828 0 0.1512-0.0676 0.1388-0.1495-0.0727-0.4797-0.4896-0.8505-0.9888-0.8505z" fill="url(#a)"/><path d="m11.47 2c-2.41 0.01-4.36 1.97-4.36 4.38 0 1.12 0.42 2.15 1.12 2.93h3.05v0.07l-0.63 0.12-2.68 4.67c-0.63 1.12-0.97 2.38-0.97 3.67 0 3.95 3.21 7.16 7.16 7.16h3.49c0.1933 0 0.35 0.1567 0.35 0.35v0.71c0 0.52 0.42 0.94 0.94 0.94h2.12c0.52 0 0.94-0.42 0.94-0.94v-0.75c0-0.1712 0.1388-0.31 0.31-0.31 2.59 0 4.69-2.1 4.69-4.69v-2.88c0-0.99-0.43-1.93-1.19-2.57-2.12-1.8-4.82-2.97-7.81-2.97-1.61 0-3.14 0.31-4.55 0.87-0.29 0.11-0.55-0.2-0.4-0.46l2.19-3.64c0.43-0.7 0.66-1.54 0.63-2.43-0.08-2.35-2.05-4.24-4.4-4.23z" fill="#ADAAB5"/><path d="m11.47 2c-2.41 0.01-4.36 1.97-4.36 4.38 0 1.12 0.42 2.15 1.12 2.93h3.05v0.07l-0.63 0.12-2.68 4.67c-0.63 1.12-0.97 2.38-0.97 3.67 0 3.95 3.21 7.16 7.16 7.16h3.49c0.1933 0 0.35 0.1567 0.35 0.35v0.71c0 0.52 0.42 0.94 0.94 0.94h2.12c0.52 0 0.94-0.42 0.94-0.94v-0.75c0-0.1712 0.1388-0.31 0.31-0.31 2.59 0 4.69-2.1 4.69-4.69v-2.88c0-0.99-0.43-1.93-1.19-2.57-2.12-1.8-4.82-2.97-7.81-2.97-1.61 0-3.14 0.31-4.55 0.87-0.29 0.11-0.55-0.2-0.4-0.46l2.19-3.64c0.43-0.7 0.66-1.54 0.63-2.43-0.08-2.35-2.05-4.24-4.4-4.23z" fill="url(#al)"/><path d="m11.47 2c-2.41 0.01-4.36 1.97-4.36 4.38 0 1.12 0.42 2.15 1.12 2.93h3.05v0.07l-0.63 0.12-2.68 4.67c-0.63 1.12-0.97 2.38-0.97 3.67 0 3.95 3.21 7.16 7.16 7.16h3.49c0.1933 0 0.35 0.1567 0.35 0.35v0.71c0 0.52 0.42 0.94 0.94 0.94h2.12c0.52 0 0.94-0.42 0.94-0.94v-0.75c0-0.1712 0.1388-0.31 0.31-0.31 2.59 0 4.69-2.1 4.69-4.69v-2.88c0-0.99-0.43-1.93-1.19-2.57-2.12-1.8-4.82-2.97-7.81-2.97-1.61 0-3.14 0.31-4.55 0.87-0.29 0.11-0.55-0.2-0.4-0.46l2.19-3.64c0.43-0.7 0.66-1.54 0.63-2.43-0.08-2.35-2.05-4.24-4.4-4.23z" fill="url(#ak)"/><path d="m11.47 2c-2.41 0.01-4.36 1.97-4.36 4.38 0 1.12 0.42 2.15 1.12 2.93h3.05v0.07l-0.63 0.12-2.68 4.67c-0.63 1.12-0.97 2.38-0.97 3.67 0 3.95 3.21 7.16 7.16 7.16h3.49c0.1933 0 0.35 0.1567 0.35 0.35v0.71c0 0.52 0.42 0.94 0.94 0.94h2.12c0.52 0 0.94-0.42 0.94-0.94v-0.75c0-0.1712 0.1388-0.31 0.31-0.31 2.59 0 4.69-2.1 4.69-4.69v-2.88c0-0.99-0.43-1.93-1.19-2.57-2.12-1.8-4.82-2.97-7.81-2.97-1.61 0-3.14 0.31-4.55 0.87-0.29 0.11-0.55-0.2-0.4-0.46l2.19-3.64c0.43-0.7 0.66-1.54 0.63-2.43-0.08-2.35-2.05-4.24-4.4-4.23z" fill="url(#aj)"/><path d="m11.47 2c-2.41 0.01-4.36 1.97-4.36 4.38 0 1.12 0.42 2.15 1.12 2.93h3.05v0.07l-0.63 0.12-2.68 4.67c-0.63 1.12-0.97 2.38-0.97 3.67 0 3.95 3.21 7.16 7.16 7.16h3.49c0.1933 0 0.35 0.1567 0.35 0.35v0.71c0 0.52 0.42 0.94 0.94 0.94h2.12c0.52 0 0.94-0.42 0.94-0.94v-0.75c0-0.1712 0.1388-0.31 0.31-0.31 2.59 0 4.69-2.1 4.69-4.69v-2.88c0-0.99-0.43-1.93-1.19-2.57-2.12-1.8-4.82-2.97-7.81-2.97-1.61 0-3.14 0.31-4.55 0.87-0.29 0.11-0.55-0.2-0.4-0.46l2.19-3.64c0.43-0.7 0.66-1.54 0.63-2.43-0.08-2.35-2.05-4.24-4.4-4.23z" fill="url(#ai)"/><path d="m11.47 2c-2.41 0.01-4.36 1.97-4.36 4.38 0 1.12 0.42 2.15 1.12 2.93h3.05v0.07l-0.63 0.12-2.68 4.67c-0.63 1.12-0.97 2.38-0.97 3.67 0 3.95 3.21 7.16 7.16 7.16h3.49c0.1933 0 0.35 0.1567 0.35 0.35v0.71c0 0.52 0.42 0.94 0.94 0.94h2.12c0.52 0 0.94-0.42 0.94-0.94v-0.75c0-0.1712 0.1388-0.31 0.31-0.31 2.59 0 4.69-2.1 4.69-4.69v-2.88c0-0.99-0.43-1.93-1.19-2.57-2.12-1.8-4.82-2.97-7.81-2.97-1.61 0-3.14 0.31-4.55 0.87-0.29 0.11-0.55-0.2-0.4-0.46l2.19-3.64c0.43-0.7 0.66-1.54 0.63-2.43-0.08-2.35-2.05-4.24-4.4-4.23z" fill="url(#ah)"/><path d="m11.47 2c-2.41 0.01-4.36 1.97-4.36 4.38 0 1.12 0.42 2.15 1.12 2.93h3.05v0.07l-0.63 0.12-2.68 4.67c-0.63 1.12-0.97 2.38-0.97 3.67 0 3.95 3.21 7.16 7.16 7.16h3.49c0.1933 0 0.35 0.1567 0.35 0.35v0.71c0 0.52 0.42 0.94 0.94 0.94h2.12c0.52 0 0.94-0.42 0.94-0.94v-0.75c0-0.1712 0.1388-0.31 0.31-0.31 2.59 0 4.69-2.1 4.69-4.69v-2.88c0-0.99-0.43-1.93-1.19-2.57-2.12-1.8-4.82-2.97-7.81-2.97-1.61 0-3.14 0.31-4.55 0.87-0.29 0.11-0.55-0.2-0.4-0.46l2.19-3.64c0.43-0.7 0.66-1.54 0.63-2.43-0.08-2.35-2.05-4.24-4.4-4.23z" fill="url(#ag)"/><path d="m11.47 2c-2.41 0.01-4.36 1.97-4.36 4.38 0 1.12 0.42 2.15 1.12 2.93h3.05v0.07l-0.63 0.12-2.68 4.67c-0.63 1.12-0.97 2.38-0.97 3.67 0 3.95 3.21 7.16 7.16 7.16h3.49c0.1933 0 0.35 0.1567 0.35 0.35v0.71c0 0.52 0.42 0.94 0.94 0.94h2.12c0.52 0 0.94-0.42 0.94-0.94v-0.75c0-0.1712 0.1388-0.31 0.31-0.31 2.59 0 4.69-2.1 4.69-4.69v-2.88c0-0.99-0.43-1.93-1.19-2.57-2.12-1.8-4.82-2.97-7.81-2.97-1.61 0-3.14 0.31-4.55 0.87-0.29 0.11-0.55-0.2-0.4-0.46l2.19-3.64c0.43-0.7 0.66-1.54 0.63-2.43-0.08-2.35-2.05-4.24-4.4-4.23z" fill="url(#af)"/><path d="m11.47 2c-2.41 0.01-4.36 1.97-4.36 4.38 0 1.12 0.42 2.15 1.12 2.93h3.05v0.07l-0.63 0.12-2.68 4.67c-0.63 1.12-0.97 2.38-0.97 3.67 0 3.95 3.21 7.16 7.16 7.16h3.49c0.1933 0 0.35 0.1567 0.35 0.35v0.71c0 0.52 0.42 0.94 0.94 0.94h2.12c0.52 0 0.94-0.42 0.94-0.94v-0.75c0-0.1712 0.1388-0.31 0.31-0.31 2.59 0 4.69-2.1 4.69-4.69v-2.88c0-0.99-0.43-1.93-1.19-2.57-2.12-1.8-4.82-2.97-7.81-2.97-1.61 0-3.14 0.31-4.55 0.87-0.29 0.11-0.55-0.2-0.4-0.46l2.19-3.64c0.43-0.7 0.66-1.54 0.63-2.43-0.08-2.35-2.05-4.24-4.4-4.23z" fill="url(#ae)"/><path d="m11.47 2c-2.41 0.01-4.36 1.97-4.36 4.38 0 1.12 0.42 2.15 1.12 2.93h3.05v0.07l-0.63 0.12-2.68 4.67c-0.63 1.12-0.97 2.38-0.97 3.67 0 3.95 3.21 7.16 7.16 7.16h3.49c0.1933 0 0.35 0.1567 0.35 0.35v0.71c0 0.52 0.42 0.94 0.94 0.94h2.12c0.52 0 0.94-0.42 0.94-0.94v-0.75c0-0.1712 0.1388-0.31 0.31-0.31 2.59 0 4.69-2.1 4.69-4.69v-2.88c0-0.99-0.43-1.93-1.19-2.57-2.12-1.8-4.82-2.97-7.81-2.97-1.61 0-3.14 0.31-4.55 0.87-0.29 0.11-0.55-0.2-0.4-0.46l2.19-3.64c0.43-0.7 0.66-1.54 0.63-2.43-0.08-2.35-2.05-4.24-4.4-4.23z" fill="url(#ad)"/><g filter="url(#at)"><path d="m12.594 15.489c1.75-1.5625 6.4687-3.4062 11.187 0.3125" stroke="#BDB8C6" stroke-width="1.5"/></g><path d="m3.52 10.76c-0.92999-0.46-1.52-1.41-1.52-2.46 0-1.82 1.48-3.3 3.3-3.3h0.90002c0.62998 0 1.24-0.26 1.65-0.73 0.64999-0.76 1.63-1.23 2.71-1.19 1.84 0.05 3.33 1.57 3.36 3.41 0.03 1.93-1.53 3.51-3.46 3.51h-6.46v0.46c0 0.25-0.26001 0.41-0.48001 0.3z" fill="#E0DAE4"/><path d="m3.52 10.76c-0.92999-0.46-1.52-1.41-1.52-2.46 0-1.82 1.48-3.3 3.3-3.3h0.90002c0.62998 0 1.24-0.26 1.65-0.73 0.64999-0.76 1.63-1.23 2.71-1.19 1.84 0.05 3.33 1.57 3.36 3.41 0.03 1.93-1.53 3.51-3.46 3.51h-6.46v0.46c0 0.25-0.26001 0.41-0.48001 0.3z" fill="url(#ac)"/><path d="m3.52 10.76c-0.92999-0.46-1.52-1.41-1.52-2.46 0-1.82 1.48-3.3 3.3-3.3h0.90002c0.62998 0 1.24-0.26 1.65-0.73 0.64999-0.76 1.63-1.23 2.71-1.19 1.84 0.05 3.33 1.57 3.36 3.41 0.03 1.93-1.53 3.51-3.46 3.51h-6.46v0.46c0 0.25-0.26001 0.41-0.48001 0.3z" fill="url(#aa)"/><path d="m9.5781 7.1406c0.27615 0 0.49998-0.22385 0.49998-0.5 0-0.27614-0.22383-0.5-0.49998-0.5-0.27614 0-0.5 0.22386-0.5 0.5 0 0.27615 0.22386 0.5 0.5 0.5z" fill="url(#z)"/><path d="M2 8.3C2 9.35 2.59 10.3 3.52 10.76C3.74 10.87 4 10.71 4 10.46V10.46C4 10.2059 4.20595 10 4.46 10H6V5.7C6 5.31 5.69 5 5.3 5C3.48 5 2 6.48 2 8.3Z" fill="#FFC03F"/><path d="M2 8.3C2 9.35 2.59 10.3 3.52 10.76C3.74 10.87 4 10.71 4 10.46V10.46C4 10.2059 4.20595 10 4.46 10H6V5.7C6 5.31 5.69 5 5.3 5C3.48 5 2 6.48 2 8.3Z" fill="url(#y)"/><path d="M2 8.3C2 9.35 2.59 10.3 3.52 10.76C3.74 10.87 4 10.71 4 10.46V10.46C4 10.2059 4.20595 10 4.46 10H6V5.7C6 5.31 5.69 5 5.3 5C3.48 5 2 6.48 2 8.3Z" fill="url(#x)"/><path d="M2 8.3C2 9.35 2.59 10.3 3.52 10.76C3.74 10.87 4 10.71 4 10.46V10.46C4 10.2059 4.20595 10 4.46 10H6V5.7C6 5.31 5.69 5 5.3 5C3.48 5 2 6.48 2 8.3Z" fill="url(#w)"/><g filter="url(#as)"><path d="m20.77 20.63c-0.16 0-0.29-0.14-0.27-0.31 0.01-0.06 0.04-0.12 0.09-0.17 0.6-0.58 0.95-1.41 0.9-2.32-0.08-1.52-1.28-2.72-2.8-2.82-1.71-0.11-3.15 1.22-3.2 2.91v0.16 1.3c0 2.35 1.9 4.25 4.25 4.25 1.48 0 2.71-1.07 2.95-2.48 0.05-0.27-0.16-0.52-0.44-0.52h-1.48z" fill="url(#v)"/><path d="m20.77 20.63c-0.16 0-0.29-0.14-0.27-0.31 0.01-0.06 0.04-0.12 0.09-0.17 0.6-0.58 0.95-1.41 0.9-2.32-0.08-1.52-1.28-2.72-2.8-2.82-1.71-0.11-3.15 1.22-3.2 2.91v0.16 1.3c0 2.35 1.9 4.25 4.25 4.25 1.48 0 2.71-1.07 2.95-2.48 0.05-0.27-0.16-0.52-0.44-0.52h-1.48z" fill="url(#u)"/><path d="m20.77 20.63c-0.16 0-0.29-0.14-0.27-0.31 0.01-0.06 0.04-0.12 0.09-0.17 0.6-0.58 0.95-1.41 0.9-2.32-0.08-1.52-1.28-2.72-2.8-2.82-1.71-0.11-3.15 1.22-3.2 2.91v0.16 1.3c0 2.35 1.9 4.25 4.25 4.25 1.48 0 2.71-1.07 2.95-2.48 0.05-0.27-0.16-0.52-0.44-0.52h-1.48z" fill="url(#t)"/><path d="m20.77 20.63c-0.16 0-0.29-0.14-0.27-0.31 0.01-0.06 0.04-0.12 0.09-0.17 0.6-0.58 0.95-1.41 0.9-2.32-0.08-1.52-1.28-2.72-2.8-2.82-1.71-0.11-3.15 1.22-3.2 2.91v0.16 1.3c0 2.35 1.9 4.25 4.25 4.25 1.48 0 2.71-1.07 2.95-2.48 0.05-0.27-0.16-0.52-0.44-0.52h-1.48z" fill="url(#s)"/><path d="m20.77 20.63c-0.16 0-0.29-0.14-0.27-0.31 0.01-0.06 0.04-0.12 0.09-0.17 0.6-0.58 0.95-1.41 0.9-2.32-0.08-1.52-1.28-2.72-2.8-2.82-1.71-0.11-3.15 1.22-3.2 2.91v0.16 1.3c0 2.35 1.9 4.25 4.25 4.25 1.48 0 2.71-1.07 2.95-2.48 0.05-0.27-0.16-0.52-0.44-0.52h-1.48z" fill="url(#r)"/><path d="m20.77 20.63c-0.16 0-0.29-0.14-0.27-0.31 0.01-0.06 0.04-0.12 0.09-0.17 0.6-0.58 0.95-1.41 0.9-2.32-0.08-1.52-1.28-2.72-2.8-2.82-1.71-0.11-3.15 1.22-3.2 2.91v0.16 1.3c0 2.35 1.9 4.25 4.25 4.25 1.48 0 2.71-1.07 2.95-2.48 0.05-0.27-0.16-0.52-0.44-0.52h-1.48z" fill="url(#p)"/><path d="m20.77 20.63c-0.16 0-0.29-0.14-0.27-0.31 0.01-0.06 0.04-0.12 0.09-0.17 0.6-0.58 0.95-1.41 0.9-2.32-0.08-1.52-1.28-2.72-2.8-2.82-1.71-0.11-3.15 1.22-3.2 2.91v0.16 1.3c0 2.35 1.9 4.25 4.25 4.25 1.48 0 2.71-1.07 2.95-2.48 0.05-0.27-0.16-0.52-0.44-0.52h-1.48z" fill="url(#o)"/></g><g filter="url(#ar)"><path d="m20.453 29.312h1.635c0.1605 0 0.3113 0.0771 0.4053 0.2073l0.155 0.2146" stroke="#FFC770" stroke-width=".15"/></g><g filter="url(#aq)"><path d="m20.492 29.031v-1.6718" stroke="#FFC770" stroke-width=".25"/></g><g filter="url(#ap)"><path d="m16.844 29.453h2.1093" stroke="url(#n)" stroke-width=".15"/></g><g filter="url(#ao)"><path d="m12.641 29.469h2.8282" stroke="url(#m)" stroke-width=".15"/></g><g opacity=".5"><path d="m22.329 25c-0.4783-0.7603-1.325-1.2656-2.2896-1.2656-0.9698 0-1.8203 0.5107-2.2973 1.2778 0.1488 0.0403 0.2582 0.1763 0.2582 0.3378v0.71c0 0.52 0.42 0.94 0.94 0.94h2.12c0.52 0 0.94-0.42 0.94-0.94v-0.75c0-0.1712 0.1388-0.31 0.31-0.31h0.0187z" fill="url(#l)"/><path d="m22.329 25c-0.4783-0.7603-1.325-1.2656-2.2896-1.2656-0.9698 0-1.8203 0.5107-2.2973 1.2778 0.1488 0.0403 0.2582 0.1763 0.2582 0.3378v0.71c0 0.52 0.42 0.94 0.94 0.94h2.12c0.52 0 0.94-0.42 0.94-0.94v-0.75c0-0.1712 0.1388-0.31 0.31-0.31h0.0187z" fill="url(#k)"/><path d="m22.329 25c-0.4783-0.7603-1.325-1.2656-2.2896-1.2656-0.9698 0-1.8203 0.5107-2.2973 1.2778 0.1488 0.0403 0.2582 0.1763 0.2582 0.3378v0.71c0 0.52 0.42 0.94 0.94 0.94h2.12c0.52 0 0.94-0.42 0.94-0.94v-0.75c0-0.1712 0.1388-0.31 0.31-0.31h0.0187z" fill="url(#j)"/><path d="m22.329 25c-0.4783-0.7603-1.325-1.2656-2.2896-1.2656-0.9698 0-1.8203 0.5107-2.2973 1.2778 0.1488 0.0403 0.2582 0.1763 0.2582 0.3378v0.71c0 0.52 0.42 0.94 0.94 0.94h2.12c0.52 0 0.94-0.42 0.94-0.94v-0.75c0-0.1712 0.1388-0.31 0.31-0.31h0.0187z" fill="url(#i)"/></g><g filter="url(#an)"><path d="m13.625 9.0625-2.8438 5.0625h2.1876" stroke="url(#h)"/></g><defs><filter id="au" x="25" y="12.85" width="5" height="8.1555" color-interpolation-filters="sRGB" filterUnits="userSpaceOnUse"><feFlood flood-opacity="0" result="BackgroundImageFix"/><feBlend in="SourceGraphic" in2="BackgroundImageFix" result="shape"/><feColorMatrix in="SourceAlpha" result="hardAlpha" values="0 0 0 0 0 0 0 0 0 0 0 0 0 0 0 0 0 0 127 0"/><feOffset dy="-0.15"/><feGaussianBlur stdDeviation="0.25"/><feComposite in2="hardAlpha" k2="-1" k3="1" operator="arithmetic"/><feColorMatrix values="0 0 0 0 0.615686 0 0 0 0 0.560784 0 0 0 0 0.631373 0 0 0 1 0"/><feBlend in2="shape" result="effect1_innerShadow_28327_5078"/></filter><filter id="at" x="9.5942" y="10.374" width="17.151" height="8.5164" color-interpolation-filters="sRGB" filterUnits="userSpaceOnUse"><feFlood flood-opacity="0" result="BackgroundImageFix"/><feBlend in="SourceGraphic" in2="BackgroundImageFix" result="shape"/><feGaussianBlur result="effect1_foregroundBlur_28327_5078" stdDeviation="1.25"/></filter><filter id="as" x="15.34" y="15.004" width="7.3574" height="8.6263" color-interpolation-filters="sRGB" filterUnits="userSpaceOnUse"><feFlood flood-opacity="0" result="BackgroundImageFix"/><feBlend in="SourceGraphic" in2="BackgroundImageFix" result="shape"/><feColorMatrix in="SourceAlpha" result="hardAlpha" values="0 0 0 0 0 0 0 0 0 0 0 0 0 0 0 0 0 0 127 0"/><feOffset dx="-0.15"/><feGaussianBlur stdDeviation="0.125"/><feComposite in2="hardAlpha" k2="-1" k3="1" operator="arithmetic"/><feColorMatrix values="0 0 0 0 0.635294 0 0 0 0 0.627451 0 0 0 0 0.662745 0 0 0 1 0"/><feBlend in2="shape" result="effect1_innerShadow_28327_5078"/></filter><filter id="ar" x="20.203" y="28.988" width="2.7561" height="1.0408" color-interpolation-filters="sRGB" filterUnits="userSpaceOnUse"><feFlood flood-opacity="0" result="BackgroundImageFix"/><feBlend in="SourceGraphic" in2="BackgroundImageFix" result="shape"/><feGaussianBlur result="effect1_foregroundBlur_28327_5078" stdDeviation="0.125"/></filter><filter id="aq" x="19.867" y="26.859" width="1.25" height="2.6719" color-interpolation-filters="sRGB" filterUnits="userSpaceOnUse"><feFlood flood-opacity="0" result="BackgroundImageFix"/><feBlend in="SourceGraphic" in2="BackgroundImageFix" result="shape"/><feGaussianBlur result="effect1_foregroundBlur_28327_5078" stdDeviation="0.25"/></filter><filter id="ap" x="16.594" y="29.128" width="2.6094" height=".6499" color-interpolation-filters="sRGB" filterUnits="userSpaceOnUse"><feFlood flood-opacity="0" result="BackgroundImageFix"/><feBlend in="SourceGraphic" in2="BackgroundImageFix" result="shape"/><feGaussianBlur result="effect1_foregroundBlur_28327_5078" stdDeviation="0.125"/></filter><filter id="ao" x="12.391" y="29.144" width="3.3281" height=".6499" color-interpolation-filters="sRGB" filterUnits="userSpaceOnUse"><feFlood flood-opacity="0" result="BackgroundImageFix"/><feBlend in="SourceGraphic" in2="BackgroundImageFix" result="shape"/><feGaussianBlur result="effect1_foregroundBlur_28327_5078" stdDeviation="0.125"/></filter><filter id="an" x="8.6769" y="7.5676" width="6.634" height="8.3074" color-interpolation-filters="sRGB" filterUnits="userSpaceOnUse"><feFlood flood-opacity="0" result="BackgroundImageFix"/><feBlend in="SourceGraphic" in2="BackgroundImageFix" result="shape"/><feGaussianBlur result="effect1_foregroundBlur_28327_5078" stdDeviation="0.625"/></filter><linearGradient id="am" x1="24.5" x2="29.25" y1="14.812" y2="12.938" gradientUnits="userSpaceOnUse"><stop stop-color="#8E8E93" offset="0"/><stop stop-color="#9B9C9F" offset="1"/></linearGradient><linearGradient id="ab" x1="27.5" x2="27.5" y1="13" y2="21.006" gradientUnits="userSpaceOnUse"><stop stop-color="#E1DCE4" offset="0"/><stop stop-color="#CCBBD1" offset="1"/></linearGradient><radialGradient id="q" cx="0" cy="0" r="1" gradientTransform="translate(27.906 12.812) rotate(83.032) scale(2.8334 6.9864)" gradientUnits="userSpaceOnUse"><stop stop-color="#DAD5DD" offset="0"/><stop stop-color="#DAD5DD" stop-opacity="0" offset="1"/></radialGradient><linearGradient id="g" x1="13.859" x2="16.328" y1="27" y2="27" gradientUnits="userSpaceOnUse"><stop stop-color="#B6A6BB" offset="0"/><stop stop-color="#B6A6BB" stop-opacity="0" offset="1"/></linearGradient><radialGradient id="f" cx="0" cy="0" r="1" gradientTransform="translate(15.922 28.578) rotate(-58.259) scale(3.9502 6.2357)" gradientUnits="userSpaceOnUse"><stop stop-color="#634E68" stop-opacity="0" offset=".6451"/><stop stop-color="#634E68" offset="1"/></radialGradient><linearGradient id="e" x1="16.928" x2="16.209" y1="27.344" y2="29.062" gradientUnits="userSpaceOnUse"><stop stop-color="#EC8023" offset="0"/><stop stop-color="#EC8023" stop-opacity="0" offset="1"/></linearGradient><linearGradient id="d" x1="16.209" x2="16.209" y1="30.297" y2="29.656" gradientUnits="userSpaceOnUse"><stop stop-color="#EC8023" offset="0"/><stop stop-color="#EC8023" stop-opacity="0" offset="1"/></linearGradient><radialGradient id="c" cx="0" cy="0" r="1" gradientTransform="translate(14.641 27.875) scale(.84936 1.6719)" gradientUnits="userSpaceOnUse"><stop stop-color="#FFCB7F" offset=".23915"/><stop stop-color="#FFCB7F" stop-opacity="0" offset=".80943"/></radialGradient><linearGradient id="b" x1="19.5" x2="19.5" y1="27.156" y2="28.172" gradientUnits="userSpaceOnUse"><stop stop-color="#FF9339" offset="0"/><stop stop-color="#FF9339" stop-opacity="0" offset="1"/></linearGradient><linearGradient id="a" x1="19.5" x2="19.5" y1="30.281" y2="29.625" gradientUnits="userSpaceOnUse"><stop stop-color="#FF9339" offset="0"/><stop stop-color="#FF9339" stop-opacity="0" offset="1"/></linearGradient><radialGradient id="al" cx="0" cy="0" r="1" gradientTransform="translate(17.375 6.375) rotate(91.091) scale(19.691 27.745)" gradientUnits="userSpaceOnUse"><stop stop-color="#99729D" stop-opacity="0" offset=".71953"/><stop stop-color="#99729D" offset="1"/></radialGradient><radialGradient id="ak" cx="0" cy="0" r="1" gradientTransform="translate(18.156 22.156) rotate(150.82) scale(2.756 4.5748)" gradientUnits="userSpaceOnUse"><stop stop-color="#7E5E8C" offset="0"/><stop stop-color="#7E5E8C" stop-opacity="0" offset="1"/></radialGradient><radialGradient id="aj" cx="0" cy="0" r="1" gradientTransform="translate(13.5 5.6875) rotate(-36.501) scale(3.8876 3.3128)" gradientUnits="userSpaceOnUse"><stop stop-color="#C6C3CF" offset="0"/><stop stop-color="#C6C3CF" stop-opacity="0" offset="1"/></radialGradient><radialGradient id="ai" cx="0" cy="0" r="1" gradientTransform="translate(10.375 9.8125) rotate(120.14) scale(4.4809 1.8005)" gradientUnits="userSpaceOnUse"><stop stop-color="#9B93A1" offset="0"/><stop stop-color="#9B93A1" stop-opacity="0" offset="1"/></radialGradient><radialGradient id="ah" cx="0" cy="0" r="1" gradientTransform="translate(18.656 17.625) rotate(209.28) scale(3.8336 3.5828)" gradientUnits="userSpaceOnUse"><stop stop-color="#898591" offset=".057632"/><stop stop-color="#898591" stop-opacity="0" offset="1"/></radialGradient><radialGradient id="ag" cx="0" cy="0" r="1" gradientTransform="translate(19.781 20.812) rotate(-30.964) scale(2.551 1.983)" gradientUnits="userSpaceOnUse"><stop stop-color="#898591" offset=".057632"/><stop stop-color="#898591" stop-opacity="0" offset="1"/></radialGradient><radialGradient id="af" cx="0" cy="0" r="1" gradientTransform="translate(4.625 22) rotate(-28.516) scale(9.0334 13.785)" gradientUnits="userSpaceOnUse"><stop stop-color="#C1B9C7" offset=".14615"/><stop stop-color="#C1B9C7" stop-opacity="0" offset=".59139"/></radialGradient><radialGradient id="ae" cx="0" cy="0" r="1" gradientTransform="translate(14.312 11.219) rotate(125.2) scale(4.9333 1.4734)" gradientUnits="userSpaceOnUse"><stop stop-color="#8B8B92" offset=".21474"/><stop stop-color="#8B8B92" stop-opacity="0" offset="1"/></radialGradient><radialGradient id="ad" cx="0" cy="0" r="1" gradientTransform="translate(16.562 11.156) rotate(153.29) scale(5.6321 1.682)" gradientUnits="userSpaceOnUse"><stop stop-color="#8B8B92" offset=".0077582"/><stop stop-color="#8B8B92" stop-opacity="0" offset="1"/></radialGradient><radialGradient id="ac" cx="0" cy="0" r="1" gradientTransform="translate(7.9602 11.875) rotate(-52.81) scale(7.924 6.9191)" gradientUnits="userSpaceOnUse"><stop stop-color="#C5AECD" offset="0"/><stop stop-color="#C5AECD" stop-opacity="0" offset="1"/></radialGradient><radialGradient id="aa" cx="0" cy="0" r="1" gradientTransform="translate(5.25 4.125) rotate(23.75) scale(3.4141 2.1323)" gradientUnits="userSpaceOnUse"><stop stop-color="#C6C3C7" offset="0"/><stop stop-color="#C6C3C7" stop-opacity="0" offset="1"/></radialGradient><linearGradient id="z" x1="9.5806" x2="9.5806" y1="5.8001" y2="7.2442" gradientUnits="userSpaceOnUse"><stop stop-color="#513468" offset=".0055866"/><stop stop-color="#1C1C1C" offset="1"/></linearGradient><linearGradient id="y" x1="4.9688" x2="5" y1="12.219" y2="8.8438" gradientUnits="userSpaceOnUse"><stop stop-color="#F27C46" offset=".13759"/><stop stop-color="#F27C46" stop-opacity="0" offset="1"/></linearGradient><linearGradient id="x" x1="4" x2="4.5" y1="3.8281" y2="5.6719" gradientUnits="userSpaceOnUse"><stop stop-color="#F27C46" offset=".1433"/><stop stop-color="#F27C46" stop-opacity="0" offset="1"/></linearGradient><radialGradient id="w" cx="0" cy="0" r="1" gradientTransform="translate(5.6562 8.25) rotate(185.5) scale(3.6732 3.783)" gradientUnits="userSpaceOnUse"><stop stop-color="#FFE395" stop-opacity="0" offset=".87428"/><stop stop-color="#FFE395" offset="1"/></radialGradient><linearGradient id="v" x1="19.107" x2="19.107" y1="24" y2="19.317" gradientUnits="userSpaceOnUse"><stop stop-color="#CDBDDB" offset="0"/><stop stop-color="#C0BACA" offset="1"/></linearGradient><radialGradient id="u" cx="0" cy="0" r="1" gradientTransform="translate(18.562 26.062) rotate(-90) scale(12.188 7.2104)" gradientUnits="userSpaceOnUse"><stop stop-color="#9D9CA4" stop-opacity="0" offset=".57436"/><stop stop-color="#9D9CA4" offset=".93846"/></radialGradient><radialGradient id="t" cx="0" cy="0" r="1" gradientTransform="translate(22.469 20.234) rotate(164.48) scale(2.3352 1.9178)" gradientUnits="userSpaceOnUse"><stop stop-color="#BCB5C7" offset="0"/><stop stop-color="#BCB5C7" stop-opacity="0" offset="1"/></radialGradient><radialGradient id="s" cx="0" cy="0" r="1" gradientTransform="translate(21.281 18.438) rotate(135.71) scale(6.2208 7.7394)" gradientUnits="userSpaceOnUse"><stop stop-color="#D1C8DC" stop-opacity="0" offset=".89454"/><stop stop-color="#D1C8DC" offset="1"/></radialGradient><radialGradient id="r" cx="0" cy="0" r="1" gradientTransform="translate(21.531 19.969) rotate(157.11) scale(3.0529 1.6128)" gradientUnits="userSpaceOnUse"><stop stop-color="#D1C8DC" offset="0"/><stop stop-color="#D1C8DC" stop-opacity="0" offset="1"/></radialGradient><radialGradient id="p" cx="0" cy="0" r="1" gradientTransform="translate(22.562 20.844) rotate(134.04) scale(1.978 .7291)" gradientUnits="userSpaceOnUse"><stop stop-color="#E4DBEF" offset="0"/><stop stop-color="#D1C8DC" stop-opacity="0" offset="1"/></radialGradient><radialGradient id="o" cx="0" cy="0" r="1" gradientTransform="translate(19.5 24.125) rotate(-90) scale(2.5)" gradientUnits="userSpaceOnUse"><stop stop-color="#C2A9D1" offset="0"/><stop stop-color="#C2A9D1" stop-opacity="0" offset="1"/></radialGradient><linearGradient id="n" x1="16.952" x2="18.844" y1="29.719" y2="29.719" gradientUnits="userSpaceOnUse"><stop stop-color="#FFC770" offset="0"/><stop stop-color="#FFC770" stop-opacity="0" offset="1"/></linearGradient><linearGradient id="m" x1="12.844" x2="14.781" y1="29.734" y2="29.734" gradientUnits="userSpaceOnUse"><stop stop-color="#FFC770" offset="0"/><stop stop-color="#FFC770" stop-opacity="0" offset="1"/></linearGradient><radialGradient id="l" cx="0" cy="0" r="1" gradientTransform="translate(18.297 26.125) scale(1.6094 3.6198)" gradientUnits="userSpaceOnUse"><stop stop-color="#B4A3BB" offset="0"/><stop stop-color="#B4A3BB" stop-opacity="0" offset="1"/></radialGradient><radialGradient id="k" cx="0" cy="0" r="1" gradientTransform="translate(22.781 26.078) rotate(228.73) scale(3.9084 3.472)" gradientUnits="userSpaceOnUse"><stop stop-color="#CBB7D8" offset="0"/><stop stop-color="#A292AC" stop-opacity="0" offset="1"/></radialGradient><linearGradient id="j" x1="20.035" x2="20.035" y1="26.547" y2="27.312" gradientUnits="userSpaceOnUse"><stop stop-color="#A07794" stop-opacity="0" offset=".014354"/><stop stop-color="#A07794" offset="1"/></linearGradient><radialGradient id="i" cx="0" cy="0" r="1" gradientTransform="translate(17.742 25.266) rotate(-41.821) scale(2.2964 .99754)" gradientUnits="userSpaceOnUse"><stop stop-color="#BBA2C5" offset="0"/><stop stop-color="#BBA2C5" stop-opacity="0" offset=".64631"/></radialGradient><linearGradient id="h" x1="11.531" x2="13.531" y1="13.594" y2="9.9688" gradientUnits="userSpaceOnUse"><stop stop-color="#BDB8C6" offset="0"/><stop stop-color="#BDB8C6" stop-opacity="0" offset="1"/></linearGradient></defs></svg>
