<svg fill="none" viewBox="0 0 32 32" xmlns="http://www.w3.org/2000/svg"><path d="m4.0702 7.9287c-0.04759-0.35951 0.23216-0.67874 0.59481-0.67874h22.629c0.3633 0 0.6433 0.32037 0.5946 0.68042l-2.7284 20.172c-0.0671 0.496-0.4905 0.866-0.991 0.866h-16.437c-0.50156 0-0.92553-0.3716-0.99135-0.8688l-2.6702-20.171z" fill="url(#x)"/><path d="m4.0702 7.9287c-0.04759-0.35951 0.23216-0.67874 0.59481-0.67874h22.629c0.3633 0 0.6433 0.32037 0.5946 0.68042l-2.7284 20.172c-0.0671 0.496-0.4905 0.866-0.991 0.866h-16.437c-0.50156 0-0.92553-0.3716-0.99135-0.8688l-2.6702-20.171z" fill="url(#m)"/><path d="m4.0702 7.9287c-0.04759-0.35951 0.23216-0.67874 0.59481-0.67874h22.629c0.3633 0 0.6433 0.32037 0.5946 0.68042l-2.7284 20.172c-0.0671 0.496-0.4905 0.866-0.991 0.866h-16.437c-0.50156 0-0.92553-0.3716-0.99135-0.8688l-2.6702-20.171z" fill="url(#h)"/><path d="m4.0702 7.9287c-0.04759-0.35951 0.23216-0.67874 0.59481-0.67874h22.629c0.3633 0 0.6433 0.32037 0.5946 0.68042l-2.7284 20.172c-0.0671 0.496-0.4905 0.866-0.991 0.866h-16.437c-0.50156 0-0.92553-0.3716-0.99135-0.8688l-2.6702-20.171z" fill="url(#g)"/><path d="m4.0702 7.9287c-0.04759-0.35951 0.23216-0.67874 0.59481-0.67874h22.629c0.3633 0 0.6433 0.32037 0.5946 0.68042l-2.7284 20.172c-0.0671 0.496-0.4905 0.866-0.991 0.866h-16.437c-0.50156 0-0.92553-0.3716-0.99135-0.8688l-2.6702-20.171z" fill="url(#f)"/><path d="m4.0702 7.9287c-0.04759-0.35951 0.23216-0.67874 0.59481-0.67874h22.629c0.3633 0 0.6433 0.32037 0.5946 0.68042l-2.7284 20.172c-0.0671 0.496-0.4905 0.866-0.991 0.866h-16.437c-0.50156 0-0.92553-0.3716-0.99135-0.8688l-2.6702-20.171z" fill="url(#e)"/><path d="m4.0702 7.9287c-0.04759-0.35951 0.23216-0.67874 0.59481-0.67874h22.629c0.3633 0 0.6433 0.32037 0.5946 0.68042l-2.7284 20.172c-0.0671 0.496-0.4905 0.866-0.991 0.866h-16.437c-0.50156 0-0.92553-0.3716-0.99135-0.8688l-2.6702-20.171z" fill="url(#d)"/><g filter="url(#aa)"><circle cx="19.308" cy="12.844" r="2.1406" fill="url(#c)"/><circle cx="19.308" cy="12.844" r="2.1406" fill="url(#b)"/><circle cx="19.308" cy="12.844" r="2.1406" fill="url(#a)"/><circle cx="19.308" cy="12.844" r="2.2656" stroke="url(#w)" stroke-width=".25"/><circle cx="19.308" cy="12.844" r="2.2656" stroke="url(#v)" stroke-width=".25"/></g><g filter="url(#z)"><path d="m4.8016 13.454c-0.02857 0.0541-0.05957 0.1125-0.09277 0.1751-0.32377 0.6105-0.85546 1.613-1.3572 2.7558-0.56157 1.2791-1.1267 2.8233-1.3119 4.2761-0.20325 1.5949 0.28257 2.8679 1.1207 3.7727 0.80326 0.8671 1.8662 1.3316 2.7768 1.5098 0.05378 0.0105 0.11553 0.0237 0.18483 0.0385 0.68112 0.1452 2.0921 0.446 3.8422-0.0749 1.9384-0.577 4.1214-2.0919 6.3685-5.4052 2.7894-4.1131 3.6827-6.1896 3.9935-6.9122 0.0305-0.0707 0.0554-0.1286 0.0759-0.174 0.2726-0.6041 0.0038-1.3148-0.6002-1.5874-0.6041-0.2726-1.3148-0.0039-1.5874 0.6002-0.0188 0.0417-0.0418 0.0954-0.0702 0.1619-0.2847 0.6657-1.116 2.6098-3.7979 6.5644-2.0341 2.9992-3.8054 4.0765-5.0669 4.452-1.1444 0.3407-2.0114 0.1609-2.6698 0.0245-0.07313-0.0152-0.14368-0.0298-0.21176-0.0431-0.52687-0.1031-1.2119-0.3202-1.5975-0.7364-1.0202-1.1013-0.11368-3.89 0.53868-5.3353l-0.53777-4.0625z" fill="url(#u)"/></g><path d="m4.8016 13.454c-0.02857 0.0541-0.05957 0.1125-0.09277 0.1751-0.32377 0.6105-0.85546 1.613-1.3572 2.7558-0.56157 1.2791-1.1267 2.8233-1.3119 4.2761-0.20325 1.5949 0.28257 2.8679 1.1207 3.7727 0.80326 0.8671 1.8662 1.3316 2.7768 1.5098 0.05378 0.0105 0.11553 0.0237 0.18483 0.0385 0.68112 0.1452 2.0921 0.446 3.8422-0.0749 1.9384-0.577 4.1214-2.0919 6.3685-5.4052 2.7894-4.1131 3.6827-6.1896 3.9935-6.9122 0.0305-0.0707 0.0554-0.1286 0.0759-0.174 0.2726-0.6041 0.0038-1.3148-0.6002-1.5874-0.6041-0.2726-1.3148-0.0039-1.5874 0.6002-0.0188 0.0417-0.0418 0.0954-0.0702 0.1619-0.2847 0.6657-1.116 2.6098-3.7979 6.5644-2.0341 2.9992-3.8054 4.0765-5.0669 4.452-1.1444 0.3407-2.0114 0.1609-2.6698 0.0245-0.07313-0.0152-0.14368-0.0298-0.21176-0.0431-0.52687-0.1031-1.2119-0.3202-1.5975-0.7364-1.0202-1.1013-0.11368-3.89 0.53868-5.3353l-0.53777-4.0625z" fill="url(#t)"/><path d="m4.8016 13.454c-0.02857 0.0541-0.05957 0.1125-0.09277 0.1751-0.32377 0.6105-0.85546 1.613-1.3572 2.7558-0.56157 1.2791-1.1267 2.8233-1.3119 4.2761-0.20325 1.5949 0.28257 2.8679 1.1207 3.7727 0.80326 0.8671 1.8662 1.3316 2.7768 1.5098 0.05378 0.0105 0.11553 0.0237 0.18483 0.0385 0.68112 0.1452 2.0921 0.446 3.8422-0.0749 1.9384-0.577 4.1214-2.0919 6.3685-5.4052 2.7894-4.1131 3.6827-6.1896 3.9935-6.9122 0.0305-0.0707 0.0554-0.1286 0.0759-0.174 0.2726-0.6041 0.0038-1.3148-0.6002-1.5874-0.6041-0.2726-1.3148-0.0039-1.5874 0.6002-0.0188 0.0417-0.0418 0.0954-0.0702 0.1619-0.2847 0.6657-1.116 2.6098-3.7979 6.5644-2.0341 2.9992-3.8054 4.0765-5.0669 4.452-1.1444 0.3407-2.0114 0.1609-2.6698 0.0245-0.07313-0.0152-0.14368-0.0298-0.21176-0.0431-0.52687-0.1031-1.2119-0.3202-1.5975-0.7364-1.0202-1.1013-0.11368-3.89 0.53868-5.3353l-0.53777-4.0625z" fill="url(#s)"/><path d="m4.8016 13.454c-0.02857 0.0541-0.05957 0.1125-0.09277 0.1751-0.32377 0.6105-0.85546 1.613-1.3572 2.7558-0.56157 1.2791-1.1267 2.8233-1.3119 4.2761-0.20325 1.5949 0.28257 2.8679 1.1207 3.7727 0.80326 0.8671 1.8662 1.3316 2.7768 1.5098 0.05378 0.0105 0.11553 0.0237 0.18483 0.0385 0.68112 0.1452 2.0921 0.446 3.8422-0.0749 1.9384-0.577 4.1214-2.0919 6.3685-5.4052 2.7894-4.1131 3.6827-6.1896 3.9935-6.9122 0.0305-0.0707 0.0554-0.1286 0.0759-0.174 0.2726-0.6041 0.0038-1.3148-0.6002-1.5874-0.6041-0.2726-1.3148-0.0039-1.5874 0.6002-0.0188 0.0417-0.0418 0.0954-0.0702 0.1619-0.2847 0.6657-1.116 2.6098-3.7979 6.5644-2.0341 2.9992-3.8054 4.0765-5.0669 4.452-1.1444 0.3407-2.0114 0.1609-2.6698 0.0245-0.07313-0.0152-0.14368-0.0298-0.21176-0.0431-0.52687-0.1031-1.2119-0.3202-1.5975-0.7364-1.0202-1.1013-0.11368-3.89 0.53868-5.3353l-0.53777-4.0625z" fill="url(#r)"/><path d="m4.8016 13.454c-0.02857 0.0541-0.05957 0.1125-0.09277 0.1751-0.32377 0.6105-0.85546 1.613-1.3572 2.7558-0.56157 1.2791-1.1267 2.8233-1.3119 4.2761-0.20325 1.5949 0.28257 2.8679 1.1207 3.7727 0.80326 0.8671 1.8662 1.3316 2.7768 1.5098 0.05378 0.0105 0.11553 0.0237 0.18483 0.0385 0.68112 0.1452 2.0921 0.446 3.8422-0.0749 1.9384-0.577 4.1214-2.0919 6.3685-5.4052 2.7894-4.1131 3.6827-6.1896 3.9935-6.9122 0.0305-0.0707 0.0554-0.1286 0.0759-0.174 0.2726-0.6041 0.0038-1.3148-0.6002-1.5874-0.6041-0.2726-1.3148-0.0039-1.5874 0.6002-0.0188 0.0417-0.0418 0.0954-0.0702 0.1619-0.2847 0.6657-1.116 2.6098-3.7979 6.5644-2.0341 2.9992-3.8054 4.0765-5.0669 4.452-1.1444 0.3407-2.0114 0.1609-2.6698 0.0245-0.07313-0.0152-0.14368-0.0298-0.21176-0.0431-0.52687-0.1031-1.2119-0.3202-1.5975-0.7364-1.0202-1.1013-0.11368-3.89 0.53868-5.3353l-0.53777-4.0625z" fill="url(#q)"/><path d="m2.91 6.5782c-0.05348-0.36233 0.22732-0.68762 0.59357-0.68762h24.993c0.3689 0 0.6504 0.32972 0.5926 0.69403l-0.4547 2.8657c-0.0617 0.38857-0.3967 0.67463-0.7901 0.67463h-23.72c-0.39671 0-0.7335-0.29073-0.79143-0.68318l-0.42267-2.8636z" fill="url(#p)"/><path d="m2.91 6.5782c-0.05348-0.36233 0.22732-0.68762 0.59357-0.68762h24.993c0.3689 0 0.6504 0.32972 0.5926 0.69403l-0.4547 2.8657c-0.0617 0.38857-0.3967 0.67463-0.7901 0.67463h-23.72c-0.39671 0-0.7335-0.29073-0.79143-0.68318l-0.42267-2.8636z" fill="url(#o)"/><path d="m2.91 6.5782c-0.05348-0.36233 0.22732-0.68762 0.59357-0.68762h24.993c0.3689 0 0.6504 0.32972 0.5926 0.69403l-0.4547 2.8657c-0.0617 0.38857-0.3967 0.67463-0.7901 0.67463h-23.72c-0.39671 0-0.7335-0.29073-0.79143-0.68318l-0.42267-2.8636z" fill="url(#n)"/><path d="m2.91 6.5782c-0.05348-0.36233 0.22732-0.68762 0.59357-0.68762h24.993c0.3689 0 0.6504 0.32972 0.5926 0.69403l-0.4547 2.8657c-0.0617 0.38857-0.3967 0.67463-0.7901 0.67463h-23.72c-0.39671 0-0.7335-0.29073-0.79143-0.68318l-0.42267-2.8636z" fill="url(#l)"/><path d="m2.91 6.5782c-0.05348-0.36233 0.22732-0.68762 0.59357-0.68762h24.993c0.3689 0 0.6504 0.32972 0.5926 0.69403l-0.4547 2.8657c-0.0617 0.38857-0.3967 0.67463-0.7901 0.67463h-23.72c-0.39671 0-0.7335-0.29073-0.79143-0.68318l-0.42267-2.8636z" fill="url(#k)"/><g filter="url(#y)" stroke-linecap="round" stroke-width=".75"><path d="m6.1982 13.968c-0.61459 1.1666-2.3299 4.281-2.6565 6.8437-0.31754 2.4917 1.5001 3.6719 2.9376 3.9531 1.2632 0.2472 4.891 1.375 9.172-4.9375 3.0063-4.4327 3.7502-6.4218 3.9688-6.9062" stroke="url(#j)"/><path d="m6.1982 13.968c-0.61459 1.1666-2.3299 4.281-2.6565 6.8437-0.31754 2.4917 1.5001 3.6719 2.9376 3.9531 1.2632 0.2472 4.891 1.375 9.172-4.9375 3.0063-4.4327 3.7502-6.4218 3.9688-6.9062" stroke="url(#i)"/></g><defs><filter id="aa" x="16.668" y="10.203" width="5.2812" height="5.2812" color-interpolation-filters="sRGB" filterUnits="userSpaceOnUse"><feFlood flood-opacity="0" result="BackgroundImageFix"/><feBlend in="SourceGraphic" in2="BackgroundImageFix" result="shape"/><feGaussianBlur result="effect1_foregroundBlur_18_26231" stdDeviation="0.125"/></filter><filter id="z" x="1.9936" y="11.222" width="18.515" height="14.979" color-interpolation-filters="sRGB" filterUnits="userSpaceOnUse"><feFlood flood-opacity="0" result="BackgroundImageFix"/><feBlend in="SourceGraphic" in2="BackgroundImageFix" result="shape"/><feColorMatrix in="SourceAlpha" result="hardAlpha" values="0 0 0 0 0 0 0 0 0 0 0 0 0 0 0 0 0 0 127 0"/><feOffset dy="-0.5"/><feGaussianBlur stdDeviation="0.5"/><feComposite in2="hardAlpha" k2="-1" k3="1" operator="arithmetic"/><feColorMatrix values="0 0 0 0 0.611765 0 0 0 0 0.439216 0 0 0 0 0.760784 0 0 0 1 0"/><feBlend in2="shape" result="effect1_innerShadow_18_26231"/></filter><filter id="y" x="2.3801" y="11.796" width="18.365" height="14.33" color-interpolation-filters="sRGB" filterUnits="userSpaceOnUse"><feFlood flood-opacity="0" result="BackgroundImageFix"/><feBlend in="SourceGraphic" in2="BackgroundImageFix" result="shape"/><feGaussianBlur result="effect1_foregroundBlur_18_26231" stdDeviation="0.375"/></filter><linearGradient id="x" x1="24.605" x2="6.5428" y1="28" y2="28" gradientUnits="userSpaceOnUse"><stop stop-color="#3AC7FF" offset=".1037"/><stop stop-color="#3872C5" offset="1"/></linearGradient><linearGradient id="m" x1="4.0649" x2="9.5428" y1="21.062" y2="19.562" gradientUnits="userSpaceOnUse"><stop stop-color="#607CB1" offset="0"/><stop stop-color="#607CB1" stop-opacity="0" offset="1"/></linearGradient><radialGradient id="h" cx="0" cy="0" r="1" gradientTransform="translate(5.2928 19.75) rotate(63.264) scale(9.3776 2.7866)" gradientUnits="userSpaceOnUse"><stop stop-color="#3962A3" offset=".058046"/><stop stop-color="#3873C6" stop-opacity="0" offset="1"/></radialGradient><linearGradient id="g" x1="16.168" x2="16.168" y1="29.344" y2="28.406" gradientUnits="userSpaceOnUse"><stop stop-color="#3C60E2" offset="0"/><stop stop-color="#3C60E2" stop-opacity="0" offset="1"/></linearGradient><radialGradient id="f" cx="0" cy="0" r="1" gradientTransform="translate(15.418 17.125) rotate(128.92) scale(10.578 2.7914)" gradientUnits="userSpaceOnUse"><stop stop-color="#2469C3" offset="0"/><stop stop-color="#398DD8" stop-opacity="0" offset="1"/></radialGradient><linearGradient id="e" x1="15.979" x2="15.979" y1="9.0014" y2="10.663" gradientUnits="userSpaceOnUse"><stop stop-color="#285FD8" offset=".0625"/><stop stop-color="#3B75C6" stop-opacity="0" offset="1"/></linearGradient><radialGradient id="d" cx="0" cy="0" r="1" gradientTransform="translate(4.0649 12.532) rotate(58.202) scale(10.018 2.7578)" gradientUnits="userSpaceOnUse"><stop stop-color="#637CAA" offset="0"/><stop stop-color="#637CAA" stop-opacity="0" offset="1"/></radialGradient><radialGradient id="c" cx="0" cy="0" r="1" gradientTransform="translate(21.074 11.25) rotate(129.16) scale(3.9094 4.5978)" gradientUnits="userSpaceOnUse"><stop stop-color="#66D7FF" offset=".31628"/><stop stop-color="#66D7FF" stop-opacity="0" offset="1"/></radialGradient><radialGradient id="b" cx="0" cy="0" r="1" gradientTransform="translate(19.308 12.844) rotate(90) scale(2.1406)" gradientUnits="userSpaceOnUse"><stop stop-color="#2EA2F8" offset=".64234"/><stop stop-color="#2EA2F8" stop-opacity="0" offset="1"/></radialGradient><radialGradient id="a" cx="0" cy="0" r="1" gradientTransform="translate(20.199 12.25) rotate(140.26) scale(3.373)" gradientUnits="userSpaceOnUse"><stop stop-color="#2CA2FF" stop-opacity="0" offset=".59234"/><stop stop-color="#296EC5" offset="1"/></radialGradient><linearGradient id="w" x1="22.043" x2="18.512" y1="9.7188" y2="14.984" gradientUnits="userSpaceOnUse"><stop stop-color="#64D5FF" offset="0"/><stop stop-color="#64D5FF" stop-opacity="0" offset=".58225"/></linearGradient><linearGradient id="v" x1="16.512" x2="19.762" y1="15.781" y2="13.375" gradientUnits="userSpaceOnUse"><stop stop-color="#2769C5" offset="0"/><stop stop-color="#2769C5" stop-opacity="0" offset="1"/></linearGradient><linearGradient id="u" x1="5.346" x2="19.727" y1="23.382" y2="13.83" gradientUnits="userSpaceOnUse"><stop stop-color="#A7A3AE" offset="0"/><stop stop-color="#B4B9CC" offset="1"/></linearGradient><radialGradient id="t" cx="0" cy="0" r="1" gradientTransform="translate(5.9171 13.778) rotate(106.7) scale(5.9622 4.3759)" gradientUnits="userSpaceOnUse"><stop stop-color="#938EA0" offset="0"/><stop stop-color="#938EA0" stop-opacity="0" offset="1"/></radialGradient><radialGradient id="s" cx="0" cy="0" r="1" gradientTransform="translate(5.5018 18.632) rotate(-80.241) scale(6.5848 3.0475)" gradientUnits="userSpaceOnUse"><stop stop-color="#615D90" offset=".22184"/><stop stop-color="#88839B" stop-opacity="0" offset="1"/></radialGradient><radialGradient id="r" cx="0" cy="0" r="1" gradientTransform="translate(13.756 24.109) rotate(154.01) scale(6.9888 2.3683)" gradientUnits="userSpaceOnUse"><stop stop-color="#AB83D0" offset="0"/><stop stop-color="#AB83D0" stop-opacity="0" offset="1"/></radialGradient><radialGradient id="q" cx="0" cy="0" r="1" gradientTransform="translate(18.247 11.571) rotate(123.38) scale(6.5588 1.8162)" gradientUnits="userSpaceOnUse"><stop stop-color="#7D8FB1" offset=".084881"/><stop stop-color="#7D8FB1" stop-opacity="0" offset="1"/></radialGradient><linearGradient id="p" x1="23.23" x2="2.9034" y1="8.4375" y2="8.4375" gradientUnits="userSpaceOnUse"><stop stop-color="#38C1FF" offset="0"/><stop stop-color="#3374CB" offset=".88553"/></linearGradient><linearGradient id="o" x1="29.512" x2="26.73" y1="9.4062" y2="9.4062" gradientUnits="userSpaceOnUse"><stop stop-color="#5CC6F8" offset="0"/><stop stop-color="#5CC6F8" stop-opacity="0" offset="1"/></linearGradient><linearGradient id="n" x1="17.949" x2="17.949" y1="10.406" y2="9.2812" gradientUnits="userSpaceOnUse"><stop stop-color="#2D72E5" offset="0"/><stop stop-color="#357FD3" stop-opacity="0" offset="1"/></linearGradient><radialGradient id="l" cx="0" cy="0" r="1" gradientTransform="translate(23.793 6.4062) rotate(90) scale(.5625 13.894)" gradientUnits="userSpaceOnUse"><stop stop-color="#6df" offset="0"/><stop stop-color="#6df" stop-opacity="0" offset="1"/></radialGradient><linearGradient id="k" x1="2.4804" x2="6.7304" y1="8.4375" y2="8.0078" gradientUnits="userSpaceOnUse"><stop stop-color="#6C84B1" offset="0"/><stop stop-color="#6C84B1" stop-opacity="0" offset="1"/></linearGradient><radialGradient id="j" cx="0" cy="0" r="1" gradientTransform="translate(18.481 16.113) rotate(124.11) scale(7.7756 1.8816)" gradientUnits="userSpaceOnUse"><stop stop-color="#DCD5E4" offset=".17832"/><stop stop-color="#DCD5E4" stop-opacity="0" offset="1"/></radialGradient><radialGradient id="i" cx="0" cy="0" r="1" gradientTransform="translate(3.5051 21.513) rotate(78.672) scale(3.5573 1.7892)" gradientUnits="userSpaceOnUse"><stop stop-color="#A3A1AE" offset="0"/><stop stop-color="#A3A1AE" stop-opacity="0" offset="1"/></radialGradient></defs></svg>
