<svg fill="none" viewBox="0 0 32 32" xmlns="http://www.w3.org/2000/svg"><g filter="url(#l)"><path d="m5.0723 4.6352c0-0.88366 0.71634-1.6 1.6-1.6h18.655c0.8837 0 1.6 0.71634 1.6 1.6v23.734c0 0.8837-0.7163 1.6001-1.6 1.6001h-18.655c-0.88366 0-1.6-0.7164-1.6-1.6001v-23.734z" fill="url(#e)"/><path d="m5.0723 4.6352c0-0.88366 0.71634-1.6 1.6-1.6h18.655c0.8837 0 1.6 0.71634 1.6 1.6v23.734c0 0.8837-0.7163 1.6001-1.6 1.6001h-18.655c-0.88366 0-1.6-0.7164-1.6-1.6001v-23.734z" fill="url(#d)"/></g><g filter="url(#k)"><path d="m7.9512 5.5312c-0.69037 0-1.25 0.55963-1.25 1.25v20.191c0 0.6903 0.55963 1.25 1.25 1.25h10.691c0.199 0 0.3897-0.0791 0.5304-0.2197l5.1526-5.1526c0.1406-0.1406 0.2196-0.3314 0.2196-0.5303v-15.539c0-0.69037-0.5596-1.25-1.25-1.25h-15.344z" fill="#CD7D52"/></g><g filter="url(#j)"><path d="m8.3184 5.1562c-0.69037 0-1.25 0.55963-1.25 1.25v20.191c0 0.6903 0.55963 1.25 1.25 1.25h10.691c0.1989 0 0.3897-0.0791 0.5304-0.2197l5.1525-5.1526c0.1407-0.1406 0.2197-0.3314 0.2197-0.5303v-15.539c0-0.69037-0.5596-1.25-1.25-1.25h-15.344z" fill="url(#c)"/></g><rect x="9.0371" y="12.016" width="13.914" height=".97656" rx=".48828" fill="#9B96A2"/><rect x="9.0371" y="15.023" width="13.914" height=".97656" rx=".48828" fill="#9B96A2"/><rect x="9.0371" y="18.031" width="13.914" height=".97656" rx=".48828" fill="#9B96A2"/><rect x="9.0371" y="21.039" width="8.9688" height=".97656" rx=".48828" fill="#9B96A2"/><g filter="url(#i)"><path d="m24.607 22.03h-0.0038c0 0.2185-0.1222 0.2706-0.2413 0.283h-4.3062c-0.5408 0-0.9791 0.4384-0.9791 0.9791v4.296c-0.0293 0.147-0.2188 0.2307-0.3175 0.2554l-0.0036 0.0038h0.0722c0.1948 0 0.3816-0.0774 0.5193-0.2151l5.0449-5.045c0.1377-0.1377 0.2151-0.3245 0.2151-0.5192v-0.038z" fill="#D0C1E0"/></g><g filter="url(#h)"><path d="m24.912 21.906h-0.0039c0 0.2233-0.1248 0.2765-0.2465 0.2891h-4.398c-0.5523 0-1 0.4477-1 1v4.3876c-0.0299 0.1501-0.2235 0.2357-0.3242 0.2609l-0.0038 0.0039h0.0738c0.1989 0 0.3897-0.0791 0.5304-0.2197l5.1525-5.1526c0.1407-0.1407 0.2197-0.3314 0.2197-0.5303v-0.0389z" fill="url(#b)"/></g><g filter="url(#g)"><path d="m10.779 5.6562c0-0.27614 0.2239-0.5 0.5-0.5h9.1875v2.6562c0 0.27614-0.2239 0.5-0.5 0.5h-8.6875c-0.2761 0-0.5-0.22386-0.5-0.5v-2.1562z" fill="#CABFD5"/></g><g filter="url(#f)"><path d="m15.99 1.9844c1.0792 0 1.9572 0.86145 1.9838 1.9342 7e-4 0.0276 0.023 0.05014 0.0506 0.05014h0.9422c1.1046 0 2 0.89542 2 2v1.5664c0 0.27829-0.2256 0.5039-0.5039 0.5039h-8.9297c-0.2783 0-0.5039-0.22561-0.5039-0.5039v-1.5664c0-1.1046 0.8954-2 2-2h0.9266c0.0276 0 0.0499-0.02254 0.0506-0.05014 0.0266-1.0728 0.9046-1.9342 1.9837-1.9342zm0 2.8828c0.4963 0 0.8985-0.40225 0.8985-0.89844s-0.4022-0.89844-0.8985-0.89844c-0.4962 0-0.8984 0.40225-0.8984 0.89844s0.4022 0.89844 0.8984 0.89844z" clip-rule="evenodd" fill="url(#a)" fill-rule="evenodd"/></g><defs><filter id="l" x="4.7223" y="2.7852" width="22.456" height="27.434" color-interpolation-filters="sRGB" filterUnits="userSpaceOnUse"><feFlood flood-opacity="0" result="BackgroundImageFix"/><feBlend in="SourceGraphic" in2="BackgroundImageFix" result="shape"/><feColorMatrix in="SourceAlpha" result="hardAlpha" values="0 0 0 0 0 0 0 0 0 0 0 0 0 0 0 0 0 0 127 0"/><feOffset dx="0.25"/><feGaussianBlur stdDeviation="0.25"/><feComposite in2="hardAlpha" k2="-1" k3="1" operator="arithmetic"/><feColorMatrix values="0 0 0 0 0.670588 0 0 0 0 0.376471 0 0 0 0 0.278431 0 0 0 1 0"/><feBlend in2="shape" result="effect1_innerShadow_18_23055"/><feColorMatrix in="SourceAlpha" result="hardAlpha" values="0 0 0 0 0 0 0 0 0 0 0 0 0 0 0 0 0 0 127 0"/><feOffset dy="-0.25"/><feGaussianBlur stdDeviation="0.25"/><feComposite in2="hardAlpha" k2="-1" k3="1" operator="arithmetic"/><feColorMatrix values="0 0 0 0 0.643137 0 0 0 0 0.329412 0 0 0 0 0.364706 0 0 0 1 0"/><feBlend in2="effect1_innerShadow_18_23055" result="effect2_innerShadow_18_23055"/><feColorMatrix in="SourceAlpha" result="hardAlpha" values="0 0 0 0 0 0 0 0 0 0 0 0 0 0 0 0 0 0 127 0"/><feOffset dx="-0.35" dy="0.25"/><feGaussianBlur stdDeviation="0.225"/><feComposite in2="hardAlpha" k2="-1" k3="1" operator="arithmetic"/><feColorMatrix values="0 0 0 0 1 0 0 0 0 0.760784 0 0 0 0 0.529412 0 0 0 1 0"/><feBlend in2="effect2_innerShadow_18_23055" result="effect3_innerShadow_18_23055"/><feColorMatrix in="SourceAlpha" result="hardAlpha" values="0 0 0 0 0 0 0 0 0 0 0 0 0 0 0 0 0 0 127 0"/><feOffset dx="-0.05" dy="0.05"/><feGaussianBlur stdDeviation="0.1"/><feComposite in2="hardAlpha" k2="-1" k3="1" operator="arithmetic"/><feColorMatrix values="0 0 0 0 0.815686 0 0 0 0 0.560784 0 0 0 0 0.396078 0 0 0 1 0"/><feBlend in2="effect3_innerShadow_18_23055" result="effect4_innerShadow_18_23055"/></filter><filter id="k" x="6.2012" y="5.0312" width="18.844" height="23.691" color-interpolation-filters="sRGB" filterUnits="userSpaceOnUse"><feFlood flood-opacity="0" result="BackgroundImageFix"/><feBlend in="SourceGraphic" in2="BackgroundImageFix" result="shape"/><feGaussianBlur result="effect1_foregroundBlur_18_23055" stdDeviation="0.25"/></filter><filter id="j" x="6.9184" y="5.0062" width="18.144" height="22.991" color-interpolation-filters="sRGB" filterUnits="userSpaceOnUse"><feFlood flood-opacity="0" result="BackgroundImageFix"/><feBlend in="SourceGraphic" in2="BackgroundImageFix" result="shape"/><feColorMatrix in="SourceAlpha" result="hardAlpha" values="0 0 0 0 0 0 0 0 0 0 0 0 0 0 0 0 0 0 127 0"/><feOffset dx="0.15" dy="-0.15"/><feGaussianBlur stdDeviation="0.15"/><feComposite in2="hardAlpha" k2="-1" k3="1" operator="arithmetic"/><feColorMatrix values="0 0 0 0 0.792157 0 0 0 0 0.721569 0 0 0 0 0.862745 0 0 0 1 0"/><feBlend in2="shape" result="effect1_innerShadow_18_23055"/><feColorMatrix in="SourceAlpha" result="hardAlpha" values="0 0 0 0 0 0 0 0 0 0 0 0 0 0 0 0 0 0 127 0"/><feOffset dx="-0.15" dy="0.15"/><feGaussianBlur stdDeviation="0.15"/><feComposite in2="hardAlpha" k2="-1" k3="1" operator="arithmetic"/><feColorMatrix values="0 0 0 0 1 0 0 0 0 1 0 0 0 0 1 0 0 0 1 0"/><feBlend in2="effect1_innerShadow_18_23055" result="effect2_innerShadow_18_23055"/></filter><filter id="i" x="18.506" y="21.78" width="6.3516" height="6.3173" color-interpolation-filters="sRGB" filterUnits="userSpaceOnUse"><feFlood flood-opacity="0" result="BackgroundImageFix"/><feBlend in="SourceGraphic" in2="BackgroundImageFix" result="shape"/><feGaussianBlur result="effect1_foregroundBlur_18_23055" stdDeviation="0.125"/></filter><filter id="h" x="18.936" y="21.906" width="6.1264" height="6.0414" color-interpolation-filters="sRGB" filterUnits="userSpaceOnUse"><feFlood flood-opacity="0" result="BackgroundImageFix"/><feBlend in="SourceGraphic" in2="BackgroundImageFix" result="shape"/><feColorMatrix in="SourceAlpha" result="hardAlpha" values="0 0 0 0 0 0 0 0 0 0 0 0 0 0 0 0 0 0 127 0"/><feOffset dx="0.15"/><feGaussianBlur stdDeviation="0.125"/><feComposite in2="hardAlpha" k2="-1" k3="1" operator="arithmetic"/><feColorMatrix values="0 0 0 0 0.662745 0 0 0 0 0.611765 0 0 0 0 0.705882 0 0 0 1 0"/><feBlend in2="shape" result="effect1_innerShadow_18_23055"/><feColorMatrix in="SourceAlpha" result="hardAlpha" values="0 0 0 0 0 0 0 0 0 0 0 0 0 0 0 0 0 0 127 0"/><feOffset dy="0.1"/><feGaussianBlur stdDeviation="0.075"/><feComposite in2="hardAlpha" k2="-1" k3="1" operator="arithmetic"/><feColorMatrix values="0 0 0 0 0.878431 0 0 0 0 0.866667 0 0 0 0 0.890196 0 0 0 1 0"/><feBlend in2="effect1_innerShadow_18_23055" result="effect2_innerShadow_18_23055"/></filter><filter id="g" x="10.379" y="4.7562" width="10.488" height="3.9562" color-interpolation-filters="sRGB" filterUnits="userSpaceOnUse"><feFlood flood-opacity="0" result="BackgroundImageFix"/><feBlend in="SourceGraphic" in2="BackgroundImageFix" result="shape"/><feGaussianBlur result="effect1_foregroundBlur_18_23055" stdDeviation="0.2"/></filter><filter id="f" x="10.929" y="1.8844" width="10.138" height="6.2547" color-interpolation-filters="sRGB" filterUnits="userSpaceOnUse"><feFlood flood-opacity="0" result="BackgroundImageFix"/><feBlend in="SourceGraphic" in2="BackgroundImageFix" result="shape"/><feColorMatrix in="SourceAlpha" result="hardAlpha" values="0 0 0 0 0 0 0 0 0 0 0 0 0 0 0 0 0 0 127 0"/><feOffset dx="0.1" dy="-0.1"/><feGaussianBlur stdDeviation="0.1"/><feComposite in2="hardAlpha" k2="-1" k3="1" operator="arithmetic"/><feColorMatrix values="0 0 0 0 0.556863 0 0 0 0 0.501961 0 0 0 0 0.572549 0 0 0 1 0"/><feBlend in2="shape" result="effect1_innerShadow_18_23055"/><feColorMatrix in="SourceAlpha" result="hardAlpha" values="0 0 0 0 0 0 0 0 0 0 0 0 0 0 0 0 0 0 127 0"/><feOffset dx="-0.1" dy="0.1"/><feGaussianBlur stdDeviation="0.05"/><feComposite in2="hardAlpha" k2="-1" k3="1" operator="arithmetic"/><feColorMatrix values="0 0 0 0 0.67451 0 0 0 0 0.65098 0 0 0 0 0.670588 0 0 0 1 0"/><feBlend in2="effect1_innerShadow_18_23055" result="effect2_innerShadow_18_23055"/></filter><linearGradient id="e" x1="16" x2="16" y1="3.0352" y2="29.969" gradientUnits="userSpaceOnUse"><stop stop-color="#E8A874" offset="0"/><stop stop-color="#DB925D" offset="1"/></linearGradient><radialGradient id="d" cx="0" cy="0" r="1" gradientTransform="translate(15.686 5.3125) rotate(-90) scale(2.5 2.0286)" gradientUnits="userSpaceOnUse"><stop stop-color="#D79769" offset="0"/><stop stop-color="#D79769" stop-opacity="0" offset="1"/></radialGradient><linearGradient id="c" x1="15.99" x2="15.99" y1="5.1562" y2="27.848" gradientUnits="userSpaceOnUse"><stop stop-color="#EAE2F4" offset="0"/><stop stop-color="#E4DAEF" offset="1"/></linearGradient><linearGradient id="b" x1="19.342" x2="21.623" y1="22.688" y2="25.156" gradientUnits="userSpaceOnUse"><stop stop-color="#D6CDE1" offset="0"/><stop stop-color="#C6BAD2" offset="1"/></linearGradient><linearGradient id="a" x1="18.717" x2="15.654" y1="3.7812" y2="8.2188" gradientUnits="userSpaceOnUse"><stop stop-color="#948A94" offset="0"/><stop stop-color="#8D8291" offset="1"/></linearGradient></defs></svg>
