<svg fill="none" viewBox="0 0 32 32" xmlns="http://www.w3.org/2000/svg"><path d="m10.908 2.4938c0-0.22091 0.1791-0.4 0.4-0.4h0.4031c0.2209 0 0.4 0.17909 0.4 0.4v2.1234h-1.2031v-2.1234z" fill="#2D83CB"/><path d="m10.908 2.4938c0-0.22091 0.1791-0.4 0.4-0.4h0.4031c0.2209 0 0.4 0.17909 0.4 0.4v2.1234h-1.2031v-2.1234z" fill="url(#o)"/><path d="m10.908 2.4938c0-0.22091 0.1791-0.4 0.4-0.4h0.4031c0.2209 0 0.4 0.17909 0.4 0.4v2.1234h-1.2031v-2.1234z" fill="url(#j)"/><path d="m19.986 2.4938c0-0.22091 0.1791-0.4 0.4-0.4h0.4032c0.2209 0 0.4 0.17909 0.4 0.4v2.1234h-1.2032v-2.1234z" fill="#2D83CB"/><path d="m19.986 2.4938c0-0.22091 0.1791-0.4 0.4-0.4h0.4032c0.2209 0 0.4 0.17909 0.4 0.4v2.1234h-1.2032v-2.1234z" fill="url(#i)"/><path d="m19.986 2.4938c0-0.22091 0.1791-0.4 0.4-0.4h0.4032c0.2209 0 0.4 0.17909 0.4 0.4v2.1234h-1.2032v-2.1234z" fill="url(#h)"/><g filter="url(#t)"><path d="m10.006 5.6339 1.2508 5.2837c0.016 0.0672 0.0792 0.1101 0.1483 0.1106h9.2773c0.0691-5e-4 0.129-0.0482 0.1449-0.1154l1.265-5.2789c0.1712-0.72232-0.3767-1.4152-1.119-1.4152h-1.8628c-1.108 0-2.1257 0.61064-2.6471 1.5882l-0.3701 0.69395c-0.0188 0.0353-0.0694 0.0353-0.0882 0l-0.3701-0.69395c-0.5214-0.9776-1.5392-1.5882-2.6471-1.5882h-1.8629c-0.7423 0-1.2901 0.69283-1.119 1.4152z" fill="url(#g)"/><path d="m10.006 5.6339 1.2508 5.2837c0.016 0.0672 0.0792 0.1101 0.1483 0.1106h9.2773c0.0691-5e-4 0.129-0.0482 0.1449-0.1154l1.265-5.2789c0.1712-0.72232-0.3767-1.4152-1.119-1.4152h-1.8628c-1.108 0-2.1257 0.61064-2.6471 1.5882l-0.3701 0.69395c-0.0188 0.0353-0.0694 0.0353-0.0882 0l-0.3701-0.69395c-0.5214-0.9776-1.5392-1.5882-2.6471-1.5882h-1.8629c-0.7423 0-1.2901 0.69283-1.119 1.4152z" fill="url(#f)"/><path d="m10.006 5.6339 1.2508 5.2837c0.016 0.0672 0.0792 0.1101 0.1483 0.1106h9.2773c0.0691-5e-4 0.129-0.0482 0.1449-0.1154l1.265-5.2789c0.1712-0.72232-0.3767-1.4152-1.119-1.4152h-1.8628c-1.108 0-2.1257 0.61064-2.6471 1.5882l-0.3701 0.69395c-0.0188 0.0353-0.0694 0.0353-0.0882 0l-0.3701-0.69395c-0.5214-0.9776-1.5392-1.5882-2.6471-1.5882h-1.8629c-0.7423 0-1.2901 0.69283-1.119 1.4152z" fill="url(#e)"/></g><rect x="11.264" y="11.031" width="9.5703" height="1" rx=".1" fill="url(#d)"/><rect x="11.264" y="11.031" width="9.5703" height="1" rx=".1" fill="url(#c)"/><rect x="11.264" y="11.031" width="9.5703" height="1" rx=".1" fill="url(#b)"/><rect x="11.264" y="11.031" width="9.5703" height="1" rx=".1" fill="url(#n)"/><g filter="url(#s)"><path d="m11.359 12.087-6.9585 13.944c-0.44062 0.7188-0.89692 2.1407 0.14159 3.1797 1.1874 1.188 2.5726 0.6696 3.2964 0 0.16746-0.1549 0.31111-0.284 0.43223-0.3909 0.25081-0.2213 0.68158-0.1552 0.90124 0.0967 0.44002 0.5046 1.1171 1.0523 1.8686 1.0523 1.0407 0 1.5849-0.5506 1.838-0.8066l3e-3 -0.0031 0.2784-0.2931c0.2527-0.266 0.6096-0.2728 0.8708-0.015l0.5108 0.5043c0.2753 0.2945 0.7789 0.5898 1.5184 0.5898 0.7396 0 1.2384-0.2953 1.5138-0.5898l0.5107-0.5043c0.2612-0.2578 0.6228-0.251 0.8755 0.015l0.2785 0.2931 3e-3 0.0031c0.2531 0.256 0.7973 0.8066 1.8379 0.8066 0.7515 0 1.4286-0.5477 1.8687-1.0523 0.2196-0.2519 0.6504-0.318 0.9012-0.0967 0.1211 0.1069 0.2648 0.236 0.4322 0.3909 0.7238 0.6696 2.1091 1.188 3.2965 0 1.0385-1.039 0.5822-2.4609 0.1416-3.1797l-6.9586-13.944c-0.017-0.034-0.0519-0.0556-0.0902-0.0556h-9.2215c-0.0383 0-0.0733 0.0216-0.0903 0.0556z" fill="url(#a)"/></g><g filter="url(#r)"><path d="m11.359 12.087-6.9585 13.944c-0.44062 0.7188-0.89692 2.1407 0.14159 3.1797 1.1874 1.188 2.5726 0.6696 3.2964 0 0.16746-0.1549 0.31111-0.284 0.43223-0.3909 0.25081-0.2213 0.68158-0.1552 0.90124 0.0967 0.44002 0.5046 1.1171 1.0523 1.8686 1.0523 1.0407 0 1.5849-0.5506 1.838-0.8066l3e-3 -0.0031 0.2784-0.2931c0.2527-0.266 0.6096-0.2728 0.8708-0.015l0.5108 0.5043c0.2753 0.2945 0.7789 0.5898 1.5184 0.5898 0.7396 0 1.2384-0.2953 1.5138-0.5898l0.5107-0.5043c0.2612-0.2578 0.6228-0.251 0.8755 0.015l0.2785 0.2931 3e-3 0.0031c0.2531 0.256 0.7973 0.8066 1.8379 0.8066 0.7515 0 1.4286-0.5477 1.8687-1.0523 0.2196-0.2519 0.6504-0.318 0.9012-0.0967 0.1211 0.1069 0.2648 0.236 0.4322 0.3909 0.7238 0.6696 2.1091 1.188 3.2965 0 1.0385-1.039 0.5822-2.4609 0.1416-3.1797l-6.9586-13.944c-0.017-0.034-0.0519-0.0556-0.0902-0.0556h-9.2215c-0.0383 0-0.0733 0.0216-0.0903 0.0556z" fill="url(#a)"/></g><path d="m11.359 12.087-6.9585 13.944c-0.44062 0.7188-0.89692 2.1407 0.14159 3.1797 1.1874 1.188 2.5726 0.6696 3.2964 0 0.16746-0.1549 0.31111-0.284 0.43223-0.3909 0.25081-0.2213 0.68158-0.1552 0.90124 0.0967 0.44002 0.5046 1.1171 1.0523 1.8686 1.0523 1.0407 0 1.5849-0.5506 1.838-0.8066l3e-3 -0.0031 0.2784-0.2931c0.2527-0.266 0.6096-0.2728 0.8708-0.015l0.5108 0.5043c0.2753 0.2945 0.7789 0.5898 1.5184 0.5898 0.7396 0 1.2384-0.2953 1.5138-0.5898l0.5107-0.5043c0.2612-0.2578 0.6228-0.251 0.8755 0.015l0.2785 0.2931 3e-3 0.0031c0.2531 0.256 0.7973 0.8066 1.8379 0.8066 0.7515 0 1.4286-0.5477 1.8687-1.0523 0.2196-0.2519 0.6504-0.318 0.9012-0.0967 0.1211 0.1069 0.2648 0.236 0.4322 0.3909 0.7238 0.6696 2.1091 1.188 3.2965 0 1.0385-1.039 0.5822-2.4609 0.1416-3.1797l-6.9586-13.944c-0.017-0.034-0.0519-0.0556-0.0902-0.0556h-9.2215c-0.0383 0-0.0733 0.0216-0.0903 0.0556z" fill="url(#m)"/><g filter="url(#q)"><path d="m13.785 4.6172c0.3493 0.09543 1.1473 0.46565 1.5449 1.183 0.3975 0.71739 0.5353 0.9563 0.5545 0.98608" stroke="url(#l)" stroke-linecap="round" stroke-width=".25"/></g><g filter="url(#p)"><path d="m17.241 5.3359c0.1615-0.25 0.6594-0.75 1.3594-0.75h2.1172c0.1667 0.00521 0.5578 0.05937 0.789 0.23437" stroke="url(#k)" stroke-linecap="round" stroke-width=".25"/></g><defs><filter id="t" x="9.9741" y="4.2188" width="12.149" height="6.9594" color-interpolation-filters="sRGB" filterUnits="userSpaceOnUse"><feFlood flood-opacity="0" result="BackgroundImageFix"/><feBlend in="SourceGraphic" in2="BackgroundImageFix" result="shape"/><feColorMatrix in="SourceAlpha" result="hardAlpha" values="0 0 0 0 0 0 0 0 0 0 0 0 0 0 0 0 0 0 127 0"/><feOffset dy="0.15"/><feGaussianBlur stdDeviation="0.125"/><feComposite in2="hardAlpha" k2="-1" k3="1" operator="arithmetic"/><feColorMatrix values="0 0 0 0 0.196078 0 0 0 0 0.427451 0 0 0 0 0.74902 0 0 0 1 0"/><feBlend in2="shape" result="effect1_innerShadow_18_16638"/></filter><filter id="s" x="3.4106" y="11.281" width="24.799" height="18.688" color-interpolation-filters="sRGB" filterUnits="userSpaceOnUse"><feFlood flood-opacity="0" result="BackgroundImageFix"/><feBlend in="SourceGraphic" in2="BackgroundImageFix" result="shape"/><feColorMatrix in="SourceAlpha" result="hardAlpha" values="0 0 0 0 0 0 0 0 0 0 0 0 0 0 0 0 0 0 127 0"/><feOffset dx="-0.25" dy="-0.25"/><feGaussianBlur stdDeviation="0.25"/><feComposite in2="hardAlpha" k2="-1" k3="1" operator="arithmetic"/><feColorMatrix values="0 0 0 0 0.356863 0 0 0 0 0.627451 0 0 0 0 0.917647 0 0 0 1 0"/><feBlend in2="shape" result="effect1_innerShadow_18_16638"/><feColorMatrix in="SourceAlpha" result="hardAlpha" values="0 0 0 0 0 0 0 0 0 0 0 0 0 0 0 0 0 0 127 0"/><feOffset dx="-0.5" dy="-0.75"/><feGaussianBlur stdDeviation="0.375"/><feComposite in2="hardAlpha" k2="-1" k3="1" operator="arithmetic"/><feColorMatrix values="0 0 0 0 0.34902 0 0 0 0 0.596078 0 0 0 0 1 0 0 0 1 0"/><feBlend in2="effect1_innerShadow_18_16638" result="effect2_innerShadow_18_16638"/><feColorMatrix in="SourceAlpha" result="hardAlpha" values="0 0 0 0 0 0 0 0 0 0 0 0 0 0 0 0 0 0 127 0"/><feOffset dy="-0.5"/><feGaussianBlur stdDeviation="0.375"/><feComposite in2="hardAlpha" k2="-1" k3="1" operator="arithmetic"/><feColorMatrix values="0 0 0 0 0.290196 0 0 0 0 0.34902 0 0 0 0 1 0 0 0 1 0"/><feBlend in2="effect2_innerShadow_18_16638" result="effect3_innerShadow_18_16638"/></filter><filter id="r" x="3.4106" y="11.281" width="24.799" height="18.688" color-interpolation-filters="sRGB" filterUnits="userSpaceOnUse"><feFlood flood-opacity="0" result="BackgroundImageFix"/><feBlend in="SourceGraphic" in2="BackgroundImageFix" result="shape"/><feColorMatrix in="SourceAlpha" result="hardAlpha" values="0 0 0 0 0 0 0 0 0 0 0 0 0 0 0 0 0 0 127 0"/><feOffset dx="-0.25" dy="-0.25"/><feGaussianBlur stdDeviation="0.25"/><feComposite in2="hardAlpha" k2="-1" k3="1" operator="arithmetic"/><feColorMatrix values="0 0 0 0 0.356863 0 0 0 0 0.627451 0 0 0 0 0.917647 0 0 0 1 0"/><feBlend in2="shape" result="effect1_innerShadow_18_16638"/><feColorMatrix in="SourceAlpha" result="hardAlpha" values="0 0 0 0 0 0 0 0 0 0 0 0 0 0 0 0 0 0 127 0"/><feOffset dx="-0.5" dy="-0.75"/><feGaussianBlur stdDeviation="0.375"/><feComposite in2="hardAlpha" k2="-1" k3="1" operator="arithmetic"/><feColorMatrix values="0 0 0 0 0.34902 0 0 0 0 0.596078 0 0 0 0 1 0 0 0 1 0"/><feBlend in2="effect1_innerShadow_18_16638" result="effect2_innerShadow_18_16638"/><feColorMatrix in="SourceAlpha" result="hardAlpha" values="0 0 0 0 0 0 0 0 0 0 0 0 0 0 0 0 0 0 127 0"/><feOffset dy="-0.5"/><feGaussianBlur stdDeviation="0.375"/><feComposite in2="hardAlpha" k2="-1" k3="1" operator="arithmetic"/><feColorMatrix values="0 0 0 0 0.290196 0 0 0 0 0.34902 0 0 0 0 1 0 0 0 1 0"/><feBlend in2="effect2_innerShadow_18_16638" result="effect3_innerShadow_18_16638"/></filter><filter id="q" x="13.51" y="4.3422" width="2.6494" height="2.7192" color-interpolation-filters="sRGB" filterUnits="userSpaceOnUse"><feFlood flood-opacity="0" result="BackgroundImageFix"/><feBlend in="SourceGraphic" in2="BackgroundImageFix" result="shape"/><feGaussianBlur result="effect1_foregroundBlur_18_16638" stdDeviation="0.075"/></filter><filter id="p" x="16.966" y="4.3109" width="4.8156" height="1.3" color-interpolation-filters="sRGB" filterUnits="userSpaceOnUse"><feFlood flood-opacity="0" result="BackgroundImageFix"/><feBlend in="SourceGraphic" in2="BackgroundImageFix" result="shape"/><feGaussianBlur result="effect1_foregroundBlur_18_16638" stdDeviation="0.075"/></filter><linearGradient id="o" x1="10.803" x2="11.51" y1="4.375" y2="4.375" gradientUnits="userSpaceOnUse"><stop stop-color="#2A5FA6" offset="0"/><stop stop-color="#2A5FA6" stop-opacity="0" offset="1"/></linearGradient><radialGradient id="j" cx="0" cy="0" r="1" gradientTransform="translate(12.069 4.5117) rotate(-89.118) scale(2.762 .39166)" gradientUnits="userSpaceOnUse"><stop stop-color="#5D9CDB" offset=".16515"/><stop stop-color="#2E84CC" stop-opacity="0" offset="1"/></radialGradient><linearGradient id="i" x1="19.881" x2="20.588" y1="4.375" y2="4.375" gradientUnits="userSpaceOnUse"><stop stop-color="#2A5FA6" offset="0"/><stop stop-color="#2A5FA6" stop-opacity="0" offset="1"/></linearGradient><radialGradient id="h" cx="0" cy="0" r="1" gradientTransform="translate(21.147 4.5117) rotate(-89.118) scale(2.762 .39166)" gradientUnits="userSpaceOnUse"><stop stop-color="#5D9CDB" offset=".16515"/><stop stop-color="#2E84CC" stop-opacity="0" offset="1"/></radialGradient><linearGradient id="g" x1="12.522" x2="18.772" y1="10.594" y2="10.594" gradientUnits="userSpaceOnUse"><stop stop-color="#2E71E2" offset="0"/><stop stop-color="#418FFB" offset="1"/></linearGradient><linearGradient id="f" x1="10.772" x2="15.397" y1="10.062" y2="9.4062" gradientUnits="userSpaceOnUse"><stop stop-color="#385BAA" offset="0"/><stop stop-color="#2A6DDD" stop-opacity="0" offset="1"/></linearGradient><linearGradient id="e" x1="21.178" x2="19.272" y1="9.9062" y2="9.6875" gradientUnits="userSpaceOnUse"><stop stop-color="#3E8DED" offset="0"/><stop stop-color="#3F8CE3" stop-opacity="0" offset="1"/></linearGradient><linearGradient id="d" x1="12.178" x2="18.96" y1="12.031" y2="12.031" gradientUnits="userSpaceOnUse"><stop stop-color="#3E2242" offset="0"/><stop stop-color="#642F67" offset="1"/></linearGradient><radialGradient id="c" cx="0" cy="0" r="1" gradientTransform="translate(19.116 11.031) rotate(90) scale(.32812 6.1172)" gradientUnits="userSpaceOnUse"><stop stop-color="#673C6A" offset=".2381"/><stop stop-color="#673C6A" stop-opacity="0" offset="1"/></radialGradient><linearGradient id="b" x1="16.049" x2="16.049" y1="11.031" y2="11.129" gradientUnits="userSpaceOnUse"><stop stop-color="#331B3B" offset="0"/><stop stop-color="#331B3B" stop-opacity="0" offset="1"/></linearGradient><linearGradient id="n" x1="16.049" x2="16.049" y1="12.094" y2="11.852" gradientUnits="userSpaceOnUse"><stop stop-color="#331B3B" offset="0"/><stop stop-color="#331B3B" stop-opacity="0" offset="1"/></linearGradient><linearGradient id="a" x1="22.991" x2="14.803" y1="19.125" y2="21.438" gradientUnits="userSpaceOnUse"><stop stop-color="#59A4FE" offset="0"/><stop stop-color="#2B7EE5" offset="1"/></linearGradient><linearGradient id="m" x1="6.3659" x2="16.428" y1="20.25" y2="22.812" gradientUnits="userSpaceOnUse"><stop stop-color="#3E639C" offset=".14468"/><stop stop-color="#2979DA" stop-opacity="0" offset="1"/></linearGradient><linearGradient id="l" x1="15.741" x2="13.897" y1="6.6875" y2="4.9062" gradientUnits="userSpaceOnUse"><stop stop-color="#5E93EB" offset="0"/><stop stop-color="#5E93EB" stop-opacity="0" offset="1"/></linearGradient><radialGradient id="k" cx="0" cy="0" r="1" gradientTransform="translate(21.71 4.8594) rotate(178.53) scale(3.97 1.3923)" gradientUnits="userSpaceOnUse"><stop stop-color="#5FA0F4" stop-opacity="0" offset=".1952"/><stop stop-color="#5FA0F4" offset=".7547"/><stop stop-color="#5FA0F4" stop-opacity="0" offset="1"/></radialGradient></defs></svg>
