<?xml version="1.0" encoding="UTF-8"?>
<svg width="3300px" height="2200px" viewBox="0 0 3300 2200" version="1.1" xmlns="http://www.w3.org/2000/svg" xmlns:xlink="http://www.w3.org/1999/xlink">
    <title>threema.video.fill</title>
    <g id="Page-1" stroke="none" stroke-width="1" fill="none" fill-rule="evenodd">
        <g id="music.note.tv.fill">
            <g id="Notes">
                <rect id="artboard" fill="#FFFFFF" fill-rule="nonzero" x="0" y="0" width="3300" height="2200"></rect>
                <text id="Weight/Scale-Variations" fill="#000000" fill-rule="nonzero" font-family="Helvetica" font-size="13" font-weight="normal">
                    <tspan x="263" y="322">Weight/Scale Variations</tspan>
                </text>
                <text id="Ultralight" fill="#000000" fill-rule="nonzero" font-family="Helvetica" font-size="13" font-weight="normal">
                    <tspan x="533.711" y="322">Ultralight</tspan>
                </text>
                <text id="Thin" fill="#000000" fill-rule="nonzero" font-family="Helvetica" font-size="13" font-weight="normal">
                    <tspan x="843.422" y="322">Thin</tspan>
                </text>
                <text id="Light" fill="#000000" fill-rule="nonzero" font-family="Helvetica" font-size="13" font-weight="normal">
                    <tspan x="1138.63" y="322">Light</tspan>
                </text>
                <text id="Regular" fill="#000000" fill-rule="nonzero" font-family="Helvetica" font-size="13" font-weight="normal">
                    <tspan x="1426.84" y="322">Regular</tspan>
                </text>
                <text id="Medium" fill="#000000" fill-rule="nonzero" font-family="Helvetica" font-size="13" font-weight="normal">
                    <tspan x="1723.06" y="322">Medium</tspan>
                </text>
                <text id="Semibold" fill="#000000" fill-rule="nonzero" font-family="Helvetica" font-size="13" font-weight="normal">
                    <tspan x="2015.77" y="322">Semibold</tspan>
                </text>
                <text id="Bold" fill="#000000" fill-rule="nonzero" font-family="Helvetica" font-size="13" font-weight="normal">
                    <tspan x="2326.48" y="322">Bold</tspan>
                </text>
                <text id="Heavy" fill="#000000" fill-rule="nonzero" font-family="Helvetica" font-size="13" font-weight="normal">
                    <tspan x="2618.19" y="322">Heavy</tspan>
                </text>
                <text id="Black" fill="#000000" fill-rule="nonzero" font-family="Helvetica" font-size="13" font-weight="normal">
                    <tspan x="2917.4" y="322">Black</tspan>
                </text>
                <line x1="263" y1="1903" x2="3036" y2="1903" id="Path" stroke="#000000" stroke-width="0.5"></line>
                <g id="Group" transform="translate(264.367190, 1918.068400)" fill="#000000" fill-rule="nonzero">
                    <path d="M7.88086,15.761678 C8.96156,15.761678 9.97717667,15.5566 10.92771,15.146444 C11.8782433,14.7362873 12.7164767,14.166626 13.44241,13.43746 C14.1682767,12.7082933 14.7379433,11.86845 15.15141,10.91793 C15.56481,9.96741 15.77151,8.95504 15.77151,7.88082 C15.77151,6.8066 15.56481,5.79422667 15.15141,4.8437 C14.7379433,3.89316667 14.1666433,3.05333333 13.43751,2.3242 C12.70831,1.595 11.8684767,1.02533333 10.91801,0.6152 C9.96747667,0.205066667 8.95183667,0 7.87109,0 C6.79687,0 5.7845,0.205066667 4.83398,0.6152 C3.88346,1.02533333 3.04687333,1.595 2.32422,2.3242 C1.60156,3.05333333 1.03352333,3.89316667 0.62011,4.8437 C0.206703333,5.79422667 -8.8817842e-16,6.8066 -8.8817842e-16,7.88082 C-8.8817842e-16,8.95504 0.206703333,9.96741 0.62011,10.91793 C1.03352333,11.86845 1.60318667,12.7082933 2.3291,13.43746 C3.05501333,14.166626 3.89323,14.7362873 4.84375,15.146444 C5.79427,15.5566 6.80664,15.761678 7.88086,15.761678 Z M7.88086,14.277303 C6.99544,14.277303 6.16699,14.1129153 5.39551,13.78414 C4.62402333,13.4553667 3.94694,12.99801 3.36426,12.41207 C2.78157333,11.82613 2.32584333,11.14579 1.99707,10.37105 C1.66829,9.59631 1.5039,8.76623333 1.5039,7.88082 C1.5039,6.9954 1.66666333,6.16532 1.99219,5.39058 C2.31771,4.61586 2.77181,3.93553333 3.35449,3.3496 C3.93717,2.76366667 4.61425333,2.3063 5.38574,1.9775 C6.15722667,1.6487 6.98567667,1.4843 7.87109,1.4843 C8.76303667,1.4843 9.59474333,1.6487 10.36621,1.9775 C11.1376767,2.3063 11.8163767,2.76366667 12.40231,3.3496 C12.9882433,3.93553333 13.4472433,4.61586 13.77931,5.39058 C14.11131,6.16532 14.27731,6.9954 14.27731,7.88082 C14.27731,8.76623333 14.1129433,9.59631 13.78421,10.37105 C13.45541,11.14579 12.9996767,11.82613 12.41701,12.41207 C11.8343433,12.99801 11.15561,13.4553667 10.38081,13.78414 C9.60607667,14.1129153 8.77276,14.277303 7.88086,14.277303 Z M4.28711,7.88082 C4.28711,8.09566 4.35547,8.26981333 4.49219,8.40328 C4.62890333,8.53674667 4.81119333,8.60348 5.03906,8.60348 L7.14843,8.60348 L7.14843,10.72262 C7.14843,10.93746 7.21353667,11.1148667 7.34375,11.25484 C7.47395667,11.3948133 7.64973667,11.4648 7.87109,11.4648 C8.08593667,11.4648 8.26334667,11.3948133 8.40332,11.25484 C8.54329333,11.1148667 8.61328,10.93746 8.61328,10.72262 L8.61328,8.60348 L10.72261,8.60348 C10.94401,8.60348 11.1230767,8.53674667 11.25981,8.40328 C11.3964767,8.26981333 11.46481,8.09566 11.46481,7.88082 C11.46481,7.65946667 11.3964767,7.48043 11.25981,7.34371 C11.1230767,7.20699 10.94401,7.13863 10.72261,7.13863 L8.61328,7.13863 L8.61328,5.02926 C8.61328,4.80788667 8.54329333,4.62723333 8.40332,4.4873 C8.26334667,4.3473 8.08593667,4.2773 7.87109,4.2773 C7.64973667,4.2773 7.47395667,4.3473 7.34375,4.4873 C7.21353667,4.62723333 7.14843,4.80788667 7.14843,5.02926 L7.14843,7.13863 L5.03906,7.13863 C4.81119333,7.13863 4.62890333,7.20699 4.49219,7.34371 C4.35547,7.48043 4.28711,7.65946667 4.28711,7.88082 Z" id="Shape"></path>
                </g>
                <g id="Group" transform="translate(283.615050, 1915.988300)" fill="#000000" fill-rule="nonzero">
                    <path d="M9.96095,19.92186 C11.3216167,19.92186 12.60255,19.6614433 13.80375,19.14061 C15.0048833,18.6197767 16.06445,17.9003744 16.98245,16.9824031 C17.9003833,16.0644344 18.6197833,15.0048633 19.14065,13.80369 C19.66145,12.6025167 19.92185,11.3215933 19.92185,9.96092 C19.92185,8.60024 19.66145,7.3193 19.14065,6.1181 C18.6197833,4.91696667 17.9003833,3.8574 16.98245,2.9394 C16.06445,2.02146667 15.00325,1.30206667 13.79885,0.7812 C12.5943833,0.2604 11.3118167,0 9.95115,0 C8.59048333,0 7.30956667,0.2604 6.1084,0.7812 C4.90722667,1.30206667 3.84928333,2.02146667 2.93457,2.9394 C2.01985667,3.8574 1.30208333,4.91696667 0.78125,6.1181 C0.260416667,7.3193 8.8817842e-16,8.60024 8.8817842e-16,9.96092 C8.8817842e-16,11.3215933 0.260416667,12.6025167 0.78125,13.80369 C1.30208333,15.0048633 2.02148333,16.0644344 2.93945,16.9824031 C3.85741667,17.9003744 4.91698667,18.6197767 6.11816,19.14061 C7.31933333,19.6614433 8.60026333,19.92186 9.96095,19.92186 Z M9.96095,18.2617 C8.80859667,18.2617 7.73111667,18.0468563 6.72851,17.617169 C5.72591,17.1874813 4.84537667,16.593405 4.08691,15.83494 C3.32845,15.07648 2.73600333,14.1959467 2.30957,13.19334 C1.88313667,12.1907333 1.66992,11.11326 1.66992,9.96092 C1.66992,8.80857333 1.88313667,7.7311 2.30957,6.7285 C2.73600333,5.7259 3.32682333,4.84373333 4.08203,4.082 C4.83723667,3.32026667 5.71614333,2.7262 6.71875,2.2998 C7.72135,1.87333333 8.79881667,1.6601 9.95115,1.6601 C11.1034833,1.6601 12.18095,1.87333333 13.18355,2.2998 C14.18615,2.7262 15.0683167,3.32026667 15.83005,4.082 C16.5917833,4.84373333 17.1874833,5.7259 17.61715,6.7285 C18.0468833,7.7311 18.26175,8.80857333 18.26175,9.96092 C18.26175,11.11326 18.0485167,12.1907333 17.62205,13.19334 C17.19565,14.1959467 16.6032167,15.07648 15.84475,15.83494 C15.0862833,16.593405 14.2041167,17.1874813 13.19825,17.617169 C12.1923833,18.0468563 11.1132833,18.2617 9.96095,18.2617 Z M5.42968,9.96092 C5.42968,10.1952933 5.50780667,10.38735 5.66406,10.53709 C5.82030667,10.68683 6.02213,10.7617 6.26953,10.7617 L9.14065,10.7617 L9.14065,13.64256 C9.14065,13.8899533 9.21551667,14.09015 9.36525,14.24315 C9.51498333,14.3961433 9.70705,14.47264 9.94145,14.47264 C10.1887833,14.47264 10.38895,14.3961433 10.54195,14.24315 C10.69495,14.09015 10.77145,13.8899533 10.77145,13.64256 L10.77145,10.7617 L13.65235,10.7617 C13.89975,10.7617 14.09995,10.68683 14.25295,10.53709 C14.40595,10.38735 14.48245,10.1952933 14.48245,9.96092 C14.48245,9.71352 14.40595,9.51332333 14.25295,9.36033 C14.09995,9.20733667 13.89975,9.13084 13.65235,9.13084 L10.77145,9.13084 L10.77145,6.2597 C10.77145,6.00583333 10.69495,5.8024 10.54195,5.6494 C10.38895,5.4964 10.1887833,5.4199 9.94145,5.4199 C9.70705,5.4199 9.51498333,5.49803333 9.36525,5.6543 C9.21551667,5.81056667 9.14065,6.01236667 9.14065,6.2597 L9.14065,9.13084 L6.26953,9.13084 C6.01562333,9.13084 5.81217333,9.20733667 5.65918,9.36033 C5.50618,9.51332333 5.42968,9.71352 5.42968,9.96092 Z" id="Shape"></path>
                </g>
                <g id="Group" transform="translate(307.901860, 1913.224600)" fill="#000000" fill-rule="nonzero">
                    <path d="M12.71484,25.43946 C14.10804,25.43946 15.4378067,25.22299 16.70414,24.79005 C17.9704067,24.3571033 19.13414,23.7500067 20.19534,22.96876 C21.25654,22.1875067 22.1793733,21.2662827 22.96384,20.205088 C23.7483733,19.1438893 24.3571067,17.9785233 24.79004,16.70899 C25.2229733,15.4394633 25.43944,14.11134 25.43944,12.72462 C25.43944,11.3313933 25.2229733,10.0016533 24.79004,8.7354 C24.3571067,7.46906667 23.7483733,6.30533333 22.96384,5.2442 C22.1793733,4.183 21.25654,3.26013333 20.19534,2.4756 C19.13414,1.69106667 17.9687733,1.08233333 16.69924,0.6494 C15.4297067,0.216466667 14.0983067,0 12.70504,0 C11.31184,0 9.98210667,0.216466667 8.71584,0.6494 C7.44955333,1.08233333 6.28743667,1.69106667 5.22949,2.4756 C4.17155,3.26013333 3.25032667,4.183 2.46582,5.2442 C1.68131333,6.30533333 1.07421667,7.46906667 0.64453,8.7354 C0.214843333,10.0016533 0,11.3313933 0,12.72462 C0,14.11134 0.21647,15.4394633 0.64941,16.70899 C1.08235667,17.9785233 1.68945333,19.1438893 2.4707,20.205088 C3.25195333,21.2662827 4.17317667,22.1875067 5.23437,22.96876 C6.29557,23.7500067 7.45929333,24.3571033 8.72554,24.79005 C9.99187333,25.22299 11.32164,25.43946 12.71484,25.43946 Z M12.71484,23.62306 C11.51044,23.62306 10.3629733,23.43914 9.27244,23.0713 C8.18196,22.70346 7.18424667,22.18751 6.2793,21.52345 C5.37434667,20.8593853 4.58821333,20.0732513 3.9209,19.165048 C3.25358,18.2568427 2.73763,17.2574933 2.37305,16.167 C2.00846333,15.0765067 1.82617,13.9290467 1.82617,12.72462 C1.82617,11.51368 2.00846333,10.3629733 2.37305,9.2725 C2.73763,8.18196667 3.25195333,7.1826 3.91602,6.2744 C4.58008,5.3662 5.36458333,4.58006667 6.26953,3.916 C7.17447667,3.25193333 8.17221333,2.73763333 9.26274,2.3731 C10.3532067,2.0085 11.50064,1.8262 12.70504,1.8262 C13.9159733,1.8262 15.0667067,2.0085 16.15724,2.3731 C17.2477067,2.73763333 18.24704,3.25193333 19.15524,3.916 C20.06344,4.58006667 20.8495733,5.3662 21.51364,6.2744 C22.1777067,7.1826 22.6936733,8.18196667 23.06154,9.2725 C23.42934,10.3629733 23.6134125,11.51368 23.6134125,12.72462 C23.6197733,13.9290467 23.44074,15.0765067 23.07614,16.167 C22.7116067,17.2574933 22.1956733,18.2568427 21.52834,19.165048 C20.8610067,20.0732513 20.07324,20.8593853 19.16504,21.52345 C18.25684,22.18751 17.2575067,22.70346 16.16704,23.0713 C15.0765067,23.43914 13.9257733,23.62306 12.71484,23.62306 Z M6.94336,12.72462 C6.94336,12.9785267 7.02962333,13.1884867 7.20215,13.3545 C7.37467667,13.5205133 7.59440667,13.60352 7.86134,13.60352 L11.80664,13.60352 L11.80664,17.5586 C11.80664,17.8255267 11.88964,18.0452533 12.05564,18.21778 C12.22164,18.3903067 12.4348733,18.47657 12.69534,18.47657 C12.9622733,18.47657 13.1820067,18.3919367 13.35454,18.22267 C13.5270067,18.0533967 13.61324,17.83204 13.61324,17.5586 L13.61324,13.60352 L17.56834,13.60352 C17.8352733,13.60352 18.0533733,13.5205133 18.22264,13.3545 C18.3919067,13.1884867 18.47654,12.9785267 18.47654,12.72462 C18.47654,12.45118 18.3919067,12.2298267 18.22264,12.06056 C18.0533733,11.8912867 17.8352733,11.80665 17.56834,11.80665 L13.61324,11.80665 L13.61324,7.8613 C13.61324,7.5879 13.5270067,7.36493333 13.35454,7.1924 C13.1820067,7.01986667 12.9622733,6.9336 12.69534,6.9336 C12.4348733,6.9336 12.22164,7.01986667 12.05564,7.1924 C11.88964,7.36493333 11.80664,7.5879 11.80664,7.8613 L11.80664,11.80665 L7.86134,11.80665 C7.58789333,11.80665 7.36653333,11.8912867 7.19726,12.06056 C7.02799333,12.2298267 6.94336,12.45118 6.94336,12.72462 Z" id="Shape"></path>
                </g>
                <text id="Design-Variations" fill="#000000" fill-rule="nonzero" font-family="Helvetica" font-size="13" font-weight="normal">
                    <tspan x="263" y="1953">Design Variations</tspan>
                </text>
                <text id="Symbols-are-supported-in-up-to-nine-weights-and-three-scales." fill="#000000" fill-rule="nonzero" font-family="Helvetica" font-size="13" font-weight="normal">
                    <tspan x="263" y="1971">Symbols are supported in up to nine weights and three scales.</tspan>
                </text>
                <text id="For-optimal-layout-with-text-and-other-symbols,-vertically-align" fill="#000000" fill-rule="nonzero" font-family="Helvetica" font-size="13" font-weight="normal">
                    <tspan x="263" y="1989">For optimal layout with text and other symbols, vertically align</tspan>
                </text>
                <text id="symbols-with-the-adjacent-text." fill="#000000" fill-rule="nonzero" font-family="Helvetica" font-size="13" font-weight="normal">
                    <tspan x="263" y="2007">symbols with the adjacent text.</tspan>
                </text>
                <line x1="776" y1="1919" x2="776" y2="1933" id="Path" stroke="#00AEEF" stroke-width="0.5"></line>
                <g id="Group" transform="translate(778.490230, 1918.732400)" fill="#000000" fill-rule="nonzero">
                    <path d="M0.82032,14.42385 C1.08073333,14.42385 1.28255667,14.3685115 1.42579,14.2578344 C1.56901667,14.1471575 1.68620333,13.9551 1.77735,13.681662 L3.03711,10.2344 L8.79887,10.2344 L10.05857,13.681662 C10.1497033,13.9551 10.2669033,14.1471575 10.41017,14.2578344 C10.55337,14.3685115 10.7519367,14.42385 11.00587,14.42385 C11.26627,14.42385 11.47297,14.3522354 11.62597,14.2090062 C11.77897,14.0657767 11.85547,13.8704643 11.85547,13.623069 C11.85547,13.473329 11.81967,13.297546 11.74807,13.09572 L7.16797,0.8985 C7.05078333,0.598966667 6.89128,0.374333333 6.68946,0.2246 C6.48763333,0.0748666667 6.23047,0 5.91797,0 C5.31250333,0 4.90234667,0.296233333 4.6875,0.8887 L0.10743,13.10549 C0.03581,13.3073133 -4.4408921e-16,13.4830947 -4.4408921e-16,13.632834 C-4.4408921e-16,13.88023 0.0732433333,14.073915 0.21973,14.2138891 C0.366216667,14.353863 0.566413333,14.42385 0.82032,14.42385 Z M3.51563,8.75002 L5.88868,2.1778 L5.9375,2.1778 L8.31057,8.75002 L3.51563,8.75002 Z" id="Shape"></path>
                </g>
                <line x1="793.197" y1="1919" x2="793.197" y2="1933" id="Path" stroke="#00AEEF" stroke-width="0.5"></line>
                <text id="Margins" fill="#000000" fill-rule="nonzero" font-family="Helvetica" font-size="13" font-weight="normal">
                    <tspan x="776" y="1953">Margins</tspan>
                </text>
                <text id="Leading-and-trailing-margins-on-the-left-and-right-side-of-each-symbol" fill="#000000" fill-rule="nonzero" font-family="Helvetica" font-size="13" font-weight="normal">
                    <tspan x="776" y="1971">Leading and trailing margins on the left and right side of each symbol</tspan>
                </text>
                <text id="can-be-adjusted-by-modifying-the-x-location-of-the-margin-guidelines." fill="#000000" fill-rule="nonzero" font-family="Helvetica" font-size="13" font-weight="normal">
                    <tspan x="776" y="1989">can be adjusted by modifying the x-location of the margin guidelines.</tspan>
                </text>
                <text id="Modifications-are-automatically-applied-proportionally-to-all" fill="#000000" fill-rule="nonzero" font-family="Helvetica" font-size="13" font-weight="normal">
                    <tspan x="776" y="2007">Modifications are automatically applied proportionally to all</tspan>
                </text>
                <text id="scales-and-weights." fill="#000000" fill-rule="nonzero" font-family="Helvetica" font-size="13" font-weight="normal">
                    <tspan x="776" y="2025">scales and weights.</tspan>
                </text>
                <g id="Group" transform="translate(1291.246849, 1914.517550)" fill="#000000" fill-rule="nonzero">
                    <path d="M0.594951479,20.3476805 L2.29417148,22.0566705 C2.72385815,22.4928705 3.17795815,22.6946938 3.65647148,22.6621405 C4.13498481,22.6295872 4.60536148,22.3561505 5.06760148,21.8418305 L15.7609515,10.0547205 L14.7941515,9.07815049 L4.17893148,20.7578405 C4.00315148,20.9596605 3.82574148,21.0735938 3.64670148,21.0996405 C3.46766815,21.1256805 3.26096481,21.0215138 3.02659148,20.7871405 L1.85471148,19.6250305 C1.62033815,19.3906545 1.51780148,19.1839482 1.54710148,19.0049115 C1.57639481,18.8258748 1.69195148,18.6452108 1.89377148,18.4629193 L13.3683515,7.66215049 L12.3918515,6.69535049 L0.800031479,17.5840125 C0.305238146,18.0397418 0.039938146,18.5052368 0.00413147929,18.9804975 C-0.0316751874,19.4557595 0.165264813,19.9114872 0.594951479,20.3476805 Z M7.01096148,2.15435049 C6.80262815,2.35615049 6.68544148,2.58725049 6.65940148,2.84765049 C6.63336148,3.10811716 6.67893481,3.33598382 6.79612148,3.53125049 C6.91330815,3.71358382 7.08420481,3.85031716 7.30881148,3.94145049 C7.53342481,4.03258382 7.80850481,4.03908382 8.13405148,3.96095049 C8.86318481,3.79168382 9.60211815,3.72171716 10.3508515,3.75105049 C11.0995181,3.78031716 11.8319181,4.02931716 12.5480515,4.49805049 L11.9621515,5.95315049 C11.7928848,6.36981716 11.7456848,6.73278382 11.8205515,7.04205049 C11.8954181,7.35125049 12.0663181,7.64258382 12.3332515,7.91605049 L14.6281515,10.2305005 C14.8690181,10.4778938 15.1033848,10.6211205 15.3312515,10.6601805 C15.5591181,10.6992472 15.8130181,10.6927372 16.0929515,10.6406505 L17.1574515,10.4453405 L17.8215515,11.1191705 L17.7824515,11.6758105 C17.7629181,11.9232038 17.7938515,12.1510672 17.8752515,12.3594005 C17.9565848,12.5677338 18.1177181,12.7923438 18.3586515,13.0332305 L19.1203515,13.7754205 C19.3612181,14.0163072 19.6232515,14.1416338 19.9064515,14.1514005 C20.1896515,14.1611605 20.4484515,14.0488538 20.6828515,13.8144805 L23.5929515,10.8945605 C23.8273515,10.6601872 23.9412848,10.4046538 23.9347515,10.1279605 C23.9282848,9.85126716 23.8045848,9.59247716 23.5636515,9.35159049 L22.7922515,8.58987049 C22.5578515,8.34899049 22.3381181,8.18461716 22.1330515,8.09675049 C21.9279848,8.00881716 21.7049848,7.97461716 21.4640515,7.99415049 L20.8879515,8.04295049 L20.2433515,7.40825049 L20.4875515,6.28515049 C20.5526181,6.00521716 20.5395848,5.74318382 20.4484515,5.49905049 C20.3573181,5.25491716 20.1652515,4.98635049 19.8722515,4.69335049 L17.6750515,2.50585049 C16.8417181,1.67905049 15.9546515,1.05895049 15.0138515,0.64555049 C14.0731181,0.23215049 13.1258515,0.0173171567 12.1720515,0.00105049002 C11.2183181,-0.0152828433 10.3003515,0.15885049 9.41815148,0.52345049 C8.53601815,0.88805049 7.73362148,1.43168382 7.01096148,2.15435049 Z M8.50515148,2.52545049 C9.11061815,2.08271716 9.76001815,1.76695049 10.4533515,1.57815049 C11.1466848,1.38935049 11.8481848,1.32911716 12.5578515,1.39745049 C13.2674515,1.46585049 13.9559181,1.65628382 14.6232515,1.96875049 C15.2905848,2.28128382 15.9009515,2.71748382 16.4543515,3.27735049 L18.8859515,5.68945049 C19.0031515,5.80665049 19.0763848,5.92058382 19.1056515,6.03125049 C19.1349848,6.14191716 19.1301181,6.28191716 19.0910515,6.45125049 L18.7687515,7.93555049 L20.2726515,9.41995049 L21.2590515,9.36136049 C21.3827181,9.35484716 21.4771181,9.36298382 21.5422515,9.38577049 C21.6073181,9.40855716 21.6886848,9.46877716 21.7863515,9.56643049 L22.3625515,10.1426105 L19.9211515,12.5840105 L19.3449515,12.0078405 C19.2472848,11.9101872 19.1854181,11.8288072 19.1593515,11.7637005 C19.1333515,11.6985938 19.1236181,11.6009372 19.1301515,11.4707305 L19.1984515,10.4941705 L17.7043515,9.00979049 L16.1808515,9.26370049 C16.0181181,9.29625382 15.8895515,9.30113716 15.7951515,9.27835049 C15.7007515,9.25556382 15.5916848,9.18557716 15.4679515,9.06839049 L13.4660515,7.06645049 C13.3358515,6.94925049 13.2626181,6.83695049 13.2463515,6.72955049 C13.2300848,6.62208382 13.2609848,6.47721716 13.3390515,6.29495049 L14.2179515,4.20515049 C13.4367515,3.47595049 12.5578515,2.97138382 11.5812515,2.69145049 C10.6047181,2.41151716 9.60861815,2.42128382 8.59295148,2.72075049 C8.51488481,2.74028382 8.46445148,2.72561716 8.44165148,2.67675049 C8.41885148,2.62795049 8.44001815,2.57751716 8.50515148,2.52545049 Z" id="Shape"></path>
                </g>
                <text id="Exporting" fill="#000000" fill-rule="nonzero" font-family="Helvetica" font-size="13" font-weight="normal">
                    <tspan x="1289" y="1953">Exporting</tspan>
                </text>
                <text id="Symbols-should-be-outlined-when-exporting-to-ensure-the" fill="#000000" fill-rule="nonzero" font-family="Helvetica" font-size="13" font-weight="normal">
                    <tspan x="1289" y="1971">Symbols should be outlined when exporting to ensure the</tspan>
                </text>
                <text id="design-is-preserved-when-submitting-to-Xcode." fill="#000000" fill-rule="nonzero" font-family="Helvetica" font-size="13" font-weight="normal">
                    <tspan x="1289" y="1989">design is preserved when submitting to Xcode.</tspan>
                </text>
                <text id="template-version" fill="#000000" fill-rule="nonzero" font-family="Helvetica" font-size="13" font-weight="normal">
                    <tspan x="2952" y="1933">Template v.3.0</tspan>
                </text>
                <text id="Requires-Xcode-13-or-greater" fill="#000000" fill-rule="nonzero" font-family="Helvetica" font-size="13" font-weight="normal">
                    <tspan x="2865" y="1951">Requires Xcode 13 or greater</tspan>
                </text>
                <text id="descriptive-name" fill="#000000" fill-rule="nonzero" font-family="Helvetica" font-size="13" font-weight="normal">
                    <tspan x="2849" y="1969">Generated from music.note.tv.fill</tspan>
                </text>
                <text id="Typeset-at-100-points" fill="#000000" fill-rule="nonzero" font-family="Helvetica" font-size="13" font-weight="normal">
                    <tspan x="2912" y="1987">Typeset at 100 points</tspan>
                </text>
                <text id="Small" fill="#000000" fill-rule="nonzero" font-family="Helvetica" font-size="13" font-weight="normal">
                    <tspan x="263" y="726">Small</tspan>
                </text>
                <text id="Medium" fill="#000000" fill-rule="nonzero" font-family="Helvetica" font-size="13" font-weight="normal">
                    <tspan x="263" y="1156">Medium</tspan>
                </text>
                <text id="Large" fill="#000000" fill-rule="nonzero" font-family="Helvetica" font-size="13" font-weight="normal">
                    <tspan x="263" y="1586">Large</tspan>
                </text>
            </g>
            <g id="Guides" transform="translate(263.500000, 662.188800)">
                <g id="H-reference" transform="translate(76.993347, 0.500000)" fill="#27AAE1" fill-rule="nonzero">
                    <path d="M0,70.459 L2.644353,70.459 L28.334853,3.3264 L29.036753,3.3264 L29.036753,0 L27.129353,0 L0,70.459 Z M10.694853,45.9793 L45.988453,45.9793 L45.237753,43.7302 L11.444853,43.7302 L10.694853,45.9793 Z M54.125953,70.459 L56.770353,70.459 L29.644753,0 L28.439353,0 L28.439353,3.3264 L54.125953,70.459 Z" id="Shape"></path>
                </g>
                <line x1="0" y1="70.959" x2="2773" y2="70.959" id="Baseline-S" stroke="#27AAE1" stroke-width="0.5"></line>
                <line x1="0" y1="0.5" x2="2773" y2="0.5" id="Capline-S" stroke="#27AAE1" stroke-width="0.5"></line>
                <g id="H-reference" transform="translate(76.993347, 430.500000)" fill="#27AAE1" fill-rule="nonzero">
                    <path d="M0,70.459 L2.644353,70.459 L28.334853,3.3264 L29.036753,3.3264 L29.036753,0 L27.129353,0 L0,70.459 Z M10.694853,45.9793 L45.988453,45.9793 L45.237753,43.7302 L11.444853,43.7302 L10.694853,45.9793 Z M54.125953,70.459 L56.770353,70.459 L29.644753,0 L28.439353,0 L28.439353,3.3264 L54.125953,70.459 Z" id="Shape"></path>
                </g>
                <line x1="0" y1="500.959" x2="2773" y2="500.959" id="Baseline-M" stroke="#27AAE1" stroke-width="0.5"></line>
                <line x1="0" y1="430.499" x2="2773" y2="430.499" id="Capline-M" stroke="#27AAE1" stroke-width="0.5"></line>
                <g id="H-reference" transform="translate(76.993347, 860.500000)" fill="#27AAE1" fill-rule="nonzero">
                    <path d="M0,70.459 L2.644353,70.459 L28.334853,3.3264 L29.036753,3.3264 L29.036753,0 L27.129353,0 L0,70.459 Z M10.694853,45.9793 L45.988453,45.9793 L45.237753,43.7302 L11.444853,43.7302 L10.694853,45.9793 Z M54.125953,70.459 L56.770353,70.459 L29.644753,0 L28.439353,0 L28.439353,3.3264 L54.125953,70.459 Z" id="Shape"></path>
                </g>
                <line x1="0" y1="930.959" x2="2773" y2="930.959" id="Baseline-L" stroke="#27AAE1" stroke-width="0.5"></line>
                <line x1="0" y1="860.499" x2="2773" y2="860.499" id="Capline-L" stroke="#27AAE1" stroke-width="0.5"></line>
                <line x1="1113.36" y1="405.749" x2="1113.36" y2="525.079" id="left-margin-Regular-M" stroke="#00AEEF" stroke-width="0.5"></line>
                <line x1="1260.33" y1="405.749" x2="1260.33" y2="525.079" id="right-margin-Regular-M" stroke="#00AEEF" stroke-width="0.5"></line>
            </g>
            <g id="Symbols" transform="translate(487.505000, 660.618474)" fill="#000000" fill-rule="nonzero">
                <g id="Black-L" transform="translate(2369.993941, 838.426034)">
                    <path d="M13.2518531,117 L95.3190956,117 C99.7363324,117 103.04929,115.895703 105.257968,113.687108 C107.466645,111.47843 108.570984,108.194517 108.570984,103.835369 L108.570984,13.2518888 C108.570984,8.83453301 107.466645,5.52157569 105.257968,3.31301683 C103.04929,1.10433894 99.7363324,0 95.3190956,0 L13.2518531,0 C8.83461633,0 5.52165901,1.10433894 3.31298112,3.31301683 C1.10432704,5.52157569 0,8.83453301 0,13.2518888 L0,103.835369 C0,108.194517 1.10432704,111.47843 3.31298112,113.687108 C5.52165901,115.895703 8.83461633,117 13.2518531,117 Z M158.412558,26.911719 L158.412558,90.0175768 C158.412558,92.0968894 157.402901,94.0750155 155.712014,94.9700178 C154.119913,95.8122891 152.328958,95.6213172 150.957518,94.6051761 L126.363324,76.3600476 C125.035503,75.3766852 124.237528,73.7206459 124.237528,71.9477433 L124.237528,46.5443702 C124.237528,44.7714676 125.035503,43.1154283 126.363324,42.1320659 L150.957518,22.3953778 C153.416873,20.5740196 156.8397,21.6086879 158.054624,24.7967773 C158.308642,25.4623283 158.412558,26.1877363 158.412558,26.911719 Z" id="Shape"></path>
                </g>
                <g id="Heavy-L" transform="translate(2071.303092, 840.026034)">
                    <path d="M12.9007356,113.9 L92.7935469,113.9 C97.0937458,113.9 100.318924,112.824962 102.469081,110.674886 C104.619239,108.524728 105.694317,105.327825 105.694317,101.084176 L105.694317,12.9007704 C105.694317,8.60045564 104.619239,5.37527753 102.469081,3.22523605 C100.318924,1.07507868 97.0937458,0 92.7935469,0 L12.9007356,0 C8.60053675,0 5.37535865,1.07507868 3.22520128,3.22523605 C1.07506709,5.37527753 0,8.60045564 0,12.9007704 L0,101.084176 C0,105.327825 1.07506709,108.524728 3.22520128,110.674886 C5.37535865,112.824962 8.60053675,113.9 12.9007356,113.9 Z M154.041783,26.2154563 L154.041783,87.6157504 C154.041783,89.6388654 153.032126,91.5635286 151.341239,92.4343416 C149.749138,93.2538488 147.958183,93.0680384 146.586743,92.0793605 L121.992549,74.3273436 C120.664728,73.3705586 119.866753,71.7592771 119.866753,70.0342908 L119.866753,45.3174954 C119.866753,43.592509 120.664728,41.9812276 121.992549,41.0244425 L146.586743,21.8211784 C149.046098,20.0490461 152.468925,21.0557504 153.683849,24.1576752 C153.937867,24.8052384 154.041783,25.5110407 154.041783,26.2154563 Z" id="Shape"></path>
                </g>
                <g id="Bold-L" transform="translate(1781.044531, 841.926034)">
                    <path d="M12.4590072,110 L89.6162438,110 C93.7692014,110 96.8839476,108.961772 98.9604823,106.885315 C101.037017,104.808781 102.075284,101.721341 102.075284,97.6229967 L102.075284,12.4590407 C102.075284,8.3059712 101.037017,5.19122501 98.9604823,3.11480215 C96.8839476,1.03826738 93.7692014,0 89.6162438,0 L12.4590072,0 C8.30604954,0 5.19130335,1.03826738 3.11476858,3.11480215 C1.03825619,5.19122501 0,8.3059712 0,12.4590407 L0,97.6229967 C0,101.721341 1.03825619,104.808781 3.11476858,106.885315 C5.19130335,108.961772 8.30604954,110 12.4590072,110 Z M148.52275,25.1191937 L148.52275,84.813924 C148.52275,86.7808413 147.513093,88.6520417 145.822207,89.4986655 C144.230105,90.2954086 142.439151,90.1147595 141.067711,89.153545 L116.473516,71.8946396 C115.145695,70.9644319 114.34772,69.3979083 114.34772,67.7208382 L114.34772,43.6906205 C114.34772,42.0135504 115.145695,40.4470268 116.473516,39.5168191 L141.067711,20.846979 C143.527065,19.1240726 146.949892,20.1028129 148.164816,23.1185731 C148.418834,23.7481484 148.52275,24.4343451 148.52275,25.1191937 Z" id="Shape"></path>
                </g>
                <g id="Semibold-L" transform="translate(1483.219953, 843.270348)">
                    <path d="M12.1934815,107.655686 L87.7063475,107.655686 C91.7707976,107.655686 94.8191625,106.639585 96.8514422,104.607382 C98.883722,102.575102 99.8998619,99.5534617 99.8998619,95.542461 L99.8998619,12.1935144 C99.8998619,8.12895482 98.883722,5.08058992 96.8514422,3.04841967 C94.8191625,1.01613989 91.7707976,0 87.7063475,0 L12.1934815,0 C8.12903149,0 5.08066659,1.01613989 3.04838681,3.04841967 C1.01612894,5.08058992 0,8.12895482 0,12.1935144 L0,95.542461 C0,99.5534617 1.01612894,102.575102 3.04838681,104.607382 C5.08066659,106.639585 8.12903149,107.655686 12.1934815,107.655686 Z M144.957052,24.3739055 L144.957052,83.2158539 C144.957052,85.1546725 143.947395,86.9991414 142.256508,87.8336706 C140.664407,88.6190316 138.873452,88.4409633 137.502012,87.4934803 L112.907818,70.4811308 C111.579997,69.5642118 110.782022,68.0200671 110.782022,66.3669551 L110.782022,42.6800262 C110.782022,41.0269143 111.579997,39.4827696 112.907818,38.5658506 L137.502012,20.1627225 C139.961367,18.4644291 143.384194,19.4291873 144.599118,22.4018652 C144.853135,23.0224466 144.957052,23.6988405 144.957052,24.3739055 Z" id="Shape"></path>
                </g>
                <g id="Medium-L" transform="translate(1191.313134, 845.026034)">
                    <path d="M11.9379941,105.4 L85.8686554,105.4 C89.8479439,105.4 92.832437,104.405189 94.8221349,102.415566 C96.8118328,100.425868 97.8066817,97.4675395 97.8066817,93.5405804 L97.8066817,11.9380263 C97.8066817,7.95863059 96.8118328,4.97413742 94.8221349,2.98454679 C92.832437,0.99484893 89.8479439,0 85.8686554,0 L11.9379941,0 C7.95870565,0 4.97421248,0.99484893 2.98451462,2.98454679 C0.994838206,4.97413742 0,7.95863059 0,11.9380263 L0,93.5405804 C0,97.4675395 0.994838206,100.425868 2.98451462,102.415566 C4.97421248,104.405189 7.95870565,105.4 11.9379941,105.4 Z M141.870764,23.672931 L141.870764,81.6620976 C141.870764,83.5728173 140.861107,85.3905548 139.170221,86.2129893 C137.578119,86.9869683 135.787165,86.8114807 134.415725,85.8777294 L109.82153,69.1119356 C108.493709,68.2083053 107.695734,66.6865395 107.695734,65.0573857 L107.695734,41.7137456 C107.695734,40.0845919 108.493709,38.562826 109.82153,37.6591957 L134.415725,19.5227796 C136.875079,17.8490991 140.297906,18.7998754 141.51283,21.729471 C141.766848,22.3410585 141.870764,23.0076495 141.870764,23.672931 Z" id="Shape"></path>
                </g>
                <g id="Regular-L" transform="translate(892.433027, 845.326034)">
                    <path d="M11.6548349,102.9 L83.8319226,102.9 C87.7168257,102.9 90.6305291,101.928785 92.573033,99.9863541 C94.5155369,98.0438502 95.4867889,95.1556908 95.4867889,91.321876 L95.4867889,11.6548663 C95.4867889,7.76985852 94.5155369,4.85615503 92.573033,2.91375583 C90.6305291,0.971251944 87.7168257,0 83.8319226,0 L11.6548349,0 C7.7699318,0 4.85622831,0.971251944 2.91372442,2.91375583 C0.971241475,4.85615503 0,7.76985852 0,11.6548663 L0,91.321876 C0,95.1556908 0.971241475,98.0438502 2.91372442,99.9863541 C4.85622831,101.928785 7.7699318,102.9 11.6548349,102.9 Z M138.250871,22.8497996 L138.250871,79.9861844 C138.250871,81.8688053 137.241214,83.6598113 135.550328,84.4701512 C133.958226,85.2327482 132.167272,85.0598413 130.795832,84.1398216 L106.201637,67.6205836 C104.873817,66.730242 104.075841,65.2308551 104.075841,63.6256594 L104.075841,40.6253082 C104.075841,39.0201126 104.873817,37.5207257 106.201637,36.630384 L130.795832,18.7606799 C133.255187,17.1116124 136.678013,18.0484066 137.892937,20.93492 C138.146955,21.5375135 138.250871,22.1943017 138.250871,22.8497996 Z" id="Shape"></path>
                </g>
                <g id="Light-L" transform="translate(601.696818, 846.403716)">
                    <path d="M11.4107104,100.744636 L82.0759624,100.744636 C85.8794915,100.744636 88.732164,99.7937641 90.6339798,97.89202 C92.5357956,95.9902042 93.4867035,93.1625408 93.4867035,89.4090297 L93.4867035,11.4107411 C93.4867035,7.60710951 92.5357956,4.75443704 90.6339798,2.85272372 C88.732164,0.950907907 85.8794915,0 82.0759624,0 L11.4107104,0 C7.60718126,0 4.75450878,0.950907907 2.85269297,2.85272372 C0.950897657,4.75443704 0,7.60710951 0,11.4107411 L0,89.4090297 C0,93.1625408 0.950897657,95.9902042 2.85269297,97.89202 C4.75450878,99.7937641 7.60718126,100.744636 11.4107104,100.744636 Z M134.216928,21.9368382 L134.216928,78.7441506 C134.216928,80.6159287 133.207271,82.3966196 131.516385,83.2022925 C129.924283,83.9604973 128.133329,83.7885862 126.761889,82.8738653 L102.167694,66.4497685 C100.839874,65.5645547 100.041898,64.0738034 100.041898,62.4778528 L100.041898,39.6099702 C100.041898,38.0140195 100.839874,36.5232682 102.167694,35.6380544 L126.761889,17.8712694 C129.221244,16.2316995 132.64407,17.1630984 133.858994,20.0329871 C134.113012,20.63211 134.216928,21.2851156 134.216928,21.9368382 Z" id="Shape"></path>
                </g>
                <g id="Thin-L" transform="translate(304.243722, 847.715895)">
                    <path d="M11.0998427,98 L79.8399263,98 C83.539834,98 86.3147897,97.075033 88.1647934,95.2250991 C90.0147971,93.3750954 90.9397989,90.6244675 90.9397989,86.9732152 L90.9397989,11.0998727 C90.9397989,7.39986525 90.0147971,4.62490955 88.1647934,2.77500555 C86.3147897,0.925001851 83.539834,0 79.8399263,0 L11.0998427,0 C7.39993505,0 4.62497934,0.925001851 2.77497564,2.77500555 C0.924991881,4.62490955 0,7.39986525 0,11.0998727 L0,86.9732152 C0,90.6244675 0.924991881,93.3750954 2.77497564,95.2250991 C4.62497934,97.075033 7.39993505,98 11.0998427,98 Z M128.722779,22.5645201 L128.722779,75.3718326 C128.722779,77.2436107 127.713122,79.0243016 126.022235,79.8299744 C124.430133,80.5881792 122.639179,80.4162682 121.267739,79.5015473 L96.6735446,63.0774505 C95.3457239,62.1922367 94.5477486,60.7014854 94.5477486,59.1055347 L94.5477486,40.2376521 C94.5477486,38.6417015 95.3457239,37.1509502 96.6735446,36.2657364 L121.267739,18.4989514 C123.727094,16.8593815 127.149921,17.7907803 128.364844,20.6606691 C128.618862,21.259792 128.722779,21.9127975 128.722779,22.5645201 Z" id="Shape"></path>
                </g>
                <g id="Ultralight-L" transform="translate(-0.000000, 848.701457)">
                    <path d="M10.8749506,96.014438 L78.2223026,96.014438 C81.847247,96.014438 84.5659798,95.1082117 86.3785009,93.295759 C88.191022,91.4832379 89.0972825,88.7883399 89.0972825,85.2110651 L89.0972825,10.87498 C89.0972825,7.24993779 88.191022,4.53120502 86.3785009,2.71878162 C84.5659798,0.90626054 81.847247,0 78.2223026,0 L10.8749506,0 C7.25000617,0 4.53127339,0.90626054 2.71875231,2.71878162 C0.906250771,4.53120502 0,7.24993779 0,10.87498 L0,85.2110651 C0,88.7883399 0.906250771,91.4832379 2.71875231,93.295759 C4.53127339,95.1082117 7.25000617,96.014438 10.8749506,96.014438 Z M125.671522,21.5717392 L125.671522,74.3790516 C125.671522,76.2508297 124.661866,78.0315206 122.970979,78.8371934 C121.378877,79.5953983 119.587923,79.4234872 118.216483,78.5087663 L93.6222883,62.0846695 C92.2944677,61.1994557 91.4964924,59.7087044 91.4964924,58.1127538 L91.4964924,39.2448711 C91.4964924,37.6489205 92.2944677,36.1581692 93.6222883,35.2729554 L118.216483,17.5061704 C120.675838,15.8666005 124.098664,16.7979994 125.313588,19.6678881 C125.567606,20.267011 125.671522,20.9200165 125.671522,21.5717392 Z" id="Shape"></path>
                </g>
                <g id="Black-M" transform="translate(2387.605011, 421.310563)">
                    <path d="M10.4768924,92.5 L75.3591141,92.5 C78.8513739,92.5 81.4705923,91.6269445 83.2167692,89.8808334 C84.9629462,88.1346564 85.8360347,85.5384004 85.8360347,82.0920654 L85.8360347,10.4769206 C85.8360347,6.98456669 84.9629462,4.3653483 83.2167692,2.61926545 C81.4705923,0.873088482 78.8513739,0 75.3591141,0 L10.4768924,0 C6.98463257,0 4.36541418,0.873088482 2.61923721,2.61926545 C0.873079071,4.3653483 4.54747351e-13,6.98456669 4.54747351e-13,10.4769206 L4.54747351e-13,82.0920654 C4.54747351e-13,85.5384004 0.873079071,88.1346564 2.61923721,89.8808334 C4.36541418,91.6269445 6.98463257,92.5 10.4768924,92.5 Z M125.490499,22.6069799 L125.490499,69.836096 C125.490499,71.5101525 124.701823,73.1027437 123.381017,73.8233108 C122.137374,74.5014242 120.738402,74.3476726 119.667125,73.5295765 L100.4558,58.8404067 C99.4185962,58.0487008 98.7952717,56.715422 98.7952717,55.2880565 L98.7952717,38.4132455 C98.7952717,36.9858799 99.4185962,35.6526012 100.4558,34.8608952 L119.667125,18.9708695 C121.588207,17.5044924 124.261888,18.3375047 125.210905,20.9042384 C125.409327,21.4400742 125.490499,22.0241008 125.490499,22.6069799 Z" id="Shape"></path>
                </g>
                <g id="Heavy-M" transform="translate(2090.924904, 422.310563)">
                    <path d="M10.1937331,90 L73.3223813,90 C76.7202557,90 79.2686844,89.1505406 80.9676674,87.4516217 C82.6666504,85.7526387 83.5161419,83.2265517 83.5161419,79.8733609 L83.5161419,10.1937606 C83.5161419,6.79579462 82.6666504,4.24736591 80.9676674,2.54847449 C79.2686844,0.849491496 76.7202557,0 73.3223813,0 L10.1937331,0 C6.79585872,0 4.24743001,0.849491496 2.54844702,2.54847449 C0.849482339,4.24736591 0,6.79579462 0,10.1937606 L0,79.8733609 C0,83.2265517 0.849482339,85.7526387 2.54844702,87.4516217 C4.24743001,89.1505406 6.79585872,90 10.1937331,90 Z M121.937266,22.6235703 L121.937266,67.3225552 C121.937266,68.9069301 121.14859,70.4142038 119.827783,71.0961692 C118.584141,71.7379551 117.185168,71.5924402 116.113892,70.8181706 L96.9025668,56.9159207 C95.8653629,56.1666275 95.2420384,54.9047744 95.2420384,53.5538749 L95.2420384,37.5830716 C95.2420384,36.2321721 95.8653629,34.970319 96.9025668,34.2210258 L116.113892,19.1822515 C118.034974,17.7944303 120.708655,18.582817 121.657672,21.0120471 C121.856093,21.5191774 121.937266,22.0719168 121.937266,22.6235703 Z" id="Shape"></path>
                </g>
                <g id="Bold-M" transform="translate(1792.213473, 423.315626)">
                    <path d="M9.85336866,86.9949377 L70.8741777,86.9949377 C74.1585985,86.9949377 76.6219362,86.1738414 78.2641909,84.5316486 C79.9064455,82.889394 80.7275729,80.4476521 80.7275729,77.2064228 L80.7275729,9.85339521 C80.7275729,6.56888588 79.9064455,4.10554815 78.2641909,2.46338199 C76.6219362,0.821127331 74.1585985,0 70.8741777,0 L9.85336866,0 C6.56894784,0 4.1056101,0.821127331 2.46335544,2.46338199 C0.82111848,4.10554815 0,6.56888588 0,9.85339521 L0,77.2064228 C0,80.4476521 0.82111848,82.889394 2.46335544,84.5316486 C4.1056101,86.1738414 6.56894784,86.9949377 9.85336866,86.9949377 Z M117.929313,21.5432359 L117.929313,65.3988437 C117.929313,66.9533248 117.140637,68.4321594 115.819831,69.1012575 C114.576188,69.7309342 113.177216,69.5881649 112.105939,68.8285041 L92.8946141,55.1885608 C91.8574102,54.4534053 91.2340857,53.2153607 91.2340857,51.8899499 L91.2340857,36.2204825 C91.2340857,34.8950716 91.8574102,33.6570271 92.8946141,32.9218716 L112.105939,18.1668477 C114.027021,16.8052118 116.700702,17.5787232 117.649719,19.9621188 C117.848141,20.4596806 117.929313,21.001991 117.929313,21.5432359 Z" id="Shape"></path>
                </g>
                <g id="Semibold-M" transform="translate(1492.875900, 424.365000)">
                    <path d="M9.6168076,84.9063511 L69.1726205,84.9063511 C72.3781885,84.9063511 74.782386,84.1049677 76.3852132,82.502201 C77.9880404,80.8993738 78.789454,78.5162536 78.789454,75.3528402 L78.789454,9.61683352 C78.789454,6.41117915 77.9880404,4.00698157 76.3852132,2.40424077 C74.782386,0.801413591 72.3781885,0 69.1726205,0 L9.6168076,0 C6.41123962,0 4.00704204,0.801413591 2.40421486,2.40424077 C0.801404952,4.00698157 0,6.41117915 0,9.61683352 L0,75.3528402 C0,78.5162536 0.801404952,80.8993738 2.40421486,82.502201 C4.00704204,84.1049677 6.41123962,84.9063511 9.6168076,84.9063511 Z M114.962958,20.9211394 L114.962958,63.9333701 C114.962958,65.4579573 114.174282,66.9083528 112.853475,67.5645836 C111.609833,68.1821511 110.21086,68.0421274 109.139584,67.2970755 L89.9282587,53.9194388 C88.8910548,53.1984209 88.2677304,51.9841849 88.2677304,50.6842627 L88.2677304,35.3161312 C88.2677304,34.016209 88.8910548,32.801973 89.9282587,32.0809551 L109.139584,17.6096817 C111.060666,16.2742311 113.734347,17.0328673 114.683364,19.3704284 C114.881785,19.8584217 114.962958,20.390303 114.962958,20.9211394 Z" id="Shape"></path>
                </g>
                <g id="Medium-M" transform="translate(1198.302986, 424.365000)">
                    <path d="M9.42453123,83.2087518 L67.7895981,83.2087518 C70.9310746,83.2087518 73.2872032,82.4233912 74.8579838,80.8526698 C76.4287644,79.2818892 77.2141547,76.9464166 77.2141547,73.8462518 L77.2141547,9.42455663 C77.2141547,6.28299542 76.4287644,3.92686685 74.8579838,2.3561709 C73.2872032,0.785390301 70.9310746,0 67.7895981,0 L9.42453123,0 C6.28305468,0 3.92692611,0.785390301 2.35614551,2.3561709 C0.785381835,3.92686685 0,6.28299542 0,9.42455663 L0,73.8462518 C0,76.9464166 0.785381835,79.2818892 2.35614551,80.8526698 C3.92692611,82.4233912 6.28305468,83.2087518 9.42453123,83.2087518 Z M112.601053,20.2834382 L112.601053,62.8739804 C112.601053,64.3836206 111.812377,65.8197966 110.491571,66.4695937 C109.247928,67.0811067 107.848955,66.9424557 106.777679,66.2047083 L87.5663539,52.9582249 C86.52915,52.2442757 85.9058255,51.041944 85.9058255,49.7547662 L85.9058255,34.5373026 C85.9058255,33.2501248 86.52915,32.0477931 87.5663539,31.3338439 L106.777679,17.0044457 C108.698761,15.6820878 111.372442,16.4332864 112.321459,18.7479302 C112.51988,19.2311393 112.601053,19.7578061 112.601053,20.2834382 Z" id="Shape"></path>
                </g>
                <g id="Regular-M" transform="translate(906.315900, 426.534188)">
                    <path d="M9.17884094,81.0395636 L66.0223753,81.0395636 C69.081956,81.0395636 71.3766621,80.2746767 72.9064937,78.7449028 C74.4363252,77.2150713 75.201241,74.9404826 75.201241,71.9211368 L75.201241,9.17886567 C75.201241,6.11920256 74.4363252,3.82449645 72.9064937,2.29474734 C71.3766621,0.764915779 69.081956,0 66.0223753,0 L9.17884094,0 C6.11926027,0 3.82455416,0.764915779 2.2947226,2.29474734 C0.764907534,3.82449645 0,6.11920256 0,9.17886567 L0,71.9211368 C0,74.9404826 0.764907534,77.2150713 2.2947226,78.7449028 C3.82455416,80.2746767 6.11926027,81.0395636 9.17884094,81.0395636 Z M109.633881,19.4099425 L109.633881,61.5787961 C109.633881,63.0734894 108.845205,64.4954458 107.524398,65.1388093 C106.280756,65.7442677 104.881783,65.6069895 103.810507,64.8765465 L84.5991817,51.7612164 C83.5619778,51.0543361 82.9386533,49.8639086 82.9386533,48.5894751 L82.9386533,33.5226795 C82.9386533,32.248246 83.5619778,31.0578186 84.5991817,30.3509382 L103.810507,16.1634153 C105.731589,14.85415 108.40527,15.597911 109.354287,17.8896375 C109.552708,18.3680623 109.633881,18.8895146 109.633881,19.4099425 Z" id="Shape"></path>
                </g>
                <g id="Light-M" transform="translate(606.110380, 427.486840)">
                    <path d="M8.96303931,79.134261 L64.4701384,79.134261 C67.457786,79.134261 69.6985418,78.3873572 71.1924058,76.8935495 C72.6862698,75.3996854 73.4332019,73.1785741 73.4332019,70.2302154 L73.4332019,8.96306347 C73.4332019,5.97533539 72.6862698,3.73457959 71.1924058,2.24079606 C69.6985418,0.746932019 67.457786,0 64.4701384,0 L8.96303931,0 C5.97539175,0 3.73463594,0.746932019 2.24077191,2.24079606 C0.746923968,3.73457959 0,5.97533539 0,8.96306347 L0,70.2302154 C0,73.1785741 0.746923968,75.3996854 2.24077191,76.8935495 C3.73463594,78.3873572 5.97539175,79.134261 8.96303931,79.134261 Z M106.116907,19.7447669 L106.116907,60.994276 C106.116907,62.4563827 105.328231,63.8473383 104.007424,64.4766755 C102.763782,65.068934 101.364809,64.9346487 100.293533,64.2201304 L81.0822078,51.3907343 C80.0450039,50.699265 79.4216794,49.5347907 79.4216794,48.2881417 L79.4216794,33.549825 C79.4216794,32.3031761 80.0450039,31.1387017 81.0822078,30.4472325 L100.293533,16.5690189 C102.214615,15.2882976 104.888296,16.0158435 105.837313,18.2576069 C106.035734,18.7256013 106.116907,19.2356852 106.116907,19.7447669 Z" id="Shape"></path>
                </g>
                <g id="Thin-M" transform="translate(316.284782, 428.836811)">
                    <path d="M8.65723376,76.4343179 L62.2705133,76.4343179 C65.1562268,76.4343179 67.3205313,75.7128973 68.763427,74.2700561 C70.2063226,72.8271605 70.9277704,70.6818301 70.9277704,67.8340651 L70.9277704,8.65725709 C70.9277704,5.77146585 70.2063226,3.60716129 68.763427,2.16434343 C67.3205313,0.721447811 65.1562268,0 62.2705133,0 L8.65723376,0 C5.77152028,0 3.60721573,0.721447811 2.16432011,2.16434343 C0.721440035,3.60716129 0,5.77146585 0,8.65725709 L0,67.8340651 C0,70.6818301 0.721440035,72.8271605 2.16432011,74.2700561 C3.60721573,75.7128973 5.77152028,76.4343179 8.65723376,76.4343179 Z M101.173128,17.5675459 L101.173128,58.817055 C101.173128,60.2791617 100.384452,61.6701173 99.0636455,62.2994546 C97.820003,62.891713 96.4210304,62.7574277 95.3497541,62.0429094 L76.1384289,49.2135133 C75.101225,48.522044 74.4779005,47.3575697 74.4779005,46.1109208 L74.4779005,31.372604 C74.4779005,30.1259551 75.101225,28.9614808 76.1384289,28.2700115 L95.3497541,14.3917979 C97.2708361,13.1110766 99.9445172,13.8386225 100.893534,16.0803859 C101.091955,16.5483803 101.173128,17.0584642 101.173128,17.5675459 Z" id="Shape"></path>
                </g>
                <g id="Ultralight-M" transform="translate(22.615767, 429.553970)">
                    <path d="M8.49477761,75 L61.1019844,75 C63.9335464,75 66.057237,74.2921171 67.4730561,72.8763514 C68.8888753,71.4605322 69.5967849,69.3554598 69.5967849,66.5611341 L69.5967849,8.4948005 C69.5967849,5.66316218 68.8888753,3.5394716 67.4730561,2.12372874 C66.057237,0.70790958 63.9335464,0 61.1019844,0 L8.49477761,0 C5.6632156,0 3.53952501,0.70790958 2.12370585,2.12372874 C0.707901949,3.5394716 0,5.66316218 0,8.4948005 L0,66.5611341 C0,69.3554598 0.707901949,71.4605322 2.12370585,72.8763514 C3.53952501,74.2921171 5.6632156,75 8.49477761,75 Z M98.4716726,16.850387 L98.4716726,58.099896 C98.4716726,59.5620028 97.6829968,60.9529584 96.3621903,61.5822956 C95.1185477,62.1745541 93.7195751,62.0402687 92.6482988,61.3257505 L73.4369736,48.4963544 C72.3997697,47.8048851 71.7764452,46.6404108 71.7764452,45.3937618 L71.7764452,30.6554451 C71.7764452,29.4087962 72.3997697,28.2443218 73.4369736,27.5528526 L92.6482988,13.674639 C94.5693808,12.3939176 97.243062,13.1214636 98.1920785,15.363227 C98.3905001,15.8312214 98.4716726,16.3413053 98.4716726,16.850387 Z" id="Shape"></path>
                </g>
                <g id="Black-S" transform="translate(2393.160620, -0.000000)">
                    <path d="M8.54226286,75.4192451 L61.4435405,75.4192451 C64.2909308,75.4192451 66.4264926,74.7074052 67.8502261,73.2837254 C69.2739596,71.8599919 69.9858264,69.7431523 69.9858264,66.9332065 L69.9858264,8.54228588 C69.9858264,5.69481889 69.2739596,3.55925701 67.8502261,2.13560024 C66.4264926,0.711866748 64.2909308,0 61.4435405,0 L8.54226286,0 C5.6948726,0 3.55931072,0.711866748 2.13557723,2.13560024 C0.711859075,3.55925701 0,5.69481889 0,8.54228588 L0,66.9332065 C0,69.7431523 0.711859075,71.8599919 2.13557723,73.2837254 C3.55931072,74.7074052 5.6948726,75.4192451 8.54226286,75.4192451 Z M104.165359,18.0382022 L104.165359,57.3264497 C104.165359,58.9319605 103.368107,60.4593416 102.032938,61.1504046 C100.775771,61.800752 99.3615858,61.6532959 98.2786601,60.8686974 L82.1776108,49.2086612 C81.129128,48.4493723 80.4990253,47.1706859 80.4990253,45.801765 L80.4990253,29.6179078 C80.4990253,28.2489869 81.129128,26.9703005 82.1776108,26.2110116 L98.2786601,14.5509754 C100.220633,13.1446404 102.923388,13.9435443 103.882725,16.4051809 C104.083304,16.9190764 104.165359,17.4791895 104.165359,18.0382022 Z" id="Shape"></path>
                </g>
                <g id="Heavy-S" transform="translate(2097.430620, -0.000000)">
                    <path d="M8.39564046,74.1247227 L60.388902,74.1247227 C63.1874186,74.1247227 65.286325,73.4251011 66.685621,72.0258578 C68.084917,70.6265618 68.7845651,68.5460563 68.7845651,65.7843414 L68.7845651,8.39566309 C68.7845651,5.59707102 68.084917,3.49816467 66.685621,2.09894405 C65.286325,0.699648017 63.1874186,0 60.388902,0 L8.39564046,0 C5.59712381,0 3.49821746,0.699648017 2.09892143,2.09894405 C0.699640476,3.49816467 0,5.59707102 0,8.39566309 L0,65.7843414 C0,68.5460563 0.699640476,70.6265618 2.09892143,72.0258578 C3.49821746,73.4251011 5.59712381,74.1247227 8.39564046,74.1247227 Z M102.176595,17.6796201 L102.176595,56.3913105 C102.176595,57.9732604 101.379343,59.4782271 100.044173,60.1591486 C98.787007,60.7999522 97.3728214,60.65466 96.2898957,59.8815755 L80.1888464,48.392651 C79.1403636,47.6445047 78.5102609,46.384583 78.5102609,45.0357512 L78.5102609,29.0893929 C78.5102609,27.7405611 79.1403636,26.4806394 80.1888464,25.7324931 L96.2898957,14.2435686 C98.2318682,12.8578716 100.934624,13.6450516 101.89396,16.0705635 C102.09454,16.5769175 102.176595,17.1288109 102.176595,17.6796201 Z" id="Shape"></path>
                </g>
                <g id="Bold-S" transform="translate(1801.658522, 0.712361)">
                    <path d="M8.2342711,72.7 L59.2281902,72.7 C61.9729176,72.7 64.0314817,72.0138255 65.4038824,70.6414766 C66.7762831,69.2690759 67.4624835,67.228559 67.4624835,64.519926 L67.4624835,8.23429329 C67.4624835,5.48949188 66.7762831,3.4309278 65.4038824,2.05860106 C64.0314817,0.686200353 61.9729176,0 59.2281902,0 L8.2342711,0 C5.48954365,0 3.43097957,0.686200353 2.05857887,2.05860106 C0.686192956,3.4309278 0,5.48949188 0,8.23429329 L0,64.519926 C0,67.228559 0.686192956,69.2690759 2.05857887,70.6414766 C3.43097957,72.0138255 5.48954365,72.7 8.2342711,72.7 Z M99.9071479,17.2971777 L99.9071479,55.3499458 C99.9071479,56.9049689 99.1098958,58.3843191 97.7747263,59.0536505 C96.51756,59.6835467 95.1033744,59.5407276 94.0204487,58.780802 L77.9193994,47.4874337 C76.8709166,46.7520218 76.2408138,45.5135456 76.2408138,44.1876726 L76.2408138,28.5127416 C76.2408138,27.1868687 76.8709166,25.9483924 77.9193994,25.2129806 L94.0204487,13.9196122 C95.9624212,12.5575015 98.665177,13.3312827 99.6245134,15.7155093 C99.8250927,16.2132446 99.9071479,16.7557441 99.9071479,17.2971777 Z" id="Shape"></path>
                </g>
                <g id="Semibold-S" transform="translate(1507.658522, 0.824204)">
                    <path d="M8.12156885,71.7049571 L58.4175355,71.7049571 C61.124696,71.7049571 63.1550845,71.0281742 64.5087012,69.6746086 C65.8623179,68.3209919 66.5391263,66.3084035 66.5391263,63.6368435 L66.5391263,8.12159074 C66.5391263,5.41435735 65.8623179,3.38396878 64.5087012,2.03042504 C63.1550845,0.676808347 61.124696,0 58.4175355,0 L8.12156885,0 C5.41440841,0 3.38401985,0.676808347 2.03040316,2.03042504 C0.676801052,3.38396878 2.27373675e-13,5.41435735 2.27373675e-13,8.12159074 L2.27373675e-13,63.6368435 C2.27373675e-13,66.3084035 0.676801052,68.3209919 2.03040316,69.6746086 C3.38401985,71.0281742 5.41440841,71.7049571 8.12156885,71.7049571 Z M98.4974236,16.9852357 L98.4974236,54.6673599 C98.4974236,56.2072366 97.7001715,57.6721776 96.365002,58.3349896 C95.1078357,58.9587505 93.6936502,58.8173224 92.6107244,58.0647987 L76.5096751,46.8814307 C75.4611923,46.1531819 74.8310896,44.9267688 74.8310896,43.6138102 L74.8310896,28.0915571 C74.8310896,26.7785985 75.4611923,25.5521853 76.5096751,24.8239366 L92.6107244,13.6405685 C94.552697,12.2917252 97.2554527,13.0579695 98.2147891,15.4189731 C98.4153685,15.9118604 98.4974236,16.4490757 98.4974236,16.9852357 Z" id="Shape"></path>
                </g>
                <g id="Medium-S" transform="translate(1201.035864, 1.595561)">
                    <path d="M8.0342021,70.9336 L57.7891163,70.9336 C60.4671548,70.9336 62.4757017,70.2640976 63.814757,68.9250928 C65.1538123,67.5860374 65.82334,65.5950992 65.82334,62.9522781 L65.82334,8.03422375 C65.82334,5.35611308 65.1538123,3.34756616 63.814757,2.008583 C62.4757017,0.669527666 60.4671548,0 57.7891163,0 L8.0342021,0 C5.3561636,0 3.34761668,0.669527666 2.00856135,2.008583 C0.66952045,3.34756616 0,5.35611308 0,8.03422375 L0,62.9522781 C0,65.5950992 0.66952045,67.5860374 2.00856135,68.9250928 C3.34761668,70.2640976 5.3561636,70.9336 8.0342021,70.9336 Z M96.9551536,16.9088562 L96.9551536,53.9732407 C96.9551536,55.4878736 96.1664778,56.9287991 94.8456713,57.5807453 C93.6020287,58.1942806 92.2030561,58.0551711 91.1317798,57.3149838 L75.2039355,46.3149497 C74.1667316,45.5986394 73.5434071,44.3923314 73.5434071,43.1008967 L73.5434071,27.8331068 C73.5434071,26.5416721 74.1667316,25.3353641 75.2039355,24.6190538 L91.1317798,13.6190197 C93.0528618,12.2922885 95.726543,13.0459715 96.6755595,15.3682701 C96.8739811,15.8530772 96.9551536,16.3814858 96.9551536,16.9088562 Z" id="Shape"></path>
                </g>
                <g id="Regular-S" transform="translate(912.464285, 2.112361)">
                    <path d="M7.91713273,69.9 L56.9470494,69.9 C59.5860652,69.9 61.5653449,69.2402532 62.8848883,67.9207595 C64.2044318,66.601216 64.8642035,64.6392885 64.8642035,62.034977 L64.8642035,7.91715407 C64.8642035,5.27806715 64.2044318,3.29878753 62.8848883,1.97931519 C61.5653449,0.659771728 59.5860652,0 56.9470494,0 L7.91713273,0 C5.27811694,0 3.29883731,0.659771728 1.97929385,1.97931519 C0.659764617,3.29878753 0,5.27806715 0,7.91715407 L0,62.034977 C0,64.6392885 0.659764617,66.601216 1.97929385,67.9207595 C3.29883731,69.2402532 5.27811694,69.9 7.91713273,69.9 Z M95.4489283,16.6394955 L95.4489283,53.2096882 C95.4489283,54.7041259 94.6602524,56.1258391 93.3394459,56.7690927 C92.0958034,57.3744475 90.6968308,57.2371928 89.6255545,56.5068747 L73.6977102,45.6535077 C72.6605063,44.9467482 72.0371818,43.7565243 72.0371818,42.4823087 L72.0371818,27.4180894 C72.0371818,26.1438738 72.6605063,24.9536499 73.6977102,24.2468904 L89.6255545,13.3935234 C91.5466365,12.084482 94.2203177,12.8281159 95.1693342,15.1194505 C95.3677558,15.5977935 95.4489283,16.1191566 95.4489283,16.6394955 Z" id="Shape"></path>
                </g>
                <g id="Light-S" transform="translate(618.440679, 2.805462)">
                    <path d="M7.76012645,68.5137988 L55.8177208,68.5137988 C58.4044018,68.5137988 60.3444299,67.8671355 61.6378052,66.573809 C62.9311805,65.2804337 63.5778682,63.3574135 63.5778682,60.8047486 L63.5778682,7.76014736 C63.5778682,5.17339672 62.9311805,3.23336859 61.6378052,1.94006298 C60.3444299,0.64668766 58.4044018,0 55.8177208,0 L7.76012645,0 C5.17344552,0 3.23341739,0.64668766 1.94004207,1.94006298 C0.646680689,3.23336859 0,5.17339672 0,7.76014736 L0,60.8047486 C0,63.3574135 0.646680689,65.2804337 1.94004207,66.573809 C3.23341739,67.8671355 5.17344552,68.5137988 7.76012645,68.5137988 Z M92.2625929,16.1113544 L92.2625929,52.3520858 C92.2625929,53.8330602 91.4739171,55.2419652 90.1531106,55.8794237 C88.9094681,56.4793248 87.5104954,56.3433066 86.4392191,55.619568 L70.5113749,44.8639791 C69.474171,44.1635868 68.8508465,42.9840857 68.8508465,41.7213495 L68.8508465,26.7928438 C68.8508465,25.5301076 69.474171,24.3506065 70.5113749,23.6502142 L86.4392191,12.8946253 C88.3603012,11.597377 91.0339823,12.3343115 91.9829988,14.6050035 C92.1814205,15.0790371 92.2625929,15.5957033 92.2625929,16.1113544 Z" id="Shape"></path>
                </g>
                <g id="Thin-S" transform="translate(366.909927, 3.819261)">
                    <path d="M7.53047325,66.4862012 L54.1658511,66.4862012 C56.6759818,66.4862012 58.5585967,65.8586753 59.8136959,64.6036235 C61.068795,63.3485243 61.6963446,61.4824141 61.6963446,59.0052927 L61.6963446,7.53049354 C61.6963446,5.02029521 61.068795,3.13768028 59.8136959,1.88264875 C58.5585967,0.627549584 56.6759818,0 54.1658511,0 L7.53047325,0 C5.02034256,0 3.13772763,0.627549584 1.88262846,1.88264875 C0.62754282,3.13768028 0,5.02029521 0,7.53049354 L0,59.0052927 C0,61.4824141 0.62754282,63.3485243 1.88262846,64.6036235 C3.13772763,65.8586753 5.02034256,66.4862012 7.53047325,66.4862012 Z M88.414531,15.1800354 L88.414531,51.2560362 C88.414531,52.7302789 87.619309,54.1327798 86.2875394,54.7673407 C85.0335743,55.3645151 83.6229898,55.2291151 82.5428216,54.5086662 L66.4827718,43.8019663 C65.4369589,43.1047577 64.8084606,41.9306179 64.8084606,40.6736214 L64.8084606,25.8129726 C64.8084606,24.5559761 65.4369589,23.3818363 66.4827718,22.6846276 L82.5428216,11.9779278 C84.4798492,10.6865761 87.1757226,11.4201609 88.1326162,13.6805315 C88.3326848,14.1524104 88.414531,14.6667281 88.414531,15.1800354 Z" id="Shape"></path>
                </g>
                <g id="Ultralight-S" transform="translate(27.799620, 4.778026)">
                    <path d="M7.42188,65.5274364 L53.384752,65.5274364 C55.8586853,65.5274364 57.714152,64.9089598 58.951152,63.6720064 C60.188152,62.4350064 60.806652,60.5958064 60.806652,58.1544064 L60.806652,7.4219 C60.806652,4.9479 60.188152,3.09243333 58.951152,1.8555 C57.714152,0.6185 55.8586853,0 53.384752,0 L7.42188,0 C4.94794667,0 3.09248,0.6185 1.85548,1.8555 C0.618493333,3.09243333 0,4.9479 0,7.4219 L0,58.1544064 C0,60.5958064 0.618493333,62.4350064 1.85548,63.6720064 C3.09248,64.9089598 4.94794667,65.5274364 7.42188,65.5274364 Z M86.3980588,14.8493472 L86.3980588,50.6283723 C86.3980588,52.090479 85.609383,53.4814346 84.2885765,54.1107718 C83.0449339,54.7030303 81.6459613,54.568745 80.574685,53.8542267 L64.6468407,43.2356639 C63.6096368,42.5441946 62.9863123,41.3797203 62.9863123,40.1330713 L62.9863123,25.3947546 C62.9863123,24.1481057 63.6096368,22.9836313 64.6468407,22.2921621 L80.574685,11.6735992 C82.495767,10.3928779 85.1694482,11.1204238 86.1184647,13.3621872 C86.3168863,13.8301816 86.3980588,14.3402655 86.3980588,14.8493472 Z" id="Shape"></path>
                </g>
            </g>
        </g>
    </g>
</svg>