<?xml version="1.0" encoding="UTF-8"?>
<svg width="3300px" height="2200px" viewBox="0 0 3300 2200" version="1.1" xmlns="http://www.w3.org/2000/svg" xmlns:xlink="http://www.w3.org/1999/xlink">
    <title>threema.phone.fill</title>
    <g id="Ready-for-export" stroke="none" stroke-width="1" fill="none" fill-rule="evenodd">
        <g id="threema.phone.fill">
            <g id="Notes">
                <rect id="artboard" fill="#FFFFFF" fill-rule="nonzero" x="0" y="0" width="3300" height="2200"></rect>
                <line x1="263" y1="292" x2="3036" y2="292" id="Path" stroke="#000000" stroke-width="0.5"></line>
                <text id="Weight/Scale-Variations" fill="#000000" fill-rule="nonzero" font-family="Helvetica-Bold, Helvetica" font-size="13" font-weight="bold">
                    <tspan x="263" y="322">Weight/Scale Variations</tspan>
                </text>
                <text id="Ultralight" fill="#000000" fill-rule="nonzero" font-family="Helvetica" font-size="13" font-weight="normal">
                    <tspan x="533.711" y="322">Ultralight</tspan>
                </text>
                <text id="Thin" fill="#000000" fill-rule="nonzero" font-family="Helvetica" font-size="13" font-weight="normal">
                    <tspan x="843.422" y="322">Thin</tspan>
                </text>
                <text id="Light" fill="#000000" fill-rule="nonzero" font-family="Helvetica" font-size="13" font-weight="normal">
                    <tspan x="1138.63" y="322">Light</tspan>
                </text>
                <text id="Regular" fill="#000000" fill-rule="nonzero" font-family="Helvetica" font-size="13" font-weight="normal">
                    <tspan x="1426.84" y="322">Regular</tspan>
                </text>
                <text id="Medium" fill="#000000" fill-rule="nonzero" font-family="Helvetica" font-size="13" font-weight="normal">
                    <tspan x="1723.06" y="322">Medium</tspan>
                </text>
                <text id="Semibold" fill="#000000" fill-rule="nonzero" font-family="Helvetica" font-size="13" font-weight="normal">
                    <tspan x="2015.77" y="322">Semibold</tspan>
                </text>
                <text id="Bold" fill="#000000" fill-rule="nonzero" font-family="Helvetica" font-size="13" font-weight="normal">
                    <tspan x="2326.48" y="322">Bold</tspan>
                </text>
                <text id="Heavy" fill="#000000" fill-rule="nonzero" font-family="Helvetica" font-size="13" font-weight="normal">
                    <tspan x="2618.19" y="322">Heavy</tspan>
                </text>
                <text id="Black" fill="#000000" fill-rule="nonzero" font-family="Helvetica" font-size="13" font-weight="normal">
                    <tspan x="2917.4" y="322">Black</tspan>
                </text>
                <line x1="263" y1="1903" x2="3036" y2="1903" id="Path" stroke="#000000" stroke-width="0.5"></line>
                <g id="Group" transform="translate(264.367190, 1918.068400)" fill="#000000" fill-rule="nonzero">
                    <path d="M7.88086,15.761678 C12.18751,15.761678 15.77151,12.18746 15.77151,7.88082 C15.77151,3.5742 12.17771,0 7.87109,0 C3.57422,0 -8.8817842e-16,3.5742 -8.8817842e-16,7.88082 C-8.8817842e-16,12.18746 3.58398,15.761678 7.88086,15.761678 Z M7.88086,14.277303 C4.33593,14.277303 1.5039,11.43551 1.5039,7.88082 C1.5039,4.3261 4.32617,1.4843 7.87109,1.4843 C11.42581,1.4843 14.26761,4.3261 14.2773352,7.88082 C14.28711,11.43551 11.43551,14.277303 7.88086,14.277303 Z M5.02929,8.61324 L7.13867,8.61324 L7.13867,10.73238 C7.13867,11.17183 7.43164,11.47457 7.86133,11.47457 C8.31054,11.47457 8.60351,11.17183 8.60351,10.73238 L8.60351,8.61324 L10.73241,8.61324 C11.17191,8.61324 11.47461,8.32027 11.47461,7.89058 C11.47461,7.45113 11.17191,7.1484 10.73241,7.1484 L8.60351,7.1484 L8.60351,5.03902 C8.60351,4.5898 8.31054,4.2871 7.86133,4.2871 C7.43164,4.2871 7.13867,4.5898 7.13867,5.03902 L7.13867,7.1484 L5.02929,7.1484 C4.58008,7.1484 4.27734,7.45113 4.27734,7.89058 C4.27734,8.32027 4.58008,8.61324 5.02929,8.61324 Z" id="Shape"></path>
                </g>
                <g id="Group" transform="translate(283.254050, 1915.988300)" fill="#000000" fill-rule="nonzero">
                    <path d="M9.96095,19.92186 C15.41015,19.92186 19.92185,15.40037 19.92185,9.96092 C19.92185,4.5117 15.40035,0 9.95115,0 C4.51172,0 8.8817842e-16,4.5117 8.8817842e-16,9.96092 C8.8817842e-16,15.40037 4.52148,19.92186 9.96095,19.92186 Z M9.96095,18.2617 C5.35156,18.2617 1.66992,14.57029 1.66992,9.96092 C1.66992,5.3515 5.34179,1.6601 9.95115,1.6601 C14.56055,1.6601 18.25195,5.3515 18.261769,9.96092 C18.27145,14.57029 14.57035,18.2617 9.96095,18.2617 Z M6.24023,10.78123 L9.13085,10.78123 L9.13085,13.69139 C9.13085,14.17967 9.46285,14.5117 9.94145,14.5117 C10.42965,14.5117 10.77145,14.17967 10.77145,13.69139 L10.77145,10.78123 L13.68165,10.78123 C14.16995,10.78123 14.50195,10.4492 14.50195,9.97068 C14.50195,9.4824 14.16995,9.14061 13.68165,9.14061 L10.77145,9.14061 L10.77145,6.25 C10.77145,5.7422 10.42965,5.4101 9.94145,5.4101 C9.46285,5.4101 9.13085,5.7519 9.13085,6.25 L9.13085,9.14061 L6.24023,9.14061 C5.73242,9.14061 5.40039,9.4824 5.40039,9.97068 C5.40039,10.4492 5.74218,10.78123 6.24023,10.78123 Z" id="Shape"></path>
                </g>
                <g id="Group" transform="translate(307.179860, 1913.224600)" fill="#000000" fill-rule="nonzero">
                    <path d="M12.71484,25.43946 C19.67774,25.43946 25.43944,19.6777438 25.43944,12.72462 C25.43944,5.7617 19.66794,0 12.70504,0 C5.75195,0 0,5.7617 0,12.72462 C0,19.6777438 5.76172,25.43946 12.71484,25.43946 Z M12.71484,23.62306 C6.67969,23.62306 1.82617,18.75978 1.82617,12.72462 C1.82617,6.6797 6.66992,1.8262 12.70504,1.8262 C18.75004,1.8262 23.60354,6.6797 23.6132548,12.72462 C23.62304,18.75978 18.75974,23.62306 12.71484,23.62306 Z M7.80274,13.63282 L11.80664,13.63282 L11.80664,17.64649 C11.80664,18.1836 12.17774,18.5547 12.69534,18.5547 C13.23244,18.5547 13.60354,18.1836 13.60354,17.64649 L13.60354,13.63282 L17.62694,13.63282 C18.15434,13.63282 18.53514,13.26173 18.53514,12.74415 C18.53514,12.20704 18.16404,11.82618 17.62694,11.82618 L13.60354,11.82618 L13.60354,7.8223 C13.60354,7.2656 13.23244,6.8945 12.69534,6.8945 C12.17774,6.8945 11.80664,7.2754 11.80664,7.8223 L11.80664,11.82618 L7.80274,11.82618 C7.24609,11.82618 6.875,12.20704 6.875,12.74415 C6.875,13.26173 7.25586,13.63282 7.80274,13.63282 Z" id="Shape"></path>
                </g>
                <text id="Design-Variations" fill="#000000" fill-rule="nonzero" font-family="Helvetica-Bold, Helvetica" font-size="13" font-weight="bold">
                    <tspan x="263" y="1953">Design Variations</tspan>
                </text>
                <text id="Symbols-are-supported-in-up-to-nine-weights-and-three-scales." fill="#000000" fill-rule="nonzero" font-family="Helvetica" font-size="13" font-weight="normal">
                    <tspan x="263" y="1971">Symbols are supported in up to nine weights and three scales.</tspan>
                </text>
                <text id="For-optimal-layout-with-text-and-other-symbols,-vertically-align" fill="#000000" fill-rule="nonzero" font-family="Helvetica" font-size="13" font-weight="normal">
                    <tspan x="263" y="1989">For optimal layout with text and other symbols, vertically align</tspan>
                </text>
                <text id="symbols-with-the-adjacent-text." fill="#000000" fill-rule="nonzero" font-family="Helvetica" font-size="13" font-weight="normal">
                    <tspan x="263" y="2007">symbols with the adjacent text.</tspan>
                </text>
                <line x1="776" y1="1919" x2="776" y2="1933" id="Path" stroke="#00AEEF" stroke-width="0.5"></line>
                <g id="Group" transform="translate(778.490230, 1918.712900)" fill="#000000" fill-rule="nonzero">
                    <path d="M0.82032,14.414053 C1.33789,14.414053 1.5918,14.2187406 1.77735,13.681631 L3.03711,10.2246 L8.79887,10.2246 L10.05857,13.681631 C10.24417,14.2187406 10.49807,14.414053 11.00587,14.414053 C11.52347,14.414053 11.85547,14.101553 11.85547,13.613272 C11.85547,13.447256 11.82617,13.300772 11.74807,13.08593 L7.16797,0.8984 C6.94336,0.293 6.54297,0 5.91797,0 C5.3125,0 4.90235,0.293 4.6875,0.8887 L0.10743,13.09569 C0.0293,13.310538 -4.4408921e-16,13.457022 -4.4408921e-16,13.623038 C-4.4408921e-16,14.111319 0.3125,14.414053 0.82032,14.414053 Z M3.51563,8.74999 L5.88868,2.1777 L5.9375,2.1777 L8.31057,8.74999 L3.51563,8.74999 Z" id="Shape"></path>
                </g>
                <line x1="792.836" y1="1919" x2="792.836" y2="1933" id="Path" stroke="#00AEEF" stroke-width="0.5"></line>
                <text id="Margins" fill="#000000" fill-rule="nonzero" font-family="Helvetica-Bold, Helvetica" font-size="13" font-weight="bold">
                    <tspan x="776" y="1953">Margins</tspan>
                </text>
                <text id="Leading-and-trailing-margins-on-the-left-and-right-side-of-each-symbol" fill="#000000" fill-rule="nonzero" font-family="Helvetica" font-size="13" font-weight="normal">
                    <tspan x="776" y="1971">Leading and trailing margins on the left and right side of each symbol</tspan>
                </text>
                <text id="can-be-adjusted-by-modifying-the-x-location-of-the-margin-guidelines." fill="#000000" fill-rule="nonzero" font-family="Helvetica" font-size="13" font-weight="normal">
                    <tspan x="776" y="1989">can be adjusted by modifying the x-location of the margin guidelines.</tspan>
                </text>
                <text id="Modifications-are-automatically-applied-proportionally-to-all" fill="#000000" fill-rule="nonzero" font-family="Helvetica" font-size="13" font-weight="normal">
                    <tspan x="776" y="2007">Modifications are automatically applied proportionally to all</tspan>
                </text>
                <text id="scales-and-weights." fill="#000000" fill-rule="nonzero" font-family="Helvetica" font-size="13" font-weight="normal">
                    <tspan x="776" y="2025">scales and weights.</tspan>
                </text>
                <g id="Group" transform="translate(1291.248126, 1914.517396)" fill="#000000" fill-rule="nonzero">
                    <path d="M0.593673634,20.347834 L2.29289363,22.056824 C3.15226363,22.925964 4.13859363,22.867374 5.06632363,21.841984 L15.2420736,10.631044 C15.5057736,10.718934 15.7791736,10.699404 16.0916736,10.640804 L17.1561736,10.445494 L17.8202736,11.119324 L17.7811736,11.675964 C17.7420736,12.174014 17.8690736,12.554874 18.3573736,13.033384 L19.1190736,13.775574 C19.5975736,14.254084 20.2127736,14.283384 20.6815736,13.814634 L23.5916736,10.894714 C24.0604736,10.425964 24.0409736,9.83026404 23.5623736,9.35174404 L22.7909736,8.59002404 C22.3123736,8.11150404 21.9413736,7.95530404 21.4627736,7.99430404 L20.8866736,8.04310404 L20.2420736,7.40840404 L20.4862736,6.28530404 C20.6131736,5.71890404 20.4569736,5.27950404 19.8709736,4.69350404 L17.6737736,2.50600404 C14.3338736,-0.814295964 9.90027363,-0.736195964 7.00968363,2.15450404 C6.58976363,2.56460404 6.56046363,3.14080404 6.79484363,3.53140404 C7.02921363,3.89280404 7.48820363,4.12710404 8.13277363,3.96110404 C9.59757363,3.61930404 11.1209736,3.56070404 12.5467736,4.49820404 L11.9608736,5.95330404 C11.7655736,6.43180404 11.7362736,6.83220404 11.8631736,7.19350404 L0.798753634,17.584166 C-0.187576366,18.5021352 -0.265706366,19.478698 0.593673634,20.347834 Z M8.50387363,2.52560404 C10.9354736,0.748204036 14.2264736,1.05100404 16.4530736,3.27750404 L18.8846736,5.68960404 C19.1190736,5.92400404 19.1580736,6.10960404 19.0897736,6.45140404 L18.7674736,7.93570404 L20.2713736,9.42010404 L21.2577736,9.36151404 C21.5116736,9.35174404 21.5897736,9.37127404 21.7850736,9.56658404 L22.3612736,10.142764 L19.9198736,12.584164 L19.3436736,12.007994 C19.1483736,11.812684 19.1190736,11.734554 19.1288736,11.470884 L19.1971736,10.494324 L17.7030736,9.00994404 L16.1795736,9.26385404 C15.8573736,9.33221404 15.7108736,9.30291404 15.4666736,9.06854404 L13.4647736,7.06660404 C13.2108736,6.83220404 13.1815736,6.66620404 13.3377736,6.29510404 L14.2166736,4.20530404 C12.6541736,2.75020404 10.6229736,2.12520404 8.59167363,2.72090404 C8.43547363,2.75990404 8.37687363,2.63300404 8.50387363,2.52560404 Z M3.02531363,20.787304 L1.85343363,19.625184 C1.38468363,19.166198 1.49210363,18.824401 1.89249363,18.4630728 L12.7030736,8.28730404 L14.1678736,9.77166404 L4.17765363,20.757994 C3.82609363,21.158384 3.49406363,21.256044 3.02531363,20.787304 Z" id="Shape"></path>
                </g>
                <text id="Exporting" fill="#000000" fill-rule="nonzero" font-family="Helvetica-Bold, Helvetica" font-size="13" font-weight="bold">
                    <tspan x="1289" y="1953">Exporting</tspan>
                </text>
                <text id="Symbols-should-be-outlined-when-exporting-to-ensure-the" fill="#000000" fill-rule="nonzero" font-family="Helvetica" font-size="13" font-weight="normal">
                    <tspan x="1289" y="1971">Symbols should be outlined when exporting to ensure the</tspan>
                </text>
                <text id="design-is-preserved-when-submitting-to-Xcode." fill="#000000" fill-rule="nonzero" font-family="Helvetica" font-size="13" font-weight="normal">
                    <tspan x="1289" y="1989">design is preserved when submitting to Xcode.</tspan>
                </text>
                <text id="template-version" fill="#000000" fill-rule="nonzero" font-family="Helvetica" font-size="13" font-weight="normal">
                    <tspan x="2952" y="1933">Template v.2.0</tspan>
                </text>
                <text id="Requires-Xcode-12-or-greater" fill="#000000" fill-rule="nonzero" font-family="Helvetica" font-size="13" font-weight="normal">
                    <tspan x="2865" y="1951">Requires Xcode 12 or greater</tspan>
                </text>
                <text id="Generated-from-phone.fill" fill="#000000" fill-rule="nonzero" font-family="Helvetica" font-size="13" font-weight="normal">
                    <tspan x="2889" y="1969">Generated from phone.fill</tspan>
                </text>
                <text id="Typeset-at-100-points" fill="#000000" fill-rule="nonzero" font-family="Helvetica" font-size="13" font-weight="normal">
                    <tspan x="2912" y="1987">Typeset at 100 points</tspan>
                </text>
                <text id="Small" fill="#000000" fill-rule="nonzero" font-family="Helvetica" font-size="13" font-weight="normal">
                    <tspan x="263" y="726">Small</tspan>
                </text>
                <text id="Medium" fill="#000000" fill-rule="nonzero" font-family="Helvetica" font-size="13" font-weight="normal">
                    <tspan x="263" y="1156">Medium</tspan>
                </text>
                <text id="Large" fill="#000000" fill-rule="nonzero" font-family="Helvetica" font-size="13" font-weight="normal">
                    <tspan x="263" y="1586">Large</tspan>
                </text>
            </g>
            <g id="Guides" transform="translate(263.000000, 625.041000)">
                <g id="H-reference" transform="translate(76.976562, 0.500000)" fill="#27AAE1" fill-rule="nonzero">
                    <path d="M-1.22124533e-15,70.459 L2.685548,70.459 L12.011738,45.9961 L44.775438,45.9961 L54.150438,70.459 L56.787138,70.459 L29.638638,0 L27.148438,0 L-1.22124533e-15,70.459 Z M28.369138,3.3203 L28.466838,3.3203 L43.896438,43.75 L12.890638,43.75 L28.369138,3.3203 Z" id="Shape"></path>
                </g>
                <line x1="0" y1="70.959" x2="2773" y2="70.959" id="Baseline-S" stroke="#27AAE1" stroke-width="0.5"></line>
                <line x1="0" y1="0.5" x2="2773" y2="0.5" id="Capline-S" stroke="#27AAE1" stroke-width="0.5"></line>
                <g id="H-reference" transform="translate(76.976562, 430.500000)" fill="#27AAE1" fill-rule="nonzero">
                    <path d="M-1.22124533e-15,70.459 L2.685548,70.459 L12.011738,45.9961 L44.775438,45.9961 L54.150438,70.459 L56.787138,70.459 L29.638638,0 L27.148438,0 L-1.22124533e-15,70.459 Z M28.369138,3.3203 L28.466838,3.3203 L43.896438,43.75 L12.890638,43.75 L28.369138,3.3203 Z" id="Shape"></path>
                </g>
                <line x1="0" y1="500.959" x2="2773" y2="500.959" id="Baseline-M" stroke="#27AAE1" stroke-width="0.5"></line>
                <line x1="0" y1="430.499" x2="2773" y2="430.499" id="Capline-M" stroke="#27AAE1" stroke-width="0.5"></line>
                <g id="H-reference" transform="translate(76.976562, 860.500000)" fill="#27AAE1" fill-rule="nonzero">
                    <path d="M-1.22124533e-15,70.459 L2.685548,70.459 L12.011738,45.9961 L44.775438,45.9961 L54.150438,70.459 L56.787138,70.459 L29.638638,0 L27.148438,0 L-1.22124533e-15,70.459 Z M28.369138,3.3203 L28.466838,3.3203 L43.896438,43.75 L12.890638,43.75 L28.369138,3.3203 Z" id="Shape"></path>
                </g>
                <line x1="0" y1="930.959" x2="2773" y2="930.959" id="Baseline-L" stroke="#27AAE1" stroke-width="0.5"></line>
                <line x1="0" y1="860.499" x2="2773" y2="860.499" id="Capline-L" stroke="#27AAE1" stroke-width="0.5"></line>
                <line x1="1130.35" y1="405.749" x2="1130.35" y2="525.079" id="left-margin" stroke="#00AEEF" stroke-width="0.5"></line>
                <line x1="1243.34" y1="405.749" x2="1243.34" y2="525.079" id="right-margin" stroke="#00AEEF" stroke-width="0.5"></line>
            </g>
            <g id="Symbols" transform="translate(1391.913100, 625.345700)" fill="#000000" fill-rule="nonzero">
                <g id="Semibold-L" transform="translate(591.730000, 837.734300)">
                    <path d="M32.666,86.42586 C51.1719,104.9317 73.7793,119.2872 92.2359,119.2872 C100.5859,119.2872 107.8609,116.4063 113.7209,109.961 C117.0899,106.2501 119.2379,101.90438 119.2379,97.55867 C119.2379,94.18953 117.9199,90.96688 114.6489,88.62312 L95.2639,74.9024 C92.3339,72.8028 89.8439,71.8262 87.5489,71.8262 C84.6192,71.8262 81.9336,73.4376 79.0039,76.3673 L74.3653,80.9083 C73.6817,81.6407 72.8028,81.8848 71.9239,81.8848 C70.9961,81.8848 70.0684,81.543 69.3848,81.2012 C65.4297,79.0528 58.5938,73.3399 52.1973,66.9434 C45.8008,60.547 40.0391,53.711 37.9395,49.7559 C37.5977,49.0723 37.2559,48.1446 37.2559,47.2169 C37.2559,46.4356 37.5,45.5567 38.2324,44.8731 L42.7735,40.1856 C45.6543,37.1583 47.3145,34.5216 47.3145,31.5919 C47.3145,29.2481 46.2891,26.7579 44.1895,23.8282 L30.6641,4.7364 C28.3203,1.4161 24.9024,0.0001 21.3379,0.0001 C17.0899,0.0001 12.793,1.9044 9.0821,5.4688 C2.7832,11.4747 0,18.8477 0,27.002 C0,45.5567 14.1602,67.9688 32.666,86.42586 Z" id="Path"></path>
                    <path d="M86.2569,41.8406249 C86.2569,45.3744379 87.8640676,47 91.1854838,47 L114.36401,47 C117.685499,47 119.2569,45.3744379 119.2569,41.8406249 L119.2569,24.0653885 C119.2569,20.9202762 117.935502,19.2947069 115.292631,19.0473361 L115.292631,13.8173032 C115.292631,5.54811209 110.2569,0 102.7569,0 C95.2926004,0 90.2211686,5.54811209 90.2211686,13.8173032 L90.2211686,19.0473361 C87.5783716,19.2947069 86.2569,20.9202762 86.2569,24.0653885 L86.2569,41.8406249 Z M95.5426026,18.9413097 L95.5426026,13.428588 C95.5426026,8.41053553 98.3997812,5.12400647 102.7569,5.12400647 C107.149786,5.12400647 110.006891,8.41053553 110.006891,13.428588 L110.006891,18.9413097 L95.5426026,18.9413097 Z" id="Shape"></path>
                </g>
                <g id="Regular-L" transform="translate(-0.000000, 839.294300)">
                    <path d="M31.4942,84.18227 C49.2676,101.9557 71.2403,115.8717 89.3069,115.8717 C97.4609,115.8717 104.5899,113.0397 110.3519,106.7897 C113.5739,103.2252 115.8689,98.87953 115.8689,94.58266 C115.8689,91.555312 114.6969,88.5768 111.6699,86.47719 L92.3829,72.8541 C89.6489,70.901 87.2559,69.9245 85.0098,69.9245 C82.2266,69.9245 79.5899,71.487 76.6602,74.319 L72.1192,78.8112 C71.4356,79.4948 70.6055,79.7389 69.7266,79.7389 C68.8477,79.7389 67.9688,79.3971 67.2852,79.1041 C63.5254,77.1022 56.7383,71.5846 50.4395,65.237 C44.0918,58.9381 38.5254,52.2487 36.6211,48.3912 C36.2793,47.7077 35.9864,46.8776 35.9864,45.9987 C35.9864,45.2174 36.2305,44.4362 36.9141,43.7038 L41.3574,39.0651 C44.1895,36.0866 45.752,33.4498 45.752,30.6666 C45.752,28.3717 44.7266,26.028 42.8223,23.2448 L29.4922,4.4459 C27.2461,1.3209 24.1211,0.0026 20.752,0.0026 C16.6992,0.0026 12.4512,1.9069 8.7403,5.4713 C2.6856,11.3795 0,18.6061 0,26.5651 C0,44.6803 13.6719,66.4088 31.4942,84.18227 Z" id="Path"></path>
                    <path d="M83.9369,41.3396982 C83.9369,44.7220709 85.4059863,46.293661 88.5149553,46.293661 L111.26886,46.293661 C114.377829,46.293661 115.881061,44.7220709 115.881061,41.3396982 L115.881061,23.5738856 C115.881061,20.3624008 114.51448,18.8249491 111.747104,18.6882976 L111.747104,13.187743 C111.747104,5.26139706 106.964037,0 99.8919078,0 C92.8197784,0 88.0366416,5.26139706 88.0366416,13.187743 L88.0366416,18.6882976 C85.2692653,18.8249491 83.9369,20.3624008 83.9369,23.5738856 L83.9369,41.3396982 Z M92.1364531,18.6541523 L92.1364531,12.8119339 C92.1364531,7.48217612 95.2454921,3.96317296 99.8919078,3.96317296 C104.538324,3.96317296 107.681508,7.48217612 107.681508,12.8119339 L107.681508,18.6541523 L92.1364531,18.6541523 Z" id="Shape"></path>
                </g>
                <g id="Semibold-M" transform="translate(604.477400, 420.234300)">
                    <path d="M25.83,67.8223 C40.5273,82.51961 58.3007,93.8477 72.8027,93.8477 C79.248,93.8477 84.9609,91.5528 89.5505,86.52352 C92.1875,83.545 93.7495,80.175859 93.7495,76.80672 C93.7495,74.02352 92.7245,71.3868 90.0875,69.5313 L75.0488,58.838 C72.6562,57.129 70.6543,56.3477 68.8476,56.3477 C66.5039,56.3477 64.4531,57.6661 62.1582,59.961 L58.5449,63.5255 C58.0078,64.0626 57.3242,64.2579 56.6406,64.2579 C55.9082,64.2579 55.1269,63.9649 54.5898,63.672 C51.5136,61.963 46.1425,57.3731 41.2109,52.4903 C36.3281,47.5587 31.6894,42.2364 30.0293,39.1114 C29.7363,38.5743 29.4433,37.793 29.4433,37.0606 C29.4433,36.4259 29.6386,35.7423 30.1757,35.2052 L33.7402,31.543 C36.0351,29.2481 37.3535,27.1973 37.3535,24.8536 C37.3535,23.047 36.5722,21.045 34.8633,18.6524 L24.2187,3.711 C22.3633,1.1231 19.6289,0.0001 16.748,0.0001 C13.4277,0.0001 10.0586,1.4161 7.1289,4.1993 C2.1972,8.838 0,14.5997 0,21.045 C0,35.547 11.1816,53.1739 25.83,67.8223 Z" id="Path"></path>
                    <path d="M67.7095,32.9009652 C67.7095,35.6941273 68.9511066,37 71.5803033,37 L89.8022008,37 C92.4314723,37 93.7095,35.6941273 93.7095,32.9009652 L93.7095,19.0078105 C93.7095,16.6137352 92.687018,15.3077882 90.7516911,15.0538644 L90.7516911,11.1362462 C90.7516911,4.46171948 86.6617632,0 80.7095,0 C74.720741,0 70.6673837,4.46171948 70.6673837,11.1362462 L70.6673837,15.0538644 C68.6954861,15.3077882 67.7095,16.6137352 67.7095,19.0078105 L67.7095,32.9009652 Z M75.3780402,14.9451036 L75.3780402,10.8098151 C75.3780402,7.03721135 77.4595,4.53430098 80.7095,4.53430098 C83.9230042,4.53430098 86.0409598,7.00095774 86.0409598,10.8098151 L86.0409598,14.9451036 L75.3780402,14.9451036 Z" id="Shape"></path>
                </g>
                <g id="Regular-M" transform="translate(12.667400, 421.831734)">
                    <path d="M24.8047,65.6877662 C38.916,79.7991282 56.0547,90.6877662 70.0683,90.6877662 C76.3672,90.6877662 81.8847,88.4905362 86.3281,83.6077262 C88.9155,80.7268662 90.5275,77.3577262 90.5275,74.0374062 C90.5275,71.5960062 89.5995,69.2522562 87.3047,67.5920662 L72.3144,56.9475662 C70.0195,55.3850662 68.1152,54.6037662 66.3574,54.6037662 C64.1601,54.6037662 62.1582,55.8733662 59.9121,58.0705662 L56.4453,61.4885662 C55.9082,62.0256662 55.2246,62.2698662 54.5898,62.2698662 C53.8574,62.2698662 53.125,61.9768662 52.6367,61.7327662 C49.6093,60.1213662 44.4336,55.6780662 39.5996,50.8928662 C34.8144,46.1077662 30.3711,40.9319662 28.8086,37.9045662 C28.5644,37.3674662 28.2715,36.6838662 28.2715,35.9514662 C28.2715,35.3166662 28.4668,34.6819662 29.0039,34.1448662 L32.4707,30.5803662 C34.6191,28.3342662 35.9375,26.3811662 35.9375,24.1350662 C35.9375,22.3772662 35.1074,20.4729662 33.4961,18.1780662 L22.998,3.38306624 C21.289,1.03936624 18.8965,0.0139662437 16.2597,0.0139662437 C13.0371,0.0139662437 9.7168,1.47876624 6.8359,4.26206624 C2.0996,8.80306624 0,14.4182662 0,20.6194662 C0,34.6330662 10.6933,51.6252662 24.8047,65.6877662 Z" id="Path"></path>
                    <path d="M65.7478164,31.9803753 C65.7478164,34.5538975 66.8802153,35.7548886 69.2478164,35.7548886 L87.0222857,35.7548886 C89.3898948,35.7548886 90.5222235,34.5538975 90.5222235,31.9803753 L90.5222235,18.3235116 C90.5222235,15.9215998 89.5271404,14.7206087 87.5026804,14.5833626 L87.5026804,10.5343572 C87.5026804,4.22061573 83.7281811,0 78.1350551,0 C72.541929,0 68.7674298,4.22061573 68.7674298,10.5343572 L68.7674298,14.5833626 C66.7429698,14.7206087 65.7478164,15.9215998 65.7478164,18.3235116 L65.7478164,31.9803753 Z M72.3360255,14.5490687 L72.3360255,10.1569129 C72.3360255,6.14220144 74.6694111,3.46572713 78.1350551,3.46572713 C81.6006991,3.46572713 83.9340144,6.14220144 83.9340144,10.1569129 L83.9340144,14.5490687 L72.3360255,14.5490687 Z" id="Shape"></path>
                </g>
                <g id="Semibold-S" transform="translate(614.465960, -0.000000)">
                    <path d="M20.45894,53.3203 C32.12894,64.99024 46.09374,73.92578 57.47074,73.92578 C62.50004,73.92578 66.99214,72.16797 70.50784,68.16407 C72.65624,65.77149 73.77934,63.13477 73.77934,60.4981 C73.77934,58.3008 72.94924,56.2012 70.94724,54.7852 L59.13084,46.3379 C57.12894,44.9707 55.56644,44.3359 54.15044,44.3359 C52.29494,44.3359 50.68364,45.4102 48.92574,47.168 L46.14254,49.9512 C45.70314,50.3906 45.11714,50.5371 44.62894,50.5371 C43.99414,50.5371 43.40824,50.293 42.96874,50.0977 C40.52734,48.7305 36.37694,45.0684 32.56834,41.2598 C28.75974,37.4512 25.09764,33.3008 23.73044,30.8105 C23.48634,30.4199 23.24214,29.7852 23.24214,29.1504 C23.24214,28.6621 23.43754,28.125 23.87694,27.6855 L26.61134,24.9023 C28.41794,23.0957 29.49214,21.5332 29.49214,19.6777 C29.49214,18.2617 28.85744,16.6504 27.44144,14.6973 L19.04294,2.8809 C17.57814,0.8789 15.47854,0 13.18364,0 C10.54684,0 7.91014,1.1231 5.61524,3.2715 C1.70894,6.9336 0,11.4258 0,16.4551 C0,27.832 8.78904,41.6992 20.45894,53.3203 Z" id="Path"></path>
                    <path d="M53.82094,24.9088056 C53.82094,27.0193667 54.790378,28.0043 56.7652872,28.0043 L70.8765928,28.0043 C72.851502,28.0043 73.82094,27.0193667 73.82094,24.9088056 L73.82094,14.461539 C73.82094,12.6675945 73.0668918,11.6826612 71.630641,11.4715835 L71.630641,8.62239443 C71.630641,3.45149455 68.4708304,0.0043 63.802997,0.0043 C59.1710496,0.0043 56.011239,3.45149455 56.011239,8.62239443 L56.011239,11.4715835 C54.5390286,11.6826612 53.82094,12.6675945 53.82094,14.461539 L53.82094,24.9088056 Z M59.8532521,11.4012723 L59.8532521,8.30577785 C59.8532521,5.49174443 61.3972346,3.62741666 63.802997,3.62741666 C66.2446454,3.62741666 67.8245139,5.49174443 67.8245139,8.30577785 L67.8245139,11.4012723 L59.8532521,11.4012723 Z" id="Shape"></path>
                </g>
                <g id="Regular-S" transform="translate(22.185960, 1.220700)">
                    <path d="M19.72654,51.7578 C31.00584,63.08594 44.62894,71.72852 55.61524,71.72852 C60.49804,71.72852 64.84374,70.019538 68.26174,66.11329 C70.36134,63.76954 71.48434,61.13282 71.48434,58.5449 C71.48434,56.543 70.75194,54.6875 68.94534,53.418 L57.17774,45.0195 C55.27344,43.6524 53.75974,43.0664 52.39254,43.0664 C50.58594,43.0664 49.07224,44.0918 47.31444,45.8008 L44.62894,48.4863 C44.18944,48.9258 43.65234,49.0723 43.16404,49.0723 C42.57814,49.0723 41.99214,48.8281 41.60154,48.6328 C39.16014,47.3633 35.15624,43.75 31.44534,40.0879 C27.78324,36.377 24.16994,32.3731 22.90044,29.9805 C22.70504,29.541 22.46094,29.0039 22.46094,28.3691 C22.46094,27.8809 22.60744,27.3438 23.04684,26.9043 L25.73244,24.2188 C27.44144,22.5098 28.51564,20.9473 28.51564,19.1895 C28.51564,17.8223 27.88084,16.2598 26.51364,14.3555 L18.16404,2.6367 C16.84574,0.7813 14.94144,0 12.84184,0 C10.30274,0 7.66604,1.1231 5.41994,3.3203 C1.66014,6.8848 0,11.2793 0,16.1133 C0,27.1484 8.44724,40.5274 19.72654,51.7578 Z" id="Path"></path>
                    <path d="M52.15094,24.777492 C52.15094,26.7198691 53.0023306,27.6399021 54.8413259,27.6399021 L68.7019676,27.6399021 C70.5069269,27.6399021 71.3924233,26.7198691 71.3924233,24.777492 L71.3924233,14.2477452 C71.3924233,12.4757239 70.643141,11.555691 69.1447159,11.4193226 L69.1447159,8.42061393 C69.1447159,3.37721701 66.1819017,0.0036 61.7546287,0.0036 C57.3614616,0.0036 54.3645416,3.37721701 54.3645416,8.42061393 L54.3645416,11.4193226 C52.9001526,11.555691 52.15094,12.4757239 52.15094,14.2477452 L52.15094,24.777492 Z M57.4636396,11.3852654 L57.4636396,8.07983255 C57.4636396,5.01293972 59.1664208,3.00237843 61.7546287,3.00237843 C64.3428366,3.00237843 66.0797237,5.01293972 66.0797237,8.07983255 L66.0797237,11.3852654 L57.4636396,11.3852654 Z" id="Shape"></path>
                </g>
            </g>
        </g>
    </g>
</svg>