<svg fill="none" viewBox="0 0 32 32" xmlns="http://www.w3.org/2000/svg"><g clip-path="url(#u)"><g filter="url(#t)"><path d="m28.1 14.042c-1.34 1.34-3.17 2.1-5.07 2.1h-6.89c-2 0-3.92 0.83-5.28 2.29l-0.85 0.91c-0.21002 0.22-0.58002 0.03-0.52002-0.27l2.02-9.44c0.5-2.32-0.81-4.69-3.05-5.5-1.24-0.45-2.63-0.36-3.81 0.24-1.18 0.61-2.06 1.69-2.42 2.96-0.38 1.37-0.29 2.84 0.27 4.15l0.95 2.23c0.11 0.25 0.36 0.42 0.63 0.42 0.32 0 0.6-0.22 0.67-0.53l0.74-3.07 0.6-2.12c0.08-0.28 0.28-0.42 0.39-0.48s0.34-0.14 0.62-0.04c0.36 0.13 0.58 0.52 0.5 0.9l-1.57 7.35-1.23 5.68c-0.92 4.29 2.35 8.33 6.74 8.33h7.21c6.21 0 11.25-5.03 11.25-11.25v-4.08c0-0.99-1.2-1.48-1.9-0.78z" fill="url(#p)"/></g><path d="m28.1 14.042c-1.34 1.34-3.17 2.1-5.07 2.1h-6.89c-2 0-3.92 0.83-5.28 2.29l-0.85 0.91c-0.21002 0.22-0.58002 0.03-0.52002-0.27l2.02-9.44c0.5-2.32-0.81-4.69-3.05-5.5-1.24-0.45-2.63-0.36-3.81 0.24-1.18 0.61-2.06 1.69-2.42 2.96-0.38 1.37-0.29 2.84 0.27 4.15l0.95 2.23c0.11 0.25 0.36 0.42 0.63 0.42 0.32 0 0.6-0.22 0.67-0.53l0.74-3.07 0.6-2.12c0.08-0.28 0.28-0.42 0.39-0.48s0.34-0.14 0.62-0.04c0.36 0.13 0.58 0.52 0.5 0.9l-1.57 7.35-1.23 5.68c-0.92 4.29 2.35 8.33 6.74 8.33h7.21c6.21 0 11.25-5.03 11.25-11.25v-4.08c0-0.99-1.2-1.48-1.9-0.78z" fill="url(#i)"/><path d="m28.1 14.042c-1.34 1.34-3.17 2.1-5.07 2.1h-6.89c-2 0-3.92 0.83-5.28 2.29l-0.85 0.91c-0.21002 0.22-0.58002 0.03-0.52002-0.27l2.02-9.44c0.5-2.32-0.81-4.69-3.05-5.5-1.24-0.45-2.63-0.36-3.81 0.24-1.18 0.61-2.06 1.69-2.42 2.96-0.38 1.37-0.29 2.84 0.27 4.15l0.95 2.23c0.11 0.25 0.36 0.42 0.63 0.42 0.32 0 0.6-0.22 0.67-0.53l0.74-3.07 0.6-2.12c0.08-0.28 0.28-0.42 0.39-0.48s0.34-0.14 0.62-0.04c0.36 0.13 0.58 0.52 0.5 0.9l-1.57 7.35-1.23 5.68c-0.92 4.29 2.35 8.33 6.74 8.33h7.21c6.21 0 11.25-5.03 11.25-11.25v-4.08c0-0.99-1.2-1.48-1.9-0.78z" fill="url(#h)"/><path d="m28.1 14.042c-1.34 1.34-3.17 2.1-5.07 2.1h-6.89c-2 0-3.92 0.83-5.28 2.29l-0.85 0.91c-0.21002 0.22-0.58002 0.03-0.52002-0.27l2.02-9.44c0.5-2.32-0.81-4.69-3.05-5.5-1.24-0.45-2.63-0.36-3.81 0.24-1.18 0.61-2.06 1.69-2.42 2.96-0.38 1.37-0.29 2.84 0.27 4.15l0.95 2.23c0.11 0.25 0.36 0.42 0.63 0.42 0.32 0 0.6-0.22 0.67-0.53l0.74-3.07 0.6-2.12c0.08-0.28 0.28-0.42 0.39-0.48s0.34-0.14 0.62-0.04c0.36 0.13 0.58 0.52 0.5 0.9l-1.57 7.35-1.23 5.68c-0.92 4.29 2.35 8.33 6.74 8.33h7.21c6.21 0 11.25-5.03 11.25-11.25v-4.08c0-0.99-1.2-1.48-1.9-0.78z" fill="url(#g)"/><path d="m28.1 14.042c-1.34 1.34-3.17 2.1-5.07 2.1h-6.89c-2 0-3.92 0.83-5.28 2.29l-0.85 0.91c-0.21002 0.22-0.58002 0.03-0.52002-0.27l2.02-9.44c0.5-2.32-0.81-4.69-3.05-5.5-1.24-0.45-2.63-0.36-3.81 0.24-1.18 0.61-2.06 1.69-2.42 2.96-0.38 1.37-0.29 2.84 0.27 4.15l0.95 2.23c0.11 0.25 0.36 0.42 0.63 0.42 0.32 0 0.6-0.22 0.67-0.53l0.74-3.07 0.6-2.12c0.08-0.28 0.28-0.42 0.39-0.48s0.34-0.14 0.62-0.04c0.36 0.13 0.58 0.52 0.5 0.9l-1.57 7.35-1.23 5.68c-0.92 4.29 2.35 8.33 6.74 8.33h7.21c6.21 0 11.25-5.03 11.25-11.25v-4.08c0-0.99-1.2-1.48-1.9-0.78z" fill="url(#f)"/><path d="m28.1 14.042c-1.34 1.34-3.17 2.1-5.07 2.1h-6.89c-2 0-3.92 0.83-5.28 2.29l-0.85 0.91c-0.21002 0.22-0.58002 0.03-0.52002-0.27l2.02-9.44c0.5-2.32-0.81-4.69-3.05-5.5-1.24-0.45-2.63-0.36-3.81 0.24-1.18 0.61-2.06 1.69-2.42 2.96-0.38 1.37-0.29 2.84 0.27 4.15l0.95 2.23c0.11 0.25 0.36 0.42 0.63 0.42 0.32 0 0.6-0.22 0.67-0.53l0.74-3.07 0.6-2.12c0.08-0.28 0.28-0.42 0.39-0.48s0.34-0.14 0.62-0.04c0.36 0.13 0.58 0.52 0.5 0.9l-1.57 7.35-1.23 5.68c-0.92 4.29 2.35 8.33 6.74 8.33h7.21c6.21 0 11.25-5.03 11.25-11.25v-4.08c0-0.99-1.2-1.48-1.9-0.78z" fill="url(#e)"/><path d="m28.1 14.042c-1.34 1.34-3.17 2.1-5.07 2.1h-6.89c-2 0-3.92 0.83-5.28 2.29l-0.85 0.91c-0.21002 0.22-0.58002 0.03-0.52002-0.27l2.02-9.44c0.5-2.32-0.81-4.69-3.05-5.5-1.24-0.45-2.63-0.36-3.81 0.24-1.18 0.61-2.06 1.69-2.42 2.96-0.38 1.37-0.29 2.84 0.27 4.15l0.95 2.23c0.11 0.25 0.36 0.42 0.63 0.42 0.32 0 0.6-0.22 0.67-0.53l0.74-3.07 0.6-2.12c0.08-0.28 0.28-0.42 0.39-0.48s0.34-0.14 0.62-0.04c0.36 0.13 0.58 0.52 0.5 0.9l-1.57 7.35-1.23 5.68c-0.92 4.29 2.35 8.33 6.74 8.33h7.21c6.21 0 11.25-5.03 11.25-11.25v-4.08c0-0.99-1.2-1.48-1.9-0.78z" fill="url(#d)"/><path d="m2.1002 10.142c0.08 0.46 0.22 0.91 0.4 1.35l0.95 2.23c0.11 0.25 0.36 0.42 0.63 0.42 0.32 0 0.6-0.22 0.67-0.53l0.74-3.07 0.11-0.4h-3.5z" fill="url(#c)"/><path d="m2.1002 10.142c0.08 0.46 0.22 0.91 0.4 1.35l0.95 2.23c0.11 0.25 0.36 0.42 0.63 0.42 0.32 0 0.6-0.22 0.67-0.53l0.74-3.07 0.11-0.4h-3.5z" fill="url(#b)"/><g filter="url(#s)"><path d="m2.4534 10.142v0.2014c0.03125 0.426 0.26216 0.8451 0.43674 1.2325l1.0476 2.1935-0.51654-2.4904c-0.02002-0.1301-0.01414-0.263 0.0173-0.3908l0.18348-0.7462h-1.1686z" fill="url(#a)"/></g><path d="m2.1002 10.142h3.5l0.28-0.99998h-3.88c0.01 0.33 0.04 0.67 0.1 0.99998z" fill="url(#o)"/><path d="m2.1002 10.142h3.5l0.28-0.99998h-3.88c0.01 0.33 0.04 0.67 0.1 0.99998z" fill="url(#n)"/><path d="m3.4402 9.1417c0.27614 0 0.5-0.22385 0.5-0.5 0-0.27614-0.22386-0.5-0.5-0.5-0.27615 0-0.5 0.22386-0.5 0.5 0 0.27615 0.22385 0.5 0.5 0.5z" fill="url(#m)"/><path d="m3.4402 9.1417c0.27614 0 0.5-0.22385 0.5-0.5 0-0.27614-0.22386-0.5-0.5-0.5-0.27615 0-0.5 0.22386-0.5 0.5 0 0.27615 0.22385 0.5 0.5 0.5z" fill="url(#l)"/><path d="m3.4402 9.1417c0.27614 0 0.5-0.22385 0.5-0.5 0-0.27614-0.22386-0.5-0.5-0.5-0.27615 0-0.5 0.22386-0.5 0.5 0 0.27615 0.22385 0.5 0.5 0.5z" fill="url(#k)"/><g filter="url(#r)"><path d="m30 18.034c-0.1346 1.1791-0.4203 2.3055-0.9182 3.2821-1.95 3.825-7.125 4.5521-9.4687 4.4375h-4.25v4.3983h3.3869c6.21 0 11.25-5.03 11.25-11.25v-0.8679z" fill="url(#j)"/></g><g filter="url(#q)"><path d="m8.9534 5.8664 0.08675-0.23446-0.08675 0.23446zm1.4218 4.0156 0.2411 0.06618-0.2411-0.06618zm-2.4062 11.25 0.23077 0.0961 0.00934-0.0224 0.00485-0.0238-0.24496-0.0499zm0.91565 1.6818c0.13492 0.0293 0.26807-0.0563 0.2974-0.1912s-0.05627-0.2681-0.19119-0.2974l-0.10621 0.4886zm-2.5045-16.106c0.10237-0.15356 0.42362-0.422 0.88988-0.59287 0.45585-0.16705 1.0184-0.22841 1.5966-0.01446l0.1735-0.46893c-0.71302-0.26382-1.4005-0.18456-1.9422 0.01392-0.53123 0.19467-0.95498 0.51667-1.1339 0.78499l0.41602 0.27735zm2.4865-0.60733c0.694 0.25678 1.1109 0.79173 1.3078 1.4628 0.1989 0.67799 0.1693 1.4889-0.0402 2.2521l0.4821 0.13236c0.228-0.83049 0.2687-1.7384 0.0379-2.5252-0.2328-0.79372-0.74558-1.4697-1.6141-1.791l-0.1735 0.46893zm1.2676 3.715c-0.35292 1.2855-1.7552 8.054-2.4102 11.266l0.48992 0.0999c0.65757-3.2252 2.0552-9.9692 2.4024-11.234l-0.4821-0.13236zm-2.396 11.22c-0.09664 0.232-0.15551 0.6002-0.00524 0.9585 0.15675 0.3737 0.5172 0.6815 1.1517 0.8195l0.10621-0.4886c-0.51554-0.1121-0.71759-0.3355-0.79678-0.5243-0.08567-0.2042-0.05391-0.4297 0.00569-0.5728l-0.46154-0.1923z" fill="#F7F4F9"/></g></g><defs><filter id="t" x="1.9998" y="2.8483" width="29" height="27.404" color-interpolation-filters="sRGB" filterUnits="userSpaceOnUse"><feFlood flood-opacity="0" result="BackgroundImageFix"/><feBlend in="SourceGraphic" in2="BackgroundImageFix" result="shape"/><feColorMatrix in="SourceAlpha" result="hardAlpha" values="0 0 0 0 0 0 0 0 0 0 0 0 0 0 0 0 0 0 127 0"/><feOffset dx="1" dy="-1"/><feGaussianBlur stdDeviation="0.75"/><feComposite in2="hardAlpha" k2="-1" k3="1" operator="arithmetic"/><feColorMatrix values="0 0 0 0 0.807843 0 0 0 0 0.776471 0 0 0 0 0.823529 0 0 0 1 0"/><feBlend in2="shape" result="effect1_innerShadow_28327_5021"/><feColorMatrix in="SourceAlpha" result="hardAlpha" values="0 0 0 0 0 0 0 0 0 0 0 0 0 0 0 0 0 0 127 0"/><feOffset dy="0.1"/><feGaussianBlur stdDeviation="0.125"/><feComposite in2="hardAlpha" k2="-1" k3="1" operator="arithmetic"/><feColorMatrix values="0 0 0 0 0.803922 0 0 0 0 0.803922 0 0 0 0 0.811765 0 0 0 1 0"/><feBlend in2="effect1_innerShadow_28327_5021" result="effect2_innerShadow_28327_5021"/></filter><filter id="s" x="1.9534" y="9.6417" width="2.4844" height="4.6273" color-interpolation-filters="sRGB" filterUnits="userSpaceOnUse"><feFlood flood-opacity="0" result="BackgroundImageFix"/><feBlend in="SourceGraphic" in2="BackgroundImageFix" result="shape"/><feGaussianBlur result="effect1_foregroundBlur_28327_5021" stdDeviation="0.25"/></filter><filter id="r" x="15.363" y="18.034" width="14.637" height="12.318" color-interpolation-filters="sRGB" filterUnits="userSpaceOnUse"><feFlood flood-opacity="0" result="BackgroundImageFix"/><feBlend in="SourceGraphic" in2="BackgroundImageFix" result="shape"/><feColorMatrix in="SourceAlpha" result="hardAlpha" values="0 0 0 0 0 0 0 0 0 0 0 0 0 0 0 0 0 0 127 0"/><feOffset dy="0.2"/><feGaussianBlur stdDeviation="0.15"/><feComposite in2="hardAlpha" k2="-1" k3="1" operator="arithmetic"/><feColorMatrix values="0 0 0 0 0.719687 0 0 0 0 0.622708 0 0 0 0 0.816667 0 0 0 1 0"/><feBlend in2="shape" result="effect1_innerShadow_28327_5021"/></filter><filter id="q" x="4.4641" y="3.9639" width="7.8444" height="20.356" color-interpolation-filters="sRGB" filterUnits="userSpaceOnUse"><feFlood flood-opacity="0" result="BackgroundImageFix"/><feBlend in="SourceGraphic" in2="BackgroundImageFix" result="shape"/><feGaussianBlur result="effect1_foregroundBlur_28327_5021" stdDeviation="0.75"/></filter><linearGradient id="p" x1="13.375" x2="13.375" y1="21.066" y2="31.253" gradientUnits="userSpaceOnUse"><stop stop-color="#E1DEE4" offset="0"/><stop stop-color="#D1BBE7" offset="1"/></linearGradient><radialGradient id="i" cx="0" cy="0" r="1" gradientTransform="translate(10.438 17) rotate(115.35) scale(4.0149 .89632)" gradientUnits="userSpaceOnUse"><stop stop-color="#F7F5F8" offset="0"/><stop stop-color="#F7F5F8" stop-opacity="0" offset="1"/></radialGradient><radialGradient id="h" cx="0" cy="0" r="1" gradientTransform="translate(10.156 18.347) rotate(113.05) scale(2.3943 .47201)" gradientUnits="userSpaceOnUse"><stop stop-color="#B0AEB1" offset=".15447"/><stop stop-color="#B0AEB1" stop-opacity="0" offset="1"/></radialGradient><radialGradient id="g" cx="0" cy="0" r="1" gradientTransform="translate(16 12.566) rotate(90) scale(21.188 29.625)" gradientUnits="userSpaceOnUse"><stop stop-color="#C29CE5" stop-opacity="0" offset=".55752"/><stop stop-color="#C29CE5" offset="1"/></radialGradient><radialGradient id="f" cx="0" cy="0" r="1" gradientTransform="translate(16 12.566) rotate(90) scale(17.938 25.081)" gradientUnits="userSpaceOnUse"><stop stop-color="#C29CE5" stop-opacity="0" offset=".92268"/><stop stop-color="#B78CDE" offset="1"/></radialGradient><radialGradient id="e" cx="0" cy="0" r="1" gradientTransform="translate(12.063 5.2534) rotate(132.27) scale(5.5748 9.3392)" gradientUnits="userSpaceOnUse"><stop stop-color="#F7F5F8" offset="0"/><stop stop-color="#F7F5F8" stop-opacity="0" offset="1"/></radialGradient><radialGradient id="d" cx="0" cy="0" r="1" gradientTransform="translate(29.625 17) rotate(106.61) scale(4.3734 2.3464)" gradientUnits="userSpaceOnUse"><stop stop-color="#F7F5F8" offset="0"/><stop stop-color="#F7F5F8" stop-opacity="0" offset="1"/></radialGradient><linearGradient id="c" x1="3.8502" x2="3.8503" y1="15.691" y2="10.142" gradientUnits="userSpaceOnUse"><stop stop-color="#FF2C00" offset="0"/><stop stop-color="#FF8C00" offset=".51809"/></linearGradient><radialGradient id="b" cx="0" cy="0" r="1" gradientTransform="translate(3.8502 9.0503) rotate(90) scale(1.9844 2.213)" gradientUnits="userSpaceOnUse"><stop stop-color="#FFBC61" offset="0"/><stop stop-color="#FFBC61" stop-opacity="0" offset="1"/></radialGradient><linearGradient id="a" x1="3.7112" x2="3.7112" y1="13.199" y2="9.6753" gradientUnits="userSpaceOnUse"><stop stop-color="#FFBE64" offset="0"/><stop stop-color="#FFBE64" stop-opacity="0" offset="1"/></linearGradient><linearGradient id="o" x1="4.219" x2="4.219" y1="10.142" y2="8.4409" gradientUnits="userSpaceOnUse"><stop stop-color="#513468" offset=".0055866"/><stop stop-color="#1C1C1C" offset="1"/></linearGradient><radialGradient id="n" cx="0" cy="0" r="1" gradientTransform="translate(3.1565 9.7534) rotate(85.101) scale(2.1955 .7904)" gradientUnits="userSpaceOnUse"><stop stop-color="#736B80" offset="0"/><stop stop-color="#736B80" stop-opacity="0" offset="1"/></radialGradient><radialGradient id="m" cx="0" cy="0" r="1" gradientTransform="translate(3.5886 8.4808) rotate(125.84) scale(.69386 .61861)" gradientUnits="userSpaceOnUse"><stop stop-color="#433437" offset=".0055866"/><stop stop-color="#3B2838" offset="1"/></radialGradient><radialGradient id="l" cx="0" cy="0" r="1" gradientTransform="translate(3.627 8.5167) rotate(137.64) scale(.35946 .31624)" gradientUnits="userSpaceOnUse"><stop stop-color="#5C5051" offset="0"/><stop stop-color="#5C5051" stop-opacity="0" offset="1"/></radialGradient><linearGradient id="k" x1="3.3419" x2="2.9981" y1="8.249" y2="8.0302" gradientUnits="userSpaceOnUse"><stop stop-color="#5C5051" stop-opacity="0" offset="0"/><stop stop-color="#5C5051" offset="1"/></linearGradient><radialGradient id="j" cx="0" cy="0" r="1" gradientTransform="translate(23 22.378) rotate(93.556) scale(5.1349 22.018)" gradientUnits="userSpaceOnUse"><stop stop-color="#BFA8D6" offset="0"/><stop stop-color="#BFA8D6" stop-opacity="0" offset="1"/></radialGradient><clipPath id="u"><rect width="32" height="32" fill="#fff"/></clipPath></defs></svg>
