<svg fill="none" viewBox="0 0 32 32" xmlns="http://www.w3.org/2000/svg"><path d="m9.7162 17.046-0.78-0.39c-0.16-0.08-0.27-0.25-0.27-0.43v-0.99c0-0.45-0.39-0.79-0.84-0.73-2.16 0.3-4.02 1.73-4.85 3.79l-0.29 0.72c-0.15 0.38-0.02 0.79 0.27 1.09 0.98 0.97 2.86 1.89 4.5 1.89h3.29v-3.28c0-0.71-0.4-1.36-1.03-1.67z" fill="url(#q)"/><path d="m2.9763 20.106c0.96 0.97 2.84 1.89 4.48 1.89h3.29v-1.26l-0.51-1.1h-7.55c0.05 0.17 0.15 0.33 0.29 0.47z" fill="url(#i)"/><path d="m2.9763 20.106c0.96 0.97 2.84 1.89 4.48 1.89h3.29v-1.26l-0.51-1.1h-7.55c0.05 0.17 0.15 0.33 0.29 0.47z" fill="url(#h)"/><path d="m20.356 11.416v0.44l3.11-3.11c2.44-2.44 0.81-6.67-2.64-6.75h-0.14c-1.14 0.01-2.19 0.42-3 1.1-0.64 0.54-1.54 0.67-2.3 0.33-0.48-0.21-1.01-0.33-1.57-0.33-2.14 0-3.87 1.73-3.87 3.87v0.01c0 0.34-0.22 0.64-0.55 0.74-1.65 0.49-2.84 2.06-2.76 3.89 0.09 1.98 1.7 3.6 3.68 3.69 2.22 0.1 4.05-1.67 4.05-3.87 0-0.21-0.02-0.42-0.05-0.62 1.01-0.13 1.9-0.66 2.51-1.41 0.8 1.13 2.07 1.91 3.53 2.02z" fill="url(#g)"/><path d="m20.356 11.416v0.44l3.11-3.11c2.44-2.44 0.81-6.67-2.64-6.75h-0.14c-1.14 0.01-2.19 0.42-3 1.1-0.64 0.54-1.54 0.67-2.3 0.33-0.48-0.21-1.01-0.33-1.57-0.33-2.14 0-3.87 1.73-3.87 3.87v0.01c0 0.34-0.22 0.64-0.55 0.74-1.65 0.49-2.84 2.06-2.76 3.89 0.09 1.98 1.7 3.6 3.68 3.69 2.22 0.1 4.05-1.67 4.05-3.87 0-0.21-0.02-0.42-0.05-0.62 1.01-0.13 1.9-0.66 2.51-1.41 0.8 1.13 2.07 1.91 3.53 2.02z" fill="url(#f)"/><g filter="url(#v)"><circle cx="13.953" cy="7.0186" r="3.3108" fill="url(#e)"/></g><path d="m7.6263 25.396v-3.4h-0.9c-0.62 0-1.17 0.37-1.41 0.94l-0.77 1.84c-0.43 1.06 0.34 2.22 1.48 2.22 0.89 0 1.6-0.72 1.6-1.6z" fill="url(#d)"/><g filter="url(#u)"><path d="m29.016 26.666-2.65-11.88c-0.85-4.46-4.85-7.79-9.6-7.58-5.13 0.22-9.14 4.52-9.14 9.65v10.34c0 1.52 1.21 2.79 2.73 2.8 0.94 0.01 1.77-0.46 2.28-1.18 0.2-0.28 0.61-0.28 0.8 0 0.5 0.71 1.32 1.18 2.26 1.18 0.93 0 1.76-0.47 2.26-1.18 0.2-0.28 0.61-0.28 0.8 0 0.5 0.71 1.32 1.18 2.26 1.18 0.93 0 1.76-0.47 2.26-1.18 0.2-0.28 0.61-0.28 0.8 0 0.5 0.71 1.32 1.18 2.26 1.18 1.52 0 2.75-1.23 2.75-2.75-0.01-0.2-0.03-0.4-0.07-0.58z" fill="#DDD2E8"/><path d="m29.016 26.666-2.65-11.88c-0.85-4.46-4.85-7.79-9.6-7.58-5.13 0.22-9.14 4.52-9.14 9.65v10.34c0 1.52 1.21 2.79 2.73 2.8 0.94 0.01 1.77-0.46 2.28-1.18 0.2-0.28 0.61-0.28 0.8 0 0.5 0.71 1.32 1.18 2.26 1.18 0.93 0 1.76-0.47 2.26-1.18 0.2-0.28 0.61-0.28 0.8 0 0.5 0.71 1.32 1.18 2.26 1.18 0.93 0 1.76-0.47 2.26-1.18 0.2-0.28 0.61-0.28 0.8 0 0.5 0.71 1.32 1.18 2.26 1.18 1.52 0 2.75-1.23 2.75-2.75-0.01-0.2-0.03-0.4-0.07-0.58z" fill="url(#c)"/><path d="m29.016 26.666-2.65-11.88c-0.85-4.46-4.85-7.79-9.6-7.58-5.13 0.22-9.14 4.52-9.14 9.65v10.34c0 1.52 1.21 2.79 2.73 2.8 0.94 0.01 1.77-0.46 2.28-1.18 0.2-0.28 0.61-0.28 0.8 0 0.5 0.71 1.32 1.18 2.26 1.18 0.93 0 1.76-0.47 2.26-1.18 0.2-0.28 0.61-0.28 0.8 0 0.5 0.71 1.32 1.18 2.26 1.18 0.93 0 1.76-0.47 2.26-1.18 0.2-0.28 0.61-0.28 0.8 0 0.5 0.71 1.32 1.18 2.26 1.18 1.52 0 2.75-1.23 2.75-2.75-0.01-0.2-0.03-0.4-0.07-0.58z" fill="url(#b)"/><path d="m29.016 26.666-2.65-11.88c-0.85-4.46-4.85-7.79-9.6-7.58-5.13 0.22-9.14 4.52-9.14 9.65v10.34c0 1.52 1.21 2.79 2.73 2.8 0.94 0.01 1.77-0.46 2.28-1.18 0.2-0.28 0.61-0.28 0.8 0 0.5 0.71 1.32 1.18 2.26 1.18 0.93 0 1.76-0.47 2.26-1.18 0.2-0.28 0.61-0.28 0.8 0 0.5 0.71 1.32 1.18 2.26 1.18 0.93 0 1.76-0.47 2.26-1.18 0.2-0.28 0.61-0.28 0.8 0 0.5 0.71 1.32 1.18 2.26 1.18 1.52 0 2.75-1.23 2.75-2.75-0.01-0.2-0.03-0.4-0.07-0.58z" fill="url(#a)"/><path d="m29.016 26.666-2.65-11.88c-0.85-4.46-4.85-7.79-9.6-7.58-5.13 0.22-9.14 4.52-9.14 9.65v10.34c0 1.52 1.21 2.79 2.73 2.8 0.94 0.01 1.77-0.46 2.28-1.18 0.2-0.28 0.61-0.28 0.8 0 0.5 0.71 1.32 1.18 2.26 1.18 0.93 0 1.76-0.47 2.26-1.18 0.2-0.28 0.61-0.28 0.8 0 0.5 0.71 1.32 1.18 2.26 1.18 0.93 0 1.76-0.47 2.26-1.18 0.2-0.28 0.61-0.28 0.8 0 0.5 0.71 1.32 1.18 2.26 1.18 1.52 0 2.75-1.23 2.75-2.75-0.01-0.2-0.03-0.4-0.07-0.58z" fill="url(#p)"/></g><path d="m29.016 26.666-2.65-11.88c-0.85-4.46-4.85-7.79-9.6-7.58-5.13 0.22-9.14 4.52-9.14 9.65v10.34c0 1.52 1.21 2.79 2.73 2.8 0.94 0.01 1.77-0.46 2.28-1.18 0.2-0.28 0.61-0.28 0.8 0 0.5 0.71 1.32 1.18 2.26 1.18 0.93 0 1.76-0.47 2.26-1.18 0.2-0.28 0.61-0.28 0.8 0 0.5 0.71 1.32 1.18 2.26 1.18 0.93 0 1.76-0.47 2.26-1.18 0.2-0.28 0.61-0.28 0.8 0 0.5 0.71 1.32 1.18 2.26 1.18 1.52 0 2.75-1.23 2.75-2.75-0.01-0.2-0.03-0.4-0.07-0.58z" fill="url(#o)"/><g filter="url(#t)"><path d="m22.174 25.452-3.0693-17.158c3.2976 0.63464 5.1651 3.0516 5.6318 5.0876 0.9636 4.2036 2.6876 11.19 2.9484 12.07 0.3259 1.1004 0.0326 2.5401-1.4022 2.7308-1.4349 0.1906-1.9523-1.0941-2.4416-1.8453-0.4892-0.7511-1.3145-0.9356-1.6671-0.8855z" fill="url(#n)"/></g><path d="m13.056 17c0.5523 0 1-0.4477 1-1s-0.4477-1-1-1-1 0.4477-1 1 0.4477 1 1 1z" fill="url(#m)"/><path d="m13.056 17c0.5523 0 1-0.4477 1-1s-0.4477-1-1-1-1 0.4477-1 1 0.4477 1 1 1z" fill="url(#l)"/><path d="m13.056 17c0.5523 0 1-0.4477 1-1s-0.4477-1-1-1-1 0.4477-1 1 0.4477 1 1 1z" fill="url(#k)"/><g filter="url(#s)"><ellipse transform="rotate(-30 22.061 5.3017)" cx="22.061" cy="5.3017" rx="1.8744" ry="2.5477" fill="url(#j)"/></g><g filter="url(#r)"><path d="m6.3136 22.755-0.99665 2.2359c-0.09169 0.2238-0.14791 0.748 0.36078 1.0547" stroke="#D74C6D" stroke-linecap="round" stroke-width=".4"/></g><defs><filter id="v" x="9.6423" y="2.7078" width="8.6216" height="8.6216" color-interpolation-filters="sRGB" filterUnits="userSpaceOnUse"><feFlood flood-opacity="0" result="BackgroundImageFix"/><feBlend in="SourceGraphic" in2="BackgroundImageFix" result="shape"/><feGaussianBlur result="effect1_foregroundBlur_28327_4658" stdDeviation="0.5"/></filter><filter id="u" x="7.6262" y="6.9463" width="21.46" height="23.05" color-interpolation-filters="sRGB" filterUnits="userSpaceOnUse"><feFlood flood-opacity="0" result="BackgroundImageFix"/><feBlend in="SourceGraphic" in2="BackgroundImageFix" result="shape"/><feColorMatrix in="SourceAlpha" result="hardAlpha" values="0 0 0 0 0 0 0 0 0 0 0 0 0 0 0 0 0 0 127 0"/><feOffset dy="-0.25"/><feGaussianBlur stdDeviation="0.75"/><feComposite in2="hardAlpha" k2="-1" k3="1" operator="arithmetic"/><feColorMatrix values="0 0 0 0 0.701961 0 0 0 0 0.623529 0 0 0 0 0.780392 0 0 0 1 0"/><feBlend in2="shape" result="effect1_innerShadow_28327_4658"/></filter><filter id="t" x="16.605" y="5.7935" width="13.701" height="24.908" color-interpolation-filters="sRGB" filterUnits="userSpaceOnUse"><feFlood flood-opacity="0" result="BackgroundImageFix"/><feBlend in="SourceGraphic" in2="BackgroundImageFix" result="shape"/><feGaussianBlur result="effect1_foregroundBlur_28327_4658" stdDeviation="1.25"/></filter><filter id="s" x="18.998" y="1.9038" width="6.127" height="6.7956" color-interpolation-filters="sRGB" filterUnits="userSpaceOnUse"><feFlood flood-opacity="0" result="BackgroundImageFix"/><feBlend in="SourceGraphic" in2="BackgroundImageFix" result="shape"/><feGaussianBlur result="effect1_foregroundBlur_28327_4658" stdDeviation="0.5"/></filter><filter id="r" x="4.3063" y="21.805" width="2.9573" height="5.1907" color-interpolation-filters="sRGB" filterUnits="userSpaceOnUse"><feFlood flood-opacity="0" result="BackgroundImageFix"/><feBlend in="SourceGraphic" in2="BackgroundImageFix" result="shape"/><feGaussianBlur result="effect1_foregroundBlur_28327_4658" stdDeviation="0.375"/></filter><radialGradient id="q" cx="0" cy="0" r="1" gradientTransform="translate(5.0424 17.346) rotate(40.075) scale(3.4305 6.4918)" gradientUnits="userSpaceOnUse"><stop stop-color="#FDDD4D" offset="0"/><stop stop-color="#F7BE1E" offset=".88004"/></radialGradient><radialGradient id="i" cx="0" cy="0" r="1" gradientTransform="translate(7.041 19.636) rotate(117.39) scale(4.9174 9.1171)" gradientUnits="userSpaceOnUse"><stop stop-color="#E2B047" offset="0"/><stop stop-color="#C19C4B" offset=".65273"/></radialGradient><linearGradient id="h" x1="6.7163" x2="6.7163" y1="19.102" y2="21.996" gradientUnits="userSpaceOnUse"><stop stop-color="#EBB64B" offset="0"/><stop stop-color="#E4B14A" stop-opacity="0" offset=".49578"/></linearGradient><linearGradient id="g" x1="15.631" x2="15.631" y1="19.531" y2="1.1285" gradientUnits="userSpaceOnUse"><stop stop-color="#ED1C26" offset="0"/><stop stop-color="#ED1452" offset=".456"/><stop stop-color="#EC098C" offset="1"/></linearGradient><radialGradient id="f" cx="0" cy="0" r="1" gradientTransform="translate(7.1185 13.276) rotate(-22.253) scale(5.1924 7.0254)" gradientUnits="userSpaceOnUse"><stop stop-color="#E64461" offset="0"/><stop stop-color="#E64461" stop-opacity="0" offset="1"/></radialGradient><radialGradient id="e" cx="0" cy="0" r="1" gradientTransform="translate(12.292 8.1998) rotate(-26.553) scale(5.2766)" gradientUnits="userSpaceOnUse"><stop stop-color="#E44D7D" stop-opacity="0" offset=".072525"/><stop stop-color="#F86392" offset="1"/></radialGradient><linearGradient id="d" x1="5.8577" x2="6.8278" y1="28.668" y2="21.996" gradientUnits="userSpaceOnUse"><stop stop-color="#BF2241" offset="0"/><stop stop-color="#CA2864" offset="1"/></linearGradient><radialGradient id="c" cx="0" cy="0" r="1" gradientTransform="translate(27.288 3.8956) rotate(130.22) scale(14.47 13.62)" gradientUnits="userSpaceOnUse"><stop stop-color="#F2EFF4" offset="0"/><stop stop-color="#F2EFF4" stop-opacity="0" offset="1"/></radialGradient><linearGradient id="b" x1="7.1687" x2="10.372" y1="18.596" y2="18.596" gradientUnits="userSpaceOnUse"><stop stop-color="#CFCAD0" offset="0"/><stop stop-color="#CFCAD0" stop-opacity="0" offset="1"/></linearGradient><radialGradient id="a" cx="0" cy="0" r="1" gradientTransform="translate(19.261 27.871) rotate(262.37) scale(21.188 14.505)" gradientUnits="userSpaceOnUse"><stop stop-color="#CFCAD0" stop-opacity="0" offset=".89749"/><stop stop-color="#CFCAD0" offset="1"/></radialGradient><radialGradient id="p" cx="0" cy="0" r="1" gradientTransform="translate(17.03 33.34) rotate(-89.906) scale(9.9929 21.51)" gradientUnits="userSpaceOnUse"><stop stop-color="#CDBCDF" offset="0"/><stop stop-color="#CDBCDF" stop-opacity="0" offset="1"/></radialGradient><linearGradient id="o" x1="33.606" x2="20.18" y1="19.684" y2="21.826" gradientUnits="userSpaceOnUse"><stop stop-color="#F2EFF4" offset="0"/><stop stop-color="#F2EFF4" stop-opacity="0" offset="1"/></linearGradient><linearGradient id="n" x1="29.041" x2="21.084" y1="18.247" y2="20.094" gradientUnits="userSpaceOnUse"><stop stop-color="#F2EFF4" offset="0"/><stop stop-color="#F2EFF4" stop-opacity="0" offset="1"/></linearGradient><radialGradient id="m" cx="0" cy="0" r="1" gradientTransform="translate(13.353 15.678) rotate(125.84) scale(1.3877 1.2372)" gradientUnits="userSpaceOnUse"><stop stop-color="#433437" offset=".0055866"/><stop stop-color="#3B2838" offset="1"/></radialGradient><radialGradient id="l" cx="0" cy="0" r="1" gradientTransform="translate(13.43 15.75) rotate(137.64) scale(.71892 .63248)" gradientUnits="userSpaceOnUse"><stop stop-color="#5C5051" offset="0"/><stop stop-color="#5C5051" stop-opacity="0" offset="1"/></radialGradient><linearGradient id="k" x1="12.86" x2="12.172" y1="15.215" y2="14.777" gradientUnits="userSpaceOnUse"><stop stop-color="#5C5051" stop-opacity="0" offset="0"/><stop stop-color="#5C5051" offset="1"/></linearGradient><radialGradient id="j" cx="0" cy="0" r="1" gradientTransform="translate(23.87 4.614) rotate(190.01) scale(5.5043 6.3982)" gradientUnits="userSpaceOnUse"><stop stop-color="#F86392" offset="0"/><stop stop-color="#E44D7D" stop-opacity="0" offset="1"/></radialGradient></defs></svg>
