<svg fill="none" viewBox="0 0 32 32" xmlns="http://www.w3.org/2000/svg"><path d="m12.555 8.9352c1.5367-2.3975 2.4462-4.6116 2.9208-6.1769 0.1819-0.59994 0.9502-0.84569 1.4062-0.41557 6.8725 6.4812 9.1187 11.429 9.5669 17.148 0.3281 5.5313-2.3906 10.453-9.6875 10.453-6.8507 0-11.906-4.7813-11.219-12.359 0.41085-4.529 2.1716-7.9792 3.5792-10.033 0.4381-0.6392 1.3508-0.64847 1.8557-0.06057l1.2591 1.4663c0.0868 0.10103 0.2465 0.09017 0.3184-0.02194z" fill="url(#o)"/><path d="m12.555 8.9352c1.5367-2.3975 2.4462-4.6116 2.9208-6.1769 0.1819-0.59994 0.9502-0.84569 1.4062-0.41557 6.8725 6.4812 9.1187 11.429 9.5669 17.148 0.3281 5.5313-2.3906 10.453-9.6875 10.453-6.8507 0-11.906-4.7813-11.219-12.359 0.41085-4.529 2.1716-7.9792 3.5792-10.033 0.4381-0.6392 1.3508-0.64847 1.8557-0.06057l1.2591 1.4663c0.0868 0.10103 0.2465 0.09017 0.3184-0.02194z" fill="url(#i)"/><path d="m12.555 8.9352c1.5367-2.3975 2.4462-4.6116 2.9208-6.1769 0.1819-0.59994 0.9502-0.84569 1.4062-0.41557 6.8725 6.4812 9.1187 11.429 9.5669 17.148 0.3281 5.5313-2.3906 10.453-9.6875 10.453-6.8507 0-11.906-4.7813-11.219-12.359 0.41085-4.529 2.1716-7.9792 3.5792-10.033 0.4381-0.6392 1.3508-0.64847 1.8557-0.06057l1.2591 1.4663c0.0868 0.10103 0.2465 0.09017 0.3184-0.02194z" fill="url(#h)"/><path d="m12.555 8.9352c1.5367-2.3975 2.4462-4.6116 2.9208-6.1769 0.1819-0.59994 0.9502-0.84569 1.4062-0.41557 6.8725 6.4812 9.1187 11.429 9.5669 17.148 0.3281 5.5313-2.3906 10.453-9.6875 10.453-6.8507 0-11.906-4.7813-11.219-12.359 0.41085-4.529 2.1716-7.9792 3.5792-10.033 0.4381-0.6392 1.3508-0.64847 1.8557-0.06057l1.2591 1.4663c0.0868 0.10103 0.2465 0.09017 0.3184-0.02194z" fill="url(#g)"/><path d="m12.555 8.9352c1.5367-2.3975 2.4462-4.6116 2.9208-6.1769 0.1819-0.59994 0.9502-0.84569 1.4062-0.41557 6.8725 6.4812 9.1187 11.429 9.5669 17.148 0.3281 5.5313-2.3906 10.453-9.6875 10.453-6.8507 0-11.906-4.7813-11.219-12.359 0.41085-4.529 2.1716-7.9792 3.5792-10.033 0.4381-0.6392 1.3508-0.64847 1.8557-0.06057l1.2591 1.4663c0.0868 0.10103 0.2465 0.09017 0.3184-0.02194z" fill="url(#f)"/><path d="m12.555 8.9352c1.5367-2.3975 2.4462-4.6116 2.9208-6.1769 0.1819-0.59994 0.9502-0.84569 1.4062-0.41557 6.8725 6.4812 9.1187 11.429 9.5669 17.148 0.3281 5.5313-2.3906 10.453-9.6875 10.453-6.8507 0-11.906-4.7813-11.219-12.359 0.41085-4.529 2.1716-7.9792 3.5792-10.033 0.4381-0.6392 1.3508-0.64847 1.8557-0.06057l1.2591 1.4663c0.0868 0.10103 0.2465 0.09017 0.3184-0.02194z" fill="url(#e)"/><path d="m12.555 8.9352c1.5367-2.3975 2.4462-4.6116 2.9208-6.1769 0.1819-0.59994 0.9502-0.84569 1.4062-0.41557 6.8725 6.4812 9.1187 11.429 9.5669 17.148 0.3281 5.5313-2.3906 10.453-9.6875 10.453-6.8507 0-11.906-4.7813-11.219-12.359 0.41085-4.529 2.1716-7.9792 3.5792-10.033 0.4381-0.6392 1.3508-0.64847 1.8557-0.06057l1.2591 1.4663c0.0868 0.10103 0.2465 0.09017 0.3184-0.02194z" fill="url(#d)"/><path d="m12.555 8.9352c1.5367-2.3975 2.4462-4.6116 2.9208-6.1769 0.1819-0.59994 0.9502-0.84569 1.4062-0.41557 6.8725 6.4812 9.1187 11.429 9.5669 17.148 0.3281 5.5313-2.3906 10.453-9.6875 10.453-6.8507 0-11.906-4.7813-11.219-12.359 0.41085-4.529 2.1716-7.9792 3.5792-10.033 0.4381-0.6392 1.3508-0.64847 1.8557-0.06057l1.2591 1.4663c0.0868 0.10103 0.2465 0.09017 0.3184-0.02194z" fill="url(#c)"/><g filter="url(#r)"><path d="m10.178 19.877c1.3023-3.0993 3.9746-6.5289 5.7792-8.3894 0.5099-0.5257 1.3341-0.5351 1.8727-0.0388 3.4612 3.189 4.5031 6.072 5.3873 9.4282 0.9198 3.4917 0 9.1177-6.9216 9.1177-5.9607 0-8.0256-5.5772-6.1176-10.118z" fill="url(#b)"/><path d="m10.178 19.877c1.3023-3.0993 3.9746-6.5289 5.7792-8.3894 0.5099-0.5257 1.3341-0.5351 1.8727-0.0388 3.4612 3.189 4.5031 6.072 5.3873 9.4282 0.9198 3.4917 0 9.1177-6.9216 9.1177-5.9607 0-8.0256-5.5772-6.1176-10.118z" fill="url(#a)"/><path d="m10.178 19.877c1.3023-3.0993 3.9746-6.5289 5.7792-8.3894 0.5099-0.5257 1.3341-0.5351 1.8727-0.0388 3.4612 3.189 4.5031 6.072 5.3873 9.4282 0.9198 3.4917 0 9.1177-6.9216 9.1177-5.9607 0-8.0256-5.5772-6.1176-10.118z" fill="url(#n)"/></g><path d="m10.178 19.877c1.3023-3.0993 3.9746-6.5289 5.7792-8.3894 0.5099-0.5257 1.3341-0.5351 1.8727-0.0388 3.4612 3.189 4.5031 6.072 5.3873 9.4282 0.9198 3.4917 0 9.1177-6.9216 9.1177-5.9607 0-8.0256-5.5772-6.1176-10.118z" fill="url(#m)"/><path d="m10.178 19.877c1.3023-3.0993 3.9746-6.5289 5.7792-8.3894 0.5099-0.5257 1.3341-0.5351 1.8727-0.0388 3.4612 3.189 4.5031 6.072 5.3873 9.4282 0.9198 3.4917 0 9.1177-6.9216 9.1177-5.9607 0-8.0256-5.5772-6.1176-10.118z" fill="url(#l)"/><g filter="url(#q)"><path d="m11.814 11.538c2.3154-3.39 3.6694-7.0571 4.0829-7.962-0.603 4.6348-2.3602 8.0282-5.6679 12.398-2.6462 3.496-3.1239 6.4888-3.101 7.2171-0.82693-5.5617 1.7917-7.4157 4.686-11.653z" fill="url(#k)"/></g><g filter="url(#p)"><path d="m9.8137 7.8742c-1.3001 1.6137-3.8842 6.0896-3.8202 11.084 1.2814-5.1224 4.2757-6.7367 3.8202-11.084z" fill="url(#j)"/></g><defs><filter id="r" x="9.4899" y="11.085" width="14.526" height="18.91" color-interpolation-filters="sRGB" filterUnits="userSpaceOnUse"><feFlood flood-opacity="0" result="BackgroundImageFix"/><feBlend in="SourceGraphic" in2="BackgroundImageFix" result="shape"/><feColorMatrix in="SourceAlpha" result="hardAlpha" values="0 0 0 0 0 0 0 0 0 0 0 0 0 0 0 0 0 0 127 0"/><feOffset dx="0.5"/><feGaussianBlur stdDeviation="0.25"/><feComposite in2="hardAlpha" k2="-1" k3="1" operator="arithmetic"/><feColorMatrix values="0 0 0 0 0.952941 0 0 0 0 0.615686 0 0 0 0 0.364706 0 0 0 1 0"/><feBlend in2="shape" result="effect1_innerShadow_18_15821"/></filter><filter id="q" x="5.7229" y="2.3265" width="11.424" height="22.115" color-interpolation-filters="sRGB" filterUnits="userSpaceOnUse"><feFlood flood-opacity="0" result="BackgroundImageFix"/><feBlend in="SourceGraphic" in2="BackgroundImageFix" result="shape"/><feGaussianBlur result="effect1_foregroundBlur_18_15821" stdDeviation="0.625"/></filter><filter id="p" x="4.4923" y="6.3743" width="6.868" height="14.084" color-interpolation-filters="sRGB" filterUnits="userSpaceOnUse"><feFlood flood-opacity="0" result="BackgroundImageFix"/><feBlend in="SourceGraphic" in2="BackgroundImageFix" result="shape"/><feGaussianBlur result="effect1_foregroundBlur_18_15821" stdDeviation="0.75"/></filter><radialGradient id="o" cx="0" cy="0" r="1" gradientTransform="translate(24.002 19.72) rotate(180.53) scale(17.099 25.786)" gradientUnits="userSpaceOnUse"><stop stop-color="#FF953D" offset="0"/><stop stop-color="#FF5141" offset="1"/></radialGradient><radialGradient id="i" cx="0" cy="0" r="1" gradientTransform="translate(10.372 15.655) rotate(202.06) scale(10.344 17.85)" gradientUnits="userSpaceOnUse"><stop stop-color="#CE5327" offset="0"/><stop stop-color="#CE5327" stop-opacity="0" offset="1"/></radialGradient><linearGradient id="h" x1="18.336" x2="18.336" y1="29.944" y2="24.846" gradientUnits="userSpaceOnUse"><stop stop-color="#FF7583" offset="0"/><stop stop-color="#FF7583" stop-opacity="0" offset="1"/></linearGradient><radialGradient id="g" cx="0" cy="0" r="1" gradientTransform="translate(4.9572 14.391) rotate(24.015) scale(3.1046 25.699)" gradientUnits="userSpaceOnUse"><stop stop-color="#FFAA7B" offset="0"/><stop stop-color="#FFAA7B" stop-opacity="0" offset="1"/></radialGradient><radialGradient id="f" cx="0" cy="0" r="1" gradientTransform="translate(9.3103 6.251) rotate(77.32) scale(3.8404 4.7919)" gradientUnits="userSpaceOnUse"><stop stop-color="#FF5E47" offset="0"/><stop stop-color="#FF5E47" stop-opacity="0" offset="1"/></radialGradient><radialGradient id="e" cx="0" cy="0" r="1" gradientTransform="translate(16.429 1.3658) rotate(87.882) scale(10.137 9.3832)" gradientUnits="userSpaceOnUse"><stop stop-color="#FF2F3C" offset="0"/><stop stop-color="#FF2F3C" stop-opacity="0" offset="1"/></radialGradient><radialGradient id="d" cx="0" cy="0" r="1" gradientTransform="translate(13.9 4.7991) rotate(25.328) scale(2.299 4.6135)" gradientUnits="userSpaceOnUse"><stop stop-color="#FF846C" offset="0"/><stop stop-color="#FF846C" stop-opacity="0" offset="1"/></radialGradient><radialGradient id="c" cx="0" cy="0" r="1" gradientTransform="translate(12.458 8.2096) rotate(113.22) scale(2.2784 .52212)" gradientUnits="userSpaceOnUse"><stop stop-color="#FFA682" offset="0"/><stop stop-color="#FFA682" stop-opacity="0" offset="1"/></radialGradient><radialGradient id="b" cx="0" cy="0" r="1" gradientTransform="translate(21.205 24.376) rotate(191.44) scale(10.029 12.489)" gradientUnits="userSpaceOnUse"><stop stop-color="#FFDA2F" offset="0"/><stop stop-color="#FF8E41" offset="1"/></radialGradient><radialGradient id="a" cx="0" cy="0" r="1" gradientTransform="translate(12.401 8.5926) rotate(69.044) scale(14.142 12.288)" gradientUnits="userSpaceOnUse"><stop stop-color="#FD5639" offset="0"/><stop stop-color="#FE5533" stop-opacity="0" offset="1"/></radialGradient><radialGradient id="n" cx="0" cy="0" r="1" gradientTransform="translate(19.239 20.629) rotate(174.24) scale(9.7987 23.991)" gradientUnits="userSpaceOnUse"><stop stop-color="#D7812D" stop-opacity="0" offset=".62772"/><stop stop-color="#D7812D" offset="1"/></radialGradient><linearGradient id="m" x1="16.503" x2="16.503" y1="10.612" y2="14.26" gradientUnits="userSpaceOnUse"><stop stop-color="#F95131" offset="0"/><stop stop-color="#F95131" stop-opacity="0" offset="1"/></linearGradient><radialGradient id="l" cx="0" cy="0" r="1" gradientTransform="translate(22.986 18.802) rotate(143.06) scale(16.055 11.617)" gradientUnits="userSpaceOnUse"><stop stop-color="#F18A52" stop-opacity="0" offset=".7723"/><stop stop-color="#F18A52" offset="1"/></radialGradient><linearGradient id="k" x1="14.996" x2="7.6555" y1="4.2552" y2="22.732" gradientUnits="userSpaceOnUse"><stop stop-color="#FF7558" offset="0"/><stop stop-color="#F38758" offset="1"/></linearGradient><linearGradient id="j" x1="9.541" x2="5.5821" y1="8.1437" y2="19.479" gradientUnits="userSpaceOnUse"><stop stop-color="#FF815B" offset="0"/><stop stop-color="#FF9C6D" offset="1"/></linearGradient></defs></svg>
