<svg fill="none" viewBox="0 0 32 32" xmlns="http://www.w3.org/2000/svg"><path d="m19.984 2.7451c-0.253 0.09744-0.5334 0.09854-0.7871 0.00266-1.0853-0.41023-2.2349-0.65969-3.4162-0.7165l-3.02-0.01001c-2.5474 0-4.9523 2.4077-4.9523 4.751 0.02378 0.54699-0.35946 0.57357-0.80203 0.60426-0.07169 0.00497-0.14493 0.01004-0.21823 0.01746-2.4386 0.24661-2.2969 3.9966 0.32703 3.9966 0.41714 0 0.8319-0.0013 1.2421-0.0027 3.6064-0.0117 6.8578-0.0222 8.2424 0.8933 3.977 3.4538-1.059 9.3109-4.0658 9.2193-0.2328-0.0071-0.3931-0.2144-0.3931-0.4474v-1.592c0-1.9132-1.3662-3.7212-3.213-4.0314-0.26563-0.0938-0.79688-0.1328-0.79688 0.4609v3.4519c0.15585 1.632 1.0095 2.4172 1.5571 2.9209 0.27594 0.2538 0.47419 0.4362 0.46629 0.6194-0.0083 0.1934-0.22261 0.3926-0.50938 0.6591-0.52436 0.4873-1.5236 1.1399-1.5236 2.5548v3.3974c-0.0033 0.2784 0.22229 0.5086 0.49926 0.4798 1.9155-0.199 3.5202-1.5222 3.5202-3.4728v-0.8539c0-0.3322 0.3188-0.573 0.6462-0.5166 0.78 0.1343 1.5852 0.135 2.422 0.135 6.2701 0.02 11.734-4.3281 11.828-11.544-0.0073-2.2282-0.709-4.352-1.8912-6.1637-0.1439-0.22051-0.1742-0.49932-0.06-0.73656 0.4993-1.037 1.1294-2.0027 1.8848-2.8625 0.51-0.57738 0.22-1.529-0.52-1.6787l-0.37-0.07482c-2.0537-0.4023-4.1566-0.20677-6.0967 0.54025z" fill="url(#z)"/><path d="m19.984 2.7451c-0.253 0.09744-0.5334 0.09854-0.7871 0.00266-1.0853-0.41023-2.2349-0.65969-3.4162-0.7165l-3.02-0.01001c-2.5474 0-4.9523 2.4077-4.9523 4.751 0.02378 0.54699-0.35946 0.57357-0.80203 0.60426-0.07169 0.00497-0.14493 0.01004-0.21823 0.01746-2.4386 0.24661-2.2969 3.9966 0.32703 3.9966 0.41714 0 0.8319-0.0013 1.2421-0.0027 3.6064-0.0117 6.8578-0.0222 8.2424 0.8933 3.977 3.4538-1.059 9.3109-4.0658 9.2193-0.2328-0.0071-0.3931-0.2144-0.3931-0.4474v-1.592c0-1.9132-1.3662-3.7212-3.213-4.0314-0.26563-0.0938-0.79688-0.1328-0.79688 0.4609v3.4519c0.15585 1.632 1.0095 2.4172 1.5571 2.9209 0.27594 0.2538 0.47419 0.4362 0.46629 0.6194-0.0083 0.1934-0.22261 0.3926-0.50938 0.6591-0.52436 0.4873-1.5236 1.1399-1.5236 2.5548v3.3974c-0.0033 0.2784 0.22229 0.5086 0.49926 0.4798 1.9155-0.199 3.5202-1.5222 3.5202-3.4728v-0.8539c0-0.3322 0.3188-0.573 0.6462-0.5166 0.78 0.1343 1.5852 0.135 2.422 0.135 6.2701 0.02 11.734-4.3281 11.828-11.544-0.0073-2.2282-0.709-4.352-1.8912-6.1637-0.1439-0.22051-0.1742-0.49932-0.06-0.73656 0.4993-1.037 1.1294-2.0027 1.8848-2.8625 0.51-0.57738 0.22-1.529-0.52-1.6787l-0.37-0.07482c-2.0537-0.4023-4.1566-0.20677-6.0967 0.54025z" fill="url(#o)"/><path d="m19.984 2.7451c-0.253 0.09744-0.5334 0.09854-0.7871 0.00266-1.0853-0.41023-2.2349-0.65969-3.4162-0.7165l-3.02-0.01001c-2.5474 0-4.9523 2.4077-4.9523 4.751 0.02378 0.54699-0.35946 0.57357-0.80203 0.60426-0.07169 0.00497-0.14493 0.01004-0.21823 0.01746-2.4386 0.24661-2.2969 3.9966 0.32703 3.9966 0.41714 0 0.8319-0.0013 1.2421-0.0027 3.6064-0.0117 6.8578-0.0222 8.2424 0.8933 3.977 3.4538-1.059 9.3109-4.0658 9.2193-0.2328-0.0071-0.3931-0.2144-0.3931-0.4474v-1.592c0-1.9132-1.3662-3.7212-3.213-4.0314-0.26563-0.0938-0.79688-0.1328-0.79688 0.4609v3.4519c0.15585 1.632 1.0095 2.4172 1.5571 2.9209 0.27594 0.2538 0.47419 0.4362 0.46629 0.6194-0.0083 0.1934-0.22261 0.3926-0.50938 0.6591-0.52436 0.4873-1.5236 1.1399-1.5236 2.5548v3.3974c-0.0033 0.2784 0.22229 0.5086 0.49926 0.4798 1.9155-0.199 3.5202-1.5222 3.5202-3.4728v-0.8539c0-0.3322 0.3188-0.573 0.6462-0.5166 0.78 0.1343 1.5852 0.135 2.422 0.135 6.2701 0.02 11.734-4.3281 11.828-11.544-0.0073-2.2282-0.709-4.352-1.8912-6.1637-0.1439-0.22051-0.1742-0.49932-0.06-0.73656 0.4993-1.037 1.1294-2.0027 1.8848-2.8625 0.51-0.57738 0.22-1.529-0.52-1.6787l-0.37-0.07482c-2.0537-0.4023-4.1566-0.20677-6.0967 0.54025z" fill="url(#h)"/><path d="m19.984 2.7451c-0.253 0.09744-0.5334 0.09854-0.7871 0.00266-1.0853-0.41023-2.2349-0.65969-3.4162-0.7165l-3.02-0.01001c-2.5474 0-4.9523 2.4077-4.9523 4.751 0.02378 0.54699-0.35946 0.57357-0.80203 0.60426-0.07169 0.00497-0.14493 0.01004-0.21823 0.01746-2.4386 0.24661-2.2969 3.9966 0.32703 3.9966 0.41714 0 0.8319-0.0013 1.2421-0.0027 3.6064-0.0117 6.8578-0.0222 8.2424 0.8933 3.977 3.4538-1.059 9.3109-4.0658 9.2193-0.2328-0.0071-0.3931-0.2144-0.3931-0.4474v-1.592c0-1.9132-1.3662-3.7212-3.213-4.0314-0.26563-0.0938-0.79688-0.1328-0.79688 0.4609v3.4519c0.15585 1.632 1.0095 2.4172 1.5571 2.9209 0.27594 0.2538 0.47419 0.4362 0.46629 0.6194-0.0083 0.1934-0.22261 0.3926-0.50938 0.6591-0.52436 0.4873-1.5236 1.1399-1.5236 2.5548v3.3974c-0.0033 0.2784 0.22229 0.5086 0.49926 0.4798 1.9155-0.199 3.5202-1.5222 3.5202-3.4728v-0.8539c0-0.3322 0.3188-0.573 0.6462-0.5166 0.78 0.1343 1.5852 0.135 2.422 0.135 6.2701 0.02 11.734-4.3281 11.828-11.544-0.0073-2.2282-0.709-4.352-1.8912-6.1637-0.1439-0.22051-0.1742-0.49932-0.06-0.73656 0.4993-1.037 1.1294-2.0027 1.8848-2.8625 0.51-0.57738 0.22-1.529-0.52-1.6787l-0.37-0.07482c-2.0537-0.4023-4.1566-0.20677-6.0967 0.54025z" fill="url(#g)"/><path d="m19.984 2.7451c-0.253 0.09744-0.5334 0.09854-0.7871 0.00266-1.0853-0.41023-2.2349-0.65969-3.4162-0.7165l-3.02-0.01001c-2.5474 0-4.9523 2.4077-4.9523 4.751 0.02378 0.54699-0.35946 0.57357-0.80203 0.60426-0.07169 0.00497-0.14493 0.01004-0.21823 0.01746-2.4386 0.24661-2.2969 3.9966 0.32703 3.9966 0.41714 0 0.8319-0.0013 1.2421-0.0027 3.6064-0.0117 6.8578-0.0222 8.2424 0.8933 3.977 3.4538-1.059 9.3109-4.0658 9.2193-0.2328-0.0071-0.3931-0.2144-0.3931-0.4474v-1.592c0-1.9132-1.3662-3.7212-3.213-4.0314-0.26563-0.0938-0.79688-0.1328-0.79688 0.4609v3.4519c0.15585 1.632 1.0095 2.4172 1.5571 2.9209 0.27594 0.2538 0.47419 0.4362 0.46629 0.6194-0.0083 0.1934-0.22261 0.3926-0.50938 0.6591-0.52436 0.4873-1.5236 1.1399-1.5236 2.5548v3.3974c-0.0033 0.2784 0.22229 0.5086 0.49926 0.4798 1.9155-0.199 3.5202-1.5222 3.5202-3.4728v-0.8539c0-0.3322 0.3188-0.573 0.6462-0.5166 0.78 0.1343 1.5852 0.135 2.422 0.135 6.2701 0.02 11.734-4.3281 11.828-11.544-0.0073-2.2282-0.709-4.352-1.8912-6.1637-0.1439-0.22051-0.1742-0.49932-0.06-0.73656 0.4993-1.037 1.1294-2.0027 1.8848-2.8625 0.51-0.57738 0.22-1.529-0.52-1.6787l-0.37-0.07482c-2.0537-0.4023-4.1566-0.20677-6.0967 0.54025z" fill="url(#f)"/><path d="m11.54 11.404-3.7316-4.6339v0.00183c0.02378 0.54699-0.35946 0.57356-0.80203 0.60425-0.07168 0.00497-0.14493 0.01005-0.21823 0.01747-2.4386 0.24661-2.2969 3.9966 0.32703 3.9966 0.41714 0 0.8319-0.0014 1.2421-0.0027 1.1091-0.0036 2.1848-0.0071 3.1828 0.0164z" fill="url(#e)"/><path d="m11.54 11.404-3.7316-4.6339v0.00183c0.02378 0.54699-0.35946 0.57356-0.80203 0.60425-0.07168 0.00497-0.14493 0.01005-0.21823 0.01747-2.4386 0.24661-2.2969 3.9966 0.32703 3.9966 0.41714 0 0.8319-0.0014 1.2421-0.0027 1.1091-0.0036 2.1848-0.0071 3.1828 0.0164z" fill="url(#d)"/><path d="m11.54 11.404-3.7316-4.6339v0.00183c0.02378 0.54699-0.35946 0.57356-0.80203 0.60425-0.07168 0.00497-0.14493 0.01005-0.21823 0.01747-2.4386 0.24661-2.2969 3.9966 0.32703 3.9966 0.41714 0 0.8319-0.0014 1.2421-0.0027 1.1091-0.0036 2.1848-0.0071 3.1828 0.0164z" fill="url(#c)"/><path d="m24.941 7.1309c0.5203-1.1549 1.1991-2.2276 2.0293-3.1726 0.51-0.57738 0.22-1.529-0.52-1.6787l-0.37-0.07482c-2.1654-0.42417-4.3854-0.18374-6.4117 0.66699 1.4974 0.5551 3.7688 1.8703 5.2724 4.2591z" fill="url(#b)"/><path d="m24.941 7.1309c0.5203-1.1549 1.1991-2.2276 2.0293-3.1726 0.51-0.57738 0.22-1.529-0.52-1.6787l-0.37-0.07482c-2.1654-0.42417-4.3854-0.18374-6.4117 0.66699 1.4974 0.5551 3.7688 1.8703 5.2724 4.2591z" fill="url(#a)"/><path d="m24.941 7.1309c0.5203-1.1549 1.1991-2.2276 2.0293-3.1726 0.51-0.57738 0.22-1.529-0.52-1.6787l-0.37-0.07482c-2.1654-0.42417-4.3854-0.18374-6.4117 0.66699 1.4974 0.5551 3.7688 1.8703 5.2724 4.2591z" fill="url(#y)" fill-opacity=".5"/><path d="m24.941 7.1309c0.5203-1.1549 1.1991-2.2276 2.0293-3.1726 0.51-0.57738 0.22-1.529-0.52-1.6787l-0.37-0.07482c-2.1654-0.42417-4.3854-0.18374-6.4117 0.66699 1.4974 0.5551 3.7688 1.8703 5.2724 4.2591z" fill="url(#x)"/><path d="m12.337 7.1377c0.2761 0 0.5-0.22386 0.5-0.5 0-0.27615-0.2239-0.5-0.5-0.5s-0.5 0.22385-0.5 0.5c0 0.27614 0.2239 0.5 0.5 0.5z" fill="url(#w)"/><path d="m12.337 7.1377c0.2761 0 0.5-0.22386 0.5-0.5 0-0.27615-0.2239-0.5-0.5-0.5s-0.5 0.22385-0.5 0.5c0 0.27614 0.2239 0.5 0.5 0.5z" fill="url(#v)"/><path d="m12.337 7.1377c0.2761 0 0.5-0.22386 0.5-0.5 0-0.27615-0.2239-0.5-0.5-0.5s-0.5 0.22385-0.5 0.5c0 0.27614 0.2239 0.5 0.5 0.5z" fill="url(#u)"/><path d="m16.204 19.522c1.8526-1.9975 2.8782-5.0866 0.3978-7.2407-1.3845-0.9155-4.6359-0.905-8.2424-0.8933-0.41017 0.0014-0.82494 0.0027-1.2421 0.0027-1.0976 0-1.7608-0.6561-1.9826-1.4375h8.5451c2.3706 3e-5 4.6906 0.17798 5.7187 2.2969 1.0209 2.1041 0.1376 4.6207-3.1946 7.2719z" fill="#58CBFF"/><path d="m16.204 19.522c1.8526-1.9975 2.8782-5.0866 0.3978-7.2407-1.3845-0.9155-4.6359-0.905-8.2424-0.8933-0.41017 0.0014-0.82494 0.0027-1.2421 0.0027-1.0976 0-1.7608-0.6561-1.9826-1.4375h8.5451c2.3706 3e-5 4.6906 0.17798 5.7187 2.2969 1.0209 2.1041 0.1376 4.6207-3.1946 7.2719z" fill="url(#t)"/><path d="m16.204 19.522c1.8526-1.9975 2.8782-5.0866 0.3978-7.2407-1.3845-0.9155-4.6359-0.905-8.2424-0.8933-0.41017 0.0014-0.82494 0.0027-1.2421 0.0027-1.0976 0-1.7608-0.6561-1.9826-1.4375h8.5451c2.3706 3e-5 4.6906 0.17798 5.7187 2.2969 1.0209 2.1041 0.1376 4.6207-3.1946 7.2719z" fill="url(#s)"/><path d="m16.204 19.522c1.8526-1.9975 2.8782-5.0866 0.3978-7.2407-1.3845-0.9155-4.6359-0.905-8.2424-0.8933-0.41017 0.0014-0.82494 0.0027-1.2421 0.0027-1.0976 0-1.7608-0.6561-1.9826-1.4375h8.5451c2.3706 3e-5 4.6906 0.17798 5.7187 2.2969 1.0209 2.1041 0.1376 4.6207-3.1946 7.2719z" fill="url(#r)"/><path d="m15.938 16.172c-1.875-1.575-2.125-3.5781-1.8125-6.9687 0.0403-0.43688 0.724-1.0491 1.5625-1.0781 0.9026-0.03125 1.9522 0.56022 1.625 1.2187-1.25 2.5156-0.8906 4.9375-0.4531 6.1563 0.3689 1.0278-0.5481 0.9858-0.9219 0.6718z" fill="#3AB9FF"/><path d="m15.938 16.172c-1.875-1.575-2.125-3.5781-1.8125-6.9687 0.0403-0.43688 0.724-1.0491 1.5625-1.0781 0.9026-0.03125 1.9522 0.56022 1.625 1.2187-1.25 2.5156-0.8906 4.9375-0.4531 6.1563 0.3689 1.0278-0.5481 0.9858-0.9219 0.6718z" fill="url(#q)"/><path d="m15.938 16.172c-1.875-1.575-2.125-3.5781-1.8125-6.9687 0.0403-0.43688 0.724-1.0491 1.5625-1.0781 0.9026-0.03125 1.9522 0.56022 1.625 1.2187-1.25 2.5156-0.8906 4.9375-0.4531 6.1563 0.3689 1.0278-0.5481 0.9858-0.9219 0.6718z" fill="url(#p)"/><g filter="url(#ad)"><path d="m12.837 4.25h2.5156c4.2344 0 10.047 3.7375 9.3211 10.488" stroke="#43DFFF" stroke-linecap="round" stroke-width="2"/></g><path d="m26.578 17.031c-3.9728 6.1748-12.044 6.5536-15.489 5.8869l1.1746 2.3994c0.1227-0.1429 0.3212-0.2211 0.523-0.1863 0.78 0.1342 1.5852 0.135 2.4221 0.135 5.2427 0.0167 9.9221-3.0206 11.37-8.235z" fill="url(#n)"/><path d="m26.578 17.031c-3.9728 6.1748-12.044 6.5536-15.489 5.8869l1.1746 2.3994c0.1227-0.1429 0.3212-0.2211 0.523-0.1863 0.78 0.1342 1.5852 0.135 2.4221 0.135 5.2427 0.0167 9.9221-3.0206 11.37-8.235z" fill="url(#m)"/><path d="m26.578 17.031c-3.9728 6.1748-12.044 6.5536-15.489 5.8869l1.1746 2.3994c0.1227-0.1429 0.3212-0.2211 0.523-0.1863 0.78 0.1342 1.5852 0.135 2.4221 0.135 5.2427 0.0167 9.9221-3.0206 11.37-8.235z" fill="url(#l)"/><g filter="url(#ac)"><path d="m11.403 23.721 0.4192 0.6114-0.297 2.7251c-0.0698 1.3835-1.2518 1.706-1.8341 1.8341v-3.1792l1.7119-1.9914z" fill="url(#k)"/></g><g filter="url(#ab)"><path d="m11.508 19.389c0-2.4875-1.7003-3.3889-2.5504-3.5286v4.3671l1.7468 2.4805 0.8036-0.5241v-2.7949z" fill="url(#j)"/><path d="m11.508 19.389c0-2.4875-1.7003-3.3889-2.5504-3.5286v4.3671l1.7468 2.4805 0.8036-0.5241v-2.7949z" fill="url(#i)"/></g><g filter="url(#aa)"><path d="m16.801 16.052c-1.3366-3.2084-0.1922-5.8483 0.4192-6.9605l-0.8297-0.45746c-0.099 0.16146-0.6463 1.1212-0.8997 2.8793-0.2941 2.0409 0.6697 3.9108 1.3102 4.5387z" fill="#6ECCFF"/></g><defs><filter id="ad" x="9.3367" y=".75" width="18.899" height="17.488" color-interpolation-filters="sRGB" filterUnits="userSpaceOnUse"><feFlood flood-opacity="0" result="BackgroundImageFix"/><feBlend in="SourceGraphic" in2="BackgroundImageFix" result="shape"/><feGaussianBlur result="effect1_foregroundBlur_28327_5877" stdDeviation="1.25"/></filter><filter id="ac" x="9.1914" y="23.221" width="3.1311" height="6.1706" color-interpolation-filters="sRGB" filterUnits="userSpaceOnUse"><feFlood flood-opacity="0" result="BackgroundImageFix"/><feBlend in="SourceGraphic" in2="BackgroundImageFix" result="shape"/><feGaussianBlur result="effect1_foregroundBlur_28327_5877" stdDeviation="0.25"/></filter><filter id="ab" x="8.4577" y="15.36" width="3.5504" height="7.8477" color-interpolation-filters="sRGB" filterUnits="userSpaceOnUse"><feFlood flood-opacity="0" result="BackgroundImageFix"/><feBlend in="SourceGraphic" in2="BackgroundImageFix" result="shape"/><feGaussianBlur result="effect1_foregroundBlur_28327_5877" stdDeviation="0.25"/></filter><filter id="aa" x="14.936" y="8.1345" width="2.7838" height="8.418" color-interpolation-filters="sRGB" filterUnits="userSpaceOnUse"><feFlood flood-opacity="0" result="BackgroundImageFix"/><feBlend in="SourceGraphic" in2="BackgroundImageFix" result="shape"/><feGaussianBlur result="effect1_foregroundBlur_28327_5877" stdDeviation="0.25"/></filter><radialGradient id="z" cx="0" cy="0" r="1" gradientTransform="translate(22.771 6.1875) rotate(124.81) scale(14.234 20.494)" gradientUnits="userSpaceOnUse"><stop stop-color="#50E1FF" offset="0"/><stop stop-color="#36ABFF" offset="1"/></radialGradient><radialGradient id="o" cx="0" cy="0" r="1" gradientTransform="translate(17.021 13.938) rotate(-33.024) scale(5.9634 6.3023)" gradientUnits="userSpaceOnUse"><stop stop-color="#4D98FF" offset="0"/><stop stop-color="#4D98FF" stop-opacity="0" offset="1"/></radialGradient><radialGradient id="h" cx="0" cy="0" r="1" gradientTransform="translate(14.896 11.438) rotate(189.95) scale(7.2338 3.9828)" gradientUnits="userSpaceOnUse"><stop stop-color="#4D98FF" offset="0"/><stop stop-color="#4D98FF" stop-opacity="0" offset="1"/></radialGradient><radialGradient id="g" cx="0" cy="0" r="1" gradientTransform="translate(12.802 11.781) rotate(226.3) scale(6.8298 3.654)" gradientUnits="userSpaceOnUse"><stop stop-color="#4292FF" offset="0"/><stop stop-color="#4292FF" stop-opacity="0" offset="1"/></radialGradient><radialGradient id="f" cx="0" cy="0" r="1" gradientTransform="translate(9.2721 30.219) rotate(-65.308) scale(3.3454 4.2469)" gradientUnits="userSpaceOnUse"><stop stop-color="#6B9BFF" offset="0"/><stop stop-color="#6B9BFF" stop-opacity="0" offset="1"/></radialGradient><radialGradient id="e" cx="0" cy="0" r="1" gradientTransform="translate(7.1719 7.0157) rotate(57.714) scale(3.715 2.676)" gradientUnits="userSpaceOnUse"><stop stop-color="#57C6FF" offset="0"/><stop stop-color="#57C6FF" stop-opacity="0" offset="1"/></radialGradient><linearGradient id="d" x1="9.0625" x2="8.5" y1="7.7969" y2="8.4844" gradientUnits="userSpaceOnUse"><stop stop-color="#3DA9FF" offset="0"/><stop stop-color="#3DA9FF" stop-opacity="0" offset="1"/></linearGradient><linearGradient id="c" x1="6.125" x2="6.4531" y1="10.188" y2="9.6563" gradientUnits="userSpaceOnUse"><stop stop-color="#36A3FF" offset="0"/><stop stop-color="#36A3FF" stop-opacity="0" offset="1"/></linearGradient><radialGradient id="b" cx="0" cy="0" r="1" gradientTransform="translate(22.052 2) rotate(38.191) scale(5.9641 21.627)" gradientUnits="userSpaceOnUse"><stop stop-color="#42BDFF" stop-opacity="0" offset=".60323"/><stop stop-color="#42BDFF" offset=".91396"/></radialGradient><radialGradient id="a" cx="0" cy="0" r="1" gradientTransform="translate(28.615 2.5938) rotate(164.33) scale(4.5115 1.0135)" gradientUnits="userSpaceOnUse"><stop stop-color="#70E0FF" offset=".26979"/><stop stop-color="#70E0FF" stop-opacity="0" offset=".74005"/></radialGradient><radialGradient id="y" cx="0" cy="0" r="1" gradientTransform="translate(28.552 10.5) rotate(221.5) scale(11.224 6.6808)" gradientUnits="userSpaceOnUse"><stop stop-color="#52DBFF" stop-opacity="0" offset=".89284"/><stop stop-color="#92E8FF" offset="1"/></radialGradient><radialGradient id="x" cx="0" cy="0" r="1" gradientTransform="translate(23.708 5.6562) rotate(-40.454) scale(4.6237 21.734)" gradientUnits="userSpaceOnUse"><stop stop-color="#92E8FF" offset="0"/><stop stop-color="#52DBFF" stop-opacity="0" offset=".16976"/></radialGradient><radialGradient id="w" cx="0" cy="0" r="1" gradientTransform="translate(12.485 6.4768) rotate(125.84) scale(.69386 .61861)" gradientUnits="userSpaceOnUse"><stop stop-color="#433437" offset=".0055866"/><stop stop-color="#3B2838" offset="1"/></radialGradient><radialGradient id="v" cx="0" cy="0" r="1" gradientTransform="translate(12.524 6.5127) rotate(137.64) scale(.35946 .31624)" gradientUnits="userSpaceOnUse"><stop stop-color="#5C5051" offset="0"/><stop stop-color="#5C5051" stop-opacity="0" offset="1"/></radialGradient><linearGradient id="u" x1="12.238" x2="11.895" y1="6.245" y2="6.0262" gradientUnits="userSpaceOnUse"><stop stop-color="#5C5051" stop-opacity="0" offset="0"/><stop stop-color="#5C5051" offset="1"/></linearGradient><radialGradient id="t" cx="0" cy="0" r="1" gradientTransform="translate(15.711 13.562) rotate(-59.264) scale(2.6904 4.4639)" gradientUnits="userSpaceOnUse"><stop stop-color="#73A9FF" offset="0"/><stop stop-color="#73A9FF" stop-opacity="0" offset="1"/></radialGradient><radialGradient id="s" cx="0" cy="0" r="1" gradientTransform="translate(12.467 12.406) rotate(-85.04) scale(2.4624 6.6606)" gradientUnits="userSpaceOnUse"><stop stop-color="#73A9FF" offset="0"/><stop stop-color="#73A9FF" stop-opacity="0" offset=".95142"/></radialGradient><radialGradient id="r" cx="0" cy="0" r="1" gradientTransform="translate(7.9609 9.9531) rotate(90) scale(1.0781 2.2161)" gradientUnits="userSpaceOnUse"><stop stop-color="#71CBFF" offset="0"/><stop stop-color="#71CBFF" stop-opacity="0" offset="1"/></radialGradient><linearGradient id="q" x1="16.294" x2="14.722" y1="8.7332" y2="14.568" gradientUnits="userSpaceOnUse"><stop stop-color="#49BBFF" offset="0"/><stop stop-color="#49BBFF" stop-opacity="0" offset="1"/></linearGradient><radialGradient id="p" cx="0" cy="0" r="1" gradientTransform="translate(18.286 12.541) rotate(152.39) scale(4.2974 7.6856)" gradientUnits="userSpaceOnUse"><stop stop-color="#51A7FF" stop-opacity="0" offset=".70641"/><stop stop-color="#439BF4" offset=".96153"/></radialGradient><radialGradient id="n" cx="0" cy="0" r="1" gradientTransform="translate(18.216 19.564) rotate(74.102) scale(5.7395 10.618)" gradientUnits="userSpaceOnUse"><stop stop-color="#4D98FF" stop-opacity="0" offset=".70049"/><stop stop-color="#4D98FF" offset="1"/></radialGradient><radialGradient id="m" cx="0" cy="0" r="1" gradientTransform="translate(18.076 20.891) rotate(74.976) scale(4.5824 18.446)" gradientUnits="userSpaceOnUse"><stop stop-color="#8594FF" stop-opacity="0" offset=".48099"/><stop stop-color="#8594FF" offset=".89375"/></radialGradient><linearGradient id="l" x1="12.084" x2="12.731" y1="25.031" y2="24.752" gradientUnits="userSpaceOnUse"><stop stop-color="#37ABFF" offset="0"/><stop stop-color="#37ABFF" stop-opacity="0" offset="1"/></linearGradient><radialGradient id="k" cx="0" cy="0" r="1" gradientTransform="translate(11.281 24.682) rotate(104.14) scale(7.1516 2.1696)" gradientUnits="userSpaceOnUse"><stop stop-color="#59B8FF" offset="0"/><stop stop-color="#59B8FF" stop-opacity="0" offset="1"/></radialGradient><radialGradient id="j" cx="0" cy="0" r="1" gradientTransform="translate(12.451 21.345) rotate(239.51) scale(7.298 4.4394)" gradientUnits="userSpaceOnUse"><stop stop-color="#59B8FF" offset="0"/><stop stop-color="#59B8FF" stop-opacity="0" offset="1"/></radialGradient><radialGradient id="i" cx="0" cy="0" r="1" gradientTransform="translate(11.648 22.044) rotate(248.13) scale(2.6729 .97963)" gradientUnits="userSpaceOnUse"><stop stop-color="#63C6FF" offset="0"/><stop stop-color="#63C6FF" stop-opacity="0" offset="1"/></radialGradient></defs></svg>
