<?xml version="1.0" encoding="UTF-8"?>
<svg width="2774px" height="1737px" viewBox="0 0 2774 1737" version="1.1" xmlns="http://www.w3.org/2000/svg" xmlns:xlink="http://www.w3.org/1999/xlink">
    <title>phone.fill.arrow.bend.right</title>
    <g id="Page-1" stroke="none" stroke-width="1" fill="none" fill-rule="evenodd">
        <g id="phone.fill.arrow.bend.right" transform="translate(0.000000, 0.500000)">
            <g id="Notes">
                <line x1="0" y1="0.5" x2="2773" y2="0.5" id="Path" stroke="#000000" stroke-width="0.5"></line>
                <text id="Weight/Scale-Variations" fill="#000000" fill-rule="nonzero" font-family="Helvetica" font-size="13" font-weight="normal">
                    <tspan x="0" y="30.5">Weight/Scale Variations</tspan>
                </text>
                <text id="Ultralight" fill="#000000" fill-rule="nonzero" font-family="Helvetica" font-size="13" font-weight="normal">
                    <tspan x="271.0633" y="30.5">Ultralight</tspan>
                </text>
                <text id="Thin" fill="#000000" fill-rule="nonzero" font-family="Helvetica" font-size="13" font-weight="normal">
                    <tspan x="580.7775" y="30.5">Thin</tspan>
                </text>
                <text id="Light" fill="#000000" fill-rule="nonzero" font-family="Helvetica" font-size="13" font-weight="normal">
                    <tspan x="876.035" y="30.5">Light</tspan>
                </text>
                <text id="Regular" fill="#000000" fill-rule="nonzero" font-family="Helvetica" font-size="13" font-weight="normal">
                    <tspan x="1164.0773" y="30.5">Regular</tspan>
                </text>
                <text id="Medium" fill="#000000" fill-rule="nonzero" font-family="Helvetica" font-size="13" font-weight="normal">
                    <tspan x="1460.4419" y="30.5">Medium</tspan>
                </text>
                <text id="Semibold" fill="#000000" fill-rule="nonzero" font-family="Helvetica" font-size="13" font-weight="normal">
                    <tspan x="1753.1719" y="30.5">Semibold</tspan>
                </text>
                <text id="Bold" fill="#000000" fill-rule="nonzero" font-family="Helvetica" font-size="13" font-weight="normal">
                    <tspan x="2063.9705" y="30.5">Bold</tspan>
                </text>
                <text id="Heavy" fill="#000000" fill-rule="nonzero" font-family="Helvetica" font-size="13" font-weight="normal">
                    <tspan x="2355.2659" y="30.5">Heavy</tspan>
                </text>
                <text id="Black" fill="#000000" fill-rule="nonzero" font-family="Helvetica" font-size="13" font-weight="normal">
                    <tspan x="2654.5054" y="30.5">Black</tspan>
                </text>
                <line x1="0" y1="1611.5" x2="2773" y2="1611.5" id="Path" stroke="#000000" stroke-width="0.5"></line>
                <g id="Group" transform="translate(1.400000, 1626.700000)" fill="#000000" fill-rule="nonzero">
                    <path d="M7.8,15.6 C8.9,15.6 9.9,15.4 10.8,15 C11.8,14.6 12.6,14 13.3,13.3 C14,12.6 14.6,11.7 15,10.8 C15.4,9.8 15.6,8.8 15.6,7.8 C15.6,6.8 15.4,5.7 15,4.8 C14.6,3.8 14,3 13.3,2.3 C12.6,1.6 11.7,1 10.8,0.6 C9.8,0.2 8.8,0 7.8,0 C6.7,0 5.7,0.2 4.8,0.6 C3.9,1 3,1.6 2.3,2.3 C1.6,2.9 1,3.8 0.6,4.7 C0.2,5.7 1.33226763e-15,6.7 1.33226763e-15,7.7 C1.33226763e-15,8.7 0.2,9.8 0.6,10.8 C1,11.8 1.6,12.6 2.3,13.3 C3,14 3.9,14.6 4.8,15 C5.8,15.4 6.8,15.6 7.8,15.6 Z M7.8,14.1 C6.9,14.1 6.1,13.9 5.3,13.6 C4.6,13.3 3.9,12.9 3.3,12.3 C2.7,11.7 2.3,11 1.9,10.3 C1.6,9.5 1.5,8.6 1.5,7.7 C1.5,6.8 1.7,6 2,5.2 C2.3,4.4 2.8,3.7 3.4,3.2 C4,2.6 4.7,2.2 5.4,1.8 C6.2,1.5 7,1.3 7.9,1.3 C8.8,1.3 9.6,1.5 10.4,1.8 C11.2,2.1 11.9,2.6 12.4,3.2 C13,3.8 13.4,4.5 13.8,5.2 C14.1,6 14.3,6.8 14.3,7.7 C14.3,8.6 14.1,9.4 13.8,10.2 C13.5,11 13,11.7 12.4,12.2 C11.8,12.8 11.1,13.2 10.4,13.6 C9.6,14 8.7,14.1 7.8,14.1 Z M4.3,7.7 C4.3,7.9 4.4,8.1 4.5,8.2 C4.6,8.4 4.8,8.5 5,8.5 L7.1,8.5 L7.1,10.6 C7.1,10.8 7.2,11 7.3,11.1 C7.4,11.3 7.6,11.3 7.8,11.3 C8,11.3 8.2,11.2 8.3,11.1 C8.5,11 8.6,10.8 8.6,10.6 L8.6,8.5 L10.7,8.5 C10.9,8.5 11.1,8.4 11.2,8.3 C11.3,8.2 11.4,8 11.4,7.8 C11.4,7.6 11.3,7.4 11.2,7.3 C11.1,7.2 10.9,7.1 10.7,7.1 L8.6,7.1 L8.6,5 C8.6,4.8 8.5,4.6 8.4,4.5 C8.3,4.4 8.1,4.3 7.9,4.3 C7.7,4.3 7.5,4.4 7.4,4.5 C7.3,4.6 7.2,4.8 7.2,5 L7.2,7.1 L5,7.1 C4.8,7 4.6,7.1 4.5,7.2 C4.3,7.3 4.3,7.5 4.3,7.7 Z" id="Shape"></path>
                </g>
                <g id="Group" transform="translate(20.567000, 1624.400000)" fill="#000000" fill-rule="nonzero">
                    <path d="M10,20 C11.4,20 12.6,19.7 13.8,19.2 C15,18.7 16.1,18 17,17 C17.9,16.1 18.6,15 19.2,13.8 C19.7,12.6 20,11.3 20,10 C20,8.6 19.7,7.4 19.2,6.2 C18.7,5 18,3.9 17,3 C16.1,2.1 15,1.4 13.8,0.8 C12.6,0.3 11.3,0 10,0 C8.7,0 7.4,0.3 6.2,0.8 C5,1.3 3.9,2 3,3 C2.1,3.9 1.4,5 0.8,6.2 C0.3,7.4 6.66133815e-16,8.7 6.66133815e-16,10 C6.66133815e-16,11.4 0.3,12.6 0.8,13.8 C1.3,15 2.1,16.2 3,17.1 C3.9,18 5,18.7 6.2,19.3 C7.4,19.9 8.6,20 10,20 Z M10,18.3 C8.8,18.3 7.8,18.1 6.8,17.7 C5.8,17.3 4.9,16.7 4.2,15.9 C3.4,15.2 2.8,14.3 2.4,13.3 C2,12.3 1.7,11.2 1.7,10 C1.7,8.8 1.9,7.8 2.3,6.8 C2.7,5.8 3.3,4.9 4.1,4.2 C4.9,3.4 5.7,2.8 6.7,2.4 C7.7,2 8.8,1.8 9.9,1.8 C11,1.8 12.1,2 13.1,2.4 C14.1,2.8 15,3.4 15.7,4.2 C16.5,5 17.1,5.8 17.5,6.8 C17.9,7.8 18.1,8.9 18.1,10 C18.1,11.2 17.9,12.2 17.5,13.2 C17.1,14.2 16.5,15.1 15.7,15.8 C14.9,16.6 14.1,17.2 13.1,17.6 C12.1,18 11.2,18.3 10,18.3 Z M5.5,10 C5.5,10.2 5.6,10.4 5.7,10.6 C5.9,10.8 6.1,10.8 6.3,10.8 L9.2,10.8 L9.2,13.7 C9.2,13.9 9.3,14.1 9.4,14.3 C9.5,14.5 9.7,14.5 10,14.5 C10.2,14.5 10.4,14.4 10.6,14.3 C10.8,14.1 10.8,13.9 10.8,13.7 L10.8,10.8 L13.7,10.8 C13.9,10.8 14.1,10.7 14.3,10.6 C14.5,10.5 14.5,10.3 14.5,10 C14.5,9.8 14.4,9.6 14.3,9.4 C14.1,9.2 13.9,9.2 13.7,9.2 L10.8,9.2 L10.8,6.3 C10.8,6 10.7,5.8 10.6,5.7 C10.5,5.6 10.2,5.5 10,5.5 C9.8,5.5 9.6,5.6 9.4,5.7 C9.3,5.9 9.2,6.1 9.2,6.3 L9.2,9.2 L6.3,9.2 C6,9.2 5.8,9.3 5.7,9.4 C5.6,9.6 5.5,9.8 5.5,10 Z" id="Shape"></path>
                </g>
                <g id="Group" transform="translate(44.846000, 1621.700000)" fill="#000000" fill-rule="nonzero">
                    <path d="M12.8,25.5 C14.2,25.5 15.5,25.3 16.8,24.9 C18.1,24.5 19.2,23.9 20.3,23.1 C21.4,22.3 22.3,21.4 23.1,20.3 C23.8,19.2 24.4,18 24.8,16.7 C25.2,15.4 25.4,14.1 25.4,12.7 C25.4,11.3 25.2,10 24.8,8.7 C24.4,7.4 23.8,6.3 23,5.2 C22.2,4.1 21.3,3.2 20.2,2.4 C19.1,1.6 18,1 16.7,0.6 C15.4,0.2 14.1,0 12.7,0 C11.3,0 10,0.2 8.7,0.6 C7.4,1 6.3,1.6 5.2,2.4 C4.1,3.2 3.2,4.1 2.4,5.2 C1.6,6.3 1,7.4 0.6,8.7 C0.2,10 -4.4408921e-16,11.3 -4.4408921e-16,12.7 C-4.4408921e-16,14.1 0.2,15.4 0.6,16.7 C1,18 1.6,19.1 2.4,20.2 C3.2,21.3 4.1,22.2 5.2,23 C6.4,23.8 7.5,24.4 8.8,24.8 C10,25.2 11.4,25.5 12.8,25.5 Z M12.8,23.6 C11.6,23.6 10.4,23.4 9.4,23 C8.3,22.6 7.3,22.1 6.4,21.5 C5.4,20.9 4.6,20.1 4,19.2 C3.3,18.3 2.8,17.3 2.4,16.2 C2.1,15.1 1.9,14 1.9,12.7 C1.9,11.5 2.1,10.3 2.4,9.2 C2.8,8.1 3.3,7.1 3.9,6.2 C4.6,5.3 5.3,4.5 6.3,3.8 C7.3,3.1 8.2,2.6 9.3,2.3 C10.4,1.9 11.5,1.8 12.7,1.8 C13.9,1.8 15.1,2 16.2,2.3 C17.3,2.7 18.3,3.2 19.2,3.8 C20.1,4.5 20.9,5.3 21.6,6.2 C22.3,7.1 22.8,8.1 23.1,9.2 C23.5,10.3 23.7,11.4 23.7,12.7 C23.7,13.9 23.5,15.1 23.2,16.1 C22.8,17.2 22.3,18.2 21.7,19.1 C21,20 20.2,20.8 19.3,21.5 C18.4,22.2 17.4,22.7 16.3,23 C15.1,23.5 14,23.6 12.8,23.6 Z M7,12.7 C7,13 7.1,13.2 7.3,13.3 C7.5,13.5 7.7,13.5 8,13.5 L11.9,13.5 L11.9,17.5 C11.9,17.8 12,18 12.1,18.2 C12.3,18.4 12.5,18.5 12.7,18.5 C13,18.5 13.2,18.4 13.4,18.2 C13.6,18 13.7,17.8 13.7,17.5 L13.7,13.5 L17.7,13.5 C18,13.5 18.2,13.4 18.4,13.3 C18.6,13.1 18.7,12.9 18.7,12.7 C18.7,12.4 18.6,12.2 18.4,12 C18.1,11.9 17.9,11.8 17.6,11.8 L13.6,11.8 L13.6,7.9 C13.6,7.6 13.5,7.4 13.3,7.2 C13.1,7 12.9,6.9 12.6,6.9 C12.3,6.9 12.1,7 12,7.2 C11.8,7.4 11.8,7.6 11.8,7.9 L11.8,11.8 L7.9,11.8 C7.6,11.8 7.4,11.9 7.3,12.1 C7.1,12.3 7,12.5 7,12.7 Z" id="Shape"></path>
                </g>
                <text id="Design-Variations" fill="#000000" fill-rule="nonzero" font-family="Helvetica" font-size="13" font-weight="normal">
                    <tspan x="0" y="1661.5">Design Variations</tspan>
                </text>
                <text id="Symbols-are-supported-in-up-to-nine-weights-and-three-scales." fill="#000000" fill-rule="nonzero" font-family="Helvetica" font-size="13" font-weight="normal">
                    <tspan x="0" y="1679.5">Symbols are supported in up to nine weights and three scales.</tspan>
                </text>
                <text id="For-optimal-layout-with-text-and-other-symbols,-vertically-align" fill="#000000" fill-rule="nonzero" font-family="Helvetica" font-size="13" font-weight="normal">
                    <tspan x="0" y="1697.5">For optimal layout with text and other symbols, vertically align</tspan>
                </text>
                <text id="symbols-with-the-adjacent-text." fill="#000000" fill-rule="nonzero" font-family="Helvetica" font-size="13" font-weight="normal">
                    <tspan x="0" y="1715.5">symbols with the adjacent text.</tspan>
                </text>
                <line x1="513" y1="1627.5" x2="513" y2="1641.5" id="Path" stroke="#00AEEF" stroke-width="0.5"></line>
                <g id="Group" transform="translate(515.500000, 1627.200000)" fill="#000000" fill-rule="nonzero">
                    <path d="M0.8,14.5 C1.1,14.5 1.3,14.4 1.4,14.3 C1.5,14.2 1.7,14 1.8,13.7 L3,10.3 L8.8,10.3 L10.1,13.7 C10.2,14 10.3,14.2 10.5,14.3 C10.6,14.4 10.8,14.5 11.1,14.5 C11.4,14.5 11.6,14.4 11.7,14.3 C11.9,14.2 11.9,14 11.9,13.7 C11.9,13.6 11.9,13.4 11.8,13.2 L7.2,0.9 C7.1,0.6 6.9,0.4 6.7,0.2 C6.5,0.1 6.2,0 5.9,0 C5.3,0 4.9,0.3 4.7,0.9 L0.1,13.1 C0,13.3 0,13.5 0,13.7 C0,13.9 0.1,14.1 0.2,14.3 C0.3,14.5 0.6,14.5 0.8,14.5 Z M3.5,8.8 L5.9,2.2 L5.9,2.2 L8.3,8.8 C8.3,8.8 3.5,8.8 3.5,8.8 Z" id="Shape"></path>
                </g>
                <line x1="530.2" y1="1627.5" x2="530.2" y2="1641.5" id="Path" stroke="#00AEEF" stroke-width="0.5"></line>
                <text id="Margins" fill="#000000" fill-rule="nonzero" font-family="Helvetica" font-size="13" font-weight="normal">
                    <tspan x="513" y="1661.5">Margins</tspan>
                </text>
                <text id="Leading-and-trailing-margins-on-the-left-and-right-side-of-each-symbol" fill="#000000" fill-rule="nonzero" font-family="Helvetica" font-size="13" font-weight="normal">
                    <tspan x="513" y="1679.5">Leading and trailing margins on the left and right side of each symbol</tspan>
                </text>
                <text id="can-be-adjusted-by-modifying-the-x-location-of-the-margin-guidelines." fill="#000000" fill-rule="nonzero" font-family="Helvetica" font-size="13" font-weight="normal">
                    <tspan x="513" y="1697.5">can be adjusted by modifying the x-location of the margin guidelines.</tspan>
                </text>
                <text id="Modifications-are-automatically-applied-proportionally-to-all" fill="#000000" fill-rule="nonzero" font-family="Helvetica" font-size="13" font-weight="normal">
                    <tspan x="513" y="1715.5">Modifications are automatically applied proportionally to all</tspan>
                </text>
                <text id="scales-and-weights." fill="#000000" fill-rule="nonzero" font-family="Helvetica" font-size="13" font-weight="normal">
                    <tspan x="513" y="1733.5">scales and weights.</tspan>
                </text>
                <g id="Group" transform="translate(1028.274517, 1623.000000)" fill="#000000" fill-rule="nonzero">
                    <path d="M0.5254834,20.4 L2.2254834,22.1 C2.7254834,22.5 3.1254834,22.7 3.6254834,22.7 C4.1254834,22.7 4.5254834,22.4 5.0254834,21.9 L15.7254834,10.1 L14.7254834,9.1 L4.1254834,20.8 C3.9254834,21 3.8254834,21.1 3.6254834,21.1 C3.4254834,21.1 3.2254834,21 3.0254834,20.8 L1.8254834,19.6 C1.6254834,19.4 1.5254834,19.2 1.5254834,19 C1.5254834,18.8 1.6254834,18.6 1.8254834,18.5 L13.3254834,7.7 L12.3254834,6.7 L0.7254834,17.6 C0.3254834,18.1 0.0254833996,18.5 0.0254833996,19 C-0.0745166004,19.5 0.1254834,19.9 0.5254834,20.4 Z M7.0254834,2.2 C6.8254834,2.4 6.7254834,2.6 6.6254834,2.9 C6.6254834,3.2 6.6254834,3.4 6.7254834,3.6 C6.8254834,3.8 7.0254834,3.9 7.2254834,4 C7.4254834,4.1 7.7254834,4.1 8.0254834,4 C8.7254834,3.8 9.5254834,3.8 10.2254834,3.8 C10.9254834,3.8 11.7254834,4.1 12.4254834,4.5 L11.8254834,6 C11.6254834,6.4 11.6254834,6.8 11.7254834,7.1 C11.8254834,7.4 11.9254834,7.7 12.2254834,8 L14.5254834,10.3 C14.7254834,10.5 15.0254834,10.7 15.2254834,10.7 C15.4254834,10.7 15.7254834,10.7 16.0254834,10.7 L17.1254834,10.5 L17.8254834,11.2 L17.8254834,11.8 C17.8254834,12 17.8254834,12.3 17.9254834,12.5 C18.0254834,12.7 18.1254834,12.9 18.4254834,13.2 L19.2254834,13.9 C19.4254834,14.1 19.7254834,14.3 20.0254834,14.3 C20.3254834,14.3 20.5254834,14.2 20.8254834,14 L23.7254834,11.1 C23.9254834,10.9 24.0254834,10.6 24.0254834,10.3 C24.0254834,10 23.9254834,9.8 23.6254834,9.5 L22.7254834,8.6 C22.5254834,8.4 22.2254834,8.2 22.0254834,8.1 C21.8254834,8 21.6254834,8 21.3254834,8 L20.7254834,8 L20.1254834,7.4 L20.3254834,6.3 C20.4254834,6 20.4254834,5.8 20.3254834,5.5 C20.2254834,5.2 20.0254834,5 19.7254834,4.7 L17.6254834,2.5 C16.8254834,1.7 15.9254834,1.1 14.9254834,0.6 C14.0254834,0.2 13.0254834,0 12.1254834,0 C11.1254834,0 10.2254834,0.2 9.3254834,0.5 C8.5254834,0.9 7.7254834,1.4 7.0254834,2.2 Z M8.5254834,2.5 C9.1254834,2.1 9.8254834,1.7 10.4254834,1.6 C11.1254834,1.4 11.8254834,1.4 12.5254834,1.4 C13.2254834,1.5 13.9254834,1.7 14.6254834,2 C15.3254834,2.3 15.9254834,2.7 16.4254834,3.3 L18.8254834,5.7 C18.9254834,5.8 19.0254834,5.9 19.0254834,6 C19.0254834,6.1 19.0254834,6.3 19.0254834,6.4 L18.7254834,8 L20.2254834,9.5 L21.2254834,9.4 C21.3254834,9.4 21.4254834,9.4 21.5254834,9.4 C21.6254834,9.4 21.6254834,9.5 21.7254834,9.6 L22.3254834,10.2 L19.9254834,12.6 L19.3254834,12 C19.2254834,11.9 19.1254834,11.8 19.1254834,11.8 C19.1254834,11.7 19.1254834,11.6 19.1254834,11.5 L19.2254834,10.5 L17.7254834,9 L16.2254834,9.3 C16.0254834,9.3 15.9254834,9.3 15.8254834,9.3 C15.7254834,9.3 15.6254834,9.2 15.5254834,9.1 L13.5254834,7.1 C13.4254834,7 13.3254834,6.9 13.3254834,6.8 C13.3254834,6.7 13.3254834,6.5 13.4254834,6.4 L14.3254834,4.3 C13.5254834,3.6 12.6254834,3.1 11.7254834,2.8 C10.7254834,2.5 9.7254834,2.5 8.7254834,2.8 C8.6254834,2.8 8.6254834,2.8 8.5254834,2.8 C8.4254834,2.6 8.4254834,2.6 8.5254834,2.5 Z" id="Shape"></path>
                </g>
                <text id="Exporting" fill="#000000" fill-rule="nonzero" font-family="Helvetica" font-size="13" font-weight="normal">
                    <tspan x="1026" y="1661.5">Exporting</tspan>
                </text>
                <text id="Symbols-should-be-outlined-when-exporting-to-ensure-the" fill="#000000" fill-rule="nonzero" font-family="Helvetica" font-size="13" font-weight="normal">
                    <tspan x="1026" y="1679.5">Symbols should be outlined when exporting to ensure the</tspan>
                </text>
                <text id="design-is-preserved-when-submitting-to-Xcode." fill="#000000" fill-rule="nonzero" font-family="Helvetica" font-size="13" font-weight="normal">
                    <tspan x="1026" y="1697.5">design is preserved when submitting to Xcode.</tspan>
                </text>
                <text id="template-version" fill="#000000" fill-rule="nonzero" font-family="Helvetica" font-size="13" font-weight="normal">
                    <tspan x="2689.4141" y="1641.5">Template v.3.0</tspan>
                </text>
                <text id="Requires-Xcode-13-or-greater" fill="#000000" fill-rule="nonzero" font-family="Helvetica" font-size="13" font-weight="normal">
                    <tspan x="2602.4575" y="1659.5">Requires Xcode 13 or greater</tspan>
                </text>
                <text id="descriptive-name" fill="#000000" fill-rule="nonzero" font-family="Helvetica" font-size="13" font-weight="normal">
                    <tspan x="2543.9258" y="1677.5">Generated from phone.fill.arrow.up.right</tspan>
                </text>
                <text id="Typeset-at-100-points" fill="#000000" fill-rule="nonzero" font-family="Helvetica" font-size="13" font-weight="normal">
                    <tspan x="2649.4111" y="1695.5">Typeset at 100 points</tspan>
                </text>
                <text id="Small" fill="#000000" fill-rule="nonzero" font-family="Helvetica" font-size="13" font-weight="normal">
                    <tspan x="0" y="434.5">Small</tspan>
                </text>
                <text id="Medium" fill="#000000" fill-rule="nonzero" font-family="Helvetica" font-size="13" font-weight="normal">
                    <tspan x="0" y="864.5">Medium</tspan>
                </text>
                <text id="Large" fill="#000000" fill-rule="nonzero" font-family="Helvetica" font-size="13" font-weight="normal">
                    <tspan x="0" y="1294.5">Large</tspan>
                </text>
            </g>
            <g id="Guides" transform="translate(0.000000, 309.300000)">
                <g id="H-reference" transform="translate(77.000000, 24.700000)" fill="#27AAE1" fill-rule="nonzero">
                    <path d="M0,70.5 L2.6,70.5 L28.3,3.4 L29,3.4 L29,0.1 L27.1,0.1 L0,70.5 Z M10.7,46 L46,46 L45.2,43.8 L11.4,43.8 L10.7,46 Z M54.1,70.5 L56.7,70.5 L29.6,0 L28.4,0 L28.4,3.3 L54.1,70.5 Z" id="Shape"></path>
                </g>
                <line x1="1136.3" y1="-1.13686838e-13" x2="1136.3" y2="119.3" id="left-margin-Regular-S" stroke="#00AEEF" stroke-width="0.5"></line>
                <line x1="1236.4" y1="-1.13686838e-13" x2="1236.4" y2="119.3" id="right-margin-Regular-S" stroke="#00AEEF" stroke-width="0.5"></line>
                <line x1="0" y1="95.2" x2="2773" y2="95.2" id="Baseline-S" stroke="#27AAE1" stroke-width="0.5"></line>
                <line x1="0" y1="24.7" x2="2773" y2="24.7" id="Capline-S" stroke="#27AAE1" stroke-width="0.5"></line>
                <g id="H-reference" transform="translate(77.000000, 454.700000)" fill="#27AAE1" fill-rule="nonzero">
                    <path d="M0,70.5 L2.6,70.5 L28.3,3.4 L29,3.4 L29,0.1 L27.1,0.1 L0,70.5 Z M10.7,46 L46,46 L45.2,43.8 L11.4,43.8 L10.7,46 Z M54.1,70.5 L56.7,70.5 L29.6,0 L28.4,0 L28.4,3.3 L54.1,70.5 Z" id="Shape"></path>
                </g>
                <line x1="1128.2" y1="430" x2="1128.2" y2="549.3" id="left-margin-Regular-M" stroke="#00AEEF" stroke-width="0.5"></line>
                <line x1="1244.5" y1="430" x2="1244.5" y2="549.3" id="right-margin-Regular-M" stroke="#00AEEF" stroke-width="0.5"></line>
                <line x1="0" y1="525.2" x2="2773" y2="525.2" id="Baseline-M" stroke="#27AAE1" stroke-width="0.5"></line>
                <line x1="0" y1="454.7" x2="2773" y2="454.7" id="Capline-M" stroke="#27AAE1" stroke-width="0.5"></line>
                <g id="H-reference" transform="translate(77.000000, 884.700000)" fill="#27AAE1" fill-rule="nonzero">
                    <path d="M0,70.5 L2.6,70.5 L28.3,3.4 L29,3.4 L29,0.1 L27.1,0.1 L0,70.5 Z M10.7,46 L46,46 L45.2,43.8 L11.4,43.8 L10.7,46 Z M54.1,70.5 L56.7,70.5 L29.6,0 L28.4,0 L28.4,3.3 L54.1,70.5 Z" id="Shape"></path>
                </g>
                <line x1="1109.2" y1="844.7" x2="1109.2" y2="995.2" id="left-margin-Regular-L" stroke="#00AEEF" stroke-width="0.5"></line>
                <line x1="1254.5" y1="844.7" x2="1254.5" y2="995.2" id="right-margin-Regular-L" stroke="#00AEEF" stroke-width="0.5"></line>
                <line x1="0" y1="955.2" x2="2773" y2="955.2" id="Baseline-L" stroke="#27AAE1" stroke-width="0.5"></line>
                <line x1="0" y1="884.7" x2="2773" y2="884.7" id="Capline-L" stroke="#27AAE1" stroke-width="0.5"></line>
            </g>
            <g id="Symbols" transform="translate(235.100000, 330.900000)" fill="#000000" fill-rule="nonzero">
                <g id="Black-L" transform="translate(2374.700000, 838.700000)">
                    <path d="M34.9,89.4 C41.5,96 48.2,101.8 55.4,107 C62.5,112.2 69.7,116.3 76.7,119.4 C83.8,122.4 90.5,123.9 96.8,123.9 C101,123.9 105,123.1 108.7,121.5 C112.5,119.9 115.8,117.6 118.7,114.3 C120.4,112.4 121.7,110.4 122.6,108.3 C123.5,106.3 123.9,104.1 123.9,101.9 C123.9,99.9 123.4,97.8 122.5,95.9 C121.6,94 120.1,92.3 118.3,90.9 L99.6,77.6 C96.5,75.4 93.6,74.3 91.3,74.3 C89.7,74.3 88.2,74.8 86.8,75.6 C85.4,76.4 84,77.6 82.4,79.1 L77.7,83.8 C77.1,84.4 76.3,84.7 75.2,84.7 C74.7,84.7 74.3,84.5 73.6,84.4 C73.1,84.2 72.7,84.1 72.3,83.8 C70.3,82.7 67.6,80.7 64.5,77.8 C61.4,75 58.1,72.2 54.9,68.9 C51.8,65.8 48.8,62.6 46,59.3 C43.2,56.2 41.3,53.5 40,51.5 C39.8,51.2 39.5,50.7 39.4,50.2 C39.2,49.7 39.1,49.3 39.1,48.6 C39.1,47.7 39.4,46.9 40,46.1 L44.7,41.4 C46.1,40 47.4,38.4 48.2,37 C49,35.6 49.5,34.2 49.5,32.5 C49.5,30 48.4,27.3 46.2,24.2 L32.9,5.5 C31.5,3.6 29.9,2.2 28,1.3 C26.1,0.4 24.1,-2.27373675e-13 22,-2.27373675e-13 C17.5,-2.27373675e-13 13.4,1.7 9.6,5.2 C6.3,8.2 3.8,11.5 2.4,15.2 C0.8,19 -4.54747351e-13,22.9 -4.54747351e-13,27.1 C-4.54747351e-13,33.4 1.6,40.1 4.5,47.2 C7.4,54.3 11.6,61.3 16.9,68.5 C22.5,76.1 28.3,82.9 34.9,89.4 Z M66,15.5 C68.7,12.8 73.3,12.8 76.2,15.5 L94.3,33.6 L109.9,18 L113.7,14.7 L108.2,15.5 L102.1,15.5 C100.3,15.5 98.7,14.8 97.4,13.5 C96.1,12.2 95.6,10.5 95.6,8.5 C95.6,6.5 96.3,4.8 97.4,3.5 C98.6,2.2 100.1,1.5 102,1.5 L126.6,1.5 C129.7,1.5 132.2,2.4 133.9,4.1 C135.6,5.8 136.5,8.3 136.5,11.4 L136.5,36.5 C136.5,38.3 135.8,39.9 134.5,41.1 C133.2,42.3 131.5,42.9 129.5,42.9 C127.5,42.9 125.8,42.2 124.5,41.1 C123.2,39.8 122.5,38.2 122.5,36.4 L122.5,29.9 L123.4,24 L120.3,28.1 L99.7,48.7 C99.3,49.1 98.9,49.5 98.4,49.7 C97.2,50.5 95.8,50.9 94.3,50.9 C94,50.9 93.9,50.9 93.6,50.9 C92.2,50.8 90.9,50.2 89.7,49.3 C89.4,49.2 89.3,49 89,48.8 L65.8,25.6 C63.3,22.8 63.3,18.2 66,15.5 Z" id="_path1_"></path>
                </g>
                <g id="Black-M" transform="translate(2387.900000, 421.500000)">
                    <path d="M27.5,70.4 C32.7,75.6 38,80.2 43.7,84.2 C49.3,88.3 54.9,91.5 60.5,94 C66.1,96.3 71.4,97.6 76.3,97.6 C79.6,97.6 82.7,97 85.7,95.7 C88.7,94.5 91.3,92.6 93.6,90 C95,88.5 95.9,86.9 96.7,85.3 C97.4,83.7 97.7,82 97.7,80.2 C97.7,78.6 97.3,77 96.6,75.5 C95.9,74 94.7,72.7 93.3,71.5 L78.5,61.1 C76,59.4 73.8,58.5 72,58.5 C70.8,58.5 69.5,58.9 68.4,59.5 C67.3,60.1 66.2,61.1 64.9,62.2 L61.2,65.9 C60.7,66.4 60.1,66.6 59.2,66.6 C58.8,66.6 58.5,66.5 58,66.4 C57.6,66.3 57.3,66.2 57,65.9 C55.4,65 53.3,63.4 50.8,61.2 C48.3,59 45.7,56.8 43.3,54.2 C40.8,51.7 38.5,49.3 36.3,46.7 C34.1,44.2 32.6,42.1 31.6,40.5 C31.5,40.3 31.2,39.9 31.1,39.5 C31,39.1 30.9,38.8 30.9,38.3 C30.9,37.6 31.1,36.9 31.6,36.3 L35.3,32.6 C36.4,31.5 37.4,30.3 38,29.1 C38.6,28 39,26.9 39,25.5 C39,23.5 38.1,21.4 36.4,19 L25.9,4.3 C24.8,2.8 23.6,1.7 22.1,1 C20.6,0.3 19,0 17.4,0 C13.8,0 10.6,1.4 7.6,4.1 C5,6.4 3,9 1.9,12 C0.7,15 -4.54747351e-13,18 -4.54747351e-13,21.4 C-4.54747351e-13,26.3 1.2,31.6 3.6,37.2 C5.9,42.8 9.2,48.3 13.4,54 C17.7,59.9 22.3,65.2 27.5,70.4 Z M50.6,10.2 C52.9,7.9 56.8,7.9 59.3,10.2 L74.7,25.6 L84.3,16 L87.5,13.2 L82.8,13.9 L77.6,13.9 C76,13.9 74.7,13.3 73.6,12.2 C72.5,11.1 72,9.6 72,8 C72,6.3 72.6,4.9 73.6,3.8 C74.6,2.7 75.9,2.1 77.5,2.1 L98.4,2.1 C101.1,2.1 103.2,2.9 104.6,4.3 C106,5.7 106.8,7.9 106.8,10.5 L106.8,31.8 C106.8,33.4 106.2,34.7 105.1,35.7 C104,36.7 102.5,37.3 100.9,37.3 C99.2,37.3 97.8,36.7 96.7,35.7 C95.6,34.6 95,33.3 95,31.7 L95,26.1 L95.8,21.1 L93.1,24.5 L79.3,38.3 C79,38.6 78.6,39 78.2,39.2 C77.2,39.9 76,40.2 74.8,40.2 C74.6,40.2 74.5,40.2 74.2,40.2 C73,40.1 71.9,39.6 70.9,38.9 C70.7,38.8 70.6,38.7 70.3,38.5 L50.6,18.8 C48.2,16.4 48.2,12.5 50.6,10.2 Z" id="_path2_"></path>
                </g>
                <g id="Black-S" transform="translate(2395.800000, -0.000000)">
                    <path d="M78.1,61.2 C78.7,62.4 79,63.7 79,65 C79,66.4 78.8,67.8 78.2,69.1 C77.6,70.4 76.8,71.7 75.7,72.9 C73.8,75 71.7,76.5 69.3,77.5 C66.9,78.5 64.4,79 61.7,79 C57.7,79 53.4,78 48.9,76.1 C44.4,74.1 39.8,71.5 35.3,68.2 C30.7,64.9 26.4,61.2 22.2,57 C18,52.8 14.3,48.5 10.8,43.7 C7.4,39.1 4.8,34.6 2.9,30.1 C1,25.6 0,21.3 0,17.3 C0,14.6 0.5,12.1 1.5,9.7 C2.4,7.3 4,5.2 6.1,3.3 C8.5,1.1 11.1,0 14,0 C15.3,0 16.6,0.2 17.8,0.8 C19,1.4 20,2.3 20.9,3.5 L29.4,15.4 C30.8,17.4 31.5,19.1 31.5,20.7 C31.5,21.8 31.2,22.7 30.7,23.6 C30.2,24.5 29.4,25.5 28.5,26.4 L25.5,29.4 C25.1,29.9 24.9,30.4 24.9,31 C24.9,31.4 25,31.7 25.1,32 C25.2,32.3 25.4,32.6 25.5,32.8 C26.3,34.1 27.5,35.8 29.3,37.8 C31.1,39.9 33,41.9 35,43.9 C37,46 39.1,47.8 41.1,49.6 C43.1,51.4 44.8,52.7 46.1,53.4 C46.3,53.6 46.6,53.7 46.9,53.8 C47.3,53.9 47.6,54 47.9,54 C48.6,54 49.1,53.8 49.5,53.4 L52.5,50.4 C53.5,49.5 54.4,48.7 55.3,48.2 C56.2,47.7 57.2,47.4 58.2,47.4 C59.7,47.4 61.5,48.1 63.5,49.5 L75.4,58 C76.6,58.9 77.5,60 78.1,61.2 Z M44.5,10.8 C46.6,8.7 50.1,8.7 52.3,10.8 L62.1,20.6 L67.4,15.3 L70.3,12.8 L66.1,13.4 L61.4,13.4 C60,13.4 58.8,12.9 57.8,11.9 C56.8,10.9 56.4,9.6 56.4,8.1 C56.4,6.6 56.9,5.3 57.8,4.3 C58.7,3.3 59.9,2.8 61.3,2.8 L80.1,2.8 C82.5,2.8 84.4,3.5 85.7,4.8 C87,6.1 87.7,8 87.7,10.4 L87.7,29.6 C87.7,31 87.2,32.2 86.2,33.1 C85.2,34 83.9,34.5 82.4,34.5 C80.9,34.5 79.6,34 78.6,33.1 C77.6,32.1 77.1,30.9 77.1,29.5 L77.1,24.5 L77.8,20 L75.4,23.1 L66.3,32.2 C66,32.5 65.7,32.8 65.3,33 C64.4,33.6 63.3,33.9 62.2,33.9 C62,33.9 61.9,33.9 61.7,33.9 C60.6,33.8 59.6,33.4 58.7,32.7 C58.5,32.6 58.4,32.5 58.2,32.3 L44.5,18.6 C42.4,16.4 42.4,12.9 44.5,10.8 Z" id="_path3_"></path>
                </g>
                <g id="Regular-L" transform="translate(887.400000, 840.100000)">
                    <path d="M32.2,86.2 C38.4,92.4 44.7,97.9 51.6,102.8 C58.3,107.7 65.1,111.6 71.8,114.5 C78.5,117.4 84.8,118.7 90.9,118.7 C94.8,118.7 98.6,118 102.1,116.6 C105.5,115.1 108.8,112.9 111.5,109.6 C113.1,107.6 114.4,105.7 115.4,103.6 C116.4,101.5 116.7,99.4 116.7,97.2 C116.7,95.6 116.4,93.9 115.7,92.5 C115,91.1 114.1,89.7 112.4,88.8 L93.2,75.1 C90.1,73 87.5,71.8 85.4,71.8 C83.9,71.8 82.5,72.1 81.2,72.9 C79.9,73.7 78.6,74.9 77.1,76.2 L72.7,80.6 C72,81.3 71.2,81.6 70.3,81.6 C69.8,81.6 69.3,81.6 68.8,81.4 C68.3,81.2 68,81.1 67.7,80.9 C65.7,79.8 63.1,78 60.2,75.4 C57.3,72.8 54.2,70 51.2,66.9 C48.3,63.8 45.5,60.9 42.7,57.9 C40.1,55 38.3,52.4 37.2,50.4 C37,50.1 36.9,49.6 36.7,49.3 C36.5,49 36.5,48.3 36.5,47.8 C36.5,46.8 36.8,46 37.5,45.4 L41.9,41 C43.2,39.5 44.3,38.2 45.2,36.9 C46.1,35.6 46.5,34.3 46.5,32.8 C46.5,30.5 45.4,27.9 43.2,25 L29.7,5.9 C28.6,4.4 27.4,3.3 25.8,2.6 C24.3,1.9 22.7,1.6 20.9,1.6 C16.5,1.6 12.6,3.4 8.8,7 C5.7,9.9 3.4,13 2.1,16.6 C0.8,20.2 -2.27373675e-13,23.9 -2.27373675e-13,27.8 C-2.27373675e-13,33.8 1.5,40.2 4.2,46.7 C7,53.4 10.9,60.1 15.8,66.7 C20.8,73.6 26.2,80 32.2,86.2 Z M117.5,1.1 C116.7,0.3 115.7,0 114.2,0 L86.9,0 C85.8,0 84.8,0.4 84,1.3 C83.2,2.2 82.9,3.1 82.9,4.2 C82.9,5.2 83.3,6.1 84.2,6.8 C85,7.4 85.8,7.8 87,7.8 L93,7.8 L106.9,6.9 L98.8,14.3 L85.7,27.4 L67.4,9.1 C66.5,8.2 65.5,7.8 64.4,7.8 C63.4,7.8 62.4,8.2 61.8,8.9 C61.2,9.7 60.7,10.7 60.7,11.8 C60.7,12.9 61.1,13.8 62,14.7 L83,35.7 L83,35.7 L83,35.7 C83.8,36.5 84.8,36.8 85.9,36.8 C87,36.8 87.9,36.4 88.8,35.5 L104.5,19.8 L111.9,11.8 L110.9,25.7 L110.9,31.7 C110.9,32.7 111.3,33.7 112,34.3 C112.8,34.9 113.6,35.4 114.6,35.4 C115.7,35.5 116.6,35.1 117.5,34.4 C118.4,33.6 118.8,32.6 118.8,31.6 L118.8,4.5 C118.5,3 118.2,1.9 117.5,1.1 Z" id="_path4"></path>
                </g>
                <g id="Regular-M" transform="translate(904.900000, 423.700000)">
                    <path d="M24.9,66.7 C29.7,71.5 34.6,75.8 39.9,79.5 C45.1,83.3 50.4,86.3 55.5,88.6 C60.7,90.9 65.6,91.9 70.2,91.9 C73.2,91.9 76.1,91.4 78.9,90.3 C81.5,89.2 84.1,87.4 86.2,84.9 C87.5,83.4 88.5,81.9 89.2,80.2 C89.9,78.5 90.2,76.9 90.2,75.3 C90.2,74 89.9,72.8 89.4,71.6 C88.9,70.5 88.1,69.5 86.9,68.7 L72,58.1 C69.6,56.5 67.6,55.6 66,55.6 C64.9,55.6 63.7,55.9 62.7,56.5 C61.7,57.1 60.7,58 59.6,59 L56.2,62.4 C55.7,62.9 55.1,63.2 54.3,63.2 C53.9,63.2 53.5,63.2 53.2,63.1 C52.8,63 52.6,62.8 52.3,62.7 C50.8,61.8 48.8,60.4 46.5,58.4 C44.2,56.4 41.8,54.2 39.6,51.8 C37.3,49.4 35.2,47.1 33,44.9 C31,42.6 29.6,40.6 28.7,39.1 C28.6,38.8 28.4,38.5 28.3,38.2 C28.2,37.9 28.2,37.4 28.2,37.1 C28.2,36.3 28.5,35.7 29,35.2 L32.4,31.8 C33.4,30.7 34.3,29.7 34.9,28.7 C35.5,27.7 35.9,26.7 35.9,25.6 C35.9,23.8 35,21.8 33.4,19.6 L22.9,4.9 C22,3.8 21.1,2.9 19.9,2.4 C18.8,1.9 17.5,1.6 16.1,1.6 C12.7,1.6 9.7,3 6.8,5.8 C4.4,8.1 2.6,10.5 1.6,13.2 C0.6,15.9 -2.27373675e-13,18.9 -2.27373675e-13,21.9 C-2.27373675e-13,26.6 1.1,31.5 3.3,36.5 C5.4,41.7 8.5,46.8 12.2,52 C16,57 20.2,61.9 24.9,66.7 Z M93.6,1 C92.9,0.3 92,0 90.7,0 L66.2,0 C65.2,0 64.3,0.3 63.6,1.1 C62.9,1.9 62.6,2.7 62.6,3.7 C62.6,4.6 62.9,5.4 63.7,6.1 C64.4,6.7 65.2,7 66.2,7 L71.6,7 L84.1,6.2 L76.8,12.8 L67.7,21.9 L52.4,6.6 C51.6,5.8 50.7,5.5 49.7,5.5 C48.8,5.5 47.9,5.8 47.3,6.5 C46.7,7.2 46.3,8.1 46.3,9.1 C46.3,10.1 46.6,10.9 47.4,11.7 L65.2,29.5 L65.2,29.5 L65.2,29.5 C65.9,30.2 66.8,30.5 67.8,30.5 C68.8,30.5 69.6,30.2 70.4,29.4 L81.9,17.9 L88.5,10.7 L87.6,23.2 L87.6,28.6 C87.6,29.5 87.9,30.4 88.6,31 C89.3,31.6 90.1,32 91,32 C92,32.1 92.8,31.8 93.6,31.1 C94.4,30.4 94.7,29.5 94.7,28.6 L94.7,4.1 C94.5,2.7 94.3,1.7 93.6,1 Z" id="_path5_"></path>
                </g>
                <g id="Regular-S" transform="translate(911.300000, 2.600000)">
                    <path d="M19.7,53.3 C23.5,57.1 27.4,60.5 31.6,63.5 C35.7,66.5 39.9,68.9 44,70.7 C48.1,72.5 52,73.3 55.7,73.3 C58.1,73.3 60.4,72.9 62.6,72 C64.7,71.1 66.7,69.7 68.4,67.7 C69.4,66.5 70.2,65.3 70.8,64 C71.4,62.7 71.6,61.4 71.6,60.1 C71.6,59.1 71.4,58.1 71,57.2 C70.6,56.3 70,55.5 69,54.9 L57.2,46.5 C55.3,45.2 53.7,44.5 52.4,44.5 C51.5,44.5 50.6,44.7 49.8,45.2 C49,45.7 48.2,46.4 47.3,47.2 L44.6,49.9 C44.2,50.3 43.7,50.5 43.1,50.5 C42.8,50.5 42.5,50.5 42.2,50.4 C41.9,50.3 41.7,50.2 41.5,50.1 C40.3,49.4 38.7,48.3 36.9,46.7 C35.1,45.1 33.2,43.4 31.4,41.5 C29.6,39.6 27.9,37.8 26.2,36 C24.6,34.2 23.5,32.6 22.8,31.4 C22.7,31.2 22.6,30.9 22.5,30.7 C22.4,30.5 22.4,30.1 22.4,29.8 C22.4,29.2 22.6,28.7 23,28.3 L25.7,25.6 C26.5,24.7 27.2,23.9 27.7,23.1 C28.2,22.3 28.5,21.5 28.5,20.6 C28.5,19.2 27.8,17.6 26.5,15.8 L18.2,4.1 C17.5,3.2 16.8,2.5 15.8,2.1 C14.9,1.7 13.9,1.5 12.8,1.5 C10.1,1.5 7.7,2.6 5.4,4.8 C3.5,6.6 2.1,8.5 1.3,10.7 C0.5,12.9 2.27373675e-13,15.2 2.27373675e-13,17.6 C2.27373675e-13,21.3 0.9,25.2 2.6,29.2 C4.3,33.3 6.7,37.4 9.7,41.5 C12.7,45.6 16,49.5 19.7,53.3 Z M81.3,0.9 C80.7,0.3 79.9,0 78.7,0 L56.9,0 C56,0 55.2,0.3 54.6,1 C54,1.7 53.7,2.4 53.7,3.3 C53.7,4.1 54,4.8 54.7,5.4 C55.3,5.9 56,6.2 56.9,6.2 L61.7,6.2 L72.8,5.5 L66.3,11.4 L58.2,19.5 L42.8,4.1 C42.1,3.4 41.3,3.1 40.4,3.1 C39.6,3.1 38.8,3.4 38.3,4 C37.8,4.6 37.4,5.4 37.4,6.3 C37.4,7.2 37.7,7.9 38.4,8.6 L56,26.2 L56,26.2 L56,26.2 C56.6,26.8 57.4,27.1 58.3,27.1 C59.2,27.1 59.9,26.8 60.6,26.1 L70.8,15.9 L76.7,9.5 L75.9,20.6 L75.9,25.4 C75.9,26.2 76.2,27 76.8,27.5 C77.4,28 78.1,28.4 78.9,28.4 C79.8,28.5 80.5,28.2 81.2,27.6 C81.9,27 82.2,26.2 82.2,25.4 L82.2,3.6 C82.1,2.4 81.9,1.5 81.3,0.9 Z" id="_path6_"></path>
                </g>
                <g id="Ultralight-L" transform="translate(0.000000, 840.600000)">
                    <path d="M29.8,84 C35.2,89.4 41.1,94.3 47.3,98.9 C53.5,103.3 59.9,106.9 66.4,109.5 C72.9,112.1 79.2,113.4 85,113.4 C89.3,113.4 93,112.7 96.6,111.3 C100,109.8 103.3,107.7 106.2,104.6 C107.7,103.1 109,101.3 110.3,99.4 C111.6,97.3 112.1,95.3 112.1,93.2 C112.1,91.9 111.8,90.6 111.1,89.3 C110.4,88 109.3,86.8 107.8,85.7 L88.8,72.5 C86.5,71 84.4,70.2 82.4,70.2 C81.1,70.2 79.8,70.5 78.5,71.2 C77.2,71.9 75.7,72.8 74.1,74.3 L69.5,78.7 C68.8,79.4 68,79.7 67,79.7 C66.7,79.7 66.3,79.7 65.9,79.5 C65.6,79.3 65.2,79.3 64.8,79.2 C63.2,78.4 60.7,76.9 57.6,74.5 C54.5,72.2 51.2,69.3 47.8,66 C44.4,62.6 41.6,59.5 39.3,56.4 C37,53.3 35.4,50.8 34.6,49 C34.4,48.7 34.3,48.3 34.3,48 C34.3,47.7 34.1,47.3 34.1,47 C34.1,46.2 34.4,45.5 34.9,44.9 L39.3,40 C40.6,38.4 41.8,36.9 42.4,35.4 C43.1,33.9 43.4,32.6 43.4,31.3 C43.4,29.3 42.6,27.2 40.9,24.9 L28.5,7.1 C27.4,5.5 26,4.3 24.6,3.5 C23.1,2.8 21.7,2.4 20,2.4 C16.1,2.4 12.2,4.2 8.4,8 C5.5,10.9 3.3,14.2 2,17.6 C0.7,21.2 0,24.8 0,28.7 C0,34.8 1.3,41 3.9,47.3 C6.5,53.7 10.1,60.1 14.5,66.4 C19.1,72.7 24.4,78.4 29.8,84 Z M65.9,11.8 C66.4,11.3 67.3,11.3 67.8,11.8 L88.7,32.7 L104.8,16.6 L119,2.7 L103.8,2.8 L91.4,2.8 C91,2.8 90.8,2.7 90.4,2.4 C90.1,2.1 90,1.8 90,1.4 C90,1 90.1,0.8 90.4,0.4 C90.7,0.1 91,0 91.4,0 L122.1,0 C122.5,0 122.9,0.1 123.1,0.4 C123.4,0.7 123.5,1 123.5,1.6 L123.5,32.7 C123.5,33.1 123.4,33.5 123.1,33.7 C122.8,34 122.5,34.1 122.1,34.1 C121.7,34.1 121.3,34 121.1,33.7 C120.8,33.4 120.7,33.1 120.7,32.7 L120.7,19.8 L121,4.6 L107.1,18.7 L90.1,35.7 L90,35.8 L90,35.8 C90,35.8 90,35.8 89.9,35.8 C89.8,35.9 89.6,36.1 89.5,36.1 L89.4,36.1 C89.3,36.1 89.1,36.2 89,36.2 C88.7,36.2 88.6,36.2 88.5,36.1 C88.4,36 88.1,36 88,35.8 L66.1,13.9 C65.4,13.3 65.4,12.4 65.9,11.8 Z" id="_path7_"></path>
                </g>
                <g id="Ultralight-M" transform="translate(12.500000, 423.500000)">
                    <path d="M23.3,65.4 C27.5,69.6 32.1,73.4 36.9,77 C41.7,80.4 46.7,83.2 51.8,85.3 C56.9,87.4 61.7,88.4 66.3,88.4 C69.6,88.4 72.5,87.9 75.3,86.7 C78,85.6 80.5,83.9 82.8,81.5 C83.9,80.4 85,79 86,77.4 C87,75.7 87.4,74.2 87.4,72.6 C87.4,71.6 87.1,70.6 86.6,69.5 C86.1,68.4 85.2,67.6 84.1,66.7 L69.3,56.4 C67.5,55.3 65.9,54.6 64.3,54.6 C63.3,54.6 62.3,54.9 61.2,55.4 C60.2,55.9 59,56.7 57.8,57.8 L54.2,61.2 C53.7,61.7 53.1,62 52.3,62 C52,62 51.8,62 51.4,61.9 C51.1,61.8 50.9,61.8 50.5,61.6 C49.2,61 47.3,59.8 44.9,57.9 C42.5,56.1 39.9,53.8 37.3,51.3 C34.6,48.6 32.5,46.2 30.7,43.8 C28.9,41.4 27.6,39.5 27,38.1 C26.9,37.8 26.7,37.6 26.7,37.3 C26.7,37 26.6,36.8 26.6,36.5 C26.6,35.9 26.9,35.4 27.2,34.8 L30.6,31 C31.6,29.7 32.5,28.6 33,27.4 C33.5,26.2 33.8,25.2 33.8,24.2 C33.8,22.7 33.2,21 31.9,19.2 L22.2,5.3 C21.3,4 20.3,3.1 19.1,2.5 C18,2 16.8,1.6 15.5,1.6 C12.4,1.6 9.4,3 6.5,5.9 C4.2,8.2 2.6,10.7 1.5,13.4 C0.5,16.2 0,19 0,22.1 C0,26.8 1,31.7 3.1,36.6 C5.2,41.5 7.9,46.5 11.4,51.5 C15,56.6 19.1,61.1 23.3,65.4 Z M44.2,10.8 C44.7,10.3 45.5,10.3 46,10.8 L64.9,29.7 L79.5,15.1 L92.3,2.5 L78.5,2.6 L67.3,2.6 C66.9,2.6 66.7,2.5 66.4,2.2 C66.2,2 66,1.6 66,1.3 C66,1 66.1,0.7 66.4,0.4 C66.6,0.2 67,-2.27373675e-13 67.3,-2.27373675e-13 L95.1,-2.27373675e-13 C95.5,-2.27373675e-13 95.8,0.1 96,0.4 C96.2,0.7 96.4,1 96.4,1.5 L96.4,29.6 C96.4,30 96.3,30.3 96,30.5 C95.8,30.7 95.4,30.9 95.1,30.9 C94.7,30.9 94.4,30.8 94.2,30.5 C94,30.3 93.8,29.9 93.8,29.6 L93.8,17.9 L94,4.1 L81.4,16.8 L66,32.2 L65.9,32.3 L65.9,32.3 C65.9,32.3 65.9,32.3 65.8,32.3 C65.7,32.4 65.6,32.5 65.4,32.5 L65.3,32.5 C65.2,32.5 65.1,32.6 64.9,32.6 C64.7,32.6 64.5,32.6 64.4,32.5 C64.3,32.4 64,32.4 63.9,32.3 L44.1,12.5 C43.7,12.1 43.7,11.3 44.2,10.8 Z" id="_path8"></path>
                </g>
                <g id="Ultralight-S" transform="translate(22.300000, 2.700000)">
                    <path d="M18.1,51.8 C21.4,55.1 25,58.1 28.8,60.9 C32.6,63.6 36.5,65.8 40.5,67.4 C44.5,69 48.3,69.8 51.9,69.8 C54.5,69.8 56.8,69.4 59,68.5 C61.1,67.6 63.1,66.3 64.9,64.4 C65.8,63.5 66.6,62.4 67.4,61.2 C68.2,59.9 68.5,58.7 68.5,57.4 C68.5,56.6 68.3,55.8 67.9,55 C67.5,54.2 66.8,53.5 65.9,52.8 L54.3,44.7 C52.9,43.8 51.6,43.3 50.4,43.3 C49.6,43.3 48.8,43.5 48,43.9 C47.2,44.3 46.3,44.9 45.3,45.8 L42.5,48.5 C42.1,48.9 41.6,49.1 41,49.1 C40.8,49.1 40.6,49.1 40.3,49 C40.1,48.9 39.9,48.9 39.6,48.8 C38.6,48.3 37.1,47.4 35.2,45.9 C33.3,44.5 31.3,42.7 29.2,40.7 C27.1,38.6 25.4,36.7 24,34.8 C22.6,32.9 21.6,31.4 21.1,30.3 C21,30.1 20.9,29.9 20.9,29.7 C20.9,29.5 20.8,29.3 20.8,29.1 C20.8,28.6 21,28.2 21.3,27.8 L24,24.8 C24.8,23.8 25.5,22.9 25.9,22 C26.3,21.1 26.5,20.3 26.5,19.5 C26.5,18.3 26,17 25,15.6 L17.4,4.7 C16.7,3.7 15.9,3 15,2.5 C14.1,2.1 13.2,1.8 12.2,1.8 C9.8,1.8 7.4,2.9 5.1,5.2 C3.3,7 2,9 1.2,11.1 C0.4,13.3 -1.13686838e-13,15.5 -1.13686838e-13,17.9 C-1.13686838e-13,21.6 0.8,25.4 2.4,29.3 C4,33.2 6.2,37.1 8.9,41 C11.6,44.9 14.8,48.4 18.1,51.8 Z M37.9,9.2 C38.3,8.8 39,8.8 39.4,9.2 L55.6,25.4 L68.1,12.9 L79.1,2.1 L67.3,2.2 L57.7,2.2 C57.4,2.2 57.2,2.1 56.9,1.9 C56.7,1.7 56.6,1.4 56.6,1.1 C56.6,0.8 56.7,0.6 56.9,0.3 C57.1,0.1 57.4,0 57.7,0 L81.5,0 C81.8,0 82.1,0.1 82.3,0.3 C82.5,0.5 82.6,0.8 82.6,1.2 L82.6,25.3 C82.6,25.6 82.5,25.9 82.3,26.1 C82.1,26.3 81.8,26.4 81.5,26.4 C81.2,26.4 80.9,26.3 80.7,26.1 C80.5,25.9 80.4,25.6 80.4,25.3 L80.4,15.3 L80.6,3.5 L69.8,14.4 L56.6,27.6 L56.5,27.7 L56.5,27.7 C56.5,27.7 56.5,27.7 56.4,27.7 C56.3,27.8 56.2,27.9 56.1,27.9 L56,27.9 C55.9,27.9 55.8,28 55.7,28 C55.5,28 55.4,28 55.3,27.9 C55.2,27.8 55,27.8 54.9,27.7 L37.9,10.7 C37.5,10.3 37.5,9.6 37.9,9.2 Z" id="_path9_"></path>
                </g>
            </g>
        </g>
    </g>
</svg>