<?xml version="1.0" encoding="UTF-8"?>
<svg width="3300px" height="2200px" viewBox="0 0 3300 2200" version="1.1" xmlns="http://www.w3.org/2000/svg" xmlns:xlink="http://www.w3.org/1999/xlink">
    <title>threema.bubble.fill</title>
    <g id="Ready-for-export" stroke="none" stroke-width="1" fill="none" fill-rule="evenodd">
        <g id="threema.bubble.fill">
            <g id="Notes">
                <rect id="artboard" fill="#FFFFFF" fill-rule="nonzero" x="0" y="0" width="3300" height="2200"></rect>
                <line x1="263" y1="292" x2="3036" y2="292" id="Path" stroke="#000000" stroke-width="0.5"></line>
                <text id="Weight/Scale-Variations" fill="#000000" fill-rule="nonzero" font-family="Helvetica-Bold, Helvetica" font-size="13" font-weight="bold">
                    <tspan x="263" y="322">Weight/Scale Variations</tspan>
                </text>
                <text id="Ultralight" fill="#000000" fill-rule="nonzero" font-family="Helvetica" font-size="13" font-weight="normal">
                    <tspan x="533.711" y="322">Ultralight</tspan>
                </text>
                <text id="Thin" fill="#000000" fill-rule="nonzero" font-family="Helvetica" font-size="13" font-weight="normal">
                    <tspan x="843.422" y="322">Thin</tspan>
                </text>
                <text id="Light" fill="#000000" fill-rule="nonzero" font-family="Helvetica" font-size="13" font-weight="normal">
                    <tspan x="1138.63" y="322">Light</tspan>
                </text>
                <text id="Regular" fill="#000000" fill-rule="nonzero" font-family="Helvetica" font-size="13" font-weight="normal">
                    <tspan x="1426.84" y="322">Regular</tspan>
                </text>
                <text id="Medium" fill="#000000" fill-rule="nonzero" font-family="Helvetica" font-size="13" font-weight="normal">
                    <tspan x="1723.06" y="322">Medium</tspan>
                </text>
                <text id="Semibold" fill="#000000" fill-rule="nonzero" font-family="Helvetica" font-size="13" font-weight="normal">
                    <tspan x="2015.77" y="322">Semibold</tspan>
                </text>
                <text id="Bold" fill="#000000" fill-rule="nonzero" font-family="Helvetica" font-size="13" font-weight="normal">
                    <tspan x="2326.48" y="322">Bold</tspan>
                </text>
                <text id="Heavy" fill="#000000" fill-rule="nonzero" font-family="Helvetica" font-size="13" font-weight="normal">
                    <tspan x="2618.19" y="322">Heavy</tspan>
                </text>
                <text id="Black" fill="#000000" fill-rule="nonzero" font-family="Helvetica" font-size="13" font-weight="normal">
                    <tspan x="2917.4" y="322">Black</tspan>
                </text>
                <line x1="263" y1="1903" x2="3036" y2="1903" id="Path" stroke="#000000" stroke-width="0.5"></line>
                <g id="Group" transform="translate(264.367190, 1918.068400)" fill="#000000" fill-rule="nonzero">
                    <path d="M7.88086,15.761678 C12.18751,15.761678 15.77151,12.18746 15.77151,7.88082 C15.77151,3.5742 12.17771,0 7.87109,0 C3.57422,0 -8.8817842e-16,3.5742 -8.8817842e-16,7.88082 C-8.8817842e-16,12.18746 3.58398,15.761678 7.88086,15.761678 Z M7.88086,14.277303 C4.33593,14.277303 1.5039,11.43551 1.5039,7.88082 C1.5039,4.3261 4.32617,1.4843 7.87109,1.4843 C11.42581,1.4843 14.26761,4.3261 14.2773352,7.88082 C14.28711,11.43551 11.43551,14.277303 7.88086,14.277303 Z M5.02929,8.61324 L7.13867,8.61324 L7.13867,10.73238 C7.13867,11.17183 7.43164,11.47457 7.86133,11.47457 C8.31054,11.47457 8.60351,11.17183 8.60351,10.73238 L8.60351,8.61324 L10.73241,8.61324 C11.17191,8.61324 11.47461,8.32027 11.47461,7.89058 C11.47461,7.45113 11.17191,7.1484 10.73241,7.1484 L8.60351,7.1484 L8.60351,5.03902 C8.60351,4.5898 8.31054,4.2871 7.86133,4.2871 C7.43164,4.2871 7.13867,4.5898 7.13867,5.03902 L7.13867,7.1484 L5.02929,7.1484 C4.58008,7.1484 4.27734,7.45113 4.27734,7.89058 C4.27734,8.32027 4.58008,8.61324 5.02929,8.61324 Z" id="Shape"></path>
                </g>
                <g id="Group" transform="translate(283.254050, 1915.988300)" fill="#000000" fill-rule="nonzero">
                    <path d="M9.96095,19.92186 C15.41015,19.92186 19.92185,15.40037 19.92185,9.96092 C19.92185,4.5117 15.40035,0 9.95115,0 C4.51172,0 8.8817842e-16,4.5117 8.8817842e-16,9.96092 C8.8817842e-16,15.40037 4.52148,19.92186 9.96095,19.92186 Z M9.96095,18.2617 C5.35156,18.2617 1.66992,14.57029 1.66992,9.96092 C1.66992,5.3515 5.34179,1.6601 9.95115,1.6601 C14.56055,1.6601 18.25195,5.3515 18.261769,9.96092 C18.27145,14.57029 14.57035,18.2617 9.96095,18.2617 Z M6.24023,10.78123 L9.13085,10.78123 L9.13085,13.69139 C9.13085,14.17967 9.46285,14.5117 9.94145,14.5117 C10.42965,14.5117 10.77145,14.17967 10.77145,13.69139 L10.77145,10.78123 L13.68165,10.78123 C14.16995,10.78123 14.50195,10.4492 14.50195,9.97068 C14.50195,9.4824 14.16995,9.14061 13.68165,9.14061 L10.77145,9.14061 L10.77145,6.25 C10.77145,5.7422 10.42965,5.4101 9.94145,5.4101 C9.46285,5.4101 9.13085,5.7519 9.13085,6.25 L9.13085,9.14061 L6.24023,9.14061 C5.73242,9.14061 5.40039,9.4824 5.40039,9.97068 C5.40039,10.4492 5.74218,10.78123 6.24023,10.78123 Z" id="Shape"></path>
                </g>
                <g id="Group" transform="translate(307.179860, 1913.224600)" fill="#000000" fill-rule="nonzero">
                    <path d="M12.71484,25.43946 C19.67774,25.43946 25.43944,19.6777438 25.43944,12.72462 C25.43944,5.7617 19.66794,0 12.70504,0 C5.75195,0 0,5.7617 0,12.72462 C0,19.6777438 5.76172,25.43946 12.71484,25.43946 Z M12.71484,23.62306 C6.67969,23.62306 1.82617,18.75978 1.82617,12.72462 C1.82617,6.6797 6.66992,1.8262 12.70504,1.8262 C18.75004,1.8262 23.60354,6.6797 23.6132548,12.72462 C23.62304,18.75978 18.75974,23.62306 12.71484,23.62306 Z M7.80274,13.63282 L11.80664,13.63282 L11.80664,17.64649 C11.80664,18.1836 12.17774,18.5547 12.69534,18.5547 C13.23244,18.5547 13.60354,18.1836 13.60354,17.64649 L13.60354,13.63282 L17.62694,13.63282 C18.15434,13.63282 18.53514,13.26173 18.53514,12.74415 C18.53514,12.20704 18.16404,11.82618 17.62694,11.82618 L13.60354,11.82618 L13.60354,7.8223 C13.60354,7.2656 13.23244,6.8945 12.69534,6.8945 C12.17774,6.8945 11.80664,7.2754 11.80664,7.8223 L11.80664,11.82618 L7.80274,11.82618 C7.24609,11.82618 6.875,12.20704 6.875,12.74415 C6.875,13.26173 7.25586,13.63282 7.80274,13.63282 Z" id="Shape"></path>
                </g>
                <text id="Design-Variations" fill="#000000" fill-rule="nonzero" font-family="Helvetica-Bold, Helvetica" font-size="13" font-weight="bold">
                    <tspan x="263" y="1953">Design Variations</tspan>
                </text>
                <text id="Symbols-are-supported-in-up-to-nine-weights-and-three-scales." fill="#000000" fill-rule="nonzero" font-family="Helvetica" font-size="13" font-weight="normal">
                    <tspan x="263" y="1971">Symbols are supported in up to nine weights and three scales.</tspan>
                </text>
                <text id="For-optimal-layout-with-text-and-other-symbols,-vertically-align" fill="#000000" fill-rule="nonzero" font-family="Helvetica" font-size="13" font-weight="normal">
                    <tspan x="263" y="1989">For optimal layout with text and other symbols, vertically align</tspan>
                </text>
                <text id="symbols-with-the-adjacent-text." fill="#000000" fill-rule="nonzero" font-family="Helvetica" font-size="13" font-weight="normal">
                    <tspan x="263" y="2007">symbols with the adjacent text.</tspan>
                </text>
                <line x1="776" y1="1919" x2="776" y2="1933" id="Path" stroke="#00AEEF" stroke-width="0.5"></line>
                <g id="Group" transform="translate(778.490230, 1918.712900)" fill="#000000" fill-rule="nonzero">
                    <path d="M0.82032,14.414053 C1.33789,14.414053 1.5918,14.2187406 1.77735,13.681631 L3.03711,10.2246 L8.79887,10.2246 L10.05857,13.681631 C10.24417,14.2187406 10.49807,14.414053 11.00587,14.414053 C11.52347,14.414053 11.85547,14.101553 11.85547,13.613272 C11.85547,13.447256 11.82617,13.300772 11.74807,13.08593 L7.16797,0.8984 C6.94336,0.293 6.54297,0 5.91797,0 C5.3125,0 4.90235,0.293 4.6875,0.8887 L0.10743,13.09569 C0.0293,13.310538 -4.4408921e-16,13.457022 -4.4408921e-16,13.623038 C-4.4408921e-16,14.111319 0.3125,14.414053 0.82032,14.414053 Z M3.51563,8.74999 L5.88868,2.1777 L5.9375,2.1777 L8.31057,8.74999 L3.51563,8.74999 Z" id="Shape"></path>
                </g>
                <line x1="792.836" y1="1919" x2="792.836" y2="1933" id="Path" stroke="#00AEEF" stroke-width="0.5"></line>
                <text id="Margins" fill="#000000" fill-rule="nonzero" font-family="Helvetica-Bold, Helvetica" font-size="13" font-weight="bold">
                    <tspan x="776" y="1953">Margins</tspan>
                </text>
                <text id="Leading-and-trailing-margins-on-the-left-and-right-side-of-each-symbol" fill="#000000" fill-rule="nonzero" font-family="Helvetica" font-size="13" font-weight="normal">
                    <tspan x="776" y="1971">Leading and trailing margins on the left and right side of each symbol</tspan>
                </text>
                <text id="can-be-adjusted-by-modifying-the-x-location-of-the-margin-guidelines." fill="#000000" fill-rule="nonzero" font-family="Helvetica" font-size="13" font-weight="normal">
                    <tspan x="776" y="1989">can be adjusted by modifying the x-location of the margin guidelines.</tspan>
                </text>
                <text id="Modifications-are-automatically-applied-proportionally-to-all" fill="#000000" fill-rule="nonzero" font-family="Helvetica" font-size="13" font-weight="normal">
                    <tspan x="776" y="2007">Modifications are automatically applied proportionally to all</tspan>
                </text>
                <text id="scales-and-weights." fill="#000000" fill-rule="nonzero" font-family="Helvetica" font-size="13" font-weight="normal">
                    <tspan x="776" y="2025">scales and weights.</tspan>
                </text>
                <g id="Group" transform="translate(1291.248126, 1914.517396)" fill="#000000" fill-rule="nonzero">
                    <path d="M0.593673634,20.347834 L2.29289363,22.056824 C3.15226363,22.925964 4.13859363,22.867374 5.06632363,21.841984 L15.2420736,10.631044 C15.5057736,10.718934 15.7791736,10.699404 16.0916736,10.640804 L17.1561736,10.445494 L17.8202736,11.119324 L17.7811736,11.675964 C17.7420736,12.174014 17.8690736,12.554874 18.3573736,13.033384 L19.1190736,13.775574 C19.5975736,14.254084 20.2127736,14.283384 20.6815736,13.814634 L23.5916736,10.894714 C24.0604736,10.425964 24.0409736,9.83026404 23.5623736,9.35174404 L22.7909736,8.59002404 C22.3123736,8.11150404 21.9413736,7.95530404 21.4627736,7.99430404 L20.8866736,8.04310404 L20.2420736,7.40840404 L20.4862736,6.28530404 C20.6131736,5.71890404 20.4569736,5.27950404 19.8709736,4.69350404 L17.6737736,2.50600404 C14.3338736,-0.814295964 9.90027363,-0.736195964 7.00968363,2.15450404 C6.58976363,2.56460404 6.56046363,3.14080404 6.79484363,3.53140404 C7.02921363,3.89280404 7.48820363,4.12710404 8.13277363,3.96110404 C9.59757363,3.61930404 11.1209736,3.56070404 12.5467736,4.49820404 L11.9608736,5.95330404 C11.7655736,6.43180404 11.7362736,6.83220404 11.8631736,7.19350404 L0.798753634,17.584166 C-0.187576366,18.5021352 -0.265706366,19.478698 0.593673634,20.347834 Z M8.50387363,2.52560404 C10.9354736,0.748204036 14.2264736,1.05100404 16.4530736,3.27750404 L18.8846736,5.68960404 C19.1190736,5.92400404 19.1580736,6.10960404 19.0897736,6.45140404 L18.7674736,7.93570404 L20.2713736,9.42010404 L21.2577736,9.36151404 C21.5116736,9.35174404 21.5897736,9.37127404 21.7850736,9.56658404 L22.3612736,10.142764 L19.9198736,12.584164 L19.3436736,12.007994 C19.1483736,11.812684 19.1190736,11.734554 19.1288736,11.470884 L19.1971736,10.494324 L17.7030736,9.00994404 L16.1795736,9.26385404 C15.8573736,9.33221404 15.7108736,9.30291404 15.4666736,9.06854404 L13.4647736,7.06660404 C13.2108736,6.83220404 13.1815736,6.66620404 13.3377736,6.29510404 L14.2166736,4.20530404 C12.6541736,2.75020404 10.6229736,2.12520404 8.59167363,2.72090404 C8.43547363,2.75990404 8.37687363,2.63300404 8.50387363,2.52560404 Z M3.02531363,20.787304 L1.85343363,19.625184 C1.38468363,19.166198 1.49210363,18.824401 1.89249363,18.4630728 L12.7030736,8.28730404 L14.1678736,9.77166404 L4.17765363,20.757994 C3.82609363,21.158384 3.49406363,21.256044 3.02531363,20.787304 Z" id="Shape"></path>
                </g>
                <text id="Exporting" fill="#000000" fill-rule="nonzero" font-family="Helvetica-Bold, Helvetica" font-size="13" font-weight="bold">
                    <tspan x="1289" y="1953">Exporting</tspan>
                </text>
                <text id="Symbols-should-be-outlined-when-exporting-to-ensure-the" fill="#000000" fill-rule="nonzero" font-family="Helvetica" font-size="13" font-weight="normal">
                    <tspan x="1289" y="1971">Symbols should be outlined when exporting to ensure the</tspan>
                </text>
                <text id="design-is-preserved-when-submitting-to-Xcode." fill="#000000" fill-rule="nonzero" font-family="Helvetica" font-size="13" font-weight="normal">
                    <tspan x="1289" y="1989">design is preserved when submitting to Xcode.</tspan>
                </text>
                <text id="template-version" fill="#000000" fill-rule="nonzero" font-family="Helvetica" font-size="13" font-weight="normal">
                    <tspan x="2952" y="1933">Template v.2.0</tspan>
                </text>
                <text id="Requires-Xcode-12-or-greater" fill="#000000" fill-rule="nonzero" font-family="Helvetica" font-size="13" font-weight="normal">
                    <tspan x="2865" y="1951">Requires Xcode 12 or greater</tspan>
                </text>
                <text id="Generated-from-bubble.right.fill" fill="#000000" fill-rule="nonzero" font-family="Helvetica" font-size="13" font-weight="normal">
                    <tspan x="2857" y="1969">Generated from bubble.right.fill</tspan>
                </text>
                <text id="Typeset-at-100-points" fill="#000000" fill-rule="nonzero" font-family="Helvetica" font-size="13" font-weight="normal">
                    <tspan x="2912" y="1987">Typeset at 100 points</tspan>
                </text>
                <text id="Small" fill="#000000" fill-rule="nonzero" font-family="Helvetica" font-size="13" font-weight="normal">
                    <tspan x="263" y="726">Small</tspan>
                </text>
                <text id="Medium" fill="#000000" fill-rule="nonzero" font-family="Helvetica" font-size="13" font-weight="normal">
                    <tspan x="263" y="1156">Medium</tspan>
                </text>
                <text id="Large" fill="#000000" fill-rule="nonzero" font-family="Helvetica" font-size="13" font-weight="normal">
                    <tspan x="263" y="1586">Large</tspan>
                </text>
            </g>
            <g id="Guides" transform="translate(263.000000, 625.041000)">
                <g id="H-reference" transform="translate(76.976562, 0.500000)" fill="#27AAE1" fill-rule="nonzero">
                    <path d="M-1.22124533e-15,70.459 L2.685548,70.459 L12.011738,45.9961 L44.775438,45.9961 L54.150438,70.459 L56.787138,70.459 L29.638638,0 L27.148438,0 L-1.22124533e-15,70.459 Z M28.369138,3.3203 L28.466838,3.3203 L43.896438,43.75 L12.890638,43.75 L28.369138,3.3203 Z" id="Shape"></path>
                </g>
                <line x1="0" y1="70.959" x2="2773" y2="70.959" id="Baseline-S" stroke="#27AAE1" stroke-width="0.5"></line>
                <line x1="0" y1="0.5" x2="2773" y2="0.5" id="Capline-S" stroke="#27AAE1" stroke-width="0.5"></line>
                <g id="H-reference" transform="translate(76.976562, 430.500000)" fill="#27AAE1" fill-rule="nonzero">
                    <path d="M-1.22124533e-15,70.459 L2.685548,70.459 L12.011738,45.9961 L44.775438,45.9961 L54.150438,70.459 L56.787138,70.459 L29.638638,0 L27.148438,0 L-1.22124533e-15,70.459 Z M28.369138,3.3203 L28.466838,3.3203 L43.896438,43.75 L12.890638,43.75 L28.369138,3.3203 Z" id="Shape"></path>
                </g>
                <line x1="0" y1="500.959" x2="2773" y2="500.959" id="Baseline-M" stroke="#27AAE1" stroke-width="0.5"></line>
                <line x1="0" y1="430.499" x2="2773" y2="430.499" id="Capline-M" stroke="#27AAE1" stroke-width="0.5"></line>
                <g id="H-reference" transform="translate(76.976562, 860.500000)" fill="#27AAE1" fill-rule="nonzero">
                    <path d="M-1.22124533e-15,70.459 L2.685548,70.459 L12.011738,45.9961 L44.775438,45.9961 L54.150438,70.459 L56.787138,70.459 L29.638638,0 L27.148438,0 L-1.22124533e-15,70.459 Z M28.369138,3.3203 L28.466838,3.3203 L43.896438,43.75 L12.890638,43.75 L28.369138,3.3203 Z" id="Shape"></path>
                </g>
                <line x1="0" y1="930.959" x2="2773" y2="930.959" id="Baseline-L" stroke="#27AAE1" stroke-width="0.5"></line>
                <line x1="0" y1="860.499" x2="2773" y2="860.499" id="Capline-L" stroke="#27AAE1" stroke-width="0.5"></line>
                <line x1="1122.68" y1="405.749" x2="1122.68" y2="525.079" id="left-margin" stroke="#00AEEF" stroke-width="0.5"></line>
                <line x1="1251" y1="405.749" x2="1251" y2="525.079" id="right-margin" stroke="#00AEEF" stroke-width="0.5"></line>
            </g>
            <g id="Symbols" transform="translate(1383.194500, 624.320300)" fill="#000000" fill-rule="nonzero">
                <g id="Semibold-L" transform="translate(592.270000, 837.148500)">
                    <path d="M110.6445,-6.82121026e-13 C125.9275,-6.82121026e-13 135.5955,9.082 135.5955,24.4628 L135.5955,24.4628 L135.5955,79.7851 C135.5955,94.970653 126.1715,104.39448 111.2305,104.39448 L111.2305,104.39448 L104.7365,104.39448 L104.7365,122.6074 C104.7365,126.5624 102.5875,129.1015 98.9745,129.1015 C96.4845,129.1015 94.5805,127.9296 91.6015,125.2441 L91.6015,125.2441 L68.2617,104.39448 L24.9511,104.39448 C9.2285,104.39448 0,95.068309 0,79.7851 L0,79.7851 L0,24.4628 C0,9.1308 9.2285,-6.82121026e-13 24.9511,-6.82121026e-13 L24.9511,-6.82121026e-13 Z M67.8703588,24.8121996 C59.1512746,24.8121996 53.2448248,31.3616078 53.2448248,41.125402 L53.2448248,41.125402 L53.2448248,47.2729914 C50.150927,47.5944136 48.6240566,49.4829538 48.6240566,53.2197125 L48.6240566,53.2197125 L48.6240566,74.1536257 C48.6240566,78.3725835 50.5125867,80.2610579 54.3698785,80.2610579 L54.3698785,80.2610579 L81.4512353,80.2610579 C85.2683702,80.2610579 87.156818,78.3725835 87.156818,74.1536257 L87.156818,74.1536257 L87.156818,53.2197125 C87.156818,49.4829538 85.6299476,47.5944136 82.5762891,47.2729914 L82.5762891,47.2729914 L82.5762891,41.125402 C82.5762891,31.3616078 76.6296,24.8121996 67.8703588,24.8121996 Z M67.8703588,30.9196318 C72.9330183,30.9196318 76.3081796,34.7769444 76.3081796,40.683426 L76.3081796,40.683426 L76.3081796,47.1524375 L59.472695,47.1524375 L59.472695,40.683426 C59.472695,34.8171016 62.8478563,30.9196318 67.8703588,30.9196318 Z" id="Combined-Shape"></path>
                </g>
                <g id="Regular-L" transform="translate(0.000000, 837.832000)">
                    <path d="M109.2775,2.13162821e-13 C123.6325,2.13162821e-13 133.3005,8.9356 133.3005,23.7793 L133.3005,23.7793 L133.3005,78.5645 C133.3005,93.408247 123.6325,103.12504 109.2775,103.12504 L109.2775,103.12504 L102.7835,103.12504 L102.7835,121.4356 C102.7835,124.8536 100.9275,127.0997 97.8515,127.0997 C95.6545,127.0997 94.0915,125.9766 91.5525,123.6817 L91.5525,123.6817 L68.75,103.12504 L24.0234,103.12504 C9.1308,103.12504 1.70530257e-13,93.359419 1.70530257e-13,78.5645 L1.70530257e-13,78.5645 L1.70530257e-13,23.7793 C1.70530257e-13,8.9844 9.1308,2.13162821e-13 24.0234,2.13162821e-13 L24.0234,2.13162821e-13 Z M66.6407455,23.4954883 C58.1770201,23.4954883 52.4281363,29.8432205 52.4281363,39.3050503 L52.4281363,39.3050503 L52.4281363,45.8923473 C49.1544481,46.0521117 47.5175632,47.8885029 47.5175632,51.7611134 L47.5175632,51.7611134 L47.5175632,73.000212 C47.5175632,77.0324888 49.3141303,78.8689536 53.0269647,78.8689536 L53.0269647,78.8689536 L80.2545262,78.8689536 C83.9673606,78.8689536 85.7639277,77.0324888 85.7639277,73.000212 L85.7639277,73.000212 L85.7639277,51.7611134 C85.7639277,47.8885029 84.1270428,46.0521117 80.8533546,45.8923473 L80.8533546,45.8923473 L80.8533546,39.3050503 C80.8533546,29.8432205 75.1043891,23.4954883 66.6407455,23.4954883 Z M66.6407455,28.2862126 C72.1900471,28.2862126 75.9427816,32.5180886 75.9427816,38.8260024 L75.9427816,38.8260024 L75.9427816,45.8524471 L57.3786094,45.8524471 L57.3786094,38.8260024 C57.3786094,32.5180886 61.0914439,28.2862126 66.6407455,28.2862126 Z" id="Combined-Shape"></path>
                </g>
                <g id="Semibold-M" transform="translate(607.146700, 420.136700)">
                    <path d="M86.1328,-1.98951966e-13 C98.3398,-1.98951966e-13 105.8598,7.0801 105.8598,19.2871 L105.8598,19.2871 L105.8598,62.3047 C105.8598,74.21878 98.5348,81.4941719 86.7676,81.4941719 L86.7676,81.4941719 L81.5429,81.4941719 L81.5429,95.6055 C81.5429,98.9746 79.7363,101.1231 76.6601,101.1231 C74.5117,101.1231 72.8515,100.1953 70.3125,97.8516 L70.3125,97.8516 L52.0508,81.4941719 L19.7265,81.4941719 C7.1777,81.4941719 1.70530257e-13,74.36527 1.70530257e-13,62.3047 L1.70530257e-13,62.3047 L1.70530257e-13,19.2871 C1.70530257e-13,7.1289 7.1777,-1.98951966e-13 19.7265,-1.98951966e-13 L19.7265,-1.98951966e-13 Z M53.5139194,18.9584494 C46.6411991,18.9584494 41.9789668,24.1407185 41.9789668,31.8939242 L41.9789668,31.8939242 L41.9789668,36.3931661 C39.7283105,36.7146052 38.5626907,38.200942 38.5626907,41.0130197 L38.5626907,41.0130197 L38.5626907,57.0416975 C38.5626907,60.3358103 40.0498211,61.8221472 43.0641678,61.8221472 L43.0641678,61.8221472 L64.0038393,61.8221472 C67.018186,61.8221472 68.4651481,60.3358103 68.4651481,57.0416975 L68.4651481,57.0416975 L68.4651481,41.0130197 C68.4651481,38.200942 67.3397788,36.7146052 65.1292085,36.3931661 L65.1292085,36.3931661 L65.1292085,31.8939242 C65.1292085,24.1407185 60.426808,18.9584494 53.5139194,18.9584494 Z M53.5139194,24.2611656 C57.2115378,24.2611656 59.6631998,27.1133922 59.6631998,31.4921871 L59.6631998,31.4921871 L59.6631998,36.272719 L47.4048073,36.272719 L47.4048073,31.4921871 C47.4048073,27.1536235 49.8163011,24.2611656 53.5139194,24.2611656 Z" id="Combined-Shape"></path>
                </g>
                <g id="Regular-M" transform="translate(14.936700, 420.673800)">
                    <path d="M84.5215,0 C95.8008,0 103.4178,6.9336 103.4178,18.7012 L103.4178,18.7012 L103.4178,61.0352 C103.4178,72.75395 95.8008,80.468791 84.5215,80.468791 L84.5215,80.468791 L79.0527,80.468791 L79.0527,94.6778 C79.0527,97.7051 77.4414,99.7071 74.707,99.7071 C72.7539,99.7071 71.3867,98.7305 69.0918,96.5821 L69.0918,96.5821 L51.416,80.468791 L18.8965,80.468791 C7.1289,80.468791 -1.84741111e-13,72.70512 -1.84741111e-13,61.0352 L-1.84741111e-13,61.0352 L-1.84741111e-13,18.7012 C-1.84741111e-13,6.9825 7.1289,0 18.8965,0 L18.8965,0 Z M51.7237502,18.0663678 C44.9708564,18.0663678 40.3885268,23.1712093 40.3885268,30.8085086 L40.3885268,30.8085086 L40.3885268,35.7124033 C37.9767614,35.8731772 36.7708375,37.2800525 36.7708375,40.2144041 L36.7708375,40.2144041 L36.7708375,56.7349393 C36.7708375,59.8300648 38.1375348,61.2369401 40.9914476,61.2369401 L40.9914476,61.2369401 L62.4560529,61.2369401 C65.3099657,61.2369401 66.676663,59.8300648 66.676663,56.7349393 L66.676663,56.7349393 L66.676663,40.2144041 C66.676663,37.2800525 65.4707391,35.8731772 63.0589737,35.7124033 L63.0589737,35.7124033 L63.0589737,30.8085086 C63.0589737,23.1712093 58.4766441,18.0663678 51.7237502,18.0663678 Z M51.7237502,22.2467384 C55.9041052,22.2467384 58.7178453,25.5026379 58.7178453,30.3261867 L58.7178453,30.3261867 L58.7178453,35.6722303 L44.7296552,35.6722303 L44.7296552,30.3261867 C44.7296552,25.5026379 47.5433952,22.2467384 51.7237502,22.2467384 Z" id="Combined-Shape"></path>
                </g>
                <g id="Semibold-S" transform="translate(618.591120, -0.000000)">
                    <path d="M67.38278,0 C76.95318,0 82.95898,5.5664 82.95898,15.2344 L82.95898,15.2344 L82.95898,48.8281 C82.95898,58.3008 77.14848,64.11134 67.82228,64.11134 L67.82228,64.11134 L63.52538,64.11134 L63.52538,75.19532 C63.52538,78.02736 62.01168,79.834 59.42388,79.834 C57.61718,79.834 56.24998,79.00392 54.05278,77.05079 L54.05278,77.05079 L39.79488,64.11134 L15.57618,64.11134 C5.66408,64.11134 2.27373675e-13,58.4473 2.27373675e-13,48.8281 L2.27373675e-13,48.8281 L2.27373675e-13,15.2344 C2.27373675e-13,5.5664 5.66408,0 15.57618,0 L15.57618,0 Z M41.0696381,14.9900641 C35.6230574,14.9900641 31.9385816,19.1550896 31.9385816,25.3226179 L31.9385816,25.3226179 L31.9385816,28.7266676 C30.2565275,28.9669844 29.3754751,30.1283786 29.3754751,32.2910653 L29.3754751,32.2910653 L29.3754751,44.7861416 C29.3754751,47.3092214 30.4968444,48.4706156 32.8596595,48.4706156 L32.8596595,48.4706156 L49.3596677,48.4706156 C51.6824573,48.4706156 52.8038266,47.3092214 52.8038266,44.7861416 L52.8038266,44.7861416 L52.8038266,32.2910653 C52.8038266,30.1283786 51.9227742,28.9669844 50.2407202,28.7266676 L50.2407202,28.7266676 L50.2407202,25.3226179 C50.2407202,19.1550896 46.5562444,14.9900641 41.0696381,14.9900641 Z M41.0696381,19.3553809 C43.8730615,19.3553809 45.7553248,21.5980364 45.7553248,24.9621428 L45.7553248,24.9621428 L45.7553248,28.6065913 L36.4239769,28.6065913 L36.4239769,24.9621428 C36.4239769,21.5980364 38.2662148,19.3553809 41.0696381,19.3553809 Z" id="Combined-Shape"></path>
                </g>
                <g id="Regular-S" transform="translate(26.101120, 0.341800)">
                    <path d="M66.11328,1.13686838e-13 C74.99998,1.13686838e-13 81.10348,5.4688 81.10348,14.7949 L81.10348,14.7949 L81.10348,47.9004 C81.10348,57.2266 74.99998,63.42774 66.11328,63.42774 L66.11328,63.42774 L61.47458,63.42774 L61.47458,74.60938 C61.47458,77.2461 60.10738,79.00392 57.66598,79.00392 C55.95708,79.00392 54.78518,78.12501 52.68558,76.22071 L52.68558,76.22071 L38.86718,63.42774 L15.03908,63.42774 C5.66408,63.42774 0,57.2266 0,47.9004 L0,47.9004 L0,14.7949 C0,5.4688 5.66408,1.13686838e-13 15.03908,1.13686838e-13 L15.03908,1.13686838e-13 Z M41.0392856,14.7681971 C35.6460736,14.7681971 31.9835856,18.9162776 31.9835856,25.1182324 L31.9835856,25.1182324 L31.9835856,28.7428232 C30.1724126,28.9039033 29.2869796,30.0315465 29.2869796,32.2465009 L29.2869796,32.2465009 L29.2869796,45.1337333 C29.2869796,47.5098502 30.333393,48.6374934 32.547058,48.6374934 L32.547058,48.6374934 L49.5718201,48.6374934 C51.7854027,48.6374934 52.8318161,47.5098502 52.8318161,45.1337333 L52.8318161,45.1337333 L52.8318161,32.2465009 C52.8318161,30.0315465 51.946383,28.9039033 50.1352925,28.7428232 L50.1352925,28.7428232 L50.1352925,25.1182324 C50.1352925,18.9162776 46.4727221,14.7681971 41.0392856,14.7681971 Z M41.0392856,18.3927054 C44.2188326,18.3927054 46.3519662,20.9299025 46.3519662,24.6349921 L46.3519662,24.6349921 L46.3519662,28.7024913 L35.7668294,28.7024913 L35.7668294,24.6349921 C35.7668294,20.9299025 37.8999631,18.3927054 41.0392856,18.3927054 Z" id="Combined-Shape"></path>
                </g>
            </g>
        </g>
    </g>
</svg>