<svg fill="none" viewBox="0 0 32 32" xmlns="http://www.w3.org/2000/svg"><path d="M23.025 12.49H9.005V26.48H23.025V12.49Z" fill="url(#as)"/><path d="m28.965 29.47h-25.94v-2.37c0-0.35 0.27999-0.63 0.62999-0.63h24.69c0.35 0 0.63 0.28 0.63 0.63v2.37h-0.01z" fill="#B9B4C3"/><path d="m28.965 29.47h-25.94v-2.37c0-0.35 0.27999-0.63 0.62999-0.63h24.69c0.35 0 0.63 0.28 0.63 0.63v2.37h-0.01z" fill="url(#ah)"/><path d="m28.965 29.47h-25.94v-2.37c0-0.35 0.27999-0.63 0.62999-0.63h24.69c0.35 0 0.63 0.28 0.63 0.63v2.37h-0.01z" fill="url(#w)"/><path d="m28.965 29.47h-25.94v-2.37c0-0.35 0.27999-0.63 0.62999-0.63h24.69c0.35 0 0.63 0.28 0.63 0.63v2.37h-0.01z" fill="url(#l)"/><path d="m4.045 10.49h23.95v1.37c0 0.35-0.28 0.63-0.63 0.63h-22.7c-0.35 0-0.63001-0.28-0.63001-0.63v-1.37h0.01z" fill="#B8B1C0"/><path d="m4.045 10.49h23.95v1.37c0 0.35-0.28 0.63-0.63 0.63h-22.7c-0.35 0-0.63001-0.28-0.63001-0.63v-1.37h0.01z" fill="url(#f)"/><path d="m4.045 10.49h23.95v1.37c0 0.35-0.28 0.63-0.63 0.63h-22.7c-0.35 0-0.63001-0.28-0.63001-0.63v-1.37h0.01z" fill="url(#e)"/><path d="m4.045 10.49h23.95v1.37c0 0.35-0.28 0.63-0.63 0.63h-22.7c-0.35 0-0.63001-0.28-0.63001-0.63v-1.37h0.01z" fill="url(#d)"/><path d="m8.995 13.46h-2.99v12.1h2.99v-12.1z" fill="url(#c)"/><path d="m8.995 13.46h-2.99v12.1h2.99v-12.1z" fill="url(#b)"/><path d="m14.655 13.46h-2.99v12.1h2.99v-12.1z" fill="url(#a)"/><path d="m14.655 13.46h-2.99v12.1h2.99v-12.1z" fill="url(#ar)"/><path d="m20.315 13.46h-2.99v12.1h2.99v-12.1z" fill="url(#aq)"/><path d="m20.315 13.46h-2.99v12.1h2.99v-12.1z" fill="url(#ap)"/><path d="m25.975 13.46h-2.99v12.1h2.99v-12.1z" fill="url(#ao)"/><path d="m25.975 13.46h-2.99v12.1h2.99v-12.1z" fill="url(#an)"/><path d="m15.326 3.0101-11.96 6.74c-0.36 0.2-0.22001 0.76002 0.19999 0.76002h24.88c0.42 0 0.56-0.55002 0.2-0.76002l-11.96-6.74c-0.42-0.24-0.94-0.24-1.36 0z" fill="url(#am)"/><path d="m15.326 3.0101-11.96 6.74c-0.36 0.2-0.22001 0.76002 0.19999 0.76002h24.88c0.42 0 0.56-0.55002 0.2-0.76002l-11.96-6.74c-0.42-0.24-0.94-0.24-1.36 0z" fill="url(#al)"/><path d="m15.326 3.0101-11.96 6.74c-0.36 0.2-0.22001 0.76002 0.19999 0.76002h24.88c0.42 0 0.56-0.55002 0.2-0.76002l-11.96-6.74c-0.42-0.24-0.94-0.24-1.36 0z" fill="url(#ak)"/><path d="m15.326 3.0101-11.96 6.74c-0.36 0.2-0.22001 0.76002 0.19999 0.76002h24.88c0.42 0 0.56-0.55002 0.2-0.76002l-11.96-6.74c-0.42-0.24-0.94-0.24-1.36 0z" fill="url(#aj)"/><path d="m10.005 12.49h-4.99v0.19c0 0.45 0.36 0.81 0.81 0.81h3.37c0.45 0 0.80998-0.36 0.80998-0.81v-0.19z" fill="url(#ai)"/><path d="m10.005 12.49h-4.99v0.19c0 0.45 0.36 0.81 0.81 0.81h3.37c0.45 0 0.80998-0.36 0.80998-0.81v-0.19z" fill="url(#ag)"/><path d="m10.005 12.49h-4.99v0.19c0 0.45 0.36 0.81 0.81 0.81h3.37c0.45 0 0.80998-0.36 0.80998-0.81v-0.19z" fill="url(#af)"/><path d="m15.655 12.49h-4.99v0.19c0 0.45 0.36 0.81 0.81 0.81h3.37c0.45 0 0.81-0.36 0.81-0.81v-0.19z" fill="url(#ae)"/><path d="m15.655 12.49h-4.99v0.19c0 0.45 0.36 0.81 0.81 0.81h3.37c0.45 0 0.81-0.36 0.81-0.81v-0.19z" fill="url(#ad)"/><path d="m15.655 12.49h-4.99v0.19c0 0.45 0.36 0.81 0.81 0.81h3.37c0.45 0 0.81-0.36 0.81-0.81v-0.19z" fill="url(#ac)"/><path d="m21.325 12.49h-4.99v0.19c0 0.45 0.36 0.81 0.81 0.81h3.37c0.45 0 0.81-0.36 0.81-0.81v-0.19z" fill="url(#ab)"/><path d="m21.325 12.49h-4.99v0.19c0 0.45 0.36 0.81 0.81 0.81h3.37c0.45 0 0.81-0.36 0.81-0.81v-0.19z" fill="url(#aa)"/><path d="m21.325 12.49h-4.99v0.19c0 0.45 0.36 0.81 0.81 0.81h3.37c0.45 0 0.81-0.36 0.81-0.81v-0.19z" fill="url(#z)"/><path d="m26.985 12.49h-4.99v0.19c0 0.45 0.36 0.81 0.81 0.81h3.37c0.45 0 0.81-0.36 0.81-0.81v-0.19z" fill="url(#y)"/><path d="m26.985 12.49h-4.99v0.19c0 0.45 0.36 0.81 0.81 0.81h3.37c0.45 0 0.81-0.36 0.81-0.81v-0.19z" fill="url(#x)"/><path d="m26.985 12.49h-4.99v0.19c0 0.45 0.36 0.81 0.81 0.81h3.37c0.45 0 0.81-0.36 0.81-0.81v-0.19z" fill="url(#v)"/><path d="m21.985 26.48h4.99v-0.19c0-0.45-0.36-0.81-0.81-0.81h-3.37c-0.45 0-0.81 0.36-0.81 0.81v0.19z" fill="url(#u)"/><path d="m21.985 26.48h4.99v-0.19c0-0.45-0.36-0.81-0.81-0.81h-3.37c-0.45 0-0.81 0.36-0.81 0.81v0.19z" fill="url(#t)"/><path d="m21.985 26.48h4.99v-0.19c0-0.45-0.36-0.81-0.81-0.81h-3.37c-0.45 0-0.81 0.36-0.81 0.81v0.19z" fill="url(#s)"/><path d="m16.335 26.48h4.99v-0.19c0-0.45-0.36-0.81-0.81-0.81h-3.37c-0.45 0-0.81 0.36-0.81 0.81v0.19z" fill="url(#r)"/><path d="m16.335 26.48h4.99v-0.19c0-0.45-0.36-0.81-0.81-0.81h-3.37c-0.45 0-0.81 0.36-0.81 0.81v0.19z" fill="url(#q)"/><path d="m16.335 26.48h4.99v-0.19c0-0.45-0.36-0.81-0.81-0.81h-3.37c-0.45 0-0.81 0.36-0.81 0.81v0.19z" fill="url(#p)"/><path d="m10.665 26.48h4.99v-0.19c0-0.45-0.36-0.81-0.81-0.81h-3.37c-0.45 0-0.81 0.36-0.81 0.81v0.19z" fill="url(#o)"/><path d="m10.665 26.48h4.99v-0.19c0-0.45-0.36-0.81-0.81-0.81h-3.37c-0.45 0-0.81 0.36-0.81 0.81v0.19z" fill="url(#n)"/><path d="m10.665 26.48h4.99v-0.19c0-0.45-0.36-0.81-0.81-0.81h-3.37c-0.45 0-0.81 0.36-0.81 0.81v0.19z" fill="url(#m)"/><path d="m5.005 26.48h4.99v-0.19c0-0.45-0.36001-0.81-0.81001-0.81h-3.37c-0.45 0-0.81 0.36-0.81 0.81v0.19z" fill="url(#k)"/><path d="m5.005 26.48h4.99v-0.19c0-0.45-0.36001-0.81-0.81001-0.81h-3.37c-0.45 0-0.81 0.36-0.81 0.81v0.19z" fill="url(#j)"/><path d="m5.005 26.48h4.99v-0.19c0-0.45-0.36001-0.81-0.81001-0.81h-3.37c-0.45 0-0.81 0.36-0.81 0.81v0.19z" fill="url(#i)"/><g filter="url(#av)"><path d="m28.775 9.67-12.52-7.11c-0.08-0.04-0.16-0.06-0.25-0.06-0.08 0-0.17 0.02-0.25 0.06l-12.52 7.11c-0.22 0.13-0.3 0.4-0.17 0.62 0.09 0.14 0.24 0.22 0.4 0.22 0.08 0 0.16-0.02 0.24-0.06l12.07-6.85c0.14-0.08 0.32-0.08 0.46 0l12.07 6.85c0.07 0.04 0.1599 0.06 0.2399 0.06 0.16 0 0.3201-0.08 0.4001-0.22 0.13-0.22 0.06-0.5-0.17-0.62z" fill="url(#h)"/></g><g filter="url(#au)"><path d="m16.103 2.8301 12.626 7.1544" stroke="#DAD0DF" stroke-linecap="round" stroke-width=".3"/></g><g filter="url(#at)"><path d="m3.6824 10 11.875-6.75" stroke="url(#g)" stroke-linecap="round" stroke-width=".3"/></g><defs><filter id="av" x="3.0024" y="2.4" width="26.207" height="8.11" color-interpolation-filters="sRGB" filterUnits="userSpaceOnUse"><feFlood flood-opacity="0" result="BackgroundImageFix"/><feBlend in="SourceGraphic" in2="BackgroundImageFix" result="shape"/><feColorMatrix in="SourceAlpha" result="hardAlpha" values="0 0 0 0 0 0 0 0 0 0 0 0 0 0 0 0 0 0 127 0"/><feOffset dx="0.2" dy="-0.1"/><feGaussianBlur stdDeviation="0.15"/><feComposite in2="hardAlpha" k2="-1" k3="1" operator="arithmetic"/><feColorMatrix values="0 0 0 0 0.498039 0 0 0 0 0.462745 0 0 0 0 0.54902 0 0 0 1 0"/><feBlend in2="shape" result="effect1_innerShadow_18_5526"/></filter><filter id="au" x="15.653" y="2.3799" width="13.526" height="8.0546" color-interpolation-filters="sRGB" filterUnits="userSpaceOnUse"><feFlood flood-opacity="0" result="BackgroundImageFix"/><feBlend in="SourceGraphic" in2="BackgroundImageFix" result="shape"/><feGaussianBlur result="effect1_foregroundBlur_18_5526" stdDeviation="0.15"/></filter><filter id="at" x="3.2324" y="2.7998" width="12.775" height="7.6503" color-interpolation-filters="sRGB" filterUnits="userSpaceOnUse"><feFlood flood-opacity="0" result="BackgroundImageFix"/><feBlend in="SourceGraphic" in2="BackgroundImageFix" result="shape"/><feGaussianBlur result="effect1_foregroundBlur_18_5526" stdDeviation="0.15"/></filter><linearGradient id="as" x1="16.503" x2="16.503" y1="11.686" y2="26.48" gradientUnits="userSpaceOnUse"><stop stop-color="#35303B" offset="0"/><stop stop-color="#65527A" offset="1"/></linearGradient><linearGradient id="ah" x1="29.297" x2="28.197" y1="28.404" y2="28.404" gradientUnits="userSpaceOnUse"><stop stop-color="#FCF2FF" offset="0"/><stop stop-color="#FCF2FF" stop-opacity="0" offset="1"/></linearGradient><linearGradient id="w" x1="16" x2="16" y1="26.47" y2="27.241" gradientUnits="userSpaceOnUse"><stop stop-color="#CCC4D0" offset="0"/><stop stop-color="#CCC4D0" stop-opacity="0" offset="1"/></linearGradient><linearGradient id="l" x1="2.9299" x2="3.8565" y1="29.47" y2="29.47" gradientUnits="userSpaceOnUse"><stop stop-color="#7A7680" offset="0"/><stop stop-color="#7A7680" stop-opacity="0" offset="1"/></linearGradient><linearGradient id="f" x1="27.995" x2="27.358" y1="12.49" y2="12.49" gradientUnits="userSpaceOnUse"><stop stop-color="#E8DFEF" offset="0"/><stop stop-color="#E8DFEF" stop-opacity="0" offset="1"/></linearGradient><linearGradient id="e" x1="16.015" x2="16.015" y1="12.733" y2="11.898" gradientUnits="userSpaceOnUse"><stop stop-color="#726483" offset="0"/><stop stop-color="#726483" stop-opacity="0" offset="1"/></linearGradient><linearGradient id="d" x1="3.8855" x2="4.7605" y1="12.49" y2="12.49" gradientUnits="userSpaceOnUse"><stop stop-color="#706D76" offset="0"/><stop stop-color="#706D76" stop-opacity="0" offset="1"/></linearGradient><linearGradient id="c" x1="6.006" x2="9.4323" y1="19.511" y2="19.511" gradientUnits="userSpaceOnUse"><stop stop-color="#817C86" offset="0"/><stop stop-color="#CFC7D7" offset=".57292"/><stop stop-color="#CFC7D7" offset=".67166"/><stop stop-color="#9A94A1" offset="1"/></linearGradient><linearGradient id="b" x1="7.5" x2="7.5" y1="13.219" y2="13.891" gradientUnits="userSpaceOnUse"><stop stop-color="#71677D" offset="0"/><stop stop-color="#71677D" stop-opacity="0" offset="1"/></linearGradient><linearGradient id="a" x1="11.666" x2="15.092" y1="19.511" y2="19.511" gradientUnits="userSpaceOnUse"><stop stop-color="#7B7681" offset="0"/><stop stop-color="#BFB9C8" offset=".57292"/><stop stop-color="#BFB9C8" offset=".67166"/><stop stop-color="#B2ABB8" offset="1"/></linearGradient><linearGradient id="ar" x1="13.16" x2="13.16" y1="13.219" y2="13.891" gradientUnits="userSpaceOnUse"><stop stop-color="#71677D" offset="0"/><stop stop-color="#71677D" stop-opacity="0" offset="1"/></linearGradient><linearGradient id="aq" x1="17.326" x2="20.752" y1="19.511" y2="19.511" gradientUnits="userSpaceOnUse"><stop stop-color="#6E6A73" offset="0"/><stop stop-color="#CBC3D3" offset=".57292"/><stop stop-color="#CBC3D3" offset=".67166"/><stop stop-color="#BFB9C5" offset="1"/></linearGradient><linearGradient id="ap" x1="18.82" x2="18.82" y1="13.219" y2="13.891" gradientUnits="userSpaceOnUse"><stop stop-color="#71677D" offset="0"/><stop stop-color="#71677D" stop-opacity="0" offset="1"/></linearGradient><linearGradient id="ao" x1="22.986" x2="26.412" y1="19.511" y2="19.511" gradientUnits="userSpaceOnUse"><stop stop-color="#615E6A" offset="0"/><stop stop-color="#DAD2E2" offset=".57292"/><stop stop-color="#DCD4E4" offset=".67166"/><stop stop-color="#D5CDDC" offset="1"/></linearGradient><linearGradient id="an" x1="24.48" x2="24.48" y1="13.219" y2="13.891" gradientUnits="userSpaceOnUse"><stop stop-color="#71677D" offset="0"/><stop stop-color="#71677D" stop-opacity="0" offset="1"/></linearGradient><linearGradient id="am" x1="19.871" x2="16.006" y1="4.385" y2="11.072" gradientUnits="userSpaceOnUse"><stop stop-color="#B3ACBB" offset="0"/><stop stop-color="#ACA5B2" offset="1"/></linearGradient><linearGradient id="al" x1="20.449" x2="20.09" y1="5.8537" y2="6.4788" gradientUnits="userSpaceOnUse"><stop stop-color="#645A6F" offset="0"/><stop stop-color="#645A6F" stop-opacity="0" offset="1"/></linearGradient><linearGradient id="ak" x1="16.006" x2="16.006" y1="11.063" y2="10.362" gradientUnits="userSpaceOnUse"><stop stop-color="#878190" offset="0"/><stop stop-color="#878190" stop-opacity="0" offset="1"/></linearGradient><linearGradient id="aj" x1="11.87" x2="12.073" y1="5.5313" y2="5.8907" gradientUnits="userSpaceOnUse"><stop stop-color="#857F8E" offset=".34473"/><stop stop-color="#857F8E" stop-opacity="0" offset="1"/></linearGradient><radialGradient id="ai" cx="0" cy="0" r="1" gradientTransform="translate(8.7966 12.993) rotate(180) scale(3.2452 .937)" gradientUnits="userSpaceOnUse"><stop stop-color="#91899D" offset="0"/><stop stop-color="#6D6976" offset="1"/></radialGradient><linearGradient id="ag" x1="7.51" x2="7.51" y1="12.18" y2="12.76" gradientUnits="userSpaceOnUse"><stop stop-color="#564F5E" offset="0"/><stop stop-color="#564F5E" stop-opacity="0" offset="1"/></linearGradient><linearGradient id="af" x1="7.51" x2="7.51" y1="13.771" y2="13.298" gradientUnits="userSpaceOnUse"><stop stop-color="#564F5E" offset="0"/><stop stop-color="#564F5E" stop-opacity="0" offset="1"/></linearGradient><radialGradient id="ae" cx="0" cy="0" r="1" gradientTransform="translate(14.447 12.993) rotate(180) scale(3.2452 .937)" gradientUnits="userSpaceOnUse"><stop stop-color="#91899D" offset="0"/><stop stop-color="#6D6976" offset="1"/></radialGradient><linearGradient id="ad" x1="13.16" x2="13.16" y1="12.18" y2="12.76" gradientUnits="userSpaceOnUse"><stop stop-color="#564F5E" offset="0"/><stop stop-color="#564F5E" stop-opacity="0" offset="1"/></linearGradient><linearGradient id="ac" x1="13.16" x2="13.16" y1="13.771" y2="13.298" gradientUnits="userSpaceOnUse"><stop stop-color="#564F5E" offset="0"/><stop stop-color="#564F5E" stop-opacity="0" offset="1"/></linearGradient><radialGradient id="ab" cx="0" cy="0" r="1" gradientTransform="translate(20.117 12.993) rotate(180) scale(3.2452 .937)" gradientUnits="userSpaceOnUse"><stop stop-color="#91899D" offset="0"/><stop stop-color="#6D6976" offset="1"/></radialGradient><linearGradient id="aa" x1="18.83" x2="18.83" y1="12.18" y2="12.76" gradientUnits="userSpaceOnUse"><stop stop-color="#564F5E" offset="0"/><stop stop-color="#564F5E" stop-opacity="0" offset="1"/></linearGradient><linearGradient id="z" x1="18.83" x2="18.83" y1="13.771" y2="13.298" gradientUnits="userSpaceOnUse"><stop stop-color="#564F5E" offset="0"/><stop stop-color="#564F5E" stop-opacity="0" offset="1"/></linearGradient><radialGradient id="y" cx="0" cy="0" r="1" gradientTransform="translate(25.777 12.993) rotate(180) scale(3.2452 .937)" gradientUnits="userSpaceOnUse"><stop stop-color="#91899D" offset="0"/><stop stop-color="#6D6976" offset="1"/></radialGradient><linearGradient id="x" x1="24.49" x2="24.49" y1="12.18" y2="12.76" gradientUnits="userSpaceOnUse"><stop stop-color="#564F5E" offset="0"/><stop stop-color="#564F5E" stop-opacity="0" offset="1"/></linearGradient><linearGradient id="v" x1="24.49" x2="24.49" y1="13.771" y2="13.298" gradientUnits="userSpaceOnUse"><stop stop-color="#564F5E" offset="0"/><stop stop-color="#564F5E" stop-opacity="0" offset="1"/></linearGradient><radialGradient id="u" cx="0" cy="0" r="1" gradientTransform="translate(25.561 25.976) rotate(180) scale(2.5804 .66846)" gradientUnits="userSpaceOnUse"><stop stop-color="#F7EDFD" offset="0"/><stop stop-color="#A29CA7" offset="1"/></radialGradient><linearGradient id="t" x1="22.96" x2="23.819" y1="27.351" y2="25.778" gradientUnits="userSpaceOnUse"><stop stop-color="#656067" offset="0"/><stop stop-color="#656067" stop-opacity="0" offset="1"/></linearGradient><linearGradient id="s" x1="27.631" x2="26.319" y1="26.156" y2="26.48" gradientUnits="userSpaceOnUse"><stop stop-color="#807C87" offset="0"/><stop stop-color="#807C87" stop-opacity="0" offset="1"/></linearGradient><radialGradient id="r" cx="0" cy="0" r="1" gradientTransform="translate(19.911 25.976) rotate(180) scale(2.5804 .66846)" gradientUnits="userSpaceOnUse"><stop stop-color="#E4DAEA" offset="0"/><stop stop-color="#9A949E" offset="1"/></radialGradient><linearGradient id="q" x1="17.311" x2="18.169" y1="27.351" y2="25.778" gradientUnits="userSpaceOnUse"><stop stop-color="#656067" offset="0"/><stop stop-color="#656067" stop-opacity="0" offset="1"/></linearGradient><linearGradient id="p" x1="21.981" x2="20.669" y1="26.156" y2="26.48" gradientUnits="userSpaceOnUse"><stop stop-color="#807C87" offset="0"/><stop stop-color="#807C87" stop-opacity="0" offset="1"/></linearGradient><radialGradient id="o" cx="0" cy="0" r="1" gradientTransform="translate(14.241 25.976) rotate(180) scale(2.5804 .66846)" gradientUnits="userSpaceOnUse"><stop stop-color="#E4DAEA" offset="0"/><stop stop-color="#9A949E" offset="1"/></radialGradient><linearGradient id="n" x1="11.641" x2="12.499" y1="27.351" y2="25.778" gradientUnits="userSpaceOnUse"><stop stop-color="#656067" offset="0"/><stop stop-color="#656067" stop-opacity="0" offset="1"/></linearGradient><linearGradient id="m" x1="16.311" x2="14.999" y1="26.156" y2="26.48" gradientUnits="userSpaceOnUse"><stop stop-color="#807C87" offset="0"/><stop stop-color="#807C87" stop-opacity="0" offset="1"/></linearGradient><radialGradient id="k" cx="0" cy="0" r="1" gradientTransform="translate(8.5813 25.976) rotate(180) scale(2.5804 .66846)" gradientUnits="userSpaceOnUse"><stop stop-color="#E4DAEA" offset="0"/><stop stop-color="#9A949E" offset="1"/></radialGradient><linearGradient id="j" x1="5.9805" x2="6.8388" y1="27.351" y2="25.778" gradientUnits="userSpaceOnUse"><stop stop-color="#656067" offset="0"/><stop stop-color="#656067" stop-opacity="0" offset="1"/></linearGradient><linearGradient id="i" x1="10.651" x2="9.3386" y1="26.156" y2="26.48" gradientUnits="userSpaceOnUse"><stop stop-color="#807C87" offset="0"/><stop stop-color="#807C87" stop-opacity="0" offset="1"/></linearGradient><linearGradient id="h" x1="26.381" x2="4.5514" y1="8.5332" y2="8.5332" gradientUnits="userSpaceOnUse"><stop stop-color="#ADA7B8" offset="0"/><stop stop-color="#9F99A4" offset="1"/></linearGradient><linearGradient id="g" x1="5.3386" x2="19.182" y1="9.1562" y2=".84375" gradientUnits="userSpaceOnUse"><stop stop-color="#B3ADBA" offset="0"/><stop stop-color="#B3ADBA" stop-opacity="0" offset="1"/></linearGradient></defs></svg>
