<?xml version="1.0" encoding="UTF-8"?>
<!-- Generated by Pixelmator Pro 3.6.13 -->
<svg width="262" height="142" viewBox="0 0 262 142" xmlns="http://www.w3.org/2000/svg">
    <clipPath id="clipPath1">
        <path d="M 110.452003 109.956509 L 150.548004 109.956509 C 156.223495 109.956509 159 107.136002 159 100.963531 L 159 73.981079 C 159 68.421799 156.713501 65.560303 152.017899 65.110703 L 152.017899 55.218399 C 152.017899 39.603191 141.483597 31.999996 130.5 31.999996 C 119.516403 31.999996 108.982101 39.603191 108.982101 55.218399 L 108.982101 65.233299 C 104.531502 65.846497 102 68.667099 102 73.981079 L 102 100.963531 C 102 107.136002 104.776497 109.956509 110.452003 109.956509 Z M 118 54.25 C 118 45.124996 123.5868 39.999996 130.5 39.999996 C 137.413193 39.999996 143 45.124996 143 54.25 L 143 64.958298 L 118 65 L 118 54.25 Z"/>
    </clipPath>
    <path id="Path" fill="#ffffff" stroke="none" clip-path="url(#clipPath1)" d="M 101 31 L 160 31 L 160 110.956512 L 101 110.956512 Z"/>
</svg>
