<svg width="411" height="28" viewBox="0 0 411 28" fill="none" xmlns="http://www.w3.org/2000/svg">
<g clip-path="url(#clip0_103_1405)">
<path d="M213.25 27.5C214.217 27.5 215 26.7165 215 25.75C215 24.7835 214.217 24 213.25 24C212.284 24 211.5 24.7835 211.5 25.75C211.5 26.7165 212.284 27.5 213.25 27.5Z" fill="white"/>
<path d="M219.213 27.5C220.18 27.5 220.963 26.7165 220.963 25.75C220.963 24.7835 220.18 24 219.213 24C218.247 24 217.463 24.7835 217.463 25.75C217.463 26.7165 218.247 27.5 219.213 27.5Z" fill="white"/>
<path d="M225.17 27.5C226.137 27.5 226.92 26.7165 226.92 25.75C226.92 24.7835 226.137 24 225.17 24C224.204 24 223.42 24.7835 223.42 25.75C223.42 26.7165 224.204 27.5 225.17 27.5Z" fill="white"/>
<path d="M8.75859 5.39545H0V0.214348H23.8588V5.39545H15.1002V27.6877H8.76469V5.39545H8.75859Z" fill="white"/>
<path d="M52.3685 0.214348V27.6815H46.0331V16.4191H33.594V27.6815H27.2585V0.214348H33.594V11.0481H46.0331V0.214348H52.3685Z" fill="white"/>
<path d="M75.69 27.6877L70.4105 20.0324H64.5816V27.6877H58.2461V0.214348H70.0992C72.5223 0.214348 74.628 0.618547 76.4164 1.43307C78.2047 2.24147 79.578 3.39283 80.5424 4.88714C81.5067 6.38145 81.9889 8.14523 81.9889 10.1846C81.9889 12.224 81.5006 13.9878 80.524 15.4637C79.5475 16.9396 78.1559 18.0726 76.3614 18.8565L82.5016 27.6877H75.6961H75.69ZM74.0909 6.63255C73.1021 5.80577 71.6556 5.39545 69.7513 5.39545H64.5877V14.9676H69.7513C71.6556 14.9676 73.1021 14.5512 74.0909 13.7122C75.0797 12.8731 75.5802 11.6973 75.5802 10.1785C75.5802 8.65967 75.0858 7.45319 74.0909 6.62642V6.63255Z" fill="white"/>
<path d="M108.192 22.5862V27.6877H86.9939V0.214348H107.685V5.31583H93.2928V11.2808H106.006V16.2231H93.2928V22.5801H108.192V22.5862Z" fill="white"/>
<path d="M134.437 22.5862V27.6877H113.239V0.214348H133.93V5.31583H119.538V11.2808H132.252V16.2231H119.538V22.5801H134.437V22.5862Z" fill="white"/>
<path d="M164.393 27.6877L164.356 11.2073L156.3 24.7848H153.443L145.423 11.5626V27.6938H139.478V0.214348H144.721L154.969 17.2826L165.058 0.214348H170.258L170.338 27.6815H164.393V27.6877Z" fill="white"/>
<path d="M194.862 21.8023H182.148L179.725 27.6877H173.231L185.432 0.214348H191.688L203.932 27.6815H197.285L194.862 21.7962V21.8023ZM192.866 16.9764L188.526 6.46107L184.187 16.9764H192.866Z" fill="white"/>
<path d="M219.003 0C225.067 0 230 4.93423 230 11C230 17.0658 225.067 22 219.003 22C216.765 22 214.688 21.3317 212.951 20.1816L208.724 21.5361L210.096 17.4492C208.779 15.6375 208 13.4053 208 11C208 4.93423 212.933 0 218.997 0H219.003ZM219.205 5C217.484 5.00015 216.08 6.4088 216.08 8.13574V9.59961H215.982C215.439 9.59975 215 10.0401 215 10.585V14.542C215 15.0868 215.439 15.5272 215.982 15.5273H222.422C222.965 15.5273 223.404 15.0868 223.404 14.542V10.585C223.404 10.0401 222.965 9.59961 222.422 9.59961H222.33V8.13574C222.33 6.40871 220.926 5 219.205 5ZM219.205 6.28613C220.218 6.28613 221.049 7.11912 221.049 8.13574V9.59961H217.362V8.13574C217.362 7.11309 218.192 6.28628 219.205 6.28613Z" fill="white"/>
</g>
<path d="M242.058 26.171C239.843 24.9496 238.112 23.2801 236.866 21.1565C235.62 19.0329 235 16.6453 235 14C235 11.3547 235.62 8.96712 236.866 6.84349C238.112 4.71986 239.843 3.05042 242.058 1.82902C244.274 0.60763 246.741 1.90735e-06 249.473 1.90735e-06C252.204 1.90735e-06 254.659 0.601492 256.844 1.81061C259.035 3.01973 260.76 4.68917 262.018 6.82508C263.276 8.96098 263.908 11.3547 263.908 14C263.908 16.6453 263.276 19.039 262.018 21.1749C260.76 23.3108 259.035 24.9864 256.844 26.1894C254.653 27.3924 252.198 28 249.473 28C246.747 28 244.274 27.3924 242.058 26.171ZM255.371 23.9307C257.126 22.9487 258.501 21.5861 259.502 19.8431C260.496 18.1 260.999 16.1543 260.999 14C260.999 11.8457 260.502 9.90618 259.502 8.15695C258.507 6.41385 257.126 5.05129 255.371 4.06927C253.616 3.08724 251.645 2.59623 249.473 2.59623C247.3 2.59623 245.324 3.08724 243.556 4.06927C241.788 5.05129 240.395 6.41385 239.388 8.15695C238.382 9.90004 237.872 11.8457 237.872 14C237.872 16.1543 238.376 18.0938 239.388 19.8431C240.401 21.5923 241.788 22.9487 243.556 23.9307C245.324 24.9128 247.3 25.4038 249.473 25.4038C251.645 25.4038 253.616 24.9128 255.371 23.9307Z" fill="white"/>
<path d="M291.866 0.233049V27.7604H289.466L271.771 5.41937V27.7604H268.862V0.233049H271.261L288.999 22.5741V0.233049H291.872H291.866Z" fill="white"/>
<path d="M317.429 2.74949C319.424 4.42507 320.418 6.73283 320.418 9.67277C320.418 12.6127 319.424 14.9082 317.429 16.5776C315.434 18.2409 312.685 19.0757 309.168 19.0757H301.772V27.7666H298.863V0.233049H309.168C312.678 0.233049 315.434 1.07391 317.429 2.74949ZM315.348 14.7241C316.791 13.5334 317.509 11.8455 317.509 9.67277C317.509 7.50004 316.785 5.73239 315.348 4.54169C313.906 3.35098 311.819 2.74949 309.094 2.74949H301.778V16.5163H309.094C311.819 16.5163 313.906 15.9209 315.348 14.7241Z" fill="white"/>
<path d="M344.33 27.7604L338.039 18.9099C337.333 18.9897 336.597 19.0266 335.836 19.0266H328.44V27.7543H325.531V0.233049H335.836C339.346 0.233049 342.102 1.07391 344.097 2.74949C346.092 4.42507 347.086 6.73283 347.086 9.67277C347.086 11.8209 346.54 13.6377 345.453 15.1169C344.367 16.596 342.814 17.6701 340.795 18.3207L347.522 27.7604H344.336H344.33ZM342.01 14.7425C343.452 13.5395 344.171 11.8455 344.171 9.66663C344.171 7.48776 343.446 5.72625 342.01 4.53555C340.568 3.34484 338.481 2.74335 335.756 2.74335H328.44V16.5469H335.756C338.481 16.5469 340.568 15.9455 342.01 14.7363V14.7425Z" fill="white"/>
<path d="M372.257 25.244V27.7604H352.788V0.233049H371.667V2.74949H355.697V12.5452H369.936V15.0248H355.697V25.2501H372.257V25.244Z" fill="white"/>
<path d="M406.511 0.233049V27.7604H403.718V5.73853L392.904 24.262H391.529L380.714 5.85514V27.7604H377.922V0.233049H380.321L392.278 20.6469L404.111 0.233049H406.511Z" fill="white"/>
<defs>
<clipPath id="clip0_103_1405">
<rect width="230" height="28" fill="white"/>
</clipPath>
</defs>
</svg>
