<svg fill="none" viewBox="0 0 32 32" xmlns="http://www.w3.org/2000/svg"><path d="m25.658 3.5-10.797 18.734" stroke="#9F6261" stroke-linecap="round" stroke-width="2.75"/><path d="m25.658 3.5-10.797 18.734" stroke="url(#n)" stroke-linecap="round" stroke-width="2.75"/><path d="m25.658 3.5-10.797 18.734" stroke="url(#i)" stroke-linecap="round" stroke-width="2.75"/><path d="m25.658 3.5-10.797 18.734" stroke="url(#h)" stroke-linecap="round" stroke-width="2.75"/><g filter="url(#p)"><path d="m25.733 3.8961-10.585 18.338" stroke="#96596B" stroke-linecap="round" stroke-width=".75"/></g><g filter="url(#o)"><path d="m9.7037 23.328-5.1402 4.8047c-0.59359 0.6015-0.22722 1.4765 0.49991 1.4765h7.5159c2.4297-0.1172 3.7735-1.1953 4.2692-2.9809l0.5433-2.0894c0.3985-1.9297-0.2403-3.241-1.5859-4.0156-1.4327-0.8247-3.2096-0.5679-4.2858 0.6869l-1.8164 2.1178z" fill="url(#g)"/><path d="m9.7037 23.328-5.1402 4.8047c-0.59359 0.6015-0.22722 1.4765 0.49991 1.4765h7.5159c2.4297-0.1172 3.7735-1.1953 4.2692-2.9809l0.5433-2.0894c0.3985-1.9297-0.2403-3.241-1.5859-4.0156-1.4327-0.8247-3.2096-0.5679-4.2858 0.6869l-1.8164 2.1178z" fill="url(#f)"/><path d="m9.7037 23.328-5.1402 4.8047c-0.59359 0.6015-0.22722 1.4765 0.49991 1.4765h7.5159c2.4297-0.1172 3.7735-1.1953 4.2692-2.9809l0.5433-2.0894c0.3985-1.9297-0.2403-3.241-1.5859-4.0156-1.4327-0.8247-3.2096-0.5679-4.2858 0.6869l-1.8164 2.1178z" fill="url(#e)"/><path d="m9.7037 23.328-5.1402 4.8047c-0.59359 0.6015-0.22722 1.4765 0.49991 1.4765h7.5159c2.4297-0.1172 3.7735-1.1953 4.2692-2.9809l0.5433-2.0894c0.3985-1.9297-0.2403-3.241-1.5859-4.0156-1.4327-0.8247-3.2096-0.5679-4.2858 0.6869l-1.8164 2.1178z" fill="url(#d)"/></g><path d="m11.267 21.547 6.0469 3.2813" stroke="url(#c)" stroke-linecap="round" stroke-width=".6"/><path d="m11.267 21.547 6.0469 3.2813" stroke="url(#b)" stroke-linecap="round" stroke-width=".6"/><path d="m10.243 22.773 6.7109 3.7735" stroke="url(#a)" stroke-linecap="round" stroke-width=".6"/><path d="m10.243 22.773 6.7109 3.7735" stroke="url(#m)" stroke-linecap="round" stroke-width=".6"/><rect transform="rotate(30 14.683 18.682)" x="14.683" y="18.682" width="3.8028" height="1.319" rx=".65947" fill="url(#l)"/><rect transform="rotate(30 14.683 18.682)" x="14.683" y="18.682" width="3.8028" height="1.319" rx=".65947" fill="url(#k)"/><rect transform="rotate(30 14.683 18.682)" x="14.683" y="18.682" width="3.8028" height="1.319" rx=".65947" fill="url(#j)"/><defs><filter id="p" x="14.023" y="2.771" width="12.835" height="20.588" color-interpolation-filters="sRGB" filterUnits="userSpaceOnUse"><feFlood flood-opacity="0" result="BackgroundImageFix"/><feBlend in="SourceGraphic" in2="BackgroundImageFix" result="shape"/><feGaussianBlur result="effect1_foregroundBlur_18_26124" stdDeviation="0.375"/></filter><filter id="o" x="4.2673" y="19.547" width="14.242" height="10.062" color-interpolation-filters="sRGB" filterUnits="userSpaceOnUse"><feFlood flood-opacity="0" result="BackgroundImageFix"/><feBlend in="SourceGraphic" in2="BackgroundImageFix" result="shape"/><feColorMatrix in="SourceAlpha" result="hardAlpha" values="0 0 0 0 0 0 0 0 0 0 0 0 0 0 0 0 0 0 127 0"/><feOffset dx="1"/><feGaussianBlur stdDeviation="0.75"/><feComposite in2="hardAlpha" k2="-1" k3="1" operator="arithmetic"/><feColorMatrix values="0 0 0 0 0.756863 0 0 0 0 0.517647 0 0 0 0 0.298039 0 0 0 1 0"/><feBlend in2="shape" result="effect1_innerShadow_18_26124"/><feColorMatrix in="SourceAlpha" result="hardAlpha" values="0 0 0 0 0 0 0 0 0 0 0 0 0 0 0 0 0 0 127 0"/><feOffset dy="-0.5"/><feGaussianBlur stdDeviation="0.75"/><feComposite in2="hardAlpha" k2="-1" k3="1" operator="arithmetic"/><feColorMatrix values="0 0 0 0 1 0 0 0 0 0.427451 0 0 0 0 0.529412 0 0 0 1 0"/><feBlend in2="effect1_innerShadow_18_26124" result="effect2_innerShadow_18_26124"/></filter><linearGradient id="n" x1="15.439" x2="17.782" y1="18.062" y2="19.438" gradientUnits="userSpaceOnUse"><stop stop-color="#6E4240" offset=".14238"/><stop stop-color="#834953" stop-opacity="0" offset="1"/></linearGradient><radialGradient id="i" cx="0" cy="0" r="1" gradientTransform="translate(27.796 2.0494) rotate(131.16) scale(3.2489 4.8119)" gradientUnits="userSpaceOnUse"><stop stop-color="#A57667" offset="0"/><stop stop-color="#A57667" stop-opacity="0" offset="1"/></radialGradient><radialGradient id="h" cx="0" cy="0" r="1" gradientTransform="translate(26.656 2.9847) rotate(-23.273) scale(1.214 .75427)" gradientUnits="userSpaceOnUse"><stop stop-color="#BB8B86" offset=".071094"/><stop stop-color="#BB8B86" stop-opacity="0" offset="1"/></radialGradient><linearGradient id="g" x1="7.4387" x2="15.876" y1="29.062" y2="21.25" gradientUnits="userSpaceOnUse"><stop stop-color="#F58C43" offset="0"/><stop stop-color="#FDAD47" offset="1"/></linearGradient><radialGradient id="f" cx="0" cy="0" r="1" gradientTransform="translate(16.158 22.344) rotate(121.39) scale(2.1599 3.5623)" gradientUnits="userSpaceOnUse"><stop stop-color="#FFD46F" offset="0"/><stop stop-color="#FFD46F" stop-opacity="0" offset="1"/></radialGradient><linearGradient id="e" x1="6.4387" x2="10.626" y1="29.125" y2="26.75" gradientUnits="userSpaceOnUse"><stop stop-color="#FF8655" offset="0"/><stop stop-color="#FF8655" stop-opacity="0" offset="1"/></linearGradient><radialGradient id="d" cx="0" cy="0" r="1" gradientTransform="translate(13.72 25.812) rotate(122.3) scale(3.2165 4.106)" gradientUnits="userSpaceOnUse"><stop stop-color="#FFA565" offset="0"/><stop stop-color="#FFA565" stop-opacity="0" offset="1"/></radialGradient><linearGradient id="c" x1="15.314" x2="10.486" y1="24.125" y2="21.472" gradientUnits="userSpaceOnUse"><stop stop-color="#FF1951" offset="0"/><stop stop-color="#DC1E43" offset=".71845"/><stop stop-color="#B2424F" offset="1"/></linearGradient><radialGradient id="b" cx="0" cy="0" r="1" gradientTransform="translate(15.096 23.524) rotate(118.25) scale(.20822 2.951)" gradientUnits="userSpaceOnUse"><stop stop-color="#FF516D" offset=".24282"/><stop stop-color="#FF516D" stop-opacity="0" offset="1"/></radialGradient><linearGradient id="a" x1="14.735" x2="9.2896" y1="25.738" y2="22.851" gradientUnits="userSpaceOnUse"><stop stop-color="#FF1951" offset="0"/><stop stop-color="#DC1E43" offset=".71845"/><stop stop-color="#B2424F" offset="1"/></linearGradient><radialGradient id="m" cx="0" cy="0" r="1" gradientTransform="translate(14.493 25.047) rotate(117.41) scale(.23761 3.3006)" gradientUnits="userSpaceOnUse"><stop stop-color="#FF516D" offset=".24282"/><stop stop-color="#FF516D" stop-opacity="0" offset="1"/></radialGradient><linearGradient id="l" x1="16.584" x2="16.611" y1="18.682" y2="19.885" gradientUnits="userSpaceOnUse"><stop stop-color="#AA9FB9" offset="0"/><stop stop-color="#B69BCC" offset="1"/></linearGradient><radialGradient id="k" cx="0" cy="0" r="1" gradientTransform="translate(17.763 18.662) rotate(164.85) scale(3.2976 2.0106)" gradientUnits="userSpaceOnUse"><stop stop-color="#9B8DAC" stop-opacity="0" offset=".47792"/><stop stop-color="#7E7785" offset=".96585"/></radialGradient><radialGradient id="j" cx="0" cy="0" r="1" gradientTransform="translate(17.438 18.849) rotate(90.309) scale(.65018 1.9339)" gradientUnits="userSpaceOnUse"><stop stop-color="#C3B6D4" offset=".15196"/><stop stop-color="#C3B6D4" stop-opacity="0" offset="1"/></radialGradient></defs></svg>
