<?xml version="1.0" encoding="UTF-8"?>
<!-- Generated by Pixelmator Pro 3.6.17 -->
<svg width="1668" height="188" viewBox="0 0 1668 188" xmlns="http://www.w3.org/2000/svg">
    <g id="Group">
        <g id="ThreemaOnPremWortmarke-copy">
            <path id="Shape-copy" fill="#ffffff" stroke="none" d="M 975.75 2 C 1026 2 1057.5 41.25 1057.5 94.25 C 1057.5 147.25 1026 186.5 975.75 186.5 C 925.5 186.5 894.25 147.25 894.25 94.25 C 894.25 41.25 925.5 2 975.75 2 Z M 1440.130005 61 C 1472.130005 61 1491.630005 83 1491.630005 116.75 L 1491.618774 117.244141 L 1491.618774 117.244141 L 1491.587036 117.9375 L 1491.587036 117.9375 L 1491.53772 118.771484 L 1491.53772 118.771484 L 1491.473755 119.6875 L 1491.473755 119.6875 L 1491.398071 120.626953 L 1491.398071 120.626953 L 1491.313599 121.53125 L 1491.313599 121.53125 L 1491.253784 122.085632 C 1491.243774 122.173584 1491.233521 122.259094 1491.223267 122.341797 L 1491.161255 122.801147 L 1491.161255 122.801147 L 1491.130005 123 L 1398.380005 123 C 1398.630005 151 1411.630005 176 1442.630005 176 C 1452.047485 176 1460.094116 173.468994 1468.893066 167.03717 L 1469.733398 166.412781 C 1470.295166 165.988647 1470.860352 165.548523 1471.429321 165.092224 L 1472.285767 164.395447 C 1472.715454 164.040955 1473.147461 163.677246 1473.582031 163.304077 L 1474.454712 162.545288 C 1475.038818 162.030945 1475.627808 161.499817 1476.222046 160.951477 L 1477.117432 160.115967 C 1477.417358 159.83313 1477.718628 159.545959 1478.021362 159.254333 L 1478.934082 158.366394 L 1478.934082 158.366394 L 1479.855957 157.451843 L 1479.855957 157.451843 L 1480.787598 156.510437 C 1480.943726 156.351257 1481.10022 156.190979 1481.25708 156.029541 L 1482.203979 155.047302 L 1482.203979 155.047302 L 1483.161499 154.037537 L 1483.161499 154.037537 L 1484.130005 153 L 1492.130005 160 L 1491.613647 160.581116 L 1491.613647 160.581116 L 1490.588013 161.720093 C 1489.737061 162.656372 1488.895264 163.560669 1488.061279 164.433716 L 1487.064209 165.466492 C 1485.739624 166.82373 1484.433716 168.101868 1483.141113 169.304321 L 1482.17395 170.192017 C 1469.310059 181.840027 1457.630005 186 1441.630005 186 C 1407.130005 186 1385.880005 161 1385.880005 124.5 C 1385.880005 86.75 1407.630005 61 1440.130005 61 Z M 1625.089966 61 C 1652.067505 61 1664.833496 79.131836 1665.086182 99.38562 L 1665.089966 100 L 1665.089966 183 L 1653.089966 183 L 1653.089966 103.25 C 1653.089966 82.25 1643.089966 71 1624.589966 71 C 1605.285034 71 1591.860596 85.211426 1591.593994 106.114563 L 1591.589966 106.75 L 1591.589966 183 L 1579.589966 183 L 1579.589966 103.25 C 1579.589966 82.75 1569.839966 71 1551.089966 71 C 1533.765015 71 1518.890259 83.496277 1518.594482 106.063049 L 1518.589966 106.75 L 1518.589966 183 L 1506.589966 183 L 1506.589966 64 L 1517.839966 64 L 1517.839966 80.25 C 1525.339966 66.5 1537.339966 61 1552.339966 61 C 1570.339966 61 1582.589966 70.25 1587.589966 82.75 C 1595.339966 69.75 1606.839966 61 1625.089966 61 Z M 1370.130005 63 C 1376.953491 63 1382.322021 64.273132 1386.856079 65.733521 L 1387.782471 66.037964 L 1387.782471 66.037964 L 1388.686157 66.345642 L 1388.686157 66.345642 L 1389.130005 66.5 L 1386.380005 76.25 C 1380.380005 74.25 1375.380005 73.25 1370.130005 73.25 C 1355.032471 73.25 1341.160156 87.216431 1340.884155 113.936401 L 1340.880005 114.75 L 1340.880005 183 L 1328.880005 183 L 1328.880005 64 L 1340.130005 64 L 1340.130005 84.25 C 1345.380005 71.25 1357.130005 63 1370.130005 63 Z M 1260.170044 5.5 C 1293.170044 5.5 1316.920044 22.5 1316.920044 56.25 C 1316.920044 89.662476 1293.642578 106.658325 1261.157227 106.994873 L 1260.170044 107 L 1204.670044 107 L 1204.670044 183 L 1191.670044 183 L 1191.670044 5.5 Z M 1123.709961 61 C 1153.162476 61 1165.953247 80.847046 1166.206177 100.892517 L 1166.209961 101.5 L 1166.209961 183 L 1154.209961 183 L 1154.209961 106 C 1154.209961 82.75 1142.459961 71 1121.959961 71 C 1101.912476 71 1085.540405 87.661743 1085.214966 106.673218 L 1085.209961 107.25 L 1085.209961 183 L 1073.209961 183 L 1073.209961 64 L 1084.459961 64 L 1084.459961 83.25 C 1091.709961 69.25 1105.459961 61 1123.709961 61 Z M 892.099976 146.75 L 892.099976 183 L 856.599976 183 L 856.599976 146.75 Z M 975.75 12.75 C 934.5 12.75 907 47.5 907 94.25 C 907 141.75 934.5 175.75 975.75 175.75 C 1017 175.75 1044.75 141.75 1044.75 94.25 C 1044.75 47 1017 12.75 975.75 12.75 Z M 1440.130005 71 C 1418.844971 71 1402.215454 85.211426 1398.974121 112.664063 L 1398.880005 113.5 L 1479.880005 113.5 C 1479.130005 88.5 1464.380005 71 1440.130005 71 Z M 1259.670044 16.25 L 1204.420044 16.25 L 1204.420044 96.25 L 1259.670044 96.25 C 1286.920044 96.25 1304.170044 82.75 1304.170044 56.25 C 1304.170044 29.767456 1287.263306 16.516357 1260.484497 16.253967 Z"/>
        </g>
        <path id="Custom" fill="#ffffff" fill-rule="evenodd" stroke="none" d="M 661.6875 57.546875 L 692.039063 57.546875 L 692.039063 74.539063 C 702.898499 61.335876 715.828064 54.734375 730.828125 54.734375 C 738.796936 54.734375 745.710938 56.374985 751.570313 59.65625 C 757.429688 62.937515 762.234375 67.898407 765.984375 74.539063 C 771.453125 67.898407 777.351501 62.937515 783.679688 59.65625 C 790.007874 56.374985 796.765564 54.734375 803.953125 54.734375 C 813.093811 54.734375 820.828064 56.589828 827.15625 60.300781 C 833.484436 64.011734 838.210938 69.460907 841.335938 76.648438 C 843.601563 81.960968 844.734375 90.554626 844.734375 102.429688 L 844.734375 182 L 811.804688 182 L 811.804688 110.867188 C 811.804688 98.523376 810.671875 90.554703 808.40625 86.960938 C 805.359375 82.273407 800.671936 79.929688 794.34375 79.929688 C 789.734375 79.929688 785.398438 81.335922 781.335938 84.148438 C 777.273438 86.960953 774.34375 91.082001 772.546875 96.511719 C 770.75 101.941437 769.851563 110.515564 769.851563 122.234375 L 769.851563 182 L 736.921875 182 L 736.921875 113.796875 C 736.921875 101.687439 736.335938 93.875015 735.164063 90.359375 C 733.992188 86.843735 732.175781 84.226578 729.714844 82.507813 C 727.253906 80.789047 723.914063 79.929688 719.695313 79.929688 C 714.617188 79.929688 710.046875 81.29686 705.984375 84.03125 C 701.921875 86.76564 699.011719 90.710907 697.253906 95.867188 C 695.496094 101.023468 694.617188 109.578064 694.617188 121.53125 L 694.617188 182 L 661.6875 182 Z M 514.729675 118.015625 C 514.729675 107.078064 517.424988 96.492233 522.815613 86.257813 C 528.206299 76.023392 535.842896 68.210968 545.725769 62.820313 C 555.608643 57.429657 566.643677 54.734375 578.831238 54.734375 C 597.659485 54.734375 613.088989 60.847595 625.1203 73.074219 C 637.151611 85.300842 643.167175 100.749908 643.167175 119.421875 C 643.167175 138.250092 637.093018 153.855408 624.944519 166.238281 C 612.796021 178.621155 597.503235 184.8125 579.065613 184.8125 C 567.659302 184.8125 556.780518 182.234406 546.428894 177.078125 C 536.077271 171.921844 528.206299 164.363342 522.815613 154.402344 C 517.424988 144.441345 514.729675 132.312561 514.729675 118.015625 Z M 548.479675 119.773438 C 548.479675 132.117249 551.409363 141.570282 557.268738 148.132813 C 563.128174 154.695343 570.354614 157.976563 578.948425 157.976563 C 587.542236 157.976563 594.749207 154.695343 600.569519 148.132813 C 606.389893 141.570282 609.299988 132.039124 609.299988 119.539063 C 609.299988 107.351501 606.389893 97.976593 600.569519 91.414063 C 594.749207 84.851532 587.542236 81.570313 578.948425 81.570313 C 570.354614 81.570313 563.128174 84.851532 557.268738 91.414063 C 551.409363 97.976593 548.479675 107.429626 548.479675 119.773438 Z M 504.295288 57.546875 L 504.295288 83.796875 L 481.795319 83.796875 L 481.795319 133.953125 C 481.795319 144.109436 482.010162 150.027344 482.43985 151.707031 C 482.869537 153.386719 483.8461 154.773438 485.369537 155.867188 C 486.892975 156.960938 488.748413 157.507813 490.935944 157.507813 C 493.982819 157.507813 498.396851 156.453125 504.178101 154.34375 L 506.990601 179.890625 C 499.334351 183.17189 490.662537 184.8125 480.975006 184.8125 C 475.037476 184.8125 469.685974 183.816422 464.920319 181.824219 C 460.154663 179.832016 456.6586 177.253922 454.432037 174.089844 C 452.205444 170.925766 450.662506 166.648468 449.803131 161.257813 C 449.100006 157.429657 448.748444 149.695374 448.748444 138.054688 L 448.748444 83.796875 L 433.631256 83.796875 L 433.631256 57.546875 L 448.748444 57.546875 L 448.748444 32.820313 L 481.795319 13.601563 L 481.795319 57.546875 Z M 306.946869 146.492188 L 339.993744 141.453125 C 341.399994 147.859406 344.251526 152.722641 348.548431 156.042969 C 352.845337 159.363297 358.860901 161.023438 366.595306 161.023438 C 375.110992 161.023438 381.517151 159.460953 385.814056 156.335938 C 388.704712 154.148438 390.149994 151.218765 390.149994 147.546875 C 390.149994 145.04686 389.368744 142.976563 387.806244 141.335938 C 386.165619 139.773438 382.493774 138.328125 376.790619 137 C 350.227997 131.140594 333.392212 125.789085 326.282806 120.945313 C 316.439026 114.226532 311.517181 104.890686 311.517181 92.9375 C 311.517181 82.156189 315.774963 73.093781 324.290619 65.75 C 332.806305 58.406219 346.009277 54.734375 363.899994 54.734375 C 380.931335 54.734375 393.587463 57.507782 401.868744 63.054688 C 410.150055 68.601593 415.853119 76.804626 418.978119 87.664063 L 387.923431 93.40625 C 386.595306 88.562469 384.075806 84.851578 380.364838 82.273438 C 376.6539 79.695297 371.360962 78.40625 364.485931 78.40625 C 355.814026 78.40625 349.603149 79.617172 345.853119 82.039063 C 343.353119 83.757828 342.103119 85.98436 342.103119 88.71875 C 342.103119 91.062515 343.196869 93.054672 345.384369 94.695313 C 348.353149 96.882828 358.606934 99.968735 376.146088 103.953125 C 393.685242 107.937515 405.931213 112.820282 412.884369 118.601563 C 419.759399 124.460968 423.196869 132.624939 423.196869 143.09375 C 423.196869 154.500061 418.431305 164.304657 408.899994 172.507813 C 399.368713 180.710983 385.267273 184.8125 366.595306 184.8125 C 349.64209 184.8125 336.224274 181.375031 326.3414 174.5 C 316.458557 167.624969 309.993774 158.289124 306.946869 146.492188 Z M 258.66095 182 L 258.66095 163.367188 C 254.129669 170.007843 248.172699 175.242157 240.789841 179.070313 C 233.406998 182.898453 225.614105 184.8125 217.410934 184.8125 C 209.051514 184.8125 201.55159 182.976578 194.910934 179.304688 C 188.270279 175.632797 183.465637 170.476593 180.496872 163.835938 C 177.528107 157.195282 176.043747 148.015686 176.043747 136.296875 L 176.043747 57.546875 L 208.973434 57.546875 L 208.973434 114.734375 C 208.973434 132.234467 209.578903 142.957001 210.789841 146.902344 C 212.000793 150.847687 214.207794 153.972641 217.410934 156.277344 C 220.614075 158.582047 224.676544 159.734375 229.598434 159.734375 C 235.223465 159.734375 240.262482 158.191422 244.715622 155.105469 C 249.168762 152.019516 252.215607 148.191437 253.856262 143.621094 C 255.496887 139.050751 256.3172 127.859467 256.3172 110.046875 L 256.3172 57.546875 L 289.246887 57.546875 L 289.246887 182 Z M 118.382813 118.835938 L 152.015625 129.5 C 146.859344 148.250092 138.285217 162.175735 126.292969 171.277344 C 114.30072 180.378952 99.086029 184.929688 80.648438 184.929688 C 57.835823 184.929688 39.08601 177.136795 24.398438 161.550781 C 9.710863 145.964767 2.367188 124.656387 2.367188 97.625 C 2.367188 69.031113 9.749926 46.824295 24.515625 31.003906 C 39.281322 15.183517 58.69519 7.273438 82.757813 7.273438 C 103.773544 7.273438 120.843689 13.484314 133.96875 25.90625 C 141.781296 33.250031 147.64061 43.796799 151.546875 57.546875 L 117.210938 65.75 C 115.17968 56.843704 110.941437 49.812531 104.496094 44.65625 C 98.050751 39.499969 90.218796 36.921875 81 36.921875 C 68.265564 36.921875 57.933632 41.492142 50.003906 50.632813 C 42.074181 59.773483 38.109375 74.578018 38.109375 95.046875 C 38.109375 116.765732 42.015587 132.234329 49.828125 141.453125 C 57.640663 150.671921 67.796814 155.28125 80.296875 155.28125 C 89.515671 155.28125 97.445282 152.351593 104.085938 146.492188 C 110.726593 140.632782 115.492172 131.414124 118.382813 118.835938 Z"/>
    </g>
</svg>
