<svg width="455" height="34" viewBox="0 0 455 34" fill="none" xmlns="http://www.w3.org/2000/svg">
<g clip-path="url(#clip0_115_155)">
<path d="M237.25 30.5C238.217 30.5 239 29.7165 239 28.75C239 27.7835 238.217 27 237.25 27C236.284 27 235.5 27.7835 235.5 28.75C235.5 29.7165 236.284 30.5 237.25 30.5Z" fill="#750603"/>
<path d="M243.213 30.5C244.18 30.5 244.963 29.7165 244.963 28.75C244.963 27.7835 244.18 27 243.213 27C242.247 27 241.463 27.7835 241.463 28.75C241.463 29.7165 242.247 30.5 243.213 30.5Z" fill="#750603"/>
<path d="M249.17 30.5C250.137 30.5 250.92 29.7165 250.92 28.75C250.92 27.7835 250.137 27 249.17 27C248.204 27 247.42 27.7835 247.42 28.75C247.42 29.7165 248.204 30.5 249.17 30.5Z" fill="#750603"/>
<path d="M32.7586 8.39546H24V3.21436H47.8588V8.39546H39.1002V30.6877H32.7647V8.39546H32.7586Z" fill="black"/>
<path d="M76.3683 3.21436V30.6815H70.0328V19.4191H57.5938V30.6815H51.2583V3.21436H57.5938V14.0481H70.0328V3.21436H76.3683Z" fill="black"/>
<path d="M99.69 30.6877L94.4105 23.0324H88.5816V30.6877H82.2461V3.21436H94.0992C96.5223 3.21436 98.628 3.61855 100.416 4.43308C102.205 5.24148 103.578 6.39283 104.542 7.88715C105.507 9.38146 105.989 11.1452 105.989 13.1846C105.989 15.224 105.501 16.9878 104.524 18.4637C103.547 19.9396 102.156 21.0726 100.361 21.8565L106.502 30.6877H99.6961H99.69ZM98.0909 9.63255C97.1021 8.80578 95.6556 8.39546 93.7513 8.39546H88.5877V17.9676H93.7513C95.6556 17.9676 97.1021 17.5512 98.0909 16.7122C99.0797 15.8731 99.5802 14.6973 99.5802 13.1785C99.5802 11.6597 99.0858 10.4532 98.0909 9.62643V9.63255Z" fill="black"/>
<path d="M132.191 25.5862V30.6877H110.994V3.21436H131.685V8.31584H117.293V14.2808H130.006V19.2231H117.293V25.5801H132.191V25.5862Z" fill="black"/>
<path d="M158.437 25.5862V30.6877H137.239V3.21436H157.93V8.31584H143.538V14.2808H156.252V19.2231H143.538V25.5801H158.437V25.5862Z" fill="black"/>
<path d="M188.393 30.6877L188.357 14.2074L180.3 27.7848H177.443L169.423 14.5626V30.6938H163.479V3.21436H168.721L178.969 20.2826L189.058 3.21436H194.259L194.338 30.6815H188.393V30.6877Z" fill="black"/>
<path d="M218.862 24.8023H206.148L203.725 30.6877H197.231L209.432 3.21436H215.688L227.932 30.6815H221.285L218.862 24.7962V24.8023ZM216.866 19.9764L212.526 9.46107L208.187 19.9764H216.866Z" fill="black"/>
<path d="M243.003 3C249.067 3 254 7.93423 254 14C254 20.0658 249.067 25 243.003 25C240.765 25 238.688 24.3317 236.951 23.1816L232.724 24.5361L234.096 20.4492C232.779 18.6375 232 16.4053 232 14C232 7.93423 236.933 3 242.997 3H243.003ZM243.205 8C241.484 8.00015 240.08 9.4088 240.08 11.1357V12.5996H239.982C239.439 12.5997 239 13.0401 239 13.585V17.542C239 18.0868 239.439 18.5272 239.982 18.5273H246.422C246.965 18.5273 247.404 18.0868 247.404 17.542V13.585C247.404 13.0401 246.965 12.5996 246.422 12.5996H246.33V11.1357C246.33 9.40871 244.926 8 243.205 8ZM243.205 9.28613C244.218 9.28613 245.049 10.1191 245.049 11.1357V12.5996H241.362V11.1357C241.362 10.1131 242.192 9.28628 243.205 9.28613Z" fill="#750603"/>
</g>
<path d="M266.058 29.171C263.843 27.9496 262.112 26.2801 260.866 24.1565C259.62 22.0329 259 19.6453 259 17C259 14.3547 259.62 11.9671 260.866 9.84349C262.112 7.71986 263.843 6.05042 266.058 4.82902C268.274 3.60763 270.741 3 273.473 3C276.204 3 278.659 3.60149 280.844 4.81061C283.035 6.01973 284.76 7.68917 286.018 9.82508C287.276 11.961 287.908 14.3547 287.908 17C287.908 19.6453 287.276 22.039 286.018 24.1749C284.76 26.3108 283.035 27.9864 280.844 29.1894C278.653 30.3924 276.198 31 273.473 31C270.747 31 268.274 30.3924 266.058 29.171ZM279.371 26.9307C281.126 25.9487 282.501 24.5861 283.502 22.843C284.496 21.1 284.999 19.1543 284.999 17C284.999 14.8457 284.502 12.9062 283.502 11.1569C282.507 9.41385 281.126 8.05129 279.371 7.06927C277.616 6.08724 275.645 5.59623 273.473 5.59623C271.3 5.59623 269.324 6.08724 267.556 7.06927C265.788 8.05129 264.395 9.41385 263.388 11.1569C262.382 12.9 261.872 14.8457 261.872 17C261.872 19.1543 262.376 21.0938 263.388 22.843C264.401 24.5923 265.788 25.9487 267.556 26.9307C269.324 27.9128 271.3 28.4038 273.473 28.4038C275.645 28.4038 277.616 27.9128 279.371 26.9307Z" fill="black"/>
<path d="M315.866 3.23305V30.7604H313.466L295.771 8.41937V30.7604H292.862V3.23305H295.262L312.999 25.5741V3.23305H315.872H315.866Z" fill="black"/>
<path d="M341.429 5.74949C343.423 7.42507 344.418 9.73283 344.418 12.6728C344.418 15.6127 343.423 17.9082 341.429 19.5776C339.434 21.2409 336.684 22.0757 333.167 22.0757H325.772V30.7666H322.862V3.23305H333.167C336.678 3.23305 339.434 4.07391 341.429 5.74949ZM339.348 17.7241C340.79 16.5334 341.509 14.8455 341.509 12.6728C341.509 10.5 340.784 8.73239 339.348 7.54168C337.906 6.35098 335.819 5.74949 333.094 5.74949H325.778V19.5163H333.094C335.819 19.5163 337.906 18.9209 339.348 17.7241Z" fill="black"/>
<path d="M368.33 30.7604L362.039 21.9099C361.333 21.9897 360.596 22.0266 359.835 22.0266H352.44V30.7543H349.53V3.23305H359.835C363.346 3.23305 366.102 4.07391 368.097 5.74949C370.091 7.42507 371.086 9.73283 371.086 12.6728C371.086 14.8209 370.539 16.6377 369.453 18.1169C368.367 19.596 366.814 20.6701 364.795 21.3207L371.522 30.7604H368.336H368.33ZM366.01 17.7425C367.452 16.5395 368.17 14.8455 368.17 12.6666C368.17 10.4878 367.446 8.72625 366.01 7.53555C364.568 6.34484 362.481 5.74335 359.756 5.74335H352.44V19.5469H359.756C362.481 19.5469 364.568 18.9455 366.01 17.7363V17.7425Z" fill="black"/>
<path d="M396.257 28.244V30.7604H376.788V3.23305H395.668V5.74949H379.697V15.5452H393.937V18.0248H379.697V28.2501H396.257V28.244Z" fill="black"/>
<path d="M430.511 3.23305V30.7604H427.718V8.73853L416.904 27.262H415.529L404.715 8.85514V30.7604H401.922V3.23305H404.322L416.278 23.6469L428.111 3.23305H430.511Z" fill="black"/>
<defs>
<clipPath id="clip0_115_155">
<rect width="230" height="28" fill="white" transform="translate(24 3)"/>
</clipPath>
</defs>
</svg>
