<svg fill="none" viewBox="0 0 32 32" xmlns="http://www.w3.org/2000/svg"><g filter="url(#ar)"><path d="m11.542 6.0799-5.1 10.35 13.55 2.44 0.01-15.78c0-0.51-0.37-0.95-0.88-1.02-3.1-0.43-6.17 1.15-7.58 4.01z" fill="url(#ah)"/><path d="m11.542 6.0799-5.1 10.35 13.55 2.44 0.01-15.78c0-0.51-0.37-0.95-0.88-1.02-3.1-0.43-6.17 1.15-7.58 4.01z" fill="url(#w)"/></g><g filter="url(#aq)"><path d="m24.582 18h4.41c0.55 0 1 0.45 1 1v1c0 6-5.13 10-9.99 10-0.56 0-1.01-0.45-1.01-1v-1.89c0-0.61-0.5-1.11-1.11-1.11h-4.13c-5.39 0-9.76-4.37-9.76-9.76v-5.74c0-2.4853 2.0147-4.5 4.5-4.5 1.6846 0 3.153 0.92567 3.9243 2.2961l0.9457 1.4439c0.37 0.55 1.15 0.64 1.62 0.17l5.99-5.92c1.29-1.28 3.03-1.99 4.84-1.99h1.94c0.68 0 1.24 0.55 1.24 1.24v3.78c0 4.13-1.61 8.05-4.41 10.98z" fill="url(#l)"/><path d="m24.582 18h4.41c0.55 0 1 0.45 1 1v1c0 6-5.13 10-9.99 10-0.56 0-1.01-0.45-1.01-1v-1.89c0-0.61-0.5-1.11-1.11-1.11h-4.13c-5.39 0-9.76-4.37-9.76-9.76v-5.74c0-2.4853 2.0147-4.5 4.5-4.5 1.6846 0 3.153 0.92567 3.9243 2.2961l0.9457 1.4439c0.37 0.55 1.15 0.64 1.62 0.17l5.99-5.92c1.29-1.28 3.03-1.99 4.84-1.99h1.94c0.68 0 1.24 0.55 1.24 1.24v3.78c0 4.13-1.61 8.05-4.41 10.98z" fill="url(#g)"/><path d="m24.582 18h4.41c0.55 0 1 0.45 1 1v1c0 6-5.13 10-9.99 10-0.56 0-1.01-0.45-1.01-1v-1.89c0-0.61-0.5-1.11-1.11-1.11h-4.13c-5.39 0-9.76-4.37-9.76-9.76v-5.74c0-2.4853 2.0147-4.5 4.5-4.5 1.6846 0 3.153 0.92567 3.9243 2.2961l0.9457 1.4439c0.37 0.55 1.15 0.64 1.62 0.17l5.99-5.92c1.29-1.28 3.03-1.99 4.84-1.99h1.94c0.68 0 1.24 0.55 1.24 1.24v3.78c0 4.13-1.61 8.05-4.41 10.98z" fill="url(#f)"/><path d="m24.582 18h4.41c0.55 0 1 0.45 1 1v1c0 6-5.13 10-9.99 10-0.56 0-1.01-0.45-1.01-1v-1.89c0-0.61-0.5-1.11-1.11-1.11h-4.13c-5.39 0-9.76-4.37-9.76-9.76v-5.74c0-2.4853 2.0147-4.5 4.5-4.5 1.6846 0 3.153 0.92567 3.9243 2.2961l0.9457 1.4439c0.37 0.55 1.15 0.64 1.62 0.17l5.99-5.92c1.29-1.28 3.03-1.99 4.84-1.99h1.94c0.68 0 1.24 0.55 1.24 1.24v3.78c0 4.13-1.61 8.05-4.41 10.98z" fill="url(#e)"/><path d="m24.582 18h4.41c0.55 0 1 0.45 1 1v1c0 6-5.13 10-9.99 10-0.56 0-1.01-0.45-1.01-1v-1.89c0-0.61-0.5-1.11-1.11-1.11h-4.13c-5.39 0-9.76-4.37-9.76-9.76v-5.74c0-2.4853 2.0147-4.5 4.5-4.5 1.6846 0 3.153 0.92567 3.9243 2.2961l0.9457 1.4439c0.37 0.55 1.15 0.64 1.62 0.17l5.99-5.92c1.29-1.28 3.03-1.99 4.84-1.99h1.94c0.68 0 1.24 0.55 1.24 1.24v3.78c0 4.13-1.61 8.05-4.41 10.98z" fill="url(#d)"/><path d="m24.582 18h4.41c0.55 0 1 0.45 1 1v1c0 6-5.13 10-9.99 10-0.56 0-1.01-0.45-1.01-1v-1.89c0-0.61-0.5-1.11-1.11-1.11h-4.13c-5.39 0-9.76-4.37-9.76-9.76v-5.74c0-2.4853 2.0147-4.5 4.5-4.5 1.6846 0 3.153 0.92567 3.9243 2.2961l0.9457 1.4439c0.37 0.55 1.15 0.64 1.62 0.17l5.99-5.92c1.29-1.28 3.03-1.99 4.84-1.99h1.94c0.68 0 1.24 0.55 1.24 1.24v3.78c0 4.13-1.61 8.05-4.41 10.98z" fill="url(#c)"/><path d="m24.582 18h4.41c0.55 0 1 0.45 1 1v1c0 6-5.13 10-9.99 10-0.56 0-1.01-0.45-1.01-1v-1.89c0-0.61-0.5-1.11-1.11-1.11h-4.13c-5.39 0-9.76-4.37-9.76-9.76v-5.74c0-2.4853 2.0147-4.5 4.5-4.5 1.6846 0 3.153 0.92567 3.9243 2.2961l0.9457 1.4439c0.37 0.55 1.15 0.64 1.62 0.17l5.99-5.92c1.29-1.28 3.03-1.99 4.84-1.99h1.94c0.68 0 1.24 0.55 1.24 1.24v3.78c0 4.13-1.61 8.05-4.41 10.98z" fill="url(#b)"/><path d="m24.582 18h4.41c0.55 0 1 0.45 1 1v1c0 6-5.13 10-9.99 10-0.56 0-1.01-0.45-1.01-1v-1.89c0-0.61-0.5-1.11-1.11-1.11h-4.13c-5.39 0-9.76-4.37-9.76-9.76v-5.74c0-2.4853 2.0147-4.5 4.5-4.5 1.6846 0 3.153 0.92567 3.9243 2.2961l0.9457 1.4439c0.37 0.55 1.15 0.64 1.62 0.17l5.99-5.92c1.29-1.28 3.03-1.99 4.84-1.99h1.94c0.68 0 1.24 0.55 1.24 1.24v3.78c0 4.13-1.61 8.05-4.41 10.98z" fill="url(#a)"/><path d="m24.582 18h4.41c0.55 0 1 0.45 1 1v1c0 6-5.13 10-9.99 10-0.56 0-1.01-0.45-1.01-1v-1.89c0-0.61-0.5-1.11-1.11-1.11h-4.13c-5.39 0-9.76-4.37-9.76-9.76v-5.74c0-2.4853 2.0147-4.5 4.5-4.5 1.6846 0 3.153 0.92567 3.9243 2.2961l0.9457 1.4439c0.37 0.55 1.15 0.64 1.62 0.17l5.99-5.92c1.29-1.28 3.03-1.99 4.84-1.99h1.94c0.68 0 1.24 0.55 1.24 1.24v3.78c0 4.13-1.61 8.05-4.41 10.98z" fill="url(#ag)"/><path d="m24.582 18h4.41c0.55 0 1 0.45 1 1v1c0 6-5.13 10-9.99 10-0.56 0-1.01-0.45-1.01-1v-1.89c0-0.61-0.5-1.11-1.11-1.11h-4.13c-5.39 0-9.76-4.37-9.76-9.76v-5.74c0-2.4853 2.0147-4.5 4.5-4.5 1.6846 0 3.153 0.92567 3.9243 2.2961l0.9457 1.4439c0.37 0.55 1.15 0.64 1.62 0.17l5.99-5.92c1.29-1.28 3.03-1.99 4.84-1.99h1.94c0.68 0 1.24 0.55 1.24 1.24v3.78c0 4.13-1.61 8.05-4.41 10.98z" fill="url(#af)"/></g><g filter="url(#ap)"><path d="m2.5022 8c-0.28 0-0.5 0.22-0.5 0.5l-0.01 6.72c0 1.11 0.59 2.15 1.55 2.71l5.74 3.32 0.51-0.86-5.74-3.32c-0.65-0.38-1.06-1.09-1.06-1.85l0.01-6.72c0-0.28-0.23-0.5-0.5-0.5z" fill="#608C46"/><path d="m2.5022 8c-0.28 0-0.5 0.22-0.5 0.5l-0.01 6.72c0 1.11 0.59 2.15 1.55 2.71l5.74 3.32 0.51-0.86-5.74-3.32c-0.65-0.38-1.06-1.09-1.06-1.85l0.01-6.72c0-0.28-0.23-0.5-0.5-0.5z" fill="url(#ae)"/><path d="m2.5022 8c-0.28 0-0.5 0.22-0.5 0.5l-0.01 6.72c0 1.11 0.59 2.15 1.55 2.71l5.74 3.32 0.51-0.86-5.74-3.32c-0.65-0.38-1.06-1.09-1.06-1.85l0.01-6.72c0-0.28-0.23-0.5-0.5-0.5z" fill="url(#ad)"/></g><g filter="url(#ao)"><path d="m2.5859 8.4375v2.875" stroke="url(#ac)" stroke-linecap="round" stroke-width=".15"/></g><g filter="url(#an)"><path d="m3.4817 17.125 5.0261 2.9219" stroke="url(#ab)" stroke-linecap="round" stroke-width=".15"/></g><path d="m7.3984 10.65c0.27614 0 0.5-0.2239 0.5-0.5 0-0.27614-0.22386-0.5-0.5-0.5s-0.5 0.22386-0.5 0.5c0 0.2761 0.22386 0.5 0.5 0.5z" fill="url(#aa)"/><path d="m7.3984 10.65c0.27614 0 0.5-0.2239 0.5-0.5 0-0.27614-0.22386-0.5-0.5-0.5s-0.5 0.22386-0.5 0.5c0 0.2761 0.22386 0.5 0.5 0.5z" fill="url(#z)"/><path d="m7.3984 10.65c0.27614 0 0.5-0.2239 0.5-0.5 0-0.27614-0.22386-0.5-0.5-0.5s-0.5 0.22386-0.5 0.5c0 0.2761 0.22386 0.5 0.5 0.5z" fill="url(#y)"/><path d="m4.0235 9.9844-1.8512 1.1256c-0.23 0.14-0.23 0.47 0 0.61l1.82 1.09v-2.3373c0-0.1875 0.03124-0.48832 0.03124-0.48832z" fill="url(#x)"/><path d="m4.0235 9.9844-1.8512 1.1256c-0.23 0.14-0.23 0.47 0 0.61l1.82 1.09v-2.3373c0-0.1875 0.03124-0.48832 0.03124-0.48832z" fill="url(#v)"/><path d="m3.1942 15.593-0.31516 0.8261c-0.04962 0.13 0.04549 0.2697 0.18467 0.2713l2.5141 0.0275c1.3052 0.0143 2.4699-0.817 2.8805-2.056l0.13752-0.4149c0.0429-0.1294-0.05347-0.2629-0.18984-0.2629h-2.876c-1.0369 0-1.9662 0.6401-2.3358 1.6089z" fill="url(#u)"/><path d="m3.1942 15.593-0.31516 0.8261c-0.04962 0.13 0.04549 0.2697 0.18467 0.2713l2.5141 0.0275c1.3052 0.0143 2.4699-0.817 2.8805-2.056l0.13752-0.4149c0.0429-0.1294-0.05347-0.2629-0.18984-0.2629h-2.876c-1.0369 0-1.9662 0.6401-2.3358 1.6089z" fill="url(#t)"/><path d="m5.0979 18.855 0.47699-0.1297c0.12719-0.0346 0.25248 0.0612 0.25248 0.193v2.6254c0 1.4489-1.1137 2.6544-2.558 2.769-0.10771 0.0085-0.19982-0.0766-0.19982-0.1846v-2.6195c0-1.2408 0.83097-2.328 2.0283-2.6536z" fill="url(#s)"/><path d="m5.0979 18.855 0.47699-0.1297c0.12719-0.0346 0.25248 0.0612 0.25248 0.193v2.6254c0 1.4489-1.1137 2.6544-2.558 2.769-0.10771 0.0085-0.19982-0.0766-0.19982-0.1846v-2.6195c0-1.2408 0.83097-2.328 2.0283-2.6536z" fill="url(#r)"/><path d="m9.6414 22.886c-1.0132-0.0676-1.814-0.9107-1.814-1.941 0-1.0744 0.87095-1.9453 1.9453-1.9453 0.62529 0 1.1817 0.295 1.5376 0.7535 0.6732 0.8274 0.8092 1.8878 0.8083 2.4396-1e-4 0.0694-0.039 0.1327-0.1003 0.1654-1.0162 0.5434-1.8972 0.5748-2.3769 0.5278z" fill="#528128"/><path d="m9.6414 22.886c-1.0132-0.0676-1.814-0.9107-1.814-1.941 0-1.0744 0.87095-1.9453 1.9453-1.9453 0.62529 0 1.1817 0.295 1.5376 0.7535 0.6732 0.8274 0.8092 1.8878 0.8083 2.4396-1e-4 0.0694-0.039 0.1327-0.1003 0.1654-1.0162 0.5434-1.8972 0.5748-2.3769 0.5278z" fill="url(#q)"/><path d="m9.6414 22.886c-1.0132-0.0676-1.814-0.9107-1.814-1.941 0-1.0744 0.87095-1.9453 1.9453-1.9453 0.62529 0 1.1817 0.295 1.5376 0.7535 0.6732 0.8274 0.8092 1.8878 0.8083 2.4396-1e-4 0.0694-0.039 0.1327-0.1003 0.1654-1.0162 0.5434-1.8972 0.5748-2.3769 0.5278z" fill="url(#p)"/><path d="m9.6414 22.886c-1.0132-0.0676-1.814-0.9107-1.814-1.941 0-1.0744 0.87095-1.9453 1.9453-1.9453 0.62529 0 1.1817 0.295 1.5376 0.7535 0.6732 0.8274 0.8092 1.8878 0.8083 2.4396-1e-4 0.0694-0.039 0.1327-0.1003 0.1654-1.0162 0.5434-1.8972 0.5748-2.3769 0.5278z" fill="url(#o)"/><path d="m9.6414 22.886c-1.0132-0.0676-1.814-0.9107-1.814-1.941 0-1.0744 0.87095-1.9453 1.9453-1.9453 0.62529 0 1.1817 0.295 1.5376 0.7535 0.6732 0.8274 0.8092 1.8878 0.8083 2.4396-1e-4 0.0694-0.039 0.1327-0.1003 0.1654-1.0162 0.5434-1.8972 0.5748-2.3769 0.5278z" fill="url(#n)"/><g filter="url(#am)"><path d="m11.722 21.975c-8e-4 0.0414 0.0321 0.0756 0.0735 0.0764 0.0414 9e-4 0.0757-0.0321 0.0765-0.0735l-0.15-0.0029zm-0.4761-1.491c-0.026-0.0322-0.0733-0.0372-0.1055-0.0112-0.0322 0.0261-0.0372 0.0733-0.0111 0.1055l0.1166-0.0943zm0.6261 1.4939c8e-4 -0.0434-0.0123-0.1254-0.0357-0.2254-0.0241-0.1029-0.0608-0.2323-0.1112-0.3741-0.1006-0.2828-0.257-0.6198-0.4792-0.8944l-0.1166 0.0943c0.2075 0.2566 0.357 0.5763 0.4544 0.8503 0.0486 0.1366 0.0837 0.2606 0.1065 0.3581 0.0235 0.1003 0.0322 0.1657 0.0318 0.1883l0.15 0.0029z" fill="url(#m)"/></g><g filter="url(#al)"><path d="m8.3047 14.312c-0.1875 0.3542-0.85 1.1438-2 1.4687" stroke="url(#k)" stroke-linecap="round" stroke-width=".15"/></g><g filter="url(#ak)"><path d="m22.492 19.75c-8.65-0.65-13.979-8.7084-14.875-12.438 1.6562-0.5 3.2187 0.53125 4.5312 2.625 2.7025 4.311 8.2188 9.1458 10.344 9.8125z" fill="url(#j)"/></g><g filter="url(#aj)"><path d="m21.907 4.9403-7.7273 7.6222 7.125 6.0625c5.6213-2.9308 6.6913-10.713 6.5261-14.663-0.011-0.26202-0.2292-0.46241-0.4915-0.46241h-1.9211c-1.3142 0-2.5756 0.51743-3.5112 1.4403z" fill="url(#i)"/></g><g filter="url(#ai)"><path d="m22.836 19.75c0.3542-0.1667 1.4063-0.9766 1.6563-1.4453" stroke="url(#h)" stroke-linecap="round" stroke-width=".2"/></g><defs><filter id="ar" x="6.4421" y="2" width="13.66" height="17.07" color-interpolation-filters="sRGB" filterUnits="userSpaceOnUse"><feFlood flood-opacity="0" result="BackgroundImageFix"/><feBlend in="SourceGraphic" in2="BackgroundImageFix" result="shape"/><feColorMatrix in="SourceAlpha" result="hardAlpha" values="0 0 0 0 0 0 0 0 0 0 0 0 0 0 0 0 0 0 127 0"/><feOffset dx="0.1" dy="0.2"/><feGaussianBlur stdDeviation="0.125"/><feComposite in2="hardAlpha" k2="-1" k3="1" operator="arithmetic"/><feColorMatrix values="0 0 0 0 0.807843 0 0 0 0 0.803922 0 0 0 0 0.807843 0 0 0 1 0"/><feBlend in2="shape" result="effect1_innerShadow_28327_4916"/></filter><filter id="aq" x="3.9922" y="1.8" width="26" height="28.4" color-interpolation-filters="sRGB" filterUnits="userSpaceOnUse"><feFlood flood-opacity="0" result="BackgroundImageFix"/><feBlend in="SourceGraphic" in2="BackgroundImageFix" result="shape"/><feColorMatrix in="SourceAlpha" result="hardAlpha" values="0 0 0 0 0 0 0 0 0 0 0 0 0 0 0 0 0 0 127 0"/><feOffset dy="0.2"/><feGaussianBlur stdDeviation="0.2"/><feComposite in2="hardAlpha" k2="-1" k3="1" operator="arithmetic"/><feColorMatrix values="0 0 0 0 0.807843 0 0 0 0 0.803922 0 0 0 0 0.807843 0 0 0 1 0"/><feBlend in2="shape" result="effect1_innerShadow_28327_4916"/><feColorMatrix in="SourceAlpha" result="hardAlpha" values="0 0 0 0 0 0 0 0 0 0 0 0 0 0 0 0 0 0 127 0"/><feOffset dy="-0.2"/><feGaussianBlur stdDeviation="0.375"/><feComposite in2="hardAlpha" k2="-1" k3="1" operator="arithmetic"/><feColorMatrix values="0 0 0 0 0.611765 0 0 0 0 0.529412 0 0 0 0 0.690196 0 0 0 1 0"/><feBlend in2="effect1_innerShadow_28327_4916" result="effect2_innerShadow_28327_4916"/></filter><filter id="ap" x="1.8422" y="8" width="7.95" height="13.35" color-interpolation-filters="sRGB" filterUnits="userSpaceOnUse"><feFlood flood-opacity="0" result="BackgroundImageFix"/><feBlend in="SourceGraphic" in2="BackgroundImageFix" result="shape"/><feColorMatrix in="SourceAlpha" result="hardAlpha" values="0 0 0 0 0 0 0 0 0 0 0 0 0 0 0 0 0 0 127 0"/><feOffset dx="-0.15" dy="0.1"/><feGaussianBlur stdDeviation="0.35"/><feComposite in2="hardAlpha" k2="-1" k3="1" operator="arithmetic"/><feColorMatrix values="0 0 0 0 0.278431 0 0 0 0 0.443137 0 0 0 0 0.137255 0 0 0 1 0"/><feBlend in2="shape" result="effect1_innerShadow_28327_4916"/></filter><filter id="ao" x="2.2609" y="8.1126" width=".65002" height="3.5249" color-interpolation-filters="sRGB" filterUnits="userSpaceOnUse"><feFlood flood-opacity="0" result="BackgroundImageFix"/><feBlend in="SourceGraphic" in2="BackgroundImageFix" result="shape"/><feGaussianBlur result="effect1_foregroundBlur_28327_4916" stdDeviation="0.125"/></filter><filter id="an" x="3.1567" y="16.8" width="5.6762" height="3.572" color-interpolation-filters="sRGB" filterUnits="userSpaceOnUse"><feFlood flood-opacity="0" result="BackgroundImageFix"/><feBlend in="SourceGraphic" in2="BackgroundImageFix" result="shape"/><feGaussianBlur result="effect1_foregroundBlur_28327_4916" stdDeviation="0.125"/></filter><filter id="am" x="10.862" y="20.206" width="1.2594" height="2.0952" color-interpolation-filters="sRGB" filterUnits="userSpaceOnUse"><feFlood flood-opacity="0" result="BackgroundImageFix"/><feBlend in="SourceGraphic" in2="BackgroundImageFix" result="shape"/><feGaussianBlur result="effect1_foregroundBlur_28327_4916" stdDeviation="0.125"/></filter><filter id="al" x="5.8797" y="13.888" width="2.85" height="2.3186" color-interpolation-filters="sRGB" filterUnits="userSpaceOnUse"><feFlood flood-opacity="0" result="BackgroundImageFix"/><feBlend in="SourceGraphic" in2="BackgroundImageFix" result="shape"/><feGaussianBlur result="effect1_foregroundBlur_28327_4916" stdDeviation="0.175"/></filter><filter id="ak" x="5.1172" y="4.688" width="19.875" height="17.562" color-interpolation-filters="sRGB" filterUnits="userSpaceOnUse"><feFlood flood-opacity="0" result="BackgroundImageFix"/><feBlend in="SourceGraphic" in2="BackgroundImageFix" result="shape"/><feGaussianBlur result="effect1_foregroundBlur_28327_4916" stdDeviation="1.25"/></filter><filter id="aj" x="12.68" y="2" width="16.667" height="18.125" color-interpolation-filters="sRGB" filterUnits="userSpaceOnUse"><feFlood flood-opacity="0" result="BackgroundImageFix"/><feBlend in="SourceGraphic" in2="BackgroundImageFix" result="shape"/><feGaussianBlur result="effect1_foregroundBlur_28327_4916" stdDeviation="0.75"/></filter><filter id="ai" x="22.436" y="17.905" width="2.4563" height="2.2455" color-interpolation-filters="sRGB" filterUnits="userSpaceOnUse"><feFlood flood-opacity="0" result="BackgroundImageFix"/><feBlend in="SourceGraphic" in2="BackgroundImageFix" result="shape"/><feGaussianBlur result="effect1_foregroundBlur_28327_4916" stdDeviation="0.15"/></filter><radialGradient id="ah" cx="0" cy="0" r="1" gradientTransform="translate(18.555 2) rotate(120.47) scale(10.515 6.1872)" gradientUnits="userSpaceOnUse"><stop stop-color="#E2E0E3" offset="0"/><stop stop-color="#C4C2C4" offset="1"/></radialGradient><radialGradient id="w" cx="0" cy="0" r="1" gradientTransform="translate(17.805 4.4999) rotate(129.48) scale(7.207 4.2547)" gradientUnits="userSpaceOnUse"><stop stop-color="#E6E5E7" offset="0"/><stop stop-color="#E6E5E7" stop-opacity="0" offset="1"/></radialGradient><linearGradient id="l" x1="10.93" x2="27.805" y1="8.75" y2="35.875" gradientUnits="userSpaceOnUse"><stop stop-color="#D6D1DB" offset="0"/><stop stop-color="#CCBEDA" offset="1"/></linearGradient><radialGradient id="g" cx="0" cy="0" r="1" gradientTransform="translate(6.9297 36.688) rotate(-65.398) scale(18.766 14.696)" gradientUnits="userSpaceOnUse"><stop stop-color="#9371B5" offset="0"/><stop stop-color="#9371B5" stop-opacity="0" offset="1"/></radialGradient><radialGradient id="f" cx="0" cy="0" r="1" gradientTransform="translate(8.6172 35.375) rotate(-43.08) scale(15.83 5.1266)" gradientUnits="userSpaceOnUse"><stop stop-color="#9371B5" offset="0"/><stop stop-color="#9371B5" stop-opacity="0" offset="1"/></radialGradient><radialGradient id="e" cx="0" cy="0" r="1" gradientTransform="translate(15.742 3.25) rotate(81.581) scale(33.296 31.11)" gradientUnits="userSpaceOnUse"><stop stop-color="#9371B5" stop-opacity="0" offset=".7538"/><stop stop-color="#9371B5" offset="1"/></radialGradient><radialGradient id="d" cx="0" cy="0" r="1" gradientTransform="translate(10.367 6.8125) rotate(69.937) scale(7.6518 8.0526)" gradientUnits="userSpaceOnUse"><stop stop-color="#EFECF1" offset="0"/><stop stop-color="#EFECF1" stop-opacity="0" offset="1"/></radialGradient><radialGradient id="c" cx="0" cy="0" r="1" gradientTransform="translate(28.492 2.8125) rotate(90) scale(2.0625 1.1905)" gradientUnits="userSpaceOnUse"><stop stop-color="#E8E4EA" offset="0"/><stop stop-color="#E8E4EA" stop-opacity="0" offset="1"/></radialGradient><radialGradient id="b" cx="0" cy="0" r="1" gradientTransform="translate(31.93 14.688) rotate(117.98) scale(9.0588 3.1209)" gradientUnits="userSpaceOnUse"><stop stop-color="#E8E4EA" offset="0"/><stop stop-color="#E8E4EA" stop-opacity="0" offset="1"/></radialGradient><radialGradient id="a" cx="0" cy="0" r="1" gradientTransform="translate(29.992 17.719) rotate(114.69) scale(2.9923 1.6977)" gradientUnits="userSpaceOnUse"><stop stop-color="#E8E4EA" offset="0"/><stop stop-color="#E8E4EA" stop-opacity="0" offset="1"/></radialGradient><radialGradient id="ag" cx="0" cy="0" r="1" gradientTransform="translate(2.8672 15) rotate(-32.56) scale(6.1549 5.7804)" gradientUnits="userSpaceOnUse"><stop stop-color="#BCBCBC" offset="0"/><stop stop-color="#BCBCBC" stop-opacity="0" offset="1"/></radialGradient><radialGradient id="af" cx="0" cy="0" r="1" gradientTransform="translate(5.3047 16) rotate(74.055) scale(2.275 4.4506)" gradientUnits="userSpaceOnUse"><stop stop-color="#BCBCBC" offset="0"/><stop stop-color="#BCBCBC" stop-opacity="0" offset="1"/></radialGradient><radialGradient id="ae" cx="0" cy="0" r="1" gradientTransform="translate(1.9922 16.359) rotate(-23.523) scale(1.4485 4.8279)" gradientUnits="userSpaceOnUse"><stop stop-color="#799C60" offset="0"/><stop stop-color="#678651" stop-opacity="0" offset="1"/></radialGradient><linearGradient id="ad" x1="7.3672" x2="6.1797" y1="21.25" y2="19.125" gradientUnits="userSpaceOnUse"><stop stop-color="#3E6B24" offset="0"/><stop stop-color="#3E6B24" stop-opacity="0" offset="1"/></linearGradient><linearGradient id="ac" x1="3.0391" x2="3.4014" y1="8.9844" y2="10.884" gradientUnits="userSpaceOnUse"><stop stop-color="#759C59" offset="0"/><stop stop-color="#759C59" stop-opacity="0" offset="1"/></linearGradient><linearGradient id="ab" x1="4.1819" x2="10.262" y1="17.006" y2="18.997" gradientUnits="userSpaceOnUse"><stop stop-color="#759C59" offset="0"/><stop stop-color="#759C59" stop-opacity="0" offset="1"/></linearGradient><radialGradient id="aa" cx="0" cy="0" r="1" gradientTransform="translate(7.5469 9.989) rotate(125.84) scale(.69386 .61861)" gradientUnits="userSpaceOnUse"><stop stop-color="#433437" offset=".0055866"/><stop stop-color="#3B2838" offset="1"/></radialGradient><radialGradient id="z" cx="0" cy="0" r="1" gradientTransform="translate(7.5853 10.025) rotate(137.64) scale(.35946 .31624)" gradientUnits="userSpaceOnUse"><stop stop-color="#5C5051" offset="0"/><stop stop-color="#5C5051" stop-opacity="0" offset="1"/></radialGradient><linearGradient id="y" x1="7.3001" x2="6.9564" y1="9.7572" y2="9.5384" gradientUnits="userSpaceOnUse"><stop stop-color="#5C5051" stop-opacity="0" offset="0"/><stop stop-color="#5C5051" offset="1"/></linearGradient><radialGradient id="x" cx="0" cy="0" r="1" gradientTransform="translate(2.4041 11.257) scale(2.5882 1.5041)" gradientUnits="userSpaceOnUse"><stop stop-color="#EDB134" offset="0"/><stop stop-color="#EAB030" offset="1"/></radialGradient><radialGradient id="v" cx="0" cy="0" r="1" gradientTransform="translate(2.5548 11.312) rotate(-7.3058) scale(1.8431 .94309)" gradientUnits="userSpaceOnUse"><stop stop-color="#FFD150" offset="0"/><stop stop-color="#FFD150" stop-opacity="0" offset="1"/></radialGradient><linearGradient id="u" x1="4.3985" x2="7.4141" y1="14.391" y2="16.531" gradientUnits="userSpaceOnUse"><stop stop-color="#62854B" offset="0"/><stop stop-color="#3F6B21" offset="1"/></linearGradient><radialGradient id="t" cx="0" cy="0" r="1" gradientTransform="translate(4.586 14.063) rotate(57.918) scale(2.4711 3.5894)" gradientUnits="userSpaceOnUse"><stop stop-color="#698E4E" offset="0"/><stop stop-color="#698E4E" stop-opacity="0" offset=".73805"/></radialGradient><linearGradient id="s" x1="3.806" x2="5.9258" y1="19.55" y2="19.904" gradientUnits="userSpaceOnUse"><stop stop-color="#62854B" offset="0"/><stop stop-color="#3F6B21" offset="1"/></linearGradient><radialGradient id="r" cx="0" cy="0" r="1" gradientTransform="translate(5.2421 19.945) rotate(110.85) scale(3.3357 1.1904)" gradientUnits="userSpaceOnUse"><stop stop-color="#7EA260" offset="0"/><stop stop-color="#7EA160" stop-opacity="0" offset="1"/></radialGradient><radialGradient id="q" cx="0" cy="0" r="1" gradientTransform="translate(9.973 18.281) rotate(90) scale(4.9688 5.4184)" gradientUnits="userSpaceOnUse"><stop stop-color="#45613C" stop-opacity="0" offset=".75472"/><stop stop-color="#45613C" offset=".96226"/></radialGradient><radialGradient id="p" cx="0" cy="0" r="1" gradientTransform="translate(8.914 22.902) rotate(-66.207) scale(4.7251 3.6824)" gradientUnits="userSpaceOnUse"><stop stop-color="#45613C" stop-opacity="0" offset=".78304"/><stop stop-color="#45613C" offset="1"/></radialGradient><radialGradient id="o" cx="0" cy="0" r="1" gradientTransform="translate(10.852 20.594) rotate(62.688) scale(2.1454 2.4203)" gradientUnits="userSpaceOnUse"><stop stop-color="#759C59" offset="0"/><stop stop-color="#759C59" stop-opacity="0" offset="1"/></radialGradient><radialGradient id="n" cx="0" cy="0" r="1" gradientTransform="translate(7.5468 19.781) rotate(30.282) scale(1.2394 1.8468)" gradientUnits="userSpaceOnUse"><stop stop-color="#759C59" offset="0"/><stop stop-color="#759C59" stop-opacity="0" offset="1"/></radialGradient><linearGradient id="m" x1="12.82" x2="11.391" y1="22.234" y2="20.531" gradientUnits="userSpaceOnUse"><stop stop-color="#759C59" offset="0"/><stop stop-color="#759C59" stop-opacity="0" offset="1"/></linearGradient><linearGradient id="k" x1="7.9922" x2="6.7295" y1="14.594" y2="15.936" gradientUnits="userSpaceOnUse"><stop stop-color="#759C59" offset="0"/><stop stop-color="#759C59" stop-opacity="0" offset="1"/></linearGradient><linearGradient id="j" x1="7.4453" x2="24.055" y1="5.1251" y2="18.563" gradientUnits="userSpaceOnUse"><stop stop-color="#F0EDF1" offset="0"/><stop stop-color="#F0EDF1" stop-opacity="0" offset="1"/></linearGradient><linearGradient id="i" x1="27.367" x2="17.617" y1="3.5" y2="16.625" gradientUnits="userSpaceOnUse"><stop stop-color="#C9C2D0" offset="0"/><stop stop-color="#C2B8CC" offset="1e-4"/><stop stop-color="#C2B8CC" stop-opacity="0" offset="1"/></linearGradient><linearGradient id="h" x1="24.383" x2="23.227" y1="18.633" y2="20.352" gradientUnits="userSpaceOnUse"><stop stop-color="#E3DEE9" offset="0"/><stop stop-color="#DDD9E2" stop-opacity="0" offset="1"/></linearGradient></defs></svg>
