<svg fill="none" viewBox="0 0 32 32" xmlns="http://www.w3.org/2000/svg"><g filter="url(#bv)"><path d="m21.636 14.442c-0.22 0-0.43-0.09-0.58-0.27-0.26-0.32-0.22-0.79 0.1-1.05l2.61-2.14c0.48-0.4 0.76-0.99004 0.76-1.61v-2.2c0-0.49 0.19-0.96 0.54-1.31l0.68-0.68c0.29-0.29 0.77-0.29 1.06 0s0.29 0.77 0 1.06l-0.68 0.68c-0.07 0.07-0.1 0.15-0.1 0.25v2.2c0 1.08-0.48 2.09-1.31 2.77l-2.61 2.14c-0.14 0.1-0.31 0.16-0.47 0.16z" fill="url(#bh)"/><path d="m21.636 14.442c-0.22 0-0.43-0.09-0.58-0.27-0.26-0.32-0.22-0.79 0.1-1.05l2.61-2.14c0.48-0.4 0.76-0.99004 0.76-1.61v-2.2c0-0.49 0.19-0.96 0.54-1.31l0.68-0.68c0.29-0.29 0.77-0.29 1.06 0s0.29 0.77 0 1.06l-0.68 0.68c-0.07 0.07-0.1 0.15-0.1 0.25v2.2c0 1.08-0.48 2.09-1.31 2.77l-2.61 2.14c-0.14 0.1-0.31 0.16-0.47 0.16z" fill="url(#aw)"/></g><path d="m10.436 14.442c0.22 0 0.43-0.09 0.58-0.27 0.26-0.32 0.22-0.79-0.1-1.05l-2.61-2.15c-0.49-0.4-0.77-0.98995-0.77-1.62v-2.2c0-0.49-0.19-0.96-0.54-1.31l-0.67-0.67c-0.29-0.29-0.77-0.29-1.06 0s-0.29 0.77 0 1.06l0.68 0.68c0.07 0.07 0.1 0.15 0.1 0.25v2.2c0 1.08 0.48 2.09 1.31 2.77l2.61 2.14c0.13003 0.11 0.30003 0.17 0.47003 0.17z" fill="url(#al)"/><path d="m10.436 14.442c0.22 0 0.43-0.09 0.58-0.27 0.26-0.32 0.22-0.79-0.1-1.05l-2.61-2.15c-0.49-0.4-0.77-0.98995-0.77-1.62v-2.2c0-0.49-0.19-0.96-0.54-1.31l-0.67-0.67c-0.29-0.29-0.77-0.29-1.06 0s-0.29 0.77 0 1.06l0.68 0.68c0.07 0.07 0.1 0.15 0.1 0.25v2.2c0 1.08 0.48 2.09 1.31 2.77l2.61 2.14c0.13003 0.11 0.30003 0.17 0.47003 0.17z" fill="url(#aa)"/><g filter="url(#bq)"><path d="m5.8424 5.5193 0.70128 0.70128c0.28131 0.28131 0.43934 0.66284 0.43934 1.0607v1.8376c0 0.85156 0.3619 1.663 0.99547 2.232l1.4577 1.3091" stroke="url(#p)" stroke-linecap="round" stroke-width=".4"/></g><g filter="url(#bp)"><path d="m26.54 5.6287-0.7012 0.70129c-0.2814 0.2813-0.4394 0.66283-0.4394 1.0607v1.8376c0 0.85152-0.3619 1.663-0.9954 2.232l-1.4577 1.3091" stroke="url(#e)" stroke-linecap="round" stroke-width=".4"/></g><path d="m18.391 3.488-1.8594 3.0859" stroke="#338F79" stroke-linecap="round" stroke-width="1.1"/><path d="m18.391 3.488-1.8594 3.0859" stroke="url(#d)" stroke-linecap="round" stroke-width="1.1"/><path d="m18.391 3.488-1.8594 3.0859" stroke="url(#c)" stroke-linecap="round" stroke-width="1.1"/><path d="m18.391 3.488-1.8594 3.0859" stroke="url(#b)" stroke-linecap="round" stroke-width="1.1"/><path d="m13.688 3.488 1.8594 3.0859" stroke="#338F79" stroke-linecap="round" stroke-width="1.1"/><path d="m13.688 3.488 1.8594 3.0859" stroke="url(#a)" stroke-linecap="round" stroke-width="1.1"/><g filter="url(#bo)"><path d="m13.874 3.488 1.5781 2.5469" stroke="url(#bg)" stroke-linecap="round" stroke-width=".4"/></g><g filter="url(#bn)"><path d="m18.516 3.488-1.5781 2.5469" stroke="url(#bf)" stroke-linecap="round" stroke-width=".4"/></g><ellipse cx="16.031" cy="7.9646" rx="3.4844" ry="2.0859" fill="url(#be)"/><ellipse cx="16.031" cy="7.9646" rx="3.4844" ry="2.0859" fill="url(#bd)"/><ellipse cx="16.031" cy="7.9646" rx="3.4844" ry="2.0859" fill="url(#bc)"/><ellipse cx="16.031" cy="7.9646" rx="3.4844" ry="2.0859" fill="url(#bb)"/><ellipse cx="16.031" cy="7.9646" rx="3.4844" ry="2.0859" fill="url(#ba)"/><path d="m22.026 12.462h-11.99v-2.49c0-1.22 0.99-2.21 2.21-2.21h7.56c1.22 0 2.21 0.99 2.21 2.21v2.49h0.01z" fill="url(#az)"/><path d="m22.026 12.462h-11.99v-2.49c0-1.22 0.99-2.21 2.21-2.21h7.56c1.22 0 2.21 0.99 2.21 2.21v2.49h0.01z" fill="url(#ay)"/><path d="m22.026 12.462h-11.99v-2.49c0-1.22 0.99-2.21 2.21-2.21h7.56c1.22 0 2.21 0.99 2.21 2.21v2.49h0.01z" fill="url(#ax)"/><path d="m22.026 12.462h-11.99v-2.49c0-1.22 0.99-2.21 2.21-2.21h7.56c1.22 0 2.21 0.99 2.21 2.21v2.49h0.01z" fill="url(#av)"/><path d="m22.026 12.462h-11.99v-2.49c0-1.22 0.99-2.21 2.21-2.21h7.56c1.22 0 2.21 0.99 2.21 2.21v2.49h0.01z" fill="url(#au)"/><path d="m6.4084 23.671c-0.50544 0.2575-1.786 1.3194-1.786 3.0034 0 1.5513 0.00729 2.4445 0.00729 2.7702" stroke="url(#at)" stroke-linecap="round" stroke-width="1.45"/><path d="m6.4084 23.671c-0.50544 0.2575-1.786 1.3194-1.786 3.0034 0 1.5513 0.00729 2.4445 0.00729 2.7702" stroke="url(#as)" stroke-linecap="round" stroke-width="1.45"/><path d="m6.4084 23.671c-0.50544 0.2575-1.786 1.3194-1.786 3.0034 0 1.5513 0.00729 2.4445 0.00729 2.7702" stroke="url(#ar)" stroke-linecap="round" stroke-width="1.45"/><path d="m2.6759 16.563c0.43741-0.8311 1.5601-2.0995 3.8199-1.9246" stroke="url(#aq)" stroke-linecap="round" stroke-width="1.45"/><path d="m25.534 23.671c0.5054 0.2575 1.786 1.3194 1.786 3.0034 0 1.5513-0.0073 2.4445-0.0073 2.7702" stroke="url(#ap)" stroke-linecap="round" stroke-width="1.45"/><path d="m25.534 23.671c0.5054 0.2575 1.786 1.3194 1.786 3.0034 0 1.5513-0.0073 2.4445-0.0073 2.7702" stroke="url(#ao)" stroke-linecap="round" stroke-width="1.45"/><path d="m25.534 23.671c0.5054 0.2575 1.786 1.3194 1.786 3.0034 0 1.5513-0.0073 2.4445-0.0073 2.7702" stroke="url(#an)" stroke-linecap="round" stroke-width="1.45"/><path d="m29.266 16.563c-0.4374-0.8311-1.56-2.0995-3.8199-1.9246" stroke="url(#am)" stroke-linecap="round" stroke-width="1.45"/><path d="m29.266 16.563c-0.4374-0.8311-1.56-2.0995-3.8199-1.9246" stroke="url(#ak)" stroke-linecap="round" stroke-width="1.45"/><path d="m29.266 16.563c-0.4374-0.8311-1.56-2.0995-3.8199-1.9246" stroke="url(#aj)" stroke-linecap="round" stroke-width="1.45"/><g filter="url(#bm)"><path d="m2.6549 16.441c0.4375-0.6615 1.7719-1.9562 3.6094-1.8437" stroke="url(#ai)" stroke-linecap="round" stroke-width=".4"/></g><path d="m22.026 10.942h-11.99v1.06h3v9.0332l2 7.8868h1.99l3.04-7.8868v-9.0332h1.96v-1.06z" fill="url(#ah)"/><path d="m22.026 10.942h-11.99v1.06h3v9.0332l2 7.8868h1.99l3.04-7.8868v-9.0332h1.96v-1.06z" fill="url(#ag)"/><path d="m22.026 10.942h-11.99v1.06h3v9.0332l2 7.8868h1.99l3.04-7.8868v-9.0332h1.96v-1.06z" fill="url(#af)"/><path d="m22.026 10.942h-11.99v1.06h3v9.0332l2 7.8868h1.99l3.04-7.8868v-9.0332h1.96v-1.06z" fill="url(#ae)"/><g filter="url(#bl)"><path d="m20.066 12.462h-2.5204c-0.69 0-1.25 0.4352-1.24 0.9637v11.828h1.4896l2.2708-6.1292v-6.6628z" fill="url(#ad)"/></g><path d="m13.786 11.962h-3.11c-3.11 0-5.64 2.52-5.64 5.63v2.35c0 5.17 3.92 9.47 8.95 9.99 0.56 0.06 1.04-0.37 1.04-0.93v-15.8c0.01-0.68-0.55-1.24-1.24-1.24z" fill="url(#ac)"/><path d="m13.786 11.962h-3.11c-3.11 0-5.64 2.52-5.64 5.63v2.35c0 5.17 3.92 9.47 8.95 9.99 0.56 0.06 1.04-0.37 1.04-0.93v-15.8c0.01-0.68-0.55-1.24-1.24-1.24z" fill="url(#ab)"/><path d="m13.786 11.962h-3.11c-3.11 0-5.64 2.52-5.64 5.63v2.35c0 5.17 3.92 9.47 8.95 9.99 0.56 0.06 1.04-0.37 1.04-0.93v-15.8c0.01-0.68-0.55-1.24-1.24-1.24z" fill="url(#z)"/><path d="m13.786 11.962h-3.11c-3.11 0-5.64 2.52-5.64 5.63v2.35c0 5.17 3.92 9.47 8.95 9.99 0.56 0.06 1.04-0.37 1.04-0.93v-15.8c0.01-0.68-0.55-1.24-1.24-1.24z" fill="url(#y)"/><path d="m13.786 11.962h-3.11c-3.11 0-5.64 2.52-5.64 5.63v2.35c0 5.17 3.92 9.47 8.95 9.99 0.56 0.06 1.04-0.37 1.04-0.93v-15.8c0.01-0.68-0.55-1.24-1.24-1.24z" fill="url(#x)"/><path d="m13.786 11.962h-3.11c-3.11 0-5.64 2.52-5.64 5.63v2.35c0 5.17 3.92 9.47 8.95 9.99 0.56 0.06 1.04-0.37 1.04-0.93v-15.8c0.01-0.68-0.55-1.24-1.24-1.24z" fill="url(#w)"/><path d="m18.045 29.634-0.0011 1e-4c-0.3839 0.0412-0.708-0.2513-0.708-0.6317v-15.8l-1e-4 -0.0044c-0.0074-0.5084 0.4133-0.9356 0.9401-0.9356h3.11c2.945 0 5.34 2.3864 5.34 5.33v2.35c0 5.0167-3.8042 9.1875-8.6809 9.6916z" fill="url(#v)"/><path d="m18.045 29.634-0.0011 1e-4c-0.3839 0.0412-0.708-0.2513-0.708-0.6317v-15.8l-1e-4 -0.0044c-0.0074-0.5084 0.4133-0.9356 0.9401-0.9356h3.11c2.945 0 5.34 2.3864 5.34 5.33v2.35c0 5.0167-3.8042 9.1875-8.6809 9.6916z" fill="url(#u)"/><path d="m18.045 29.634-0.0011 1e-4c-0.3839 0.0412-0.708-0.2513-0.708-0.6317v-15.8l-1e-4 -0.0044c-0.0074-0.5084 0.4133-0.9356 0.9401-0.9356h3.11c2.945 0 5.34 2.3864 5.34 5.33v2.35c0 5.0167-3.8042 9.1875-8.6809 9.6916z" fill="url(#t)"/><path d="m18.045 29.634-0.0011 1e-4c-0.3839 0.0412-0.708-0.2513-0.708-0.6317v-15.8l-1e-4 -0.0044c-0.0074-0.5084 0.4133-0.9356 0.9401-0.9356h3.11c2.945 0 5.34 2.3864 5.34 5.33v2.35c0 5.0167-3.8042 9.1875-8.6809 9.6916z" fill="url(#s)"/><path d="m18.045 29.634-0.0011 1e-4c-0.3839 0.0412-0.708-0.2513-0.708-0.6317v-15.8l-1e-4 -0.0044c-0.0074-0.5084 0.4133-0.9356 0.9401-0.9356h3.11c2.945 0 5.34 2.3864 5.34 5.33v2.35c0 5.0167-3.8042 9.1875-8.6809 9.6916z" stroke="url(#r)" stroke-width=".6"/><g filter="url(#bk)"><path d="m22.846 16.93v3.0218c0 0.6052 0.4948 1.1 1.1 1.1s1.1-0.4948 1.1-1.1v-3.02c0-0.6052-0.4948-1.1-1.1-1.1-0.6069 0-1.089 0.496-1.1 1.0982z" stroke="url(#q)" stroke-opacity=".5" stroke-width=".2"/></g><path d="m23.946 15.932c0.55 0 1 0.45 1 1v3.02c0 0.55-0.45 1-1 1s-1-0.45-1-1v-3.02c0.01-0.55 0.45-1 1-1z" fill="url(#o)"/><g filter="url(#bj)"><path d="m20.966 15.422c0-0.6053-0.4948-1.1-1.1-1.1-0.6053 0-1.1 0.4947-1.1 1.1v3.02c0 0.6052 0.4947 1.1 1.1 1.1 0.6052 0 1.1-0.4948 1.1-1.1v-3.02z" stroke="url(#n)" stroke-width=".2"/></g><g filter="url(#bi)"><path d="m9.0962 16.932c0-0.6052-0.49478-1.1-1.1-1.1-0.60523 0-1.1 0.4948-1.1 1.1v3.02c0 0.6052 0.49477 1.1 1.1 1.1 0.60522 0 1.1-0.4948 1.1-1.1v-3.02z" stroke="url(#m)" stroke-width=".2"/></g><path d="m19.866 14.422c0.55 0 1 0.45 1 1v3.02c0 0.55-0.45 1-1 1s-1-0.45-1-1v-3.02c0-0.55 0.45-1 1-1z" fill="url(#l)"/><g filter="url(#bu)"><path d="m13.176 15.422c0-0.6053-0.4947-1.1-1.1-1.1-0.6052 0-1.1 0.4947-1.1 1.1v3.02c0 0.6052 0.4948 1.1 1.1 1.1 0.6053 0 1.1-0.4948 1.1-1.1v-3.02z" stroke="url(#k)" stroke-width=".2"/></g><path d="m7.9962 15.932c0.55 0 1 0.45 1 1v3.02c0 0.55-0.45 1-1 1s-1-0.45-1-1v-3.02c0-0.55 0.45-1 1-1z" fill="url(#j)"/><path d="m12.076 14.422c0.55 0 1 0.45 1 1v3.02c0 0.55-0.45 1-1 1s-1-0.45-1-1v-3.02c0-0.55 0.45-1 1-1z" fill="url(#i)"/><g filter="url(#bt)"><path d="m5.5455 24.621c-0.32812 0.2735-0.79687 0.7829-0.79687 2.2579v2.7656" stroke="url(#h)" stroke-linecap="round" stroke-width=".4"/></g><g filter="url(#bs)"><path d="m26.467 24.254c0.3125 0.2083 1.0469 1.2031 1.0469 2.25v2.9375" stroke="url(#g)" stroke-linecap="round" stroke-width=".4"/></g><g filter="url(#br)"><path d="m26.405 14.332c0.7135 0.0156 2.35 0.4656 3.1875 2.1406" stroke="url(#f)" stroke-linecap="round" stroke-width=".4"/></g><defs><filter id="bv" x="20.886" y="4.9644" width="6.2382" height="9.5775" color-interpolation-filters="sRGB" filterUnits="userSpaceOnUse"><feFlood flood-opacity="0" result="BackgroundImageFix"/><feBlend in="SourceGraphic" in2="BackgroundImageFix" result="shape"/><feColorMatrix in="SourceAlpha" result="hardAlpha" values="0 0 0 0 0 0 0 0 0 0 0 0 0 0 0 0 0 0 127 0"/><feOffset dx="0.1" dy="0.1"/><feGaussianBlur stdDeviation="0.25"/><feComposite in2="hardAlpha" k2="-1" k3="1" operator="arithmetic"/><feColorMatrix values="0 0 0 0 0.279861 0 0 0 0 0.645833 0 0 0 0 0.47098 0 0 0 1 0"/><feBlend in2="shape" result="effect1_innerShadow_28327_6425"/></filter><filter id="bq" x="5.1424" y="4.8193" width="4.9938" height="8.5405" color-interpolation-filters="sRGB" filterUnits="userSpaceOnUse"><feFlood flood-opacity="0" result="BackgroundImageFix"/><feBlend in="SourceGraphic" in2="BackgroundImageFix" result="shape"/><feGaussianBlur result="effect1_foregroundBlur_28327_6425" stdDeviation="0.25"/></filter><filter id="bp" x="22.246" y="4.9287" width="4.9938" height="8.5405" color-interpolation-filters="sRGB" filterUnits="userSpaceOnUse"><feFlood flood-opacity="0" result="BackgroundImageFix"/><feBlend in="SourceGraphic" in2="BackgroundImageFix" result="shape"/><feGaussianBlur result="effect1_foregroundBlur_28327_6425" stdDeviation="0.25"/></filter><filter id="bo" x="13.374" y="2.9881" width="2.5782" height="3.5468" color-interpolation-filters="sRGB" filterUnits="userSpaceOnUse"><feFlood flood-opacity="0" result="BackgroundImageFix"/><feBlend in="SourceGraphic" in2="BackgroundImageFix" result="shape"/><feGaussianBlur result="effect1_foregroundBlur_28327_6425" stdDeviation="0.15"/></filter><filter id="bn" x="16.438" y="2.9881" width="2.5782" height="3.5468" color-interpolation-filters="sRGB" filterUnits="userSpaceOnUse"><feFlood flood-opacity="0" result="BackgroundImageFix"/><feBlend in="SourceGraphic" in2="BackgroundImageFix" result="shape"/><feGaussianBlur result="effect1_foregroundBlur_28327_6425" stdDeviation="0.15"/></filter><filter id="bm" x="2.0549" y="13.991" width="4.8094" height="3.0505" color-interpolation-filters="sRGB" filterUnits="userSpaceOnUse"><feFlood flood-opacity="0" result="BackgroundImageFix"/><feBlend in="SourceGraphic" in2="BackgroundImageFix" result="shape"/><feGaussianBlur result="effect1_foregroundBlur_28327_6425" stdDeviation="0.2"/></filter><filter id="bl" x="15.806" y="11.962" width="4.7605" height="13.792" color-interpolation-filters="sRGB" filterUnits="userSpaceOnUse"><feFlood flood-opacity="0" result="BackgroundImageFix"/><feBlend in="SourceGraphic" in2="BackgroundImageFix" result="shape"/><feGaussianBlur result="effect1_foregroundBlur_28327_6425" stdDeviation="0.25"/></filter><filter id="bk" x="22.496" y="15.482" width="2.9" height="5.9199" color-interpolation-filters="sRGB" filterUnits="userSpaceOnUse"><feFlood flood-opacity="0" result="BackgroundImageFix"/><feBlend in="SourceGraphic" in2="BackgroundImageFix" result="shape"/><feGaussianBlur result="effect1_foregroundBlur_28327_6425" stdDeviation="0.125"/></filter><filter id="bj" x="18.416" y="13.972" width="2.9" height="5.9199" color-interpolation-filters="sRGB" filterUnits="userSpaceOnUse"><feFlood flood-opacity="0" result="BackgroundImageFix"/><feBlend in="SourceGraphic" in2="BackgroundImageFix" result="shape"/><feGaussianBlur result="effect1_foregroundBlur_28327_6425" stdDeviation="0.125"/></filter><filter id="bi" x="6.5462" y="15.482" width="2.9" height="5.9199" color-interpolation-filters="sRGB" filterUnits="userSpaceOnUse"><feFlood flood-opacity="0" result="BackgroundImageFix"/><feBlend in="SourceGraphic" in2="BackgroundImageFix" result="shape"/><feGaussianBlur result="effect1_foregroundBlur_28327_6425" stdDeviation="0.125"/></filter><filter id="bu" x="10.626" y="13.972" width="2.9" height="5.9199" color-interpolation-filters="sRGB" filterUnits="userSpaceOnUse"><feFlood flood-opacity="0" result="BackgroundImageFix"/><feBlend in="SourceGraphic" in2="BackgroundImageFix" result="shape"/><feGaussianBlur result="effect1_foregroundBlur_28327_6425" stdDeviation="0.125"/></filter><filter id="bt" x="4.0486" y="23.921" width="2.1969" height="6.4233" color-interpolation-filters="sRGB" filterUnits="userSpaceOnUse"><feFlood flood-opacity="0" result="BackgroundImageFix"/><feBlend in="SourceGraphic" in2="BackgroundImageFix" result="shape"/><feGaussianBlur result="effect1_foregroundBlur_28327_6425" stdDeviation="0.25"/></filter><filter id="bs" x="25.867" y="23.654" width="2.2469" height="6.3874" color-interpolation-filters="sRGB" filterUnits="userSpaceOnUse"><feFlood flood-opacity="0" result="BackgroundImageFix"/><feBlend in="SourceGraphic" in2="BackgroundImageFix" result="shape"/><feGaussianBlur result="effect1_foregroundBlur_28327_6425" stdDeviation="0.2"/></filter><filter id="br" x="25.805" y="13.732" width="4.3876" height="3.3405" color-interpolation-filters="sRGB" filterUnits="userSpaceOnUse"><feFlood flood-opacity="0" result="BackgroundImageFix"/><feBlend in="SourceGraphic" in2="BackgroundImageFix" result="shape"/><feGaussianBlur result="effect1_foregroundBlur_28327_6425" stdDeviation="0.2"/></filter><linearGradient id="bh" x1="23.608" x2="26.639" y1="5.9101" y2="10.066" gradientUnits="userSpaceOnUse"><stop stop-color="#55AB7A" offset="0"/><stop stop-color="#5EB28E" offset="1"/></linearGradient><radialGradient id="aw" cx="0" cy="0" r="1" gradientTransform="translate(27.024 5.3163) rotate(133.77) scale(1.2334 .50882)" gradientUnits="userSpaceOnUse"><stop stop-color="#8FCDAD" offset="0"/><stop stop-color="#8FCDAD" stop-opacity="0" offset="1"/></radialGradient><linearGradient id="al" x1="8.1178" x2="8.1178" y1="4.9544" y2="12.91" gradientUnits="userSpaceOnUse"><stop stop-color="#5AAD87" offset="0"/><stop stop-color="#348A63" offset="1"/></linearGradient><linearGradient id="aa" x1="5.7955" x2="6.9205" y1="4.7851" y2="5.6913" gradientUnits="userSpaceOnUse"><stop stop-color="#6CB67D" offset="0"/><stop stop-color="#6CB67D" stop-opacity="0" offset="1"/></linearGradient><linearGradient id="p" x1="6.9518" x2="12.63" y1="4.7849" y2="13.361" gradientUnits="userSpaceOnUse"><stop stop-color="#83C6A2" offset="0"/><stop stop-color="#83C6A2" stop-opacity="0" offset="1"/></linearGradient><linearGradient id="e" x1="25.431" x2="19.753" y1="4.8943" y2="13.47" gradientUnits="userSpaceOnUse"><stop stop-color="#83C6A2" offset="0"/><stop stop-color="#83C6A2" stop-opacity="0" offset="1"/></linearGradient><linearGradient id="d" x1="18.595" x2="17.798" y1="2.8708" y2="4.1677" gradientUnits="userSpaceOnUse"><stop stop-color="#489973" offset="0"/><stop stop-color="#489973" stop-opacity="0" offset="1"/></linearGradient><linearGradient id="c" x1="17.374" x2="18.014" y1="4.0037" y2="4.2693" gradientUnits="userSpaceOnUse"><stop stop-color="#489973" offset="0"/><stop stop-color="#489973" stop-opacity="0" offset="1"/></linearGradient><radialGradient id="b" cx="0" cy="0" r="1" gradientTransform="translate(18.866 3.3396) rotate(147.33) scale(.56451 .44586)" gradientUnits="userSpaceOnUse"><stop stop-color="#6FB29D" offset="0"/><stop stop-color="#6FB29D" stop-opacity="0" offset="1"/></radialGradient><linearGradient id="a" x1="13.483" x2="14.28" y1="2.8708" y2="4.1677" gradientUnits="userSpaceOnUse"><stop stop-color="#489973" offset="0"/><stop stop-color="#489973" stop-opacity="0" offset="1"/></linearGradient><linearGradient id="bg" x1="14.663" x2="16.983" y1="3.488" y2="7.8474" gradientUnits="userSpaceOnUse"><stop stop-color="#75B4A0" offset="0"/><stop stop-color="#75B4A0" stop-opacity="0" offset="1"/></linearGradient><linearGradient id="bf" x1="17.727" x2="15.406" y1="3.488" y2="7.8474" gradientUnits="userSpaceOnUse"><stop stop-color="#75B4A0" stop-opacity=".75" offset="0"/><stop stop-color="#75B4A0" stop-opacity="0" offset="1"/></linearGradient><radialGradient id="be" cx="0" cy="0" r="1" gradientTransform="translate(15.733 7.5818) rotate(-90) scale(3.3281 14.22)" gradientUnits="userSpaceOnUse"><stop stop-color="#77A366" offset="0"/><stop stop-color="#5FBB8B" offset="1"/></radialGradient><radialGradient id="bd" cx="0" cy="0" r="1" gradientTransform="translate(18.17 7.6755) rotate(180) scale(2.5938 .82812)" gradientUnits="userSpaceOnUse"><stop stop-color="#A1CB9F" offset="0"/><stop stop-color="#A1CB9F" stop-opacity="0" offset="1"/></radialGradient><radialGradient id="bc" cx="0" cy="0" r="1" gradientTransform="translate(16.031 8.6755) rotate(240.18) scale(3.5841 4.5512)" gradientUnits="userSpaceOnUse"><stop stop-color="#459F74" stop-opacity="0" offset=".83156"/><stop stop-color="#459F74" offset="1"/></radialGradient><radialGradient id="bb" cx="0" cy="0" r="1" gradientTransform="translate(17.17 5.7224) rotate(139.13) scale(1.0745 .65051)" gradientUnits="userSpaceOnUse"><stop stop-color="#459F74" offset=".17615"/><stop stop-color="#459F74" stop-opacity="0" offset="1"/></radialGradient><radialGradient id="ba" cx="0" cy="0" r="1" gradientTransform="translate(15.155 5.7537) rotate(141.34) scale(1.2006 .55149)" gradientUnits="userSpaceOnUse"><stop stop-color="#459F74" offset=".17615"/><stop stop-color="#459F74" stop-opacity="0" offset="1"/></radialGradient><radialGradient id="az" cx="0" cy="0" r="1" gradientTransform="translate(16.031 10.598) rotate(90) scale(5.8438 7.8099)" gradientUnits="userSpaceOnUse"><stop stop-color="#A6BB6F" offset="0"/><stop stop-color="#5C926A" offset="1"/></radialGradient><radialGradient id="ay" cx="0" cy="0" r="1" gradientTransform="translate(19.296 8.91) rotate(179.42) scale(3.0627 .9473)" gradientUnits="userSpaceOnUse"><stop stop-color="#8AD0A3" stop-opacity=".75" offset="0"/><stop stop-color="#8AD0A3" stop-opacity="0" offset="1"/></radialGradient><radialGradient id="ax" cx="0" cy="0" r="1" gradientTransform="translate(10.389 8.16) rotate(49.682) scale(2.5598 4.6197)" gradientUnits="userSpaceOnUse"><stop stop-color="#65B285" offset="0"/><stop stop-color="#65B285" stop-opacity="0" offset="1"/></radialGradient><linearGradient id="av" x1="14.139" x2="14.139" y1="7.4881" y2="9.16" gradientUnits="userSpaceOnUse"><stop stop-color="#65B285" offset="0"/><stop stop-color="#65B285" stop-opacity="0" offset="1"/></linearGradient><linearGradient id="au" x1="22.608" x2="20.719" y1="10.112" y2="10.112" gradientUnits="userSpaceOnUse"><stop stop-color="#65B285" offset="0"/><stop stop-color="#65B285" stop-opacity="0" offset="1"/></linearGradient><linearGradient id="at" x1="3.6393" x2="5.4397" y1="26.558" y2="25.744" gradientUnits="userSpaceOnUse"><stop stop-color="#529273" offset="0"/><stop stop-color="#51967D" offset="1"/></linearGradient><radialGradient id="as" cx="0" cy="0" r="1" gradientTransform="translate(5.2799 23.566) rotate(45) scale(.71816 2.551)" gradientUnits="userSpaceOnUse"><stop stop-color="#599769" offset="0"/><stop stop-color="#599769" stop-opacity="0" offset="1"/></radialGradient><linearGradient id="ar" x1="4.8893" x2="4.8893" y1="30.16" y2="29.444" gradientUnits="userSpaceOnUse"><stop stop-color="#6D8AA1" offset="0"/><stop stop-color="#6D8AA1" stop-opacity="0" offset="1"/></linearGradient><linearGradient id="aq" x1="3.8424" x2="4.7487" y1="14.519" y2="15.972" gradientUnits="userSpaceOnUse"><stop stop-color="#71A372" offset="0"/><stop stop-color="#5A8F86" offset="1"/></linearGradient><linearGradient id="ap" x1="25.983" x2="28.478" y1="28.222" y2="27.772" gradientUnits="userSpaceOnUse"><stop stop-color="#4AB78B" offset="0"/><stop stop-color="#88C9A5" offset="1"/></linearGradient><linearGradient id="ao" x1="26.764" x2="26.764" y1="30.441" y2="29.066" gradientUnits="userSpaceOnUse"><stop stop-color="#63A89C" offset="0"/><stop stop-color="#63A89C" stop-opacity="0" offset="1"/></linearGradient><linearGradient id="an" x1="25.327" x2="26.427" y1="24.629" y2="25.129" gradientUnits="userSpaceOnUse"><stop stop-color="#63A89C" offset="0"/><stop stop-color="#63A89C" stop-opacity="0" offset="1"/></linearGradient><linearGradient id="am" x1="26.296" x2="28.577" y1="14.379" y2="16.563" gradientUnits="userSpaceOnUse"><stop stop-color="#72C196" offset="0"/><stop stop-color="#6DB88F" offset="1"/></linearGradient><radialGradient id="ak" cx="0" cy="0" r="1" gradientTransform="translate(27.608 15.91) rotate(-64.398) scale(.83166 2.1045)" gradientUnits="userSpaceOnUse"><stop stop-color="#5DB296" offset="0"/><stop stop-color="#5DB296" stop-opacity="0" offset="1"/></radialGradient><radialGradient id="aj" cx="0" cy="0" r="1" gradientTransform="translate(26.452 15.254) rotate(-11.165) scale(1.2104 3.063)" gradientUnits="userSpaceOnUse"><stop stop-color="#5DB296" offset="0"/><stop stop-color="#5DB296" stop-opacity="0" offset="1"/></radialGradient><linearGradient id="ai" x1="1.9362" x2="4.2938" y1="16.691" y2="13.592" gradientUnits="userSpaceOnUse"><stop stop-color="#6CA78B" offset=".0088342"/><stop stop-color="#6CA78B" stop-opacity="0" offset="1"/></linearGradient><linearGradient id="ah" x1="16.032" x2="16.032" y1="11.473" y2="27.528" gradientUnits="userSpaceOnUse"><stop stop-color="#6C5088" offset=".0055866"/><stop stop-color="#1C1C1C" offset="1"/></linearGradient><radialGradient id="ag" cx="0" cy="0" r="1" gradientTransform="translate(19.389 11.504) rotate(90) scale(1.3125 3.6875)" gradientUnits="userSpaceOnUse"><stop stop-color="#9888AA" offset=".2"/><stop stop-color="#9888AA" stop-opacity="0" offset="1"/></radialGradient><radialGradient id="af" cx="0" cy="0" r="1" gradientTransform="translate(10.036 11.426) rotate(90) scale(.79688 4.7707)" gradientUnits="userSpaceOnUse"><stop stop-color="#6A5C64" offset="0"/><stop stop-color="#7E7982" stop-opacity="0" offset="1"/></radialGradient><radialGradient id="ae" cx="0" cy="0" r="1" gradientTransform="translate(15.796 10.942) rotate(90) scale(.40574 10.412)" gradientUnits="userSpaceOnUse"><stop stop-color="#484253" offset="0"/><stop stop-color="#484253" stop-opacity="0" offset="1"/></radialGradient><linearGradient id="ad" x1="17.202" x2="17.728" y1="12.462" y2="22.382" gradientUnits="userSpaceOnUse"><stop stop-color="#472D68" offset="0"/><stop stop-color="#472D68" stop-opacity="0" offset="1"/></linearGradient><linearGradient id="ac" x1="10.452" x2="11.889" y1="16.785" y2="28.473" gradientUnits="userSpaceOnUse"><stop stop-color="#3FA27F" offset="0"/><stop stop-color="#D3C475" offset="1"/></linearGradient><radialGradient id="ab" cx="0" cy="0" r="1" gradientTransform="translate(11.139 29.938) rotate(-74.717) scale(2.1341 16.744)" gradientUnits="userSpaceOnUse"><stop stop-color="#F6CABC" offset=".16667"/><stop stop-color="#F6CABC" stop-opacity="0" offset="1"/></radialGradient><radialGradient id="z" cx="0" cy="0" r="1" gradientTransform="translate(7.2799 13.988) rotate(50.345) scale(3.7951 6.7247)" gradientUnits="userSpaceOnUse"><stop stop-color="#59A272" offset="0"/><stop stop-color="#59A272" stop-opacity="0" offset="1"/></radialGradient><radialGradient id="y" cx="0" cy="0" r="1" gradientTransform="translate(4.6393 19.379) scale(1.4062 4.8125)" gradientUnits="userSpaceOnUse"><stop stop-color="#90B595" offset="0"/><stop stop-color="#90B595" stop-opacity="0" offset="1"/></radialGradient><radialGradient id="x" cx="0" cy="0" r="1" gradientTransform="translate(8.9362 11.962) rotate(75.05) scale(.78739 1.8929)" gradientUnits="userSpaceOnUse"><stop stop-color="#86B49A" offset="0"/><stop stop-color="#86B49A" stop-opacity="0" offset="1"/></radialGradient><radialGradient id="w" cx="0" cy="0" r="1" gradientTransform="translate(14.717 17.098) rotate(90) scale(4.125 .22192)" gradientUnits="userSpaceOnUse"><stop stop-color="#76CEAF" offset="0"/><stop stop-color="#7AC4AA" stop-opacity="0" offset="1"/></radialGradient><linearGradient id="v" x1="22.031" x2="22.031" y1="15.535" y2="31.848" gradientUnits="userSpaceOnUse"><stop stop-color="#46AD88" offset="0"/><stop stop-color="#E0DD7B" offset=".83657"/></linearGradient><radialGradient id="u" cx="0" cy="0" r="1" gradientTransform="translate(17.389 32.066) rotate(-45.89) scale(4.2652 4.9012)" gradientUnits="userSpaceOnUse"><stop stop-color="#F6CABC" offset=".16667"/><stop stop-color="#F6CABC" stop-opacity="0" offset="1"/></radialGradient><radialGradient id="t" cx="0" cy="0" r="1" gradientTransform="translate(23.67 16.394) rotate(180) scale(7.3438 3)" gradientUnits="userSpaceOnUse"><stop stop-color="#81D4B1" offset="0"/><stop stop-color="#81D4B1" stop-opacity="0" offset="1"/></radialGradient><radialGradient id="s" cx="0" cy="0" r="1" gradientTransform="translate(26.03 13.941) rotate(137.91) scale(.65271 .92867)" gradientUnits="userSpaceOnUse"><stop stop-color="#87C9AD" offset="0"/><stop stop-color="#87C9AD" stop-opacity="0" offset="1"/></radialGradient><radialGradient id="r" cx="0" cy="0" r="1" gradientTransform="translate(17.036 13.379) rotate(-1.2975) scale(2.7601 7.3968)" gradientUnits="userSpaceOnUse"><stop stop-color="#42A77D" offset="0"/><stop stop-color="#42A77D" stop-opacity="0" offset="1"/></radialGradient><linearGradient id="q" x1="25.17" x2="21.249" y1="18.332" y2="21.113" gradientUnits="userSpaceOnUse"><stop stop-color="#47AE88" offset="0"/><stop stop-color="#7ECCAC" stop-opacity="0" offset="1"/></linearGradient><linearGradient id="o" x1="24.946" x2="23.389" y1="14.785" y2="20.16" gradientUnits="userSpaceOnUse"><stop stop-color="#FEFB40" offset="0"/><stop stop-color="#8FD09D" offset="1"/></linearGradient><linearGradient id="n" x1="19.17" x2="20.217" y1="14.285" y2="20.066" gradientUnits="userSpaceOnUse"><stop stop-color="#51AD90" offset="0"/><stop stop-color="#51AD90" stop-opacity="0" offset="1"/></linearGradient><linearGradient id="m" x1="8.4655" x2="7.9962" y1="15.932" y2="21.608" gradientUnits="userSpaceOnUse"><stop stop-color="#439475" offset="0"/><stop stop-color="#439475" stop-opacity="0" offset="1"/></linearGradient><linearGradient id="l" x1="20.702" x2="19.866" y1="14.191" y2="17.754" gradientUnits="userSpaceOnUse"><stop stop-color="#FEFB40" offset="0"/><stop stop-color="#8FD09C" offset="1"/></linearGradient><linearGradient id="k" x1="12.546" x2="12.076" y1="14.422" y2="20.098" gradientUnits="userSpaceOnUse"><stop stop-color="#439475" offset="0"/><stop stop-color="#439475" stop-opacity="0" offset="1"/></linearGradient><radialGradient id="j" cx="0" cy="0" r="1" gradientTransform="translate(8.6218 20.952) rotate(-90) scale(4.4168 6.3925)" gradientUnits="userSpaceOnUse"><stop stop-color="#73945E" offset="0"/><stop stop-color="#D8C939" offset="1"/></radialGradient><radialGradient id="i" cx="0" cy="0" r="1" gradientTransform="translate(12.702 19.442) rotate(-90) scale(4.7193 11.062)" gradientUnits="userSpaceOnUse"><stop stop-color="#749A66" offset="0"/><stop stop-color="#E7DC48" offset="1"/></radialGradient><linearGradient id="h" x1="4.108" x2="1.2273" y1="30.019" y2="28.366" gradientUnits="userSpaceOnUse"><stop stop-color="#679791" offset="0"/><stop stop-color="#679791" stop-opacity="0" offset="1"/></linearGradient><linearGradient id="g" x1="27.608" x2="26.539" y1="24.254" y2="24.351" gradientUnits="userSpaceOnUse"><stop stop-color="#8BD9B1" offset=".0087342"/><stop stop-color="#83D2AA" offset=".0088342"/><stop stop-color="#8BD9B1" stop-opacity="0" offset="1"/></linearGradient><linearGradient id="f" x1="29.764" x2="27.292" y1="16.3" y2="13.709" gradientUnits="userSpaceOnUse"><stop stop-color="#98D5AE" offset=".0087342"/><stop stop-color="#83D2AA" offset=".0088342"/><stop stop-color="#98D5AE" stop-opacity="0" offset="1"/></linearGradient></defs></svg>
