<?xml version="1.0" encoding="UTF-8"?>
<!-- Generated by Pixelmator Pro 3.6.13 -->
<svg width="1284" height="2778" viewBox="0 0 1284 2778" xmlns="http://www.w3.org/2000/svg">
    <g id="Page-1">
        <g id="Consumer-Theme-Dark">
            <g id="Content">
                <path id="Content-Background" fill="#000000" fill-rule="evenodd" stroke="none" d="M 0 272 L 1283 272 L 1283 2542 L 0 2542 Z"/>
                <g id="Bubbles-right">
                    <g id="5">
                        <path id="Path-2" fill="#212121" fill-rule="evenodd" stroke="none" d="M 1251.646118 1833.967285 C 1251.303955 1837.498047 1252.093506 1841.480225 1254.014893 1845.914185 C 1255.936157 1850.348145 1258.5979 1854.330322 1261.999878 1857.861084 C 1255.819946 1857.829224 1251.13208 1857.385986 1247.936279 1856.531494 C 1244.740479 1855.677002 1240.052612 1853.613281 1233.872559 1850.34021 C 1237.800171 1847.797607 1240.832031 1845.54248 1242.968018 1843.574829 C 1245.104126 1841.607056 1247.996826 1838.404541 1251.646118 1833.967285 Z"/>
                        <path id="Rectangle" fill="#212121" fill-rule="evenodd" stroke="none" d="M 1208.603638 1647 L 676.603577 1647 C 647.884766 1647 624.603577 1670.28125 624.603577 1699 L 624.603577 1805 C 624.603577 1833.71875 647.884766 1857 676.603577 1857 L 1208.603638 1857 C 1237.322388 1857 1260.603638 1833.71875 1260.603638 1805 L 1260.603638 1699 C 1260.603638 1670.28125 1237.322388 1647 1208.603638 1647 Z"/>
                    </g>
                    <g id="4">
                        <path id="path1" fill="#212121" fill-rule="evenodd" stroke="none" d="M 1208.60376 1408 L 390.603699 1408 C 361.884888 1408 338.603699 1431.28125 338.603699 1460 L 338.603699 1585 C 338.603699 1613.71875 361.884888 1637 390.603699 1637 L 1208.60376 1637 C 1237.32251 1637 1260.60376 1613.71875 1260.60376 1585 L 1260.60376 1460 C 1260.60376 1431.28125 1237.32251 1408 1208.60376 1408 Z"/>
                    </g>
                    <g id="2">
                        <path id="path2" fill="#212121" fill-rule="evenodd" stroke="none" d="M 1251.646118 945.967285 C 1251.303955 949.498047 1252.093506 953.480347 1254.014893 957.914185 C 1255.936157 962.348022 1258.5979 966.330322 1261.999878 969.861084 C 1255.819946 969.829224 1251.13208 969.386108 1247.936279 968.531494 C 1244.740479 967.677002 1240.052612 965.613281 1233.872559 962.34021 C 1237.800171 959.797607 1240.832031 957.54248 1242.968018 955.574829 C 1245.104126 953.607056 1247.996826 950.404541 1251.646118 945.967285 Z"/>
                        <path id="path3" fill="#212121" fill-rule="evenodd" stroke="none" d="M 1208.603638 740 L 533.603577 740 C 504.884796 740 481.603607 763.28125 481.603607 792 L 481.603607 917 C 481.603607 945.71875 504.884796 969 533.603577 969 L 1208.603638 969 C 1237.322388 969 1260.603638 945.71875 1260.603638 917 L 1260.603638 792 C 1260.603638 763.28125 1237.322388 740 1208.603638 740 Z"/>
                    </g>
                </g>
                <g id="Bubbles-left">
                    <g id="7">
                        <path id="path4" fill="#424242" fill-rule="evenodd" stroke="none" d="M 31.957453 2479.967285 C 32.299614 2483.498047 31.510042 2487.480225 29.58873 2491.914063 C 27.667418 2496.348145 25.005741 2500.330322 21.603701 2503.861084 C 27.783689 2503.829102 32.471577 2503.385986 35.667355 2502.531494 C 38.863136 2501.677002 43.551022 2499.613281 49.73101 2496.340332 C 45.80341 2493.797607 42.771584 2491.54248 40.635536 2489.574707 C 38.499485 2487.607178 35.606792 2484.404541 31.957453 2479.967285 Z"/>
                        <path id="path5" fill="#424242" fill-rule="evenodd" stroke="none" d="M 74.999977 2274 L 903 2274 C 931.718811 2274 955 2297.28125 955 2326 L 955 2451 C 955 2479.71875 931.718811 2503 903 2503 L 74.999977 2503 C 46.281174 2503 22.999981 2479.71875 22.999981 2451 L 22.999981 2326 C 22.999981 2297.28125 46.281174 2274 74.999977 2274 Z"/>
                    </g>
                    <g id="6">
                        <path id="path6" fill="#424242" fill-rule="evenodd" stroke="none" d="M 31.957453 2086.967285 C 32.299614 2090.498047 31.510042 2094.480225 29.58873 2098.914063 C 27.667418 2103.348145 25.005741 2107.330322 21.603701 2110.861084 C 27.783689 2110.829102 32.471577 2110.385986 35.667355 2109.531494 C 38.863136 2108.677002 43.551022 2106.613281 49.73101 2103.340332 C 45.80341 2100.797607 42.771584 2098.54248 40.635536 2096.574707 C 38.499485 2094.606934 35.606792 2091.404541 31.957453 2086.967285 Z"/>
                        <path id="path7" fill="#424242" fill-rule="evenodd" stroke="none" d="M 74.999977 1881 L 857 1881 C 885.718811 1881 909 1904.28125 909 1933 L 909 2058 C 909 2086.71875 885.718811 2110 857 2110 L 74.999977 2110 C 46.281174 2110 22.999981 2086.71875 22.999981 2058 L 22.999981 1933 C 22.999981 1904.28125 46.281174 1881 74.999977 1881 Z"/>
                    </g>
                    <g id="3">
                        <path id="path8" fill="#424242" fill-rule="evenodd" stroke="none" d="M 31.957453 1358.967285 C 32.299614 1362.498047 31.510042 1366.480347 29.58873 1370.914185 C 27.667418 1375.348022 25.005741 1379.330322 21.603701 1382.861084 C 27.783689 1382.829224 32.471577 1382.386108 35.667355 1381.531494 C 38.863136 1380.677002 43.551022 1378.613281 49.73101 1375.34021 C 45.80341 1372.797607 42.771584 1370.54248 40.635536 1368.574829 C 38.499485 1366.607056 35.606792 1363.404541 31.957453 1358.967285 Z"/>
                        <path id="path9" fill="#424242" fill-rule="evenodd" stroke="none" d="M 74.999977 993 L 815 993 C 843.718811 993 867 1016.28125 867 1045 L 867 1330 C 867 1358.71875 843.718811 1382 815 1382 L 74.999977 1382 C 46.281174 1382 22.999981 1358.71875 22.999981 1330 L 22.999981 1045 C 22.999981 1016.28125 46.281174 993 74.999977 993 Z"/>
                    </g>
                    <g id="1">
                        <path id="path10" fill="#424242" fill-rule="evenodd" stroke="none" d="M 31.957453 691.967285 C 32.299614 695.498047 31.510042 699.480225 29.58873 703.914063 C 27.667418 708.348145 25.005741 712.330322 21.603701 715.861084 C 27.783689 715.829102 32.471577 715.385986 35.667355 714.531494 C 38.863136 713.677002 43.551022 711.613281 49.73101 708.340332 C 45.80341 705.797607 42.771584 703.54248 40.635536 701.574707 C 38.499485 699.607178 35.606792 696.404541 31.957453 691.967285 Z"/>
                        <path id="path11" fill="#424242" fill-rule="evenodd" stroke="none" d="M 74.999977 207 L 906 207 C 934.718811 207 958 230.28125 958 259 L 958 663 C 958 691.71875 934.718811 715 906 715 L 74.999977 715 C 46.281174 715 22.999981 691.71875 22.999981 663 L 22.999981 259 C 22.999981 230.28125 46.281174 207 74.999977 207 Z"/>
                    </g>
                </g>
                <path id="Day" fill="#1e1f1f" fill-rule="evenodd" stroke="none" d="M 586.603699 2160 L 696.603699 2160 C 714.829102 2160 729.603699 2174.774658 729.603699 2193 L 729.603699 2194 C 729.603699 2212.225342 714.829102 2227 696.603699 2227 L 586.603699 2227 C 568.378296 2227 553.603699 2212.225342 553.603699 2194 L 553.603699 2193 C 553.603699 2174.774658 568.378296 2160 586.603699 2160 Z"/>
            </g>
            <g id="Footer">
                <path id="path12" fill="#1f1e1f" fill-rule="evenodd" stroke="none" d="M 0 2534 L 1284 2534 L 1284 2778 L 0 2778 Z"/>
                <path id="Line-3" fill="none" stroke="#424242" stroke-linecap="square" d="M 0.5 2534.5 L 1283.5 2534.5"/>
                <g id="micfill">
                    <path id="path13" fill="#8e8e93" stroke="none" opacity="0" d="M 1193 2569 L 1237 2569 L 1237 2641 L 1193 2641 Z"/>
                    <path id="Shape" fill="#8e8e93" fill-opacity="0.85" stroke="none" d="M 1193 2602.651367 C 1193 2614.956055 1201.008911 2623.648926 1212.973389 2624.545898 L 1212.973389 2632.840332 L 1200.935669 2632.840332 C 1199.788086 2632.840332 1198.884644 2633.761963 1198.884644 2634.907715 C 1198.884644 2636.053467 1199.788086 2637 1200.935669 2637 L 1229.088867 2637 C 1230.212036 2637 1231.115479 2636.053467 1231.115479 2634.907715 C 1231.115479 2633.761963 1230.212036 2632.840332 1229.088867 2632.840332 L 1217.051147 2632.840332 L 1217.051147 2624.545898 C 1228.991211 2623.648926 1237 2614.956055 1237 2602.651367 L 1237 2596.274658 C 1237 2595.128906 1236.096558 2594.207275 1234.973389 2594.207275 C 1233.825928 2594.207275 1232.922485 2595.128906 1232.922485 2596.274658 L 1232.922485 2602.501953 C 1232.922485 2613.361816 1225.865845 2620.709961 1215.000122 2620.709961 C 1204.134277 2620.709961 1197.077637 2613.361816 1197.077637 2602.501953 L 1197.077637 2596.274658 C 1197.077637 2595.128906 1196.174316 2594.207275 1195.051025 2594.207275 C 1193.903442 2594.207275 1193 2595.128906 1193 2596.274658 L 1193 2602.651367 Z M 1215.000122 2613.361816 C 1221.202026 2613.361816 1225.304199 2608.62915 1225.304199 2601.928955 L 1225.304199 2580.433105 C 1225.304199 2573.757568 1221.202026 2569 1215.000122 2569 C 1208.82251 2569 1204.695923 2573.757568 1204.695923 2580.433105 L 1204.695923 2601.928955 C 1204.695923 2608.62915 1208.82251 2613.361816 1215.000122 2613.361816 Z"/>
                </g>
                <g id="photofill">
                    <path id="path14" fill="#8e8e93" stroke="none" opacity="0" d="M 1045 2573 L 1121 2573 L 1121 2632 L 1045 2632 Z"/>
                    <path id="path15" fill="#8e8e93" fill-opacity="0.85" stroke="none" d="M 1121 2582.687012 L 1121 2622.338135 C 1121 2628.712646 1117.714111 2632 1111.217651 2632 L 1054.75708 2632 C 1048.285767 2632 1045 2628.762695 1045 2622.338135 L 1045 2582.687012 C 1045 2576.262451 1048.285767 2573 1054.75708 2573 L 1111.217651 2573 C 1117.714111 2573 1121 2576.287598 1121 2582.687012 Z M 1090.625244 2603.265381 L 1075.14917 2616.942627 L 1069.029053 2611.396729 C 1067.574219 2610.066406 1065.918823 2609.388672 1064.363647 2609.388672 C 1062.908936 2609.388672 1061.35376 2610.066406 1059.899048 2611.346191 L 1049.439575 2620.405762 L 1049.439575 2622.237793 C 1049.439575 2625.60083 1051.446167 2627.583252 1054.782227 2627.583252 L 1111.24292 2627.583252 C 1114.50354 2627.583252 1116.5354 2625.60083 1116.5354 2622.288086 L 1116.5354 2617.394287 L 1101.209961 2603.315674 C 1099.604492 2601.860107 1097.723389 2601.107178 1095.917603 2601.107178 C 1094.11145 2601.107178 1092.28064 2601.834961 1090.625244 2603.265381 Z M 1060.751831 2595.285156 C 1060.751831 2599.651611 1064.313477 2603.215332 1068.677856 2603.215332 C 1073.01709 2603.215332 1076.553833 2599.651611 1076.553833 2595.285156 C 1076.553833 2590.968506 1073.01709 2587.354736 1068.677856 2587.354736 C 1064.313477 2587.354736 1060.751831 2590.968506 1060.751831 2595.285156 Z"/>
                </g>
                <g id="pluscirclefill">
                    <path id="path16" fill="#8e8e93" stroke="none" opacity="0" d="M 42 2565 L 124 2565 L 124 2647 L 42 2647 Z"/>
                    <path id="path17" fill="#8e8e93" fill-opacity="0.85" stroke="none" d="M 124 2606.015625 C 124 2628.427979 105.427986 2647 82.984222 2647 C 60.571972 2647 42 2628.427979 42 2606.015625 C 42 2583.572021 60.540466 2565 82.952766 2565 C 105.396606 2565 124 2583.572021 124 2606.015625 Z M 79.993828 2589.647217 L 79.993828 2602.993896 L 66.678696 2602.993896 C 64.852951 2602.993896 63.593826 2604.221436 63.593826 2606.047119 C 63.593826 2607.778564 64.884453 2608.974609 66.678696 2608.974609 L 79.993828 2608.974609 L 79.993828 2622.352539 C 79.993828 2624.084229 81.221497 2625.374756 82.952766 2625.374756 C 84.747009 2625.374756 85.974495 2624.115479 85.974495 2622.352539 L 85.974495 2608.974609 L 99.352638 2608.974609 C 101.084213 2608.974609 102.37484 2607.778564 102.37484 2606.047119 C 102.37484 2604.221436 101.115585 2602.993896 99.352638 2602.993896 L 85.974495 2602.993896 L 85.974495 2589.647217 C 85.974495 2587.853027 84.747009 2586.59375 82.952766 2586.59375 C 81.221497 2586.59375 79.993828 2587.884521 79.993828 2589.647217 Z"/>
                </g>
                <path id="Inputfield" fill="#181818" fill-rule="evenodd" stroke="#363636" stroke-width="2" d="M 214.5 2558 L 953.5 2558 C 979.733521 2558 1001 2579.266602 1001 2605.5 L 1001 2605.5 C 1001 2631.733398 979.733521 2653 953.5 2653 L 214.5 2653 C 188.266479 2653 167 2631.733398 167 2605.5 L 167 2605.5 C 167 2579.266602 188.266479 2558 214.5 2558 Z"/>
            </g>
            <g id="Header">
                <path id="NavBar" fill="#121313" fill-rule="evenodd" stroke="none" d="M 0 0 L 1284 0 L 1284 274 L 0 274 Z"/>
                <path id="Line-2" fill="none" stroke="#b2b2b2" stroke-linecap="square" d="M 0.5 274.5 L 1283.5 274.5"/>
                <g id="chevronleft">
                    <path id="Path" fill="#7d7d82" stroke="none" d="M 41 207.5 C 41 208.349609 41.30368 209.097412 41.944786 209.743164 L 68.702461 236.08252 C 69.276062 236.694092 70.018417 237 70.895699 237 C 72.650322 237 74 235.674805 74 233.907471 C 74 233.023438 73.628845 232.275879 73.088959 231.698242 L 48.524525 207.5 L 73.088959 183.301758 C 73.628845 182.724121 74 181.942383 74 181.092773 C 74 179.325439 72.650322 178 70.895699 178 C 70.018417 178 69.276062 178.305908 68.702461 178.883545 L 41.944786 205.256836 C 41.30368 205.868652 41 206.650391 41 207.5 Z"/>
                </g>
                <g id="circle">
                    <path id="path18" fill="#bdbdbd" stroke="none" opacity="0" d="M 206 149 L 322 149 L 322 265 L 206 265 Z"/>
                    <path id="path19" fill="#7d7d82" stroke="none" d="M 227.978592 262 C 258.08606 262 283 237.086182 283 207.020996 C 283 176.913574 258.044128 152 227.936646 152 C 197.871338 152 173 176.913574 173 207.020996 C 173 237.086182 197.913589 262 227.978592 262 Z M 227.976898 258 C 199.722549 258 177 235.242188 177 207 C 177 178.712402 199.676804 156 227.931488 156 C 256.231659 156 279 178.712402 279 207 C 279 235.242188 256.277557 258 227.976898 258 Z"/>
                </g>
                <g id="personfill">
                    <path id="path20" fill="#000000" stroke="none" opacity="0" d="M 197 175 L 258 175 L 258 240 L 197 240 Z"/>
                    <path id="path21" fill="#7d7d82" stroke="none" d="M 202.947784 240 L 252.052246 240 C 255.745056 240 258 238.224365 258 235.349365 C 258 225.990967 246.301941 213.081299 227.5 213.081299 C 208.698242 213.081299 197 225.990967 197 235.349365 C 197 238.224365 199.255081 240 202.947784 240 Z M 227.528214 206.569824 C 235.392822 206.569824 241.98912 199.579346 241.98912 190.55957 C 241.98912 181.736816 235.336441 175 227.528214 175 C 219.748154 175 213.095673 181.849609 213.095673 190.615723 C 213.095673 199.579346 219.691803 206.569824 227.528214 206.569824 Z"/>
                </g>
                <g id="Verification">
                    <path id="Oval" fill="#7d7d82" fill-rule="evenodd" stroke="none" d="M 328 238 C 328 244.075195 323.075134 249 317 249 C 310.924866 249 306 244.075195 306 238 C 306 231.924805 310.924866 227 317 227 C 323.075134 227 328 231.924805 328 238 Z"/>
                    <path id="path22" fill="#7d7d82" fill-rule="evenodd" stroke="none" d="M 360 238 C 360 244.075195 355.075134 249 349 249 C 342.924866 249 338 244.075195 338 238 C 338 231.924805 342.924866 227 349 227 C 355.075134 227 360 231.924805 360 238 Z"/>
                    <path id="path23" fill="#7d7d82" fill-rule="evenodd" stroke="none" d="M 392 238 C 392 244.075195 387.075134 249 381 249 C 374.924866 249 370 244.075195 370 238 C 370 231.924805 374.924866 227 381 227 C 387.075134 227 392 231.924805 392 238 Z"/>
                </g>
                <g id="Phone">
                    <path id="path24" fill="#7d7d82" stroke="none" d="M 1201.765381 239 C 1207.580811 239 1211.175049 237.466309 1214.405762 233.793945 C 1214.688477 233.470947 1214.930786 233.148193 1215.213501 232.865479 C 1217.111572 230.686279 1218 228.587646 1218 226.569824 C 1218 224.148193 1216.58667 221.888184 1213.517334 219.789551 L 1204.269287 213.332275 C 1201.280762 211.27417 1197.807739 211.112793 1195.182617 213.695557 L 1192.678833 216.197754 C 1191.951904 216.924072 1191.386597 216.924072 1190.780762 216.520508 C 1188.963501 215.350342 1185.571167 212.282959 1183.430786 210.144043 C 1181.290405 208.005127 1178.665405 205.099365 1177.453857 203.24292 C 1177.050049 202.597168 1177.050049 202.07251 1177.776855 201.346191 L 1180.321167 198.803467 C 1182.905762 196.220703 1182.744263 192.709473 1180.644287 189.7229 L 1174.223022 180.521484 C 1172.082764 177.454102 1169.821167 176.041504 1167.398071 176.001221 C 1165.419189 175.960938 1163.319214 176.88916 1161.138428 178.785889 C 1160.81543 179.068604 1160.532715 179.35083 1160.209595 179.633545 C 1156.534546 182.821777 1155 186.453857 1155 192.225098 C 1155 201.346191 1160.49231 212.605957 1170.951904 223.058594 C 1181.371094 233.470947 1192.63855 239 1201.765381 239 Z M 1201.805786 233.51123 C 1193.728882 233.672852 1183.228882 227.417236 1175.111572 219.30542 C 1166.913452 211.193359 1160.290405 200.256348 1160.49231 192.184814 C 1160.572998 188.754395 1161.784668 185.848633 1164.207764 183.790283 C 1164.449951 183.588623 1164.651978 183.427246 1164.894287 183.225342 C 1165.701904 182.57959 1166.630859 182.176025 1167.438477 182.176025 C 1168.326904 182.176025 1169.134644 182.498779 1169.699951 183.386719 L 1175.838501 192.628662 C 1176.444214 193.516602 1176.444214 194.444824 1175.636475 195.21167 L 1172.728882 198.117432 C 1170.386597 200.498535 1170.588501 203.32373 1172.365479 205.583496 C 1174.344238 208.166504 1177.575073 211.758301 1179.755737 213.856934 C 1181.896118 215.996094 1185.853882 219.628174 1188.438477 221.645996 C 1190.699951 223.381348 1193.526978 223.623535 1195.869263 221.242432 L 1198.776978 218.33667 C 1199.584595 217.570068 1200.51355 217.570068 1201.401978 218.175293 L 1210.609619 224.309814 C 1211.538452 224.874756 1211.821167 225.641602 1211.821167 226.529297 C 1211.821167 227.376953 1211.457764 228.305176 1210.77124 229.112305 C 1210.609619 229.354492 1210.44812 229.556152 1210.246094 229.758057 C 1208.186523 232.219971 1205.238403 233.430664 1201.805786 233.51123 Z"/>
                    <path id="path25" fill="#7d7d82" stroke="none" d="M 1201 198.410645 C 1201 200.167725 1201.752197 201 1203.376953 201 L 1215.622925 201 C 1217.217651 201 1218 200.167725 1218 198.410645 L 1218 188.885254 C 1218 187.282471 1217.338013 186.450195 1216.01416 186.32666 L 1216.01416 183.614014 C 1216.01416 179.051758 1213.396484 176 1209.484985 176 C 1205.603516 176 1202.955688 179.051758 1202.955688 183.614014 L 1202.955688 186.32666 C 1201.661987 186.450195 1201 187.282471 1201 188.885254 L 1201 198.410645 Z M 1205.693848 186.295898 L 1205.693848 183.305908 C 1205.693848 180.531494 1207.198242 178.712646 1209.484985 178.712646 C 1211.771606 178.712646 1213.306152 180.531494 1213.306152 183.305908 L 1213.306152 186.295898 L 1205.693848 186.295898 Z"/>
                </g>
                <path id="Line" fill="none" stroke="#ffffff" stroke-width="30" stroke-linecap="square" opacity="0.3" d="M 316 185 L 648 185"/>
            </g>
        </g>
    </g>
</svg>
