<svg fill="none" viewBox="0 0 32 32" xmlns="http://www.w3.org/2000/svg"><g clip-rule="evenodd" fill-rule="evenodd" filter="url(#cd)"><path d="m15.565 3.7448c-0.7636-0.68608-1.7736-1.1035-2.881-1.1035-2.1892 0-3.9974 1.6312-4.2755 3.7446-0.15582-0.01706-0.31415-0.02582-0.47455-0.02582-2.3817 0-4.3125 1.9308-4.3125 4.3125 0 0.7331 0.18293 1.4235 0.50562 2.028-1.3136 0.7391-2.2009 2.1465-2.2009 3.7611 0 1.7087 0.99378 3.1852 2.4348 3.8833-0.24421 0.5408-0.38013 1.141-0.38013 1.7729 0 2.3817 1.9308 4.3125 4.3125 4.3125 0.27301 0 0.5401-0.0253 0.79901-0.0739 0.38788 1.9835 2.1352 3.4802 4.2322 3.4802 1.226 0 2.3325-0.5116 3.1177-1.333 0.7665 0.6994 1.7863 1.1259 2.9058 1.1259 2.1892 0 3.9974-1.6312 4.2754-3.7445 0.1558 0.017 0.3142 0.0258 0.4746 0.0258 2.3817 0 4.3125-1.9308 4.3125-4.3125 0-0.7362-0.1845-1.4293-0.5097-2.0356 1.2986-0.7431 2.1737-2.1422 2.1737-3.7457 0-1.7241-1.0118-3.212-2.4741-3.9021 0.2591-0.5541 0.4038-1.1724 0.4038-1.8244 0-2.3818-1.9308-4.3125-4.3125-4.3125-0.2709 0-0.5359 0.02498-0.793 0.07277-0.4065-1.9595-2.1426-3.4322-4.2226-3.4322-1.2226 0-2.3264 0.50878-3.1112 1.3262zm6.2884 10.248c-1.2064-0.5693-2.1062-1.6817-2.3842-3.0218-0.2571 0.0478-0.5221 0.0728-0.793 0.0728-1.1074 0-2.1174-0.4174-2.8811-1.1035-0.7848 0.8174-1.8885 1.3262-3.1111 1.3262-0.1604 0-0.3187-0.0088-0.4746-0.0259-0.1806 1.3728-1.0069 2.5422-2.1638 3.1932 0.3227 0.6045 0.5056 1.2949 0.5056 2.028 0 0.6319-0.1359 1.2321-0.3801 1.7729 1.2009 0.5817 2.0911 1.7041 2.3545 3.051 0.2589-0.0486 0.526-0.0739 0.799-0.0739 1.1195 0 2.1392 0.4265 2.9058 1.1259 0.7851-0.8214 1.8916-1.333 3.1177-1.333 0.1604 0 0.3187 0.0088 0.4745 0.0259 0.1792-1.3621 0.994-2.5239 2.1367-3.1778-0.3252-0.6063-0.5097-1.2994-0.5097-2.0356 0-0.652 0.1447-1.2703 0.4038-1.8244z" fill="#FDA81D"/><path d="m15.565 3.7448c-0.7636-0.68608-1.7736-1.1035-2.881-1.1035-2.1892 0-3.9974 1.6312-4.2755 3.7446-0.15582-0.01706-0.31415-0.02582-0.47455-0.02582-2.3817 0-4.3125 1.9308-4.3125 4.3125 0 0.7331 0.18293 1.4235 0.50562 2.028-1.3136 0.7391-2.2009 2.1465-2.2009 3.7611 0 1.7087 0.99378 3.1852 2.4348 3.8833-0.24421 0.5408-0.38013 1.141-0.38013 1.7729 0 2.3817 1.9308 4.3125 4.3125 4.3125 0.27301 0 0.5401-0.0253 0.79901-0.0739 0.38788 1.9835 2.1352 3.4802 4.2322 3.4802 1.226 0 2.3325-0.5116 3.1177-1.333 0.7665 0.6994 1.7863 1.1259 2.9058 1.1259 2.1892 0 3.9974-1.6312 4.2754-3.7445 0.1558 0.017 0.3142 0.0258 0.4746 0.0258 2.3817 0 4.3125-1.9308 4.3125-4.3125 0-0.7362-0.1845-1.4293-0.5097-2.0356 1.2986-0.7431 2.1737-2.1422 2.1737-3.7457 0-1.7241-1.0118-3.212-2.4741-3.9021 0.2591-0.5541 0.4038-1.1724 0.4038-1.8244 0-2.3818-1.9308-4.3125-4.3125-4.3125-0.2709 0-0.5359 0.02498-0.793 0.07277-0.4065-1.9595-2.1426-3.4322-4.2226-3.4322-1.2226 0-2.3264 0.50878-3.1112 1.3262zm6.2884 10.248c-1.2064-0.5693-2.1062-1.6817-2.3842-3.0218-0.2571 0.0478-0.5221 0.0728-0.793 0.0728-1.1074 0-2.1174-0.4174-2.8811-1.1035-0.7848 0.8174-1.8885 1.3262-3.1111 1.3262-0.1604 0-0.3187-0.0088-0.4746-0.0259-0.1806 1.3728-1.0069 2.5422-2.1638 3.1932 0.3227 0.6045 0.5056 1.2949 0.5056 2.028 0 0.6319-0.1359 1.2321-0.3801 1.7729 1.2009 0.5817 2.0911 1.7041 2.3545 3.051 0.2589-0.0486 0.526-0.0739 0.799-0.0739 1.1195 0 2.1392 0.4265 2.9058 1.1259 0.7851-0.8214 1.8916-1.333 3.1177-1.333 0.1604 0 0.3187 0.0088 0.4745 0.0259 0.1792-1.3621 0.994-2.5239 2.1367-3.1778-0.3252-0.6063-0.5097-1.2994-0.5097-2.0356 0-0.652 0.1447-1.2703 0.4038-1.8244z" fill="url(#aq)"/></g><g filter="url(#bs)"><path d="m15.598 4.688c-0.7055-0.63383-1.6386-1.0194-2.6616-1.0194-2.0225 0-3.693 1.507-3.9499 3.4594-0.14396-0.01576-0.29022-0.02385-0.43841-0.02385-2.2003 0-3.984 1.7837-3.984 3.9841 0 0.6772 0.16899 1.3151 0.4671 1.8735-1.2136 0.6828-2.0333 1.983-2.0333 3.4746 0 1.5786 0.91809 2.9427 2.2494 3.5876-0.22561 0.4996-0.35118 1.0541-0.35118 1.6379 0 2.2003 1.7837 3.9841 3.9841 3.9841 0.25221 0 0.49896-0.0235 0.73815-0.0683 0.35834 1.8324 1.9726 3.2151 3.9099 3.2151 1.1326 0 2.1549-0.4726 2.8802-1.2314 0.7082 0.6461 1.6503 1.0401 2.6845 1.0401 2.0225 0 3.693-1.507 3.9498-3.4594 0.144 0.0158 0.2902 0.0239 0.4384 0.0239 2.2003 0 3.9841-1.7837 3.9841-3.9841 0-0.6801-0.1704-1.3204-0.4709-1.8805 1.1997-0.6866 2.0082-1.9791 2.0082-3.4604 0-1.5929-0.9348-2.9674-2.2857-3.605 0.2394-0.5119 0.3731-1.083 0.3731-1.6854 0-2.2004-1.7838-3.9841-3.9841-3.9841-0.2503 0-0.4951 0.02308-0.7326 0.06723-0.3755-1.8103-1.9794-3.1708-3.901-3.1708-1.1295 0-2.1492 0.47003-2.8742 1.2252zm5.8094 9.4674c-1.1145-0.526-1.9458-1.5536-2.2026-2.7916-0.2375 0.0441-0.4823 0.0672-0.7326 0.0672-1.0231 0-1.9561-0.3856-2.6616-1.0195-0.7251 0.7552-1.7448 1.2252-2.8742 1.2252-0.1482 0-0.2945-0.0081-0.4384-0.0238-0.1669 1.2682-0.9302 2.3485-1.9991 2.9499 0.2981 0.5585 0.4671 1.1963 0.4671 1.8735 0 0.5838-0.1256 1.1383-0.3512 1.6379 1.1095 0.5374 1.9319 1.5744 2.1752 2.8186 0.2392-0.0448 0.486-0.0682 0.7382-0.0682 1.0342 0 1.9763 0.394 2.6845 1.0401 0.7253-0.7588 1.7475-1.2314 2.8802-1.2314 0.1482 0 0.2944 0.0081 0.4384 0.0239 0.1655-1.2583 0.9183-2.3316 1.974-2.9357-0.3005-0.5602-0.4709-1.2005-0.4709-1.8806 0-0.6024 0.1337-1.1736 0.373-1.6855z" clip-rule="evenodd" fill="#FF9E41" fill-rule="evenodd"/></g><g filter="url(#bh)"><path d="m24.558 13.58c-0.7555-0.0431-1.5542 0.1511-2.3313 0.4318-0.0107-0.0216-0.0107-0.0432-0.0215-0.0648 0.7879-0.2374 1.5218-0.572 2.1046-1.0577 1.2952-1.0901 1.7269-3.4862-0.5828-4.587-0.9282-0.44251-2.2666 0.07555-2.2666 0.07555s0.0648-1.4247-0.6691-2.1694c-1.7917-1.8132-3.9179-0.626-4.5223 0.94978-0.2698 0.73392-0.3346 1.565-0.3022 2.4068h-0.0647c0.0215-0.84185-0.0648-1.6729-0.3562-2.3852-0.6476-1.565-2.7846-2.7198-4.5439-0.86344-0.7123 0.74471-0.626 2.1694-0.626 2.1694s-1.3383-0.49648-2.2665-0.03238c-2.2773 1.1441-1.8024 3.5293-0.48569 4.5978 0.58283 0.4749 1.3383 0.7879 2.1262 1.0145-0.01079 0.0216-0.02158 0.0432-0.02158 0.0756-0.7771-0.2698-1.5758-0.4425-2.3313-0.3778-1.6837 0.1295-3.443 1.8132-2.2234 4.0474 0.49648 0.9066 1.878 1.2628 1.878 1.2628s-0.88503 1.1225-0.73393 2.1478c0.37776 2.5255 2.7954 2.8062 4.22 1.8888 0.6152-0.3994 1.1333-0.9822 1.5758-1.6406 0.0216 0.0108 0.0324 0.0324 0.054 0.0432-0.4641 0.6368-0.8527 1.3167-1.0254 2.0183-0.3993 1.6405 0.6584 3.8315 3.1624 3.3674 1.0145-0.1835 1.7808-1.3923 1.7808-1.3923s0.7879 1.1872 1.8133 1.3599c2.5147 0.421 3.5293-1.7916 3.0975-3.4321-0.1834-0.7016-0.5828-1.3708-1.0577-1.9968 0.0216-0.0107 0.0432-0.0323 0.0648-0.0431 0.4641 0.6368 0.9929 1.2196 1.6081 1.5973 1.4355 0.8959 3.8531 0.5613 4.1877-1.9643 0.1295-1.0253-0.7771-2.1262-0.7771-2.1262s1.3815-0.3886 1.8564-1.306c1.1549-2.2773-0.626-3.9286-2.3205-4.015z" fill="#EF490F"/></g><g filter="url(#ax)"><path d="m8.7783 6.7754 2.375 2.75-0.7187-5.375c-1.175 0.55-1.5938 1.9792-1.6563 2.625z" fill="url(#af)"/></g><g filter="url(#aw)"><path d="m15.881 4.1816-2e-4 6.3125 2.8985-7.375c-1.2704-0.26311-2.4616 0.58268-2.8983 1.0625z" fill="url(#u)"/></g><g filter="url(#av)"><path d="m22.647 6.7168-3.633 5.1623 6.6147-4.3632c-0.8875-0.94628-2.3484-0.94007-2.9817-0.79905z" fill="url(#j)"/></g><g filter="url(#au)"><path d="m27.28 19.559-6.0546-1.7859 6.2537 4.8664c0.6118-1.144 0.1375-2.5258-0.1991-3.0805z" fill="url(#f)"/></g><g filter="url(#at)"><path d="m23.208 24.974-4.1693-4.7397 2.695 7.4518c1.1276-0.6416 1.4633-2.0633 1.4743-2.7121z" fill="url(#e)"/></g><g filter="url(#as)"><path d="m16.222 27.587-0.2148-6.6299-2.6005 7.896c1.2859 0.172 2.4138-0.7564 2.8153-1.2661z" fill="url(#d)"/></g><g filter="url(#ar)"><path d="m9.4537 25.18 3.9197-5.3514-6.9167 4.6118c0.90616 0.9285 2.3666 0.8932 2.997 0.7396z" fill="url(#c)"/></g><g filter="url(#cc)"><path d="m5.2386 20.046 6.4067-1.7191-8.2808-0.7339c0.12537 1.2913 1.2863 2.1781 1.874 2.453z" fill="url(#b)"/></g><g filter="url(#cb)"><path d="m5.5321 12.783 6.3277 1.9905-6.5912-5.0662c-0.58773 1.1566-0.0847 2.5281 0.26346 3.0757z" fill="url(#a)"/></g><g filter="url(#ca)"><path d="m23.93 13.767c-1.3073-0.0666-2.1669 0.3662-2.18 0.34 0.73-0.22 1.41-0.53 1.95-0.98 1.2-1.01 1.6-3.23-0.54-4.25-0.86-0.41-2.1 0.07-2.1 0.07s0.06-1.32-0.62-2.01c-1.66-1.68-3.63-0.58-4.19 0.88-0.25 0.68-0.2848 1.13-0.2848 2.0524-0.015 0-0.0206-1.1513-0.3852-2.0324-0.6-1.45-2.58-2.52-4.21-0.8-0.66 0.69-0.58 2.01-0.58 2.01s-1.24-0.46-2.1-0.03c-2.11 1.06-1.67 3.27-0.45 4.26 0.54 0.44 1.218 0.66 1.97 0.94-0.0229 0.0459-1.0723-0.4726-2.18-0.28-1.56 0.12-3.19 1.68-2.06 3.75 0.46 0.84 1.74 1.17 1.74 1.17s-0.82 1.04-0.68 1.99c0.35 2.34 2.59 2.6 3.91 1.75 0.57-0.37 0.9477-0.7198 1.46-1.52 0.0141 7e-3 -0.7623 1.1439-0.9 1.91-0.37 1.52 0.61 3.55 2.93 3.12 0.94-0.17 1.65-1.29 1.65-1.29s0.73 1.1 1.68 1.26c2.33 0.39 3.27-1.66 2.87-3.18-0.17-0.65-0.54-1.27-0.98-1.85 0.105 0.1411 0.7221 0.9943 1.55 1.44 1.33 0.83 3.57 0.52 3.88-1.82 0-1.3132-0.72-1.97-0.72-1.97s1.0433-0.1245 1.72-1.21c1.07-2.11-0.58-3.64-2.15-3.72z" fill="url(#ap)"/><path d="m23.93 13.767c-1.3073-0.0666-2.1669 0.3662-2.18 0.34 0.73-0.22 1.41-0.53 1.95-0.98 1.2-1.01 1.6-3.23-0.54-4.25-0.86-0.41-2.1 0.07-2.1 0.07s0.06-1.32-0.62-2.01c-1.66-1.68-3.63-0.58-4.19 0.88-0.25 0.68-0.2848 1.13-0.2848 2.0524-0.015 0-0.0206-1.1513-0.3852-2.0324-0.6-1.45-2.58-2.52-4.21-0.8-0.66 0.69-0.58 2.01-0.58 2.01s-1.24-0.46-2.1-0.03c-2.11 1.06-1.67 3.27-0.45 4.26 0.54 0.44 1.218 0.66 1.97 0.94-0.0229 0.0459-1.0723-0.4726-2.18-0.28-1.56 0.12-3.19 1.68-2.06 3.75 0.46 0.84 1.74 1.17 1.74 1.17s-0.82 1.04-0.68 1.99c0.35 2.34 2.59 2.6 3.91 1.75 0.57-0.37 0.9477-0.7198 1.46-1.52 0.0141 7e-3 -0.7623 1.1439-0.9 1.91-0.37 1.52 0.61 3.55 2.93 3.12 0.94-0.17 1.65-1.29 1.65-1.29s0.73 1.1 1.68 1.26c2.33 0.39 3.27-1.66 2.87-3.18-0.17-0.65-0.54-1.27-0.98-1.85 0.105 0.1411 0.7221 0.9943 1.55 1.44 1.33 0.83 3.57 0.52 3.88-1.82 0-1.3132-0.72-1.97-0.72-1.97s1.0433-0.1245 1.72-1.21c1.07-2.11-0.58-3.64-2.15-3.72z" fill="url(#ao)"/><path d="m23.93 13.767c-1.3073-0.0666-2.1669 0.3662-2.18 0.34 0.73-0.22 1.41-0.53 1.95-0.98 1.2-1.01 1.6-3.23-0.54-4.25-0.86-0.41-2.1 0.07-2.1 0.07s0.06-1.32-0.62-2.01c-1.66-1.68-3.63-0.58-4.19 0.88-0.25 0.68-0.2848 1.13-0.2848 2.0524-0.015 0-0.0206-1.1513-0.3852-2.0324-0.6-1.45-2.58-2.52-4.21-0.8-0.66 0.69-0.58 2.01-0.58 2.01s-1.24-0.46-2.1-0.03c-2.11 1.06-1.67 3.27-0.45 4.26 0.54 0.44 1.218 0.66 1.97 0.94-0.0229 0.0459-1.0723-0.4726-2.18-0.28-1.56 0.12-3.19 1.68-2.06 3.75 0.46 0.84 1.74 1.17 1.74 1.17s-0.82 1.04-0.68 1.99c0.35 2.34 2.59 2.6 3.91 1.75 0.57-0.37 0.9477-0.7198 1.46-1.52 0.0141 7e-3 -0.7623 1.1439-0.9 1.91-0.37 1.52 0.61 3.55 2.93 3.12 0.94-0.17 1.65-1.29 1.65-1.29s0.73 1.1 1.68 1.26c2.33 0.39 3.27-1.66 2.87-3.18-0.17-0.65-0.54-1.27-0.98-1.85 0.105 0.1411 0.7221 0.9943 1.55 1.44 1.33 0.83 3.57 0.52 3.88-1.82 0-1.3132-0.72-1.97-0.72-1.97s1.0433-0.1245 1.72-1.21c1.07-2.11-0.58-3.64-2.15-3.72z" fill="url(#an)"/><path d="m23.93 13.767c-1.3073-0.0666-2.1669 0.3662-2.18 0.34 0.73-0.22 1.41-0.53 1.95-0.98 1.2-1.01 1.6-3.23-0.54-4.25-0.86-0.41-2.1 0.07-2.1 0.07s0.06-1.32-0.62-2.01c-1.66-1.68-3.63-0.58-4.19 0.88-0.25 0.68-0.2848 1.13-0.2848 2.0524-0.015 0-0.0206-1.1513-0.3852-2.0324-0.6-1.45-2.58-2.52-4.21-0.8-0.66 0.69-0.58 2.01-0.58 2.01s-1.24-0.46-2.1-0.03c-2.11 1.06-1.67 3.27-0.45 4.26 0.54 0.44 1.218 0.66 1.97 0.94-0.0229 0.0459-1.0723-0.4726-2.18-0.28-1.56 0.12-3.19 1.68-2.06 3.75 0.46 0.84 1.74 1.17 1.74 1.17s-0.82 1.04-0.68 1.99c0.35 2.34 2.59 2.6 3.91 1.75 0.57-0.37 0.9477-0.7198 1.46-1.52 0.0141 7e-3 -0.7623 1.1439-0.9 1.91-0.37 1.52 0.61 3.55 2.93 3.12 0.94-0.17 1.65-1.29 1.65-1.29s0.73 1.1 1.68 1.26c2.33 0.39 3.27-1.66 2.87-3.18-0.17-0.65-0.54-1.27-0.98-1.85 0.105 0.1411 0.7221 0.9943 1.55 1.44 1.33 0.83 3.57 0.52 3.88-1.82 0-1.3132-0.72-1.97-0.72-1.97s1.0433-0.1245 1.72-1.21c1.07-2.11-0.58-3.64-2.15-3.72z" fill="url(#am)"/><path d="m23.93 13.767c-1.3073-0.0666-2.1669 0.3662-2.18 0.34 0.73-0.22 1.41-0.53 1.95-0.98 1.2-1.01 1.6-3.23-0.54-4.25-0.86-0.41-2.1 0.07-2.1 0.07s0.06-1.32-0.62-2.01c-1.66-1.68-3.63-0.58-4.19 0.88-0.25 0.68-0.2848 1.13-0.2848 2.0524-0.015 0-0.0206-1.1513-0.3852-2.0324-0.6-1.45-2.58-2.52-4.21-0.8-0.66 0.69-0.58 2.01-0.58 2.01s-1.24-0.46-2.1-0.03c-2.11 1.06-1.67 3.27-0.45 4.26 0.54 0.44 1.218 0.66 1.97 0.94-0.0229 0.0459-1.0723-0.4726-2.18-0.28-1.56 0.12-3.19 1.68-2.06 3.75 0.46 0.84 1.74 1.17 1.74 1.17s-0.82 1.04-0.68 1.99c0.35 2.34 2.59 2.6 3.91 1.75 0.57-0.37 0.9477-0.7198 1.46-1.52 0.0141 7e-3 -0.7623 1.1439-0.9 1.91-0.37 1.52 0.61 3.55 2.93 3.12 0.94-0.17 1.65-1.29 1.65-1.29s0.73 1.1 1.68 1.26c2.33 0.39 3.27-1.66 2.87-3.18-0.17-0.65-0.54-1.27-0.98-1.85 0.105 0.1411 0.7221 0.9943 1.55 1.44 1.33 0.83 3.57 0.52 3.88-1.82 0-1.3132-0.72-1.97-0.72-1.97s1.0433-0.1245 1.72-1.21c1.07-2.11-0.58-3.64-2.15-3.72z" fill="url(#al)"/><path d="m23.93 13.767c-1.3073-0.0666-2.1669 0.3662-2.18 0.34 0.73-0.22 1.41-0.53 1.95-0.98 1.2-1.01 1.6-3.23-0.54-4.25-0.86-0.41-2.1 0.07-2.1 0.07s0.06-1.32-0.62-2.01c-1.66-1.68-3.63-0.58-4.19 0.88-0.25 0.68-0.2848 1.13-0.2848 2.0524-0.015 0-0.0206-1.1513-0.3852-2.0324-0.6-1.45-2.58-2.52-4.21-0.8-0.66 0.69-0.58 2.01-0.58 2.01s-1.24-0.46-2.1-0.03c-2.11 1.06-1.67 3.27-0.45 4.26 0.54 0.44 1.218 0.66 1.97 0.94-0.0229 0.0459-1.0723-0.4726-2.18-0.28-1.56 0.12-3.19 1.68-2.06 3.75 0.46 0.84 1.74 1.17 1.74 1.17s-0.82 1.04-0.68 1.99c0.35 2.34 2.59 2.6 3.91 1.75 0.57-0.37 0.9477-0.7198 1.46-1.52 0.0141 7e-3 -0.7623 1.1439-0.9 1.91-0.37 1.52 0.61 3.55 2.93 3.12 0.94-0.17 1.65-1.29 1.65-1.29s0.73 1.1 1.68 1.26c2.33 0.39 3.27-1.66 2.87-3.18-0.17-0.65-0.54-1.27-0.98-1.85 0.105 0.1411 0.7221 0.9943 1.55 1.44 1.33 0.83 3.57 0.52 3.88-1.82 0-1.3132-0.72-1.97-0.72-1.97s1.0433-0.1245 1.72-1.21c1.07-2.11-0.58-3.64-2.15-3.72z" fill="url(#ak)"/></g><g filter="url(#bz)"><path d="m18.278 19.65 1.7188 3.0625c0.3125 0.5833 0.55 1.9625-1 2.8125" stroke="url(#aj)" stroke-width=".3"/></g><g filter="url(#by)"><path d="m6.0909 16.604c-0.12507-0.7656 0.3126-2.2344 2.422-2.2344 1.25 0 3.1406 0.9271 3.8906 1.2188" stroke="url(#ai)" stroke-width=".3"/></g><path d="m18.12 13.417c2.16 0 3.06 2.76 1.31 4.03 0.67 2.05-1.68 3.76-3.43 2.49-1.75 1.27-4.1-0.44-3.43-2.49-1.75-1.27-0.85-4.03 1.31-4.03 0.67-2.05 3.57-2.05 4.24 0z" fill="url(#ah)"/><g filter="url(#bx)"><path d="m4.7471 9.9316c0.4375-1.2812 1.1438-2.7438 3.9688-2.7188" stroke="url(#ag)" stroke-linecap="round" stroke-width=".5"/></g><g filter="url(#bw)"><path d="m10.716 4.2754c0.6459-0.55208 2.4875-1.275 4.6875 0.25" stroke="url(#ae)" stroke-linecap="round" stroke-width=".5"/></g><g filter="url(#bv)"><path d="m17.841 3.4628c0.9479-0.27083 3.15-0.20625 4.375 2.2188" stroke="url(#ad)" stroke-linecap="round" stroke-width=".5"/></g><g filter="url(#bu)"><path d="m24.356 6.5879c1.2188 0.20833 3.475 1.425 2.75 4.625" stroke="url(#ac)" stroke-linecap="round" stroke-width=".5"/></g><g filter="url(#bt)"><path d="m27.653 12.807c1.0209 0.6459 2.625 2.6063 0.875 5.2813" stroke="url(#ab)" stroke-linecap="round" stroke-width=".5"/></g><g filter="url(#br)"><path d="m27.419 19.65c0.4271 1.1667 0.7969 3.9062-1.7187 5.0625" stroke="url(#aa)" stroke-linecap="round" stroke-width=".5"/></g><g filter="url(#bq)"><path d="m17.497 28.307c1.5208 0.5105 4.7625 0.675 5.5625-2.75" stroke="url(#z)" stroke-linecap="round" stroke-width=".5"/></g><g filter="url(#bp)"><path d="m15.841 27.65c-0.4212 0.6006-1.694 1.6887-3.415 1.237-1.7209-0.4518-2.2945-1.8016-2.3662-2.4201" stroke="url(#y)" stroke-linecap="round" stroke-width=".5"/></g><g filter="url(#bo)"><path d="m5.0909 20.619c-0.35942 0.766-0.51548 2.393 0.17177 3.5157 0.52775 0.8621 1.8126 1.5468 3.4844 1.4531" stroke="url(#x)" stroke-linecap="round" stroke-width=".5"/></g><g filter="url(#bn)"><path d="m4.8409 13.088c-0.78125 0.2708-3.5626 2.75-0.5938 6.4687" stroke="url(#w)" stroke-linecap="round" stroke-width=".5"/></g><g filter="url(#bm)"><circle cx="14.028" cy="15.635" r="1.7031" fill="url(#v)"/></g><g filter="url(#bl)"><circle cx="14.656" cy="18.143" r="1.5078" fill="url(#t)"/></g><g filter="url(#bk)"><path d="m15.617 18.054c0.9463 0 1.7134-0.7672 1.7134-1.7135s-0.7671-1.7134-1.7134-1.7134-1.7135 0.7671-1.7135 1.7134 0.7672 1.7135 1.7135 1.7135z" fill="#E7371D"/></g><path d="m16 17.757c0.9002 0 1.63-0.7297 1.63-1.63 0-0.9002-0.7298-1.63-1.63-1.63-0.9003 0-1.63 0.7298-1.63 1.63 0 0.9003 0.7297 1.63 1.63 1.63z" fill="url(#s)"/><g filter="url(#bj)"><path d="m19.185 17.4-0.8438-0.3594c0.4063 0.875 0.1094 1.9844-0.4375 2.7813 1.0938-0.125 1.5156-1.625 1.2813-2.4219z" fill="url(#r)"/></g><g filter="url(#bi)"><path d="m17.976 13.593-0.4805 0.7812c-0.1746-0.9488-1.0584-1.6821-1.9654-2.0159 0.9646-0.5306 2.1763 0.4491 2.4459 1.2347z" fill="url(#q)"/></g><g filter="url(#bg)"><path d="m14.403 13.869 0.4219 0.3438c-1.0448-0.1637-1.8037 0.9101-1.8906 1.2968 0.1562-1.0312 0.6423-1.5572 1.4687-1.6406z" fill="url(#p)"/></g><g filter="url(#bf)"><path d="m16.153 19.322v-0.8125c-0.7982 0.6938-2.0155 0.8125-2.6874-0.4063 0.2969 1.6719 1.943 1.5873 2.6874 1.2188z" fill="url(#o)"/></g><g filter="url(#be)"><path d="m20.044 15.057c-0.25-0.9-1.0729-0.9062-1.4375-0.9687 1.1094 0.7187 1.0157 1.8281 0.8282 2.5312 0.2708-0.2448 0.8593-0.6625 0.6093-1.5625z" fill="url(#n)"/></g><g filter="url(#bd)"><path d="m8.5283 9.6659c0.38542-0.22396 1.375-0.57187 2.25-0.17187" stroke="url(#m)" stroke-width=".3"/></g><g filter="url(#bc)"><path d="m12.419 6.7752c0.7657-0.46875 2.75-0.17188 3.0938 1.9219" stroke="url(#l)" stroke-width=".3"/></g><g filter="url(#bb)"><path d="m18.935 6.5879c0.6354 0.09375 1.8437 0.78125 1.5937 2.7812" stroke="url(#k)" stroke-width=".4"/></g><g filter="url(#ba)"><path d="m24.356 14.26c0.6355 0.0937 1.8907 0.7812 1.6563 2.375" stroke="url(#i)" stroke-width=".4"/></g><g filter="url(#az)"><path d="m22.685 9.1816c0.6718 0.11979 1.9187 0.84066 1.5312 2.7657" stroke="url(#h)" stroke-width=".4"/></g><g filter="url(#ay)"><path d="m23.919 18.65c0.4948 0.4479 1.2375 1.6937 0.25 3.0937" stroke="url(#g)" stroke-width=".4"/></g><defs><filter id="cd" x="1.9258" y="2.2187" width="28.148" height="27.718" color-interpolation-filters="sRGB" filterUnits="userSpaceOnUse"><feFlood flood-opacity="0" result="BackgroundImageFix"/><feBlend in="SourceGraphic" in2="BackgroundImageFix" result="shape"/><feColorMatrix in="SourceAlpha" result="hardAlpha" values="0 0 0 0 0 0 0 0 0 0 0 0 0 0 0 0 0 0 127 0"/><feOffset/><feGaussianBlur stdDeviation="2"/><feComposite in2="hardAlpha" k2="-1" k3="1" operator="arithmetic"/><feColorMatrix values="0 0 0 0 0.992157 0 0 0 0 0.643137 0 0 0 0 0.101961 0 0 0 1 0"/><feBlend in2="shape" result="effect1_innerShadow_28327_7239"/><feColorMatrix in="SourceAlpha" result="hardAlpha" values="0 0 0 0 0 0 0 0 0 0 0 0 0 0 0 0 0 0 127 0"/><feOffset dy="-0.2"/><feGaussianBlur stdDeviation="0.125"/><feComposite in2="hardAlpha" k2="-1" k3="1" operator="arithmetic"/><feColorMatrix values="0 0 0 0 0.952941 0 0 0 0 0.411765 0 0 0 0 0.513726 0 0 0 1 0"/><feBlend in2="effect1_innerShadow_28327_7239" result="effect2_innerShadow_28327_7239"/><feColorMatrix in="SourceAlpha" result="hardAlpha" values="0 0 0 0 0 0 0 0 0 0 0 0 0 0 0 0 0 0 127 0"/><feOffset dy="0.1"/><feGaussianBlur stdDeviation="0.125"/><feComposite in2="hardAlpha" k2="-1" k3="1" operator="arithmetic"/><feColorMatrix values="0 0 0 0 0.941176 0 0 0 0 0.552941 0 0 0 0 0.337255 0 0 0 1 0"/><feBlend in2="effect2_innerShadow_28327_7239" result="effect3_innerShadow_28327_7239"/></filter><filter id="bs" x="1.9977" y="2.4629" width="28.005" height="27.33" color-interpolation-filters="sRGB" filterUnits="userSpaceOnUse"><feFlood flood-opacity="0" result="BackgroundImageFix"/><feBlend in="SourceGraphic" in2="BackgroundImageFix" result="shape"/><feGaussianBlur result="effect1_foregroundBlur_28327_7239" stdDeviation="0.5"/></filter><filter id="bh" x="2.2681" y="2.7944" width="27.479" height="26.667" color-interpolation-filters="sRGB" filterUnits="userSpaceOnUse"><feFlood flood-opacity="0" result="BackgroundImageFix"/><feBlend in="SourceGraphic" in2="BackgroundImageFix" result="shape"/><feGaussianBlur result="effect1_foregroundBlur_28327_7239" stdDeviation="1.25"/></filter><filter id="ax" x="8.2783" y="3.6504" width="3.375" height="6.375" color-interpolation-filters="sRGB" filterUnits="userSpaceOnUse"><feFlood flood-opacity="0" result="BackgroundImageFix"/><feBlend in="SourceGraphic" in2="BackgroundImageFix" result="shape"/><feGaussianBlur result="effect1_foregroundBlur_28327_7239" stdDeviation="0.25"/></filter><filter id="aw" x="15.381" y="2.5696" width="3.8984" height="8.4246" color-interpolation-filters="sRGB" filterUnits="userSpaceOnUse"><feFlood flood-opacity="0" result="BackgroundImageFix"/><feBlend in="SourceGraphic" in2="BackgroundImageFix" result="shape"/><feGaussianBlur result="effect1_foregroundBlur_28327_7239" stdDeviation="0.25"/></filter><filter id="av" x="18.514" y="6.148" width="7.6146" height="6.2312" color-interpolation-filters="sRGB" filterUnits="userSpaceOnUse"><feFlood flood-opacity="0" result="BackgroundImageFix"/><feBlend in="SourceGraphic" in2="BackgroundImageFix" result="shape"/><feGaussianBlur result="effect1_foregroundBlur_28327_7239" stdDeviation="0.25"/></filter><filter id="au" x="20.726" y="17.273" width="7.5494" height="5.8665" color-interpolation-filters="sRGB" filterUnits="userSpaceOnUse"><feFlood flood-opacity="0" result="BackgroundImageFix"/><feBlend in="SourceGraphic" in2="BackgroundImageFix" result="shape"/><feGaussianBlur result="effect1_foregroundBlur_28327_7239" stdDeviation="0.25"/></filter><filter id="at" x="18.538" y="19.735" width="5.1694" height="8.4517" color-interpolation-filters="sRGB" filterUnits="userSpaceOnUse"><feFlood flood-opacity="0" result="BackgroundImageFix"/><feBlend in="SourceGraphic" in2="BackgroundImageFix" result="shape"/><feGaussianBlur result="effect1_foregroundBlur_28327_7239" stdDeviation="0.25"/></filter><filter id="as" x="12.907" y="20.457" width="3.8153" height="8.917" color-interpolation-filters="sRGB" filterUnits="userSpaceOnUse"><feFlood flood-opacity="0" result="BackgroundImageFix"/><feBlend in="SourceGraphic" in2="BackgroundImageFix" result="shape"/><feGaussianBlur result="effect1_foregroundBlur_28327_7239" stdDeviation="0.25"/></filter><filter id="ar" x="5.9567" y="19.329" width="7.9167" height="6.4351" color-interpolation-filters="sRGB" filterUnits="userSpaceOnUse"><feFlood flood-opacity="0" result="BackgroundImageFix"/><feBlend in="SourceGraphic" in2="BackgroundImageFix" result="shape"/><feGaussianBlur result="effect1_foregroundBlur_28327_7239" stdDeviation="0.25"/></filter><filter id="cc" x="2.8646" y="17.093" width="9.2808" height="3.4529" color-interpolation-filters="sRGB" filterUnits="userSpaceOnUse"><feFlood flood-opacity="0" result="BackgroundImageFix"/><feBlend in="SourceGraphic" in2="BackgroundImageFix" result="shape"/><feGaussianBlur result="effect1_foregroundBlur_28327_7239" stdDeviation="0.25"/></filter><filter id="cb" x="4.4984" y="9.2075" width="7.8614" height="6.0662" color-interpolation-filters="sRGB" filterUnits="userSpaceOnUse"><feFlood flood-opacity="0" result="BackgroundImageFix"/><feBlend in="SourceGraphic" in2="BackgroundImageFix" result="shape"/><feGaussianBlur result="effect1_foregroundBlur_28327_7239" stdDeviation="0.25"/></filter><filter id="ca" x="5.5939" y="6.0903" width="20.827" height="20.075" color-interpolation-filters="sRGB" filterUnits="userSpaceOnUse"><feFlood flood-opacity="0" result="BackgroundImageFix"/><feBlend in="SourceGraphic" in2="BackgroundImageFix" result="shape"/><feColorMatrix in="SourceAlpha" result="hardAlpha" values="0 0 0 0 0 0 0 0 0 0 0 0 0 0 0 0 0 0 127 0"/><feOffset/><feGaussianBlur stdDeviation="1"/><feComposite in2="hardAlpha" k2="-1" k3="1" operator="arithmetic"/><feColorMatrix values="0 0 0 0 0.968627 0 0 0 0 0.721569 0 0 0 0 0.235294 0 0 0 1 0"/><feBlend in2="shape" result="effect1_innerShadow_28327_7239"/></filter><filter id="bz" x="17.648" y="19.077" width="3.2294" height="7.0801" color-interpolation-filters="sRGB" filterUnits="userSpaceOnUse"><feFlood flood-opacity="0" result="BackgroundImageFix"/><feBlend in="SourceGraphic" in2="BackgroundImageFix" result="shape"/><feGaussianBlur result="effect1_foregroundBlur_28327_7239" stdDeviation="0.25"/></filter><filter id="by" x="5.4214" y="13.719" width="7.5364" height="3.4084" color-interpolation-filters="sRGB" filterUnits="userSpaceOnUse"><feFlood flood-opacity="0" result="BackgroundImageFix"/><feBlend in="SourceGraphic" in2="BackgroundImageFix" result="shape"/><feGaussianBlur result="effect1_foregroundBlur_28327_7239" stdDeviation="0.25"/></filter><filter id="bx" x="3.997" y="6.4626" width="5.4688" height="4.219" color-interpolation-filters="sRGB" filterUnits="userSpaceOnUse"><feFlood flood-opacity="0" result="BackgroundImageFix"/><feBlend in="SourceGraphic" in2="BackgroundImageFix" result="shape"/><feGaussianBlur result="effect1_foregroundBlur_28327_7239" stdDeviation="0.25"/></filter><filter id="bw" x="9.9658" y="2.8618" width="6.1875" height="2.4136" color-interpolation-filters="sRGB" filterUnits="userSpaceOnUse"><feFlood flood-opacity="0" result="BackgroundImageFix"/><feBlend in="SourceGraphic" in2="BackgroundImageFix" result="shape"/><feGaussianBlur result="effect1_foregroundBlur_28327_7239" stdDeviation="0.25"/></filter><filter id="bv" x="17.091" y="2.6045" width="5.8751" height="3.8272" color-interpolation-filters="sRGB" filterUnits="userSpaceOnUse"><feFlood flood-opacity="0" result="BackgroundImageFix"/><feBlend in="SourceGraphic" in2="BackgroundImageFix" result="shape"/><feGaussianBlur result="effect1_foregroundBlur_28327_7239" stdDeviation="0.25"/></filter><filter id="bu" x="23.606" y="5.8379" width="4.3905" height="6.125" color-interpolation-filters="sRGB" filterUnits="userSpaceOnUse"><feFlood flood-opacity="0" result="BackgroundImageFix"/><feBlend in="SourceGraphic" in2="BackgroundImageFix" result="shape"/><feGaussianBlur result="effect1_foregroundBlur_28327_7239" stdDeviation="0.25"/></filter><filter id="bt" x="26.903" y="12.057" width="3.1538" height="6.7812" color-interpolation-filters="sRGB" filterUnits="userSpaceOnUse"><feFlood flood-opacity="0" result="BackgroundImageFix"/><feBlend in="SourceGraphic" in2="BackgroundImageFix" result="shape"/><feGaussianBlur result="effect1_foregroundBlur_28327_7239" stdDeviation="0.25"/></filter><filter id="br" x="24.95" y="18.9" width="3.5261" height="6.5625" color-interpolation-filters="sRGB" filterUnits="userSpaceOnUse"><feFlood flood-opacity="0" result="BackgroundImageFix"/><feBlend in="SourceGraphic" in2="BackgroundImageFix" result="shape"/><feGaussianBlur result="effect1_foregroundBlur_28327_7239" stdDeviation="0.25"/></filter><filter id="bq" x="16.747" y="24.807" width="7.0626" height="4.5286" color-interpolation-filters="sRGB" filterUnits="userSpaceOnUse"><feFlood flood-opacity="0" result="BackgroundImageFix"/><feBlend in="SourceGraphic" in2="BackgroundImageFix" result="shape"/><feGaussianBlur result="effect1_foregroundBlur_28327_7239" stdDeviation="0.25"/></filter><filter id="bp" x="9.3096" y="25.717" width="7.2812" height="4.0276" color-interpolation-filters="sRGB" filterUnits="userSpaceOnUse"><feFlood flood-opacity="0" result="BackgroundImageFix"/><feBlend in="SourceGraphic" in2="BackgroundImageFix" result="shape"/><feGaussianBlur result="effect1_foregroundBlur_28327_7239" stdDeviation="0.25"/></filter><filter id="bo" x="4.0343" y="19.869" width="5.4628" height="6.4773" color-interpolation-filters="sRGB" filterUnits="userSpaceOnUse"><feFlood flood-opacity="0" result="BackgroundImageFix"/><feBlend in="SourceGraphic" in2="BackgroundImageFix" result="shape"/><feGaussianBlur result="effect1_foregroundBlur_28327_7239" stdDeviation="0.25"/></filter><filter id="bn" x="2.1579" y="12.338" width="3.433" height="7.9688" color-interpolation-filters="sRGB" filterUnits="userSpaceOnUse"><feFlood flood-opacity="0" result="BackgroundImageFix"/><feBlend in="SourceGraphic" in2="BackgroundImageFix" result="shape"/><feGaussianBlur result="effect1_foregroundBlur_28327_7239" stdDeviation="0.25"/></filter><filter id="bm" x="11.825" y="13.432" width="4.4062" height="4.4062" color-interpolation-filters="sRGB" filterUnits="userSpaceOnUse"><feFlood flood-opacity="0" result="BackgroundImageFix"/><feBlend in="SourceGraphic" in2="BackgroundImageFix" result="shape"/><feGaussianBlur result="effect1_foregroundBlur_28327_7239" stdDeviation="0.25"/></filter><filter id="bl" x="12.648" y="16.135" width="4.0156" height="4.0156" color-interpolation-filters="sRGB" filterUnits="userSpaceOnUse"><feFlood flood-opacity="0" result="BackgroundImageFix"/><feBlend in="SourceGraphic" in2="BackgroundImageFix" result="shape"/><feGaussianBlur result="effect1_foregroundBlur_28327_7239" stdDeviation="0.25"/></filter><filter id="bk" x="13.403" y="14.127" width="4.4269" height="4.4268" color-interpolation-filters="sRGB" filterUnits="userSpaceOnUse"><feFlood flood-opacity="0" result="BackgroundImageFix"/><feBlend in="SourceGraphic" in2="BackgroundImageFix" result="shape"/><feGaussianBlur result="effect1_foregroundBlur_28327_7239" stdDeviation="0.25"/></filter><filter id="bj" x="17.603" y="16.741" width="1.9439" height="3.3812" color-interpolation-filters="sRGB" filterUnits="userSpaceOnUse"><feFlood flood-opacity="0" result="BackgroundImageFix"/><feBlend in="SourceGraphic" in2="BackgroundImageFix" result="shape"/><feGaussianBlur result="effect1_foregroundBlur_28327_7239" stdDeviation="0.15"/></filter><filter id="bi" x="15.23" y="11.908" width="3.0459" height="2.7668" color-interpolation-filters="sRGB" filterUnits="userSpaceOnUse"><feFlood flood-opacity="0" result="BackgroundImageFix"/><feBlend in="SourceGraphic" in2="BackgroundImageFix" result="shape"/><feGaussianBlur result="effect1_foregroundBlur_28327_7239" stdDeviation="0.15"/></filter><filter id="bg" x="12.635" y="13.569" width="2.4906" height="2.2406" color-interpolation-filters="sRGB" filterUnits="userSpaceOnUse"><feFlood flood-opacity="0" result="BackgroundImageFix"/><feBlend in="SourceGraphic" in2="BackgroundImageFix" result="shape"/><feGaussianBlur result="effect1_foregroundBlur_28327_7239" stdDeviation="0.15"/></filter><filter id="bf" x="13.166" y="17.804" width="3.2874" height="2.0382" color-interpolation-filters="sRGB" filterUnits="userSpaceOnUse"><feFlood flood-opacity="0" result="BackgroundImageFix"/><feBlend in="SourceGraphic" in2="BackgroundImageFix" result="shape"/><feGaussianBlur result="effect1_foregroundBlur_28327_7239" stdDeviation="0.15"/></filter><filter id="be" x="18.306" y="13.788" width="2.098" height="3.1312" color-interpolation-filters="sRGB" filterUnits="userSpaceOnUse"><feFlood flood-opacity="0" result="BackgroundImageFix"/><feBlend in="SourceGraphic" in2="BackgroundImageFix" result="shape"/><feGaussianBlur result="effect1_foregroundBlur_28327_7239" stdDeviation="0.15"/></filter><filter id="bd" x="7.9529" y="8.6611" width="3.3878" height="1.6345" color-interpolation-filters="sRGB" filterUnits="userSpaceOnUse"><feFlood flood-opacity="0" result="BackgroundImageFix"/><feBlend in="SourceGraphic" in2="BackgroundImageFix" result="shape"/><feGaussianBlur result="effect1_foregroundBlur_28327_7239" stdDeviation="0.25"/></filter><filter id="bc" x="11.841" y="5.9331" width="4.3201" height="3.2883" color-interpolation-filters="sRGB" filterUnits="userSpaceOnUse"><feFlood flood-opacity="0" result="BackgroundImageFix"/><feBlend in="SourceGraphic" in2="BackgroundImageFix" result="shape"/><feGaussianBlur result="effect1_foregroundBlur_28327_7239" stdDeviation="0.25"/></filter><filter id="bb" x="18.405" y="5.8901" width="2.8564" height="4.0039" color-interpolation-filters="sRGB" filterUnits="userSpaceOnUse"><feFlood flood-opacity="0" result="BackgroundImageFix"/><feBlend in="SourceGraphic" in2="BackgroundImageFix" result="shape"/><feGaussianBlur result="effect1_foregroundBlur_28327_7239" stdDeviation="0.25"/></filter><filter id="ba" x="23.827" y="13.562" width="2.9142" height="3.6018" color-interpolation-filters="sRGB" filterUnits="userSpaceOnUse"><feFlood flood-opacity="0" result="BackgroundImageFix"/><feBlend in="SourceGraphic" in2="BackgroundImageFix" result="shape"/><feGaussianBlur result="effect1_foregroundBlur_28327_7239" stdDeviation="0.25"/></filter><filter id="az" x="22.15" y="8.4849" width="2.8394" height="4.002" color-interpolation-filters="sRGB" filterUnits="userSpaceOnUse"><feFlood flood-opacity="0" result="BackgroundImageFix"/><feBlend in="SourceGraphic" in2="BackgroundImageFix" result="shape"/><feGaussianBlur result="effect1_foregroundBlur_28327_7239" stdDeviation="0.25"/></filter><filter id="ay" x="23.485" y="18.202" width="1.6703" height="3.9572" color-interpolation-filters="sRGB" filterUnits="userSpaceOnUse"><feFlood flood-opacity="0" result="BackgroundImageFix"/><feBlend in="SourceGraphic" in2="BackgroundImageFix" result="shape"/><feGaussianBlur result="effect1_foregroundBlur_28327_7239" stdDeviation="0.15"/></filter><linearGradient id="aq" x1="16" x2="16" y1="30.338" y2="26.838" gradientUnits="userSpaceOnUse"><stop stop-color="#F2697F" offset="0"/><stop stop-color="#F2697F" stop-opacity="0" offset="1"/></linearGradient><linearGradient id="af" x1="9.3721" x2="10.81" y1="8.4316" y2="6.4941" gradientUnits="userSpaceOnUse"><stop stop-color="#F15416" offset="0"/><stop stop-color="#F15416" stop-opacity="0" offset="1"/></linearGradient><linearGradient id="u" x1="15.7" x2="18.685" y1="7.916" y2="6.2129" gradientUnits="userSpaceOnUse"><stop stop-color="#F15416" offset="0"/><stop stop-color="#F15416" stop-opacity="0" offset="1"/></linearGradient><linearGradient id="j" x1="20.35" x2="23.77" y1="9.6665" y2="9.9912" gradientUnits="userSpaceOnUse"><stop stop-color="#F15416" offset="0"/><stop stop-color="#F15416" stop-opacity="0" offset="1"/></linearGradient><linearGradient id="f" x1="25.622" x2="25.95" y1="18.15" y2="21.463" gradientUnits="userSpaceOnUse"><stop stop-color="#F15416" offset="0"/><stop stop-color="#F15416" stop-opacity="0" offset="1"/></linearGradient><linearGradient id="e" x1="22.935" x2="21.067" y1="22.588" y2="25.876" gradientUnits="userSpaceOnUse"><stop stop-color="#F15416" offset="0"/><stop stop-color="#F15416" stop-opacity="0" offset="1"/></linearGradient><linearGradient id="d" x1="16.508" x2="13.164" y1="26.082" y2="27.176" gradientUnits="userSpaceOnUse"><stop stop-color="#F15416" offset="0"/><stop stop-color="#F15416" stop-opacity="0" offset="1"/></linearGradient><linearGradient id="c" x1="10.606" x2="7.2996" y1="24.171" y2="22.97" gradientUnits="userSpaceOnUse"><stop stop-color="#F15416" offset="0"/><stop stop-color="#F15416" stop-opacity="0" offset="1"/></linearGradient><linearGradient id="b" x1="6.7689" x2="4.9424" y1="19.981" y2="16.974" gradientUnits="userSpaceOnUse"><stop stop-color="#F15416" offset="0"/><stop stop-color="#F15416" stop-opacity="0" offset="1"/></linearGradient><linearGradient id="a" x1="6.8579" x2="6.932" y1="13.55" y2="10.033" gradientUnits="userSpaceOnUse"><stop stop-color="#F15416" offset="0"/><stop stop-color="#F15416" stop-opacity="0" offset="1"/></linearGradient><radialGradient id="ap" cx="0" cy="0" r="1" gradientTransform="translate(16.008 17.15) rotate(90) scale(9.625 9.9857)" gradientUnits="userSpaceOnUse"><stop stop-color="#F0883E" offset=".42291"/><stop stop-color="#FFC459" offset="1"/></radialGradient><radialGradient id="ao" cx="0" cy="0" r="1" gradientTransform="translate(16.008 12.619) rotate(268.58) scale(4.2044 .50427)" gradientUnits="userSpaceOnUse"><stop stop-color="#F18200" offset="0"/><stop stop-color="#F18200" stop-opacity="0" offset="1"/></radialGradient><radialGradient id="an" cx="0" cy="0" r="1" gradientTransform="translate(15.903 15.525) rotate(-90) scale(6.375 2.4485)" gradientUnits="userSpaceOnUse"><stop stop-color="#F18200" offset="0"/><stop stop-color="#F18200" stop-opacity="0" offset="1"/></radialGradient><radialGradient id="am" cx="0" cy="0" r="1" gradientTransform="translate(14.091 15.432) rotate(197.29) scale(6.9386 .58352)" gradientUnits="userSpaceOnUse"><stop stop-color="#F18200" offset="0"/><stop stop-color="#F18200" stop-opacity="0" offset="1"/></radialGradient><radialGradient id="al" cx="0" cy="0" r="1" gradientTransform="translate(14.185 18.4) rotate(123.46) scale(6.4051 .53865)" gradientUnits="userSpaceOnUse"><stop stop-color="#F18200" offset="0"/><stop stop-color="#F18200" stop-opacity="0" offset="1"/></radialGradient><radialGradient id="ak" cx="0" cy="0" r="1" gradientTransform="translate(21.278 8.6817) rotate(122.47) scale(1.6298 .60878)" gradientUnits="userSpaceOnUse"><stop stop-color="#FFD875" offset="0"/><stop stop-color="#FFD875" stop-opacity="0" offset="1"/></radialGradient><linearGradient id="aj" x1="20.497" x2="16.497" y1="24.838" y2="32.744" gradientUnits="userSpaceOnUse"><stop stop-color="#FFC273" offset="0"/><stop stop-color="#FFC273" stop-opacity="0" offset="1"/></linearGradient><linearGradient id="ai" x1="13.226" x2="13.135" y1="15.77" y2="18.108" gradientUnits="userSpaceOnUse"><stop stop-color="#FFC273" offset="0"/><stop stop-color="#FFC273" stop-opacity="0" offset="1"/></linearGradient><linearGradient id="ah" x1="11.122" x2="21.122" y1="16.775" y2="16.775" gradientUnits="userSpaceOnUse"><stop stop-color="#E64E00" offset="0"/><stop stop-color="#FC6509" offset="1"/></linearGradient><linearGradient id="ag" x1="8.3096" x2="4.0249" y1="7.2126" y2="12.558" gradientUnits="userSpaceOnUse"><stop stop-color="#FFB155" offset="0"/><stop stop-color="#FFB155" stop-opacity="0" offset="1"/></linearGradient><linearGradient id="ae" x1="14.014" x2="13.264" y1="3.9122" y2="5.5139" gradientUnits="userSpaceOnUse"><stop stop-color="#FFB45C" offset="0"/><stop stop-color="#FFB155" stop-opacity="0" offset="1"/></linearGradient><linearGradient id="ad" x1="20.919" x2="18.504" y1="4.1191" y2="6.0091" gradientUnits="userSpaceOnUse"><stop stop-color="#FFB45C" offset="0"/><stop stop-color="#FFB155" stop-opacity="0" offset="1"/></linearGradient><radialGradient id="ac" cx="0" cy="0" r="1" gradientTransform="translate(26.466 7.9941) rotate(136.3) scale(1.945 6.1334)" gradientUnits="userSpaceOnUse"><stop stop-color="#FFC178" offset="0"/><stop stop-color="#FFB155" stop-opacity="0" offset="1"/></radialGradient><radialGradient id="ab" cx="0" cy="0" r="1" gradientTransform="translate(28.841 13.369) rotate(120.71) scale(3.6712 9.5315)" gradientUnits="userSpaceOnUse"><stop stop-color="#FFC178" offset="0"/><stop stop-color="#FFB155" stop-opacity="0" offset="1"/></radialGradient><radialGradient id="aa" cx="0" cy="0" r="1" gradientTransform="translate(27.726 20.088) rotate(107.87) scale(7.9786 22.708)" gradientUnits="userSpaceOnUse"><stop stop-color="#FFC178" offset="0"/><stop stop-color="#FFB155" stop-opacity="0" offset="1"/></radialGradient><radialGradient id="z" cx="0" cy="0" r="1" gradientTransform="translate(22.81 26.65) rotate(155.99) scale(4.7551 8.8276)" gradientUnits="userSpaceOnUse"><stop stop-color="#FFC178" offset="0"/><stop stop-color="#FFB155" stop-opacity="0" offset="1"/></radialGradient><radialGradient id="y" cx="0" cy="0" r="1" gradientTransform="translate(14.122 28.588) rotate(202.27) scale(7.0915 10.941)" gradientUnits="userSpaceOnUse"><stop stop-color="#FFC178" offset="0"/><stop stop-color="#FFB155" stop-opacity="0" offset="1"/></radialGradient><radialGradient id="x" cx="0" cy="0" r="1" gradientTransform="translate(5.0283 24.494) rotate(-48.608) scale(4.9153 15.061)" gradientUnits="userSpaceOnUse"><stop stop-color="#FFC178" offset="0"/><stop stop-color="#FFB155" stop-opacity="0" offset=".54745"/></radialGradient><linearGradient id="w" x1="3.3096" x2="-1.0881" y1="12.807" y2="17.673" gradientUnits="userSpaceOnUse"><stop stop-color="#FFBF75" offset="0"/><stop stop-color="#FFB155" stop-opacity="0" offset="1"/></linearGradient><linearGradient id="v" x1="13.185" x2="15.528" y1="14.119" y2="17.338" gradientUnits="userSpaceOnUse"><stop stop-color="#FF805B" offset="0"/><stop stop-color="#F6724C" stop-opacity="0" offset="1"/></linearGradient><linearGradient id="t" x1="15.265" x2="14.103" y1="19.18" y2="15.252" gradientUnits="userSpaceOnUse"><stop stop-color="#FD7958" offset="0"/><stop stop-color="#FD7958" stop-opacity="0" offset="1"/></linearGradient><radialGradient id="s" cx="0" cy="0" r="1" gradientTransform="translate(16.622 15.869) rotate(132.06) scale(1.7258 1.8339)" gradientUnits="userSpaceOnUse"><stop stop-color="#FEECFF" offset="0"/><stop stop-color="#D8B0EC" offset="1"/></radialGradient><linearGradient id="r" x1="19.159" x2="17.997" y1="17.541" y2="20.338" gradientUnits="userSpaceOnUse"><stop stop-color="#FF8D61" offset="0"/><stop stop-color="#FF8D61" stop-opacity="0" offset="1"/></linearGradient><linearGradient id="q" x1="17.874" x2="15.308" y1="13.493" y2="11.883" gradientUnits="userSpaceOnUse"><stop stop-color="#FF8D61" offset="0"/><stop stop-color="#FF8D61" stop-opacity="0" offset="1"/></linearGradient><linearGradient id="p" x1="14.226" x2="12.074" y1="13.965" y2="16.095" gradientUnits="userSpaceOnUse"><stop stop-color="#FF8D61" offset="0"/><stop stop-color="#FF8D61" stop-opacity="0" offset="1"/></linearGradient><linearGradient id="o" x1="15.73" x2="12.774" y1="19.308" y2="18.647" gradientUnits="userSpaceOnUse"><stop stop-color="#FF8D61" offset="0"/><stop stop-color="#FF8D61" stop-opacity="0" offset="1"/></linearGradient><linearGradient id="n" x1="20.091" x2="18.517" y1="15.307" y2="16.705" gradientUnits="userSpaceOnUse"><stop stop-color="#FF8E5D" offset="0"/><stop stop-color="#FF8D61" stop-opacity="0" offset="1"/></linearGradient><linearGradient id="m" x1="11.071" x2="11.064" y1="9.5334" y2="9.9053" gradientUnits="userSpaceOnUse"><stop stop-color="#FFC963" offset="0"/><stop stop-color="#FFC273" stop-opacity="0" offset="1"/></linearGradient><linearGradient id="l" x1="14.34" x2="15.513" y1="6.8238" y2="10.459" gradientUnits="userSpaceOnUse"><stop stop-color="#FFD478" offset="0"/><stop stop-color="#FFD478" stop-opacity="0" offset="1"/></linearGradient><linearGradient id="k" x1="20.153" x2="18.866" y1="7.4004" y2="7.9497" gradientUnits="userSpaceOnUse"><stop stop-color="#FFD478" offset="0"/><stop stop-color="#FFD478" stop-opacity="0" offset="1"/></linearGradient><linearGradient id="i" x1="25.575" x2="24.288" y1="15.072" y2="15.622" gradientUnits="userSpaceOnUse"><stop stop-color="#FFD478" offset="0"/><stop stop-color="#FFD478" stop-opacity="0" offset="1"/></linearGradient><linearGradient id="h" x1="23.487" x2="22.95" y1="10.213" y2="10.869" gradientUnits="userSpaceOnUse"><stop stop-color="#FFD478" offset="0"/><stop stop-color="#FFD478" stop-opacity="0" offset="1"/></linearGradient><linearGradient id="g" x1="24.122" x2="22.728" y1="18.791" y2="20.359" gradientUnits="userSpaceOnUse"><stop stop-color="#FFD478" offset="0"/><stop stop-color="#FFD478" stop-opacity="0" offset="1"/></linearGradient></defs></svg>
