<?xml version="1.0" encoding="UTF-8"?>
<svg width="1284px" height="2778px" viewBox="0 0 1284 2778" version="1.1" xmlns="http://www.w3.org/2000/svg" xmlns:xlink="http://www.w3.org/1999/xlink">
    <title>WorkThemeLight</title>
    <g id="Page-1" stroke="none" stroke-width="1" fill="none" fill-rule="evenodd">
        <g id="Work" transform="translate(-1453, 0)">
            <g id="Work-Theme-Light" transform="translate(1453, 0)">
                <g id="Content" transform="translate(0, 207)">
                    <rect id="Content-Background" fill="#FFFFFF" x="0" y="65" width="1283" height="2278"></rect>
                    <g id="Bubbles-right" transform="translate(338.6037, 533)" fill="#DCEEFF">
                        <g id="5" transform="translate(604.6981, 1012.4305) scale(-1, 1) translate(-604.6981, -1012.4305)translate(286, 907)">
                            <path d="M10.3537526,186.967326 C10.6959155,190.498021 9.90634128,194.480307 7.98502989,198.914185 C6.0637185,203.348063 3.40204187,207.330349 0,210.861044 C6.17998973,210.82923 10.8678748,210.386069 14.0636551,209.531562 C17.2594354,208.677056 21.9473204,206.613267 28.1273102,203.340197 C24.1997095,200.79764 21.1678847,198.542505 19.0318356,196.574792 C16.8957865,194.607079 14.0030921,191.40459 10.3537526,186.967326 Z" id="Path-2"></path>
                            <rect id="Rectangle" x="1.39628015" y="0" width="636" height="210" rx="52"></rect>
                        </g>
                        <g id="4" transform="translate(461, 782.5) scale(-1, 1) translate(-461, -782.5)translate(0, 668)">
                            <rect id="Rectangle" x="0" y="0" width="922" height="229" rx="52"></rect>
                        </g>
                        <g id="2" transform="translate(533.1981, 114.9305) scale(-1, 1) translate(-533.1981, -114.9305)translate(143, 0)">
                            <path d="M10.3537526,205.967326 C10.6959155,209.498021 9.90634128,213.480307 7.98502989,217.914185 C6.0637185,222.348063 3.40204187,226.330349 0,229.861044 C6.17998973,229.82923 10.8678748,229.386069 14.0636551,228.531562 C17.2594354,227.677056 21.9473204,225.613267 28.1273102,222.340197 C24.1997095,219.79764 21.1678847,217.542505 19.0318356,215.574792 C16.8957865,213.607079 14.0030921,210.40459 10.3537526,205.967326 Z" id="Path-2"></path>
                            <rect id="Rectangle" x="1.39628015" y="0" width="779" height="229" rx="52"></rect>
                        </g>
                    </g>
                    <g id="Bubbles-left" transform="translate(21.6037, 0)" fill="#E7E7E7">
                        <g id="7" transform="translate(0, 2067)">
                            <path d="M10.3537526,205.967326 C10.6959155,209.498021 9.90634128,213.480307 7.98502989,217.914185 C6.0637185,222.348063 3.40204187,226.330349 0,229.861044 C6.17998973,229.82923 10.8678748,229.386069 14.0636551,228.531562 C17.2594354,227.677056 21.9473204,225.613267 28.1273102,222.340197 C24.1997095,219.79764 21.1678847,217.542505 19.0318356,215.574792 C16.8957865,213.607079 14.0030921,210.40459 10.3537526,205.967326 Z" id="Path-2"></path>
                            <rect id="Rectangle" x="1.39628015" y="0" width="932" height="229" rx="52"></rect>
                        </g>
                        <g id="6" transform="translate(0, 1674)">
                            <path d="M10.3537526,205.967326 C10.6959155,209.498021 9.90634128,213.480307 7.98502989,217.914185 C6.0637185,222.348063 3.40204187,226.330349 0,229.861044 C6.17998973,229.82923 10.8678748,229.386069 14.0636551,228.531562 C17.2594354,227.677056 21.9473204,225.613267 28.1273102,222.340197 C24.1997095,219.79764 21.1678847,217.542505 19.0318356,215.574792 C16.8957865,213.607079 14.0030921,210.40459 10.3537526,205.967326 Z" id="Path-2"></path>
                            <rect id="Rectangle" x="1.39628015" y="0" width="886" height="229" rx="52"></rect>
                        </g>
                        <g id="3" transform="translate(0, 786)">
                            <path d="M10.3537526,365.967326 C10.6959155,369.498021 9.90634128,373.480307 7.98502989,377.914185 C6.0637185,382.348063 3.40204187,386.330349 0,389.861044 C6.17998973,389.82923 10.8678748,389.386069 14.0636551,388.531562 C17.2594354,387.677056 21.9473204,385.613267 28.1273102,382.340197 C24.1997095,379.79764 21.1678847,377.542505 19.0318356,375.574792 C16.8957865,373.607079 14.0030921,370.40459 10.3537526,365.967326 Z" id="Path-2"></path>
                            <rect id="Rectangle" x="1.39628015" y="0" width="844" height="389" rx="52"></rect>
                        </g>
                        <g id="1">
                            <path d="M10.3537526,484.967326 C10.6959155,488.498021 9.90634128,492.480307 7.98502989,496.914185 C6.0637185,501.348063 3.40204187,505.330349 0,508.861044 C6.17998973,508.82923 10.8678748,508.386069 14.0636551,507.531562 C17.2594354,506.677056 21.9473204,504.613267 28.1273102,501.340197 C24.1997095,498.79764 21.1678847,496.542505 19.0318356,494.574792 C16.8957865,492.607079 14.0030921,489.40459 10.3537526,484.967326 Z" id="Path-2"></path>
                            <rect id="Rectangle" x="1.39628015" y="0" width="935" height="508" rx="52"></rect>
                        </g>
                    </g>
                    <rect id="Day" fill="#F6F6F6" x="553.60372" y="1953" width="176" height="67" rx="33"></rect>
                </g>
                <g id="Footer" transform="translate(0, 2534)">
                    <rect id="Rectangle" fill="#F5F6F5" x="0" y="0" width="1284" height="244"></rect>
                    <line x1="0.5" y1="0.5" x2="1283.5" y2="0.5" id="Line-3" stroke="#BDBDBD" stroke-linecap="square"></line>
                    <g id="mic.fill" transform="translate(1193, 35)" fill="#8E8E93" fill-rule="nonzero">
                        <rect id="Rectangle" opacity="0" x="0" y="0" width="44" height="72"></rect>
                        <path d="M0,33.6513126 C0,45.9561393 8.00889212,54.649009 19.9734236,55.5458087 L19.9734236,63.8404409 L7.9356488,63.8404409 C6.78802564,63.8404409 5.88460245,64.7620667 5.88460245,65.9078074 C5.88460245,67.0535481 6.78802564,68 7.9356488,68 L36.0889212,68 C37.2120744,68 38.1155309,67.0535481 38.1155309,65.9078074 C38.1155309,64.7620667 37.2120744,63.8404409 36.0889212,63.8404409 L24.0511464,63.8404409 L24.0511464,55.5458087 C35.9912412,54.649009 44,45.9561393 44,33.6513126 L44,27.2747503 C44,26.1289756 43.0965435,25.2073498 41.9733903,25.2073498 C40.8259005,25.2073498 39.922444,26.1289756 39.922444,27.2747503 L39.922444,33.501846 C39.922444,44.3618286 32.865815,51.710009 22.0000667,51.710009 C11.1343183,51.710009 4.07768938,44.3618286 4.07768938,33.501846 L4.07768938,27.2747503 C4.07768938,26.1289756 3.17425952,25.2073498 2.05105969,25.2073498 C0.903443197,25.2073498 0,26.1289756 0,27.2747503 L0,33.6513126 Z M22.0000667,44.3618286 C28.2020791,44.3618286 32.3042051,39.6292292 32.3042051,32.9289756 L32.3042051,11.4329891 C32.3042051,4.75752759 28.2020791,0 22.0000667,0 C15.8224576,0 11.6959282,4.75752759 11.6959282,11.4329891 L11.6959282,32.9289756 C11.6959282,39.6292292 15.8224576,44.3618286 22.0000667,44.3618286 Z" id="Shape" fill-opacity="0.85"></path>
                    </g>
                    <g id="photo.fill" transform="translate(1045, 39)" fill="#8E8E93" fill-rule="nonzero">
                        <rect id="Rectangle" opacity="0" x="0" y="0" width="76" height="59"></rect>
                        <path d="M76,9.68696862 L76,49.3382155 C76,55.7127044 72.7141003,59 66.2176421,59 L9.75708441,59 C3.28580721,59 0,55.76273 0,49.3382155 L0,9.68696862 C0,3.26244727 3.28580721,0 9.75708441,0 L66.2176421,0 C72.7141003,0 76,3.2875457 76,9.68696862 Z M45.625205,30.2654938 L30.1491484,43.9426512 L24.0290189,38.3966677 C22.5742506,37.0665362 20.918801,36.3887927 19.3636921,36.3887927 C17.9088895,36.3887927 16.3537806,37.0665362 14.8990123,38.3462995 L4.43961176,47.4057215 L4.43961176,49.2378217 C4.43961176,52.6008409 6.44618518,54.5833604 9.78218669,54.5833604 L66.2429841,54.5833604 C69.5035418,54.5833604 71.5353544,52.6008409 71.5353544,49.2881899 L71.5353544,44.3942518 L56.2099457,30.3156906 C54.6044952,28.8601184 52.7233648,28.1072338 50.9175754,28.1072338 C49.1114436,28.1072338 47.2806546,28.8350371 45.625205,30.2654938 Z M15.7518051,22.2850475 C15.7518051,26.6516958 19.3135217,30.2152969 23.6778609,30.2152969 C28.017132,30.2152969 31.5537806,26.6516958 31.5537806,22.2850475 C31.5537806,17.9685618 28.017132,14.3547639 23.6778609,14.3547639 C19.3135217,14.3547639 15.7518051,17.9685618 15.7518051,22.2850475 Z" id="Shape" fill-opacity="0.85"></path>
                    </g>
                    <g id="plus.circle.fill" transform="translate(42, 31)" fill="#8E8E93" fill-rule="nonzero">
                        <rect id="Rectangle" opacity="0" x="0" y="0" width="82" height="82"></rect>
                        <path d="M82,41.0157299 C82,63.4279859 63.4279859,82 40.9842271,82 C18.5719711,82 0,63.4279859 0,41.0157299 C0,18.5719711 18.5404684,0 40.9527674,0 C63.3966121,0 82,18.5719711 82,41.0157299 Z M37.993829,24.6471897 L37.993829,37.993829 L24.6786924,37.993829 C22.8529508,37.993829 21.593829,39.221491 21.593829,41.0471897 C21.593829,42.778466 22.8844536,43.9744963 24.6786924,43.9744963 L37.993829,43.9744963 L37.993829,57.3526384 C37.993829,59.0842156 39.221491,60.3748401 40.9527674,60.3748401 C42.7470062,60.3748401 43.9744963,59.1155894 43.9744963,57.3526384 L43.9744963,43.9744963 L57.3526384,43.9744963 C59.0842156,43.9744963 60.3748401,42.778466 60.3748401,41.0471897 C60.3748401,39.221491 59.1155894,37.993829 57.3526384,37.993829 L43.9744963,37.993829 L43.9744963,24.6471897 C43.9744963,22.8529508 42.7470062,21.593829 40.9527674,21.593829 C39.221491,21.593829 37.993829,22.8844536 37.993829,24.6471897 Z" id="Shape" fill-opacity="0.85"></path>
                    </g>
                    <rect id="Inputfield" stroke="#BDBDBD" stroke-width="2" fill="#FFFFFF" x="167" y="24" width="834" height="95" rx="47.5"></rect>
                </g>
                <g id="Header">
                    <rect id="NavBar" fill="#F7F7F7" x="0" y="0" width="1284" height="274"></rect>
                    <line x1="0.5" y1="274.5" x2="1283.5" y2="274.5" id="Line-2" stroke="#B2B2B2" stroke-linecap="square"></line>
                    <g id="chevron.left" transform="translate(41, 178)" fill="#0C74DD" fill-rule="nonzero">
                        <rect id="Rectangle" opacity="0" x="0" y="0" width="43" height="59"></rect>
                        <path d="M0,29.5000348 C0,30.3496883 0.303680935,31.097407 0.944787127,31.7431213 L27.7024641,58.0826221 C28.2760644,58.6940913 29.0184173,59 29.8956965,59 C31.6503238,59 33,57.6747439 33,55.9075036 C33,55.0235355 32.6288408,54.2759908 32.0889634,53.6982794 L7.52452575,29.5000348 L32.0889634,5.30185984 C32.6288408,4.72407878 33,3.94239343 33,3.09274693 C33,1.32546148 31.6503238,0 29.8956965,0 C29.0184173,0 28.2760644,0.30587594 27.7024641,0.883640986 L0.944787127,27.2569483 C0.303680935,27.868696 0,28.6503813 0,29.5000348 Z" id="Path" fill-opacity="0.85"></path>
                    </g>
                    <g id="circle" transform="translate(173, 149)" fill-rule="nonzero">
                        <rect id="Rectangle" fill="#000000" opacity="0" x="33" y="0" width="116" height="116"></rect>
                        <path d="M54.9785963,113 C85.0860669,113 110,88.0860669 110,58.0209713 C110,27.9135871 85.0441243,3 54.9366536,3 C24.8713418,3 0,27.9135871 0,58.0209713 C0,88.0860669 24.9135871,113 54.9785963,113 Z M54.976896,109 C26.7225449,109 4,86.2422687 4,58.0000702 C4,29.712433 26.6768051,7 54.9314839,7 C83.2316684,7 106,29.712433 106,58.0000702 C106,86.2422687 83.2775487,109 54.976896,109 Z" id="Shape" fill-opacity="0.85" fill="#ADADAD"></path>
                    </g>
                    <g id="person.fill" transform="translate(197, 175)" fill="#B9B9B9" fill-rule="nonzero">
                        <rect id="Rectangle" opacity="0" x="0" y="0" width="61" height="65"></rect>
                        <path d="M5.9477848,65 L55.0522537,65 C58.7450598,65 61,63.2242919 61,60.3494458 C61,50.9909945 49.3019445,38.0812038 30.5,38.0812038 C11.6982479,38.0812038 0,50.9909945 0,60.3494458 C0,63.2242919 2.25508644,65 5.9477848,65 Z M30.5282108,31.5698892 C38.3928295,31.5698892 44.9891164,24.5794335 44.9891164,15.5594597 C44.9891164,6.73679957 38.3364463,0 30.5282108,0 C22.7481476,0 16.0956699,6.84956127 16.0956699,15.6158405 C16.0956699,24.5794335 22.6918029,31.5698892 30.5282108,31.5698892 Z" id="Shape" fill-opacity="0.85"></path>
                    </g>
                    <g id="Verification" transform="translate(306, 227)" fill="#0B74DD">
                        <circle id="Oval" cx="11" cy="11" r="11"></circle>
                        <circle id="Oval" cx="43" cy="11" r="11"></circle>
                        <circle id="Oval" cx="75" cy="11" r="11"></circle>
                    </g>
                    <g id="Phone" transform="translate(1155, 176)" fill="#0C74DD" fill-rule="nonzero">
                        <path d="M46.7653823,63 C52.580811,63 56.1750408,61.4663977 59.4057702,57.7938257 C59.6884652,57.4709581 59.9307988,57.1480988 60.2134939,56.8655907 C62.1115536,54.6862616 63,52.5876514 63,50.5697932 C63,48.1483071 61.5866076,45.8882425 58.5173237,43.7895992 L49.2692762,37.3323307 C46.2807977,35.2741047 42.8077347,35.1126833 40.1826741,37.6955908 L37.6788629,40.1977462 C36.9519447,40.9241837 36.3865547,40.9241837 35.7808032,40.5205889 C33.9634663,39.3502219 30.5712087,36.2830504 28.4308154,34.1440724 C26.290422,32.0050944 23.6653614,29.0993443 22.4538585,27.2428744 C22.0499967,26.5971062 22.0499967,26.0725074 22.7769149,25.3460698 L25.3211701,22.8034971 C27.9057867,20.2205897 27.7442585,16.7094887 25.6442265,13.7229865 L19.2230465,4.52138912 C17.0827358,1.45413491 14.8211756,0.0415944941 12.3980873,0.00125981193 C10.4192221,-0.0390748703 8.31927284,0.889118742 6.13843541,2.78600595 C5.81537902,3.06851403 5.53268399,3.35093946 5.2096276,3.63344754 C1.53459231,6.82178846 0,10.4539762 0,16.2251419 C0,25.3460698 5.49232262,36.6058931 15.9519557,47.0586095 C26.3711448,57.4709581 37.6385016,63 46.7653823,63 Z M46.8058264,57.5113176 C38.7288376,57.6727473 28.2288431,51.4172348 20.1115756,43.3053351 C11.9135027,35.1933527 5.29035034,24.2563722 5.49232262,16.1848072 C5.57304537,12.7543755 6.78463091,9.84862533 9.20771928,7.79031675 C9.44997023,7.58856069 9.6519425,7.42713931 9.89427615,7.22530059 C10.7019171,6.57961506 11.6308077,6.17602028 12.4384486,6.17602028 C13.3268951,6.17602028 14.1346188,6.49886304 14.7000088,7.38680462 L20.8384939,16.6287366 C21.4442453,17.5165956 21.4442453,18.4448718 20.6365216,19.2116441 L17.7288486,22.1173942 C15.3865657,24.4985456 15.5884553,27.3236264 17.3654308,29.5836084 C19.3442133,32.1665158 22.5750254,35.7583689 24.7557801,37.8570121 C26.8961734,39.9959901 30.8539038,43.6281778 33.4385203,45.6460691 C35.6999978,47.3814523 38.526948,47.6236257 40.8692309,45.2424743 L43.7769866,42.3367241 C44.5846276,41.5699519 45.5135181,41.5699519 46.4019646,42.1753027 L55.6096508,48.3097285 C56.5384586,48.8747447 56.8211536,49.6415169 56.8211536,50.5293758 C56.8211536,51.3769001 56.4577358,52.3051433 55.771179,53.1122998 C55.6096508,53.3544484 55.4481226,53.5562375 55.2461503,53.7580349 C53.1865624,56.2198639 50.2384453,57.4305986 46.8058264,57.5113176 Z" id="Shape"></path>
                        <path d="M46,22.4106431 C46,24.1677315 46.7522102,25 48.3769769,25 L60.6229615,25 C62.2176569,25 63,24.1677315 63,22.4106431 L63,12.8853574 C63,11.2823741 62.3380032,10.4501056 61.014133,10.3267458 L61.014133,7.61409206 C61.014133,3.05179851 58.3964637,0 54.4849336,0 C50.6035363,0 47.9557342,3.05179851 47.9557342,7.61409206 L47.9557342,10.3267458 C46.6619351,10.4501056 46,11.2823741 46,12.8853574 L46,22.4106431 Z M50.6938114,10.2959373 L50.6938114,7.30581875 C50.6938114,4.53148517 52.1982318,2.71271679 54.4849336,2.71271679 C56.7716354,2.71271679 58.3061885,4.53148517 58.3061885,7.30581875 L58.3061885,10.2959373 L50.6938114,10.2959373 Z" id="Shape"></path>
                    </g>
                    <line x1="316" y1="185" x2="648" y2="185" id="Line" stroke="#000000" stroke-width="30" opacity="0.3" stroke-linecap="square"></line>
                </g>
            </g>
        </g>
    </g>
</svg>