<svg fill="none" viewBox="0 0 32 32" xmlns="http://www.w3.org/2000/svg"><g filter="url(#i)"><path d="m2.6753 13.65c1.934-3.7904 6.3822-8.2721 13.497-8.2721 7.1342 0 11.531 4.2473 13.457 8.3116 0.5244 0.851 0.5442 1.8702 0.0395 2.731-2.5033 4.3241-6.3821 8.2721-13.496 8.2721-0.9468 0-1.8781-0.0414-2.7295-0.1623-0.4601-0.0654-0.9339-0.0072-1.3428 0.2136-1.1542 0.6233-2.3148 1.2994-3.7941 2.1355-0.45516 0.2572-1.0093-0.0891-0.97959-0.6135l0.21641-3.4085c0.03209-0.5056-0.19682-0.989-0.58433-1.3152-1.7292-1.4559-3.0851-3.2884-4.2431-5.1712-0.52443-0.8509-0.54422-1.8602-0.03958-2.721z" fill="url(#f)"/><path d="m2.6753 13.65c1.934-3.7904 6.3822-8.2721 13.497-8.2721 7.1342 0 11.531 4.2473 13.457 8.3116 0.5244 0.851 0.5442 1.8702 0.0395 2.731-2.5033 4.3241-6.3821 8.2721-13.496 8.2721-0.9468 0-1.8781-0.0414-2.7295-0.1623-0.4601-0.0654-0.9339-0.0072-1.3428 0.2136-1.1542 0.6233-2.3148 1.2994-3.7941 2.1355-0.45516 0.2572-1.0093-0.0891-0.97959-0.6135l0.21641-3.4085c0.03209-0.5056-0.19682-0.989-0.58433-1.3152-1.7292-1.4559-3.0851-3.2884-4.2431-5.1712-0.52443-0.8509-0.54422-1.8602-0.03958-2.721z" fill="url(#e)"/><path d="m2.6753 13.65c1.934-3.7904 6.3822-8.2721 13.497-8.2721 7.1342 0 11.531 4.2473 13.457 8.3116 0.5244 0.851 0.5442 1.8702 0.0395 2.731-2.5033 4.3241-6.3821 8.2721-13.496 8.2721-0.9468 0-1.8781-0.0414-2.7295-0.1623-0.4601-0.0654-0.9339-0.0072-1.3428 0.2136-1.1542 0.6233-2.3148 1.2994-3.7941 2.1355-0.45516 0.2572-1.0093-0.0891-0.97959-0.6135l0.21641-3.4085c0.03209-0.5056-0.19682-0.989-0.58433-1.3152-1.7292-1.4559-3.0851-3.2884-4.2431-5.1712-0.52443-0.8509-0.54422-1.8602-0.03958-2.721z" fill="url(#d)"/><path d="m2.6753 13.65c1.934-3.7904 6.3822-8.2721 13.497-8.2721 7.1342 0 11.531 4.2473 13.457 8.3116 0.5244 0.851 0.5442 1.8702 0.0395 2.731-2.5033 4.3241-6.3821 8.2721-13.496 8.2721-0.9468 0-1.8781-0.0414-2.7295-0.1623-0.4601-0.0654-0.9339-0.0072-1.3428 0.2136-1.1542 0.6233-2.3148 1.2994-3.7941 2.1355-0.45516 0.2572-1.0093-0.0891-0.97959-0.6135l0.21641-3.4085c0.03209-0.5056-0.19682-0.989-0.58433-1.3152-1.7292-1.4559-3.0851-3.2884-4.2431-5.1712-0.52443-0.8509-0.54422-1.8602-0.03958-2.721z" fill="url(#c)"/><path d="m2.6753 13.65c1.934-3.7904 6.3822-8.2721 13.497-8.2721 7.1342 0 11.531 4.2473 13.457 8.3116 0.5244 0.851 0.5442 1.8702 0.0395 2.731-2.5033 4.3241-6.3821 8.2721-13.496 8.2721-0.9468 0-1.8781-0.0414-2.7295-0.1623-0.4601-0.0654-0.9339-0.0072-1.3428 0.2136-1.1542 0.6233-2.3148 1.2994-3.7941 2.1355-0.45516 0.2572-1.0093-0.0891-0.97959-0.6135l0.21641-3.4085c0.03209-0.5056-0.19682-0.989-0.58433-1.3152-1.7292-1.4559-3.0851-3.2884-4.2431-5.1712-0.52443-0.8509-0.54422-1.8602-0.03958-2.721z" fill="url(#b)"/></g><g filter="url(#h)"><path d="m8.7379 21.117-0.58408 4.5058c-0.02667 0.2057 0.19431 0.3525 0.37361 0.2482l3.9211-2.2803-1.2678-2.2573-2.4428-0.2164z" fill="url(#a)"/></g><g filter="url(#g)"><ellipse cx="16.172" cy="16.172" rx="8.7198" ry="5.6895" fill="#DBD1F0" fill-opacity=".5"/></g><defs><filter id="i" x="2.3089" y="5.3777" width="27.726" height="21.598" color-interpolation-filters="sRGB" filterUnits="userSpaceOnUse"><feFlood flood-opacity="0" result="BackgroundImageFix"/><feBlend in="SourceGraphic" in2="BackgroundImageFix" result="shape"/><feColorMatrix in="SourceAlpha" result="hardAlpha" values="0 0 0 0 0 0 0 0 0 0 0 0 0 0 0 0 0 0 127 0"/><feOffset dy="0.01"/><feGaussianBlur stdDeviation="0.25"/><feComposite in2="hardAlpha" k2="-1" k3="1" operator="arithmetic"/><feColorMatrix values="0 0 0 0 0.758333 0 0 0 0 0.758333 0 0 0 0 0.758333 0 0 0 1 0"/><feBlend in2="shape" result="effect1_innerShadow_7154_6147"/></filter><filter id="h" x="7.1516" y="20.117" width="6.2968" height="6.7886" color-interpolation-filters="sRGB" filterUnits="userSpaceOnUse"><feFlood flood-opacity="0" result="BackgroundImageFix"/><feBlend in="SourceGraphic" in2="BackgroundImageFix" result="shape"/><feGaussianBlur result="effect1_foregroundBlur_7154_6147" stdDeviation="0.5"/></filter><filter id="g" x="2.452" y="5.4824" width="27.44" height="21.379" color-interpolation-filters="sRGB" filterUnits="userSpaceOnUse"><feFlood flood-opacity="0" result="BackgroundImageFix"/><feBlend in="SourceGraphic" in2="BackgroundImageFix" result="shape"/><feGaussianBlur result="effect1_foregroundBlur_7154_6147" stdDeviation="2.5"/></filter><radialGradient id="f" cx="0" cy="0" r="1" gradientTransform="translate(23.088 6.7073) rotate(108.69) scale(17.366 42.189)" gradientUnits="userSpaceOnUse"><stop stop-color="#fff" offset="0"/><stop stop-color="#D7C6DE" offset="1"/></radialGradient><radialGradient id="e" cx="0" cy="0" r="1" gradientTransform="translate(11.585 22.57) rotate(241.65) scale(19.535 28.252)" gradientUnits="userSpaceOnUse"><stop stop-color="#CECECE" stop-opacity="0" offset=".6189"/><stop stop-color="#CECECE" offset="1"/></radialGradient><radialGradient id="d" cx="0" cy="0" r="1" gradientTransform="translate(27.664 23.436) rotate(188.98) scale(29.302 42.376)" gradientUnits="userSpaceOnUse"><stop stop-color="#CECECE" stop-opacity="0" offset=".78147"/><stop stop-color="#CECECE" offset="1"/></radialGradient><radialGradient id="c" cx="0" cy="0" r="1" gradientTransform="translate(12.08 24.673) rotate(-38.581) scale(28.163 40.73)" gradientUnits="userSpaceOnUse"><stop stop-color="#CECECE" stop-opacity="0" offset=".64469"/><stop stop-color="#CECECE" offset="1"/></radialGradient><radialGradient id="b" cx="0" cy="0" r="1" gradientTransform="translate(15.42 8.3461) rotate(81.17) scale(25.785 28.683)" gradientUnits="userSpaceOnUse"><stop stop-color="#B6A8F2" stop-opacity="0" offset=".46414"/><stop stop-color="#B6A8F2" offset="1"/></radialGradient><linearGradient id="a" x1="10.268" x2="13.191" y1="26.404" y2="20.931" gradientUnits="userSpaceOnUse"><stop stop-color="#DCD0F4" offset="0"/><stop stop-color="#DED0F9" stop-opacity="0" offset="1"/></linearGradient></defs></svg>
