<svg fill="none" viewBox="0 0 32 32" xmlns="http://www.w3.org/2000/svg"><g filter="url(#bk)"><path d="m6.5 20c0.82843 0 1.5-0.6716 1.5-1.5s-0.67157-1.5-1.5-1.5-1.5 0.6716-1.5 1.5 0.67157 1.5 1.5 1.5z" fill="url(#as)"/></g><path d="m29 28h-21v-4h21v4z" fill="url(#aj)"/><path d="m15 12h-6v2h6v-2z" fill="url(#y)"/><path d="m15 12h-6v2h6v-2z" fill="url(#n)"/><path d="m7 6h10v-2c0-0.55-0.45-1-1-1h-8c-0.54999 0-1 0.45-1 1v2z" fill="url(#d)"/><path d="m7 6h10v-2c0-0.55-0.45-1-1-1h-8c-0.54999 0-1 0.45-1 1v2z" fill="url(#c)"/><path d="m7 6h10v-2c0-0.55-0.45-1-1-1h-8c-0.54999 0-1 0.45-1 1v2z" fill="url(#b)"/><path d="m7 6h10v-2c0-0.55-0.45-1-1-1h-8c-0.54999 0-1 0.45-1 1v2z" fill="url(#a)"/><path d="M7 9.41V7H17V9.41C17 9.79 16.85 10.15 16.58 10.42L15 12H9L7.42001 10.42C7.14999 10.15 7 9.79 7 9.41Z" fill="url(#d)"/><path d="M7 9.41V7H17V9.41C17 9.79 16.85 10.15 16.58 10.42L15 12H9L7.42001 10.42C7.14999 10.15 7 9.79 7 9.41Z" fill="url(#c)"/><path d="M7 9.41V7H17V9.41C17 9.79 16.85 10.15 16.58 10.42L15 12H9L7.42001 10.42C7.14999 10.15 7 9.79 7 9.41Z" fill="url(#b)"/><path d="M7 9.41V7H17V9.41C17 9.79 16.85 10.15 16.58 10.42L15 12H9L7.42001 10.42C7.14999 10.15 7 9.79 7 9.41Z" fill="url(#a)"/><path d="m16 17c-0.55 0-1-0.45-1-1s0.45-1 1-1 1 0.45 1 1c0 0.56-0.45 1-1 1z" fill="url(#ar)"/><g filter="url(#bb)"><path d="M23.5 24H7.78C6.8 24 6 23.2 6 22.22V16.75C6 15.23 7.23 14 8.75 14H23.5V24Z" fill="url(#aq)"/></g><g filter="url(#ba)"><path d="m29 24h-10v-16.24c0-0.97 0.78-1.75 1.75-1.75h6.49c0.97 0 1.75 0.78 1.75 1.75v16.24h0.01z" fill="url(#ap)"/><path d="m29 24h-10v-16.24c0-0.97 0.78-1.75 1.75-1.75h6.49c0.97 0 1.75 0.78 1.75 1.75v16.24h0.01z" fill="url(#ao)"/></g><path d="m29 24h-10v-16.24c0-0.97 0.78-1.75 1.75-1.75h6.49c0.97 0 1.75 0.78 1.75 1.75v16.24h0.01z" fill="url(#an)"/><path d="m2.6999 29h5.3v-5l-1-1-4.81 4.76c-0.46 0.46-0.13999 1.24 0.51001 1.24z" fill="url(#am)"/><path d="m2.6999 29h5.3v-5l-1-1-4.81 4.76c-0.46 0.46-0.13999 1.24 0.51001 1.24z" fill="url(#al)"/><path d="m2.6999 29h5.3v-5l-1-1-4.81 4.76c-0.46 0.46-0.13999 1.24 0.51001 1.24z" fill="url(#ak)"/><g filter="url(#az)"><path d="m15 29c1.1046 0 2-0.8954 2-2s-0.8954-2-2-2-2 0.8954-2 2 0.8954 2 2 2z" fill="url(#ai)"/></g><g filter="url(#ay)"><path d="m10.828 29c1.1046 0 2-0.8954 2-2s-0.8954-2-2-2c-1.1045 0-2 0.8954-2 2s0.89543 2 2 2z" fill="url(#ah)"/><path d="m10.828 29c1.1046 0 2-0.8954 2-2s-0.8954-2-2-2c-1.1045 0-2 0.8954-2 2s0.89543 2 2 2z" fill="url(#ag)"/></g><path d="M29 22H6V24H29V22Z" fill="url(#af)"/><g filter="url(#ax)"><path d="m15 26h-4c-0.55 0-1 0.45-1 1s0.45 1 1 1h4c0.55 0 1-0.45 1-1s-0.45-1-1-1z" fill="url(#ae)"/><path d="m15 26h-4c-0.55 0-1 0.45-1 1s0.45 1 1 1h4c0.55 0 1-0.45 1-1s-0.45-1-1-1z" fill="url(#ad)"/><path d="m15 26h-4c-0.55 0-1 0.45-1 1s0.45 1 1 1h4c0.55 0 1-0.45 1-1s-0.45-1-1-1z" fill="url(#ac)"/><path d="m15 26h-4c-0.55 0-1 0.45-1 1s0.45 1 1 1h4c0.55 0 1-0.45 1-1s-0.45-1-1-1z" fill="url(#ab)"/></g><path d="m15 26h-4c-0.55 0-1 0.45-1 1s0.45 1 1 1h4c0.55 0 1-0.45 1-1s-0.45-1-1-1z" fill="url(#aa)"/><path d="M17 6H7V8H17V6Z" fill="url(#z)"/><path d="M17 6H7V8H17V6Z" fill="url(#x)"/><g filter="url(#aw)"><path d="m21 29c1.6569 0 3-1.3431 3-3s-1.3431-3-3-3-3 1.3431-3 3 1.3431 3 3 3z" fill="url(#w)"/></g><g filter="url(#av)"><path d="m23.549 26c0 1.4078-1.1412 2.549-2.549 2.549s-2.5491-1.1412-2.5491-2.549 1.1413-2.5491 2.5491-2.5491 2.549 1.1413 2.549 2.5491z" stroke="url(#v)" stroke-width=".25"/></g><g filter="url(#au)"><path d="m21 28c1.1046 0 2-0.8954 2-2s-0.8954-2-2-2-2 0.8954-2 2 0.8954 2 2 2z" fill="url(#u)"/><path d="m21 28c1.1046 0 2-0.8954 2-2s-0.8954-2-2-2-2 0.8954-2 2 0.8954 2 2 2z" fill="url(#t)"/><path d="m21 28c1.1046 0 2-0.8954 2-2s-0.8954-2-2-2-2 0.8954-2 2 0.8954 2 2 2z" fill="url(#s)"/></g><g filter="url(#at)"><path d="m21 27.416c0.7821 0 1.4162-0.634 1.4162-1.4162 0-0.7821-0.6341-1.4161-1.4162-1.4161s-1.4161 0.634-1.4161 1.4161c0 0.7822 0.634 1.4162 1.4161 1.4162z" fill="#B8A7B6"/></g><g filter="url(#bj)"><path d="m27 29c1.6569 0 3-1.3431 3-3s-1.3431-3-3-3-3 1.3431-3 3 1.3431 3 3 3z" fill="url(#r)"/></g><g filter="url(#bi)"><path d="m27 28c1.1046 0 2-0.8954 2-2s-0.8954-2-2-2-2 0.8954-2 2 0.8954 2 2 2z" fill="url(#q)"/><path d="m27 28c1.1046 0 2-0.8954 2-2s-0.8954-2-2-2-2 0.8954-2 2 0.8954 2 2 2z" fill="url(#p)"/><path d="m27 28c1.1046 0 2-0.8954 2-2s-0.8954-2-2-2-2 0.8954-2 2 0.8954 2 2 2z" fill="url(#o)"/></g><g filter="url(#bh)"><path d="m27 27.416c0.7821 0 1.4162-0.634 1.4162-1.4162 0-0.7821-0.6341-1.4161-1.4162-1.4161s-1.4161 0.634-1.4161 1.4161c0 0.7822 0.634 1.4162 1.4161 1.4162z" fill="#B8A7B6"/></g><g filter="url(#bg)"><path d="m29.549 26c0 1.4078-1.1412 2.549-2.549 2.549s-2.5491-1.1412-2.5491-2.549 1.1413-2.5491 2.5491-2.5491 2.549 1.1413 2.549 2.5491z" stroke="url(#m)" stroke-width=".25"/></g><path d="m21 28c1.1046 0 2-0.8954 2-2s-0.8954-2-2-2-2 0.8954-2 2 0.8954 2 2 2z" fill="url(#l)"/><path d="m27 28c1.1046 0 2-0.8954 2-2s-0.8954-2-2-2-2 0.8954-2 2 0.8954 2 2 2z" fill="url(#k)"/><g filter="url(#bf)"><rect x="20.956" y="8.0312" width="6.0444" height="6.0444" rx="1" fill="url(#j)"/><rect x="20.956" y="8.0312" width="6.0444" height="6.0444" rx="1" fill="url(#i)"/><rect x="20.956" y="8.0312" width="6.0444" height="6.0444" rx="1" fill="url(#h)"/></g><g filter="url(#be)"><path d="m8.8002 15.386h9.4118" stroke="url(#g)" stroke-linecap="square"/></g><g filter="url(#bd)"><path d="m8.3317 3.7229h7.7496" stroke="url(#f)" stroke-linecap="round" stroke-width=".4"/></g><g filter="url(#bc)"><path d="m21 7h6.0037c0.5523 0 1 0.44772 1 1v12.966" stroke="url(#e)" stroke-linecap="round" stroke-width=".8"/></g><defs><filter id="bk" x="5" y="17" width="3" height="3" color-interpolation-filters="sRGB" filterUnits="userSpaceOnUse"><feFlood flood-opacity="0" result="BackgroundImageFix"/><feBlend in="SourceGraphic" in2="BackgroundImageFix" result="shape"/><feColorMatrix in="SourceAlpha" result="hardAlpha" values="0 0 0 0 0 0 0 0 0 0 0 0 0 0 0 0 0 0 127 0"/><feOffset/><feGaussianBlur stdDeviation="0.3"/><feComposite in2="hardAlpha" k2="-1" k3="1" operator="arithmetic"/><feColorMatrix values="0 0 0 0 0.733333 0 0 0 0 0.533333 0 0 0 0 0.223529 0 0 0 1 0"/><feBlend in2="shape" result="effect1_innerShadow_18_9008"/></filter><filter id="bb" x="6" y="14" width="18.75" height="10" color-interpolation-filters="sRGB" filterUnits="userSpaceOnUse"><feFlood flood-opacity="0" result="BackgroundImageFix"/><feBlend in="SourceGraphic" in2="BackgroundImageFix" result="shape"/><feColorMatrix in="SourceAlpha" result="hardAlpha" values="0 0 0 0 0 0 0 0 0 0 0 0 0 0 0 0 0 0 127 0"/><feOffset dx="1.25"/><feGaussianBlur stdDeviation="0.75"/><feComposite in2="hardAlpha" k2="-1" k3="1" operator="arithmetic"/><feColorMatrix values="0 0 0 0 0.172549 0 0 0 0 0.156863 0 0 0 0 0.188235 0 0 0 1 0"/><feBlend in2="shape" result="effect1_innerShadow_18_9008"/></filter><filter id="ba" x="19" y="6.01" width="11" height="17.99" color-interpolation-filters="sRGB" filterUnits="userSpaceOnUse"><feFlood flood-opacity="0" result="BackgroundImageFix"/><feBlend in="SourceGraphic" in2="BackgroundImageFix" result="shape"/><feColorMatrix in="SourceAlpha" result="hardAlpha" values="0 0 0 0 0 0 0 0 0 0 0 0 0 0 0 0 0 0 127 0"/><feOffset dx="1"/><feGaussianBlur stdDeviation="0.5"/><feComposite in2="hardAlpha" k2="-1" k3="1" operator="arithmetic"/><feColorMatrix values="0 0 0 0 0.592157 0 0 0 0 0.172549 0 0 0 0 0.305882 0 0 0 1 0"/><feBlend in2="shape" result="effect1_innerShadow_18_9008"/></filter><filter id="az" x="13" y="25" width="4" height="4" color-interpolation-filters="sRGB" filterUnits="userSpaceOnUse"><feFlood flood-opacity="0" result="BackgroundImageFix"/><feBlend in="SourceGraphic" in2="BackgroundImageFix" result="shape"/><feColorMatrix in="SourceAlpha" result="hardAlpha" values="0 0 0 0 0 0 0 0 0 0 0 0 0 0 0 0 0 0 127 0"/><feOffset/><feGaussianBlur stdDeviation="0.25"/><feComposite in2="hardAlpha" k2="-1" k3="1" operator="arithmetic"/><feColorMatrix values="0 0 0 0 0.188235 0 0 0 0 0.113725 0 0 0 0 0.243137 0 0 0 1 0"/><feBlend in2="shape" result="effect1_innerShadow_18_9008"/></filter><filter id="ay" x="8.8282" y="25" width="4" height="4" color-interpolation-filters="sRGB" filterUnits="userSpaceOnUse"><feFlood flood-opacity="0" result="BackgroundImageFix"/><feBlend in="SourceGraphic" in2="BackgroundImageFix" result="shape"/><feColorMatrix in="SourceAlpha" result="hardAlpha" values="0 0 0 0 0 0 0 0 0 0 0 0 0 0 0 0 0 0 127 0"/><feOffset/><feGaussianBlur stdDeviation="0.2"/><feComposite in2="hardAlpha" k2="-1" k3="1" operator="arithmetic"/><feColorMatrix values="0 0 0 0 0.188235 0 0 0 0 0.113725 0 0 0 0 0.243137 0 0 0 1 0"/><feBlend in2="shape" result="effect1_innerShadow_18_9008"/></filter><filter id="ax" x="10" y="26" width="6" height="2.1" color-interpolation-filters="sRGB" filterUnits="userSpaceOnUse"><feFlood flood-opacity="0" result="BackgroundImageFix"/><feBlend in="SourceGraphic" in2="BackgroundImageFix" result="shape"/><feColorMatrix in="SourceAlpha" result="hardAlpha" values="0 0 0 0 0 0 0 0 0 0 0 0 0 0 0 0 0 0 127 0"/><feOffset dy="0.1"/><feGaussianBlur stdDeviation="0.2"/><feComposite in2="hardAlpha" k2="-1" k3="1" operator="arithmetic"/><feColorMatrix values="0 0 0 0 0.501961 0 0 0 0 0.478431 0 0 0 0 0.47451 0 0 0 1 0"/><feBlend in2="shape" result="effect1_innerShadow_18_9008"/></filter><filter id="aw" x="18" y="23" width="6" height="6" color-interpolation-filters="sRGB" filterUnits="userSpaceOnUse"><feFlood flood-opacity="0" result="BackgroundImageFix"/><feBlend in="SourceGraphic" in2="BackgroundImageFix" result="shape"/><feColorMatrix in="SourceAlpha" result="hardAlpha" values="0 0 0 0 0 0 0 0 0 0 0 0 0 0 0 0 0 0 127 0"/><feOffset/><feGaussianBlur stdDeviation="0.25"/><feComposite in2="hardAlpha" k2="-1" k3="1" operator="arithmetic"/><feColorMatrix values="0 0 0 0 0.188235 0 0 0 0 0.113725 0 0 0 0 0.243137 0 0 0 1 0"/><feBlend in2="shape" result="effect1_innerShadow_18_9008"/></filter><filter id="av" x="17.926" y="22.926" width="6.1481" height="6.1481" color-interpolation-filters="sRGB" filterUnits="userSpaceOnUse"><feFlood flood-opacity="0" result="BackgroundImageFix"/><feBlend in="SourceGraphic" in2="BackgroundImageFix" result="shape"/><feGaussianBlur result="effect1_foregroundBlur_18_9008" stdDeviation="0.2"/></filter><filter id="au" x="18.7" y="23.9" width="4.4" height="4.4" color-interpolation-filters="sRGB" filterUnits="userSpaceOnUse"><feFlood flood-opacity="0" result="BackgroundImageFix"/><feColorMatrix in="SourceAlpha" result="hardAlpha" values="0 0 0 0 0 0 0 0 0 0 0 0 0 0 0 0 0 0 127 0"/><feOffset dx="-0.1" dy="0.1"/><feGaussianBlur stdDeviation="0.1"/><feComposite in2="hardAlpha" operator="out"/><feColorMatrix values="0 0 0 0 0.2 0 0 0 0 0.137255 0 0 0 0 0.247059 0 0 0 1 0"/><feBlend in2="BackgroundImageFix" result="effect1_dropShadow_18_9008"/><feBlend in="SourceGraphic" in2="effect1_dropShadow_18_9008" result="shape"/></filter><filter id="at" x="18.834" y="23.834" width="4.3323" height="4.3323" color-interpolation-filters="sRGB" filterUnits="userSpaceOnUse"><feFlood flood-opacity="0" result="BackgroundImageFix"/><feBlend in="SourceGraphic" in2="BackgroundImageFix" result="shape"/><feGaussianBlur result="effect1_foregroundBlur_18_9008" stdDeviation="0.375"/></filter><filter id="bj" x="24" y="23" width="6" height="6" color-interpolation-filters="sRGB" filterUnits="userSpaceOnUse"><feFlood flood-opacity="0" result="BackgroundImageFix"/><feBlend in="SourceGraphic" in2="BackgroundImageFix" result="shape"/><feColorMatrix in="SourceAlpha" result="hardAlpha" values="0 0 0 0 0 0 0 0 0 0 0 0 0 0 0 0 0 0 127 0"/><feOffset/><feGaussianBlur stdDeviation="0.25"/><feComposite in2="hardAlpha" k2="-1" k3="1" operator="arithmetic"/><feColorMatrix values="0 0 0 0 0.188235 0 0 0 0 0.113725 0 0 0 0 0.243137 0 0 0 1 0"/><feBlend in2="shape" result="effect1_innerShadow_18_9008"/></filter><filter id="bi" x="24.7" y="23.9" width="4.4" height="4.4" color-interpolation-filters="sRGB" filterUnits="userSpaceOnUse"><feFlood flood-opacity="0" result="BackgroundImageFix"/><feColorMatrix in="SourceAlpha" result="hardAlpha" values="0 0 0 0 0 0 0 0 0 0 0 0 0 0 0 0 0 0 127 0"/><feOffset dx="-0.1" dy="0.1"/><feGaussianBlur stdDeviation="0.1"/><feComposite in2="hardAlpha" operator="out"/><feColorMatrix values="0 0 0 0 0.2 0 0 0 0 0.137255 0 0 0 0 0.247059 0 0 0 1 0"/><feBlend in2="BackgroundImageFix" result="effect1_dropShadow_18_9008"/><feBlend in="SourceGraphic" in2="effect1_dropShadow_18_9008" result="shape"/></filter><filter id="bh" x="24.834" y="23.834" width="4.3323" height="4.3323" color-interpolation-filters="sRGB" filterUnits="userSpaceOnUse"><feFlood flood-opacity="0" result="BackgroundImageFix"/><feBlend in="SourceGraphic" in2="BackgroundImageFix" result="shape"/><feGaussianBlur result="effect1_foregroundBlur_18_9008" stdDeviation="0.375"/></filter><filter id="bg" x="23.926" y="22.926" width="6.1481" height="6.1481" color-interpolation-filters="sRGB" filterUnits="userSpaceOnUse"><feFlood flood-opacity="0" result="BackgroundImageFix"/><feBlend in="SourceGraphic" in2="BackgroundImageFix" result="shape"/><feGaussianBlur result="effect1_foregroundBlur_18_9008" stdDeviation="0.2"/></filter><filter id="bf" x="20.456" y="8.0312" width="6.5444" height="6.5444" color-interpolation-filters="sRGB" filterUnits="userSpaceOnUse"><feFlood flood-opacity="0" result="BackgroundImageFix"/><feBlend in="SourceGraphic" in2="BackgroundImageFix" result="shape"/><feColorMatrix in="SourceAlpha" result="hardAlpha" values="0 0 0 0 0 0 0 0 0 0 0 0 0 0 0 0 0 0 127 0"/><feOffset dx="-0.5" dy="0.5"/><feGaussianBlur stdDeviation="0.5"/><feComposite in2="hardAlpha" k2="-1" k3="1" operator="arithmetic"/><feColorMatrix values="0 0 0 0 0.141176 0 0 0 0 0.490196 0 0 0 0 0.870588 0 0 0 1 0"/><feBlend in2="shape" result="effect1_innerShadow_18_9008"/></filter><filter id="be" x="7.3002" y="13.886" width="12.412" height="3" color-interpolation-filters="sRGB" filterUnits="userSpaceOnUse"><feFlood flood-opacity="0" result="BackgroundImageFix"/><feBlend in="SourceGraphic" in2="BackgroundImageFix" result="shape"/><feGaussianBlur result="effect1_foregroundBlur_18_9008" stdDeviation="0.5"/></filter><filter id="bd" x="7.7316" y="3.123" width="8.9497" height="1.1999" color-interpolation-filters="sRGB" filterUnits="userSpaceOnUse"><feFlood flood-opacity="0" result="BackgroundImageFix"/><feBlend in="SourceGraphic" in2="BackgroundImageFix" result="shape"/><feGaussianBlur result="effect1_foregroundBlur_18_9008" stdDeviation="0.2"/></filter><filter id="bc" x="19.8" y="5.8001" width="9.4037" height="16.366" color-interpolation-filters="sRGB" filterUnits="userSpaceOnUse"><feFlood flood-opacity="0" result="BackgroundImageFix"/><feBlend in="SourceGraphic" in2="BackgroundImageFix" result="shape"/><feGaussianBlur result="effect1_foregroundBlur_18_9008" stdDeviation="0.4"/></filter><linearGradient id="as" x1="6.4975" x2="6.4975" y1="17.517" y2="20.49" gradientUnits="userSpaceOnUse"><stop stop-color="#E29A24" offset="0"/><stop stop-color="#B6702E" offset="1"/></linearGradient><linearGradient id="aj" x1="18.498" x2="18.498" y1="23.634" y2="26.319" gradientUnits="userSpaceOnUse"><stop stop-color="#231928" offset="0"/><stop stop-color="#353037" offset="1"/></linearGradient><linearGradient id="y" x1="9" x2="15" y1="13.003" y2="13.003" gradientUnits="userSpaceOnUse"><stop stop-color="#312D34" offset=".11655"/><stop stop-color="#52455C" offset=".60004"/><stop stop-color="#52455C" offset=".84524"/><stop stop-color="#3D273B" offset="1"/></linearGradient><linearGradient id="n" x1="12" x2="12" y1="12" y2="12.239" gradientUnits="userSpaceOnUse"><stop stop-color="#32203E" offset="0"/><stop stop-color="#32203E" stop-opacity="0" offset="1"/></linearGradient><linearGradient id="d" x1="8.2903" x2="16.771" y1="9.503" y2="9.503" gradientUnits="userSpaceOnUse"><stop stop-color="#2E2635" offset="0"/><stop stop-color="#7D6488" offset="1"/></linearGradient><radialGradient id="c" cx="0" cy="0" r="1" gradientTransform="translate(17.656 9.7735) rotate(180) scale(2.1964 4.6512)" gradientUnits="userSpaceOnUse"><stop stop-color="#42203E" offset=".25532"/><stop stop-color="#42203E" stop-opacity="0" offset="1"/></radialGradient><radialGradient id="b" cx="0" cy="0" r="1" gradientTransform="translate(14.341 7.5) rotate(-90) scale(4.2329 2.6592)" gradientUnits="userSpaceOnUse"><stop stop-color="#685575" offset="0"/><stop stop-color="#685575" stop-opacity="0" offset="1"/></radialGradient><linearGradient id="a" x1="12" x2="12" y1="12.219" y2="9.4834" gradientUnits="userSpaceOnUse"><stop stop-color="#31203D" offset=".59155"/><stop stop-color="#31203D" stop-opacity="0" offset="1"/></linearGradient><linearGradient id="ar" x1="14.998" x2="16.998" y1="16.003" y2="16.003" gradientUnits="userSpaceOnUse"><stop stop-color="#1C1C1C" offset="0"/><stop stop-color="#9B9B9B" offset="1"/></linearGradient><linearGradient id="aq" x1="14.748" x2="14.748" y1="21.947" y2="15.762" gradientUnits="userSpaceOnUse"><stop stop-color="#3E3842" offset="0"/><stop stop-color="#5D4A6D" offset="1"/></linearGradient><linearGradient id="ap" x1="23.998" x2="23.998" y1="6.01" y2="21.833" gradientUnits="userSpaceOnUse"><stop stop-color="#D53779" offset="0"/><stop stop-color="#E73450" offset="1"/></linearGradient><radialGradient id="ao" cx="0" cy="0" r="1" gradientTransform="translate(29 6.2095) rotate(134.16) scale(2.5417 1.3808)" gradientUnits="userSpaceOnUse"><stop stop-color="#F2508E" offset="0"/><stop stop-color="#F2508E" stop-opacity="0" offset="1"/></radialGradient><radialGradient id="an" cx="0" cy="0" r="1" gradientTransform="translate(18.692 20.217) rotate(-35.149) scale(4.967 12.422)" gradientUnits="userSpaceOnUse"><stop stop-color="#E53352" offset=".6811"/><stop stop-color="#E53352" stop-opacity="0" offset="1"/></radialGradient><linearGradient id="am" x1="2.549" x2="8.3615" y1="27.594" y2="27.594" gradientUnits="userSpaceOnUse"><stop stop-color="#DF346A" offset="0"/><stop stop-color="#EB344A" offset="1"/></linearGradient><linearGradient id="al" x1="3.7844" x2="4.7118" y1="26" y2="26.921" gradientUnits="userSpaceOnUse"><stop stop-color="#9C4150" offset=".2729"/><stop stop-color="#9C4150" stop-opacity="0" offset="1"/></linearGradient><linearGradient id="ak" x1="4.9865" x2="4.9865" y1="29.226" y2="28.166" gradientUnits="userSpaceOnUse"><stop stop-color="#A52C66" offset=".31579"/><stop stop-color="#A52C66" stop-opacity="0" offset="1"/></linearGradient><linearGradient id="ai" x1="15.256" x2="15.256" y1="28.704" y2="25" gradientUnits="userSpaceOnUse"><stop stop-color="#413649" offset="0"/><stop stop-color="#644D74" offset="1"/></linearGradient><linearGradient id="ah" x1="11.085" x2="11.085" y1="29" y2="25" gradientUnits="userSpaceOnUse"><stop stop-color="#45394F" offset="0"/><stop stop-color="#644D74" offset="1"/></linearGradient><radialGradient id="ag" cx="0" cy="0" r="1" gradientTransform="translate(10.963 27.102) rotate(90.813) scale(1.1017)" gradientUnits="userSpaceOnUse"><stop stop-color="#342340" offset=".80689"/><stop stop-color="#342340" stop-opacity="0" offset="1"/></radialGradient><linearGradient id="af" x1="6" x2="29" y1="24" y2="24" gradientUnits="userSpaceOnUse"><stop stop-color="#706671" offset="0"/><stop stop-color="#A99AAA" offset=".093088"/><stop stop-color="#C9B9C1" offset=".93237"/><stop stop-color="#F3E8E2" offset="1"/></linearGradient><linearGradient id="ae" x1="13.174" x2="13.174" y1="26" y2="28" gradientUnits="userSpaceOnUse"><stop stop-color="#B7ABB2" offset="0"/><stop stop-color="#B19DB2" offset="1"/></linearGradient><radialGradient id="ad" cx="0" cy="0" r="1" gradientTransform="translate(15.549 27) rotate(180) scale(5.9062 3.8111)" gradientUnits="userSpaceOnUse"><stop stop-color="#664356" stop-opacity="0" offset=".78836"/><stop stop-color="#664356" offset="1"/></radialGradient><radialGradient id="ac" cx="0" cy="0" r="1" gradientTransform="translate(16 26.531) rotate(155.83) scale(1.145 1.1071)" gradientUnits="userSpaceOnUse"><stop stop-color="#D8CACC" offset="0"/><stop stop-color="#D8CACC" stop-opacity="0" offset="1"/></radialGradient><linearGradient id="ab" x1="13" x2="13" y1="28.359" y2="27.438" gradientUnits="userSpaceOnUse"><stop stop-color="#8E689F" offset="0"/><stop stop-color="#8E689F" stop-opacity="0" offset="1"/></linearGradient><radialGradient id="aa" cx="0" cy="0" r="1" gradientTransform="translate(16.705 25.138) rotate(142.32) scale(4.6818 3.5838)" gradientUnits="userSpaceOnUse"><stop stop-color="#EFE3DD" offset="0"/><stop stop-color="#EFE3DD" stop-opacity="0" offset="1"/></radialGradient><linearGradient id="z" x1="7.5443" x2="17.128" y1="7.003" y2="7.003" gradientUnits="userSpaceOnUse"><stop stop-color="#A2693C" offset="0"/><stop stop-color="#FAA845" offset=".50075"/><stop stop-color="#FFC651" offset=".73768"/><stop stop-color="#FFC651" offset=".94219"/><stop stop-color="#F6B253" offset="1"/></linearGradient><radialGradient id="x" cx="0" cy="0" r="1" gradientTransform="translate(17.325 8) rotate(180) scale(1.1604 1.3968)" gradientUnits="userSpaceOnUse"><stop stop-color="#C0813E" offset=".071428"/><stop stop-color="#C0813E" stop-opacity="0" offset="1"/></radialGradient><linearGradient id="w" x1="21.384" x2="21.384" y1="28.556" y2="23" gradientUnits="userSpaceOnUse"><stop stop-color="#2F1C3B" offset="0"/><stop stop-color="#644D74" offset="1"/></linearGradient><linearGradient id="v" x1="22.714" x2="20.142" y1="23.59" y2="28.037" gradientUnits="userSpaceOnUse"><stop stop-color="#7A6788" offset="0"/><stop stop-color="#7A6788" stop-opacity="0" offset="1"/></linearGradient><radialGradient id="u" cx="0" cy="0" r="1" gradientTransform="translate(21.586 25.088) rotate(120.43) scale(3.3774)" gradientUnits="userSpaceOnUse"><stop stop-color="#B8A6B6" offset=".4436"/><stop stop-color="#8E6D9C" offset="1"/></radialGradient><radialGradient id="t" cx="0" cy="0" r="1" gradientTransform="translate(19.838 27.038) rotate(-37.29) scale(3.7788 3.937)" gradientUnits="userSpaceOnUse"><stop stop-color="#F4E9E4" stop-opacity="0" offset=".68871"/><stop stop-color="#F4E9E4" offset="1"/></radialGradient><radialGradient id="s" cx="0" cy="0" r="1" gradientTransform="translate(21.913 26.648) rotate(222.27) scale(3.9365)" gradientUnits="userSpaceOnUse"><stop stop-color="#6E656E" stop-opacity="0" offset=".53374"/><stop stop-color="#6E656E" offset="1"/></radialGradient><linearGradient id="r" x1="27.384" x2="27.384" y1="28.556" y2="23" gradientUnits="userSpaceOnUse"><stop stop-color="#2F1C3B" offset="0"/><stop stop-color="#644D74" offset="1"/></linearGradient><radialGradient id="q" cx="0" cy="0" r="1" gradientTransform="translate(27.586 25.088) rotate(120.43) scale(3.3774)" gradientUnits="userSpaceOnUse"><stop stop-color="#B8A6B6" offset=".4436"/><stop stop-color="#8E6D9C" offset="1"/></radialGradient><radialGradient id="p" cx="0" cy="0" r="1" gradientTransform="translate(25.838 27.038) rotate(-37.29) scale(3.7788 3.937)" gradientUnits="userSpaceOnUse"><stop stop-color="#F4E9E4" stop-opacity="0" offset=".68871"/><stop stop-color="#F4E9E4" offset="1"/></radialGradient><radialGradient id="o" cx="0" cy="0" r="1" gradientTransform="translate(27.913 26.648) rotate(222.27) scale(3.9365)" gradientUnits="userSpaceOnUse"><stop stop-color="#6E656E" stop-opacity="0" offset=".53374"/><stop stop-color="#6E656E" offset="1"/></radialGradient><linearGradient id="m" x1="28.714" x2="26.142" y1="23.59" y2="28.037" gradientUnits="userSpaceOnUse"><stop stop-color="#7A6788" offset="0"/><stop stop-color="#7A6788" stop-opacity="0" offset="1"/></linearGradient><radialGradient id="l" cx="0" cy="0" r="1" gradientTransform="translate(23 24) rotate(127.16) scale(4.0484)" gradientUnits="userSpaceOnUse"><stop stop-color="#EFE3DD" offset="0"/><stop stop-color="#EFE3DD" stop-opacity="0" offset="1"/></radialGradient><radialGradient id="k" cx="0" cy="0" r="1" gradientTransform="translate(29 24) rotate(127.16) scale(4.0484)" gradientUnits="userSpaceOnUse"><stop stop-color="#EFE3DD" offset="0"/><stop stop-color="#EFE3DD" stop-opacity="0" offset="1"/></radialGradient><linearGradient id="j" x1="27" x2="21.08" y1="7.7814" y2="14.076" gradientUnits="userSpaceOnUse"><stop stop-color="#44AFF5" offset="0"/><stop stop-color="#55E4FF" offset="1"/></linearGradient><linearGradient id="i" x1="20.737" x2="22.205" y1="12.438" y2="12.438" gradientUnits="userSpaceOnUse"><stop stop-color="#57FAFF" offset="0"/><stop stop-color="#57FAFF" stop-opacity="0" offset="1"/></linearGradient><linearGradient id="h" x1="23.799" x2="23.799" y1="7.4376" y2="11.053" gradientUnits="userSpaceOnUse"><stop stop-color="#1C89EA" offset="0"/><stop stop-color="#1C89EA" stop-opacity="0" offset="1"/></linearGradient><linearGradient id="g" x1="9.0785" x2="21.278" y1="16.41" y2="16.41" gradientUnits="userSpaceOnUse"><stop stop-color="#695579" offset="0"/><stop stop-color="#644F7C" stop-opacity="0" offset="1"/></linearGradient><linearGradient id="f" x1="9.9894" x2="16.662" y1="4.7525" y2="4.7525" gradientUnits="userSpaceOnUse"><stop stop-color="#827091" stop-opacity="0" offset="0"/><stop stop-color="#827091" offset="1"/></linearGradient><linearGradient id="e" x1="19.79" x2="29.35" y1="15.029" y2="10.529" gradientUnits="userSpaceOnUse"><stop stop-color="#DF4F8A" stop-opacity="0" offset="0"/><stop stop-color="#EA4B89" offset="1"/></linearGradient></defs></svg>
