<svg fill="none" viewBox="0 0 32 32" xmlns="http://www.w3.org/2000/svg"><g filter="url(#n)"><path d="m3.7812 9.7109c0-0.17149 0.08788-0.33102 0.23284-0.42264l11.563-7.3089c0.1632-0.10315 0.3711-0.10315 0.5343 0l11.562 7.3089c0.145 0.09162 0.2328 0.25115 0.2328 0.42264v12.758c0 0.1735-0.0899 0.3346-0.2375 0.4256l-11.562 7.1293c-0.1609 0.0992-0.364 0.0992-0.5249 0l-11.562-7.1293c-0.14766-0.091-0.23758-0.2521-0.23758-0.4256v-12.758z" fill="url(#h)"/><path d="m3.7812 9.7109c0-0.17149 0.08788-0.33102 0.23284-0.42264l11.563-7.3089c0.1632-0.10315 0.3711-0.10315 0.5343 0l11.562 7.3089c0.145 0.09162 0.2328 0.25115 0.2328 0.42264v12.758c0 0.1735-0.0899 0.3346-0.2375 0.4256l-11.562 7.1293c-0.1609 0.0992-0.364 0.0992-0.5249 0l-11.562-7.1293c-0.14766-0.091-0.23758-0.2521-0.23758-0.4256v-12.758z" fill="url(#g)"/></g><g filter="url(#m)"><path d="m15.75 30.089c-0.0588-0.0112-0.116-0.0331-0.1687-0.0656l-11.562-7.1292c-0.14766-0.091-0.23758-0.2521-0.23758-0.4256v-12.753l11.733 7.2917c0.1468 0.0912 0.2361 0.2518 0.2361 0.4247v12.657z" fill="url(#f)"/></g><path d="m27.878 9.545c0.0185 0.05257 0.0283 0.10856 0.0283 0.16589v12.758c0 0.1734-0.0899 0.3345-0.2375 0.4256l-11.562 7.1292c-0.1082 0.0667-0.2355 0.0885-0.3562 0.0655v-12.741c0-0.1729 0.0893-0.3334 0.2361-0.4247l11.799-7.3329c0.0301-0.01868 0.0612-0.03374 0.0928-0.04536z" fill="url(#e)"/><path d="m27.878 9.545c0.0185 0.05257 0.0283 0.10856 0.0283 0.16589v12.758c0 0.1734-0.0899 0.3345-0.2375 0.4256l-11.562 7.1292c-0.1082 0.0667-0.2355 0.0885-0.3562 0.0655v-12.741c0-0.1729 0.0893-0.3334 0.2361-0.4247l11.799-7.3329c0.0301-0.01868 0.0612-0.03374 0.0928-0.04536z" fill="url(#d)"/><g filter="url(#l)"><path d="m10.781 22.834c0-0.2353 0.2586-0.379 0.4584-0.2547l3.1259 1.9433c0.1468 0.0912 0.2361 0.2518 0.2361 0.4246v2.2605c0 0.2353-0.2586 0.379-0.4584 0.2547l-3.1259-1.9433c-0.1468-0.0912-0.2361-0.2518-0.2361-0.4246v-2.2605z" fill="url(#c)"/></g><g filter="url(#k)"><path d="m8.25 12.862v2.7448l2.9219 1.75v-2.5536c0-0.3413 0.1724-0.658 0.46-0.842 3.9898-2.5521 11.178-7.2095 11.352-7.3778 0.1601-0.11718 0.3724-0.05989 0.4375 0.03125 0-0.1875-0.099-0.29687-0.1485-0.32812l-2.7398-1.6724c-0.1638-0.1-0.3705-0.09739-0.5317 0.00673l-11.203 7.233c-0.34232 0.221-0.5491 0.6007-0.5491 1.0082z" fill="#966957"/><path d="m8.25 12.862v2.7448l2.9219 1.75v-2.5536c0-0.3413 0.1724-0.658 0.46-0.842 3.9898-2.5521 11.178-7.2095 11.352-7.3778 0.1601-0.11718 0.3724-0.05989 0.4375 0.03125 0-0.1875-0.099-0.29687-0.1485-0.32812l-2.7398-1.6724c-0.1638-0.1-0.3705-0.09739-0.5317 0.00673l-11.203 7.233c-0.34232 0.221-0.5491 0.6007-0.5491 1.0082z" fill="url(#b)"/><path d="m8.25 12.862v2.7448l2.9219 1.75v-2.5536c0-0.3413 0.1724-0.658 0.46-0.842 3.9898-2.5521 11.178-7.2095 11.352-7.3778 0.1601-0.11718 0.3724-0.05989 0.4375 0.03125 0-0.1875-0.099-0.29687-0.1485-0.32812l-2.7398-1.6724c-0.1638-0.1-0.3705-0.09739-0.5317 0.00673l-11.203 7.233c-0.34232 0.221-0.5491 0.6007-0.5491 1.0082z" fill="url(#a)"/></g><g filter="url(#j)"><path d="m23.219 6.3964c-0.0782-0.05625-0.1993-0.02343-0.25 0l-11.547 7.5313c-0.0287 0.0182-0.1024 0.0804-0.168 0.1836" stroke="#A47E73" stroke-width=".05"/></g><g filter="url(#i)"><path d="m16 16.873 11.625-7.25" stroke="#F4CAA3" stroke-linecap="round" stroke-width=".2"/></g><defs><filter id="n" x="3.7812" y="1.902" width="24.125" height="28.296" color-interpolation-filters="sRGB" filterUnits="userSpaceOnUse"><feFlood flood-opacity="0" result="BackgroundImageFix"/><feBlend in="SourceGraphic" in2="BackgroundImageFix" result="shape"/><feColorMatrix in="SourceAlpha" result="hardAlpha" values="0 0 0 0 0 0 0 0 0 0 0 0 0 0 0 0 0 0 127 0"/><feOffset dy="0.1"/><feGaussianBlur stdDeviation="0.15"/><feComposite in2="hardAlpha" k2="-1" k3="1" operator="arithmetic"/><feColorMatrix values="0 0 0 0 0.843137 0 0 0 0 0.694118 0 0 0 0 0.52549 0 0 0 1 0"/><feBlend in2="shape" result="effect1_innerShadow_18_21935"/></filter><filter id="m" x="3.7812" y="9.7158" width="12.969" height="21.373" color-interpolation-filters="sRGB" filterUnits="userSpaceOnUse"><feFlood flood-opacity="0" result="BackgroundImageFix"/><feBlend in="SourceGraphic" in2="BackgroundImageFix" result="shape"/><feColorMatrix in="SourceAlpha" result="hardAlpha" values="0 0 0 0 0 0 0 0 0 0 0 0 0 0 0 0 0 0 127 0"/><feOffset dx="1" dy="1"/><feGaussianBlur stdDeviation="1.5"/><feComposite in2="hardAlpha" k2="-1" k3="1" operator="arithmetic"/><feColorMatrix values="0 0 0 0 0.831373 0 0 0 0 0.670588 0 0 0 0 0.545098 0 0 0 1 0"/><feBlend in2="shape" result="effect1_innerShadow_18_21935"/></filter><filter id="l" x="10.681" y="22.534" width="3.9203" height="4.9746" color-interpolation-filters="sRGB" filterUnits="userSpaceOnUse"><feFlood flood-opacity="0" result="BackgroundImageFix"/><feBlend in="SourceGraphic" in2="BackgroundImageFix" result="shape"/><feColorMatrix in="SourceAlpha" result="hardAlpha" values="0 0 0 0 0 0 0 0 0 0 0 0 0 0 0 0 0 0 127 0"/><feOffset dx="-0.15"/><feGaussianBlur stdDeviation="0.05"/><feComposite in2="hardAlpha" k2="-1" k3="1" operator="arithmetic"/><feColorMatrix values="0 0 0 0 0.760103 0 0 0 0 0.683293 0 0 0 0 0.795016 0 0 0 1 0"/><feBlend in2="shape" result="effect1_innerShadow_18_21935"/></filter><filter id="k" x="8.15" y="4.5414" width="15.272" height="12.816" color-interpolation-filters="sRGB" filterUnits="userSpaceOnUse"><feFlood flood-opacity="0" result="BackgroundImageFix"/><feBlend in="SourceGraphic" in2="BackgroundImageFix" result="shape"/><feColorMatrix in="SourceAlpha" result="hardAlpha" values="0 0 0 0 0 0 0 0 0 0 0 0 0 0 0 0 0 0 127 0"/><feOffset dx="-0.1"/><feGaussianBlur stdDeviation="0.05"/><feComposite in2="hardAlpha" k2="-1" k3="1" operator="arithmetic"/><feColorMatrix values="0 0 0 0 0.47451 0 0 0 0 0.266667 0 0 0 0 0.301961 0 0 0 1 0"/><feBlend in2="shape" result="effect1_innerShadow_18_21935"/></filter><filter id="j" x="11.133" y="6.2403" width="12.2" height="7.9843" color-interpolation-filters="sRGB" filterUnits="userSpaceOnUse"><feFlood flood-opacity="0" result="BackgroundImageFix"/><feBlend in="SourceGraphic" in2="BackgroundImageFix" result="shape"/><feGaussianBlur result="effect1_foregroundBlur_18_21935" stdDeviation="0.05"/></filter><filter id="i" x="15.65" y="9.273" width="12.325" height="7.95" color-interpolation-filters="sRGB" filterUnits="userSpaceOnUse"><feFlood flood-opacity="0" result="BackgroundImageFix"/><feBlend in="SourceGraphic" in2="BackgroundImageFix" result="shape"/><feGaussianBlur result="effect1_foregroundBlur_18_21935" stdDeviation="0.125"/></filter><linearGradient id="h" x1="15.844" x2="15.844" y1="1.902" y2="30.098" gradientUnits="userSpaceOnUse"><stop stop-color="#DEB586" offset="0"/><stop stop-color="#D7AA82" offset="1"/></linearGradient><linearGradient id="g" x1="10.625" x2="11.078" y1="14.076" y2="13.357" gradientUnits="userSpaceOnUse"><stop stop-color="#C99D78" offset=".065607"/><stop stop-color="#DCB185" stop-opacity="0" offset="1"/></linearGradient><linearGradient id="f" x1="5.3762" x2="13.866" y1="15.169" y2="29.372" gradientUnits="userSpaceOnUse"><stop stop-color="#B98875" offset="0"/><stop stop-color="#AA684F" offset="1"/></linearGradient><linearGradient id="e" x1="16.594" x2="24.594" y1="16.748" y2="25.06" gradientUnits="userSpaceOnUse"><stop stop-color="#D7A585" offset="0"/><stop stop-color="#BD7943" offset="1"/></linearGradient><linearGradient id="d" x1="15.424" x2="16.583" y1="25.213" y2="25.149" gradientUnits="userSpaceOnUse"><stop stop-color="#B46C4B" offset="0"/><stop stop-color="#BD7E61" stop-opacity="0" offset="1"/></linearGradient><linearGradient id="c" x1="11.341" x2="13.961" y1="22.744" y2="27.793" gradientUnits="userSpaceOnUse"><stop stop-color="#CAB6CD" offset="0"/><stop stop-color="#D1BED7" offset="1"/></linearGradient><linearGradient id="b" x1="8.8125" x2="10.812" y1="15.857" y2="12.888" gradientUnits="userSpaceOnUse"><stop stop-color="#8D6D6C" offset=".64931"/><stop stop-color="#83554C" offset=".72577"/><stop stop-color="#83554C" offset=".82533"/><stop stop-color="#976A58" stop-opacity="0" offset="1"/></linearGradient><linearGradient id="a" x1="22.656" x2="21.656" y1="5.7792" y2="6.9042" gradientUnits="userSpaceOnUse"><stop stop-color="#9C6F5D" offset="0"/><stop stop-color="#9C6F5D" stop-opacity="0" offset="1"/></linearGradient></defs></svg>
