<svg fill="none" viewBox="0 0 32 32" xmlns="http://www.w3.org/2000/svg"><g filter="url(#ax)" stroke-width="1.4"><path d="m8.2648 11.028h4.2596c0.3204 0 0.6215-0.1535 0.8096-0.413l2.7806-3.8352" stroke="#D2C2D4"/><path d="m8.2648 11.028h4.2596c0.3204 0 0.6215-0.1535 0.8096-0.413l2.7806-3.8352" stroke="url(#ar)"/></g><path d="m8.2648 11.028h4.2596c0.3204 0 0.6215-0.1535 0.8096-0.413l2.7806-3.8352" stroke="url(#ag)" stroke-width="1.4"/><g filter="url(#aw)" stroke-width="1.4"><path d="m23.752 11.028h-4.2597c-0.3204 0-0.6215-0.1535-0.8096-0.413l-2.7806-3.8352" stroke="#D2C2D4"/><path d="m23.752 11.028h-4.2597c-0.3204 0-0.6215-0.1535-0.8096-0.413l-2.7806-3.8352" stroke="url(#v)"/></g><path d="m8.0331 12.197v8.7477" stroke="url(#k)"/><path d="m13.468 20.472-5.2035-8.2747" stroke="url(#f)"/><path d="m13.468 20.472-5.2035-8.2747" stroke="url(#e)"/><path d="m23.956 12.197v8.7477" stroke="url(#d)"/><path d="m18.578 20.472 5.2035-8.2747" stroke="url(#c)"/><g filter="url(#av)"><path d="m18.578 20.472 5.2035-8.2747" stroke="#F8DDE7" stroke-width=".25"/></g><path d="m29.392 20.472-5.2034-8.2747" stroke="url(#b)"/><path d="m29.392 20.472-5.2034-8.2747" stroke="url(#a)"/><circle cx="23.985" cy="11.004" r="1.6269" fill="url(#aq)"/><circle cx="23.985" cy="11.004" r="1.6269" fill="url(#ap)"/><circle cx="23.985" cy="11.004" r="1.6269" fill="url(#ao)"/><path d="m18.595 19.998c-0.4144 0-0.724 0.384-0.5854 0.7745 0.8726 2.4575 3.2182 4.2173 5.975 4.2173 2.7567 0 5.1024-1.7598 5.975-4.2173 0.1386-0.3905-0.171-0.7745-0.5854-0.7745h-10.779z" fill="url(#an)"/><path d="m18.595 19.998c-0.4144 0-0.724 0.384-0.5854 0.7745 0.8726 2.4575 3.2182 4.2173 5.975 4.2173 2.7567 0 5.1024-1.7598 5.975-4.2173 0.1386-0.3905-0.171-0.7745-0.5854-0.7745h-10.779z" fill="url(#am)"/><path d="m18.595 19.998c-0.4144 0-0.724 0.384-0.5854 0.7745 0.8726 2.4575 3.2182 4.2173 5.975 4.2173 2.7567 0 5.1024-1.7598 5.975-4.2173 0.1386-0.3905-0.171-0.7745-0.5854-0.7745h-10.779z" fill="url(#al)"/><path d="m18.595 19.998c-0.4144 0-0.724 0.384-0.5854 0.7745 0.8726 2.4575 3.2182 4.2173 5.975 4.2173 2.7567 0 5.1024-1.7598 5.975-4.2173 0.1386-0.3905-0.171-0.7745-0.5854-0.7745h-10.779z" fill="url(#ak)"/><path d="m18.595 19.998c-0.4144 0-0.724 0.384-0.5854 0.7745 0.8726 2.4575 3.2182 4.2173 5.975 4.2173 2.7567 0 5.1024-1.7598 5.975-4.2173 0.1386-0.3905-0.171-0.7745-0.5854-0.7745h-10.779z" fill="url(#aj)"/><path d="m18.595 19.998c-0.4144 0-0.724 0.384-0.5854 0.7745 0.8726 2.4575 3.2182 4.2173 5.975 4.2173 2.7567 0 5.1024-1.7598 5.975-4.2173 0.1386-0.3905-0.171-0.7745-0.5854-0.7745h-10.779z" fill="url(#ai)"/><path d="m2.6551 20.472 5.2035-8.2747" stroke="url(#ah)"/><g filter="url(#au)"><path d="m2.8117 20.472 5.2035-8.2747" stroke="#F8DDE7" stroke-width=".25"/></g><path d="m2.6255 19.998c-0.41435 0-0.72404 0.384-0.58539 0.7745 0.87257 2.4575 3.2182 4.2173 5.975 4.2173 2.7568 0 5.1024-1.7598 5.975-4.2173 0.1387-0.3905-0.171-0.7745-0.5853-0.7745h-10.779z" fill="url(#af)"/><path d="m2.6255 19.998c-0.41435 0-0.72404 0.384-0.58539 0.7745 0.87257 2.4575 3.2182 4.2173 5.975 4.2173 2.7568 0 5.1024-1.7598 5.975-4.2173 0.1387-0.3905-0.171-0.7745-0.5853-0.7745h-10.779z" fill="url(#ae)"/><path d="m2.6255 19.998c-0.41435 0-0.72404 0.384-0.58539 0.7745 0.87257 2.4575 3.2182 4.2173 5.975 4.2173 2.7568 0 5.1024-1.7598 5.975-4.2173 0.1387-0.3905-0.171-0.7745-0.5853-0.7745h-10.779z" fill="url(#ad)"/><path d="m2.6255 19.998c-0.41435 0-0.72404 0.384-0.58539 0.7745 0.87257 2.4575 3.2182 4.2173 5.975 4.2173 2.7568 0 5.1024-1.7598 5.975-4.2173 0.1387-0.3905-0.171-0.7745-0.5853-0.7745h-10.779z" fill="url(#ac)"/><path d="m2.6255 19.998c-0.41435 0-0.72404 0.384-0.58539 0.7745 0.87257 2.4575 3.2182 4.2173 5.975 4.2173 2.7568 0 5.1024-1.7598 5.975-4.2173 0.1387-0.3905-0.171-0.7745-0.5853-0.7745h-10.779z" fill="url(#ab)"/><path d="m2.6255 19.998c-0.41435 0-0.72404 0.384-0.58539 0.7745 0.87257 2.4575 3.2182 4.2173 5.975 4.2173 2.7568 0 5.1024-1.7598 5.975-4.2173 0.1387-0.3905-0.171-0.7745-0.5853-0.7745h-10.779z" fill="url(#aa)"/><circle cx="8.0151" cy="11.004" r="1.6269" fill="url(#z)"/><circle cx="8.0151" cy="11.004" r="1.6269" fill="url(#y)"/><circle cx="8.0151" cy="11.004" r="1.6269" fill="url(#x)"/><g filter="url(#at)"><path d="m16.456 6.9531 2.7657 3.8125" stroke="url(#w)" stroke-linecap="round" stroke-width=".4"/></g><path d="m16 4.376v22.284" stroke="url(#u)" stroke-width="1.5"/><path d="m16 4.376v22.284" stroke="url(#t)" stroke-width="1.5"/><path d="m16 4.376v22.284" stroke="url(#s)" stroke-width="1.5"/><path d="m16 4.376v22.284" stroke="url(#r)" stroke-width="1.5"/><path d="m16 4.376v22.284" stroke="url(#q)" stroke-width="1.5"/><path d="m23.189 29.963c0.6411 0 0.9674-0.7369 0.4861-1.1604-2.0473-1.8019-4.7338-2.8948-7.6756-2.8948s-5.6282 1.0929-7.6756 2.8948c-0.48123 0.4235-0.15493 1.1604 0.48614 1.1604h14.379z" fill="url(#p)"/><path d="m23.189 29.963c0.6411 0 0.9674-0.7369 0.4861-1.1604-2.0473-1.8019-4.7338-2.8948-7.6756-2.8948s-5.6282 1.0929-7.6756 2.8948c-0.48123 0.4235-0.15493 1.1604 0.48614 1.1604h14.379z" fill="url(#o)"/><path d="m23.189 29.963c0.6411 0 0.9674-0.7369 0.4861-1.1604-2.0473-1.8019-4.7338-2.8948-7.6756-2.8948s-5.6282 1.0929-7.6756 2.8948c-0.48123 0.4235-0.15493 1.1604 0.48614 1.1604h14.379z" fill="url(#n)"/><path d="m23.189 29.963c0.6411 0 0.9674-0.7369 0.4861-1.1604-2.0473-1.8019-4.7338-2.8948-7.6756-2.8948s-5.6282 1.0929-7.6756 2.8948c-0.48123 0.4235-0.15493 1.1604 0.48614 1.1604h14.379z" fill="url(#m)"/><path d="m23.189 29.963c0.6411 0 0.9674-0.7369 0.4861-1.1604-2.0473-1.8019-4.7338-2.8948-7.6756-2.8948s-5.6282 1.0929-7.6756 2.8948c-0.48123 0.4235-0.15493 1.1604 0.48614 1.1604h14.379z" fill="url(#l)"/><g filter="url(#as)"><path d="m16.393 4.9062v17.125" stroke="url(#j)" stroke-width=".4"/></g><circle cx="16" cy="3.6664" r="1.6269" fill="url(#i)"/><circle cx="16" cy="3.6664" r="1.6269" fill="url(#h)"/><circle cx="16" cy="3.6664" r="1.6269" fill="url(#g)"/><defs><filter id="ax" x="7.7648" y="5.8693" width="8.9165" height="5.8591" color-interpolation-filters="sRGB" filterUnits="userSpaceOnUse"><feFlood flood-opacity="0" result="BackgroundImageFix"/><feBlend in="SourceGraphic" in2="BackgroundImageFix" result="shape"/><feColorMatrix in="SourceAlpha" result="hardAlpha" values="0 0 0 0 0 0 0 0 0 0 0 0 0 0 0 0 0 0 127 0"/><feOffset dx="-0.5" dy="-0.5"/><feGaussianBlur stdDeviation="0.5"/><feComposite in2="hardAlpha" k2="-1" k3="1" operator="arithmetic"/><feColorMatrix values="0 0 0 0 0.682353 0 0 0 0 0.588235 0 0 0 0 0.694118 0 0 0 1 0"/><feBlend in2="shape" result="effect1_innerShadow_18_24521"/></filter><filter id="aw" x="15.335" y="5.8693" width="8.9165" height="5.8591" color-interpolation-filters="sRGB" filterUnits="userSpaceOnUse"><feFlood flood-opacity="0" result="BackgroundImageFix"/><feBlend in="SourceGraphic" in2="BackgroundImageFix" result="shape"/><feColorMatrix in="SourceAlpha" result="hardAlpha" values="0 0 0 0 0 0 0 0 0 0 0 0 0 0 0 0 0 0 127 0"/><feOffset dx="0.5" dy="-0.5"/><feGaussianBlur stdDeviation="0.5"/><feComposite in2="hardAlpha" k2="-1" k3="1" operator="arithmetic"/><feColorMatrix values="0 0 0 0 0.682353 0 0 0 0 0.588235 0 0 0 0 0.694118 0 0 0 1 0"/><feBlend in2="shape" result="effect1_innerShadow_18_24521"/></filter><filter id="av" x="18.073" y="11.73" width="6.2151" height="9.2076" color-interpolation-filters="sRGB" filterUnits="userSpaceOnUse"><feFlood flood-opacity="0" result="BackgroundImageFix"/><feBlend in="SourceGraphic" in2="BackgroundImageFix" result="shape"/><feGaussianBlur result="effect1_foregroundBlur_18_24521" stdDeviation="0.2"/></filter><filter id="au" x="2.3059" y="11.73" width="6.2151" height="9.2076" color-interpolation-filters="sRGB" filterUnits="userSpaceOnUse"><feFlood flood-opacity="0" result="BackgroundImageFix"/><feBlend in="SourceGraphic" in2="BackgroundImageFix" result="shape"/><feGaussianBlur result="effect1_foregroundBlur_18_24521" stdDeviation="0.2"/></filter><filter id="at" x="15.856" y="6.3531" width="3.9656" height="5.0125" color-interpolation-filters="sRGB" filterUnits="userSpaceOnUse"><feFlood flood-opacity="0" result="BackgroundImageFix"/><feBlend in="SourceGraphic" in2="BackgroundImageFix" result="shape"/><feGaussianBlur result="effect1_foregroundBlur_18_24521" stdDeviation="0.2"/></filter><filter id="as" x="15.793" y="4.5062" height="17.925" color-interpolation-filters="sRGB" filterUnits="userSpaceOnUse"><feFlood flood-opacity="0" result="BackgroundImageFix"/><feBlend in="SourceGraphic" in2="BackgroundImageFix" result="shape"/><feGaussianBlur result="effect1_foregroundBlur_18_24521" stdDeviation="0.2"/></filter><radialGradient id="ar" cx="0" cy="0" r="1" gradientTransform="translate(9.2483 11.028) scale(1.4062 2.4716)" gradientUnits="userSpaceOnUse"><stop stop-color="#BDAAB9" offset=".28889"/><stop stop-color="#BDAAB9" stop-opacity="0" offset="1"/></radialGradient><radialGradient id="ag" cx="0" cy="0" r="1" gradientTransform="translate(10.487 11.938) rotate(-38.83) scale(6.5788 5.0942)" gradientUnits="userSpaceOnUse"><stop stop-color="#99839C" stop-opacity="0" offset=".7258"/><stop stop-color="#99839C" offset=".98836"/></radialGradient><radialGradient id="v" cx="0" cy="0" r="1" gradientTransform="translate(22.768 11.028) rotate(180) scale(1.4062 2.4716)" gradientUnits="userSpaceOnUse"><stop stop-color="#BDAAB9" offset=".28889"/><stop stop-color="#BDAAB9" stop-opacity="0" offset="1"/></radialGradient><linearGradient id="k" x1="7.4247" x2="8.8622" y1="18.031" y2="18.062" gradientUnits="userSpaceOnUse"><stop stop-color="#BBA1B3" offset=".18753"/><stop stop-color="#D7B7C8" offset="1"/></linearGradient><linearGradient id="f" x1="10.503" x2="11.237" y1="16.334" y2="15.812" gradientUnits="userSpaceOnUse"><stop stop-color="#D0B6C3" offset=".17491"/><stop stop-color="#E6D2E4" offset="1"/></linearGradient><linearGradient id="e" x1="10.331" x2="10.53" y1="16.394" y2="16.266" gradientUnits="userSpaceOnUse"><stop stop-color="#C2A6B1" offset="0"/><stop stop-color="#C2A6B1" stop-opacity="0" offset="1"/></linearGradient><linearGradient id="d" x1="23.348" x2="24.786" y1="18.031" y2="18.062" gradientUnits="userSpaceOnUse"><stop stop-color="#BBA1B3" offset=".18753"/><stop stop-color="#D7B7C8" offset="1"/></linearGradient><linearGradient id="c" x1="20.473" x2="21.442" y1="16.334" y2="17.031" gradientUnits="userSpaceOnUse"><stop stop-color="#C1AFC0" offset="0"/><stop stop-color="#F6D6DE" offset="1"/></linearGradient><linearGradient id="b" x1="26.426" x2="27.16" y1="16.334" y2="15.812" gradientUnits="userSpaceOnUse"><stop stop-color="#D0B6C3" offset=".17491"/><stop stop-color="#E6D2E4" offset="1"/></linearGradient><linearGradient id="a" x1="26.254" x2="26.454" y1="16.394" y2="16.266" gradientUnits="userSpaceOnUse"><stop stop-color="#C2A6B1" offset="0"/><stop stop-color="#C2A6B1" stop-opacity="0" offset="1"/></linearGradient><radialGradient id="aq" cx="0" cy="0" r="1" gradientTransform="translate(24.901 10.188) rotate(110.55) scale(2.6089 2.7158)" gradientUnits="userSpaceOnUse"><stop stop-color="#FFC539" offset=".31881"/><stop stop-color="#F6973E" offset="1"/></radialGradient><radialGradient id="ap" cx="0" cy="0" r="1" gradientTransform="translate(25.612 10.111) rotate(134.48) scale(1.7864 1.9273)" gradientUnits="userSpaceOnUse"><stop stop-color="#FFF361" offset="0"/><stop stop-color="#FFF361" stop-opacity="0" offset="1"/></radialGradient><radialGradient id="ao" cx="0" cy="0" r="1" gradientTransform="translate(23.985 12.834) rotate(-90) scale(1.371 1.1863)" gradientUnits="userSpaceOnUse"><stop stop-color="#E98856" offset="0"/><stop stop-color="#E98856" stop-opacity="0" offset="1"/></radialGradient><radialGradient id="an" cx="0" cy="0" r="1" gradientTransform="translate(23.985 20.188) rotate(90) scale(4.8027 8.9342)" gradientUnits="userSpaceOnUse"><stop stop-color="#FFB85E" offset=".4815"/><stop stop-color="#FF9D5B" offset="1"/></radialGradient><linearGradient id="am" x1="23.985" x2="23.985" y1="19.998" y2="21.156" gradientUnits="userSpaceOnUse"><stop stop-color="#FFCF4D" offset="0"/><stop stop-color="#FFCF4D" stop-opacity="0" offset="1"/></linearGradient><radialGradient id="al" cx="0" cy="0" r="1" gradientTransform="translate(28.676 19.438) rotate(126.87) scale(5.4688 3.6312)" gradientUnits="userSpaceOnUse"><stop stop-color="#FFC635" offset="0"/><stop stop-color="#FFC635" stop-opacity="0" offset="1"/></radialGradient><radialGradient id="ak" cx="0" cy="0" r="1" gradientTransform="translate(23.985 20.5) rotate(90) scale(4.4902 8.653)" gradientUnits="userSpaceOnUse"><stop stop-color="#FD9860" stop-opacity="0" offset=".59157"/><stop stop-color="#F18E9D" offset="1"/></radialGradient><radialGradient id="aj" cx="0" cy="0" r="1" gradientTransform="translate(22.676 19.531) rotate(52.677) scale(7.1127 9.9205)" gradientUnits="userSpaceOnUse"><stop stop-color="#FFB651" stop-opacity="0" offset=".82673"/><stop stop-color="#E29471" offset="1"/></radialGradient><radialGradient id="ai" cx="0" cy="0" r="1" gradientTransform="translate(27.988 20.5) rotate(90) scale(1.125 8.325)" gradientUnits="userSpaceOnUse"><stop stop-color="#FFF263" offset="0"/><stop stop-color="#FFD049" stop-opacity="0" offset="1"/></radialGradient><linearGradient id="ah" x1="4.5497" x2="5.5184" y1="16.334" y2="17.031" gradientUnits="userSpaceOnUse"><stop stop-color="#C1AFC0" offset="0"/><stop stop-color="#F6D6DE" offset="1"/></linearGradient><radialGradient id="af" cx="0" cy="0" r="1" gradientTransform="translate(8.0152 20.188) rotate(90) scale(4.8027 8.9342)" gradientUnits="userSpaceOnUse"><stop stop-color="#FFB85E" offset=".4815"/><stop stop-color="#FF9D5B" offset="1"/></radialGradient><linearGradient id="ae" x1="8.0152" x2="8.0152" y1="19.998" y2="21.156" gradientUnits="userSpaceOnUse"><stop stop-color="#FFCF4D" offset="0"/><stop stop-color="#FFCF4D" stop-opacity="0" offset="1"/></linearGradient><radialGradient id="ad" cx="0" cy="0" r="1" gradientTransform="translate(12.706 19.438) rotate(126.87) scale(5.4688 3.6312)" gradientUnits="userSpaceOnUse"><stop stop-color="#FFC635" offset="0"/><stop stop-color="#FFC635" stop-opacity="0" offset="1"/></radialGradient><radialGradient id="ac" cx="0" cy="0" r="1" gradientTransform="translate(12.018 20.5) rotate(90) scale(1.125 8.325)" gradientUnits="userSpaceOnUse"><stop stop-color="#FFF263" offset="0"/><stop stop-color="#FFD049" stop-opacity="0" offset="1"/></radialGradient><radialGradient id="ab" cx="0" cy="0" r="1" gradientTransform="translate(8.0152 20.5) rotate(90) scale(4.4902 8.653)" gradientUnits="userSpaceOnUse"><stop stop-color="#FD9860" stop-opacity="0" offset=".59157"/><stop stop-color="#F18E9D" offset="1"/></radialGradient><radialGradient id="aa" cx="0" cy="0" r="1" gradientTransform="translate(6.7059 19.531) rotate(52.677) scale(7.1127 9.9205)" gradientUnits="userSpaceOnUse"><stop stop-color="#FFB651" stop-opacity="0" offset=".82673"/><stop stop-color="#E29471" offset="1"/></radialGradient><radialGradient id="z" cx="0" cy="0" r="1" gradientTransform="translate(8.9311 10.188) rotate(110.55) scale(2.6089 2.7158)" gradientUnits="userSpaceOnUse"><stop stop-color="#FFC539" offset=".31881"/><stop stop-color="#F6973E" offset="1"/></radialGradient><radialGradient id="y" cx="0" cy="0" r="1" gradientTransform="translate(9.6421 10.111) rotate(134.48) scale(1.7864 1.9273)" gradientUnits="userSpaceOnUse"><stop stop-color="#FFF361" offset="0"/><stop stop-color="#FFF361" stop-opacity="0" offset="1"/></radialGradient><radialGradient id="x" cx="0" cy="0" r="1" gradientTransform="translate(8.0151 12.834) rotate(-90) scale(1.371 1.1863)" gradientUnits="userSpaceOnUse"><stop stop-color="#E98856" offset="0"/><stop stop-color="#E98856" stop-opacity="0" offset="1"/></radialGradient><linearGradient id="w" x1="16.362" x2="19.42" y1="7.7567" y2="11.981" gradientUnits="userSpaceOnUse"><stop stop-color="#FDEBFF" offset="0"/><stop stop-color="#FDEBFF" stop-opacity="0" offset="1"/></linearGradient><linearGradient id="u" x1="15.255" x2="16.375" y1="13.896" y2="13.896" gradientUnits="userSpaceOnUse"><stop stop-color="#C3AEC2" offset="0"/><stop stop-color="#E7D3E6" offset="1"/></linearGradient><radialGradient id="t" cx="0" cy="0" r="1" gradientTransform="translate(15.622 4.7236) rotate(117.26) scale(2.1505 1.2251)" gradientUnits="userSpaceOnUse"><stop stop-color="#B59CAD" offset="0"/><stop stop-color="#B59CAD" stop-opacity="0" offset="1"/></radialGradient><linearGradient id="s" x1="15.294" x2="15.294" y1="26.294" y2="20.925" gradientUnits="userSpaceOnUse"><stop stop-color="#BC9EA3" offset="0"/><stop stop-color="#BC9EA3" stop-opacity="0" offset="1"/></linearGradient><linearGradient id="r" x1="15.151" x2="15.503" y1="16" y2="16" gradientUnits="userSpaceOnUse"><stop stop-color="#A38B8F" offset="0"/><stop stop-color="#CBB6CA" stop-opacity="0" offset="1"/></linearGradient><radialGradient id="q" cx="0" cy="0" r="1" gradientTransform="translate(16 12.188) rotate(90) scale(14.473 5.943)" gradientUnits="userSpaceOnUse"><stop stop-color="#92767E" stop-opacity="0" offset=".92197"/><stop stop-color="#92767E" offset="1"/></radialGradient><linearGradient id="p" x1="16" x2="16" y1="25.907" y2="29.719" gradientUnits="userSpaceOnUse"><stop stop-color="#F9C63C" offset=".25387"/><stop stop-color="#FFCE37" offset=".75402"/></linearGradient><radialGradient id="o" cx="0" cy="0" r="1" gradientTransform="translate(23.425 29.75) rotate(180) scale(7.4247 2.6875)" gradientUnits="userSpaceOnUse"><stop stop-color="#FFFF64" offset="0"/><stop stop-color="#FFFF64" stop-opacity="0" offset="1"/></radialGradient><linearGradient id="n" x1="17.675" x2="17.675" y1="29.963" y2="29.219" gradientUnits="userSpaceOnUse"><stop stop-color="#FA8694" offset="0"/><stop stop-color="#FFA166" stop-opacity="0" offset="1"/></linearGradient><radialGradient id="m" cx="0" cy="0" r="1" gradientTransform="translate(15.362 30.969) rotate(252.57) scale(5.6337 16.29)" gradientUnits="userSpaceOnUse"><stop stop-color="#EB9E40" stop-opacity="0" offset=".5704"/><stop stop-color="#EB9E40" offset="1"/></radialGradient><radialGradient id="l" cx="0" cy="0" r="1" gradientTransform="translate(16 29.375) rotate(-90) scale(3.75 12.862)" gradientUnits="userSpaceOnUse"><stop stop-color="#DDB761" stop-opacity="0" offset=".68491"/><stop stop-color="#D29F5F" offset="1"/></radialGradient><linearGradient id="j" x1="16.893" x2="16.893" y1="4.9062" y2="22.031" gradientUnits="userSpaceOnUse"><stop stop-color="#EDD9EE" offset="0"/><stop stop-color="#EDD9EE" stop-opacity="0" offset="1"/></linearGradient><radialGradient id="i" cx="0" cy="0" r="1" gradientTransform="translate(16.916 2.8505) rotate(110.55) scale(2.6089 2.7158)" gradientUnits="userSpaceOnUse"><stop stop-color="#FFC539" offset=".31881"/><stop stop-color="#F6973E" offset="1"/></radialGradient><radialGradient id="h" cx="0" cy="0" r="1" gradientTransform="translate(17.627 2.7732) rotate(134.48) scale(1.7864 1.9273)" gradientUnits="userSpaceOnUse"><stop stop-color="#FFF361" offset="0"/><stop stop-color="#FFF361" stop-opacity="0" offset="1"/></radialGradient><radialGradient id="g" cx="0" cy="0" r="1" gradientTransform="translate(16 5.496) rotate(-90) scale(1.371 1.1863)" gradientUnits="userSpaceOnUse"><stop stop-color="#E98856" offset="0"/><stop stop-color="#E98856" stop-opacity="0" offset="1"/></radialGradient></defs></svg>
