<?xml version="1.0" encoding="UTF-8"?>
<!--Generator: Apple Native CoreSVG 175.5-->
<!DOCTYPE svg
PUBLIC "-//W3C//DTD SVG 1.1//EN"
       "http://www.w3.org/Graphics/SVG/1.1/DTD/svg11.dtd">
<svg version="1.1" xmlns="http://www.w3.org/2000/svg" xmlns:xlink="http://www.w3.org/1999/xlink" width="3300" height="2200">
 <!--glyph: "", point size: 100.0, font version: "18.0d12e2", template writer version: "101"-->
 <g id="Notes">
  <rect height="2200" id="artboard" style="fill:white;opacity:1" width="3300" x="0" y="0"/>
  <line style="fill:none;stroke:black;opacity:1;stroke-width:0.5;" x1="263" x2="3036" y1="292" y2="292"/>
  <text style="stroke:none;fill:black;font-family:sans-serif;font-size:13;font-weight:bold;" transform="matrix(1 0 0 1 263 322)">Weight/Scale Variations</text>
  <text style="stroke:none;fill:black;font-family:sans-serif;font-size:13;text-anchor:middle;" transform="matrix(1 0 0 1 559.711 322)">Ultralight</text>
  <text style="stroke:none;fill:black;font-family:sans-serif;font-size:13;text-anchor:middle;" transform="matrix(1 0 0 1 856.422 322)">Thin</text>
  <text style="stroke:none;fill:black;font-family:sans-serif;font-size:13;text-anchor:middle;" transform="matrix(1 0 0 1 1153.13 322)">Light</text>
  <text style="stroke:none;fill:black;font-family:sans-serif;font-size:13;text-anchor:middle;" transform="matrix(1 0 0 1 1449.84 322)">Regular</text>
  <text style="stroke:none;fill:black;font-family:sans-serif;font-size:13;text-anchor:middle;" transform="matrix(1 0 0 1 1746.56 322)">Medium</text>
  <text style="stroke:none;fill:black;font-family:sans-serif;font-size:13;text-anchor:middle;" transform="matrix(1 0 0 1 2043.27 322)">Semibold</text>
  <text style="stroke:none;fill:black;font-family:sans-serif;font-size:13;text-anchor:middle;" transform="matrix(1 0 0 1 2339.98 322)">Bold</text>
  <text style="stroke:none;fill:black;font-family:sans-serif;font-size:13;text-anchor:middle;" transform="matrix(1 0 0 1 2636.69 322)">Heavy</text>
  <text style="stroke:none;fill:black;font-family:sans-serif;font-size:13;text-anchor:middle;" transform="matrix(1 0 0 1 2933.4 322)">Black</text>
  <line style="fill:none;stroke:black;opacity:1;stroke-width:0.5;" x1="263" x2="3036" y1="1903" y2="1903"/>
  <g transform="matrix(1 0 0 1 263 1933)">
   <path d="M9.24805 0.830078C13.5547 0.830078 17.1387-2.74414 17.1387-7.05078C17.1387-11.3574 13.5449-14.9316 9.23828-14.9316C4.94141-14.9316 1.36719-11.3574 1.36719-7.05078C1.36719-2.74414 4.95117 0.830078 9.24805 0.830078ZM9.24805-0.654297C5.70312-0.654297 2.87109-3.49609 2.87109-7.05078C2.87109-10.6055 5.69336-13.4473 9.23828-13.4473C12.793-13.4473 15.6445-10.6055 15.6445-7.05078C15.6445-3.49609 12.8027-0.654297 9.24805-0.654297ZM5.6543-7.05078C5.6543-6.62109 5.95703-6.32812 6.40625-6.32812L8.50586-6.32812L8.50586-4.20898C8.50586-3.76953 8.79883-3.4668 9.22852-3.4668C9.67773-3.4668 9.9707-3.76953 9.9707-4.20898L9.9707-6.32812L12.0898-6.32812C12.5293-6.32812 12.832-6.62109 12.832-7.05078C12.832-7.49023 12.5293-7.79297 12.0898-7.79297L9.9707-7.79297L9.9707-9.90234C9.9707-10.3516 9.67773-10.6543 9.22852-10.6543C8.79883-10.6543 8.50586-10.3516 8.50586-9.90234L8.50586-7.79297L6.40625-7.79297C5.95703-7.79297 5.6543-7.49023 5.6543-7.05078Z"/>
  </g>
  <g transform="matrix(1 0 0 1 281.867 1933)">
   <path d="M11.709 2.91016C17.1582 2.91016 21.6699-1.61133 21.6699-7.05078C21.6699-12.5 17.1484-17.0117 11.6992-17.0117C6.25977-17.0117 1.74805-12.5 1.74805-7.05078C1.74805-1.61133 6.26953 2.91016 11.709 2.91016ZM11.709 1.25C7.09961 1.25 3.41797-2.44141 3.41797-7.05078C3.41797-11.6602 7.08984-15.3516 11.6992-15.3516C16.3086-15.3516 20.0098-11.6602 20.0098-7.05078C20.0098-2.44141 16.3184 1.25 11.709 1.25ZM7.17773-7.05078C7.17773-6.57227 7.50977-6.25 8.00781-6.25L10.8789-6.25L10.8789-3.36914C10.8789-2.88086 11.2109-2.53906 11.6895-2.53906C12.1777-2.53906 12.5195-2.87109 12.5195-3.36914L12.5195-6.25L15.4004-6.25C15.8887-6.25 16.2305-6.57227 16.2305-7.05078C16.2305-7.53906 15.8887-7.88086 15.4004-7.88086L12.5195-7.88086L12.5195-10.752C12.5195-11.25 12.1777-11.5918 11.6895-11.5918C11.2109-11.5918 10.8789-11.25 10.8789-10.752L10.8789-7.88086L8.00781-7.88086C7.50977-7.88086 7.17773-7.53906 7.17773-7.05078Z"/>
  </g>
  <g transform="matrix(1 0 0 1 305.646 1933)">
   <path d="M14.9707 5.66406C21.9336 5.66406 27.6953-0.0976562 27.6953-7.05078C27.6953-14.0137 21.9238-19.7754 14.9609-19.7754C8.00781-19.7754 2.25586-14.0137 2.25586-7.05078C2.25586-0.0976562 8.01758 5.66406 14.9707 5.66406ZM14.9707 3.84766C8.93555 3.84766 4.08203-1.01562 4.08203-7.05078C4.08203-13.0957 8.92578-17.9492 14.9609-17.9492C21.0059-17.9492 25.8691-13.0957 25.8691-7.05078C25.8691-1.01562 21.0156 3.84766 14.9707 3.84766ZM9.19922-7.05078C9.19922-6.5332 9.57031-6.17188 10.1172-6.17188L14.0625-6.17188L14.0625-2.2168C14.0625-1.67969 14.4336-1.29883 14.9512-1.29883C15.4883-1.29883 15.8594-1.66992 15.8594-2.2168L15.8594-6.17188L19.8145-6.17188C20.3516-6.17188 20.7324-6.5332 20.7324-7.05078C20.7324-7.59766 20.3613-7.96875 19.8145-7.96875L15.8594-7.96875L15.8594-11.9141C15.8594-12.4609 15.4883-12.8418 14.9512-12.8418C14.4336-12.8418 14.0625-12.4609 14.0625-11.9141L14.0625-7.96875L10.1172-7.96875C9.57031-7.96875 9.19922-7.59766 9.19922-7.05078Z"/>
  </g>
  <text style="stroke:none;fill:black;font-family:sans-serif;font-size:13;font-weight:bold;" transform="matrix(1 0 0 1 263 1953)">Design Variations</text>
  <text style="stroke:none;fill:black;font-family:sans-serif;font-size:13;" transform="matrix(1 0 0 1 263 1971)">Symbols are supported in up to nine weights and three scales.</text>
  <text style="stroke:none;fill:black;font-family:sans-serif;font-size:13;" transform="matrix(1 0 0 1 263 1989)">For optimal layout with text and other symbols, vertically align</text>
  <text style="stroke:none;fill:black;font-family:sans-serif;font-size:13;" transform="matrix(1 0 0 1 263 2007)">symbols with the adjacent text.</text>
  <line style="fill:none;stroke:#00AEEF;stroke-width:0.5;opacity:1.0;" x1="776" x2="776" y1="1919" y2="1933"/>
  <g transform="matrix(1 0 0 1 776 1933)">
   <path d="M3.31055 0.15625C3.82812 0.15625 4.08203-0.0390625 4.26758-0.585938L5.52734-4.0332L11.2891-4.0332L12.5488-0.585938C12.7344-0.0390625 12.9883 0.15625 13.4961 0.15625C14.0137 0.15625 14.3457-0.15625 14.3457-0.644531C14.3457-0.810547 14.3164-0.966797 14.2383-1.17188L9.6582-13.3691C9.43359-13.9648 9.0332-14.2676 8.4082-14.2676C7.80273-14.2676 7.39258-13.9746 7.17773-13.3789L2.59766-1.16211C2.51953-0.957031 2.49023-0.800781 2.49023-0.634766C2.49023-0.146484 2.80273 0.15625 3.31055 0.15625ZM6.00586-5.51758L8.37891-12.0898L8.42773-12.0898L10.8008-5.51758Z"/>
  </g>
  <line style="fill:none;stroke:#00AEEF;stroke-width:0.5;opacity:1.0;" x1="793.197" x2="793.197" y1="1919" y2="1933"/>
  <text style="stroke:none;fill:black;font-family:sans-serif;font-size:13;font-weight:bold;" transform="matrix(1 0 0 1 776 1953)">Margins</text>
  <text style="stroke:none;fill:black;font-family:sans-serif;font-size:13;" transform="matrix(1 0 0 1 776 1971)">Leading and trailing margins on the left and right side of each symbol</text>
  <text style="stroke:none;fill:black;font-family:sans-serif;font-size:13;" transform="matrix(1 0 0 1 776 1989)">can be adjusted by modifying the x-location of the margin guidelines.</text>
  <text style="stroke:none;fill:black;font-family:sans-serif;font-size:13;" transform="matrix(1 0 0 1 776 2007)">Modifications are automatically applied proportionally to all</text>
  <text style="stroke:none;fill:black;font-family:sans-serif;font-size:13;" transform="matrix(1 0 0 1 776 2025)">scales and weights.</text>
  <g transform="matrix(1 0 0 1 1289 1933)">
   <path d="M2.8418 1.86523L4.54102 3.57422C5.40039 4.44336 6.38672 4.38477 7.31445 3.35938L18.0078-8.42773L17.041-9.4043L6.42578 2.27539C6.07422 2.67578 5.74219 2.77344 5.27344 2.30469L4.10156 1.14258C3.63281 0.683594 3.74023 0.341797 4.14062-0.0195312L15.6152-10.8203L14.6387-11.7871L3.04688-0.898438C2.06055 0.0195312 1.98242 0.996094 2.8418 1.86523ZM9.25781-16.3281C8.83789-15.918 8.80859-15.3418 9.04297-14.9512C9.27734-14.5898 9.73633-14.3555 10.3809-14.5215C11.8457-14.8633 13.3691-14.9219 14.7949-13.9844L14.209-12.5293C13.8672-11.6992 14.043-11.1133 14.5801-10.5664L16.875-8.25195C17.3633-7.76367 17.7734-7.74414 18.3398-7.8418L19.4043-8.03711L20.0684-7.36328L20.0293-6.80664C19.9902-6.30859 20.1172-5.92773 20.6055-5.44922L21.3672-4.70703C21.8457-4.22852 22.4609-4.19922 22.9297-4.66797L25.8398-7.58789C26.3086-8.05664 26.2891-8.65234 25.8105-9.13086L25.0391-9.89258C24.5605-10.3711 24.1895-10.5273 23.7109-10.4883L23.1348-10.4395L22.4902-11.0742L22.7344-12.1973C22.8613-12.7637 22.7051-13.2031 22.1191-13.7891L19.9219-15.9766C16.582-19.2969 12.1484-19.2188 9.25781-16.3281ZM10.752-15.957C13.1836-17.7344 16.4746-17.4316 18.7012-15.2051L21.1328-12.793C21.3672-12.5586 21.4062-12.373 21.3379-12.0312L21.0156-10.5469L22.5195-9.0625L23.5059-9.12109C23.7598-9.13086 23.8379-9.11133 24.0332-8.91602L24.6094-8.33984L22.168-5.89844L21.5918-6.47461C21.3965-6.66992 21.3672-6.74805 21.377-7.01172L21.4453-7.98828L19.9512-9.47266L18.4277-9.21875C18.1055-9.15039 17.959-9.17969 17.7148-9.41406L15.7129-11.416C15.459-11.6504 15.4297-11.8164 15.5859-12.1875L16.4648-14.2773C14.9023-15.7324 12.8711-16.3574 10.8398-15.7617C10.6836-15.7227 10.625-15.8496 10.752-15.957Z"/>
  </g>
  <text style="stroke:none;fill:black;font-family:sans-serif;font-size:13;font-weight:bold;" transform="matrix(1 0 0 1 1289 1953)">Exporting</text>
  <text style="stroke:none;fill:black;font-family:sans-serif;font-size:13;" transform="matrix(1 0 0 1 1289 1971)">Symbols should be outlined when exporting to ensure the</text>
  <text style="stroke:none;fill:black;font-family:sans-serif;font-size:13;" transform="matrix(1 0 0 1 1289 1989)">design is preserved when submitting to Xcode.</text>
  <text id="template-version" style="stroke:none;fill:black;font-family:sans-serif;font-size:13;text-anchor:end;" transform="matrix(1 0 0 1 3036 1933)">Template v.4.0</text>
  <text style="stroke:none;fill:black;font-family:sans-serif;font-size:13;text-anchor:end;" transform="matrix(1 0 0 1 3036 1951)">Requires Xcode 14 or greater</text>
  <text id="descriptive-name" style="stroke:none;fill:black;font-family:sans-serif;font-size:13;text-anchor:end;" transform="matrix(1 0 0 1 3036 1969)">Generated from phone.and.person3.fill</text>
  <text style="stroke:none;fill:black;font-family:sans-serif;font-size:13;text-anchor:end;" transform="matrix(1 0 0 1 3036 1987)">Typeset at 100 points</text>
  <text style="stroke:none;fill:black;font-family:sans-serif;font-size:13;" transform="matrix(1 0 0 1 263 726)">Small</text>
  <text style="stroke:none;fill:black;font-family:sans-serif;font-size:13;" transform="matrix(1 0 0 1 263 1156)">Medium</text>
  <text style="stroke:none;fill:black;font-family:sans-serif;font-size:13;" transform="matrix(1 0 0 1 263 1586)">Large</text>
 </g>
 <g id="Guides">
  <g id="H-reference" style="fill:#27AAE1;stroke:none;" transform="matrix(1 0 0 1 339 696)">
   <path d="M0.993654 0L3.63775 0L29.3281-67.1323L30.0303-67.1323L30.0303-70.459L28.1226-70.459ZM11.6885-24.4799L46.9815-24.4799L46.2315-26.7285L12.4385-26.7285ZM55.1196 0L57.7637 0L30.6382-70.459L29.4326-70.459L29.4326-67.1323Z"/>
  </g>
  <line id="Baseline-S" style="fill:none;stroke:#27AAE1;opacity:1;stroke-width:0.5;" x1="263" x2="3036" y1="696" y2="696"/>
  <line id="Capline-S" style="fill:none;stroke:#27AAE1;opacity:1;stroke-width:0.5;" x1="263" x2="3036" y1="625.541" y2="625.541"/>
  <g id="H-reference" style="fill:#27AAE1;stroke:none;" transform="matrix(1 0 0 1 339 1126)">
   <path d="M0.993654 0L3.63775 0L29.3281-67.1323L30.0303-67.1323L30.0303-70.459L28.1226-70.459ZM11.6885-24.4799L46.9815-24.4799L46.2315-26.7285L12.4385-26.7285ZM55.1196 0L57.7637 0L30.6382-70.459L29.4326-70.459L29.4326-67.1323Z"/>
  </g>
  <line id="Baseline-M" style="fill:none;stroke:#27AAE1;opacity:1;stroke-width:0.5;" x1="263" x2="3036" y1="1126" y2="1126"/>
  <line id="Capline-M" style="fill:none;stroke:#27AAE1;opacity:1;stroke-width:0.5;" x1="263" x2="3036" y1="1055.54" y2="1055.54"/>
  <g id="H-reference" style="fill:#27AAE1;stroke:none;" transform="matrix(1 0 0 1 339 1556)">
   <path d="M0.993654 0L3.63775 0L29.3281-67.1323L30.0303-67.1323L30.0303-70.459L28.1226-70.459ZM11.6885-24.4799L46.9815-24.4799L46.2315-26.7285L12.4385-26.7285ZM55.1196 0L57.7637 0L30.6382-70.459L29.4326-70.459L29.4326-67.1323Z"/>
  </g>
  <line id="Baseline-L" style="fill:none;stroke:#27AAE1;opacity:1;stroke-width:0.5;" x1="263" x2="3036" y1="1556" y2="1556"/>
  <line id="Capline-L" style="fill:none;stroke:#27AAE1;opacity:1;stroke-width:0.5;" x1="263" x2="3036" y1="1485.54" y2="1485.54"/>
  <line id="left-margin-Regular-M" style="fill:none;stroke:#00AEEF;stroke-width:0.5;opacity:1.0;" x1="1392.34" x2="1392.34" y1="1030.79" y2="1150.12"/>
  <line id="right-margin-Regular-M" style="fill:none;stroke:#FF3B30;stroke-width:0.5;opacity:1.0;" x1="1507.34" x2="1507.34" y1="1030.79" y2="1150.12"/>
 </g>
 <g id="Symbols">
  <g id="Black-L" transform="matrix(1 0 0 1 2858.55 1556)">
   <path d="M39.3405-5.1C59.2405 14.9 83.2405 30.1 102.64 30.1C111.24 30.1 118.94 27.1 125.04 20.3C128.64 16.3 130.44 12 130.44 7.5C130.44 3.5 128.84-0.4 125.04-3.1L105.34-17C101.94-19.4 99.2405-20.4 96.8405-20.4C93.6405-20.4 90.9405-18.6 87.8405-15.6L83.0405-10.8C82.3405-10.1 81.3405-9.8 80.5405-9.8C79.5405-9.8 78.4405-10.2 77.7405-10.6C73.5405-13 66.4405-19.2 59.9405-25.7C53.4405-32.2 47.3405-39.4 44.9405-43.5C44.5405-44.2 44.1405-45.3 44.1405-46.3C44.1405-47.2 44.4405-48.1 45.1405-48.8L49.9405-53.6C52.9405-56.7 54.8405-59.4 54.8405-62.6C54.8405-65 53.8405-67.8 51.3405-71.1L37.4405-90.8C34.7405-94.6 30.7405-96.2 26.7405-96.2C22.2405-96.2 17.8405-94.4 14.0405-90.8C7.24049-84.6 4.34049-76.9 4.34049-68.3C4.24049-48.8 19.3405-25 39.3405-5.1ZM88.7405-75.8C93.0405-75.8 96.2405-79.4 96.2405-84.2C96.2405-88.6 92.9405-92.4 88.7405-92.4C84.5405-92.4 81.1405-88.6 81.2405-84.2C81.2405-79.4 84.4405-75.8 88.7405-75.8ZM98.8405-69.1C96.4405-71 93.1405-72.4 88.6405-72.4C78.7405-72.4 72.5405-65.3 72.5405-59C72.5405-57 73.6405-56.3 75.5405-56.3L94.1405-56.3C93.6405-57.1 93.4405-58 93.4405-59C93.3405-62.1 95.3405-66 98.8405-69.1ZM114.54-76.2C119.44-76.2 123.14-80.4 123.14-85.8C123.14-90.9 119.34-95.2 114.54-95.2C109.74-95.2 105.84-90.9 105.84-85.8C105.74-80.4 109.64-76.2 114.54-76.2ZM140.04-75.7C144.34-75.7 147.54-79.3 147.54-84.1C147.54-88.5 144.24-92.3 140.04-92.3C135.84-92.3 132.54-88.6 132.44-84.1C132.54-79.3 135.84-75.7 140.04-75.7ZM140.04-72.2C135.64-72.2 132.24-70.8 129.84-68.9C133.34-65.8 135.24-61.9 135.24-58.7C135.24-57.7 134.94-56.7 134.54-56L153.14-56C155.04-56 156.14-56.8 156.14-58.7C156.04-65.1 150.04-72.2 140.04-72.2ZM114.34-71.4C103.44-71.4 96.4405-64 96.4405-58.9C96.4405-57.7 97.2405-56.9 98.5405-56.9L129.94-56.8C131.24-56.8 132.04-57.5 132.04-58.8C132.14-63.9 125.14-71.4 114.34-71.4Z"/>
  </g>
  <g id="Heavy-L" transform="matrix(1 0 0 1 2564.29 1556)">
   <path d="M38.84-5.5C58.24 14 81.84 29 100.84 29C109.34 29 116.94 26 122.94 19.3C126.44 15.4 128.34 11.1 128.34 6.6C128.34 2.8 126.84-0.9 123.24-3.5L103.74-17.4C100.54-19.7 97.84-20.7 95.44-20.7C92.34-20.7 89.64-19 86.54-16L81.94-11.2C81.24-10.5 80.34-10.2 79.44-10.2C78.44-10.2 77.44-10.6 76.74-11C72.64-13.3 65.64-19.4 59.14-25.8C52.74-32.3 46.64-39.3 44.34-43.4C43.94-44.1 43.54-45.1 43.54-46.1C43.54-46.9 43.84-47.9 44.54-48.6L49.24-53.3C52.24-56.3 54.04-59.1 54.04-62.1C54.04-64.5 53.04-67.2 50.64-70.4L36.84-89.9C34.24-93.6 30.54-95.1 26.54-95.1C22.14-95.1 17.84-93.3 13.94-89.7C7.24-83.6 4.34-76 4.34-67.6C4.44-48.3 19.24-25 38.84-5.5ZM87.64-74.7C91.64-74.7 94.74-78.1 94.74-82.6C94.74-86.8 91.64-90.3 87.64-90.4C83.74-90.4 80.54-86.9 80.54-82.7C80.44-78.1 83.64-74.7 87.64-74.7ZM97.14-68.3C94.84-70.1 91.74-71.4 87.54-71.4C78.24-71.4 72.34-64.7 72.34-58.8C72.34-56.9 73.34-56.2 75.14-56.2L92.64-56.2C92.24-56.9 91.94-57.8 91.94-58.8C91.94-61.8 93.84-65.4 97.14-68.3ZM111.84-75.1C116.44-75.1 119.94-79 119.94-84.2C119.94-89 116.34-93.1 111.84-93.1C107.34-93.1 103.64-89.1 103.64-84.2C103.84-79 107.24-75.1 111.84-75.1ZM135.94-74.5C139.94-74.5 143.04-77.9 143.04-82.4C143.04-86.6 139.94-90.1 136.04-90.2C132.14-90.2 128.94-86.7 128.94-82.5C128.94-78 131.94-74.5 135.94-74.5ZM136.14-71.3C131.94-71.3 128.84-70 126.54-68.2C129.84-65.3 131.64-61.6 131.64-58.6C131.64-57.6 131.34-56.8 130.94-56L148.44-56C150.24-56 151.24-56.7 151.24-58.6C151.14-64.6 145.44-71.3 136.14-71.3ZM111.84-70.6C101.54-70.6 94.94-63.6 94.94-58.8C94.94-57.6 95.64-56.9 96.94-56.9L126.54-56.8C127.84-56.8 128.54-57.5 128.54-58.6C128.64-63.5 122.14-70.5 111.84-70.6Z"/>
  </g>
  <g id="Bold-L" transform="matrix(1 0 0 1 2269.28 1556)">
   <path d="M37.74-6.1C56.64 12.9 79.64 27.4 98.34 27.4C106.74 27.4 114.14 24.5 120.04 17.9C123.44 14.2 125.54 9.8 125.54 5.4C125.54 1.8 124.14-1.6 120.74-4L101.34-17.8C98.14-20 95.74-21 93.34-21C90.34-21 87.64-19.3 84.64-16.4L79.94-11.8C79.24-11.1 78.34-10.8 77.44-10.8C76.44-10.8 75.54-11.2 74.84-11.6C70.84-13.8 63.94-19.7 57.44-26.1C51.14-32.5 45.14-39.4 42.94-43.4C42.54-44.1 42.24-45.1 42.24-46C42.24-46.8 42.54-47.7 43.24-48.4L47.84-53.1C50.74-56.1 52.44-58.8 52.44-61.8C52.44-64.1 51.44-66.7 49.24-69.8L35.74-88.9C33.24-92.4 29.74-93.8 26.04-93.8C21.74-93.8 17.44-92 13.64-88.3C7.24-82.3 4.34-74.8 4.34-66.5C4.44-47.8 18.84-25 37.74-6.1ZM86.24-74.1C90.14-74.1 93.14-77.4 93.14-81.7C93.14-85.8 90.14-89.2 86.34-89.2C82.54-89.2 79.44-85.8 79.44-81.7C79.54-77.4 82.54-74.1 86.24-74.1ZM95.54-67.9C93.34-69.7 90.34-70.9 86.24-70.9C77.14-70.9 71.54-64.4 71.54-58.7C71.54-56.9 72.54-56.2 74.24-56.2L91.24-56.2C90.84-56.9 90.54-57.8 90.54-58.7C90.64-61.6 92.24-65.1 95.54-67.9ZM109.84-74.5C114.34-74.5 117.74-78.3 117.74-83.3C117.74-88 114.24-91.9 109.94-91.9C105.54-91.9 101.94-88 102.04-83.3C102.04-78.3 105.34-74.5 109.84-74.5ZM133.14-74C137.04-74 139.94-77.3 140.04-81.6C140.04-85.7 137.04-89.1 133.24-89.1C129.44-89.1 126.34-85.7 126.34-81.6C126.34-77.3 129.34-74 133.14-74ZM133.34-70.8C129.24-70.8 126.24-69.6 124.04-67.8C127.24-65 128.94-61.4 128.94-58.5C128.94-57.6 128.64-56.7 128.24-56L145.14-56C146.94-56 147.84-56.7 147.84-58.5C147.84-64.3 142.34-70.8 133.34-70.8ZM109.74-70.1C99.74-70.1 93.44-63.3 93.44-58.6C93.44-57.5 94.14-56.8 95.44-56.8L124.14-56.7C125.34-56.7 126.04-57.3 126.04-58.5C126.04-63.3 119.74-70.1 109.74-70.1Z"/>
  </g>
  <g id="Semibold-L" transform="matrix(1 0 0 1 1973.32 1556)">
   <path d="M37.04-6.5C55.54 12 78.14 26.4 96.74 26.4C105.04 26.4 112.34 23.5 118.24 17.1C121.64 13.4 123.74 9.1 123.74 4.7C123.74 1.3 122.44-1.9 119.14-4.2L99.64-18C96.74-20.1 94.24-21.1 91.94-21.1C88.94-21.1 86.34-19.5 83.34-16.6L78.74-12C78.04-11.3 77.14-11 76.34-11C75.44-11 74.44-11.4 73.74-11.7C69.84-13.8 62.94-19.6 56.54-25.9C50.24-32.3 44.34-39.1 42.34-43.1C41.94-43.8 41.64-44.7 41.64-45.6C41.64-46.4 41.94-47.3 42.64-48L47.24-52.7C50.14-55.7 51.74-58.4 51.74-61.3C51.74-63.6 50.74-66.1 48.64-69.1L35.04-88.2C32.64-91.6 29.24-93 25.64-93C21.44-93 17.14-91.1 13.44-87.5C7.14-81.5 4.34-74.2 4.34-66C4.34-47.4 18.54-24.9 37.04-6.5ZM85.64-73.8C89.44-73.8 92.44-77 92.44-81.3C92.44-85.3 89.44-88.7 85.74-88.7C81.94-88.7 78.94-85.3 78.94-81.3C78.84-77.1 81.84-73.8 85.64-73.8ZM94.74-67.8C92.54-69.5 89.54-70.8 85.64-70.8C76.74-70.8 71.14-64.4 71.14-58.7C71.14-56.9 72.04-56.2 73.84-56.2L90.54-56.2C90.14-56.9 89.84-57.7 89.84-58.7C89.84-61.5 91.64-65 94.74-67.8ZM108.84-74.2C113.24-74.2 116.64-78 116.64-82.9C116.64-87.5 113.24-91.4 108.94-91.4C104.64-91.4 101.14-87.5 101.14-82.9C101.14-78 104.34-74.2 108.84-74.2ZM131.94-73.7C135.74-73.7 138.64-76.9 138.74-81.2C138.74-85.2 135.74-88.6 132.04-88.6C128.24-88.6 125.24-85.2 125.24-81.2C125.14-77 127.94-73.7 131.94-73.7ZM131.94-70.6C127.94-70.6 124.94-69.4 122.74-67.7C125.84-64.9 127.64-61.4 127.64-58.5C127.64-57.6 127.44-56.7 126.94-56L143.64-56C145.34-56 146.34-56.7 146.34-58.5C146.44-64.2 140.94-70.6 131.94-70.6ZM108.84-69.9C99.04-69.9 92.74-63.2 92.74-58.6C92.74-57.5 93.44-56.8 94.64-56.8L122.94-56.7C124.14-56.7 124.84-57.3 124.84-58.5C124.84-63.2 118.64-69.9 108.84-69.9Z"/>
  </g>
  <g id="Medium-L" transform="matrix(1 0 0 1 1677.56 1556)">
   <path d="M36.3405-6.8C54.5405 11.4 76.8405 25.6 95.1405 25.6C103.441 25.6 110.641 22.7 116.441 16.4C119.741 12.8 121.941 8.4 121.941 4.1C121.941 0.8 120.641-2.2 117.541-4.5L98.2405-18.2C95.4405-20.2 92.9405-21.2 90.7405-21.2C87.8405-21.2 85.2405-19.6 82.2405-16.7L77.6405-12.2C76.9405-11.5 76.0405-11.2 75.2405-11.2C74.3405-11.2 73.4405-11.6 72.7405-11.9C68.8405-13.9 62.0405-19.6 55.6405-25.9C49.3405-32.3 43.5405-39 41.6405-42.9C41.3405-43.6 40.9405-44.5 40.9405-45.4C40.9405-46.2 41.2405-47 41.9405-47.7L46.4405-52.4C49.3405-55.4 50.9405-58.1 50.9405-60.9C50.9405-63.2 49.9405-65.6 47.8405-68.5L34.4405-87.5C32.1405-90.8 28.8405-92.1 25.3405-92.1C21.2405-92.1 16.9405-90.2 13.2405-86.6C7.04054-80.7 4.34054-73.4 4.34054-65.3C4.24054-47.1 18.1405-24.9 36.3405-6.8ZM84.9405-73.5C88.7405-73.5 91.6405-76.7 91.6405-80.9C91.6405-84.8 88.7405-88.2 85.0405-88.2C81.3405-88.2 78.3405-84.9 78.3405-81C78.2405-76.7 81.1405-73.5 84.9405-73.5ZM93.8405-67.6C91.7405-69.3 88.7405-70.5 84.8405-70.5C76.0405-70.5 70.6405-64.2 70.6405-58.6C70.6405-56.9 71.5405-56.2 73.2405-56.2L89.6405-56.2C89.2405-56.9 88.9405-57.7 88.9405-58.6C89.0405-61.4 90.7405-64.8 93.8405-67.6ZM107.741-73.9C112.041-73.9 115.341-77.6 115.341-82.4C115.341-86.9 111.941-90.7 107.741-90.7C103.441-90.7 100.041-86.9 100.041-82.4C100.041-77.6 103.341-73.9 107.741-73.9ZM130.341-73.4C134.141-73.4 136.941-76.6 136.941-80.8C136.941-84.7 134.041-88.1 130.341-88.1C126.641-88.1 123.641-84.8 123.641-80.9C123.641-76.6 126.541-73.4 130.341-73.4ZM130.341-70.4C126.441-70.4 123.441-69.2 121.341-67.5C124.441-64.8 126.141-61.3 126.141-58.5C126.141-57.6 125.941-56.8 125.441-56.1L141.841-56.1C143.541-56.1 144.441-56.8 144.441-58.5C144.541-64.1 139.141-70.4 130.341-70.4ZM107.641-69.7C98.0405-69.7 91.8405-63.1 91.8405-58.6C91.8405-57.5 92.5405-56.9 93.7405-56.9L121.541-56.8C122.741-56.8 123.441-57.4 123.441-58.5C123.341-63 117.241-69.7 107.641-69.7Z"/>
  </g>
  <g id="Regular-L" transform="matrix(1 0 0 1 1382.1 1556)">
   <path d="M35.84-7.2C53.64 10.6 75.64 24.5 93.64 24.5C101.84 24.5 108.94 21.7 114.64 15.4C117.94 11.9 120.24 7.5 120.24 3.3C120.24 0.2 119.04-2.7 116.04-4.8L96.84-18.5C94.14-20.4 91.74-21.4 89.54-21.4C86.74-21.4 84.14-19.9 81.14-17L76.64-12.5C75.94-11.8 75.04-11.5 74.24-11.5C73.34-11.5 72.44-11.8 71.84-12.2C68.04-14.2 61.34-19.7 54.94-26C48.54-32.5 43.04-39.1 41.04-43C40.74-43.7 40.44-44.5 40.44-45.4C40.44-46.2 40.64-47 41.34-47.7L45.84-52.3C48.64-55.3 50.24-57.9 50.24-60.7C50.24-63 49.24-65.3 47.24-68.1L33.84-86.9C31.64-90 28.54-91.4 25.14-91.4C21.14-91.4 16.84-89.5 13.14-85.8C7.04-79.9 4.34-72.7 4.34-64.8C4.44-46.7 18.04-24.9 35.84-7.2ZM84.24-73C87.84-73 90.64-76.1 90.64-80.2C90.64-84 87.84-87.2 84.24-87.2C80.64-87.2 77.74-84 77.84-80.2C77.84-76.1 80.64-73 84.24-73ZM92.84-67.2C90.84-68.8 87.94-70 84.14-70C75.64-70 70.34-63.9 70.34-58.5C70.34-56.8 71.24-56.2 72.84-56.1L88.74-56.1C88.34-56.8 88.14-57.6 88.14-58.4C88.24-61.3 89.84-64.6 92.84-67.2ZM106.24-73.3C110.44-73.3 113.64-76.9 113.64-81.5C113.64-85.9 110.44-89.6 106.24-89.6C102.14-89.6 98.74-85.9 98.84-81.6C98.84-76.9 102.14-73.3 106.24-73.3ZM128.14-72.8C131.74-72.8 134.54-75.9 134.54-80C134.54-83.8 131.74-87 128.14-87C124.54-87 121.64-83.8 121.64-80C121.84-76 124.64-72.9 128.14-72.8ZM128.24-69.9C124.44-69.9 121.64-68.7 119.54-67.1C122.54-64.4 124.14-61.1 124.14-58.4C124.14-57.5 123.94-56.7 123.54-56.1L139.44-56.1C141.14-56.1 141.94-56.8 141.94-58.4C141.94-63.8 136.64-69.9 128.24-69.9ZM106.24-69.2C96.94-69.2 90.94-62.9 90.94-58.5C90.94-57.4 91.64-56.8 92.74-56.8L119.64-56.7C120.74-56.7 121.44-57.3 121.44-58.4C121.44-62.8 115.44-69.2 106.24-69.2Z"/>
  </g>
  <g id="Light-L" transform="matrix(1 0 0 1 1086.98 1556)">
   <path d="M34.7449-7.8C51.9449 9.5 73.6449 23.1 91.7449 23.1C100.045 23.1 107.045 20.2 112.945 14.1C116.045 10.8 118.645 6.5 118.645 2.2C118.645-0.7 117.445-3.5 114.445-5.7L95.2449-19.3C92.8449-21 90.5449-22 88.3449-22C85.6449-22 82.9449-20.6 79.9449-17.7L75.3449-13.2C74.6449-12.5 73.8449-12.2 72.9449-12.2C72.1449-12.2 71.3449-12.5 70.6449-12.8C67.0449-14.7 60.1449-19.9 53.6449-26.4C47.1449-32.9 41.8449-39.7 40.0449-43.4C39.7449-44.1 39.4449-44.9 39.4449-45.6C39.4449-46.4 39.6449-47.1 40.3449-47.8L44.8449-52.6C47.6449-55.7 49.1449-58.4 49.1449-61.1C49.1449-63.4 48.1449-65.6 46.4449-68.1L33.4449-86.6C31.1449-89.8 28.0449-91.2 24.7449-91.2C20.8449-91.2 16.5449-89.3 12.9449-85.6C6.9449-79.7 4.3449-72.5 4.3449-64.6C4.0449-46.6 17.5449-25 34.7449-7.8ZM82.3449-72.6C85.9449-72.6 88.6449-75.6 88.6449-79.6C88.6449-83.3 85.8449-86.5 82.3449-86.5C78.8449-86.5 76.0449-83.4 76.0449-79.6C76.0449-75.6 78.7449-72.6 82.3449-72.6ZM90.7449-67C88.7449-68.6 85.9449-69.8 82.2449-69.8C73.9449-69.8 68.7449-63.9 68.7449-58.6C68.7449-57 69.6449-56.3 71.2449-56.3L86.7449-56.3C86.3449-57 86.1449-57.7 86.1449-58.6C86.2449-61.2 87.8449-64.4 90.7449-67ZM103.945-72.9C108.045-72.9 111.145-76.4 111.145-80.9C111.145-85.2 107.945-88.8 103.945-88.8C99.9449-88.8 96.6449-85.2 96.6449-80.9C96.6449-76.5 99.8449-72.9 103.945-72.9ZM125.345-72.5C128.945-72.5 131.645-75.5 131.645-79.5C131.645-83.2 128.945-86.4 125.445-86.4C121.945-86.4 119.145-83.3 119.145-79.5C119.045-75.5 121.745-72.5 125.345-72.5ZM125.345-69.6C121.645-69.6 118.845-68.5 116.845-66.9C119.745-64.3 121.345-61.1 121.345-58.4C121.345-57.5 121.145-56.8 120.745-56.1L136.245-56.1C137.845-56.1 138.745-56.7 138.745-58.4C138.745-63.6 133.645-69.6 125.345-69.6ZM103.845-68.9C94.7449-68.9 88.8449-62.7 88.8449-58.4C88.8449-57.4 89.5449-56.8 90.6449-56.8L116.945-56.7C118.045-56.7 118.745-57.3 118.745-58.3C118.745-62.7 112.945-68.9 103.845-68.9Z"/>
  </g>
  <g id="Thin-L" transform="matrix(1 0 0 1 792.224 1556)">
   <path d="M34.24-8.6C50.74 7.9 71.94 21.2 89.94 21.2C98.34 21.2 105.34 18.3 111.24 12.3C114.24 9.4 117.24 5 117.24 0.7C117.24-2 116.14-4.7 112.94-6.9L93.84-20.3C91.74-21.8 89.64-22.7 87.44-22.7C84.84-22.7 82.04-21.4 79.04-18.6L74.24-14C73.54-13.3 72.74-13 71.94-13C71.24-13 70.44-13.3 69.74-13.6C66.34-15.3 59.34-20.2 52.54-27C45.84-33.7 40.74-40.5 39.14-44.2C38.84-44.9 38.64-45.6 38.64-46.1C38.64-46.8 38.84-47.6 39.54-48.2L44.04-53.2C46.84-56.4 48.14-59.2 48.14-61.8C48.14-64.1 47.24-66.1 45.74-68.2L33.04-86.4C30.74-89.7 27.64-91.1 24.44-91.1C20.64-91.1 16.54-89.1 12.84-85.4C6.94-79.5 4.34-72.3 4.34-64.4C4.44-46.5 17.54-25.1 34.24-8.6ZM80.64-73.2C84.04-73.2 86.64-76.1 86.64-79.9C86.64-83.5 83.94-86.5 80.64-86.5C77.24-86.5 74.54-83.5 74.64-79.9C74.44-76.1 77.14-73.2 80.64-73.2ZM88.74-67.8C86.84-69.3 84.14-70.4 80.54-70.4C72.54-70.4 67.64-64.7 67.64-59.6C67.64-58 68.54-57.4 70.04-57.4L84.94-57.4C84.54-58 84.34-58.8 84.34-59.6C84.24-62.2 85.84-65.3 88.74-67.8ZM101.24-73.5C105.14-73.5 108.14-76.9 108.14-81.3C108.14-85.4 105.04-88.9 101.24-88.9C97.34-88.9 94.24-85.4 94.24-81.3C94.34-76.9 97.34-73.5 101.24-73.5ZM121.84-73.2C125.24-73.2 127.84-76.1 127.84-79.9C127.84-83.5 125.14-86.5 121.84-86.5C118.44-86.5 115.74-83.5 115.74-79.9C115.84-76.1 118.44-73.2 121.84-73.2ZM121.94-70.4C118.34-70.4 115.74-69.3 113.74-67.8C116.54-65.3 118.14-62.2 118.14-59.6C118.14-58.8 117.94-58 117.54-57.4L132.44-57.4C134.04-57.4 134.84-58 134.84-59.6C134.94-64.7 129.94-70.4 121.94-70.4ZM101.24-69.7C92.44-69.7 86.84-63.7 86.84-59.6C86.84-58.6 87.44-58 88.54-58L113.84-58C114.94-58 115.54-58.6 115.54-59.6C115.64-63.7 109.94-69.7 101.24-69.7Z"/>
  </g>
  <g id="Ultralight-L" transform="matrix(1 0 0 1 496.961 1556)">
   <path d="M33.74-9C49.84 7.1 70.84 20.2 88.84 20.2C97.34 20.2 104.34 17.3 110.24 11.4C113.14 8.6 116.34 4.2 116.34 0C116.34-2.6 115.24-5.2 112.04-7.4L92.94-20.7C91.04-22 89.04-22.9 86.74-22.9C84.14-22.9 81.34-21.7 78.34-18.8L73.54-14.3C72.94-13.7 72.14-13.3 71.24-13.3C70.54-13.3 69.84-13.5 69.14-13.9C65.84-15.6 58.74-20.2 51.94-27.1C45.04-34.1 40.24-41 38.74-44.6C38.44-45.3 38.24-46 38.24-46.4C38.24-47.1 38.44-47.8 39.14-48.5L43.64-53.6C46.44-56.9 47.64-59.8 47.64-62.3C47.64-64.6 46.74-66.5 45.34-68.5L32.84-86.3C30.54-89.6 27.44-91.1 24.24-91.1C20.44-91.1 16.44-89.1 12.74-85.4C6.84-79.5 4.34-72.3 4.34-64.4C4.34-46.4 17.54-25.2 33.74-9ZM79.24-72.8C82.54-72.8 85.14-75.6 85.14-79.4C85.14-82.9 82.54-85.8 79.24-85.8C75.94-85.8 73.34-82.9 73.34-79.4C73.34-75.6 75.94-72.8 79.24-72.8ZM87.24-67.5C85.34-69 82.74-70.1 79.34-70.1C71.54-70.1 66.74-64.5 66.74-59.6C66.74-58.1 67.54-57.5 69.04-57.5L83.54-57.5C83.14-58.1 82.94-58.8 82.94-59.6C82.94-62.1 84.44-65.1 87.24-67.5ZM99.44-73.1C103.24-73.1 106.14-76.4 106.14-80.6C106.14-84.6 103.14-88 99.44-88C95.64-88 92.64-84.6 92.64-80.6C92.74-76.4 95.64-73.1 99.44-73.1ZM119.44-72.8C122.74-72.8 125.34-75.6 125.34-79.4C125.34-82.9 122.74-85.8 119.44-85.8C116.14-85.8 113.54-82.9 113.54-79.4C113.64-75.6 116.14-72.8 119.44-72.8ZM119.44-70.1C115.94-70.1 113.34-69 111.54-67.5C114.24-65.1 115.74-62.1 115.74-59.5C115.74-58.7 115.54-58 115.14-57.4L129.64-57.4C131.14-57.4 131.94-58 131.94-59.5C132.14-64.5 127.24-70.1 119.44-70.1ZM99.34-69.4C90.84-69.4 85.34-63.6 85.34-59.6C85.34-58.6 85.94-58.1 87.04-58.1L111.64-58.1C112.64-58.1 113.24-58.7 113.24-59.6C113.24-63.6 107.84-69.4 99.34-69.4Z"/>
  </g>
  <g id="Black-M" transform="matrix(1 0 0 1 2870.75 1126)">
   <path d="M32.0406-11.6C47.8406 4.3 66.7406 16.3 82.0406 16.3C88.8406 16.3 94.9406 13.9 99.7406 8.6C102.541 5.5 103.941 2.1 103.941-1.4C103.941-4.7 102.641-7.9 99.5406-10.1L84.3406-21C81.6406-22.9 79.5406-23.7 77.6406-23.7C75.1406-23.7 72.9406-22.3 70.5406-19.9L66.7406-16.1C66.1406-15.5 65.4406-15.3 64.7406-15.3C63.9406-15.3 63.0406-15.6 62.5406-16C59.2406-17.9 53.6406-22.8 48.5406-27.9C43.4406-33 38.5406-38.7 36.6406-41.9C36.2406-42.5 35.9406-43.3 35.9406-44.1C35.9406-44.8 36.1406-45.5 36.7406-46.1L40.5406-49.9C42.9406-52.3 44.3406-54.5 44.3406-57C44.3406-58.9 43.5406-61.1 41.6406-63.7L30.7406-79C28.5406-82.1 25.3406-83.4 22.0406-83.4C18.4406-83.4 15.1406-82 12.0406-79.2C6.64062-74.4 4.34062-68.3 4.34062-61.5C4.24062-46.2 16.2406-27.3 32.0406-11.6ZM71.8406-71.6C75.6406-71.6 78.5406-74.8 78.5406-79.1C78.5406-83.1 75.5406-86.4 71.8406-86.4C68.1406-86.4 65.1406-83 65.1406-79.1C65.1406-74.9 68.0406-71.6 71.8406-71.6ZM80.8406-65.7C78.7406-67.4 75.7406-68.6 71.8406-68.6C63.0406-68.6 57.5406-62.3 57.5406-56.6C57.5406-54.8 58.4406-54.2 60.1406-54.2L76.6406-54.2C76.2406-54.9 75.9406-55.7 75.9406-56.6C76.0406-59.5 77.7406-62.9 80.8406-65.7ZM94.8406-72.1C99.1406-72.1 102.541-75.8 102.541-80.7C102.541-85.2 99.1406-89.1 94.8406-89.1C90.5406-89.1 87.1406-85.3 87.1406-80.7C87.1406-75.8 90.4406-72.1 94.8406-72.1ZM117.641-71.6C121.441-71.6 124.341-74.8 124.341-79.1C124.341-83.1 121.441-86.4 117.641-86.4C113.941-86.4 110.941-83 110.941-79.1C110.841-74.9 113.841-71.6 117.641-71.6ZM117.641-68.6C113.641-68.6 110.741-67.4 108.541-65.7C111.641-62.9 113.341-59.5 113.341-56.6C113.341-55.7 113.141-54.9 112.641-54.2L129.141-54.2C130.841-54.2 131.741-54.9 131.741-56.6C131.941-62.3 126.441-68.6 117.641-68.6ZM94.7406-67.8C85.0406-67.8 78.8406-61.2 78.8406-56.6C78.8406-55.5 79.5406-54.9 80.7406-54.9L108.741-54.9C109.941-54.9 110.641-55.5 110.641-56.6C110.641-61.2 104.441-67.8 94.7406-67.8Z"/>
  </g>
  <g id="Heavy-M" transform="matrix(1 0 0 1 2575.09 1126)">
   <path d="M31.4406-11.9C46.7406 3.5 65.2406 15.2 80.2406 15.2C86.9406 15.2 92.8406 12.9 97.5406 7.6C100.341 4.6 101.741 1.2 101.741-2.3C101.741-5.4 100.541-8.4 97.5406-10.5L82.5406-21.2C79.9406-23.1 77.8406-23.8 76.0406-23.8C73.5406-23.8 71.4406-22.4 69.0406-20.1L65.3406-16.4C64.7406-15.8 64.0406-15.6 63.3406-15.6C62.5406-15.6 61.7406-15.9 61.1406-16.2C57.9406-18 52.4406-22.8 47.2406-27.9C42.2406-33 37.4406-38.5 35.5406-41.7C35.2406-42.3 34.9406-43.1 34.9406-43.9C34.9406-44.6 35.1406-45.3 35.7406-45.8L39.4406-49.5C41.8406-51.9 43.2406-54 43.2406-56.5C43.2406-58.4 42.4406-60.5 40.5406-63.1L29.9406-78.1C27.8406-81 24.8406-82.3 21.6406-82.3C18.1406-82.3 14.8406-80.9 11.8406-78.1C6.64064-73.3 4.34064-67.4 4.34064-60.7C4.24064-45.7 15.9406-27.3 31.4406-11.9ZM71.1406-71.1C74.8406-71.1 77.6406-74.2 77.6406-78.3C77.6406-82.1 74.7406-85.4 71.1406-85.4C67.5406-85.4 64.6406-82.1 64.6406-78.3C64.7406-74.3 67.5406-71.1 71.1406-71.1ZM79.8406-65.3C77.7406-67 74.8406-68.1 71.0406-68.1C62.4406-68.1 57.1406-61.9 57.1406-56.5C57.1406-54.8 58.0406-54.1 59.7406-54.1L75.8406-54.1C75.4406-54.8 75.2406-55.6 75.2406-56.5C75.2406-59.3 76.8406-62.7 79.8406-65.3ZM93.5406-71.5C97.7406-71.5 101.041-75.1 101.041-79.8C101.041-84.2 97.7406-87.9 93.5406-87.9C89.3406-87.9 86.0406-84.2 86.0406-79.8C86.0406-75.2 89.2406-71.5 93.5406-71.5ZM115.641-71.1C119.341-71.1 122.141-74.2 122.141-78.3C122.141-82.1 119.241-85.4 115.641-85.4C112.041-85.4 109.141-82.1 109.141-78.3C109.141-74.3 111.841-71.1 115.641-71.1ZM115.741-68.2C111.941-68.2 109.041-67 106.941-65.4C109.941-62.7 111.641-59.4 111.641-56.6C111.641-55.7 111.441-54.9 111.041-54.2L127.041-54.2C128.741-54.2 129.641-54.9 129.641-56.6C129.541-62 124.141-68.2 115.741-68.2ZM93.3406-67.4C83.9406-67.4 77.9406-61 77.9406-56.5C77.9406-55.4 78.6406-54.8 79.8406-54.8L107.041-54.8C108.241-54.8 108.841-55.4 108.841-56.5C108.741-61 102.741-67.4 93.3406-67.4Z"/>
  </g>
  <g id="Bold-M" transform="matrix(1 0 0 1 2279.88 1126)">
   <path d="M30.5407-12.4C45.4407 2.6 63.6407 14 78.1407 14C84.6407 14 90.4407 11.7 95.0407 6.6C97.7407 3.6 99.2407 0.2 99.2407-3.2C99.2407-6.1 98.1407-8.8 95.4407-10.8L80.4407-21.4C77.9407-23.2 75.9407-23.9 74.1407-23.9C71.7407-23.9 69.6407-22.6 67.3407-20.3L63.7407-16.7C63.1407-16.1 62.4407-15.9 61.8407-15.9C61.0407-15.9 60.2407-16.2 59.7407-16.5C56.5407-18.2 51.1407-22.9 46.2407-27.9C41.3407-32.9 36.7407-38.3 34.9407-41.4C34.6407-42 34.3407-42.7 34.3407-43.5C34.3407-44.1 34.5407-44.9 35.1407-45.4L38.7407-49C41.0407-51.3 42.4407-53.4 42.4407-55.8C42.4407-57.6 41.6407-59.7 39.8407-62.1L29.1407-77.1C27.2407-79.9 24.3407-81 21.3407-81C17.9407-81 14.6407-79.6 11.6407-76.8C6.54066-72.1 4.34066-66.3 4.34066-59.8C4.24066-45.2 15.5407-27.3 30.5407-12.4ZM70.3407-70.5C73.9407-70.5 76.6407-73.5 76.6407-77.5C76.6407-81.2 73.8407-84.3 70.3407-84.3C66.8407-84.3 64.0407-81.2 64.0407-77.5C64.1407-73.6 66.8407-70.5 70.3407-70.5ZM78.8407-64.9C76.8407-66.5 74.0407-67.6 70.3407-67.6C62.0407-67.6 56.9407-61.7 56.9407-56.4C56.9407-54.8 57.8407-54.1 59.4407-54.1L74.9407-54.1C74.5407-54.7 74.3407-55.5 74.3407-56.4C74.2407-59.2 75.8407-62.4 78.8407-64.9ZM91.8407-70.9C95.9407-70.9 99.0407-74.4 99.0407-78.9C99.0407-83.2 95.8407-86.7 91.8407-86.7C87.8407-86.7 84.5407-83.1 84.6407-78.9C84.7407-74.4 87.8407-70.9 91.8407-70.9ZM113.241-70.5C116.841-70.5 119.441-73.5 119.441-77.5C119.441-81.2 116.641-84.3 113.241-84.3C109.741-84.3 106.941-81.2 106.941-77.5C107.041-73.6 109.741-70.5 113.241-70.5ZM113.241-67.7C109.541-67.7 106.741-66.6 104.741-65C107.641-62.4 109.241-59.2 109.241-56.5C109.241-55.6 109.041-54.9 108.641-54.2L124.141-54.2C125.741-54.2 126.641-54.8 126.641-56.5C126.741-61.7 121.641-67.7 113.241-67.7ZM91.8407-67C82.7407-67 76.9407-60.8 76.9407-56.5C76.9407-55.5 77.6407-54.9 78.7407-54.9L104.941-54.9C106.041-54.9 106.641-55.5 106.641-56.5C106.741-60.7 100.841-67 91.8407-67Z"/>
  </g>
  <g id="Semibold-M" transform="matrix(1 0 0 1 1984.07 1126)">
   <path d="M30.04-12.7C44.64 2 62.34 13.3 76.84 13.3C83.24 13.3 88.94 11.1 93.54 6C96.24 3.1 97.74-0.3 97.74-3.7C97.74-6.4 96.64-9 94.14-10.8L79.14-21.6C76.74-23.3 74.74-24.1 72.94-24.1C70.64-24.1 68.54-22.8 66.24-20.5L62.64-17C62.04-16.4 61.34-16.2 60.74-16.2C60.04-16.2 59.24-16.5 58.74-16.8C55.64-18.5 50.34-23.1 45.44-28C40.54-32.9 35.94-38.2 34.14-41.3C33.84-41.9 33.54-42.6 33.54-43.3C33.54-43.9 33.74-44.6 34.34-45.2L37.84-48.8C40.14-51.1 41.44-53.2 41.44-55.5C41.44-57.3 40.64-59.3 38.94-61.7L28.44-76.5C26.54-79.1 23.94-80.2 21.04-80.2C17.74-80.2 14.34-78.8 11.44-76C6.44-71.4 4.34-65.6 4.34-59.2C4.34-44.8 15.34-27.2 30.04-12.7ZM69.74-70.2C73.24-70.2 75.84-73.2 75.84-77C75.84-80.6 73.14-83.7 69.74-83.7C66.34-83.7 63.54-80.6 63.64-77C63.64-73.1 66.24-70.2 69.74-70.2ZM78.04-64.7C76.04-66.3 73.34-67.4 69.74-67.4C61.64-67.4 56.64-61.6 56.64-56.4C56.64-54.8 57.54-54.2 59.04-54.2L74.24-54.2C73.84-54.8 73.64-55.6 73.64-56.4C73.64-59.1 75.14-62.2 78.04-64.7ZM90.74-70.6C94.74-70.6 97.74-74 97.74-78.5C97.74-82.7 94.64-86.2 90.74-86.2C86.84-86.2 83.64-82.7 83.64-78.5C83.74-74 86.74-70.6 90.74-70.6ZM111.74-70.2C115.24-70.2 117.84-73.2 117.84-77C117.84-80.6 115.14-83.7 111.74-83.7C108.34-83.7 105.54-80.6 105.54-77C105.54-73.1 108.14-70.2 111.74-70.2ZM111.74-67.4C108.14-67.4 105.44-66.3 103.44-64.7C106.34-62.2 107.84-59 107.84-56.4C107.84-55.6 107.64-54.8 107.24-54.2L122.44-54.2C124.04-54.2 124.84-54.8 124.84-56.4C124.74-61.6 119.74-67.4 111.74-67.4ZM90.74-66.7C81.84-66.7 76.14-60.6 76.14-56.4C76.14-55.4 76.74-54.8 77.94-54.8L103.64-54.8C104.74-54.8 105.34-55.4 105.34-56.4C105.24-60.6 99.64-66.7 90.74-66.7Z"/>
  </g>
  <g id="Medium-M" transform="matrix(1 0 0 1 1688.06 1126)">
   <path d="M29.5407-12.9C43.9407 1.6 61.4407 12.7 75.7407 12.7C82.1407 12.7 87.7407 10.5 92.2407 5.5C94.8407 2.6 96.4407-0.8 96.4407-4.1C96.4407-6.7 95.4407-9.2 92.9407-10.9L77.9407-21.6C75.6407-23.3 73.6407-24 71.9407-24C69.6407-24 67.6407-22.7 65.3407-20.5L61.9407-17C61.3407-16.4 60.7407-16.2 60.0407-16.2C59.3407-16.2 58.5407-16.5 58.0407-16.8C54.9407-18.4 49.7407-23 44.8407-27.8C40.0407-32.7 35.4407-37.9 33.8407-41C33.5407-41.6 33.2407-42.3 33.2407-43C33.2407-43.6 33.4407-44.3 33.9407-44.9L37.4407-48.5C39.6407-50.8 40.9407-52.8 40.9407-55.1C40.9407-56.9 40.1407-58.8 38.4407-61.2L27.9407-76C26.1407-78.5 23.5407-79.6 20.8407-79.6C17.5407-79.6 14.2407-78.2 11.3407-75.3C6.44068-70.7 4.34068-65 4.34068-58.7C4.24068-44.5 15.1407-27.2 29.5407-12.9ZM69.2407-69.9C72.6407-69.9 75.2407-72.8 75.2407-76.6C75.2407-80.2 72.5407-83.2 69.2407-83.2C65.8407-83.2 63.1407-80.2 63.2407-76.6C63.1407-72.8 65.8407-69.9 69.2407-69.9ZM77.3407-64.5C75.4407-66 72.7407-67.1 69.2407-67.1C61.2407-67.1 56.3407-61.4 56.3407-56.3C56.3407-54.7 57.1407-54.1 58.7407-54.1L73.6407-54.1C73.2407-54.7 73.0407-55.5 73.0407-56.3C73.0407-59 74.6407-62.1 77.3407-64.5ZM89.8407-70.3C93.7407-70.3 96.7407-73.7 96.7407-78C96.7407-82.1 93.6407-85.5 89.8407-85.5C85.9407-85.5 82.8407-82 82.9407-78C83.0407-73.7 86.0407-70.3 89.8407-70.3ZM110.541-69.9C113.941-69.9 116.541-72.8 116.541-76.6C116.541-80.2 113.941-83.2 110.541-83.2C107.141-83.2 104.541-80.2 104.541-76.6C104.341-72.8 107.141-69.9 110.541-69.9ZM110.541-67.2C106.941-67.2 104.341-66.1 102.341-64.6C105.141-62.1 106.741-59 106.741-56.4C106.741-55.6 106.541-54.8 106.141-54.2L121.041-54.2C122.641-54.2 123.441-54.8 123.441-56.4C123.341-61.5 118.541-67.2 110.541-67.2ZM89.8407-66.5C81.1407-66.5 75.5407-60.5 75.5407-56.4C75.5407-55.4 76.1407-54.8 77.2407-54.8L102.441-54.8C103.541-54.8 104.141-55.4 104.141-56.4C104.141-60.5 98.6407-66.5 89.8407-66.5Z"/>
  </g>
  <g id="Regular-M" transform="matrix(1 0 0 1 1392.34 1126)">
   <path d="M29.04-13.2C43.14 0.9 60.34 11.8 74.34 11.8C80.64 11.8 86.14 9.6 90.54 4.7C93.14 1.8 94.74-1.5 94.74-4.8C94.74-7.3 93.84-9.6 91.44-11.2L76.44-21.9C74.14-23.5 72.24-24.3 70.54-24.3C68.24-24.3 66.34-23.1 64.04-20.9L60.54-17.5C59.94-16.9 59.34-16.8 58.64-16.8C57.94-16.8 57.24-17.1 56.74-17.3C53.74-18.9 48.54-23.3 43.74-28.1C38.94-32.9 34.44-38.1 32.94-41.1C32.74-41.7 32.44-42.3 32.44-43.1C32.44-43.7 32.64-44.4 33.14-44.9L36.54-48.4C38.74-50.6 40.04-52.7 40.04-54.9C40.04-56.6 39.24-58.6 37.64-60.8L27.44-75.4C25.74-77.8 23.34-78.8 20.64-78.8C17.44-78.8 14.14-77.3 11.24-74.5C6.44-70 4.34-64.4 4.34-58.2C4.34-44.2 14.94-27.2 29.04-13.2ZM68.84-69.5C72.14-69.5 74.74-72.3 74.74-76.1C74.74-79.6 72.14-82.5 68.84-82.5C65.54-82.5 62.94-79.5 62.94-76.1C62.84-72.4 65.34-69.5 68.84-69.5ZM76.74-64.3C74.84-65.8 72.24-66.9 68.74-66.9C60.94-66.9 56.14-61.3 56.14-56.4C56.14-54.9 56.94-54.3 58.44-54.3L72.94-54.3C72.54-54.9 72.34-55.6 72.34-56.4C72.34-58.9 73.84-61.9 76.74-64.3ZM88.84-69.9C92.64-69.9 95.54-73.2 95.54-77.4C95.54-81.4 92.54-84.8 88.84-84.8C85.04-84.8 82.04-81.4 82.04-77.4C82.24-73.2 85.14-69.9 88.84-69.9ZM108.94-69.5C112.24-69.5 114.84-72.3 114.84-76.1C114.84-79.6 112.24-82.5 108.94-82.5C105.64-82.5 103.04-79.6 103.04-76.1C103.14-72.4 105.64-69.5 108.94-69.5ZM108.94-66.9C105.44-66.9 102.84-65.8 100.94-64.3C103.64-61.9 105.24-58.9 105.24-56.3C105.24-55.5 105.04-54.8 104.64-54.2L119.14-54.2C120.64-54.2 121.44-54.8 121.44-56.3C121.64-61.3 116.84-66.9 108.94-66.9ZM88.84-66.2C80.34-66.2 74.84-60.4 74.84-56.3C74.84-55.3 75.44-54.8 76.54-54.8L101.14-54.8C102.14-54.8 102.74-55.4 102.74-56.3C102.84-60.3 97.34-66.2 88.84-66.2Z"/>
  </g>
  <g id="Light-M" transform="matrix(1 0 0 1 1096.59 1126)">
   <path d="M28.4407-13.7C42.0407-0.1 58.9407 10.6 72.9407 10.6C79.3407 10.6 84.8407 8.4 89.2407 3.6C91.7407 1 93.6407-2.4 93.6407-5.7C93.6407-8 92.7407-10.3 90.3407-11.9L75.4407-22.5C73.4407-23.9 71.6407-24.7 69.8407-24.7C67.6407-24.7 65.6407-23.6 63.3407-21.3L59.8407-17.8C59.3407-17.3 58.6407-17.1 58.0407-17.1C57.3407-17.1 56.7407-17.4 56.1407-17.6C53.2407-19.1 48.0407-23.3 43.0407-28.2C38.1407-33.2 33.8407-38.4 32.4407-41.3C32.2407-41.9 31.9407-42.5 31.9407-43.1C31.9407-43.7 32.1407-44.3 32.6407-44.9L36.1407-48.5C38.3407-50.8 39.5407-52.9 39.5407-55.1C39.5407-56.8 38.7407-58.6 37.3407-60.7L26.9407-75.2C25.2407-77.7 22.8407-78.7 20.2407-78.7C17.1407-78.7 13.8407-77.2 11.0407-74.4C6.34071-69.9 4.34071-64.2 4.34071-58.1C4.24071-44.1 14.7407-27.3 28.4407-13.7ZM67.3407-69.3C70.6407-69.3 73.1407-72.1 73.1407-75.8C73.1407-79.2 70.5407-82.1 67.3407-82.1C64.1407-82.1 61.5407-79.2 61.5407-75.7C61.5407-72.1 64.0407-69.3 67.3407-69.3ZM75.1407-64.2C73.2407-65.7 70.7407-66.7 67.2407-66.7C59.5407-66.7 54.8407-61.2 54.8407-56.3C54.8407-54.8 55.6407-54.2 57.1407-54.2L71.5407-54.2C71.1407-54.8 70.9407-55.5 70.9407-56.3C70.9407-58.8 72.4407-61.8 75.1407-64.2ZM87.2407-69.7C91.0407-69.7 93.9407-72.9 93.9407-77.2C93.9407-81.1 90.9407-84.5 87.2407-84.5C83.5407-84.5 80.5407-81.2 80.5407-77.2C80.5407-73 83.5407-69.7 87.2407-69.7ZM107.041-69.3C110.341-69.3 112.841-72.1 112.841-75.8C112.841-79.2 110.241-82.2 107.041-82.2C103.841-82.2 101.241-79.3 101.241-75.9C101.241-72.1 103.741-69.3 107.041-69.3ZM107.141-66.7C103.741-66.7 101.141-65.6 99.2407-64.2C101.941-61.8 103.441-58.8 103.441-56.3C103.441-55.5 103.241-54.8 102.841-54.2L117.241-54.2C118.741-54.2 119.541-54.8 119.541-56.3C119.541-61.2 114.741-66.7 107.141-66.7ZM87.2407-66C78.8407-66 73.4407-60.2 73.4407-56.3C73.4407-55.3 74.0407-54.8 75.1407-54.8L99.4407-54.8C100.441-54.8 101.041-55.4 101.041-56.3C101.041-60.3 95.6407-66 87.2407-66Z"/>
  </g>
  <g id="Thin-M" transform="matrix(1 0 0 1 801.025 1126)">
   <path d="M27.54-14.4C40.64-1.5 57.14 8.9 71.14 8.9C77.64 8.9 83.04 6.7 87.64 2C89.94-0.3 92.24-3.8 92.24-7.1C92.24-9.3 91.34-11.4 88.94-13L74.04-23.4C72.34-24.6 70.64-25.3 68.94-25.3C66.84-25.3 64.74-24.3 62.44-22.1L58.84-18.6C58.34-18.1 57.74-17.9 57.04-17.9C56.44-17.9 55.84-18.1 55.34-18.4C52.64-19.8 47.24-23.6 42.04-28.8C36.94-34 32.94-39.2 31.54-42.1C31.34-42.7 31.14-43.2 31.14-43.7C31.14-44.3 31.34-44.9 31.84-45.4L35.34-49.2C37.54-51.7 38.54-53.8 38.54-55.9C38.54-57.6 37.84-59.3 36.54-61L26.64-75C24.84-77.5 22.44-78.6 19.94-78.6C16.94-78.6 13.74-77.1 10.84-74.2C6.34-69.7 4.34-64 4.34-57.9C4.34-44 14.54-27.4 27.54-14.4ZM65.84-69.1C69.04-69.1 71.54-71.9 71.54-75.5C71.54-78.9 69.04-81.7 65.84-81.7C62.64-81.7 60.14-78.8 60.14-75.5C60.14-71.8 62.64-69.1 65.84-69.1ZM73.54-64C71.74-65.5 69.14-66.5 65.84-66.5C58.34-66.5 53.64-61.1 53.64-56.3C53.64-54.8 54.44-54.2 55.94-54.2L70.04-54.2C69.64-54.8 69.44-55.5 69.44-56.3C69.34-58.7 70.84-61.6 73.54-64ZM85.54-69.5C89.24-69.5 92.14-72.7 92.14-76.8C92.14-80.7 89.24-84 85.54-84C81.84-84 78.94-80.7 78.94-76.8C78.84-72.6 81.74-69.5 85.54-69.5ZM104.84-69.1C108.04-69.1 110.54-71.9 110.54-75.5C110.54-78.9 108.04-81.7 104.84-81.7C101.64-81.7 99.14-78.8 99.14-75.5C99.14-71.8 101.74-69.1 104.84-69.1ZM105.04-66.5C101.64-66.5 99.14-65.5 97.34-64C100.04-61.7 101.44-58.7 101.44-56.3C101.44-55.5 101.24-54.8 100.84-54.2L114.94-54.2C116.44-54.2 117.24-54.8 117.24-56.3C117.14-61.1 112.54-66.5 105.04-66.5ZM85.34-65.8C77.04-65.8 71.74-60.1 71.74-56.2C71.74-55.3 72.34-54.7 73.34-54.7L97.24-54.7C98.24-54.7 98.84-55.2 98.84-56.2C98.84-60.2 93.74-65.8 85.34-65.8Z"/>
  </g>
  <g id="Ultralight-M" transform="matrix(1 0 0 1 505.363 1126)">
   <path d="M27.24-14.8C39.84-2.2 56.24 8 70.24 8C76.74 8 82.24 5.8 86.84 1.1C89.04-1.1 91.54-4.5 91.54-7.8C91.54-9.9 90.64-11.9 88.24-13.6L73.34-23.9C71.84-25 70.24-25.6 68.44-25.6C66.44-25.6 64.24-24.7 61.94-22.4L58.24-19C57.74-18.5 57.14-18.3 56.44-18.3C55.84-18.3 55.34-18.5 54.74-18.7C52.14-20 46.74-23.7 41.44-29C36.14-34.3 32.24-39.5 31.14-42.4C30.94-43 30.74-43.5 30.74-43.8C30.74-44.4 30.94-44.9 31.44-45.4L34.94-49.3C37.24-51.9 38.04-54 38.04-56C38.04-57.7 37.34-59.3 36.24-60.9L26.54-74.8C24.74-77.4 22.34-78.5 19.84-78.5C16.94-78.5 13.74-76.9 10.84-74.1C6.34-69.6 4.34-63.9 4.34-57.8C4.44-43.9 14.64-27.4 27.24-14.8ZM64.94-68.8C68.14-68.8 70.54-71.5 70.54-75C70.54-78.3 68.04-81.1 64.94-81.1C61.84-81.1 59.34-78.3 59.34-75C59.34-71.5 61.84-68.8 64.94-68.8ZM72.44-63.8C70.64-65.2 68.14-66.2 64.84-66.2C57.44-66.2 52.84-60.9 52.84-56.2C52.84-54.7 53.64-54.2 55.04-54.2L68.84-54.2C68.54-54.8 68.24-55.5 68.24-56.2C68.44-58.6 69.84-61.5 72.44-63.8ZM84.24-69.2C87.84-69.2 90.64-72.3 90.64-76.4C90.64-80.2 87.84-83.4 84.24-83.4C80.64-83.4 77.74-80.2 77.84-76.4C77.74-72.3 80.64-69.2 84.24-69.2ZM103.24-68.8C106.44-68.8 108.84-71.5 108.84-75C108.84-78.3 106.34-81.1 103.24-81.1C100.14-81.1 97.64-78.3 97.64-75C97.64-71.5 100.14-68.8 103.24-68.8ZM103.24-66.2C99.94-66.2 97.44-65.2 95.64-63.8C98.24-61.5 99.64-58.6 99.64-56.2C99.64-55.4 99.44-54.7 99.14-54.2L112.94-54.2C114.34-54.2 115.14-54.8 115.14-56.2C115.24-60.9 110.74-66.2 103.24-66.2ZM84.14-65.6C76.04-65.6 70.84-60 70.84-56.2C70.84-55.3 71.44-54.7 72.44-54.7L95.84-54.7C96.84-54.7 97.44-55.2 97.44-56.2C97.34-60 92.24-65.6 84.14-65.6Z"/>
  </g>
  <g id="Black-S" transform="matrix(1 0 0 1 2881.7 696)">
   <path d="M26.54-16.6C39.04-4.1 53.84 5.4 65.94 5.4C71.34 5.4 76.14 3.5 79.94-0.7C82.14-3.1 83.24-5.8 83.24-8.6C83.24-11.2 82.14-13.8 79.64-15.6L67.64-24.1C65.54-25.6 63.84-26.2 62.34-26.2C60.34-26.2 58.64-25.1 56.74-23.2L53.74-20.2C53.34-19.8 52.74-19.6 52.14-19.6C51.54-19.6 50.84-19.8 50.34-20.1C47.74-21.6 43.34-25.5 39.24-29.5C35.14-33.6 31.34-38 29.84-40.6C29.54-41 29.34-41.7 29.34-42.4C29.34-42.9 29.54-43.5 29.94-44L32.94-47C34.84-48.9 35.94-50.6 35.94-52.6C35.94-54.1 35.34-55.8 33.84-57.9L25.34-69.8C23.54-72.3 21.04-73.3 18.34-73.3C15.54-73.3 12.84-72.2 10.44-70C6.24-66.2 4.34-61.4 4.34-56C4.44-43.9 13.94-29.1 26.54-16.6ZM58.34-62.7C61.54-62.7 64.04-65.5 64.04-69.1C64.04-72.5 61.54-75.3 58.34-75.3C55.14-75.3 52.54-72.4 52.64-69C52.74-65.5 55.24-62.7 58.34-62.7ZM66.14-57.6C64.34-59.1 61.74-60.1 58.44-60.1C50.94-60.1 46.24-54.7 46.24-49.9C46.24-48.4 47.04-47.8 48.54-47.8L62.64-47.8C62.24-48.4 62.04-49.1 62.04-49.9C62.04-52.3 63.34-55.3 66.14-57.6ZM77.94-63.1C81.64-63.1 84.54-66.3 84.54-70.4C84.54-74.3 81.64-77.6 77.94-77.6C74.24-77.6 71.34-74.3 71.34-70.4C71.34-66.3 74.24-63.1 77.94-63.1ZM97.44-62.7C100.64-62.7 103.14-65.5 103.14-69.1C103.14-72.5 100.64-75.4 97.44-75.4C94.24-75.4 91.74-72.5 91.74-69.2C91.84-65.5 94.24-62.7 97.44-62.7ZM97.64-60.1C94.24-60.1 91.74-59.1 89.94-57.6C92.64-55.2 94.04-52.3 94.04-49.9C94.04-49.1 93.84-48.4 93.44-47.8L107.54-47.8C109.04-47.8 109.84-48.4 109.84-49.9C109.84-54.7 105.14-60.1 97.64-60.1ZM77.94-59.4C69.64-59.4 64.34-53.7 64.34-49.8C64.34-48.9 64.94-48.3 65.94-48.3L89.84-48.3C90.84-48.3 91.44-48.8 91.44-49.8C91.44-53.8 86.24-59.4 77.94-59.4Z"/>
  </g>
  <g id="Heavy-S" transform="matrix(1 0 0 1 2585.84 696)">
   <path d="M25.84-16.9C38.04-4.6 52.54 4.6 64.34 4.6C69.64 4.6 74.24 2.8 78.04-1.4C80.24-3.8 81.34-6.5 81.34-9.2C81.34-11.7 80.34-14.1 78.04-15.7L66.14-24.2C64.04-25.7 62.44-26.3 60.94-26.3C58.94-26.3 57.34-25.2 55.44-23.3L52.54-20.4C52.14-20 51.54-19.8 51.04-19.8C50.44-19.8 49.74-20 49.34-20.3C46.74-21.8 42.44-25.6 38.44-29.5C34.44-33.5 30.64-37.8 29.24-40.4C28.94-40.8 28.74-41.5 28.74-42.1C28.74-42.6 28.94-43.2 29.34-43.6L32.24-46.5C34.14-48.4 35.24-50 35.24-52C35.24-53.5 34.64-55.2 33.14-57.2L24.64-69.1C22.94-71.4 20.54-72.4 18.04-72.4C15.24-72.4 12.64-71.3 10.24-69.1C6.14-65.3 4.34-60.7 4.34-55.4C4.34-43.6 13.64-29 25.84-16.9ZM57.84-62.3C61.04-62.3 63.44-65 63.44-68.5C63.44-71.8 60.94-74.6 57.84-74.6C54.74-74.6 52.24-71.8 52.24-68.5C52.24-65 54.74-62.3 57.84-62.3ZM65.34-57.4C63.54-58.8 61.04-59.8 57.84-59.8C50.44-59.8 45.94-54.5 45.94-49.8C45.94-48.3 46.74-47.8 48.14-47.8L62.04-47.8C61.74-48.4 61.44-49.1 61.44-49.8C61.24-52.2 62.84-55.1 65.34-57.4ZM76.94-62.7C80.54-62.7 83.34-65.8 83.34-69.9C83.34-73.7 80.54-76.9 76.94-76.9C73.34-76.9 70.44-73.7 70.54-69.9C70.64-65.8 73.34-62.7 76.94-62.7ZM95.94-62.3C99.14-62.3 101.54-65 101.54-68.5C101.54-71.8 99.04-74.6 95.94-74.6C92.84-74.6 90.34-71.8 90.34-68.5C90.34-65 92.84-62.3 95.94-62.3ZM96.14-59.8C92.84-59.8 90.34-58.8 88.64-57.4C91.24-55.1 92.64-52.2 92.64-49.8C92.64-49 92.44-48.3 92.14-47.8L105.94-47.8C107.34-47.8 108.14-48.4 108.14-49.8C107.94-54.5 103.34-59.8 96.14-59.8ZM76.94-59.2C68.84-59.2 63.64-53.7 63.64-49.9C63.64-49 64.24-48.4 65.24-48.4L88.54-48.4C89.54-48.4 90.14-48.9 90.14-49.9C90.24-53.6 84.94-59.2 76.94-59.2Z"/>
  </g>
  <g id="Bold-S" transform="matrix(1 0 0 1 2291.23 696)">
   <path d="M25.14-17.1C37.14-5.2 51.24 3.9 62.94 3.9C68.04 3.9 72.64 2.1 76.24-2C78.34-4.4 79.54-7 79.54-9.7C79.54-12 78.64-14.2 76.44-15.8L64.64-24.2C62.64-25.6 61.04-26.3 59.54-26.3C57.64-26.3 56.04-25.2 54.24-23.4L51.44-20.6C50.94-20.2 50.44-20 49.94-20C49.34-20 48.74-20.2 48.24-20.5C45.74-21.9 41.54-25.6 37.64-29.5C33.74-33.4 30.04-37.6 28.64-40.1C28.44-40.5 28.14-41.1 28.14-41.8C28.14-42.3 28.34-42.9 28.74-43.3L31.54-46.1C33.34-47.9 34.44-49.5 34.44-51.4C34.44-52.8 33.84-54.5 32.34-56.5L23.94-68.3C22.44-70.5 20.14-71.4 17.74-71.4C15.04-71.4 12.44-70.3 10.14-68.1C6.14-64.4 4.34-59.8 4.34-54.7C4.34-43.1 13.34-29 25.14-17.1ZM56.94-62.3C59.94-62.3 62.14-64.8 62.14-68.1C62.14-71.2 59.84-73.8 56.94-73.8C54.04-73.8 51.64-71.2 51.74-68.1C51.74-64.9 54.14-62.3 56.94-62.3ZM64.04-57.7C62.24-59 59.94-60 56.94-60C50.04-60 45.74-55.1 45.74-50.7C45.74-49.3 46.44-48.8 47.84-48.8L60.74-48.8C60.44-49.3 60.24-50 60.24-50.7C60.24-52.9 61.64-55.5 64.04-57.7ZM74.84-62.7C78.24-62.7 80.84-65.6 80.84-69.4C80.84-72.9 78.14-75.9 74.84-75.9C71.54-75.9 68.84-72.9 68.84-69.4C68.84-65.6 71.54-62.7 74.84-62.7ZM92.74-62.3C95.74-62.3 97.94-64.8 97.94-68.1C97.94-71.2 95.64-73.8 92.74-73.8C89.84-73.8 87.54-71.2 87.54-68.1C87.54-64.9 89.74-62.3 92.74-62.3ZM92.74-60C89.64-60 87.34-59 85.64-57.7C88.04-55.6 89.44-52.9 89.44-50.6C89.44-49.9 89.24-49.2 88.94-48.7L101.84-48.7C103.14-48.7 103.94-49.2 103.94-50.6C103.84-55 99.74-60 92.74-60ZM74.84-59.4C67.24-59.4 62.44-54.2 62.44-50.7C62.44-49.8 62.94-49.3 63.94-49.3L85.74-49.3C86.64-49.3 87.24-49.8 87.24-50.7C87.24-54.2 82.34-59.4 74.84-59.4Z"/>
  </g>
  <g id="Semibold-S" transform="matrix(1 0 0 1 1995.67 696)">
   <path d="M24.6408-17.3C36.3408-5.6 50.3408 3.3 61.7408 3.3C66.7408 3.3 71.2408 1.5 74.8408-2.5C76.9408-4.9 78.1408-7.5 78.1408-10.2C78.1408-12.4 77.3408-14.5 75.2408-15.9L63.4408-24.3C61.4408-25.7 59.9408-26.3 58.4408-26.3C56.5408-26.3 55.0408-25.2 53.2408-23.5L50.4408-20.7C50.0408-20.3 49.4408-20.1 48.9408-20.1C48.3408-20.1 47.7408-20.3 47.3408-20.6C44.8408-21.9 40.7408-25.6 36.8408-29.4C33.0408-33.2 29.3408-37.4 28.0408-39.8C27.8408-40.2 27.5408-40.8 27.5408-41.5C27.5408-42 27.7408-42.6 28.1408-43L30.9408-45.8C32.7408-47.6 33.8408-49.2 33.8408-51C33.8408-52.4 33.2408-54 31.8408-56L23.4408-67.8C21.9408-69.9 19.8408-70.7 17.5408-70.7C14.9408-70.7 12.2408-69.6 9.94084-67.4C6.04084-63.8 4.34084-59.2 4.34084-54.2C4.24084-42.8 13.0408-29 24.6408-17.3ZM56.2408-62.2C59.1408-62.2 61.2408-64.6 61.2408-67.8C61.2408-70.8 59.0408-73.3 56.2408-73.3C53.4408-73.3 51.1408-70.8 51.2408-67.8C51.2408-64.6 53.4408-62.2 56.2408-62.2ZM63.0408-57.7C61.4408-59 59.2408-59.9 56.2408-59.9C49.5408-59.9 45.4408-55.1 45.4408-50.9C45.4408-49.6 46.1408-49.1 47.4408-49.1L59.9408-49.1C59.6408-49.6 59.4408-50.2 59.4408-50.9C59.4408-53 60.7408-55.6 63.0408-57.7ZM73.5408-62.5C76.8408-62.5 79.3408-65.3 79.3408-69C79.3408-72.4 76.7408-75.3 73.5408-75.3C70.3408-75.3 67.7408-72.4 67.7408-69C67.7408-65.3 70.3408-62.5 73.5408-62.5ZM90.7408-62.2C93.6408-62.2 95.7408-64.6 95.7408-67.8C95.7408-70.8 93.5408-73.3 90.7408-73.3C87.9408-73.3 85.6408-70.8 85.6408-67.8C85.7408-64.6 87.9408-62.2 90.7408-62.2ZM90.8408-59.9C87.8408-59.9 85.6408-59 84.0408-57.7C86.3408-55.6 87.6408-53 87.6408-50.9C87.6408-50.2 87.4408-49.6 87.1408-49.1L99.6408-49.1C100.941-49.1 101.641-49.6 101.641-50.9C101.541-55.1 97.4408-59.9 90.8408-59.9ZM73.5408-59.3C66.2408-59.3 61.5408-54.3 61.5408-50.9C61.5408-50.1 62.0408-49.6 62.9408-49.6L84.0408-49.6C84.9408-49.6 85.4408-50.1 85.4408-50.9C85.4408-54.3 80.8408-59.3 73.5408-59.3Z"/>
  </g>
  <g id="Medium-S" transform="matrix(1 0 0 1 1700.11 696)">
   <path d="M24.44-17.5C35.94-5.9 49.74 2.8 60.94 2.8C65.94 2.8 70.34 1.1 73.84-2.9C75.94-5.3 77.04-7.9 77.04-10.5C77.04-12.6 76.24-14.6 74.34-16L62.54-24.4C60.64-25.8 59.04-26.4 57.64-26.4C55.84-26.4 54.24-25.4 52.44-23.6L49.74-20.9C49.34-20.5 48.74-20.3 48.24-20.3C47.64-20.3 47.04-20.5 46.64-20.8C44.14-22.1 40.04-25.8 36.34-29.5C32.64-33.3 28.94-37.4 27.64-39.8C27.44-40.2 27.14-40.8 27.14-41.4C27.14-41.9 27.34-42.4 27.74-42.9L30.44-45.6C32.14-47.3 33.24-48.9 33.24-50.7C33.24-52.1 32.64-53.7 31.24-55.6L22.94-67.4C21.54-69.4 19.54-70.2 17.34-70.2C14.74-70.2 12.14-69.1 9.84-66.9C6.04-63.3 4.34-58.8 4.34-53.9C4.34-42.6 12.84-28.9 24.44-17.5ZM55.94-62.3C58.64-62.3 60.74-64.6 60.74-67.7C60.74-70.6 58.64-73 55.94-73C53.24-73 51.04-70.6 51.14-67.7C51.14-64.6 53.14-62.3 55.94-62.3ZM62.44-57.9C60.94-59.1 58.74-60 55.94-60C49.54-60.1 45.54-55.5 45.54-51.4C45.54-50.1 46.24-49.6 47.44-49.6L59.44-49.6C59.14-50.1 58.94-50.7 58.94-51.4C58.94-53.5 60.14-56 62.44-57.9ZM72.54-62.6C75.64-62.6 78.14-65.3 78.14-68.8C78.14-72.1 75.64-74.9 72.54-74.9C69.44-74.9 66.94-72.1 66.94-68.8C66.84-65.3 69.34-62.6 72.54-62.6ZM89.04-62.3C91.74-62.3 93.84-64.6 93.84-67.7C93.84-70.6 91.74-73 89.04-73C86.34-73 84.14-70.6 84.14-67.7C84.14-64.6 86.24-62.3 89.04-62.3ZM89.04-60.1C86.14-60.1 84.04-59.2 82.44-58C84.74-56 85.94-53.5 85.94-51.4C85.94-50.7 85.74-50.1 85.44-49.6L97.44-49.6C98.64-49.6 99.34-50.1 99.34-51.4C99.34-55.5 95.34-60.1 89.04-60.1ZM72.54-59.5C65.54-59.5 61.04-54.7 61.04-51.4C61.04-50.6 61.54-50.1 62.44-50.1L82.74-50.1C83.64-50.1 84.14-50.6 84.14-51.4C83.84-54.7 79.54-59.5 72.54-59.5Z"/>
  </g>
  <g id="Regular-S" transform="matrix(1 0 0 1 1403.8 696)">
   <path d="M23.9409-17.7C35.2409-6.4 48.8409 2.3 59.8409 2.3C64.7409 2.3 69.0409 0.6 72.4409-3.3C74.5409-5.6 75.6409-8.3 75.6409-10.9C75.6409-12.9 74.9409-14.8 73.1409-16L61.4409-24.4C59.5409-25.8 58.0409-26.4 56.6409-26.4C54.8409-26.4 53.3409-25.4 51.5409-23.7L48.8409-21C48.4409-20.6 47.8409-20.4 47.3409-20.4C46.7409-20.4 46.1409-20.6 45.7409-20.8C43.3409-22.1 39.3409-25.7 35.5409-29.3C31.8409-33 28.2409-37 27.0409-39.4C26.8409-39.8 26.6409-40.4 26.6409-41C26.6409-41.5 26.7409-42 27.2409-42.5L29.9409-45.2C31.6409-46.9 32.7409-48.5 32.7409-50.2C32.7409-51.6 32.1409-53.1 30.7409-55L22.4409-66.8C21.1409-68.7 19.2409-69.4 17.1409-69.4C14.6409-69.4 11.9409-68.3 9.74088-66.1C5.94088-62.5 4.34088-58.1 4.34088-53.3C4.24088-42.3 12.6409-28.9 23.9409-17.7ZM55.5409-61.7C58.2409-61.7 60.3409-64 60.3409-67.1C60.3409-69.9 58.2409-72.3 55.5409-72.3C52.8409-72.3 50.7409-69.9 50.7409-67.1C50.7409-64.1 52.7409-61.7 55.5409-61.7ZM61.9409-57.5C60.4409-58.7 58.2409-59.6 55.4409-59.6C49.1409-59.6 45.1409-55.1 45.1409-51C45.1409-49.7 45.8409-49.3 47.0409-49.3L58.9409-49.3C58.6409-49.7 58.4409-50.3 58.4409-51C58.4409-53 59.7409-55.5 61.9409-57.5ZM71.9409-62C75.0409-62 77.4409-64.7 77.4409-68.2C77.4409-71.5 75.0409-74.2 71.9409-74.2C68.8409-74.2 66.3409-71.4 66.4409-68.2C66.4409-64.7 68.8409-62 71.9409-62ZM88.2409-61.7C90.9409-61.7 93.0409-64 93.0409-67C93.0409-69.8 90.9409-72.2 88.2409-72.2C85.5409-72.2 83.4409-69.8 83.4409-67C83.4409-64.1 85.5409-61.7 88.2409-61.7ZM88.3409-59.6C85.5409-59.6 83.4409-58.7 81.8409-57.5C84.0409-55.5 85.3409-53.1 85.3409-51C85.3409-50.3 85.1409-49.7 84.8409-49.3L96.6409-49.3C97.8409-49.3 98.5409-49.8 98.5409-51C98.5409-55 94.6409-59.6 88.3409-59.6ZM71.9409-59C64.9409-59 60.5409-54.2 60.5409-51C60.5409-50.2 61.0409-49.7 61.9409-49.7L82.0409-49.7C82.9409-49.7 83.3409-50.2 83.3409-51C83.2409-54.3 78.8409-59 71.9409-59Z"/>
  </g>
  <g id="Light-S" transform="matrix(1 0 0 1 1107.73 696)">
   <path d="M23.3435-18.2C34.1435-7.3 47.5435 1.2 58.4435 1.2C63.4435 1.2 67.7435-0.5 71.2435-4.3C73.2435-6.4 74.6435-9.1 74.6435-11.7C74.6435-13.6 73.9435-15.4 72.0435-16.6L60.3435-25C58.6435-26.2 57.2435-26.8 55.8435-26.8C54.1435-26.8 52.5435-25.9 50.7435-24.1L48.0435-21.4C47.6435-21 47.1435-20.8 46.6435-20.8C46.1435-20.8 45.5435-21 45.1435-21.2C42.8435-22.4 38.7435-25.8 34.9435-29.6C31.1435-33.4 27.7435-37.5 26.5435-39.8C26.3435-40.2 26.1435-40.7 26.1435-41.3C26.1435-41.8 26.2435-42.3 26.7435-42.7L29.4435-45.5C31.1435-47.3 32.1435-48.9 32.1435-50.6C32.1435-52 31.5435-53.4 30.3435-55.1L22.2435-66.6C20.9435-68.5 19.0435-69.3 16.9435-69.3C14.4435-69.3 11.8435-68.1 9.64354-65.9C5.94354-62.3 4.34354-57.9 4.34354-53.1C4.14354-42.2 12.4435-29 23.3435-18.2ZM54.5435-61.6C57.2435-61.6 59.2435-63.9 59.2435-66.9C59.2435-69.7 57.1435-72.1 54.5435-72.1C51.9435-72.1 49.7435-69.7 49.8435-66.9C49.7435-63.9 51.8435-61.6 54.5435-61.6ZM60.9435-57.4C59.4435-58.6 57.3435-59.5 54.5435-59.5C48.2435-59.5 44.3435-55 44.3435-51C44.3435-49.8 45.0435-49.3 46.2435-49.3L57.9435-49.3C57.6435-49.8 57.4435-50.4 57.4435-51C57.4435-53 58.7435-55.4 60.9435-57.4ZM70.8435-61.9C73.9435-61.9 76.3435-64.6 76.3435-68C76.3435-71.2 73.9435-73.9 70.8435-73.9C67.8435-73.9 65.3435-71.2 65.3435-67.9C65.3435-64.6 67.7435-61.9 70.8435-61.9ZM87.0435-61.6C89.7435-61.6 91.7435-63.9 91.7435-66.9C91.7435-69.7 89.6435-72.1 87.0435-72.1C84.4435-72.1 82.2435-69.7 82.2435-66.9C82.2435-63.9 84.3435-61.6 87.0435-61.6ZM87.0435-59.5C84.2435-59.5 82.1435-58.6 80.6435-57.4C82.8435-55.4 84.0435-53 84.0435-51C84.0435-50.3 83.8435-49.8 83.5435-49.3L95.3435-49.3C96.5435-49.3 97.2435-49.8 97.2435-51C97.1435-55 93.3435-59.5 87.0435-59.5ZM70.7435-58.9C63.8435-58.9 59.4435-54.2 59.4435-50.9C59.4435-50.1 59.9435-49.7 60.8435-49.7L80.7435-49.7C81.5435-49.7 82.0435-50.2 82.0435-50.9C82.0435-54.2 77.6435-58.9 70.7435-58.9Z"/>
  </g>
  <g id="Thin-S" transform="matrix(1 0 0 1 811.525 696)">
   <path d="M22.84-18.8C33.14-8.5 46.14-0.3 57.14-0.3C62.24-0.3 66.44-2 70.04-5.7C71.94-7.6 73.54-10.3 73.54-12.8C73.54-14.5 72.84-16.2 70.94-17.5L59.24-25.7C57.84-26.7 56.54-27.2 55.14-27.2C53.54-27.2 51.84-26.4 50.04-24.6L47.24-21.9C46.84-21.5 46.34-21.3 45.84-21.3C45.34-21.3 44.84-21.5 44.44-21.7C42.24-22.8 38.14-25.9 34.04-29.9C30.04-33.9 26.84-38 25.84-40.3C25.64-40.7 25.54-41.2 25.54-41.6C25.54-42.1 25.64-42.5 26.14-42.9L28.84-45.9C30.54-47.8 31.34-49.5 31.34-51.1C31.34-52.5 30.74-53.8 29.74-55.2L21.94-66.3C20.54-68.3 18.64-69.1 16.64-69.1C14.24-69.1 11.74-67.9 9.54-65.7C5.94-62.1 4.34-57.7 4.34-52.9C4.34-42.1 12.54-29 22.84-18.8ZM53.44-61.4C56.14-61.4 58.24-63.7 58.24-66.7C58.24-69.5 56.14-71.9 53.44-71.9C50.74-71.9 48.64-69.5 48.64-66.7C48.74-63.7 50.74-61.4 53.44-61.4ZM59.94-57.2C58.44-58.4 56.34-59.3 53.54-59.3C47.24-59.3 43.34-54.8 43.34-50.8C43.34-49.6 44.04-49.1 45.24-49.1L56.94-49.1C56.64-49.6 56.44-50.2 56.44-50.8C56.44-52.8 57.64-55.2 59.94-57.2ZM69.74-61.7C72.84-61.7 75.24-64.4 75.24-67.8C75.24-71 72.84-73.8 69.74-73.8C66.74-73.8 64.24-71.1 64.24-67.8C64.24-64.4 66.74-61.7 69.74-61.7ZM86.04-61.4C88.74-61.4 90.74-63.7 90.74-66.7C90.74-69.5 88.64-71.9 86.04-71.9C83.34-71.9 81.24-69.5 81.24-66.7C81.24-63.7 83.24-61.4 86.04-61.4ZM86.14-59.2C83.34-59.2 81.24-58.3 79.64-57.1C81.84-55.1 83.04-52.7 83.04-50.6C83.04-49.9 82.84-49.4 82.54-48.9L94.34-48.9C95.54-48.9 96.24-49.4 96.24-50.6C96.24-54.7 92.34-59.2 86.14-59.2ZM69.74-58.7C62.84-58.7 58.44-54 58.44-50.7C58.44-49.9 58.94-49.5 59.84-49.5L79.74-49.5C80.54-49.5 81.04-50 81.04-50.7C81.14-54 76.74-58.7 69.74-58.7Z"/>
  </g>
  <g id="Ultralight-S" transform="matrix(1 0 0 1 515.913 696)">
   <path d="M22.54-19.3C32.54-9.3 45.24-1.3 55.94-1.3C60.94-1.3 65.04-3 68.54-6.6C70.44-8.5 71.94-11.1 71.94-13.5C71.94-15.2 71.24-16.8 69.44-18.1L58.04-26.1C56.64-27.1 55.44-27.6 54.04-27.6C52.44-27.6 50.84-26.8 49.04-25.1L46.34-22.5C45.94-22.1 45.44-21.9 44.94-21.9C44.44-21.9 43.94-22.1 43.54-22.3C41.44-23.4 37.44-26.4 33.44-30.3C29.54-34.2 26.44-38.2 25.44-40.4C25.24-40.8 25.14-41.3 25.14-41.7C25.14-42.2 25.24-42.6 25.74-43L28.34-45.9C30.04-47.8 30.74-49.4 30.74-51C30.74-52.4 30.14-53.6 29.14-55L21.54-65.8C20.14-67.7 18.34-68.5 16.34-68.5C14.04-68.5 11.54-67.3 9.44-65.2C5.94-61.7 4.34-57.4 4.34-52.7C4.64-42 12.54-29.2 22.54-19.3ZM52.34-60.8C54.94-60.8 57.04-63 57.04-66C57.04-68.7 55.04-71.1 52.34-71.1C49.74-71.1 47.64-68.8 47.64-66C47.74-63 49.74-60.8 52.34-60.8ZM58.64-56.7C57.14-57.9 55.14-58.7 52.44-58.7C46.34-58.7 42.54-54.3 42.54-50.4C42.54-49.2 43.24-48.7 44.44-48.7L55.94-48.7C55.64-49.2 55.44-49.8 55.44-50.4C55.24-52.4 56.44-54.7 58.64-56.7ZM68.24-61.1C71.24-61.1 73.64-63.7 73.64-67C73.64-70.1 71.34-72.8 68.24-72.8C65.34-72.8 62.84-70.2 62.84-67C62.94-63.7 65.24-61.1 68.24-61.1ZM84.04-60.8C86.64-60.8 88.64-63 88.64-66C88.64-68.7 86.64-71.1 84.04-71.1C81.44-71.1 79.34-68.8 79.34-66C79.44-63 81.44-60.8 84.04-60.8ZM84.14-58.6C81.44-58.6 79.34-57.7 77.84-56.6C79.94-54.7 81.14-52.3 81.14-50.3C81.14-49.6 80.94-49.1 80.64-48.6L92.14-48.6C93.34-48.6 94.04-49.1 94.04-50.3C94.14-54.3 90.34-58.6 84.14-58.6ZM68.24-58.2C61.54-58.2 57.24-53.6 57.24-50.4C57.24-49.6 57.74-49.2 58.64-49.2L78.04-49.2C78.84-49.2 79.34-49.7 79.34-50.4C79.34-53.6 75.04-58.2 68.24-58.2Z"/>
  </g>
 </g>
</svg>
