<svg fill="none" viewBox="0 0 32 32" xmlns="http://www.w3.org/2000/svg"><path d="m22.141 29.258c0.0508 0.4111-0.2898 0.7486-0.704 0.7486h-10.53c-0.4143 0-0.7549-0.3375-0.7039-0.7485 0.3683-2.968 2.8981-5.2715 5.9739-5.2715s5.597 2.3035 5.964 5.2714z" fill="#FF6729"/><path d="m22.141 29.258c0.0508 0.4111-0.2898 0.7486-0.704 0.7486h-10.53c-0.4143 0-0.7549-0.3375-0.7039-0.7485 0.3683-2.968 2.8981-5.2715 5.9739-5.2715s5.597 2.3035 5.964 5.2714z" fill="url(#y)"/><path d="m22.141 29.258c0.0508 0.4111-0.2898 0.7486-0.704 0.7486h-10.53c-0.4143 0-0.7549-0.3375-0.7039-0.7485 0.3683-2.968 2.8981-5.2715 5.9739-5.2715s5.597 2.3035 5.964 5.2714z" fill="url(#n)"/><path d="m22.141 29.258c0.0508 0.4111-0.2898 0.7486-0.704 0.7486h-10.53c-0.4143 0-0.7549-0.3375-0.7039-0.7485 0.3683-2.968 2.8981-5.2715 5.9739-5.2715s5.597 2.3035 5.964 5.2714z" fill="url(#h)"/><path d="m22.141 29.258c0.0508 0.4111-0.2898 0.7486-0.704 0.7486h-10.53c-0.4143 0-0.7549-0.3375-0.7039-0.7485 0.3683-2.968 2.8981-5.2715 5.9739-5.2715s5.597 2.3035 5.964 5.2714z" fill="url(#g)"/><path d="m16.097 28.067c6.1304 0 11.1-4.9697 11.1-11.1 0-6.1304-4.9696-11.1-11.1-11.1-6.1303 0-11.1 4.9696-11.1 11.1 0 6.1303 4.9696 11.1 11.1 11.1z" fill="url(#f)"/><path d="m16.097 28.067c6.1304 0 11.1-4.9697 11.1-11.1 0-6.1304-4.9696-11.1-11.1-11.1-6.1303 0-11.1 4.9696-11.1 11.1 0 6.1303 4.9696 11.1 11.1 11.1z" fill="url(#e)"/><path d="m16.097 28.067c6.1304 0 11.1-4.9697 11.1-11.1 0-6.1304-4.9696-11.1-11.1-11.1-6.1303 0-11.1 4.9696-11.1 11.1 0 6.1303 4.9696 11.1 11.1 11.1z" fill="url(#d)"/><path d="m24.717 17.403c0 4.7085-3.86 10.663-8.63 10.663s-8.63-5.9549-8.63-10.663 3.86-8.5366 8.63-8.5366 8.63 3.8182 8.63 8.5366z" fill="#FFBEA6"/><path d="m24.717 17.403c0 4.7085-3.86 10.663-8.63 10.663s-8.63-5.9549-8.63-10.663 3.86-8.5366 8.63-8.5366 8.63 3.8182 8.63 8.5366z" fill="url(#c)"/><path d="m24.717 17.403c0 4.7085-3.86 10.663-8.63 10.663s-8.63-5.9549-8.63-10.663 3.86-8.5366 8.63-8.5366 8.63 3.8182 8.63 8.5366z" fill="url(#b)"/><path d="m24.717 17.403c0 4.7085-3.86 10.663-8.63 10.663s-8.63-5.9549-8.63-10.663 3.86-8.5366 8.63-8.5366 8.63 3.8182 8.63 8.5366z" fill="url(#a)" fill-opacity=".5"/><path d="m24.717 17.403c0 4.7085-3.86 10.663-8.63 10.663s-8.63-5.9549-8.63-10.663 3.86-8.5366 8.63-8.5366 8.63 3.8182 8.63 8.5366z" fill="url(#x)"/><path d="m24.717 17.403c0 4.7085-3.86 10.663-8.63 10.663s-8.63-5.9549-8.63-10.663 3.86-8.5366 8.63-8.5366 8.63 3.8182 8.63 8.5366z" fill="url(#w)"/><path d="m25.817 5.0666c0.6169-0.70259 1.0283-1.5814 1.1334-2.5609 0.0295-0.27456-0.1973-0.49913-0.4734-0.49913h-5.15c-1.09 0-2.09 0.38-2.88 1.01h-4.56c-0.79-0.63-1.79-1.01-2.88-1.01h-5.14c-0.27614 0-0.50285 0.22457-0.47307 0.4991 0.10569 0.97407 0.51682 1.8591 1.1331 2.5609-0.9 1.04-1.45 2.39-1.45 3.86 0 5.9 4.82 6.8 10.72 6.8h0.75c5.9 0 10.72-0.9 10.72-6.8 0-1.47-0.55-2.82-1.45-3.86z" fill="#845A40"/><path d="m25.817 5.0666c0.6169-0.70259 1.0283-1.5814 1.1334-2.5609 0.0295-0.27456-0.1973-0.49913-0.4734-0.49913h-5.15c-1.09 0-2.09 0.38-2.88 1.01h-4.56c-0.79-0.63-1.79-1.01-2.88-1.01h-5.14c-0.27614 0-0.50285 0.22457-0.47307 0.4991 0.10569 0.97407 0.51682 1.8591 1.1331 2.5609-0.9 1.04-1.45 2.39-1.45 3.86 0 5.9 4.82 6.8 10.72 6.8h0.75c5.9 0 10.72-0.9 10.72-6.8 0-1.47-0.55-2.82-1.45-3.86z" fill="url(#v)"/><path d="m25.817 5.0666c0.6169-0.70259 1.0283-1.5814 1.1334-2.5609 0.0295-0.27456-0.1973-0.49913-0.4734-0.49913h-5.15c-1.09 0-2.09 0.38-2.88 1.01h-4.56c-0.79-0.63-1.79-1.01-2.88-1.01h-5.14c-0.27614 0-0.50285 0.22457-0.47307 0.4991 0.10569 0.97407 0.51682 1.8591 1.1331 2.5609-0.9 1.04-1.45 2.39-1.45 3.86 0 5.9 4.82 6.8 10.72 6.8h0.75c5.9 0 10.72-0.9 10.72-6.8 0-1.47-0.55-2.82-1.45-3.86z" fill="url(#u)"/><path d="m25.817 5.0666c0.6169-0.70259 1.0283-1.5814 1.1334-2.5609 0.0295-0.27456-0.1973-0.49913-0.4734-0.49913h-5.15c-1.09 0-2.09 0.38-2.88 1.01h-4.56c-0.79-0.63-1.79-1.01-2.88-1.01h-5.14c-0.27614 0-0.50285 0.22457-0.47307 0.4991 0.10569 0.97407 0.51682 1.8591 1.1331 2.5609-0.9 1.04-1.45 2.39-1.45 3.86 0 5.9 4.82 6.8 10.72 6.8h0.75c5.9 0 10.72-0.9 10.72-6.8 0-1.47-0.55-2.82-1.45-3.86z" fill="url(#t)"/><path d="m25.817 5.0666c0.6169-0.70259 1.0283-1.5814 1.1334-2.5609 0.0295-0.27456-0.1973-0.49913-0.4734-0.49913h-5.15c-1.09 0-2.09 0.38-2.88 1.01h-4.56c-0.79-0.63-1.79-1.01-2.88-1.01h-5.14c-0.27614 0-0.50285 0.22457-0.47307 0.4991 0.10569 0.97407 0.51682 1.8591 1.1331 2.5609-0.9 1.04-1.45 2.39-1.45 3.86 0 5.9 4.82 6.8 10.72 6.8h0.75c5.9 0 10.72-0.9 10.72-6.8 0-1.47-0.55-2.82-1.45-3.86z" fill="url(#s)"/><g filter="url(#ab)"><path d="m18.005 12.85h-4.1078c0-1.0724 0.9245-1.9453 2.0605-1.9453 1.1359 0.0125 2.0473 0.8729 2.0473 1.9453z" fill="#622B2E"/></g><path d="m18.116 13.022h-4.0582c0-1.1222 0.9135-2.0356 2.0357-2.0356 1.1222 0.013 2.0225 0.9134 2.0225 2.0356z" fill="#FF7838"/><path d="m18.116 13.022h-4.0582c0-1.1222 0.9135-2.0356 2.0357-2.0356 1.1222 0.013 2.0225 0.9134 2.0225 2.0356z" fill="url(#r)"/><path d="m18.116 13.022h-4.0582c0-1.1222 0.9135-2.0356 2.0357-2.0356 1.1222 0.013 2.0225 0.9134 2.0225 2.0356z" fill="url(#q)"/><path d="m18.116 13.022h-4.0582c0-1.1222 0.9135-2.0356 2.0357-2.0356 1.1222 0.013 2.0225 0.9134 2.0225 2.0356z" fill="url(#p)"/><path d="m10.497 13.157c2.1925 0 3.97-1.7775 3.97-3.97 0-2.1926-1.7775-3.97-3.97-3.97-2.1926 0-3.97 1.7774-3.97 3.97 0 2.1926 1.7774 3.97 3.97 3.97z" fill="#2E2A31"/><path d="m10.937 12.976c1.8115 0 3.28-1.4685 3.28-3.28 0-1.8115-1.4685-3.28-3.28-3.28-1.8115 0-3.28 1.4685-3.28 3.28 0 1.8115 1.4685 3.28 3.28 3.28z" fill="#F8D41E"/><path d="m10.937 11.716c1.1156 0 2.02-0.9044 2.02-2.02 0-1.1156-0.9044-2.02-2.02-2.02-1.1156 0-2.02 0.90439-2.02 2.02 0 1.1156 0.90438 2.02 2.02 2.02z" fill="url(#o)"/><path d="m10.937 11.716c1.1156 0 2.02-0.9044 2.02-2.02 0-1.1156-0.9044-2.02-2.02-2.02-1.1156 0-2.02 0.90439-2.02 2.02 0 1.1156 0.90438 2.02 2.02 2.02z" fill="url(#m)"/><path d="m22.017 13.157c2.1925 0 3.97-1.7775 3.97-3.97 0-2.1926-1.7775-3.97-3.97-3.97-2.1926 0-3.97 1.7774-3.97 3.97 0 2.1926 1.7774 3.97 3.97 3.97z" fill="#2E2A31"/><path d="m21.557 12.976c1.8114 0 3.28-1.4685 3.28-3.28 0-1.8115-1.4686-3.28-3.28-3.28-1.8115 0-3.28 1.4685-3.28 3.28 0 1.8115 1.4685 3.28 3.28 3.28z" fill="#F8D41E"/><path d="m21.557 11.716c1.1156 0 2.02-0.9044 2.02-2.02 0-1.1156-0.9044-2.02-2.02-2.02-1.1157 0-2.02 0.90439-2.02 2.02 0 1.1156 0.9043 2.02 2.02 2.02z" fill="url(#l)"/><path d="m21.557 11.716c1.1156 0 2.02-0.9044 2.02-2.02 0-1.1156-0.9044-2.02-2.02-2.02-1.1157 0-2.02 0.90439-2.02 2.02 0 1.1156 0.9043 2.02 2.02 2.02z" fill="url(#k)"/><g filter="url(#aa)"><path d="m19.809 3.5691 6.9063-1.1875-2.8125 1.6562c-0.8125-0.5-3.5-0.46875-4.0938-0.46875z" fill="url(#j)"/></g><g filter="url(#z)"><path d="m21.638 3.6785c0.0213-0.0021 0.0449-0.00358 0.0706-0.00442l1.9294-0.12058c0.9921 0.25 1.6562 0.96093 2.0781 1.4062-1.2042-0.89563-3.3317-1.3079-4.0075-1.2857l-0.0706 0.00442z" fill="url(#i)"/></g><defs><filter id="ab" x="13.597" y="10.605" width="4.7078" height="2.5453" color-interpolation-filters="sRGB" filterUnits="userSpaceOnUse"><feFlood flood-opacity="0" result="BackgroundImageFix"/><feBlend in="SourceGraphic" in2="BackgroundImageFix" result="shape"/><feGaussianBlur result="effect1_foregroundBlur_28327_5045" stdDeviation="0.15"/></filter><filter id="aa" x="19.309" y="1.8816" width="7.9062" height="2.6562" color-interpolation-filters="sRGB" filterUnits="userSpaceOnUse"><feFlood flood-opacity="0" result="BackgroundImageFix"/><feBlend in="SourceGraphic" in2="BackgroundImageFix" result="shape"/><feGaussianBlur result="effect1_foregroundBlur_28327_5045" stdDeviation="0.25"/></filter><filter id="z" x="21.138" y="3.0535" width="5.0781" height="2.4062" color-interpolation-filters="sRGB" filterUnits="userSpaceOnUse"><feFlood flood-opacity="0" result="BackgroundImageFix"/><feBlend in="SourceGraphic" in2="BackgroundImageFix" result="shape"/><feGaussianBlur result="effect1_foregroundBlur_28327_5045" stdDeviation="0.25"/></filter><radialGradient id="y" cx="0" cy="0" r="1" gradientTransform="translate(20.216 28.85) rotate(74.65) scale(4.9581 5.5062)" gradientUnits="userSpaceOnUse"><stop stop-color="#FFAC76" offset="0"/><stop stop-color="#FFAC76" stop-opacity="0" offset=".96209"/></radialGradient><radialGradient id="n" cx="0" cy="0" r="1" gradientTransform="translate(12.528 27.538) rotate(110.47) scale(4.7365 2.773)" gradientUnits="userSpaceOnUse"><stop stop-color="#FF8654" offset="0"/><stop stop-color="#FF8654" stop-opacity="0" offset="1"/></radialGradient><radialGradient id="h" cx="0" cy="0" r="1" gradientTransform="translate(16.172 27.538) rotate(90) scale(1.625 3.3625)" gradientUnits="userSpaceOnUse"><stop stop-color="#FF6729" offset="0"/><stop stop-color="#FF6729" stop-opacity="0" offset="1"/></radialGradient><linearGradient id="g" x1="16.172" x2="16.172" y1="30.007" y2="29.35" gradientUnits="userSpaceOnUse"><stop stop-color="#FD5A4B" offset=".029412"/><stop stop-color="#FD5A4B" stop-opacity="0" offset="1"/></linearGradient><linearGradient id="f" x1="10.122" x2="22.559" y1="25.507" y2="25.507" gradientUnits="userSpaceOnUse"><stop stop-color="#5E392F" offset="0"/><stop stop-color="#845249" offset="1"/></linearGradient><radialGradient id="e" cx="0" cy="0" r="1" gradientTransform="translate(26.309 15.007) rotate(144.71) scale(4.9769 8.472)" gradientUnits="userSpaceOnUse"><stop stop-color="#A28171" offset="0"/><stop stop-color="#A28171" stop-opacity="0" offset="1"/></radialGradient><linearGradient id="d" x1="16.097" x2="16.097" y1="23.569" y2="27.444" gradientUnits="userSpaceOnUse"><stop stop-color="#733B50" stop-opacity="0" offset="0"/><stop stop-color="#733B50" offset="1"/></linearGradient><linearGradient id="c" x1="9.4968" x2="19.997" y1="21.122" y2="21.122" gradientUnits="userSpaceOnUse"><stop stop-color="#FFB298" offset="0"/><stop stop-color="#FFB298" stop-opacity="0" offset="1"/></linearGradient><radialGradient id="b" cx="0" cy="0" r="1" gradientTransform="translate(25.497 15.744) rotate(168.52) scale(7.143 13.454)" gradientUnits="userSpaceOnUse"><stop stop-color="#FFF6C0" offset="0"/><stop stop-color="#FFF6C0" stop-opacity="0" offset="1"/></radialGradient><radialGradient id="a" cx="0" cy="0" r="1" gradientTransform="translate(28.122 21.122) rotate(194.26) scale(23.344 20.09)" gradientUnits="userSpaceOnUse"><stop stop-color="#FFEC79" stop-opacity="0" offset=".80034"/><stop stop-color="#FFEC79" offset="1"/></radialGradient><radialGradient id="x" cx="0" cy="0" r="1" gradientTransform="translate(16.087 14.878) rotate(90) scale(2.4111 7.7727)" gradientUnits="userSpaceOnUse"><stop stop-color="#F19989" offset="0"/><stop stop-color="#F19989" stop-opacity="0" offset="1"/></radialGradient><radialGradient id="w" cx="0" cy="0" r="1" gradientTransform="translate(16.997 16.671) rotate(105.34) scale(11.816 13.458)" gradientUnits="userSpaceOnUse"><stop stop-color="#F58285" stop-opacity="0" offset=".75314"/><stop stop-color="#F58285" offset="1"/></radialGradient><linearGradient id="v" x1="16.997" x2="16.997" y1="14.632" y2="6.5691" gradientUnits="userSpaceOnUse"><stop stop-color="#713754" offset="0"/><stop stop-color="#713754" stop-opacity="0" offset="1"/></linearGradient><radialGradient id="u" cx="0" cy="0" r="1" gradientTransform="translate(16.172 7.6941) rotate(90) scale(9.3125 19.196)" gradientUnits="userSpaceOnUse"><stop stop-color="#8D584B" stop-opacity="0" offset=".75168"/><stop stop-color="#8D584B" offset="1"/></radialGradient><radialGradient id="t" cx="0" cy="0" r="1" gradientTransform="translate(5.4657 4.6628) rotate(-6.4188) scale(2.5158 2.4325)" gradientUnits="userSpaceOnUse"><stop stop-color="#634941" offset="0"/><stop stop-color="#634941" stop-opacity="0" offset="1"/></radialGradient><radialGradient id="s" cx="0" cy="0" r="1" gradientTransform="translate(24.997 7.6003) rotate(145.6) scale(3.4845 3.684)" gradientUnits="userSpaceOnUse"><stop stop-color="#A58371" offset="0"/><stop stop-color="#A58371" stop-opacity="0" offset="1"/></radialGradient><radialGradient id="r" cx="0" cy="0" r="1" gradientTransform="translate(16.087 13.022) rotate(-90) scale(2.3125 2.6131)" gradientUnits="userSpaceOnUse"><stop stop-color="#EA5D1A" stop-opacity="0" offset=".66892"/><stop stop-color="#EA5D1A" offset="1"/></radialGradient><radialGradient id="q" cx="0" cy="0" r="1" gradientTransform="translate(16.872 13.022) rotate(-90) scale(1.4219 1.4703)" gradientUnits="userSpaceOnUse"><stop stop-color="#FFA174" offset="0"/><stop stop-color="#FFA174" stop-opacity="0" offset="1"/></radialGradient><linearGradient id="p" x1="16.087" x2="16.087" y1="13.061" y2="12.749" gradientUnits="userSpaceOnUse"><stop stop-color="#EA5D1A" offset="0"/><stop stop-color="#EA5D1A" stop-opacity="0" offset="1"/></linearGradient><radialGradient id="o" cx="0" cy="0" r="1" gradientTransform="translate(12.377 8.444) rotate(131) scale(2.1947 2.1075)" gradientUnits="userSpaceOnUse"><stop stop-color="#796B6C" offset="0"/><stop stop-color="#4F4142" offset=".8339"/></radialGradient><radialGradient id="m" cx="0" cy="0" r="1" gradientTransform="translate(10.627 11.975) rotate(-90) scale(2.5625 3.6488)" gradientUnits="userSpaceOnUse"><stop stop-color="#4F2C51" offset="0"/><stop stop-color="#4F2C51" stop-opacity="0" offset="1"/></radialGradient><radialGradient id="l" cx="0" cy="0" r="1" gradientTransform="translate(22.997 8.444) rotate(131) scale(2.1947 2.1075)" gradientUnits="userSpaceOnUse"><stop stop-color="#796B6C" offset="0"/><stop stop-color="#4F4142" offset=".8339"/></radialGradient><radialGradient id="k" cx="0" cy="0" r="1" gradientTransform="translate(21.247 11.975) rotate(-90) scale(2.5625 3.6488)" gradientUnits="userSpaceOnUse"><stop stop-color="#4F2C51" offset="0"/><stop stop-color="#4F2C51" stop-opacity="0" offset="1"/></radialGradient><linearGradient id="j" x1="24.544" x2="28.309" y1="3.4128" y2="1.8191" gradientUnits="userSpaceOnUse"><stop stop-color="#A58472" offset="0"/><stop stop-color="#A58472" stop-opacity="0" offset="1"/></linearGradient><linearGradient id="i" x1="24.309" x2="26.521" y1="4.1785" y2="5.2857" gradientUnits="userSpaceOnUse"><stop stop-color="#A58472" offset="0"/><stop stop-color="#A58472" stop-opacity="0" offset="1"/></linearGradient></defs></svg>
