<svg fill="none" viewBox="0 0 32 32" xmlns="http://www.w3.org/2000/svg"><circle cx="16.094" cy="16.18" r="12.797" fill="#3C3740"/><g filter="url(#aa)"><path d="m26.471 24.512c0.8954-6.0706-0.8613-11.43-1.9526-13.632-0.0652-0.1314 0.0259-0.2867 0.1725-0.2911 2.3788-0.071 3.7848 0.4842 4.1217 0.7238 0.625 0.5391 1.0313 3.3281 0.8594 5.5781-0.2964 3.88-2.0782 6.6004-3.0358 7.7028-0.0642 0.0739-0.1795 0.0152-0.1652-0.0817z" fill="url(#q)"/></g><path d="m26.471 24.512c0.8954-6.0706-0.8613-11.43-1.9526-13.632-0.0652-0.1314 0.0259-0.2867 0.1725-0.2911 2.3788-0.071 3.7848 0.4842 4.1217 0.7238 0.625 0.5391 1.0313 3.3281 0.8594 5.5781-0.2964 3.88-2.0782 6.6004-3.0358 7.7028-0.0642 0.0739-0.1795 0.0152-0.1652-0.0817z" fill="url(#i)"/><path d="m26.471 24.512c0.8954-6.0706-0.8613-11.43-1.9526-13.632-0.0652-0.1314 0.0259-0.2867 0.1725-0.2911 2.3788-0.071 3.7848 0.4842 4.1217 0.7238 0.625 0.5391 1.0313 3.3281 0.8594 5.5781-0.2964 3.88-2.0782 6.6004-3.0358 7.7028-0.0642 0.0739-0.1795 0.0152-0.1652-0.0817z" fill="url(#h)"/><g filter="url(#z)"><path d="m16.723 2.2156c-4.8162 1.8354-8.0239 5.8477-9.3742 8.1337-0.18424 0.312-0.1674 0.7006 0.04635 0.9931 0.97219 1.3304 2.3165 2.5551 3.2261 3.1519 0.1195 0.0784 0.279 0.0297 0.3467-0.0962 3.9178-7.2942 10.042-8.7271 13.639-8.7777 0.224-0.00315 0.3377-0.27219 0.1729-0.42397-2.1851-2.0128-5.0017-2.887-6.6244-3.1456-0.4833-0.07703-0.9754-0.00951-1.4328 0.1648z" fill="url(#g)"/></g><path d="m16.723 2.2156c-4.8162 1.8354-8.0239 5.8477-9.3742 8.1337-0.18424 0.312-0.1674 0.7006 0.04635 0.9931 0.97219 1.3304 2.3165 2.5551 3.2261 3.1519 0.1195 0.0784 0.279 0.0297 0.3467-0.0962 3.9178-7.2942 10.042-8.7271 13.639-8.7777 0.224-0.00315 0.3377-0.27219 0.1729-0.42397-2.1851-2.0128-5.0017-2.887-6.6244-3.1456-0.4833-0.07703-0.9754-0.00951-1.4328 0.1648z" fill="url(#f)"/><g filter="url(#y)"><path d="m16.489 2.1068c-5.476-0.50669-9.0725 2.2748-10.472 3.9311-0.14766 0.17478-0.21811 0.39947-0.20205 0.62771 0.11839 1.6826 0.68225 3.3112 1.1519 4.0324 0.05907 0.0906 0.18879 0.0767 0.23887-0.0192 2.0485-3.9244 6.3839-7.2651 9.3087-8.3724 0.1005-0.03801 0.0812-0.18967-0.0257-0.19957z" fill="url(#e)"/><path d="m16.489 2.1068c-5.476-0.50669-9.0725 2.2748-10.472 3.9311-0.14766 0.17478-0.21811 0.39947-0.20205 0.62771 0.11839 1.6826 0.68225 3.3112 1.1519 4.0324 0.05907 0.0906 0.18879 0.0767 0.23887-0.0192 2.0485-3.9244 6.3839-7.2651 9.3087-8.3724 0.1005-0.03801 0.0812-0.18967-0.0257-0.19957z" fill="url(#d)"/></g><g filter="url(#x)"><path d="m16.172 8.2969c-2.5854 1.7977-4.4858 4.5893-5.1275 5.9867-0.1029 0.224-2e-4 0.4818 0.2208 0.5911 1.8918 0.9357 2.8745 0.9655 4.077 1.0876 0.2077 0.0211 0.4068-0.0852 0.5133-0.2648 0.7277-1.2274 2.5425-3.4105 5.5508-4.6506 2.6132-0.8416 6.0029-0.4276 7.2825 0.1742 0.0791 0.0372 0.1721-0.0321 0.1518-0.1171-0.5309-2.2178-2.0247-4.1179-2.9714-5.0488-0.244-0.23996-0.5598-0.39118-0.9006-0.42244-2.111-0.19359-5.6958 0.50808-8.7967 2.6642z" fill="url(#c)"/></g><g filter="url(#w)"><path d="m15.987 16.298c-0.1196-0.3177-0.092-0.6758 0.1001-0.9555 0.7224-1.0521 1.4914-1.9885 3.0872-3.0847 0.1157-0.0795 0.2736-0.0472 0.3453 0.0734 0.8648 1.4535 2.3061 4.6836 2.2151 8.5277-0.0928 3.9198-1.8963 7.1206-2.9799 8.4942-0.1497 0.1897-0.3697 0.3053-0.6101 0.3303-1.391 0.145-3.7632 0.2116-5.9132-0.2815-0.2604-0.0597-0.304-0.4105-0.0824-0.5598 1.577-1.0627 3.3535-3.0127 4.1481-5.1395 0.8615-2.6131 0.4347-5.4252-0.3102-7.4046z" fill="url(#b)"/></g><g filter="url(#v)"><path d="m24.084 10.575c-2.1468 0.031-3.5437 0.8025-4.2821 1.2715-0.2179 0.1384-0.2917 0.4218-0.1764 0.6527 0.8414 1.685 2.2079 4.7866 2.0156 9.0704-0.1386 3.0897-1.7808 6.2551-2.7546 7.5862-0.0811 0.1108 0.011 0.2697 0.1462 0.2464 3.5018-0.6024 6.0418-2.8358 7.0789-4.1178 0.1967-0.2431 0.3301-0.5298 0.3944-0.8357 0.3543-1.6852 0.5293-4.9916 0.1399-7.5578-0.3812-2.5125-1.3557-4.8156-1.9436-5.9467-0.1199-0.2305-0.3586-0.3729-0.6183-0.3692z" fill="url(#a)"/><path d="m24.084 10.575c-2.1468 0.031-3.5437 0.8025-4.2821 1.2715-0.2179 0.1384-0.2917 0.4218-0.1764 0.6527 0.8414 1.685 2.2079 4.7866 2.0156 9.0704-0.1386 3.0897-1.7808 6.2551-2.7546 7.5862-0.0811 0.1108 0.011 0.2697 0.1462 0.2464 3.5018-0.6024 6.0418-2.8358 7.0789-4.1178 0.1967-0.2431 0.3301-0.5298 0.3944-0.8357 0.3543-1.6852 0.5293-4.9916 0.1399-7.5578-0.3812-2.5125-1.3557-4.8156-1.9436-5.9467-0.1199-0.2305-0.3586-0.3729-0.6183-0.3692z" fill="url(#p)"/></g><path d="m24.084 10.575c-2.1468 0.031-3.5437 0.8025-4.2821 1.2715-0.2179 0.1384-0.2917 0.4218-0.1764 0.6527 0.8414 1.685 2.2079 4.7866 2.0156 9.0704-0.1386 3.0897-1.7808 6.2551-2.7546 7.5862-0.0811 0.1108 0.011 0.2697 0.1462 0.2464 3.5018-0.6024 6.0418-2.8358 7.0789-4.1178 0.1967-0.2431 0.3301-0.5298 0.3944-0.8357 0.3543-1.6852 0.5293-4.9916 0.1399-7.5578-0.3812-2.5125-1.3557-4.8156-1.9436-5.9467-0.1199-0.2305-0.3586-0.3729-0.6183-0.3692z" fill="url(#o)"/><g filter="url(#u)"><path d="m2.7396 20.574c-1.0077-3.0183-0.94898-5.8835-0.60329-7.4018 0.05504-0.2417 0.35705-0.2776 0.49028-0.0686 0.99988 1.5691 2.7323 4.0567 5.983 5.9433 2.6816 1.5562 5.8306 1.8289 7.9038 1.7119 0.1453-0.0082 0.2686 0.1066 0.265 0.252-0.0656 2.6837-1.1012 4.2368-1.6592 4.7813-0.0457 0.0446-0.1085 0.0662-0.1723 0.0638-5.4585-0.1997-9.4426-2.4537-11.275-3.9201-0.43866-0.351-0.75425-0.8289-0.93216-1.3618z" fill="url(#n)"/><path d="m2.7396 20.574c-1.0077-3.0183-0.94898-5.8835-0.60329-7.4018 0.05504-0.2417 0.35705-0.2776 0.49028-0.0686 0.99988 1.5691 2.7323 4.0567 5.983 5.9433 2.6816 1.5562 5.8306 1.8289 7.9038 1.7119 0.1453-0.0082 0.2686 0.1066 0.265 0.252-0.0656 2.6837-1.1012 4.2368-1.6592 4.7813-0.0457 0.0446-0.1085 0.0662-0.1723 0.0638-5.4585-0.1997-9.4426-2.4537-11.275-3.9201-0.43866-0.351-0.75425-0.8289-0.93216-1.3618z" fill="url(#m)"/></g><g filter="url(#t)"><path d="m5.414 6.6807c-1.8555 1.6754-2.7658 4.2986-3.0041 5.8728-0.01332 0.088-0.00185 0.1764 0.03602 0.2569 0.51798 1.1008 2.4354 3.8966 5.0543 5.5802 3.7345 2.4008 6.4428 2.4081 9.0262 2.4064 0.1339-1e-4 0.2444-0.1057 0.2467-0.2395 0.0312-1.8236-0.4705-3.5192-0.7908-4.3629-0.0708-0.1863-0.2517-0.3032-0.451-0.307-2.0406-0.0386-4.167-0.4719-6.4061-2.622-2.3366-2.2437-3.1281-4.9558-3.2934-6.4086-0.0233-0.20472-0.26496-0.31439-0.41788-0.17631z" fill="url(#l)"/></g><path d="m5.414 6.6807c-1.8555 1.6754-2.7658 4.2986-3.0041 5.8728-0.01332 0.088-0.00185 0.1764 0.03602 0.2569 0.51798 1.1008 2.4354 3.8966 5.0543 5.5802 3.7345 2.4008 6.4428 2.4081 9.0262 2.4064 0.1339-1e-4 0.2444-0.1057 0.2467-0.2395 0.0312-1.8236-0.4705-3.5192-0.7908-4.3629-0.0708-0.1863-0.2517-0.3032-0.451-0.307-2.0406-0.0386-4.167-0.4719-6.4061-2.622-2.3366-2.2437-3.1281-4.9558-3.2934-6.4086-0.0233-0.20472-0.26496-0.31439-0.41788-0.17631z" fill="url(#k)"/><g filter="url(#s)"><path d="m11.097 29.007c-4.1212-1.1889-6.9393-4.8811-7.8265-7.101-0.05461-0.1367 0.10257-0.2475 0.22013-0.159 3.8555 2.9021 8.2555 3.9608 11.192 4.0578 0.1948 0.0064 0.3123 0.22 0.2037 0.3818-0.8372 1.2479-1.8547 2.1512-2.5594 2.6398-0.359 0.2489-0.8102 0.3017-1.2299 0.1806z" fill="url(#j)"/></g><g filter="url(#r)"><path d="m11.047 14.297c1.3594-3.0781 6.0781-8.5782 13.312-8.7188" stroke="#A69AAC" stroke-width=".1"/></g><defs><filter id="aa" x="24.497" y="10.582" width="5.6147" height="14.044" color-interpolation-filters="sRGB" filterUnits="userSpaceOnUse"><feFlood flood-opacity="0" result="BackgroundImageFix"/><feBlend in="SourceGraphic" in2="BackgroundImageFix" result="shape"/><feColorMatrix in="SourceAlpha" result="hardAlpha" values="0 0 0 0 0 0 0 0 0 0 0 0 0 0 0 0 0 0 127 0"/><feOffset dx="0.4"/><feGaussianBlur stdDeviation="0.25"/><feComposite in2="hardAlpha" k2="-1" k3="1" operator="arithmetic"/><feColorMatrix values="0 0 0 0 0.780392 0 0 0 0 0.768627 0 0 0 0 0.8 0 0 0 1 0"/><feBlend in2="shape" result="effect1_innerShadow_18_2245"/></filter><filter id="z" x="7.2222" y="1.7193" width="17.737" height="12.813" color-interpolation-filters="sRGB" filterUnits="userSpaceOnUse"><feFlood flood-opacity="0" result="BackgroundImageFix"/><feBlend in="SourceGraphic" in2="BackgroundImageFix" result="shape"/><feColorMatrix in="SourceAlpha" result="hardAlpha" values="0 0 0 0 0 0 0 0 0 0 0 0 0 0 0 0 0 0 127 0"/><feOffset dx="0.1" dy="-0.3"/><feGaussianBlur stdDeviation="0.15"/><feComposite in2="hardAlpha" k2="-1" k3="1" operator="arithmetic"/><feColorMatrix values="0 0 0 0 0.74902 0 0 0 0 0.741176 0 0 0 0 0.756863 0 0 0 1 0"/><feBlend in2="shape" result="effect1_innerShadow_18_2245"/></filter><filter id="y" x="5.563" y="1.7961" width="11.018" height="8.9628" color-interpolation-filters="sRGB" filterUnits="userSpaceOnUse"><feFlood flood-opacity="0" result="BackgroundImageFix"/><feBlend in="SourceGraphic" in2="BackgroundImageFix" result="shape"/><feColorMatrix in="SourceAlpha" result="hardAlpha" values="0 0 0 0 0 0 0 0 0 0 0 0 0 0 0 0 0 0 127 0"/><feOffset dx="-0.25" dy="-0.25"/><feGaussianBlur stdDeviation="0.25"/><feComposite in2="hardAlpha" k2="-1" k3="1" operator="arithmetic"/><feColorMatrix values="0 0 0 0 0.682353 0 0 0 0 0.635294 0 0 0 0 0.666667 0 0 0 1 0"/><feBlend in2="shape" result="effect1_innerShadow_18_2245"/></filter><filter id="x" x="11.004" y="5.352" width="18.089" height="10.613" color-interpolation-filters="sRGB" filterUnits="userSpaceOnUse"><feFlood flood-opacity="0" result="BackgroundImageFix"/><feBlend in="SourceGraphic" in2="BackgroundImageFix" result="shape"/><feColorMatrix in="SourceAlpha" result="hardAlpha" values="0 0 0 0 0 0 0 0 0 0 0 0 0 0 0 0 0 0 127 0"/><feOffset dy="-0.25"/><feGaussianBlur stdDeviation="0.25"/><feComposite in2="hardAlpha" k2="-1" k3="1" operator="arithmetic"/><feColorMatrix values="0 0 0 0 0.741176 0 0 0 0 0.709804 0 0 0 0 0.772549 0 0 0 1 0"/><feBlend in2="shape" result="effect1_innerShadow_18_2245"/><feColorMatrix in="SourceAlpha" result="hardAlpha" values="0 0 0 0 0 0 0 0 0 0 0 0 0 0 0 0 0 0 127 0"/><feOffset dx="0.25"/><feGaussianBlur stdDeviation="0.125"/><feComposite in2="hardAlpha" k2="-1" k3="1" operator="arithmetic"/><feColorMatrix values="0 0 0 0 0.776471 0 0 0 0 0.752941 0 0 0 0 0.784314 0 0 0 1 0"/><feBlend in2="effect1_innerShadow_18_2245" result="effect2_innerShadow_18_2245"/></filter><filter id="w" x="12.006" y="12.215" width="9.9823" height="17.575" color-interpolation-filters="sRGB" filterUnits="userSpaceOnUse"><feFlood flood-opacity="0" result="BackgroundImageFix"/><feBlend in="SourceGraphic" in2="BackgroundImageFix" result="shape"/><feColorMatrix in="SourceAlpha" result="hardAlpha" values="0 0 0 0 0 0 0 0 0 0 0 0 0 0 0 0 0 0 127 0"/><feOffset dx="0.25"/><feGaussianBlur stdDeviation="0.2"/><feComposite in2="hardAlpha" k2="-1" k3="1" operator="arithmetic"/><feColorMatrix values="0 0 0 0 0.662745 0 0 0 0 0.607843 0 0 0 0 0.713726 0 0 0 1 0"/><feBlend in2="shape" result="effect1_innerShadow_18_2245"/></filter><filter id="v" x="18.857" y="10.325" width="8.2609" height="19.28" color-interpolation-filters="sRGB" filterUnits="userSpaceOnUse"><feFlood flood-opacity="0" result="BackgroundImageFix"/><feBlend in="SourceGraphic" in2="BackgroundImageFix" result="shape"/><feColorMatrix in="SourceAlpha" result="hardAlpha" values="0 0 0 0 0 0 0 0 0 0 0 0 0 0 0 0 0 0 127 0"/><feOffset dx="0.25" dy="0.2"/><feGaussianBlur stdDeviation="0.25"/><feComposite in2="hardAlpha" k2="-1" k3="1" operator="arithmetic"/><feColorMatrix values="0 0 0 0 0.772549 0 0 0 0 0.756863 0 0 0 0 0.792157 0 0 0 1 0"/><feBlend in2="shape" result="effect1_innerShadow_18_2245"/><feColorMatrix in="SourceAlpha" result="hardAlpha" values="0 0 0 0 0 0 0 0 0 0 0 0 0 0 0 0 0 0 127 0"/><feOffset dx="0.25" dy="-0.25"/><feGaussianBlur stdDeviation="0.25"/><feComposite in2="hardAlpha" k2="-1" k3="1" operator="arithmetic"/><feColorMatrix values="0 0 0 0 0.776471 0 0 0 0 0.721569 0 0 0 0 0.831373 0 0 0 1 0"/><feBlend in2="effect1_innerShadow_18_2245" result="effect2_innerShadow_18_2245"/></filter><filter id="u" x="1.7091" y="12.967" width="15.07" height="13.09" color-interpolation-filters="sRGB" filterUnits="userSpaceOnUse"><feFlood flood-opacity="0" result="BackgroundImageFix"/><feBlend in="SourceGraphic" in2="BackgroundImageFix" result="shape"/><feColorMatrix in="SourceAlpha" result="hardAlpha" values="0 0 0 0 0 0 0 0 0 0 0 0 0 0 0 0 0 0 127 0"/><feOffset dx="-0.2" dy="0.2"/><feGaussianBlur stdDeviation="0.15"/><feComposite in2="hardAlpha" k2="-1" k3="1" operator="arithmetic"/><feColorMatrix values="0 0 0 0 0.67451 0 0 0 0 0.623529 0 0 0 0 0.733333 0 0 0 1 0"/><feBlend in2="shape" result="effect1_innerShadow_18_2245"/></filter><filter id="t" x="2.2045" y="6.3192" width="14.72" height="14.678" color-interpolation-filters="sRGB" filterUnits="userSpaceOnUse"><feFlood flood-opacity="0" result="BackgroundImageFix"/><feBlend in="SourceGraphic" in2="BackgroundImageFix" result="shape"/><feColorMatrix in="SourceAlpha" result="hardAlpha" values="0 0 0 0 0 0 0 0 0 0 0 0 0 0 0 0 0 0 127 0"/><feOffset dx="-0.2" dy="0.2"/><feGaussianBlur stdDeviation="0.15"/><feComposite in2="hardAlpha" k2="-1" k3="1" operator="arithmetic"/><feColorMatrix values="0 0 0 0 0.709804 0 0 0 0 0.666667 0 0 0 0 0.74902 0 0 0 1 0"/><feBlend in2="shape" result="effect1_innerShadow_18_2245"/><feColorMatrix in="SourceAlpha" result="hardAlpha" values="0 0 0 0 0 0 0 0 0 0 0 0 0 0 0 0 0 0 127 0"/><feOffset dx="0.15" dy="-0.3"/><feGaussianBlur stdDeviation="0.25"/><feComposite in2="hardAlpha" k2="-1" k3="1" operator="arithmetic"/><feColorMatrix values="0 0 0 0 0.662745 0 0 0 0 0.576471 0 0 0 0 0.741176 0 0 0 1 0"/><feBlend in2="effect1_innerShadow_18_2245" result="effect2_innerShadow_18_2245"/></filter><filter id="s" x="3.2592" y="21.716" width="11.668" height="8.104" color-interpolation-filters="sRGB" filterUnits="userSpaceOnUse"><feFlood flood-opacity="0" result="BackgroundImageFix"/><feBlend in="SourceGraphic" in2="BackgroundImageFix" result="shape"/><feColorMatrix in="SourceAlpha" result="hardAlpha" values="0 0 0 0 0 0 0 0 0 0 0 0 0 0 0 0 0 0 127 0"/><feOffset dy="0.75"/><feGaussianBlur stdDeviation="0.625"/><feComposite in2="hardAlpha" k2="-1" k3="1" operator="arithmetic"/><feColorMatrix values="0 0 0 0 0.741176 0 0 0 0 0.568627 0 0 0 0 0.870588 0 0 0 1 0"/><feBlend in2="shape" result="effect1_innerShadow_18_2245"/><feColorMatrix in="SourceAlpha" result="hardAlpha" values="0 0 0 0 0 0 0 0 0 0 0 0 0 0 0 0 0 0 127 0"/><feOffset dy="0.15"/><feGaussianBlur stdDeviation="0.15"/><feComposite in2="hardAlpha" k2="-1" k3="1" operator="arithmetic"/><feColorMatrix values="0 0 0 0 0.619608 0 0 0 0 0.490196 0 0 0 0 0.729412 0 0 0 1 0"/><feBlend in2="effect1_innerShadow_18_2245" result="effect2_innerShadow_18_2245"/></filter><filter id="r" x="10.801" y="5.3281" width="13.759" height="9.1889" color-interpolation-filters="sRGB" filterUnits="userSpaceOnUse"><feFlood flood-opacity="0" result="BackgroundImageFix"/><feBlend in="SourceGraphic" in2="BackgroundImageFix" result="shape"/><feGaussianBlur result="effect1_foregroundBlur_18_2245" stdDeviation="0.1"/></filter><radialGradient id="q" cx="0" cy="0" r="1" gradientTransform="translate(25.466 10.582) rotate(68.138) scale(10.335 19.895)" gradientUnits="userSpaceOnUse"><stop stop-color="#F9F6FB" offset="0"/><stop stop-color="#D7CFE1" offset="1"/></radialGradient><linearGradient id="i" x1="27.813" x2="29.712" y1="24.176" y2="18.057" gradientUnits="userSpaceOnUse"><stop stop-color="#CEBEDE" offset="0"/><stop stop-color="#CEBEDE" stop-opacity="0" offset="1"/></linearGradient><radialGradient id="h" cx="0" cy="0" r="1" gradientTransform="translate(25.808 21.796) rotate(92.745) scale(5.5727 1.4264)" gradientUnits="userSpaceOnUse"><stop stop-color="#A482C0" offset=".57677"/><stop stop-color="#A482C0" stop-opacity="0" offset="1"/></radialGradient><radialGradient id="g" cx="0" cy="0" r="1" gradientTransform="translate(20.235 5.9531) rotate(139.6) scale(11.572 12.949)" gradientUnits="userSpaceOnUse"><stop stop-color="#E5E4E5" offset="0"/><stop stop-color="#CEC1CD" offset="1"/></radialGradient><radialGradient id="f" cx="0" cy="0" r="1" gradientTransform="translate(18.143 3.7769) rotate(132.73) scale(13.25 15.083)" gradientUnits="userSpaceOnUse"><stop stop-color="#A997AC" stop-opacity="0" offset=".95198"/><stop stop-color="#A997AC" offset="1"/></radialGradient><radialGradient id="e" cx="0" cy="0" r="1" gradientTransform="translate(11.044 6.4644) rotate(227.9) scale(3.5031 16.829)" gradientUnits="userSpaceOnUse"><stop stop-color="#CFCAC9" offset="0"/><stop stop-color="#C4BBB9" offset="1"/></radialGradient><radialGradient id="d" cx="0" cy="0" r="1" gradientTransform="translate(12.562 8.6826) rotate(217.75) scale(8.5546 21.546)" gradientUnits="userSpaceOnUse"><stop stop-color="#C4ACA6" stop-opacity="0" offset=".6278"/><stop stop-color="#C4ACA6" offset=".95636"/></radialGradient><radialGradient id="c" cx="0" cy="0" r="1" gradientTransform="translate(23.877 8.9091) rotate(147.48) scale(12.515 7.5807)" gradientUnits="userSpaceOnUse"><stop stop-color="#F4F3F5" offset="0"/><stop stop-color="#D2C7D1" offset="1"/></radialGradient><radialGradient id="b" cx="0" cy="0" r="1" gradientTransform="translate(20.766 12.115) rotate(103.9) scale(19.257 9.9462)" gradientUnits="userSpaceOnUse"><stop stop-color="#EEE6F6" offset=".0064074"/><stop stop-color="#E2CFF4" offset=".37759"/><stop stop-color="#BF83E7" offset="1"/></radialGradient><radialGradient id="a" cx="0" cy="0" r="1" gradientTransform="translate(25.926 11.725) rotate(101.52) scale(15.858 14.655)" gradientUnits="userSpaceOnUse"><stop stop-color="#FAF6FE" offset="0"/><stop stop-color="#DFCCF1" offset=".71252"/></radialGradient><radialGradient id="p" cx="0" cy="0" r="1" gradientTransform="translate(25.975 14.104) rotate(107.18) scale(15.452 13.492)" gradientUnits="userSpaceOnUse"><stop stop-color="#C292E7" stop-opacity="0" offset=".52953"/><stop stop-color="#C292E7" offset="1"/></radialGradient><radialGradient id="o" cx="0" cy="0" r="1" gradientTransform="translate(18.109 24.106) rotate(103.02) scale(7.9737 3.4698)" gradientUnits="userSpaceOnUse"><stop stop-color="#915AB7" offset=".67674"/><stop stop-color="#915AB7" stop-opacity="0" offset="1"/></radialGradient><radialGradient id="n" cx="0" cy="0" r="1" gradientTransform="translate(10.235 19.227) rotate(116.45) scale(6.0442 24.665)" gradientUnits="userSpaceOnUse"><stop stop-color="#CEB4E5" offset=".26988"/><stop stop-color="#B78ED5" offset="1"/></radialGradient><radialGradient id="m" cx="0" cy="0" r="1" gradientTransform="translate(14.922 20.828) rotate(199.08) scale(13.769 15.437)" gradientUnits="userSpaceOnUse"><stop stop-color="#C3A1A2" stop-opacity="0" offset=".73353"/><stop stop-color="#C3A1A2" offset="1"/></radialGradient><radialGradient id="l" cx="0" cy="0" r="1" gradientTransform="translate(2.3909 15.696) rotate(-14.496) scale(11.271 20.73)" gradientUnits="userSpaceOnUse"><stop stop-color="#C6ABB4" offset="0"/><stop stop-color="#D5C3E5" offset="1"/></radialGradient><radialGradient id="k" cx="0" cy="0" r="1" gradientTransform="translate(14.657 16.002) rotate(214.32) scale(13.678 13.627)" gradientUnits="userSpaceOnUse"><stop stop-color="#C8A8A2" stop-opacity="0" offset=".73627"/><stop stop-color="#C8A8A2" offset="1"/></radialGradient><linearGradient id="j" x1="10.849" x2="9.1174" y1="23.671" y2="29.172" gradientUnits="userSpaceOnUse"><stop stop-color="#BF90E2" offset="0"/><stop stop-color="#B67FDD" offset="1"/></linearGradient></defs></svg>
