<svg fill="none" viewBox="0 0 32 32" xmlns="http://www.w3.org/2000/svg"><path d="m29.852 22.633-20.359-20.359-0.07114 0.06723c-3.0706 2.9018-6.4752 6.1193-7.1398 11.019-0.51199 3.774 0.59809 9.2649 4.4375 12.641s7.7391 4.2024 11.594 3.8438c5.1418-0.4784 8.5234-3.9458 11.539-7.211z" fill="url(#h)"/><path d="m29 21.766-18.695-18.699c-2.8281 2.6875-6.1915 5.6174-6.8047 10.162-0.46876 3.4742 0.14063 8.4219 4 11.834 3.8593 3.4117 7.4396 3.8458 10.969 3.5156 4.7076-0.4404 7.7422-4 10.531-6.8125z" fill="url(#g)"/><path d="m27.681 20.447-15.993-15.993-3.0855 3.0241c-4.4141 4.4141-4.4141 11.579 0 15.993 4.4141 4.4141 11.579 4.4141 15.993 0l3.0855-3.0241z" fill="url(#f)"/><path d="m10.236 18.219c0.6693 0 1.2119-0.5427 1.2119-1.212s-0.5426-1.2119-1.2119-1.2119c-0.66932 0-1.2119 0.5426-1.2119 1.2119s0.54258 1.212 1.2119 1.212z" fill="url(#e)"/><path d="m16.423 16.656c0.6693 0 1.2119-0.5426 1.2119-1.2119s-0.5426-1.2119-1.2119-1.2119-1.2119 0.5426-1.2119 1.2119 0.5426 1.2119 1.2119 1.2119z" fill="url(#d)"/><path d="m21.236 21.438c0.6693 0 1.2119-0.5426 1.2119-1.2119s-0.5426-1.2119-1.2119-1.2119-1.2119 0.5426-1.2119 1.2119 0.5426 1.2119 1.2119 1.2119z" fill="url(#c)"/><path d="m14.788 23c0.6693 0 1.2119-0.5426 1.2119-1.2119s-0.5426-1.2119-1.2119-1.2119-1.2119 0.5426-1.2119 1.2119 0.5426 1.2119 1.2119 1.2119z" fill="url(#b)"/><path d="m11.642 12c0.6693 0 1.2119-0.5426 1.2119-1.2119s-0.5426-1.2119-1.2119-1.2119-1.2118 0.54263-1.2118 1.2119 0.5425 1.2119 1.2118 1.2119z" fill="url(#a)"/><defs><radialGradient id="h" cx="0" cy="0" r="1" gradientTransform="translate(6.875 32.375) rotate(-68.916) scale(25.387 25.424)" gradientUnits="userSpaceOnUse"><stop stop-color="#69963E" offset=".15726"/><stop stop-color="#85B83D" offset="1"/></radialGradient><linearGradient id="g" x1="10" x2="20.25" y1="6.5" y2="29.438" gradientUnits="userSpaceOnUse"><stop stop-color="#EFDBBE" offset="0"/><stop stop-color="#F2D6C7" offset="1"/></linearGradient><linearGradient id="f" x1="7.1032" x2="22.067" y1="10.359" y2="25.974" gradientUnits="userSpaceOnUse"><stop stop-color="#FF413C" offset="0"/><stop stop-color="#ED1452" offset=".456"/><stop stop-color="#D5275D" offset="1"/></linearGradient><radialGradient id="e" cx="0" cy="0" r="1" gradientTransform="translate(10.843 16.683) rotate(142.7) scale(1.8346 1.8346)" gradientUnits="userSpaceOnUse"><stop stop-color="#7B6D83" offset=".0055866"/><stop stop-color="#584D5D" offset=".41248"/><stop stop-color="#4C305E" offset=".70139"/><stop stop-color="#1C1C1C" offset="1"/></radialGradient><radialGradient id="d" cx="0" cy="0" r="1" gradientTransform="translate(17.03 15.121) rotate(142.7) scale(1.8346 1.8346)" gradientUnits="userSpaceOnUse"><stop stop-color="#7B6D83" offset=".0055866"/><stop stop-color="#584D5D" offset=".41248"/><stop stop-color="#4C305E" offset=".70139"/><stop stop-color="#1C1C1C" offset="1"/></radialGradient><radialGradient id="c" cx="0" cy="0" r="1" gradientTransform="translate(21.843 19.902) rotate(142.7) scale(1.8346 1.8346)" gradientUnits="userSpaceOnUse"><stop stop-color="#7B6D83" offset=".0055866"/><stop stop-color="#584D5D" offset=".41248"/><stop stop-color="#4C305E" offset=".70139"/><stop stop-color="#1C1C1C" offset="1"/></radialGradient><radialGradient id="b" cx="0" cy="0" r="1" gradientTransform="translate(15.396 21.464) rotate(142.7) scale(1.8346 1.8346)" gradientUnits="userSpaceOnUse"><stop stop-color="#7B6D83" offset=".0055866"/><stop stop-color="#584D5D" offset=".41248"/><stop stop-color="#4C305E" offset=".70139"/><stop stop-color="#1C1C1C" offset="1"/></radialGradient><radialGradient id="a" cx="0" cy="0" r="1" gradientTransform="translate(12.249 10.464) rotate(142.7) scale(1.8346 1.8346)" gradientUnits="userSpaceOnUse"><stop stop-color="#7B6D83" offset=".0055866"/><stop stop-color="#584D5D" offset=".41248"/><stop stop-color="#4C305E" offset=".70139"/><stop stop-color="#1C1C1C" offset="1"/></radialGradient></defs></svg>
