<svg fill="none" viewBox="0 0 32 33" xmlns="http://www.w3.org/2000/svg"><g clip-path="url(#bq)"><g filter="url(#bp)"><path d="m28.948 21.089v5.7149c0 0.6903-0.5597 1.25-1.25 1.25h-2.5c-0.6904 0-1.25-0.5597-1.25-1.25v-3.2188c0-1.3334-1.0439-2.423-2.3591-2.4961h7.3591z" fill="#7F7590"/><path d="m28.948 21.089v5.7149c0 0.6903-0.5597 1.25-1.25 1.25h-2.5c-0.6904 0-1.25-0.5597-1.25-1.25v-3.2188c0-1.3334-1.0439-2.423-2.3591-2.4961h7.3591z" fill="url(#bc)"/><path d="m28.948 21.089v5.7149c0 0.6903-0.5597 1.25-1.25 1.25h-2.5c-0.6904 0-1.25-0.5597-1.25-1.25v-3.2188c0-1.3334-1.0439-2.423-2.3591-2.4961h7.3591z" fill="url(#ar)"/></g><rect x="14.011" y="19.531" width="4.9844" height="8.5625" rx="1" fill="url(#ag)"/><rect x="14.011" y="19.531" width="4.9844" height="8.5625" rx="1" fill="url(#v)"/><rect x="14.011" y="19.531" width="4.9844" height="8.5625" rx="1" fill="url(#k)"/><rect x="14.011" y="19.531" width="4.9844" height="8.5625" rx="1" fill="url(#e)"/><path d="m2.0206 10.402c0-2.8995 2.3505-5.25 5.25-5.25h13.709c4.9706 0 9 4.0294 9 9v12.652c0 0.6903-0.5596 1.25-1.25 1.25h-2.5c-0.6903 0-1.25-0.5597-1.25-1.25v-3.2188c0-1.3807-1.1193-2.5-2.5-2.5h-4.5339c-0.8263 0-1.5993 0.4083-2.065 1.0909l-3.3837 4.9583c-0.3726 0.5461-0.9909 0.8727-1.652 0.8727h-2.8068c-0.8262 0-1.296-0.9451-0.79719-1.6037l2.2904-3.0243c0.66999-1.0716 0.59869-2.4606-0.20035-3.4613l-0.4758-0.5958c-0.47439-0.594-1.1933-0.9399-1.9535-0.9399h-4.8809v-7.9805z" fill="#B0ACBC"/><path d="m2.0206 10.402c0-2.8995 2.3505-5.25 5.25-5.25h13.709c4.9706 0 9 4.0294 9 9v12.652c0 0.6903-0.5596 1.25-1.25 1.25h-2.5c-0.6903 0-1.25-0.5597-1.25-1.25v-3.2188c0-1.3807-1.1193-2.5-2.5-2.5h-4.5339c-0.8263 0-1.5993 0.4083-2.065 1.0909l-3.3837 4.9583c-0.3726 0.5461-0.9909 0.8727-1.652 0.8727h-2.8068c-0.8262 0-1.296-0.9451-0.79719-1.6037l2.2904-3.0243c0.66999-1.0716 0.59869-2.4606-0.20035-3.4613l-0.4758-0.5958c-0.47439-0.594-1.1933-0.9399-1.9535-0.9399h-4.8809v-7.9805z" fill="url(#d)"/><path d="m2.0206 10.402c0-2.8995 2.3505-5.25 5.25-5.25h13.709c4.9706 0 9 4.0294 9 9v12.652c0 0.6903-0.5596 1.25-1.25 1.25h-2.5c-0.6903 0-1.25-0.5597-1.25-1.25v-3.2188c0-1.3807-1.1193-2.5-2.5-2.5h-4.5339c-0.8263 0-1.5993 0.4083-2.065 1.0909l-3.3837 4.9583c-0.3726 0.5461-0.9909 0.8727-1.652 0.8727h-2.8068c-0.8262 0-1.296-0.9451-0.79719-1.6037l2.2904-3.0243c0.66999-1.0716 0.59869-2.4606-0.20035-3.4613l-0.4758-0.5958c-0.47439-0.594-1.1933-0.9399-1.9535-0.9399h-4.8809v-7.9805z" fill="url(#c)"/><path d="m2.0206 10.402c0-2.8995 2.3505-5.25 5.25-5.25h13.709c4.9706 0 9 4.0294 9 9v12.652c0 0.6903-0.5596 1.25-1.25 1.25h-2.5c-0.6903 0-1.25-0.5597-1.25-1.25v-3.2188c0-1.3807-1.1193-2.5-2.5-2.5h-4.5339c-0.8263 0-1.5993 0.4083-2.065 1.0909l-3.3837 4.9583c-0.3726 0.5461-0.9909 0.8727-1.652 0.8727h-2.8068c-0.8262 0-1.296-0.9451-0.79719-1.6037l2.2904-3.0243c0.66999-1.0716 0.59869-2.4606-0.20035-3.4613l-0.4758-0.5958c-0.47439-0.594-1.1933-0.9399-1.9535-0.9399h-4.8809v-7.9805z" fill="url(#b)"/><path d="m2.0206 10.402c0-2.8995 2.3505-5.25 5.25-5.25h13.709c4.9706 0 9 4.0294 9 9v12.652c0 0.6903-0.5596 1.25-1.25 1.25h-2.5c-0.6903 0-1.25-0.5597-1.25-1.25v-3.2188c0-1.3807-1.1193-2.5-2.5-2.5h-4.5339c-0.8263 0-1.5993 0.4083-2.065 1.0909l-3.3837 4.9583c-0.3726 0.5461-0.9909 0.8727-1.652 0.8727h-2.8068c-0.8262 0-1.296-0.9451-0.79719-1.6037l2.2904-3.0243c0.66999-1.0716 0.59869-2.4606-0.20035-3.4613l-0.4758-0.5958c-0.47439-0.594-1.1933-0.9399-1.9535-0.9399h-4.8809v-7.9805z" fill="url(#a)"/><path d="m2.0206 10.402c0-2.8995 2.3505-5.25 5.25-5.25h13.709c4.9706 0 9 4.0294 9 9v12.652c0 0.6903-0.5596 1.25-1.25 1.25h-2.5c-0.6903 0-1.25-0.5597-1.25-1.25v-3.2188c0-1.3807-1.1193-2.5-2.5-2.5h-4.5339c-0.8263 0-1.5993 0.4083-2.065 1.0909l-3.3837 4.9583c-0.3726 0.5461-0.9909 0.8727-1.652 0.8727h-2.8068c-0.8262 0-1.296-0.9451-0.79719-1.6037l2.2904-3.0243c0.66999-1.0716 0.59869-2.4606-0.20035-3.4613l-0.4758-0.5958c-0.47439-0.594-1.1933-0.9399-1.9535-0.9399h-4.8809v-7.9805z" fill="url(#bb)"/><path d="m2.0206 10.402c0-2.8995 2.3505-5.25 5.25-5.25h13.709c4.9706 0 9 4.0294 9 9v12.652c0 0.6903-0.5596 1.25-1.25 1.25h-2.5c-0.6903 0-1.25-0.5597-1.25-1.25v-3.2188c0-1.3807-1.1193-2.5-2.5-2.5h-4.5339c-0.8263 0-1.5993 0.4083-2.065 1.0909l-3.3837 4.9583c-0.3726 0.5461-0.9909 0.8727-1.652 0.8727h-2.8068c-0.8262 0-1.296-0.9451-0.79719-1.6037l2.2904-3.0243c0.66999-1.0716 0.59869-2.4606-0.20035-3.4613l-0.4758-0.5958c-0.47439-0.594-1.1933-0.9399-1.9535-0.9399h-4.8809v-7.9805z" fill="url(#ba)"/><path d="m2.0206 10.402c0-2.8995 2.3505-5.25 5.25-5.25h13.709c4.9706 0 9 4.0294 9 9v12.652c0 0.6903-0.5596 1.25-1.25 1.25h-2.5c-0.6903 0-1.25-0.5597-1.25-1.25v-3.2188c0-1.3807-1.1193-2.5-2.5-2.5h-4.5339c-0.8263 0-1.5993 0.4083-2.065 1.0909l-3.3837 4.9583c-0.3726 0.5461-0.9909 0.8727-1.652 0.8727h-2.8068c-0.8262 0-1.296-0.9451-0.79719-1.6037l2.2904-3.0243c0.66999-1.0716 0.59869-2.4606-0.20035-3.4613l-0.4758-0.5958c-0.47439-0.594-1.1933-0.9399-1.9535-0.9399h-4.8809v-7.9805z" fill="url(#az)"/><path d="m2.0206 10.402c0-2.8995 2.3505-5.25 5.25-5.25h13.709c4.9706 0 9 4.0294 9 9v12.652c0 0.6903-0.5596 1.25-1.25 1.25h-2.5c-0.6903 0-1.25-0.5597-1.25-1.25v-3.2188c0-1.3807-1.1193-2.5-2.5-2.5h-4.5339c-0.8263 0-1.5993 0.4083-2.065 1.0909l-3.3837 4.9583c-0.3726 0.5461-0.9909 0.8727-1.652 0.8727h-2.8068c-0.8262 0-1.296-0.9451-0.79719-1.6037l2.2904-3.0243c0.66999-1.0716 0.59869-2.4606-0.20035-3.4613l-0.4758-0.5958c-0.47439-0.594-1.1933-0.9399-1.9535-0.9399h-4.8809v-7.9805z" fill="url(#ay)"/><path d="m2.0206 10.402c0-2.8995 2.3505-5.25 5.25-5.25h13.709c4.9706 0 9 4.0294 9 9v12.652c0 0.6903-0.5596 1.25-1.25 1.25h-2.5c-0.6903 0-1.25-0.5597-1.25-1.25v-3.2188c0-1.3807-1.1193-2.5-2.5-2.5h-4.5339c-0.8263 0-1.5993 0.4083-2.065 1.0909l-3.3837 4.9583c-0.3726 0.5461-0.9909 0.8727-1.652 0.8727h-2.8068c-0.8262 0-1.296-0.9451-0.79719-1.6037l2.2904-3.0243c0.66999-1.0716 0.59869-2.4606-0.20035-3.4613l-0.4758-0.5958c-0.47439-0.594-1.1933-0.9399-1.9535-0.9399h-4.8809v-7.9805z" fill="url(#ax)"/><path d="m2.0206 10.402c0-2.8995 2.3505-5.25 5.25-5.25h13.709c4.9706 0 9 4.0294 9 9v12.652c0 0.6903-0.5596 1.25-1.25 1.25h-2.5c-0.6903 0-1.25-0.5597-1.25-1.25v-3.2188c0-1.3807-1.1193-2.5-2.5-2.5h-4.5339c-0.8263 0-1.5993 0.4083-2.065 1.0909l-3.3837 4.9583c-0.3726 0.5461-0.9909 0.8727-1.652 0.8727h-2.8068c-0.8262 0-1.296-0.9451-0.79719-1.6037l2.2904-3.0243c0.66999-1.0716 0.59869-2.4606-0.20035-3.4613l-0.4758-0.5958c-0.47439-0.594-1.1933-0.9399-1.9535-0.9399h-4.8809v-7.9805z" fill="url(#aw)"/><path d="m2.0206 10.402c0-2.8995 2.3505-5.25 5.25-5.25h13.709c4.9706 0 9 4.0294 9 9v12.652c0 0.6903-0.5596 1.25-1.25 1.25h-2.5c-0.6903 0-1.25-0.5597-1.25-1.25v-3.2188c0-1.3807-1.1193-2.5-2.5-2.5h-4.5339c-0.8263 0-1.5993 0.4083-2.065 1.0909l-3.3837 4.9583c-0.3726 0.5461-0.9909 0.8727-1.652 0.8727h-2.8068c-0.8262 0-1.296-0.9451-0.79719-1.6037l2.2904-3.0243c0.66999-1.0716 0.59869-2.4606-0.20035-3.4613l-0.4758-0.5958c-0.47439-0.594-1.1933-0.9399-1.9535-0.9399h-4.8809v-7.9805z" fill="url(#av)"/><path d="m2.0206 10.402c0-2.8995 2.3505-5.25 5.25-5.25h13.709c4.9706 0 9 4.0294 9 9v12.652c0 0.6903-0.5596 1.25-1.25 1.25h-2.5c-0.6903 0-1.25-0.5597-1.25-1.25v-3.2188c0-1.3807-1.1193-2.5-2.5-2.5h-4.5339c-0.8263 0-1.5993 0.4083-2.065 1.0909l-3.3837 4.9583c-0.3726 0.5461-0.9909 0.8727-1.652 0.8727h-2.8068c-0.8262 0-1.296-0.9451-0.79719-1.6037l2.2904-3.0243c0.66999-1.0716 0.59869-2.4606-0.20035-3.4613l-0.4758-0.5958c-0.47439-0.594-1.1933-0.9399-1.9535-0.9399h-4.8809v-7.9805z" fill="url(#au)"/><path d="m2.0206 10.402c0-2.8995 2.3505-5.25 5.25-5.25h13.709c4.9706 0 9 4.0294 9 9v12.652c0 0.6903-0.5596 1.25-1.25 1.25h-2.5c-0.6903 0-1.25-0.5597-1.25-1.25v-3.2188c0-1.3807-1.1193-2.5-2.5-2.5h-4.5339c-0.8263 0-1.5993 0.4083-2.065 1.0909l-3.3837 4.9583c-0.3726 0.5461-0.9909 0.8727-1.652 0.8727h-2.8068c-0.8262 0-1.296-0.9451-0.79719-1.6037l2.2904-3.0243c0.66999-1.0716 0.59869-2.4606-0.20035-3.4613l-0.4758-0.5958c-0.47439-0.594-1.1933-0.9399-1.9535-0.9399h-4.8809v-7.9805z" fill="url(#at)"/><path d="m2.0206 10.402c0-2.8995 2.3505-5.25 5.25-5.25h13.709c4.9706 0 9 4.0294 9 9v12.652c0 0.6903-0.5596 1.25-1.25 1.25h-2.5c-0.6903 0-1.25-0.5597-1.25-1.25v-3.2188c0-1.3807-1.1193-2.5-2.5-2.5h-4.5339c-0.8263 0-1.5993 0.4083-2.065 1.0909l-3.3837 4.9583c-0.3726 0.5461-0.9909 0.8727-1.652 0.8727h-2.8068c-0.8262 0-1.296-0.9451-0.79719-1.6037l2.2904-3.0243c0.66999-1.0716 0.59869-2.4606-0.20035-3.4613l-0.4758-0.5958c-0.47439-0.594-1.1933-0.9399-1.9535-0.9399h-4.8809v-7.9805z" fill="url(#as)"/><path d="m2.0206 10.402c0-2.8995 2.3505-5.25 5.25-5.25h13.709c4.9706 0 9 4.0294 9 9v12.652c0 0.6903-0.5596 1.25-1.25 1.25h-2.5c-0.6903 0-1.25-0.5597-1.25-1.25v-3.2188c0-1.3807-1.1193-2.5-2.5-2.5h-4.5339c-0.8263 0-1.5993 0.4083-2.065 1.0909l-3.3837 4.9583c-0.3726 0.5461-0.9909 0.8727-1.652 0.8727h-2.8068c-0.8262 0-1.296-0.9451-0.79719-1.6037l2.2904-3.0243c0.66999-1.0716 0.59869-2.4606-0.20035-3.4613l-0.4758-0.5958c-0.47439-0.594-1.1933-0.9399-1.9535-0.9399h-4.8809v-7.9805z" fill="url(#aq)"/><path d="m2.0206 10.402c0-2.8995 2.3505-5.25 5.25-5.25h13.709c4.9706 0 9 4.0294 9 9v12.652c0 0.6903-0.5596 1.25-1.25 1.25h-2.5c-0.6903 0-1.25-0.5597-1.25-1.25v-3.2188c0-1.3807-1.1193-2.5-2.5-2.5h-4.5339c-0.8263 0-1.5993 0.4083-2.065 1.0909l-3.3837 4.9583c-0.3726 0.5461-0.9909 0.8727-1.652 0.8727h-2.8068c-0.8262 0-1.296-0.9451-0.79719-1.6037l2.2904-3.0243c0.66999-1.0716 0.59869-2.4606-0.20035-3.4613l-0.4758-0.5958c-0.47439-0.594-1.1933-0.9399-1.9535-0.9399h-4.8809v-7.9805z" fill="url(#ap)"/><path d="m2.0206 10.402c0-2.8995 2.3505-5.25 5.25-5.25h13.709c4.9706 0 9 4.0294 9 9v12.652c0 0.6903-0.5596 1.25-1.25 1.25h-2.5c-0.6903 0-1.25-0.5597-1.25-1.25v-3.2188c0-1.3807-1.1193-2.5-2.5-2.5h-4.5339c-0.8263 0-1.5993 0.4083-2.065 1.0909l-3.3837 4.9583c-0.3726 0.5461-0.9909 0.8727-1.652 0.8727h-2.8068c-0.8262 0-1.296-0.9451-0.79719-1.6037l2.2904-3.0243c0.66999-1.0716 0.59869-2.4606-0.20035-3.4613l-0.4758-0.5958c-0.47439-0.594-1.1933-0.9399-1.9535-0.9399h-4.8809v-7.9805z" fill="url(#ao)"/><g filter="url(#bl)"><path d="m4.0575 15.281v3.125l1.4375-0.1562-1.4375-2.9688z" fill="url(#an)"/></g><rect x="6.0262" y="11.156" width="1.0078" height="1.9922" rx=".50391" fill="url(#am)"/><rect x="6.0262" y="11.156" width="1.0078" height="1.9922" rx=".50391" fill="url(#al)"/><rect x="6.0262" y="11.156" width="1.0078" height="1.9922" rx=".50391" fill="url(#ak)"/><rect x="6.0262" y="11.156" width="1.0078" height="1.9922" rx=".50391" fill="url(#aj)"/><g filter="url(#bk)"><path d="m10.058 6.2897c0-0.13229 0.1072-0.23954 0.2395-0.23954h0.4492c4.4764 0.37054 7.6803 3.26 7.8899 7.6354 0 0.5271-0.4273 0.9544-0.9544 0.9544h-6.4265c-0.6615 0-1.1977-0.5362-1.1977-1.1977v-7.1526z" fill="#796C8C"/></g><g filter="url(#bj)"><path d="m14.198 7.4447h6.7422c2.3333 0.02084 7 1.4625 7 7.0625v11.961" stroke="url(#ai)" stroke-linecap="square" stroke-width="1.5"/></g><path d="m10.058 5.4408c0-0.13808 0.1119-0.25 0.25-0.25h0.4687c4.6719 0.38671 8.0157 3.4023 8.2344 7.9687 0 0.5502-0.4459 0.9961-0.9961 0.9961h-6.707c-0.6904 0-1.25-0.5596-1.25-1.25v-7.4648z" fill="url(#ah)"/><path d="m10.058 5.4408c0-0.13808 0.1119-0.25 0.25-0.25h0.4687c4.6719 0.38671 8.0157 3.4023 8.2344 7.9687 0 0.5502-0.4459 0.9961-0.9961 0.9961h-6.707c-0.6904 0-1.25-0.5596-1.25-1.25v-7.4648z" fill="url(#af)"/><path d="m10.058 5.4408c0-0.13808 0.1119-0.25 0.25-0.25h0.4687c4.6719 0.38671 8.0157 3.4023 8.2344 7.9687 0 0.5502-0.4459 0.9961-0.9961 0.9961h-6.707c-0.6904 0-1.25-0.5596-1.25-1.25v-7.4648z" fill="url(#ae)"/><path d="m3.5206 16.374c0.82843 0 1.5 0.6716 1.5 1.5v3.75c0 0.2761 0.22386 0.5 0.5 0.5 0.82843 0 1.5 0.6716 1.5 1.5s-0.67157 1.5-1.5 1.5h-0.5c-1.6568 0-3-1.3432-3-3v-4.25c0-0.8284 0.67157-1.5 1.5-1.5z" clip-rule="evenodd" fill="url(#ad)" fill-rule="evenodd"/><path d="m3.5206 16.374c0.82843 0 1.5 0.6716 1.5 1.5v3.75c0 0.2761 0.22386 0.5 0.5 0.5 0.82843 0 1.5 0.6716 1.5 1.5s-0.67157 1.5-1.5 1.5h-0.5c-1.6568 0-3-1.3432-3-3v-4.25c0-0.8284 0.67157-1.5 1.5-1.5z" clip-rule="evenodd" fill="url(#ac)" fill-rule="evenodd"/><path d="m3.5206 16.374c0.82843 0 1.5 0.6716 1.5 1.5v3.75c0 0.2761 0.22386 0.5 0.5 0.5 0.82843 0 1.5 0.6716 1.5 1.5s-0.67157 1.5-1.5 1.5h-0.5c-1.6568 0-3-1.3432-3-3v-4.25c0-0.8284 0.67157-1.5 1.5-1.5z" clip-rule="evenodd" fill="url(#ab)" fill-rule="evenodd"/><path d="m3.5206 16.374c0.82843 0 1.5 0.6716 1.5 1.5v3.75c0 0.2761 0.22386 0.5 0.5 0.5 0.82843 0 1.5 0.6716 1.5 1.5s-0.67157 1.5-1.5 1.5h-0.5c-1.6568 0-3-1.3432-3-3v-4.25c0-0.8284 0.67157-1.5 1.5-1.5z" clip-rule="evenodd" fill="url(#aa)" fill-opacity=".3" fill-rule="evenodd"/><path d="m3.5206 16.374c0.82843 0 1.5 0.6716 1.5 1.5v3.75c0 0.2761 0.22386 0.5 0.5 0.5 0.82843 0 1.5 0.6716 1.5 1.5s-0.67157 1.5-1.5 1.5h-0.5c-1.6568 0-3-1.3432-3-3v-4.25c0-0.8284 0.67157-1.5 1.5-1.5z" clip-rule="evenodd" fill="url(#z)" fill-rule="evenodd"/><path d="m3.5206 16.374c0.82843 0 1.5 0.6716 1.5 1.5v3.75c0 0.2761 0.22386 0.5 0.5 0.5 0.82843 0 1.5 0.6716 1.5 1.5s-0.67157 1.5-1.5 1.5h-0.5c-1.6568 0-3-1.3432-3-3v-4.25c0-0.8284 0.67157-1.5 1.5-1.5z" clip-rule="evenodd" fill="url(#y)" fill-rule="evenodd"/><path d="m3.5206 16.374c0.82843 0 1.5 0.6716 1.5 1.5v3.75c0 0.2761 0.22386 0.5 0.5 0.5 0.82843 0 1.5 0.6716 1.5 1.5s-0.67157 1.5-1.5 1.5h-0.5c-1.6568 0-3-1.3432-3-3v-4.25c0-0.8284 0.67157-1.5 1.5-1.5z" clip-rule="evenodd" fill="url(#x)" fill-rule="evenodd"/><path d="m3.5206 16.374c0.82843 0 1.5 0.6716 1.5 1.5v3.75c0 0.2761 0.22386 0.5 0.5 0.5 0.82843 0 1.5 0.6716 1.5 1.5s-0.67157 1.5-1.5 1.5h-0.5c-1.6568 0-3-1.3432-3-3v-4.25c0-0.8284 0.67157-1.5 1.5-1.5z" clip-rule="evenodd" fill="url(#w)" fill-rule="evenodd"/><g filter="url(#bi)" stroke-width=".3"><path d="m8.3716 16.684v-1.1256c0-0.8056-0.65304-1.4586-1.4586-1.4586s-1.4586 0.653-1.4586 1.4586v1.1256c0 0.3349 0.2715 0.6064 0.60641 0.6064h1.7044c0.33492 0 0.60642-0.2715 0.60642-0.6064z" stroke="url(#u)"/><path d="m8.3716 16.684v-1.1256c0-0.8056-0.65304-1.4586-1.4586-1.4586s-1.4586 0.653-1.4586 1.4586v1.1256c0 0.3349 0.2715 0.6064 0.60641 0.6064h1.7044c0.33492 0 0.60642-0.2715 0.60642-0.6064z" stroke="url(#t)"/></g><path d="m7.0855 15.376c0.55155 0.0285 0.97562 0.4986 0.94719 1.0502-0.07592 1.4729-0.78249 2.4513-1.65 3.0282-0.81915 0.5449-1.7398 0.7094-2.3331 0.7094-0.55228 0-1-0.4477-1-1s0.44772-1 1-1c0.28956 0 0.80247-0.0933 1.2255-0.3747 0.37472-0.2492 0.71893-0.6654 0.76019-1.4659 0.02843-0.5515 0.4986-0.9756 1.0502-0.9472z" clip-rule="evenodd" fill="url(#s)" fill-rule="evenodd"/><path d="m7.0855 15.376c0.55155 0.0285 0.97562 0.4986 0.94719 1.0502-0.07592 1.4729-0.78249 2.4513-1.65 3.0282-0.81915 0.5449-1.7398 0.7094-2.3331 0.7094-0.55228 0-1-0.4477-1-1s0.44772-1 1-1c0.28956 0 0.80247-0.0933 1.2255-0.3747 0.37472-0.2492 0.71893-0.6654 0.76019-1.4659 0.02843-0.5515 0.4986-0.9756 1.0502-0.9472z" clip-rule="evenodd" fill="url(#r)" fill-rule="evenodd"/><path d="m7.0855 15.376c0.55155 0.0285 0.97562 0.4986 0.94719 1.0502-0.07592 1.4729-0.78249 2.4513-1.65 3.0282-0.81915 0.5449-1.7398 0.7094-2.3331 0.7094-0.55228 0-1-0.4477-1-1s0.44772-1 1-1c0.28956 0 0.80247-0.0933 1.2255-0.3747 0.37472-0.2492 0.71893-0.6654 0.76019-1.4659 0.02843-0.5515 0.4986-0.9756 1.0502-0.9472z" clip-rule="evenodd" fill="url(#q)" fill-rule="evenodd"/><g filter="url(#bh)"><path d="m11.573 6.0306c2.1459 0.27083 6.4875 2.075 6.6875 7.125" stroke="url(#p)" stroke-linecap="round" stroke-width=".5"/></g><g filter="url(#bg)"><path d="m10.511 5.7181v7.4375" stroke="url(#o)" stroke-linecap="round" stroke-width=".25"/></g><g filter="url(#bf)"><path d="m3.9481 19.593v2.375c0 0.8285 0.67157 1.5 1.5 1.5h0.40625" stroke="url(#n)" stroke-linecap="round" stroke-opacity=".75" stroke-width=".75"/></g><g filter="url(#be)"><path d="m3.9481 19.062c0.98438 0 2.5938-0.7594 2.7812-2.4219" stroke="#EDE7F5" stroke-linecap="round" stroke-width=".4"/></g><path d="m5.6044 15.558c0-0.7227 0.58588-1.3086 1.3086-1.3086 0.72272 0 1.3086 0.5859 1.3086 1.3086v1.1256c0 0.2521-0.20435 0.4564-0.45642 0.4564h-1.7044c-0.25207 0-0.45641-0.2043-0.45641-0.4564v-1.1256z" fill="#ACAAB5"/><path d="m5.6044 15.558c0-0.7227 0.58588-1.3086 1.3086-1.3086 0.72272 0 1.3086 0.5859 1.3086 1.3086v1.1256c0 0.2521-0.20435 0.4564-0.45642 0.4564h-1.7044c-0.25207 0-0.45641-0.2043-0.45641-0.4564v-1.1256z" fill="url(#m)"/><path d="m5.6044 15.558c0-0.7227 0.58588-1.3086 1.3086-1.3086 0.72272 0 1.3086 0.5859 1.3086 1.3086v1.1256c0 0.2521-0.20435 0.4564-0.45642 0.4564h-1.7044c-0.25207 0-0.45641-0.2043-0.45641-0.4564v-1.1256z" fill="url(#l)"/><path d="m5.6044 15.558c0-0.7227 0.58588-1.3086 1.3086-1.3086 0.72272 0 1.3086 0.5859 1.3086 1.3086v1.1256c0 0.2521-0.20435 0.4564-0.45642 0.4564h-1.7044c-0.25207 0-0.45641-0.2043-0.45641-0.4564v-1.1256z" fill="url(#j)"/><path d="m5.6044 15.558c0-0.7227 0.58588-1.3086 1.3086-1.3086 0.72272 0 1.3086 0.5859 1.3086 1.3086v1.1256c0 0.2521-0.20435 0.4564-0.45642 0.4564h-1.7044c-0.25207 0-0.45641-0.2043-0.45641-0.4564v-1.1256z" fill="url(#i)"/><path d="m5.6044 15.558c0-0.7227 0.58588-1.3086 1.3086-1.3086 0.72272 0 1.3086 0.5859 1.3086 1.3086v1.1256c0 0.2521-0.20435 0.4564-0.45642 0.4564h-1.7044c-0.25207 0-0.45641-0.2043-0.45641-0.4564v-1.1256z" fill="url(#h)" fill-opacity=".5"/><g filter="url(#bd)"><path d="m7.0813 15.171c0-0.1294 0.10485-0.2342 0.23419-0.2342s0.23419 0.1048 0.23419 0.2342v1.4689h-0.46838v-1.4689z" fill="#B8B4C2"/></g><g filter="url(#bo)"><rect x="6.4989" y="11.425" width=".20703" height="1.3242" rx=".10352" fill="#87747C"/></g><g filter="url(#bn)"><rect x="16.659" y="21.906" width="1.2891" height="5.4062" fill="url(#g)"/></g><g filter="url(#bm)"><path d="m12.417 21.656-3.5 5.1875h2.2187l4.0938-5.9062-2.8125 0.7187z" fill="url(#f)"/></g></g><defs><filter id="bp" x="21.589" y="20.989" width="7.4591" height="7.0648" color-interpolation-filters="sRGB" filterUnits="userSpaceOnUse"><feFlood flood-opacity="0" result="BackgroundImageFix"/><feBlend in="SourceGraphic" in2="BackgroundImageFix" result="shape"/><feColorMatrix in="SourceAlpha" result="hardAlpha" values="0 0 0 0 0 0 0 0 0 0 0 0 0 0 0 0 0 0 127 0"/><feOffset dx="0.1" dy="-0.1"/><feGaussianBlur stdDeviation="0.25"/><feComposite in2="hardAlpha" k2="-1" k3="1" operator="arithmetic"/><feColorMatrix values="0 0 0 0 0.631373 0 0 0 0 0.607843 0 0 0 0 0.67451 0 0 0 1 0"/><feBlend in2="shape" result="effect1_innerShadow_28327_3476"/></filter><filter id="bl" x="3.0575" y="14.281" width="3.4375" height="5.125" color-interpolation-filters="sRGB" filterUnits="userSpaceOnUse"><feFlood flood-opacity="0" result="BackgroundImageFix"/><feBlend in="SourceGraphic" in2="BackgroundImageFix" result="shape"/><feGaussianBlur result="effect1_foregroundBlur_28327_3476" stdDeviation="0.5"/></filter><filter id="bk" x="8.8575" y="4.8502" width="10.979" height="10.99" color-interpolation-filters="sRGB" filterUnits="userSpaceOnUse"><feFlood flood-opacity="0" result="BackgroundImageFix"/><feBlend in="SourceGraphic" in2="BackgroundImageFix" result="shape"/><feGaussianBlur result="effect1_foregroundBlur_28327_3476" stdDeviation="0.6"/></filter><filter id="bj" x="11.448" y="4.6947" width="19.242" height="24.523" color-interpolation-filters="sRGB" filterUnits="userSpaceOnUse"><feFlood flood-opacity="0" result="BackgroundImageFix"/><feBlend in="SourceGraphic" in2="BackgroundImageFix" result="shape"/><feGaussianBlur result="effect1_foregroundBlur_28327_3476" stdDeviation="1"/></filter><filter id="bi" x="4.9044" y="13.549" width="4.0172" height="4.2906" color-interpolation-filters="sRGB" filterUnits="userSpaceOnUse"><feFlood flood-opacity="0" result="BackgroundImageFix"/><feBlend in="SourceGraphic" in2="BackgroundImageFix" result="shape"/><feGaussianBlur result="effect1_foregroundBlur_28327_3476" stdDeviation="0.2"/></filter><filter id="bh" x="10.573" y="5.0306" width="8.6875" height="9.125" color-interpolation-filters="sRGB" filterUnits="userSpaceOnUse"><feFlood flood-opacity="0" result="BackgroundImageFix"/><feBlend in="SourceGraphic" in2="BackgroundImageFix" result="shape"/><feGaussianBlur result="effect1_foregroundBlur_28327_3476" stdDeviation="0.375"/></filter><filter id="bg" x="9.8856" y="5.0931" width="1.25" height="8.6875" color-interpolation-filters="sRGB" filterUnits="userSpaceOnUse"><feFlood flood-opacity="0" result="BackgroundImageFix"/><feBlend in="SourceGraphic" in2="BackgroundImageFix" result="shape"/><feGaussianBlur result="effect1_foregroundBlur_28327_3476" stdDeviation="0.25"/></filter><filter id="bf" x="2.7731" y="18.418" width="4.2562" height="6.225" color-interpolation-filters="sRGB" filterUnits="userSpaceOnUse"><feFlood flood-opacity="0" result="BackgroundImageFix"/><feBlend in="SourceGraphic" in2="BackgroundImageFix" result="shape"/><feGaussianBlur result="effect1_foregroundBlur_28327_3476" stdDeviation="0.4"/></filter><filter id="be" x="3.1481" y="15.84" width="4.3813" height="4.0219" color-interpolation-filters="sRGB" filterUnits="userSpaceOnUse"><feFlood flood-opacity="0" result="BackgroundImageFix"/><feBlend in="SourceGraphic" in2="BackgroundImageFix" result="shape"/><feGaussianBlur result="effect1_foregroundBlur_28327_3476" stdDeviation="0.3"/></filter><filter id="bd" x="6.4813" y="14.337" width="1.6684" height="2.9031" color-interpolation-filters="sRGB" filterUnits="userSpaceOnUse"><feFlood flood-opacity="0" result="BackgroundImageFix"/><feBlend in="SourceGraphic" in2="BackgroundImageFix" result="shape"/><feGaussianBlur result="effect1_foregroundBlur_28327_3476" stdDeviation="0.3"/></filter><filter id="bo" x="5.9989" y="10.925" width="1.207" height="2.3242" color-interpolation-filters="sRGB" filterUnits="userSpaceOnUse"><feFlood flood-opacity="0" result="BackgroundImageFix"/><feBlend in="SourceGraphic" in2="BackgroundImageFix" result="shape"/><feGaussianBlur result="effect1_foregroundBlur_28327_3476" stdDeviation="0.25"/></filter><filter id="bn" x="15.859" y="21.106" width="2.8891" height="7.0062" color-interpolation-filters="sRGB" filterUnits="userSpaceOnUse"><feFlood flood-opacity="0" result="BackgroundImageFix"/><feBlend in="SourceGraphic" in2="BackgroundImageFix" result="shape"/><feGaussianBlur result="effect1_foregroundBlur_28327_3476" stdDeviation="0.4"/></filter><filter id="bm" x="7.9169" y="19.937" width="8.3125" height="7.9062" color-interpolation-filters="sRGB" filterUnits="userSpaceOnUse"><feFlood flood-opacity="0" result="BackgroundImageFix"/><feBlend in="SourceGraphic" in2="BackgroundImageFix" result="shape"/><feGaussianBlur result="effect1_foregroundBlur_28327_3476" stdDeviation="0.5"/></filter><linearGradient id="bc" x1="25.507" x2="25.507" y1="28.867" y2="26.117" gradientUnits="userSpaceOnUse"><stop stop-color="#7249A0" offset="0"/><stop stop-color="#7F56AE" stop-opacity="0" offset=".65909"/></linearGradient><linearGradient id="ar" x1="25.269" x2="25.269" y1="21.999" y2="25.062" gradientUnits="userSpaceOnUse"><stop stop-color="#685A7B" offset="0"/><stop stop-color="#786A8C" stop-opacity="0" offset="1"/></linearGradient><radialGradient id="ag" cx="0" cy="0" r="1" gradientTransform="translate(15.698 26.406) rotate(68.927) scale(7.3007 8.4324)" gradientUnits="userSpaceOnUse"><stop stop-color="#9F99AC" offset="0"/><stop stop-color="#685A7C" offset="1"/></radialGradient><linearGradient id="v" x1="16.664" x2="16.664" y1="29.218" y2="27.103" gradientUnits="userSpaceOnUse"><stop stop-color="#7249A0" offset="0"/><stop stop-color="#7F56AE" stop-opacity="0" offset="1"/></linearGradient><linearGradient id="k" x1="18.573" x2="17.292" y1="20.374" y2="23.812" gradientUnits="userSpaceOnUse"><stop stop-color="#6B5B7F" offset=".15286"/><stop stop-color="#6B5B7F" stop-opacity="0" offset="1"/></linearGradient><linearGradient id="e" x1="13.386" x2="15.261" y1="28.093" y2="28.093" gradientUnits="userSpaceOnUse"><stop stop-color="#BCBAC3" offset="0"/><stop stop-color="#BCBAC3" stop-opacity="0" offset="1"/></linearGradient><linearGradient id="d" x1="31.386" x2="27.636" y1="21.242" y2="21.242" gradientUnits="userSpaceOnUse"><stop stop-color="#ACADAF" offset="0"/><stop stop-color="#ACADAF" stop-opacity="0" offset="1"/></linearGradient><linearGradient id="c" x1="22.198" x2="22.198" y1="4.3041" y2="8.0853" gradientUnits="userSpaceOnUse"><stop stop-color="#ACADAF" offset="0"/><stop stop-color="#ACADAF" stop-opacity="0" offset="1"/></linearGradient><linearGradient id="b" x1="25.823" x2="24.323" y1="5.7416" y2="8.7728" gradientUnits="userSpaceOnUse"><stop stop-color="#ACADAF" offset="0"/><stop stop-color="#ACADAF" stop-opacity="0" offset="1"/></linearGradient><radialGradient id="a" cx="0" cy="0" r="1" gradientTransform="translate(11.323 7.1478) rotate(206.52) scale(4.4704 3.2604)" gradientUnits="userSpaceOnUse"><stop stop-color="#ACADAF" offset="0"/><stop stop-color="#ACADAF" stop-opacity="0" offset="1"/></radialGradient><linearGradient id="bb" x1=".82318" x2="3.1357" y1="12.179" y2="12.179" gradientUnits="userSpaceOnUse"><stop stop-color="#CBCCCF" offset="0"/><stop stop-color="#CBCCCF" stop-opacity="0" offset="1"/></linearGradient><radialGradient id="ba" cx="0" cy="0" r="1" gradientTransform="translate(1.7919 6.9603) rotate(41.84) scale(3.6073 4.6373)" gradientUnits="userSpaceOnUse"><stop stop-color="#CBCCCF" offset="0"/><stop stop-color="#CBCCCF" stop-opacity="0" offset=".81046"/></radialGradient><radialGradient id="az" cx="0" cy="0" r="1" gradientTransform="translate(6.1669 20.46) rotate(-54.486) scale(4.3575 2.6101)" gradientUnits="userSpaceOnUse"><stop stop-color="#7F56AE" offset="0"/><stop stop-color="#7F56AE" stop-opacity="0" offset="1"/></radialGradient><radialGradient id="ay" cx="0" cy="0" r="1" gradientTransform="translate(12.761 11.929) rotate(142.08) scale(7.6056 6.5843)" gradientUnits="userSpaceOnUse"><stop stop-color="#918B9E" offset="0"/><stop stop-color="#918B9E" stop-opacity="0" offset="1"/></radialGradient><radialGradient id="ax" cx="0" cy="0" r="1" gradientTransform="translate(7.0732 19.367) rotate(-62.549) scale(5.4231 3.6985)" gradientUnits="userSpaceOnUse"><stop stop-color="#918B9E" offset="0"/><stop stop-color="#918B9E" stop-opacity="0" offset="1"/></radialGradient><radialGradient id="aw" cx="0" cy="0" r="1" gradientTransform="translate(6.7607 20.531) rotate(-36.802) scale(6.5566 4.4715)" gradientUnits="userSpaceOnUse"><stop stop-color="#918B9E" offset="0"/><stop stop-color="#918B9E" stop-opacity="0" offset="1"/></radialGradient><linearGradient id="av" x1="16.906" x2="16.906" y1="29.218" y2="25.406" gradientUnits="userSpaceOnUse"><stop stop-color="#7249A0" offset="0"/><stop stop-color="#7F56AE" stop-opacity="0" offset=".57377"/></linearGradient><radialGradient id="au" cx="0" cy="0" r="1" gradientTransform="translate(17.886 28.054) rotate(234.28) scale(6.9576 9.3737)" gradientUnits="userSpaceOnUse"><stop stop-color="#7249A0" offset="0"/><stop stop-color="#7F56AE" stop-opacity="0" offset="1"/></radialGradient><radialGradient id="at" cx="0" cy="0" r="1" gradientTransform="translate(20.636 23.156) rotate(-90) scale(5.5 6.375)" gradientUnits="userSpaceOnUse"><stop stop-color="#918B9E" offset="0"/><stop stop-color="#918B9E" stop-opacity="0" offset="1"/></radialGradient><radialGradient id="as" cx="0" cy="0" r="1" gradientTransform="translate(15.667 26.281) rotate(217.92) scale(3.4068 8.9662)" gradientUnits="userSpaceOnUse"><stop stop-color="#918B9E" offset=".33784"/><stop stop-color="#918B9E" stop-opacity="0" offset="1"/></radialGradient><radialGradient id="aq" cx="0" cy="0" r="1" gradientTransform="translate(20.386 23.906) rotate(225.34) scale(6.239 4.175)" gradientUnits="userSpaceOnUse"><stop stop-color="#7249A0" offset=".12"/><stop stop-color="#7F56AE" stop-opacity="0" offset=".88584"/></radialGradient><radialGradient id="ap" cx="0" cy="0" r="1" gradientTransform="translate(20.917 22.624) rotate(-90) scale(2.8438 4.4688)" gradientUnits="userSpaceOnUse"><stop stop-color="#7249A0" offset=".12"/><stop stop-color="#7F56AE" stop-opacity="0" offset="1"/></radialGradient><radialGradient id="ao" cx="0" cy="0" r="1" gradientTransform="translate(6.0732 27.39) rotate(-33.374) scale(2.3575 1.6476)" gradientUnits="userSpaceOnUse"><stop stop-color="#C9C7D0" offset="0"/><stop stop-color="#C9C7D0" stop-opacity="0" offset=".78063"/></radialGradient><linearGradient id="an" x1="4.5419" x2="6.4906" y1="18.124" y2="16.735" gradientUnits="userSpaceOnUse"><stop stop-color="#AEACB7" offset="0"/><stop stop-color="#C0B8D0" stop-opacity="0" offset="1"/></linearGradient><linearGradient id="am" x1="7.0341" x2="6.4507" y1="12.152" y2="12.152" gradientUnits="userSpaceOnUse"><stop stop-color="#594C4F" offset=".225"/><stop stop-color="#392833" offset="1"/></linearGradient><linearGradient id="al" x1="7.1915" x2="7.1915" y1="13.177" y2="12.241" gradientUnits="userSpaceOnUse"><stop stop-color="#552D52" offset="0"/><stop stop-color="#552D52" stop-opacity="0" offset="1"/></linearGradient><linearGradient id="ak" x1="5.6928" x2="6.3872" y1="12.621" y2="12.621" gradientUnits="userSpaceOnUse"><stop stop-color="#594C4F" offset="0"/><stop stop-color="#594C4F" stop-opacity="0" offset="1"/></linearGradient><radialGradient id="aj" cx="0" cy="0" r="1" gradientTransform="translate(6.7262 12.271) rotate(250.3) scale(1.1535 1.1315)" gradientUnits="userSpaceOnUse"><stop stop-color="#594C4F" stop-opacity="0" offset=".81395"/><stop stop-color="#594C4F" offset="1"/></radialGradient><linearGradient id="ai" x1="26.323" x2="10.386" y1="28.468" y2="1.3431" gradientUnits="userSpaceOnUse"><stop stop-color="#CDCCD5" offset="0"/><stop stop-color="#CDCCD5" stop-opacity="0" offset="1"/></linearGradient><linearGradient id="ah" x1="14.534" x2="14.534" y1="5.9994" y2="14.156" gradientUnits="userSpaceOnUse"><stop stop-color="#E5E0EA" offset="0"/><stop stop-color="#DACEE6" offset="1"/></linearGradient><linearGradient id="af" x1="14.534" x2="14.534" y1="19.156" y2="12.718" gradientUnits="userSpaceOnUse"><stop stop-color="#BA9CDC" offset="0"/><stop stop-color="#BA9CDC" stop-opacity="0" offset="1"/></linearGradient><linearGradient id="ae" x1="9.62" x2="10.409" y1="10.937" y2="10.937" gradientUnits="userSpaceOnUse"><stop stop-color="#B3AEBB" offset="0"/><stop stop-color="#B3AEBB" stop-opacity="0" offset="1"/></linearGradient><linearGradient id="ad" x1="5.3544" x2="5.3544" y1="25.124" y2="16.531" gradientUnits="userSpaceOnUse"><stop stop-color="#A79FB8" offset="0"/><stop stop-color="#B0ACBC" offset="1"/></linearGradient><linearGradient id="ac" x1="1.1044" x2="3.1044" y1="19.059" y2="19.059" gradientUnits="userSpaceOnUse"><stop stop-color="#CBCCCF" offset="0"/><stop stop-color="#CBCCCF" stop-opacity="0" offset="1"/></linearGradient><radialGradient id="ab" cx="0" cy="0" r="1" gradientTransform="translate(5.3388 28.109) rotate(261.59) scale(4.4858 4.347)" gradientUnits="userSpaceOnUse"><stop stop-color="#7F56AE" offset="0"/><stop stop-color="#7F56AE" stop-opacity="0" offset="1"/></radialGradient><radialGradient id="aa" cx="0" cy="0" r="1" gradientTransform="translate(4.0888 19.687) rotate(142.12) scale(1.0689 1.2183)" gradientUnits="userSpaceOnUse"><stop stop-color="#7F56AE" offset="0"/><stop stop-color="#7F56AE" stop-opacity="0" offset="1"/></radialGradient><radialGradient id="z" cx="0" cy="0" r="1" gradientTransform="translate(5.8857 21.343) rotate(150.87) scale(2.1824 2.4343)" gradientUnits="userSpaceOnUse"><stop stop-color="#85828E" offset="0"/><stop stop-color="#85828E" stop-opacity="0" offset=".9588"/></radialGradient><radialGradient id="y" cx="0" cy="0" r="1" gradientTransform="translate(7.4794 23.624) rotate(180) scale(1.75 1.952)" gradientUnits="userSpaceOnUse"><stop stop-color="#85828E" offset="0"/><stop stop-color="#85828E" stop-opacity="0" offset="1"/></radialGradient><radialGradient id="x" cx="0" cy="0" r="1" gradientTransform="translate(5.8857 19.281) rotate(146.14) scale(2.9729 1.8422)" gradientUnits="userSpaceOnUse"><stop stop-color="#85828E" offset="0"/><stop stop-color="#85828E" stop-opacity="0" offset="1"/></radialGradient><radialGradient id="w" cx="0" cy="0" r="1" gradientTransform="translate(5.6982 19.031) rotate(202.44) scale(3.1106 1.0335)" gradientUnits="userSpaceOnUse"><stop stop-color="#6E6380" offset=".34568"/><stop stop-color="#6E6380" stop-opacity="0" offset=".98321"/></radialGradient><linearGradient id="u" x1="8.6825" x2="6.913" y1="14.765" y2="15.609" gradientUnits="userSpaceOnUse"><stop stop-color="#C7C1D7" offset="0"/><stop stop-color="#B9B4C5" stop-opacity="0" offset="1"/></linearGradient><linearGradient id="t" x1="5.2138" x2="6.0106" y1="15.109" y2="15.499" gradientUnits="userSpaceOnUse"><stop stop-color="#C7C1D7" offset="0"/><stop stop-color="#B9B4C5" stop-opacity="0" offset="1"/></linearGradient><linearGradient id="s" x1="5.1512" x2="6.4794" y1="17.952" y2="20.046" gradientUnits="userSpaceOnUse"><stop stop-color="#D5D0DB" offset="0"/><stop stop-color="#CABADB" offset="1"/></linearGradient><linearGradient id="r" x1="2.9169" x2="3.4716" y1="19.492" y2="19.492" gradientUnits="userSpaceOnUse"><stop stop-color="#E8E4ED" offset="0"/><stop stop-color="#E8E4ED" stop-opacity="0" offset="1"/></linearGradient><radialGradient id="q" cx="0" cy="0" r="1" gradientTransform="translate(5.1356 17.593) rotate(54.767) scale(2.7355 4.2478)" gradientUnits="userSpaceOnUse"><stop stop-color="#B9A9CB" stop-opacity="0" offset=".71729"/><stop stop-color="#B9A9CB" offset=".9616"/></radialGradient><linearGradient id="p" x1="18.729" x2="11.323" y1="13.562" y2="5.6556" gradientUnits="userSpaceOnUse"><stop stop-color="#F9F5FF" offset="0"/><stop stop-color="#F9F5FF" stop-opacity="0" offset="1"/></linearGradient><linearGradient id="o" x1="10.473" x2="8.613" y1="12.218" y2="11.673" gradientUnits="userSpaceOnUse"><stop stop-color="#F9F5FF" stop-opacity="0" offset="0"/><stop stop-color="#F9F5FF" offset="1"/></linearGradient><linearGradient id="n" x1="5.1329" x2="4.0972" y1="23.738" y2="20.107" gradientUnits="userSpaceOnUse"><stop stop-color="#CDCCD5" offset="0"/><stop stop-color="#CDCCD5" stop-opacity="0" offset="1"/></linearGradient><linearGradient id="m" x1="6.913" x2="6.913" y1="17.14" y2="16.718" gradientUnits="userSpaceOnUse"><stop stop-color="#887D99" offset="0"/><stop stop-color="#887D99" stop-opacity="0" offset="1"/></linearGradient><linearGradient id="l" x1="8.5419" x2="7.3231" y1="17.14" y2="17.14" gradientUnits="userSpaceOnUse"><stop stop-color="#8A8696" offset="0"/><stop stop-color="#928E9E" stop-opacity="0" offset="1"/></linearGradient><radialGradient id="j" cx="0" cy="0" r="1" gradientTransform="translate(6.913 16.288) rotate(-79.504) scale(1.9943 1.6084)" gradientUnits="userSpaceOnUse"><stop stop-color="#A9A7B3" stop-opacity="0" offset=".71326"/><stop stop-color="#A9A7B3" offset="1"/></radialGradient><linearGradient id="i" x1="5.3544" x2="6.4794" y1="17.031" y2="17.031" gradientUnits="userSpaceOnUse"><stop stop-color="#BAB9C2" offset="0"/><stop stop-color="#ACABB3" stop-opacity="0" offset="1"/></linearGradient><linearGradient id="h" x1="6.913" x2="6.913" y1="14.124" y2="15.249" gradientUnits="userSpaceOnUse"><stop stop-color="#9A97A7" offset="0"/><stop stop-color="#A9A7B2" stop-opacity="0" offset="1"/></linearGradient><linearGradient id="g" x1="17.948" x2="17.948" y1="27.312" y2="21.499" gradientUnits="userSpaceOnUse"><stop stop-color="#A99FBA" offset="0"/><stop stop-color="#A99FBA" stop-opacity="0" offset="1"/></linearGradient><linearGradient id="f" x1="10.198" x2="14.323" y1="26.843" y2="20.499" gradientUnits="userSpaceOnUse"><stop stop-color="#C0B8D0" offset="0"/><stop stop-color="#C0B8D0" stop-opacity="0" offset="1"/></linearGradient><clipPath id="bq"><rect transform="translate(0 .64002)" width="32" height="32" fill="#fff"/></clipPath></defs></svg>
