<?xml version="1.0" encoding="UTF-8"?>
<!-- Generated by Pixelmator Pro 3.6.17 -->
<svg width="500" height="500" viewBox="0 0 500 500" xmlns="http://www.w3.org/2000/svg">
    <g id="Neutral">
        <clipPath id="clipPath1">
            <path d="M 99.999996 -0 L 399.999985 -0 C 455.228512 -0 500 44.771488 500 100.000015 L 500 400.000004 C 500 455.228471 455.228512 500 399.999985 500 L 99.999996 500 C 44.771529 500 -0 455.228471 -0 400.000004 L -0 100.000015 C -0 44.771488 44.771529 -0 99.999996 -0 Z"/>
        </clipPath>
        <path id="Path-copy" fill="#ffffff" stroke="none" clip-path="url(#clipPath1)" d="M 0 0 L 500 0 L 500 500 L 0 500 Z"/>
        <path id="Dots-copy" fill="#035ea5" fill-rule="evenodd" stroke="none" d="M 277.319946 414.057709 C 277.319946 429.169861 265.091675 441.40625 249.975281 441.40625 C 234.884506 441.40625 222.65625 429.169861 222.65625 414.057709 C 222.65625 398.974365 234.884506 386.71875 249.975281 386.71875 C 265.091675 386.71875 277.319946 398.974365 277.319946 414.057709 Z M 178.710938 414.057709 C 178.710938 429.169861 166.482681 441.40625 151.366287 441.40625 C 136.275497 441.40625 124.047256 429.169861 124.047256 414.057709 C 124.047256 398.974365 136.275497 386.71875 151.366287 386.71875 C 166.482681 386.71875 178.710938 398.974365 178.710938 414.057709 Z M 375.928925 414.057709 C 375.928925 429.169861 363.700684 441.40625 348.584259 441.40625 C 333.4935 441.40625 321.265259 429.169861 321.265259 414.057709 C 321.265259 398.974365 333.4935 386.71875 348.584259 386.71875 C 363.700684 386.71875 375.928925 398.974365 375.928925 414.057709 Z"/>
        <g id="Group">
            <linearGradient id="linearGradient1" x1="228.031286" y1="159.064962" x2="284.559626" y2="196.412111" gradientUnits="userSpaceOnUse">
                <stop offset="1e-05" stop-color="#88c6f9" stop-opacity="1"/>
                <stop offset="1" stop-color="#5fb1f6" stop-opacity="1"/>
            </linearGradient>
            <path id="Path-copy-4" fill="url(#linearGradient1)" stroke="none" d="M 250.370499 152.0755 C 235.29628 152.0755 223.083817 164.297699 223.083817 179.337799 L 223.083817 197.507782 L 277.686432 197.507782 L 277.686432 179.337799 C 277.686432 164.297699 265.473969 152.0755 250.370499 152.0755 L 250.370499 152.0755 Z"/>
            <linearGradient id="linearGradient2" x1="189.406899" y1="158.114566" x2="358.971591" y2="292.042944" gradientUnits="userSpaceOnUse">
                <stop offset="1e-05" stop-color="#92cbfa" stop-opacity="1"/>
                <stop offset="1" stop-color="#389ef3" stop-opacity="1"/>
            </linearGradient>
            <path id="Path-copy-3" fill="url(#linearGradient2)" stroke="none" d="M 405.841644 174.350433 C 386.077454 169.470337 365.284576 161.626099 343.131531 152.0755 C 288.03656 128.323395 251.896454 113.726929 217.66745 120.235352 C 202.6371 123.097107 192.184601 127.801727 187.738388 130.400238 C 183.287308 132.998718 174.051956 144.187378 174.051956 155.473541 C 174.051956 171.6008 179.913651 186.016846 198.624802 199.04837 C 199.863098 198.087952 201.413422 197.512665 203.10025 197.512665 L 204.88945 197.512665 L 204.88945 179.337799 C 204.88945 154.269348 225.248428 133.905487 250.370499 133.905487 C 275.492554 133.905487 295.895416 154.269348 295.895416 179.337799 L 295.895416 197.512665 L 297.684631 197.512665 C 301.721313 197.512665 304.997467 200.788849 304.997467 204.8255 L 304.997467 248.371078 C 330.909332 264.152222 352.370087 285.354584 355.865631 315.551758 C 389.524261 289.678894 410.790009 251.637497 410.790009 209.222992 C 410.790009 197.186035 409.073914 185.504974 405.851379 174.350433 L 405.841644 174.350433 Z"/>
            <linearGradient id="linearGradient3" x1="89.990003" y1="204.947498" x2="243.93996" y2="317.109075" gradientUnits="userSpaceOnUse">
                <stop offset="1e-05" stop-color="#3da7ff" stop-opacity="1"/>
                <stop offset="0.459927" stop-color="#1968a8" stop-opacity="1"/>
                <stop offset="0.665783" stop-color="#105891" stop-opacity="1"/>
                <stop offset="1" stop-color="#003c6b" stop-opacity="1"/>
            </linearGradient>
            <path id="Path-copy-2" fill="url(#linearGradient3)" stroke="none" d="M 304.987732 268.94455 C 304.987732 272.981262 301.711578 276.257385 297.674866 276.257385 L 203.095367 276.257385 C 199.058685 276.257385 195.782532 272.981262 195.782532 268.94455 L 195.782532 204.820618 C 195.782532 202.470764 196.903839 200.389069 198.624802 199.04837 C 180.665237 185.040497 174.594772 171.6008 174.594772 155.468658 C 174.594772 144.182495 183.005356 133.683197 187.733536 130.395355 C 158.262741 147.629303 132.892044 173.019501 91.647583 188.917633 C 90.56041 195.547974 89.990005 202.324524 89.990005 209.222992 C 89.990005 238.186707 99.906227 265.117493 116.911034 287.519196 L 99.740471 356.211182 L 180.09404 336.120361 C 201.320801 345.241943 225.170425 350.360931 250.385117 350.360931 C 290.766663 350.360931 327.698608 337.201965 355.896057 315.526672 C 352.74881 284.832825 331.640839 263.278076 304.998138 248.371078 L 304.987732 268.94455 Z"/>
            <linearGradient id="linearGradient4" x1="306.738216" y1="149.842657" x2="137.778454" y2="110.307015" gradientUnits="userSpaceOnUse">
                <stop offset="1e-05" stop-color="#e0f2ff" stop-opacity="1"/>
                <stop offset="1" stop-color="#b9dffd" stop-opacity="1"/>
                <stop offset="1" stop-color="#b9dffd" stop-opacity="1"/>
            </linearGradient>
            <path id="path1" fill="url(#linearGradient4)" stroke="none" d="M 250.385117 68.085022 C 169.636658 68.085022 102.836235 120.591248 91.647583 188.917633 C 132.887177 173.019501 158.262741 148.116821 187.733536 130.882874 C 192.184601 128.284363 202.632233 123.579773 217.662567 120.718018 C 251.891586 114.204712 288.031677 129.781067 343.126648 153.533203 C 365.279694 163.083771 386.077454 169.465454 405.841644 174.345551 C 388.193298 113.268677 325.288177 68.085022 250.385117 68.085022 Z"/>
        </g>
    </g>
</svg>
