<svg fill="none" viewBox="0 0 32 32" xmlns="http://www.w3.org/2000/svg"><g filter="url(#u)"><path d="m23.51 5.6324c0.5 2.04 0.56 4.26 0.02 6.56-1.26 5.33-5.64 9.51-11.02 10.48-2.91 0.53-5.68 0.13-8.09-0.92-0.56-0.25-1.09 0.39-0.8 0.93 2.65 4.88 8.11 8 14.22 7.19 6.23-0.83 11.22-5.91 11.97-12.15 0.6-5.18-1.6-9.86-5.28-12.75-0.47-0.36-1.16 0.08-1.02 0.66z" fill="url(#l)"/><path d="m23.51 5.6324c0.5 2.04 0.56 4.26 0.02 6.56-1.26 5.33-5.64 9.51-11.02 10.48-2.91 0.53-5.68 0.13-8.09-0.92-0.56-0.25-1.09 0.39-0.8 0.93 2.65 4.88 8.11 8 14.22 7.19 6.23-0.83 11.22-5.91 11.97-12.15 0.6-5.18-1.6-9.86-5.28-12.75-0.47-0.36-1.16 0.08-1.02 0.66z" fill="url(#i)"/><path d="m23.51 5.6324c0.5 2.04 0.56 4.26 0.02 6.56-1.26 5.33-5.64 9.51-11.02 10.48-2.91 0.53-5.68 0.13-8.09-0.92-0.56-0.25-1.09 0.39-0.8 0.93 2.65 4.88 8.11 8 14.22 7.19 6.23-0.83 11.22-5.91 11.97-12.15 0.6-5.18-1.6-9.86-5.28-12.75-0.47-0.36-1.16 0.08-1.02 0.66z" fill="url(#h)"/></g><path d="m23.51 5.6324c0.5 2.04 0.56 4.26 0.02 6.56-1.26 5.33-5.64 9.51-11.02 10.48-2.91 0.53-5.68 0.13-8.09-0.92-0.56-0.25-1.09 0.39-0.8 0.93 2.65 4.88 8.11 8 14.22 7.19 6.23-0.83 11.22-5.91 11.97-12.15 0.6-5.18-1.6-9.86-5.28-12.75-0.47-0.36-1.16 0.08-1.02 0.66z" fill="url(#g)"/><g filter="url(#t)"><path d="m13.48 27.012c0.8671 0 1.57-0.7029 1.57-1.57s-0.7029-1.57-1.57-1.57-1.57 0.7029-1.57 1.57 0.7029 1.57 1.57 1.57z" stroke="url(#f)" stroke-width=".3"/></g><g filter="url(#s)"><path d="m13.48 27.012c0.8671 0 1.57-0.7029 1.57-1.57s-0.7029-1.57-1.57-1.57-1.57 0.7029-1.57 1.57 0.7029 1.57 1.57 1.57z" fill="url(#e)"/></g><g filter="url(#r)"><path d="m26.4 14.132c0.8671 0 1.57-0.7029 1.57-1.57s-0.7029-1.57-1.57-1.57-1.57 0.7029-1.57 1.57 0.7029 1.57 1.57 1.57z" stroke="url(#d)" stroke-width=".2"/></g><g filter="url(#q)"><path d="m26.4 14.132c0.8671 0 1.57-0.7029 1.57-1.57s-0.7029-1.57-1.57-1.57-1.57 0.7029-1.57 1.57 0.7029 1.57 1.57 1.57z" fill="url(#c)"/></g><g filter="url(#p)"><path d="m26.9 18.972c0.5467 0 0.99-0.4432 0.99-0.99s-0.4433-0.99-0.99-0.99c-0.5468 0-0.99 0.4432-0.99 0.99s0.4432 0.99 0.99 0.99z" stroke="url(#b)" stroke-width=".2"/></g><g filter="url(#o)"><path d="m26.9 18.972c0.5467 0 0.99-0.4432 0.99-0.99s-0.4433-0.99-0.99-0.99c-0.5468 0-0.99 0.4432-0.99 0.99s0.4432 0.99 0.99 0.99z" fill="url(#a)"/></g><g filter="url(#n)"><path d="m21.9 24.982c1.6568 0 3-1.3431 3-3s-1.3432-3-3-3c-1.6569 0-3 1.3431-3 3s1.3431 3 3 3z" stroke="url(#k)" stroke-width=".3"/></g><g filter="url(#m)"><path d="m21.9 24.982c1.6568 0 3-1.3431 3-3s-1.3432-3-3-3c-1.6569 0-3 1.3431-3 3s1.3431 3 3 3z" fill="url(#j)"/></g><defs><filter id="u" x="3.5375" y="4.342" width="26.87" height="25.658" color-interpolation-filters="sRGB" filterUnits="userSpaceOnUse"><feFlood flood-opacity="0" result="BackgroundImageFix"/><feBlend in="SourceGraphic" in2="BackgroundImageFix" result="shape"/><feColorMatrix in="SourceAlpha" result="hardAlpha" values="0 0 0 0 0 0 0 0 0 0 0 0 0 0 0 0 0 0 127 0"/><feOffset dx="0.5" dy="-0.5"/><feGaussianBlur stdDeviation="0.5"/><feComposite in2="hardAlpha" k2="-1" k3="1" operator="arithmetic"/><feColorMatrix values="0 0 0 0 0.721569 0 0 0 0 0.372549 0 0 0 0 0.356863 0 0 0 1 0"/><feBlend in2="shape" result="effect1_innerShadow_18_14563"/></filter><filter id="t" x="11.46" y="23.422" width="4.04" height="4.0401" color-interpolation-filters="sRGB" filterUnits="userSpaceOnUse"><feFlood flood-opacity="0" result="BackgroundImageFix"/><feBlend in="SourceGraphic" in2="BackgroundImageFix" result="shape"/><feGaussianBlur result="effect1_foregroundBlur_18_14563" stdDeviation="0.15"/></filter><filter id="s" x="11.66" y="23.472" width="3.69" height="3.79" color-interpolation-filters="sRGB" filterUnits="userSpaceOnUse"><feFlood flood-opacity="0" result="BackgroundImageFix"/><feBlend in="SourceGraphic" in2="BackgroundImageFix" result="shape"/><feColorMatrix in="SourceAlpha" result="hardAlpha" values="0 0 0 0 0 0 0 0 0 0 0 0 0 0 0 0 0 0 127 0"/><feOffset dx="-0.25" dy="0.25"/><feGaussianBlur stdDeviation="0.375"/><feComposite in2="hardAlpha" k2="-1" k3="1" operator="arithmetic"/><feColorMatrix values="0 0 0 0 0.780392 0 0 0 0 0.462745 0 0 0 0 0.254902 0 0 0 1 0"/><feBlend in2="shape" result="effect1_innerShadow_18_14563"/><feColorMatrix in="SourceAlpha" result="hardAlpha" values="0 0 0 0 0 0 0 0 0 0 0 0 0 0 0 0 0 0 127 0"/><feOffset dx="0.3" dy="-0.4"/><feGaussianBlur stdDeviation="0.5"/><feComposite in2="hardAlpha" k2="-1" k3="1" operator="arithmetic"/><feColorMatrix values="0 0 0 0 1 0 0 0 0 0.839216 0 0 0 0 0.513726 0 0 0 1 0"/><feBlend in2="effect1_innerShadow_18_14563" result="effect2_innerShadow_18_14563"/></filter><filter id="r" x="24.53" y="10.692" width="3.74" height="3.74" color-interpolation-filters="sRGB" filterUnits="userSpaceOnUse"><feFlood flood-opacity="0" result="BackgroundImageFix"/><feBlend in="SourceGraphic" in2="BackgroundImageFix" result="shape"/><feGaussianBlur result="effect1_foregroundBlur_18_14563" stdDeviation="0.1"/></filter><filter id="q" x="24.58" y="10.692" width="3.69" height="3.69" color-interpolation-filters="sRGB" filterUnits="userSpaceOnUse"><feFlood flood-opacity="0" result="BackgroundImageFix"/><feBlend in="SourceGraphic" in2="BackgroundImageFix" result="shape"/><feColorMatrix in="SourceAlpha" result="hardAlpha" values="0 0 0 0 0 0 0 0 0 0 0 0 0 0 0 0 0 0 127 0"/><feOffset dx="-0.25" dy="0.25"/><feGaussianBlur stdDeviation="0.2"/><feComposite in2="hardAlpha" k2="-1" k3="1" operator="arithmetic"/><feColorMatrix values="0 0 0 0 0.847059 0 0 0 0 0.552941 0 0 0 0 0.235294 0 0 0 1 0"/><feBlend in2="shape" result="effect1_innerShadow_18_14563"/><feColorMatrix in="SourceAlpha" result="hardAlpha" values="0 0 0 0 0 0 0 0 0 0 0 0 0 0 0 0 0 0 127 0"/><feOffset dx="0.3" dy="-0.3"/><feGaussianBlur stdDeviation="0.15"/><feComposite in2="hardAlpha" k2="-1" k3="1" operator="arithmetic"/><feColorMatrix values="0 0 0 0 1 0 0 0 0 0.921569 0 0 0 0 0.682353 0 0 0 1 0"/><feBlend in2="effect1_innerShadow_18_14563" result="effect2_innerShadow_18_14563"/></filter><filter id="p" x="25.61" y="16.692" width="2.58" height="2.5799" color-interpolation-filters="sRGB" filterUnits="userSpaceOnUse"><feFlood flood-opacity="0" result="BackgroundImageFix"/><feBlend in="SourceGraphic" in2="BackgroundImageFix" result="shape"/><feGaussianBlur result="effect1_foregroundBlur_18_14563" stdDeviation="0.1"/></filter><filter id="o" x="25.76" y="16.792" width="2.33" height="2.33" color-interpolation-filters="sRGB" filterUnits="userSpaceOnUse"><feFlood flood-opacity="0" result="BackgroundImageFix"/><feBlend in="SourceGraphic" in2="BackgroundImageFix" result="shape"/><feColorMatrix in="SourceAlpha" result="hardAlpha" values="0 0 0 0 0 0 0 0 0 0 0 0 0 0 0 0 0 0 127 0"/><feOffset dx="-0.15" dy="0.15"/><feGaussianBlur stdDeviation="0.1"/><feComposite in2="hardAlpha" k2="-1" k3="1" operator="arithmetic"/><feColorMatrix values="0 0 0 0 0.847059 0 0 0 0 0.552941 0 0 0 0 0.235294 0 0 0 1 0"/><feBlend in2="shape" result="effect1_innerShadow_18_14563"/><feColorMatrix in="SourceAlpha" result="hardAlpha" values="0 0 0 0 0 0 0 0 0 0 0 0 0 0 0 0 0 0 127 0"/><feOffset dx="0.2" dy="-0.2"/><feGaussianBlur stdDeviation="0.1"/><feComposite in2="hardAlpha" k2="-1" k3="1" operator="arithmetic"/><feColorMatrix values="0 0 0 0 1 0 0 0 0 0.921569 0 0 0 0 0.682353 0 0 0 1 0"/><feBlend in2="effect1_innerShadow_18_14563" result="effect2_innerShadow_18_14563"/></filter><filter id="n" x="18.45" y="18.532" width="6.9" height="6.9" color-interpolation-filters="sRGB" filterUnits="userSpaceOnUse"><feFlood flood-opacity="0" result="BackgroundImageFix"/><feBlend in="SourceGraphic" in2="BackgroundImageFix" result="shape"/><feGaussianBlur result="effect1_foregroundBlur_18_14563" stdDeviation="0.15"/></filter><filter id="m" x="18.65" y="18.582" width="6.55" height="6.65" color-interpolation-filters="sRGB" filterUnits="userSpaceOnUse"><feFlood flood-opacity="0" result="BackgroundImageFix"/><feBlend in="SourceGraphic" in2="BackgroundImageFix" result="shape"/><feColorMatrix in="SourceAlpha" result="hardAlpha" values="0 0 0 0 0 0 0 0 0 0 0 0 0 0 0 0 0 0 127 0"/><feOffset dx="-0.25" dy="0.25"/><feGaussianBlur stdDeviation="0.375"/><feComposite in2="hardAlpha" k2="-1" k3="1" operator="arithmetic"/><feColorMatrix values="0 0 0 0 0.8 0 0 0 0 0.537255 0 0 0 0 0.270588 0 0 0 1 0"/><feBlend in2="shape" result="effect1_innerShadow_18_14563"/><feColorMatrix in="SourceAlpha" result="hardAlpha" values="0 0 0 0 0 0 0 0 0 0 0 0 0 0 0 0 0 0 127 0"/><feOffset dx="0.3" dy="-0.4"/><feGaussianBlur stdDeviation="0.5"/><feComposite in2="hardAlpha" k2="-1" k3="1" operator="arithmetic"/><feColorMatrix values="0 0 0 0 1 0 0 0 0 0.882353 0 0 0 0 0.611765 0 0 0 1 0"/><feBlend in2="effect1_innerShadow_18_14563" result="effect2_innerShadow_18_14563"/></filter><linearGradient id="l" x1="28.688" x2="10.75" y1="11.188" y2="29.312" gradientUnits="userSpaceOnUse"><stop stop-color="#FFD874" offset="0"/><stop stop-color="#FFBC4C" offset="1"/></linearGradient><radialGradient id="i" cx="0" cy="0" r="1" gradientTransform="translate(14.688 16.625) rotate(-23.408) scale(15.732 16.49)" gradientUnits="userSpaceOnUse"><stop stop-color="#FFECAE" stop-opacity="0" offset=".76901"/><stop stop-color="#FFECAE" offset=".98406"/></radialGradient><radialGradient id="h" cx="0" cy="0" r="1" gradientTransform="translate(8.7051 31.214) rotate(-39.846) scale(14.013 14.688)" gradientUnits="userSpaceOnUse"><stop stop-color="#FF984F" offset="0"/><stop stop-color="#FF984F" stop-opacity="0" offset="1"/></radialGradient><radialGradient id="g" cx="0" cy="0" r="1" gradientTransform="translate(22.173 11.516) rotate(13.627) scale(2.6282 6.6559)" gradientUnits="userSpaceOnUse"><stop stop-color="#BA935B" offset=".22969"/><stop stop-color="#BA935B" stop-opacity="0" offset=".97869"/></radialGradient><linearGradient id="f" x1="14.857" x2="13.074" y1="24.65" y2="25.582" gradientUnits="userSpaceOnUse"><stop stop-color="#D0883B" offset="0"/><stop stop-color="#FFCA6D" offset="1"/></linearGradient><radialGradient id="e" cx="0" cy="0" r="1" gradientTransform="translate(12.812 25.73) rotate(-22.978) scale(2.4298)" gradientUnits="userSpaceOnUse"><stop stop-color="#FFBA6A" offset="0"/><stop stop-color="#EB9E58" offset="1"/></radialGradient><linearGradient id="d" x1="27.748" x2="25.295" y1="11.227" y2="13.854" gradientUnits="userSpaceOnUse"><stop stop-color="#E7AC47" offset="0"/><stop stop-color="#FFE9A7" offset="1"/></linearGradient><radialGradient id="c" cx="0" cy="0" r="1" gradientTransform="translate(25.732 12.85) rotate(-15.521) scale(2.3217)" gradientUnits="userSpaceOnUse"><stop stop-color="#FFD778" offset="0"/><stop stop-color="#FFC767" offset="1"/></radialGradient><linearGradient id="b" x1="27.75" x2="26.203" y1="17.141" y2="18.797" gradientUnits="userSpaceOnUse"><stop stop-color="#E7AC47" offset="0"/><stop stop-color="#FFE9A7" offset="1"/></linearGradient><radialGradient id="a" cx="0" cy="0" r="1" gradientTransform="translate(26.479 18.163) rotate(-15.521) scale(1.464)" gradientUnits="userSpaceOnUse"><stop stop-color="#FFDE8F" offset="0"/><stop stop-color="#FFC25B" offset="1"/></radialGradient><linearGradient id="k" x1="24.531" x2="21.125" y1="20.469" y2="22.25" gradientUnits="userSpaceOnUse"><stop stop-color="#E2A842" offset="0"/><stop stop-color="#FFD778" offset="1"/></linearGradient><radialGradient id="j" cx="0" cy="0" r="1" gradientTransform="translate(20.625 22.531) rotate(-22.978) scale(4.6429)" gradientUnits="userSpaceOnUse"><stop stop-color="#FFC75F" offset="0"/><stop stop-color="#FABC5A" offset="1"/></radialGradient></defs></svg>
