<svg fill="none" viewBox="0 0 32 32" xmlns="http://www.w3.org/2000/svg"><g filter="url(#o)"><path d="m14.035 3.552 4.2645 7.2842-6.0157 1.7107c-4.1551-1.3749-6.6026-4.0179-8.0781-6.7344-0.62225-1.1457-0.61719-3.25 1.8558-3.25h6.2476c0.7102 0 1.3671 0.37664 1.7259 0.98954z" fill="#4686EC"/><path d="m14.035 3.552 4.2645 7.2842-6.0157 1.7107c-4.1551-1.3749-6.6026-4.0179-8.0781-6.7344-0.62225-1.1457-0.61719-3.25 1.8558-3.25h6.2476c0.7102 0 1.3671 0.37664 1.7259 0.98954z" fill="url(#l)"/><path d="m14.035 3.552 4.2645 7.2842-6.0157 1.7107c-4.1551-1.3749-6.6026-4.0179-8.0781-6.7344-0.62225-1.1457-0.61719-3.25 1.8558-3.25h6.2476c0.7102 0 1.3671 0.37664 1.7259 0.98954z" fill="url(#i)"/></g><g filter="url(#n)"><path d="m17.812 3.552-4.2644 7.2842 6.0156 1.7107c4.1551-1.3749 6.6027-4.0179 8.0781-6.7344 0.6223-1.1457 0.6172-3.25-1.8558-3.25h-6.2475c-0.7103 0-1.3672 0.37664-1.726 0.98954z" fill="#4686EC"/><path d="m17.812 3.552-4.2644 7.2842 6.0156 1.7107c4.1551-1.3749 6.6027-4.0179 8.0781-6.7344 0.6223-1.1457 0.6172-3.25-1.8558-3.25h-6.2475c-0.7103 0-1.3672 0.37664-1.726 0.98954z" fill="url(#h)"/><path d="m17.812 3.552-4.2644 7.2842 6.0156 1.7107c4.1551-1.3749 6.6027-4.0179 8.0781-6.7344 0.6223-1.1457 0.6172-3.25-1.8558-3.25h-6.2475c-0.7103 0-1.3672 0.37664-1.726 0.98954z" fill="url(#g)"/></g><path d="m17.812 3.552-4.2644 7.2842 6.0156 1.7107c4.1551-1.3749 6.6027-4.0179 8.0781-6.7344 0.6223-1.1457 0.6172-3.25-1.8558-3.25h-6.2475c-0.7103 0-1.3672 0.37664-1.726 0.98954z" fill="url(#f)"/><circle cx="16.047" cy="20.132" r="10.048" fill="url(#e)"/><circle cx="16.047" cy="20.132" r="10.048" fill="url(#d)"/><circle cx="16.047" cy="20.132" r="8.6883" fill="url(#c)"/><circle cx="16.047" cy="20.132" r="7.5849" fill="url(#b)"/><circle cx="16.047" cy="20.132" r="7.5849" fill="url(#a)"/><circle cx="16.047" cy="20.132" r="7.5849" fill="url(#k)"/><g filter="url(#m)"><path d="m17.22 16.8c0-0.4418-0.3581-0.8-0.8-0.8h-1.9406c-0.2209 0-0.4 0.1791-0.4 0.4v1.1766c0 0.2209 0.1791 0.4 0.4 0.4h0.4438c0.138 0 0.25 0.1119 0.25 0.25v5.7734c0 0.2761 0.2238 0.5 0.5 0.5h1.0468c0.2762 0 0.5-0.2239 0.5-0.5v-7.2z" fill="#6F3955"/></g><path d="m17.22 16.8c0-0.4418-0.3581-0.8-0.8-0.8h-1.9406c-0.2209 0-0.4 0.1791-0.4 0.4v1.1766c0 0.2209 0.1791 0.4 0.4 0.4h0.4438c0.138 0 0.25 0.1119 0.25 0.25v5.7734c0 0.2761 0.2238 0.5 0.5 0.5h1.0468c0.2762 0 0.5-0.2239 0.5-0.5v-7.2z" fill="url(#j)"/><defs><filter id="o" x="3.6104" y="2.3625" width="14.889" height="10.434" color-interpolation-filters="sRGB" filterUnits="userSpaceOnUse"><feFlood flood-opacity="0" result="BackgroundImageFix"/><feBlend in="SourceGraphic" in2="BackgroundImageFix" result="shape"/><feColorMatrix in="SourceAlpha" result="hardAlpha" values="0 0 0 0 0 0 0 0 0 0 0 0 0 0 0 0 0 0 127 0"/><feOffset dx="-0.2" dy="-0.2"/><feGaussianBlur stdDeviation="0.2"/><feComposite in2="hardAlpha" k2="-1" k3="1" operator="arithmetic"/><feColorMatrix values="0 0 0 0 0.317647 0 0 0 0 0.458824 0 0 0 0 0.886275 0 0 0 1 0"/><feBlend in2="shape" result="effect1_innerShadow_18_1526"/><feColorMatrix in="SourceAlpha" result="hardAlpha" values="0 0 0 0 0 0 0 0 0 0 0 0 0 0 0 0 0 0 127 0"/><feOffset dx="0.2" dy="0.2"/><feGaussianBlur stdDeviation="0.2"/><feComposite in2="hardAlpha" k2="-1" k3="1" operator="arithmetic"/><feColorMatrix values="0 0 0 0 0.317647 0 0 0 0 0.458824 0 0 0 0 0.886275 0 0 0 1 0"/><feBlend in2="effect1_innerShadow_18_1526" result="effect2_innerShadow_18_1526"/><feColorMatrix in="SourceAlpha" result="hardAlpha" values="0 0 0 0 0 0 0 0 0 0 0 0 0 0 0 0 0 0 127 0"/><feOffset dx="-0.25" dy="0.25"/><feGaussianBlur stdDeviation="0.25"/><feComposite in2="hardAlpha" k2="-1" k3="1" operator="arithmetic"/><feColorMatrix values="0 0 0 0 0.372549 0 0 0 0 0.607843 0 0 0 0 0.960784 0 0 0 1 0"/><feBlend in2="effect2_innerShadow_18_1526" result="effect3_innerShadow_18_1526"/></filter><filter id="n" x="13.298" y="2.3625" width="14.889" height="10.434" color-interpolation-filters="sRGB" filterUnits="userSpaceOnUse"><feFlood flood-opacity="0" result="BackgroundImageFix"/><feBlend in="SourceGraphic" in2="BackgroundImageFix" result="shape"/><feColorMatrix in="SourceAlpha" result="hardAlpha" values="0 0 0 0 0 0 0 0 0 0 0 0 0 0 0 0 0 0 127 0"/><feOffset dx="-0.2" dy="-0.2"/><feGaussianBlur stdDeviation="0.2"/><feComposite in2="hardAlpha" k2="-1" k3="1" operator="arithmetic"/><feColorMatrix values="0 0 0 0 0.317647 0 0 0 0 0.458824 0 0 0 0 0.886275 0 0 0 1 0"/><feBlend in2="shape" result="effect1_innerShadow_18_1526"/><feColorMatrix in="SourceAlpha" result="hardAlpha" values="0 0 0 0 0 0 0 0 0 0 0 0 0 0 0 0 0 0 127 0"/><feOffset dx="0.2" dy="0.2"/><feGaussianBlur stdDeviation="0.2"/><feComposite in2="hardAlpha" k2="-1" k3="1" operator="arithmetic"/><feColorMatrix values="0 0 0 0 0.317647 0 0 0 0 0.458824 0 0 0 0 0.886275 0 0 0 1 0"/><feBlend in2="effect1_innerShadow_18_1526" result="effect2_innerShadow_18_1526"/><feColorMatrix in="SourceAlpha" result="hardAlpha" values="0 0 0 0 0 0 0 0 0 0 0 0 0 0 0 0 0 0 127 0"/><feOffset dx="-0.25" dy="0.25"/><feGaussianBlur stdDeviation="0.25"/><feComposite in2="hardAlpha" k2="-1" k3="1" operator="arithmetic"/><feColorMatrix values="0 0 0 0 0.372549 0 0 0 0 0.607843 0 0 0 0 0.960784 0 0 0 1 0"/><feBlend in2="effect2_innerShadow_18_1526" result="effect3_innerShadow_18_1526"/></filter><filter id="m" x="13.779" y="15.8" width="3.6406" height="9" color-interpolation-filters="sRGB" filterUnits="userSpaceOnUse"><feFlood flood-opacity="0" result="BackgroundImageFix"/><feBlend in="SourceGraphic" in2="BackgroundImageFix" result="shape"/><feColorMatrix in="SourceAlpha" result="hardAlpha" values="0 0 0 0 0 0 0 0 0 0 0 0 0 0 0 0 0 0 127 0"/><feOffset dx="-0.3" dy="0.3"/><feGaussianBlur stdDeviation="0.3"/><feComposite in2="hardAlpha" k2="-1" k3="1" operator="arithmetic"/><feColorMatrix values="0 0 0 0 0.392157 0 0 0 0 0.164706 0 0 0 0 0.254902 0 0 0 1 0"/><feBlend in2="shape" result="effect1_innerShadow_18_1526"/><feColorMatrix in="SourceAlpha" result="hardAlpha" values="0 0 0 0 0 0 0 0 0 0 0 0 0 0 0 0 0 0 127 0"/><feOffset dx="0.2" dy="-0.2"/><feGaussianBlur stdDeviation="0.2"/><feComposite in2="hardAlpha" k2="-1" k3="1" operator="arithmetic"/><feColorMatrix values="0 0 0 0 0.501961 0 0 0 0 0.333333 0 0 0 0 0.360784 0 0 0 1 0"/><feBlend in2="effect1_innerShadow_18_1526" result="effect2_innerShadow_18_1526"/></filter><radialGradient id="l" cx="0" cy="0" r="1" gradientTransform="translate(13.103 11.842) rotate(236.68) scale(4.6035 17.192)" gradientUnits="userSpaceOnUse"><stop stop-color="#3669D9" offset="0"/><stop stop-color="#3669D9" stop-opacity="0" offset="1"/></radialGradient><linearGradient id="i" x1="6.5818" x2="8.377" y1="2.0232" y2="6.4928" gradientUnits="userSpaceOnUse"><stop stop-color="#3D89EC" offset="0"/><stop stop-color="#3D89EC" stop-opacity="0" offset="1"/></linearGradient><radialGradient id="h" cx="0" cy="0" r="1" gradientTransform="translate(18.744 11.842) rotate(-57.265) scale(3.0487 6.6873)" gradientUnits="userSpaceOnUse"><stop stop-color="#3669D9" offset="0"/><stop stop-color="#3669D9" stop-opacity="0" offset="1"/></radialGradient><linearGradient id="g" x1="25.265" x2="23.47" y1="2.0232" y2="6.4928" gradientUnits="userSpaceOnUse"><stop stop-color="#3D89EC" offset="0"/><stop stop-color="#3D89EC" stop-opacity="0" offset="1"/></linearGradient><linearGradient id="f" x1="15.749" x2="16.086" y1="7.0633" y2="7.2497" gradientUnits="userSpaceOnUse"><stop stop-color="#1A6DD8" offset="0"/><stop stop-color="#1A6DD8" stop-opacity="0" offset="1"/></linearGradient><linearGradient id="e" x1="21.418" x2="14.413" y1="16.57" y2="23.434" gradientUnits="userSpaceOnUse"><stop stop-color="#F4C654" offset="0"/><stop stop-color="#DC9729" offset="1"/></linearGradient><linearGradient id="d" x1="12.536" x2="14.802" y1="30.668" y2="17.528" gradientUnits="userSpaceOnUse"><stop stop-color="#FA8547" offset="0"/><stop stop-color="#FA8547" stop-opacity="0" offset="1"/></linearGradient><linearGradient id="c" x1="23.963" x2="16.047" y1="18.614" y2="18.614" gradientUnits="userSpaceOnUse"><stop stop-color="#F9A842" offset="0"/><stop stop-color="#FAA742" offset="1"/></linearGradient><linearGradient id="b" x1="12.541" x2="23.855" y1="19.17" y2="19.17" gradientUnits="userSpaceOnUse"><stop stop-color="#FAA945" offset="0"/><stop stop-color="#EC9936" offset="1"/></linearGradient><radialGradient id="a" cx="0" cy="0" r="1" gradientTransform="translate(18.988 20.132) rotate(180) scale(10.526 8.969)" gradientUnits="userSpaceOnUse"><stop stop-color="#F7B44D" stop-opacity="0" offset=".8931"/><stop stop-color="#F7B44D" offset="1"/></radialGradient><radialGradient id="k" cx="0" cy="0" r="1" gradientTransform="translate(14.078 20.132) scale(10.128 8.8814)" gradientUnits="userSpaceOnUse"><stop stop-color="#D2801F" stop-opacity="0" offset=".87876"/><stop stop-color="#D2801F" offset=".98268"/></radialGradient><linearGradient id="j" x1="16.423" x2="16.423" y1="24.5" y2="23.684" gradientUnits="userSpaceOnUse"><stop stop-color="#693B2E" offset="0"/><stop stop-color="#693B2E" stop-opacity="0" offset="1"/></linearGradient></defs></svg>
