<svg fill="none" viewBox="0 0 32 32" xmlns="http://www.w3.org/2000/svg"><path d="m18.465 8.3599h-3.95c-0.29 0-0.52 0.23-0.52 0.52v17.08c0 0.29 0.23 0.52 0.52 0.52h3.95c0.29 0 0.52-0.23 0.52-0.52v-17.07c0-0.29-0.23-0.53-0.52-0.53z" fill="url(#aq)"/><path d="m18.465 8.3599h-3.95c-0.29 0-0.52 0.23-0.52 0.52v17.08c0 0.29 0.23 0.52 0.52 0.52h3.95c0.29 0 0.52-0.23 0.52-0.52v-17.07c0-0.29-0.23-0.53-0.52-0.53z" fill="url(#af)"/><path d="m18.465 8.3599h-3.95c-0.29 0-0.52 0.23-0.52 0.52v17.08c0 0.29 0.23 0.52 0.52 0.52h3.95c0.29 0 0.52-0.23 0.52-0.52v-17.07c0-0.29-0.23-0.53-0.52-0.53z" fill="url(#u)"/><path d="m18.465 8.3599h-3.95c-0.29 0-0.52 0.23-0.52 0.52v17.08c0 0.29 0.23 0.52 0.52 0.52h3.95c0.29 0 0.52-0.23 0.52-0.52v-17.07c0-0.29-0.23-0.53-0.52-0.53z" fill="url(#j)"/><path d="m18.465 8.3599h-3.95c-0.29 0-0.52 0.23-0.52 0.52v17.08c0 0.29 0.23 0.52 0.52 0.52h3.95c0.29 0 0.52-0.23 0.52-0.52v-17.07c0-0.29-0.23-0.53-0.52-0.53z" fill="url(#f)"/><path d="m18.465 8.3599h-3.95c-0.29 0-0.52 0.23-0.52 0.52v17.08c0 0.29 0.23 0.52 0.52 0.52h3.95c0.29 0 0.52-0.23 0.52-0.52v-17.07c0-0.29-0.23-0.53-0.52-0.53z" fill="url(#e)"/><path d="m18.465 8.3599h-3.95c-0.29 0-0.52 0.23-0.52 0.52v17.08c0 0.29 0.23 0.52 0.52 0.52h3.95c0.29 0 0.52-0.23 0.52-0.52v-17.07c0-0.29-0.23-0.53-0.52-0.53z" fill="url(#d)"/><path d="m10.545 8.5h5c0.2762 0 0.5024-0.22459 0.4772-0.49958-0.2553-2.7892-2.6255-5.0004-5.4772-5.0004-2.67 0-4.92 1.95-5.4 4.49-0.11 0.52 0.33 1.01 0.87 1.01h4.53z" fill="url(#c)"/><path d="m10.545 8.5h5c0.2762 0 0.5024-0.22459 0.4772-0.49958-0.2553-2.7892-2.6255-5.0004-5.4772-5.0004-2.67 0-4.92 1.95-5.4 4.49-0.11 0.52 0.33 1.01 0.87 1.01h4.53z" fill="url(#b)"/><path d="m10.545 8.5h5c0.2762 0 0.5024-0.22459 0.4772-0.49958-0.2553-2.7892-2.6255-5.0004-5.4772-5.0004-2.67 0-4.92 1.95-5.4 4.49-0.11 0.52 0.33 1.01 0.87 1.01h4.53z" fill="url(#a)"/><path d="m10.545 8.5h5c0.2762 0 0.5024-0.22459 0.4772-0.49958-0.2553-2.7892-2.6255-5.0004-5.4772-5.0004-2.67 0-4.92 1.95-5.4 4.49-0.11 0.52 0.33 1.01 0.87 1.01h4.53z" fill="url(#ap)"/><path d="m10.545 8.5h5c0.2762 0 0.5024-0.22459 0.4772-0.49958-0.2553-2.7892-2.6255-5.0004-5.4772-5.0004-2.67 0-4.92 1.95-5.4 4.49-0.11 0.52 0.33 1.01 0.87 1.01h4.53z" fill="url(#ao)"/><path d="m10.545 8.5h5c0.2762 0 0.5024-0.22459 0.4772-0.49958-0.2553-2.7892-2.6255-5.0004-5.4772-5.0004-2.67 0-4.92 1.95-5.4 4.49-0.11 0.52 0.33 1.01 0.87 1.01h4.53z" fill="url(#an)"/><g filter="url(#ay)"><path d="m28.759 28.01h-24.409c2.6068-3.9697 7.0986-6.59 12.204-6.59s9.5974 2.6203 12.204 6.59z" clip-rule="evenodd" fill="url(#am)" fill-rule="evenodd"/></g><path d="m21.385 8.5h-5c-0.2762 0-0.5024-0.22459-0.4772-0.49958 0.2553-2.7892 2.6255-5.0004 5.4772-5.0004 2.67 0 4.92 1.95 5.4 4.49 0.1 0.53-0.33 1.01-0.87 1.01h-4.53z" fill="url(#al)"/><path d="m21.385 8.5h-5c-0.2762 0-0.5024-0.22459-0.4772-0.49958 0.2553-2.7892 2.6255-5.0004 5.4772-5.0004 2.67 0 4.92 1.95 5.4 4.49 0.1 0.53-0.33 1.01-0.87 1.01h-4.53z" fill="url(#ak)"/><path d="m21.385 8.5h-5c-0.2762 0-0.5024-0.22459-0.4772-0.49958 0.2553-2.7892 2.6255-5.0004 5.4772-5.0004 2.67 0 4.92 1.95 5.4 4.49 0.1 0.53-0.33 1.01-0.87 1.01h-4.53z" fill="url(#aj)"/><path d="m19.175 12.11-2.98-2.98c-0.35-0.35-0.32-0.96 0.09-1.24 1.99-1.36 4.75-1.15 6.51 0.6 1.76 1.76 1.96 4.52 0.6 6.51-0.28 0.41-0.89 0.45-1.24 0.09l-2.98-2.98z" fill="url(#ai)"/><path d="m19.175 12.11-2.98-2.98c-0.35-0.35-0.32-0.96 0.09-1.24 1.99-1.36 4.75-1.15 6.51 0.6 1.76 1.76 1.96 4.52 0.6 6.51-0.28 0.41-0.89 0.45-1.24 0.09l-2.98-2.98z" fill="url(#ah)"/><path d="m19.175 12.11-2.98-2.98c-0.35-0.35-0.32-0.96 0.09-1.24 1.99-1.36 4.75-1.15 6.51 0.6 1.76 1.76 1.96 4.52 0.6 6.51-0.28 0.41-0.89 0.45-1.24 0.09l-2.98-2.98z" fill="url(#ag)"/><path d="m19.175 12.11-2.98-2.98c-0.35-0.35-0.32-0.96 0.09-1.24 1.99-1.36 4.75-1.15 6.51 0.6 1.76 1.76 1.96 4.52 0.6 6.51-0.28 0.41-0.89 0.45-1.24 0.09l-2.98-2.98z" fill="url(#ae)"/><path d="m19.175 12.11-2.98-2.98c-0.35-0.35-0.32-0.96 0.09-1.24 1.99-1.36 4.75-1.15 6.51 0.6 1.76 1.76 1.96 4.52 0.6 6.51-0.28 0.41-0.89 0.45-1.24 0.09l-2.98-2.98z" fill="url(#ad)"/><path d="m12.645 12.18 3.07-3.07c0.36-0.36 0.33-0.99-0.1-1.28-2.05-1.4-4.89-1.19-6.7 0.62-1.81 1.81-2.02 4.66-0.62 6.7 0.29 0.43 0.91 0.46 1.28 0.1l3.07-3.07z" fill="url(#ac)"/><path d="m12.645 12.18 3.07-3.07c0.36-0.36 0.33-0.99-0.1-1.28-2.05-1.4-4.89-1.19-6.7 0.62-1.81 1.81-2.02 4.66-0.62 6.7 0.29 0.43 0.91 0.46 1.28 0.1l3.07-3.07z" fill="url(#ab)"/><path d="m12.645 12.18 3.07-3.07c0.36-0.36 0.33-0.99-0.1-1.28-2.05-1.4-4.89-1.19-6.7 0.62-1.81 1.81-2.02 4.66-0.62 6.7 0.29 0.43 0.91 0.46 1.28 0.1l3.07-3.07z" fill="url(#aa)"/><path d="m12.645 12.18 3.07-3.07c0.36-0.36 0.33-0.99-0.1-1.28-2.05-1.4-4.89-1.19-6.7 0.62-1.81 1.81-2.02 4.66-0.62 6.7 0.29 0.43 0.91 0.46 1.28 0.1l3.07-3.07z" fill="url(#z)"/><path d="m18.455 15.01c1.1045 0 2-0.8954 2-2s-0.8955-2-2-2c-1.1046 0-2 0.8954-2 2s0.8954 2 2 2z" fill="url(#y)"/><path d="m18.455 15.01c1.1045 0 2-0.8954 2-2s-0.8955-2-2-2c-1.1046 0-2 0.8954-2 2s0.8954 2 2 2z" fill="url(#x)"/><path d="m18.455 15.01c1.1045 0 2-0.8954 2-2s-0.8955-2-2-2c-1.1046 0-2 0.8954-2 2s0.8954 2 2 2z" fill="url(#w)"/><path d="m18.455 15.01c1.1045 0 2-0.8954 2-2s-0.8955-2-2-2c-1.1046 0-2 0.8954-2 2s0.8954 2 2 2z" fill="url(#v)"/><path d="m18.455 15.01c1.1045 0 2-0.8954 2-2s-0.8955-2-2-2c-1.1046 0-2 0.8954-2 2s0.8954 2 2 2z" fill="url(#t)"/><path d="m18.455 15.01c1.1045 0 2-0.8954 2-2s-0.8955-2-2-2c-1.1046 0-2 0.8954-2 2s0.8954 2 2 2z" fill="url(#s)"/><g filter="url(#ax)"><path d="m30.489 27.916c0-0.5781-0.3324-0.8706-0.9844-1.1015-0.75-0.2656-1.4637-0.8047-2.6437-0.8047-1.72 0-1.72 1-3.44 1s-1.72-1-3.45-1c-1.72 0-1.72 1-3.45 1-1.72 0-1.72-1-3.45-1-1.72 0-1.72 1-3.44 1-1.72 0-1.72-1-3.45-1-1.38 0-1.94 0.63-2.89 0.88-0.47 0.13-0.8 0.56-0.8 1.04 0 0.6 0.48 1.08 1.08 1.08h25.801c0.8438 0 1.1172-0.6797 1.1172-1.0938z" fill="url(#r)"/></g><g filter="url(#aw)"><path d="m15.646 8.6199-2.5649 2.4051-2.7943-3.4825c2.2466-0.7229 4.3444 0.11817 5.3592 1.0774z" fill="url(#q)"/></g><g filter="url(#av)"><circle cx="18.985" cy="12.783" r=".80922" fill="url(#p)"/></g><g filter="url(#au)"><path d="m18.455 7.7122c0.9146-0.11086 4.0467 0.49891 4.8505 3.2152" stroke="url(#o)" stroke-linecap="round" stroke-width=".5"/></g><g filter="url(#at)"><ellipse transform="rotate(36.536 23.93 5.0181)" cx="23.93" cy="5.0181" rx="1.9171" ry=".60798" fill="url(#n)"/></g><g filter="url(#as)"><ellipse transform="rotate(34.838 12.638 5.1521)" cx="12.638" cy="5.1521" rx="2.0206" ry="1.2127" fill="url(#m)"/></g><path d="m14.475 12.99c1.099 0 1.99-0.8909 1.99-1.99 0-1.099-0.891-1.99-1.99-1.99-1.0991 0-1.99 0.89095-1.99 1.99 0 1.0991 0.8909 1.99 1.99 1.99z" fill="url(#l)"/><path d="m14.475 12.99c1.099 0 1.99-0.8909 1.99-1.99 0-1.099-0.891-1.99-1.99-1.99-1.0991 0-1.99 0.89095-1.99 1.99 0 1.0991 0.8909 1.99 1.99 1.99z" fill="url(#k)"/><path d="m14.475 12.99c1.099 0 1.99-0.8909 1.99-1.99 0-1.099-0.891-1.99-1.99-1.99-1.0991 0-1.99 0.89095-1.99 1.99 0 1.0991 0.8909 1.99 1.99 1.99z" fill="url(#i)"/><path d="m14.475 12.99c1.099 0 1.99-0.8909 1.99-1.99 0-1.099-0.891-1.99-1.99-1.99-1.0991 0-1.99 0.89095-1.99 1.99 0 1.0991 0.8909 1.99 1.99 1.99z" fill="url(#h)"/><g filter="url(#ar)"><ellipse transform="rotate(-28.298 15.229 10.432)" cx="15.229" cy="10.432" rx=".76138" ry=".83477" fill="url(#g)"/></g><defs><filter id="ay" x="4.3506" y="21.42" width="24.559" height="6.74" color-interpolation-filters="sRGB" filterUnits="userSpaceOnUse"><feFlood flood-opacity="0" result="BackgroundImageFix"/><feBlend in="SourceGraphic" in2="BackgroundImageFix" result="shape"/><feColorMatrix in="SourceAlpha" result="hardAlpha" values="0 0 0 0 0 0 0 0 0 0 0 0 0 0 0 0 0 0 127 0"/><feOffset dx="0.15" dy="0.15"/><feGaussianBlur stdDeviation="0.25"/><feComposite in2="hardAlpha" k2="-1" k3="1" operator="arithmetic"/><feColorMatrix values="0 0 0 0 0.858824 0 0 0 0 0.611765 0 0 0 0 0.545098 0 0 0 1 0"/><feBlend in2="shape" result="effect1_innerShadow_18_5248"/></filter><filter id="ax" x="1.991" y="25.76" width="28.748" height="3.25" color-interpolation-filters="sRGB" filterUnits="userSpaceOnUse"><feFlood flood-opacity="0" result="BackgroundImageFix"/><feBlend in="SourceGraphic" in2="BackgroundImageFix" result="shape"/><feColorMatrix in="SourceAlpha" result="hardAlpha" values="0 0 0 0 0 0 0 0 0 0 0 0 0 0 0 0 0 0 127 0"/><feOffset dx="-0.5"/><feGaussianBlur stdDeviation="0.375"/><feComposite in2="hardAlpha" k2="-1" k3="1" operator="arithmetic"/><feColorMatrix values="0 0 0 0 0.572549 0 0 0 0 0.952941 0 0 0 0 1 0 0 0 1 0"/><feBlend in2="shape" result="effect1_innerShadow_18_5248"/><feColorMatrix in="SourceAlpha" result="hardAlpha" values="0 0 0 0 0 0 0 0 0 0 0 0 0 0 0 0 0 0 127 0"/><feOffset dx="0.25" dy="-0.25"/><feGaussianBlur stdDeviation="0.375"/><feComposite in2="hardAlpha" k2="-1" k3="1" operator="arithmetic"/><feColorMatrix values="0 0 0 0 0.341176 0 0 0 0 0.411765 0 0 0 0 0.952941 0 0 0 1 0"/><feBlend in2="effect1_innerShadow_18_5248" result="effect2_innerShadow_18_5248"/></filter><filter id="aw" x="9.7866" y="6.7704" width="6.3592" height="4.7546" color-interpolation-filters="sRGB" filterUnits="userSpaceOnUse"><feFlood flood-opacity="0" result="BackgroundImageFix"/><feBlend in="SourceGraphic" in2="BackgroundImageFix" result="shape"/><feGaussianBlur result="effect1_foregroundBlur_18_5248" stdDeviation="0.25"/></filter><filter id="av" x="17.176" y="10.974" width="3.6184" height="3.6184" color-interpolation-filters="sRGB" filterUnits="userSpaceOnUse"><feFlood flood-opacity="0" result="BackgroundImageFix"/><feBlend in="SourceGraphic" in2="BackgroundImageFix" result="shape"/><feGaussianBlur result="effect1_foregroundBlur_18_5248" stdDeviation="0.5"/></filter><filter id="au" x="17.705" y="6.9501" width="6.3506" height="4.7274" color-interpolation-filters="sRGB" filterUnits="userSpaceOnUse"><feFlood flood-opacity="0" result="BackgroundImageFix"/><feBlend in="SourceGraphic" in2="BackgroundImageFix" result="shape"/><feGaussianBlur result="effect1_foregroundBlur_18_5248" stdDeviation="0.25"/></filter><filter id="at" x="21.598" y="3.0264" width="4.6653" height="3.9835" color-interpolation-filters="sRGB" filterUnits="userSpaceOnUse"><feFlood flood-opacity="0" result="BackgroundImageFix"/><feBlend in="SourceGraphic" in2="BackgroundImageFix" result="shape"/><feGaussianBlur result="effect1_foregroundBlur_18_5248" stdDeviation="0.375"/></filter><filter id="as" x="10.09" y="2.8779" width="5.0956" height="4.5483" color-interpolation-filters="sRGB" filterUnits="userSpaceOnUse"><feFlood flood-opacity="0" result="BackgroundImageFix"/><feBlend in="SourceGraphic" in2="BackgroundImageFix" result="shape"/><feGaussianBlur result="effect1_foregroundBlur_18_5248" stdDeviation="0.375"/></filter><filter id="ar" x="13.45" y="8.6132" width="3.5572" height="3.6381" color-interpolation-filters="sRGB" filterUnits="userSpaceOnUse"><feFlood flood-opacity="0" result="BackgroundImageFix"/><feBlend in="SourceGraphic" in2="BackgroundImageFix" result="shape"/><feGaussianBlur result="effect1_foregroundBlur_18_5248" stdDeviation="0.5"/></filter><linearGradient id="aq" x1="13.996" x2="18.985" y1="17.418" y2="17.418" gradientUnits="userSpaceOnUse"><stop stop-color="#56322E" offset="0"/><stop stop-color="#7E4D54" offset=".47604"/><stop stop-color="#906C65" offset="1"/></linearGradient><linearGradient id="af" x1="17.796" x2="17.608" y1="10.126" y2="15.461" gradientUnits="userSpaceOnUse"><stop stop-color="#734951" offset="0"/><stop stop-color="#734951" stop-opacity="0" offset="1"/></linearGradient><radialGradient id="u" cx="0" cy="0" r="1" gradientTransform="translate(16.808 9.2414) rotate(61.689) scale(4.3411 1.2602)" gradientUnits="userSpaceOnUse"><stop stop-color="#4B2231" offset="0"/><stop stop-color="#4B2231" stop-opacity="0" offset="1"/></radialGradient><radialGradient id="j" cx="0" cy="0" r="1" gradientTransform="translate(16.49 9.1005) rotate(134.89) scale(4.6986 .94441)" gradientUnits="userSpaceOnUse"><stop stop-color="#4B2231" offset="0"/><stop stop-color="#4B2231" stop-opacity="0" offset="1"/></radialGradient><radialGradient id="f" cx="0" cy="0" r="1" gradientTransform="translate(16.808 12.042) rotate(118.38) scale(3.5031 2.5085)" gradientUnits="userSpaceOnUse"><stop stop-color="#422026" offset="0"/><stop stop-color="#422026" stop-opacity="0" offset="1"/></radialGradient><radialGradient id="e" cx="0" cy="0" r="1" gradientTransform="translate(16.965 21.697) rotate(-90) scale(1.6875 5.5)" gradientUnits="userSpaceOnUse"><stop stop-color="#733629" offset="0"/><stop stop-color="#733629" stop-opacity="0" offset="1"/></radialGradient><radialGradient id="d" cx="0" cy="0" r="1" gradientTransform="translate(17.059 14.354) rotate(90) scale(3.3438 1.75)" gradientUnits="userSpaceOnUse"><stop stop-color="#63353B" offset="0"/><stop stop-color="#63353B" stop-opacity="0" offset="1"/></radialGradient><radialGradient id="c" cx="0" cy="0" r="1" gradientTransform="translate(12.441 4.9893) rotate(91.398) scale(4.6822 10.802)" gradientUnits="userSpaceOnUse"><stop stop-color="#9ED141" offset="0"/><stop stop-color="#799D4B" offset="1"/></radialGradient><radialGradient id="b" cx="0" cy="0" r="1" gradientTransform="translate(11.302 6.1318) rotate(90) scale(2.3681 6.1743)" gradientUnits="userSpaceOnUse"><stop stop-color="#9AC644" offset="0"/><stop stop-color="#9AC644" stop-opacity="0" offset="1"/></radialGradient><linearGradient id="a" x1="15.765" x2="14.47" y1="8.7856" y2="6.6565" gradientUnits="userSpaceOnUse"><stop stop-color="#5D9501" offset="0"/><stop stop-color="#5D9501" stop-opacity="0" offset="1"/></linearGradient><linearGradient id="ap" x1="9.2904" x2="9.2904" y1="8.8961" y2="7.9378" gradientUnits="userSpaceOnUse"><stop stop-color="#9C99A6" offset="0"/><stop stop-color="#9C99A6" stop-opacity="0" offset="1"/></linearGradient><radialGradient id="ao" cx="0" cy="0" r="1" gradientTransform="translate(9.7895 8.5) rotate(160.98) scale(3.6798 1.4784)" gradientUnits="userSpaceOnUse"><stop stop-color="#66981B" offset="0"/><stop stop-color="#66981B" stop-opacity="0" offset="1"/></radialGradient><radialGradient id="an" cx="0" cy="0" r="1" gradientTransform="translate(12.457 7.5162) rotate(176.38) scale(7.9967 6.6262)" gradientUnits="userSpaceOnUse"><stop stop-color="#82AB5A" stop-opacity="0" offset=".74655"/><stop stop-color="#82AB5A" offset=".98436"/></radialGradient><radialGradient id="am" cx="0" cy="0" r="1" gradientTransform="translate(24.277 25.947) rotate(180) scale(12.562 10.684)" gradientUnits="userSpaceOnUse"><stop stop-color="#FFC351" offset="0"/><stop stop-color="#F07B4C" offset="1"/></radialGradient><radialGradient id="al" cx="0" cy="0" r="1" gradientTransform="translate(25.557 6.5835) rotate(180) scale(12.955 13.635)" gradientUnits="userSpaceOnUse"><stop stop-color="#A3D350" offset="0"/><stop stop-color="#679E15" offset="1"/></radialGradient><radialGradient id="ak" cx="0" cy="0" r="1" gradientTransform="translate(24.929 5.9053) rotate(180) scale(7.3919 4.1779)" gradientUnits="userSpaceOnUse"><stop stop-color="#A3CF56" offset="0"/><stop stop-color="#A3CF56" stop-opacity="0" offset="1"/></radialGradient><linearGradient id="aj" x1="23.822" x2="23.822" y1="9.2504" y2="7.9694" gradientUnits="userSpaceOnUse"><stop stop-color="#95A096" offset="0"/><stop stop-color="#95A096" stop-opacity="0" offset="1"/></linearGradient><radialGradient id="ai" cx="0" cy="0" r="1" gradientTransform="translate(21.835 9.4159) rotate(136.12) scale(3.6315 6.309)" gradientUnits="userSpaceOnUse"><stop stop-color="#74A550" offset="0"/><stop stop-color="#517D2A" offset="1"/></radialGradient><radialGradient id="ah" cx="0" cy="0" r="1" gradientTransform="translate(19.612 13.438) rotate(-47.762) scale(1.8 7.4097)" gradientUnits="userSpaceOnUse"><stop stop-color="#576043" offset="0"/><stop stop-color="#576043" stop-opacity="0" offset="1"/></radialGradient><radialGradient id="ag" cx="0" cy="0" r="1" gradientTransform="translate(13.933 7.7871) rotate(30.391) scale(12 11.108)" gradientUnits="userSpaceOnUse"><stop stop-color="#6C9543" stop-opacity="0" offset=".75658"/><stop stop-color="#6C9543" offset="1"/></radialGradient><radialGradient id="ae" cx="0" cy="0" r="1" gradientTransform="translate(18.785 11.723) rotate(256.77) scale(2.1042 1.0655)" gradientUnits="userSpaceOnUse"><stop stop-color="#3E6A0C" offset="0"/><stop stop-color="#3E6A0C" stop-opacity="0" offset="1"/></radialGradient><linearGradient id="ad" x1="18.944" x2="19.631" y1="12.397" y2="11.709" gradientUnits="userSpaceOnUse"><stop stop-color="#394B28" offset="0"/><stop stop-color="#394B28" stop-opacity="0" offset="1"/></linearGradient><radialGradient id="ac" cx="0" cy="0" r="1" gradientTransform="translate(13.654 10.305) rotate(118.59) scale(7.033 6.3869)" gradientUnits="userSpaceOnUse"><stop stop-color="#65943F" offset="0"/><stop stop-color="#4C712C" offset="1"/></radialGradient><radialGradient id="ab" cx="0" cy="0" r="1" gradientTransform="translate(12.26 11.207) rotate(134.65) scale(3.9506 1.1904)" gradientUnits="userSpaceOnUse"><stop stop-color="#69785C" offset="0"/><stop stop-color="#69785C" stop-opacity="0" offset="1"/></radialGradient><radialGradient id="aa" cx="0" cy="0" r="1" gradientTransform="translate(13.174 11.06) rotate(133.79) scale(2.1709 2.054)" gradientUnits="userSpaceOnUse"><stop stop-color="#4E5E45" offset="0"/><stop stop-color="#4E5E45" stop-opacity="0" offset="1"/></radialGradient><linearGradient id="z" x1="11.901" x2="11.615" y1="12.555" y2="12.294" gradientUnits="userSpaceOnUse"><stop stop-color="#617247" offset="0"/><stop stop-color="#617247" stop-opacity="0" offset="1"/></linearGradient><radialGradient id="y" cx="0" cy="0" r="1" gradientTransform="translate(18.979 13.01) rotate(130.62) scale(2.9519 3.725)" gradientUnits="userSpaceOnUse"><stop stop-color="#B97056" offset="0"/><stop stop-color="#82582F" offset="1"/></radialGradient><radialGradient id="x" cx="0" cy="0" r="1" gradientTransform="translate(18.072 15.01) rotate(-83.415) scale(2.1801 2.3935)" gradientUnits="userSpaceOnUse"><stop stop-color="#B5547D" offset="0"/><stop stop-color="#B5547D" stop-opacity="0" offset="1"/></radialGradient><radialGradient id="w" cx="0" cy="0" r="1" gradientTransform="translate(19.487 14.899) rotate(234.34) scale(.44229 1.4276)" gradientUnits="userSpaceOnUse"><stop stop-color="#AD619B" offset="0"/><stop stop-color="#AD619B" stop-opacity="0" offset="1"/></radialGradient><radialGradient id="v" cx="0" cy="0" r="1" gradientTransform="translate(16.494 14.282) rotate(-32.905) scale(.63276 1.0437)" gradientUnits="userSpaceOnUse"><stop stop-color="#AD619B" offset="0"/><stop stop-color="#AD619B" stop-opacity="0" offset="1"/></radialGradient><radialGradient id="t" cx="0" cy="0" r="1" gradientTransform="translate(16.709 14.405) rotate(-33.947) scale(4.5157 4.0109)" gradientUnits="userSpaceOnUse"><stop stop-color="#AC794F" stop-opacity="0" offset=".81713"/><stop stop-color="#AC794F" offset="1"/></radialGradient><radialGradient id="s" cx="0" cy="0" r="1" gradientTransform="translate(16.455 12.088) rotate(90) scale(1.5919 .53915)" gradientUnits="userSpaceOnUse"><stop stop-color="#893E2F" offset="0"/><stop stop-color="#893E2F" stop-opacity="0" offset="1"/></radialGradient><linearGradient id="r" x1="3.59" x2="30.028" y1="29.01" y2="29.01" gradientUnits="userSpaceOnUse"><stop stop-color="#5884FF" offset="0"/><stop stop-color="#6DD5FF" offset="1"/></linearGradient><linearGradient id="q" x1="14.485" x2="11.288" y1="8.745" y2="9.3845" gradientUnits="userSpaceOnUse"><stop stop-color="#7C9D5A" offset="0"/><stop stop-color="#7C9D5A" stop-opacity="0" offset="1"/></linearGradient><radialGradient id="p" cx="0" cy="0" r="1" gradientTransform="translate(19.375 12.598) rotate(151.44) scale(2.3708)" gradientUnits="userSpaceOnUse"><stop stop-color="#D79F87" offset="0"/><stop stop-color="#D79F87" stop-opacity="0" offset="1"/></radialGradient><radialGradient id="o" cx="0" cy="0" r="1" gradientTransform="translate(21.864 8.2111) rotate(132.06) scale(1.5307 4.6002)" gradientUnits="userSpaceOnUse"><stop stop-color="#80B35C" offset="0"/><stop stop-color="#80B35C" stop-opacity="0" offset="1"/></radialGradient><radialGradient id="n" cx="0" cy="0" r="1" gradientTransform="translate(25.78 4.8297) rotate(182.12) scale(3.5493 .66058)" gradientUnits="userSpaceOnUse"><stop stop-color="#C0EF77" offset="0"/><stop stop-color="#C0EF77" stop-opacity="0" offset="1"/></radialGradient><radialGradient id="m" cx="0" cy="0" r="1" gradientTransform="translate(15.465 4.8437) rotate(172.73) scale(4.9633 1.7411)" gradientUnits="userSpaceOnUse"><stop stop-color="#B8E172" offset="0"/><stop stop-color="#B8E172" stop-opacity="0" offset="1"/></radialGradient><radialGradient id="l" cx="0" cy="0" r="1" gradientTransform="translate(14.996 11) rotate(130.62) scale(2.9371 3.7064)" gradientUnits="userSpaceOnUse"><stop stop-color="#AA674F" offset="0"/><stop stop-color="#82582F" offset="1"/></radialGradient><radialGradient id="k" cx="0" cy="0" r="1" gradientTransform="translate(14.094 12.99) rotate(-83.415) scale(2.1692 2.3815)" gradientUnits="userSpaceOnUse"><stop stop-color="#AC4D77" offset="0"/><stop stop-color="#AC4D77" stop-opacity="0" offset="1"/></radialGradient><radialGradient id="i" cx="0" cy="0" r="1" gradientTransform="translate(13.846 13.058) rotate(-72.255) scale(.40809 .9365)" gradientUnits="userSpaceOnUse"><stop stop-color="#AD619B" offset="0"/><stop stop-color="#AD619B" stop-opacity="0" offset="1"/></radialGradient><radialGradient id="h" cx="0" cy="0" r="1" gradientTransform="translate(12.738 12.388) rotate(-33.947) scale(4.4931 3.9908)" gradientUnits="userSpaceOnUse"><stop stop-color="#AC794F" stop-opacity="0" offset=".77324"/><stop stop-color="#AC794F" offset="1"/></radialGradient><radialGradient id="g" cx="0" cy="0" r="1" gradientTransform="translate(15.596 10.242) rotate(149.17) scale(2.2816 2.3911)" gradientUnits="userSpaceOnUse"><stop stop-color="#D79F87" offset="0"/><stop stop-color="#D79F87" stop-opacity="0" offset="1"/></radialGradient></defs></svg>
