<svg fill="none" viewBox="0 0 32 32" xmlns="http://www.w3.org/2000/svg"><path d="m22.516 12.435c-0.28 0-0.5-0.22-0.5-0.5s0.22-0.5 0.5-0.5c2.11 0 3.83-1.72 3.83-3.83 0-0.28 0.22-0.5 0.5-0.5s0.5 0.22 0.5 0.5c-0.01 2.66-2.17 4.83-4.83 4.83z" fill="url(#bn)"/><g filter="url(#bw)"><path d="m26.402 9.5391c-0.323 0.59894-1.1672 1.7828-2.5547 2.1328" stroke="#908C9B" stroke-linecap="round" stroke-width=".25"/></g><path d="m27.176 9.2752c1.3807 0 2.5-1.1193 2.5-2.5 0-1.3807-1.1193-2.5-2.5-2.5s-2.5 1.1193-2.5 2.5c0 1.3807 1.1193 2.5 2.5 2.5z" fill="url(#bc)"/><path d="m27.176 9.2752c1.3807 0 2.5-1.1193 2.5-2.5 0-1.3807-1.1193-2.5-2.5-2.5s-2.5 1.1193-2.5 2.5c0 1.3807 1.1193 2.5 2.5 2.5z" fill="url(#ar)"/><path d="m27.176 9.2752c1.3807 0 2.5-1.1193 2.5-2.5 0-1.3807-1.1193-2.5-2.5-2.5s-2.5 1.1193-2.5 2.5c0 1.3807 1.1193 2.5 2.5 2.5z" fill="url(#ag)"/><path d="m27.176 9.2752c1.3807 0 2.5-1.1193 2.5-2.5 0-1.3807-1.1193-2.5-2.5-2.5s-2.5 1.1193-2.5 2.5c0 1.3807 1.1193 2.5 2.5 2.5z" fill="url(#v)"/><path d="m27.176 9.2752c1.3807 0 2.5-1.1193 2.5-2.5 0-1.3807-1.1193-2.5-2.5-2.5s-2.5 1.1193-2.5 2.5c0 1.3807 1.1193 2.5 2.5 2.5z" fill="url(#k)"/><path d="m18.676 16.275v2.87c0 1.27 0.77 2.42 1.95 2.9l2.71 1.1c0.2 0.08 0.33 0.28 0.33 0.49v5.33c0 0.17 0.14 0.31 0.31 0.31h1.38c0.17 0 0.31-0.14 0.31-0.31v-6.08c0-0.37-0.21-0.71-0.54-0.88l-1.12-0.57c-0.2-0.11-0.33-0.33-0.33-0.56v-4.6h-5z" fill="url(#d)"/><path d="m18.676 16.275v2.87c0 1.27 0.77 2.42 1.95 2.9l2.71 1.1c0.2 0.08 0.33 0.28 0.33 0.49v5.33c0 0.17 0.14 0.31 0.31 0.31h1.38c0.17 0 0.31-0.14 0.31-0.31v-6.08c0-0.37-0.21-0.71-0.54-0.88l-1.12-0.57c-0.2-0.11-0.33-0.33-0.33-0.56v-4.6h-5z" fill="url(#c)"/><path d="m18.676 16.275v2.87c0 1.27 0.77 2.42 1.95 2.9l2.71 1.1c0.2 0.08 0.33 0.28 0.33 0.49v5.33c0 0.17 0.14 0.31 0.31 0.31h1.38c0.17 0 0.31-0.14 0.31-0.31v-6.08c0-0.37-0.21-0.71-0.54-0.88l-1.12-0.57c-0.2-0.11-0.33-0.33-0.33-0.56v-4.6h-5z" fill="url(#b)"/><path d="m18.676 16.275v2.87c0 1.27 0.77 2.42 1.95 2.9l2.71 1.1c0.2 0.08 0.33 0.28 0.33 0.49v5.33c0 0.17 0.14 0.31 0.31 0.31h1.38c0.17 0 0.31-0.14 0.31-0.31v-6.08c0-0.37-0.21-0.71-0.54-0.88l-1.12-0.57c-0.2-0.11-0.33-0.33-0.33-0.56v-4.6h-5z" fill="url(#a)"/><path d="m18.676 16.275v2.87c0 1.27 0.77 2.42 1.95 2.9l2.71 1.1c0.2 0.08 0.33 0.28 0.33 0.49v5.33c0 0.17 0.14 0.31 0.31 0.31h1.38c0.17 0 0.31-0.14 0.31-0.31v-6.08c0-0.37-0.21-0.71-0.54-0.88l-1.12-0.57c-0.2-0.11-0.33-0.33-0.33-0.56v-4.6h-5z" fill="url(#bm)"/><path d="m24.676 28.275c1.1046 0 2-0.8954 2-2 0-1.1045-0.8954-2-2-2s-2 0.8955-2 2c0 1.1046 0.8954 2 2 2z" fill="url(#bl)"/><path d="m24.676 28.275c1.1046 0 2-0.8954 2-2 0-1.1045-0.8954-2-2-2s-2 0.8955-2 2c0 1.1046 0.8954 2 2 2z" fill="url(#bk)"/><path d="m24.676 28.275c1.1046 0 2-0.8954 2-2 0-1.1045-0.8954-2-2-2s-2 0.8955-2 2c0 1.1046 0.8954 2 2 2z" fill="url(#bj)"/><path d="m24.676 28.275c1.1046 0 2-0.8954 2-2 0-1.1045-0.8954-2-2-2s-2 0.8955-2 2c0 1.1046 0.8954 2 2 2z" fill="url(#bi)"/><path d="m24.676 28.275c1.1046 0 2-0.8954 2-2 0-1.1045-0.8954-2-2-2s-2 0.8955-2 2c0 1.1046 0.8954 2 2 2z" fill="url(#bh)"/><path d="m28.136 21.995-1.12-0.57c-0.21-0.1-0.34-0.32-0.34-0.55v-6.36c0-1.79-1.45-3.24-3.24-3.24h-16.76v7h12.84c0.8614 0 1.4683-0.3979 1.8386-1.1489 0.0537-0.1088 0.3214-0.0685 0.3214 0.0529v1.966c0 1.27 0.77 2.42 1.95 2.9l2.71 1.1c0.2 0.08 0.33 0.28 0.33 0.49v5.33c0 0.17 0.14 0.31 0.31 0.31h1.38c0.17 0 0.31-0.14 0.31-0.31v-6.08c0.01-0.38-0.2-0.72-0.53-0.89z" fill="url(#bg)"/><path d="m28.136 21.995-1.12-0.57c-0.21-0.1-0.34-0.32-0.34-0.55v-6.36c0-1.79-1.45-3.24-3.24-3.24h-16.76v7h12.84c0.8614 0 1.4683-0.3979 1.8386-1.1489 0.0537-0.1088 0.3214-0.0685 0.3214 0.0529v1.966c0 1.27 0.77 2.42 1.95 2.9l2.71 1.1c0.2 0.08 0.33 0.28 0.33 0.49v5.33c0 0.17 0.14 0.31 0.31 0.31h1.38c0.17 0 0.31-0.14 0.31-0.31v-6.08c0.01-0.38-0.2-0.72-0.53-0.89z" fill="url(#bf)"/><g filter="url(#bv)"><path d="m22.472 11.978h-6.4725v5.0781h3.2761c0.8499 0 1.607-0.5371 1.8877-1.3393l1.3087-3.7388z" fill="url(#be)"/></g><path d="m21.519 17.064v-1.0642h-6.1875v2.2751h4.1838c0.8614 0 1.4683-0.398 1.8386-1.149 0.0249-0.0505 0.0961-0.0689 0.1651-0.0619z" fill="url(#bd)"/><g filter="url(#bu)"><path d="m23.837 12.305c0.6055 0.0796 1.8164 0.6692 1.8164 2.3899v6.2361c0 0.3818 0.2174 0.7293 0.5604 0.8972l1.1256 0.5508c0.343 0.1679 0.5605 0.5164 0.5605 0.8982v2.1484" stroke="url(#bb)" stroke-width=".65"/></g><path d="m6.6756 7.2752-0.75 2.26c-0.15 0.44-0.56 0.73995-1.03 0.73995h-2.72c-0.27 0-0.5 0.22-0.5 0.49-0.01 1.38 1.12 2.51 2.5 2.51h7.5v-6h-5z" fill="url(#ba)"/><path d="m6.6756 7.2752-0.75 2.26c-0.15 0.44-0.56 0.73995-1.03 0.73995h-2.72c-0.27 0-0.5 0.22-0.5 0.49-0.01 1.38 1.12 2.51 2.5 2.51h7.5v-6h-5z" fill="url(#az)"/><path d="m6.6756 7.2752-0.75 2.26c-0.15 0.44-0.56 0.73995-1.03 0.73995h-2.72c-0.27 0-0.5 0.22-0.5 0.49-0.01 1.38 1.12 2.51 2.5 2.51h7.5v-6h-5z" fill="url(#ay)"/><path d="m6.6756 7.2752-0.75 2.26c-0.15 0.44-0.56 0.73995-1.03 0.73995h-2.72c-0.27 0-0.5 0.22-0.5 0.49-0.01 1.38 1.12 2.51 2.5 2.51h7.5v-6h-5z" fill="url(#ax)"/><path d="m6.6756 7.2752-0.75 2.26c-0.15 0.44-0.56 0.73995-1.03 0.73995h-2.72c-0.27 0-0.5 0.22-0.5 0.49-0.01 1.38 1.12 2.51 2.5 2.51h7.5v-6h-5z" fill="url(#aw)"/><path d="m2.6756 11.275h-0.5c-0.28 0-0.5-0.22-0.5-0.5s0.22-0.5 0.5-0.5h0.5c0.28 0 0.5 0.22 0.5 0.5s-0.22 0.5-0.5 0.5z" fill="url(#av)"/><path d="m2.6756 11.275h-0.5c-0.28 0-0.5-0.22-0.5-0.5s0.22-0.5 0.5-0.5h0.5c0.28 0 0.5 0.22 0.5 0.5s-0.22 0.5-0.5 0.5z" fill="url(#au)"/><path d="m12.676 20.656h-2v8.3089c0 0.17 0.14 0.31 0.31 0.31h1.38c0.17 0 0.31-0.14 0.31-0.31v-8.3089z" fill="url(#at)"/><path d="m12.676 20.656h-2v8.3089c0 0.17 0.14 0.31 0.31 0.31h1.38c0.17 0 0.31-0.14 0.31-0.31v-8.3089z" fill="url(#as)"/><path d="m12.676 20.656h-2v8.3089c0 0.17 0.14 0.31 0.31 0.31h1.38c0.17 0 0.31-0.14 0.31-0.31v-8.3089z" fill="url(#aq)"/><g filter="url(#bt)"><rect x="11.676" y="21.922" width=".53125" height="6.9219" fill="url(#ap)"/></g><path d="m14.326 9.2752c-0.35 0-0.64-0.28-0.64-0.63l-0.01-3.9c-0.02-1.37-1.13-2.47-2.5-2.47-0.97 0-1.82 0.56-2.23 1.37-0.19 0.38-0.58 0.63-1 0.63h-1.27c-1.1 0-2 0.9-2 2s0.9 2 2 2h4.25c0.41 0 0.75 0.34 0.75 0.75l0.02 4.25h-5.53c-0.85 0-1.57 0.64-1.68 1.48l-0.31 2.5c-0.26 2.14 1.4 4.02 3.55 4.02h4.26c2.59 0 4.69-2.1 4.69-4.69v-4.95c0-1.3-1.05-2.36-2.35-2.36z" fill="url(#ao)"/><path d="m14.326 9.2752c-0.35 0-0.64-0.28-0.64-0.63l-0.01-3.9c-0.02-1.37-1.13-2.47-2.5-2.47-0.97 0-1.82 0.56-2.23 1.37-0.19 0.38-0.58 0.63-1 0.63h-1.27c-1.1 0-2 0.9-2 2s0.9 2 2 2h4.25c0.41 0 0.75 0.34 0.75 0.75l0.02 4.25h-5.53c-0.85 0-1.57 0.64-1.68 1.48l-0.31 2.5c-0.26 2.14 1.4 4.02 3.55 4.02h4.26c2.59 0 4.69-2.1 4.69-4.69v-4.95c0-1.3-1.05-2.36-2.35-2.36z" fill="url(#an)"/><path d="m14.326 9.2752c-0.35 0-0.64-0.28-0.64-0.63l-0.01-3.9c-0.02-1.37-1.13-2.47-2.5-2.47-0.97 0-1.82 0.56-2.23 1.37-0.19 0.38-0.58 0.63-1 0.63h-1.27c-1.1 0-2 0.9-2 2s0.9 2 2 2h4.25c0.41 0 0.75 0.34 0.75 0.75l0.02 4.25h-5.53c-0.85 0-1.57 0.64-1.68 1.48l-0.31 2.5c-0.26 2.14 1.4 4.02 3.55 4.02h4.26c2.59 0 4.69-2.1 4.69-4.69v-4.95c0-1.3-1.05-2.36-2.35-2.36z" fill="url(#am)"/><path d="m14.326 9.2752c-0.35 0-0.64-0.28-0.64-0.63l-0.01-3.9c-0.02-1.37-1.13-2.47-2.5-2.47-0.97 0-1.82 0.56-2.23 1.37-0.19 0.38-0.58 0.63-1 0.63h-1.27c-1.1 0-2 0.9-2 2s0.9 2 2 2h4.25c0.41 0 0.75 0.34 0.75 0.75l0.02 4.25h-5.53c-0.85 0-1.57 0.64-1.68 1.48l-0.31 2.5c-0.26 2.14 1.4 4.02 3.55 4.02h4.26c2.59 0 4.69-2.1 4.69-4.69v-4.95c0-1.3-1.05-2.36-2.35-2.36z" fill="url(#al)"/><path d="m14.326 9.2752c-0.35 0-0.64-0.28-0.64-0.63l-0.01-3.9c-0.02-1.37-1.13-2.47-2.5-2.47-0.97 0-1.82 0.56-2.23 1.37-0.19 0.38-0.58 0.63-1 0.63h-1.27c-1.1 0-2 0.9-2 2s0.9 2 2 2h4.25c0.41 0 0.75 0.34 0.75 0.75l0.02 4.25h-5.53c-0.85 0-1.57 0.64-1.68 1.48l-0.31 2.5c-0.26 2.14 1.4 4.02 3.55 4.02h4.26c2.59 0 4.69-2.1 4.69-4.69v-4.95c0-1.3-1.05-2.36-2.35-2.36z" fill="url(#ak)"/><path d="m14.326 9.2752c-0.35 0-0.64-0.28-0.64-0.63l-0.01-3.9c-0.02-1.37-1.13-2.47-2.5-2.47-0.97 0-1.82 0.56-2.23 1.37-0.19 0.38-0.58 0.63-1 0.63h-1.27c-1.1 0-2 0.9-2 2s0.9 2 2 2h4.25c0.41 0 0.75 0.34 0.75 0.75l0.02 4.25h-5.53c-0.85 0-1.57 0.64-1.68 1.48l-0.31 2.5c-0.26 2.14 1.4 4.02 3.55 4.02h4.26c2.59 0 4.69-2.1 4.69-4.69v-4.95c0-1.3-1.05-2.36-2.35-2.36z" fill="url(#aj)"/><path d="m13.685 8.2752-9e-3 -3.53c-0.02-1.37-1.13-2.47-2.5-2.47-0.97 0-1.82 0.56-2.23 1.37-0.19 0.38-0.58 0.63-1 0.63h-1.27c-1.1 0-2 0.9-2 2s0.9 2 2 2h4.25 2.759z" fill="url(#ai)"/><path d="m8.7425 3.9314c-0.20782 0.21425-0.49456 0.34375-0.79684 0.34375h-1.27c-1.1 0-2 0.9-2 2s0.9 2 2 2h4.6406l0.4062 1.389 1.0313 0.25-0.7969-2.6797-0.7813-3.3031h-2.4331z" fill="url(#ah)"/><path d="m8.7425 3.9314c-0.20782 0.21425-0.49456 0.34375-0.79684 0.34375h-1.27c-1.1 0-2 0.9-2 2s0.9 2 2 2h4.6406l0.4062 1.389 1.0313 0.25-0.7969-2.6797-0.7813-3.3031h-2.4331z" fill="url(#af)"/><path d="m13.546 12.965-0.9-3.53c-0.16-0.66-0.76-1.16-1.47-1.16s-1.31 0.5-1.46 1.16l-0.91 3.53h0.01c-0.09 0.25-0.14 0.53-0.14 0.81 0 1.38 1.12 2.5 2.5 2.5s2.5-1.12 2.5-2.5c0-0.28-0.05-0.55-0.13-0.81z" fill="url(#ae)"/><g filter="url(#bs)"><path d="m10.655 13.444h-2.3465c0.00493 0 0.00833 0.0049 0.00659 0.0095-0.08958 0.2378-0.13927 0.5033-0.13927 0.7688 0 1.3261 1.1431 2.4023 2.5516 2.4023 1.4086 0 2.5517-1.0762 2.5517-2.4023 0-0.269-0.051-0.5285-0.1327-0.7783l-0.9186-3.392c-0.1069-0.41519-0.4063-0.76447-0.8036-0.95621l0.0177 3.8953-0.7869 0.4529z" fill="#988E9F"/></g><g filter="url(#br)"><path d="m11.31 3.2812c0.5311 0.01021 1.5933 0.36156 1.5933 1.6852v4.3204c0 0.6769 0.5487 1.2256 1.2256 1.2256v0c0.6769 0 1.2257 0.5487 1.2257 1.2256v4.7102c0 0.6234-0.1942 1.2313-0.5557 1.7393l-0.5781 0.8124" stroke="url(#ad)" stroke-linecap="round" stroke-width=".4"/></g><path d="m13.546 12.965-0.9-3.53c-0.16-0.66-0.76-1.16-1.47-1.16s-1.31 0.5-1.46 1.16l-0.91 3.53h0.01c-0.09 0.25-0.14 0.53-0.14 0.81 0 1.38 1.12 2.5 2.5 2.5s2.5-1.12 2.5-2.5c0-0.28-0.05-0.55-0.13-0.81z" fill="url(#ac)"/><path d="m13.546 12.965-0.9-3.53c-0.16-0.66-0.76-1.16-1.47-1.16s-1.31 0.5-1.46 1.16l-0.91 3.53h0.01c-0.09 0.25-0.14 0.53-0.14 0.81 0 1.38 1.12 2.5 2.5 2.5s2.5-1.12 2.5-2.5c0-0.28-0.05-0.55-0.13-0.81z" fill="url(#ab)"/><path d="m13.546 12.965-0.9-3.53c-0.16-0.66-0.76-1.16-1.47-1.16s-1.31 0.5-1.46 1.16l-0.91 3.53h0.01c-0.09 0.25-0.14 0.53-0.14 0.81 0 1.38 1.12 2.5 2.5 2.5s2.5-1.12 2.5-2.5c0-0.28-0.05-0.55-0.13-0.81z" fill="url(#aa)"/><path d="m13.546 12.965-0.9-3.53c-0.16-0.66-0.76-1.16-1.47-1.16s-1.31 0.5-1.46 1.16l-0.91 3.53h0.01c-0.09 0.25-0.14 0.53-0.14 0.81 0 1.38 1.12 2.5 2.5 2.5s2.5-1.12 2.5-2.5c0-0.28-0.05-0.55-0.13-0.81z" fill="url(#z)"/><path d="m10.676 21.275h-2v7.69c0 0.17 0.14 0.31 0.31 0.31h1.38c0.17 0 0.31-0.14 0.31-0.31v-7.69z" fill="url(#y)"/><path d="m10.676 21.275h-2v7.69c0 0.17 0.14 0.31 0.31 0.31h1.38c0.17 0 0.31-0.14 0.31-0.31v-7.69z" fill="url(#x)"/><path d="m10.676 21.275h-2v7.69c0 0.17 0.14 0.31 0.31 0.31h1.38c0.17 0 0.31-0.14 0.31-0.31v-7.69z" fill="url(#w)"/><path d="m10.676 21.275h-2v7.69c0 0.17 0.14 0.31 0.31 0.31h1.38c0.17 0 0.31-0.14 0.31-0.31v-7.69z" fill="url(#u)"/><path d="m9.8006 28.275c1.1046 0 2-0.8954 2-2 0-1.1045-0.8954-2-2-2-1.1046 0-2 0.8955-2 2 0 1.1046 0.89543 2 2 2z" fill="url(#t)"/><path d="m9.8006 28.275c1.1046 0 2-0.8954 2-2 0-1.1045-0.8954-2-2-2-1.1046 0-2 0.8955-2 2 0 1.1046 0.89543 2 2 2z" fill="url(#s)"/><path d="m9.8006 28.275c1.1046 0 2-0.8954 2-2 0-1.1045-0.8954-2-2-2-1.1046 0-2 0.8955-2 2 0 1.1046 0.89543 2 2 2z" fill="url(#r)"/><path d="m9.8006 28.275c1.1046 0 2-0.8954 2-2 0-1.1045-0.8954-2-2-2-1.1046 0-2 0.8955-2 2 0 1.1046 0.89543 2 2 2z" fill="url(#q)"/><path d="m9.8006 28.275c1.1046 0 2-0.8954 2-2 0-1.1045-0.8954-2-2-2-1.1046 0-2 0.8955-2 2 0 1.1046 0.89543 2 2 2z" fill="url(#p)"/><path d="m11.676 28.275c1.1046 0 2-0.8954 2-2 0-1.1045-0.8954-2-2-2s-2 0.8955-2 2c0 1.1046 0.8954 2 2 2z" fill="url(#o)"/><path d="m11.676 28.275c1.1046 0 2-0.8954 2-2 0-1.1045-0.8954-2-2-2s-2 0.8955-2 2c0 1.1046 0.8954 2 2 2z" fill="url(#n)"/><path d="m11.676 28.275c1.1046 0 2-0.8954 2-2 0-1.1045-0.8954-2-2-2s-2 0.8955-2 2c0 1.1046 0.8954 2 2 2z" fill="url(#m)"/><path d="m27.868 28.275c1.1045 0 2-0.8954 2-2 0-1.1045-0.8955-2-2-2-1.1046 0-2 0.8955-2 2 0 1.1046 0.8954 2 2 2z" fill="url(#l)"/><path d="m27.868 28.275c1.1045 0 2-0.8954 2-2 0-1.1045-0.8955-2-2-2-1.1046 0-2 0.8955-2 2 0 1.1046 0.8954 2 2 2z" fill="url(#j)"/><path d="m27.868 28.275c1.1045 0 2-0.8954 2-2 0-1.1045-0.8955-2-2-2-1.1046 0-2 0.8955-2 2 0 1.1046 0.8954 2 2 2z" fill="url(#i)"/><rect x="7.6756" y="9.2752" width="1" height="2" rx=".5" fill="url(#h)"/><rect x="7.6756" y="9.2752" width="1" height="2" rx=".5" fill="url(#g)"/><g filter="url(#bq)"><path d="m22.379 12.359-0.6406 4.3437 3.625-1.6719c0-1.6406-1.4688-2.6718-2.9844-2.6718z" fill="#9692A3"/></g><g filter="url(#bp)"><circle cx="11.602" cy="4.464" r="1.5672" fill="url(#f)"/></g><g filter="url(#bo)"><rect x="6.4725" y="6.5437" width="5.8906" height="1.4626" rx=".73128" fill="url(#e)"/></g><defs><filter id="bw" x="23.472" y="9.1641" width="3.3047" height="2.8828" color-interpolation-filters="sRGB" filterUnits="userSpaceOnUse"><feFlood flood-opacity="0" result="BackgroundImageFix"/><feBlend in="SourceGraphic" in2="BackgroundImageFix" result="shape"/><feGaussianBlur result="effect1_foregroundBlur_28327_1841" stdDeviation="0.125"/></filter><filter id="bv" x="15" y="10.978" width="8.4725" height="7.0781" color-interpolation-filters="sRGB" filterUnits="userSpaceOnUse"><feFlood flood-opacity="0" result="BackgroundImageFix"/><feBlend in="SourceGraphic" in2="BackgroundImageFix" result="shape"/><feGaussianBlur result="effect1_foregroundBlur_28327_1841" stdDeviation="0.5"/></filter><filter id="bu" x="22.494" y="10.683" width="7.0302" height="16.043" color-interpolation-filters="sRGB" filterUnits="userSpaceOnUse"><feFlood flood-opacity="0" result="BackgroundImageFix"/><feBlend in="SourceGraphic" in2="BackgroundImageFix" result="shape"/><feGaussianBlur result="effect1_foregroundBlur_28327_1841" stdDeviation="0.65"/></filter><filter id="bt" x="11.176" y="21.422" width="1.5312" height="7.9219" color-interpolation-filters="sRGB" filterUnits="userSpaceOnUse"><feFlood flood-opacity="0" result="BackgroundImageFix"/><feBlend in="SourceGraphic" in2="BackgroundImageFix" result="shape"/><feGaussianBlur result="effect1_foregroundBlur_28327_1841" stdDeviation="0.25"/></filter><filter id="bs" x="7.1756" y="8.0962" width="7.1033" height="9.5288" color-interpolation-filters="sRGB" filterUnits="userSpaceOnUse"><feFlood flood-opacity="0" result="BackgroundImageFix"/><feBlend in="SourceGraphic" in2="BackgroundImageFix" result="shape"/><feGaussianBlur result="effect1_foregroundBlur_28327_1841" stdDeviation="0.5"/></filter><filter id="br" x="10.31" y="2.2813" width="6.0446" height="17.719" color-interpolation-filters="sRGB" filterUnits="userSpaceOnUse"><feFlood flood-opacity="0" result="BackgroundImageFix"/><feBlend in="SourceGraphic" in2="BackgroundImageFix" result="shape"/><feGaussianBlur result="effect1_foregroundBlur_28327_1841" stdDeviation="0.4"/></filter><filter id="bq" x="20.738" y="11.359" width="5.625" height="6.3438" color-interpolation-filters="sRGB" filterUnits="userSpaceOnUse"><feFlood flood-opacity="0" result="BackgroundImageFix"/><feBlend in="SourceGraphic" in2="BackgroundImageFix" result="shape"/><feGaussianBlur result="effect1_foregroundBlur_28327_1841" stdDeviation="0.5"/></filter><filter id="bp" x="8.035" y=".89673" width="7.1345" height="7.1345" color-interpolation-filters="sRGB" filterUnits="userSpaceOnUse"><feFlood flood-opacity="0" result="BackgroundImageFix"/><feBlend in="SourceGraphic" in2="BackgroundImageFix" result="shape"/><feGaussianBlur result="effect1_foregroundBlur_28327_1841" stdDeviation="1"/></filter><filter id="bo" x="4.4725" y="4.5437" width="9.8906" height="5.4626" color-interpolation-filters="sRGB" filterUnits="userSpaceOnUse"><feFlood flood-opacity="0" result="BackgroundImageFix"/><feBlend in="SourceGraphic" in2="BackgroundImageFix" result="shape"/><feGaussianBlur result="effect1_foregroundBlur_28327_1841" stdDeviation="1"/></filter><linearGradient id="bn" x1="25.707" x2="26.863" y1="11.25" y2="8.7124" gradientUnits="userSpaceOnUse"><stop stop-color="#8F8B99" offset="0"/><stop stop-color="#6E647D" offset="1"/></linearGradient><radialGradient id="bc" cx="0" cy="0" r="1" gradientTransform="translate(28.301 5.8376) rotate(136.45) scale(5.9504)" gradientUnits="userSpaceOnUse"><stop stop-color="#F0EDF3" offset="0"/><stop stop-color="#A291B4" offset=".9944"/></radialGradient><radialGradient id="ar" cx="0" cy="0" r="1" gradientTransform="translate(28.176 7.2188) rotate(211.61) scale(4.7701 3.85)" gradientUnits="userSpaceOnUse"><stop stop-color="#B3B1B5" stop-opacity="0" offset=".53691"/><stop stop-color="#939196" offset="1"/></radialGradient><radialGradient id="ag" cx="0" cy="0" r="1" gradientTransform="translate(28.863 5.2188) rotate(127.66) scale(5.8818 3.961)" gradientUnits="userSpaceOnUse"><stop stop-color="#B3B1B5" stop-opacity="0" offset=".40508"/><stop stop-color="#939196" offset="1"/></radialGradient><radialGradient id="v" cx="0" cy="0" r="1" gradientTransform="translate(27.019 5.4688) rotate(77.213) scale(4.5183 4.4821)" gradientUnits="userSpaceOnUse"><stop stop-color="#86838A" stop-opacity="0" offset=".7015"/><stop stop-color="#86838A" offset="1"/></radialGradient><radialGradient id="k" cx="0" cy="0" r="1" gradientTransform="translate(28.426 4.9063) rotate(113.69) scale(5.2894 4.9551)" gradientUnits="userSpaceOnUse"><stop stop-color="#B1A0C3" stop-opacity="0" offset=".54075"/><stop stop-color="#B1A0C3" offset=".98394"/></radialGradient><linearGradient id="d" x1="21.98" x2="19.669" y1="23.803" y2="37.627" gradientUnits="userSpaceOnUse"><stop stop-color="#9B9B9B" offset="0"/><stop stop-color="#D3D3D3" offset="1"/></linearGradient><linearGradient id="c" x1="23.926" x2="23.926" y1="16.275" y2="25.156" gradientUnits="userSpaceOnUse"><stop stop-color="#332541" offset="0"/><stop stop-color="#6E6877" offset="1"/></linearGradient><linearGradient id="b" x1="26.113" x2="23.816" y1="25.156" y2="25.156" gradientUnits="userSpaceOnUse"><stop stop-color="#332541" offset="0"/><stop stop-color="#6E6877" stop-opacity="0" offset="1"/></linearGradient><radialGradient id="a" cx="0" cy="0" r="1" gradientTransform="translate(20.551 24.125) rotate(-60.21) scale(4.9691 5.021)" gradientUnits="userSpaceOnUse"><stop stop-color="#914CC7" offset="0"/><stop stop-color="#814CC7" stop-opacity="0" offset=".76078"/></radialGradient><linearGradient id="bm" x1="23.988" x2="23.988" y1="30.25" y2="26.5" gradientUnits="userSpaceOnUse"><stop stop-color="#914CC7" offset="0"/><stop stop-color="#814CC7" stop-opacity="0" offset=".47287"/></linearGradient><radialGradient id="bl" cx="0" cy="0" r="1" gradientTransform="translate(27.613 25) rotate(137.67) scale(6.0625 8.5065)" gradientUnits="userSpaceOnUse"><stop stop-color="#DEDEDE" offset="0"/><stop stop-color="#B195CC" offset="1"/></radialGradient><radialGradient id="bk" cx="0" cy="0" r="1" gradientTransform="translate(24.676 28) rotate(-90) scale(4.2188 5.0148)" gradientUnits="userSpaceOnUse"><stop stop-color="#6D607A" stop-opacity="0" offset=".39259"/><stop stop-color="#6D607A" offset=".89583"/><stop stop-color="#939196" offset="1"/></radialGradient><radialGradient id="bj" cx="0" cy="0" r="1" gradientTransform="translate(26.988 25.75) rotate(178.11) scale(2.8453)" gradientUnits="userSpaceOnUse"><stop stop-color="#6D607A" offset="0"/><stop stop-color="#6D607A" stop-opacity="0" offset="1"/></radialGradient><radialGradient id="bi" cx="0" cy="0" r="1" gradientTransform="translate(25.863 28.063) rotate(242.59) scale(4.7522 3.2596)" gradientUnits="userSpaceOnUse"><stop stop-color="#9976BB" offset="0"/><stop stop-color="#A280C4" stop-opacity="0" offset=".86458"/></radialGradient><radialGradient id="bh" cx="0" cy="0" r="1" gradientTransform="translate(21.738 22.156) rotate(41.094) scale(5.515 6.488)" gradientUnits="userSpaceOnUse"><stop stop-color="#DAD1E2" offset="0"/><stop stop-color="#DAD1E2" stop-opacity="0" offset="1"/></radialGradient><linearGradient id="bg" x1="19.426" x2="25.176" y1="26.375" y2="10.75" gradientUnits="userSpaceOnUse"><stop stop-color="#7F6D97" offset="0"/><stop stop-color="#A3A3AA" offset="1"/></linearGradient><radialGradient id="bf" cx="0" cy="0" r="1" gradientTransform="translate(21.613 22.625) rotate(-45.232) scale(5.458 6.668)" gradientUnits="userSpaceOnUse"><stop stop-color="#ABA8B4" offset="0"/><stop stop-color="#ABA8B4" stop-opacity="0" offset=".47818"/></radialGradient><linearGradient id="be" x1="19.236" x2="19.236" y1="11.978" y2="17.056" gradientUnits="userSpaceOnUse"><stop stop-color="#ABA8B4" offset="0"/><stop stop-color="#ABA8B4" stop-opacity="0" offset="1"/></linearGradient><linearGradient id="bd" x1="20.019" x2="20.019" y1="22.188" y2="16.625" gradientUnits="userSpaceOnUse"><stop stop-color="#6B2B9D" offset=".14703"/><stop stop-color="#6B2B9D" stop-opacity="0" offset=".91011"/></linearGradient><linearGradient id="bb" x1="25.868" x2="25.868" y1="12.305" y2="26.31" gradientUnits="userSpaceOnUse"><stop stop-color="#C8C7D0" offset="0"/><stop stop-color="#C8C7D0" stop-opacity="0" offset=".3125"/><stop stop-color="#C8C7D0" offset=".97396"/></linearGradient><radialGradient id="ba" cx="0" cy="0" r="1" gradientTransform="translate(5.8006 9.7501) rotate(22.533) scale(6.3606 15.38)" gradientUnits="userSpaceOnUse"><stop stop-color="#898592" offset="0"/><stop stop-color="#80778F" offset="1"/></radialGradient><linearGradient id="az" x1="9.9881" x2="8.0818" y1="10.625" y2="10.125" gradientUnits="userSpaceOnUse"><stop stop-color="#66636F" offset="0"/><stop stop-color="#66636F" stop-opacity="0" offset="1"/></linearGradient><radialGradient id="ay" cx="0" cy="0" r="1" gradientTransform="translate(2.5194 14.813) rotate(-45.31) scale(4.088 3.2701)" gradientUnits="userSpaceOnUse"><stop stop-color="#9182AB" offset="0"/><stop stop-color="#9182AB" stop-opacity="0" offset="1"/></radialGradient><radialGradient id="ax" cx="0" cy="0" r="1" gradientTransform="translate(4.9256 9.0313) rotate(63.034) scale(1.9985 2.6761)" gradientUnits="userSpaceOnUse"><stop stop-color="#9999A4" offset="0"/><stop stop-color="#9999A4" stop-opacity="0" offset="1"/></radialGradient><radialGradient id="aw" cx="0" cy="0" r="1" gradientTransform="translate(7.9881 7.7188) rotate(140.77) scale(7.9067 7.592)" gradientUnits="userSpaceOnUse"><stop stop-color="#9999A4" stop-opacity="0" offset=".80607"/><stop stop-color="#9999A4" offset="1"/></radialGradient><linearGradient id="av" x1="2.9489" x2="2.0922" y1="10.59" y2="10.821" gradientUnits="userSpaceOnUse"><stop stop-color="#6B5E60" offset=".225"/><stop stop-color="#433338" offset="1"/></linearGradient><linearGradient id="au" x1="3.41" x2="3.41" y1="11.45" y2="10.606" gradientUnits="userSpaceOnUse"><stop stop-color="#552D52" offset="0"/><stop stop-color="#552D52" stop-opacity="0" offset="1"/></linearGradient><linearGradient id="at" x1="13.176" x2="13.176" y1="28.5" y2="19.75" gradientUnits="userSpaceOnUse"><stop stop-color="#9C97A7" offset="0"/><stop stop-color="#7F7591" offset="1"/></linearGradient><linearGradient id="as" x1="10.332" x2="12.426" y1="27.699" y2="27.719" gradientUnits="userSpaceOnUse"><stop stop-color="#938F9B" offset="0"/><stop stop-color="#938F9B" stop-opacity="0" offset=".50943"/></linearGradient><linearGradient id="aq" x1="12.196" x2="12.196" y1="30.258" y2="26.959" gradientUnits="userSpaceOnUse"><stop stop-color="#914CC7" offset="0"/><stop stop-color="#814CC7" stop-opacity="0" offset=".47287"/></linearGradient><linearGradient id="ap" x1="12.207" x2="12.365" y1="23.094" y2="29.37" gradientUnits="userSpaceOnUse"><stop stop-color="#AAA4B5" offset="0"/><stop stop-color="#938F9B" stop-opacity="0" offset=".7868"/></linearGradient><radialGradient id="ao" cx="0" cy="0" r="1" gradientTransform="translate(17.533 7.6694) rotate(131.75) scale(12.752 19.513)" gradientUnits="userSpaceOnUse"><stop stop-color="#EBE7EF" offset="0"/><stop stop-color="#C8BDD6" offset="1"/></radialGradient><linearGradient id="an" x1="10.412" x2="10.412" y1="-30.246" y2="23.25" gradientUnits="userSpaceOnUse"><stop stop-color="#A280C4" stop-opacity="0" offset=".89952"/><stop stop-color="#A280C4" offset="1"/></linearGradient><radialGradient id="am" cx="0" cy="0" r="1" gradientTransform="translate(15.176 7.3126) rotate(-31.76) scale(4.6309 4.4513)" gradientUnits="userSpaceOnUse"><stop stop-color="#B7B1BE" offset="0"/><stop stop-color="#B7B1BE" stop-opacity="0" offset=".67824"/></radialGradient><radialGradient id="al" cx="0" cy="0" r="1" gradientTransform="translate(7.4881 12.375) rotate(96.645) scale(3.2405 5.7433)" gradientUnits="userSpaceOnUse"><stop stop-color="#A7A3AB" offset="0"/><stop stop-color="#A39EA9" stop-opacity="0" offset=".9759"/></radialGradient><radialGradient id="ak" cx="0" cy="0" r="1" gradientTransform="translate(15.269 21.275) rotate(236.63) scale(2.4997 3.1284)" gradientUnits="userSpaceOnUse"><stop stop-color="#A7A3AB" offset=".034119"/><stop stop-color="#A39EA9" stop-opacity="0" offset="1"/></radialGradient><linearGradient id="aj" x1="17.894" x2="16.363" y1="17.063" y2="17.063" gradientUnits="userSpaceOnUse"><stop stop-color="#A7A3AB" offset=".42857"/><stop stop-color="#A39EA9" stop-opacity="0" offset="1"/></linearGradient><linearGradient id="ai" x1="9.9882" x2="6.2697" y1="6.8126" y2="2.6366" gradientUnits="userSpaceOnUse"><stop stop-color="#B7B1BE" stop-opacity="0" offset=".32864"/><stop stop-color="#B7B1BE" offset="1"/></linearGradient><linearGradient id="ah" x1="10.988" x2="10.988" y1="11.219" y2="6.5001" gradientUnits="userSpaceOnUse"><stop stop-color="#CDB8E1" offset="0"/><stop stop-color="#BDA0D9" stop-opacity="0" offset=".8543"/></linearGradient><linearGradient id="af" x1="8.8631" x2="8.8631" y1="5.5001" y2="8.8126" gradientUnits="userSpaceOnUse"><stop stop-color="#B7B1BE" stop-opacity="0" offset=".69811"/><stop stop-color="#B7B1BE" offset="1"/></linearGradient><linearGradient id="ae" x1="11.176" x2="11.176" y1="15.748" y2="7.1052" gradientUnits="userSpaceOnUse"><stop stop-color="#ccc" offset=".0055866"/><stop stop-color="#E6E6E6" offset="1"/></linearGradient><linearGradient id="ad" x1="13.332" x2="13.332" y1="3.2812" y2="19" gradientUnits="userSpaceOnUse"><stop stop-color="#F0ECF3" offset="0"/><stop stop-color="#F0ECF3" stop-opacity="0" offset="1"/></linearGradient><linearGradient id="ac" x1="12.426" x2="8.6756" y1="10.969" y2="18.094" gradientUnits="userSpaceOnUse"><stop stop-color="#D8D1DF" offset="0"/><stop stop-color="#C2ADD7" offset="1"/></linearGradient><linearGradient id="ab" x1="17.551" x2="10.582" y1="10.688" y2="12.438" gradientUnits="userSpaceOnUse"><stop stop-color="#fff" offset="0"/><stop stop-color="#fff" stop-opacity="0" offset="1"/></linearGradient><linearGradient id="aa" x1="11.176" x2="8.4242" y1="12.275" y2="11.698" gradientUnits="userSpaceOnUse"><stop stop-color="#B7B1BE" stop-opacity="0" offset=".4628"/><stop stop-color="#B7B1BE" offset="1"/></linearGradient><radialGradient id="z" cx="0" cy="0" r="1" gradientTransform="translate(11.176 5.8444) rotate(90) scale(12.093 6.2583)" gradientUnits="userSpaceOnUse"><stop stop-color="#A280C4" stop-opacity="0" offset=".7881"/><stop stop-color="#A280C4" offset="1"/></radialGradient><linearGradient id="y" x1="9.6756" x2="9.6756" y1="21.577" y2="31.329" gradientUnits="userSpaceOnUse"><stop stop-color="#9B9B9B" offset="0"/><stop stop-color="#D3D3D3" offset="1"/></linearGradient><linearGradient id="x" x1="8.0506" x2="8.0506" y1="19.438" y2="26.625" gradientUnits="userSpaceOnUse"><stop stop-color="#554F60" offset="0"/><stop stop-color="#85828B" offset="1"/></linearGradient><linearGradient id="w" x1="10.196" x2="10.196" y1="30.188" y2="27.125" gradientUnits="userSpaceOnUse"><stop stop-color="#914CC7" offset="0"/><stop stop-color="#814CC7" stop-opacity="0" offset=".47287"/></linearGradient><linearGradient id="u" x1="8.3318" x2="9.9881" y1="27.813" y2="27.813" gradientUnits="userSpaceOnUse"><stop stop-color="#938F9B" offset="0"/><stop stop-color="#938F9B" stop-opacity="0" offset=".50943"/></linearGradient><radialGradient id="t" cx="0" cy="0" r="1" gradientTransform="translate(12.738 25) rotate(137.67) scale(6.0625 8.5065)" gradientUnits="userSpaceOnUse"><stop stop-color="#DEDEDE" offset="0"/><stop stop-color="#B195CC" offset="1"/></radialGradient><radialGradient id="s" cx="0" cy="0" r="1" gradientTransform="translate(9.8006 23.06) rotate(90) scale(6.284 5.2853)" gradientUnits="userSpaceOnUse"><stop stop-color="#A280C4" stop-opacity="0" offset=".38877"/><stop stop-color="#9976BB" offset="1"/></radialGradient><radialGradient id="r" cx="0" cy="0" r="1" gradientTransform="translate(9.8006 28) rotate(-90) scale(4.2188 5.0148)" gradientUnits="userSpaceOnUse"><stop stop-color="#6D607A" stop-opacity="0" offset=".39259"/><stop stop-color="#939196" offset="1"/><stop stop-color="#6D607A" offset="1"/></radialGradient><radialGradient id="q" cx="0" cy="0" r="1" gradientTransform="translate(11.144 25.828) rotate(180) scale(2.2188)" gradientUnits="userSpaceOnUse"><stop stop-color="#6D607A" offset="0"/><stop stop-color="#6D607A" stop-opacity="0" offset="1"/></radialGradient><radialGradient id="p" cx="0" cy="0" r="1" gradientTransform="translate(6.8631 22.156) rotate(41.094) scale(5.515 6.488)" gradientUnits="userSpaceOnUse"><stop stop-color="#DAD1E2" offset="0"/><stop stop-color="#DAD1E2" stop-opacity="0" offset="1"/></radialGradient><radialGradient id="o" cx="0" cy="0" r="1" gradientTransform="translate(12.576 25.525) rotate(124.5) scale(4.3162 6.0562)" gradientUnits="userSpaceOnUse"><stop stop-color="#F0EDF3" offset="0"/><stop stop-color="#B195CC" offset="1"/></radialGradient><radialGradient id="n" cx="0" cy="0" r="1" gradientTransform="translate(11.676 23.06) rotate(90) scale(8.1257 6.8342)" gradientUnits="userSpaceOnUse"><stop stop-color="#A280C4" stop-opacity="0" offset=".46457"/><stop stop-color="#A280C4" offset="1"/></radialGradient><radialGradient id="m" cx="0" cy="0" r="1" gradientTransform="translate(12.476 26.63) rotate(211.61) scale(3.8161 3.08)" gradientUnits="userSpaceOnUse"><stop stop-color="#B3B1B5" stop-opacity="0" offset=".53691"/><stop stop-color="#939196" offset="1"/></radialGradient><radialGradient id="l" cx="0" cy="0" r="1" gradientTransform="translate(28.768 25.525) rotate(124.5) scale(4.3162 6.0562)" gradientUnits="userSpaceOnUse"><stop stop-color="#F0EDF3" offset="0"/><stop stop-color="#B195CC" offset="1"/></radialGradient><radialGradient id="j" cx="0" cy="0" r="1" gradientTransform="translate(27.868 23.06) rotate(90) scale(8.1257 6.8342)" gradientUnits="userSpaceOnUse"><stop stop-color="#A280C4" stop-opacity="0" offset=".46457"/><stop stop-color="#A280C4" offset="1"/></radialGradient><radialGradient id="i" cx="0" cy="0" r="1" gradientTransform="translate(28.668 26.63) rotate(211.61) scale(3.8161 3.08)" gradientUnits="userSpaceOnUse"><stop stop-color="#B3B1B5" stop-opacity="0" offset=".53691"/><stop stop-color="#939196" offset="1"/></radialGradient><linearGradient id="h" x1="8.535" x2="7.91" y1="10.275" y2="10.275" gradientUnits="userSpaceOnUse"><stop stop-color="#6B5E60" offset=".225"/><stop stop-color="#433338" offset="1"/></linearGradient><linearGradient id="g" x1="8.8318" x2="8.8318" y1="11.625" y2="9.9376" gradientUnits="userSpaceOnUse"><stop stop-color="#552D52" offset="0"/><stop stop-color="#552D52" stop-opacity="0" offset="1"/></linearGradient><radialGradient id="f" cx="0" cy="0" r="1" gradientTransform="translate(12.144 3.8124) rotate(128.88) scale(1.8668 1.4587)" gradientUnits="userSpaceOnUse"><stop stop-color="#fff" offset="0"/><stop stop-color="#fff" stop-opacity="0" offset="1"/></radialGradient><linearGradient id="e" x1="11.613" x2="6.6287" y1="8.0063" y2="8.0063" gradientUnits="userSpaceOnUse"><stop stop-color="#CDB8E1" offset="0"/><stop stop-color="#BDA0D9" stop-opacity="0" offset="1"/></linearGradient></defs></svg>
