<svg fill="none" viewBox="0 0 32 32" xmlns="http://www.w3.org/2000/svg"><path d="m15.979 2c0.5523 0 1 0.44772 1 1v4.41c0 0.55228-0.4477 1-1 1-0.5522 0-1-0.44772-1-1v-4.41c0-0.55228 0.4478-1 1-1z" clip-rule="evenodd" fill="url(#ak)" fill-rule="evenodd"/><g filter="url(#ay)"><path d="m16.666 2.8237c0-0.13807-0.112-0.25-0.25-0.25-0.1381 0-0.25 0.11193-0.25 0.25h0.5zm-0.5 0v3.678h0.5v-3.678h-0.5z" fill="url(#ae)"/></g><g filter="url(#au)"><path d="m15.516 2.8237c0-0.05523-0.0448-0.1-0.1-0.1-0.0553 0-0.1 0.04477-0.1 0.1h0.2zm-0.2 0v3.678h0.2v-3.678h-0.2z" fill="url(#t)" fill-opacity=".2"/></g><path d="m18.179 29.01 5.27-5.97c5.67-6.43 1.11-16.55-7.47-16.55-8.58 0-13.14 10.12-7.47 16.55l5.27 5.97c1.17 1.32 3.23 1.32 4.4 0z" fill="url(#i)"/><path d="m18.179 29.01 5.27-5.97c5.67-6.43 1.11-16.55-7.47-16.55-8.58 0-13.14 10.12-7.47 16.55l5.27 5.97c1.17 1.32 3.23 1.32 4.4 0z" fill="url(#f)"/><path d="m18.179 29.01 5.27-5.97c5.67-6.43 1.11-16.55-7.47-16.55-8.58 0-13.14 10.12-7.47 16.55l5.27 5.97c1.17 1.32 3.23 1.32 4.4 0z" fill="url(#e)"/><path d="m18.179 29.01 5.27-5.97c5.67-6.43 1.11-16.55-7.47-16.55-8.58 0-13.14 10.12-7.47 16.55l5.27 5.97c1.17 1.32 3.23 1.32 4.4 0z" fill="url(#d)"/><mask id="al" x="6" y="6" width="20" height="24" style="mask-type:alpha" maskUnits="userSpaceOnUse"><path d="m18.179 29.01 5.27-5.97c5.67-6.43 1.11-16.55-7.47-16.55-8.58 0-13.14 10.12-7.47 16.55l5.27 5.97c1.17 1.32 3.23 1.32 4.4 0z" fill="#000"/></mask><g mask="url(#al)"><g filter="url(#at)"><path d="m6.1394 11.44h5.54c1.749 0 3.3021-0.8238 4.2965-2.1026 0.9962 1.2788 2.5503 2.1026 4.2935 2.1026h5.54c0-3-2.43-5.44-5.44-5.44h-8.79c-3 0-5.44 2.44-5.44 5.44z" fill="#000" fill-opacity=".8"/></g></g><path d="m6.1394 11.44h5.54c1.749 0 3.3021-0.8238 4.2965-2.1026 0.9962 1.2788 2.5503 2.1026 4.2935 2.1026h5.54c0-3-2.43-5.44-5.44-5.44h-8.79c-3 0-5.44 2.44-5.44 5.44z" fill="url(#c)"/><g filter="url(#as)"><path d="m11.68 11.065h-5.1513c0.19252-2.6185 2.3845-4.69 5.0513-4.69h8.79c2.6759 0 4.8596 2.0712 5.0513 4.69h-5.1513c-1.6223 0-3.0692-0.7663-3.9977-1.9581l-0.2961-0.38009-0.2957 0.38035c-0.9265 1.1914-2.3722 1.9578-4.0005 1.9578z" fill="url(#b)"/></g><path d="m6.1394 11.44h5.54c1.749 0 3.3021-0.8238 4.2965-2.1026 0.9962 1.2788 2.5503 2.1026 4.2935 2.1026h5.54c0-3-2.43-5.44-5.44-5.44h-8.79c-3 0-5.44 2.44-5.44 5.44z" fill="url(#a)"/><g filter="url(#ar)"><path d="m15.999 9.2649c0.0359-0.04198 0.031-0.1051-0.011-0.14099s-0.1051-0.03096-0.141 0.01101l0.152 0.12998zm-0.152-0.12998c-1.3026 1.5234-2.6529 2.0196-3.7373 2.0196v0.2c1.1508 0 2.5542-0.5282 3.8893-2.0897l-0.152-0.12998zm-3.7373 2.0196h-5.4094v0.2h5.4094v-0.2z" fill="url(#aj)"/></g><g filter="url(#aq)"><path d="m25.412 11.025c-0.589-3.5608-3.1859-4.2034-3.1859-4.2034s-2.7041 1.2316-2.7577 4.2034h5.9436z" fill="url(#ai)"/></g><g fill="url(#ah)" filter="url(#ap)"><path d="m9.6193 13.74c-0.51 0-0.93 0.42-0.93 0.93v0.93c0 0.51 0.42 0.93 0.93 0.93 0.50997 0 0.92997-0.42 0.92997-0.93v-0.93c0-0.52-0.42-0.93-0.92997-0.93z"/><path d="m11.869 19.57c0-0.51 0.42-0.93 0.93-0.93 0.52 0 0.93 0.42 0.93 0.93v0.93c0 0.51-0.42 0.93-0.93 0.93s-0.93-0.42-0.93-0.93v-0.93z"/><path d="m18.239 19.57c0-0.51 0.42-0.93 0.93-0.93 0.52 0 0.93 0.42 0.93 0.93v0.93c0 0.51-0.42 0.93-0.93 0.93s-0.93-0.42-0.93-0.93v-0.93z"/><path d="m15.059 14.67c0-0.51 0.42-0.93 0.93-0.93s0.93 0.41 0.93 0.93v0.93c0 0.51-0.42 0.93-0.93 0.93s-0.93-0.42-0.93-0.93v-0.93z"/><path d="m15.989 23.19c-0.51 0-0.93 0.42-0.93 0.93v0.93c0 0.51 0.42 0.93 0.93 0.93s0.93-0.42 0.93-0.93v-0.93c0-0.51-0.42-0.93-0.93-0.93z"/><path d="m21.439 14.67c0-0.51 0.42-0.93 0.93-0.93s0.93 0.41 0.93 0.93v0.93c0 0.51-0.42 0.93-0.93 0.93s-0.93-0.42-0.93-0.93v-0.93z"/></g><path d="m12.799 18.14c-0.51 0-0.93 0.42-0.93 0.93v0.93c0 0.51 0.42 0.93 0.93 0.93s0.93-0.42 0.93-0.93v-0.93c0-0.51-0.41-0.93-0.93-0.93z" fill="url(#ag)"/><path d="m12.799 18.14c-0.51 0-0.93 0.42-0.93 0.93v0.93c0 0.51 0.42 0.93 0.93 0.93s0.93-0.42 0.93-0.93v-0.93c0-0.51-0.41-0.93-0.93-0.93z" fill="url(#af)"/><path d="m12.799 18.14c-0.51 0-0.93 0.42-0.93 0.93v0.93c0 0.51 0.42 0.93 0.93 0.93s0.93-0.42 0.93-0.93v-0.93c0-0.51-0.41-0.93-0.93-0.93z" fill="url(#ad)"/><path d="m19.169 18.14c-0.51 0-0.93 0.42-0.93 0.93v0.93c0 0.51 0.42 0.93 0.93 0.93s0.93-0.42 0.93-0.93v-0.93c0-0.51-0.41-0.93-0.93-0.93z" fill="url(#ac)"/><path d="m19.169 18.14c-0.51 0-0.93 0.42-0.93 0.93v0.93c0 0.51 0.42 0.93 0.93 0.93s0.93-0.42 0.93-0.93v-0.93c0-0.51-0.41-0.93-0.93-0.93z" fill="url(#ab)"/><path d="m19.169 18.14c-0.51 0-0.93 0.42-0.93 0.93v0.93c0 0.51 0.42 0.93 0.93 0.93s0.93-0.42 0.93-0.93v-0.93c0-0.51-0.41-0.93-0.93-0.93z" fill="url(#aa)"/><path d="m9.6193 13.24c-0.51 0-0.93 0.42-0.93 0.93v0.93c0 0.51 0.42 0.93 0.93 0.93 0.50997 0 0.92997-0.42 0.92997-0.93v-0.93c0-0.52-0.42-0.93-0.92997-0.93z" fill="url(#z)"/><path d="m9.6193 13.24c-0.51 0-0.93 0.42-0.93 0.93v0.93c0 0.51 0.42 0.93 0.93 0.93 0.50997 0 0.92997-0.42 0.92997-0.93v-0.93c0-0.52-0.42-0.93-0.92997-0.93z" fill="url(#y)"/><path d="m9.6193 13.24c-0.51 0-0.93 0.42-0.93 0.93v0.93c0 0.51 0.42 0.93 0.93 0.93 0.50997 0 0.92997-0.42 0.92997-0.93v-0.93c0-0.52-0.42-0.93-0.92997-0.93z" fill="url(#x)"/><path d="m15.989 13.24c-0.51 0-0.93 0.42-0.93 0.93v0.93c0 0.51 0.42 0.93 0.93 0.93s0.93-0.42 0.93-0.93v-0.93c0-0.52-0.42-0.93-0.93-0.93z" fill="url(#w)"/><path d="m15.989 13.24c-0.51 0-0.93 0.42-0.93 0.93v0.93c0 0.51 0.42 0.93 0.93 0.93s0.93-0.42 0.93-0.93v-0.93c0-0.52-0.42-0.93-0.93-0.93z" fill="url(#v)"/><path d="m15.989 13.24c-0.51 0-0.93 0.42-0.93 0.93v0.93c0 0.51 0.42 0.93 0.93 0.93s0.93-0.42 0.93-0.93v-0.93c0-0.52-0.42-0.93-0.93-0.93z" fill="url(#u)"/><path d="m15.989 22.69c-0.51 0-0.93 0.42-0.93 0.93v0.93c0 0.51 0.42 0.93 0.93 0.93s0.93-0.42 0.93-0.93v-0.93c0-0.51-0.42-0.93-0.93-0.93z" fill="url(#s)"/><path d="m15.989 22.69c-0.51 0-0.93 0.42-0.93 0.93v0.93c0 0.51 0.42 0.93 0.93 0.93s0.93-0.42 0.93-0.93v-0.93c0-0.51-0.42-0.93-0.93-0.93z" fill="url(#r)"/><path d="m15.989 22.69c-0.51 0-0.93 0.42-0.93 0.93v0.93c0 0.51 0.42 0.93 0.93 0.93s0.93-0.42 0.93-0.93v-0.93c0-0.51-0.42-0.93-0.93-0.93z" fill="url(#q)"/><path d="m22.369 13.24c-0.51 0-0.93 0.42-0.93 0.93v0.93c0 0.51 0.42 0.93 0.93 0.93s0.93-0.42 0.93-0.93v-0.93c0-0.52-0.42-0.93-0.93-0.93z" fill="url(#p)"/><path d="m22.369 13.24c-0.51 0-0.93 0.42-0.93 0.93v0.93c0 0.51 0.42 0.93 0.93 0.93s0.93-0.42 0.93-0.93v-0.93c0-0.52-0.42-0.93-0.93-0.93z" fill="url(#o)"/><path d="m22.369 13.24c-0.51 0-0.93 0.42-0.93 0.93v0.93c0 0.51 0.42 0.93 0.93 0.93s0.93-0.42 0.93-0.93v-0.93c0-0.52-0.42-0.93-0.93-0.93z" fill="url(#n)"/><g filter="url(#ao)"><path d="m10.248 13.986c0-0.138-0.1119-0.25-0.25-0.25-0.13807 0-0.25 0.112-0.25 0.25h0.5zm-0.5 1.1524c0 0.138 0.11193 0.25 0.25 0.25 0.1381 0 0.25-0.112 0.25-0.25h-0.5zm0-1.1524v1.1524h0.5v-1.1524h-0.5z" fill="url(#m)"/></g><g filter="url(#an)"><path d="m16.6 13.986c0-0.138-0.112-0.25-0.25-0.25-0.1381 0-0.25 0.112-0.25 0.25h0.5zm-0.5 1.1524c0 0.138 0.1119 0.25 0.25 0.25 0.138 0 0.25-0.112 0.25-0.25h-0.5zm0-1.1524v1.1524h0.5v-1.1524h-0.5z" fill="url(#l)"/></g><g filter="url(#am)"><path d="m22.95 13.986c0-0.138-0.112-0.25-0.25-0.25-0.1381 0-0.25 0.112-0.25 0.25h0.5zm-0.5 1.1524c0 0.138 0.1119 0.25 0.25 0.25 0.138 0 0.25-0.112 0.25-0.25h-0.5zm0-1.1524v1.1524h0.5v-1.1524h-0.5z" fill="url(#k)"/></g><g filter="url(#ax)"><path d="m19.8 18.9c0-0.1381-0.1119-0.25-0.25-0.25-0.138 0-0.25 0.1119-0.25 0.25h0.5zm-0.5 0.6001c0 0.1381 0.112 0.25 0.25 0.25 0.1381 0 0.25-0.1119 0.25-0.25h-0.5zm0-0.6001v0.6001h0.5v-0.6001h-0.5z" fill="url(#j)"/></g><g filter="url(#aw)"><path d="m13.45 18.9c0-0.1381-0.112-0.25-0.25-0.25-0.1381 0-0.25 0.1119-0.25 0.25h0.5zm-0.5 0.6001c0 0.1381 0.1119 0.25 0.25 0.25 0.138 0 0.25-0.1119 0.25-0.25h-0.5zm0-0.6001v0.6001h0.5v-0.6001h-0.5z" fill="url(#h)"/></g><g filter="url(#av)"><path d="m16.6 23.5c0-0.1381-0.112-0.25-0.25-0.25-0.1381 0-0.25 0.1119-0.25 0.25h0.5zm-0.5 0.25c0 0.1381 0.1119 0.25 0.25 0.25 0.138 0 0.25-0.1119 0.25-0.25h-0.5zm0-0.25v0.25h0.5v-0.25h-0.5z" fill="url(#g)"/></g><defs><filter id="ay" x="15.566" y="1.9737" width="1.7" height="5.128" color-interpolation-filters="sRGB" filterUnits="userSpaceOnUse"><feFlood flood-opacity="0" result="BackgroundImageFix"/><feBlend in="SourceGraphic" in2="BackgroundImageFix" result="shape"/><feGaussianBlur result="effect1_foregroundBlur_18_28174" stdDeviation="0.3"/></filter><filter id="au" x="15.016" y="2.4238" width=".79995" height="4.378" color-interpolation-filters="sRGB" filterUnits="userSpaceOnUse"><feFlood flood-opacity="0" result="BackgroundImageFix"/><feBlend in="SourceGraphic" in2="BackgroundImageFix" result="shape"/><feGaussianBlur result="effect1_foregroundBlur_18_28174" stdDeviation="0.15"/></filter><filter id="at" x="5.6394" y="5.5" width="20.67" height="6.44" color-interpolation-filters="sRGB" filterUnits="userSpaceOnUse"><feFlood flood-opacity="0" result="BackgroundImageFix"/><feBlend in="SourceGraphic" in2="BackgroundImageFix" result="shape"/><feGaussianBlur result="effect1_foregroundBlur_18_28174" stdDeviation="0.25"/></filter><filter id="as" x="6.0282" y="5.875" width="19.893" height="5.69" color-interpolation-filters="sRGB" filterUnits="userSpaceOnUse"><feFlood flood-opacity="0" result="BackgroundImageFix"/><feBlend in="SourceGraphic" in2="BackgroundImageFix" result="shape"/><feGaussianBlur result="effect1_foregroundBlur_18_28174" stdDeviation="0.25"/></filter><filter id="ar" x="6.5" y="8.9" width="9.7226" height="2.6546" color-interpolation-filters="sRGB" filterUnits="userSpaceOnUse"><feFlood flood-opacity="0" result="BackgroundImageFix"/><feBlend in="SourceGraphic" in2="BackgroundImageFix" result="shape"/><feGaussianBlur result="effect1_foregroundBlur_18_28174" stdDeviation="0.1"/></filter><filter id="aq" x="18.718" y="6.072" width="7.4436" height="5.7034" color-interpolation-filters="sRGB" filterUnits="userSpaceOnUse"><feFlood flood-opacity="0" result="BackgroundImageFix"/><feBlend in="SourceGraphic" in2="BackgroundImageFix" result="shape"/><feGaussianBlur result="effect1_foregroundBlur_18_28174" stdDeviation="0.375"/></filter><filter id="ap" x="7.4393" y="12.49" width="17.11" height="14.74" color-interpolation-filters="sRGB" filterUnits="userSpaceOnUse"><feFlood flood-opacity="0" result="BackgroundImageFix"/><feBlend in="SourceGraphic" in2="BackgroundImageFix" result="shape"/><feGaussianBlur result="effect1_foregroundBlur_18_28174" stdDeviation="0.625"/></filter><filter id="ao" x="9.3478" y="13.336" width="1.3" height="2.4523" color-interpolation-filters="sRGB" filterUnits="userSpaceOnUse"><feFlood flood-opacity="0" result="BackgroundImageFix"/><feBlend in="SourceGraphic" in2="BackgroundImageFix" result="shape"/><feGaussianBlur result="effect1_foregroundBlur_18_28174" stdDeviation="0.2"/></filter><filter id="an" x="15.7" y="13.336" width="1.3" height="2.4523" color-interpolation-filters="sRGB" filterUnits="userSpaceOnUse"><feFlood flood-opacity="0" result="BackgroundImageFix"/><feBlend in="SourceGraphic" in2="BackgroundImageFix" result="shape"/><feGaussianBlur result="effect1_foregroundBlur_18_28174" stdDeviation="0.2"/></filter><filter id="am" x="22.05" y="13.336" width="1.3" height="2.4523" color-interpolation-filters="sRGB" filterUnits="userSpaceOnUse"><feFlood flood-opacity="0" result="BackgroundImageFix"/><feBlend in="SourceGraphic" in2="BackgroundImageFix" result="shape"/><feGaussianBlur result="effect1_foregroundBlur_18_28174" stdDeviation="0.2"/></filter><filter id="ax" x="18.9" y="18.25" width="1.3" height="1.9001" color-interpolation-filters="sRGB" filterUnits="userSpaceOnUse"><feFlood flood-opacity="0" result="BackgroundImageFix"/><feBlend in="SourceGraphic" in2="BackgroundImageFix" result="shape"/><feGaussianBlur result="effect1_foregroundBlur_18_28174" stdDeviation="0.2"/></filter><filter id="aw" x="12.55" y="18.25" width="1.3" height="1.9001" color-interpolation-filters="sRGB" filterUnits="userSpaceOnUse"><feFlood flood-opacity="0" result="BackgroundImageFix"/><feBlend in="SourceGraphic" in2="BackgroundImageFix" result="shape"/><feGaussianBlur result="effect1_foregroundBlur_18_28174" stdDeviation="0.2"/></filter><filter id="av" x="15.7" y="22.85" width="1.3" height="1.55" color-interpolation-filters="sRGB" filterUnits="userSpaceOnUse"><feFlood flood-opacity="0" result="BackgroundImageFix"/><feBlend in="SourceGraphic" in2="BackgroundImageFix" result="shape"/><feGaussianBlur result="effect1_foregroundBlur_18_28174" stdDeviation="0.2"/></filter><linearGradient id="ak" x1="14.979" x2="16.979" y1="4.8894" y2="4.8867" gradientUnits="userSpaceOnUse"><stop stop-color="#74A41C" offset="0"/><stop stop-color="#7CAF1E" offset="1"/></linearGradient><linearGradient id="ae" x1="16.916" x2="16.916" y1="2.8237" y2="6.5017" gradientUnits="userSpaceOnUse"><stop stop-color="#C1EB79" offset="0"/><stop stop-color="#C1EB79" stop-opacity=".4" offset="1"/></linearGradient><linearGradient id="t" x1="15.916" x2="15.916" y1="2.8237" y2="6.5017" gradientUnits="userSpaceOnUse"><stop stop-color="#C1EB79" offset="0"/><stop stop-color="#C1EB79" stop-opacity=".4" offset="1"/></linearGradient><radialGradient id="i" cx="0" cy="0" r="1" gradientTransform="translate(27.334 18.757) rotate(199) scale(25.962 22.04)" gradientUnits="userSpaceOnUse"><stop stop-color="#FF3759" offset="0"/><stop stop-color="#F01F60" offset=".58333"/><stop stop-color="#A3173D" offset="1"/></radialGradient><radialGradient id="f" cx="0" cy="0" r="1" gradientTransform="translate(31.87 34.294) rotate(235.48) scale(22.703 19.273)" gradientUnits="userSpaceOnUse"><stop stop-color="#FF3555" offset=".7433"/><stop stop-color="#FF3555" stop-opacity="0" offset="1"/></radialGradient><radialGradient id="e" cx="0" cy="0" r="1" gradientTransform="translate(21.367 13.972) rotate(131.63) scale(11.225 9.5296)" gradientUnits="userSpaceOnUse"><stop stop-color="#FF7D90" offset="0"/><stop stop-color="#FF6399" stop-opacity="0" offset="1"/></radialGradient><linearGradient id="d" x1="15.979" x2="15.979" y1="-16.225" y2="30" gradientUnits="userSpaceOnUse"><stop stop-color="#6A1916" offset=".48958"/><stop stop-color="#DB3E60" stop-opacity="0" offset=".70833"/></linearGradient><linearGradient id="c" x1="6.1394" x2="25.809" y1="7.1644" y2="11.44" gradientUnits="userSpaceOnUse"><stop stop-color="#527515" offset="0"/><stop stop-color="#A4E726" offset="1"/></linearGradient><linearGradient id="b" x1="7.9238" x2="25.809" y1="7.4621" y2="11.44" gradientUnits="userSpaceOnUse"><stop stop-color="#5E8317" offset="0"/><stop stop-color="#AEE362" offset="1"/></linearGradient><radialGradient id="a" cx="0" cy="0" r="1" gradientTransform="translate(14.717 3.393) rotate(36.87) scale(14.954 54.071)" gradientUnits="userSpaceOnUse"><stop stop-color="#9AD03F" stop-opacity="0" offset=".35834"/><stop stop-color="#C1F57E" offset="1"/></radialGradient><linearGradient id="aj" x1="6.7001" x2="16.044" y1="11.254" y2="11.254" gradientUnits="userSpaceOnUse"><stop stop-color="#9BBB67" stop-opacity="0" offset=".21354"/><stop stop-color="#A7C873" stop-opacity=".6" offset=".49479"/><stop stop-color="#E5FFBB" stop-opacity=".6" offset="1"/></linearGradient><radialGradient id="ai" cx="0" cy="0" r="1" gradientTransform="translate(25.412 11.025) rotate(216.8) scale(4.38 6.1934)" gradientUnits="userSpaceOnUse"><stop stop-color="#DFFFB6" offset="0"/><stop stop-color="#BEF361" stop-opacity="0" offset="1"/></radialGradient><linearGradient id="ah" x1="8.6893" x2="20.39" y1="13.294" y2="26.372" gradientUnits="userSpaceOnUse"><stop stop-color="#3A234A" stop-opacity=".6" offset="0"/><stop stop-color="#3A234A" stop-opacity=".2" offset="1"/></linearGradient><linearGradient id="ag" x1="11.869" x2="13.729" y1="19.535" y2="19.535" gradientUnits="userSpaceOnUse"><stop stop-color="#3E2344" offset=".0055866"/><stop stop-color="#492368" offset=".52083"/><stop stop-color="#5A356B" offset="1"/></linearGradient><radialGradient id="af" cx="0" cy="0" r="1" gradientTransform="translate(11.318 16.864) rotate(46.797) scale(3.523 2.3486)" gradientUnits="userSpaceOnUse"><stop offset="0"/><stop stop-opacity="0" offset="1"/></radialGradient><radialGradient id="ad" cx="0" cy="0" r="1" gradientTransform="translate(14.371 21.96) rotate(242.35) scale(2.8761 1.9174)" gradientUnits="userSpaceOnUse"><stop offset="0"/><stop stop-opacity="0" offset="1"/></radialGradient><linearGradient id="ac" x1="18.239" x2="20.099" y1="19.535" y2="19.535" gradientUnits="userSpaceOnUse"><stop stop-color="#3E2344" offset=".0055866"/><stop stop-color="#492368" offset=".52083"/><stop stop-color="#5A356B" offset="1"/></linearGradient><radialGradient id="ab" cx="0" cy="0" r="1" gradientTransform="translate(17.688 16.864) rotate(46.797) scale(3.523 2.3486)" gradientUnits="userSpaceOnUse"><stop offset="0"/><stop stop-opacity="0" offset="1"/></radialGradient><radialGradient id="aa" cx="0" cy="0" r="1" gradientTransform="translate(20.741 21.96) rotate(242.35) scale(2.8761 1.9174)" gradientUnits="userSpaceOnUse"><stop offset="0"/><stop stop-opacity="0" offset="1"/></radialGradient><linearGradient id="z" x1="8.6893" x2="10.549" y1="14.635" y2="14.635" gradientUnits="userSpaceOnUse"><stop stop-color="#3E2344" offset=".0055866"/><stop stop-color="#492368" offset=".52083"/><stop stop-color="#5A356B" offset="1"/></linearGradient><radialGradient id="y" cx="0" cy="0" r="1" gradientTransform="translate(8.1376 11.964) rotate(46.797) scale(3.523 2.3486)" gradientUnits="userSpaceOnUse"><stop offset="0"/><stop stop-opacity="0" offset="1"/></radialGradient><radialGradient id="x" cx="0" cy="0" r="1" gradientTransform="translate(11.191 17.06) rotate(242.35) scale(2.8761 1.9174)" gradientUnits="userSpaceOnUse"><stop offset="0"/><stop stop-opacity="0" offset="1"/></radialGradient><linearGradient id="w" x1="15.059" x2="16.919" y1="14.635" y2="14.635" gradientUnits="userSpaceOnUse"><stop stop-color="#3E2344" offset=".0055866"/><stop stop-color="#492368" offset=".52083"/><stop stop-color="#5A356B" offset="1"/></linearGradient><radialGradient id="v" cx="0" cy="0" r="1" gradientTransform="translate(14.508 11.964) rotate(46.797) scale(3.523 2.3486)" gradientUnits="userSpaceOnUse"><stop offset="0"/><stop stop-opacity="0" offset="1"/></radialGradient><radialGradient id="u" cx="0" cy="0" r="1" gradientTransform="translate(17.561 17.06) rotate(242.35) scale(2.8761 1.9174)" gradientUnits="userSpaceOnUse"><stop offset="0"/><stop stop-opacity="0" offset="1"/></radialGradient><linearGradient id="s" x1="15.059" x2="16.919" y1="24.085" y2="24.085" gradientUnits="userSpaceOnUse"><stop stop-color="#3E2344" offset=".0055866"/><stop stop-color="#492368" offset=".52083"/><stop stop-color="#5A356B" offset="1"/></linearGradient><radialGradient id="r" cx="0" cy="0" r="1" gradientTransform="translate(14.508 21.414) rotate(46.797) scale(3.523 2.3486)" gradientUnits="userSpaceOnUse"><stop offset="0"/><stop stop-opacity="0" offset="1"/></radialGradient><radialGradient id="q" cx="0" cy="0" r="1" gradientTransform="translate(17.561 26.51) rotate(242.35) scale(2.8761 1.9174)" gradientUnits="userSpaceOnUse"><stop offset="0"/><stop stop-opacity="0" offset="1"/></radialGradient><linearGradient id="p" x1="21.439" x2="23.299" y1="14.635" y2="14.635" gradientUnits="userSpaceOnUse"><stop stop-color="#3E2344" offset=".0055866"/><stop stop-color="#492368" offset=".52083"/><stop stop-color="#5A356B" offset="1"/></linearGradient><radialGradient id="o" cx="0" cy="0" r="1" gradientTransform="translate(20.888 11.964) rotate(46.797) scale(3.523 2.3486)" gradientUnits="userSpaceOnUse"><stop offset="0"/><stop stop-opacity="0" offset="1"/></radialGradient><radialGradient id="n" cx="0" cy="0" r="1" gradientTransform="translate(23.941 17.06) rotate(242.35) scale(2.8761 1.9174)" gradientUnits="userSpaceOnUse"><stop offset="0"/><stop stop-opacity="0" offset="1"/></radialGradient><linearGradient id="m" x1="10.498" x2="10.498" y1="13.986" y2="15.139" gradientUnits="userSpaceOnUse"><stop stop-color="#685475" offset="0"/><stop stop-color="#685475" stop-opacity=".6" offset="1"/></linearGradient><linearGradient id="l" x1="16.85" x2="16.85" y1="13.986" y2="15.139" gradientUnits="userSpaceOnUse"><stop stop-color="#685475" offset="0"/><stop stop-color="#685475" stop-opacity=".6" offset="1"/></linearGradient><linearGradient id="k" x1="23.2" x2="23.2" y1="13.986" y2="15.139" gradientUnits="userSpaceOnUse"><stop stop-color="#685475" offset="0"/><stop stop-color="#685475" stop-opacity=".6" offset="1"/></linearGradient><linearGradient id="j" x1="20.05" x2="20.05" y1="18.9" y2="20.052" gradientUnits="userSpaceOnUse"><stop stop-color="#685475" offset="0"/><stop stop-color="#685475" stop-opacity=".6" offset="1"/></linearGradient><linearGradient id="h" x1="13.7" x2="13.7" y1="18.9" y2="20.052" gradientUnits="userSpaceOnUse"><stop stop-color="#685475" offset="0"/><stop stop-color="#685475" stop-opacity=".6" offset="1"/></linearGradient><linearGradient id="g" x1="16.85" x2="16.85" y1="23.5" y2="24.652" gradientUnits="userSpaceOnUse"><stop stop-color="#685475" offset="0"/><stop stop-color="#685475" stop-opacity=".6" offset="1"/></linearGradient></defs></svg>
