<svg fill="none" viewBox="0 0 32 32" xmlns="http://www.w3.org/2000/svg"><g filter="url(#ah)"><path d="m2.0002 8.5268c0.02 0.81 0.68 1.47 1.5 1.47h1.21c0.13807 0 0.25 0.11197 0.25 0.24997v3.54c0 1.77 1.44 3.21 3.22 3.21h1.0465c0.08 0 0.12 0.09 0.06 0.15l-0.62 0.62c-0.36 0.36-0.58 0.85-0.57 1.36 0.03 1.03 0.88 1.87 1.92 1.87h0.56c0.42 0 0.76-0.34 0.75-0.76-0.01-0.41-0.36-0.74-0.77-0.74h-0.55c-0.17003 0-0.32003-0.1-0.38003-0.26-0.05-0.15-0.01-0.3 0.09-0.4l0.80003-0.8c0.25-0.25 0.44-0.53 0.58-0.84 0.05-0.12 0.17-0.2 0.31-0.2h7.7335v-3.37l3.86 0.58v6.27c0 1.92 1.53 3.53 3.45 3.55 1.95 0.03 3.55-1.55 3.55-3.5v-7.09c0-0.24-0.2-0.44-0.44-0.44-0.86 0-1.56 0.7-1.56 1.56v4.35c0 0.55-0.45 1-1 1s-1-0.45-1-1v-5.5807c0-4.44-3.52-8.13-7.95-8.23-3.69-0.09-6.43 2.42-7.91 5.55-0.1 0.21-0.26003 0.45-0.54003 0.45-0.33-0.01-0.6-0.27-0.6-0.6v-4.4993h1.01c1.1 0 1.99-0.89 1.99-1.99v-0.7c0-0.17-0.14-0.31-0.31-0.31h-1.7c-1.1 0-1.99 0.74-1.99 1.84 0 0.09-0.07 0.16-0.16 0.16h-1.82c-0.59 0-1.1 0.41-1.22 0.99l-0.09 0.41c-0.08 0.35-0.38 0.6-0.74 0.6h-0.44c-0.84 0-1.55 0.69-1.53 1.53z" fill="#E4A063"/><path d="m2.0002 8.5268c0.02 0.81 0.68 1.47 1.5 1.47h1.21c0.13807 0 0.25 0.11197 0.25 0.24997v3.54c0 1.77 1.44 3.21 3.22 3.21h1.0465c0.08 0 0.12 0.09 0.06 0.15l-0.62 0.62c-0.36 0.36-0.58 0.85-0.57 1.36 0.03 1.03 0.88 1.87 1.92 1.87h0.56c0.42 0 0.76-0.34 0.75-0.76-0.01-0.41-0.36-0.74-0.77-0.74h-0.55c-0.17003 0-0.32003-0.1-0.38003-0.26-0.05-0.15-0.01-0.3 0.09-0.4l0.80003-0.8c0.25-0.25 0.44-0.53 0.58-0.84 0.05-0.12 0.17-0.2 0.31-0.2h7.7335v-3.37l3.86 0.58v6.27c0 1.92 1.53 3.53 3.45 3.55 1.95 0.03 3.55-1.55 3.55-3.5v-7.09c0-0.24-0.2-0.44-0.44-0.44-0.86 0-1.56 0.7-1.56 1.56v4.35c0 0.55-0.45 1-1 1s-1-0.45-1-1v-5.5807c0-4.44-3.52-8.13-7.95-8.23-3.69-0.09-6.43 2.42-7.91 5.55-0.1 0.21-0.26003 0.45-0.54003 0.45-0.33-0.01-0.6-0.27-0.6-0.6v-4.4993h1.01c1.1 0 1.99-0.89 1.99-1.99v-0.7c0-0.17-0.14-0.31-0.31-0.31h-1.7c-1.1 0-1.99 0.74-1.99 1.84 0 0.09-0.07 0.16-0.16 0.16h-1.82c-0.59 0-1.1 0.41-1.22 0.99l-0.09 0.41c-0.08 0.35-0.38 0.6-0.74 0.6h-0.44c-0.84 0-1.55 0.69-1.53 1.53z" fill="url(#ab)"/><path d="m2.0002 8.5268c0.02 0.81 0.68 1.47 1.5 1.47h1.21c0.13807 0 0.25 0.11197 0.25 0.24997v3.54c0 1.77 1.44 3.21 3.22 3.21h1.0465c0.08 0 0.12 0.09 0.06 0.15l-0.62 0.62c-0.36 0.36-0.58 0.85-0.57 1.36 0.03 1.03 0.88 1.87 1.92 1.87h0.56c0.42 0 0.76-0.34 0.75-0.76-0.01-0.41-0.36-0.74-0.77-0.74h-0.55c-0.17003 0-0.32003-0.1-0.38003-0.26-0.05-0.15-0.01-0.3 0.09-0.4l0.80003-0.8c0.25-0.25 0.44-0.53 0.58-0.84 0.05-0.12 0.17-0.2 0.31-0.2h7.7335v-3.37l3.86 0.58v6.27c0 1.92 1.53 3.53 3.45 3.55 1.95 0.03 3.55-1.55 3.55-3.5v-7.09c0-0.24-0.2-0.44-0.44-0.44-0.86 0-1.56 0.7-1.56 1.56v4.35c0 0.55-0.45 1-1 1s-1-0.45-1-1v-5.5807c0-4.44-3.52-8.13-7.95-8.23-3.69-0.09-6.43 2.42-7.91 5.55-0.1 0.21-0.26003 0.45-0.54003 0.45-0.33-0.01-0.6-0.27-0.6-0.6v-4.4993h1.01c1.1 0 1.99-0.89 1.99-1.99v-0.7c0-0.17-0.14-0.31-0.31-0.31h-1.7c-1.1 0-1.99 0.74-1.99 1.84 0 0.09-0.07 0.16-0.16 0.16h-1.82c-0.59 0-1.1 0.41-1.22 0.99l-0.09 0.41c-0.08 0.35-0.38 0.6-0.74 0.6h-0.44c-0.84 0-1.55 0.69-1.53 1.53z" fill="url(#q)"/><path d="m2.0002 8.5268c0.02 0.81 0.68 1.47 1.5 1.47h1.21c0.13807 0 0.25 0.11197 0.25 0.24997v3.54c0 1.77 1.44 3.21 3.22 3.21h1.0465c0.08 0 0.12 0.09 0.06 0.15l-0.62 0.62c-0.36 0.36-0.58 0.85-0.57 1.36 0.03 1.03 0.88 1.87 1.92 1.87h0.56c0.42 0 0.76-0.34 0.75-0.76-0.01-0.41-0.36-0.74-0.77-0.74h-0.55c-0.17003 0-0.32003-0.1-0.38003-0.26-0.05-0.15-0.01-0.3 0.09-0.4l0.80003-0.8c0.25-0.25 0.44-0.53 0.58-0.84 0.05-0.12 0.17-0.2 0.31-0.2h7.7335v-3.37l3.86 0.58v6.27c0 1.92 1.53 3.53 3.45 3.55 1.95 0.03 3.55-1.55 3.55-3.5v-7.09c0-0.24-0.2-0.44-0.44-0.44-0.86 0-1.56 0.7-1.56 1.56v4.35c0 0.55-0.45 1-1 1s-1-0.45-1-1v-5.5807c0-4.44-3.52-8.13-7.95-8.23-3.69-0.09-6.43 2.42-7.91 5.55-0.1 0.21-0.26003 0.45-0.54003 0.45-0.33-0.01-0.6-0.27-0.6-0.6v-4.4993h1.01c1.1 0 1.99-0.89 1.99-1.99v-0.7c0-0.17-0.14-0.31-0.31-0.31h-1.7c-1.1 0-1.99 0.74-1.99 1.84 0 0.09-0.07 0.16-0.16 0.16h-1.82c-0.59 0-1.1 0.41-1.22 0.99l-0.09 0.41c-0.08 0.35-0.38 0.6-0.74 0.6h-0.44c-0.84 0-1.55 0.69-1.53 1.53z" fill="url(#h)"/><path d="m2.0002 8.5268c0.02 0.81 0.68 1.47 1.5 1.47h1.21c0.13807 0 0.25 0.11197 0.25 0.24997v3.54c0 1.77 1.44 3.21 3.22 3.21h1.0465c0.08 0 0.12 0.09 0.06 0.15l-0.62 0.62c-0.36 0.36-0.58 0.85-0.57 1.36 0.03 1.03 0.88 1.87 1.92 1.87h0.56c0.42 0 0.76-0.34 0.75-0.76-0.01-0.41-0.36-0.74-0.77-0.74h-0.55c-0.17003 0-0.32003-0.1-0.38003-0.26-0.05-0.15-0.01-0.3 0.09-0.4l0.80003-0.8c0.25-0.25 0.44-0.53 0.58-0.84 0.05-0.12 0.17-0.2 0.31-0.2h7.7335v-3.37l3.86 0.58v6.27c0 1.92 1.53 3.53 3.45 3.55 1.95 0.03 3.55-1.55 3.55-3.5v-7.09c0-0.24-0.2-0.44-0.44-0.44-0.86 0-1.56 0.7-1.56 1.56v4.35c0 0.55-0.45 1-1 1s-1-0.45-1-1v-5.5807c0-4.44-3.52-8.13-7.95-8.23-3.69-0.09-6.43 2.42-7.91 5.55-0.1 0.21-0.26003 0.45-0.54003 0.45-0.33-0.01-0.6-0.27-0.6-0.6v-4.4993h1.01c1.1 0 1.99-0.89 1.99-1.99v-0.7c0-0.17-0.14-0.31-0.31-0.31h-1.7c-1.1 0-1.99 0.74-1.99 1.84 0 0.09-0.07 0.16-0.16 0.16h-1.82c-0.59 0-1.1 0.41-1.22 0.99l-0.09 0.41c-0.08 0.35-0.38 0.6-0.74 0.6h-0.44c-0.84 0-1.55 0.69-1.53 1.53z" fill="url(#g)"/><path d="m2.0002 8.5268c0.02 0.81 0.68 1.47 1.5 1.47h1.21c0.13807 0 0.25 0.11197 0.25 0.24997v3.54c0 1.77 1.44 3.21 3.22 3.21h1.0465c0.08 0 0.12 0.09 0.06 0.15l-0.62 0.62c-0.36 0.36-0.58 0.85-0.57 1.36 0.03 1.03 0.88 1.87 1.92 1.87h0.56c0.42 0 0.76-0.34 0.75-0.76-0.01-0.41-0.36-0.74-0.77-0.74h-0.55c-0.17003 0-0.32003-0.1-0.38003-0.26-0.05-0.15-0.01-0.3 0.09-0.4l0.80003-0.8c0.25-0.25 0.44-0.53 0.58-0.84 0.05-0.12 0.17-0.2 0.31-0.2h7.7335v-3.37l3.86 0.58v6.27c0 1.92 1.53 3.53 3.45 3.55 1.95 0.03 3.55-1.55 3.55-3.5v-7.09c0-0.24-0.2-0.44-0.44-0.44-0.86 0-1.56 0.7-1.56 1.56v4.35c0 0.55-0.45 1-1 1s-1-0.45-1-1v-5.5807c0-4.44-3.52-8.13-7.95-8.23-3.69-0.09-6.43 2.42-7.91 5.55-0.1 0.21-0.26003 0.45-0.54003 0.45-0.33-0.01-0.6-0.27-0.6-0.6v-4.4993h1.01c1.1 0 1.99-0.89 1.99-1.99v-0.7c0-0.17-0.14-0.31-0.31-0.31h-1.7c-1.1 0-1.99 0.74-1.99 1.84 0 0.09-0.07 0.16-0.16 0.16h-1.82c-0.59 0-1.1 0.41-1.22 0.99l-0.09 0.41c-0.08 0.35-0.38 0.6-0.74 0.6h-0.44c-0.84 0-1.55 0.69-1.53 1.53z" fill="url(#f)"/></g><path d="m20.341 13.512v0.2952l-1.2011-0.1804v3.37h-6.7197v-0.0049h-4.4183c-1.697-0.0922-3.042-1.4945-3.042-3.2051v-0.2748h15.381z" fill="url(#e)"/><path d="m9.0002 5.9868v0.01h1.01c1.1 0 1.99-0.89 1.99-1.99v-0.01h-1.01c-1.1 0-1.99 0.89-1.99 1.99z" fill="url(#d)"/><g filter="url(#ag)"><path d="m19.51 19.587 2.1-1.21c1.96-1.13 2.35-3.8 0.78-5.45-1.11-1.17-2.88-1.42-4.28-0.62l-3.24 1.87c-1.67 0.97-2.25 3.11-1.28 4.78 0.66 1.15 1.88 1.78 3.11 1.75l0.8 1.39-2.73 1.52c-1.07 0.6-1.73 1.72-1.73 2.95v1.53c0 0.44 0.32 0.83 0.76 0.89 0.39 0.05 0.75-0.16 0.9-0.51l0.58-1.32c0.19-0.43 0.5-0.66 0.62-0.73l4.1-2.3c0.43-0.24 0.73-0.63 0.86-1.1s0.07-0.96-0.18-1.39l-1.17-2.05z" fill="#E4A063"/></g><path d="m19.51 19.587 2.1-1.21c1.96-1.13 2.35-3.8 0.78-5.45-1.11-1.17-2.88-1.42-4.28-0.62l-3.24 1.87c-1.67 0.97-2.25 3.11-1.28 4.78 0.66 1.15 1.88 1.78 3.11 1.75l0.8 1.39-2.73 1.52c-1.07 0.6-1.73 1.72-1.73 2.95v1.53c0 0.44 0.32 0.83 0.76 0.89 0.39 0.05 0.75-0.16 0.9-0.51l0.58-1.32c0.19-0.43 0.5-0.66 0.62-0.73l4.1-2.3c0.43-0.24 0.73-0.63 0.86-1.1s0.07-0.96-0.18-1.39l-1.17-2.05z" fill="url(#c)"/><path d="m19.51 19.587 2.1-1.21c1.96-1.13 2.35-3.8 0.78-5.45-1.11-1.17-2.88-1.42-4.28-0.62l-3.24 1.87c-1.67 0.97-2.25 3.11-1.28 4.78 0.66 1.15 1.88 1.78 3.11 1.75l0.8 1.39-2.73 1.52c-1.07 0.6-1.73 1.72-1.73 2.95v1.53c0 0.44 0.32 0.83 0.76 0.89 0.39 0.05 0.75-0.16 0.9-0.51l0.58-1.32c0.19-0.43 0.5-0.66 0.62-0.73l4.1-2.3c0.43-0.24 0.73-0.63 0.86-1.1s0.07-0.96-0.18-1.39l-1.17-2.05z" fill="url(#b)"/><path d="m19.51 19.587 2.1-1.21c1.96-1.13 2.35-3.8 0.78-5.45-1.11-1.17-2.88-1.42-4.28-0.62l-3.24 1.87c-1.67 0.97-2.25 3.11-1.28 4.78 0.66 1.15 1.88 1.78 3.11 1.75l0.8 1.39-2.73 1.52c-1.07 0.6-1.73 1.72-1.73 2.95v1.53c0 0.44 0.32 0.83 0.76 0.89 0.39 0.05 0.75-0.16 0.9-0.51l0.58-1.32c0.19-0.43 0.5-0.66 0.62-0.73l4.1-2.3c0.43-0.24 0.73-0.63 0.86-1.1s0.07-0.96-0.18-1.39l-1.17-2.05z" fill="url(#a)"/><path d="m19.51 19.587 2.1-1.21c1.96-1.13 2.35-3.8 0.78-5.45-1.11-1.17-2.88-1.42-4.28-0.62l-3.24 1.87c-1.67 0.97-2.25 3.11-1.28 4.78 0.66 1.15 1.88 1.78 3.11 1.75l0.8 1.39-2.73 1.52c-1.07 0.6-1.73 1.72-1.73 2.95v1.53c0 0.44 0.32 0.83 0.76 0.89 0.39 0.05 0.75-0.16 0.9-0.51l0.58-1.32c0.19-0.43 0.5-0.66 0.62-0.73l4.1-2.3c0.43-0.24 0.73-0.63 0.86-1.1s0.07-0.96-0.18-1.39l-1.17-2.05z" fill="url(#aa)"/><path d="m19.51 19.587 2.1-1.21c1.96-1.13 2.35-3.8 0.78-5.45-1.11-1.17-2.88-1.42-4.28-0.62l-3.24 1.87c-1.67 0.97-2.25 3.11-1.28 4.78 0.66 1.15 1.88 1.78 3.11 1.75l0.8 1.39-2.73 1.52c-1.07 0.6-1.73 1.72-1.73 2.95v1.53c0 0.44 0.32 0.83 0.76 0.89 0.39 0.05 0.75-0.16 0.9-0.51l0.58-1.32c0.19-0.43 0.5-0.66 0.62-0.73l4.1-2.3c0.43-0.24 0.73-0.63 0.86-1.1s0.07-0.96-0.18-1.39l-1.17-2.05z" fill="url(#z)"/><path d="m6.2302 7.9968c0.27615 0 0.5-0.22386 0.5-0.5 0-0.27615-0.22385-0.5-0.5-0.5-0.27614 0-0.5 0.22385-0.5 0.5 0 0.27614 0.22386 0.5 0.5 0.5z" fill="url(#y)"/><path d="m6.2302 7.9968c0.27615 0 0.5-0.22386 0.5-0.5 0-0.27615-0.22385-0.5-0.5-0.5-0.27614 0-0.5 0.22385-0.5 0.5 0 0.27614 0.22386 0.5 0.5 0.5z" fill="url(#x)"/><path d="m6.2302 7.9968c0.27615 0 0.5-0.22386 0.5-0.5 0-0.27615-0.22385-0.5-0.5-0.5-0.27614 0-0.5 0.22385-0.5 0.5 0 0.27614 0.22386 0.5 0.5 0.5z" fill="url(#w)"/><path d="m2.0908 9.0065c-0.05484-0.15043-0.08645-0.31183-0.0906-0.47967-0.00446-0.18752 0.02743-0.36756 0.08905-0.53412h0.48129c0.27478 0 0.49753 0.22275 0.49753 0.49752v0.01874c0 0.27478-0.22275 0.49753-0.49753 0.49753h-0.47974z" fill="url(#v)"/><path d="m2.0908 9.0065c-0.05484-0.15043-0.08645-0.31183-0.0906-0.47967-0.00446-0.18752 0.02743-0.36756 0.08905-0.53412h0.48129c0.27478 0 0.49753 0.22275 0.49753 0.49752v0.01874c0 0.27478-0.22275 0.49753-0.49753 0.49753h-0.47974z" fill="url(#u)"/><path d="m2.0908 9.0065c-0.05484-0.15043-0.08645-0.31183-0.0906-0.47967-0.00446-0.18752 0.02743-0.36756 0.08905-0.53412h0.48129c0.27478 0 0.49753 0.22275 0.49753 0.49752v0.01874c0 0.27478-0.22275 0.49753-0.49753 0.49753h-0.47974z" fill="url(#t)"/><g filter="url(#af)"><path d="m24.681 15.74v4.0006c0 1.186 0.9615 2.1474 2.1474 2.1474v0c1.186 0 2.1474-0.9614 2.1474-2.1474v-4.6136" stroke="url(#s)" stroke-linecap="round" stroke-width=".5"/></g><g filter="url(#ae)"><ellipse transform="rotate(45 19.522 11.215)" cx="19.522" cy="11.215" rx="5.7489" ry="4.8887" fill="url(#r)"/></g><g filter="url(#ad)"><rect transform="rotate(-30 13.677 15.885)" x="13.677" y="15.885" width="8.8174" height="4.6474" rx="2.3237" fill="url(#p)"/></g><g filter="url(#ac)"><rect transform="rotate(-30 17.357 18.451)" x="17.357" y="18.451" width=".85046" height="4.7269" rx=".42523" fill="#FFC78F"/></g><path d="m21.61 18.377-2.1 1.21 0.1255 0.22-1.4974-2.5655 5.0933-2.8394c0.4127 1.4789-0.1795 3.1436-1.6214 3.9749z" fill="url(#o)"/><path d="m21.61 18.377-2.1 1.21 0.1255 0.22-1.4974-2.5655 5.0933-2.8394c0.4127 1.4789-0.1795 3.1436-1.6214 3.9749z" fill="url(#n)"/><path d="m21.61 18.377-2.1 1.21 0.1255 0.22-1.4974-2.5655 5.0933-2.8394c0.4127 1.4789-0.1795 3.1436-1.6214 3.9749z" fill="url(#m)"/><path d="m11.5 16.997v-1.7832h-1.9076v1.2796c0 0.2363-0.10284 0.4609-0.28172 0.6153-0.0045 0.0133-0.01247 0.0264-0.02437 0.0383l-0.62 0.62c-0.36 0.36-0.58 0.85-0.57 1.36 0.03 1.03 0.88 1.87 1.92 1.87h0.56c0.42 0 0.76-0.34 0.75-0.76-0.01-0.41-0.36-0.74-0.77-0.74h-0.55c-0.17004 0-0.32004-0.1-0.38004-0.26-0.05-0.15-0.01-0.3 0.09-0.4l0.80004-0.8c0.25-0.25 0.44-0.53 0.58-0.84 0.05-0.12 0.17-0.2 0.31-0.2h0.0936z" fill="#DE9B69"/><path d="m11.5 16.997v-1.7832h-1.9076v1.2796c0 0.2363-0.10284 0.4609-0.28172 0.6153-0.0045 0.0133-0.01247 0.0264-0.02437 0.0383l-0.62 0.62c-0.36 0.36-0.58 0.85-0.57 1.36 0.03 1.03 0.88 1.87 1.92 1.87h0.56c0.42 0 0.76-0.34 0.75-0.76-0.01-0.41-0.36-0.74-0.77-0.74h-0.55c-0.17004 0-0.32004-0.1-0.38004-0.26-0.05-0.15-0.01-0.3 0.09-0.4l0.80004-0.8c0.25-0.25 0.44-0.53 0.58-0.84 0.05-0.12 0.17-0.2 0.31-0.2h0.0936z" fill="url(#l)"/><path d="m11.5 16.997v-1.7832h-1.9076v1.2796c0 0.2363-0.10284 0.4609-0.28172 0.6153-0.0045 0.0133-0.01247 0.0264-0.02437 0.0383l-0.62 0.62c-0.36 0.36-0.58 0.85-0.57 1.36 0.03 1.03 0.88 1.87 1.92 1.87h0.56c0.42 0 0.76-0.34 0.75-0.76-0.01-0.41-0.36-0.74-0.77-0.74h-0.55c-0.17004 0-0.32004-0.1-0.38004-0.26-0.05-0.15-0.01-0.3 0.09-0.4l0.80004-0.8c0.25-0.25 0.44-0.53 0.58-0.84 0.05-0.12 0.17-0.2 0.31-0.2h0.0936z" fill="url(#k)"/><path d="m11.5 16.997v-1.7832h-1.9076v1.2796c0 0.2363-0.10284 0.4609-0.28172 0.6153-0.0045 0.0133-0.01247 0.0264-0.02437 0.0383l-0.62 0.62c-0.36 0.36-0.58 0.85-0.57 1.36 0.03 1.03 0.88 1.87 1.92 1.87h0.56c0.42 0 0.76-0.34 0.75-0.76-0.01-0.41-0.36-0.74-0.77-0.74h-0.55c-0.17004 0-0.32004-0.1-0.38004-0.26-0.05-0.15-0.01-0.3 0.09-0.4l0.80004-0.8c0.25-0.25 0.44-0.53 0.58-0.84 0.05-0.12 0.17-0.2 0.31-0.2h0.0936z" fill="url(#j)"/><path d="m11.5 16.997v-1.7832h-1.9076v1.2796c0 0.2363-0.10284 0.4609-0.28172 0.6153-0.0045 0.0133-0.01247 0.0264-0.02437 0.0383l-0.62 0.62c-0.36 0.36-0.58 0.85-0.57 1.36 0.03 1.03 0.88 1.87 1.92 1.87h0.56c0.42 0 0.76-0.34 0.75-0.76-0.01-0.41-0.36-0.74-0.77-0.74h-0.55c-0.17004 0-0.32004-0.1-0.38004-0.26-0.05-0.15-0.01-0.3 0.09-0.4l0.80004-0.8c0.25-0.25 0.44-0.53 0.58-0.84 0.05-0.12 0.17-0.2 0.31-0.2h0.0936z" fill="url(#i)"/><defs><filter id="ah" x="1.9998" y="2.9968" width="28.2" height="21.23" color-interpolation-filters="sRGB" filterUnits="userSpaceOnUse"><feFlood flood-opacity="0" result="BackgroundImageFix"/><feBlend in="SourceGraphic" in2="BackgroundImageFix" result="shape"/><feColorMatrix in="SourceAlpha" result="hardAlpha" values="0 0 0 0 0 0 0 0 0 0 0 0 0 0 0 0 0 0 127 0"/><feOffset dx="0.2" dy="0.2"/><feGaussianBlur stdDeviation="0.5"/><feComposite in2="hardAlpha" k2="-1" k3="1" operator="arithmetic"/><feColorMatrix values="0 0 0 0 0.764706 0 0 0 0 0.443137 0 0 0 0 0.290196 0 0 0 1 0"/><feBlend in2="shape" result="effect1_innerShadow_28327_4480"/></filter><filter id="ag" x="13.04" y="11.842" width="10.42" height="17.352" color-interpolation-filters="sRGB" filterUnits="userSpaceOnUse"><feFlood flood-opacity="0" result="BackgroundImageFix"/><feBlend in="SourceGraphic" in2="BackgroundImageFix" result="shape"/><feColorMatrix in="SourceAlpha" result="hardAlpha" values="0 0 0 0 0 0 0 0 0 0 0 0 0 0 0 0 0 0 127 0"/><feOffset dx="0.1" dy="0.2"/><feGaussianBlur stdDeviation="0.5"/><feComposite in2="hardAlpha" k2="-1" k3="1" operator="arithmetic"/><feColorMatrix values="0 0 0 0 0.764706 0 0 0 0 0.443137 0 0 0 0 0.290196 0 0 0 1 0"/><feBlend in2="shape" result="effect1_innerShadow_28327_4480"/></filter><filter id="af" x="23.431" y="13.877" width="6.7948" height="9.261" color-interpolation-filters="sRGB" filterUnits="userSpaceOnUse"><feFlood flood-opacity="0" result="BackgroundImageFix"/><feBlend in="SourceGraphic" in2="BackgroundImageFix" result="shape"/><feGaussianBlur result="effect1_foregroundBlur_28327_4480" stdDeviation="0.5"/></filter><filter id="ae" x="11.186" y="2.8789" width="16.672" height="16.673" color-interpolation-filters="sRGB" filterUnits="userSpaceOnUse"><feFlood flood-opacity="0" result="BackgroundImageFix"/><feBlend in="SourceGraphic" in2="BackgroundImageFix" result="shape"/><feGaussianBlur result="effect1_foregroundBlur_28327_4480" stdDeviation="1.5"/></filter><filter id="ad" x="12.528" y="10.327" width="12.26" height="10.733" color-interpolation-filters="sRGB" filterUnits="userSpaceOnUse"><feFlood flood-opacity="0" result="BackgroundImageFix"/><feBlend in="SourceGraphic" in2="BackgroundImageFix" result="shape"/><feGaussianBlur result="effect1_foregroundBlur_28327_4480" stdDeviation="1"/></filter><filter id="ac" x="16.513" y="17.181" width="4.7888" height="6.2078" color-interpolation-filters="sRGB" filterUnits="userSpaceOnUse"><feFlood flood-opacity="0" result="BackgroundImageFix"/><feBlend in="SourceGraphic" in2="BackgroundImageFix" result="shape"/><feGaussianBlur result="effect1_foregroundBlur_28327_4480" stdDeviation="0.5"/></filter><radialGradient id="ab" cx="0" cy="0" r="1" gradientTransform="translate(5.927 16.909) rotate(-51.979) scale(5.7838 7.7007)" gradientUnits="userSpaceOnUse"><stop stop-color="#D8966E" offset="0"/><stop stop-color="#D8966E" stop-opacity="0" offset="1"/></radialGradient><radialGradient id="q" cx="0" cy="0" r="1" gradientTransform="translate(23.152 20.637) rotate(90) scale(7.8689 2.9576)" gradientUnits="userSpaceOnUse"><stop stop-color="#DF8366" offset="0"/><stop stop-color="#DF8366" stop-opacity="0" offset="1"/></radialGradient><radialGradient id="h" cx="0" cy="0" r="1" gradientTransform="translate(26.866 25.266) rotate(-90) scale(4.6589 23.226)" gradientUnits="userSpaceOnUse"><stop stop-color="#DF8366" offset="0"/><stop stop-color="#DF8366" stop-opacity="0" offset="1"/></radialGradient><radialGradient id="g" cx="0" cy="0" r="1" gradientTransform="translate(25.886 26.48) rotate(-90) scale(5.4624 7.4918)" gradientUnits="userSpaceOnUse"><stop stop-color="#DE6E8E" offset="0"/><stop stop-color="#DE6E8E" stop-opacity="0" offset="1"/></radialGradient><radialGradient id="f" cx="0" cy="0" r="1" gradientTransform="translate(2.4405 10.935) rotate(-33.589) scale(4.1722 1.9758)" gradientUnits="userSpaceOnUse"><stop stop-color="#BF5472" offset=".12922"/><stop stop-color="#DE6E8E" stop-opacity="0" offset=".86871"/></radialGradient><linearGradient id="e" x1="13.328" x2="13.3" y1="17.636" y2="15.04" gradientUnits="userSpaceOnUse"><stop stop-color="#BF5472" offset="0"/><stop stop-color="#DE6E8E" stop-opacity="0" offset=".9182"/></linearGradient><radialGradient id="d" cx="0" cy="0" r="1" gradientTransform="translate(9.9331 4.2537) rotate(50.521) scale(1.9297 4.6687)" gradientUnits="userSpaceOnUse"><stop stop-color="#B36F53" offset="0"/><stop stop-color="#BB7A5C" offset="1"/></radialGradient><linearGradient id="c" x1="21.288" x2="15.011" y1="11.842" y2="15.186" gradientUnits="userSpaceOnUse"><stop stop-color="#F1B378" offset="0"/><stop stop-color="#F5B97F" stop-opacity="0" offset="1"/></linearGradient><radialGradient id="b" cx="0" cy="0" r="1" gradientTransform="translate(13.533 20.418) rotate(10.413) scale(4.5546 2.1894)" gradientUnits="userSpaceOnUse"><stop stop-color="#DE6E8E" offset="0"/><stop stop-color="#DE6E8E" stop-opacity="0" offset="1"/></radialGradient><linearGradient id="a" x1="19.139" x2="17.944" y1="25.884" y2="23.708" gradientUnits="userSpaceOnUse"><stop stop-color="#DE6E8E" offset="0"/><stop stop-color="#DE6E8E" stop-opacity="0" offset=".81871"/></linearGradient><radialGradient id="aa" cx="0" cy="0" r="1" gradientTransform="translate(13.04 27.403) rotate(34.312) scale(2.823 2.4551)" gradientUnits="userSpaceOnUse"><stop stop-color="#E08F78" offset="0"/><stop stop-color="#E08F78" stop-opacity="0" offset="1"/></radialGradient><radialGradient id="z" cx="0" cy="0" r="1" gradientTransform="translate(13.872 18.64) rotate(-8.2025) scale(5.2713 3.1716)" gradientUnits="userSpaceOnUse"><stop stop-color="#E29A73" offset="0"/><stop stop-color="#E29A73" stop-opacity="0" offset="1"/></radialGradient><radialGradient id="y" cx="0" cy="0" r="1" gradientTransform="translate(6.3787 7.3359) rotate(125.84) scale(.69386 .61861)" gradientUnits="userSpaceOnUse"><stop stop-color="#433437" offset=".0055866"/><stop stop-color="#3B2838" offset="1"/></radialGradient><radialGradient id="x" cx="0" cy="0" r="1" gradientTransform="translate(6.4171 7.3718) rotate(137.64) scale(.35946 .31624)" gradientUnits="userSpaceOnUse"><stop stop-color="#5C5051" offset="0"/><stop stop-color="#5C5051" stop-opacity="0" offset="1"/></radialGradient><linearGradient id="w" x1="6.1319" x2="5.7882" y1="7.1041" y2="6.8854" gradientUnits="userSpaceOnUse"><stop stop-color="#5C5051" stop-opacity="0" offset="0"/><stop stop-color="#5C5051" offset="1"/></linearGradient><radialGradient id="v" cx="0" cy="0" r="1" gradientTransform="translate(2.6925 8.3365) rotate(127.27) scale(.71662 .64869)" gradientUnits="userSpaceOnUse"><stop stop-color="#433437" offset=".0055866"/><stop stop-color="#3B2838" offset="1"/></radialGradient><radialGradient id="u" cx="0" cy="0" r="1" gradientTransform="translate(2.7335 8.3728) rotate(139.13) scale(.37524 .32809)" gradientUnits="userSpaceOnUse"><stop stop-color="#5C5051" offset="0"/><stop stop-color="#5C5051" stop-opacity="0" offset="1"/></radialGradient><linearGradient id="t" x1="2.4289" x2="2.073" y1="8.1014" y2="7.8628" gradientUnits="userSpaceOnUse"><stop stop-color="#5C5051" stop-opacity="0" offset="0"/><stop stop-color="#5C5051" offset="1"/></linearGradient><linearGradient id="s" x1="24.681" x2="33.102" y1="19.83" y2="19.83" gradientUnits="userSpaceOnUse"><stop stop-color="#FFC78F" offset="0"/><stop stop-color="#FFC78F" stop-opacity="0" offset="1"/></linearGradient><radialGradient id="r" cx="0" cy="0" r="1" gradientTransform="translate(19.402 8.4074) rotate(89.104) scale(7.6975 12.822)" gradientUnits="userSpaceOnUse"><stop stop-color="#FFC78F" offset="0"/><stop stop-color="#FFC78F" stop-opacity="0" offset="1"/></radialGradient><linearGradient id="p" x1="21.669" x2="8.2629" y1="18.241" y2="18.132" gradientUnits="userSpaceOnUse"><stop stop-color="#FFC78F" offset="0"/><stop stop-color="#FFC78F" stop-opacity="0" offset="1"/></linearGradient><linearGradient id="o" x1="22.3" x2="20.749" y1="18.415" y2="15.767" gradientUnits="userSpaceOnUse"><stop stop-color="#E29E68" offset="0"/><stop stop-color="#E29E68" stop-opacity="0" offset="1"/></linearGradient><linearGradient id="n" x1="20.97" x2="20.201" y1="19" y2="17.686" gradientUnits="userSpaceOnUse"><stop stop-color="#DE6E8E" offset="0"/><stop stop-color="#DE6E8E" stop-opacity="0" offset=".57468"/></linearGradient><linearGradient id="m" x1="22.647" x2="20.201" y1="19.308" y2="17.686" gradientUnits="userSpaceOnUse"><stop stop-color="#DE6E8E" offset="0"/><stop stop-color="#DE6E8E" stop-opacity="0" offset=".57468"/></linearGradient><linearGradient id="l" x1="7.7272" x2="7.7272" y1="21.469" y2="16.11" gradientUnits="userSpaceOnUse"><stop stop-color="#D6876C" offset="0"/><stop stop-color="#D6876C" stop-opacity="0" offset="1"/></linearGradient><linearGradient id="k" x1="8.9223" x2="9.4414" y1="21.246" y2="18.784" gradientUnits="userSpaceOnUse"><stop stop-color="#DE6E8E" offset="0"/><stop stop-color="#DE6E8E" stop-opacity="0" offset=".46469"/></linearGradient><radialGradient id="j" cx="0" cy="0" r="1" gradientTransform="translate(10.087 19.067) rotate(.34374) scale(1.2208 1.1375)" gradientUnits="userSpaceOnUse"><stop stop-color="#C6724F" offset="0"/><stop stop-color="#C6724F" stop-opacity="0" offset="1"/></radialGradient><linearGradient id="i" x1="9.7984" x2="9.7984" y1="15.358" y2="16.623" gradientUnits="userSpaceOnUse"><stop stop-color="#E39F65" offset="0"/><stop stop-color="#E39F65" stop-opacity="0" offset="1"/></linearGradient></defs></svg>
