<svg width="383" height="34" viewBox="0 0 383 34" fill="none" xmlns="http://www.w3.org/2000/svg">
<g clip-path="url(#clip0_115_175)">
<path d="M237.973 30.5C238.943 30.5 239.729 29.7165 239.729 28.75C239.729 27.7835 238.943 27 237.973 27C237.003 27 236.217 27.7835 236.217 28.75C236.217 29.7165 237.003 30.5 237.973 30.5Z" fill="#318FC1"/>
<path d="M243.956 30.5C244.926 30.5 245.712 29.7165 245.712 28.75C245.712 27.7835 244.926 27 243.956 27C242.986 27 242.2 27.7835 242.2 28.75C242.2 29.7165 242.986 30.5 243.956 30.5Z" fill="#318FC1"/>
<path d="M249.934 30.5C250.903 30.5 251.69 29.7165 251.69 28.75C251.69 27.7835 250.903 27 249.934 27C248.964 27 248.178 27.7835 248.178 28.75C248.178 29.7165 248.964 30.5 249.934 30.5Z" fill="#318FC1"/>
<path d="M32.7883 8.39546H24V3.21436H47.9396V8.39546H39.1514V30.6877H32.7944V8.39546H32.7883Z" fill="black"/>
<path d="M76.5457 3.21436V30.6815H70.1887V19.4191H57.7075V30.6815H51.3506V3.21436H57.7075V14.0481H70.1887V3.21436H76.5457Z" fill="black"/>
<path d="M99.9464 30.6877L94.649 23.0324H88.8003V30.6877H82.4434V3.21436H94.3366C96.7679 3.21436 98.8808 3.61855 100.675 4.43308C102.47 5.24148 103.848 6.39283 104.815 7.88715C105.783 9.38146 106.267 11.1452 106.267 13.1846C106.267 15.224 105.777 16.9878 104.797 18.4637C103.817 19.9396 102.421 21.0726 100.62 21.8565L106.781 30.6877H99.9525H99.9464ZM98.3419 9.63255C97.3497 8.80578 95.8983 8.39546 93.9875 8.39546H88.8064V17.9676H93.9875C95.8983 17.9676 97.3497 17.5512 98.3419 16.7122C99.334 15.8731 99.8362 14.6973 99.8362 13.1785C99.8362 11.6597 99.3401 10.4532 98.3419 9.62643V9.63255Z" fill="black"/>
<path d="M132.559 25.5862V30.6877H111.289V3.21436H132.05V8.31584H117.609V14.2808H130.366V19.2231H117.609V25.5801H132.559V25.5862Z" fill="black"/>
<path d="M158.893 25.5862V30.6877H137.623V3.21436H158.384V8.31584H143.943V14.2808H156.7V19.2231H143.943V25.5801H158.893V25.5862Z" fill="black"/>
<path d="M188.95 30.6877L188.914 14.2074L180.83 27.7848H177.963L169.916 14.5626V30.6938H163.951V3.21436H169.212L179.494 20.2826L189.618 3.21436H194.836L194.915 30.6815H188.95V30.6877Z" fill="black"/>
<path d="M219.523 24.8023H206.766L204.335 30.6877H197.818L210.061 3.21436H216.338L228.623 30.6815H221.954L219.523 24.7962V24.8023ZM217.52 19.9764L213.166 9.46107L208.811 19.9764H217.52Z" fill="black"/>
<path d="M243.745 3C249.83 3 254.779 7.93423 254.779 14C254.779 20.0658 249.83 25 243.745 25C241.5 25 239.416 24.3317 237.673 23.1816L233.431 24.5361L234.808 20.4492C233.486 18.6375 232.705 16.4053 232.705 14C232.705 7.93423 237.655 3 243.739 3H243.745ZM243.948 8C242.221 8.00001 240.812 9.40872 240.812 11.1357V12.5996H240.715C240.17 12.5996 239.729 13.0401 239.729 13.585V17.542C239.729 18.0868 240.17 18.5273 240.715 18.5273H247.176C247.721 18.5273 248.162 18.0868 248.162 17.542V13.585C248.162 13.0401 247.721 12.5996 247.176 12.5996H247.084V11.1357C247.084 9.40871 245.675 8 243.948 8ZM243.948 9.28613C244.965 9.28613 245.798 10.1191 245.798 11.1357V12.5996H242.099V11.1357C242.099 10.113 242.932 9.28615 243.948 9.28613Z" fill="#318FC1"/>
</g>
<path d="M260 30.762V3H272.094C275.218 3 277.634 3.62134 279.343 4.86402C281.078 6.10671 281.946 7.86497 281.946 10.1388C281.946 11.6459 281.585 12.915 280.864 13.9462C280.17 14.9773 279.209 15.7573 277.981 16.2861C276.78 16.8149 275.458 17.0793 274.016 17.0793L274.697 16.1275C276.486 16.1275 278.021 16.4051 279.303 16.9603C280.611 17.4891 281.625 18.2956 282.346 19.3796C283.067 20.4372 283.427 21.7592 283.427 23.3456C283.427 25.6988 282.546 27.5231 280.784 28.8187C279.049 30.1143 276.419 30.762 272.895 30.762H260ZM262.963 28.3428H272.855C275.311 28.3428 277.193 27.933 278.502 27.1133C279.81 26.2672 280.464 24.932 280.464 23.1076C280.464 21.3097 279.81 20.0009 278.502 19.1813C277.193 18.3352 275.311 17.9122 272.855 17.9122H262.643V15.4929H271.894C274.137 15.4929 275.872 15.0699 277.1 14.2238C278.355 13.3777 278.982 12.1218 278.982 10.4561C278.982 8.76393 278.355 7.50803 277.1 6.68838C275.872 5.8423 274.137 5.41926 271.894 5.41926H262.963V28.3428Z" fill="black"/>
<path d="M288.59 30.762V3H291.553V28.2238H307.252V30.762H288.59Z" fill="black"/>
<path d="M321.355 31C317.778 31 314.961 29.9821 312.905 27.9462C310.849 25.9103 309.822 22.8961 309.822 18.9037V3H312.785V18.7847C312.785 22.0633 313.533 24.4825 315.028 26.0425C316.523 27.6025 318.632 28.3824 321.355 28.3824C324.105 28.3824 326.227 27.6025 327.722 26.0425C329.218 24.4825 329.965 22.0633 329.965 18.7847V3H332.848V18.9037C332.848 22.8961 331.821 25.9103 329.765 27.9462C327.736 29.9821 324.933 31 321.355 31Z" fill="black"/>
<path d="M342.82 15.4136H357.637V17.9122H342.82V15.4136ZM343.14 28.2238H360V30.762H340.177V3H359.399V5.53824H343.14V28.2238Z" fill="black"/>
<defs>
<clipPath id="clip0_115_175">
<rect width="230.779" height="28" fill="white" transform="translate(24 3)"/>
</clipPath>
</defs>
</svg>
