<?xml version="1.0" encoding="UTF-8"?>
<!-- Generated by Pixelmator Pro 3.6.17 -->
<svg width="1417" height="181" viewBox="0 0 1417 181" xmlns="http://www.w3.org/2000/svg">
    <g id="Group">
        <g id="Ebene1">
            <g id="Ebene1-2">
                <path id="Path" fill="#000000" stroke="none" d="M 883.900024 44.699997 C 920.299988 44.699997 939 63.099998 939.400024 89.599998 L 939.400024 176.599991 L 910.200012 176.599991 L 910.200012 163.399994 C 902.400024 174.199997 888.700012 180.899994 869 180.899994 C 849.299988 180.899994 823.200012 170.399994 823.200012 144.399994 C 823.200012 118.399994 848.900024 104.899994 877.599976 99.599998 L 908.5 93.899994 L 908.5 90.899994 C 908.5 78.399994 899.299988 71.399994 884.5 71.399994 C 869.700012 71.399994 859.299988 78.299995 847.400024 89.599998 L 844.700012 92.199997 L 824.200012 73.399994 C 840.200012 54.400002 858.700012 44.699997 884 44.699997 L 883.900024 44.699997 Z M 425.5 44.699997 C 464.5 44.699997 485.299988 69.199997 485.299988 108.399994 L 485.299988 109.699997 C 485.299988 113.299995 485.100006 117.899994 484.899994 120.5 L 484.899994 121.100006 L 393.100006 121.100006 C 395.899994 139.599991 406.899994 153.099991 429.100006 153.099991 C 451.299988 153.099991 451.899994 148.199997 466.5 136.099991 L 467.100006 135.599991 L 485.299988 155.599991 C 466.5 174.599991 449.100006 180.599991 428.299988 180.599991 C 387.100006 180.599991 361.299988 154.099991 361.299988 113.399994 C 361.299988 72.699997 385.299988 44.600006 425.5 44.600006 L 425.5 44.600006 Z M 557.099976 44.699997 C 596.099976 44.699997 616.900024 69.199997 616.900024 108.399994 L 616.900024 110.699997 C 616.900024 114.099998 616.599976 118.100006 616.5 120.5 L 616.5 121.100006 L 524.700012 121.100006 C 527.5 139.599991 538.5 153.099991 560.700012 153.099991 C 582.900024 153.099991 583.5 148.199997 598.099976 136.099991 L 598.700012 135.599991 L 616.900024 155.599991 C 598.099976 174.599991 580.700012 180.599991 559.900024 180.599991 C 518.700012 180.599991 492.899994 154.099991 492.899994 113.399994 C 492.899994 72.699997 516.900024 44.600006 557.099976 44.600006 L 557.099976 44.600006 Z M 769.5 44.699997 C 796.700012 44.699997 811.700012 61.099998 812 86.699997 L 812 176.699997 L 779.5 176.699997 L 779.5 97.199997 C 779.5 83 774 72.699997 759.299988 72.699997 C 744.599976 72.699997 737 83.5 736.799988 97.799995 L 736.799988 176.699997 L 704.299988 176.699997 L 704.299988 97.199997 C 704.299988 83 699.099976 72.699997 684.099976 72.699997 C 669.099976 72.699997 661.799988 83.699997 661.599976 97.799995 L 661.599976 176.699997 L 629.099976 176.699997 L 629.099976 49 L 659.299988 49 L 659.299988 63.199997 C 666.099976 52.199997 677.799988 44.699997 695.799988 44.699997 C 713.799988 44.699997 724.599976 51.699997 731.299988 63.5 C 738.799988 52.800003 750.799988 44.800003 769.5 44.800003 L 769.5 44.800003 Z M 142 -0.800003 L 142 29.199997 L 88.5 29.199997 L 88.5 176.699997 L 53.5 176.699997 L 53.5 29.199997 L 0 29.199997 L 0 -0.800003 L 142 -0.800003 Z M 184.899994 -0.800003 L 184.899994 60.5 C 192.899994 50.699997 205.100006 44.699997 221.100006 44.699997 C 250.600006 44.699997 266.5 62.799995 266.799988 88.399994 L 266.799988 176.699997 L 234.300003 176.699997 L 234.300003 98.899994 C 234.300003 82.099998 226.100006 72.699997 210.5 72.699997 C 194.899994 72.699997 185 83.5 184.800003 99.199997 L 184.800003 176.699997 L 152.300003 176.699997 L 152.300003 -0.800003 L 184.899994 -0.800003 Z M 344.100006 47.199997 C 350.899994 47.199997 356.700012 48.600006 363.600006 50.699997 L 364.399994 50.899994 L 358.600006 79.399994 C 353.299988 77.899994 347.799988 77.099998 342.399994 76.899994 C 325.299988 76.899994 314.600006 90.399994 314.399994 113 L 314.399994 176.699997 L 281.899994 176.699997 L 281.899994 49 L 312.100006 49 L 312.100006 67.699997 C 318.100006 55.5 328.299988 47.199997 344.100006 47.199997 L 344.100006 47.199997 Z M 991.099976 140.399994 L 991.099976 176.599991 L 955.599976 176.599991 L 955.599976 140.399994 L 991.099976 140.399994 Z M 908.400024 117.199997 L 885.799988 121.899994 L 884.700012 122.100006 C 866.700012 126 855 130.599991 855 142.099991 C 855 153.599991 862.200012 154.899994 874.5 154.899994 C 886.799988 154.899994 908.200012 147.099991 908.5 125.300003 L 908.5 117.100006 L 908.400024 117.100006 Z M 424.5 70.199997 C 407.399994 70.199997 397.5 81.199997 393.899994 97.5 L 393.899994 98 C 393.799988 98 453.5 98 453.5 98 C 452.200012 81 442.200012 70.199997 424.5 70.199997 L 424.5 70.199997 Z M 556.099976 70.199997 C 539 70.199997 529.099976 81.199997 525.5 97.5 L 525.5 98 C 525.5 98 585.099976 98 585.099976 98 C 583.799988 81 573.799988 70.199997 556.099976 70.199997 L 556.099976 70.199997 Z"/>
                <g id="g1">
                    <path id="path1" fill="#000000" stroke="none" d="M 1132.099976 127.100006 C 1132.099976 157.300003 1110.599976 176.800003 1078.199951 176.800003 L 1002.599976 176.800003 L 1002.599976 -0.399994 L 1075.699951 -0.399994 C 1104.599976 -0.399994 1125.900024 14.100006 1125.900024 43.800003 C 1125.900024 73.5 1114.699951 77 1099 83 C 1118 88.5 1132.199951 104 1132.199951 127.199997 L 1132.199951 127.199997 Z M 1015.299988 78 L 1073.900024 78 C 1097.599976 78 1113.099976 65.5 1113.099976 43.300003 C 1113.099976 21.100006 1098.599976 10.399994 1073.699951 10.399994 L 1015.299988 10.399994 L 1015.299988 78 L 1015.299988 78 Z M 1119.300049 127.899994 C 1119.300049 104.899994 1101.800049 88.699997 1074.400024 88.699997 L 1015.299988 88.699997 L 1015.299988 166.099991 L 1075.199951 166.099991 C 1104.400024 166.099991 1119.400024 150.899994 1119.400024 127.899994 L 1119.400024 127.899994 Z"/>
                    <path id="path2" fill="#000000" stroke="none" d="M 1167.5 176.800003 L 1155.5 176.800003 L 1155.5 -0.399994 L 1167.5 -0.399994 L 1167.5 176.800003 L 1167.5 176.800003 Z"/>
                    <path id="path3" fill="#000000" stroke="none" d="M 1288.800049 58 L 1288.800049 176.800003 L 1277.300049 176.800003 L 1277.300049 159.300003 C 1269.800049 173.800003 1254.599976 179.800003 1240.599976 179.800003 C 1209.400024 179.800003 1197.900024 161.599991 1197.900024 140.099991 L 1197.900024 58 L 1209.900024 58 L 1209.900024 137.800003 C 1209.900024 159 1222.099976 169.5 1240.599976 169.5 C 1259.099976 169.5 1276.800049 157 1276.800049 131.099991 L 1276.800049 58 L 1288.800049 58 Z"/>
                    <path id="path4" fill="#000000" stroke="none" d="M 1417 153.800003 C 1399.800049 173.300003 1386.599976 179.800003 1366.599976 179.800003 C 1332.199951 179.800003 1311 154.800003 1311 118.399994 C 1311 82 1332.699951 55 1365.099976 55 C 1397.5 55 1416.5 77 1416.5 110.599998 C 1416.5 144.199997 1416.300049 115.299995 1416 116.799995 L 1323.400024 116.799995 C 1323.599976 144.699997 1336.599976 169.699997 1367.599976 169.699997 C 1398.599976 169.699997 1393.300049 163.699997 1409 146.699997 L 1417 153.699997 L 1417 153.699997 Z M 1323.900024 107.399994 L 1404.699951 107.399994 C 1404 82.399994 1389.199951 65 1365 65 C 1340.800049 65 1326.800049 79.5 1323.800049 107.399994 L 1323.800049 107.399994 Z"/>
                </g>
            </g>
        </g>
    </g>
</svg>
