<svg fill="none" viewBox="0 0 32 32" xmlns="http://www.w3.org/2000/svg"><g filter="url(#aj)"><path d="m9.3858 29.528c-0.10864 0.3137-0.45044 0.4804-0.76453 0.373-0.31561-0.108-0.48346-0.4518-0.37451-0.767l1.122-3.2466c0.01299-0.0376 0.01052-0.0788-0.00687-0.1145l-1.8027-3.7075c-0.14996-0.3-0.02002-0.6601 0.28003-0.8101 0.29999-0.15 0.65997-0.02 0.81 0.28l1.1587 2.3832c0.05708 0.1174 0.22728 0.1111 0.27788-0.0092 1.0575-2.5171 2.6864-4.5449 4.9588-6.0837 0 0 0.051-0.0492 0.1008-0.0975l0.0074-0.0073c0.0533-0.0518 0.0689-0.1393 0.0364-0.2061l-1.75-3.5993c-0.15-0.3-0.0201-0.66 0.28-0.81 0.3-0.15 0.66-0.02 0.81 0.28l1.6202 3.3323c0.0425 0.0874 0.1557 0.1119 0.2297 0.0489 1.7735-1.513 3.1365-3.4935 3.9001-5.7013l0.38-1.09c0.11-0.32 0.45-0.47999 0.77-0.36999s0.48 0.44999 0.37 0.76999l-0.38 1.09c-0.7596 2.2105-2.0732 4.2133-3.7741 5.8023-0.0951 0.0888-0.0429 0.2503 0.0866 0.2641l2.5675 0.2737c0.33 0.03 0.57 0.33 0.54 0.66s-0.33 0.5699-0.66 0.5399l-4.0871-0.4345c-0.0357-0.0039-0.0715 0.0054-0.1007 0.0264-0.0234 0.0168-0.0526 0.0379-0.0828 0.0597-0.0708 0.0512-0.1474 0.1065-0.1691 0.1212-2.2213 1.5063-3.7885 3.5736-4.727 6.068-0.0344 0.0912 0.0273 0.1898 0.1243 0.1999l3.5424 0.3695c0.33 0.03 0.57 0.33 0.54 0.66s-0.33 0.57-0.66 0.54l-3.9016-0.4061c-0.0693-0.0072-0.1345 0.0343-0.1573 0.1001l-1.1146 3.2185z" fill="#4E7C2F"/></g><g filter="url(#ae)"><path d="m8.9062 29.144 1.8438-5c0.5312-1.4062 1.4358-2.9129 2.7344-4.1718 2.0468-1.9844 4.0312-2.8594 5.375-4.7969 1.3437-1.9375 1.9531-3.25 2.4844-5.0938" stroke="#77975C" stroke-width=".25"/></g><g filter="url(#ad)"><path d="m8.4219 22.082 1.5937 3.4219" stroke="#83A763" stroke-width=".25"/></g><g filter="url(#ac)"><path d="m13.953 25.816-3.8076-0.4185" stroke="#77975C" stroke-width=".25"/></g><g filter="url(#ab)"><path d="m19.976 18.285-3.8076-0.4186" stroke="#77975C" stroke-width=".25"/></g><g filter="url(#aa)"><path d="m16.078 17.77-1.8014-3.6019" stroke="#83A763" stroke-width=".25"/></g><g filter="url(#z)"><path d="m10.358 15.506-2.2104-4.535c-0.06054-0.1242-0.21083-0.1762-0.33209-0.1099-2.5186 1.3762-3.5407 4.5003-2.2676 7.1049l2.2103 4.5351c0.06055 0.1242 0.21084 0.1762 0.33209 0.1099 2.5181-1.3762 3.531-4.5003 2.2676-7.105z" fill="url(#v)"/><path d="m10.358 15.506-2.2104-4.535c-0.06054-0.1242-0.21083-0.1762-0.33209-0.1099-2.5186 1.3762-3.5407 4.5003-2.2676 7.1049l2.2103 4.5351c0.06055 0.1242 0.21084 0.1762 0.33209 0.1099 2.5181-1.3762 3.531-4.5003 2.2676-7.105z" fill="url(#k)"/><path d="m10.358 15.506-2.2104-4.535c-0.06054-0.1242-0.21083-0.1762-0.33209-0.1099-2.5186 1.3762-3.5407 4.5003-2.2676 7.1049l2.2103 4.5351c0.06055 0.1242 0.21084 0.1762 0.33209 0.1099 2.5181-1.3762 3.531-4.5003 2.2676-7.105z" fill="url(#h)"/></g><g filter="url(#y)"><path d="m10.338 16.28-2.3845-4.6763c-1.0327 0.6703-0.45892 2.3153-0.11747 2.9059l2.4706 4.7602c0.6232-1.0832 0.2805-2.4445 0.0313-2.9898z" fill="url(#g)"/></g><g filter="url(#x)"><path d="m15.788 9.1165-1.7007-3.4954c-0.0603-0.12409-0.2104-0.17637-0.3308-0.10894-1.9385 1.0856-2.7118 3.5097-1.7285 5.5343l1.7003 3.4945c0.0606 0.1244 0.2112 0.1765 0.3317 0.1085 1.9382-1.0939 2.7113-3.5086 1.728-5.533z" fill="url(#f)"/><path d="m15.788 9.1165-1.7007-3.4954c-0.0603-0.12409-0.2104-0.17637-0.3308-0.10894-1.9385 1.0856-2.7118 3.5097-1.7285 5.5343l1.7003 3.4945c0.0606 0.1244 0.2112 0.1765 0.3317 0.1085 1.9382-1.0939 2.7113-3.5086 1.728-5.533z" fill="url(#e)"/><path d="m15.788 9.1165-1.7007-3.4954c-0.0603-0.12409-0.2104-0.17637-0.3308-0.10894-1.9385 1.0856-2.7118 3.5097-1.7285 5.5343l1.7003 3.4945c0.0606 0.1244 0.2112 0.1765 0.3317 0.1085 1.9382-1.0939 2.7113-3.5086 1.728-5.533z" fill="url(#d)"/></g><g filter="url(#w)"><path d="m15.588 9.7279-1.77-3.4533c-0.7624 0.49709-0.3357 1.7123-0.0824 2.1484l1.8338 3.5153c0.4591-0.8017 0.2037-1.8076 0.0186-2.2103z" fill="url(#c)"/></g><path d="m24.084 2.2934c-0.056-0.12622-0.2069-0.17815-0.3287-0.1131-3.1054 1.6584-4.4193 5.4417-2.9926 8.6594 0.0559 0.1261 0.2067 0.178 0.3284 0.1132 3.1146-1.6581 4.4199-5.4417 2.9929-8.6595z" fill="#B2DC52"/><path d="m24.084 2.2934c-0.056-0.12622-0.2069-0.17815-0.3287-0.1131-3.1054 1.6584-4.4193 5.4417-2.9926 8.6594 0.0559 0.1261 0.2067 0.178 0.3284 0.1132 3.1146-1.6581 4.4199-5.4417 2.9929-8.6595z" fill="url(#b)"/><path d="m24.084 2.2934c-0.056-0.12622-0.2069-0.17815-0.3287-0.1131-3.1054 1.6584-4.4193 5.4417-2.9926 8.6594 0.0559 0.1261 0.2067 0.178 0.3284 0.1132 3.1146-1.6581 4.4199-5.4417 2.9929-8.6595z" fill="url(#a)"/><path d="m24.084 2.2934c-0.056-0.12622-0.2069-0.17815-0.3287-0.1131-3.1054 1.6584-4.4193 5.4417-2.9926 8.6594 0.0559 0.1261 0.2067 0.178 0.3284 0.1132 3.1146-1.6581 4.4199-5.4417 2.9929-8.6595z" fill="url(#u)"/><path d="m24.084 2.2934c-0.056-0.12622-0.2069-0.17815-0.3287-0.1131-3.1054 1.6584-4.4193 5.4417-2.9926 8.6594 0.0559 0.1261 0.2067 0.178 0.3284 0.1132 3.1146-1.6581 4.4199-5.4417 2.9929-8.6595z" fill="url(#t)"/><path d="m24.084 2.2934c-0.056-0.12622-0.2069-0.17815-0.3287-0.1131-3.1054 1.6584-4.4193 5.4417-2.9926 8.6594 0.0559 0.1261 0.2067 0.178 0.3284 0.1132 3.1146-1.6581 4.4199-5.4417 2.9929-8.6595z" fill="url(#s)"/><g filter="url(#ai)"><path d="m23.806 15.138 3.8716 0.4041c0.1372 0.0143 0.2376 0.1375 0.2154 0.2736-0.3569 2.1906-2.3704 3.7437-4.607 3.5123l-3.8705-0.4039c-0.1377-0.0144-0.2382-0.1382-0.2154-0.2747 0.3656-2.1908 2.3696-3.7524 4.6059-3.5114z" fill="url(#r)"/><path d="m23.806 15.138 3.8716 0.4041c0.1372 0.0143 0.2376 0.1375 0.2154 0.2736-0.3569 2.1906-2.3704 3.7437-4.607 3.5123l-3.8705-0.4039c-0.1377-0.0144-0.2382-0.1382-0.2154-0.2747 0.3656-2.1908 2.3696-3.7524 4.6059-3.5114z" fill="url(#q)"/><path d="m23.806 15.138 3.8716 0.4041c0.1372 0.0143 0.2376 0.1375 0.2154 0.2736-0.3569 2.1906-2.3704 3.7437-4.607 3.5123l-3.8705-0.4039c-0.1377-0.0144-0.2382-0.1382-0.2154-0.2747 0.3656-2.1908 2.3696-3.7524 4.6059-3.5114z" fill="url(#p)"/></g><g filter="url(#ah)"><path d="m23.61 15.544 3.8656 0.3397c-0.1735 0.8934-1.4599 0.9556-1.9593 0.8851l-3.947-0.3755c0.57-0.7271 1.598-0.8692 2.0407-0.8493z" fill="url(#o)"/></g><g filter="url(#ag)"><path d="m19.348 21.682 5.0213 0.524c0.1373 0.0143 0.2376 0.1376 0.2171 0.2741-0.428 2.8406-3.0218 4.8631-5.9084 4.5619l-5.0214-0.5241c-0.1373-0.0143-0.2376-0.1375-0.217-0.2741 0.428-2.8406 3.0218-4.8631 5.9084-4.5618z" fill="url(#n)"/><path d="m19.348 21.682 5.0213 0.524c0.1373 0.0143 0.2376 0.1376 0.2171 0.2741-0.428 2.8406-3.0218 4.8631-5.9084 4.5619l-5.0214-0.5241c-0.1373-0.0143-0.2376-0.1375-0.217-0.2741 0.428-2.8406 3.0218-4.8631 5.9084-4.5618z" fill="url(#m)"/><path d="m19.348 21.682 5.0213 0.524c0.1373 0.0143 0.2376 0.1376 0.2171 0.2741-0.428 2.8406-3.0218 4.8631-5.9084 4.5619l-5.0214-0.5241c-0.1373-0.0143-0.2376-0.1375-0.217-0.2741 0.428-2.8406 3.0218-4.8631 5.9084-4.5618z" fill="url(#l)"/><path d="m19.348 21.682 5.0213 0.524c0.1373 0.0143 0.2376 0.1376 0.2171 0.2741-0.428 2.8406-3.0218 4.8631-5.9084 4.5619l-5.0214-0.5241c-0.1373-0.0143-0.2376-0.1375-0.217-0.2741 0.428-2.8406 3.0218-4.8631 5.9084-4.5618z" fill="url(#j)"/></g><g filter="url(#af)"><path d="m18.715 22.415 5.1531 0.4529c-0.2313 1.191-1.9462 1.2739-2.6119 1.1799l-5.2615-0.5006c0.7597-0.9693 2.1301-1.1586 2.7203-1.1322z" fill="url(#i)"/></g><defs><filter id="aj" x="7.3967" y="9.4708" width="14.437" height="20.463" color-interpolation-filters="sRGB" filterUnits="userSpaceOnUse"><feFlood flood-opacity="0" result="BackgroundImageFix"/><feBlend in="SourceGraphic" in2="BackgroundImageFix" result="shape"/><feColorMatrix in="SourceAlpha" result="hardAlpha" values="0 0 0 0 0 0 0 0 0 0 0 0 0 0 0 0 0 0 127 0"/><feOffset dx="-0.1" dy="-0.1"/><feGaussianBlur stdDeviation="0.5"/><feComposite in2="hardAlpha" k2="-1" k3="1" operator="arithmetic"/><feColorMatrix values="0 0 0 0 0.580392 0 0 0 0 0.462745 0 0 0 0 0.658824 0 0 0 1 0"/><feBlend in2="shape" result="effect1_innerShadow_28327_7824"/></filter><filter id="ae" x="8.3889" y="9.6469" width="13.475" height="19.94" color-interpolation-filters="sRGB" filterUnits="userSpaceOnUse"><feFlood flood-opacity="0" result="BackgroundImageFix"/><feBlend in="SourceGraphic" in2="BackgroundImageFix" result="shape"/><feGaussianBlur result="effect1_foregroundBlur_28327_7824" stdDeviation="0.2"/></filter><filter id="ad" x="7.9085" y="21.629" width="2.6204" height="4.3273" color-interpolation-filters="sRGB" filterUnits="userSpaceOnUse"><feFlood flood-opacity="0" result="BackgroundImageFix"/><feBlend in="SourceGraphic" in2="BackgroundImageFix" result="shape"/><feGaussianBlur result="effect1_foregroundBlur_28327_7824" stdDeviation="0.2"/></filter><filter id="ac" x="9.7318" y="24.874" width="4.635" height="1.467" color-interpolation-filters="sRGB" filterUnits="userSpaceOnUse"><feFlood flood-opacity="0" result="BackgroundImageFix"/><feBlend in="SourceGraphic" in2="BackgroundImageFix" result="shape"/><feGaussianBlur result="effect1_foregroundBlur_28327_7824" stdDeviation="0.2"/></filter><filter id="ab" x="15.755" y="17.342" width="4.635" height="1.467" color-interpolation-filters="sRGB" filterUnits="userSpaceOnUse"><feFlood flood-opacity="0" result="BackgroundImageFix"/><feBlend in="SourceGraphic" in2="BackgroundImageFix" result="shape"/><feGaussianBlur result="effect1_foregroundBlur_28327_7824" stdDeviation="0.2"/></filter><filter id="aa" x="13.765" y="13.712" width="2.825" height="4.5139" color-interpolation-filters="sRGB" filterUnits="userSpaceOnUse"><feFlood flood-opacity="0" result="BackgroundImageFix"/><feBlend in="SourceGraphic" in2="BackgroundImageFix" result="shape"/><feGaussianBlur result="effect1_foregroundBlur_28327_7824" stdDeviation="0.2"/></filter><filter id="z" x="5" y="10.832" width="6.1017" height="12.008" color-interpolation-filters="sRGB" filterUnits="userSpaceOnUse"><feFlood flood-opacity="0" result="BackgroundImageFix"/><feBlend in="SourceGraphic" in2="BackgroundImageFix" result="shape"/><feColorMatrix in="SourceAlpha" result="hardAlpha" values="0 0 0 0 0 0 0 0 0 0 0 0 0 0 0 0 0 0 127 0"/><feOffset dx="0.2" dy="0.2"/><feGaussianBlur stdDeviation="0.375"/><feComposite in2="hardAlpha" k2="-1" k3="1" operator="arithmetic"/><feColorMatrix values="0 0 0 0 0.564706 0 0 0 0 0.760784 0 0 0 0 0.329412 0 0 0 1 0"/><feBlend in2="shape" result="effect1_innerShadow_28327_7824"/></filter><filter id="y" x="6.3662" y="10.604" width="5.2931" height="9.666" color-interpolation-filters="sRGB" filterUnits="userSpaceOnUse"><feFlood flood-opacity="0" result="BackgroundImageFix"/><feBlend in="SourceGraphic" in2="BackgroundImageFix" result="shape"/><feGaussianBlur result="effect1_foregroundBlur_28327_7824" stdDeviation="0.5"/></filter><filter id="x" x="11.601" y="5.4824" width="4.8136" height="9.3973" color-interpolation-filters="sRGB" filterUnits="userSpaceOnUse"><feFlood flood-opacity="0" result="BackgroundImageFix"/><feBlend in="SourceGraphic" in2="BackgroundImageFix" result="shape"/><feColorMatrix in="SourceAlpha" result="hardAlpha" values="0 0 0 0 0 0 0 0 0 0 0 0 0 0 0 0 0 0 127 0"/><feOffset dx="0.2" dy="0.2"/><feGaussianBlur stdDeviation="0.375"/><feComposite in2="hardAlpha" k2="-1" k3="1" operator="arithmetic"/><feColorMatrix values="0 0 0 0 0.592157 0 0 0 0 0.784314 0 0 0 0 0.368627 0 0 0 1 0"/><feBlend in2="shape" result="effect1_innerShadow_28327_7824"/></filter><filter id="w" x="12.386" y="5.2747" width="4.4422" height="7.6636" color-interpolation-filters="sRGB" filterUnits="userSpaceOnUse"><feFlood flood-opacity="0" result="BackgroundImageFix"/><feBlend in="SourceGraphic" in2="BackgroundImageFix" result="shape"/><feGaussianBlur result="effect1_foregroundBlur_28327_7824" stdDeviation="0.5"/></filter><filter id="ai" x="19.197" y="15.113" width="8.8992" height="4.4373" color-interpolation-filters="sRGB" filterUnits="userSpaceOnUse"><feFlood flood-opacity="0" result="BackgroundImageFix"/><feBlend in="SourceGraphic" in2="BackgroundImageFix" result="shape"/><feColorMatrix in="SourceAlpha" result="hardAlpha" values="0 0 0 0 0 0 0 0 0 0 0 0 0 0 0 0 0 0 127 0"/><feOffset dx="0.2" dy="0.2"/><feGaussianBlur stdDeviation="0.375"/><feComposite in2="hardAlpha" k2="-1" k3="1" operator="arithmetic"/><feColorMatrix values="0 0 0 0 0.564706 0 0 0 0 0.760784 0 0 0 0 0.329412 0 0 0 1 0"/><feBlend in2="shape" result="effect1_innerShadow_28327_7824"/></filter><filter id="ah" x="20.57" y="14.543" width="7.9063" height="3.2476" color-interpolation-filters="sRGB" filterUnits="userSpaceOnUse"><feFlood flood-opacity="0" result="BackgroundImageFix"/><feBlend in="SourceGraphic" in2="BackgroundImageFix" result="shape"/><feGaussianBlur result="effect1_foregroundBlur_28327_7824" stdDeviation="0.5"/></filter><filter id="ag" x="13.437" y="21.652" width="11.352" height="5.6194" color-interpolation-filters="sRGB" filterUnits="userSpaceOnUse"><feFlood flood-opacity="0" result="BackgroundImageFix"/><feBlend in="SourceGraphic" in2="BackgroundImageFix" result="shape"/><feColorMatrix in="SourceAlpha" result="hardAlpha" values="0 0 0 0 0 0 0 0 0 0 0 0 0 0 0 0 0 0 127 0"/><feOffset dx="0.2" dy="0.2"/><feGaussianBlur stdDeviation="0.375"/><feComposite in2="hardAlpha" k2="-1" k3="1" operator="arithmetic"/><feColorMatrix values="0 0 0 0 0.564706 0 0 0 0 0.760784 0 0 0 0 0.329412 0 0 0 1 0"/><feBlend in2="shape" result="effect1_innerShadow_28327_7824"/></filter><filter id="af" x="14.995" y="21.412" width="9.8734" height="3.6633" color-interpolation-filters="sRGB" filterUnits="userSpaceOnUse"><feFlood flood-opacity="0" result="BackgroundImageFix"/><feBlend in="SourceGraphic" in2="BackgroundImageFix" result="shape"/><feGaussianBlur result="effect1_foregroundBlur_28327_7824" stdDeviation="0.5"/></filter><radialGradient id="v" cx="0" cy="0" r="1" gradientTransform="translate(8.6791 15.313) rotate(89.105) scale(14.466 6.8142)" gradientUnits="userSpaceOnUse"><stop stop-color="#B5E64B" offset="0"/><stop stop-color="#8EC347" offset="1"/></radialGradient><radialGradient id="k" cx="0" cy="0" r="1" gradientTransform="translate(7.9509 23.098) rotate(-86.747) scale(5.8219 3.3897)" gradientUnits="userSpaceOnUse"><stop stop-color="#B2C770" offset="0"/><stop stop-color="#B2C770" stop-opacity="0" offset="1"/></radialGradient><radialGradient id="h" cx="0" cy="0" r="1" gradientTransform="translate(8.4062 10.035) rotate(102.16) scale(3.7082 .7526)" gradientUnits="userSpaceOnUse"><stop stop-color="#B1EB4B" offset="0"/><stop stop-color="#B1EB4B" stop-opacity="0" offset="1"/></radialGradient><linearGradient id="g" x1="9.9055" x2="8.6202" y1="15.039" y2="15.743" gradientUnits="userSpaceOnUse"><stop stop-color="#CFFF73" offset="0"/><stop stop-color="#CFFF73" stop-opacity="0" offset="1"/></linearGradient><radialGradient id="f" cx="0" cy="0" r="1" gradientTransform="translate(14.477 8.9683) rotate(89.105) scale(11.314 5.327)" gradientUnits="userSpaceOnUse"><stop stop-color="#B5E64B" offset="0"/><stop stop-color="#8EC347" offset="1"/></radialGradient><radialGradient id="e" cx="0" cy="0" r="1" gradientTransform="translate(13.908 15.057) rotate(-86.749) scale(4.5535 2.6499)" gradientUnits="userSpaceOnUse"><stop stop-color="#B2C770" offset="0"/><stop stop-color="#B2C770" stop-opacity="0" offset="1"/></radialGradient><radialGradient id="d" cx="0" cy="0" r="1" gradientTransform="translate(14.264 4.8402) rotate(102.16) scale(2.9003 .58835)" gradientUnits="userSpaceOnUse"><stop stop-color="#B1EB4B" offset="0"/><stop stop-color="#B1EB4B" stop-opacity="0" offset="1"/></radialGradient><linearGradient id="c" x1="15.267" x2="14.318" y1="8.811" y2="9.334" gradientUnits="userSpaceOnUse"><stop stop-color="#CFFF73" offset="0"/><stop stop-color="#CFFF73" stop-opacity="0" offset="1"/></linearGradient><radialGradient id="b" cx="0" cy="0" r="1" gradientTransform="translate(25.63 7.6288) rotate(197.34) scale(5.3076 7.1701)" gradientUnits="userSpaceOnUse"><stop stop-color="#96C860" stop-opacity="0" offset=".80807"/><stop stop-color="#96C860" offset="1"/></radialGradient><radialGradient id="a" cx="0" cy="0" r="1" gradientTransform="translate(18.812 5.1239) rotate(25.145) scale(6.1168 8.2633)" gradientUnits="userSpaceOnUse"><stop stop-color="#96C860" stop-opacity="0" offset=".90999"/><stop stop-color="#96C860" offset="1"/></radialGradient><radialGradient id="u" cx="0" cy="0" r="1" gradientTransform="translate(24.383 2.1884) rotate(105.48) scale(4.8457 .59986)" gradientUnits="userSpaceOnUse"><stop stop-color="#C8FF74" offset="0"/><stop stop-color="#C8FF74" stop-opacity="0" offset="1"/></radialGradient><radialGradient id="t" cx="0" cy="0" r="1" gradientTransform="translate(25.83 2.0664) rotate(115.34) scale(6.6602 3.31)" gradientUnits="userSpaceOnUse"><stop stop-color="#C7FD61" offset="0"/><stop stop-color="#C7FD61" stop-opacity="0" offset="1"/></radialGradient><radialGradient id="s" cx="0" cy="0" r="1" gradientTransform="translate(20.877 10.815) rotate(202.83) scale(.42539 2.3669)" gradientUnits="userSpaceOnUse"><stop stop-color="#AFCE6D" offset="0"/><stop stop-color="#AFCE6D" stop-opacity="0" offset="1"/></radialGradient><radialGradient id="r" cx="0" cy="0" r="1" gradientTransform="translate(24.627 16.728) rotate(86.248) scale(5.1271 10.094)" gradientUnits="userSpaceOnUse"><stop stop-color="#B5E64B" offset="0"/><stop stop-color="#8EC347" offset="1"/></radialGradient><radialGradient id="q" cx="0" cy="0" r="1" gradientTransform="translate(23.546 19.482) rotate(-76.585) scale(2.1136 4.9019)" gradientUnits="userSpaceOnUse"><stop stop-color="#B2C770" offset="0"/><stop stop-color="#B2C770" stop-opacity="0" offset="1"/></radialGradient><radialGradient id="p" cx="0" cy="0" r="1" gradientTransform="translate(28.349 15.307) rotate(147.53) scale(2.7012 .78886)" gradientUnits="userSpaceOnUse"><stop stop-color="#B1EB4B" offset="0"/><stop stop-color="#B1EB4B" stop-opacity="0" offset="1"/></radialGradient><linearGradient id="o" x1="24.581" x2="24.454" y1="15.497" y2="16.574" gradientUnits="userSpaceOnUse"><stop stop-color="#CFFF73" offset="0"/><stop stop-color="#CFFF73" stop-opacity="0" offset="1"/></linearGradient><radialGradient id="n" cx="0" cy="0" r="1" gradientTransform="translate(20.396 23.718) rotate(86.246) scale(6.5574 12.917)" gradientUnits="userSpaceOnUse"><stop stop-color="#B5E64B" offset="0"/><stop stop-color="#8EC347" offset="1"/></radialGradient><radialGradient id="m" cx="0" cy="0" r="1" gradientTransform="translate(19.013 27.24) rotate(-76.577) scale(2.7033 6.2727)" gradientUnits="userSpaceOnUse"><stop stop-color="#B2C770" offset="0"/><stop stop-color="#B2C770" stop-opacity="0" offset="1"/></radialGradient><radialGradient id="l" cx="0" cy="0" r="1" gradientTransform="translate(24.618 22.109) rotate(147.59) scale(2.9515 .98495)" gradientUnits="userSpaceOnUse"><stop stop-color="#B1EB4B" offset="0"/><stop stop-color="#B1EB4B" stop-opacity="0" offset="1"/></radialGradient><radialGradient id="j" cx="0" cy="0" r="1" gradientTransform="translate(18.188 28) rotate(-79.695) scale(2.7951 9.3579)" gradientUnits="userSpaceOnUse"><stop stop-color="#C0BA90" offset="0"/><stop stop-color="#C0BA90" stop-opacity="0" offset="1"/></radialGradient><linearGradient id="i" x1="20.009" x2="19.839" y1="22.352" y2="23.786" gradientUnits="userSpaceOnUse"><stop stop-color="#CFFF73" offset="0"/><stop stop-color="#CFFF73" stop-opacity="0" offset="1"/></linearGradient></defs></svg>
