<?xml version="1.0" encoding="UTF-8"?>
<svg width="70px" height="71px" viewBox="0 0 70 71" version="1.1" xmlns="http://www.w3.org/2000/svg" xmlns:xlink="http://www.w3.org/1999/xlink">
    <title>Icon / Emoji / Party Popper@2x</title>
    <g id="Setting-&gt;-Multi-Device-Linking-Light" stroke="none" stroke-width="1" fill="none" fill-rule="evenodd">
        <g id="D:-L-03.01-J" transform="translate(-478.000000, -233.000000)">
            <g id="Overlay" transform="translate(272.000000, 186.000000)">
                <g id="Group" transform="translate(16.000000, 48.000000)">
                    <g id="Icon-/-Emoji-/-Party-Popper" transform="translate(173.150758, -0.684789)">
                        <g id="Group" transform="translate(0.000000, 14.592906)">
                            <path d="M68.6984848,33.9411255 C71.0416306,31.5979797 66.2928932,23.0502525 58.0918831,14.8492424 C49.890873,6.64823228 41.3431458,1.89949494 39,4.24264069 L38.8416525,4.42779009 C37.199793,6.56995257 30.9673354,20.3069536 20.14428,45.6387931 L17.7553282,51.2447449 C17.1086733,52.7701967 17.8210789,54.5310372 19.3465307,55.1776922 C20.0986511,55.4965239 20.9482654,55.4948536 21.6991264,55.1730672 L32.5961562,50.4964136 C55.5036348,40.6196886 67.5379263,35.101684 68.6984848,33.9411255 Z" id="Oval" fill="#05A63F"></path>
                            <ellipse id="Oval" fill-opacity="0.26" fill="#000000" transform="translate(53.849242, 19.091883) rotate(-45.000000) translate(-53.849242, -19.091883) " cx="53.8492424" cy="19.0918831" rx="6" ry="21"></ellipse>
                        </g>
                        <circle id="Oval" fill="#0096FF" cx="59.8492424" cy="63.6847887" r="3"></circle>
                        <circle id="Oval" fill="#FF0000" cx="68.8492424" cy="3.6847887" r="3"></circle>
                        <path d="M73.5492317,47.1702775 C77.5253949,45.618579 80.6986897,46.5911303 81.8729153,50.178736 C83.1119451,53.9643377 81.4863242,55.7990996 77.4981152,57.5577514 L75.5682635,58.3859787 C74.247981,58.9884116 74.1909175,59.2154939 74.4520521,59.8521078 L74.5937446,60.1562442 C74.8598757,60.6308883 75.2130214,60.6511046 76.5116205,60.2455708 L77.3986445,59.9555971 C79.4260541,59.2762612 80.3068523,59.0675222 81.5451672,59.199316 C83.4926963,59.4065914 84.9136621,60.6896006 85.6442389,62.882278 C86.0108566,63.9826065 85.4160666,65.1718014 84.3157381,65.5384191 C83.2154096,65.9050369 82.0262147,65.3102468 81.659597,64.2099183 C81.4225731,63.4985395 81.311396,63.3981562 81.1006719,63.3757288 C80.7482107,63.3382164 80.2578085,63.440987 79.1699114,63.7937581 L78.6523422,63.9650142 C74.5015616,65.3547634 72.0870761,65.1536021 70.5662574,61.4460337 C69.060528,57.7752513 70.6070428,55.9873827 74.5470748,54.2511362 L76.1979848,53.5440933 C77.9651186,52.7518814 78.1773106,52.3896606 77.8812803,51.4852006 C77.5552512,50.4890857 77.0189353,50.3247156 75.0761316,51.0828952 C73.9956921,51.5045369 72.7780146,50.9704758 72.3563728,49.8900362 C71.9347311,48.8095967 72.4687922,47.5919193 73.5492317,47.1702775 Z" id="Path-2" fill="#FFBF00" transform="translate(77.875669, 56.052085) rotate(-9.000000) translate(-77.875669, -56.052085) "></path>
                        <path d="M61.9884359,7.82801028 C65.6156551,6.41248728 68.5702552,7.31801299 69.6560355,10.6353922 C70.8007381,14.1327961 69.2956579,15.8395043 65.6911971,17.434863 L63.9665246,18.1701745 C62.9330934,18.629095 62.9360477,18.7420434 63.1039048,19.1512583 L63.2052496,19.373303 C63.3758734,19.6819652 63.6036362,19.6824848 64.6169382,19.3586466 L65.3953243,19.1017375 C67.2206755,18.4901064 68.0158791,18.3016524 69.1578148,18.4231886 C70.9781073,18.6169222 72.3087479,19.8183755 72.9822812,21.8398486 C73.6362085,23.8024782 73.2105004,25.5337246 71.7954126,26.7116019 C71.1260874,27.2687284 70.487007,27.5871341 69.3758982,27.9584057 L68.0334371,28.3749986 C66.6955947,28.7763012 66.1027756,29.032898 65.8460379,29.297566 C65.7227054,29.4247081 65.6880987,29.6369823 65.9356119,30.3098665 L66.0595255,30.6275408 C66.3761169,31.401844 66.8116146,31.4689921 68.6833803,30.4415101 C69.7000697,29.8834114 70.9766876,30.2551726 71.5347862,31.271862 C72.0928849,32.2885513 71.7211237,33.5651692 70.7044344,34.1232679 C66.8848999,36.2199527 63.6016115,35.7137123 62.171931,32.2170716 C61.2094636,29.8631175 61.4070055,27.8415853 62.8313681,26.3732258 C63.6801253,25.4982514 64.5780232,25.0588441 66.2425092,24.5317501 L67.8955601,24.0222921 C68.4639923,23.8350445 68.7954394,23.6955344 69.0000475,23.5627419 L69.123868,23.4715863 C69.1201154,23.4640101 69.0979616,23.4377248 69.051889,23.3193196 L68.8771683,22.8202312 C68.815938,22.6579402 68.7859786,22.6181737 68.7459116,22.6055091 L68.7133195,22.5996014 C68.4506974,22.5716505 68.0461541,22.6562489 67.1465893,22.9467445 L66.6584826,23.1079854 C62.886721,24.3708329 60.628139,24.1826606 59.2181101,20.7451842 C57.8219511,17.3415206 59.2612478,15.6696126 62.8287162,14.091381 L64.3217468,13.4531318 C65.7530586,12.8177279 65.8742674,12.5830622 65.6644005,11.9418568 C65.4268168,11.2159684 65.1091955,11.1186238 63.5153358,11.7406279 C62.4348962,12.1622697 61.2172188,11.6282086 60.795577,10.547769 C60.3739353,9.46732949 60.9079964,8.24965202 61.9884359,7.82801028 Z" id="Path-2" fill="#0096FF" fill-rule="nonzero" transform="translate(65.986670, 21.274405) rotate(60.000000) translate(-65.986670, -21.274405) "></path>
                        <circle id="Oval" fill="#05A63F" cx="32.8492424" cy="6.6847887" r="3"></circle>
                        <path d="M69.6710986,26.4747454 C70.1835364,25.4342941 71.4424017,25.0062546 72.482853,25.5186923 C73.5233042,26.0311301 73.9513438,27.2899954 73.438906,28.3304467 C71.2879045,32.6978301 70.1106173,37.2124589 69.9029721,41.8921868 L69.8903074,42.335889 L70.1644553,42.3048582 C72.9921133,42.0604202 75.1728042,43.4032762 76.046169,45.685335 L76.1944434,46.124069 C76.8872507,48.471652 76.0863117,51.1830232 74.0773254,52.3734015 C70.882563,54.2663842 67.647151,52.807862 66.3649076,49.3893803 L66.2153074,48.962889 L65.9443704,49.2363432 C64.6717942,50.5600713 63.3299205,52.3667352 61.9389013,54.6705584 L61.4734357,55.4569322 C60.8911419,56.4599603 59.6059846,56.8010328 58.6029566,56.218739 C57.5999285,55.6364452 57.258856,54.3512879 57.8411498,53.3482598 C60.3519943,49.023214 62.8599759,45.9366903 65.4361085,44.1388106 L65.6783074,43.973889 L65.6699304,43.2473906 C65.6914674,37.853638 66.8445508,32.6408672 69.1248644,27.6280029 L69.6710986,26.4747454 Z M72.1661977,47.3128652 C71.9696499,46.6468612 71.470545,46.3359181 70.2631336,46.5209724 L70.0133074,46.571889 L70.01839,46.627609 C70.2064326,48.6832692 70.8750577,49.2565257 71.7465735,48.8597557 L71.9363312,48.760073 C72.1473368,48.6350464 72.3519637,47.9423349 72.1661977,47.3128652 Z" id="Path-3" fill="#FF0000" fill-rule="nonzero" transform="translate(66.998037, 40.902534) rotate(-115.000000) translate(-66.998037, -40.902534) "></path>
                        <path d="M45.620628,3.81715202 C46.578654,3.16345677 47.8852122,3.41016561 48.5389075,4.36819163 C51.5862709,8.83426877 52.4951367,13.8611372 51.2533344,19.3027639 C50.0672709,24.500141 47.3081941,29.9102403 43.0023705,35.5468269 C42.2983163,36.468477 40.9804225,36.6448733 40.0587724,35.9408191 C39.1371222,35.2367648 38.9607259,33.9188711 39.6647802,32.9972209 C43.6291787,27.8075806 46.1183638,22.9266948 47.1586023,18.3683287 C48.143102,14.0542123 47.4508208,10.2252575 45.0695884,6.73543154 C44.4158931,5.77740552 44.6626019,4.47084727 45.620628,3.81715202 Z" id="Path-4" fill="#FFBF00" fill-rule="nonzero" transform="translate(45.512429, 19.911871) rotate(-10.000000) translate(-45.512429, -19.911871) "></path>
                        <path d="M54.765825,1.05033171 C55.7238511,0.396636464 57.0304093,0.643345301 57.6841045,1.60137133 C60.7314679,6.06744846 61.6403337,11.0943168 60.3985314,16.5359436 C60.1404943,17.6666726 59.0146768,18.3741292 57.8839478,18.116092 C56.7532188,17.8580549 56.0457622,16.7322374 56.3037994,15.6015084 C57.288299,11.287392 56.5960179,7.45843722 54.2147854,3.96861123 C53.5610902,3.01058521 53.807799,1.70402696 54.765825,1.05033171 Z" id="Path-4" fill="#05A63F" fill-rule="nonzero" transform="translate(57.392916, 9.426988) rotate(20.000000) translate(-57.392916, -9.426988) "></path>
                        <path d="M49.6066017,37.9274294 L50.9287565,39.217219 C58.4264669,46.3506728 65.9201677,50.4489398 68.4370704,48.74936 L68.1388188,48.946059 C64.8767308,50.9866348 49.3967652,57.9273382 21.6991264,69.7659728 C20.9482654,70.0877592 20.0986511,70.0894295 19.3465307,69.7705978 C17.8210789,69.1239428 17.1086733,67.3631023 17.7553282,65.8376505 L24.5683257,49.9308041 C32.627955,31.2765992 37.3765154,20.9854242 38.8140071,19.0572789 C36.9397788,21.6822569 41.6473056,29.9681332 49.6066017,37.9274294 Z" id="Path" fill="#05A63F"></path>
                        <circle id="Oval" fill="#FFBF00" cx="35.8492424" cy="42.6847887" r="3"></circle>
                        <circle id="Oval" fill="#FFBF00" cx="83.8492424" cy="24.6847887" r="3"></circle>
                    </g>
                </g>
            </g>
        </g>
    </g>
</svg>