<svg fill="none" viewBox="0 0 32 32" xmlns="http://www.w3.org/2000/svg"><g clip-path="url(#bd)"><g filter="url(#bc)"><path d="m16.688 30.186c8.6676 0 12.999-5.596 12.999-12.499s-4.3313-12.499-12.999-12.499c-8.6677 0-12.999 5.596-12.999 12.499s4.3312 12.499 12.999 12.499z" fill="url(#ap)"/><path d="m16.688 30.186c8.6676 0 12.999-5.596 12.999-12.499s-4.3313-12.499-12.999-12.499c-8.6677 0-12.999 5.596-12.999 12.499s4.3312 12.499 12.999 12.499z" fill="url(#ae)"/><path d="m16.688 30.186c8.6676 0 12.999-5.596 12.999-12.499s-4.3313-12.499-12.999-12.499c-8.6677 0-12.999 5.596-12.999 12.499s4.3312 12.499 12.999 12.499z" fill="url(#t)"/><path d="m16.688 30.186c8.6676 0 12.999-5.596 12.999-12.499s-4.3313-12.499-12.999-12.499c-8.6677 0-12.999 5.596-12.999 12.499s4.3312 12.499 12.999 12.499z" fill="url(#i)"/><path d="m16.688 30.186c8.6676 0 12.999-5.596 12.999-12.499s-4.3313-12.499-12.999-12.499c-8.6677 0-12.999 5.596-12.999 12.499s4.3312 12.499 12.999 12.499z" fill="url(#f)"/><path d="m16.688 30.186c8.6676 0 12.999-5.596 12.999-12.499s-4.3313-12.499-12.999-12.499c-8.6677 0-12.999 5.596-12.999 12.499s4.3312 12.499 12.999 12.499z" fill="url(#e)" fill-opacity=".3"/><path d="m16.688 30.186c8.6676 0 12.999-5.596 12.999-12.499s-4.3313-12.499-12.999-12.499c-8.6677 0-12.999 5.596-12.999 12.499s4.3312 12.499 12.999 12.499z" fill="url(#d)"/></g><g filter="url(#ay)"><rect x="10.693" y="19.21" width="10.611" height="7.5156" rx="3.7578" fill="url(#c)"/><rect x="10.943" y="19.46" width="10.111" height="7.0156" rx="3.5078" stroke="url(#b)" stroke-width=".5"/></g><rect x="12.07" y="18.539" width="9.2344" height="6.625" rx="3.3125" fill="url(#a)"/><rect x="12.07" y="18.539" width="9.2344" height="6.625" rx="3.3125" fill="url(#ao)"/><rect x="12.07" y="18.539" width="9.2344" height="6.625" rx="3.3125" fill="url(#an)"/><rect x="12.07" y="18.539" width="9.2344" height="6.625" rx="3.3125" fill="url(#am)" fill-opacity=".5"/><g filter="url(#ax)"><circle cx="15.059" cy="21.608" r="1.0845" fill="#FF93D0"/></g><g filter="url(#aw)"><circle cx="18.654" cy="21.608" r="1.0845" fill="#FF93D0"/></g><g filter="url(#av)"><path d="m25.749 7.171 2.7872 2.7871c0.7035 0.70356 0.7035 1.8581 0 2.5617l-2.7872 2.7871c-1.1455 1.1455-3.0938 0.3337-3.0938-1.2808v-5.5652c0-1.6146 1.9573-2.4263 3.0938-1.2898z" fill="url(#al)"/></g><path d="m26.389 6.2286 3.09 3.09c0.78 0.77998 0.78 2.06 0 2.84l-3.09 3.09c-1.27 1.27-3.43 0.37-3.43-1.42v-6.17c0-1.79 2.17-2.69 3.43-1.43z" fill="url(#ak)"/><path d="m26.389 6.2286 3.09 3.09c0.78 0.77998 0.78 2.06 0 2.84l-3.09 3.09c-1.27 1.27-3.43 0.37-3.43-1.42v-6.17c0-1.79 2.17-2.69 3.43-1.43z" fill="url(#aj)"/><path d="m26.389 6.2286 3.09 3.09c0.78 0.77998 0.78 2.06 0 2.84l-3.09 3.09c-1.27 1.27-3.43 0.37-3.43-1.42v-6.17c0-1.79 2.17-2.69 3.43-1.43z" fill="url(#ai)"/><path d="m26.389 6.2286 3.09 3.09c0.78 0.77998 0.78 2.06 0 2.84l-3.09 3.09c-1.27 1.27-3.43 0.37-3.43-1.42v-6.17c0-1.79 2.17-2.69 3.43-1.43z" fill="url(#ah)"/><path d="m26.389 6.2286 3.09 3.09c0.78 0.77998 0.78 2.06 0 2.84l-3.09 3.09c-1.27 1.27-3.43 0.37-3.43-1.42v-6.17c0-1.79 2.17-2.69 3.43-1.43z" fill="url(#ag)"/><path d="m26.389 6.2286 3.09 3.09c0.78 0.77998 0.78 2.06 0 2.84l-3.09 3.09c-1.27 1.27-3.43 0.37-3.43-1.42v-6.17c0-1.79 2.17-2.69 3.43-1.43z" fill="url(#af)"/><path d="m26.389 6.2286 3.09 3.09c0.78 0.77998 0.78 2.06 0 2.84l-3.09 3.09c-1.27 1.27-3.43 0.37-3.43-1.42v-6.17c0-1.79 2.17-2.69 3.43-1.43z" fill="url(#ad)"/><g filter="url(#au)"><path d="m4.6261 14.017c0.2875-1.725 1.5417-2.427 2.1562-2.5781l2.4219 4.4219-2.1406 0.8437-2.4375-2.6875z" fill="url(#ac)"/></g><path d="m6.3093 5.8216-3.0443 3.3391c-0.76847 0.84015-0.76847 2.219 0 3.059l3.0443 3.3284c1.2512 1.3679 3.3793 0.3985 3.3793-1.5296v-6.6567c0-1.9281-2.1281-2.8975-3.3793-1.5403z" fill="url(#ab)"/><path d="m6.3093 5.8216-3.0443 3.3391c-0.76847 0.84015-0.76847 2.219 0 3.059l3.0443 3.3284c1.2512 1.3679 3.3793 0.3985 3.3793-1.5296v-6.6567c0-1.9281-2.1281-2.8975-3.3793-1.5403z" fill="url(#aa)"/><path d="m6.3093 5.8216-3.0443 3.3391c-0.76847 0.84015-0.76847 2.219 0 3.059l3.0443 3.3284c1.2512 1.3679 3.3793 0.3985 3.3793-1.5296v-6.6567c0-1.9281-2.1281-2.8975-3.3793-1.5403z" fill="url(#z)"/><path d="m6.3093 5.8216-3.0443 3.3391c-0.76847 0.84015-0.76847 2.219 0 3.059l3.0443 3.3284c1.2512 1.3679 3.3793 0.3985 3.3793-1.5296v-6.6567c0-1.9281-2.1281-2.8975-3.3793-1.5403z" fill="url(#y)"/><path d="m6.3093 5.8216-3.0443 3.3391c-0.76847 0.84015-0.76847 2.219 0 3.059l3.0443 3.3284c1.2512 1.3679 3.3793 0.3985 3.3793-1.5296v-6.6567c0-1.9281-2.1281-2.8975-3.3793-1.5403z" fill="url(#x)"/><path d="m6.3093 5.8216-3.0443 3.3391c-0.76847 0.84015-0.76847 2.219 0 3.059l3.0443 3.3284c1.2512 1.3679 3.3793 0.3985 3.3793-1.5296v-6.6567c0-1.9281-2.1281-2.8975-3.3793-1.5403z" fill="url(#w)"/><path d="m6.3093 5.8216-3.0443 3.3391c-0.76847 0.84015-0.76847 2.219 0 3.059l3.0443 3.3284c1.2512 1.3679 3.3793 0.3985 3.3793-1.5296v-6.6567c0-1.9281-2.1281-2.8975-3.3793-1.5403z" fill="url(#v)"/><path d="m18.516 22.843c0.5523 0 1-0.4477 1-1 0-0.5522-0.4477-1-1-1s-1 0.4478-1 1c0 0.5523 0.4477 1 1 1z" fill="url(#u)"/><path d="m14.859 22.843c0.5523 0 1-0.4477 1-1 0-0.5522-0.4477-1-1-1s-1 0.4478-1 1c0 0.5523 0.4477 1 1 1z" fill="url(#s)"/><g filter="url(#at)"><rect x="19.86" y="15.454" width="1.5" height="2.5" rx=".75" fill="#FF648B"/></g><g filter="url(#as)"><rect x="11.36" y="15.454" width="1.5" height="2.5" rx=".75" fill="#FF648B"/></g><rect x="20.189" y="15.189" width="1.5" height="2.5" rx=".75" fill="url(#r)"/><rect x="20.189" y="15.189" width="1.5" height="2.5" rx=".75" fill="url(#q)"/><rect x="20.189" y="15.189" width="1.5" height="2.5" rx=".75" fill="url(#p)"/><rect x="11.689" y="15.189" width="1.5" height="2.5" rx=".75" fill="url(#o)"/><rect x="11.689" y="15.189" width="1.5" height="2.5" rx=".75" fill="url(#n)"/><rect x="11.689" y="15.189" width="1.5" height="2.5" rx=".75" fill="url(#m)"/><g filter="url(#ar)"><path d="m29.314 10.664-3.8125 4.1875" stroke="url(#l)" stroke-linecap="round"/></g><g filter="url(#aq)"><path d="m8.9141 7.3724 1e-5 7.4787" stroke="url(#k)" stroke-linecap="round" stroke-width=".3"/></g><g filter="url(#bb)"><path d="m18.244 19.21c1.2187 0 2.663 0.7969 2.663 3.0313" stroke="url(#j)" stroke-linecap="round" stroke-width=".15"/></g><g filter="url(#ba)"><path d="m17.132 21.924c0.0453 0.4523 0.4162 1.3389 1.538 1.2665" stroke="url(#h)" stroke-linecap="round" stroke-width=".15"/></g><g filter="url(#az)"><path d="m13.437 21.924c0.0453 0.4523 0.4162 1.3389 1.538 1.2665" stroke="url(#g)" stroke-linecap="round" stroke-opacity=".75" stroke-width=".15"/></g></g><defs><filter id="bc" x="3.6886" y="5.1886" width="27.248" height="25.398" color-interpolation-filters="sRGB" filterUnits="userSpaceOnUse"><feFlood flood-opacity="0" result="BackgroundImageFix"/><feBlend in="SourceGraphic" in2="BackgroundImageFix" result="shape"/><feColorMatrix in="SourceAlpha" result="hardAlpha" values="0 0 0 0 0 0 0 0 0 0 0 0 0 0 0 0 0 0 127 0"/><feOffset dx="1.25" dy="0.4"/><feGaussianBlur stdDeviation="1"/><feComposite in2="hardAlpha" k2="-1" k3="1" operator="arithmetic"/><feColorMatrix values="0 0 0 0 0 0 0 0 0 0 0 0 0 0 0 0 0 0 0.12 0"/><feBlend in2="shape" result="effect1_innerShadow_28327_2988"/></filter><filter id="ay" x="8.6932" y="17.21" width="14.612" height="11.516" color-interpolation-filters="sRGB" filterUnits="userSpaceOnUse"><feFlood flood-opacity="0" result="BackgroundImageFix"/><feBlend in="SourceGraphic" in2="BackgroundImageFix" result="shape"/><feGaussianBlur result="effect1_foregroundBlur_28327_2988" stdDeviation="1"/></filter><filter id="ax" x="13.474" y="20.024" width="3.169" height="3.169" color-interpolation-filters="sRGB" filterUnits="userSpaceOnUse"><feFlood flood-opacity="0" result="BackgroundImageFix"/><feBlend in="SourceGraphic" in2="BackgroundImageFix" result="shape"/><feGaussianBlur result="effect1_foregroundBlur_28327_2988" stdDeviation="0.25"/></filter><filter id="aw" x="17.07" y="20.024" width="3.169" height="3.169" color-interpolation-filters="sRGB" filterUnits="userSpaceOnUse"><feFlood flood-opacity="0" result="BackgroundImageFix"/><feBlend in="SourceGraphic" in2="BackgroundImageFix" result="shape"/><feGaussianBlur result="effect1_foregroundBlur_28327_2988" stdDeviation="0.25"/></filter><filter id="av" x="21.155" y="5.1409" width="9.4086" height="12.202" color-interpolation-filters="sRGB" filterUnits="userSpaceOnUse"><feFlood flood-opacity="0" result="BackgroundImageFix"/><feBlend in="SourceGraphic" in2="BackgroundImageFix" result="shape"/><feGaussianBlur result="effect1_foregroundBlur_28327_2988" stdDeviation="0.75"/></filter><filter id="au" x="3.6261" y="10.439" width="6.5781" height="7.2656" color-interpolation-filters="sRGB" filterUnits="userSpaceOnUse"><feFlood flood-opacity="0" result="BackgroundImageFix"/><feBlend in="SourceGraphic" in2="BackgroundImageFix" result="shape"/><feGaussianBlur result="effect1_foregroundBlur_28327_2988" stdDeviation="0.5"/></filter><filter id="at" x="19.36" y="14.954" width="2.5" height="3.5" color-interpolation-filters="sRGB" filterUnits="userSpaceOnUse"><feFlood flood-opacity="0" result="BackgroundImageFix"/><feBlend in="SourceGraphic" in2="BackgroundImageFix" result="shape"/><feGaussianBlur result="effect1_foregroundBlur_28327_2988" stdDeviation="0.25"/></filter><filter id="as" x="10.86" y="14.954" width="2.5" height="3.5" color-interpolation-filters="sRGB" filterUnits="userSpaceOnUse"><feFlood flood-opacity="0" result="BackgroundImageFix"/><feBlend in="SourceGraphic" in2="BackgroundImageFix" result="shape"/><feGaussianBlur result="effect1_foregroundBlur_28327_2988" stdDeviation="0.25"/></filter><filter id="ar" x="24.001" y="9.1636" width="6.8125" height="7.1875" color-interpolation-filters="sRGB" filterUnits="userSpaceOnUse"><feFlood flood-opacity="0" result="BackgroundImageFix"/><feBlend in="SourceGraphic" in2="BackgroundImageFix" result="shape"/><feGaussianBlur result="effect1_foregroundBlur_28327_2988" stdDeviation="0.5"/></filter><filter id="aq" x="7.764" y="6.2224" width="2.3" height="9.7787" color-interpolation-filters="sRGB" filterUnits="userSpaceOnUse"><feFlood flood-opacity="0" result="BackgroundImageFix"/><feBlend in="SourceGraphic" in2="BackgroundImageFix" result="shape"/><feGaussianBlur result="effect1_foregroundBlur_28327_2988" stdDeviation="0.5"/></filter><filter id="bb" x="17.869" y="18.835" width="3.413" height="3.7812" color-interpolation-filters="sRGB" filterUnits="userSpaceOnUse"><feFlood flood-opacity="0" result="BackgroundImageFix"/><feBlend in="SourceGraphic" in2="BackgroundImageFix" result="shape"/><feGaussianBlur result="effect1_foregroundBlur_28327_2988" stdDeviation="0.15"/></filter><filter id="ba" x="16.756" y="21.549" width="2.288" height="2.0207" color-interpolation-filters="sRGB" filterUnits="userSpaceOnUse"><feFlood flood-opacity="0" result="BackgroundImageFix"/><feBlend in="SourceGraphic" in2="BackgroundImageFix" result="shape"/><feGaussianBlur result="effect1_foregroundBlur_28327_2988" stdDeviation="0.15"/></filter><filter id="az" x="13.062" y="21.549" width="2.288" height="2.0207" color-interpolation-filters="sRGB" filterUnits="userSpaceOnUse"><feFlood flood-opacity="0" result="BackgroundImageFix"/><feBlend in="SourceGraphic" in2="BackgroundImageFix" result="shape"/><feGaussianBlur result="effect1_foregroundBlur_28327_2988" stdDeviation="0.15"/></filter><radialGradient id="ap" cx="0" cy="0" r="1" gradientTransform="translate(22.689 7.726) rotate(104.36) scale(24.194 31.097)" gradientUnits="userSpaceOnUse"><stop stop-color="#FFC0CA" offset=".16393"/><stop stop-color="#FF8CA8" offset=".54333"/><stop stop-color="#FA5292" offset=".89062"/></radialGradient><radialGradient id="ae" cx="0" cy="0" r="1" gradientTransform="translate(16.688 14.476) rotate(90) scale(16.375 17.392)" gradientUnits="userSpaceOnUse"><stop stop-color="#FF6CD7" stop-opacity="0" offset=".88429"/><stop stop-color="#FF6CD7" offset="1"/></radialGradient><radialGradient id="t" cx="0" cy="0" r="1" gradientTransform="translate(24.642 9.3979) rotate(222.21) scale(4.5353 2.7303)" gradientUnits="userSpaceOnUse"><stop stop-color="#E2697D" offset="0"/><stop stop-color="#F78296" offset=".28628"/><stop stop-color="#F78296" stop-opacity="0" offset="1"/></radialGradient><radialGradient id="i" cx="0" cy="0" r="1" gradientTransform="translate(.8761 14.601) rotate(34.267) scale(6.8821 11.905)" gradientUnits="userSpaceOnUse"><stop stop-color="#C86C80" offset="0"/><stop stop-color="#C86C80" stop-opacity="0" offset="1"/></radialGradient><radialGradient id="f" cx="0" cy="0" r="1" gradientTransform="translate(16.688 19.331) rotate(-90) scale(2.895 6.7919)" gradientUnits="userSpaceOnUse"><stop stop-color="#FF857D" offset="0"/><stop stop-color="#FF857D" stop-opacity="0" offset="1"/></radialGradient><radialGradient id="e" cx="0" cy="0" r="1" gradientTransform="translate(27.376 19.414) rotate(176.95) scale(4.6942 11.2)" gradientUnits="userSpaceOnUse"><stop stop-color="#FFB5C8" offset="0"/><stop stop-color="#FFB5C8" stop-opacity="0" offset="1"/></radialGradient><radialGradient id="d" cx="0" cy="0" r="1" gradientTransform="translate(29.686 12.851) rotate(124.61) scale(6.3786 5.8837)" gradientUnits="userSpaceOnUse"><stop stop-color="#FFB5C8" offset="0"/><stop stop-color="#FFB5C8" stop-opacity="0" offset="1"/></radialGradient><linearGradient id="c" x1="15.999" x2="12.856" y1="23.42" y2="27.208" gradientUnits="userSpaceOnUse"><stop stop-color="#EB3F85" offset="0"/><stop stop-color="#FC4992" stop-opacity="0" offset="1"/></linearGradient><radialGradient id="b" cx="0" cy="0" r="1" gradientTransform="translate(19.713 19.837) rotate(109.95) scale(4.6641 4.1322)" gradientUnits="userSpaceOnUse"><stop stop-color="#FFD0EF" offset="0"/><stop stop-color="#FFCEF0" stop-opacity="0" offset="1"/></radialGradient><linearGradient id="a" x1="15.05" x2="19.714" y1="26.29" y2="19.264" gradientUnits="userSpaceOnUse"><stop stop-color="#FF9DE5" offset="0"/><stop stop-color="#FFAFE5" offset="1"/></linearGradient><linearGradient id="ao" x1="16.688" x2="16.688" y1="25.998" y2="22.444" gradientUnits="userSpaceOnUse"><stop stop-color="#FF8DF3" offset="0"/><stop stop-color="#FF8DF3" stop-opacity="0" offset="1"/></linearGradient><linearGradient id="an" x1="16.688" x2="16.688" y1="17.407" y2="19.753" gradientUnits="userSpaceOnUse"><stop stop-color="#FFABC8" offset="0"/><stop stop-color="#FFABC8" stop-opacity="0" offset="1"/></linearGradient><radialGradient id="am" cx="0" cy="0" r="1" gradientTransform="translate(21.305 19.602) rotate(137.28) scale(3.6894 5.0947)" gradientUnits="userSpaceOnUse"><stop stop-color="#FFC7EA" offset="0"/><stop stop-color="#FFC7EA" stop-opacity="0" offset="1"/></radialGradient><linearGradient id="al" x1="25.859" x2="24.272" y1="9.5364" y2="14.892" gradientUnits="userSpaceOnUse"><stop stop-color="#F78296" offset="0"/><stop stop-color="#E3519C" offset="1"/></linearGradient><linearGradient id="ak" x1="26.511" x2="24.751" y1="8.851" y2="14.789" gradientUnits="userSpaceOnUse"><stop stop-color="#FFC5DE" offset="0"/><stop stop-color="#FFB5EA" offset="1"/></linearGradient><linearGradient id="aj" x1="27.782" x2="26.511" y1="14.101" y2="12.898" gradientUnits="userSpaceOnUse"><stop stop-color="#FFA0D5" offset="0"/><stop stop-color="#FFADDB" stop-opacity="0" offset="1"/></linearGradient><linearGradient id="ai" x1="22.959" x2="24.939" y1="12.476" y2="12.476" gradientUnits="userSpaceOnUse"><stop stop-color="#FFA0D5" offset="0"/><stop stop-color="#FFADDB" stop-opacity="0" offset="1"/></linearGradient><linearGradient id="ah" x1="21.001" x2="27.814" y1="15.843" y2="12.476" gradientUnits="userSpaceOnUse"><stop stop-color="#FFA0D5" offset="0"/><stop stop-color="#FFADDB" stop-opacity="0" offset="1"/></linearGradient><radialGradient id="ag" cx="0" cy="0" r="1" gradientTransform="translate(22.189 3.9136) rotate(52.284) scale(5.9256 4.9607)" gradientUnits="userSpaceOnUse"><stop stop-color="#EC9099" offset="0"/><stop stop-color="#EC9099" stop-opacity="0" offset="1"/></radialGradient><radialGradient id="af" cx="0" cy="0" r="1" gradientTransform="translate(35.689 15.843) rotate(210.5) scale(16.61 12.517)" gradientUnits="userSpaceOnUse"><stop stop-color="#EC9099" stop-opacity="0" offset=".86288"/><stop stop-color="#EC9099" offset="1"/></radialGradient><linearGradient id="ad" x1="29.314" x2="25.845" y1="4.4136" y2="8.1323" gradientUnits="userSpaceOnUse"><stop stop-color="#EC9099" offset=".28215"/><stop stop-color="#EC9099" stop-opacity="0" offset="1"/></linearGradient><linearGradient id="ac" x1="5.7198" x2="9.3009" y1="13.789" y2="16.417" gradientUnits="userSpaceOnUse"><stop stop-color="#BC4F87" offset="0"/><stop stop-color="#E3519C" offset="1"/></linearGradient><linearGradient id="ab" x1="6.1886" x2="4.1445" y1="8.6497" y2="14.951" gradientUnits="userSpaceOnUse"><stop stop-color="#FFC5DE" offset="0"/><stop stop-color="#FFB5EA" offset="1"/></linearGradient><linearGradient id="aa" x1="7.3158" x2="4.5074" y1="16.617" y2="12.226" gradientUnits="userSpaceOnUse"><stop stop-color="#FFA0D5" offset="0"/><stop stop-color="#FFADDB" stop-opacity="0" offset="1"/></linearGradient><linearGradient id="z" x1="4.1796" x2="7.3761" y1="15.591" y2="12.817" gradientUnits="userSpaceOnUse"><stop stop-color="#E88BC9" offset="0"/><stop stop-color="#E88BC9" stop-opacity="0" offset="1"/></linearGradient><linearGradient id="y" x1="3.4558" x2="10.079" y1="6.5446" y2="12.69" gradientUnits="userSpaceOnUse"><stop stop-color="#EC9099" offset="0"/><stop stop-color="#EC9099" stop-opacity="0" offset="1"/></linearGradient><radialGradient id="x" cx="0" cy="0" r="1" gradientTransform="translate(7.3761 5.5625) rotate(92.095) scale(5.1296 3.2643)" gradientUnits="userSpaceOnUse"><stop stop-color="#FFA4B7" offset="0"/><stop stop-color="#FFA4B7" stop-opacity="0" offset="1"/></radialGradient><linearGradient id="w" x1="1.8761" x2="5.8136" y1="6.4375" y2="10.375" gradientUnits="userSpaceOnUse"><stop stop-color="#BD747C" offset=".2381"/><stop stop-color="#CC8C93" stop-opacity="0" offset="1"/></linearGradient><radialGradient id="v" cx="0" cy="0" r="1" gradientTransform="translate(10.603 12.365) rotate(190.89) scale(8.8748 9.0579)" gradientUnits="userSpaceOnUse"><stop stop-color="#CC8C93" stop-opacity="0" offset=".77614"/><stop stop-color="#CC8C93" offset="1"/></radialGradient><linearGradient id="u" x1="18.516" x2="18.516" y1="21.318" y2="22.678" gradientUnits="userSpaceOnUse"><stop stop-color="#D6085D" offset="0"/><stop stop-color="#AB087F" offset="1"/></linearGradient><linearGradient id="s" x1="14.859" x2="14.859" y1="21.318" y2="22.678" gradientUnits="userSpaceOnUse"><stop stop-color="#D6085D" offset="0"/><stop stop-color="#AB087F" offset="1"/></linearGradient><linearGradient id="r" x1="21.447" x2="20.527" y1="16.439" y2="16.439" gradientUnits="userSpaceOnUse"><stop stop-color="#574D50" offset="0"/><stop stop-color="#31232C" offset=".85526"/></linearGradient><linearGradient id="q" x1="21.923" x2="21.923" y1="17.97" y2="17.062" gradientUnits="userSpaceOnUse"><stop stop-color="#552D52" offset="0"/><stop stop-color="#552D52" stop-opacity="0" offset="1"/></linearGradient><linearGradient id="p" x1="19.874" x2="20.552" y1="16.592" y2="16.592" gradientUnits="userSpaceOnUse"><stop stop-color="#574D50" offset="0"/><stop stop-color="#574D50" stop-opacity="0" offset="1"/></linearGradient><linearGradient id="o" x1="12.947" x2="12.027" y1="16.439" y2="16.439" gradientUnits="userSpaceOnUse"><stop stop-color="#574D50" offset="0"/><stop stop-color="#31232C" offset=".85526"/></linearGradient><linearGradient id="n" x1="13.423" x2="13.423" y1="17.97" y2="17.062" gradientUnits="userSpaceOnUse"><stop stop-color="#552D52" offset="0"/><stop stop-color="#552D52" stop-opacity="0" offset="1"/></linearGradient><linearGradient id="m" x1="11.374" x2="12.052" y1="16.592" y2="16.592" gradientUnits="userSpaceOnUse"><stop stop-color="#574D50" offset="0"/><stop stop-color="#574D50" stop-opacity="0" offset="1"/></linearGradient><linearGradient id="l" x1="29.095" x2="25.282" y1="11.57" y2="15.351" gradientUnits="userSpaceOnUse"><stop stop-color="#FFD8EE" offset="0"/><stop stop-color="#FFD8EE" stop-opacity="0" offset="1"/></linearGradient><linearGradient id="k" x1="7.7816" x2="7.7816" y1="10.358" y2="22.239" gradientUnits="userSpaceOnUse"><stop stop-color="#FFE6F4" offset="0"/><stop stop-color="#FFE5F4" stop-opacity="0" offset="1"/></linearGradient><linearGradient id="j" x1="17.554" x2="22.997" y1="18.351" y2="22.242" gradientUnits="userSpaceOnUse"><stop stop-color="#FFD6F0" stop-opacity="0" offset="0"/><stop stop-color="#FFE1F4" offset=".44792"/><stop stop-color="#FFD6F0" stop-opacity="0" offset="1"/></linearGradient><linearGradient id="h" x1="16.733" x2="19.144" y1="21.564" y2="23.938" gradientUnits="userSpaceOnUse"><stop stop-color="#FFD6F0" stop-opacity="0" offset="0"/><stop stop-color="#FFE1F4" offset=".44792"/><stop stop-color="#FFD6F0" stop-opacity="0" offset="1"/></linearGradient><linearGradient id="g" x1="13.039" x2="15.45" y1="21.564" y2="23.938" gradientUnits="userSpaceOnUse"><stop stop-color="#FFD6F0" stop-opacity="0" offset="0"/><stop stop-color="#FFD8F1" stop-opacity=".17442" offset=".078125"/><stop stop-color="#FFE1F4" offset=".44792"/><stop stop-color="#FFD6F0" stop-opacity="0" offset="1"/></linearGradient><clipPath id="bd"><rect width="32" height="32" fill="#fff"/></clipPath></defs></svg>
