<svg fill="none" viewBox="0 0 32 32" xmlns="http://www.w3.org/2000/svg"><path d="m7.036 2.4917-5.036 2.5179c0.82591 2.3367 3.5252 3.5252 6.0432 2.518l6.0432-2.518c-0.8259-2.3468-4.2363-3.8328-7.0505-2.518z" fill="url(#f)"/><g filter="url(#h)"><path d="m2.6458 5.2604 4.5819-2.2909c1.3526-0.57829 2.8223-0.41096 3.9852 0.00826 0.9982 0.35985 1.7778 0.98307 2.2051 1.7756l-5.566 2.3191c-2.1172 0.84506-4.3287-0.0361-5.2062-1.812z" fill="url(#e)"/></g><g filter="url(#g)"><path d="m5.0046 4.1725 2.4257-1.4037c1.3526-0.57829 2.8224-0.41096 3.9852 0.00826 0.9982 0.35984 1.7778 0.98307 2.2051 1.7756-3.1695-1.5568-3.6855-2.1224-8.616-0.38014z" fill="url(#d)"/></g><path d="m14.924 4.5997c-5.4038 1.9073-8.2332 7.8502-6.3314 13.27l1.2524 3.5588c1.4032 3.989 4.9864 6.5825 8.9291 6.9081 0.7421 0.0582 1.4379 0.3838 1.9945 0.8839 0.8001 0.7211 1.9481 0.9885 3.0266 0.6047 1.0784-0.3837 1.809-1.3141 1.9829-2.3724 0.116-0.7443 0.4523-1.4189 0.9973-1.9422 2.8642-2.7447 4.0354-7.0129 2.6323-11.002l-1.2524-3.5588c-1.9017-5.4311-7.8274-8.2688-13.231-6.3499z" fill="url(#c)"/><path d="m14.924 4.5997c-5.4038 1.9073-8.2332 7.8502-6.3314 13.27l1.2524 3.5588c1.4032 3.989 4.9864 6.5825 8.9291 6.9081 0.7421 0.0582 1.4379 0.3838 1.9945 0.8839 0.8001 0.7211 1.9481 0.9885 3.0266 0.6047 1.0784-0.3837 1.809-1.3141 1.9829-2.3724 0.116-0.7443 0.4523-1.4189 0.9973-1.9422 2.8642-2.7447 4.0354-7.0129 2.6323-11.002l-1.2524-3.5588c-1.9017-5.4311-7.8274-8.2688-13.231-6.3499z" fill="url(#b)"/><path d="m14.924 4.5997c-5.4038 1.9073-8.2332 7.8502-6.3314 13.27l1.2524 3.5588c1.4032 3.989 4.9864 6.5825 8.9291 6.9081 0.7421 0.0582 1.4379 0.3838 1.9945 0.8839 0.8001 0.7211 1.9481 0.9885 3.0266 0.6047 1.0784-0.3837 1.809-1.3141 1.9829-2.3724 0.116-0.7443 0.4523-1.4189 0.9973-1.9422 2.8642-2.7447 4.0354-7.0129 2.6323-11.002l-1.2524-3.5588c-1.9017-5.4311-7.8274-8.2688-13.231-6.3499z" fill="url(#a)"/><defs><filter id="h" x="1.8904" y="1.8413" width="12.283" height="6.3102" color-interpolation-filters="sRGB" filterUnits="userSpaceOnUse"><feFlood flood-opacity="0" result="BackgroundImageFix"/><feBlend in="SourceGraphic" in2="BackgroundImageFix" result="shape"/><feGaussianBlur result="effect1_foregroundBlur_18_30102" stdDeviation="0.377703"/></filter><filter id="g" x="4.2492" y="1.6406" width="10.127" height="3.6674" color-interpolation-filters="sRGB" filterUnits="userSpaceOnUse"><feFlood flood-opacity="0" result="BackgroundImageFix"/><feBlend in="SourceGraphic" in2="BackgroundImageFix" result="shape"/><feGaussianBlur result="effect1_foregroundBlur_18_30102" stdDeviation="0.377703"/></filter><linearGradient id="f" x1="2" x2="14.086" y1="5.009" y2="5.009" gradientUnits="userSpaceOnUse"><stop stop-color="#80A338" offset="0"/><stop stop-color="#B3D745" offset="1"/></linearGradient><linearGradient id="e" x1="1.999" x2="14.086" y1="5.02" y2="5.02" gradientUnits="userSpaceOnUse"><stop stop-color="#95BD27" offset="0"/><stop stop-color="#BAE038" offset="1"/></linearGradient><linearGradient id="d" x1="13.621" x2="6.3831" y1="4.2397" y2="3.2983" gradientUnits="userSpaceOnUse"><stop stop-color="#D1F56E" stop-opacity="0" offset="0"/><stop stop-color="#D1F56E" offset=".28606"/><stop stop-color="#D1F56E" stop-opacity="0" offset="1"/></linearGradient><radialGradient id="c" cx="0" cy="0" r="1" gradientTransform="translate(21.202 10.572) rotate(115.15) scale(17.63 14.918)" gradientUnits="userSpaceOnUse"><stop stop-color="#FFFB98" offset="0"/><stop stop-color="#FFD84C" offset=".50521"/><stop stop-color="#E6B534" offset="1"/></radialGradient><radialGradient id="b" cx="0" cy="0" r="1" gradientTransform="translate(14.624 4.9683) rotate(69.334) scale(26.753 22.637)" gradientUnits="userSpaceOnUse"><stop stop-color="#FFDE67" stop-opacity="0" offset=".52158"/><stop stop-color="#FFA457" stop-opacity=".2" offset=".7361"/><stop stop-color="#D5676D" stop-opacity=".75" offset=".88617"/><stop stop-color="#E88257" offset=".91788"/><stop stop-color="#F49754" offset="1"/></radialGradient><radialGradient id="a" cx="0" cy="0" r="1" gradientTransform="translate(-10.594 -28.473) rotate(56.122) scale(51.359 43.458)" gradientUnits="userSpaceOnUse"><stop stop-color="#D5B638" offset=".70798"/><stop stop-color="#D5B638" stop-opacity="0" offset=".87374"/></radialGradient></defs></svg>
