<svg fill="none" viewBox="0 0 32 32" xmlns="http://www.w3.org/2000/svg"><g filter="url(#r)"><path d="m11.688 13.062c0.2591-1.495 1.297-2.7814 2.3565-3.6295 0.4564-0.36533 1.1002-0.30697 1.5489 0.06785 0.7874 0.65783 0.6232 2.0031-0.0733 2.7565-0.1507 0.1631-0.2995 0.3426-0.4415 0.5395-1.375 1.9062 0.2813 3.8125 1.5 4.375 0.9531 0.5859 2.2344 0.3281 2.7344 0.2031s2.1562-0.5625 2.4375 0.625c0.2812 1.1875-0.3125 2.1875-1.625 2.4375s-2.5625 0.0938-3.0938 2.8125c-0.5312 2.7188-1.7187 5.125-4.4687 6.1875-2.75 1.0625-5.9063 0.75-8.25-1.5937-1.8438-1.9688-2.8437-5.9063-0.93749-9.0313 2.125-3.0937 4.7812-3.3125 5.6562-3.4687 0.875-0.1563 2.2032-0.125 2.6563-2.2813z" fill="url(#l)"/></g><path d="m7.2031 18.188c0.9428-1.2889 2.9196-1.5932 3.8581-1.5546 0.0776 0.0032 0.1508-0.0357 0.1905-0.1024 0.4408-0.7415 0.8963-1.2149 1.4514-1.3118 0.3831-0.0361 1.0375-0.0469 1.5 0.8281s1.1823 1.7396 1.4843 2.0625c1.5222 0.6359 2.6193 0.4587 3.4001 0.251 0.3407-0.0907 0.686 0.1055 0.7724 0.4474 0.0973 0.3847-0.1791 0.7678-0.5644 0.8627-0.6941 0.1708-1.6554 0.5533-2.5299 1.3764-1.5938 1.5-0.8594 3.25-2.125 5.0313-0.7637 1.0748-2.9063 3.0937-4.2344 2-0.63123-0.5198-0.55381-1.7598-0.2833-2.656 0.1279-0.4235 0.0744-0.9076-0.23038-1.2282l-2.4863-2.6158c-0.45833-0.5781-1.1906-2.0406-0.20312-3.3906z" fill="url(#i)"/><g filter="url(#q)"><path d="m23.764 6.752 1.8516 1.8516-9.9418 9.9418c-0.1562 0.1562-0.4094 0.1562-0.5657 0l-1.2858-1.2859c-0.1562-0.1562-0.1562-0.4095 0-0.5657l9.9417-9.9418z" fill="url(#h)"/><path d="m23.764 6.752 1.8516 1.8516-9.9418 9.9418c-0.1562 0.1562-0.4094 0.1562-0.5657 0l-1.2858-1.2859c-0.1562-0.1562-0.1562-0.4095 0-0.5657l9.9417-9.9418z" fill="url(#g)"/></g><g filter="url(#p)"><path d="m28.922 6.7422c0.8036 0 1.4551-0.76084 1.4551-1.5645s-0.6515-1.4551-1.4551-1.4551c-0.2349 0-0.4568 0.05566-0.6532 0.15451l-4.0614 1.6664c-0.6579 0.26992-0.8318 1.1209-0.3325 1.6273l1.5758 1.5981c0.356 0.36111 0.9861 0.32674 1.2579-0.1014 0.262-0.41266 0.5703-0.99043 0.858-1.8111 0.0645-0.18395 0.288-0.2736 0.4763-0.22337 0.293 0.07815 0.6416 0.10913 0.8791 0.10913z" fill="#CD338B"/><path d="m28.922 6.7422c0.8036 0 1.4551-0.76084 1.4551-1.5645s-0.6515-1.4551-1.4551-1.4551c-0.2349 0-0.4568 0.05566-0.6532 0.15451l-4.0614 1.6664c-0.6579 0.26992-0.8318 1.1209-0.3325 1.6273l1.5758 1.5981c0.356 0.36111 0.9861 0.32674 1.2579-0.1014 0.262-0.41266 0.5703-0.99043 0.858-1.8111 0.0645-0.18395 0.288-0.2736 0.4763-0.22337 0.293 0.07815 0.6416 0.10913 0.8791 0.10913z" fill="url(#f)"/></g><g filter="url(#o)"><path d="m11.809 18.192c0.2021-0.1998 0.5278-0.198 0.7276 0.0041l1.5992 1.6173c0.1997 0.2021 0.1979 0.5278-0.0041 0.7276-0.2021 0.1998-0.5278 0.1979-0.7276-0.0041l-1.5992-1.6174c-0.1997-0.202-0.1979-0.5277 0.0041-0.7275z" fill="url(#e)"/></g><g filter="url(#n)"><path d="m9.7467 20.254c0.20204-0.1998 0.52776-0.198 0.72756 0.0041l1.5992 1.6173c0.1997 0.2021 0.1979 0.5278-0.0041 0.7276-0.2021 0.1998-0.5278 0.1979-0.7276-0.0041l-1.5992-1.6174c-0.19977-0.202-0.19794-0.5277 0.00411-0.7275z" fill="url(#d)"/></g><g filter="url(#m)"><path d="m6.7986 22.784c0.19636-0.1941 0.51294-0.1924 0.7071 4e-3l2.0268 2.0498c0.19416 0.1964 0.19237 0.513-0.00399 0.7071l-0.67967 0.6721c-0.19636 0.1941-0.51294 0.1923-0.70709-4e-3l-2.0268-2.0499c-0.19416-0.1963-0.19237-0.5129 0.00399-0.7071l0.67966-0.672z" fill="url(#c)"/><path d="m6.7986 22.784c0.19636-0.1941 0.51294-0.1924 0.7071 4e-3l2.0268 2.0498c0.19416 0.1964 0.19237 0.513-0.00399 0.7071l-0.67967 0.6721c-0.19636 0.1941-0.51294 0.1923-0.70709-4e-3l-2.0268-2.0499c-0.19416-0.1963-0.19237-0.5129 0.00399-0.7071l0.67966-0.672z" fill="url(#b)"/></g><circle cx="24.41" cy="4.9453" r=".57422" fill="url(#a)"/><circle cx="26.106" cy="4.2422" r=".57422" fill="url(#k)"/><circle cx="27.894" cy="3.5" r=".57422" fill="url(#j)"/><defs><filter id="r" x="2.0977" y="9.1874" width="20.021" height="21.132" color-interpolation-filters="sRGB" filterUnits="userSpaceOnUse"><feFlood flood-opacity="0" result="BackgroundImageFix"/><feBlend in="SourceGraphic" in2="BackgroundImageFix" result="shape"/><feColorMatrix in="SourceAlpha" result="hardAlpha" values="0 0 0 0 0 0 0 0 0 0 0 0 0 0 0 0 0 0 127 0"/><feOffset dx="-0.25" dy="0.25"/><feGaussianBlur stdDeviation="0.125"/><feComposite in2="hardAlpha" k2="-1" k3="1" operator="arithmetic"/><feColorMatrix values="0 0 0 0 0.890196 0 0 0 0 0.368627 0 0 0 0 0.564706 0 0 0 1 0"/><feBlend in2="shape" result="effect1_innerShadow_18_18660"/><feColorMatrix in="SourceAlpha" result="hardAlpha" values="0 0 0 0 0 0 0 0 0 0 0 0 0 0 0 0 0 0 127 0"/><feOffset dx="0.3" dy="0.3"/><feGaussianBlur stdDeviation="0.15"/><feComposite in2="hardAlpha" k2="-1" k3="1" operator="arithmetic"/><feColorMatrix values="0 0 0 0 0.815686 0 0 0 0 0.156863 0 0 0 0 0.231373 0 0 0 1 0"/><feBlend in2="effect1_innerShadow_18_18660" result="effect2_innerShadow_18_18660"/></filter><filter id="q" x="13.455" y="6.752" width="12.41" height="11.91" color-interpolation-filters="sRGB" filterUnits="userSpaceOnUse"><feFlood flood-opacity="0" result="BackgroundImageFix"/><feBlend in="SourceGraphic" in2="BackgroundImageFix" result="shape"/><feColorMatrix in="SourceAlpha" result="hardAlpha" values="0 0 0 0 0 0 0 0 0 0 0 0 0 0 0 0 0 0 127 0"/><feOffset dx="0.4"/><feGaussianBlur stdDeviation="0.125"/><feComposite in2="hardAlpha" k2="-1" k3="1" operator="arithmetic"/><feColorMatrix values="0 0 0 0 0.329412 0 0 0 0 0.258824 0 0 0 0 0.513726 0 0 0 1 0"/><feBlend in2="shape" result="effect1_innerShadow_18_18660"/><feColorMatrix in="SourceAlpha" result="hardAlpha" values="0 0 0 0 0 0 0 0 0 0 0 0 0 0 0 0 0 0 127 0"/><feOffset dx="-0.4"/><feGaussianBlur stdDeviation="0.125"/><feComposite in2="hardAlpha" k2="-1" k3="1" operator="arithmetic"/><feColorMatrix values="0 0 0 0 0.384314 0 0 0 0 0.309804 0 0 0 0 0.568627 0 0 0 1 0"/><feBlend in2="effect1_innerShadow_18_18660" result="effect2_innerShadow_18_18660"/></filter><filter id="p" x="23.436" y="3.5727" width="7.0904" height="5.5937" color-interpolation-filters="sRGB" filterUnits="userSpaceOnUse"><feFlood flood-opacity="0" result="BackgroundImageFix"/><feBlend in="SourceGraphic" in2="BackgroundImageFix" result="shape"/><feColorMatrix in="SourceAlpha" result="hardAlpha" values="0 0 0 0 0 0 0 0 0 0 0 0 0 0 0 0 0 0 127 0"/><feOffset dx="0.15" dy="0.15"/><feGaussianBlur stdDeviation="0.15"/><feComposite in2="hardAlpha" k2="-1" k3="1" operator="arithmetic"/><feColorMatrix values="0 0 0 0 0.788235 0 0 0 0 0.196078 0 0 0 0 0.478431 0 0 0 1 0"/><feBlend in2="shape" result="effect1_innerShadow_18_18660"/><feColorMatrix in="SourceAlpha" result="hardAlpha" values="0 0 0 0 0 0 0 0 0 0 0 0 0 0 0 0 0 0 127 0"/><feOffset dx="-0.15" dy="-0.15"/><feGaussianBlur stdDeviation="0.15"/><feComposite in2="hardAlpha" k2="-1" k3="1" operator="arithmetic"/><feColorMatrix values="0 0 0 0 0.788235 0 0 0 0 0.196078 0 0 0 0 0.478431 0 0 0 1 0"/><feBlend in2="effect1_innerShadow_18_18660" result="effect2_innerShadow_18_18660"/></filter><filter id="o" x="11.656" y="17.943" width="2.7282" height="2.7462" color-interpolation-filters="sRGB" filterUnits="userSpaceOnUse"><feFlood flood-opacity="0" result="BackgroundImageFix"/><feBlend in="SourceGraphic" in2="BackgroundImageFix" result="shape"/><feColorMatrix in="SourceAlpha" result="hardAlpha" values="0 0 0 0 0 0 0 0 0 0 0 0 0 0 0 0 0 0 127 0"/><feOffset dx="0.1" dy="-0.1"/><feGaussianBlur stdDeviation="0.05"/><feComposite in2="hardAlpha" k2="-1" k3="1" operator="arithmetic"/><feColorMatrix values="0 0 0 0 0.592157 0 0 0 0 0.517647 0 0 0 0 0.65098 0 0 0 1 0"/><feBlend in2="shape" result="effect1_innerShadow_18_18660"/></filter><filter id="n" x="9.594" y="20.005" width="2.7282" height="2.7462" color-interpolation-filters="sRGB" filterUnits="userSpaceOnUse"><feFlood flood-opacity="0" result="BackgroundImageFix"/><feBlend in="SourceGraphic" in2="BackgroundImageFix" result="shape"/><feColorMatrix in="SourceAlpha" result="hardAlpha" values="0 0 0 0 0 0 0 0 0 0 0 0 0 0 0 0 0 0 127 0"/><feOffset dx="0.1" dy="-0.1"/><feGaussianBlur stdDeviation="0.05"/><feComposite in2="hardAlpha" k2="-1" k3="1" operator="arithmetic"/><feColorMatrix values="0 0 0 0 0.592157 0 0 0 0 0.517647 0 0 0 0 0.65098 0 0 0 1 0"/><feBlend in2="shape" result="effect1_innerShadow_18_18660"/></filter><filter id="m" x="5.5205" y="22.489" width="4.3064" height="4.3218" color-interpolation-filters="sRGB" filterUnits="userSpaceOnUse"><feFlood flood-opacity="0" result="BackgroundImageFix"/><feColorMatrix in="SourceAlpha" result="hardAlpha" values="0 0 0 0 0 0 0 0 0 0 0 0 0 0 0 0 0 0 127 0"/><feOffset dx="-0.15" dy="0.15"/><feGaussianBlur stdDeviation="0.15"/><feComposite in2="hardAlpha" operator="out"/><feColorMatrix values="0 0 0 0 0.8 0 0 0 0 0.141176 0 0 0 0 0.282353 0 0 0 1 0"/><feBlend in2="BackgroundImageFix" result="effect1_dropShadow_18_18660"/><feBlend in="SourceGraphic" in2="effect1_dropShadow_18_18660" result="shape"/></filter><linearGradient id="l" x1="9.5625" x2="20.562" y1="24.5" y2="23.625" gradientUnits="userSpaceOnUse"><stop stop-color="#D53556" offset="0"/><stop stop-color="#D83391" offset="1"/></linearGradient><linearGradient id="i" x1="5.8437" x2="12.5" y1="19.094" y2="21.438" gradientUnits="userSpaceOnUse"><stop stop-color="#FFEBFF" offset="0"/><stop stop-color="#FFE8FF" offset="1"/></linearGradient><linearGradient id="h" x1="24.344" x2="14.219" y1="8.0625" y2="17.938" gradientUnits="userSpaceOnUse"><stop stop-color="#635C95" offset="0"/><stop stop-color="#605193" offset="1"/></linearGradient><linearGradient id="g" x1="24.984" x2="24.453" y1="8.0156" y2="8.5312" gradientUnits="userSpaceOnUse"><stop stop-color="#57337D" offset=".22031"/><stop stop-color="#645D97" stop-opacity="0" offset="1"/></linearGradient><radialGradient id="f" cx="0" cy="0" r="1" gradientTransform="translate(25.656 6.3695) rotate(-19.012) scale(4.8753 2.9442)" gradientUnits="userSpaceOnUse"><stop stop-color="#E663A0" stop-opacity="0" offset=".90324"/><stop stop-color="#E663A0" offset="1"/></radialGradient><linearGradient id="e" x1="11.898" x2="13.844" y1="18.484" y2="20.391" gradientUnits="userSpaceOnUse"><stop stop-color="#9C8BAA" offset="0"/><stop stop-color="#A08EAF" offset="1"/></linearGradient><linearGradient id="d" x1="9.836" x2="11.781" y1="20.547" y2="22.453" gradientUnits="userSpaceOnUse"><stop stop-color="#9C8BAA" offset="0"/><stop stop-color="#A08EAF" offset="1"/></linearGradient><linearGradient id="c" x1="8.6875" x2="7.125" y1="23.688" y2="25.344" gradientUnits="userSpaceOnUse"><stop stop-color="#A394B1" offset="0"/><stop stop-color="#9178A2" offset="1"/></linearGradient><linearGradient id="b" x1="8.5156" x2="8.1562" y1="23.578" y2="23.969" gradientUnits="userSpaceOnUse"><stop stop-color="#AD9FB8" offset="0"/><stop stop-color="#AD9FB8" stop-opacity="0" offset="1"/></linearGradient><radialGradient id="a" cx="0" cy="0" r="1" gradientTransform="translate(24.781 4.8438) rotate(157.32) scale(.56731)" gradientUnits="userSpaceOnUse"><stop stop-color="#C3B9C9" offset=".19406"/><stop stop-color="#B7A7C0" offset="1"/></radialGradient><radialGradient id="k" cx="0" cy="0" r="1" gradientTransform="translate(26.477 4.1406) rotate(157.32) scale(.56731)" gradientUnits="userSpaceOnUse"><stop stop-color="#C3B9C9" offset=".19406"/><stop stop-color="#B7A7C0" offset="1"/></radialGradient><radialGradient id="j" cx="0" cy="0" r="1" gradientTransform="translate(28.266 3.3984) rotate(157.32) scale(.56731)" gradientUnits="userSpaceOnUse"><stop stop-color="#C3B9C9" offset=".19406"/><stop stop-color="#B7A7C0" offset="1"/></radialGradient></defs></svg>
