<svg fill="none" viewBox="0 0 32 32" xmlns="http://www.w3.org/2000/svg"><path d="m27.48 10.841c0.34-0.73 0.53-1.54 0.52-2.4-0.04-2.96-2.43-5.37-5.38-5.44-2.83-0.06-5.19 2.01-5.57 4.73-0.02 0.15-0.15 0.27-0.31 0.27h-1.49c-0.16 0-0.29-0.12-0.31-0.27-0.37-2.71-2.73-4.79-5.56-4.73-2.95 0.07-5.34 2.48-5.38 5.43-0.01 0.86 0.18 1.68 0.52 2.4 0.15 0.33 0.1 0.72-0.13 1-1.49 1.82-2.39 4.14-2.39 6.67 0 5.8 4.7 10.5 10.5 10.5h7c5.8 0 10.5-4.7 10.5-10.5 0-2.53-0.9-4.85-2.39-6.67-0.23-0.28-0.28-0.66-0.13-0.99z" fill="url(#f)"/><path d="m27.48 10.841c0.34-0.73 0.53-1.54 0.52-2.4-0.04-2.96-2.43-5.37-5.38-5.44-2.83-0.06-5.19 2.01-5.57 4.73-0.02 0.15-0.15 0.27-0.31 0.27h-1.49c-0.16 0-0.29-0.12-0.31-0.27-0.37-2.71-2.73-4.79-5.56-4.73-2.95 0.07-5.34 2.48-5.38 5.43-0.01 0.86 0.18 1.68 0.52 2.4 0.15 0.33 0.1 0.72-0.13 1-1.49 1.82-2.39 4.14-2.39 6.67 0 5.8 4.7 10.5 10.5 10.5h7c5.8 0 10.5-4.7 10.5-10.5 0-2.53-0.9-4.85-2.39-6.67-0.23-0.28-0.28-0.66-0.13-0.99z" fill="url(#e)"/><path d="m27.48 10.841c0.34-0.73 0.53-1.54 0.52-2.4-0.04-2.96-2.43-5.37-5.38-5.44-2.83-0.06-5.19 2.01-5.57 4.73-0.02 0.15-0.15 0.27-0.31 0.27h-1.49c-0.16 0-0.29-0.12-0.31-0.27-0.37-2.71-2.73-4.79-5.56-4.73-2.95 0.07-5.34 2.48-5.38 5.43-0.01 0.86 0.18 1.68 0.52 2.4 0.15 0.33 0.1 0.72-0.13 1-1.49 1.82-2.39 4.14-2.39 6.67 0 5.8 4.7 10.5 10.5 10.5h7c5.8 0 10.5-4.7 10.5-10.5 0-2.53-0.9-4.85-2.39-6.67-0.23-0.28-0.28-0.66-0.13-0.99z" fill="url(#d)"/><path d="m9.5 12c1.933 0 3.5-1.567 3.5-3.5s-1.567-3.5-3.5-3.5-3.5 1.567-3.5 3.5 1.567 3.5 3.5 3.5z" fill="#F8D41E"/><path d="m9.5 11c1.3807 0 2.5-1.1193 2.5-2.5s-1.1193-2.5-2.5-2.5c-1.3807 0-2.5 1.1193-2.5 2.5s1.1193 2.5 2.5 2.5z" fill="url(#c)"/><path d="m22.5 12c1.933 0 3.5-1.567 3.5-3.5s-1.567-3.5-3.5-3.5-3.5 1.567-3.5 3.5 1.567 3.5 3.5 3.5z" fill="#F8D41E"/><path d="m22.5 11.001c1.3807 0 2.5-1.1193 2.5-2.5s-1.1193-2.5-2.5-2.5-2.5 1.1193-2.5 2.5 1.1193 2.5 2.5 2.5z" fill="url(#b)"/><path d="m17.5 14.001c0.2761 0 0.5-0.2238 0.5-0.5 0-0.2761-0.2239-0.5-0.5-0.5s-0.5 0.2239-0.5 0.5c0 0.2762 0.2239 0.5 0.5 0.5z" fill="#30223D"/><path d="m14.5 14.001c0.2761 0 0.5-0.2238 0.5-0.5 0-0.2761-0.2239-0.5-0.5-0.5s-0.5 0.2239-0.5 0.5c0 0.2762 0.2239 0.5 0.5 0.5z" fill="#30223D"/><path d="m27.57 20.391c-1.18 0-2.27-0.4-3.15-1.06-2.31-1.85-5.24-2.95-8.43-2.95-3.22 0-6.17 1.12-8.49 3v-0.01c-0.86 0.64-1.94 1.02-3.1 1.02h-2.23c0.89 4.9 5.18 8.61 10.33 8.61h7c5.15 0 9.44-3.71 10.33-8.61h-2.26z" fill="url(#a)"/><defs><radialGradient id="f" cx="0" cy="0" r="1" gradientTransform="translate(22.375 16.001) rotate(177.02) scale(21.654 23.319)" gradientUnits="userSpaceOnUse"><stop stop-color="#63F6AE" offset=".1313"/><stop stop-color="#4EB883" offset="1"/></radialGradient><radialGradient id="e" cx="0" cy="0" r="1" gradientTransform="translate(11.125 7.7812) rotate(-60.546) scale(3.0505 4.4664)" gradientUnits="userSpaceOnUse"><stop stop-color="#60EEA4" offset="0"/><stop stop-color="#60EEA4" stop-opacity="0" offset="1"/></radialGradient><radialGradient id="d" cx="0" cy="0" r="1" gradientTransform="translate(23.781 8.6562) rotate(-67.11) scale(4.5794 6.0035)" gradientUnits="userSpaceOnUse"><stop stop-color="#60EEA4" offset="0"/><stop stop-color="#60EEA4" stop-opacity="0" offset="1"/></radialGradient><radialGradient id="c" cx="0" cy="0" r="1" gradientTransform="translate(12 7.125) rotate(147.1) scale(3.7966 1.9742)" gradientUnits="userSpaceOnUse"><stop stop-color="#5E5764" offset="0"/><stop stop-color="#3C2A4F" offset="1"/></radialGradient><radialGradient id="b" cx="0" cy="0" r="1" gradientTransform="translate(25 7.1262) rotate(147.1) scale(3.7966 1.9742)" gradientUnits="userSpaceOnUse"><stop stop-color="#5E5764" offset="0"/><stop stop-color="#3C2A4F" offset="1"/></radialGradient><linearGradient id="a" x1="16" x2="16" y1="41.875" y2="18.125" gradientUnits="userSpaceOnUse"><stop stop-color="#FF95F4" offset=".51316"/><stop stop-color="#FA946C" offset=".60526"/><stop stop-color="#FFE55D" offset="1"/></linearGradient></defs></svg>
