<svg fill="none" viewBox="0 0 32 32" xmlns="http://www.w3.org/2000/svg"><path d="m8.3627 29.971c-1.7344 0-3.6406-2.4375-3.1094-5.9219 0.3125 0.2 2.6146 2.0521 3.75 3.1406 0.32812 0.8438 0.10937 2.7813-0.64063 2.7813z" fill="url(#y)"/><path d="m8.3627 29.971c-1.7344 0-3.6406-2.4375-3.1094-5.9219 0.3125 0.2 2.6146 2.0521 3.75 3.1406 0.32812 0.8438 0.10937 2.7813-0.64063 2.7813z" fill="url(#n)"/><path d="m29 16.936c0-3.9844-1.8906-7.5782-4.8203-10.344-0.1125-0.10615-0.314-0.35877-0.1484-0.67969 0.3828-0.74218 0.8307-1.326 0.4531-3.0625-0.0926-0.42562-0.1485-1.2344-0.9531-1.1562-0.8047 0.07813-1.586 1.2109-1.586 1.2109-0.5037 0.7048-0.6875 1.1562-0.6875 2.5156 0.0223 0.38106-0.0555 0.5798-0.4453 0.625-0.5391 0.0625-1.6797 0.21093-2.4531 1.1172 0 0-1.1601 1.1656-1.2032 1.7188-0.043 0.55317 0.408 0.66616 0.7266 0.72657 1.6484 0.3125 2.6094 0.02392 3.7422-1.0469 0.1686-0.15938 0.3215-0.08709 0.4375 0.03906 1.8751 2.0391 2.8438 5.5391 2.547 8.2266-0.2829 2.561-3.7344 2.1406-4.0469-0.4426-0.1719-3.6043-2.2032-6.3699-6.0695-6.3699l-6.55-0.08429c-2.3493 0-5.1936 1.5927-5.5993 5.1624-0.8398 7.3901 6.1719 15.094 13.734 14.875 7.7921-0.2254 12.922-4.2501 12.922-13.031z" fill="url(#h)"/><path d="m29 16.936c0-3.9844-1.8906-7.5782-4.8203-10.344-0.1125-0.10615-0.314-0.35877-0.1484-0.67969 0.3828-0.74218 0.8307-1.326 0.4531-3.0625-0.0926-0.42562-0.1485-1.2344-0.9531-1.1562-0.8047 0.07813-1.586 1.2109-1.586 1.2109-0.5037 0.7048-0.6875 1.1562-0.6875 2.5156 0.0223 0.38106-0.0555 0.5798-0.4453 0.625-0.5391 0.0625-1.6797 0.21093-2.4531 1.1172 0 0-1.1601 1.1656-1.2032 1.7188-0.043 0.55317 0.408 0.66616 0.7266 0.72657 1.6484 0.3125 2.6094 0.02392 3.7422-1.0469 0.1686-0.15938 0.3215-0.08709 0.4375 0.03906 1.8751 2.0391 2.8438 5.5391 2.547 8.2266-0.2829 2.561-3.7344 2.1406-4.0469-0.4426-0.1719-3.6043-2.2032-6.3699-6.0695-6.3699l-6.55-0.08429c-2.3493 0-5.1936 1.5927-5.5993 5.1624-0.8398 7.3901 6.1719 15.094 13.734 14.875 7.7921-0.2254 12.922-4.2501 12.922-13.031z" fill="url(#g)"/><path d="m29 16.936c0-3.9844-1.8906-7.5782-4.8203-10.344-0.1125-0.10615-0.314-0.35877-0.1484-0.67969 0.3828-0.74218 0.8307-1.326 0.4531-3.0625-0.0926-0.42562-0.1485-1.2344-0.9531-1.1562-0.8047 0.07813-1.586 1.2109-1.586 1.2109-0.5037 0.7048-0.6875 1.1562-0.6875 2.5156 0.0223 0.38106-0.0555 0.5798-0.4453 0.625-0.5391 0.0625-1.6797 0.21093-2.4531 1.1172 0 0-1.1601 1.1656-1.2032 1.7188-0.043 0.55317 0.408 0.66616 0.7266 0.72657 1.6484 0.3125 2.6094 0.02392 3.7422-1.0469 0.1686-0.15938 0.3215-0.08709 0.4375 0.03906 1.8751 2.0391 2.8438 5.5391 2.547 8.2266-0.2829 2.561-3.7344 2.1406-4.0469-0.4426-0.1719-3.6043-2.2032-6.3699-6.0695-6.3699l-6.55-0.08429c-2.3493 0-5.1936 1.5927-5.5993 5.1624-0.8398 7.3901 6.1719 15.094 13.734 14.875 7.7921-0.2254 12.922-4.2501 12.922-13.031z" fill="url(#f)"/><path d="m29 16.936c0-3.9844-1.8906-7.5782-4.8203-10.344-0.1125-0.10615-0.314-0.35877-0.1484-0.67969 0.3828-0.74218 0.8307-1.326 0.4531-3.0625-0.0926-0.42562-0.1485-1.2344-0.9531-1.1562-0.8047 0.07813-1.586 1.2109-1.586 1.2109-0.5037 0.7048-0.6875 1.1562-0.6875 2.5156 0.0223 0.38106-0.0555 0.5798-0.4453 0.625-0.5391 0.0625-1.6797 0.21093-2.4531 1.1172 0 0-1.1601 1.1656-1.2032 1.7188-0.043 0.55317 0.408 0.66616 0.7266 0.72657 1.6484 0.3125 2.6094 0.02392 3.7422-1.0469 0.1686-0.15938 0.3215-0.08709 0.4375 0.03906 1.8751 2.0391 2.8438 5.5391 2.547 8.2266-0.2829 2.561-3.7344 2.1406-4.0469-0.4426-0.1719-3.6043-2.2032-6.3699-6.0695-6.3699l-6.55-0.08429c-2.3493 0-5.1936 1.5927-5.5993 5.1624-0.8398 7.3901 6.1719 15.094 13.734 14.875 7.7921-0.2254 12.922-4.2501 12.922-13.031z" fill="url(#e)"/><path d="m29 16.936c0-3.9844-1.8906-7.5782-4.8203-10.344-0.1125-0.10615-0.314-0.35877-0.1484-0.67969 0.3828-0.74218 0.8307-1.326 0.4531-3.0625-0.0926-0.42562-0.1485-1.2344-0.9531-1.1562-0.8047 0.07813-1.586 1.2109-1.586 1.2109-0.5037 0.7048-0.6875 1.1562-0.6875 2.5156 0.0223 0.38106-0.0555 0.5798-0.4453 0.625-0.5391 0.0625-1.6797 0.21093-2.4531 1.1172 0 0-1.1601 1.1656-1.2032 1.7188-0.043 0.55317 0.408 0.66616 0.7266 0.72657 1.6484 0.3125 2.6094 0.02392 3.7422-1.0469 0.1686-0.15938 0.3215-0.08709 0.4375 0.03906 1.8751 2.0391 2.8438 5.5391 2.547 8.2266-0.2829 2.561-3.7344 2.1406-4.0469-0.4426-0.1719-3.6043-2.2032-6.3699-6.0695-6.3699l-6.55-0.08429c-2.3493 0-5.1936 1.5927-5.5993 5.1624-0.8398 7.3901 6.1719 15.094 13.734 14.875 7.7921-0.2254 12.922-4.2501 12.922-13.031z" fill="url(#d)"/><path d="m29 16.936c0-3.9844-1.8906-7.5782-4.8203-10.344-0.1125-0.10615-0.314-0.35877-0.1484-0.67969 0.3828-0.74218 0.8307-1.326 0.4531-3.0625-0.0926-0.42562-0.1485-1.2344-0.9531-1.1562-0.8047 0.07813-1.586 1.2109-1.586 1.2109-0.5037 0.7048-0.6875 1.1562-0.6875 2.5156 0.0223 0.38106-0.0555 0.5798-0.4453 0.625-0.5391 0.0625-1.6797 0.21093-2.4531 1.1172 0 0-1.1601 1.1656-1.2032 1.7188-0.043 0.55317 0.408 0.66616 0.7266 0.72657 1.6484 0.3125 2.6094 0.02392 3.7422-1.0469 0.1686-0.15938 0.3215-0.08709 0.4375 0.03906 1.8751 2.0391 2.8438 5.5391 2.547 8.2266-0.2829 2.561-3.7344 2.1406-4.0469-0.4426-0.1719-3.6043-2.2032-6.3699-6.0695-6.3699l-6.55-0.08429c-2.3493 0-5.1936 1.5927-5.5993 5.1624-0.8398 7.3901 6.1719 15.094 13.734 14.875 7.7921-0.2254 12.922-4.2501 12.922-13.031z" fill="url(#c)"/><g filter="url(#ad)"><path d="m19.589 27.993c-2.9083-4.5442-2.2341-8.6799 1e-4 -11.709 0 0.9467 0.8053 3.4919 2.8022 3.4919 2.7208 0 5.2451-2.0685 5.5656-3.0544 0 9.4375-6.3125 10.875-8.3679 11.272z" fill="url(#b)"/></g><path d="m22.285 28.778c-5.2844-1.6033-5.3654-3.0504-5.6251-7.6881-0.0052-0.0923-0.0104-0.1858-0.0157-0.2806-0.1643-2.911-2.8126-4.7187-5.6251-4.7187-1.8593 0-8.1731-0.0095-8.7401-7e-4 -0.17896 7.0879 6.5577 14.143 13.799 13.934 2.3286-0.0674 4.4194-0.474 6.2067-1.2455z" fill="#7DD7FF"/><path d="m22.285 28.778c-5.2844-1.6033-5.3654-3.0504-5.6251-7.6881-0.0052-0.0923-0.0104-0.1858-0.0157-0.2806-0.1643-2.911-2.8126-4.7187-5.6251-4.7187-1.8593 0-8.1731-0.0095-8.7401-7e-4 -0.17896 7.0879 6.5577 14.143 13.799 13.934 2.3286-0.0674 4.4194-0.474 6.2067-1.2455z" fill="url(#a)"/><path d="m22.285 28.778c-5.2844-1.6033-5.3654-3.0504-5.6251-7.6881-0.0052-0.0923-0.0104-0.1858-0.0157-0.2806-0.1643-2.911-2.8126-4.7187-5.6251-4.7187-1.8593 0-8.1731-0.0095-8.7401-7e-4 -0.17896 7.0879 6.5577 14.143 13.799 13.934 2.3286-0.0674 4.4194-0.474 6.2067-1.2455z" fill="url(#x)"/><path d="m22.285 28.778c-5.2844-1.6033-5.3654-3.0504-5.6251-7.6881-0.0052-0.0923-0.0104-0.1858-0.0157-0.2806-0.1643-2.911-2.8126-4.7187-5.6251-4.7187-1.8593 0-8.1731-0.0095-8.7401-7e-4 -0.17896 7.0879 6.5577 14.143 13.799 13.934 2.3286-0.0674 4.4194-0.474 6.2067-1.2455z" fill="url(#w)"/><path d="m22.285 28.778c-5.2844-1.6033-5.3654-3.0504-5.6251-7.6881-0.0052-0.0923-0.0104-0.1858-0.0157-0.2806-0.1643-2.911-2.8126-4.7187-5.6251-4.7187-1.8593 0-8.1731-0.0095-8.7401-7e-4 -0.17896 7.0879 6.5577 14.143 13.799 13.934 2.3286-0.0674 4.4194-0.474 6.2067-1.2455z" fill="url(#v)"/><path d="m22.285 28.778c-5.2844-1.6033-5.3654-3.0504-5.6251-7.6881-0.0052-0.0923-0.0104-0.1858-0.0157-0.2806-0.1643-2.911-2.8126-4.7187-5.6251-4.7187-1.8593 0-8.1731-0.0095-8.7401-7e-4 -0.17896 7.0879 6.5577 14.143 13.799 13.934 2.3286-0.0674 4.4194-0.474 6.2067-1.2455z" fill="url(#u)"/><path d="m19.206 29.784c-1.1119-0.633-2.6563-1.9353-2.6563-6.1564 0-1.2656 0.5625-3.4843 1.1407-4.0155 0.2381-0.2188 1.0468-0.672 2.3906 0.703 1.075 1.1 0.9375 3.1459 0.8594 3.6564l-0.1094 5.1093c-0.1042 0.5625-0.4844 1.3525-1.625 0.7032z" fill="url(#t)"/><path d="m19.206 29.784c-1.1119-0.633-2.6563-1.9353-2.6563-6.1564 0-1.2656 0.5625-3.4843 1.1407-4.0155 0.2381-0.2188 1.0468-0.672 2.3906 0.703 1.075 1.1 0.9375 3.1459 0.8594 3.6564l-0.1094 5.1093c-0.1042 0.5625-0.4844 1.3525-1.625 0.7032z" fill="url(#s)"/><path d="m19.206 29.784c-1.1119-0.633-2.6563-1.9353-2.6563-6.1564 0-1.2656 0.5625-3.4843 1.1407-4.0155 0.2381-0.2188 1.0468-0.672 2.3906 0.703 1.075 1.1 0.9375 3.1459 0.8594 3.6564l-0.1094 5.1093c-0.1042 0.5625-0.4844 1.3525-1.625 0.7032z" fill="url(#r)"/><path d="m19.206 29.784c-1.1119-0.633-2.6563-1.9353-2.6563-6.1564 0-1.2656 0.5625-3.4843 1.1407-4.0155 0.2381-0.2188 1.0468-0.672 2.3906 0.703 1.075 1.1 0.9375 3.1459 0.8594 3.6564l-0.1094 5.1093c-0.1042 0.5625-0.4844 1.3525-1.625 0.7032z" fill="url(#q)"/><path d="m19.206 29.784c-1.1119-0.633-2.6563-1.9353-2.6563-6.1564 0-1.2656 0.5625-3.4843 1.1407-4.0155 0.2381-0.2188 1.0468-0.672 2.3906 0.703 1.075 1.1 0.9375 3.1459 0.8594 3.6564l-0.1094 5.1093c-0.1042 0.5625-0.4844 1.3525-1.625 0.7032z" fill="url(#p)"/><g filter="url(#ac)"><rect x="14.724" y="13.244" width=".99219" height="1.9609" rx=".49609" fill="#33A8FF"/></g><rect x="15.165" y="13.068" width=".99219" height="1.9609" rx=".49609" fill="url(#o)"/><rect x="15.165" y="13.068" width=".99219" height="1.9609" rx=".49609" fill="url(#m)"/><rect x="15.165" y="13.068" width=".99219" height="1.9609" rx=".49609" fill="url(#l)"/><g filter="url(#ab)"><path d="m23.175 6.896c1.0104 0.84375 2.9528 3.2386 3.9375 5.7187 0.8438 2.125 1.0625 5.3438-0.2187 8.9375" stroke="url(#k)" stroke-linecap="round" stroke-width=".75"/></g><g filter="url(#aa)"><path d="m22.05 3.8774c-0.525 1.175-0.1145 2.3854 0.1563 2.8438 0.5729-0.36458 1.5312-0.64062 1.9218-1.9688 0.229-0.77849-0.0086-1.769-0.2307-2.3092-0.0809-0.19661-0.2993-0.279-0.4842-0.17406-0.4005 0.22736-0.9659 0.71924-1.3632 1.6083z" fill="url(#j)"/></g><g filter="url(#z)"><path d="m23.769 2.2837c0.2656 0.55208 0.6 1.9719-0.1875 3.2344" stroke="url(#i)" stroke-linecap="round" stroke-width=".25"/></g><defs><filter id="ad" x="15.652" y="14.284" width="14.304" height="15.71" color-interpolation-filters="sRGB" filterUnits="userSpaceOnUse"><feFlood flood-opacity="0" result="BackgroundImageFix"/><feBlend in="SourceGraphic" in2="BackgroundImageFix" result="shape"/><feGaussianBlur result="effect1_foregroundBlur_28327_5847" stdDeviation="1"/></filter><filter id="ac" x="14.224" y="12.744" width="1.9922" height="2.9609" color-interpolation-filters="sRGB" filterUnits="userSpaceOnUse"><feFlood flood-opacity="0" result="BackgroundImageFix"/><feBlend in="SourceGraphic" in2="BackgroundImageFix" result="shape"/><feGaussianBlur result="effect1_foregroundBlur_28327_5847" stdDeviation="0.25"/></filter><filter id="ab" x="21.8" y="5.521" width="7.375" height="17.406" color-interpolation-filters="sRGB" filterUnits="userSpaceOnUse"><feFlood flood-opacity="0" result="BackgroundImageFix"/><feBlend in="SourceGraphic" in2="BackgroundImageFix" result="shape"/><feGaussianBlur result="effect1_foregroundBlur_28327_5847" stdDeviation="0.5"/></filter><filter id="aa" x="20.797" y="1.2234" width="4.4249" height="6.4978" color-interpolation-filters="sRGB" filterUnits="userSpaceOnUse"><feFlood flood-opacity="0" result="BackgroundImageFix"/><feBlend in="SourceGraphic" in2="BackgroundImageFix" result="shape"/><feGaussianBlur result="effect1_foregroundBlur_28327_5847" stdDeviation="0.5"/></filter><filter id="z" x="23.056" y="1.7587" width="1.5406" height="4.2844" color-interpolation-filters="sRGB" filterUnits="userSpaceOnUse"><feFlood flood-opacity="0" result="BackgroundImageFix"/><feBlend in="SourceGraphic" in2="BackgroundImageFix" result="shape"/><feGaussianBlur result="effect1_foregroundBlur_28327_5847" stdDeviation="0.2"/></filter><linearGradient id="y" x1="9.9565" x2="5.519" y1="28.096" y2="28.096" gradientUnits="userSpaceOnUse"><stop stop-color="#296DFD" offset=".081794"/><stop stop-color="#3F8BFF" offset="1"/></linearGradient><radialGradient id="n" cx="0" cy="0" r="1" gradientTransform="translate(8.4565 26.69) rotate(154.86) scale(3.0895 4.7845)" gradientUnits="userSpaceOnUse"><stop stop-color="#7BABFF" stop-opacity="0" offset=".86695"/><stop stop-color="#7BABFF" offset="1"/></radialGradient><radialGradient id="h" cx="0" cy="0" r="1" gradientTransform="translate(17.644 14.221) rotate(96.026) scale(11.312 10.973)" gradientUnits="userSpaceOnUse"><stop stop-color="#6BDCFF" offset="0"/><stop stop-color="#3C99EF" offset="1"/></radialGradient><radialGradient id="g" cx="0" cy="0" r="1" gradientTransform="translate(2.644 12.346) rotate(36.986) scale(5.79 7.4118)" gradientUnits="userSpaceOnUse"><stop stop-color="#7CBCE7" offset="0"/><stop stop-color="#7CBCE7" stop-opacity="0" offset="1"/></radialGradient><radialGradient id="f" cx="0" cy="0" r="1" gradientTransform="translate(5.144 17.659) rotate(-50.807) scale(5.2418 3.7187)" gradientUnits="userSpaceOnUse"><stop stop-color="#3B9AF0" offset="0"/><stop stop-color="#3B9AF0" stop-opacity="0" offset="1"/></radialGradient><radialGradient id="e" cx="0" cy="0" r="1" gradientTransform="translate(12.394 5.1588) rotate(62.053) scale(26.072 24.635)" gradientUnits="userSpaceOnUse"><stop stop-color="#7C88FF" stop-opacity="0" offset=".89989"/><stop stop-color="#7C88FF" offset="1"/></radialGradient><linearGradient id="d" x1="1.0502" x2="3.1908" y1="14.409" y2="14.409" gradientUnits="userSpaceOnUse"><stop stop-color="#ADDBFD" offset="0"/><stop stop-color="#ADDBFD" stop-opacity="0" offset="1"/></linearGradient><radialGradient id="c" cx="0" cy="0" r="1" gradientTransform="translate(24.706 1.688) rotate(103.12) scale(5.2323 4.944)" gradientUnits="userSpaceOnUse"><stop stop-color="#4BBFF9" offset="0"/><stop stop-color="#4BBFF9" stop-opacity="0" offset="1"/></radialGradient><linearGradient id="b" x1="18.3" x2="29.113" y1="18.659" y2="21.846" gradientUnits="userSpaceOnUse"><stop stop-color="#63D2FF" offset="0"/><stop stop-color="#63D2FF" stop-opacity="0" offset="1"/></linearGradient><radialGradient id="a" cx="0" cy="0" r="1" gradientTransform="translate(6.8315 25.034) scale(6 11.664)" gradientUnits="userSpaceOnUse"><stop stop-color="#6DACFF" offset="0"/><stop stop-color="#6DACFF" stop-opacity="0" offset="1"/></radialGradient><radialGradient id="x" cx="0" cy="0" r="1" gradientTransform="translate(17.326 14.474) rotate(89.979) scale(16.06 22.792)" gradientUnits="userSpaceOnUse"><stop stop-color="#CA99FF" stop-opacity="0" offset=".66151"/><stop stop-color="#CA99FF" offset="1"/></radialGradient><radialGradient id="w" cx="0" cy="0" r="1" gradientTransform="translate(17.326 14.474) rotate(87.907) scale(15.564 22.088)" gradientUnits="userSpaceOnUse"><stop stop-color="#D09BFF" stop-opacity="0" offset=".91043"/><stop stop-color="#D09BFF" offset="1"/></radialGradient><radialGradient id="v" cx="0" cy="0" r="1" gradientTransform="translate(17.394 23.057) rotate(195.74) scale(10.454 4.9857)" gradientUnits="userSpaceOnUse"><stop stop-color="#B0D8FF" offset="0"/><stop stop-color="#B0D8FF" stop-opacity="0" offset="1"/></radialGradient><radialGradient id="u" cx="0" cy="0" r="1" gradientTransform="translate(11.832 21.284) rotate(132.98) scale(7.5177 17.035)" gradientUnits="userSpaceOnUse"><stop stop-color="#B0CFFF" stop-opacity="0" offset=".81877"/><stop stop-color="#B0CFFF" offset="1"/></radialGradient><linearGradient id="t" x1="20.332" x2="20.332" y1="20.315" y2="29.096" gradientUnits="userSpaceOnUse"><stop stop-color="#5DC8FC" offset="0"/><stop stop-color="#4D99FF" offset="1"/></linearGradient><linearGradient id="s" x1="21.238" x2="20.175" y1="25.002" y2="25.002" gradientUnits="userSpaceOnUse"><stop stop-color="#65C9FF" offset="0"/><stop stop-color="#65C9FF" stop-opacity="0" offset="1"/></linearGradient><radialGradient id="r" cx="0" cy="0" r="1" gradientTransform="translate(20.613 25.127) rotate(167.94) scale(4.1862 9.4331)" gradientUnits="userSpaceOnUse"><stop stop-color="#3782FF" stop-opacity="0" offset=".68192"/><stop stop-color="#3782FF" offset="1"/></radialGradient><radialGradient id="q" cx="0" cy="0" r="1" gradientTransform="translate(19.332 30.534) rotate(-88.877) scale(1.5941 3.592)" gradientUnits="userSpaceOnUse"><stop stop-color="#3782FF" offset=".0014574"/><stop stop-color="#3782FF" stop-opacity="0" offset="1"/></radialGradient><radialGradient id="p" cx="0" cy="0" r="1" gradientTransform="translate(17.082 19.362) rotate(76.3) scale(5.8057 2.2311)" gradientUnits="userSpaceOnUse"><stop stop-color="#53BBF8" offset="0"/><stop stop-color="#53BBF8" stop-opacity="0" offset="1"/></radialGradient><linearGradient id="o" x1="16.157" x2="15.583" y1="13.926" y2="13.926" gradientUnits="userSpaceOnUse"><stop stop-color="#594C4F" offset=".225"/><stop stop-color="#392833" offset="1"/></linearGradient><linearGradient id="m" x1="16.312" x2="16.312" y1="14.937" y2="14.003" gradientUnits="userSpaceOnUse"><stop stop-color="#492847" offset="0"/><stop stop-color="#552D52" stop-opacity="0" offset="1"/></linearGradient><radialGradient id="l" cx="0" cy="0" r="1" gradientTransform="translate(15.768 14.203) rotate(255.05) scale(1.1485 1.2458)" gradientUnits="userSpaceOnUse"><stop stop-color="#594C4F" stop-opacity="0" offset=".81395"/><stop stop-color="#594C4F" offset="1"/></radialGradient><linearGradient id="k" x1="25.161" x2="26.891" y1="6.8142" y2="25.277" gradientUnits="userSpaceOnUse"><stop stop-color="#6AD3FF" offset="0"/><stop stop-color="#6AD3FF" stop-opacity="0" offset="1"/></linearGradient><linearGradient id="j" x1="24.222" x2="20.394" y1="-1.3413" y2="9.8774" gradientUnits="userSpaceOnUse"><stop stop-color="#53BEFF" offset="0"/><stop stop-color="#53BEFF" stop-opacity="0" offset="1"/></linearGradient><linearGradient id="i" x1="23.827" x2="23.827" y1="2.2837" y2="5.5181" gradientUnits="userSpaceOnUse"><stop stop-color="#6CCFFF" offset="0"/><stop stop-color="#6CCFFF" stop-opacity="0" offset="1"/></linearGradient></defs></svg>
