<svg fill="none" viewBox="0 0 32 32" xmlns="http://www.w3.org/2000/svg"><circle cx="11.306" cy="4.5" r="2.5" fill="#DE904C"/><circle cx="11.306" cy="4.5" r="2.5" fill="url(#as)"/><circle cx="11.306" cy="4.5" r="2.5" fill="url(#ah)"/><circle cx="11.306" cy="4.5" r="2.5" fill="url(#w)"/><circle cx="20.712" cy="4.5" r="2.5" fill="#D68640"/><circle cx="20.712" cy="4.5" r="2.5" fill="url(#l)"/><circle cx="20.712" cy="4.5" r="2.5" fill="url(#f)"/><g filter="url(#bc)"><circle cx="20.767" cy="4.5" r="2.1258" stroke="url(#e)" stroke-width=".3"/></g><circle cx="11.306" cy="4.5703" r="1.618" fill="url(#d)"/><circle cx="20.712" cy="4.5703" r="1.618" fill="#F9BF76"/><circle cx="20.712" cy="4.5703" r="1.618" fill="url(#c)"/><g filter="url(#bb)"><rect transform="rotate(31.389 19.087 12.797)" x="19.087" y="12.797" width="14" height="6" rx="3" fill="#DE773D"/><rect transform="rotate(31.389 19.087 12.797)" x="19.087" y="12.797" width="14" height="6" rx="3" fill="url(#b)"/><rect transform="rotate(31.389 19.087 12.797)" x="19.087" y="12.797" width="14" height="6" rx="3" fill="url(#a)"/><rect transform="rotate(31.389 19.087 12.797)" x="19.087" y="12.797" width="14" height="6" rx="3" fill="url(#ar)"/><rect transform="rotate(31.389 19.087 12.797)" x="19.087" y="12.797" width="14" height="6" rx="3" fill="url(#aq)"/></g><g filter="url(#ba)"><rect transform="rotate(-30 .96191 19.906)" x=".96191" y="19.906" width="14" height="6" rx="3" fill="#D77940"/><rect transform="rotate(-30 .96191 19.906)" x=".96191" y="19.906" width="14" height="6" rx="3" fill="url(#ap)"/><rect transform="rotate(-30 .96191 19.906)" x=".96191" y="19.906" width="14" height="6" rx="3" fill="url(#ao)"/><rect transform="rotate(-30 .96191 19.906)" x=".96191" y="19.906" width="14" height="6" rx="3" fill="url(#an)"/><rect transform="rotate(-30 .96191 19.906)" x=".96191" y="19.906" width="14" height="6" rx="3" fill="url(#am)"/></g><g filter="url(#az)"><path d="m21.406 16.343 6.4376 3.9375" stroke="#FA9C66" stroke-linecap="round"/></g><circle cx="15.962" cy="20.797" r="8" fill="url(#al)"/><circle cx="15.962" cy="20.797" r="8" fill="url(#ak)"/><circle cx="15.962" cy="20.797" r="8" fill="url(#aj)"/><circle cx="15.962" cy="20.797" r="8" fill="url(#ai)"/><circle cx="15.962" cy="20.797" r="8" fill="url(#ag)"/><circle cx="15.962" cy="20.797" r="8" fill="url(#af)"/><circle cx="15.962" cy="20.797" r="8" fill="url(#ae)"/><circle cx="15.962" cy="20.797" r="8" fill="url(#ad)"/><circle cx="15.962" cy="20.797" r="8" fill="url(#ac)"/><circle cx="15.962" cy="21.797" r="5" fill="url(#ab)"/><circle cx="15.962" cy="21.797" r="5" fill="url(#aa)"/><circle cx="15.962" cy="21.797" r="5" fill="url(#z)"/><circle cx="15.962" cy="21.797" r="5" fill="url(#y)"/><g filter="url(#ay)"><path d="m23.851 10.166c0 4.4676-3.5322 5.9844-7.8894 5.9844-4.3571 0-7.8893-1.5168-7.8893-5.9844 0-4.4676 4.0222-7.6664 7.8893-7.6664 3.9859 0 7.8894 3.1988 7.8894 7.6664z" fill="url(#x)"/><path d="m23.851 10.166c0 4.4676-3.5322 5.9844-7.8894 5.9844-4.3571 0-7.8893-1.5168-7.8893-5.9844 0-4.4676 4.0222-7.6664 7.8893-7.6664 3.9859 0 7.8894 3.1988 7.8894 7.6664z" fill="url(#v)"/><path d="m23.851 10.166c0 4.4676-3.5322 5.9844-7.8894 5.9844-4.3571 0-7.8893-1.5168-7.8893-5.9844 0-4.4676 4.0222-7.6664 7.8893-7.6664 3.9859 0 7.8894 3.1988 7.8894 7.6664z" fill="url(#u)"/><path d="m23.851 10.166c0 4.4676-3.5322 5.9844-7.8894 5.9844-4.3571 0-7.8893-1.5168-7.8893-5.9844 0-4.4676 4.0222-7.6664 7.8893-7.6664 3.9859 0 7.8894 3.1988 7.8894 7.6664z" fill="url(#t)"/></g><circle cx="13.462" cy="8.4219" r=".5" fill="url(#s)"/><circle cx="18.462" cy="8.4219" r=".5" fill="url(#r)"/><g filter="url(#ax)"><path d="m15.962 9.1085c-0.4727 0-1.5059 1e-5 -2.515 0.65625-0.8505 0.55313-0.9291 1.875-0.4004 3.0156 0.5286 1.1406 1.4257 1.8594 2.9154 1.8594 1.4898 0 2.3869-0.7188 2.9155-1.8594s0.4501-2.4625-0.4005-3.0156c-1.0091-0.65624-2.0423-0.65625-2.515-0.65625z" fill="url(#q)"/><path d="m15.962 9.1085c-0.4727 0-1.5059 1e-5 -2.515 0.65625-0.8505 0.55313-0.9291 1.875-0.4004 3.0156 0.5286 1.1406 1.4257 1.8594 2.9154 1.8594 1.4898 0 2.3869-0.7188 2.9155-1.8594s0.4501-2.4625-0.4005-3.0156c-1.0091-0.65624-2.0423-0.65625-2.515-0.65625z" fill="url(#p)"/></g><g filter="url(#aw)"><rect transform="matrix(-.87261 .48842 .48842 .87261 9.895 20.308)" width="7" height="8.5" rx="3.5" fill="url(#o)"/><rect transform="matrix(-.87261 .48842 .48842 .87261 9.895 20.308)" width="7" height="8.5" rx="3.5" fill="url(#n)"/></g><g filter="url(#av)"><rect transform="rotate(29.237 22.032 20.308)" x="22.032" y="20.308" width="7" height="8.5" rx="3.5" fill="url(#m)"/></g><rect transform="rotate(29.237 22.032 20.308)" x="22.032" y="20.308" width="7" height="8.5" rx="3.5" fill="url(#k)"/><rect transform="matrix(-.87261 .48842 .48842 .87261 9.3455 22.371)" width="4" height="5.5" rx="2" fill="url(#j)"/><rect transform="rotate(29.237 22.581 22.371)" x="22.581" y="22.371" width="4" height="5.5" rx="2" fill="url(#i)"/><g filter="url(#au)"><path d="m14.836 10.124c-0.2935 0-0.4985 0.2727-0.3463 0.5237 0.1706 0.2816 0.4424 0.5978 0.8465 0.8263 0.1144 0.0647 0.2546 0.0647 0.369 0 0.404-0.2285 0.6758-0.5447 0.8465-0.8263 0.1521-0.251-0.0528-0.5237-0.3463-0.5237h-1.3694z" fill="#D18A74"/></g><path d="m15.213 9.8195c-0.3208 0-0.5449 0.29814-0.3785 0.57254 0.1865 0.3078 0.4836 0.6535 0.9254 0.9033 0.1251 0.0707 0.2783 0.0707 0.4034 0 0.4418-0.2498 0.7389-0.5955 0.9255-0.9033 0.1663-0.2744-0.0578-0.57254-0.3786-0.57254h-1.4972z" fill="url(#h)"/><path d="m15.213 9.8195c-0.3208 0-0.5449 0.29814-0.3785 0.57254 0.1865 0.3078 0.4836 0.6535 0.9254 0.9033 0.1251 0.0707 0.2783 0.0707 0.4034 0 0.4418-0.2498 0.7389-0.5955 0.9255-0.9033 0.1663-0.2744-0.0578-0.57254-0.3786-0.57254h-1.4972z" fill="url(#g)"/><g filter="url(#at)"><path d="m9.608 22.557c0.1837 0.0842 0.6429 0.3628 1.0103 0.8037s0.9797 1.5308 1.2399 2.0206" stroke="#FA9E75" stroke-linecap="round" stroke-width=".5"/></g><defs><filter id="bc" x="18.191" y="1.9242" width="5.1517" height="5.1517" color-interpolation-filters="sRGB" filterUnits="userSpaceOnUse"><feFlood flood-opacity="0" result="BackgroundImageFix"/><feBlend in="SourceGraphic" in2="BackgroundImageFix" result="shape"/><feGaussianBlur result="effect1_foregroundBlur_18_3767" stdDeviation="0.15"/></filter><filter id="bb" x="17.085" y="13.77" width="12.98" height="10.318" color-interpolation-filters="sRGB" filterUnits="userSpaceOnUse"><feFlood flood-opacity="0" result="BackgroundImageFix"/><feBlend in="SourceGraphic" in2="BackgroundImageFix" result="shape"/><feColorMatrix in="SourceAlpha" result="hardAlpha" values="0 0 0 0 0 0 0 0 0 0 0 0 0 0 0 0 0 0 127 0"/><feOffset dx="0.15" dy="-0.15"/><feGaussianBlur stdDeviation="0.5"/><feComposite in2="hardAlpha" k2="-1" k3="1" operator="arithmetic"/><feColorMatrix values="0 0 0 0 0.580392 0 0 0 0 0.25098 0 0 0 0 0.309804 0 0 0 1 0"/><feBlend in2="shape" result="effect1_innerShadow_18_3767"/></filter><filter id="ba" x="1.5595" y="13.503" width="13.429" height="10.501" color-interpolation-filters="sRGB" filterUnits="userSpaceOnUse"><feFlood flood-opacity="0" result="BackgroundImageFix"/><feBlend in="SourceGraphic" in2="BackgroundImageFix" result="shape"/><feColorMatrix in="SourceAlpha" result="hardAlpha" values="0 0 0 0 0 0 0 0 0 0 0 0 0 0 0 0 0 0 127 0"/><feOffset dx="-0.5" dy="-0.5"/><feGaussianBlur stdDeviation="0.5"/><feComposite in2="hardAlpha" k2="-1" k3="1" operator="arithmetic"/><feColorMatrix values="0 0 0 0 0.709804 0 0 0 0 0.341176 0 0 0 0 0.278431 0 0 0 1 0"/><feBlend in2="shape" result="effect1_innerShadow_18_3767"/></filter><filter id="az" x="18.906" y="13.843" width="11.438" height="8.9376" color-interpolation-filters="sRGB" filterUnits="userSpaceOnUse"><feFlood flood-opacity="0" result="BackgroundImageFix"/><feBlend in="SourceGraphic" in2="BackgroundImageFix" result="shape"/><feGaussianBlur result="effect1_foregroundBlur_18_3767" stdDeviation="1"/></filter><filter id="ay" x="8.0726" y="2.5" width="16.279" height="13.901" color-interpolation-filters="sRGB" filterUnits="userSpaceOnUse"><feFlood flood-opacity="0" result="BackgroundImageFix"/><feBlend in="SourceGraphic" in2="BackgroundImageFix" result="shape"/><feColorMatrix in="SourceAlpha" result="hardAlpha" values="0 0 0 0 0 0 0 0 0 0 0 0 0 0 0 0 0 0 127 0"/><feOffset dx="0.5" dy="0.25"/><feGaussianBlur stdDeviation="0.75"/><feComposite in2="hardAlpha" k2="-1" k3="1" operator="arithmetic"/><feColorMatrix values="0 0 0 0 0.741176 0 0 0 0 0.498039 0 0 0 0 0.266667 0 0 0 1 0"/><feBlend in2="shape" result="effect1_innerShadow_18_3767"/></filter><filter id="ax" x="12.714" y="9.1085" width="6.5962" height="5.6312" color-interpolation-filters="sRGB" filterUnits="userSpaceOnUse"><feFlood flood-opacity="0" result="BackgroundImageFix"/><feBlend in="SourceGraphic" in2="BackgroundImageFix" result="shape"/><feColorMatrix in="SourceAlpha" result="hardAlpha" values="0 0 0 0 0 0 0 0 0 0 0 0 0 0 0 0 0 0 127 0"/><feOffset dx="0.1" dy="0.1"/><feGaussianBlur stdDeviation="0.2"/><feComposite in2="hardAlpha" k2="-1" k3="1" operator="arithmetic"/><feColorMatrix values="0 0 0 0 0.823529 0 0 0 0 0.568627 0 0 0 0 0.384314 0 0 0 1 0"/><feBlend in2="shape" result="effect1_innerShadow_18_3767"/></filter><filter id="aw" x="4.8996" y="21.271" width="8.0339" height="8.9102" color-interpolation-filters="sRGB" filterUnits="userSpaceOnUse"><feFlood flood-opacity="0" result="BackgroundImageFix"/><feBlend in="SourceGraphic" in2="BackgroundImageFix" result="shape"/><feColorMatrix in="SourceAlpha" result="hardAlpha" values="0 0 0 0 0 0 0 0 0 0 0 0 0 0 0 0 0 0 127 0"/><feOffset dx="0.15" dy="0.3"/><feGaussianBlur stdDeviation="0.3"/><feComposite in2="hardAlpha" k2="-1" k3="1" operator="arithmetic"/><feColorMatrix values="0 0 0 0 0.807843 0 0 0 0 0.407843 0 0 0 0 0.231373 0 0 0 1 0"/><feBlend in2="shape" result="effect1_innerShadow_18_3767"/><feColorMatrix in="SourceAlpha" result="hardAlpha" values="0 0 0 0 0 0 0 0 0 0 0 0 0 0 0 0 0 0 127 0"/><feOffset dx="-0.15" dy="-0.3"/><feGaussianBlur stdDeviation="0.3"/><feComposite in2="hardAlpha" k2="-1" k3="1" operator="arithmetic"/><feColorMatrix values="0 0 0 0 0.72549 0 0 0 0 0.4 0 0 0 0 0.341176 0 0 0 1 0"/><feBlend in2="effect1_innerShadow_18_3767" result="effect2_innerShadow_18_3767"/></filter><filter id="av" x="18.993" y="21.271" width="8.0339" height="8.9102" color-interpolation-filters="sRGB" filterUnits="userSpaceOnUse"><feFlood flood-opacity="0" result="BackgroundImageFix"/><feBlend in="SourceGraphic" in2="BackgroundImageFix" result="shape"/><feColorMatrix in="SourceAlpha" result="hardAlpha" values="0 0 0 0 0 0 0 0 0 0 0 0 0 0 0 0 0 0 127 0"/><feOffset dx="-0.15" dy="-0.3"/><feGaussianBlur stdDeviation="0.3"/><feComposite in2="hardAlpha" k2="-1" k3="1" operator="arithmetic"/><feColorMatrix values="0 0 0 0 0.682353 0 0 0 0 0.356863 0 0 0 0 0.32549 0 0 0 1 0"/><feBlend in2="shape" result="effect1_innerShadow_18_3767"/><feColorMatrix in="SourceAlpha" result="hardAlpha" values="0 0 0 0 0 0 0 0 0 0 0 0 0 0 0 0 0 0 127 0"/><feOffset dx="0.15" dy="0.3"/><feGaussianBlur stdDeviation="0.3"/><feComposite in2="hardAlpha" k2="-1" k3="1" operator="arithmetic"/><feColorMatrix values="0 0 0 0 0.815686 0 0 0 0 0.384314 0 0 0 0 0.176471 0 0 0 1 0"/><feBlend in2="effect1_innerShadow_18_3767" result="effect2_innerShadow_18_3767"/></filter><filter id="au" x="13.938" y="9.6242" width="3.1652" height="2.3984" color-interpolation-filters="sRGB" filterUnits="userSpaceOnUse"><feFlood flood-opacity="0" result="BackgroundImageFix"/><feBlend in="SourceGraphic" in2="BackgroundImageFix" result="shape"/><feGaussianBlur result="effect1_foregroundBlur_18_3767" stdDeviation="0.25"/></filter><filter id="at" x="8.6079" y="21.557" width="4.2504" height="4.8244" color-interpolation-filters="sRGB" filterUnits="userSpaceOnUse"><feFlood flood-opacity="0" result="BackgroundImageFix"/><feBlend in="SourceGraphic" in2="BackgroundImageFix" result="shape"/><feGaussianBlur result="effect1_foregroundBlur_18_3767" stdDeviation="0.375"/></filter><radialGradient id="as" cx="0" cy="0" r="1" gradientTransform="translate(13.5 3.1866) rotate(220.16) scale(2.6168 .78626)" gradientUnits="userSpaceOnUse"><stop stop-color="#F4A161" offset="0"/><stop stop-color="#F4A161" stop-opacity="0" offset="1"/></radialGradient><radialGradient id="ah" cx="0" cy="0" r="1" gradientTransform="translate(11.306 4.5) rotate(99.562) scale(2.1224)" gradientUnits="userSpaceOnUse"><stop stop-color="#CE7032" offset=".71309"/><stop stop-color="#CE7032" stop-opacity="0" offset="1"/></radialGradient><radialGradient id="w" cx="0" cy="0" r="1" gradientTransform="translate(11.306 4.5) rotate(225) scale(2.6474 3.2537)" gradientUnits="userSpaceOnUse"><stop stop-color="#C17B3B" stop-opacity="0" offset=".84141"/><stop stop-color="#C17B3B" offset=".97913"/></radialGradient><radialGradient id="l" cx="0" cy="0" r="1" gradientTransform="translate(21.062 4.5) rotate(99.51) scale(2.1221)" gradientUnits="userSpaceOnUse"><stop stop-color="#DC692A" offset=".65915"/><stop stop-color="#DC692A" stop-opacity="0" offset="1"/></radialGradient><radialGradient id="f" cx="0" cy="0" r="1" gradientTransform="translate(21.383 4.5851) rotate(216.62) scale(3.1828 2.6152)" gradientUnits="userSpaceOnUse"><stop stop-color="#B56E32" stop-opacity="0" offset=".82806"/><stop stop-color="#B56E32" offset=".92398"/></radialGradient><linearGradient id="e" x1="22.892" x2="22.164" y1="3.5929" y2="3.9679" gradientUnits="userSpaceOnUse"><stop stop-color="#FFAF7E" offset="0"/><stop stop-color="#FFAF7E" stop-opacity="0" offset="1"/></linearGradient><radialGradient id="d" cx="0" cy="0" r="1" gradientTransform="translate(10.375 3.4835) rotate(49.548) scale(1.9507 3.6056)" gradientUnits="userSpaceOnUse"><stop stop-color="#FECC85" offset="0"/><stop stop-color="#DCA86A" offset="1"/></radialGradient><radialGradient id="c" cx="0" cy="0" r="1" gradientTransform="translate(20.141 4.2804) rotate(6.9146) scale(2.4081)" gradientUnits="userSpaceOnUse"><stop stop-color="#E8A869" stop-opacity="0" offset=".61759"/><stop stop-color="#E8A869" offset=".90646"/></radialGradient><radialGradient id="b" cx="0" cy="0" r="1" gradientTransform="translate(28.591 19.901) rotate(-84.378) scale(5.0875 7.138)" gradientUnits="userSpaceOnUse"><stop stop-color="#983C50" offset=".17529"/><stop stop-color="#983C50" stop-opacity="0" offset="1"/></radialGradient><linearGradient id="a" x1="26.099" x2="25.903" y1="12.636" y2="14.476" gradientUnits="userSpaceOnUse"><stop stop-color="#EB9251" offset="0"/><stop stop-color="#EB9251" stop-opacity="0" offset="1"/></linearGradient><radialGradient id="ar" cx="0" cy="0" r="1" gradientTransform="translate(31.6 13.673) rotate(95.481) scale(2.5 1.6469)" gradientUnits="userSpaceOnUse"><stop stop-color="#FFB075" offset="0"/><stop stop-color="#FFB075" stop-opacity="0" offset="1"/></radialGradient><radialGradient id="aq" cx="0" cy="0" r="1" gradientTransform="translate(23.912 17.631) rotate(-45.988) scale(3.4715 4.6882)" gradientUnits="userSpaceOnUse"><stop stop-color="#FFAA6F" offset=".84565"/><stop stop-color="#FFAA6F" stop-opacity="0" offset="1"/></radialGradient><linearGradient id="ap" x1="7.9654" x2="7.9319" y1="19.198" y2="21.542" gradientUnits="userSpaceOnUse"><stop stop-color="#A2643B" offset=".20256"/><stop stop-color="#A2643B" stop-opacity="0" offset="1"/></linearGradient><radialGradient id="ao" cx="0" cy="0" r="1" gradientTransform="translate(7.4934 25.278) rotate(153.86) scale(5.056 3.6258)" gradientUnits="userSpaceOnUse"><stop stop-color="#BB5124" offset=".15499"/><stop stop-color="#BB5124" stop-opacity="0" offset="1"/></radialGradient><radialGradient id="an" cx="0" cy="0" r="1" gradientTransform="translate(2.5756 22.316) rotate(28.152) scale(1.6484 1.5745)" gradientUnits="userSpaceOnUse"><stop stop-color="#E38B4D" offset="0"/><stop stop-color="#E38B4D" stop-opacity="0" offset="1"/></radialGradient><radialGradient id="am" cx="0" cy="0" r="1" gradientTransform="translate(8.707 24.398) rotate(219.05) scale(2.1123 4.1994)" gradientUnits="userSpaceOnUse"><stop stop-color="#D77C46" offset=".92332"/><stop stop-color="#D77C46" stop-opacity="0" offset="1"/></radialGradient><linearGradient id="al" x1="18.074" x2="18.074" y1="27.723" y2="15.074" gradientUnits="userSpaceOnUse"><stop stop-color="#CA6645" offset="0"/><stop stop-color="#D57E40" offset="1"/></linearGradient><radialGradient id="ak" cx="0" cy="0" r="1" gradientTransform="translate(22.857 16.509) rotate(128.52) scale(9.9852 6.5074)" gradientUnits="userSpaceOnUse"><stop stop-color="#FFA66F" offset="0"/><stop stop-color="#FFA66F" stop-opacity="0" offset="1"/></radialGradient><radialGradient id="aj" cx="0" cy="0" r="1" gradientTransform="translate(15.962 14.17) rotate(90) scale(3.8798 6.8702)" gradientUnits="userSpaceOnUse"><stop stop-color="#B54322" offset=".46575"/><stop stop-color="#B54322" stop-opacity="0" offset="1"/></radialGradient><radialGradient id="ai" cx="0" cy="0" r="1" gradientTransform="translate(16.479 22.036) rotate(234.5) scale(10.707 11.782)" gradientUnits="userSpaceOnUse"><stop stop-color="#A3633D" stop-opacity="0" offset=".7149"/><stop stop-color="#A3633D" offset=".92372"/></radialGradient><radialGradient id="ag" cx="0" cy="0" r="1" gradientTransform="translate(8.4008 22.727) rotate(-8.1301) scale(2.6307 6.7646)" gradientUnits="userSpaceOnUse"><stop stop-color="#C7733E" offset="0"/><stop stop-color="#C7733E" stop-opacity="0" offset="1"/></radialGradient><radialGradient id="af" cx="0" cy="0" r="1" gradientTransform="translate(11.829 27.085) rotate(55.438) scale(2.9042 2.2721)" gradientUnits="userSpaceOnUse"><stop stop-color="#A03434" offset=".25494"/><stop stop-color="#A03434" stop-opacity="0" offset="1"/></radialGradient><radialGradient id="ae" cx="0" cy="0" r="1" gradientTransform="translate(20.465 26.82) rotate(136.5) scale(3.5902 2.0702)" gradientUnits="userSpaceOnUse"><stop stop-color="#A14750" offset=".31715"/><stop stop-color="#A14750" stop-opacity="0" offset="1"/></radialGradient><radialGradient id="ad" cx="0" cy="0" r="1" gradientTransform="translate(15.962 17.306) rotate(90) scale(11.491)" gradientUnits="userSpaceOnUse"><stop stop-color="#AC4F52" stop-opacity="0" offset=".83908"/><stop stop-color="#AC4F52" offset="1"/></radialGradient><radialGradient id="ac" cx="0" cy="0" r="1" gradientTransform="translate(21.953 23.631) rotate(-63.184) scale(2.7096 1.9504)" gradientUnits="userSpaceOnUse"><stop stop-color="#DC6A27" offset=".53876"/><stop stop-color="#DC6A27" stop-opacity="0" offset="1"/></radialGradient><linearGradient id="ab" x1="15.962" x2="15.962" y1="16.509" y2="24.694" gradientUnits="userSpaceOnUse"><stop stop-color="#E6A04E" offset="0"/><stop stop-color="#FFC286" offset="1"/></linearGradient><radialGradient id="aa" cx="0" cy="0" r="1" gradientTransform="translate(15.962 18.847) rotate(90) scale(8.5568)" gradientUnits="userSpaceOnUse"><stop stop-color="#E2A48D" stop-opacity="0" offset=".58834"/><stop stop-color="#E2A48D" offset="1"/></radialGradient><radialGradient id="z" cx="0" cy="0" r="1" gradientTransform="translate(21.741 18.794) rotate(151.5) scale(4.2332)" gradientUnits="userSpaceOnUse"><stop stop-color="#FFD992" offset="0"/><stop stop-color="#FFD992" stop-opacity="0" offset="1"/></radialGradient><radialGradient id="y" cx="0" cy="0" r="1" gradientTransform="translate(10.5 24.8) rotate(-28.217) scale(2.4729 4.2087)" gradientUnits="userSpaceOnUse"><stop stop-color="#BC8A66" offset=".54595"/><stop stop-color="#BC8A66" stop-opacity="0" offset="1"/></radialGradient><linearGradient id="x" x1="15.962" x2="15.962" y1="3.8892" y2="16.151" gradientUnits="userSpaceOnUse"><stop stop-color="#EC9D55" offset="0"/><stop stop-color="#DE7944" offset="1"/></linearGradient><radialGradient id="v" cx="0" cy="0" r="1" gradientTransform="translate(20.836 7.6549) rotate(118.97) scale(6.3518 7.5564)" gradientUnits="userSpaceOnUse"><stop stop-color="#FFBE88" offset="0"/><stop stop-color="#FFBE88" stop-opacity="0" offset="1"/></radialGradient><radialGradient id="u" cx="0" cy="0" r="1" gradientTransform="translate(15.463 5.4965) rotate(81.87) scale(12.015 13.888)" gradientUnits="userSpaceOnUse"><stop stop-color="#BA5137" stop-opacity="0" offset=".65987"/><stop stop-color="#BA5137" offset="1"/></radialGradient><radialGradient id="t" cx="0" cy="0" r="1" gradientTransform="translate(15.192 13.026) rotate(112.62) scale(4.3468 3.6137)" gradientUnits="userSpaceOnUse"><stop stop-color="#CE6D54" offset=".34541"/><stop stop-color="#CE6D54" stop-opacity="0" offset="1"/></radialGradient><radialGradient id="s" cx="0" cy="0" r="1" gradientTransform="translate(13.962 8.1716) rotate(142.75) scale(.79662)" gradientUnits="userSpaceOnUse"><stop stop-color="#635556" offset="0"/><stop stop-color="#452B30" offset="1"/></radialGradient><radialGradient id="r" cx="0" cy="0" r="1" gradientTransform="translate(18.885 8.183) rotate(142.56) scale(.4627)" gradientUnits="userSpaceOnUse"><stop stop-color="#635556" offset="0"/><stop stop-color="#452B30" offset="1"/></radialGradient><radialGradient id="q" cx="0" cy="0" r="1" gradientTransform="translate(15.962 9.85) rotate(90) scale(5.8514 10.781)" gradientUnits="userSpaceOnUse"><stop stop-color="#FFBD96" offset=".20438"/><stop stop-color="#D27067" offset=".96522"/></radialGradient><radialGradient id="p" cx="0" cy="0" r="1" gradientTransform="translate(19.21 10.017) rotate(146.39) scale(2.1142 2.836)" gradientUnits="userSpaceOnUse"><stop stop-color="#FFDFAF" offset="0"/><stop stop-color="#FFDFAF" stop-opacity="0" offset="1"/></radialGradient><linearGradient id="o" x1="3.424" x2="3.6707" y1="-.19386" y2="8.6927" gradientUnits="userSpaceOnUse"><stop stop-color="#E27749" offset="0"/><stop stop-color="#DA835D" offset="1"/></linearGradient><radialGradient id="n" cx="0" cy="0" r="1" gradientTransform="translate(-.48464 4.6112) rotate(-4.4616) scale(4.6027 7.2806)" gradientUnits="userSpaceOnUse"><stop stop-color="#E68F58" offset="0"/><stop stop-color="#E68F58" stop-opacity="0" offset="1"/></radialGradient><linearGradient id="m" x1="25.532" x2="25.532" y1="20.308" y2="28.808" gradientUnits="userSpaceOnUse"><stop stop-color="#E17341" offset="0"/><stop stop-color="#D48461" offset="1"/></linearGradient><radialGradient id="k" cx="0" cy="0" r="1" gradientTransform="translate(27.322 21.216) rotate(129.91) scale(1.1943 2.514)" gradientUnits="userSpaceOnUse"><stop stop-color="#FD9C79" offset="0"/><stop stop-color="#FD9C79" stop-opacity="0" offset="1"/></radialGradient><linearGradient id="j" x1="1.8059" x2="1.8462" y1=".85543" y2="5.9182" gradientUnits="userSpaceOnUse"><stop stop-color="#FFBE7B" offset="0"/><stop stop-color="#FFDDA2" offset="1"/></linearGradient><linearGradient id="i" x1="24.521" x2="24.554" y1="24.083" y2="29.005" gradientUnits="userSpaceOnUse"><stop stop-color="#F7B678" offset="0"/><stop stop-color="#FFDDA2" offset="1"/></linearGradient><linearGradient id="h" x1="15.962" x2="15.962" y1="9.7172" y2="11.348" gradientUnits="userSpaceOnUse"><stop stop-color="#49393F" offset="0"/><stop stop-color="#45323F" offset="1"/></linearGradient><radialGradient id="g" cx="0" cy="0" r="1" gradientTransform="translate(17.146 10.055) rotate(180) scale(1.3735 .61667)" gradientUnits="userSpaceOnUse"><stop stop-color="#635759" offset="0"/><stop stop-color="#635759" stop-opacity="0" offset="1"/></radialGradient></defs></svg>
