<?xml version="1.0" encoding="utf-8"?>
<!-- Generator: Adobe Illustrator 27.7.0, SVG Export Plug-In . SVG Version: 6.00 Build 0)  -->
<svg version="1.1" id="Ebene_1" xmlns="http://www.w3.org/2000/svg" xmlns:xlink="http://www.w3.org/1999/xlink" x="0px" y="0px"
	 viewBox="0 0 3300 2200" style="enable-background:new 0 0 3300 2200;" xml:space="preserve">
<style type="text/css">
	.st0{fill:none;stroke:#000000;stroke-width:0.5;}
	.st1{font-family:'Helvetica-Bold';}
	.st2{font-size:13px;}
	.st3{font-family:'Helvetica';}
	.st4{fill:none;stroke:#00AEEF;stroke-width:0.5;}
	.st5{fill:#27AAE1;}
	.st6{fill:none;stroke:#27AAE1;stroke-width:0.5;}
</style>
<g id="Notes">
	<path class="st0" d="M263,292h2773"/>
	<g>
		<text transform="matrix(1 0 0 1 263.0005 321.9993)" class="st1 st2">Weight/Scale Variations</text>
		<text transform="matrix(1 0 0 1 534.0637 321.9993)" class="st3 st2">Ultralight</text>
		<text transform="matrix(1 0 0 1 843.7778 321.9993)" class="st3 st2">Thin</text>
		<text transform="matrix(1 0 0 1 1139.0354 321.9993)" class="st3 st2">Light</text>
		<text transform="matrix(1 0 0 1 1427.0776 321.9993)" class="st3 st2">Regular</text>
		<text transform="matrix(1 0 0 1 1723.4423 321.9993)" class="st3 st2">Medium</text>
		<text transform="matrix(1 0 0 1 2016.1722 321.9993)" class="st3 st2">Semibold</text>
		<text transform="matrix(1 0 0 1 2326.9707 321.9993)" class="st3 st2">Bold</text>
		<text transform="matrix(1 0 0 1 2618.2661 321.9993)" class="st3 st2">Heavy</text>
		<text transform="matrix(1 0 0 1 2917.5059 321.9993)" class="st3 st2">Black</text>
	</g>
	<path class="st0" d="M263,1903h2773"/>
	<path d="M272.2,1933.8c4.3,0,7.9-3.6,7.9-7.9s-3.6-7.9-7.9-7.9s-7.9,3.6-7.9,7.9C264.4,1930.3,268,1933.8,272.2,1933.8z
		 M272.2,1932.3c-3.5,0-6.4-2.8-6.4-6.4s2.8-6.4,6.4-6.4s6.4,2.8,6.4,6.4S275.8,1932.3,272.2,1932.3z M268.7,1925.9
		c0,0.4,0.3,0.7,0.8,0.7h2.1v2.1c0,0.4,0.3,0.7,0.7,0.7c0.4,0,0.7-0.3,0.7-0.7v-2.1h2.1c0.4,0,0.7-0.3,0.7-0.7s-0.3-0.7-0.7-0.7H273
		v-2.1c0-0.4-0.3-0.8-0.7-0.8c-0.4,0-0.7,0.3-0.7,0.8v2.1h-2.2C269,1925.2,268.7,1925.5,268.7,1925.9z"/>
	<path d="M293.6,1935.9c5.4,0,10-4.5,10-10c0-5.4-4.5-10-10-10c-5.4,0-10,4.5-10,10S288.2,1935.9,293.6,1935.9z M293.6,1934.2
		c-4.6,0-8.3-3.7-8.3-8.3s3.7-8.3,8.3-8.3c4.6,0,8.3,3.7,8.3,8.3C301.9,1930.6,298.2,1934.2,293.6,1934.2z M289.1,1925.9
		c0,0.5,0.3,0.8,0.8,0.8h2.9v2.9c0,0.5,0.3,0.8,0.8,0.8s0.8-0.3,0.8-0.8v-2.9h2.9c0.5,0,0.8-0.3,0.8-0.8s-0.3-0.8-0.8-0.8h-2.9v-2.9
		c0-0.5-0.3-0.8-0.8-0.8s-0.8,0.3-0.8,0.8v2.9h-2.9C289.4,1925.1,289.1,1925.5,289.1,1925.9z"/>
	<path d="M320.6,1938.7c7,0,12.7-5.8,12.7-12.7c0-7-5.8-12.7-12.7-12.7c-7-0.1-12.7,5.7-12.7,12.6
		C307.9,1932.9,313.6,1938.7,320.6,1938.7z M320.6,1936.8c-6.1,0-10.9-4.8-10.9-10.9c0-6,4.8-10.9,10.9-10.9c6,0,10.9,4.9,10.9,10.9
		C331.5,1932,326.6,1936.8,320.6,1936.8z M314.8,1925.9c0,0.5,0.4,0.9,0.9,0.9h3.9v4c0,0.5,0.4,0.9,0.9,0.9s0.9-0.4,0.9-0.9v-4h4
		c0.5,0,0.9-0.4,0.9-0.9s-0.4-0.9-0.9-0.9h-4v-3.9c0-0.5-0.4-0.9-0.9-0.9s-0.9,0.4-0.9,0.9v3.9h-3.9
		C315.2,1925,314.8,1925.4,314.8,1925.9z"/>
	<text transform="matrix(1 0 0 1 263.0005 1952.9995)" class="st1 st2">Design Variations</text>
	<text transform="matrix(1 0 0 1 263.0005 1970.9995)" class="st3 st2">Symbols are supported in up to nine weights and three scales.</text>
	<text transform="matrix(1 0 0 1 263.0005 1988.9995)" class="st3 st2">For optimal layout with text and other symbols, vertically align</text>
	<text transform="matrix(1 0 0 1 263.0005 2006.9995)" class="st3 st2">symbols with the adjacent text.</text>
	<path class="st4" d="M776,1919v14"/>
	<path d="M779.3,1933.2c0.5,0,0.8-0.2,1-0.7l1.2-3.5h5.8l1.3,3.4c0.1,0.6,0.4,0.8,0.9,0.8s0.8-0.3,0.8-0.8c0-0.2,0-0.3-0.1-0.5
		l-4.5-12.3c-0.3-0.6-0.7-0.9-1.3-0.9s-1,0.3-1.2,0.9l-4.6,12.2c-0.1,0.2-0.1,0.4-0.1,0.6C778.5,1932.9,778.8,1933.2,779.3,1933.2z
		 M782,1927.5l2.4-6.6l2.4,6.6H782z"/>
	<path class="st4" d="M793.2,1919v14"/>
	<text transform="matrix(1 0 0 1 776.0004 1952.9995)" class="st1 st2">Margins</text>
	<text transform="matrix(1 0 0 1 776.0004 1970.9995)" class="st3 st2">Leading and trailing margins on the left and right side of each symbol</text>
	<text transform="matrix(1 0 0 1 776.0004 1988.9995)" class="st3 st2">can be adjusted by modifying the x-location of the margin guidelines.</text>
	<text transform="matrix(1 0 0 1 776.0004 2006.9995)" class="st3 st2">Modifications are automatically applied proportionally to all</text>
	<text transform="matrix(1 0 0 1 776.0004 2024.9993)" class="st3 st2">scales and weights.</text>
	<path d="M1291.8,1934.9l1.7,1.7c0.9,0.9,1.8,0.8,2.8-0.2l10.7-11.8l-1-1l-10.6,11.7c-0.4,0.4-0.7,0.5-1.2,0l-1.1-1.2
		c-0.5-0.4-0.4-0.8,0-1.1l11.5-10.8l-1-1l-11.6,10.9C1291.1,1933,1291,1934,1291.8,1934.9z M1298.3,1916.7c-0.4,0.4-0.4,1-0.2,1.4
		c0.2,0.4,0.7,0.6,1.3,0.4c1.5-0.3,3-0.4,4.4,0.5l-0.6,1.5c-0.3,0.8-0.2,1.4,0.4,2l2.3,2.3c0.5,0.5,0.9,0.5,1.5,0.4l1-0.2l0.7,0.7
		v0.6c0,0.5,0.1,0.9,0.6,1.4l0.8,0.7c0.5,0.5,1.1,0.5,1.6,0l2.9-2.9c0.5-0.5,0.4-1.1,0-1.5l-1-0.9c-0.5-0.5-0.8-0.6-1.3-0.6h-0.6
		l-0.6-0.6l0.2-1.1c0.1-0.6,0-1-0.6-1.6l-2.2-2.2C1305.6,1913.7,1301.1,1913.8,1298.3,1916.7z M1299.8,1917c2.4-1.8,5.7-1.5,7.9,0.8
		l2.4,2.4c0.2,0.2,0.3,0.4,0.2,0.8l-0.3,1.5l1.5,1.5l1-0.1c0.3,0,0.3,0,0.5,0.2l0.6,0.6l-2.4,2.4l-0.6-0.6c-0.2-0.2-0.2-0.3-0.2-0.5
		l0.1-1l-1.5-1.5l-1.5,0.3c-0.3,0.1-0.5,0-0.7-0.2l-2-2c-0.3-0.2-0.3-0.4-0.1-0.8l0.9-2.1c-1.6-1.5-3.6-2.1-5.6-1.5
		C1299.7,1917.3,1299.6,1917.1,1299.8,1917z"/>
	<text transform="matrix(1 0 0 1 1289.0004 1952.9995)" class="st1 st2">Exporting</text>
	<text transform="matrix(1 0 0 1 1289.0004 1970.9995)" class="st3 st2">Symbols should be outlined when exporting to ensure the</text>
	<text transform="matrix(1 0 0 1 1289.0004 1988.9995)" class="st3 st2">design is preserved when submitting to Xcode.</text>
	<text transform="matrix(1 0 0 1 2952.4146 1932.9995)" class="st3 st2">Template v.4.0</text>
	<text transform="matrix(1 0 0 1 2865.458 1950.9995)" class="st3 st2">Requires Xcode 14 or greater</text>
	<text transform="matrix(1 0 0 1 2834.418 1968.9995)" class="st3 st2">Generated from bookmark.slash.fill</text>
	<text transform="matrix(1 0 0 1 2912.4116 1986.9995)" class="st3 st2">Typeset at 100 points</text>
	<text transform="matrix(1 0 0 1 263.0005 725.9994)" class="st3 st2">Small</text>
	<text transform="matrix(1 0 0 1 263.0005 1155.9994)" class="st3 st2">Medium</text>
	<text transform="matrix(1 0 0 1 263.0005 1585.9994)" class="st3 st2">Large</text>
</g>
<g id="Guides_00000041992385199760718270000017857762855190565270_">
	<g id="H-reference" transform="matrix(1 0 0 1 339 696)">
		<path class="st5" d="M1-0.2h2.6l25.7-67.1h0.7v-3.3h-1.9L1-0.2z M11.7-24.7H47l-0.8-2.2H12.5L11.7-24.7z M55.1-0.2h2.6L30.7-70.7
			h-1.2v3.3L55.1-0.2z"/>
	</g>
	<line id="Baseline-S" class="st6" x1="263" y1="695.8" x2="3036" y2="695.8"/>
	<line id="Capline-S" class="st6" x1="263" y1="625.3" x2="3036" y2="625.3"/>
	<g id="H-reference_00000075148540225691874320000004189111091699519108_" transform="matrix(1 0 0 1 339 1126)">
		<path class="st5" d="M1-0.2h2.6l25.7-67.1h0.7v-3.3h-1.9L1-0.2z M11.7-24.7H47l-0.8-2.2H12.5L11.7-24.7z M55.1-0.2h2.6L30.7-70.7
			h-1.2v3.3L55.1-0.2z"/>
	</g>
	<line id="Baseline-M" class="st6" x1="263" y1="1125.8" x2="3036" y2="1125.8"/>
	<line id="Capline-M" class="st6" x1="263" y1="1055.3" x2="3036" y2="1055.3"/>
	<g id="H-reference_00000062192421249776060530000000663283028567505327_" transform="matrix(1 0 0 1 339 1556)">
		<path class="st5" d="M1-0.2h2.6l25.7-67.1h0.7v-3.3h-1.9L1-0.2z M11.7-24.7H47l-0.8-2.2H12.5L11.7-24.7z M55.1-0.2h2.6L30.7-70.7
			h-1.2v3.3L55.1-0.2z"/>
	</g>
	<line id="Baseline-L" class="st6" x1="263" y1="1555.8" x2="3036" y2="1555.8"/>
	<line id="Capline-L" class="st6" x1="263" y1="1485.3" x2="3036" y2="1485.3"/>
	<line id="left-margin-Regular-M" class="st4" x1="1394.6" y1="1030.6" x2="1394.6" y2="1149.9"/>
	<line id="right-margin-Regular-M" class="st4" x1="1505.1" y1="1030.6" x2="1505.1" y2="1149.9"/>
</g>
<g id="Symbols">
	<g id="Black-L">
		<g>
			<path d="M3005.4,1477.9L3005.4,1477.9c-2,0-4,0.6-5.9,1.9l-18.5,13v-18.2c0-7.8-6.3-14.1-14.1-14.1h-88.1l17.9,17.9h63.8
				c1.4,0,2.5,1.1,2.5,2.5v63.8l18,18v-16.6l18.7,12.5c2,1.3,4.2,2,6.2,2c4.3,0,8.1-2.9,8.1-8.2v-65.7
				C3014,1481.2,3010,1477.9,3005.4,1477.9z M2996,1533.8c0,0.3-0.4,0.5-0.6,0.3l0,0l-14.4-9.6v-9.6l14.4-10.1
				c0.3-0.2,0.6,0,0.6,0.3V1533.8z"/>
			<path d="M2936.3,1559.5h-58.8c-1.4,0-2.5-1.1-2.5-2.5v-58.8l-17.8-17.8v82.9c0,7.8,6.3,14.1,14.1,14.1h82.9L2936.3,1559.5z"/>
		</g>
		<path d="M2974.1,1584.1c2.2,2.1,5.8,2.2,8,0c2.1-2.2,2.2-5.7,0-8l-120.6-120.4c-2.2-2.2-5.8-2.2-8,0c-2.1,2.1-2.1,5.8,0,8
			L2974.1,1584.1z"/>
	</g>
	<g id="Heavy-L">
		<g>
			<path d="M2641.2,1561h-61.6c-1.3,0-2.3-1-2.3-2.2v-61.7l-15.9-15.9v81.7c0,7.8,6.3,14.1,14.1,14.1h81.7L2641.2,1561z"/>
			<path d="M2704.5,1479.1c-2,0-4.1,0.7-6,2l-19.1,13.9v-17.6c0-7.8-6.3-14.1-14.1-14.1H2583l15.9,15.9h62.3c1.3,0,2.3,1,2.3,2.3
				v62.3l15.9,15.9v-13.6l19.3,13.3c2,1.4,4.2,2,6.2,2c4.1,0,7.6-2.7,7.6-8v-65.9C2712.5,1482.1,2708.7,1479.1,2704.5,1479.1z
				 M2696.5,1537.7c0,0.3-0.4,0.5-0.6,0.3l-16.5-11.4v-11.9l16.5-12c0.2-0.2,0.6,0,0.6,0.3V1537.7z"/>
		</g>
		<path d="M2676.2,1583.5c2.1,2.1,5.6,2.1,7.6,0s2.1-5.5,0-7.6l-118.3-118.3c-2.1-2.1-5.6-2.1-7.7,0c-2,2-2,5.6,0,7.6L2676.2,1583.5
			z"/>
	</g>
	<g id="Bold-L">
		<g>
			<path d="M2272.3,1466.4c-2,1.2-3.7,2.9-4.9,4.9L2272.3,1466.4z"/>
			<path d="M2406.3,1481.2L2406.3,1481.2c-2,0-4.1,0.7-6,2.2l-18,13.7v-18.6c0-7.8-6.3-14.1-14.1-14.1h-83.1l12.9,12.9h68.3
				c1.6,0,3,1.3,3,3v68.3l12.9,12.9c0-0.4,0.1-0.8,0.1-1.3v-17.6l18.2,13.2c1.9,1.4,4.1,2.1,6.1,2.1c3.4,0,6.1-2.2,6.1-6.7V1488
				C2412.6,1483.5,2409.8,1481.2,2406.3,1481.2z M2399.5,1538.3c0.1,0.4-0.4,0.6-0.7,0.4l0,0l-16.6-12v-13.2l16.5-12.6
				c0.3-0.3,0.8,0,0.8,0.4V1538.3z"/>
			<path d="M2345.7,1561.5h-64.5c-1.6,0-3-1.3-3-3V1494l-12.8-12.8v79.1c0,7.8,6.3,14.1,14.1,14.1h79.1L2345.7,1561.5z"/>
		</g>
		<path d="M2378.4,1582.6c1.9,1.9,5.1,1.9,7,0s1.9-5.1,0-7l-115.9-115.8c-1.9-1.9-5.1-2-7.1,0c-1.9,1.9-1.9,5.1,0,7L2378.4,1582.6z"
			/>
	</g>
	<g id="Semibold-L">
		<g>
			<path d="M2050.6,1562.8H1986c-2.2,0-4.1-1.8-4.1-4.1v-64.6l-11.6-11.6v77.7c0,7.8,6.3,14.1,14.1,14.1h77.7L2050.6,1562.8z"/>
			<path d="M2108.6,1486.7L2108.6,1486.7c-1.6,0-3.3,0.5-4.9,1.6l-17.4,12.6v-20.1c0-7.8-6.3-14.1-14.1-14.1h-83.3l11.5,11.5h70.3
				c2.2,0,4.1,1.8,4.1,4.1v70.3l11.1,11.1c0.3-1.1,0.4-2.3,0.4-3.5v-19.5l17.5,12.1c1.6,1.1,3.4,1.7,5.1,1.7c3.4,0,6.2-2.2,6.2-6.5
				v-54.2C2115.3,1489.2,2112.2,1486.7,2108.6,1486.7z M2103.7,1537.8c0,0.4-0.3,0.5-0.5,0.4l-16.8-11.6v-11.4l16.8-12.2
				c0.2-0.1,0.5,0,0.5,0.2V1537.8z"/>
		</g>
		<path d="M2080.9,1582.1c1.8,1.8,4.8,1.8,6.6,0s1.8-4.8,0-6.6l-114.2-114.2c-1.8-1.8-4.8-1.9-6.6,0c-1.8,1.8-1.8,4.8,0,6.6
			L2080.9,1582.1z"/>
	</g>
	<g id="Medium-L">
		<g>
			<path d="M1755.8,1564.2h-65.5c-2.3,0-4.1-1.9-4.1-4.1v-65.5l-10-10v75.5c0,7.8,6.3,14.1,14.1,14.1h75.5L1755.8,1564.2z"/>
			<path d="M1808.9,1489.1L1808.9,1489.1c-1.6,0-3.3,0.5-4.9,1.7l-18,13V1483c0-7.8-6.3-14.1-14.1-14.1h-78.7l10,10h68.7
				c2.3,0,4.1,1.9,4.1,4.1v68.7l9.9,9.9c0.1-0.5,0.1-1,0.1-1.5v-19.6l18.1,12.5c1.5,1.1,3.2,1.6,4.8,1.6c3.3,0,6.2-2.3,6.2-6.5
				v-52.4C1815.2,1491.4,1812.3,1489.1,1808.9,1489.1z M1805.2,1540.2c0,0.6-0.6,0.9-1,0.6l-18.1-12.5v-12.2l18.1-13.1
				c0.4-0.3,1,0,1,0.5V1540.2z"/>
		</g>
		<path d="M1783.5,1581.6c1.8,1.7,4.6,1.8,6.3,0c1.7-1.8,1.7-4.5,0-6.3L1677,1462.5c-1.7-1.7-4.6-1.8-6.3,0c-1.7,1.7-1.7,4.6,0,6.3
			L1783.5,1581.6z"/>
	</g>
	<g id="Regular-L">
		<g>
			<path d="M1461.3,1566.4h-67.2c-3.1,0-5.5-2.5-5.5-5.5v-67.2l-8.4-8.4c0,0.4-0.1,0.7-0.1,1.1v74.6c0,7.8,6.3,14.1,14.1,14.1h75.7
				L1461.3,1566.4z"/>
			<path d="M1508.8,1491.6c-1.3,0-2.6,0.4-3.8,1.3l-18.8,13.6v-20.2c0-7.8-6.3-14.1-14.1-14.1H1398l8.6,8.6h65.4
				c3.1,0,5.5,2.5,5.5,5.5v65.4l8.7,8.7v-19.6l18.9,13c1.2,0.8,2.5,1.2,3.7,1.2c3.7,0,7-3.2,7-7.8v-47.9
				C1515.8,1494.8,1512.4,1491.6,1508.8,1491.6z M1507.3,1544.2c-0.1,0.3-0.4,0.5-0.6,0.3l0,0l-20.5-14.1v-13.2l20.5-14.9
				c0.2-0.2,0.6,0,0.6,0.3V1544.2z"/>
			<path d="M1508.8,1491.6L1508.8,1491.6L1508.8,1491.6z"/>
		</g>
		<path d="M1485.9,1581c1.6,1.6,4.3,1.6,5.9,0s1.6-4.2,0-5.9L1380.7,1464c-1.6-1.6-4.3-1.7-5.9,0c-1.6,1.6-1.6,4.3,0,5.9
			L1485.9,1581z"/>
	</g>
	<g id="Light-L">
		<g>
			<path d="M1168.5,1567.7h-66.7c-4.4,0-7.9-3.6-7.9-7.9v-66.7l-6.2-6.2c0,0.2,0,0.4,0,0.6v72.3c0,7.8,6.3,14.1,14.1,14.1h72.4
				c0.2,0,0.3,0,0.5,0L1168.5,1567.7z"/>
			<path d="M1214.3,1491.3L1214.3,1491.3c-1.7,0-3.2,0.5-4.8,1.6l-21.2,15.4v-20.8c0-7.8-6.3-14.1-14.1-14.1h-72.4
				c-0.5,0-1.1,0-1.6,0.1l6.1,6.1h67.9c4.4,0,7.9,3.6,7.9,7.9v67.9l6.1,6.1c0.1-0.6,0.1-1.1,0.1-1.7v-20.6l21.3,14.7
				c1.8,1.2,3.2,1.8,4.9,1.8c2.9,0,5.8-2.8,5.8-6.6v-51.3C1220.4,1493.7,1217.4,1491.3,1214.3,1491.3z M1214.1,1547.2
				c0.1,1-1,1.5-1.7,1l0,0l-24.1-16.6v-15.7l24-17.4c0.8-0.6,1.8,0,1.8,0.9L1214.1,1547.2L1214.1,1547.2z"/>
		</g>
		<path d="M1189.7,1580.3c1.3,1.3,3.3,1.3,4.6,0c1.2-1.3,1.2-3.3,0-4.5l-110.9-110.9c-1.2-1.2-3.3-1.3-4.6,0c-1.2,1.2-1.2,3.3,0,4.6
			L1189.7,1580.3z"/>
	</g>
	<g id="Thin-L">
		<g>
			<path d="M912.2,1493.7L912.2,1493.7c-1.2,0-2.4,0.4-3.5,1.2l-21.5,15.6v-22.8c0-7.8-6.3-14.1-14.1-14.1H806
				c-1.6,0-3.2,0.3-4.7,0.8l2.9,2.9c0.6-0.1,1.1-0.2,1.7-0.2H873c5.8,0,10.5,4.7,10.5,10.5v69l3.3,3.3c0.2-0.8,0.3-1.7,0.3-2.6
				v-21.6l21.6,14.9c1.1,0.7,2.3,1.1,3.4,1.1c3.4,0,6.4-1.7,6.4-5.9v-46C918.7,1495.7,915.6,1493.7,912.2,1493.7z M915.1,1545.5
				c0,2.2-1.5,2.7-2.8,2.7c-0.5,0-0.9-0.2-1.3-0.5l-23.7-16.3v-16.6l23.6-17.1c0.5-0.3,0.9-0.5,1.4-0.5c1.4,0,2.8,0.4,2.8,2.6
				V1545.5z"/>
			<path d="M874.9,1567.7c-0.6,0.1-1.2,0.2-1.9,0.2h-67c-5.8,0-10.5-4.7-10.5-10.5v-69.1l-3.3-3.3c-0.2,0.9-0.3,1.8-0.3,2.8v69.7
				c0,7.8,6.3,14.1,14.1,14.1h67.1c1.7,0,3.3-0.3,4.8-0.8L874.9,1567.7z"/>
		</g>
		<path d="M893.6,1579.4c0.8,0.8,2,0.8,2.8,0s0.7-2,0-2.8l-110.3-110.4c-0.7-0.7-2-0.9-2.8,0c-0.8,0.8-0.8,2,0,2.8L893.6,1579.4z"/>
	</g>
	<g id="Ultralight-L">
		<g>
			<path d="M580.2,1568.3c-2.1,1.6-4.6,2.5-7.4,2.5h-62.1c-6.7,0-12.1-5.4-12.1-12.1V1491c0-1.3,0.2-2.6,0.6-3.8l-1.5-1.5
				c-0.7,1.6-1,3.4-1,5.3v67.7c0,7.8,6.3,14.1,14.1,14.1h62.1c3.3,0,6.4-1.2,8.8-3.1L580.2,1568.3z"/>
			<path d="M613.6,1496.8L613.6,1496.8c-1.2,0-2.4,0.4-3.5,1.1l-23.1,16.3V1491c0-7.8-6.3-14.1-14.1-14.1h-62.1
				c-1.6,0-3.1,0.3-4.5,0.7l1.6,1.6c0.9-0.2,1.8-0.3,2.8-0.3h62.1c6.7,0,12.1,5.4,12.1,12.1v65.2l2.1,2.1v-21.6l23.2,15.5
				c1.1,0.7,2.3,1.1,3.4,1.1c3.4,0,6.4-2.9,6.4-6.9v-42.7C620,1499.7,616.9,1496.8,613.6,1496.8z M618,1546.4c0,3-2.3,4.9-4.4,4.9
				c-0.8,0-1.6-0.2-2.3-0.7l-24.3-16.3v-17.6l24.2-17.1c0.7-0.5,1.5-0.8,2.4-0.8c2.1,0,4.4,1.9,4.4,4.9L618,1546.4z"/>
		</g>
		<path d="M597.1,1578.9c0.6,0.6,1.4,0.6,1.9,0c0.6-0.6,0.5-1.4,0-1.9l-110.1-110.2c-0.5-0.4-1.3-0.6-1.9,0s-0.6,1.4,0,1.9
			L597.1,1578.9z"/>
	</g>
	<g id="Black-M">
		<g>
			<path d="M2931.7,1121.7h-44.1c-1.2,0-2.2-1-2.2-2.2v-44.1l-14.8-14.8v62c0,7.8,6.3,14.1,14.1,14.1h62L2931.7,1121.7z"/>
			<path d="M2988.9,1056.2L2988.9,1056.2c-1.7,0-3.5,0.5-5.1,1.5l-17.9,11.5v-10.8c0-7.8-6.3-14.1-14.1-14.1h-64l15,15h45.8
				c1.2,0,2.2,1,2.2,2.2v45.8l15.1,15.1v-10.8l18.1,11.1c1.8,1.1,3.8,1.7,5.7,1.7c3.9,0,7.2-2.3,7.2-6.7v-53.9
				C2996.8,1059.1,2993.1,1056.2,2988.9,1056.2z M2981.8,1103c0,0.3-0.4,0.6-0.7,0.4l-15.3-9.3v-7l15.3-9.8c0.3-0.2,0.7,0,0.7,0.4
				V1103z"/>
		</g>
		<path d="M2961.8,1141.3c1.7,1.7,4.6,1.7,6.3,0s1.7-4.5,0-6.3l-95.2-95.2c-1.7-1.7-4.6-1.7-6.4,0c-1.7,1.7-1.7,4.6,0,6.3
			L2961.8,1141.3z"/>
	</g>
	<g id="Heavy-M">
		<g>
			<path d="M2636.4,1123h-47.7c-1.9,0-3.4-1.5-3.4-3.4v-47.7l-12.9-12.9c0,0.4-0.1,0.8-0.1,1.2v61.7c0,7.8,6.3,14.1,14.1,14.1h63
				L2636.4,1123z"/>
			<path d="M2688.3,1060.6L2688.3,1060.6c-1.4,0-2.9,0.4-4.2,1.3l-14.8,10.1v-11.8c0-7.8-6.3-14.1-14.1-14.1h-64l12.9,12.9h48.8
				c1.9,0,3.4,1.5,3.4,3.4v48.8l12.8,12.8c0.1-0.7,0.2-1.4,0.2-2.1v-11.5l14.9,9.7c1.6,1,3.4,1.6,5,1.6c3.2,0,5.9-2,5.9-5.8v-48.3
				C2695.1,1063.3,2691.9,1060.6,2688.3,1060.6z M2682.1,1103.2l-12.8-8.3v-7.2l12.8-8.7V1103.2z"/>
		</g>
		<path d="M2664,1140.7c1.7,1.6,4.4,1.7,6.1,0c1.6-1.7,1.7-4.4,0-6.1l-93.1-93c-1.7-1.7-4.4-1.7-6.1,0c-1.6,1.6-1.6,4.4,0,6.1
			L2664,1140.7z"/>
	</g>
	<g id="Bold-M">
		<g>
			<path d="M2340.1,1123.5h-48.6c-1.7,0-3.1-1.4-3.1-3.1v-48.6l-11-11c0,0.3,0,0.6,0,1v58.6c0,7.8,6.3,14.1,14.1,14.1h59.6
				L2340.1,1123.5z"/>
			<path d="M2391.1,1060.2c-1.6,0-3.2,0.5-4.7,1.6l-15.6,11.3v-11.3c0-7.8-6.3-14.1-14.1-14.1h-62.4l11,11h51.4
				c1.7,0,3.1,1.4,3.1,3.1v51.4l10.6,10.6c0.3-1.1,0.4-2.2,0.4-3.4V1110l15.7,10.8c1.6,1.1,3.4,1.7,5,1.7c3,0,5.4-1.9,5.4-5.7v-50.5
				C2397,1062.3,2394.3,1060.2,2391.1,1060.2z M2386,1106.3c0,0.3-0.4,0.5-0.7,0.3l-14.4-9.9v-10l14.4-10.4c0.3-0.2,0.7,0,0.7,0.4
				V1106.3z"/>
			<path d="M2391.1,1060.2L2391.1,1060.2L2391.1,1060.2z"/>
		</g>
		<path d="M2366.1,1140c1.6,1.6,4.2,1.6,5.8,0s1.6-4.2,0-5.8l-90.8-90.7c-1.6-1.6-4.2-1.6-5.9,0c-1.6,1.6-1.6,4.2,0,5.8L2366.1,1140
			z"/>
	</g>
	<g id="Semibold-M">
		<g>
			<path d="M2045,1125.2h-48.2c-2.3,0-4.1-1.9-4.1-4.1v-48.2l-9.8-9.8c0,0.5-0.1,1-0.1,1.4v56.6c0,7.8,6.3,14.1,14.1,14.1h58.1
				L2045,1125.2z"/>
			<path d="M2092.2,1063.3L2092.2,1063.3c-1.4,0-2.9,0.5-4.3,1.4l-16.1,11.4v-11.6c0-7.8-6.3-14.1-14.1-14.1H1999l10,10h48.6
				c2.3,0,4.1,1.9,4.1,4.1v48.6l9.9,9.9c0.1-0.6,0.2-1.3,0.2-2v-10.8l16.2,10.9c1.6,1.1,3.3,1.6,4.9,1.6c2.9,0,5.3-1.8,5.3-5.4
				v-47.8C2098.2,1065.6,2095.4,1063.3,2092.2,1063.3z M2088.3,1108.3c-0.1,0.4-0.5,0.7-0.9,0.5l-15.6-10.5v-10l15.6-11
				c0.4-0.3,0.9,0,0.9,0.4V1108.3z"/>
		</g>
		<path d="M2068.5,1139.6c1.6,1.5,4.1,1.6,5.6,0s1.6-4.1,0-5.6l-89.1-89.2c-1.6-1.6-4.1-1.6-5.7,0c-1.5,1.5-1.5,4.1,0,5.6
			L2068.5,1139.6z"/>
	</g>
	<g id="Medium-M">
		<g>
			<path d="M1791.9,1065.1L1791.9,1065.1c-1.3,0-2.6,0.4-3.8,1.3l-14.8,10.4v-12.1c0-7.8-6.3-14.1-14.1-14.1h-57.7l9.1,9.1h48.6
				c2.8,0,5.1,2.3,5.1,5.1v48.6l8.8,8.8c0.1-0.8,0.2-1.7,0.2-2.5V1108l14.9,10c1.2,0.8,2.6,1.2,3.9,1.2c2.9,0,5.4-2,5.4-5.6V1071
				C1797.6,1067.3,1794.9,1065.1,1791.9,1065.1z M1788.6,1106.8c0,0.2-0.3,0.3-0.5,0.2l-14.8-9.9v-9.2l14.8-10.4
				c0.2-0.1,0.5,0,0.5,0.3V1106.8z"/>
			<path d="M1748,1124.8h-46.7c-2.8,0-5.1-2.3-5.1-5.1V1073l-9-9c0,0.2,0,0.5,0,0.7v54.9c0,7.8,6.3,14.1,14.1,14.1h55.6L1748,1124.8
				z"/>
		</g>
		<path d="M1771.1,1139.3c1.5,1.5,4,1.5,5.5,0s1.5-4,0-5.5l-87.9-88c-1.5-1.5-4-1.5-5.5,0s-1.5,4,0,5.5L1771.1,1139.3z"/>
	</g>
	<g id="Regular-M">
		<g>
			<path d="M1450.4,1124.1h-44.3c-3.4,0-6.1-2.8-6.1-6.1v-44.3l-8-8v52.2c0,7.8,6.3,14.1,14.1,14.1h52.2L1450.4,1124.1z"/>
			<path d="M1496.3,1064.2L1496.3,1064.2c-1.2,0-2.4,0.3-3.5,1.1L1476,1077v-11.8c0-7.8-6.3-14.1-14.1-14.1h-55.8
				c-0.6,0-1.2,0.1-1.8,0.1l8,8h49.7c3.4,0,6.1,2.8,6.1,6.1v49.7l7.3,7.3c0.4-1.4,0.7-2.8,0.7-4.4v-10.8l16.9,11.2
				c1.1,0.7,2.2,1,3.4,1c3.3,0,6.4-2.8,6.4-6.8V1071C1502.6,1067,1499.6,1064.2,1496.3,1064.2z M1494.7,1109.1
				c-0.1,0.4-0.5,0.6-0.8,0.4l-17.9-11.9v-10.8l17.9-12.5c0.3-0.2,0.8,0,0.8,0.4V1109.1z"/>
		</g>
		<path d="M1473.5,1138.8c1.5,1.5,3.9,1.5,5.3,0s1.5-3.8,0-5.3l-86.3-86.3c-1.5-1.5-3.9-1.5-5.4,0c-1.4,1.4-1.4,3.9,0,5.3
			L1473.5,1138.8z"/>
	</g>
	<g id="Light-M">
		<g>
			<path d="M1196,1066.8L1196,1066.8L1196,1066.8z"/>
			<path d="M1158.5,1126.7h-48.8c-4.7,0-8.5-3.8-8.5-8.5v-48.8l-5.3-5.3c-0.3,1.1-0.4,2.2-0.4,3.3v50.8c0,7.8,6.3,14.1,14.1,14.1
				h51.4c1,0,1.9-0.1,2.8-0.3L1158.5,1126.7z"/>
			<path d="M1196,1066.8c-1.1,0-2.2,0.3-3.3,1.1l-17.6,12.4v-12.9c0-7.8-6.3-14.1-14.1-14.1h-51.4c-0.7,0-1.3,0.1-1.9,0.1l5.5,5.5
				h48c4.7,0,8.5,3.8,8.5,8.5v48l5.3,5.3c0.1-0.8,0.2-1.6,0.2-2.5v-12l17.7,11.9c1,0.7,2.1,1,3.1,1c3.1,0,6-2.7,6-6.4v-39.5
				C1202,1069.4,1199.1,1066.8,1196,1066.8z M1196.4,1113.1c0,0.3-0.3,0.4-0.5,0.3l-20.8-13.9v-12.3l20.8-14.7
				c0.2-0.1,0.5,0,0.5,0.2V1113.1z"/>
		</g>
		<path d="M1177.2,1138.2c1.2,1.2,3,1.2,4.1,0s1.1-3,0-4.1l-86-86c-1.1-1.1-3-1.2-4.1,0c-1.1,1.1-1.1,3,0,4.1L1177.2,1138.2z"/>
	</g>
	<g id="Thin-M">
		<g>
			<path d="M865.9,1128c-0.9,0.3-1.9,0.4-2.9,0.4h-45.6c-6,0-10.9-4.9-10.9-10.9v-48.1c0-0.2,0-0.5,0-0.7l-2.7-2.7
				c-0.3,1.1-0.4,2.3-0.4,3.4v48.1c0,7.8,6.3,14.1,14.1,14.1h45.6c1.9,0,3.7-0.4,5.3-1L865.9,1128z"/>
			<path d="M898.7,1069.1L898.7,1069.1c-1,0-2.1,0.3-3,1l-18.5,13.1v-13.8c0-7.8-6.3-14.1-14.1-14.1h-45.6c-2.3,0-4.4,0.5-6.3,1.5
				l2.4,2.4c1.2-0.4,2.5-0.7,3.8-0.7H863c6,0,10.9,4.9,10.9,10.9v48.1c0,0.6-0.1,1.2-0.2,1.8l2.7,2.7c0.5-1.4,0.8-2.9,0.8-4.5v-12.8
				l18.6,12.5c0.9,0.6,2,0.9,2.9,0.9c2.9,0,5.6-2.5,5.6-6v-37C904.3,1071.5,901.6,1069.1,898.7,1069.1z M901.1,1112
				c0,1.7-1.2,2.8-2.4,2.8c-0.4,0-0.8-0.1-1.2-0.4l-20.4-13.7V1087l20.4-14.3c0.4-0.3,0.8-0.4,1.2-0.4c1.1,0,2.4,1.1,2.4,2.8V1112z"
				/>
		</g>
		<path d="M881,1137.3c0.7,0.7,1.9,0.7,2.6,0c0.7-0.7,0.7-1.8,0-2.5l-85.7-85.7c-0.7-0.6-1.8-0.8-2.5,0c-0.7,0.7-0.7,1.9,0,2.6
			L881,1137.3z"/>
	</g>
	<g id="Unltralight-M">
		<g>
			<path d="M569.7,1127.2c-1.4,0.6-3,0.9-4.7,0.9h-45.6c-6.7,0-12.1-5.4-12.1-12.1v-46.7c0-1.4,0.2-2.7,0.6-3.9l-1.6-1.6
				c-0.7,1.7-1.1,3.5-1.1,5.4v46.7c0,7.8,6.3,14.1,14.1,14.1H565c2.2,0,4.3-0.5,6.2-1.4L569.7,1127.2z"/>
			<path d="M601.8,1068.5c-1,0-2.1,0.3-3,1l-19.7,13.9v-14c0-7.8-6.3-14.1-14.1-14.1h-45.6c-2.3,0-4.4,0.6-6.3,1.5l1.5,1.5
				c1.5-0.6,3.1-1,4.8-1H565c6.7,0,12.1,5.4,12.1,12.1v46.7c0,1.4-0.3,2.8-0.7,4l1.5,1.5c0.7-1.7,1.1-3.6,1.1-5.6v-13l19.9,13.3
				c0.9,0.6,2,0.9,2.9,0.9c2.9,0,5.6-2.5,5.6-6v-37C607.4,1070.9,604.7,1068.5,601.8,1068.5z M605.4,1111.4c0,2.5-1.9,4-3.6,4
				c-0.6,0-1.3-0.2-1.8-0.6l-21-14v-15l21-14.7c0.6-0.4,1.2-0.6,1.9-0.6c1.7,0,3.6,1.5,3.6,4L605.4,1111.4z"/>
		</g>
		<path d="M584.5,1136.9c0.5,0.5,1.3,0.5,1.8,0s0.4-1.3,0-1.7l-85.4-85.5c-0.4-0.4-1.2-0.6-1.7,0c-0.5,0.5-0.5,1.3,0,1.8
			L584.5,1136.9z"/>
	</g>
	<g id="Black-S">
		<g>
			<path d="M2929.2,686.7h-35.5c-1.1,0-1.9-0.9-1.9-1.9v-35.5l-12.2-12.2c0,0.2,0,0.3,0,0.5v47.2c0,7.8,6.3,14.1,14.1,14.1h46.9
				c0.3,0,0.5,0,0.8,0L2929.2,686.7z"/>
			<path d="M2975.2,632.4c-1.4,0-2.7,0.4-4,1.2l-16.5,10.3v-6.3c0-7.8-6.3-14.1-14.1-14.1h-46.9c-0.4,0-0.8,0-1.2,0.1l12.1,12.1
				h35.9c1.1,0,1.9,0.9,1.9,1.9v35.9l12.2,12.2c0-0.3,0-0.6,0-0.9v-6l16.6,9.9c1.2,0.7,2.6,1.1,3.9,1.1c3.8,0,7.4-2.9,7.4-7v-43.4
				C2982.5,635.3,2979,632.4,2975.2,632.4z M2970.4,672.8c-0.1,0.4-0.7,0.8-1.1,0.5l-14.6-8.7v-6.3l14.6-9.1c0.5-0.3,1.1,0,1.1,0.6
				V672.8z"/>
		</g>
		<path d="M2952.1,701.4c1.4,1.3,3.6,1.4,4.9,0c1.3-1.4,1.4-3.6,0-4.9l-75.2-75.2c-1.4-1.4-3.6-1.4-5,0c-1.3,1.3-1.3,3.6,0,4.9
			L2952.1,701.4z"/>
	</g>
	<g id="Heavy-S">
		<g>
			<path d="M2633.8,688.4h-35.9c-1.7,0-3.1-1.4-3.1-3.1v-35.9l-10.9-10.9c0,0.3-0.1,0.7-0.1,1.1v45.8c0,7.8,6.3,14.1,14.1,14.1h45.2
				c0.5,0,1.1,0,1.6-0.1L2633.8,688.4z"/>
			<path d="M2676.2,636.5c-1.2,0-2.5,0.3-3.7,1l-15.3,9.4v-7.4c0-7.8-6.3-14.1-14.1-14.1h-45.2c-0.5,0-0.9,0-1.4,0.1l10.9,10.9h35.7
				c1.7,0,3.1,1.4,3.1,3.1v35.7l11,11c0-0.3,0-0.5,0-0.8v-7.2l15.4,9c1.1,0.7,2.4,1,3.6,1c3.5,0,6.7-2.6,6.7-6.3v-39
				C2682.9,639.1,2679.7,636.5,2676.2,636.5z M2672,672.9c-0.1,0.5-0.6,0.8-1,0.5l-13.7-8v-5.6l13.7-8.4c0.4-0.3,1,0,1,0.6V672.9z"
				/>
		</g>
		<path d="M2654.5,701c1.4,1.3,3.6,1.4,4.9,0s1.4-3.5,0-4.9l-73.5-73.5c-1.4-1.4-3.6-1.4-4.9,0c-1.3,1.3-1.3,3.6,0,4.9L2654.5,701z"
			/>
	</g>
	<g id="Bold-S">
		<g>
			<path d="M2337.8,689.5h-35.5c-2.5,0-4.5-2-4.5-4.5v-35.5l-9.6-9.6c0,0.2,0,0.4,0,0.6V685c0,7.8,6.3,14.1,14.1,14.1h41.9
				c1,0,2-0.1,2.9-0.3L2337.8,689.5z"/>
			<path d="M2377.2,636.3c-1.2,0-2.4,0.3-3.5,1.1l-15.5,10.2v-7.1c0-7.8-6.3-14.1-14.1-14.1h-41.9c-0.8,0-1.7,0.1-2.5,0.2l9.4,9.4
				h35c2.5,0,4.5,2,4.5,4.5v35l9.6,9.6V685v-6.8l15.6,9.7c1.1,0.7,2.3,1,3.4,1c3.4,0,6.4-2.7,6.4-6.4v-39.7
				C2383.7,639,2380.6,636.3,2377.2,636.3z M2374,675.9c0.1,0.4-0.4,0.6-0.7,0.4l-15.1-9.4v-7.8l15-9.9c0.3-0.2,0.8,0,0.8,0.4V675.9
				z"/>
		</g>
		<path d="M2356.6,700.5c1.3,1.3,3.5,1.3,4.8,0s1.3-3.5,0-4.8l-71.5-71.5c-1.3-1.3-3.5-1.3-4.9,0c-1.3,1.3-1.3,3.5,0,4.8
			L2356.6,700.5z"/>
	</g>
	<g id="Semibold-S">
		<g>
			<path d="M2041.8,690.3h-36.6c-3.1,0-5.5-2.5-5.5-5.5v-36.6l-8.5-8.5c-0.1,0.5-0.1,1-0.1,1.5v43.6c0,7.8,6.3,14.1,14.1,14.1h41.5
				c1.1,0,2.2-0.1,3.3-0.4L2041.8,690.3z"/>
			<path d="M2079.9,637.5L2079.9,637.5c-1.1,0-2.3,0.3-3.4,1l-15.7,10.3v-7.6c0-7.8-6.3-14.1-14.1-14.1h-41.5
				c-0.8,0-1.7,0.1-2.5,0.2l8.5,8.5h35.5c3.1,0,5.5,2.5,5.5,5.5v35.5l8.6,8.6c0-0.2,0-0.4,0-0.6v-7.1l15.8,9.9c1.1,0.7,2.2,1,3.3,1
				c3.2,0,6.2-2.6,6.2-6.2v-38.6C2086.2,640.1,2083.2,637.5,2079.9,637.5z M2077.6,677c0,0.5-0.5,0.7-0.8,0.5l-16-10v-8.4l16-10.5
				c0.3-0.2,0.8,0,0.8,0.4V677z"/>
		</g>
		<path d="M2059.1,700.2c1.3,1.3,3.5,1.3,4.8,0s1.3-3.5,0-4.8l-70.2-70.2c-1.3-1.3-3.5-1.3-4.8,0s-1.3,3.5,0,4.8L2059.1,700.2z"/>
	</g>
	<g id="Medium-S">
		<g>
			<path d="M1784.7,637.4c-1.3,0-2.7,0.4-4,1.2l-16.3,10.7v-7.5c0-7.8-6.3-14.1-14.1-14.1h-40.9c-1.1,0-2.1,0.1-3.2,0.4l7.6,7.6
				h36.4c3.4,0,6.1,2.8,6.1,6.1v36.4l7.9,7.9c0.1-0.6,0.1-1.1,0.1-1.7v-7l16.4,10.3c1.3,0.8,2.7,1.2,4,1.2c3,0,5.6-1.9,5.6-5.3
				v-40.7C1790.3,639.4,1787.7,637.4,1784.7,637.4z M1782.4,678.2c-0.1,0.4-0.6,0.7-0.9,0.4l-17.1-10.7v-9l17.1-11.2
				c0.4-0.2,0.9,0,0.9,0.5V678.2z"/>
			<path d="M1745,690.5h-35.7c-3.4,0-6.1-2.8-6.1-6.1v-35.7l-7.9-7.9c0,0.3-0.1,0.7-0.1,1v42.6c0,7.8,6.3,14.1,14.1,14.1h40.9
				c0.9,0,1.7-0.1,2.5-0.2L1745,690.5z"/>
		</g>
		<path d="M1761.7,700c1.3,1.3,3.5,1.3,4.8,0s1.3-3.4,0-4.8l-69.1-69.2c-1.3-1.3-3.5-1.3-4.8,0s-1.3,3.5,0,4.8L1761.7,700z"/>
	</g>
	<g id="Regular-S">
		<g>
			<path d="M1485.7,638.7L1485.7,638.7c-1.3,0-2.6,0.4-3.8,1.2l-16.5,10.8v-8.1c0-7.8-6.3-14.1-14.1-14.1h-38.9c-1,0-2,0.1-2.9,0.3
				l6.7,6.7h35c3.9,0,7.1,3.2,7.1,7.1v35l7.1,7.1c0-0.1,0-0.3,0-0.4v-7.5l16.6,10.4c1.2,0.7,2.5,1.1,3.7,1.1c2.9,0,5.5-2,5.5-5.3
				v-39C1491.2,640.6,1488.6,638.7,1485.7,638.7z M1484.2,679.4c0,0.4-0.5,0.7-0.8,0.5l-18.1-11.3v-9.5l18.1-11.9
				c0.3-0.2,0.8,0,0.8,0.4V679.4z"/>
			<path d="M1449.1,691.4h-36.8c-3.9,0-7.1-3.2-7.1-7.1v-36.8l-6.8-6.8c-0.1,0.6-0.1,1.3-0.1,1.9v41.7c0,7.8,6.3,14.1,14.1,14.1
				h38.9c1.5,0,2.9-0.2,4.2-0.6L1449.1,691.4z"/>
		</g>
		<path d="M1464.3,699.6c1.3,1.3,3.5,1.3,4.7,0c1.3-1.3,1.3-3.4,0-4.7l-67.7-67.8c-1.3-1.3-3.5-1.3-4.8,0s-1.3,3.5,0,4.7
			L1464.3,699.6z"/>
	</g>
	<g id="Light-S">
		<g>
			<path d="M1155.4,692.6c-0.7,0.2-1.5,0.3-2.2,0.3h-36c-4.9,0-8.9-4-8.9-8.9v-38.5l-4.8-4.8c-0.2,1-0.3,2-0.3,3v40.2
				c0,7.8,6.3,14.1,14.1,14.1h36c2.2,0,4.3-0.5,6.1-1.4L1155.4,692.6z"/>
			<path d="M1188.4,639.8L1188.4,639.8c-1.1,0-2.2,0.3-3.2,1l-17.8,11.7v-8.8c0-7.8-6.3-14.1-14.1-14.1h-36c-1.7,0-3.4,0.3-5,0.9
				l4.4,4.4c0.1,0,0.3,0,0.4,0h36c4.9,0,8.9,4,8.9,8.9v36.5l5.2,5.2c0.1-0.5,0.1-1,0.1-1.6v-8l17.9,11.2c1,0.6,2.1,0.9,3.1,0.9
				c3.1,0,5.9-2.5,5.9-5.9v-36.5C1194.3,642.2,1191.4,639.8,1188.4,639.8z M1189.1,682.1c0,0.6-0.6,0.7-0.7,0.7s-0.2,0-0.4-0.1
				l-20.7-12.9v-11.1l20.7-13.6c0.2-0.1,0.3-0.1,0.4-0.1c0,0,0.7,0,0.7,0.7V682.1z"/>
		</g>
		<path d="M1167.9,699.1c1,1,2.7,1,3.7,0s1-2.7,0-3.7l-67.5-67.6c-1-1-2.7-1-3.7,0s-1,2.7,0,3.7L1167.9,699.1z"/>
	</g>
	<g id="Thin-S">
		<g>
			<path d="M860.9,692.4c-1.6,0.9-3.5,1.5-5.5,1.5h-32.1c-6.1,0-11.1-5-11.1-11.1v-38.1c0-0.3,0-0.6,0-0.9l-2.6-2.6
				c-0.3,1.1-0.4,2.2-0.4,3.4v38.1c0,7.8,6.3,14.1,14.1,14.1h32.1c2.8,0,5.4-0.8,7.6-2.2L860.9,692.4z"/>
			<path d="M890.9,640.3c-1,0-2,0.3-3,0.9l-18.4,12.6v-9.3c0-7.8-6.3-14.1-14.1-14.1h-32.1c-2.9,0-5.6,0.9-7.8,2.4l2.3,2.3
				c1.6-1,3.5-1.5,5.6-1.5h32.1c6.1,0,11.1,5,11.1,11.1v38.1c0,0.4,0,0.7-0.1,1l2.5,2.5c0.3-1.2,0.5-2.4,0.5-3.7v-8.5l18.5,12
				c0.9,0.6,1.9,0.9,2.9,0.9c2.9,0,5.5-2.4,5.5-5.7V646C896.4,642.7,893.8,640.3,890.9,640.3z M890.9,684.1c-0.4,0-0.9-0.1-1.3-0.4
				l-20.2-13.1v-13.1l20.1-13.8c0.4-0.3,0.9-0.4,1.3-0.4c1.2,0,2.5,1,2.5,2.7v35.4h0.1C893.4,683.1,892.1,684.1,890.9,684.1z"/>
		</g>
		<path d="M871.6,698.3c0.7,0.7,1.7,0.7,2.3,0s0.6-1.7,0-2.3l-67.2-67.2c-0.6-0.6-1.6-0.7-2.3,0c-0.6,0.6-0.6,1.7,0,2.3L871.6,698.3
			z"/>
	</g>
	<g id="Ultralight-S">
		<g>
			<path d="M564.9,691.7c-2,1.5-4.5,2.4-7.2,2.4h-29.6c-6.7,0-12.1-5.4-12.1-12.1v-37.1c0-0.7,0.1-1.3,0.2-1.9l-1.6-1.6
				c-0.3,1.1-0.4,2.2-0.4,3.4v37.1c0,7.8,6.3,14.1,14.1,14.1h29.6c3.2,0,6.1-1.1,8.5-2.9L564.9,691.7z"/>
			<path d="M594.6,640.5L594.6,640.5c-1,0-2.1,0.3-3,0.9l-19.7,13v-9.6c0-7.8-6.3-14.1-14.1-14.1h-29.6c-3.6,0-6.9,1.4-9.4,3.6
				l1.4,1.4c2.1-1.8,4.8-2.9,7.8-2.9h29.6c6.7,0,12.1,5.4,12.1,12.1V682c0,1-0.1,1.9-0.4,2.9l1.7,1.7c0.5-1.5,0.8-3,0.8-4.6v-9.1
				l19.9,12.4c0.9,0.6,2,0.9,2.9,0.9c2.9,0,5.6-2.3,5.6-5.6v-34.4C600.2,642.8,597.5,640.5,594.6,640.5z M594.6,684.1
				c-0.7,0-1.3-0.2-1.9-0.6l-20.9-13.1v-13.7l20.8-13.7c0.6-0.4,1.3-0.6,1.9-0.6c1.7,0,3.6,1.4,3.6,3.6v34.5h0.1
				C598.2,682.7,596.3,684.1,594.6,684.1z"/>
		</g>
		<path d="M575.2,697.9c0.5,0.5,1.2,0.5,1.6,0c0.5-0.5,0.4-1.1,0-1.6l-67-67c-0.4-0.4-1.1-0.5-1.6,0s-0.5,1.2,0,1.6L575.2,697.9z"/>
	</g>
</g>
</svg>
