<?xml version="1.0" encoding="UTF-8"?>
<!-- Generated by Pixelmator Pro 3.7 -->
<svg width="231" height="20" viewBox="0 0 231 20" xmlns="http://www.w3.org/2000/svg">
    <clipPath id="clipPath1">
        <path d="M 9.989189 1.25 L 154.070137 1.25 L 154.070137 18.75 L 9.989189 18.75 Z"/>
    </clipPath>
    <g id="Group" clip-path="url(#clipPath1)">
        <path id="Path" fill="#ffffff" stroke="none" d="M 143.577744 18.4375 C 144.183334 18.4375 144.674057 17.947811 144.674057 17.34375 C 144.674057 16.739689 144.183334 16.25 143.577744 16.25 C 142.972153 16.25 142.481415 16.739689 142.481415 17.34375 C 142.481415 17.947811 142.972153 18.4375 143.577744 18.4375 Z"/>
        <path id="path1" fill="#ffffff" stroke="none" d="M 147.313065 18.4375 C 147.918655 18.4375 148.409393 17.947811 148.409393 17.34375 C 148.409393 16.739689 147.918655 16.25 147.313065 16.25 C 146.707474 16.25 146.216751 16.739689 146.216751 17.34375 C 146.216751 17.947811 146.707474 18.4375 147.313065 18.4375 Z"/>
        <path id="path2" fill="#ffffff" stroke="none" d="M 151.044662 18.4375 C 151.650253 18.4375 152.140961 17.947811 152.140961 17.34375 C 152.140961 16.739689 151.650253 16.25 151.044662 16.25 C 150.439682 16.25 149.948349 16.739689 149.948349 17.34375 C 149.948349 17.947811 150.439682 18.4375 151.044662 18.4375 Z"/>
        <path id="path3" fill="#ffffff" stroke="none" d="M 15.475939 4.622163 L 9.989189 4.622163 L 9.989189 1.383974 L 24.935265 1.383974 L 24.935265 4.622163 L 19.448576 4.622163 L 19.448576 18.554813 L 15.479747 18.554813 L 15.479747 4.622163 L 15.475939 4.622163 Z"/>
        <path id="path4" fill="#ffffff" stroke="none" d="M 42.794872 1.383974 L 42.794872 18.550938 L 38.826103 18.550938 L 38.826103 11.511937 L 31.033791 11.511937 L 31.033791 18.550938 L 27.064959 18.550938 L 27.064959 1.383974 L 31.033791 1.383974 L 31.033791 8.155062 L 38.826103 8.155062 L 38.826103 1.383974 L 42.794872 1.383974 Z"/>
        <path id="path5" fill="#ffffff" stroke="none" d="M 57.404564 18.554813 L 54.097202 13.77025 L 50.445778 13.77025 L 50.445778 18.554813 L 46.476952 18.554813 L 46.476952 1.383974 L 53.902225 1.383974 C 55.420147 1.383974 56.739216 1.636593 57.859505 2.145676 C 58.979797 2.650925 59.840115 3.37052 60.44421 4.304469 C 61.048367 5.238413 61.350414 6.34075 61.350414 7.615376 C 61.350414 8.889999 61.044498 9.992375 60.432781 10.914812 C 59.821007 11.83725 58.949265 12.545375 57.825108 13.035313 L 61.67157 18.554813 L 57.408367 18.554813 L 57.404564 18.554813 Z M 56.402771 5.395344 C 55.783379 4.878613 54.877171 4.622163 53.684277 4.622163 L 50.449589 4.622163 L 50.449589 10.60475 L 53.684277 10.60475 C 54.877171 10.60475 55.783379 10.344501 56.402771 9.820126 C 57.02216 9.295688 57.335701 8.560813 57.335701 7.611564 C 57.335701 6.662313 57.026035 5.908251 56.402771 5.39152 L 56.402771 5.395344 Z"/>
        <path id="path6" fill="#ffffff" stroke="none" d="M 77.764587 15.366375 L 77.764587 18.554813 L 64.48584 18.554813 L 64.48584 1.383974 L 77.447433 1.383974 L 77.447433 4.5724 L 68.431564 4.5724 L 68.431564 8.3005 L 76.396072 8.3005 L 76.396072 11.389438 L 68.431564 11.389438 L 68.431564 15.362562 L 77.764587 15.362562 L 77.764587 15.366375 Z"/>
        <path id="path7" fill="#ffffff" stroke="none" d="M 94.205544 15.366375 L 94.205544 18.554813 L 80.926796 18.554813 L 80.926796 1.383974 L 93.88839 1.383974 L 93.88839 4.5724 L 84.87252 4.5724 L 84.87252 8.3005 L 92.837029 8.3005 L 92.837029 11.389438 L 84.87252 11.389438 L 84.87252 15.362562 L 94.205544 15.362562 L 94.205544 15.366375 Z"/>
        <path id="path8" fill="#ffffff" stroke="none" d="M 112.971481 18.554813 L 112.94838 8.254626 L 107.901344 16.740499 L 106.11203 16.740499 L 101.088097 8.476624 L 101.088097 18.558624 L 97.364006 18.558624 L 97.364006 1.383974 L 100.648575 1.383974 L 107.067879 12.051625 L 113.388535 1.383974 L 116.645638 1.383974 L 116.69558 18.550938 L 112.971481 18.550938 L 112.971481 18.554813 Z"/>
        <path id="path9" fill="#ffffff" stroke="none" d="M 132.058334 14.876437 L 124.094452 14.876437 L 122.576088 18.554813 L 118.507988 18.554813 L 126.15097 1.383974 L 130.07048 1.383974 L 137.740311 18.550938 L 133.576691 18.550938 L 132.058334 14.872625 L 132.058334 14.876437 Z M 130.808441 11.86025 L 128.089493 5.28817 L 125.371193 11.86025 L 130.808441 11.86025 Z"/>
        <path id="path10" fill="#ffffff" stroke="none" d="M 147.181335 1.25 C 150.980347 1.25 154.070129 4.333895 154.070129 8.125 C 154.070129 11.916124 150.980347 15 147.181335 15 C 145.779724 15 144.478638 14.582312 143.390442 13.863501 L 140.74205 14.710063 L 141.601746 12.15575 C 140.776382 11.023438 140.288803 9.628313 140.288803 8.125 C 140.288803 4.333895 143.379196 1.25 147.177597 1.25 L 147.181335 1.25 Z M 147.308075 4.375 C 146.229858 4.375006 145.350189 5.25545 145.350189 6.334812 L 145.350189 7.24975 L 145.289627 7.24975 C 144.949371 7.24975 144.674057 7.525063 144.674057 7.865624 L 144.674057 10.33875 C 144.674057 10.67925 144.949371 10.954562 145.289627 10.954562 L 149.323395 10.954562 C 149.663651 10.954562 149.93898 10.67925 149.93898 10.33875 L 149.93898 7.865624 C 149.93898 7.525063 149.663651 7.24975 149.323395 7.24975 L 149.265961 7.24975 L 149.265961 6.334812 C 149.265961 5.255444 148.386292 4.375 147.308075 4.375 Z M 147.308075 5.178831 C 147.943008 5.178831 148.463074 5.69945 148.463074 6.334812 L 148.463074 7.24975 L 146.153702 7.24975 L 146.153702 6.334812 C 146.153702 5.695624 146.673767 5.178843 147.308075 5.178831 Z"/>
    </g>
    <path id="path11" fill="#ffffff" stroke="none" d="M 158.441025 18.60125 L 158.441025 1.25 L 165.991608 1.25 C 167.941376 1.25 169.450363 1.638338 170.516708 2.415012 C 171.60054 3.191694 172.14183 4.290606 172.14183 5.711756 C 172.14183 6.653687 171.917068 7.446876 171.466934 8.091375 C 171.033661 8.735811 170.433685 9.223313 169.666992 9.553813 C 168.916565 9.884312 168.091843 10.049562 167.191544 10.049562 L 167.616714 9.454686 C 168.733627 9.454686 169.691971 9.628187 170.49173 9.975187 C 171.308365 10.305687 171.942047 10.809751 172.392181 11.48725 C 172.8423 12.148251 173.067078 12.974499 173.067078 13.966 C 173.067078 15.436749 172.517029 16.576937 171.416977 17.386688 C 170.333786 18.196438 168.691818 18.60125 166.491684 18.60125 L 158.441025 18.60125 Z M 160.290909 17.089251 L 166.466721 17.089251 C 168.000061 17.089251 169.175034 16.833126 169.991653 16.320812 C 170.808258 15.792 171.217194 14.9575 171.217194 13.817249 C 171.217194 12.693563 170.808258 11.875563 169.991653 11.363312 C 169.175034 10.834499 168.000061 10.570126 166.466721 10.570126 L 160.091125 10.570126 L 160.091125 9.058063 L 165.866119 9.058063 C 167.266464 9.058063 168.349686 8.793688 169.116974 8.264875 C 169.899872 7.736063 170.291946 6.951124 170.291946 5.910055 C 170.291946 4.852456 169.899872 4.067518 169.116974 3.555237 C 168.349686 3.026438 167.266464 2.762037 165.866119 2.762037 L 160.290909 2.762037 L 160.290909 17.089251 Z"/>
    <path id="path12" fill="#ffffff" stroke="none" d="M 176.289825 18.60125 L 176.289825 1.25 L 178.140335 1.25 L 178.140335 17.014875 L 187.940979 17.014875 L 187.940979 18.60125 L 176.289825 18.60125 Z"/>
    <path id="path13" fill="#ffffff" stroke="none" d="M 196.746445 18.75 C 194.512619 18.75 192.753891 18.113811 191.470901 16.841375 C 190.187286 15.568937 189.545502 13.685062 189.545502 11.189813 L 189.545502 1.25 L 191.395981 1.25 L 191.395981 11.115438 C 191.395981 13.164562 191.862366 14.676562 192.795731 15.651562 C 193.72908 16.626564 195.045792 17.114 196.746445 17.114 C 198.462723 17.114 199.788147 16.626564 200.721527 15.651562 C 201.654892 14.676562 202.121872 13.164562 202.121872 11.115438 L 202.121872 1.25 L 203.921799 1.25 L 203.921799 11.189813 C 203.921799 13.685062 203.279999 15.568937 201.996399 16.841375 C 200.729645 18.113811 198.97966 18.75 196.746445 18.75 Z"/>
    <path id="path14" fill="#ffffff" stroke="none" d="M 210.146942 9.0085 L 219.398178 9.0085 L 219.398178 10.570126 L 210.146942 10.570126 L 210.146942 9.0085 Z M 210.347366 17.014875 L 220.873459 17.014875 L 220.873459 18.60125 L 208.496857 18.60125 L 208.496857 1.25 L 220.49823 1.25 L 220.49823 2.836401 L 210.347366 2.836401 L 210.347366 17.014875 Z"/>
</svg>
