<svg fill="none" viewBox="0 0 32 32" xmlns="http://www.w3.org/2000/svg"><path d="m27.73 21.89c0-0.45-0.04-0.9-0.12-1.33-0.26-1.73-1.05-4.82-3.49-7.32-0.55-0.57-1.13-1.04-1.72-1.43l1.22-6.61c0.3-1.66-0.98-3.2-2.67-3.2-1.5 0-2.71 1.21-2.71 2.71v5.4c-1.32-0.26-2.23-0.22-2.23-0.22s-0.7-0.04-1.76 0.13v-5.31c0-1.5-1.21-2.71-2.71-2.71-1.7 0-2.98 1.54-2.67 3.2l1.17 6.34c-0.72998 0.44-1.46 1-2.15 1.7-2.43 2.5-3.23 5.58-3.49 7.32-0.08 0.44-0.12 0.88-0.13 1.34v0.02c0 2.88 1.67 5.36 4.08 6.55 0 0 2.62 1.53 7.64 1.53 5.03 0 7.64-1.53 7.64-1.53 2.42-1.19 4.08-3.67 4.08-6.55 0.02 0 0.02-0.01 0.02-0.03z" fill="url(#an)"/><path d="m27.73 21.89c0-0.45-0.04-0.9-0.12-1.33-0.26-1.73-1.05-4.82-3.49-7.32-0.55-0.57-1.13-1.04-1.72-1.43l1.22-6.61c0.3-1.66-0.98-3.2-2.67-3.2-1.5 0-2.71 1.21-2.71 2.71v5.4c-1.32-0.26-2.23-0.22-2.23-0.22s-0.7-0.04-1.76 0.13v-5.31c0-1.5-1.21-2.71-2.71-2.71-1.7 0-2.98 1.54-2.67 3.2l1.17 6.34c-0.72998 0.44-1.46 1-2.15 1.7-2.43 2.5-3.23 5.58-3.49 7.32-0.08 0.44-0.12 0.88-0.13 1.34v0.02c0 2.88 1.67 5.36 4.08 6.55 0 0 2.62 1.53 7.64 1.53 5.03 0 7.64-1.53 7.64-1.53 2.42-1.19 4.08-3.67 4.08-6.55 0.02 0 0.02-0.01 0.02-0.03z" fill="url(#ac)"/><path d="m27.73 21.89c0-0.45-0.04-0.9-0.12-1.33-0.26-1.73-1.05-4.82-3.49-7.32-0.55-0.57-1.13-1.04-1.72-1.43l1.22-6.61c0.3-1.66-0.98-3.2-2.67-3.2-1.5 0-2.71 1.21-2.71 2.71v5.4c-1.32-0.26-2.23-0.22-2.23-0.22s-0.7-0.04-1.76 0.13v-5.31c0-1.5-1.21-2.71-2.71-2.71-1.7 0-2.98 1.54-2.67 3.2l1.17 6.34c-0.72998 0.44-1.46 1-2.15 1.7-2.43 2.5-3.23 5.58-3.49 7.32-0.08 0.44-0.12 0.88-0.13 1.34v0.02c0 2.88 1.67 5.36 4.08 6.55 0 0 2.62 1.53 7.64 1.53 5.03 0 7.64-1.53 7.64-1.53 2.42-1.19 4.08-3.67 4.08-6.55 0.02 0 0.02-0.01 0.02-0.03z" fill="url(#r)"/><path d="m27.73 21.89c0-0.45-0.04-0.9-0.12-1.33-0.26-1.73-1.05-4.82-3.49-7.32-0.55-0.57-1.13-1.04-1.72-1.43l1.22-6.61c0.3-1.66-0.98-3.2-2.67-3.2-1.5 0-2.71 1.21-2.71 2.71v5.4c-1.32-0.26-2.23-0.22-2.23-0.22s-0.7-0.04-1.76 0.13v-5.31c0-1.5-1.21-2.71-2.71-2.71-1.7 0-2.98 1.54-2.67 3.2l1.17 6.34c-0.72998 0.44-1.46 1-2.15 1.7-2.43 2.5-3.23 5.58-3.49 7.32-0.08 0.44-0.12 0.88-0.13 1.34v0.02c0 2.88 1.67 5.36 4.08 6.55 0 0 2.62 1.53 7.64 1.53 5.03 0 7.64-1.53 7.64-1.53 2.42-1.19 4.08-3.67 4.08-6.55 0.02 0 0.02-0.01 0.02-0.03z" fill="url(#g)"/><path d="m27.73 21.89c0-0.45-0.04-0.9-0.12-1.33-0.26-1.73-1.05-4.82-3.49-7.32-0.55-0.57-1.13-1.04-1.72-1.43l1.22-6.61c0.3-1.66-0.98-3.2-2.67-3.2-1.5 0-2.71 1.21-2.71 2.71v5.4c-1.32-0.26-2.23-0.22-2.23-0.22s-0.7-0.04-1.76 0.13v-5.31c0-1.5-1.21-2.71-2.71-2.71-1.7 0-2.98 1.54-2.67 3.2l1.17 6.34c-0.72998 0.44-1.46 1-2.15 1.7-2.43 2.5-3.23 5.58-3.49 7.32-0.08 0.44-0.12 0.88-0.13 1.34v0.02c0 2.88 1.67 5.36 4.08 6.55 0 0 2.62 1.53 7.64 1.53 5.03 0 7.64-1.53 7.64-1.53 2.42-1.19 4.08-3.67 4.08-6.55 0.02 0 0.02-0.01 0.02-0.03z" fill="url(#f)"/><path d="m27.73 21.89c0-0.45-0.04-0.9-0.12-1.33-0.26-1.73-1.05-4.82-3.49-7.32-0.55-0.57-1.13-1.04-1.72-1.43l1.22-6.61c0.3-1.66-0.98-3.2-2.67-3.2-1.5 0-2.71 1.21-2.71 2.71v5.4c-1.32-0.26-2.23-0.22-2.23-0.22s-0.7-0.04-1.76 0.13v-5.31c0-1.5-1.21-2.71-2.71-2.71-1.7 0-2.98 1.54-2.67 3.2l1.17 6.34c-0.72998 0.44-1.46 1-2.15 1.7-2.43 2.5-3.23 5.58-3.49 7.32-0.08 0.44-0.12 0.88-0.13 1.34v0.02c0 2.88 1.67 5.36 4.08 6.55 0 0 2.62 1.53 7.64 1.53 5.03 0 7.64-1.53 7.64-1.53 2.42-1.19 4.08-3.67 4.08-6.55 0.02 0 0.02-0.01 0.02-0.03z" fill="url(#e)"/><path d="m27.73 21.89c0-0.45-0.04-0.9-0.12-1.33-0.26-1.73-1.05-4.82-3.49-7.32-0.55-0.57-1.13-1.04-1.72-1.43l1.22-6.61c0.3-1.66-0.98-3.2-2.67-3.2-1.5 0-2.71 1.21-2.71 2.71v5.4c-1.32-0.26-2.23-0.22-2.23-0.22s-0.7-0.04-1.76 0.13v-5.31c0-1.5-1.21-2.71-2.71-2.71-1.7 0-2.98 1.54-2.67 3.2l1.17 6.34c-0.72998 0.44-1.46 1-2.15 1.7-2.43 2.5-3.23 5.58-3.49 7.32-0.08 0.44-0.12 0.88-0.13 1.34v0.02c0 2.88 1.67 5.36 4.08 6.55 0 0 2.62 1.53 7.64 1.53 5.03 0 7.64-1.53 7.64-1.53 2.42-1.19 4.08-3.67 4.08-6.55 0.02 0 0.02-0.01 0.02-0.03z" fill="url(#d)"/><path d="m27.73 21.89c0-0.45-0.04-0.9-0.12-1.33-0.26-1.73-1.05-4.82-3.49-7.32-0.55-0.57-1.13-1.04-1.72-1.43l1.22-6.61c0.3-1.66-0.98-3.2-2.67-3.2-1.5 0-2.71 1.21-2.71 2.71v5.4c-1.32-0.26-2.23-0.22-2.23-0.22s-0.7-0.04-1.76 0.13v-5.31c0-1.5-1.21-2.71-2.71-2.71-1.7 0-2.98 1.54-2.67 3.2l1.17 6.34c-0.72998 0.44-1.46 1-2.15 1.7-2.43 2.5-3.23 5.58-3.49 7.32-0.08 0.44-0.12 0.88-0.13 1.34v0.02c0 2.88 1.67 5.36 4.08 6.55 0 0 2.62 1.53 7.64 1.53 5.03 0 7.64-1.53 7.64-1.53 2.42-1.19 4.08-3.67 4.08-6.55 0.02 0 0.02-0.01 0.02-0.03z" fill="url(#c)"/><path d="m21.968 29.151v-11.714l-11.976-5.8682c-0.71386 0.4355-1.4269 0.9862-2.1016 1.6707-2.43 2.5-3.23 5.58-3.49 7.32-0.08 0.44-0.12 0.88-0.13 1.34v0.02c0 2.88 1.67 5.36 4.08 6.55 0 0 2.62 1.53 7.64 1.53 2.6991 0 4.7014-0.4405 5.9775-0.8488z" fill="url(#b)"/><path d="m21.968 29.151v-11.714l-11.976-5.8682c-0.71386 0.4355-1.4269 0.9862-2.1016 1.6707-2.43 2.5-3.23 5.58-3.49 7.32-0.08 0.44-0.12 0.88-0.13 1.34v0.02c0 2.88 1.67 5.36 4.08 6.55 0 0 2.62 1.53 7.64 1.53 2.6991 0 4.7014-0.4405 5.9775-0.8488z" fill="url(#a)"/><path d="M14.25 7.415H9.2788L8.87003 5.2C8.56001 3.54 9.84003 2 11.54 2C13.04 2 14.25 3.21 14.25 4.71V7.415Z" fill="url(#am)"/><path d="m10.042 11.228c0.2034 1.0455 1.1905 1.7483 2.245 1.5983l0.2434-0.0347c0.9858-0.1402 1.7183-0.9843 1.7183-1.98v-5.3214c0-0.00104 2e-4 -0.00206 6e-4 -3e-3 4e-4 -9.5e-4 6e-4 -0.00197 6e-4 -3e-3v-0.77385c0-1.5-1.21-2.71-2.71-2.71-1.7 0-2.98 1.54-2.67 3.2l1.1721 6.0277z" fill="url(#al)"/><path d="m22.477 11.232c-0.2033 1.0455-1.1904 1.7483-2.245 1.5983l-0.2434-0.0346c-0.9858-0.1403-1.7182-0.9844-1.7182-1.9801v-5.3214c0-0.00103-3e-4 -0.00205-7e-4 -3e-3 -4e-4 -9.4e-4 -6e-4 -0.00196-6e-4 -3e-3v-0.77384c0-1.5 1.21-2.71 2.71-2.71 1.7 0 2.98 1.54 2.67 3.2l-1.1721 6.0277z" fill="url(#ak)"/><path d="m22.477 11.232c-0.2033 1.0455-1.1904 1.7483-2.245 1.5983l-0.2434-0.0346c-0.9858-0.1403-1.7182-0.9844-1.7182-1.9801v-5.3214c0-0.00103-3e-4 -0.00205-7e-4 -3e-3 -4e-4 -9.4e-4 -6e-4 -0.00196-6e-4 -3e-3v-0.77384c0-1.5 1.21-2.71 2.71-2.71 1.7 0 2.98 1.54 2.67 3.2l-1.1721 6.0277z" fill="url(#aj)"/><path d="m22.477 11.232c-0.2033 1.0455-1.1904 1.7483-2.245 1.5983l-0.2434-0.0346c-0.9858-0.1403-1.7182-0.9844-1.7182-1.9801v-5.3214c0-0.00103-3e-4 -0.00205-7e-4 -3e-3 -4e-4 -9.4e-4 -6e-4 -0.00196-6e-4 -3e-3v-0.77384c0-1.5 1.21-2.71 2.71-2.71 1.7 0 2.98 1.54 2.67 3.2l-1.1721 6.0277z" fill="url(#ai)"/><path d="m22.477 11.232c-0.2033 1.0455-1.1904 1.7483-2.245 1.5983l-0.2434-0.0346c-0.9858-0.1403-1.7182-0.9844-1.7182-1.9801v-5.3214c0-0.00103-3e-4 -0.00205-7e-4 -3e-3 -4e-4 -9.4e-4 -6e-4 -0.00196-6e-4 -3e-3v-0.77384c0-1.5 1.21-2.71 2.71-2.71 1.7 0 2.98 1.54 2.67 3.2l-1.1721 6.0277z" fill="url(#ah)"/><path d="m22.477 11.232c-0.2033 1.0455-1.1904 1.7483-2.245 1.5983l-0.2434-0.0346c-0.9858-0.1403-1.7182-0.9844-1.7182-1.9801v-5.3214c0-0.00103-3e-4 -0.00205-7e-4 -3e-3 -4e-4 -9.4e-4 -6e-4 -0.00196-6e-4 -3e-3v-0.77384c0-1.5 1.21-2.71 2.71-2.71 1.7 0 2.98 1.54 2.67 3.2l-1.1721 6.0277z" fill="url(#ag)"/><path d="m18.238 7.415h4.9712l0.4088-2.215c0.31-1.66-0.97-3.2-2.67-3.2-1.5 0-2.71 1.21-2.71 2.71v2.705z" fill="url(#af)"/><path d="m12.07 11.33c-0.33 0-0.6-0.23-0.66-0.55l-1.08-5.85c-0.09-0.49 0.13-0.84 0.26-1 0.14-0.16 0.44-0.43 0.93-0.43 0.67 0 1.23 0.57 1.23 1.24v5.92c0 0.36-0.3 0.67-0.68 0.67z" fill="url(#ae)"/><path d="m12.07 11.33c-0.33 0-0.6-0.23-0.66-0.55l-1.08-5.85c-0.09-0.49 0.13-0.84 0.26-1 0.14-0.16 0.44-0.43 0.93-0.43 0.67 0 1.23 0.57 1.23 1.24v5.92c0 0.36-0.3 0.67-0.68 0.67z" fill="url(#ad)"/><path d="m12.07 11.33c-0.33 0-0.6-0.23-0.66-0.55l-1.08-5.85c-0.09-0.49 0.13-0.84 0.26-1 0.14-0.16 0.44-0.43 0.93-0.43 0.67 0 1.23 0.57 1.23 1.24v5.92c0 0.36-0.3 0.67-0.68 0.67z" fill="url(#ab)"/><path d="m19.73 10.65v-5.91c0-0.67 0.55-1.24 1.23-1.24 0.49 0 0.79 0.28 0.93 0.44s0.35 0.51 0.26 1l-1.08 5.84c-0.06 0.32-0.34 0.55-0.66 0.55-0.38 0-0.68-0.31-0.68-0.68z" fill="url(#aa)"/><path d="m19.73 10.65v-5.91c0-0.67 0.55-1.24 1.23-1.24 0.49 0 0.79 0.28 0.93 0.44s0.35 0.51 0.26 1l-1.08 5.84c-0.06 0.32-0.34 0.55-0.66 0.55-0.38 0-0.68-0.31-0.68-0.68z" fill="url(#z)"/><path d="m19.73 10.65v-5.91c0-0.67 0.55-1.24 1.23-1.24 0.49 0 0.79 0.28 0.93 0.44s0.35 0.51 0.26 1l-1.08 5.84c-0.06 0.32-0.34 0.55-0.66 0.55-0.38 0-0.68-0.31-0.68-0.68z" fill="url(#y)"/><path d="m22.84 23.13 6.74 1.81c0.27 0.07 0.42 0.34 0.35 0.61s-0.34 0.42-0.61 0.35l-6.74-1.81c-0.27-0.07-0.42-0.34-0.35-0.61s0.34-0.43 0.61-0.35z" fill="url(#x)"/><path d="m22.73 20.98h6.98c0.28 0 0.5 0.22 0.5 0.5s-0.22 0.5-0.5 0.5h-6.98c-0.28 0-0.5-0.22-0.5-0.5 0-0.27 0.22-0.5 0.5-0.5z" fill="url(#w)"/><path d="m9.65 23.13-6.74 1.81c-0.27 0.06-0.43 0.34-0.36 0.6 0.07 0.27 0.34 0.42 0.61 0.35l6.74-1.81c0.27-0.07 0.42-0.34 0.35-0.61-0.06-0.26-0.34-0.42-0.6-0.34z" fill="url(#v)"/><path d="m9.76 20.98h-6.98c-0.28 0-0.5 0.22-0.5 0.5s0.22 0.5 0.5 0.5h6.98c0.27997 0 0.49997-0.22 0.49997-0.5 0-0.27-0.23-0.5-0.49997-0.5z" fill="url(#u)"/><path d="m16.23 23.52c0 1.045-0.78 1.8941-1.74 1.8941s-1.74-0.8491-1.74-1.8941" stroke="url(#t)" stroke-linecap="round" stroke-miterlimit="10"/><path d="m19.72 23.52c0 1.045-0.78 1.8941-1.74 1.8941s-1.74-0.8491-1.74-1.8941" stroke="url(#s)" stroke-linecap="round" stroke-miterlimit="10"/><path d="m13.25 19.964c-0.4 0-0.73-0.33-0.73-0.73v-1.5181c0-0.4 0.33-0.73 0.73-0.73s0.73 0.33 0.73 0.73v1.5181c0 0.41-0.33 0.73-0.73 0.73z" fill="url(#q)"/><path d="m13.25 19.964c-0.4 0-0.73-0.33-0.73-0.73v-1.5181c0-0.4 0.33-0.73 0.73-0.73s0.73 0.33 0.73 0.73v1.5181c0 0.41-0.33 0.73-0.73 0.73z" fill="url(#p)"/><path d="m13.25 19.964c-0.4 0-0.73-0.33-0.73-0.73v-1.5181c0-0.4 0.33-0.73 0.73-0.73s0.73 0.33 0.73 0.73v1.5181c0 0.41-0.33 0.73-0.73 0.73z" fill="url(#o)"/><path d="m17.831 21.066c0 0.4262-0.9297 1.4889-1.5781 1.4889-0.6937 0-1.5937-0.9699-1.5937-1.4889 0-0.5191 0.7031-0.5669 1.5937-0.5669s1.5781 0.0342 1.5781 0.5669z" fill="url(#n)"/><path d="m17.831 21.066c0 0.4262-0.9297 1.4889-1.5781 1.4889-0.6937 0-1.5937-0.9699-1.5937-1.4889 0-0.5191 0.7031-0.5669 1.5937-0.5669s1.5781 0.0342 1.5781 0.5669z" fill="url(#m)"/><path d="m17.831 21.066c0 0.4262-0.9297 1.4889-1.5781 1.4889-0.6937 0-1.5937-0.9699-1.5937-1.4889 0-0.5191 0.7031-0.5669 1.5937-0.5669s1.5781 0.0342 1.5781 0.5669z" fill="url(#l)"/><path d="m19.25 19.964c-0.4 0-0.73-0.33-0.73-0.73v-1.5181c0-0.4 0.33-0.73 0.73-0.73s0.73 0.33 0.73 0.73v1.5181c0 0.41-0.33 0.73-0.73 0.73z" fill="url(#k)"/><path d="m19.25 19.964c-0.4 0-0.73-0.33-0.73-0.73v-1.5181c0-0.4 0.33-0.73 0.73-0.73s0.73 0.33 0.73 0.73v1.5181c0 0.41-0.33 0.73-0.73 0.73z" fill="url(#j)"/><path d="m19.25 19.964c-0.4 0-0.73-0.33-0.73-0.73v-1.5181c0-0.4 0.33-0.73 0.73-0.73s0.73 0.33 0.73 0.73v1.5181c0 0.41-0.33 0.73-0.73 0.73z" fill="url(#i)"/><g filter="url(#as)"><circle cx="9.842" cy="21.343" r=".18359" fill="#D6CEDE"/></g><g filter="url(#ar)"><circle cx="29.764" cy="21.343" r=".18359" fill="#D6CEDE"/></g><g filter="url(#aq)"><circle cx="29.588" cy="25.293" r=".18359" fill="#D6CEDE" fill-opacity=".75"/></g><g filter="url(#ap)"><circle cx="9.8158" cy="23.46" r=".18359" fill="#D6CEDE" fill-opacity=".75"/></g><g filter="url(#ao)"><path d="m12.75 23.52c0.0417 0.5209 0.5344 1.5813 1.6094 1.6563 1.3437 0.0937 1.8125-0.9688 1.8594-1.6563-0.0261 0.5521 0.5781 1.7344 1.8437 1.7344 1.0875 0 1.599-1.1823 1.6563-1.7344" stroke="url(#h)" stroke-linecap="round" stroke-linejoin="round" stroke-width=".25"/></g><defs><filter id="as" x="9.4084" y="20.91" width=".86719" height=".86719" color-interpolation-filters="sRGB" filterUnits="userSpaceOnUse"><feFlood flood-opacity="0" result="BackgroundImageFix"/><feBlend in="SourceGraphic" in2="BackgroundImageFix" result="shape"/><feGaussianBlur result="effect1_foregroundBlur_28327_3835" stdDeviation="0.125"/></filter><filter id="ar" x="29.33" y="20.91" width=".86719" height=".86719" color-interpolation-filters="sRGB" filterUnits="userSpaceOnUse"><feFlood flood-opacity="0" result="BackgroundImageFix"/><feBlend in="SourceGraphic" in2="BackgroundImageFix" result="shape"/><feGaussianBlur result="effect1_foregroundBlur_28327_3835" stdDeviation="0.125"/></filter><filter id="aq" x="29.154" y="24.859" width=".86719" height=".86719" color-interpolation-filters="sRGB" filterUnits="userSpaceOnUse"><feFlood flood-opacity="0" result="BackgroundImageFix"/><feBlend in="SourceGraphic" in2="BackgroundImageFix" result="shape"/><feGaussianBlur result="effect1_foregroundBlur_28327_3835" stdDeviation="0.125"/></filter><filter id="ap" x="9.3822" y="23.026" width=".86719" height=".86719" color-interpolation-filters="sRGB" filterUnits="userSpaceOnUse"><feFlood flood-opacity="0" result="BackgroundImageFix"/><feBlend in="SourceGraphic" in2="BackgroundImageFix" result="shape"/><feGaussianBlur result="effect1_foregroundBlur_28327_3835" stdDeviation="0.125"/></filter><filter id="ao" x="12.375" y="23.145" width="7.7188" height="2.4844" color-interpolation-filters="sRGB" filterUnits="userSpaceOnUse"><feFlood flood-opacity="0" result="BackgroundImageFix"/><feBlend in="SourceGraphic" in2="BackgroundImageFix" result="shape"/><feGaussianBlur result="effect1_foregroundBlur_28327_3835" stdDeviation="0.125"/></filter><radialGradient id="an" cx="0" cy="0" r="1" gradientTransform="translate(24.457 12.197) rotate(132.26) scale(14.782)" gradientUnits="userSpaceOnUse"><stop stop-color="#E6E6E6" offset="0"/><stop stop-color="#D3D3D3" offset="1"/></radialGradient><radialGradient id="ac" cx="0" cy="0" r="1" gradientTransform="translate(21.855 12.664) rotate(134.1) scale(20.9 24.485)" gradientUnits="userSpaceOnUse"><stop stop-color="#CCC9CF" stop-opacity="0" offset=".62135"/><stop stop-color="#CCC9CF" offset="1"/></radialGradient><radialGradient id="r" cx="0" cy="0" r="1" gradientTransform="translate(28.126 14.799) rotate(144) scale(9.6479 8.0836)" gradientUnits="userSpaceOnUse"><stop stop-color="#F7F5FA" offset="0"/><stop stop-color="#F7F5FA" stop-opacity="0" offset="1"/></radialGradient><radialGradient id="g" cx="0" cy="0" r="1" gradientTransform="translate(19.187 12.264) rotate(87.075) scale(20.2 29.058)" gradientUnits="userSpaceOnUse"><stop stop-color="#B59AD0" stop-opacity="0" offset=".55064"/><stop stop-color="#B59AD0" offset="1"/></radialGradient><radialGradient id="f" cx="0" cy="0" r="1" gradientTransform="translate(19.187 12.264) rotate(92) scale(18.81 27.261)" gradientUnits="userSpaceOnUse"><stop stop-color="#D6B8E0" stop-opacity="0" offset=".92177"/><stop stop-color="#D6B8E0" offset="1"/></radialGradient><radialGradient id="e" cx="0" cy="0" r="1" gradientTransform="translate(14.249 2.1562) rotate(118.75) scale(4.0279 5.3737)" gradientUnits="userSpaceOnUse"><stop stop-color="#E7E3E7" offset="0"/><stop stop-color="#E7E3E7" stop-opacity="0" offset="1"/></radialGradient><radialGradient id="d" cx="0" cy="0" r="1" gradientTransform="translate(7.28 22.812) rotate(16.984) scale(13.266 17.491)" gradientUnits="userSpaceOnUse"><stop stop-color="#CDCAD2" offset="0"/><stop stop-color="#CDCAD2" stop-opacity="0" offset="1"/></radialGradient><radialGradient id="c" cx="0" cy="0" r="1" gradientTransform="translate(22.968 23.062) rotate(90) scale(3.7188 5.4688)" gradientUnits="userSpaceOnUse"><stop stop-color="#D3C8DF" offset="0"/><stop stop-color="#D2CBDA" stop-opacity="0" offset="1"/></radialGradient><radialGradient id="b" cx="0" cy="0" r="1" gradientTransform="translate(24.718 18.375) rotate(159.24) scale(22.392 15.088)" gradientUnits="userSpaceOnUse"><stop stop-color="#E9E9E9" stop-opacity="0" offset=".91099"/><stop stop-color="#E9E9E9" offset=".99495"/></radialGradient><radialGradient id="a" cx="0" cy="0" r="1" gradientTransform="translate(9.905 30.438) rotate(-67.313) scale(8.3322 25.672)" gradientUnits="userSpaceOnUse"><stop stop-color="#B59AD0" offset="0"/><stop stop-color="#B59AD0" stop-opacity="0" offset=".88034"/></radialGradient><radialGradient id="am" cx="0" cy="0" r="1" gradientTransform="translate(11.537 6.5156) rotate(-90) scale(4.5156 3.4995)" gradientUnits="userSpaceOnUse"><stop stop-color="#EFEEEF" stop-opacity="0" offset=".95156"/><stop stop-color="#EFEEEF" offset="1"/></radialGradient><linearGradient id="al" x1="9.7175" x2="13.405" y1="10.375" y2="9.625" gradientUnits="userSpaceOnUse"><stop stop-color="#D3CED5" offset="0"/><stop stop-color="#D3CED5" stop-opacity="0" offset="1"/></linearGradient><linearGradient id="ak" x1="15.436" x2="24.811" y1="6.3164" y2="7.0664" gradientUnits="userSpaceOnUse"><stop stop-color="#D3CED5" offset="0"/><stop stop-color="#D3CED5" stop-opacity="0" offset="1"/></linearGradient><linearGradient id="aj" x1="20.28" x2="20.28" y1="13.098" y2="7.8789" gradientUnits="userSpaceOnUse"><stop stop-color="#E1E1E1" offset="0"/><stop stop-color="#E1E1E1" stop-opacity="0" offset="1"/></linearGradient><radialGradient id="ai" cx="0" cy="0" r="1" gradientTransform="translate(22.561 12.379) rotate(192.95) scale(3.2066 1.5685)" gradientUnits="userSpaceOnUse"><stop stop-color="#ECEBED" offset="0"/><stop stop-color="#ECEBED" stop-opacity="0" offset="1"/></radialGradient><radialGradient id="ah" cx="0" cy="0" r="1" gradientTransform="translate(24.186 3.9414) rotate(148.08) scale(4.4918 8.3121)" gradientUnits="userSpaceOnUse"><stop stop-color="#E7E3E7" offset="0"/><stop stop-color="#E7E3E7" stop-opacity="0" offset="1"/></radialGradient><linearGradient id="ag" x1="23.139" x2="22.499" y1="8.7227" y2="8.6133" gradientUnits="userSpaceOnUse"><stop stop-color="#DDD6E1" offset="0"/><stop stop-color="#DFDBE1" stop-opacity="0" offset="1"/></linearGradient><radialGradient id="af" cx="0" cy="0" r="1" gradientTransform="translate(20.951 6.5156) rotate(-90) scale(4.5156 3.4995)" gradientUnits="userSpaceOnUse"><stop stop-color="#EFEEEF" stop-opacity="0" offset=".95156"/><stop stop-color="#EFEEEF" offset="1"/></radialGradient><radialGradient id="ae" cx="0" cy="0" r="1" gradientTransform="translate(10.999 8.9062) rotate(259.41) scale(7.8208 1.5474)" gradientUnits="userSpaceOnUse"><stop stop-color="#FABDB6" offset="0"/><stop stop-color="#EEA49C" offset="1"/></radialGradient><radialGradient id="ad" cx="0" cy="0" r="1" gradientTransform="translate(9.3592 7.5938) rotate(-62.278) scale(5.5071 2.2337)" gradientUnits="userSpaceOnUse"><stop stop-color="#FABDB6" offset="0"/><stop stop-color="#FABDB6" stop-opacity="0" offset="1"/></radialGradient><linearGradient id="ab" x1="13.092" x2="11.53" y1="3.5" y2="6.0625" gradientUnits="userSpaceOnUse"><stop stop-color="#F59D94" offset=".10924"/><stop stop-color="#F2A7A0" stop-opacity="0" offset="1"/></linearGradient><radialGradient id="aa" cx="0" cy="0" r="1" gradientTransform="translate(19.73 8.1562) rotate(-90) scale(7.8438 1.5812)" gradientUnits="userSpaceOnUse"><stop stop-color="#FABDB6" offset="0"/><stop stop-color="#EEA49C" offset="1"/></radialGradient><radialGradient id="z" cx="0" cy="0" r="1" gradientTransform="translate(18.78 7.5938) rotate(-62.272) scale(5.5074 2.2342)" gradientUnits="userSpaceOnUse"><stop stop-color="#FABDB6" offset="0"/><stop stop-color="#FABDB6" stop-opacity="0" offset="1"/></radialGradient><linearGradient id="y" x1="22.811" x2="20.499" y1="3.8125" y2="5.9693" gradientUnits="userSpaceOnUse"><stop stop-color="#F59D94" offset=".10924"/><stop stop-color="#F2A7A0" stop-opacity="0" offset="1"/></linearGradient><linearGradient id="x" x1="26.53" x2="26.336" y1="24.328" y2="25.086" gradientUnits="userSpaceOnUse"><stop stop-color="#BAB4C0" offset="0"/><stop stop-color="#9987AA" offset="1"/></linearGradient><linearGradient id="w" x1="26.22" x2="26.22" y1="21.219" y2="22.125" gradientUnits="userSpaceOnUse"><stop stop-color="#CAC6D0" offset="0"/><stop stop-color="#ADA0BB" offset="1"/></linearGradient><linearGradient id="v" x1="6.4441" x2="6.655" y1="24.211" y2="25.078" gradientUnits="userSpaceOnUse"><stop stop-color="#BAB4C0" offset="0"/><stop stop-color="#9987AA" offset="1"/></linearGradient><linearGradient id="u" x1="6.27" x2="6.27" y1="21.219" y2="22.125" gradientUnits="userSpaceOnUse"><stop stop-color="#CAC6D0" offset="0"/><stop stop-color="#ADA0BB" offset="1"/></linearGradient><radialGradient id="t" cx="0" cy="0" r="1" gradientTransform="translate(14.484 24.078) rotate(90) scale(1.7188 2.1884)" gradientUnits="userSpaceOnUse"><stop stop-color="#423539" offset=".0055866"/><stop stop-color="#3C223C" offset="1"/></radialGradient><radialGradient id="s" cx="0" cy="0" r="1" gradientTransform="translate(17.974 24.078) rotate(90) scale(1.7188 2.1884)" gradientUnits="userSpaceOnUse"><stop stop-color="#423539" offset=".0055866"/><stop stop-color="#3C223C" offset="1"/></radialGradient><linearGradient id="q" x1="13.98" x2="13.135" y1="18.475" y2="18.475" gradientUnits="userSpaceOnUse"><stop stop-color="#594C4F" offset=".225"/><stop stop-color="#392833" offset="1"/></linearGradient><linearGradient id="p" x1="14.208" x2="14.208" y1="20.008" y2="18.609" gradientUnits="userSpaceOnUse"><stop stop-color="#552D52" offset="0"/><stop stop-color="#552D52" stop-opacity="0" offset="1"/></linearGradient><radialGradient id="o" cx="0" cy="0" r="1" gradientTransform="translate(13.534 18.654) rotate(250.87) scale(1.7183 1.6449)" gradientUnits="userSpaceOnUse"><stop stop-color="#594C4F" stop-opacity="0" offset=".81395"/><stop stop-color="#594C4F" offset="1"/></radialGradient><linearGradient id="n" x1="15.276" x2="16.58" y1="20.724" y2="22.428" gradientUnits="userSpaceOnUse"><stop stop-color="#F03273" offset="0"/><stop stop-color="#FF32AF" offset="1"/></linearGradient><radialGradient id="m" cx="0" cy="0" r="1" gradientTransform="translate(17.011 21.23) rotate(187.12) scale(2.5352 2.1517)" gradientUnits="userSpaceOnUse"><stop stop-color="#D53238" stop-opacity="0" offset=".45184"/><stop stop-color="#D53238" offset="1"/></radialGradient><radialGradient id="l" cx="0" cy="0" r="1" gradientTransform="translate(17.581 20.895) rotate(154.69) scale(1.4778 .80162)" gradientUnits="userSpaceOnUse"><stop stop-color="#FF8AD5" offset="0"/><stop stop-color="#FF6CCB" stop-opacity="0" offset=".66319"/></radialGradient><linearGradient id="k" x1="19.98" x2="19.135" y1="18.475" y2="18.475" gradientUnits="userSpaceOnUse"><stop stop-color="#594C4F" offset=".225"/><stop stop-color="#392833" offset="1"/></linearGradient><linearGradient id="j" x1="20.208" x2="20.208" y1="20.008" y2="18.609" gradientUnits="userSpaceOnUse"><stop stop-color="#552D52" offset="0"/><stop stop-color="#552D52" stop-opacity="0" offset="1"/></linearGradient><radialGradient id="i" cx="0" cy="0" r="1" gradientTransform="translate(19.534 18.654) rotate(250.87) scale(1.7183 1.6449)" gradientUnits="userSpaceOnUse"><stop stop-color="#594C4F" stop-opacity="0" offset=".81395"/><stop stop-color="#594C4F" offset="1"/></radialGradient><linearGradient id="h" x1="12.562" x2="20.078" y1="24.02" y2="24.02" gradientUnits="userSpaceOnUse"><stop stop-color="#5F5356" offset="0"/><stop stop-color="#5F5356" stop-opacity="0" offset=".28898"/><stop stop-color="#5F5356" stop-opacity="0" offset=".44491"/><stop stop-color="#5F5356" offset=".5343"/><stop stop-color="#5F5356" stop-opacity="0" offset="1"/></linearGradient></defs></svg>
