<svg fill="none" viewBox="0 0 32 32" xmlns="http://www.w3.org/2000/svg"><g filter="url(#v)"><path d="m15.98 21.89c0.5523 0 1 0.4477 1 1v3.54c0 1.9223-1.5477 3.47-3.47 3.47-1.9249 0-3.47-1.5604-3.47-3.47 0-0.5523 0.4477-1 1-1s1 0.4477 1 1c0 0.8104 0.6549 1.47 1.47 1.47 0.8177 0 1.47-0.6523 1.47-1.47v-3.54c0-0.5523 0.4477-1 1-1z" clip-rule="evenodd" fill="url(#m)" fill-rule="evenodd"/></g><g filter="url(#u)"><path d="m11.04 26.131c0 1.4061 1.1373 2.5538 2.5538 2.5538s2.5539-1.1373 2.5539-2.5538v-3.6602" stroke="url(#i)" stroke-linecap="round" stroke-miterlimit="10" stroke-width=".5"/></g><g filter="url(#t)"><path d="m16.98 4.2302c0-0.55229-0.4477-1-1-1s-1 0.44772-1 1v18.154c0 0.0512 0.0725 0.072 0.1031 0.0309 0.2147-0.2875 0.5444-0.5247 0.9142-0.5247 0.3526 0 0.6689 0.2229 0.8836 0.4888 0.0313 0.0387 0.0991 0.0174 0.0991-0.0323v-18.117z" fill="url(#h)"/><path d="m16.98 4.2302c0-0.55229-0.4477-1-1-1s-1 0.44772-1 1v18.154c0 0.0512 0.0725 0.072 0.1031 0.0309 0.2147-0.2875 0.5444-0.5247 0.9142-0.5247 0.3526 0 0.6689 0.2229 0.8836 0.4888 0.0313 0.0387 0.0991 0.0174 0.0991-0.0323v-18.117z" fill="url(#g)"/></g><path d="m16.889 2.7994c0.02 0.0843-0.0497 0.15809-0.1363 0.15809h-1.5757c-0.0866 0-0.1563-0.07379-0.1363-0.15809 0.0992-0.41842 0.4753-0.72968 0.9241-0.72968s0.8249 0.31126 0.9242 0.72968z" fill="url(#f)"/><path d="m16.889 2.7994c0.02 0.0843-0.0497 0.15809-0.1363 0.15809h-1.5757c-0.0866 0-0.1563-0.07379-0.1363-0.15809 0.0992-0.41842 0.4753-0.72968 0.9241-0.72968s0.8249 0.31126 0.9242 0.72968z" fill="url(#e)"/><g filter="url(#s)"><path d="m5.5 14.91c1.28 0 2.4 0.7 3 1.73 0.1 0.16 0.27 0.26 0.46 0.26h0.06c0.19 0 0.36-0.1 0.46-0.26 0.61-1.03 1.72-1.73 3-1.73s2.4 0.7 3 1.73c0.1 0.16 0.27 0.26 0.46 0.26h0.06c0.19 0 0.36-0.1 0.46-0.26 0.61-1.03 1.72-1.73 3-1.73s2.4 0.7 3 1.73c0.1 0.16 0.27 0.26 0.46 0.26h0.06c0.19 0 0.36-0.1 0.46-0.26 0.61-1.03 1.72-1.73 3-1.73 1.34 0 2.5 0.76 3.08 1.88 0.04 0.07 0.11 0.12 0.19 0.12 0.12 0 0.22-0.1 0.22-0.22-0.1-7.62-6.31-13.76-13.96-13.76s-13.85 6.14-13.97 13.75c0 0.12 0.1 0.22 0.22 0.22 0.08 0 0.16-0.05 0.19-0.12 0.59-1.11 1.75-1.87 3.09-1.87z" fill="url(#d)"/><path d="m5.5 14.91c1.28 0 2.4 0.7 3 1.73 0.1 0.16 0.27 0.26 0.46 0.26h0.06c0.19 0 0.36-0.1 0.46-0.26 0.61-1.03 1.72-1.73 3-1.73s2.4 0.7 3 1.73c0.1 0.16 0.27 0.26 0.46 0.26h0.06c0.19 0 0.36-0.1 0.46-0.26 0.61-1.03 1.72-1.73 3-1.73s2.4 0.7 3 1.73c0.1 0.16 0.27 0.26 0.46 0.26h0.06c0.19 0 0.36-0.1 0.46-0.26 0.61-1.03 1.72-1.73 3-1.73 1.34 0 2.5 0.76 3.08 1.88 0.04 0.07 0.11 0.12 0.19 0.12 0.12 0 0.22-0.1 0.22-0.22-0.1-7.62-6.31-13.76-13.96-13.76s-13.85 6.14-13.97 13.75c0 0.12 0.1 0.22 0.22 0.22 0.08 0 0.16-0.05 0.19-0.12 0.59-1.11 1.75-1.87 3.09-1.87z" fill="url(#c)"/><path d="m5.5 14.91c1.28 0 2.4 0.7 3 1.73 0.1 0.16 0.27 0.26 0.46 0.26h0.06c0.19 0 0.36-0.1 0.46-0.26 0.61-1.03 1.72-1.73 3-1.73s2.4 0.7 3 1.73c0.1 0.16 0.27 0.26 0.46 0.26h0.06c0.19 0 0.36-0.1 0.46-0.26 0.61-1.03 1.72-1.73 3-1.73s2.4 0.7 3 1.73c0.1 0.16 0.27 0.26 0.46 0.26h0.06c0.19 0 0.36-0.1 0.46-0.26 0.61-1.03 1.72-1.73 3-1.73 1.34 0 2.5 0.76 3.08 1.88 0.04 0.07 0.11 0.12 0.19 0.12 0.12 0 0.22-0.1 0.22-0.22-0.1-7.62-6.31-13.76-13.96-13.76s-13.85 6.14-13.97 13.75c0 0.12 0.1 0.22 0.22 0.22 0.08 0 0.16-0.05 0.19-0.12 0.59-1.11 1.75-1.87 3.09-1.87z" fill="url(#b)"/></g><g filter="url(#r)"><path d="m15.806 4.0602v10.84" stroke="url(#a)" stroke-linecap="round" stroke-miterlimit="10" stroke-width=".4"/></g><g filter="url(#q)"><path d="m16.274 4.0602v10.84" stroke="url(#l)" stroke-linecap="round" stroke-miterlimit="10" stroke-width=".4"/></g><g filter="url(#p)"><path d="m9.04 14.85c0-5.99 2.61-10.06 6-10.84" stroke="#7B5EA6" stroke-linecap="round" stroke-miterlimit="10" stroke-width=".5"/></g><g filter="url(#o)" stroke-linecap="round" stroke-miterlimit="10" stroke-width=".5"><path d="m22.97 14.9c0-5.95-2.58-10.05-5.93-10.88" stroke="#7845AE"/><path d="m22.97 14.9c0-5.95-2.58-10.05-5.93-10.88" stroke="url(#k)"/></g><g filter="url(#n)"><path d="m22.97 14.9c0-5.95-2.58-10.05-5.93-10.88" stroke="url(#j)" stroke-linecap="round" stroke-miterlimit="10" stroke-width=".15"/></g><defs><filter id="v" x="10.04" y="21.64" width="7.19" height="8.26" color-interpolation-filters="sRGB" filterUnits="userSpaceOnUse"><feFlood flood-opacity="0" result="BackgroundImageFix"/><feBlend in="SourceGraphic" in2="BackgroundImageFix" result="shape"/><feColorMatrix in="SourceAlpha" result="hardAlpha" values="0 0 0 0 0 0 0 0 0 0 0 0 0 0 0 0 0 0 127 0"/><feOffset dx="0.25" dy="-0.25"/><feGaussianBlur stdDeviation="0.25"/><feComposite in2="hardAlpha" k2="-1" k3="1" operator="arithmetic"/><feColorMatrix values="0 0 0 0 0.380392 0 0 0 0 0.203922 0 0 0 0 0.368627 0 0 0 1 0"/><feBlend in2="shape" result="effect1_innerShadow_18_15449"/></filter><filter id="u" x="10.29" y="21.721" width="6.6077" height="7.714" color-interpolation-filters="sRGB" filterUnits="userSpaceOnUse"><feFlood flood-opacity="0" result="BackgroundImageFix"/><feBlend in="SourceGraphic" in2="BackgroundImageFix" result="shape"/><feGaussianBlur result="effect1_foregroundBlur_18_15449" stdDeviation="0.25"/></filter><filter id="t" x="14.98" y="3.1302" width="2" height="19.307" color-interpolation-filters="sRGB" filterUnits="userSpaceOnUse"><feFlood flood-opacity="0" result="BackgroundImageFix"/><feBlend in="SourceGraphic" in2="BackgroundImageFix" result="shape"/><feColorMatrix in="SourceAlpha" result="hardAlpha" values="0 0 0 0 0 0 0 0 0 0 0 0 0 0 0 0 0 0 127 0"/><feOffset dy="-0.1"/><feGaussianBlur stdDeviation="0.05"/><feComposite in2="hardAlpha" k2="-1" k3="1" operator="arithmetic"/><feColorMatrix values="0 0 0 0 0.27451 0 0 0 0 0.12549 0 0 0 0 0.427451 0 0 0 1 0"/><feBlend in2="shape" result="effect1_innerShadow_18_15449"/></filter><filter id="s" x="2" y="2.6302" width="27.93" height="14.28" color-interpolation-filters="sRGB" filterUnits="userSpaceOnUse"><feFlood flood-opacity="0" result="BackgroundImageFix"/><feBlend in="SourceGraphic" in2="BackgroundImageFix" result="shape"/><feColorMatrix in="SourceAlpha" result="hardAlpha" values="0 0 0 0 0 0 0 0 0 0 0 0 0 0 0 0 0 0 127 0"/><feOffset dy="-0.3"/><feGaussianBlur stdDeviation="0.3"/><feComposite in2="hardAlpha" k2="-1" k3="1" operator="arithmetic"/><feColorMatrix values="0 0 0 0 0.266667 0 0 0 0 0.184314 0 0 0 0 0.47451 0 0 0 1 0"/><feBlend in2="shape" result="effect1_innerShadow_18_15449"/></filter><filter id="r" x="15.206" y="3.4602" height="12.04" color-interpolation-filters="sRGB" filterUnits="userSpaceOnUse"><feFlood flood-opacity="0" result="BackgroundImageFix"/><feBlend in="SourceGraphic" in2="BackgroundImageFix" result="shape"/><feGaussianBlur result="effect1_foregroundBlur_18_15449" stdDeviation="0.2"/></filter><filter id="q" x="15.674" y="3.4602" height="12.04" color-interpolation-filters="sRGB" filterUnits="userSpaceOnUse"><feFlood flood-opacity="0" result="BackgroundImageFix"/><feBlend in="SourceGraphic" in2="BackgroundImageFix" result="shape"/><feGaussianBlur result="effect1_foregroundBlur_18_15449" stdDeviation="0.2"/></filter><filter id="p" x="8.39" y="3.3601" width="7.3001" height="12.14" color-interpolation-filters="sRGB" filterUnits="userSpaceOnUse"><feFlood flood-opacity="0" result="BackgroundImageFix"/><feBlend in="SourceGraphic" in2="BackgroundImageFix" result="shape"/><feColorMatrix in="SourceAlpha" result="hardAlpha" values="0 0 0 0 0 0 0 0 0 0 0 0 0 0 0 0 0 0 127 0"/><feOffset dx="-0.2" dy="-0.2"/><feComposite in2="hardAlpha" k2="-1" k3="1" operator="arithmetic"/><feColorMatrix values="0 0 0 0 0.321569 0 0 0 0 0.254902 0 0 0 0 0.529412 0 0 0 1 0"/><feBlend in2="shape" result="effect1_innerShadow_18_15449"/><feGaussianBlur result="effect2_foregroundBlur_18_15449" stdDeviation="0.2"/></filter><filter id="o" x="16.49" y="3.4701" width="7.03" height="11.98" color-interpolation-filters="sRGB" filterUnits="userSpaceOnUse"><feFlood flood-opacity="0" result="BackgroundImageFix"/><feBlend in="SourceGraphic" in2="BackgroundImageFix" result="shape"/><feGaussianBlur result="effect1_foregroundBlur_18_15449" stdDeviation="0.15"/></filter><filter id="n" x="16.815" y="3.7952" width="6.38" height="11.33" color-interpolation-filters="sRGB" filterUnits="userSpaceOnUse"><feFlood flood-opacity="0" result="BackgroundImageFix"/><feBlend in="SourceGraphic" in2="BackgroundImageFix" result="shape"/><feGaussianBlur result="effect1_foregroundBlur_18_15449" stdDeviation="0.075"/></filter><linearGradient id="m" x1="13.51" x2="13.51" y1="21.89" y2="29.06" gradientUnits="userSpaceOnUse"><stop stop-color="#7B4F49" offset="0"/><stop stop-color="#60333E" offset="1"/></linearGradient><linearGradient id="i" x1="15.225" x2="15.225" y1="28.5" y2="18.354" gradientUnits="userSpaceOnUse"><stop stop-color="#886B69" offset=".38061"/><stop stop-color="#886B69" stop-opacity="0" offset="1"/></linearGradient><radialGradient id="h" cx="0" cy="0" r="1" gradientTransform="translate(15.98 21.966) rotate(-90) scale(5.8683 3.0059)" gradientUnits="userSpaceOnUse"><stop stop-color="#504570" offset="0"/><stop stop-color="#3E3157" offset="1"/></radialGradient><radialGradient id="g" cx="0" cy="0" r="1" gradientTransform="translate(16.365 21.958) rotate(-90) scale(3.4613 6.9562e-7)" gradientUnits="userSpaceOnUse"><stop stop-color="#504573" offset="0"/><stop stop-color="#504573" stop-opacity="0" offset="1"/></radialGradient><radialGradient id="f" cx="0" cy="0" r="1" gradientTransform="translate(16.24 2.9137) rotate(-90) scale(.67342 .80368)" gradientUnits="userSpaceOnUse"><stop stop-color="#6C5983" offset="0"/><stop stop-color="#563E71" offset="1"/></radialGradient><linearGradient id="e" x1="16.062" x2="16.062" y1="2.9575" y2="2.7402" gradientUnits="userSpaceOnUse"><stop stop-color="#4A1876" offset="0"/><stop stop-color="#4A1876" stop-opacity="0" offset="1"/></linearGradient><radialGradient id="d" cx="0" cy="0" r="1" gradientTransform="translate(22.293 8.3342) rotate(158.64) scale(15.037 22.962)" gradientUnits="userSpaceOnUse"><stop stop-color="#8A60BB" offset=".24518"/><stop stop-color="#554A87" offset="1"/></radialGradient><radialGradient id="c" cx="0" cy="0" r="1" gradientTransform="translate(15.965 16.91) rotate(-27.737) scale(14.104 30.005)" gradientUnits="userSpaceOnUse"><stop stop-color="#8A63B5" stop-opacity="0" offset=".75988"/><stop stop-color="#8A63B5" offset="1"/></radialGradient><radialGradient id="b" cx="0" cy="0" r="1" gradientTransform="translate(23.399 9.9202) rotate(168.53) scale(21.338 42.631)" gradientUnits="userSpaceOnUse"><stop stop-color="#625D82" stop-opacity="0" offset=".88482"/><stop stop-color="#625D82" offset="1"/></radialGradient><linearGradient id="a" x1="15.335" x2="15.335" y1="13.435" y2="3.0911" gradientUnits="userSpaceOnUse"><stop stop-color="#7463A2" offset="0"/><stop stop-color="#7463A2" stop-opacity="0" offset="1"/></linearGradient><linearGradient id="l" x1="15.804" x2="15.804" y1="13.435" y2="3.0911" gradientUnits="userSpaceOnUse"><stop stop-color="#593E94" offset="0"/><stop stop-color="#68429F" stop-opacity="0" offset="1"/></linearGradient><linearGradient id="k" x1="16.445" x2="18.623" y1="4.0202" y2="4.906" gradientUnits="userSpaceOnUse"><stop stop-color="#7D55AA" offset="0"/><stop stop-color="#7D55AA" stop-opacity="0" offset="1"/></linearGradient><linearGradient id="j" x1="22.97" x2="21.406" y1="16.038" y2="6.0756" gradientUnits="userSpaceOnUse"><stop stop-color="#805FB2" offset="0"/><stop stop-color="#805FB2" stop-opacity="0" offset="1"/></linearGradient></defs></svg>
